<?xml version="1.0" encoding="UTF-8"?>
<!DOCTYPE svg PUBLIC "-//W3C//DTD SVG 1.1//EN" "http://www.w3.org/Graphics/SVG/1.1/DTD/svg11.dtd">
<!-- Creator: CorelDRAW -->
<svg xmlns="http://www.w3.org/2000/svg" xml:space="preserve" width="2048px" height="2048px" style="shape-rendering:geometricPrecision; text-rendering:geometricPrecision; image-rendering:optimizeQuality; fill-rule:evenodd; clip-rule:evenodd"
viewBox="0 0 2048 2048"
 xmlns:xlink="http://www.w3.org/1999/xlink">
 <defs>
  <style type="text/css">
   <![CDATA[
    .fil7 {fill:none}
    .fil6 {fill:#A11A1A}
    .fil4 {fill:#AAB2B1}
    .fil1 {fill:#BDBDBD}
    .fil3 {fill:#CAD1D0}
    .fil0 {fill:#E0E0E0}
    .fil5 {fill:#A52120;fill-rule:nonzero}
    .fil2 {fill:#B71C1C;fill-rule:nonzero}
   ]]>
  </style>
 </defs>
 <g id="Layer_x0020_1">
  <metadata id="CorelCorpID_0Corel-Layer"/>
  <g id="_272085280">
   <g>
    <g>
     <circle id="_412078288" class="fil0" transform="matrix(4.06416 0.00132222 0.00132259 -4.06416 1023.99 1023.97)" r="188.93"/>
     <path id="_412078528" class="fil1" d="M1418.78 365.296c-115.292,-69.2516 -250.251,-109.122 -394.535,-109.169 -144.285,-0.0472441 -279.268,39.737 -394.607,108.913 25.6477,266.082 192.421,471.499 394.418,471.564 201.997,0.0661418 368.903,-205.241 394.724,-471.307z"/>
     <path id="_412078840" class="fil2" d="M610.5 376.866c0.737008,7.67008 0.569292,5.37166 1.53189,12.9319 16.4043,128.713 65.1603,242.545 134.453,325.39 73.7835,88.2131 170.869,141.705 277.563,141.739 106.694,0.034252 203.81,-53.3882 277.656,-141.559 69.5186,-83.0056 118.417,-197.172 134.785,-326.268 0.914174,-7.24725 0.711024,-4.62638 1.42441,-11.9705l-37.8803 -22.7374c-0.0968505,0.994489 -1.61221,10.9831 -1.70788,11.9669 -13.0028,128.434 -59.8371,241.896 -127.728,322.963 -66.2256,79.076 -152.51,126.987 -246.535,126.957 -94.0265,-0.0307087 -180.28,-47.9989 -246.454,-127.117 -65.8997,-78.7926 -111.908,-188.146 -126.326,-312.077 -0.536221,-4.62284 -2.87362,-18.0213 -3.32362,-22.6914l-37.4587 22.4717z"/>
     <path id="_412078504" class="fil1" d="M1023.74 1791.81c144.284,0.0472441 279.268,-39.7359 394.605,-108.913 -25.6465,-266.087 -192.421,-471.504 -394.416,-471.568 -201.997,-0.0661418 -368.905,205.241 -394.725,471.312 115.292,69.2516 250.251,109.122 394.536,109.169z"/>
     <path id="_412078768" class="fil2" d="M610.08 1671.39c0.741733,-7.67008 0.572835,-5.37048 1.54016,-12.9307 16.487,-128.702 65.3174,-242.503 134.665,-325.303 73.8414,-88.1658 170.961,-141.593 277.655,-141.559 106.694,0.034252 203.775,53.5217 277.563,141.739 69.4654,83.0516 118.29,197.249 134.573,326.355 0.910631,7.24843 0.709843,4.62756 1.41732,11.9717l-37.8945 22.7126c-0.0956694,-0.994489 -1.60512,-10.9843 -1.70079,-11.9681 -12.9189,-128.443 -59.6788,-241.934 -127.518,-323.046 -66.1737,-79.1186 -152.426,-127.087 -246.453,-127.117 -94.0265,-0.0307087 -180.311,47.8807 -246.536,126.957 -65.9504,78.7501 -112.03,188.074 -126.528,311.996 -0.539764,4.62284 -2.88662,18.0189 -3.33898,22.689l-37.4433 -22.4965z"/>
     <path id="_412082104" class="fil3" d="M1023.74 1791.81l0.00944883 0 0.499607 -1535.69 -0.00944883 0c-424.068,-0.138189 -767.955,343.525 -768.093,767.593 -0.138189,424.068 343.525,767.955 767.593,768.093z"/>
     <path id="_412081696" class="fil4" d="M1024.25 256.127l-0.00944883 0c-144.285,-0.0472441 -279.268,39.737 -394.607,108.913 25.6477,266.082 192.421,471.499 394.418,471.564l0.00944883 0 0.188977 -580.477z"/>
     <path id="_412081456" class="fil5" d="M610.5 376.866c0.737008,7.67008 0.569292,5.37166 1.53189,12.9319 16.4043,128.713 65.1603,242.545 134.453,325.39 73.7835,88.2131 170.869,141.705 277.563,141.739l0.00944883 0 0.0141732 -40.6477 -0.00944883 0c-94.0265,-0.0307087 -180.28,-47.9989 -246.454,-127.117 -65.8997,-78.7926 -111.908,-188.146 -126.326,-312.077 -0.536221,-4.62284 -2.87362,-18.0213 -3.32362,-22.6914l-37.4587 22.4717z"/>
     <path id="_412081960" class="fil4" d="M1023.74 1791.81l0.00944883 0 0.188977 -580.482 -0.00944883 0c-201.997,-0.0661418 -368.905,205.241 -394.725,471.312 115.292,69.2516 250.251,109.122 394.536,109.169z"/>
     <path id="_412081744" class="fil5" d="M610.08 1671.39c0.741733,-7.67008 0.572835,-5.37048 1.54016,-12.9307 16.487,-128.702 65.3174,-242.503 134.665,-325.303 73.8414,-88.1658 170.961,-141.593 277.655,-141.559l0.00944883 0 -0.0129921 40.6477 -0.00944883 0c-94.0265,-0.0307087 -180.311,47.8807 -246.536,126.957 -65.9504,78.7501 -112.03,188.074 -126.528,311.996 -0.539764,4.62284 -2.88662,18.0189 -3.33898,22.689l-37.4433 -22.4965z"/>
    </g>
    <ellipse id="_412081336" class="fil6" cx="1023.53" cy="836.75" rx="7.31353" ry="55.6252"/>
    <ellipse id="_412081240" class="fil6" cx="1023.53" cy="1214.1" rx="7.31353" ry="55.6252"/>
    <ellipse id="_272084176" class="fil6" transform="matrix(0.721344 -0.171874 0.171874 0.721344 1096.08 828.644)" rx="9.14174" ry="69.5315"/>
    <ellipse id="_272083816" class="fil6" transform="matrix(0.721344 0.171874 0.171874 -0.721344 1096.08 1222.21)" rx="9.14174" ry="69.5315"/>
    <ellipse id="_272084128" class="fil6" transform="matrix(-0.721344 -0.171874 -0.171874 0.721344 953.266 828.644)" rx="9.14174" ry="69.5315"/>
    <ellipse id="_272084296" class="fil6" transform="matrix(-0.721344 0.171874 -0.171874 -0.721344 953.266 1222.21)" rx="9.14174" ry="69.5315"/>
    <ellipse id="_272084248" class="fil6" transform="matrix(0.660404 -0.337261 0.337261 0.660404 1164.32 808.406)" rx="9.14174" ry="69.5315"/>
    <ellipse id="_272083696" class="fil6" transform="matrix(0.660404 0.337261 0.337261 -0.660404 1164.32 1242.45)" rx="9.14174" ry="69.5315"/>
    <ellipse id="_272083624" class="fil6" transform="matrix(-0.660404 -0.337261 -0.337261 0.660404 885.027 808.406)" rx="9.14174" ry="69.5315"/>
    <ellipse id="_272083600" class="fil6" transform="matrix(-0.660404 0.337261 -0.337261 -0.660404 885.027 1242.45)" rx="9.14174" ry="69.5315"/>
    <ellipse id="_272083576" class="fil6" transform="matrix(0.586334 -0.453972 0.453972 0.586334 1230.12 764.435)" rx="9.14174" ry="69.5315"/>
    <ellipse id="_272083144" class="fil6" transform="matrix(0.586334 0.453972 0.453972 -0.586334 1230.12 1286.42)" rx="9.14174" ry="69.5315"/>
    <ellipse id="_272083048" class="fil6" transform="matrix(-0.586334 -0.453972 -0.453972 0.586334 819.227 764.435)" rx="9.14174" ry="69.5315"/>
    <ellipse id="_272082880" class="fil6" transform="matrix(-0.586334 0.453972 -0.453972 -0.586334 819.227 1286.42)" rx="9.14174" ry="69.5315"/>
    <ellipse id="_272083000" class="fil6" transform="matrix(0.462535 -0.579603 0.579603 0.462535 1279.91 714.999)" rx="9.14174" ry="69.5315"/>
    <ellipse id="_272082808" class="fil6" transform="matrix(0.462535 0.579603 0.579603 -0.462535 1279.91 1335.85)" rx="9.14174" ry="69.5315"/>
    <ellipse id="_272083504" class="fil6" transform="matrix(-0.462535 -0.579603 -0.579603 0.462535 769.434 714.999)" rx="9.14174" ry="69.5315"/>
    <ellipse id="_272083480" class="fil6" transform="matrix(-0.462535 0.579603 -0.579603 -0.462535 769.434 1335.85)" rx="9.14174" ry="69.5315"/>
    <ellipse id="_272083024" class="fil6" transform="matrix(0.343194 -0.65734 0.65734 0.343194 1318.97 660.703)" rx="9.14174" ry="69.5315"/>
    <ellipse id="_272082136" class="fil6" transform="matrix(0.343194 0.65734 0.65734 -0.343194 1318.97 1390.15)" rx="9.14174" ry="69.5315"/>
    <ellipse id="_272082592" class="fil6" transform="matrix(-0.343194 -0.65734 -0.65734 0.343194 730.371 660.703)" rx="9.14174" ry="69.5315"/>
    <ellipse id="_272082784" class="fil6" transform="matrix(-0.343194 0.65734 -0.65734 -0.343194 730.371 1390.15)" rx="9.14174" ry="69.5315"/>
    <ellipse id="_272082544" class="fil6" transform="matrix(0.343194 -0.65734 0.65734 0.343194 1355.12 596.946)" rx="9.14174" ry="69.5315"/>
    <ellipse id="_272082712" class="fil6" transform="matrix(0.343194 0.65734 0.65734 -0.343194 1355.12 1453.91)" rx="9.14174" ry="69.5315"/>
    <ellipse id="_272082352" class="fil6" transform="matrix(-0.343194 -0.65734 -0.65734 0.343194 694.221 596.946)" rx="9.14174" ry="69.5315"/>
    <ellipse id="_272082208" class="fil6" transform="matrix(-0.343194 0.65734 -0.65734 -0.343194 694.221 1453.91)" rx="9.14174" ry="69.5315"/>
    <ellipse id="_272082520" class="fil6" transform="matrix(0.343194 -0.65734 0.65734 0.343194 1393.16 515.025)" rx="9.14174" ry="69.5315"/>
    <ellipse id="_272081920" class="fil6" transform="matrix(0.343194 0.65734 0.65734 -0.343194 1393.16 1535.83)" rx="9.14174" ry="69.5315"/>
    <ellipse id="_272081392" class="fil6" transform="matrix(-0.343194 -0.65734 -0.65734 0.343194 656.189 515.025)" rx="9.14174" ry="69.5315"/>
    <ellipse id="_272081344" class="fil6" transform="matrix(-0.343194 0.65734 -0.65734 -0.343194 656.189 1535.83)" rx="9.14174" ry="69.5315"/>
    <ellipse id="_272081752" class="fil6" transform="matrix(0.343194 -0.65734 0.65734 0.343194 1400.47 444.717)" rx="9.14174" ry="69.5315"/>
    <ellipse id="_272081632" class="fil6" transform="matrix(0.343194 0.65734 0.65734 -0.343194 1400.47 1606.13)" rx="9.14174" ry="69.5315"/>
    <ellipse id="_272081848" class="fil6" transform="matrix(-0.343194 -0.65734 -0.65734 0.343194 648.87 444.717)" rx="9.14174" ry="69.5315"/>
    <ellipse id="_272081968" class="fil6" transform="matrix(-0.343194 0.65734 -0.65734 -0.343194 648.87 1606.13)" rx="9.14174" ry="69.5315"/>
   </g>
   <rect id="_272085136" class="fil7" width="2048" height="2048"/>
  </g>
 </g>
</svg>
