<?xml version="1.0" encoding="UTF-8"?>
<!DOCTYPE svg PUBLIC "-//W3C//DTD SVG 1.1//EN" "http://www.w3.org/Graphics/SVG/1.1/DTD/svg11.dtd">
<!-- Creator: CorelDRAW -->
<svg xmlns="http://www.w3.org/2000/svg" xml:space="preserve" width="2048px" height="2048px" style="shape-rendering:geometricPrecision; text-rendering:geometricPrecision; image-rendering:optimizeQuality; fill-rule:evenodd; clip-rule:evenodd"
viewBox="0 0 2048 2048"
 xmlns:xlink="http://www.w3.org/1999/xlink">
 <defs>
  <style type="text/css">
   <![CDATA[
    .fil0 {fill:none}
    .fil1 {fill:#212121}
    .fil4 {fill:#43A047}
    .fil2 {fill:#E6BFA4}
    .fil3 {fill:#F7C5A9}
    .fil5 {fill:#FCD2B5}
   ]]>
  </style>
 </defs>
 <g id="Layer_x0020_1">
  <metadata id="CorelCorpID_0Corel-Layer"/>
  <rect class="fil0" width="2048" height="2048"/>
  <path class="fil1" d="M1633.07 1323.31c-48.4181,-44.5359 -127.814,-17.4177 -178.159,7.74804 -91.0087,44.5347 -172.348,63.8989 -273.042,52.2827 -49.9335,-3.8374 -66.7867,-10.6984 -159.671,-9.96615 -82.0241,-0.732284 -98.8654,6.13111 -148.8,9.96615 -100.686,11.6162 -182.025,-7.74686 -273.036,-52.2827 -50.3422,-25.1658 -129.739,-52.2839 -178.149,-7.74804 -25.1788,25.1764 -36.7937,104.569 0,123.919l597.736 176.896 0 1.26614 2.1378 -0.633071 2.10709 0.633071 0 -1.24606 608.875 -176.916c36.7902,-19.3524 25.1693,-98.7402 0,-123.919z"/>
  <path class="fil2" d="M1019.95 1583.54c-25.1717,-5.81457 -41.9776,31.3949 -76.8308,13.9595 -23.2441,-11.6162 -58.0855,-25.1788 -79.3973,-42.6083 -92.9446,-79.3772 -176.215,-176.197 -305.96,-185.891 -63.3036,-4.52599 -132.449,19.115 -140.823,74.5607 15.8752,15.7748 35.3551,30.2244 51.7453,47.4307 38.7284,38.739 69.7134,64.3831 123.931,83.7355 48.4111,17.4354 100.7,28.5803 151.051,40.2083 15.0638,3.13465 101.205,35.2288 139.952,55.591 73.3099,38.524 64.9182,77.5146 131.154,63.3497 13.5484,-9.68859 11.6209,-74.8442 11.6209,-92.269 1.93465,-21.2847 22.5992,-54.1996 -6.4441,-58.0666z"/>
  <path class="fil2" d="M1035.98 1583.54c25.1717,-5.81457 41.9776,31.3949 76.8308,13.9595 23.2441,-11.6162 58.0855,-25.1788 79.3973,-42.6083 92.9446,-79.3772 176.215,-176.197 305.96,-185.891 63.3036,-4.52599 132.449,19.115 140.823,74.5607 -15.8752,15.7748 -35.3551,30.2244 -51.7453,47.4307 -38.7284,38.739 -69.7134,64.3831 -123.931,83.7355 -48.4111,17.4354 -100.7,28.5803 -151.051,40.2083 -15.0638,3.13465 -101.205,35.2288 -139.952,55.591 -73.3099,38.524 -64.9182,77.5146 -131.154,63.3497 -13.5484,-9.68859 -11.6209,-74.8442 -11.6209,-92.269 -1.93465,-21.2847 -22.5992,-54.1996 6.4441,-58.0666z"/>
  <path class="fil3" d="M1229.24 827.188l0 -0.596457 -1.11142 -0.434646c-7.35709,-6.71221 -17.524,-13.7126 -32.1201,-18.7677l-0.830316 0.477166 0 -0.827953c-51.5823,-16.0358 -119.904,-12.5433 -122.728,-74.5973 0.0011811,-5.35158 -0.0755906,-10.6961 0.539764,-16.0217l-0.538583 -0.212599 0 -52.7363 -47.5831 0 -0.865749 0 -0.865749 0 -47.5831 0 0 52.7363 -0.538583 0.212599c0.615355,5.32559 0.538583,10.6701 0.539764,16.0217 -2.82402,62.054 -71.1461,58.5615 -122.728,74.5973l0 0.827953 -0.830316 -0.477166c-14.5961,5.05512 -24.763,12.0555 -32.1201,18.7677l-1.11142 0.434646 0 0.596457c-6.26693,5.91497 -10.3925,11.5169 -13.4953,15.2445 -33.587,36.4252 -49.0241,109.013 -73.7233,154.498 -32.0138,57.9745 -36.6461,104.404 -95.2867,135.178 -45.1311,26.4449 -97.9737,63.2138 -135.592,97.2591 -19.8496,17.9551 -67.4445,36.15 -67.4445,36.15 -38.2819,-2.79921 -58.8851,13.2284 -90.2552,19.8354 -17.1969,2.27953 -55.5449,-13.2177 -76.2379,-9.45237 -59.5028,10.8248 145.551,67.1186 197.686,29.8772l49.1115 -25.2177c112.315,-53.4461 221.202,-94.0489 265.179,-186.718 11.5748,-25.1067 32.5311,-69.1926 59.941,-106.876 1.04173,-0.550394 2.12008,-1.08071 3.24331,-1.59803 12.0803,7.07835 9.92835,49.9264 9.31182,62.9693l172.393 0 0.407481 0 0.407481 0 172.393 0c-0.616536,-13.0429 -2.76851,-55.891 9.31182,-62.9693 1.12323,0.517323 2.20158,1.04764 3.24331,1.59803 27.4099,37.6831 48.3662,81.769 59.941,106.876 43.9772,92.6694 152.864,133.272 265.179,186.718l49.1115 25.2177c52.1351,37.2414 257.189,-19.0524 197.686,-29.8772 -20.6929,-3.76536 -59.041,11.7319 -76.2379,9.45237 -31.3701,-6.60709 -51.9733,-22.6347 -90.2552,-19.8354 0,0 -47.5949,-18.1949 -67.4445,-36.15 -37.6181,-34.0453 -90.4607,-70.8142 -135.592,-97.2591 -58.6406,-30.7748 -63.2729,-77.204 -95.2867,-135.178 -24.6992,-45.4843 -40.1363,-118.073 -73.7233,-154.498 -3.10276,-3.72756 -7.22835,-9.32953 -13.4953,-15.2445z"/>
  <path class="fil4" d="M1196.03 1390.61c20.2465,2.00079 24.6874,2.90079 24.6874,-17.4307 -1.44921,-14.5299 -14.5169,-33.4028 -20.3327,-46.4752 -13.0654,-24.6898 -20.3232,-47.9268 -26.1366,-76.9796 -8.72245,-40.6607 -5.80985,-78.4217 14.5217,-111.827 24.6969,-36.3107 26.1449,-62.4485 17.4307,-103.122 -7.2626,-36.3059 -24.6945,-69.7016 -27.5953,-106.018 -4.35709,-42.1193 5.8063,-79.2839 7.25788,-119.958l-40.6607 -7.84253c0,76.9654 -37.7622,135.071 -117.649,135.071l-15.2032 0c-79.8733,0 -117.634,-58.1056 -117.634,-135.071l-40.6677 7.84016c1.45748,40.676 11.615,77.8406 7.26379,119.96 -2.9067,36.3166 -20.3362,69.7146 -27.5953,106.018 -8.71418,40.6737 -7.26497,66.8138 17.4236,103.122 20.3374,33.404 23.2382,71.1662 14.5228,111.827 -5.80158,29.0528 -13.0665,52.2898 -26.1449,76.9796 -5.80158,13.0713 -18.874,31.9465 -20.3303,46.4752 0,20.3315 4.35709,17.4307 24.7004,17.4307 55.1859,0 178.317,-17.2323 352.141,0z"/>
  <path class="fil1" d="M1124.73 623.454c68.263,60.9768 141.808,137.092 123.706,245.745 -7.75749,49.1528 -33.2788,82.7812 -41.0363,134.524 -5.16615,59.4922 -12.1819,129.347 -30.2811,183.675 0,-41.3941 -0.762993,-103.48 -13.6961,-144.873 -12.9425,-49.1528 -25.878,-93.1217 -12.9425,-144.873 10.3512,-36.2032 29.2205,-51.7276 26.6386,-87.9461 -2.58425,-49.1433 -23.9315,-91.63 -52.3914,-125.275l0.00236221 -60.9768z"/>
  <path class="fil3" d="M1140.34 574.991c-0.497244,-36.8079 44.0008,-34.2307 52.8095,-4.8189 11.1307,34.7929 -23.0185,80.0788 -57.3745,83.3493l4.56496 -78.5304z"/>
  <path class="fil3" d="M896.601 574.991c0.497244,-36.8079 -44.0103,-34.2307 -52.8119,-4.8189 -11.1189,34.7929 23.0351,80.0788 57.3745,83.3493l-4.5626 -78.5304z"/>
  <path class="fil5" d="M1154.07 492.915c3.58347,45.1453 9.54331,104.873 -4.73859,150.149 -9.54686,35.7437 -76.2697,126.3 -119.172,121.547l-24.5977 0c-42.9024,4.75276 -109.626,-85.8012 -119.165,-121.547 -14.2984,-45.2788 -4.75276,-104.863 -4.75276,-150.147 0.00236221,-0.00236221 -10.3512,-143.962 117.317,-166.669 0,0 140.003,-24.1358 155.11,166.667z"/>
  <path class="fil1" d="M1021.88 326.785c2.03504,80.2028 -29.0575,103.241 -82.2071,140.817 -53.1532,37.5922 -55.6382,77.8678 -75.4772,137.8 -87.9863,-129.902 8.50394,-276.149 108.738,-292.105 0,0 48.3473,-10.0854 48.9461,13.487z"/>
  <path class="fil1" d="M1014.48 326.769c-1.75512,80.1934 29.387,103.356 82.6867,141.124 53.2867,37.7811 55.9099,78.052 75.939,138.073 87.5398,-129.602 -9.45709,-276.19 -109.748,-292.511 0,-0.00236221 -48.3815,-10.2496 -48.8776,13.3134z"/>
 </g>
</svg>
