<?xml version="1.0" encoding="UTF-8"?>
<!DOCTYPE svg PUBLIC "-//W3C//DTD SVG 1.1//EN" "http://www.w3.org/Graphics/SVG/1.1/DTD/svg11.dtd">
<!-- Creator: CorelDRAW -->
<svg xmlns="http://www.w3.org/2000/svg" xml:space="preserve" width="2048px" height="2048px" style="shape-rendering:geometricPrecision; text-rendering:geometricPrecision; image-rendering:optimizeQuality; fill-rule:evenodd; clip-rule:evenodd"
viewBox="0 0 2048 2048"
 xmlns:xlink="http://www.w3.org/1999/xlink">
 <defs>
  <style type="text/css">
   <![CDATA[
    .fil12 {fill:none}
    .fil0 {fill:#212121}
    .fil9 {fill:#8C0000}
    .fil8 {fill:#C20202}
    .fil10 {fill:#FFAB40}
    .fil5 {fill:#212121;fill-rule:nonzero}
    .fil7 {fill:#424242;fill-rule:nonzero}
    .fil4 {fill:#B30000;fill-rule:nonzero}
    .fil3 {fill:#C20202;fill-rule:nonzero}
    .fil1 {fill:#D50000;fill-rule:nonzero}
    .fil2 {fill:#E00B0B;fill-rule:nonzero}
    .fil6 {fill:#E0E0E0;fill-rule:nonzero}
    .fil11 {fill:#FFF3E0;fill-rule:nonzero}
   ]]>
  </style>
 </defs>
 <g id="Layer_x0020_1">
  <metadata id="CorelCorpID_0Corel-Layer"/>
  <g id="_357554016">
   <rect id="_356968216" class="fil0" transform="matrix(0.673484 -0.272615 0.37521 0.92694 844.98 936.566)" width="34.3748" height="106.25" rx="12.4878" ry="12.4878"/>
   <path id="_356968528" class="fil0" d="M1039.41 926.444l17.1874 0c8.25001,0 13.3488,6.75001 11.3291,15l-20.6504 84.3757c-2.01851,8.25001 -10.4209,15 -18.6709,15l-34.3748 0c-8.25001,0 -13.3476,-6.75001 -11.3291,-15l16.4445 -67.1882c4.33229,-17.7036 22.3606,-32.1874 40.0642,-32.1874z"/>
   <path id="_356968120" class="fil1" d="M281.803 1118.28l194.116 -90.3638c-10.8036,21.678 -16.5555,45.7453 -16.5555,70.5296 0,42.0969 16.591,82.128 46.3524,111.889 2.04685,2.04685 4.14449,4.02874 6.28465,5.94922l-212.079 0 -17.6256 -5.3752c-7.87087,-5.2441 -13.8047,-11.5146 -18.0414,-18.2977 -6.05434,-9.68623 -8.52048,-20.2229 -8.16969,-30.3933 0.357874,-10.2862 3.58111,-20.0032 8.8878,-27.9673 4.10315,-6.15591 9.44528,-11.4331 15.7051,-15.3461l1.12559 -0.624804z"/>
   <path id="_356967232" class="fil1" d="M465.048 1140.58l0.0271654 0.101575c7.21182,26.1024 21.0815,50.0965 40.6406,69.6556 2.04685,2.04685 4.14449,4.02874 6.28465,5.94922l-212.079 0 -17.6256 -5.3752c-7.87087,-5.2441 -13.8047,-11.5146 -18.0414,-18.2977 -6.05434,-9.68623 -8.52048,-20.2229 -8.16969,-30.3933 0.0188977,-0.53504 0.046063,-1.0689 0.080315,-1.60039l0.0011811 -0.0200788 208.882 -20.0197z"/>
   <path id="_356967808" class="fil2" d="M281.803 1118.28l194.116 -90.3638c-10.8036,21.678 -16.5555,45.7453 -16.5555,70.5296 0,14.3953 1.94173,28.5484 5.68465,42.1323l-208.882 20.0197c0.622441,-9.68505 3.77953,-18.802 8.80631,-26.3469 4.10315,-6.15591 9.44528,-11.4331 15.7051,-15.3461l1.12559 -0.624804z"/>
   <path id="_356967160" class="fil1" d="M1542.76 987.275l0 -108.504c0,-13.2685 5.47323,-25.3925 14.2961,-34.2425l-0.0625985 -0.0625985c8.7815,-8.7815 20.9232,-14.2335 34.3051,-14.2335l168.653 0 32.0008 0 0 32.0008 0 225.591 -95.9469 0.259843c-2.4874,-38.2642 -36.9709,-4.65 -64.278,-31.9571 -29.7614,-29.7591 -13.8957,-72.3036 -55.9926,-72.3036 -11.1886,0 -22.2319,1.17165 -32.9752,3.45236z"/>
   <path id="_356967376" class="fil3" d="M1057.95 921.503c4.97835,-6.51969 12.1205,-11.1437 21.1795,-14.0599 -8.80158,3.04725 -16.1351,7.57796 -21.1795,14.0599z"/>
   <path id="_356967664" class="fil1" d="M1183.35 909.411l1.03228 1.67717c12.5268,1.93819 24.8209,4.02402 36.9284,6.23386 101.947,18.6024 190.479,46.0264 290.429,69.0827l11.0339 2.54528c-5.48622,4.20945 -10.728,8.79686 -15.6827,13.7516 -29.7614,29.7614 -55.728,53.6469 -55.728,95.7438 0,42.0969 16.591,82.128 46.3524,111.889 2.04685,2.04685 4.14449,4.02874 6.28465,5.94922l-864.001 0c2.14016,-1.92047 4.23662,-3.90237 6.28229,-5.94685 29.7614,-29.7614 46.35,-69.7949 46.35,-111.892 0,-135.098 -84.4701,-106.302 -84.6331,-106.446l213.699 -52.0052 52.6477 49.0004 158.113 0c6.73229,-10.4539 10.5602,-24.2292 14.6043,-38.7898 1.35473,-4.87796 2.72953,-9.82678 4.84016,-16.7386 1.38189,-4.52835 3.4063,-8.5004 6.03189,-11.9457l0.0141732 -0.0177165c5.04449,-6.48189 12.378,-11.0126 21.1795,-14.0599 1.2874,-0.414567 2.6126,-0.796064 3.97677,-1.14213 2.00669,-0.507874 4.0937,-0.944883 6.26221,-1.30866l-0.0838583 -0.304725c27.9626,-5.78386 65.6126,-0.683859 94.0666,4.72323z"/>
   <path id="_357555552" class="fil4" d="M1088.2 848.17c0,-17.6043 -3.22914,-33.4382 14.3752,-33.4382 13.0524,1.5626 57.7335,62.1 80.778,99.3662 -28.454,-5.40709 -66.104,-10.5071 -94.0666,-4.72323 -0.708662,-2.64213 -1.08898,-5.4189 -1.08898,-8.28426l0.00236221 -52.9205z"/>
   <g>
    <path id="_357555312" class="fil5" d="M582.674 976.233c37.5213,0 71.4969,15.2102 96.091,39.802 24.5918,24.5894 39.8044,58.5603 39.8044,96.0816 0,37.5213 -15.2126,71.4922 -39.8044,96.0816 -24.5941,24.5918 -58.5697,39.802 -96.091,39.802 -37.5166,0 -71.4875,-15.2114 -96.0804,-39.8032 -24.5882,-24.5918 -39.802,-58.5615 -39.802,-96.0804 0,-37.5189 15.2138,-71.4886 39.802,-96.0804 24.5929,-24.5918 58.5638,-39.8032 96.0804,-39.8032z"/>
    <path id="_357555648" class="fil6" d="M638.673 1056.13c-14.3268,-14.3268 -34.1268,-23.1886 -55.9996,-23.1886 -21.8658,0 -41.6622,8.863 -55.989,23.1898 -14.3256,14.3268 -23.1886,34.1221 -23.1886,55.989 0,21.8669 8.863,41.6622 23.1886,55.989 14.3268,14.3268 34.1233,23.1898 55.989,23.1898 21.8729,0 41.6729,-8.86182 55.9996,-23.1886 14.3268,-14.3244 23.191,-34.1221 23.191,-55.9902 0,-21.8681 -8.86418,-41.6658 -23.191,-55.9902z"/>
    <path id="_357555840" class="fil7" d="M582.68 1081.54c16.8851,0 30.574,13.689 30.574,30.5729 0,16.8839 -13.689,30.5729 -30.574,30.5729 -16.8839,0 -30.5729,-13.689 -30.5729,-30.5729 0,-16.8839 13.689,-30.5729 30.5729,-30.5729z"/>
   </g>
   <g>
    <path id="_357555792" class="fil5" d="M1575.72 976.233c37.5213,0 71.4969,15.2102 96.091,39.802 24.5918,24.5894 39.8044,58.5603 39.8044,96.0816 0,37.5213 -15.2126,71.4922 -39.8044,96.0816 -24.5941,24.5918 -58.5697,39.802 -96.091,39.802 -37.5166,0 -71.4875,-15.2114 -96.0804,-39.8032 -24.5882,-24.5918 -39.802,-58.5615 -39.802,-96.0804 0,-37.5189 15.2138,-71.4886 39.802,-96.0804 24.5929,-24.5918 58.5638,-39.8032 96.0804,-39.8032z"/>
    <path id="_357555912" class="fil6" d="M1631.72 1056.13c-14.3268,-14.3268 -34.1268,-23.1886 -55.9996,-23.1886 -21.8658,0 -41.6622,8.863 -55.989,23.1898 -14.3256,14.3268 -23.1886,34.1221 -23.1886,55.989 0,21.8669 8.863,41.6622 23.1886,55.989 14.3268,14.3268 34.1233,23.1898 55.989,23.1898 21.8729,0 41.6729,-8.86182 55.9996,-23.1886 14.3268,-14.3244 23.191,-34.1221 23.191,-55.9902 0,-21.8681 -8.86418,-41.6658 -23.191,-55.9902z"/>
    <path id="_357554640" class="fil7" d="M1575.73 1081.54c16.8851,0 30.574,13.689 30.574,30.5729 0,16.8839 -13.689,30.5729 -30.574,30.5729 -16.8839,0 -30.5729,-13.689 -30.5729,-30.5729 0,-16.8839 13.689,-30.5729 30.5729,-30.5729z"/>
   </g>
   <path id="_357554784" class="fil8" d="M1463.03 1036.17c4.88741,-7.23898 10.4539,-13.9819 16.6087,-20.1366 11.5181,-11.5169 25.0925,-20.9764 40.1244,-27.7795l-8.0256 -1.85197c-99.9497,-23.0563 -188.482,-50.4804 -290.429,-69.0827 -12.1075,-2.20984 -24.4016,-4.29567 -36.9284,-6.23386l-1.03228 -1.67717c-28.454,-5.40709 -66.104,-10.5071 -94.0666,-4.72323l0.0838583 0.304725c-2.16851,0.36378 -4.25552,0.800788 -6.26221,1.30866 -1.36417,0.346063 -2.68937,0.72756 -3.97677,1.14213 -8.80158,3.04725 -16.1351,7.57796 -21.1795,14.0599l-0.0141732 0.0177165c-2.62559,3.44528 -4.65,7.41733 -6.03189,11.9457 -2.11063,6.91182 -3.48544,11.8606 -4.84016,16.7386 -4.0441,14.5606 -7.87205,28.3358 -14.6043,38.7898l-158.113 0 -52.6477 -49.0004 -188.609 45.8989c7.39371,2.9563 14.4685,6.54331 21.1666,10.7008 2.07874,1.17047 4.14331,2.52047 6.17599,4.07126 6.55749,4.58268 12.691,9.72993 18.3319,15.3697 7.93111,7.92993 14.8866,16.8354 20.6705,26.5217 255.48,-28.8083 506.374,-11.6114 763.599,-6.38386z"/>
   <path id="_357554544" class="fil9" d="M815.886 1072.57l24.926 0 0 111.809 -24.926 0c-13.7102,0 -24.926,-11.2158 -24.926,-24.926l0 -61.9571c0,-13.7102 11.2158,-24.926 24.926,-24.926z"/>
   <path id="_357554688" class="fil8" d="M803.412 1075.94c-23.1508,10.6701 -54.4725,15.6732 -54.4725,38.9658 0,21.7831 -7.77166,46.5567 11.3138,51.6697l37.6382 10.0854c-4.28859,-4.48229 -6.9319,-10.5496 -6.9319,-17.2051l0 -61.9571c0,-9.17363 5.02205,-17.2311 12.4524,-21.5587z"/>
   <polygon id="_357554712" class="fil10" points="864.001,1056 1004.21,1172.43 1450.15,1060.11 1024,1120 "/>
   <polygon id="_357554280" class="fil10" points="939.432,1058.84 1024,1088 1376,1056 "/>
   <path id="_357554184" class="fil11" d="M1689.56 898.5l-61.0004 0 0.0625985 18.4996 42.4004 0 0.0366142 10.9004 -42.4004 0 0.108662 32.1 -12 0 -0.244488 -72.4004 73.0004 0 0.0366142 10.9004zm28.624 61.5l-12 0 -0.204331 -60.4004 -11.5831 4.99961 -0.034252 -10.3996c4.36181,-1.39961 8.22048,-3.6 11.5772,-6.60001l12 0 0.244488 72.4004z"/>
  </g>
  <rect class="fil12" width="2048" height="2048"/>
 </g>
</svg>
