<?xml version="1.0" encoding="UTF-8"?>
<!DOCTYPE svg PUBLIC "-//W3C//DTD SVG 1.1//EN" "http://www.w3.org/Graphics/SVG/1.1/DTD/svg11.dtd">
<!-- Creator: CorelDRAW -->
<svg xmlns="http://www.w3.org/2000/svg" xml:space="preserve" width="2048px" height="2048px" style="shape-rendering:geometricPrecision; text-rendering:geometricPrecision; image-rendering:optimizeQuality; fill-rule:evenodd; clip-rule:evenodd"
viewBox="0 0 2048 2048"
 xmlns:xlink="http://www.w3.org/1999/xlink">
 <defs>
  <style type="text/css">
   <![CDATA[
    .fil0 {fill:none}
    .fil16 {fill:#01579B}
    .fil11 {fill:#1F1F1F}
    .fil24 {fill:#212121}
    .fil10 {fill:#296E2D}
    .fil5 {fill:#2A772E}
    .fil18 {fill:#2C6C2F}
    .fil19 {fill:#2E7D32}
    .fil7 {fill:#31621E}
    .fil2 {fill:#33691E}
    .fil9 {fill:#368339}
    .fil4 {fill:#388E3C}
    .fil6 {fill:#3F3F3F}
    .fil14 {fill:#666666}
    .fil23 {fill:#B19A75}
    .fil3 {fill:#BDBDBD}
    .fil17 {fill:#BF8356}
    .fil22 {fill:#C8C8C8}
    .fil8 {fill:#C9D9B7}
    .fil15 {fill:#CC9C74}
    .fil1 {fill:#DCEDC8}
    .fil13 {fill:#E0E0E0}
    .fil25 {fill:#E2CDAA}
    .fil21 {fill:#E4E4E4}
    .fil12 {fill:#FFD3AE}
    .fil20 {fill:white}
   ]]>
  </style>
 </defs>
 <g id="Layer_x0020_1">
  <metadata id="CorelCorpID_0Corel-Layer"/>
  <rect class="fil0" width="2048" height="2048"/>
  <g id="_355802336">
   <g>
    <path id="_355807904" class="fil1" d="M1211.9 1531.67l-14.9788 45.2658 1.50236 1.35236c0.602363,0.542126 1.15394,1.13622 1.65945,1.76929l35.5276 46.6264 0.377953 0.589371c0.548032,0.852757 0.955513,1.77756 1.33465,2.71299l0.773623 1.91457 46.9205 0.441733 0.711024 -2.13662c0.15,-0.446457 0.317717,-0.885827 0.50315,-1.31929l24.7016 -52.4563c-9.20788,-21.1973 -23.2158,-39.8268 -40.6536,-54.5162l-50.4993 8.83347 -0.0236221 -0.152362 -3.21614 0.719292c-0.650788,0.144095 -1.30984,0.236221 -1.9748,0.275197 -0.165354,0.00944883 -0.329528,0.0165354 -0.494882,0.0212599l-2.17087 0.0590552z"/>
    <path id="_355808048" class="fil2" d="M1263.46 1516.51c2.32441,1.73622 4.58977,3.54685 6.80552,5.413l-50.4863 8.83111 -0.0236221 -0.152362 -3.21614 0.719292c-0.650788,0.144095 -1.30984,0.236221 -1.9748,0.275197 -0.165354,0.00944883 -0.329528,0.0165354 -0.494882,0.0212599l-2.17087 0.0590552 -14.9788 45.2658 1.50236 1.35236c0.602363,0.542126 1.15394,1.13622 1.65945,1.76929l35.5276 46.6264 0.377953 0.589371c0.548032,0.852757 0.955513,1.77756 1.33465,2.71299l0.773623 1.91457 46.9205 0.441733 0.711024 -2.13662c0.15,-0.446457 0.317717,-0.885827 0.50315,-1.31929l24.6957 -52.4433c1.16811,2.69055 2.26654,5.4189 3.27874,8.18977l-22.1327 47.0162 0 0.0720473c-0.304725,0.762993 -0.525591,1.55788 -0.620079,2.37638 -0.115748,1.00039 -0.0614174,2.00788 0.174803,2.98701 0.10748,0.446457 0.246851,0.884646 0.415748,1.31102 0.287008,0.72756 0.170079,0.412205 0.4063,0.837402l0.230315 0.414567 22.7622 43.265c-0.916536,2.72126 -1.91339,5.40591 -2.97992,8.05512l-25.2839 -47.9481c-0.368504,-0.699213 -0.869292,-1.4752 -1.1374,-2.21103 -0.00590552,-0.0188977 -0.0129921,-0.0377953 -0.0200788,-0.056693l-0.73819 -1.96536 -47.4095 -0.446457 -0.811418 1.89449c-0.302362,0.7063 -0.617717,1.46339 -1.0441,2.10354l-0.355512 0.532678 -35.5252 48.0827c-0.648426,0.832678 -1.38189,1.59803 -2.20394,2.26417l-1.6063 1.29921 13.4043 45.3992 2.19567 0.106299c0.466536,0.022441 0.933072,0.0661418 1.39606,0.127559l56.7567 9.16772c-2.28307,1.91693 -4.62284,3.77008 -7.02048,5.54882l-50.5914 -8.29725 -0.264567 0c-0.970867,0 -1.75984,-0.152362 -2.7626,0.0283465 -0.990946,0.178347 -1.92874,0.539764 -2.79567,1.04882 -0.377953,0.222047 -0.748819,0.46063 -1.09488,0.731103l-2.45315 1.91811 0.23504 0.295276 -33.0201 33.3792c-2.91851,-0.0862205 -5.81457,-0.257481 -8.6882,-0.507874l38.1792 -38.4839c0.432284,-0.434646 0.872835,-0.903544 1.33819,-1.31811l0.394488 -0.311811c0.100394,-0.0791339 0.201969,-0.158268 0.305906,-0.23504l1.71851 -1.28976 -13.526 -45.8103 -1.89685 -0.325985c-0.034252,-0.00590552 -0.0696851,-0.011811 -0.103937,-0.0177165 -0.859843,-0.15 -1.81536,-0.533859 -2.65276,-0.800788l-53.9103 -17.211c-0.905906,-0.28937 -1.96772,-0.551575 -2.81339,-0.976772l-1.71732 -0.862205 -38.2051 28.8071 0.683859 2.09882c0.191339,0.587008 0.349607,1.18465 0.477166,1.78819l0.646063 3.04134 0.0330709 -0.00708662 11.9492 53.8111c-2.56063,-1.42559 -5.07874,-2.92087 -7.54371,-4.49055l-11.3398 -50.7154 0 -0.00590552 -0.0673229 -0.316536c-0.219685,-1.04291 -0.579922,-2.0563 -1.12677,-2.9752 -0.518504,-0.870473 -1.18819,-1.6311 -1.97599,-2.2689 -0.347244,-0.282284 -0.71693,-0.536221 -1.09961,-0.766536 -0.725197,-0.437008 -0.392126,-0.245669 -0.881103,-0.452363l-0.437008 -0.183071 -43.9902 -19.7398c-0.929528,-2.72835 -1.7752,-5.49449 -2.54764,-8.29134l49.0063 22.0725c0.721654,0.324803 1.51772,0.641339 2.19331,1.04882 0.0661418,0.0389764 0.131102,0.0791339 0.196063,0.120473l1.81063 1.15276 38.3091 -28.8839 -0.491339 -1.98425c-0.26811,-1.08307 -0.411024,-2.19803 -0.424016,-3.31418l-0.705119 -58.5107c-0.00944883,-0.851575 0.0354331,-1.70433 0.153543,-2.54764l0.259843 -1.87205 -39.8138 -27.9732 -1.75984 1.16575c-0.17126,0.113386 -0.344882,0.22441 -0.520867,0.33189l-50.3162 28.5827c0.617717,-2.90551 1.31811,-5.78032 2.10236,-8.61969l44.85 -25.4752 0.0425197 -0.0413386c0.788977,-0.483071 1.5248,-1.05709 2.14134,-1.74803 0.667323,-0.748819 1.16929,-1.62165 1.53662,-2.55118 0.162992,-0.413386 0.330709,-0.849213 0.434646,-1.28268 0.167717,-0.698032 0.131102,-0.388583 0.164173,-1.09252l0.0188977 -0.402756 5.91615 -47.3764c2.33504,-1.72205 4.72323,-3.37796 7.16103,-4.96418l-6.2752 50.2099 -0.151181 -0.0153543 -0.246851 3.17481c-0.0519685,0.670867 -0.161811,1.33465 -0.320079,1.9878 -0.068504,0.283465 -0.142913,0.565748 -0.225591,0.84567l-0.624804 2.12717 39.2504 27.5764 1.74213 -1.09606c1.02992,-0.648426 2.14961,-1.14331 3.30473,-1.52244l55.5 -18.1937c0.746457,-0.244488 1.52953,-0.517323 2.30315,-0.659056 0.239764,-0.0437008 0.480709,-0.080315 0.722835,-0.109843l1.94764 -0.236221 15.0532 -45.489 -1.68543 -1.3441c-0.412205,-0.328347 -0.809056,-0.676772 -1.19055,-1.04173l-41.4048 -39.574c2.9315,-0.258662 5.88662,-0.437008 8.86536,-0.522048l36.978 35.4059c0.779528,0.745276 1.65709,1.38425 2.6374,1.83898 0.916536,0.425197 1.89685,0.668504 2.90197,0.752363 0.45,0.0366142 0.910631,0.0602363 1.36181,0.0354331 0.805512,-0.046063 0.491339,0.0011811 1.11614,-0.155906l0.388583 -0.0968505 47.7319 -8.38229zm-75.8457 65.7674l0.441733 -0.180709c0.630709,-0.258662 0.360236,-0.190158 1.10197,-0.324803 0.431103,-0.0779528 0.869292,-0.108662 1.30748,-0.108662l3.09095 0.00236221 0 1.00984c0.507874,0.390945 0.875198,0.840946 1.36536,1.3311l0.172441 0.172441 35.2382 46.2485c0.605906,0.793701 0.855119,1.53071 1.16575,2.44843 0.193701,0.571654 0.325985,1.16221 0.325985,1.76811 0,0.696851 -0.129921,1.38662 -0.336614,2.04921 -0.301181,0.964961 -0.598819,1.78937 -1.21181,2.61851l-35.2111 47.6563 -0.18189 0.184252c-0.640158,0.646063 -1.0311,1.19764 -1.88504,1.65473 -0.783071,0.418111 -1.65354,0.582284 -2.53465,0.582284 -0.976772,0 -0.421654,0.0578741 -1.31221,-0.0980316 -0.735827,-0.127559 -0.487796,-0.0826772 -0.946064,-0.248032l-0.565748 -0.20315 -54.7004 -17.4638 -0.549213 -0.166536c-1.02165,-0.311811 -1.9063,-0.928347 -2.53701,-1.79528 -0.864568,-1.18937 -1.28032,-2.65512 -1.29803,-4.11733l-0.703938 -58.5095c-0.0165354,-1.42795 0.194882,-2.91969 1.0252,-4.11969 0.794883,-1.14803 2.04685,-1.80591 3.34252,-2.2311l55.3961 -18.1595z"/>
    <line id="_355807472" class="fil3" x1="1213.12" y1="1522.02" x2="1213.12" y2= "1522.02" />
    <path id="_355807688" class="fil1" d="M1126.94 1675.82l-38.2051 28.8071 0.683859 2.09882c0.191339,0.587008 0.349607,1.18465 0.477166,1.78819l0.646063 3.04134 0.0330709 -0.00708662 11.9528 53.8252c17.7709,9.8941 37.7835,16.2461 59.0859,18.1004l38.1898 -38.4945c0.432284,-0.434646 0.872835,-0.903544 1.33819,-1.31811l0.394488 -0.311811 0.305906 -0.23504 1.71851 -1.28976 -13.526 -45.8103 -1.89685 -0.325985 -0.103937 -0.0177165c-0.859843,-0.15 -1.81536,-0.533859 -2.65276,-0.800788l-53.9103 -17.211c-0.905906,-0.28937 -1.96772,-0.551575 -2.81339,-0.976772l-1.71732 -0.862205z"/>
    <path id="_355807520" class="fil1" d="M1093.78 1510.98l-6.27638 50.2217 -0.151181 -0.0153543 -0.246851 3.17481c-0.0519685,0.670867 -0.161811,1.33465 -0.320079,1.9878 -0.068504,0.283465 -0.142913,0.565748 -0.225591,0.84567l-0.624804 2.12717 39.2504 27.5764 1.74213 -1.09606c1.02992,-0.648426 2.14961,-1.14331 3.30473,-1.52244l55.5 -18.1937c0.746457,-0.244488 1.52953,-0.517323 2.30315,-0.659056 0.239764,-0.0437008 0.480709,-0.080315 0.722835,-0.109843l1.94764 -0.236221 15.0532 -45.489 -1.68543 -1.3441c-0.412205,-0.328347 -0.809056,-0.676772 -1.19055,-1.04173l-41.4166 -39.5859c-24.8185,2.18504 -47.8843,10.4764 -67.6867,23.3599z"/>
    <path id="_355807856" class="fil1" d="M1200.14 1690.96c-0.648426,0.832678 -1.38189,1.59803 -2.20394,2.26417l-1.6063 1.29921 13.4043 45.3992 2.19567 0.106299c0.466536,0.022441 0.933072,0.0661418 1.39606,0.127559l56.7697 9.17009c18.5244,-15.5528 33.1961,-35.5465 42.3744,-58.3418l-25.2886 -47.9587c-0.368504,-0.699213 -0.869292,-1.4752 -1.1374,-2.21103l-0.0200788 -0.056693 -0.73819 -1.96536 -47.4095 -0.446457 -0.811418 1.89449c-0.302362,0.7063 -0.617717,1.46339 -1.0441,2.10354l-0.355512 0.532678 -35.5252 48.0827z"/>
    <path id="_355807784" class="fil4" d="M1127.85 1606.78l0.703938 58.5095c0.0177165,1.46221 0.433465,2.92796 1.29803,4.11733 0.630709,0.86693 1.51536,1.48347 2.53701,1.79528l0.549213 0.166536 54.7004 17.4638 0.565748 0.20315c0.458268,0.165354 0.210236,0.120473 0.946064,0.248032 0.890552,0.155906 0.335433,0.0980316 1.31221,0.0980316 0.881103,0 1.75158,-0.164173 2.53465,-0.582284 0.853938,-0.457087 1.24488,-1.00866 1.88504,-1.65473l0.18189 -0.184252 35.2111 -47.6563c0.612993,-0.829134 0.910631,-1.65354 1.21181,-2.61851 0.206693,-0.662599 0.336614,-1.35236 0.336614,-2.04921 0,-0.605906 -0.132284,-1.19646 -0.325985,-1.76811 -0.31063,-0.917717 -0.559843,-1.65473 -1.16575,-2.44843l-35.2382 -46.2485 -0.172441 -0.172441c-0.490158,-0.490158 -0.857481,-0.940158 -1.36536,-1.3311l0 -1.00984 -3.09095 -0.00236221c-0.438189,0 -0.876379,0.0307087 -1.30748,0.108662 -0.741733,0.134646 -0.47126,0.0661418 -1.10197,0.324803l-0.441733 0.180709 -55.3961 18.1595c-1.29567,0.425197 -2.54764,1.08307 -3.34252,2.2311 -0.830316,1.2 -1.04173,2.69173 -1.0252,4.11969z"/>
    <path id="_355807064" class="fil5" d="M1170.34 1487.11l36.978 35.4059c0.779528,0.745276 1.65709,1.38425 2.6374,1.83898 0.916536,0.425197 1.89685,0.668504 2.90197,0.752363 0.45,0.0366142 0.910631,0.0602363 1.36181,0.0354331 0.805512,-0.046063 0.491339,0.0011811 1.11614,-0.155906l0.388583 -0.0968505 47.7319 -8.38229c-24.7666,-18.5067 -55.5036,-29.465 -88.7989,-29.465 -4.44685,0 -8.84646,0.196063 -13.1941,0.577559l0.011811 0.011811c2.9315,-0.258662 5.88662,-0.437008 8.86536,-0.522048z"/>
    <path id="_355806848" class="fil5" d="M1314.2 1584.64l-22.1327 47.0162 0 0.0720473c-0.304725,0.762993 -0.525591,1.55788 -0.620079,2.37638 -0.115748,1.00039 -0.0614174,2.00788 0.174803,2.98701 0.10748,0.446457 0.246851,0.884646 0.415748,1.31102 0.287008,0.72756 0.170079,0.412205 0.4063,0.837402l0.230315 0.414567 22.7622 43.265c-0.916536,2.72126 -1.91339,5.40591 -2.97992,8.05512l0.00472441 0.0106299c6.89882,-17.1295 10.6949,-35.8418 10.6949,-55.4398 0,-17.8831 -3.16063,-35.028 -8.95631,-50.9056z"/>
    <path id="_355806656" class="fil5" d="M1203.33 1750.59l-33.0201 33.3792c-2.91851,-0.0862205 -5.81457,-0.257481 -8.6882,-0.507874l-0.0106299 0.0106299c4.29922,0.37441 8.65158,0.565748 13.0488,0.565748 36.3355,0 69.6225,-13.05 95.4308,-34.7185l-0.0129921 -0.00236221c-2.28307,1.91693 -4.62284,3.77008 -7.02048,5.54882l-50.5914 -8.29725 -0.264567 0c-0.970867,0 -1.75984,-0.152362 -2.7626,0.0283465 -0.990946,0.178347 -1.92874,0.539764 -2.79567,1.04882 -0.377953,0.222047 -0.748819,0.46063 -1.09488,0.731103l-2.45315 1.91811 0.23504 0.295276z"/>
    <g>
     <path id="_355806728" class="fil1" d="M1029.4 1604.55c-2.12244,9.9945 -3.23859,20.3622 -3.23859,30.9898 0,13.7173 1.86024,27 5.34095,39.6095l49.0181 22.0772c0.721654,0.324803 1.51772,0.641339 2.19331,1.04882l0.196063 0.120473 1.81063 1.15276 38.3091 -28.8839 -0.491339 -1.98425c-0.26811,-1.08307 -0.411024,-2.19803 -0.424016,-3.31418l-0.705119 -58.5107c-0.00944883,-0.851575 0.0354331,-1.70433 0.153543,-2.54764l0.259843 -1.87205 -39.8138 -27.9732 -1.75984 1.16575c-0.17126,0.113386 -0.344882,0.22441 -0.520867,0.33189l-50.328 28.5898z"/>
     <path id="_355806968" class="fil5" d="M1031.5 1675.15c10.689,38.7177 36.665,71.093 71.0245,90.2245l-0.00354331 -0.0141732c-2.56063,-1.42559 -5.07874,-2.92087 -7.54371,-4.49055l-11.3398 -50.7154 0 -0.00590552 -0.0673229 -0.316536c-0.219685,-1.04291 -0.579922,-2.0563 -1.12677,-2.9752 -0.518504,-0.870473 -1.18819,-1.6311 -1.97599,-2.2689 -0.347244,-0.282284 -0.71693,-0.536221 -1.09961,-0.766536 -0.725197,-0.437008 -0.392126,-0.245669 -0.881103,-0.452363l-0.437008 -0.183071 -43.9902 -19.7398c-0.929528,-2.72835 -1.7752,-5.49449 -2.54764,-8.29134l-0.011811 -0.00472441z"/>
     <path id="_355807088" class="fil5" d="M1093.78 1510.98c-32.4142,21.091 -56.0835,54.4914 -64.3808,93.5729l0.011811 -0.00708662c0.617717,-2.90551 1.31811,-5.78032 2.10236,-8.61969l44.85 -25.4752 0.0425197 -0.0413386c0.788977,-0.483071 1.5248,-1.05709 2.14134,-1.74803 0.667323,-0.748819 1.16929,-1.62165 1.53662,-2.55118 0.162992,-0.413386 0.330709,-0.849213 0.434646,-1.28268 0.167717,-0.698032 0.131102,-0.388583 0.164173,-1.09252l0.0188977 -0.402756 5.91615 -47.3764c2.33504,-1.72205 4.72323,-3.37796 7.16103,-4.96418l0.0011811 -0.011811z"/>
     <path id="_355805864" class="fil6" d="M1174.66 1487.04l0 0 0 297 0 0c-82.0146,0 -148.5,-66.4855 -148.5,-148.5 0,-82.0146 66.4855,-148.5 148.5,-148.5z"/>
     <path id="_355806464" class="fil7" d="M1174.66 1779.57l-4.35 4.39843c-2.91851,-0.0862205 -5.81457,-0.257481 -8.6882,-0.507874l13.0382 -13.1421 0 9.25158zm0 -88.1245l-43.1918 -13.7894c-0.905906,-0.28937 -1.96772,-0.551575 -2.81339,-0.976772l-1.71732 -0.862205 -38.2051 28.8071 0.683859 2.09882c0.191339,0.587008 0.349607,1.18465 0.477166,1.78819l0.646063 3.04134 0.0330709 -0.00708662 11.9492 53.8111c-2.56063,-1.42559 -5.07874,-2.92087 -7.54371,-4.49055l-11.3398 -50.7154 0 -0.00590552 -0.0673229 -0.316536c-0.219685,-1.04291 -0.579922,-2.0563 -1.12677,-2.9752 -0.518504,-0.870473 -1.18819,-1.6311 -1.97599,-2.2689 -0.347244,-0.282284 -0.71693,-0.536221 -1.09961,-0.766536 -0.725197,-0.437008 -0.392126,-0.245669 -0.881103,-0.452363l-0.437008 -0.183071 -43.9902 -19.7398c-0.929528,-2.72835 -1.7752,-5.49449 -2.54764,-8.29134l49.0063 22.0725c0.721654,0.324803 1.51772,0.641339 2.19331,1.04882 0.0661418,0.0389764 0.131102,0.0791339 0.196063,0.120473l1.81063 1.15276 38.3091 -28.8839 -0.491339 -1.98425c-0.26811,-1.08307 -0.411024,-2.19803 -0.424016,-3.31418l-0.705119 -58.5107c-0.00944883,-0.851575 0.0354331,-1.70433 0.153543,-2.54764l0.259843 -1.87205 -39.8138 -27.9732 -1.75984 1.16575c-0.17126,0.113386 -0.344882,0.22441 -0.520867,0.33189l-50.3162 28.5827c0.617717,-2.90551 1.31811,-5.78032 2.10236,-8.61969l44.85 -25.4752 0.0425197 -0.0413386c0.788977,-0.483071 1.5248,-1.05709 2.14134,-1.74803 0.667323,-0.748819 1.16929,-1.62165 1.53662,-2.55118 0.162992,-0.413386 0.330709,-0.849213 0.434646,-1.28268 0.167717,-0.698032 0.131102,-0.388583 0.164173,-1.09252l0.0188977 -0.402756 5.91615 -47.3764c2.33504,-1.72205 4.72323,-3.37796 7.16103,-4.96418l-6.2752 50.2099 -0.151181 -0.0153543 -0.246851 3.17481c-0.0519685,0.670867 -0.161811,1.33465 -0.320079,1.9878 -0.068504,0.283465 -0.142913,0.565748 -0.225591,0.84567l-0.624804 2.12717 39.2504 27.5764 1.74213 -1.09606c1.02992,-0.648426 2.14961,-1.14331 3.30473,-1.52244l44.4284 -14.5642 0 6.80552 -42.4429 13.9134c-1.29567,0.425197 -2.54764,1.08307 -3.34252,2.2311 -0.830316,1.2 -1.04173,2.69173 -1.0252,4.11969l0.703938 58.5095c0.0177165,1.46221 0.433465,2.92796 1.29803,4.11733 0.630709,0.86693 1.51536,1.48347 2.53701,1.79528l0.549213 0.166536 41.7225 13.3205 0 6.75709zm0 -191.219l-13.1823 -12.6c2.9315,-0.258662 5.88662,-0.437008 8.86536,-0.522048l4.31693 4.13268 0 8.98938z"/>
     <path id="_355806392" class="fil8" d="M1126.94 1675.82l-38.2051 28.8071 0.683859 2.09882c0.191339,0.587008 0.349607,1.18465 0.477166,1.78819l0.646063 3.04134 0.0330709 -0.00708662 11.9528 53.8252c17.7709,9.8941 37.7835,16.2461 59.0859,18.1004l13.0488 -13.1528 0 -78.8729 -43.1918 -13.7894c-0.905906,-0.28937 -1.96772,-0.551575 -2.81339,-0.976772l-1.71732 -0.862205z"/>
     <path id="_355806200" class="fil8" d="M1029.4 1604.55c-2.12244,9.9945 -3.23859,20.3622 -3.23859,30.9898 0,13.7173 1.86024,27 5.34095,39.6095l49.0181 22.0772c0.721654,0.324803 1.51772,0.641339 2.19331,1.04882l0.196063 0.120473 1.81063 1.15276 38.3091 -28.8839 -0.491339 -1.98425c-0.26811,-1.08307 -0.411024,-2.19803 -0.424016,-3.31418l-0.705119 -58.5107c-0.00944883,-0.851575 0.0354331,-1.70433 0.153543,-2.54764l0.259843 -1.87205 -39.8138 -27.9732 -1.75984 1.16575c-0.17126,0.113386 -0.344882,0.22441 -0.520867,0.33189l-50.328 28.5898z"/>
     <path id="_355806080" class="fil8" d="M1093.78 1510.98l-6.27638 50.2217 -0.151181 -0.0153543 -0.246851 3.17481c-0.0519685,0.670867 -0.161811,1.33465 -0.320079,1.9878 -0.068504,0.283465 -0.142913,0.565748 -0.225591,0.84567l-0.624804 2.12717 39.2504 27.5764 1.74213 -1.09606c1.02992,-0.648426 2.14961,-1.14331 3.30473,-1.52244l44.4284 -14.5642 0 -79.4835 -13.1941 -12.6118c-24.8185,2.18504 -47.8843,10.4764 -67.6867,23.3599z"/>
     <path id="_355805504" class="fil9" d="M1127.85 1606.78l0.703938 58.5095c0.0177165,1.46221 0.433465,2.92796 1.29803,4.11733 0.630709,0.86693 1.51536,1.48347 2.53701,1.79528l0.549213 0.166536 41.7225 13.3205 0 -98.1733 -42.4429 13.9134c-1.29567,0.425197 -2.54764,1.08307 -3.34252,2.2311 -0.830316,1.2 -1.04173,2.69173 -1.0252,4.11969z"/>
     <path id="_355805264" class="fil10" d="M1031.5 1675.15c10.689,38.7177 36.665,71.093 71.0245,90.2245l-0.00354331 -0.0141732c-2.56063,-1.42559 -5.07874,-2.92087 -7.54371,-4.49055l-11.3398 -50.7154 0 -0.00590552 -0.0673229 -0.316536c-0.219685,-1.04291 -0.579922,-2.0563 -1.12677,-2.9752 -0.518504,-0.870473 -1.18819,-1.6311 -1.97599,-2.2689 -0.347244,-0.282284 -0.71693,-0.536221 -1.09961,-0.766536 -0.725197,-0.437008 -0.392126,-0.245669 -0.881103,-0.452363l-0.437008 -0.183071 -43.9902 -19.7398c-0.929528,-2.72835 -1.7752,-5.49449 -2.54764,-8.29134l-0.011811 -0.00472441z"/>
     <path id="_355805240" class="fil10" d="M1093.78 1510.98c-32.4142,21.091 -56.0835,54.4914 -64.3808,93.5729l0.011811 -0.00708662c0.617717,-2.90551 1.31811,-5.78032 2.10236,-8.61969l44.85 -25.4752 0.0425197 -0.0413386c0.788977,-0.483071 1.5248,-1.05709 2.14134,-1.74803 0.667323,-0.748819 1.16929,-1.62165 1.53662,-2.55118 0.162992,-0.413386 0.330709,-0.849213 0.434646,-1.28268 0.167717,-0.698032 0.131102,-0.388583 0.164173,-1.09252l0.0188977 -0.402756 5.91615 -47.3764c2.33504,-1.72205 4.72323,-3.37796 7.16103,-4.96418l0.0011811 -0.011811z"/>
     <path id="_355805816" class="fil10" d="M1170.34 1487.11l4.31693 4.13268 0 -4.2 0 0c-4.44685,0 -8.84646,0.196063 -13.1941,0.577559l0.011811 0.011811c2.9315,-0.258662 5.88662,-0.437008 8.86536,-0.522048z"/>
     <path id="_355805528" class="fil10" d="M1174.66 1779.57l-4.35 4.39843c-2.91851,-0.0862205 -5.81457,-0.257481 -8.6882,-0.507874l-0.0106299 0.0106299c4.29922,0.37441 8.65158,0.565748 13.0488,0.565748l0 0 0 -4.46693z"/>
    </g>
   </g>
   <path id="_355805024" class="fil11" d="M1232.32 789.291c0,0 -22.7681,22.4917 -28.2709,26.2358 -5.5063,3.75118 -54.1075,46.689 -54.1075,46.689 0,0 12.0378,-30.0532 15.515,-32.9032 3.47835,-2.85118 29.3457,-25.2225 36.3898,-29.563 7.04528,-4.34528 16.5177,-9.63308 21.1205,-10.5697 4.60276,-0.93189 9.35434,0.111024 9.35434,0.111024l-0.0011811 0z"/>
   <g>
    <path id="_355804400" class="fil12" d="M1148.35 821.875c62.1237,46.754 47.7815,208.73 50.0859,210.194 7.97008,5.05158 44.5217,23.113 53.0221,28.0996 41.5524,-57.7666 7.46693,-249.11 -62.667,-284.88 -2.62914,-2.31142 -34.4126,34.4729 -40.441,46.5863z"/>
    <path id="_355804856" class="fil12" d="M1153.33 1094.16c-2.23465,4.11969 1.41851,16.5921 13.6902,16.6512 9.45473,0.046063 4.61929,-2.84764 10.7681,-11.1106 -1.22008,4.90512 -5.75788,39.7205 14.5488,33.2433 9.47953,-3.02717 10.4965,-5.14961 13.9217,-15.1099 3.02244,0.87756 -1.44331,23.5831 13.7114,24.4229 14.8181,0.822048 20.1744,-24.5043 24.4512,-42.0555 3.93071,-16.1173 6.56221,-33.1713 9.36969,-48.1181 3.09449,-16.4835 -35.9788,-24.078 -46.9996,-33.691 -18.737,19.141 -45.0296,47.7792 -53.4615,75.7678z"/>
   </g>
   <path id="_355804664" class="fil12" d="M853.732 869.061c-66.0438,47.504 -50.8004,212.075 -53.2477,213.559 -8.47205,5.13426 -47.3351,23.4851 -56.3776,28.552 -44.1756,-58.6926 -7.93347,-253.099 66.6319,-289.444 2.79331,-2.34803 36.5894,35.0256 42.9933,47.3327z"/>
   <path id="_355804832" class="fil12" d="M848.443 1145.71c2.3752,4.18465 -1.51063,16.8555 -14.5583,16.9158 -10.05,0.0472441 -4.90512,-2.8937 -11.4473,-11.289 1.30158,4.98307 6.12166,40.3559 -15.4701,33.776 -10.0748,-3.07441 -11.1602,-5.23229 -14.7992,-15.3508 -3.21378,0.892914 1.53543,23.961 -14.5772,24.815 -15.7536,0.833859 -21.4488,-24.9 -25.9949,-42.73 -4.17992,-16.376 -6.97914,-33.7063 -9.96615,-48.8894 -3.28583,-16.7492 38.2571,-24.4618 49.9737,-34.2296 19.9205,19.4457 47.8748,48.5433 56.8394,76.9819z"/>
   <path id="_355805048" class="fil11" d="M770.293 1774.58c1.09724,-3.28229 -3.27992,-7.65709 24.0744,-15.3177 27.3567,-7.65591 52.5284,-17.5122 63.4725,-31.7351 10.9382,-14.2264 21.887,-37.2024 24.0697,-43.7681 2.19449,-6.56575 15.7347,-3.73819 15.7347,-3.73819 0,0 5.06103,7.01575 9.4382,19.0536 4.37126,12.0413 12.0343,17.5087 24.0697,13.135 12.0402,-4.38071 14.2288,-18.6047 14.2288,-18.6047 0,0 10.9382,0 18.6012,18.6047 7.663,18.5977 9.84568,56.902 9.84568,56.902 0,0 -5.25827,0.617717 -15.6803,1.8437 0.689764,1.17874 1.11614,2.51339 1.11614,3.95788 -0.00708662,4.513 -3.82559,8.17323 -8.54528,8.17323 -4.7126,0 -8.5382,-3.66024 -8.5382,-8.17323 0,-0.733465 0.131102,-1.44213 0.323622,-2.1189 -6.98623,0.826772 -15.1536,1.77992 -24.4843,2.88071 -3.55512,0.416929 -6.92481,0.839764 -10.2118,1.24725 0.581103,0.956694 0.94252,2.03268 0.94252,3.19607 0,3.6874 -3.32835,6.68859 -7.43032,6.68859 -4.10788,0 -7.42914,-3.00118 -7.42914,-6.68859 0,-0.488977 0.0661418,-0.964961 0.179528,-1.42441 -16.6217,2.18268 -30.5752,3.97914 -46.304,4.58504 0.497244,0.832678 0.809056,1.77047 0.809056,2.77914 0,3.28583 -2.99173,5.94213 -6.68623,5.94213 -3.69331,0 -6.68504,-2.6563 -6.68504,-5.94213 0,-0.923623 0.257481,-1.78701 0.682678,-2.56654 -3.15945,-0.00236221 -6.39213,-0.0484252 -9.77954,-0.155906 -11.2606,-0.362599 -21.3059,-1.09134 -29.6693,-2.01496 0.54567,0.842127 0.879922,1.82599 0.879922,2.88189 -0.00590552,3.07559 -2.66221,5.57599 -5.94213,5.57599 -3.28583,0 -5.94213,-2.5004 -5.94213,-5.57599 -0.00590552,-1.61102 0.737008,-3.04961 1.9004,-4.06654 -11.2606,-1.71378 -17.6291,-3.79488 -17.041,-5.55591z"/>
   <path id="_355804736" class="fil13" d="M955.689 1523.56c6.59646,2.42481 15.7169,20.9067 15.7169,35.1296 0,14.2264 -2.21811,40.1764 -7.68662,60.9686 -3.56811,13.552 -10.5366,55.8083 -14.8595,74.2831 -2.30197,9.8693 -1.4811,11.8843 -8.91615,17.8299 -7.42323,5.94213 -20.2925,5.16024 -33.424,2.97166 -13.1327,-2.18504 -14.9421,-7.71497 -15.6036,-21.5421 -0.742914,-15.6 1.30158,-56.9327 -1.97835,-95.2288 -3.27992,-38.302 -10.9429,-50.3327 -5.46851,-60.1855 5.46851,-9.84922 10.9323,-10.9406 16.4055,-12.0378 5.4815,-1.09134 49.2189,-4.61103 55.8142,-2.18858z"/>
   <path id="_355804520" class="fil14" d="M868.808 1722.76c0,0 14.8465,13.2402 22.0725,22.0701 7.22008,8.82993 18.463,24.8823 18.463,24.8823l-18.8705 3.20788c0,0 -6.81851,-14.4449 -12.437,-21.6685 -5.61851,-7.22481 -17.2571,-17.2583 -17.2571,-17.2583l8.02914 -11.2335z"/>
   <path id="_355804784" class="fil14" d="M852.354 1742.03c0,0 10.8354,12.0378 13.2461,16.852 2.40473,4.81536 8.82638,15.652 8.82638,15.652l-17.6587 2.00788c0,0 -2.00906,-11.6386 -4.01221,-15.6508 -2.01496,-4.01693 -10.8354,-13.2461 -10.8354,-13.2461l10.4339 -5.61496z"/>
   <path id="_355804256" class="fil12" d="M983.159 1218.59c17.8099,22.8591 -2.14016,98.5418 -3.88583,121.286 -5.59371,72.952 -28.9807,121.604 -28.9807,193.227 -2.61378,5.7 -43.989,1.58268 -61.3725,-2.28662 -6.38032,-39.9839 -27.8292,-361.094 -23.374,-361.094l1.83425 0c37.1729,0 112.277,44.3823 115.779,48.867z"/>
   <path id="_355804160" class="fil11" d="M1126.68 1269.6c0,0 -17.5099,1.09134 -21.8906,12.0378 -4.37363,10.9394 1.09724,24.0744 1.09724,24.0744 0,0 24.0721,13.1291 31.7339,28.4528 7.65709,15.3154 3.28583,45.9567 10.9429,59.0894 7.65945,13.1315 22.9784,32.824 28.4516,37.2036 5.46733,4.37835 26.2642,2.19213 28.4492,-4.37953 2.19095,-6.55985 9.8504,-18.5977 3.28701,-40.4823 -6.57166,-21.8858 -15.3189,-64.5697 -18.6024,-70.0347 -3.28701,-5.47441 -25.1669,-30.6414 -32.8311,-36.1099 -7.65945,-5.47205 -30.6378,-9.85158 -30.6378,-9.85158z"/>
   <path id="_355803656" class="fil15" d="M1135.15 1285.01c0,0 -2.18858,16.4126 5.46969,24.0768 7.663,7.65709 30.6402,18.5977 55.8095,29.5406 25.1669,10.9429 66.7524,24.0744 70.0347,24.0744 3.27992,0 -3.28229,-29.5441 -7.65827,-35.0173 -4.37953,-5.46969 -29.5488,-33.9225 -53.6209,-40.4882 -24.078,-6.56339 -49.2426,-9.84686 -57.9945,-7.65709 -8.7567,2.18504 -12.0402,5.47087 -12.0402,5.47087z"/>
   <g>
    <path id="_355803752" class="fil16" d="M1219.65 1174.86c0,0 -39.7217,16.7599 -64.891,43.0205 -25.1693,26.2642 -33.476,51.0414 -33.476,51.0414l-101.491 -87.9875 -26.426 118.143c0,0 -66.3567,26.6894 -95.902,16.8437 -29.5429,-9.84922 -47.7898,-33.9697 -47.7898,-33.9697 0,0 11.5784,-152.326 19.2414,-181.876 7.65709,-29.5477 36.5303,-109.233 36.5303,-109.233 0,0 18.5103,27.1666 60.0898,17.315 41.5796,-9.84686 79.878,-14.2264 87.5398,-15.3189 7.65945,-1.0937 28.4504,10.9441 28.4504,10.9441 0,0 43.7705,48.1441 76.6005,79.8804 32.8252,31.7362 61.526,91.1965 61.526,91.1965l-0.00236221 0z"/>
   </g>
   <path id="_355803872" class="fil17" d="M798.92 824.981l50.9221 28.5532 -30.2162 -49.2378c0,0 -5.96693,2.36693 -20.7059,20.6847z"/>
   <path id="_355803896" class="fil18" d="M898.364 770.607c4.4067,13.9228 -3.64488,13.2378 -9.09568,40.6004 -5.4567,27.3603 -35.4685,80.6552 -35.4685,80.6552 -2.18386,1.22599 -31.0465,-23.9882 -50.4189,-40.1823 -19.5402,-11.628 -37.1953,-20.8441 -37.1953,-20.8441 0,0 6.68623,-9.5752 18.9,-27.3957 27.1925,-39.6638 49.0996,-80.9398 93.052,-104.8 -2.09173,-6.2693 -7.99134,11.0339 -1.31929,24.6378 8.63032,17.5937 19.0701,39.476 21.5457,47.3292z"/>
   <path id="_355803632" class="fil19" d="M1020.25 674.406l0.00708662 0 0.0165354 0 0.0283465 0.00236221 0.00236221 0 0.0366142 0 0.0531496 0.00236221 0.0625985 0 0.00944883 0 0.0649607 0.00236221 0.0826772 0.00236221 0.0956694 0.0011811 0.0212599 0.00236221 0.0850394 0.00236221 0.115748 0.00236221 0.12874 0.00472441 0.034252 0 0.102756 0.00354331 0.147638 0.00472441 0.159449 0.00472441 0.0543308 0.00236221 0.113386 0.0011811 0.178347 0.00472441 0.186614 0.00708662 0.0791339 0.0011811 0.119291 0.00472441 0.206693 0.00708662 0.216142 0.00590552 0.106299 0.00472441 0.120473 0.00236221 0.236221 0.00826772 0.244488 0.00826772 0.137008 0.00472441 0.11811 0.00236221 0.261024 0.0106299 0.271654 0.00944883 0.170079 0.00590552 0.111024 0.00236221 0.28937 0.0106299 0.298819 0.0106299 0.204331 0.00944883 0.100394 0.00236221 0.315355 0.0106299 0.322441 0.0129921 0.245669 0.00826772 0.0850394 0.00472441 0.340158 0.0129921 0.348425 0.0129921 0.287008 0.0106299 0.0673229 0.00236221 0.361418 0.0153543 0.369685 0.0153543 0.333071 0.0129921 0.046063 0.00236221 0.38504 0.0153543 0.392126 0.0177165 0.379134 0.0141732 0.0200788 0.00236221 0.4063 0.0177165 0.413386 0.0177165 0.420473 0.0165354 0.00708662 0.00236221 0.420473 0.0177165 0.434646 0.0200788 0.440552 0.0212599 0.0366142 0.00236221 0.408662 0.0177165 0.453544 0.0212599 0.461811 0.022441 0.0696851 0.00354331 0.393307 0.0200788 0.472441 0.0212599 0.477166 0.0248032 0.106299 0.00590552 0.376772 0.0177165 0.490158 0.0259843 0.493701 0.0236221 0.144095 0.00944883 0.356693 0.0165354 0.505512 0.0283465 0.509056 0.0259843 0.183071 0.011811 0.333071 0.0165354 0.520867 0.0307087 0.526772 0.0283465c23.3114,1.30866 60.7347,4.51772 71.0611,11.8937 15.3177,10.9406 3.81024,34.3406 8.18741,67.1646 4.37481,32.8311 -11.3669,57.2658 -23.4059,99.9402 -17.9079,37.7941 13.7811,136.999 18.6236,158.565l0.0165354 0.0814961 0.0200788 0.080315 0.0177165 0.080315 0.0165354 0.080315 0.0177165 0.0791339 0.0177165 0.0755906 0.0153543 0.0791339 0.0177165 0.0755906 0.0153543 0.0744095 0.0165354 0.0755906 0.011811 0.0484252 0.00354331 0.0259843 0.0153543 0.0720473 0.0153543 0.0732284 0.0153543 0.0696851 0.0129921 0.0720473 0.0153543 0.0696851 0.0129921 0.0696851 0.0153543 0.0696851 0.0129921 0.0673229 0.0129921 0.0673229 0.0129921 0.0661418 0.0129921 0.0649607 0.046063 0.248032 0.00236221 0.00708662 0.0106299 0.0625985 0.0106299 0.0614174 0.0106299 0.0590552 0.0200788 0.116929 0.0106299 0.0590552 0.00826772 0.056693 0.0200788 0.111024 0.00826772 0.0543308 0.00944883 0.0543308 0.00236221 0.0177165 0.00354331 0.034252 0.00944883 0.0519685 0.0673229 0.518504 0.00236221 0.0283465 0.00236221 0.0153543 0.0011811 0.0413386c0.0153543,0.162992 0.0248032,0.311811 0.0248032,0.42874 0,8.7567 12.4488,26.2654 -5.05985,19.6996 -17.5087,-6.56457 -124.064,61.7599 -170.009,66.6804 -14.6138,2.35276 -33.5445,14.6457 -82.1257,-12.2492 -2.14843,-1.18819 -10.4587,-334.682 14.0539,-386.757l0.191339 -0.407481 0.191339 -0.400394 0.0259843 -0.0543308 0.165354 -0.344882 0.19252 -0.390945 0.0496063 -0.102756 0.330709 -0.666142 0.0767717 -0.152362 0.114567 -0.226772 0.19252 -0.37441 0.0992127 -0.196063 0.0897638 -0.172441 0.193701 -0.362599 0.126378 -0.242126 0.0649607 -0.119291 0.348425 -0.636615 0.0377953 -0.0696851 0.194882 -0.346063 0.0413386 -0.0708662 0.249213 -0.433465 0.3 -0.510237 0.0129921 -0.0188977c0.261024,-0.435827 0.52441,-0.858662 0.79252,-1.27205l0.0673229 -0.101575c0.425197,-0.649607 0.862205,-1.27441 1.31339,-1.87087l0.0389764 -0.0519685 0.0590552 -0.0767717 0.222047 -0.284646 0.191339 -0.242126 0.0307087 -0.0389764 0.454725 -0.548032 0.467717 -0.536221 0.0307087 -0.0318898 0.448819 -0.486615 0.0625985 -0.0673229 0.183071 -0.186614c0.245669,-0.252756 0.498426,-0.500788 0.755906,-0.742914l0.134646 -0.126378 0.124016 -0.113386 0.394488 -0.349607 0.0448819 -0.0413386 0.0921261 -0.0791339 0.271654 -0.230315 0.218504 -0.180709 0.0578741 -0.046063 0.0153543 -0.0129921c0.361418,-0.291733 0.735827,-0.575197 1.12205,-0.851575l0.0129921 -0.00826772 0.0165354 -0.0129921 0.0401575 -0.0259843 0.54567 -0.379134 0.0590552 -0.0389764 0.0153543 -0.0106299 0.548032 -0.355512 0.105118 -0.0649607 0.034252 -0.0200788 0.507874 -0.307087 0.15 -0.0885827 0.178347 -0.102756 0.337796 -0.188977 0.200788 -0.111024 0.140551 -0.0767717 0.592914 -0.307087 0.0106299 -0.00590552 0.0980316 -0.0507874 0.591733 -0.284646 0.0826772 -0.0413386 0.0531496 -0.0236221 0.372048 -0.172441 0.37441 -0.170079 0.00472441 0c9.23505,-4.06063 24.1772,-5.77796 51.893,-7.30867l3.33898 -0.183071 0.0248032 -0.00236221 0.672048 -0.034252 0.146457 -0.00826772 0.805512 -0.0437008 0.0732284 -0.00472441 1.93819 -0.106299 0.0980316 -0.00472441 0.95315 -0.0519685 0.20315 -0.00944883 0.901182 -0.0496063 0.312992 -0.0177165 0.843308 -0.0448819 0.433465 -0.022441 0.767717 -0.0437008 0.562205 -0.0307087 0.68504 -0.0366142 0.696851 -0.0366142 0.595276 -0.0330709 0.837402 -0.046063 0.494882 -0.0259843 0.983859 -0.0519685 0.38504 -0.0212599 1.13622 -0.0614174 0.26811 -0.0153543 1.29567 -0.0696851 0.144095 -0.00826772 1.45394 -0.0791339 0.0153543 0 1.49764 -0.0826772 0.119291 -0.00354331 1.40433 -0.0791339 0.259843 -0.0129921 1.28858 -0.0696851 0.402756 -0.0212599 1.16693 -0.0637796 0.549213 -0.0283465 1.04055 -0.0555119 0.696851 -0.0377953 0.907087 -0.0496063 0.849213 -0.046063 0.77126 -0.0413386 0.999213 -0.0543308 0.630709 -0.0354331 1.15158 -0.0602363 0.487796 -0.0283465 1.30512 -0.0696851 0.341339 -0.0177165 1.4563 -0.0779528 0.196063 -0.0106299 1.60512 -0.0874016 0.0496063 -0.00236221 1.65236 -0.0897638 0.0980316 -0.00590552 1.55197 -0.0826772 0.246851 -0.0129921 1.39961 -0.0767717 0.389764 -0.0212599 1.24725 -0.0673229 0.536221 -0.0283465 1.09252 -0.0590552 0.67441 -0.0366142 0.941339 -0.0507874 0.811418 -0.0437008 0.790158 -0.0437008 0.944883 -0.0496063 0.640158 -0.034252 1.07126 -0.0590552 0.49252 -0.0259843 1.19528 -0.0637796 0.348425 -0.0188977 1.30984 -0.0720473 0.207874 -0.0106299 1.41851 -0.0767717 0.0744095 -0.00472441 1.46339 -0.0779528 0.056693 -0.00236221 1.37362 -0.0755906 0.183071 -0.00944883 1.21417 -0.0649607 0.301181 -0.0153543 1.05945 -0.0590552 0.412205 -0.0212599 0.90945 -0.0496063 0.51378 -0.0271654 0.768898 -0.0413386 0.605906 -0.0318898 0.630709 -0.0354331 0.692127 -0.0366142 0.500788 -0.0283465 0.764174 -0.0413386 0.379134 -0.0200788 0.826772 -0.0437008 0.265748 -0.0141732 0.879922 -0.0484252 0.16063 -0.00826772 0.917717 -0.0507874 0.0673229 -0.00236221 0.924804 -0.0496063 0.0177165 -0.00236221 0.849213 -0.046063 0.090945 -0.00354331 0.712205 -0.0389764 0.152362 -0.00708662 0.585827 -0.0330709 0.199606 -0.0106299 0.47126 -0.0236221 0.23504 -0.0129921 0.364961 -0.0200788 0.255118 -0.0153543 0.274016 -0.0129921 0.261024 -0.0153543 0.19252 -0.0106299 0.252756 -0.0129921 0.124016 -0.00590552 0.225591 -0.0141732 0.0720473 -0.0011811 0.183071 -0.011811 0.0330709 -0.0011811 0.121654 -0.00708662 0.00826772 0 0.0437008 -0.00236221z"/>
   <path id="_355803584" class="fil18" d="M1105.15 684.199c0,0 32.3681,8.863 45.6024,18.8433 13.2378,9.9815 50.9563,48.052 57.3626,57.3804 6.40512,9.32599 24.202,28.8685 24.202,28.8685 0,0 -27.2067,9.40631 -47.3008,28.7681 -20.0953,19.3677 -35.0788,44.1567 -35.0788,44.1567l-32.7673 -52.2626c0,0 -10.8,-25.1221 -12.0036,-48.7583 -1.35473,-26.4898 -0.0165354,-76.9938 -0.0165354,-76.9961z"/>
   <path id="_355803200" class="fil20" d="M923.74 894.642c0,0 9.24922,-9.2504 13.5236,-14.9469 4.26615,-5.6941 5.68937,-12.0969 5.68937,-12.0969l13.5213 -0.712205c0,0 0.504331,44.7981 1.42441,59.0729 1.42677,22.063 2.1378,49.1079 2.1378,49.1079l-14.237 0.708662c0,0 -0.712205,-26.3327 -1.42087,-46.9725 -0.543308,-15.7158 -1.42559,-37.7185 -1.42559,-37.7185 0,0 -3.55748,4.26851 -6.40276,7.8319 -2.85118,3.5563 -12.098,7.82481 -12.098,7.82481l-0.712205 -12.0992z"/>
   <path id="_355802816" class="fil21" d="M1171 1375.2c0,0 -12.8445,-3.61299 -17.6599,-7.22245 -4.813,-3.61299 -7.62284,-6.82441 -7.62284,-6.82441 0,0 -0.805512,-8.82993 -1.20591,-11.2347 -0.400394,-2.40945 -0.798426,-5.2193 -0.798426,-5.2193 -0.00236221,0 4.40906,6.82441 10.0276,11.2382 5.61969,4.4126 14.4484,6.0189 14.4484,6.0189l2.81103 13.2437z"/>
   <path id="_355803128" class="fil21" d="M1165.38 1351.52c0,0 -8.02442,-2.8063 -12.4394,-6.01772 -4.4126,-3.21378 -14.0445,-13.2461 -14.0445,-13.2461 0,0 -2.00788,-5.2193 -3.61418,-6.42284 -1.6063,-1.20118 -4.01457,-3.61181 -4.01457,-3.61181 0,0 10.4374,7.22599 15.2516,10.4339 4.81418,3.21142 14.4484,6.82323 14.4484,6.82323l4.4126 12.0413z"/>
   <polygon id="_355803008" class="fil21" points="1189.05,1355.94 1195.88,1347.11 1198.69,1359.95 1191.06,1370.39 "/>
   <polygon id="_355803320" class="fil22" points="1183.44,1336.67 1186.25,1347.91 1192.67,1339.08 "/>
   <path id="_355803488" class="fil12" d="M1196.94 1159.28c16.5685,3.95788 92.0186,119.223 107.769,141.375 27.2764,38.3622 3.24095,67.1823 -30.0614,78.3178 -25.6937,2.07284 -119.219,-87.3579 -139.827,-109.233 -16.8,-17.8347 -16.5626,-14.4626 -22.2792,-31.6725 -10.4669,-31.4988 52.8733,-86.3174 84.3993,-78.7867z"/>
   <path id="_355803344" class="fil23" d="M863.92 508.473c-3.95788,-10.5803 -44.4012,-22.5626 -31.728,30.1961 1.4752,6.13111 12.7713,26.2559 31.4374,26.4969 19.3677,0.250394 6.34607,-38.4154 0.290551,-56.693z"/>
   <g>
    <path id="_355803464" class="fil24" d="M921.246 261.436c110.309,42.3225 146.71,28.3666 170.6,65.8808 24.9248,39.137 28.989,129.592 13.4788,203.09 -8.83938,41.8807 -27.2138,73.891 -43.7327,98.7237 -4.79528,18.8457 -99.365,19.976 -147.591,-4.12205 -32.4567,-16.2201 -29.237,-25.304 -46.3831,-63.0674 -23.7815,-52.3807 -47.0941,-76.3867 -52.9205,-154.102 -1.51063,-20.1354 -3.41221,-58.7894 15.5398,-62.8359 -14.3681,-71.3186 66.4264,-102.504 91.0087,-83.5666z"/>
   </g>
   <path id="_355802984" class="fil12" d="M1058.89 372.251c10.6488,28.6122 8.58308,117.845 0.0531496,190.551 -1.29685,11.0504 -6.45945,26.5441 -10.9701,40.9914 -4.07835,13.0701 -7.6252,25.2839 -7.29213,32.576 1.06181,23.2642 1.59803,29.9551 18.6803,39.4264 0.114567,4.76811 -16.8461,8.33505 -23.5984,12.7358 -11.0102,7.17166 -25.5567,39.7937 -42.2292,42.2681 -13.3524,1.98189 -16.4433,-27.0461 -24.4299,-30.7347 -46.0559,-21.2811 -93.2977,-53.0032 -109.857,-104.169 -15.9425,-25.715 -20.3977,-218.604 -1.18937,-241.146 12.0957,-28.9335 53.6363,11.2618 86.9422,2.41418 84.6355,-20.302 109.107,0.270473 113.89,15.0862z"/>
   <path id="_355802384" class="fil23" d="M1053.39 586.368l-0.0791339 0.266929 -0.022441 0.0755906 -0.0590552 0.193701 -0.0814961 0.269292 -0.0649607 0.21378 -0.0153543 0.0578741 -0.0814961 0.269292 -0.0826772 0.270473 -0.0248032 0.0814961 -0.056693 0.190158 -0.0826772 0.270473 -0.068504 0.219685 -0.0141732 0.0519685 -0.0826772 0.271654 -0.0826772 0.270473 -0.0283465 0.0862205 -0.0555119 0.185433 -0.0838583 0.272835 -0.167717 0.543308 -0.0838583 0.272835 -0.0271654 0.090945 -0.0555119 0.18189 -0.0850394 0.272835 -0.0838583 0.272835 -0.0850394 0.272835 -0.0850394 0.272835 -0.0295276 0.0956694 -0.0555119 0.177165 -0.0838583 0.274016 -0.0755906 0.233858 -0.0106299 0.0389764 -0.0850394 0.272835 -0.0862205 0.274016 -0.0307087 0.101575 -0.0531496 0.17126 -0.0862205 0.275197 -0.0744095 0.239764 -0.011811 0.0330709 -0.0838583 0.274016 -0.0862205 0.272835 -0.034252 0.105118 -0.0519685 0.168898 -0.0862205 0.272835 -0.0767717 0.245669 -0.00944883 0.0295276 -0.0862205 0.272835 -0.0862205 0.274016 -0.0330709 0.109843 -0.0519685 0.162992 -0.0862205 0.274016 -0.0779528 0.250394 -0.00826772 0.022441 -0.0862205 0.274016 -0.0862205 0.272835 -0.0354331 0.115748 -0.0507874 0.159449 -0.0862205 0.272835 -0.0791339 0.253937 -0.00590552 0.0188977 -0.0862205 0.274016 -0.0862205 0.272835 -0.0377953 0.120473 -0.0472441 0.152362 -0.0850394 0.272835 -0.0814961 0.257481 -0.00472441 0.0153543 -0.0862205 0.272835 -0.0862205 0.272835 -0.0389764 0.122835 -0.0472441 0.147638 -0.0838583 0.272835 -0.0826772 0.263386 -0.00354331 0.00944883 -0.0862205 0.271654 -0.0850394 0.272835 -0.0401575 0.127559 -0.0448819 0.142913 -0.0850394 0.271654 -0.0826772 0.265748 -0.0011811 0.00472441 -0.0862205 0.271654 -0.0850394 0.271654 -0.0401575 0.131102 -0.0437008 0.138189 -0.0850394 0.270473 -0.0838583 0.270473c-4.07835,13.0689 -7.6252,25.2815 -7.29213,32.5748l0.00354331 0.0649607 0.00236221 0.0649607 0.00236221 0.0649607 0.00354331 0.0637796 0.00236221 0.0649607 0.00354331 0.0649607 0.00354331 0.0625985 0.00354331 0.0649607 0.0011811 0.0637796 0.00354331 0.0649607 0.00236221 0.0637796 0.00354331 0.0625985 0.00354331 0.0649607 0.0011811 0.0637796 0.00354331 0.0637796 0.00354331 0.0625985 0.0011811 0.0519685 0.00236221 0.011811 0.00236221 0.0625985 0.00236221 0.0637796 0.00236221 0.0637796 0.00354331 0.0625985 0.00354331 0.0637796 0.00354331 0.0625985 0.00236221 0.0625985 0.00236221 0.0625985 0.00354331 0.0637796 0.00236221 0.0614174 0.00354331 0.0637796 0.0011811 0.0614174 0.00354331 0.0637796 0.00354331 0.0614174 0.00354331 0.0614174 0.00236221 0.0637796 0.00236221 0.0389764 0 0.022441 0.00354331 0.0614174 0.00236221 0.0614174 0.00354331 0.0625985 0.00354331 0.0614174 0.0011811 0.0614174 0.00354331 0.0614174 0.00354331 0.0625985 0.00236221 0.0614174 0.00354331 0.0602363 0.00236221 0.0614174 0.00236221 0.0614174 0.00354331 0.0602363 0.00354331 0.0614174 0.0011811 0.0625985 0.00354331 0.0590552 0.00354331 0.0602363 0.0011811 0.0283465 0.0011811 0.0330709 0.00354331 0.0602363 0.00236221 0.0602363 0.00236221 0.0614174 0.00354331 0.0602363 0.00354331 0.0602363 0.00354331 0.0602363 0.0011811 0.0602363 0.00354331 0.0602363 0.00236221 0.0602363 0.00354331 0.0602363 0.00236221 0.0578741 0.00236221 0.0602363 0.00354331 0.0602363 0.00944883 0.19252 0.0377953 0.739371 0.0129921 0.246851 0.0354331 0.664961 0.0165354 0.297638c0.761812,13.9784 1.3878,22.3713 13.6158,30.4488l0.383859 0.250394 0.0826772 0.0519685 0.561024 0.355512 0.0295276 0.0188977 0.204331 0.12874 0.491339 0.301181 0.00472441 0.00354331 0.517323 0.311811 0.197244 0.119291 0.129921 0.0755906 0.609449 0.359055 0.0897638 0.0519685 0.675591 0.386221 0.0472441 0.0259843 0.741733 0.415748 0 0.0200788 0 0.0200788 -0.00354331 0.0543308 -0.00826772 0.157087 -0.0106299 0.0814961 -0.0212599 0.129921 -0.0307087 0.120473 -0.0248032 0.0933072 -0.0401575 0.112205 -0.0437008 0.115748 -0.00472441 0.0129921 -0.0850394 0.178347 -0.0188977 0.0377953 -0.0389764 0.0661418 -0.0838583 0.141732 -0.022441 0.0330709 -0.121654 0.175984 -0.00590552 0.00826772 -0.140551 0.177165 -0.0271654 0.0330709 -0.155906 0.177165 -0.0307087 0.0330709 -0.173622 0.174803 -0.0330709 0.0330709 -0.190158 0.174803 -0.0354331 0.0307087 -0.205512 0.175984 -0.242126 0.19252 -0.0165354 0.0129921 -0.0377953 0.0295276 -0.236221 0.173622 -0.0413386 0.0295276 -0.251575 0.173622 -0.0401575 0.0271654 -0.266929 0.175984 -0.0413386 0.0259843 -0.281103 0.173622 -0.336614 0.199606 -0.0437008 0.0259843 -0.307087 0.173622 -0.0448819 0.0248032 -0.318898 0.173622 -0.0448819 0.0248032 -0.329528 0.17126 -0.0472441 0.0248032 -0.341339 0.172441 -0.0472441 0.0236221 -0.351969 0.172441 -0.0472441 0.022441 -0.36378 0.172441 -0.0448819 0.0212599 -0.375591 0.173622 -0.0448819 0.0212599 -0.383859 0.17126 -0.0448819 0.0212599 -0.393307 0.172441 -0.0448819 0.0200788 -0.401575 0.173622 -0.0448819 0.0188977 -0.407481 0.172441 -0.046063 0.0188977 -0.415748 0.172441 -0.0437008 0.0200788 -0.424016 0.17126 -0.0413386 0.0177165 -0.431103 0.174803 -0.0413386 0.0177165 -0.435827 0.173622 -0.0425197 0.0153543 -0.43937 0.174803 -0.0413386 0.0153543 -0.444095 0.173622 -0.0413386 0.0165354 -0.447638 0.175984 -0.0389764 0.0141732 -0.453544 0.174803 -0.0366142 0.0153543 -0.455906 0.174803 -0.0366142 0.0153543 -0.459449 0.174803 -0.034252 0.0129921 -0.46063 0.177165 -0.034252 0.0129921 -0.46063 0.178347 -0.0330709 0.011811 -0.462992 0.178347 -0.0307087 0.011811 -0.462992 0.178347 -0.0283465 0.0129921 -0.462992 0.178347 -0.0271654 0.011811 -0.461811 0.179528 -0.0259843 0.0106299 -0.46063 0.18189 -0.0248032 0.00944883 -0.458268 0.18189 -0.022441 0.00944883 -0.455906 0.183071 -0.0212599 0.00826772 -0.451181 0.184252 -0.0200788 0.00944883 -0.447638 0.185433 -0.0177165 0.00590552 -0.442914 0.186614 -0.0188977 0.00826772 -0.435827 0.186614 -0.0165354 0.00708662 -0.432284 0.187795 -0.0129921 0.00708662 -0.425197 0.188977 -0.0129921 0.00472441 -0.416929 0.19252 -0.011811 0.00472441 -0.408662 0.19252 -0.0106299 0.00590552 -0.402756 0.19252 -0.00708662 0.00354331 -0.392126 0.196063 -0.00826772 0.00354331 -0.381496 0.196063 -0.00472441 0.00354331 -0.373229 0.198425 -0.00354331 0.0011811 -0.360236 0.199606 -0.00354331 0.00236221 -0.348425 0.200788 -0.00236221 0.0011811 -0.336614 0.20315 0 0.00236221 -0.323622 0.204331c-11.0102,7.17166 -34.1941,52.7575 -50.8666,55.2319 -1.57323,0.233858 -3.3567,-0.137008 -5.28544,-0.968505 -8.82166,-5.19804 -9.25985,-39.5055 -35.8831,-55.6111 -16.891,-10.2177 -36.0945,-23.6965 -45.9059,-32.7508l-0.129921 -0.122835 -0.0248032 -0.022441 -1.61457 -1.53071 -0.28937 -0.279921c-0.479528,-0.461811 -0.957875,-0.927166 -1.43032,-1.3937l-0.138189 -0.135827 -0.193701 -0.191339 -1.48701 -1.49291 -0.00590552 -0.00708662 -0.0248032 -0.0248032 -0.0531496 -0.0543308c-0.538583,-0.548032 -1.07244,-1.09843 -1.60158,-1.65118l-0.0791339 -0.0850394 -0.419292 -0.446457c39.0756,34.2579 79.6571,19.5992 110.564,-3.87874 30.626,-23.2654 51.7512,-55.1871 52.4965,-56.7461z"/>
   <path id="_355802648" class="fil25" d="M1061.7 507.617c3.98032,-11.6551 47.6882,-25.9831 35.5252,31.9193 -1.41378,6.72993 -13.0961,29.0197 -33.437,29.8689 -21.0992,0.879922 -8.11654,-41.6752 -2.08819,-61.7882z"/>
   <path id="_355802096" class="fil24" d="M1083.13 496.809l-16.2791 -68.0221c-0.484252,15.6673 -13.6736,111.105 -24.0673,119.741 22.0217,5.93268 26.5004,-54.4902 40.3465,-51.7193z"/>
   <path id="_355802504" class="fil20" d="M979.451 876.425c0,0 9.24922,-9.2504 13.5236,-14.9469 4.26615,-5.69292 5.68937,-12.0957 5.68937,-12.0957l13.5213 -0.712205c0,0 0.504331,44.7981 1.42441,59.0729 1.42559,22.0618 2.1378,49.1067 2.1378,49.1067l-14.2382 0.709843c0,0 -0.711024,-26.3339 -1.41969,-46.9725 -0.543308,-15.7169 -1.42559,-37.7197 -1.42559,-37.7197 0,0 -3.55748,4.26851 -6.40276,7.83308 -2.85236,3.5563 -12.098,7.82363 -12.098,7.82363l-0.712205 -12.0992z"/>
  </g>
 </g>
</svg>
