<?xml version="1.0" encoding="UTF-8"?>
<!DOCTYPE svg PUBLIC "-//W3C//DTD SVG 1.1//EN" "http://www.w3.org/Graphics/SVG/1.1/DTD/svg11.dtd">
<!-- Creator: CorelDRAW -->
<svg xmlns="http://www.w3.org/2000/svg" xml:space="preserve" width="2048px" height="2048px" style="shape-rendering:geometricPrecision; text-rendering:geometricPrecision; image-rendering:optimizeQuality; fill-rule:evenodd; clip-rule:evenodd"
viewBox="0 0 2048 2048"
 xmlns:xlink="http://www.w3.org/1999/xlink">
 <defs>
  <style type="text/css">
   <![CDATA[
    .fil11 {fill:none}
    .fil4 {fill:#01579B}
    .fil1 {fill:#1F1F1F}
    .fil8 {fill:#212121}
    .fil5 {fill:#2C6C2F}
    .fil6 {fill:#2E7D32}
    .fil7 {fill:#B19A75}
    .fil2 {fill:#E0E0E0}
    .fil9 {fill:#E2CDAA}
    .fil10 {fill:#E7B691}
    .fil3 {fill:#E9C1A0}
    .fil0 {fill:#FFD3AE}
   ]]>
  </style>
 </defs>
 <g id="Layer_x0020_1">
  <metadata id="CorelCorpID_0Corel-Layer"/>
  <g id="_357672592">
   <g>
    <path id="_357674704" class="fil0" d="M1073.39 1299.73c-7.01339,25.1646 39.2859,83.8052 49.4563,102.756 15.1866,28.3051 33.1855,50.0658 47.9067,73.1386 7.95001,12.4595 18.6662,41.4792 25.924,76.6182 3.50551,4.92166 41.0859,-3.7937 56.4697,-9.4193 -0.540945,-12.1902 2.35158,-52.7918 -10.5874,-100.086 -26.3398,-96.2812 -81.4548,-222.614 -84.1028,-221.674l-1.61693 0.574016c-32.7473,11.6232 -82.0666,73.1528 -83.4497,78.0922z"/>
    <path id="_357674656" class="fil1" d="M1428.36 1773.93c-1.69016,-3.29292 2.12599,-8.19922 -27.5929,-13.6831 -29.7201,-5.48032 -57.5386,-13.4256 -71.2985,-27.1429 -13.7539,-13.7221 -28.9866,-36.4784 -32.3563,-43.0666 -3.3815,-6.58583 -16.9819,-2.46378 -16.9819,-2.46378 0,0 -4.08544,7.69371 -6.61772,20.5146 -2.5252,12.8232 -9.5752,19.1504 -22.8189,15.7004 -13.2496,-3.45473 -17.9091,-17.9504 -17.9091,-17.9504 0,0 -11.3705,0.970867 -16.2177,20.8642 -4.84843,19.8862 -0.696851,59.6398 -0.696851,59.6398 22.2638,0.68504 228.271,18.3295 212.49,-12.4122z"/>
    <path id="_357675040" class="fil2" d="M1193.56 1531.14c-6.45,3.09095 -12.8327,22.9866 -10.448,37.6748 2.38347,14.6929 9.03898,41.2961 18.2091,62.2843 5.97993,13.6784 20.3067,56.7012 27.8977,75.3981 4.04646,9.98859 3.5315,12.1429 12.2563,17.6232 8.713,5.47796 21.9591,3.52796 35.2418,0.102756 13.285,-3.42166 14.2406,-9.29292 12.6095,-23.6327 -1.84252,-16.1764 -10.8957,-58.6819 -13.9063,-98.5229 -3.00945,-39.8481 2.93977,-52.9536 -4.40315,-62.6434 -7.33583,-9.68623 -13.1965,-10.3287 -19.0713,-10.976 -5.87953,-0.641339 -51.9343,-0.394488 -58.3855,2.69173z"/>
   </g>
   <g>
    <path id="_357674824" class="fil0" d="M974.613 1299.73c7.01457,25.1646 -39.2847,83.8052 -49.4552,102.756 -15.1878,28.3051 -33.1855,50.0658 -47.9079,73.1386 -7.95001,12.4595 -18.6662,41.4792 -25.9229,76.6182 -3.50551,4.92166 -41.087,-3.7937 -56.4709,-9.4193 0.542126,-12.1902 -2.3504,-52.7918 10.5874,-100.086 26.341,-96.2812 81.456,-222.614 84.104,-221.674l1.61575 0.574016c32.7473,11.6232 82.0678,73.1528 83.4497,78.0922z"/>
    <path id="_357675088" class="fil1" d="M619.645 1773.93c1.69016,-3.29292 -2.12717,-8.19922 27.5929,-13.6831 29.7201,-5.48032 57.5374,-13.4256 71.2973,-27.1429 13.7551,-13.7221 28.9866,-36.4784 32.3563,-43.0666 3.38268,-6.58583 16.9831,-2.46378 16.9831,-2.46378 0,0 4.08544,7.69371 6.61654,20.5146 2.52638,12.8232 9.57639,19.1504 22.8201,15.7004 13.2496,-3.45473 17.9091,-17.9504 17.9091,-17.9504 0,0 11.3693,0.970867 16.2165,20.8642 4.84961,19.8862 0.698032,59.6398 0.698032,59.6398 -22.265,0.68504 -228.272,18.3295 -212.49,-12.4122z"/>
    <path id="_357673984" class="fil2" d="M854.436 1531.14c6.45,3.09095 12.8327,22.9866 10.4492,37.6748 -2.38465,14.6929 -9.04016,41.2961 -18.2103,62.2843 -5.97993,13.6784 -20.3055,56.7012 -27.8965,75.3981 -4.04764,9.98859 -3.5315,12.1429 -12.2575,17.6232 -8.71182,5.47796 -21.9579,3.52796 -35.2418,0.102756 -13.285,-3.42166 -14.2394,-9.29292 -12.6083,-23.6327 1.84252,-16.1764 10.8957,-58.6819 13.9051,-98.5229 3.01063,-39.8481 -2.93977,-52.9536 4.40315,-62.6434 7.33583,-9.68623 13.1976,-10.3287 19.0713,-10.976 5.88071,-0.641339 51.9355,-0.394488 58.3855,2.69173z"/>
   </g>
   <path id="_357673816" class="fil0" d="M1027.48 712.798c-63.6745,-51.5634 -18.2386,-339.069 -20.615,-340.701 -8.22284,-5.64922 -46.2437,-26.3374 -55.0441,-31.9512 -56.8028,71.2158 -63.3579,409.967 29.7083,417.773 2.67284,2.52047 38.804,-33.1146 45.9508,-45.1205z"/>
   <path id="_357674368" class="fil3" d="M1283.35 1002.59c23.3114,29.837 14.6693,70.7705 15.5197,143.883 0.726379,62.4048 -64.2024,118.864 -64.0973,120.411 0.668504,9.95552 7.41497,46.9618 8.46851,57.3461 34.3382,-5.28544 112.63,-71.7792 122.086,-151.37 9.04135,-76.0997 6.06733,-173.804 -27.0532,-203.897 -2.03858,-3.0567 -45.2587,23.537 -54.9237,33.6272z"/>
   <path id="_357674080" class="fil0" d="M1055.75 309.294c2.62795,-4.07126 -0.550394,-17.0339 -13.6665,-17.8453 -10.102,-0.625985 -5.09764,2.62795 -12.1595,10.6925 1.59567,-4.93583 8.47678,-40.226 -13.6122,-34.8508 -10.3075,2.51103 -11.5217,4.61929 -15.7642,14.5843 -3.17953,-1.08307 2.92205,-24.0047 -13.2295,-25.7906 -15.7914,-1.74331 -22.9984,23.8028 -28.5945,41.4697 -5.14489,16.226 -8.95631,33.4902 -12.8327,48.5847 -4.26733,16.6524 37.0607,26.7957 48.28,37.291 21.1477,-18.4063 50.9292,-46.0559 61.5792,-74.1355z"/>
   <path id="_357673960" class="fil4" d="M1018.06 1227.33l-34.7221 103.382c0,0 -64.2851,18.378 -90.8009,6.35788 -26.5122,-12.0236 -41.1378,-36.2197 -41.1378,-36.2197 0,0 25.5425,-140.504 35.5347,-167.236 9.98505,-26.7295 44.5607,-98.0174 44.5607,-98.0174 0,0 14.5748,27.0544 54.1902,21.9284 12.6969,-1.64173 25.0217,-2.79331 36.1524,-3.60945l-3.77717 173.414z"/>
   <path id="_357673888" class="fil4" d="M1020.38 1230.27l41.3114 100.93c0,0 65.3363,14.1969 91.0217,0.49252 25.6831,-13.7067 38.7189,-38.7957 38.7189,-38.7957 0,0 -34.5437,-138.566 -46.2378,-164.597 -11.687,-26.0303 -50.7851,-94.9418 -50.7851,-94.9418 0,0 -12.8008,27.9366 -52.6642,25.3748 -12.776,-0.819686 -25.1504,-1.1752 -36.3107,-1.27323l14.9457 172.811z"/>
   <path id="_357674176" class="fil5" d="M1066.69 814.359c5.23111,-13.7469 10.3878,4.27205 6.47953,-23.5536 -3.91181,-27.8244 -55.1965,-94.6749 -55.1965,-94.6749 -3.18189,-2.03268 -69.1926,44.8618 -80.7237,50.067 0,0 6.17245,10.0122 17.4284,28.6323 25.0606,41.4461 44.7142,84.2091 87.5363,110.727 -2.46378,6.18426 -7.40197,-11.5536 0.090945,-24.8481 9.68859,-17.1945 21.4441,-38.5961 24.3851,-46.35z"/>
   <path id="_357673288" class="fil5" d="M1237.9 902.404c-5.4567,13.6583 -10.3158,-4.44331 -6.86575,23.4437 3.45473,27.8858 53.6315,95.569 53.6315,95.569 3.14882,2.08583 64.0796,-25.7008 75.6945,-30.7158 -0.288189,-49.1764 -57.1406,-133.6 -96.8162,-159.083 2.56536,-6.14292 7.21064,11.674 -0.499607,24.8433 -9.97087,17.0315 -22.076,38.2382 -25.1445,45.9426z"/>
   <path id="_357673720" class="fil6" d="M1212.73 799.651l0.00590552 0.00236221 0.0141732 0.00708662 0.022441 0.0141732 0.00236221 0.0011811 0.0307087 0.0153543 0.0425197 0.0236221 0.0531496 0.0259843 0.00708662 0.00354331 0.0531496 0.0295276 0.068504 0.0366142 0.0791339 0.0425197 0.0177165 0.0106299 0.0696851 0.0377953 0.0956694 0.0496063 0.105118 0.0578741 0.0295276 0.0141732 0.0826772 0.0472441 0.122835 0.0649607 0.129921 0.0708662 0.0448819 0.0248032 0.0933072 0.0496063 0.147638 0.0779528 0.153543 0.0838583 0.0649607 0.0354331 0.0980316 0.0531496 0.170079 0.0921261 0.177165 0.0968505 0.0874016 0.0484252 0.0992127 0.0519685 0.194882 0.106299 0.199606 0.109843 0.113386 0.0614174 0.0968505 0.0507874 0.21378 0.119291 0.223229 0.121654 0.13937 0.0767717 0.0921261 0.0484252 0.237402 0.129921 0.244488 0.134646 0.166536 0.0933072 0.0826772 0.0437008 0.259843 0.141732 0.263386 0.145276 0.201969 0.111024 0.068504 0.0389764 0.27874 0.153543 0.285827 0.157087 0.23504 0.129921 0.0555119 0.0295276 0.295276 0.165354 0.303544 0.167717 0.272835 0.151181 0.0366142 0.0200788 0.315355 0.174803 0.320079 0.179528 0.31063 0.17126 0.0153543 0.0106299 0.333071 0.185433 0.337796 0.187795 0.343701 0.190158 0.00472441 0.00472441 0.343701 0.191339 0.355512 0.199606 0.357874 0.201969 0.0295276 0.0177165 0.335433 0.186614 0.368504 0.207874 0.376772 0.211417 0.056693 0.0330709 0.320079 0.18189 0.386221 0.216142 0.387402 0.220866 0.0874016 0.0496063 0.307087 0.172441 0.398032 0.227953 0.402756 0.226772 0.116929 0.068504 0.290551 0.164173 0.409843 0.23504 0.414567 0.236221 0.148819 0.0862205 0.270473 0.153543 0.421654 0.244488 0.42874 0.244488c18.9225,10.8756 48.8363,29.2618 54.3662,39.7571 8.20394,15.5681 -11.2299,30.2847 -21.3473,59.5394 -10.115,29.2311 -106.349,296.295 -118.207,283.475 -51.5233,-14.8417 -195.62,-34.1528 -241.244,-112.264 -1.29685,-1.89449 131.72,-283.953 174.052,-317.165l0.330709 -0.259843 0.328347 -0.253937 0.0437008 -0.034252 0.283465 -0.218504 0.323622 -0.246851 0.0850394 -0.0649607 0.5563 -0.416929 0.127559 -0.0956694 0.191339 -0.140551 0.317717 -0.232677 0.165354 -0.121654 0.146457 -0.106299 0.315355 -0.222047 0.206693 -0.148819 0.103937 -0.0720473 0.558662 -0.38504 0.0602363 -0.0425197 0.308268 -0.207874 0.0649607 -0.0425197 0.388583 -0.257481 0.465355 -0.298819 0.0188977 -0.011811c0.401575,-0.253937 0.798426,-0.496063 1.19528,-0.728741l0.100394 -0.0578741c0.625985,-0.36378 1.25433,-0.701575 1.8815,-1.01102l0.0543308 -0.0271654 0.080315 -0.0389764 0.305906 -0.145276 0.261024 -0.121654 0.0425197 -0.0188977 0.609449 -0.26811 0.616536 -0.250394 0.0389764 -0.0141732 0.578741 -0.217323 0.080315 -0.0307087 0.231496 -0.0791339c0.311811,-0.10748 0.627166,-0.209055 0.94252,-0.303544l0.166536 -0.0484252 0.151181 -0.0425197 0.475985 -0.127559 0.0555119 -0.0153543 0.108662 -0.0271654 0.324803 -0.0791339 0.257481 -0.0590552 0.068504 -0.0129921 0.0177165 -0.00472441c0.425197,-0.0921261 0.8563,-0.17126 1.29449,-0.240945l0.0141732 -0.0011811 0.0200788 -0.00354331 0.0437008 -0.00590552 0.615355 -0.0874016 0.0661418 -0.00826772 0.0165354 -0.00236221 0.607087 -0.0661418 0.115748 -0.0106299 0.0366142 -0.0011811 0.552756 -0.0437008 0.162992 -0.011811 0.19252 -0.0106299 0.361418 -0.0165354 0.21378 -0.00826772 0.15 -0.00472441 0.623623 -0.00826772 0.011811 0 0.102756 -0.0011811 0.614174 0.0106299 0.0862205 0 0.0543308 0.0011811 0.382677 0.0129921 0.383859 0.0153543 0.00354331 0.00236221c9.4193,0.484252 22.6217,5.31969 46.415,15.6732l2.86654 1.24843 0.0200788 0.00826772 0.577559 0.252756 0.125197 0.0543308 0.690945 0.301181 0.0637796 0.0283465 1.66299 0.724016 0.0838583 0.0366142 0.818505 0.356693 0.172441 0.0779528 0.774804 0.336614 0.26811 0.116929 0.724016 0.315355 0.370866 0.164173 0.660237 0.285827 0.48189 0.210236 0.588189 0.256299 0.597638 0.262205 0.510237 0.222047 0.719292 0.312992 0.424016 0.186614 0.843308 0.368504 0.33189 0.144095 0.97441 0.426378 0.230315 0.0992127 1.11142 0.485433 0.122835 0.0531496 1.24843 0.544489 0.0129921 0.00708662 1.28504 0.558662 0.102756 0.0472441 1.20591 0.523229 0.220866 0.0980316 1.10669 0.483071 0.344882 0.151181 1.00158 0.437008 0.470079 0.205512 0.892914 0.389764 0.597638 0.262205 0.779528 0.338977 0.728741 0.317717 0.661418 0.28937 0.857481 0.373229 0.542126 0.236221 0.987402 0.432284 0.419292 0.180709 1.1185 0.490158 0.292914 0.12874 1.24961 0.54567 0.167717 0.0732284 1.37717 0.6 0.0425197 0.0200788 1.41732 0.618898 0.0850394 0.0354331 1.3311 0.582284 0.211417 0.0921261 1.20118 0.52441 0.334252 0.145276 1.07126 0.466536 0.459449 0.200788 0.936615 0.409843 0.579922 0.252756 0.806694 0.35315 0.696851 0.303544 0.677953 0.295276 0.810237 0.355512 0.549213 0.239764 0.920079 0.400394 0.421654 0.184252 1.0252 0.448819 0.298819 0.129921 1.12559 0.490158 0.177165 0.0779528 1.21772 0.531496 0.0637796 0.0271654 1.25433 0.549213 0.0484252 0.0212599 1.17992 0.51378 0.155906 0.068504 1.04173 0.455906 0.257481 0.113386 0.910631 0.39567 0.35315 0.154725 0.780709 0.340158 0.440552 0.193701 0.659056 0.288189 0.519685 0.226772 0.542126 0.23504 0.594095 0.259843 0.429922 0.186614 0.655512 0.287008 0.324803 0.141732 0.708662 0.31063 0.229134 0.0992127 0.754725 0.329528 0.138189 0.0602363 0.786615 0.34252 0.056693 0.0259843 0.793701 0.347244 0.0165354 0.00590552 0.72756 0.317717 0.0791339 0.034252 0.61063 0.266929 0.129921 0.0578741 0.50315 0.218504 0.17126 0.0755906 0.403937 0.177165 0.200788 0.0874016 0.314173 0.137008 0.219685 0.0944883 0.233858 0.103937 0.22441 0.0968505 0.165354 0.0720473 0.216142 0.0944883 0.106299 0.0472441 0.194882 0.0838583 0.0614174 0.0283465 0.157087 0.0673229 0.0283465 0.011811 0.103937 0.046063 0.00708662 0.00354331 0.0377953 0.0165354z"/>
   <g>
    <path id="_357673672" class="fil7" d="M1152.84 631.893c0.895276,-8.28308 -21.7914,-29.5701 -30.9071,9.3945 -1.05709,4.52953 -0.276378,21.5315 11.9445,27.8717 12.6803,6.57756 16.9016,-23.2158 18.9626,-37.2662z"/>
    <path id="_357673264" class="fil8" d="M1272.41 488.074c58.6819,64.4138 87.2906,67.2686 90.6142,99.9013 3.46772,34.0441 -44.2158,87.0804 -78.7725,130.38 -19.6914,24.6732 -21.9874,47.6044 -41.0953,58.5 -9.39922,10.8319 -72.0957,-19.7351 -95.8985,-51.5835 -16.0193,-21.4358 -10.8898,-26.3551 -9.68505,-56.9185 1.67008,-42.3933 -5.74371,-65.9327 16.1469,-119.078 5.67166,-13.7693 17.2169,-39.8717 31.0465,-36.2634 14.1449,-51.7571 77.7142,-45.5575 87.6438,-24.9378z"/>
    <path id="_357673600" class="fil0" d="M1326.43 606.675c-2.45551,22.3819 -33.3626,80.5028 -63.0567,125.594 -4.513,6.85158 -13.0453,15.3532 -20.8004,23.3811 -7.01575,7.2626 -13.3973,14.1366 -15.5917,19.0536 -7.00276,15.6827 -8.86536,20.2689 -0.744095,32.1662 -1.50236,3.18071 -13.8614,-0.0838583 -19.7681,0.579922 -9.63072,1.08071 -30.0177,17.7626 -41.824,13.8732 -9.45591,-3.11457 -1.8815,-23.2677 -5.92323,-28.3429 -23.3055,-29.2736 -43.9347,-65.8205 -37.9075,-105.021 -1.99134,-22.2248 58.9382,-150.816 79.0595,-159.311 17.5512,-15.0626 31.6181,25.1799 56.4969,30.3768 62.4969,14.6445 71.8123,36.3036 70.0595,47.6504z"/>
    <path id="_357673096" class="fil7" d="M1251.91 745.96l-0.140551 0.148819 -0.0401575 0.0437008 -0.102756 0.10748 -0.142913 0.151181 -0.113386 0.119291 -0.0295276 0.0318898 -0.142913 0.151181 -0.144095 0.151181 -0.0425197 0.0448819 -0.100394 0.106299 -0.144095 0.151181 -0.11811 0.122835 -0.0271654 0.0295276 -0.144095 0.151181 -0.144095 0.151181 -0.0472441 0.0472441 -0.0968505 0.103937 -0.146457 0.151181 -0.290551 0.303544 -0.145276 0.151181 -0.0484252 0.0507874 -0.0968505 0.101575 -0.145276 0.152362 -0.146457 0.151181 -0.146457 0.152362 -0.146457 0.151181 -0.0507874 0.0531496 -0.0956694 0.0992127 -0.146457 0.152362 -0.126378 0.129921 -0.0200788 0.0212599 -0.146457 0.152362 -0.147638 0.152362 -0.0531496 0.0555119 -0.0921261 0.0956694 -0.147638 0.152362 -0.12874 0.133465 -0.0188977 0.0177165 -0.146457 0.153543 -0.146457 0.151181 -0.0578741 0.0578741 -0.0897638 0.0944883 -0.147638 0.151181 -0.131102 0.135827 -0.0165354 0.0165354 -0.146457 0.151181 -0.147638 0.152362 -0.0590552 0.0614174 -0.0874016 0.0897638 -0.147638 0.152362 -0.134646 0.13937 -0.0129921 0.011811 -0.147638 0.152362 -0.146457 0.151181 -0.0625985 0.0637796 -0.0850394 0.0885827 -0.147638 0.151181 -0.137008 0.141732 -0.00944883 0.00944883 -0.147638 0.152362 -0.147638 0.151181 -0.0637796 0.0673229 -0.0814961 0.0850394 -0.147638 0.151181 -0.138189 0.142913 -0.00826772 0.00826772 -0.147638 0.151181 -0.146457 0.151181 -0.0673229 0.068504 -0.0791339 0.0814961 -0.146457 0.152362 -0.141732 0.145276 -0.00472441 0.00590552 -0.146457 0.15 -0.146457 0.152362 -0.068504 0.0708662 -0.0779528 0.0791339 -0.145276 0.15 -0.142913 0.148819 -0.00236221 0.00236221 -0.146457 0.15 -0.145276 0.151181 -0.0708662 0.0732284 -0.0744095 0.0755906 -0.145276 0.151181 -0.145276 0.15c-7.01457,7.26142 -13.3949,14.1366 -15.5906,19.0536l-0.0200788 0.0437008 -0.0188977 0.0437008 -0.0200788 0.0437008 -0.0188977 0.0425197 -0.0200788 0.0437008 -0.0188977 0.0437008 -0.0188977 0.0425197 -0.0188977 0.0448819 -0.0200788 0.0413386 -0.0200788 0.0448819 -0.0188977 0.0425197 -0.0188977 0.0425197 -0.0188977 0.0437008 -0.0200788 0.0425197 -0.0188977 0.0425197 -0.0188977 0.0425197 -0.0153543 0.0354331 -0.00354331 0.00826772 -0.0188977 0.0425197 -0.0188977 0.0425197 -0.0188977 0.0425197 -0.0188977 0.0425197 -0.0188977 0.0425197 -0.0188977 0.0437008 -0.0188977 0.0413386 -0.0188977 0.0425197 -0.0188977 0.0425197 -0.0188977 0.0413386 -0.0188977 0.0437008 -0.0188977 0.0401575 -0.0188977 0.0437008 -0.0188977 0.0413386 -0.0177165 0.0413386 -0.0188977 0.0437008 -0.011811 0.0259843 -0.00708662 0.0153543 -0.0188977 0.0413386 -0.0177165 0.0413386 -0.0188977 0.0425197 -0.0177165 0.0413386 -0.0200788 0.0413386 -0.0177165 0.0413386 -0.0188977 0.0413386 -0.0177165 0.0425197 -0.0177165 0.0401575 -0.0200788 0.0413386 -0.0177165 0.0413386 -0.0177165 0.0413386 -0.0188977 0.0413386 -0.0188977 0.0413386 -0.0177165 0.0401575 -0.0177165 0.0413386 -0.00826772 0.0188977 -0.0106299 0.022441 -0.0177165 0.0413386 -0.0188977 0.0401575 -0.0177165 0.0413386 -0.0177165 0.0401575 -0.0177165 0.0413386 -0.0177165 0.0401575 -0.0188977 0.0401575 -0.0177165 0.0413386 -0.0177165 0.0401575 -0.0177165 0.0413386 -0.0188977 0.0389764 -0.0177165 0.0401575 -0.0177165 0.0401575 -0.056693 0.131102 -0.220866 0.499607 -0.0732284 0.166536 -0.196063 0.45 -0.0885827 0.201969c-4.12559,9.46418 -6.49134,15.202 -1.10787,24.574l0.170079 0.291733 0.0366142 0.0614174 0.252756 0.420473 0.0129921 0.022441 0.0921261 0.152362 0.223229 0.361418 0.00236221 0.00354331 0.238583 0.376772 0.0897638 0.144095 0.0602363 0.0933072 0.283465 0.438189 0.0413386 0.0637796 0.317717 0.478347 0.022441 0.0330709 0.350788 0.518504 -0.00590552 0.0129921 -0.00708662 0.0141732 -0.0200788 0.034252 -0.0578741 0.101575 -0.034252 0.0496063 -0.056693 0.0779528 -0.0602363 0.0696851 -0.0472441 0.0543308 -0.0637796 0.0602363 -0.0673229 0.0614174 -0.00708662 0.00708662 -0.114567 0.0897638 -0.0248032 0.0177165 -0.0484252 0.0307087 -0.101575 0.0661418 -0.0259843 0.0141732 -0.138189 0.0755906 -0.00708662 0.00354331 -0.15 0.0696851 -0.0295276 0.0141732 -0.161811 0.0649607 -0.0307087 0.0106299 -0.172441 0.0578741 -0.0330709 0.0106299 -0.183071 0.0531496 -0.0330709 0.00826772 -0.194882 0.0472441 -0.223229 0.0472441 -0.0141732 0.00354331 -0.034252 0.00708662 -0.21378 0.0354331 -0.0366142 0.00590552 -0.223229 0.0318898 -0.0366142 0.00472441 -0.232677 0.0271654 -0.0366142 0.00236221 -0.243307 0.022441 -0.287008 0.0200788 -0.0377953 0.00236221 -0.259843 0.0129921 -0.0377953 0.0011811 -0.266929 0.00826772 -0.0389764 0.0011811 -0.274016 0.00472441 -0.0389764 0 -0.281103 0.0011811 -0.0389764 0 -0.28937 -0.00354331 -0.0389764 0 -0.296457 -0.00708662 -0.0366142 -0.0011811 -0.304725 -0.00944883 -0.0377953 -0.0011811 -0.309449 -0.0141732 -0.0366142 0 -0.315355 -0.0177165 -0.0366142 -0.0011811 -0.322441 -0.0188977 -0.0366142 -0.00236221 -0.324803 -0.0212599 -0.0366142 -0.00236221 -0.330709 -0.0236221 -0.0354331 -0.00236221 -0.336614 -0.0271654 -0.0330709 -0.0011811 -0.341339 -0.0283465 -0.034252 -0.00236221 -0.343701 -0.0295276 -0.0330709 -0.00354331 -0.348425 -0.0307087 -0.0318898 -0.00354331 -0.350788 -0.0318898 -0.0318898 -0.00354331 -0.35315 -0.0318898 -0.0307087 -0.00354331 -0.356693 -0.034252 -0.0295276 -0.00354331 -0.357874 -0.0354331 -0.0295276 -0.00236221 -0.360236 -0.0366142 -0.0271654 -0.00236221 -0.362599 -0.0354331 -0.0259843 -0.00354331 -0.36378 -0.034252 -0.0248032 -0.00354331 -0.36378 -0.0354331 -0.0248032 -0.00236221 -0.36378 -0.0366142 -0.0236221 0 -0.36378 -0.0366142 -0.022441 -0.0011811 -0.362599 -0.034252 -0.0212599 -0.00236221 -0.36378 -0.0318898 -0.0188977 -0.00236221 -0.362599 -0.0318898 -0.0177165 -0.0011811 -0.361418 -0.0295276 -0.0165354 -0.0011811 -0.359055 -0.0295276 -0.0153543 0 -0.356693 -0.0259843 -0.0141732 -0.0011811 -0.35315 -0.0236221 -0.0153543 -0.0011811 -0.349607 -0.0212599 -0.0129921 -0.0011811 -0.346063 -0.0188977 -0.011811 0 -0.34252 -0.0153543 -0.0106299 -0.0011811 -0.337796 -0.011811 -0.00944883 -0.0011811 -0.333071 -0.00826772 -0.00826772 0 -0.329528 -0.00590552 -0.00708662 0 -0.322441 0 -0.00590552 -0.0011811 -0.316536 0.00354331 -0.00472441 0 -0.311811 0.00708662 -0.00236221 0 -0.303544 0.0129921 -0.00354331 0 -0.296457 0.0165354 -0.0011811 0 -0.28937 0.022441 -0.0011811 0.0011811 -0.281103 0.0271654c-9.62953,1.08189 -40.0016,23.4473 -51.8079,19.5579 -1.11496,-0.367323 -2.16614,-1.20236 -3.16181,-2.38937 -4.09252,-6.34607 6.97796,-29.1 -5.23583,-48.528 -7.74804,-12.3272 -15.9402,-27.567 -19.4079,-36.7831l-0.046063 -0.124016 -0.00826772 -0.022441 -0.557481 -1.5437 -0.0980316 -0.279921c-0.162992,-0.464174 -0.324803,-0.928347 -0.480709,-1.39252l-0.046063 -0.134646 -0.0637796 -0.190158 -0.486615 -1.47756 -0.0011811 -0.00590552 -0.00826772 -0.0248032 -0.0177165 -0.0531496c-0.172441,-0.538583 -0.34252,-1.07835 -0.507874,-1.61811l-0.0248032 -0.0826772 -0.127559 -0.432284c14.4083,35.5134 46.0052,39.2906 74.1473,34.0512 27.8858,-5.19213 52.376,-19.2343 53.3835,-20.015z"/>
    <path id="_357673408" class="fil9" d="M1283.46 696.812c6.48189,-6.36378 40.03,-1.33347 12.8421,32.7981 -3.15945,3.96614 -18.2386,14.7886 -31.924,8.61261 -14.1969,-6.4063 8.44961,-30.1512 19.0819,-41.4107z"/>
    <path id="_357673000" class="fil8" d="M1301.16 696.786l11.7945 -50.217c-5.50748,10.1646 -45.7985,68.6918 -55.5059,70.9418 12.5469,11.2016 35.5051,-27.1347 43.7115,-20.7248z"/>
   </g>
   <path id="_357672616" class="fil10" d="M1152.38 1282.46c-4.54961,1.67126 -9.80788,13.9394 0.18189,22.4764 7.69371,6.57756 5.65394,0.968505 16.1457,-1.22599 -4.2437,2.98229 -30.9685,27.0343 -10.089,36.0284 9.7441,4.19292 11.9823,3.24095 21.365,-2.16851 1.88977,2.77795 -16.7728,17.4189 -4.9441,28.5614 11.5665,10.891 32.6906,-5.1815 47.7874,-15.9284 13.8709,-9.86812 27.3,-21.3662 39.476,-31.0925 13.4268,-10.7362 -13.487,-43.6996 -16.1362,-58.8319 -27.9662,1.98307 -68.3894,6.15709 -93.7867,22.1811z"/>
  </g>
  <rect class="fil11" width="2048" height="2048"/>
 </g>
</svg>
