<?xml version="1.0" encoding="UTF-8"?>
<!DOCTYPE svg PUBLIC "-//W3C//DTD SVG 1.1//EN" "http://www.w3.org/Graphics/SVG/1.1/DTD/svg11.dtd">
<!-- Creator: CorelDRAW -->
<svg xmlns="http://www.w3.org/2000/svg" xml:space="preserve" width="2048px" height="2048px" style="shape-rendering:geometricPrecision; text-rendering:geometricPrecision; image-rendering:optimizeQuality; fill-rule:evenodd; clip-rule:evenodd"
viewBox="0 0 2048 2048"
 xmlns:xlink="http://www.w3.org/1999/xlink">
 <defs>
  <style type="text/css">
   <![CDATA[
    .fil9 {fill:none}
    .fil2 {fill:#01579B}
    .fil1 {fill:#1F1F1F}
    .fil6 {fill:#212121}
    .fil5 {fill:#B19A75}
    .fil7 {fill:#E2CDAA}
    .fil3 {fill:#E88103}
    .fil4 {fill:#FB8C00}
    .fil0 {fill:#FFD3AE}
    .fil8 {fill:#616161;fill-rule:nonzero}
   ]]>
  </style>
 </defs>
 <g id="Layer_x0020_1">
  <metadata id="CorelCorpID_0Corel-Layer"/>
  <g id="_357678688">
   <path id="_357679240" class="fil0" d="M939.483 1325.43c6.64843,23.85 -37.2355,79.4304 -46.8744,97.3926 -14.3941,26.8276 -31.4528,47.4532 -45.4063,69.3213 -7.53544,11.8087 -17.6929,39.3142 -24.5705,72.619 -3.32244,4.66536 -38.9422,-3.59528 -53.5229,-8.92796 0.512599,-11.5536 -14.3386,-46.4044 -2.0752,-91.2296 24.9662,-91.2544 89.3138,-214.627 91.8237,-213.736l1.53189 0.543308c31.0382,11.0173 77.7839,69.3355 79.0938,74.0174z"/>
   <path id="_357679000" class="fil1" d="M603.041 1774.87c1.60158,-3.12047 -2.01614,-7.77166 26.152,-12.9685 28.1693,-5.19449 54.5351,-12.7252 67.5768,-25.7268 13.037,-13.0063 27.4736,-34.5744 30.6673,-40.8189 3.20551,-6.24213 16.0961,-2.33504 16.0961,-2.33504 0,0 3.87284,7.29213 6.27284,19.4433 2.3941,12.1547 9.0756,18.1512 21.6284,14.8819 12.5575,-3.2752 16.9736,-17.0138 16.9736,-17.0138 0,0 10.7764,0.920079 15.3709,19.7752 4.59567,18.8492 0.661418,56.5264 0.661418,56.5264 -21.1028,0.650788 -216.358,17.3728 -201.399,-11.7638z"/>
   <path id="_357678736" class="fil0" d="M837.082 1484.21c6.11339,2.92796 12.163,21.7854 9.90355,35.7083 -2.25945,13.9252 -20.0729,99.6875 -28.7634,119.58 -5.66811,12.9662 -19.2461,53.7426 -26.4414,71.4638 -3.83622,9.46772 -3.34725,11.5087 -11.6173,16.7032 -8.25709,5.19213 -20.8122,3.34488 -33.4016,0.0980316 -12.5917,-3.24449 -13.4976,-8.80867 -11.9516,-22.3996 1.74685,-15.3319 10.3264,-55.6193 13.1799,-93.3816 2.85355,-37.767 8.7189,-110.737 15.678,-119.92 6.95315,-9.18072 12.5079,-9.79017 18.0756,-10.4043 5.57363,-0.607087 49.2248,-0.373229 55.3382,2.55236z"/>
  </g>
  <g id="_357679072">
   <path id="_357679096" class="fil0" d="M1020.26 1325.43c-6.64725,23.85 37.2355,79.4304 46.8756,97.3926 14.3941,26.8276 31.4528,47.4532 45.4063,69.3213 7.53426,11.8087 17.6917,39.3142 24.5705,72.619 3.32244,4.66536 38.9422,-3.59528 53.5229,-8.92796 -0.512599,-11.5536 14.3374,-46.4044 2.0752,-91.2296 -24.9662,-91.2544 -89.3138,-214.627 -91.8237,-213.736l-1.53189 0.543308c-31.0382,11.0173 -77.7839,69.3355 -79.0949,74.0174z"/>
   <path id="_357678880" class="fil1" d="M1356.7 1774.87c-1.60158,-3.12047 2.01614,-7.77166 -26.1532,-12.9685 -28.1681,-5.19449 -54.5351,-12.7252 -67.5768,-25.7268 -13.0358,-13.0063 -27.4736,-34.5744 -30.6673,-40.8189 -3.20551,-6.24213 -16.0961,-2.33504 -16.0961,-2.33504 0,0 -3.87166,7.29213 -6.27166,19.4433 -2.3941,12.1547 -9.0756,18.1512 -21.6284,14.8819 -12.5587,-3.2752 -16.9748,-17.0138 -16.9748,-17.0138 0,0 -10.7764,0.920079 -15.3697,19.7752 -4.59685,18.8492 -0.661418,56.5264 -0.661418,56.5264 21.1016,0.650788 216.357,17.3728 201.399,-11.7638z"/>
   <path id="_357678592" class="fil0" d="M1122.66 1484.21c-6.11221,2.92796 -12.163,21.7854 -9.90355,35.7083 2.26063,13.9252 20.0729,99.6875 28.7646,119.58 5.66693,12.9662 19.2461,53.7426 26.4414,71.4638 3.83504,9.46772 3.34725,11.5087 11.6162,16.7032 8.25827,5.19213 20.8134,3.34488 33.4028,0.0980316 12.5917,-3.24449 13.4965,-8.80867 11.9504,-22.3996 -1.74567,-15.3319 -10.3264,-55.6193 -13.1788,-93.3816 -2.85355,-37.767 -8.7189,-110.737 -15.678,-119.92 -6.95315,-9.18072 -12.5091,-9.79017 -18.0768,-10.4043 -5.57245,-0.607087 -49.2237,-0.373229 -55.3382,2.55236z"/>
  </g>
  <path class="fil0" d="M785.532 812.714c-77.5914,3.20433 -225.358,-229.767 -228.07,-229.44 -9.38859,1.1315 -49.3926,10.2319 -59.1685,11.7508 1.37599,70.1079 205.391,295.174 282.814,278.568 3.48071,0.11811 6.86103,-47.8618 4.42441,-60.8788z"/>
  <path class="fil0" d="M1120.56 820.795c77.615,-2.61378 207.52,-245.997 210.249,-245.875 9.44646,0.426378 50.0197,6.50552 59.8819,7.28741 3.87756,70.0146 -182.711,309.727 -261.16,298.964 -3.46181,0.377953 -10.4256,-47.2134 -8.97166,-60.3768z"/>
  <path class="fil0" d="M552.899 507.978c-0.680315,-4.54252 -11.061,-11.7732 -20.8984,-4.13386 -7.57914,5.88189 -1.98071,5.06221 -1.95236,15.2221 -1.95709,-4.51063 -19.1669,-33.9236 -31.513,-16.2638 -5.75788,8.24174 -5.30315,10.5024 -2.07756,20.2477 -2.94095,1.22126 -12.9579,-18.9059 -25.5662,-10.0595 -12.3248,8.65158 -1.44921,31.3382 5.63622,47.4107 6.50315,14.7638 14.6055,29.4319 21.3036,42.5977 7.39489,14.5193 43.1469,-4.15276 57.7016,-3.71457 3.5126,-26.3398 7.37835,-64.663 -2.63386,-91.3064z"/>
  <path class="fil0" d="M1329.72 499.496c0.337796,-4.5815 10.148,-12.5693 20.5311,-5.68819 7.99725,5.29843 2.35394,4.9004 3.08622,15.0331 1.61339,-4.6441 16.5721,-35.263 30.2067,-18.5776 6.35906,7.78701 6.07441,10.076 3.58819,20.0351 3.02362,0.998032 11.5051,-19.8225 24.7406,-11.9445 12.9378,7.70316 3.79252,31.141 -2.07047,47.6989 -5.37993,15.2091 -12.3602,30.4429 -18.0532,44.0729 -6.28819,15.0319 -43.337,-0.910631 -57.8174,0.616536 -5.47678,-26.002 -12.2008,-63.9284 -4.21181,-91.2461z"/>
  <path class="fil2" d="M980.661 1256.8l-32.9103 97.9867c0,0 -60.9296,17.4189 -86.0611,6.02599 -25.1292,-11.3965 -38.9906,-34.3299 -38.9906,-34.3299 0,0 24.2091,-133.171 33.6792,-158.506 9.46418,-25.3347 42.2363,-92.902 42.2363,-92.902 0,0 13.8142,25.6418 51.3615,20.7839 12.0331,-1.55551 23.7154,-2.64803 34.2662,-3.42166l-3.58111 164.364z"/>
  <path class="fil2" d="M982.865 1259.59l39.1548 95.6623c0,0 61.9264,13.4563 86.2713,0.466536 24.3414,-12.991 36.6969,-36.7701 36.6969,-36.7701 0,0 -32.7402,-131.334 -43.8237,-156.007 -11.0776,-24.6721 -48.1347,-89.9871 -48.1347,-89.9871 0,0 -12.1323,26.4792 -49.9146,24.0508 -12.1099,-0.777166 -23.8382,-1.11378 -34.4162,-1.20591l14.1662 163.791z"/>
  <path class="fil3" d="M877.041 860.394c-4.88859,-13.0547 10.0654,-3.46654 -10.1445,-20.8134 -20.211,-17.3421 -98.5642,-32.7709 -98.5642,-32.7709 -3.5374,0.546851 -21.1181,75.2516 -26.061,86.1768 0,0 10.6618,3.2563 30.3319,9.45119 43.787,13.7835 84.5528,31.8922 131.625,23.9327 2.12008,5.94331 -12.5032,-3.58229 -15.5008,-17.7307 -3.87756,-18.3 -8.92087,-40.8886 -11.6858,-48.2457z"/>
  <path class="fil3" d="M1032.88 875.194c3.89764,-13.3843 -10.2969,-2.70473 8.55709,-21.515 18.8563,-18.8067 95.8335,-40.0607 95.8335,-40.0607 3.56811,0.281103 26.6953,73.4599 32.4414,83.9847 0,0 -10.3878,4.04528 -29.5382,11.6953 -42.6331,17.0244 -81.9284,38.1343 -129.463,33.7229 -1.67008,6.08504 12.1984,-4.50945 14.1284,-18.8433 2.49685,-18.5386 5.83465,-41.4402 8.04095,-48.9839z"/>
  <path class="fil4" d="M993.392 801.787l0.00590552 0 0.0153543 0 0.0248032 0.00236221 0.0011811 0 0.0330709 0 0.046063 0.0011811 0.056693 0 0.00708662 0 0.0578741 0.00236221 0.0732284 0.00236221 0.0850394 0.0011811 0.0200788 0.00236221 0.0744095 0.0011811 0.102756 0.00236221 0.113386 0.00354331 0.0307087 0 0.090945 0.00472441 0.131102 0.00354331 0.140551 0.00354331 0.0484252 0.00236221 0.100394 0.0011811 0.158268 0.00472441 0.166536 0.00590552 0.068504 0.0011811 0.106299 0.00354331 0.183071 0.00590552 0.191339 0.00590552 0.0944883 0.00472441 0.106299 0.0011811 0.210236 0.00826772 0.216142 0.00708662 0.121654 0.00472441 0.103937 0.0011811 0.231496 0.00944883 0.240945 0.00826772 0.15 0.00590552 0.0992127 0.0011811 0.256299 0.0106299 0.264567 0.00944883 0.180709 0.00708662 0.0885827 0.00236221 0.279921 0.00944883 0.285827 0.011811 0.217323 0.00708662 0.0755906 0.00472441 0.301181 0.0106299 0.308268 0.011811 0.255118 0.00944883 0.0590552 0.00236221 0.32126 0.0129921 0.327166 0.0141732 0.295276 0.011811 0.0401575 0.0011811 0.34252 0.0141732 0.347244 0.0153543 0.335433 0.0129921 0.0165354 0.00236221 0.361418 0.0153543 0.366142 0.0153543 0.372048 0.0153543 0.00590552 0.00236221 0.372048 0.0153543 0.386221 0.0177165 0.389764 0.0188977 0.0330709 0.0011811 0.362599 0.0165354 0.401575 0.0188977 0.408662 0.0188977 0.0614174 0.00354331 0.349607 0.0177165 0.418111 0.0188977 0.422835 0.0212599 0.0944883 0.00590552 0.333071 0.0153543 0.434646 0.0236221 0.438189 0.0212599 0.126378 0.00826772 0.316536 0.0153543 0.447638 0.0248032 0.451181 0.022441 0.162992 0.0106299 0.294095 0.0153543 0.461811 0.0271654 0.466536 0.0248032c20.654,1.15866 53.8122,4.00276 62.9611,10.5378 13.5732,9.69331 3.37677,30.4264 7.25552,59.5087 3.87166,29.061 36.0071,296.192 20.5099,290.38 -49.9524,9.35434 -180.208,54.313 -252.085,7.57323 -1.90394,-1.05354 -9.26812,-296.536 12.4512,-342.676l0.170079 -0.360236 0.170079 -0.355512 0.022441 -0.0484252 0.146457 -0.304725 0.170079 -0.347244 0.0448819 -0.090945 0.292914 -0.589371 0.0673229 -0.135827 0.102756 -0.200788 0.168898 -0.330709 0.0885827 -0.173622 0.0791339 -0.153543 0.172441 -0.32126 0.111024 -0.214961 0.0578741 -0.105118 0.309449 -0.563386 0.0330709 -0.0625985 0.173622 -0.305906 0.0366142 -0.0637796 0.219685 -0.383859 0.265748 -0.451181 0.011811 -0.0177165c0.231496,-0.386221 0.465355,-0.760631 0.701575,-1.12677l0.0602363 -0.090945c0.376772,-0.574016 0.764174,-1.12795 1.16339,-1.65709l0.034252 -0.046063 0.0519685 -0.0673229 0.197244 -0.252756 0.170079 -0.21378 0.0271654 -0.0354331 0.402756 -0.485433 0.414567 -0.474804 0.0271654 -0.0283465 0.396851 -0.431103 0.056693 -0.0590552 0.161811 -0.166536c0.218504,-0.223229 0.441733,-0.442914 0.669686,-0.657875l0.119291 -0.111024 0.109843 -0.100394 0.349607 -0.31063 0.0401575 -0.0366142 0.0814961 -0.0696851 0.240945 -0.204331 0.19252 -0.16063 0.0519685 -0.0401575 0.0141732 -0.011811c0.320079,-0.258662 0.651969,-0.509056 0.993308,-0.753544l0.011811 -0.00826772 0.0153543 -0.011811 0.034252 -0.022441 0.484252 -0.336614 0.0519685 -0.034252 0.0129921 -0.00944883 0.486615 -0.314173 0.0921261 -0.0578741 0.0318898 -0.0177165 0.448819 -0.271654 0.133465 -0.0791339 0.158268 -0.090945 0.298819 -0.167717 0.177165 -0.0980316 0.125197 -0.068504 0.525591 -0.271654 0.00944883 -0.00590552 0.0862205 -0.0437008 0.52441 -0.252756 0.0732284 -0.0366142 0.0472441 -0.0212599 0.329528 -0.152362 0.33189 -0.151181 0.00354331 0c8.18268,-3.59764 21.4217,-5.1189 45.978,-6.47599l2.95984 -0.161811 0.0212599 -0.0011811 0.596457 -0.0307087 0.12874 -0.00826772 0.713386 -0.0389764 0.0661418 -0.00354331 1.71614 -0.0944883 0.0874016 -0.00354331 0.844489 -0.046063 0.179528 -0.00826772 0.798426 -0.0448819 0.277559 -0.0153543 0.747638 -0.0401575 0.383859 -0.0188977 0.680315 -0.0389764 0.497244 -0.0271654 0.608268 -0.0330709 0.617717 -0.0318898 0.525591 -0.0295276 0.742914 -0.0401575 0.438189 -0.0236221 0.871654 -0.046063 0.341339 -0.0188977 1.00748 -0.0543308 0.237402 -0.0129921 1.14803 -0.0625985 0.126378 -0.00708662 1.28858 -0.0696851 0.0141732 0 1.32638 -0.0732284 0.106299 -0.00354331 1.24488 -0.0696851 0.229134 -0.011811 1.14213 -0.0614174 0.356693 -0.0200788 1.03347 -0.0555119 0.486615 -0.0248032 0.922442 -0.0507874 0.616536 -0.0318898 0.804331 -0.0448819 0.752363 -0.0401575 0.683859 -0.0366142 0.884646 -0.0484252 0.559843 -0.0307087 1.02047 -0.0543308 0.432284 -0.0248032 1.15512 -0.0614174 0.302362 -0.0153543 1.29095 -0.0696851 0.173622 -0.00944883 1.42205 -0.0779528 0.0437008 -0.0011811 1.46457 -0.0791339 0.0862205 -0.00590552 1.37599 -0.0732284 0.218504 -0.011811 1.24016 -0.0673229 0.344882 -0.0200788 1.10551 -0.0590552 0.474804 -0.0248032 0.968505 -0.0531496 0.597638 -0.0318898 0.832678 -0.0448819 0.720473 -0.0389764 0.699213 -0.0377953 0.837402 -0.0448819 0.56693 -0.0307087 0.949607 -0.0519685 0.435827 -0.0236221 1.05945 -0.0555119 0.308268 -0.0177165 1.16102 -0.0637796 0.183071 -0.00944883 1.25787 -0.0673229 0.0661418 -0.00354331 1.29567 -0.0696851 0.0507874 -0.00236221 1.21654 -0.0673229 0.162992 -0.00708662 1.07599 -0.0578741 0.265748 -0.0141732 0.940158 -0.0519685 0.36378 -0.0188977 0.806694 -0.0448819 0.455906 -0.022441 0.680315 -0.0366142 0.536221 -0.0295276 0.559843 -0.0307087 0.612993 -0.0330709 0.444095 -0.0248032 0.676772 -0.0366142 0.335433 -0.0177165 0.733465 -0.0377953 0.23504 -0.0141732 0.779528 -0.0425197 0.142913 -0.00708662 0.811418 -0.0448819 0.0602363 -0.0011811 0.819686 -0.0448819 0.0153543 -0.00236221 0.752363 -0.0401575 0.0814961 -0.00354331 0.630709 -0.0354331 0.134646 -0.00590552 0.519685 -0.0283465 0.177165 -0.00944883 0.416929 -0.0212599 0.207874 -0.011811 0.323622 -0.0177165 0.226772 -0.0129921 0.242126 -0.011811 0.231496 -0.0129921 0.170079 -0.0106299 0.223229 -0.0106299 0.111024 -0.00590552 0.199606 -0.011811 0.0637796 -0.00236221 0.162992 -0.00944883 0.0283465 -0.0011811 0.10748 -0.00590552 0.00826772 0 0.0389764 -0.00236221z"/>
  <g id="_357676912">
   <path id="_357677368" class="fil5" d="M1055.21 688.482c2.76732,-7.39607 31.0382,-15.7713 22.1788,21.1075 -1.0311,4.28622 -8.92678,18.3532 -21.9756,18.5221 -13.5378,0.174803 -4.43504,-26.8536 -0.20315,-39.6296z"/>
   <path id="_357677248" class="fil6" d="M1015.14 515.8c-77.1071,29.5831 -102.553,19.8284 -119.251,46.0512 -17.4236,27.3579 0.393307,92.5642 11.2358,143.94 6.17835,29.276 -1.63465,49.6737 9.91182,67.0323 3.35197,13.1728 69.4571,13.963 103.168,-2.88189 22.6878,-11.3374 20.4366,-17.687 32.4225,-44.0847 16.6228,-36.6142 32.9185,-53.3953 36.9922,-107.72 1.05591,-14.074 2.38465,-41.0941 -10.8626,-43.9229 10.0429,-49.8532 -46.4327,-71.6516 -63.6166,-58.4138z"/>
   <path id="_357676960" class="fil0" d="M918.921 593.26c-7.44331,20.0008 -5.99882,82.376 -0.0366142,133.199 0.905906,7.72323 4.51536,18.554 7.66772,28.6536 2.85118,9.13583 5.33032,17.6728 5.09764,22.7705 -0.742914,16.2626 -1.11614,20.9386 -13.0571,27.5599 -0.080315,3.33307 11.7756,5.82638 16.4953,8.90198 7.69607,5.01378 17.8642,27.8162 29.5181,29.5465 9.33426,1.38543 11.4945,-18.9047 17.0776,-21.4843 32.1933,-14.876 65.217,-37.05 76.7918,-72.815 11.1437,-17.9752 14.2583,-152.808 0.831497,-168.565 -8.45552,-20.2252 -37.4929,7.87205 -60.7748,1.6878 -59.1615,-14.191 -76.2662,0.188977 -79.6111,10.5449z"/>
   <path id="_357677104" class="fil5" d="M922.765 742.932l0.0555119 0.186614 0.0153543 0.0531496 0.0413386 0.134646 0.056693 0.188977 0.046063 0.15 0.0106299 0.0389764 0.056693 0.188977 0.0578741 0.188977 0.0177165 0.056693 0.0389764 0.133465 0.0578741 0.188977 0.0484252 0.153543 0.00944883 0.0366142 0.0578741 0.188977 0.0578741 0.190158 0.0200788 0.0590552 0.0377953 0.129921 0.0590552 0.190158 0.116929 0.380315 0.0590552 0.191339 0.0200788 0.0637796 0.0377953 0.126378 0.0590552 0.191339 0.0590552 0.190158 0.0590552 0.191339 0.0602363 0.190158 0.0200788 0.0673229 0.0389764 0.122835 0.0590552 0.19252 0.0519685 0.162992 0.00826772 0.0271654 0.0590552 0.191339 0.0602363 0.191339 0.0212599 0.0708662 0.0377953 0.120473 0.0602363 0.191339 0.0519685 0.167717 0.00826772 0.022441 0.0590552 0.19252 0.0602363 0.190158 0.0236221 0.0744095 0.0354331 0.11811 0.0602363 0.190158 0.0543308 0.17126 0.00590552 0.0200788 0.0602363 0.191339 0.0602363 0.191339 0.0236221 0.0779528 0.0366142 0.113386 0.0602363 0.191339 0.0543308 0.174803 0.00590552 0.0165354 0.0602363 0.191339 0.0602363 0.190158 0.0248032 0.0814961 0.0354331 0.111024 0.0602363 0.190158 0.0555119 0.178347 0.00472441 0.0129921 0.0602363 0.191339 0.0602363 0.191339 0.0259843 0.0838583 0.0318898 0.106299 0.0602363 0.190158 0.056693 0.180709 0.00354331 0.0106299 0.0602363 0.190158 0.0602363 0.191339 0.0271654 0.0862205 0.0330709 0.102756 0.0590552 0.191339 0.0578741 0.183071 0.00236221 0.00708662 0.0602363 0.190158 0.0590552 0.190158 0.0283465 0.0897638 0.0318898 0.0992127 0.0590552 0.190158 0.0578741 0.186614 0.0011811 0.00236221 0.0602363 0.190158 0.0590552 0.188977 0.0283465 0.0921261 0.0307087 0.0968505 0.0590552 0.188977 0.0590552 0.188977c2.85,9.13583 5.32914,17.6728 5.09646,22.7705l-0.00236221 0.046063 -0.00236221 0.0448819 -0.0011811 0.046063 -0.00236221 0.0437008 -0.0011811 0.046063 -0.00236221 0.0448819 -0.00236221 0.0437008 -0.00236221 0.046063 -0.0011811 0.0437008 -0.00236221 0.046063 -0.00236221 0.0437008 -0.00236221 0.0448819 -0.00236221 0.0448819 -0.0011811 0.0448819 -0.00236221 0.0437008 -0.00236221 0.0448819 -0.0011811 0.0354331 -0.0011811 0.00826772 -0.00236221 0.0448819 0 0.0437008 -0.00236221 0.0448819 -0.00236221 0.0437008 -0.00236221 0.0437008 -0.00236221 0.0448819 -0.00236221 0.0425197 -0.0011811 0.0448819 -0.00236221 0.0437008 -0.00236221 0.0437008 -0.00236221 0.0437008 -0.0011811 0.0437008 -0.00236221 0.0437008 -0.00236221 0.0437008 -0.00236221 0.0425197 -0.0011811 0.0448819 -0.0011811 0.0271654 0 0.0153543 -0.00236221 0.0437008 -0.00236221 0.0425197 -0.00236221 0.0437008 -0.00236221 0.0437008 -0.0011811 0.0425197 -0.00236221 0.0437008 -0.00236221 0.0425197 -0.00236221 0.0437008 -0.00236221 0.0413386 -0.0011811 0.0437008 -0.00236221 0.0425197 -0.00236221 0.0425197 -0.0011811 0.0425197 -0.0011811 0.0437008 -0.00236221 0.0413386 -0.00236221 0.0425197 -0.0011811 0.0188977 -0.0011811 0.0236221 -0.00236221 0.0425197 -0.0011811 0.0413386 -0.00236221 0.0437008 -0.00236221 0.0425197 -0.00236221 0.0413386 -0.00236221 0.0425197 -0.0011811 0.0413386 -0.00236221 0.0425197 -0.00236221 0.0413386 -0.00236221 0.0425197 0 0.0401575 -0.00236221 0.0425197 -0.00236221 0.0425197 -0.00708662 0.134646 -0.0259843 0.516142 -0.00944883 0.172441 -0.0248032 0.465355 -0.011811 0.207874c-0.531496,9.77127 -0.969686,15.6378 -9.51733,21.2847l-0.26811 0.174803 -0.0578741 0.0354331 -0.392126 0.249213 -0.0212599 0.0129921 -0.142913 0.0897638 -0.34252 0.211417 -0.00354331 0.00236221 -0.361418 0.217323 -0.138189 0.0838583 -0.090945 0.0531496 -0.426378 0.250394 -0.0625985 0.0366142 -0.47126 0.270473 -0.0330709 0.0177165 -0.518504 0.290551 0 0.0129921 0 0.0153543 0.0011811 0.0377953 0.00590552 0.109843 0.00826772 0.056693 0.0141732 0.090945 0.022441 0.0838583 0.0165354 0.0661418 0.0283465 0.0779528 0.0307087 0.080315 0.00354331 0.00944883 0.0590552 0.125197 0.0141732 0.0259843 0.0271654 0.046063 0.0578741 0.0992127 0.0153543 0.0236221 0.0850394 0.122835 0.00472441 0.00472441 0.0980316 0.124016 0.0188977 0.0236221 0.108662 0.124016 0.0212599 0.022441 0.121654 0.122835 0.022441 0.022441 0.133465 0.122835 0.0248032 0.0212599 0.144095 0.122835 0.168898 0.135827 0.011811 0.00826772 0.0259843 0.0200788 0.165354 0.121654 0.0283465 0.0212599 0.175984 0.120473 0.0283465 0.0200788 0.186614 0.122835 0.0295276 0.0177165 0.196063 0.121654 0.23504 0.13937 0.0307087 0.0177165 0.214961 0.121654 0.0307087 0.0177165 0.223229 0.120473 0.0318898 0.0177165 0.230315 0.120473 0.0330709 0.0165354 0.237402 0.120473 0.0330709 0.0165354 0.246851 0.120473 0.0330709 0.0165354 0.253937 0.120473 0.0318898 0.0141732 0.262205 0.121654 0.0318898 0.0141732 0.26811 0.120473 0.0307087 0.0153543 0.275197 0.120473 0.0318898 0.0129921 0.279921 0.121654 0.0318898 0.0129921 0.284646 0.120473 0.0318898 0.0141732 0.290551 0.120473 0.0307087 0.0129921 0.296457 0.120473 0.0295276 0.0129921 0.301181 0.120473 0.0295276 0.0129921 0.303544 0.121654 0.0295276 0.0106299 0.308268 0.121654 0.0283465 0.011811 0.31063 0.121654 0.0283465 0.0106299 0.312992 0.122835 0.0271654 0.0106299 0.316536 0.122835 0.0259843 0.00944883 0.318898 0.122835 0.0259843 0.0106299 0.32126 0.121654 0.0236221 0.00944883 0.322441 0.124016 0.0236221 0.00826772 0.322441 0.125197 0.022441 0.00826772 0.323622 0.125197 0.0212599 0.00708662 0.323622 0.125197 0.0200788 0.00944883 0.323622 0.124016 0.0188977 0.00826772 0.322441 0.126378 0.0188977 0.00708662 0.322441 0.126378 0.0165354 0.00708662 0.320079 0.127559 0.0153543 0.00590552 0.318898 0.12874 0.0153543 0.00590552 0.315355 0.127559 0.0141732 0.00708662 0.312992 0.129921 0.011811 0.00472441 0.31063 0.129921 0.011811 0.00590552 0.305906 0.129921 0.0106299 0.00472441 0.302362 0.132284 0.00944883 0.00472441 0.297638 0.132284 0.00826772 0.00354331 0.291733 0.133465 0.00826772 0.00354331 0.285827 0.134646 0.00708662 0.00354331 0.281103 0.135827 0.00590552 0.00236221 0.274016 0.137008 0.00472441 0.00236221 0.266929 0.137008 0.00354331 0.00236221 0.261024 0.138189 0.00236221 0.0011811 0.251575 0.13937 0.00236221 0.0011811 0.244488 0.141732 0.0011811 0 0.236221 0.142913 0 0.0011811 0.225591 0.142913c7.69607,5.0126 23.902,36.8788 35.5559,38.6079 1.10079,0.162992 2.34685,-0.0968505 3.69449,-0.677953 6.16654,-3.63307 6.47363,-27.6142 25.0831,-38.8725 11.8075,-7.14213 25.2307,-16.5638 32.0894,-22.8933l0.090945 -0.0850394 0.0165354 -0.0165354 1.12913 -1.07008 0.201969 -0.194882c0.335433,-0.323622 0.669686,-0.648426 1.00039,-0.975591l0.0968505 -0.0933072 0.134646 -0.134646 1.03937 -1.0441 0.00472441 -0.00472441 0.0177165 -0.0165354 0.0366142 -0.0389764c0.375591,-0.382677 0.748819,-0.766536 1.11969,-1.15394l0.0555119 -0.0590552 0.292914 -0.311811c-27.3142,23.9469 -55.6819,13.6996 -77.2867,-2.71181 -21.4075,-16.2626 -36.1748,-38.576 -36.6957,-39.6662z"/>
   <path id="_357677488" class="fil7" d="M916.96 687.884c-2.78268,-8.14843 -33.3355,-18.163 -24.8327,22.311 0.987402,4.70433 9.15355,20.2854 23.3717,20.8784 14.7496,0.615355 5.67402,-29.1307 1.46102,-43.1894z"/>
   <path id="_357677320" class="fil6" d="M901.978 680.328l11.3787 -47.5489c0.338977,10.9524 9.55867,77.6646 16.8236,83.7012 -15.3933,4.14685 -18.5244,-38.0894 -28.2024,-36.1524z"/>
  </g>
  <path class="fil8" d="M474.537 590.428c-2.95512,4.63819 -9.11221,6.00237 -13.7504,3.04725 -4.63819,-2.95512 -6.00237,-9.11221 -3.04725,-13.7504 73.5603,-115.569 152.531,-198.801 233.319,-253.448 87.482,-59.1745 177.149,-84.9331 264.49,-82.0016 86.0386,2.8878 169.562,33.613 246.294,87.6509 77.6445,54.678 148.394,133.304 207.764,231.134 2.84764,4.70197 1.34291,10.8248 -3.35906,13.6725 -4.70197,2.84764 -10.8248,1.34291 -13.6725,-3.35906 -57.8953,-95.3977 -126.756,-171.979 -202.218,-225.119 -73.6123,-51.8398 -153.462,-81.306 -235.435,-84.0579 -83.1768,-2.79095 -168.827,21.913 -252.694,78.6426 -78.6579,53.2063 -155.711,134.503 -227.692,247.59z"/>
  <rect class="fil9" width="2048" height="2048"/>
 </g>
</svg>
