<?xml version="1.0" encoding="UTF-8"?>
<!DOCTYPE svg PUBLIC "-//W3C//DTD SVG 1.1//EN" "http://www.w3.org/Graphics/SVG/1.1/DTD/svg11.dtd">
<!-- Creator: CorelDRAW -->
<svg xmlns="http://www.w3.org/2000/svg" xml:space="preserve" width="2048px" height="2048px" style="shape-rendering:geometricPrecision; text-rendering:geometricPrecision; image-rendering:optimizeQuality; fill-rule:evenodd; clip-rule:evenodd"
viewBox="0 0 2048 2048"
 xmlns:xlink="http://www.w3.org/1999/xlink">
 <defs>
  <style type="text/css">
   <![CDATA[
    .fil12 {fill:none}
    .fil6 {fill:#01579B}
    .fil4 {fill:#1F1F1F}
    .fil9 {fill:#212121}
    .fil1 {fill:#2C6C2F}
    .fil7 {fill:#2E7D32}
    .fil2 {fill:#424242}
    .fil8 {fill:#B19A75}
    .fil5 {fill:#E0E0E0}
    .fil10 {fill:#E2CDAA}
    .fil11 {fill:#E7B691}
    .fil0 {fill:#E9C1A0}
    .fil3 {fill:#FFD3AE}
   ]]>
  </style>
 </defs>
 <g id="Layer_x0020_1">
  <metadata id="CorelCorpID_0Corel-Layer"/>
  <g id="_406739552">
   <path id="_406742192" class="fil0" d="M1234.3 756.729c-4.07126,28.3878 18.6851,48.3851 36.313,72.2339 39.4748,53.4071 99.0898,97.8438 99.3768,98.4331 3.3874,6.94607 -3.52796,41.9918 -0.232677,49.376 -61.8272,23.8406 -123.21,-51.3827 -157.776,-124.017 -18.0886,-38.0103 -34.9347,-74.569 -27.5421,-97.4528 0.191339,-2.84055 39.4796,-1.62874 49.8615,1.42677z"/>
   <path id="_406741664" class="fil1" d="M1173.42 762.901c-5.65748,14.1614 -10.6961,-4.60748 -7.11851,24.3083 3.58111,28.9134 55.6087,99.0922 55.6087,99.0922 3.26457,2.1626 66.4418,-26.6492 78.4855,-31.8473 -0.298819,-50.9906 -59.2465,-138.528 -100.387,-164.951 2.66103,-6.36851 7.47756,12.1051 -0.517323,25.7599 -10.3382,17.6599 -22.8898,39.6485 -26.0717,47.6374z"/>
   <path id="path4172" class="fil2" d="M1561.75 785.336c-494.68,-226.925 -920.189,-472.633 -1024.49,-529.336 -0.364961,1.14803 -76.9406,45.3815 -71.4721,50.8347 25.2012,25.1256 82.5946,-26.8205 93.2635,-20.3339 162.946,99.0591 868.992,464.145 988.71,523.298l-0.936615 -2.64803 14.9256 -21.815z"/>
   <path id="_406741784" class="fil3" d="M1112.55 1233.18c-2.67047,6.43111 79.8036,292.39 95.08,275.412 2.98819,5.50748 42.7642,1.27205 59.3056,-2.58071 0.977954,-12.6142 9.06851,-54.0378 1.70906,-104.341 -14.9823,-102.409 -55.793,-239.373 -58.6371,-238.739l-1.73504 0.386221c-35.1685,7.8378 -93.678,64.9524 -95.7225,69.8623z"/>
   <path id="_406741496" class="fil4" d="M1319.99 1653.43c-3.5067,-6.82796 -17.6079,-2.55473 -17.6079,-2.55473 0,0 -4.23662,7.97835 -6.86221,21.2717 -2.61851,13.2957 -9.92835,19.8567 -23.6599,16.2791 -13.7386,-3.58229 -18.5705,-18.6118 -18.5705,-18.6118 0,0 -11.7886,1.0063 -16.8142,21.6331 -2.55945,10.4976 9.19016,38.0044 9.09922,46.33 -0.530315,48.9485 19.4646,53.9115 49.637,54.2185 68.367,0.696851 48.2552,-92.6646 24.7784,-138.566z"/>
   <path id="_406741208" class="fil5" d="M1207.73 1481.98c-6.68741,3.20433 -13.3063,23.8347 -10.8343,39.065 2.47323,15.2339 9.37324,42.8185 18.8811,64.5792 6.20079,14.1839 21.0555,58.793 28.9264,78.1796 4.19646,10.3571 3.66142,12.5894 12.7087,18.2728 9.03308,5.67993 22.7681,3.65788 36.541,0.106299 13.7752,-3.54803 14.765,-9.63544 13.0736,-24.5032 -1.90984,-16.774 -11.2973,-60.8469 -14.4177,-102.157 -3.12166,-41.3162 3.04725,-54.9059 -4.56615,-64.9524 -7.60631,-10.0429 -13.6831,-10.7091 -19.774,-11.3811 -6.09686,-0.66378 -53.85,-0.408662 -60.5386,2.79095z"/>
   <path id="_406741160" class="fil3" d="M1039.12 1200.52c21.1016,16.9831 17.4591,94.3678 20.3232,116.484 4.27914,33.0307 2.23819,62.2394 3.75237,90.5776 0.817323,15.3024 9.29646,46.2378 24.3862,80.243 0.0153543,6.26575 -36.9296,21.6 -53.2949,26.1425 -6.90119,-10.6051 -33.8457,-43.0914 -51.4807,-90.7737 -35.9032,-97.0725 -65.6847,-236.849 -62.8855,-237.655l1.70906 -0.49252c34.6252,-9.96497 113.343,12.1429 117.49,15.4736z"/>
   <path id="_406740728" class="fil4" d="M970.412 1741.48c1.18937,-3.64961 -3.52441,-8.04568 25.9996,-18.5445 29.5264,-10.4941 56.7,-23.2004 68.5323,-39.5055 11.8252,-16.3087 23.6799,-42.1087 26.0469,-49.4067 2.37992,-7.29804 16.9807,-5.31378 16.9807,-5.31378 0,0 5.44725,7.20473 10.1469,19.9146 4.69252,12.7122 12.9508,18.0319 25.9418,12.3236 12.9969,-5.71536 15.3851,-21.3213 15.3851,-21.3213 0,0 11.7992,-0.875198 20.0303,18.6945 8.23347,19.5626 10.5165,60.9426 10.5165,60.9426 -22.6807,4.36181 -230.684,56.2819 -219.58,22.2166z"/>
   <path id="_406741064" class="fil5" d="M1077.47 1468.15c7.30276,-1.2874 24.6921,11.6339 31.5484,25.4575 6.85749,13.826 17.302,40.2721 22.2378,63.502 3.21496,15.1417 17.1036,60.0615 21.9874,80.406 2.61732,10.8638 4.35118,12.3685 0.303544,22.2555 -4.03937,9.87757 -16.3843,16.2284 -29.6504,21.3579 -13.2662,5.13307 -17.615,0.759449 -24.8941,-12.3154 -8.21103,-14.7496 -26.2323,-56.0504 -47.7414,-91.4576 -21.5114,-35.413 -34.4386,-42.8717 -34.0961,-55.4717 0.338977,-12.5941 4.89331,-16.6736 9.45473,-20.765 4.57087,-4.09016 43.5485,-31.6784 50.85,-32.9693z"/>
   <path id="_406740800" class="fil6" d="M1061.98 1163.6l-5.8441 93.352c-49.2024,-4.88504 -101.932,43.6725 -148.896,4.64528 0,0 8.4189,-167.451 18.7784,-195.168 10.3547,-27.7158 46.2048,-101.632 46.2048,-101.632 0,0 15.1122,28.0512 56.1886,22.7362 13.1646,-1.70197 25.9441,-2.89607 37.4859,-3.74292l-3.91772 179.809z"/>
   <path id="_406741184" class="fil6" d="M1064.39 1166.65l42.8351 104.652c0,0 67.7457,14.7201 94.3772,0.511418 26.6303,-14.2134 40.1469,-40.2272 40.1469,-40.2272 0,0 -35.8181,-143.674 -47.9422,-170.666 -12.1181,-26.9906 -52.6583,-98.4438 -52.6583,-98.4438 0,0 -13.2732,28.9677 -54.6059,26.3114 -13.2461,-0.850394 -26.0776,-1.2189 -37.6488,-1.32047l15.4961 179.183z"/>
   <path id="_406741256" class="fil7" d="M1113.98 672.69l0.00590552 0 0.0165354 0.00236221 0.0271654 0.00354331 0.00236221 0.0011811 0.0354331 0.00236221 0.0507874 0.00708662 0.0602363 0.00590552 0.00826772 0 0.0637796 0.00826772 0.0791339 0.00944883 0.0921261 0.0106299 0.0212599 0.00354331 0.0814961 0.0106299 0.111024 0.011811 0.124016 0.0153543 0.0330709 0.00354331 0.0992127 0.0129921 0.141732 0.0177165 0.153543 0.0177165 0.0519685 0.00708662 0.108662 0.011811 0.172441 0.0200788 0.180709 0.0236221 0.0744095 0.00826772 0.115748 0.0153543 0.199606 0.0248032 0.206693 0.0248032 0.102756 0.0141732 0.115748 0.011811 0.227953 0.0295276 0.23504 0.0307087 0.131102 0.0153543 0.113386 0.0129921 0.251575 0.0330709 0.262205 0.0330709 0.162992 0.0212599 0.10748 0.011811 0.27874 0.0366142 0.285827 0.0366142 0.197244 0.0259843 0.0968505 0.011811 0.303544 0.0377953 0.309449 0.0413386 0.237402 0.0307087 0.0814961 0.011811 0.325985 0.0425197 0.335433 0.0425197 0.276378 0.0366142 0.0649607 0.00826772 0.347244 0.046063 0.356693 0.0472441 0.320079 0.0425197 0.0437008 0.00590552 0.370866 0.0484252 0.376772 0.0519685 0.36378 0.0484252 0.0188977 0.00354331 0.392126 0.0531496 0.396851 0.0531496 0.403937 0.0543308 0.00708662 0.00236221 0.403937 0.0543308 0.418111 0.056693 0.422835 0.0602363 0.0354331 0.00590552 0.393307 0.0531496 0.435827 0.0602363 0.442914 0.0625985 0.0673229 0.00944883 0.377953 0.0543308 0.454725 0.0625985 0.458268 0.0649607 0.101575 0.0165354 0.362599 0.0496063 0.470079 0.068504 0.474804 0.0673229 0.138189 0.0212599 0.343701 0.0484252 0.484252 0.0720473 0.490158 0.0696851 0.174803 0.0271654 0.320079 0.046063 0.499607 0.0755906 0.506693 0.0732284c22.3843,3.32599 58.2237,9.73347 67.5378,17.7673 13.8189,11.915 0.640158,33.4843 1.96181,65.5536 1.31693,32.0457 9.65316,326.268 -6.64961,318.389 -55.3524,5.20276 -201.742,41.1768 -275.379,-16.9193 -1.96772,-1.33465 -121.237,-379.903 16.8732,-411.161 35.6398,-8.07284 82.5721,17.2252 98.6115,20.9398l3.23977 0.11811 0.022441 0 0.65315 0.0259843 0.141732 0.00472441 0.780709 0.0295276 0.0720473 0.00236221 1.88032 0.068504 0.0944883 0.00472441 0.924804 0.0330709 0.196063 0.00944883 0.875198 0.0318898 0.303544 0.0106299 0.817323 0.0307087 0.420473 0.0177165 0.745276 0.0259843 0.54567 0.0200788 0.664961 0.0248032 0.675591 0.0259843 0.576378 0.0212599 0.81378 0.0295276 0.478347 0.0188977 0.955513 0.0366142 0.373229 0.0129921 1.10315 0.0413386 0.258662 0.00944883 1.25669 0.0472441 0.13937 0.00354331 1.41142 0.0531496 0.0141732 0.0011811 1.45394 0.0531496 0.115748 0.00590552 1.36181 0.0496063 0.251575 0.00944883 1.25079 0.0472441 0.389764 0.0141732 1.13268 0.0425197 0.531496 0.0212599 1.00984 0.0377953 0.675591 0.0259843 0.881103 0.0318898 0.823229 0.0307087 0.747638 0.0283465 0.969686 0.0354331 0.611811 0.022441 1.11732 0.0437008 0.473622 0.0153543 1.26496 0.0484252 0.33189 0.0129921 1.4126 0.0531496 0.190158 0.00708662 1.55669 0.0578741 0.0484252 0.00236221 1.60276 0.0602363 0.0944883 0.00236221 1.50591 0.056693 0.238583 0.00944883 1.35827 0.0507874 0.377953 0.0129921 1.21063 0.0448819 0.519685 0.0200788 1.05945 0.0401575 0.654331 0.0236221 0.912993 0.0354331 0.787796 0.0295276 0.766536 0.0283465 0.916536 0.0354331 0.62126 0.022441 1.03819 0.0377953 0.477166 0.0188977 1.15984 0.0448819 0.337796 0.011811 1.27205 0.046063 0.199606 0.00826772 1.37717 0.0519685 0.0720473 0.00236221 1.41969 0.0543308 0.0543308 0.00236221 1.33228 0.0484252 0.178347 0.00708662 1.17756 0.0448819 0.291733 0.011811 1.02874 0.0366142 0.399213 0.0153543 0.882284 0.0318898 0.498426 0.0212599 0.745276 0.0271654 0.587008 0.022441 0.612993 0.022441 0.672048 0.0248032 0.485433 0.0177165 0.741733 0.0271654 0.367323 0.0153543 0.801969 0.0307087 0.257481 0.00826772 0.853938 0.0318898 0.155906 0.00590552 0.889371 0.0330709 0.0649607 0.00354331 0.897638 0.034252 0.0165354 -0.0011811 0.82441 0.0307087 0.0885827 0.00472441 0.689764 0.0248032 0.148819 0.00708662 0.568111 0.0200788 0.193701 0.00708662 0.455906 0.0188977 0.227953 0.00826772 0.355512 0.0129921 0.246851 0.00826772 0.265748 0.011811 0.253937 0.00826772 0.185433 0.00590552 0.245669 0.0106299 0.120473 0.00354331 0.219685 0.00826772 0.068504 0.00354331 0.178347 0.00590552 0.0318898 0.0011811 0.11811 0.00472441 0.00826772 0 0.0425197 0.00236221z"/>
   <g>
    <path id="_406740704" class="fil8" d="M992.596 533.481c-2.2748,-8.33268 -32.237,-20.2807 -26.2689,20.7803 0.69567,4.77166 7.89331,20.8854 22.0914,22.3725 14.7307,1.54252 7.513,-28.8118 4.17756,-43.1528z"/>
    <path id="_406740488" class="fil9" d="M1053.49 349.361c81.0485,39.9272 109.742,31.8402 125.316,62.0752 16.2496,31.5437 -9.67087,100.801 -26.6126,155.687 -9.65434,31.2768 -3.17835,54.2776 -17.491,72.0355 -4.96654,14.0162 -77.0611,8.27599 -112.103,-13.4398 -23.5855,-14.6173 -20.4992,-21.3106 -30.9201,-51.2634 -14.4543,-41.5489 -30.5315,-61.4563 -29.5441,-121.044 0.253937,-15.4382 1.50473,-45.0071 16.2189,-46.7658 -5.96339,-55.3122 57.7382,-73.4221 75.1359,-57.2847z"/>
    <path id="_406740248" class="fil3" d="M1150.58 443.354c6.11221,22.5319 -1.68898,90.339 -13.2591,145.11 -1.75866,8.32323 -6.77127,19.7622 -11.2146,30.45 -4.01811,9.66733 -7.57087,18.7205 -7.82599,24.2977 -0.814961,17.7898 -0.874016,22.9217 11.4732,31.3264 -0.245669,3.64016 -13.4102,5.17205 -18.8599,8.05158 -8.88426,4.69252 -22.239,28.5201 -35.1071,29.2406 -10.3075,0.577559 -10.6347,-21.7429 -16.4587,-25.1103 -33.587,-19.4197 -67.3477,-46.8744 -76.3879,-86.9918 -10.3453,-20.6953 -0.275197,-167.894 15.9248,-183.718 11.2311,-21.189 40.0583,12.3189 66.0402,7.90631 65.8678,-9.55276 83.0658,7.82127 85.6749,19.4374z"/>
    <path id="_406740368" class="fil8" d="M1131.44 606.023l-0.0791339 0.197244 -0.022441 0.056693 -0.0578741 0.142913 -0.0814961 0.199606 -0.0637796 0.158268 -0.0165354 0.0425197 -0.080315 0.199606 -0.0826772 0.200788 -0.0236221 0.0602363 -0.056693 0.140551 -0.0814961 0.200788 -0.0673229 0.161811 -0.0153543 0.0389764 -0.0814961 0.200788 -0.0826772 0.200788 -0.0271654 0.0625985 -0.0543308 0.137008 -0.0838583 0.201969 -0.165354 0.402756 -0.0826772 0.201969 -0.0271654 0.0673229 -0.0555119 0.134646 -0.0826772 0.201969 -0.0838583 0.201969 -0.0826772 0.201969 -0.0850394 0.200788 -0.0283465 0.0708662 -0.0543308 0.131102 -0.0838583 0.20315 -0.0732284 0.173622 -0.011811 0.0283465 -0.0826772 0.201969 -0.0850394 0.20315 -0.0307087 0.0744095 -0.0531496 0.127559 -0.0838583 0.201969 -0.0744095 0.178347 -0.0106299 0.0236221 -0.0826772 0.20315 -0.0850394 0.201969 -0.0330709 0.0779528 -0.0519685 0.125197 -0.0838583 0.201969 -0.0755906 0.180709 -0.00944883 0.0212599 -0.0850394 0.201969 -0.0838583 0.20315 -0.034252 0.0814961 -0.0507874 0.120473 -0.0850394 0.20315 -0.0767717 0.184252 -0.00708662 0.0165354 -0.0850394 0.20315 -0.0850394 0.201969 -0.034252 0.0850394 -0.0496063 0.11811 -0.0850394 0.201969 -0.0779528 0.187795 -0.00590552 0.0129921 -0.0850394 0.20315 -0.0850394 0.201969 -0.0366142 0.0885827 -0.046063 0.113386 -0.0850394 0.201969 -0.080315 0.190158 -0.00472441 0.011811 -0.0838583 0.200788 -0.0850394 0.201969 -0.0377953 0.090945 -0.046063 0.109843 -0.0838583 0.201969 -0.0814961 0.193701 -0.00236221 0.00826772 -0.0850394 0.199606 -0.0826772 0.201969 -0.0401575 0.0944883 -0.0448819 0.106299 -0.0826772 0.200788 -0.0826772 0.197244 -0.0011811 0.00354331 -0.0838583 0.199606 -0.0838583 0.200788 -0.0401575 0.0980316 -0.0425197 0.101575 -0.0838583 0.200788 -0.0826772 0.199606c-4.01811,9.66733 -7.57087,18.7205 -7.82599,24.2977l-0.00236221 0.0496063 -0.00236221 0.0496063 -0.00354331 0.0496063 -0.0011811 0.0484252 -0.00236221 0.0496063 -0.00236221 0.0496063 -0.00236221 0.0484252 -0.0011811 0.0496063 -0.00354331 0.0484252 -0.00236221 0.0496063 -0.0011811 0.0484252 -0.00236221 0.0484252 -0.00236221 0.0496063 -0.00236221 0.0484252 -0.00236221 0.0484252 -0.00236221 0.0484252 -0.00236221 0.0401575 0.0011811 0.00826772 -0.00236221 0.0484252 -0.00354331 0.0484252 -0.0011811 0.0484252 -0.00236221 0.0484252 -0.00236221 0.0484252 -0.0011811 0.0484252 -0.00236221 0.0472441 -0.00354331 0.0484252 -0.0011811 0.0484252 -0.00236221 0.0472441 -0.0011811 0.0484252 -0.00354331 0.0472441 -0.00236221 0.0484252 -0.0011811 0.0472441 -0.00236221 0.0472441 -0.0011811 0.0484252 -0.00236221 0.0295276 -0.0011811 0.0177165 -0.00236221 0.0472441 -0.0011811 0.0472441 -0.00236221 0.0472441 -0.0011811 0.0472441 -0.00354331 0.0472441 -0.0011811 0.0472441 -0.00236221 0.0472441 -0.0011811 0.0472441 -0.00236221 0.0448819 -0.00354331 0.0472441 -0.0011811 0.0472441 -0.00236221 0.046063 -0.0011811 0.0472441 -0.00354331 0.0472441 -0.0011811 0.046063 -0.00236221 0.046063 0 0.0212599 -0.0011811 0.0259843 -0.00236221 0.046063 -0.00236221 0.046063 -0.00236221 0.0472441 -0.0011811 0.046063 -0.00236221 0.0448819 -0.0011811 0.046063 -0.00354331 0.046063 -0.0011811 0.046063 -0.0011811 0.046063 -0.00236221 0.046063 -0.00236221 0.0448819 -0.00236221 0.046063 -0.0011811 0.046063 -0.00590552 0.147638 -0.0236221 0.564567 -0.00708662 0.188977 -0.0188977 0.510237 -0.00944883 0.226772c-0.39567,10.6973 -0.50315,17.1331 8.2441,24.137l0.274016 0.217323 0.0602363 0.046063 0.402756 0.309449 0.0212599 0.0165354 0.146457 0.112205 0.351969 0.264567 0.00354331 0.00236221 0.373229 0.274016 0.140551 0.103937 0.0944883 0.0673229 0.43937 0.315355 0.0649607 0.046063 0.486615 0.341339 0.034252 0.0236221 0.536221 0.367323 -0.0011811 0.0153543 -0.00236221 0.0165354 -0.00590552 0.0401575 -0.0165354 0.119291 -0.0141732 0.0614174 -0.0259843 0.0968505 -0.0318898 0.0897638 -0.0248032 0.0696851 -0.0389764 0.0826772 -0.0413386 0.0850394 -0.00472441 0.00944883 -0.0767717 0.129921 -0.0177165 0.0271654 -0.034252 0.0472441 -0.0720473 0.102756 -0.0200788 0.0236221 -0.105118 0.125197 -0.00590552 0.00590552 -0.11811 0.125197 -0.0236221 0.0236221 -0.131102 0.124016 -0.0259843 0.022441 -0.144095 0.121654 -0.0271654 0.022441 -0.157087 0.120473 -0.0295276 0.0212599 -0.168898 0.11811 -0.197244 0.131102 -0.0129921 0.00826772 -0.0307087 0.0200788 -0.19252 0.115748 -0.0330709 0.0188977 -0.204331 0.114567 -0.0330709 0.0188977 -0.214961 0.114567 -0.0330709 0.0165354 -0.226772 0.113386 -0.269292 0.12874 -0.0354331 0.0165354 -0.245669 0.111024 -0.0366142 0.0153543 -0.253937 0.109843 -0.0366142 0.0153543 -0.263386 0.10748 -0.0377953 0.0153543 -0.271654 0.10748 -0.0366142 0.0153543 -0.281103 0.106299 -0.0366142 0.0141732 -0.28937 0.106299 -0.0366142 0.0129921 -0.297638 0.105118 -0.0354331 0.0129921 -0.304725 0.105118 -0.0354331 0.0129921 -0.311811 0.102756 -0.0354331 0.011811 -0.317717 0.103937 -0.0354331 0.011811 -0.322441 0.102756 -0.0366142 0.011811 -0.328347 0.102756 -0.034252 0.011811 -0.335433 0.100394 -0.0330709 0.0106299 -0.340158 0.102756 -0.0330709 0.0106299 -0.343701 0.101575 -0.0330709 0.00944883 -0.347244 0.101575 -0.0318898 0.00944883 -0.350788 0.101575 -0.0318898 0.00944883 -0.354331 0.102756 -0.0307087 0.00826772 -0.356693 0.101575 -0.0295276 0.00826772 -0.360236 0.102756 -0.0271654 0.00826772 -0.362599 0.101575 -0.0271654 0.00708662 -0.36378 0.102756 -0.0259843 0.00708662 -0.36378 0.103937 -0.0259843 0.00708662 -0.364961 0.102756 -0.0236221 0.00708662 -0.364961 0.103937 -0.0236221 0.00708662 -0.364961 0.103937 -0.0212599 0.00708662 -0.36378 0.105118 -0.0200788 0.00590552 -0.364961 0.106299 -0.0188977 0.00472441 -0.361418 0.10748 -0.0177165 0.00590552 -0.360236 0.10748 -0.0165354 0.00472441 -0.356693 0.108662 -0.0153543 0.00590552 -0.354331 0.109843 -0.0141732 0.00354331 -0.350788 0.111024 -0.0141732 0.00472441 -0.344882 0.112205 -0.0129921 0.00354331 -0.34252 0.113386 -0.0106299 0.00354331 -0.336614 0.114567 -0.0106299 0.00354331 -0.330709 0.116929 -0.00944883 0.00236221 -0.324803 0.119291 -0.00708662 0.00236221 -0.32126 0.119291 -0.00590552 0.00236221 -0.311811 0.121654 -0.00590552 0.00236221 -0.304725 0.122835 -0.00354331 0.00236221 -0.298819 0.124016 -0.00236221 0.0011811 -0.288189 0.127559 -0.00236221 0 -0.279921 0.129921 -0.0011811 0.0011811 -0.271654 0.131102 0 0.0011811 -0.261024 0.132284c-8.88426,4.6937 -29.7213,37.7894 -42.5894,38.5099 -1.21536,0.068504 -2.54646,-0.338977 -3.95788,-1.10669 -6.35434,-4.57323 -4.29331,-30.7299 -23.4437,-44.8524 -12.15,-8.95985 -25.8319,-20.5642 -32.6717,-28.1445l-0.090945 -0.101575 -0.0165354 -0.0188977 -1.12441 -1.27913 -0.199606 -0.232677c-0.333071,-0.386221 -0.664961,-0.772442 -0.992127,-1.16221l-0.0956694 -0.112205 -0.134646 -0.159449 -1.02756 -1.24134 -0.00472441 -0.00472441 -0.0165354 -0.0200788 -0.0377953 -0.046063c-0.370866,-0.454725 -0.739371,-0.910631 -1.10315,-1.3689l-0.0543308 -0.0708662 -0.288189 -0.368504c27.365,28.8142 59.2914,20.4851 84.4666,4.76221 24.9449,-15.5788 43.2603,-38.413 43.937,-39.5481z"/>
    <path id="_406740104" class="fil10" d="M1143.26 546.632c3.84449,-8.59843 38.1296,-16.4575 24.8256,26.7862 -1.54606,5.02678 -11.9988,21.1854 -27.5469,20.4118 -16.1291,-0.801969 -3.27284,-32.302 2.72126,-47.1981z"/>
    <path id="_406740176" class="fil9" d="M1160.34 539.898l-7.64882 -52.9359c-1.46221,11.8973 -18.1677,83.654 -26.6847,89.504 16.3547,6.05552 23.9835,-39.6437 34.3335,-36.5681z"/>
   </g>
   <path id="_406740032" class="fil3" d="M1005.97 753.31c64.7729,54.9721 348.988,-46.5603 351.108,-44.4532 7.33583,7.29331 35.7201,42.0591 43.1315,49.9477 -61.65,71.5595 -405.55,143.321 -431.384,49.9949 -3.08268,-2.23937 26.2855,-45.9 37.1445,-55.4894z"/>
   <path id="_406740512" class="fil3" d="M1388 663.576c3.6437,-3.46063 17.4626,-2.71181 20.8087,10.4965 2.57953,10.1728 -1.69725,5.7 -8.55827,14.4437 4.72323,-2.57362 39.3579,-16.3654 38.126,7.1752 -0.578741,10.9831 -2.49331,12.626 -11.8323,18.8622 1.71496,3.03307 23.8973,-7.58859 28.8201,8.52638 4.81063,15.7547 -19.8343,28.0063 -36.7607,37.102 -15.5445,8.35985 -32.4024,15.5599 -47.0374,22.4103 -16.148,7.54725 -34.4233,-32.6138 -47.2725,-42.0284 14.6917,-25.0843 37.1422,-60.7418 63.7063,-76.9879z"/>
   <path id="_406740584" class="fil1" d="M1034.96 745.789c-24.3697,11.3421 -72.5339,88.8213 -54.3756,91.9713 -33.313,-29.217 -84.8835,-63.7441 -102.18,-106.189 -0.711024,-8.85591 -1.61339,-66.1796 30.9118,-75.704 30.0095,-8.78977 76.5686,15.6012 125.643,89.9221z"/>
   <path id="_406739288" class="fil0" d="M1289.98 925.921l8.48505 12.7902 8.82993 14.1142c9.49135,24.7524 24.3898,33.6166 42.1725,31.8591 68.6091,-6.77599 192.154,-160.586 202.141,-181.316 10.6831,-71.4839 -213.743,104.092 -261.629,122.552z"/>
   <path id="_406739744" class="fil11" d="M1504.2 736.534c2.97874,-4.04764 16.7138,-5.74134 22.3299,6.67323 4.32756,9.56103 -0.668504,5.90906 -5.88426,15.724 4.19646,-3.36496 35.8666,-23.0315 38.7922,0.359055 1.36181,10.9146 -0.233858,12.8681 -8.33032,20.6492 2.22166,2.68347 22.1906,-11.6728 29.8713,3.32481 7.50473,14.6646 -14.602,31.0583 -29.6646,42.9886 -13.8319,10.963 -29.1614,21.0154 -42.3638,30.3319 -14.5701,10.2697 -39.6225,-26.0528 -53.9268,-33.0614 10.0524,-27.2764 25.8827,-66.326 49.1764,-86.9894z"/>
  </g>
  <rect class="fil12" width="2048" height="2048"/>
 </g>
</svg>
