<?xml version="1.0" encoding="UTF-8"?>
<!DOCTYPE svg PUBLIC "-//W3C//DTD SVG 1.1//EN" "http://www.w3.org/Graphics/SVG/1.1/DTD/svg11.dtd">
<!-- Creator: CorelDRAW -->
<svg xmlns="http://www.w3.org/2000/svg" xml:space="preserve" width="2048px" height="2048px" style="shape-rendering:geometricPrecision; text-rendering:geometricPrecision; image-rendering:optimizeQuality; fill-rule:evenodd; clip-rule:evenodd"
viewBox="0 0 2048 2048"
 xmlns:xlink="http://www.w3.org/1999/xlink">
 <defs>
  <style type="text/css">
   <![CDATA[
    .fil7 {fill:none}
    .fil5 {fill:#9F908B}
    .fil1 {fill:#B4A19A}
    .fil4 {fill:#361510;fill-rule:nonzero}
    .fil0 {fill:#401911;fill-rule:nonzero}
    .fil6 {fill:#C7C1CE;fill-rule:nonzero}
    .fil3 {fill:#D7CDD6;fill-rule:nonzero}
    .fil2 {fill:#E0D8E4;fill-rule:nonzero}
   ]]>
  </style>
 </defs>
 <g id="Layer_x0020_1">
  <metadata id="CorelCorpID_0Corel-Layer"/>
  <g id="_357882144">
   <g>
    <path id="_357757232" class="fil0" d="M438.798 256.801c62.2241,-2.27008 141.721,0.433465 229.814,10.5473 140.595,16.1563 302.962,55.8024 451.435,117.458 128.628,53.413 247.286,123.595 333.323,209.75l0.0625985 -0.0625985c84.7383,84.7383 151.332,191.906 202.182,307.637 59.1638,134.649 96.9296,280.892 117.096,416.515 14.6551,99.1099 19.9606,190.299 19.076,262.692 -1.1315,92.53 -14.6433,158.561 -33.1229,177.082 -17.0752,17.2441 -71.9398,29.8547 -149.51,32.6847 -62.2241,2.27008 -141.721,-0.433465 -229.813,-10.5473 -47.6622,-5.47559 -112.838,-16.428 -176.855,-29.9244 -56.7969,-11.974 -112.849,-26.0268 -155.179,-40.1327l-0.011811 0.0366142c-87.2009,-27.4618 -174.149,-63.2103 -255.049,-109.03 -72.1914,-40.8874 -139.481,-89.7804 -197.758,-147.937l-0.125197 -0.125197c-84.9237,-85.0997 -151.563,-192.314 -202.35,-307.983 -59.0575,-134.508 -96.7205,-280.519 -116.771,-416.201 -14.6551,-99.1099 -19.9606,-190.299 -19.076,-262.692 1.1315,-92.53 14.6433,-158.562 33.1229,-177.082 17.074,-17.2429 71.9398,-29.8559 149.509,-32.6859z"/>
    <g>
     <path id="_357756992" class="fil1" d="M275.443 729.46c6.56693,44.439 15.0236,89.9859 25.5024,135.874 50.3552,-82.2922 141.876,-194.257 255.969,-308.349 113.186,-113.187 224.28,-204.16 306.384,-254.762 -57.5729,-13.7398 -114.276,-24.2362 -168.202,-31.4126 -67.976,51.2457 -146.216,119.621 -225.476,198.88 -79.278,79.2792 -147.667,157.537 -198.916,225.523 1.4563,11.2973 3.03425,22.7185 4.73859,34.2461z"/>
     <path id="_357757208" class="fil1" d="M1318.47 1772.49c-44.4378,-6.56693 -89.9859,-15.0236 -135.874,-25.5024 82.2922,-50.3552 194.258,-141.876 308.351,-255.968 113.186,-113.187 204.158,-224.28 254.76,-306.384 13.7398,57.5729 24.2362,114.275 31.4126,168.201 -51.2457,67.976 -119.621,146.216 -198.88,225.476 -79.278,79.278 -157.536,147.667 -225.523,198.917 -11.2961,-1.4563 -22.7185,-3.03544 -34.2461,-4.73977z"/>
    </g>
    <path id="_357756752" class="fil2" d="M772.198 800.554c-7.81064,-7.80945 -7.81064,-20.4744 0,-28.2851 7.81064,-7.81064 20.4756,-7.81064 28.2851,0l475.177 475.177c7.81064,7.80945 7.81064,20.4744 0,28.2851 -7.81064,7.81064 -20.4756,7.81064 -28.2851,0l-475.177 -475.177z"/>
    <path id="_357756920" class="fil2" d="M1029.58 1107.43c-5.85827,5.85827 -15.3555,5.85827 -21.2138,0 -5.85709,-5.85709 -5.85709,-15.3555 0,-21.2126l77.7816 -77.7816c5.85709,-5.85709 15.3555,-5.85709 21.2126,0 5.85827,5.85827 5.85827,15.3555 0,21.2138l-77.7804 77.7804z"/>
    <path id="_357756680" class="fil2" d="M825.931 903.783c-5.85827,5.85827 -15.3555,5.85827 -21.2138,0 -5.85709,-5.85709 -5.85709,-15.3555 0,-21.2126l77.7816 -77.7816c5.85709,-5.85709 15.3555,-5.85709 21.2126,0 5.85827,5.85827 5.85827,15.3555 0,21.2138l-77.7804 77.7804z"/>
    <path id="_357756776" class="fil2" d="M893.816 971.669c-5.85709,5.85709 -15.3543,5.85709 -21.2126,0 -5.85827,-5.85827 -5.85827,-15.3555 0,-21.2138l77.7804 -77.7804c5.85827,-5.85827 15.3555,-5.85827 21.2138,0 5.85709,5.85827 5.85709,15.3555 0,21.2126l-77.7816 77.7816z"/>
    <path id="_357757280" class="fil2" d="M961.703 1039.55c-5.85827,5.85827 -15.3555,5.85827 -21.2138,0 -5.85709,-5.85709 -5.85709,-15.3555 0,-21.2126l77.7816 -77.7816c5.85709,-5.85709 15.3555,-5.85709 21.2126,0 5.85827,5.85827 5.85827,15.3555 0,21.2138l-77.7804 77.7804z"/>
    <path id="_357755960" class="fil2" d="M1097.47 1175.33c-5.85827,5.85827 -15.3555,5.85827 -21.2138,0 -5.85709,-5.85827 -5.85709,-15.3555 0,-21.2126l77.7816 -77.7816c5.85709,-5.85709 15.3543,-5.85709 21.2126,0 5.85827,5.85827 5.85827,15.3555 0,21.2138l-77.7804 77.7804z"/>
    <path id="_357756536" class="fil3" d="M1165.36 1243.21c-5.85709,5.85709 -15.3555,5.85709 -21.2126,0 -5.85827,-5.85827 -5.85827,-15.3555 0,-21.2138l77.7804 -77.7804c5.85827,-5.85827 15.3555,-5.85827 21.2138,0 5.85709,5.85709 5.85709,15.3555 0,21.2126l-77.7816 77.7816z"/>
   </g>
   <g>
    <path id="_357755936" class="fil4" d="M1758.51 1758.57c-17.2477,17.1638 -72.013,29.7083 -149.352,32.5311 -62.2241,2.2689 -141.719,-0.433465 -229.812,-10.5484 -47.6634,-5.47441 -112.838,-16.4268 -176.855,-29.9233 -56.7969,-11.974 -112.85,-26.028 -155.18,-40.1327l-0.011811 0.0366142c-87.1997,-27.463 -174.148,-63.2103 -255.049,-109.03 -72.1914,-40.8874 -139.481,-89.7804 -197.758,-147.937l-0.125197 -0.125197c-84.9225,-85.1009 -151.562,-192.314 -202.35,-307.983 -59.0563,-134.508 -96.7205,-280.519 -116.77,-416.201 -14.6563,-99.1099 -19.9606,-190.299 -19.0772,-262.692 1.13268,-92.53 14.6433,-158.562 33.124,-177.082l0.0649607 -0.0637796 1469.15 1469.15z"/>
    <g>
     <path id="_357756128" class="fil5" d="M275.443 729.46c6.56693,44.439 15.0236,89.9859 25.5024,135.874 50.3552,-82.2922 141.876,-194.257 255.969,-308.349l0.0011811 -0.00236221 -87.293 -87.293 -0.00236221 0.0011811c-79.278,79.2792 -147.667,157.537 -198.916,225.523 1.4563,11.2973 3.03425,22.7185 4.73859,34.2461z"/>
     <path id="_357756080" class="fil5" d="M1318.47 1772.49c-44.4378,-6.56693 -89.9859,-15.0236 -135.874,-25.5024 82.2922,-50.3552 194.258,-141.876 308.351,-255.968l0.0011811 -0.00236221 87.293 87.293 -0.0011811 0.00236221c-79.278,79.278 -157.536,147.667 -225.523,198.917 -11.2961,-1.4563 -22.7185,-3.03544 -34.2461,-4.73977z"/>
    </g>
    <path id="_357882720" class="fil6" d="M772.198 800.554c-7.81064,-7.80945 -7.81064,-20.4744 0,-28.2851l0.00236221 -0.0011811 503.461 503.461 -0.0011811 0.00236221c-7.81064,7.81064 -20.4756,7.81064 -28.2851,0l-475.177 -475.177z"/>
    <path id="_357882840" class="fil6" d="M1029.58 1107.43c-5.85827,5.85827 -15.3555,5.85827 -21.2138,0 -5.85709,-5.85709 -5.85709,-15.3555 0,-21.2126l38.8925 -38.8925 21.2138 21.2138 -38.8925 38.8914z"/>
    <path id="_357882936" class="fil6" d="M825.931 903.783c-5.85827,5.85827 -15.3555,5.85827 -21.2138,0 -5.85709,-5.85709 -5.85709,-15.3555 0,-21.2126l38.8925 -38.8925 21.2138 21.2138 -38.8925 38.8914z"/>
    <path id="_357882312" class="fil6" d="M893.816 971.669c-5.85709,5.85709 -15.3543,5.85709 -21.2126,0 -5.85827,-5.85827 -5.85827,-15.3555 0,-21.2138l38.8914 -38.8914 21.2138 21.2126 -38.8925 38.8925z"/>
    <path id="_357882408" class="fil6" d="M961.703 1039.55c-5.85827,5.85827 -15.3555,5.85827 -21.2138,0 -5.85709,-5.85709 -5.85709,-15.3555 0,-21.2126l38.8925 -38.8925 21.2126 21.2138 -38.8914 38.8914z"/>
    <path id="_357881760" class="fil6" d="M1097.47 1175.33c-5.85827,5.85827 -15.3555,5.85827 -21.2138,0 -5.85709,-5.85827 -5.85709,-15.3555 0,-21.2126l38.8925 -38.8925 21.2126 21.2138 -38.8914 38.8914z"/>
    <path id="_357881448" class="fil6" d="M1165.36 1243.21c-5.85709,5.85709 -15.3555,5.85709 -21.2126,0 -5.85827,-5.85827 -5.85827,-15.3555 0,-21.2138l38.8914 -38.8925 21.2138 21.2138 -38.8925 38.8925z"/>
   </g>
  </g>
  <rect class="fil7" width="2048" height="2048"/>
 </g>
</svg>
