<?xml version="1.0" encoding="UTF-8"?>
<!DOCTYPE svg PUBLIC "-//W3C//DTD SVG 1.1//EN" "http://www.w3.org/Graphics/SVG/1.1/DTD/svg11.dtd">
<!-- Creator: CorelDRAW -->
<svg xmlns="http://www.w3.org/2000/svg" xml:space="preserve" width="2048px" height="2048px" style="shape-rendering:geometricPrecision; text-rendering:geometricPrecision; image-rendering:optimizeQuality; fill-rule:evenodd; clip-rule:evenodd"
viewBox="0 0 2048 2048"
 xmlns:xlink="http://www.w3.org/1999/xlink">
 <defs>
  <style type="text/css">
   <![CDATA[
    .fil19 {fill:none}
    .fil7 {fill:#0D47A1}
    .fil8 {fill:#1A1A1A}
    .fil17 {fill:#212121}
    .fil16 {fill:#333333}
    .fil1 {fill:#424242}
    .fil10 {fill:#4D4D4D}
    .fil12 {fill:#616161}
    .fil14 {fill:#999999}
    .fil15 {fill:#B3B3B3}
    .fil9 {fill:#BDBDBD}
    .fil5 {fill:#CCCCCC}
    .fil11 {fill:#FFA000}
    .fil18 {fill:#0D47A1;fill-rule:nonzero}
    .fil3 {fill:#333333;fill-rule:nonzero}
    .fil13 {fill:#4D4D4D;fill-rule:nonzero}
    .fil2 {fill:#757575;fill-rule:nonzero}
    .fil4 {fill:#999999;fill-rule:nonzero}
    .fil0 {fill:#B3B3B3;fill-rule:nonzero}
    .fil6 {fill:#E6E6E6;fill-rule:nonzero}
   ]]>
  </style>
 </defs>
 <g id="Layer_x0020_1">
  <metadata id="CorelCorpID_0Corel-Layer"/>
  <path class="fil0" d="M834.108 546.221c2.66339,-8.0315 11.3339,-12.3827 19.3642,-9.71812 8.03032,2.66339 12.3815,11.3327 9.71812,19.3642l-53.8902 136.034c-2.66339,8.03032 -11.3339,12.3815 -19.3642,9.71812 -8.03032,-2.66339 -12.3815,-11.3339 -9.71812,-19.3642l53.8902 -136.034z"/>
  <polygon class="fil1" points="735.327,752.274 709.041,737.533 713.906,720.229 740.525,735.713 "/>
  <polygon class="fil2" points="835.042,1174.45 333.946,1181.64 335.118,1192.6 836.214,1185.41 "/>
  <g id="_357552384">
   <polygon id="_357553176" class="fil2" points="582.522,929.414 589.72,1430.51 600.681,1429.34 593.483,928.242 "/>
   <polygon id="_357553368" class="fil2" points="647.527,935.581 524.787,1421.47 535.676,1423.17 658.417,937.286 "/>
   <polygon id="_357553104" class="fil2" points="708.72,958.363 464.406,1395.92 474.483,1400.39 718.798,962.828 "/>
   <polygon id="_357553128" class="fil2" points="761.932,996.206 412.694,1355.62 421.272,1362.55 770.51,1003.13 "/>
   <polygon id="_357553296" class="fil2" points="803.536,1046.53 373.173,1303.31 379.668,1312.22 810.031,1055.44 "/>
   <polygon id="_357553512" class="fil2" points="830.697,1105.91 348.539,1242.56 352.507,1252.84 834.666,1116.19 "/>
   <polygon id="_357552840" class="fil2" points="835.397,1235.3 349.512,1112.56 347.808,1123.45 833.692,1246.19 "/>
   <polygon id="_357552264" class="fil2" points="812.616,1296.49 375.055,1052.18 370.589,1062.26 808.15,1306.57 "/>
   <polygon id="_357552720" class="fil2" points="774.772,1349.71 415.354,1000.47 408.433,1009.05 767.851,1358.29 "/>
   <polygon id="_357552168" class="fil2" points="724.446,1391.31 467.664,960.948 458.758,967.443 715.54,1397.81 "/>
   <polygon id="_357552432" class="fil2" points="665.066,1418.47 528.421,936.314 518.137,940.282 654.784,1422.44 "/>
   <path id="_357552672" class="fil3" d="M579.075 859.516c-88.3217,3.45945 -166.885,42.3945 -222.503,102.546 -55.617,60.1512 -88.2887,141.52 -84.8292,229.842 3.45827,88.3217 42.3957,166.886 102.546,222.503 60.1524,55.617 141.52,88.2887 229.842,84.8292 88.3205,-3.45945 166.885,-42.3957 222.502,-102.546 55.6158,-60.1512 88.2887,-141.52 84.8292,-229.842 -3.45827,-88.3217 -42.3945,-166.885 -102.546,-222.502 -60.15,-55.617 -141.519,-88.2898 -229.84,-84.8304zm-175.364 146.132c44.4567,-48.0827 107.264,-79.206 177.877,-81.9709 70.6134,-2.76614 135.663,23.3516 183.743,67.8071 48.0804,44.4567 79.206,107.264 81.9709,177.878 2.76614,70.6123 -23.3504,135.66 -67.8083,183.743 -44.4567,48.0815 -107.264,79.2048 -177.877,81.9709 -70.6123,2.76496 -135.662,-23.3504 -183.743,-67.8083 -48.0815,-44.4579 -79.2048,-107.264 -81.9709,-177.877 -2.76496,-70.6134 23.3516,-135.663 67.8083,-183.743z"/>
   <path id="_357552864" class="fil0" d="M581.348 917.587c-144.582,5.66221 -257.198,127.46 -251.536,272.042 5.66221,144.581 127.46,257.198 272.042,251.536 144.582,-5.66339 257.198,-127.461 251.536,-272.042 -5.66221,-144.582 -127.46,-257.199 -272.042,-251.536zm-163.421 101.205c41.0929,-44.4437 99.1477,-73.2119 164.418,-75.7678 65.2701,-2.55709 125.397,21.5847 169.839,62.6764 44.4426,41.0929 73.213,99.1489 75.769,164.418 2.55591,65.2701 -21.5835,125.397 -62.6776,169.84 -41.0929,44.4437 -99.1477,73.2119 -164.418,75.769 -65.2689,2.55591 -125.395,-21.5847 -169.839,-62.6776 -44.4437,-41.0941 -73.213,-99.1489 -75.769,-164.418 -2.55591,-65.2689 21.5847,-125.398 62.6776,-169.84z"/>
   <path id="_357552744" class="fil4" d="M587.841 1083.35c-26.5134,1.03819 -50.1012,12.7287 -66.7997,30.789 -16.6996,18.0603 -26.5099,42.4902 -25.4717,69.0036 1.03937,26.5146 12.7299,50.1012 30.7902,66.7973 18.0603,16.6996 42.4902,26.5087 69.0024,25.4705 26.5134,-1.03819 50.1012,-12.7287 66.8008,-30.789 16.6984,-18.0579 26.5087,-42.4866 25.4705,-69.0012 -1.03819,-26.5134 -12.7299,-50.1012 -30.7902,-66.7997 -18.0603,-16.6984 -42.489,-26.5087 -69.0024,-25.4705z"/>
  </g>
  <g id="_357551328">
   <polygon id="_357552216" class="fil2" points="1572.15,1421.66 1458.35,933.609 1447.89,937.089 1561.7,1425.14 "/>
   <polygon id="_357551784" class="fil2" points="1507.33,1429.49 1523.72,928.608 1512.72,929.264 1496.33,1430.14 "/>
   <polygon id="_357551544" class="fil2" points="1442.69,1420.27 1588.16,940.698 1577.36,938.483 1431.89,1418.05 "/>
   <polygon id="_357551616" class="fil2" points="1382.63,1394.63 1647.27,969.054 1637.41,964.119 1372.78,1389.7 "/>
   <polygon id="_357552000" class="fil2" points="1331.26,1354.33 1697.03,1011.74 1688.78,1004.42 1323.02,1347.01 "/>
   <polygon id="_357551880" class="fil2" points="1292.07,1302.1 1734.04,1065.85 1727.97,1056.65 1286,1292.9 "/>
   <polygon id="_357551952" class="fil2" points="1259.91,1176.68 1760.79,1193.07 1760.13,1182.07 1259.25,1165.68 "/>
   <polygon id="_357552072" class="fil2" points="1269.13,1112.04 1748.7,1257.51 1750.91,1246.71 1271.34,1101.24 "/>
   <polygon id="_357551808" class="fil2" points="1294.77,1051.99 1720.34,1316.62 1725.28,1306.76 1299.7,1042.13 "/>
   <polygon id="_357551424" class="fil2" points="1335.07,1000.61 1677.66,1366.38 1684.97,1358.14 1342.39,992.371 "/>
   <polygon id="_357551856" class="fil2" points="1387.3,961.424 1623.54,1403.39 1632.75,1397.33 1396.5,955.355 "/>
   <path id="_357550632" class="fil3" d="M1590.42 1489.22c85.5568,-22.2 154.019,-76.9808 195.543,-147.601 41.5229,-70.6205 56.1059,-157.083 33.9071,-242.639 -22.1988,-85.5556 -76.9819,-154.019 -147.601,-195.542 -70.6217,-41.5229 -157.082,-56.1071 -242.639,-33.9083 -85.5556,22.1988 -154.019,76.9819 -195.542,147.601 -41.5217,70.6205 -56.1059,157.082 -33.9071,242.639 22.1988,85.5556 76.9808,154.019 147.601,195.542 70.6205,41.5229 157.081,56.1071 242.638,33.9083zm140.199 -180.142c-33.1914,56.4508 -87.9237,100.241 -156.325,117.99 -68.4036,17.7484 -137.523,6.09095 -193.973,-27.0992 -56.4485,-33.1902 -100.241,-87.9237 -117.99,-156.326 -17.7473,-68.4012 -6.09213,-137.521 27.0992,-193.971 33.1914,-56.4508 87.9249,-100.243 156.326,-117.99 68.4012,-17.7484 137.522,-6.09213 193.971,27.0992 56.4508,33.1914 100.243,87.9237 117.991,156.326 17.7473,68.4012 6.09095,137.522 -27.1004,193.971z"/>
   <path id="_357551064" class="fil0" d="M1575.82 1432.97c140.055,-36.3402 224.133,-179.336 187.793,-319.392 -36.339,-140.055 -179.336,-224.134 -319.392,-187.794 -140.055,36.3402 -224.133,179.336 -187.793,319.392 36.339,140.055 179.336,224.133 319.392,187.794zm138.103 -133.703c-30.6792,52.1788 -81.2705,92.6564 -144.497,109.062 -63.2268,16.4055 -127.116,5.63032 -179.294,-25.0488 -52.1788,-30.6792 -92.6576,-81.2717 -109.063,-144.497 -16.4043,-63.2256 -5.63032,-127.115 25.0488,-179.295 30.6803,-52.1788 81.2717,-92.6564 144.497,-109.062 63.2268,-16.4055 127.116,-5.6315 179.295,25.0488 52.1788,30.6803 92.6576,81.2717 109.062,144.497 16.4055,63.2256 5.63032,127.116 -25.0488,179.295z"/>
   <path id="_357551112" class="fil4" d="M1534.16 1272.4c25.6819,-6.66378 46.2378,-23.1118 58.7044,-44.315 12.4677,-21.2043 16.8473,-47.1626 10.1835,-72.8457 -6.66497,-25.6843 -23.113,-46.239 -44.3162,-58.7032 -21.2032,-12.4677 -47.1626,-16.8473 -72.8457,-10.1835 -25.6831,6.66497 -46.2378,23.113 -58.7056,44.3162 -12.4677,21.202 -16.8473,47.1591 -10.1823,72.8434 6.66378,25.6831 23.1118,46.239 44.315,58.7056 21.2043,12.4677 47.1638,16.8473 72.8469,10.1823z"/>
  </g>
  <path class="fil5" d="M613.176 1170.29l17.5713 -42.2847 -31.6488 -13.1516 -17.8217 42.8882c-5.7189,2.41299 -10.5284,6.98859 -13.0984,13.1717 -2.59606,6.24922 -2.41418,12.9614 -0.0188977,18.7583 2.39173,5.79922 6.99922,10.6854 13.2484,13.2815 6.24922,2.59725 12.9602,2.41536 18.7595,0.0200788 5.79922,-2.39173 10.6843,-6.99922 13.2815,-13.2484 2.59725,-6.24922 2.41536,-12.9614 0.0188977,-18.7595 -0.0933072,-0.226772 -0.191339,-0.451181 -0.291733,-0.675591z"/>
  <path class="fil6" d="M1500.81 1129.91c-13.4221,0.525591 -25.363,6.4441 -33.8162,15.5858 -8.45316,9.14292 -13.4197,21.5103 -12.8941,34.9311 0.525591,13.4232 6.4441,25.363 15.587,33.815 9.14174,8.45316 21.5091,13.4197 34.9311,12.8941 13.4209,-0.525591 25.3618,-6.4441 33.815,-15.587 8.45316,-9.14056 13.4197,-21.5067 12.8941,-34.9299 -0.525591,-13.4209 -6.4441,-25.3618 -15.5858,-33.815 -9.14292,-8.45316 -21.5103,-13.4197 -34.9311,-12.8941z"/>
  <path class="fil1" d="M1495.83 1156.27l-42.163 -17.8606 -13.3677 31.5579 42.7654 18.1158c2.37402,5.73426 6.91654,10.5756 13.0819,13.187 6.2315,2.63977 12.9449,2.50394 18.7583,0.147638 5.81575,-2.35276 10.7327,-6.92599 13.3725,-13.1575 2.63858,-6.2315 2.50276,-12.9425 0.146457,-18.7583 -2.35158,-5.81575 -6.92481,-10.7327 -13.1563,-13.3725 -6.2315,-2.63977 -12.9461,-2.50394 -18.7595,-0.146457 -0.226772,0.0921261 -0.452363,0.187795 -0.677953,0.287008z"/>
  <polygon class="fil0" points="1262.47,654.246 1139.8,947.898 1165.96,958.257 1288.63,664.606 "/>
  <path class="fil7" d="M626.089 1147.11l132.713 -315.304 285.547 342.96 -2.5311 5.68465c-2.32559,5.22284 -2.61969,10.6701 0.173622,15.7677 3.91772,7.14686 12.5362,11.4614 20.5264,11.5748 10.5921,0.151181 17.8914,-6.5067 21.9827,-15.8421l2.53229 -5.77914 333.293 -10.6382c39.404,-1.25787 52.0713,-24.854 29.6811,-57.6272l-212.258 -310.682 19.2414 -48.3059 -40.8118 -16.1622 -153.534 385.433 -284.803 -342.069 8.86772 -20.6374 30.417 -70.7847 -40.6418 -16.8473 -191.098 452.385 40.702 16.8732zm478.594 -5.83819l113.464 -284.837 188.038 275.229 -301.501 9.60828z"/>
  <path class="fil8" d="M1261.42 745.817l-40.1103 -15.6886c-4.41615,-1.72795 -9.45591,-0.00354331 -11.4036,4.31811l-4.68426 10.3961 57.3378 21.8752 3.17953 -9.49725c1.50473,-4.49646 0.0968505,-9.6756 -4.31929,-11.4036z"/>
  <path class="fil8" d="M1310.27 618.205c-47.4886,24.5587 -178.787,-7.25788 -176.978,38.9197l0 0.00472441c1.37244,35.041 163.566,35.0882 194.987,38.2122 10.9453,1.0878 27.6355,-2.0374 27.2044,-13.0299 -0.969686,-24.7583 1.2685,-88.1457 -45.2138,-64.1067z"/>
  <path class="fil8" d="M824.199 683.098l-40.1091 -15.6886c-4.41733,-1.72795 -9.45591,-0.00354331 -11.4047,4.31811l-4.68426 10.3961 57.3378 21.8752 3.18071 -9.49725c1.50473,-4.49764 0.0968505,-9.6756 -4.32048,-11.4036z"/>
  <polygon class="fil9" points="1505.66,1169.42 1501.31,1172.16 1496.96,1174.9 1497.17,1180.04 1497.37,1185.18 1501.92,1187.57 1506.47,1189.97 1510.82,1187.23 1515.16,1184.48 1514.96,1179.35 1514.76,1174.21 1510.21,1171.81 "/>
  <polygon class="fil10" points="600.097,1180.21 597.325,1175.88 594.552,1171.55 589.415,1171.79 584.279,1172.02 581.915,1176.59 579.553,1181.16 582.325,1185.49 585.097,1189.82 590.234,1189.58 595.371,1189.34 597.734,1184.78 "/>
  <path class="fil1" d="M716.077 696.34l-17.048 -4.7941c-3.07796,-0.865749 -6.8563,0.842127 -7.1693,4.02284l-6.26221 63.8504c-0.312992,3.18071 0.944883,6.30355 4.02166,7.1693l6.21497 1.74685c3.07677,0.864568 6.30355,-0.943702 7.16812,-4.02166l17.0965 -60.8056c0.865749,-3.07796 -0.943702,-6.30355 -4.02166,-7.16812z"/>
  <path class="fil11" d="M711.812 695.141l-0.809056 -0.227953 -11.974 -3.36733c-3.07796,-0.865749 -6.8563,0.842127 -7.1693,4.02284l-6.26221 63.8504c-0.312992,3.18071 0.944883,6.30355 4.02166,7.16812l3.05433 0.859843 0.140551 0.0389764c6.02008,-23.2299 14.5713,-56.0622 18.998,-72.3449z"/>
  <path class="fil1" d="M716.077 696.34l-4.26496 -1.19882c-4.42678,16.2827 -12.978,49.115 -18.998,72.3449l3.02008 0.850394c3.07677,0.863386 6.30355,-0.944883 7.16812,-4.02402l17.0977 -60.8056c0.864568,-3.07677 -0.944883,-6.30119 -4.02284,-7.16693z"/>
  <circle class="fil12" transform="matrix(-1.14054 0.0446697 0.0446697 1.14054 1066.85 1185.66)" r="86.6918"/>
  <path class="fil13" d="M1052.91 1082.64c-24.6414,3.30473 -46.4233,15.1878 -62.3823,32.4485 -18.0614,19.5331 -28.6713,45.9591 -27.5481,74.6398 1.12323,28.6807 13.7681,54.1961 33.3012,72.2575 19.5331,18.0603 45.9579,28.6701 74.6398,27.5469 80.9883,-3.17126 189.288,-20.1673 290.378,-36.0319 31.5733,-4.95355 136.987,-13.8567 163.858,-26.2465l-0.00354331 -0.00708662c6.47717,-2.98583 12.228,-7.19646 16.9524,-12.3059 4.72559,-5.10945 8.47087,-11.1721 10.9429,-17.8618l0.00708662 0.00354331c2.37756,-6.43583 3.55394,-13.4197 3.27047,-20.661 -0.283465,-7.24134 -2.00315,-14.113 -4.87559,-20.3421l-0.00708662 0.00354331c-2.98819,-6.47717 -7.19764,-12.2291 -12.3071,-16.9524l-0.0188977 0c-4.77284,-4.41142 -10.3571,-7.96654 -16.4906,-10.4221 -5.863,-2.34567 -12.2256,-3.68859 -18.8563,-3.81496l-52.8827 -5.68347 5.99882 10.7681 46.0831 4.8626 0.431103 0.022441c5.46615,0.0779528 10.7043,1.17047 15.5221,3.09921 4.98071,1.9937 9.5315,4.89331 13.435,8.49922l-0.00944883 0.00944883c4.19882,3.88347 7.63347,8.55709 10.0382,13.7752l0 0.0200788c2.32205,5.03504 3.71339,10.6217 3.94488,16.5473 0.232677,5.92323 -0.718111,11.602 -2.63858,16.8036l0.0011811 0.0200788c-1.99016,5.38937 -5.04685,10.3169 -8.93032,14.5158 -3.88111,4.19882 -8.55591,7.63347 -13.774,10.037l-0.0200788 0.0011811c-27.6414,12.7417 -142.769,22.5496 -161.192,25.4398 -100.76,15.8126 -208.706,32.7532 -289.249,35.9079 -25.9252,1.01457 -49.8083,-8.57363 -67.4599,-24.8953 -17.6516,-16.3217 -29.0799,-39.3815 -30.0957,-65.3067 -1.01457,-25.9252 8.57481,-49.8095 24.8953,-67.4611 14.4555,-15.6331 34.1977,-26.3847 56.5335,-29.3445 21.0414,-2.78268 54.4678,3.17008 73.5036,5.0504l264.176 24.3461 7.33111 -0.180709 -6.94843 -9.99213 -267.163 -24.4819c-22.611,-2.21811 -49.943,-7.63938 -72.391,-4.63347z"/>
  <circle class="fil14" transform="matrix(-0.999234 0.0391353 0.0391353 0.999234 1066.85 1185.66)" r="32.7957"/>
  <path class="fil15" d="M1066.59 1170.07l-0.0011811 0c-9.60001,0 -17.9339,7.86733 -17.4532,17.4532l8.00788 159.37c0.664961,13.2555 14.6126,13.5319 15.5728,0l11.3268 -159.37c0.679134,-9.5752 -7.85316,-17.4532 -17.4532,-17.4532z"/>
  <rect class="fil16" x="1008.4" y="1343.23" width="110.387" height="39.8433" rx="10.2354" ry="10.2354"/>
  <path class="fil0" d="M863.032 524.366c8.23465,1.91339 13.3559,10.1445 11.4413,18.3791 -1.91457,8.23347 -10.1445,13.3559 -18.3791,11.4413 -39.267,-9.10867 -27.724,-10.2685 -63.1182,-11.7945 -33.2752,-1.43504 -61.0843,1.22126 -76.3595,9.36379 -12.163,6.48308 -20.5453,14.5784 -25.0961,23.5347 -4.28622,8.4378 -5.26772,17.9811 -2.87244,27.9012 4.67008,19.3488 17.1697,48.1725 46.9985,66.3272 7.24134,4.38898 14.0445,5.81103 9.65552,13.0524 -4.38898,7.24134 -10.891,6.42638 -18.1323,2.0374 -20.6291,-12.5551 -31.0028,-32.1614 -42.13,-46.8626 -2.12599,-2.81103 -12.4854,2.94685 -14.2689,0.100394 -5.70709,-9.10513 -9.65906,-18.3567 -11.8689,-27.5138 -4.1315,-17.1177 -2.30433,-33.8516 5.3563,-48.9296 7.39607,-14.5583 20.1059,-27.2292 37.9725,-36.7536 18.9768,-10.115 52.2166,-13.774 91.3808,-12.3567 37.8201,1.36772 28.0465,2.47441 69.4205,12.0732z"/>
  <g id="_357556056">
   <path id="_357556584" class="fil17" d="M745.466 670.952l-54.8764 -53.5418 -19.6654 20.1567 54.8764 53.5406c-0.809056,2.71299 -0.126378,5.77914 2.03032,7.88268l0 0c3.09213,3.01654 8.08583,2.95512 11.1024,-0.137008l14.5996 -14.9646c3.01654,-3.09095 2.95512,-8.08465 -0.137008,-11.1012l0 0c-2.15551,-2.10354 -5.23819,-2.71063 -7.92993,-1.83543z"/>
   <rect id="_357556512" class="fil16" transform="matrix(-0.123197 -0.1202 -1.32748 1.36058 701.751 613.218)" width="62.8914" height="26.1721" rx="5.413" ry="5.413"/>
  </g>
  <polygon class="fil18" points="768.001,757.098 1214.9,757.098 1214.9,792.099 768.001,792.099 "/>
  <rect class="fil19" width="2048" height="2048"/>
 </g>
</svg>
