<?xml version="1.0" encoding="UTF-8"?>
<!DOCTYPE svg PUBLIC "-//W3C//DTD SVG 1.1//EN" "http://www.w3.org/Graphics/SVG/1.1/DTD/svg11.dtd">
<!-- Creator: CorelDRAW -->
<svg xmlns="http://www.w3.org/2000/svg" xml:space="preserve" width="2048px" height="2048px" style="shape-rendering:geometricPrecision; text-rendering:geometricPrecision; image-rendering:optimizeQuality; fill-rule:evenodd; clip-rule:evenodd"
viewBox="0 0 2048 2048"
 xmlns:xlink="http://www.w3.org/1999/xlink">
 <defs>
  <style type="text/css">
   <![CDATA[
    .fil6 {fill:none}
    .fil3 {fill:#DA6203;fill-rule:nonzero}
    .fil5 {fill:#E3841D;fill-rule:nonzero}
    .fil4 {fill:#E79222;fill-rule:nonzero}
    .fil0 {fill:#EF6C00;fill-rule:nonzero}
    .fil2 {fill:#FB961F;fill-rule:nonzero}
    .fil1 {fill:#FFA726;fill-rule:nonzero}
   ]]>
  </style>
 </defs>
 <g id="Layer_x0020_1">
  <metadata id="CorelCorpID_0Corel-Layer"/>
  <g id="_356969344">
   <g>
    <path id="_356970304" class="fil0" d="M911.985 370.843c0,-31.4292 12.3862,-59.9693 32.4189,-80.7154 20.3669,-21.0921 48.5008,-34.1292 79.5792,-34.1292 31.0394,0 59.1579,13.0441 79.5083,34.1422 20.015,20.7484 32.4,49.2839 32.4,80.7024 0,31.4292 -12.3815,59.954 -32.3906,80.6942 -20.3551,21.098 -48.4772,34.1315 -79.5178,34.1315 -31.0689,0 -59.1886,-13.0595 -79.5497,-34.1398 -20.0504,-20.7579 -32.4485,-49.3122 -32.4485,-80.6859z"/>
    <path id="_356970640" class="fil1" d="M924.901 422.059c5.2689,-4.75748 10.5236,-9.50316 16.1114,-13.6299l0.0153543 0.0200788c10.7067,-7.94056 25.7079,-8.57245 37.2355,-0.519685 17.8606,12.4583 32.674,19.0654 46.0949,19.2307 12.8811,0.158268 26.9528,-5.78032 44.0067,-18.3626 11.0173,-8.51575 26.7638,-9.07087 38.5004,-0.368504 5.5878,4.12677 10.8425,8.87245 16.1114,13.6299 7.44804,6.72638 14.9634,13.5142 19.1681,13.5142 10.9122,0 23.3327,-4.91103 32.1095,-8.38111 4.56615,-1.80473 8.4756,-3.35197 12.8032,-4.59331l0.0330709 0.115748c10.5012,-3.0189 29.2925,-4.74449 48.1087,2.76378 12.3142,4.91457 24.7028,13.5201 34.8886,27.8173 2.10591,2.69055 3.8126,5.76615 4.99961,9.17127 18.8776,54.3367 -7.81772,82.239 -32.9646,108.523 -4.92756,5.14843 -9.75828,10.2 -13.2496,15.0165 -0.752363,1.17284 -1.58977,2.31024 -2.51457,3.40276 -21.6803,25.6158 -43.702,64.5957 -58.3441,111.562 -9.40631,30.1736 -15.6579,63.4394 -16.6831,98.3056 13.6252,-0.294095 27.5906,-0.281103 36.9815,1.04764 28.6122,4.06181 48.365,20.2925 59.3138,41.2382 6.24686,11.948 9.40276,25.3819 9.49489,38.8004 0.0921261,13.1693 -2.82992,26.524 -8.73308,38.5843 -10.6547,21.7689 -30.4583,39.0886 -59.2004,43.904 -14.2335,2.38229 -30.1725,2.14016 -44.4662,1.50236 -4.3878,32.3882 0.970867,76.0914 11.5488,123.553 18.574,83.3386 53.4544,176.38 81.5894,243.991 40.8225,6.99331 66.5245,33.4784 78.7276,64.5284 4.79174,12.1961 7.34882,25.2579 7.78347,38.1496 0.441733,13.0866 -1.30512,25.8957 -5.11418,37.3925 -3.49843,10.5602 -8.5689,20.1933 -15.1465,28.3335 6.24213,6.44056 11.7744,12.9933 16.5614,19.6465 14.2429,19.7929 21.9591,40.5555 22.3725,62.0563 0.361418,18.9248 -8.04095,49.1398 -27.0532,72.5304 -3.26575,4.01811 -6.83741,7.87442 -10.7232,11.4921 5.57599,6.30709 10.6382,13.0063 15.1122,19.976 13.8248,21.5351 22.304,46.1516 23.3374,70.2296 0.145276,1.23543 0.222047,2.49331 0.222047,3.76772 0,17.6728 -14.328,32.0008 -32.0008,32.0008l-576 0 0 -0.125197 -0.375591 0c-17.6043,-0.206693 -31.7067,-14.6469 -31.5,-32.2512 0.344882,-25.1481 8.95985,-51.0744 23.4343,-73.6217 4.47402,-6.96969 9.53623,-13.6689 15.1122,-19.976 -3.88583,-3.61772 -7.45749,-7.47402 -10.7232,-11.4921 -19.0122,-23.3906 -27.4146,-53.6056 -27.0532,-72.5304 0.413386,-21.5008 8.12953,-42.2634 22.3725,-62.0563 4.79292,-6.66024 10.3323,-13.2201 16.5815,-19.6677 -6.59174,-8.12953 -11.6693,-17.7567 -15.1665,-28.3122 -3.80906,-11.4957 -5.55591,-24.3071 -5.11418,-37.3914 0.434646,-12.8929 2.98937,-25.9536 7.78347,-38.1508 12.2032,-31.05 37.9051,-57.5351 78.7276,-64.5284 28.1351,-67.6111 63.0154,-160.652 81.5894,-243.991 10.578,-47.4615 15.9366,-91.1646 11.5488,-123.553 -14.2937,0.637796 -30.2327,0.879922 -44.4662,-1.50236 -28.7421,-4.81536 -48.5457,-22.1351 -59.2004,-43.9028 -5.90079,-12.0602 -8.82284,-25.4138 -8.73308,-38.5855 0.0921261,-13.4173 3.24803,-26.8524 9.49489,-38.8004 10.9488,-20.9469 30.7016,-37.1788 59.3138,-41.2382 9.39095,-1.32874 23.3563,-1.34173 36.9815,-1.04764 -1.0252,-34.8662 -7.27678,-68.1319 -16.6831,-98.3056 -14.6421,-46.9666 -36.6638,-85.9465 -58.3441,-111.562l0.0236221 -0.0200788c-0.664961,-0.787796 -1.30039,-1.61457 -1.89803,-2.48032 -3.52677,-5.08701 -8.65394,-10.448 -13.8898,-15.9189 -25.1469,-26.2843 -51.8422,-54.1867 -32.9646,-108.523l0.0330709 0.011811c0.892914,-2.55591 2.12599,-5.03977 3.71693,-7.38662 10.4114,-15.3803 23.3162,-24.4961 36.1382,-29.6138 16.6276,-6.63544 33.2351,-6.05788 44.1201,-3.75118 1.34055,0.201969 2.68347,0.491339 4.02166,0.871654 4.32756,1.24134 8.23701,2.78858 12.8032,4.59331 8.77678,3.47008 21.1973,8.38111 32.1095,8.38111 4.20473,0 11.7201,-6.7878 19.1681,-13.5142z"/>
    <path id="_356970712" class="fil2" d="M1306.81 1667.79c4.97126,5.78622 9.51497,11.8866 13.5732,18.2091 13.8248,21.5351 22.304,46.1516 23.3374,70.2296 0.145276,1.23543 0.222047,2.49331 0.222047,3.76772 0,17.6728 -14.328,32.0008 -32.0008,32.0008l-576 0 0 -0.125197 -0.375591 0c-17.6043,-0.206693 -31.7067,-14.6469 -31.5,-32.2512 0.344882,-25.1481 8.95985,-51.0744 23.4343,-73.6217 4.05827,-6.32245 8.60198,-12.4228 13.5732,-18.2091l565.737 0z"/>
    <path id="_356970208" class="fil1" d="M1304.15 1500.35c6.22441,6.42638 11.7413,12.9638 16.5177,19.6016 14.2429,19.7929 21.9591,40.5555 22.3725,62.0563 0.361418,18.9248 -8.04095,49.1398 -27.0532,72.5304 -3.26575,4.01811 -6.83741,7.87442 -10.7232,11.4921 0.517323,0.585827 1.0311,1.17402 1.53898,1.76693l-565.737 0c0.507874,-0.592914 1.02165,-1.1811 1.53898,-1.76693 -3.88583,-3.61772 -7.45749,-7.47402 -10.7232,-11.4921 -19.0122,-23.3906 -27.4146,-53.6056 -27.0532,-72.5304 0.413386,-21.5008 8.12953,-42.2634 22.3725,-62.0563 4.77638,-6.6378 10.2945,-13.1752 16.5177,-19.6016l560.431 0z"/>
    <path id="_356970040" class="fil2" d="M1242.99 1332.9c37.852,8.25946 61.9099,33.7996 73.5934,63.5268 4.79174,12.1961 7.34882,25.2579 7.78347,38.1496 0.441733,13.0866 -1.30512,25.8957 -5.11418,37.3925 -3.49843,10.5602 -8.5689,20.1933 -15.1465,28.3335l0.0437008 0.0448819 -560.431 0 0.0637796 -0.0661418c-6.59174,-8.12953 -11.6693,-17.7567 -15.1665,-28.3122 -3.80906,-11.4957 -5.55591,-24.3071 -5.11418,-37.3914 0.434646,-12.8929 2.98937,-25.9536 7.78347,-38.1508 11.6835,-29.7272 35.7414,-55.2674 73.5934,-63.5268l438.111 0z"/>
    <path id="_356970064" class="fil2" d="M1185.68 799.999c0.910631,0.0992127 1.78701,0.206693 2.62795,0.325985 28.6122,4.06181 48.365,20.2925 59.3138,41.2382 6.24686,11.948 9.40276,25.3819 9.49489,38.8004 0.0921261,13.1693 -2.82992,26.524 -8.73308,38.5843 -10.6547,21.7689 -30.4583,39.0886 -59.2004,43.904 -14.2335,2.38229 -30.1725,2.14016 -44.4662,1.50236l-0.0744095 0.572835 -241.418 0 -0.0744095 -0.572835c-14.2937,0.637796 -30.2327,0.879922 -44.4662,-1.50236 -28.7421,-4.81536 -48.5457,-22.1351 -59.2004,-43.9028 -5.90079,-12.0602 -8.82284,-25.4138 -8.73308,-38.5855 0.0921261,-13.4173 3.24803,-26.8524 9.49489,-38.8004 10.9488,-20.9469 30.7016,-37.1788 59.3138,-41.2382 0.840946,-0.119291 1.71732,-0.226772 2.62795,-0.325985l323.492 0z"/>
   </g>
   <g>
    <path id="_356969848" class="fil3" d="M911.985 370.843c0,-31.4292 12.3862,-59.9693 32.4189,-80.7154 20.3669,-21.0921 48.5008,-34.1292 79.5792,-34.1292l0.0188977 0 0 229.67 -0.0188977 0c-31.0689,0 -59.1886,-13.0595 -79.5497,-34.1398 -20.0504,-20.7579 -32.4485,-49.3122 -32.4485,-80.6859z"/>
    <path id="_356969608" class="fil4" d="M924.901 422.059c5.2689,-4.75748 10.5236,-9.50316 16.1114,-13.6299l0.0153543 0.0200788c10.7067,-7.94056 25.7079,-8.57245 37.2355,-0.519685 17.7036,12.3484 32.413,18.9473 45.7394,19.2236l0 1364.85 -288.064 0 0 -0.125197 -0.375591 0c-17.6043,-0.206693 -31.7067,-14.6469 -31.5,-32.2512 0.344882,-25.1481 8.95985,-51.0744 23.4343,-73.6217 4.47402,-6.96969 9.53623,-13.6689 15.1122,-19.976 -3.88583,-3.61772 -7.45749,-7.47402 -10.7232,-11.4921 -19.0122,-23.3906 -27.4146,-53.6056 -27.0532,-72.5304 0.413386,-21.5008 8.12953,-42.2634 22.3725,-62.0563 4.79292,-6.66024 10.3323,-13.2201 16.5815,-19.6677 -6.59174,-8.12953 -11.6693,-17.7567 -15.1665,-28.3122 -3.80906,-11.4957 -5.55591,-24.3071 -5.11418,-37.3914 0.434646,-12.8929 2.98937,-25.9536 7.78347,-38.1508 12.2032,-31.05 37.9051,-57.5351 78.7276,-64.5284 28.1351,-67.6111 63.0154,-160.652 81.5894,-243.991 10.578,-47.4615 15.9366,-91.1646 11.5488,-123.553 -14.2937,0.637796 -30.2327,0.879922 -44.4662,-1.50236 -28.7421,-4.81536 -48.5457,-22.1351 -59.2004,-43.9028 -5.90079,-12.0602 -8.82284,-25.4138 -8.73308,-38.5855 0.0921261,-13.4173 3.24803,-26.8524 9.49489,-38.8004 10.9488,-20.9469 30.7016,-37.1788 59.3138,-41.2382 9.39095,-1.32874 23.3563,-1.34173 36.9815,-1.04764 -1.0252,-34.8662 -7.27678,-68.1319 -16.6831,-98.3056 -14.6421,-46.9666 -36.6638,-85.9465 -58.3441,-111.562l0.0236221 -0.0200788c-0.664961,-0.787796 -1.30039,-1.61457 -1.89803,-2.48032 -3.52677,-5.08701 -8.65394,-10.448 -13.8898,-15.9189 -25.1469,-26.2843 -51.8422,-54.1867 -32.9646,-108.523l0.0330709 0.011811c0.892914,-2.55591 2.12599,-5.03977 3.71693,-7.38662 10.4114,-15.3803 23.3162,-24.4961 36.1382,-29.6138 16.6276,-6.63544 33.2351,-6.05788 44.1201,-3.75118 1.34055,0.201969 2.68347,0.491339 4.02166,0.871654 4.32756,1.24134 8.23701,2.78858 12.8032,4.59331 8.77678,3.47008 21.1973,8.38111 32.1095,8.38111 4.20473,0 11.7201,-6.7878 19.1681,-13.5142z"/>
    <path id="_356969560" class="fil5" d="M1024 1792l-288.064 0 0 -0.125197 -0.375591 0c-17.6043,-0.206693 -31.7067,-14.6469 -31.5,-32.2512 0.344882,-25.1481 8.95985,-51.0744 23.4343,-73.6217 4.05827,-6.32245 8.60198,-12.4228 13.5732,-18.2091l282.932 0 0 124.207z"/>
    <path id="_356969080" class="fil4" d="M1024 1667.79l-282.932 0c0.507874,-0.592914 1.02165,-1.1811 1.53898,-1.76693 -3.88583,-3.61772 -7.45749,-7.47402 -10.7232,-11.4921 -19.0122,-23.3906 -27.4146,-53.6056 -27.0532,-72.5304 0.413386,-21.5008 8.12953,-42.2634 22.3725,-62.0563 4.77638,-6.6378 10.2945,-13.1752 16.5177,-19.6016l280.279 0 0 167.447z"/>
    <path id="_356968816" class="fil5" d="M1024 1500.35l-280.279 0 0.0637796 -0.0661418c-6.59174,-8.12953 -11.6693,-17.7567 -15.1665,-28.3122 -3.80906,-11.4957 -5.55591,-24.3071 -5.11418,-37.3914 0.434646,-12.8929 2.98937,-25.9536 7.78347,-38.1508 11.6835,-29.7272 35.7414,-55.2674 73.5934,-63.5268l219.119 0 0 167.447z"/>
    <path id="_356968696" class="fil5" d="M1024 964.927l-120.773 0 -0.0744095 -0.572835c-14.2937,0.637796 -30.2327,0.879922 -44.4662,-1.50236 -28.7421,-4.81536 -48.5457,-22.1351 -59.2004,-43.9028 -5.90079,-12.0602 -8.82284,-25.4138 -8.73308,-38.5855 0.0921261,-13.4173 3.24803,-26.8524 9.49489,-38.8004 10.9488,-20.9469 30.7016,-37.1788 59.3138,-41.2382 0.840946,-0.119291 1.71732,-0.226772 2.62795,-0.325985l161.81 0 0 164.928z"/>
   </g>
  </g>
  <rect class="fil6" width="2048" height="2048"/>
 </g>
</svg>
