<?xml version="1.0" encoding="UTF-8"?>
<!DOCTYPE svg PUBLIC "-//W3C//DTD SVG 1.1//EN" "http://www.w3.org/Graphics/SVG/1.1/DTD/svg11.dtd">
<!-- Creator: CorelDRAW -->
<svg xmlns="http://www.w3.org/2000/svg" xml:space="preserve" width="2048px" height="2048px" style="shape-rendering:geometricPrecision; text-rendering:geometricPrecision; image-rendering:optimizeQuality; fill-rule:evenodd; clip-rule:evenodd"
viewBox="0 0 2048 2048"
 xmlns:xlink="http://www.w3.org/1999/xlink">
 <defs>
  <style type="text/css">
   <![CDATA[
    .fil2 {fill:none}
    .fil0 {fill:#003399}
    .fil1 {fill:#FCC901}
   ]]>
  </style>
 </defs>
 <g id="Layer_x0020_1">
  <metadata id="CorelCorpID_0Corel-Layer"/>
  <rect class="fil0" x="255.999" y="562.5" width="1536" height="923"/>
  <polygon class="fil1" points="903.337,794.998 931.92,775.126 897.106,775.126 886.978,742.582 875.871,775.126 840.96,775.126 869.086,794.926 858.589,825.656 885.999,806.896 912.765,825.851 "/>
  <polygon class="fil1" points="1052.11,789.722 1042.69,758.875 1071.26,738.996 1036.46,738.996 1026.33,706.453 1015.22,738.996 980.304,738.996 1008.43,758.794 997.939,789.527 1025.34,770.773 "/>
  <polygon class="fil1" points="1186.69,825.851 1177.27,794.998 1205.86,775.126 1171.03,775.126 1160.91,742.582 1149.81,775.126 1114.89,775.126 1143.02,794.926 1132.52,825.656 1159.92,806.896 "/>
  <polygon class="fil1" points="1277.3,893.852 1305.89,873.977 1271.09,873.977 1260.94,841.437 1249.84,873.977 1214.93,873.977 1243.05,893.777 1232.57,924.507 1259.96,905.747 1286.74,924.701 "/>
  <polygon class="fil1" points="1324.84,1065.24 1315.41,1034.39 1344,1014.51 1309.2,1014.51 1299.05,981.972 1287.95,1014.51 1253.06,1014.51 1281.16,1034.31 1270.69,1065.04 1298.08,1046.28 "/>
  <polygon class="fil1" points="1287.93,1202.2 1278.5,1171.35 1307.08,1151.48 1272.28,1151.48 1262.14,1118.93 1251.03,1151.48 1216.13,1151.48 1244.24,1171.29 1233.76,1202.01 1261.15,1183.25 "/>
  <polygon class="fil1" points="1179.64,1273.78 1208.23,1253.91 1173.42,1253.91 1163.29,1221.36 1152.18,1253.91 1117.28,1253.91 1145.4,1273.7 1134.91,1304.44 1162.31,1285.68 1189.08,1304.63 "/>
  <polygon class="fil1" points="1042.69,1310.7 1071.26,1290.83 1036.46,1290.83 1026.33,1258.28 1015.22,1290.83 980.304,1290.83 1008.43,1310.63 997.939,1341.35 1025.34,1322.59 1052.11,1341.55 "/>
  <polygon class="fil1" points="902.144,1273.78 930.729,1253.91 895.914,1253.91 885.786,1221.36 874.68,1253.91 839.774,1253.91 867.896,1273.7 857.397,1304.44 884.808,1285.68 911.574,1304.63 "/>
  <polygon class="fil1" points="804.479,1171.35 833.069,1151.48 798.253,1151.48 788.127,1118.93 777.021,1151.48 742.108,1151.48 770.236,1171.29 759.736,1202.01 787.143,1183.25 813.914,1202.2 "/>
  <polygon class="fil1" points="775.804,1065.24 766.369,1034.39 794.958,1014.51 760.145,1014.51 750.016,981.972 738.91,1014.51 703.998,1014.51 732.121,1034.31 721.628,1065.04 749.032,1046.28 "/>
  <polygon class="fil1" points="815.104,924.701 805.677,893.852 834.255,873.977 799.446,873.977 789.318,841.437 778.211,873.977 743.299,873.977 771.421,893.777 760.929,924.507 788.333,905.747 "/>
 </g>
 <rect class="fil2" width="2048" height="2048"/>
</svg>
