<?xml version="1.0" encoding="UTF-8"?>
<!DOCTYPE svg PUBLIC "-//W3C//DTD SVG 1.1//EN" "http://www.w3.org/Graphics/SVG/1.1/DTD/svg11.dtd">
<!-- Creator: CorelDRAW -->
<svg xmlns="http://www.w3.org/2000/svg" xml:space="preserve" width="6.82666in" height="6.82666in" style="shape-rendering:geometricPrecision; text-rendering:geometricPrecision; image-rendering:optimizeQuality; fill-rule:evenodd; clip-rule:evenodd"
viewBox="0 0 6.82666 6.82666"
 xmlns:xlink="http://www.w3.org/1999/xlink">
 <defs>
  <style type="text/css">
   <![CDATA[
    .fil10 {fill:none}
    .fil9 {fill:#282928}
    .fil4 {fill:#C8E09A}
    .fil6 {fill:#D96609}
    .fil3 {fill:#E65100}
    .fil5 {fill:#EF6C00}
    .fil2 {fill:#F4FAF8}
    .fil7 {fill:#FB8C00}
    .fil8 {fill:#FEFEFE}
    .fil0 {fill:#FF9100}
    .fil1 {fill:#FFAB40}
   ]]>
  </style>
 </defs>
 <g id="Layer_x0020_1">
  <metadata id="CorelCorpID_0Corel-Layer"/>
  <path class="fil0" d="M5.99776 3.54453c0.0102165,-0.0195472 -0.599933,-0.837079 -1.62532,-0.89987 -0.532327,-0.0325945 -0.976311,0.113413 -1.31142,0.259409 -0.310437,0.135232 -0.527465,0.270488 -0.634795,0.263768 -0.223248,-0.0139252 -0.753378,-0.641736 -1.33931,-0.578972 0,-7.87402e-006 0.251118,0.202283 0.397602,0.306917 0.146504,0.104634 0.282512,0.390661 0.303425,0.474366 0,0 -0.212764,0.181343 -0.345295,0.327874 -0.132539,0.146484 -0.432488,0.327835 -0.613866,0.320866 0.0348858,0.0348661 0.605913,0.231799 1.17193,-0.237193 0.244154,-0.202287 0.467374,-0.13952 0.655709,-0.0278976 0.18835,0.111598 0.739429,0.481354 1.54861,0.488311 0.809173,0.00698031 1.63228,-0.390638 1.79274,-0.697579z"/>
  <path class="fil1" d="M4.69274 2.69014c-0.219047,-0.00627559 -0.542122,0.00718898 -0.878366,0.101008 -0.599913,0.167441 -1.0603,0.488339 -1.19982,0.646406 -0.0640591,0.0726102 -0.17124,0.148146 -0.274748,0.212217 -0.107051,-0.00198031 -0.22061,0.0337598 -0.33911,0.131953 -0.0953268,0.0789843 -0.19078,0.139008 -0.283811,0.184169 -0.0648307,0.0267047 -0.134465,0.053685 -0.205205,0.0784449 -0.367587,0.104122 -0.658315,-0.00088189 -0.682882,-0.0254488 0.181362,0.0069685 0.481299,-0.174382 0.613858,-0.320886 0.132531,-0.146488 0.345276,-0.327854 0.345276,-0.327854 -0.0209173,-0.0837047 -0.156941,-0.369705 -0.303425,-0.474339 -0.146492,-0.104642 -0.397602,-0.306917 -0.397602,-0.306917 0.027878,-0.00299213 0.0556535,-0.00441339 0.0832638,-0.00441339 0.552469,0 1.04346,0.57011 1.25605,0.583386l0 -7.87402e-006c0.107331,0.00672047 0.324386,-0.128528 0.634776,-0.263764 0.335122,-0.146008 0.779083,-0.29198 1.31142,-0.259406 0.111803,0.00684646 0.218665,0.0226693 0.320327,0.0454528z"/>
  <path class="fil2" d="M3.08119 3.98652l-0.000590551 -0.000267717 0.000582677 0.000267717 7.87402e-006 0zm-0.000590551 -0.000267717l-0.00152756 -0.000708661 0.000996063 0.000464567 0.000531496 0.000244094zm-0.0197559 -0.00918504l-0.00504724 -0.00237795 0.00167323 0.000799213 0.00106693 0.000507874 0.00125591 0.000586614 0.00105118 0.000484252zm-0.0215866 -0.0102323l-0.00441339 -0.00211024 -0.016248 -0.00785827 -0.00512598 -0.00250787 0.00169291 0.000834646 0.000649606 0.000318898 0.00147244 0.000720472 0.0189252 0.00914961 0.0015315 0.00073622 0.00151575 0.000716535zm-0.0425276 -0.0207402l-0.00157087 -0.000775591 8.26772e-005 3.93701e-005 0.00148819 0.00073622zm-0.00157087 -0.000775591l-6.69291e-005 -4.33071e-005 -1.5748e-005 0 -0.00149606 -0.000751969 0.00151181 0.000751969m-0.0216654 -0.0108937l-0.0158858 -0.00811811c0.00524016,0.00270472 0.0105315,0.00540945 0.015874,0.00811811l1.1811e-005 0zm-0.0380748 -0.0196535l-0.016689 -0.0088189 0.00302362 0.0016063 0.0136654 0.0072126zm-0.016689 -0.0088189l-0.00133465 -0.000700787 -0.00061811 -0.000334646 -7.87402e-006 -7.87402e-006 0.000625984 0.00034252m-0.0520709 -0.0283346l-0.00101969 -0.000566929 0.00459843 0.00254724 -0.00357874 -0.00198031zm-0.00101969 -0.000566929l-0.000188976 -0.000102362 0.000188976 0.000102362zm-0.000188976 -0.000102362l-0.00121654 -0.000685039 -0.00314961 -0.00175591 -0.00451969 -0.00252756 -0.00448819 -0.00251181 0.0121575 0.00679528m-0.0121575 -0.00679528l-0.00340157 -0.00190551 0.00340157 0.00190551zm-0.00340157 -0.00190551l-0.00105118 -0.000594488 0.00105118 0.000594488zm-0.00105118 -0.000594488l-0.0131417 -0.00743701 7.87402e-006 0 0.00434252 0.00246457 0.00437795 0.00248031 0.00441339 0.00249213zm-0.0174409 -0.00988976l-0.0127126 -0.00727953 7.87402e-006 -7.87402e-006 -0.000866142 -0.000488189 0.000858268 0.000496063m-0.000858268 -0.000496063l-0.00329921 -0.00190551 0.00329921 0.00190551zm-0.00329921 -0.00190551l-0.00412598 -0.00238583 0.00412598 0.00238583zm-0.00412598 -0.00238583l-0.00409055 -0.00237008 0 -3.93701e-006 0.00409055 0.00237402zm-0.00785827 -0.00455512l-0.000287402 -0.000169291 -0.00401575 -0.00234252 0.000641732 0.000374016 0.00742913 0.0043189 -0.00376772 -0.0021811zm-0.00430315 -0.00251181l-0.00398425 -0.00233071 0.00398425 0.00233071zm0.0331575 0.0191299l0.0022126 0.00126772 0.00209449 0.00118898m0.0825748 0.0455276l0.00103937 0.000551181 -0.00034252 -0.000177165 -0.00069685 -0.000374016zm-0.0868819 -0.0479803l0 -3.93701e-006m-0.25624 -0.147236l0 -7.87402e-006c-0.0733031,-0.0344055 -0.151098,-0.0578268 -0.232709,-0.0593189 -7.87402e-006,-7.87402e-006 1.9685e-005,0 0,0 0.0671142,0.00124803 0.131685,0.0173228 0.193272,0.042122l0.000322835 0.000129921 0.000102362 3.93701e-005 0.00681102 0.0027874 0.00102756 0.000429134 0.000255906 0.000110236c0.00783858,0.00327165 0.0156299,0.0066811 0.023374,0.0102165l0.000437008 0.000200787 0.00704331 0.00326378 6.29921e-005 1.9685e-005 0.00026378 0.000129921 0.000661417 0.000314961 0.00615354 0.00292126 -0.00681496 -0.00323622 -0.00026378 -0.000122047z"/>
  <path class="fil3" d="M4.23136 4.24211c0.00825591,-2.75591e-005 0.0165276,-7.48031e-005 0.0247835,-0.000177165l0.0117205 -0.000169291c0.0082126,-0.000137795 0.0164291,-0.00030315 0.0246535,-0.000527559l0.0120669 -0.000354331c0.00835827,-0.000267717 0.0167126,-0.000555118 0.025063,-0.000901575l0.0103465 -0.000456693c0.00871654,-0.000389764 0.0174252,-0.000814961 0.0261299,-0.00129134l0.0104213 -0.000614173c0.00875591,-0.000519685 0.0175039,-0.00105118 0.026248,-0.00165354l0.00914961 -0.000669291c0.00911024,-0.00065748 0.0182205,-0.00133858 0.0273268,-0.00209055l0.00785827 -0.000688976c0.00965748,-0.000826772 0.0192992,-0.00166535 0.028937,-0.00259449l0.0033622 -0.00034252c0.0686535,-0.00668504 0.136835,-0.0159055 0.20415,-0.027378l0.00545669 -0.000917323c0.00925591,-0.00159055 0.0184764,-0.00324803 0.0276929,-0.00492913l0.00782677 -0.00141339c0.00868898,-0.0016063 0.0173543,-0.00327165 0.0260079,-0.00494488l0.00959055 -0.00185039c0.00859449,-0.00169291 0.0171614,-0.00344488 0.0257244,-0.00520472l0.0089252 -0.00183858c0.00866929,-0.00180709 0.017315,-0.00367323 0.0259449,-0.00555906l0.00900394 -0.00196457c0.00814567,-0.00180315 0.0162717,-0.00365354 0.0243858,-0.00551969l0.0111614 -0.00258268c0.00787795,-0.00183465 0.0157402,-0.0037126 0.0235866,-0.00561417l0.0101969 -0.00248425c0.00801181,-0.00197244 0.016,-0.0039685 0.0239724,-0.00598819l0.0105591 -0.0027126c0.00779134,-0.00200787 0.0155551,-0.00403543 0.0233071,-0.00609843l0.0104843 -0.0028189c0.0078189,-0.00211024 0.015626,-0.00424409 0.0233976,-0.00640945l0.00980709 -0.00275591c0.00798425,-0.00224803 0.0159606,-0.00451575 0.0238937,-0.00682283l0.0086063 -0.00252756c0.00818898,-0.00240551 0.0163622,-0.00481496 0.0244961,-0.00727953l0.00835433 -0.00257087c0.00814173,-0.00248425 0.0162795,-0.00499213 0.0243661,-0.0075315l0.00768504 -0.00245276c0.00832283,-0.00264173 0.0166496,-0.00529921 0.0249055,-0.00800394l0.00523228 -0.00174016c0.0384567,-0.0126614 0.0761811,-0.0259173 0.113067,-0.0397126l0.00694488 -0.00258268c0.0064685,-0.00243701 0.0128819,-0.00491732 0.0192953,-0.00738189 0.00385039,-0.00148425 0.00772441,-0.00294488 0.0115472,-0.00444094 0.00659843,-0.00256693 0.013126,-0.00517717 0.0196614,-0.00777559l0.0105 -0.00417323c0.00624803,-0.00251575 0.0124409,-0.00506693 0.0186378,-0.00761417l0.0117323 -0.00483071c0.0058189,-0.0024252 0.0115866,-0.00487402 0.0173543,-0.0073189l0.0122559 -0.0052126c0.00554724,-0.00238189 0.0110433,-0.0047874 0.0165354,-0.00719291l0.0129685 -0.00570866c0.00534252,-0.00237008 0.0106417,-0.00475197 0.0159252,-0.00714173l0.0123898 -0.00563386 0.015878 -0.00734252 0.0126811 -0.00596457 0.0149567 -0.00712992 0.0129567 -0.00628346c0.00482283,-0.00234646 0.00962205,-0.00470472 0.0143898,-0.0070748l0.0126693 -0.00634252c0.00474803,-0.00238976 0.00948425,-0.0047874 0.0141772,-0.00719291l0.0127559 -0.00659449c0.00457087,-0.00237795 0.0091378,-0.00474803 0.0136535,-0.0071378l0.0123425 -0.00659055c0.00448031,-0.00240551 0.00897244,-0.00480709 0.0133976,-0.00722047 0.00411024,-0.00224016 0.00816142,-0.00449213 0.0122244,-0.00674803 0.0043937,-0.00242913 0.00880315,-0.00485433 0.0131417,-0.00729921 0.00378346,-0.00212992 0.00749606,-0.00426772 0.0112402,-0.00640551 0.00451575,-0.0025748 0.00904331,-0.00514173 0.0134882,-0.00773228 0.0041063,-0.00238976 0.00814173,-0.00479134 0.0121969,-0.00718898 0.00385827,-0.00228346 0.00774409,-0.00455118 0.0115551,-0.00683858 0.00497244,-0.00298425 0.00984252,-0.00598031 0.0147323,-0.00897244 0.00293701,-0.00179528 0.00592913,-0.00358661 0.00883071,-0.00538976 0.00750394,-0.00465748 0.014937,-0.00932283 0.0222165,-0.0140079l0.000244094 -0.00015748c0.00324409,-0.00208661 0.00640551,-0.00418504 0.00961811,-0.00626772 0.00422047,-0.00274409 0.00846063,-0.00547638 0.0126142,-0.00822835 0.00326378,-0.00216535 0.00643701,-0.00433858 0.00966142,-0.00650787 0.00401575,-0.00270472 0.00805906,-0.00540945 0.012,-0.00812205 0.00312598,-0.00214961 0.00617323,-0.00430315 0.00925984,-0.00645276 0.0039685,-0.00276772 0.00794882,-0.00554724 0.0118425,-0.0083189 0.00289764,-0.00206299 0.00571654,-0.00411811 0.00857087,-0.0061811 0.00387402,-0.00279921 0.00774016,-0.0056063 0.0115354,-0.00840551 0.00314173,-0.00232283 0.00622047,-0.00465354 0.00930709,-0.00697244 0.00338189,-0.00254331 0.00676772,-0.00509055 0.0100906,-0.0076378 0.00305118,-0.00234252 0.00604724,-0.00469291 0.00905512,-0.00703937 0.00328346,-0.00256693 0.00656299,-0.00514173 0.00978346,-0.0077126 0.00299213,-0.00238976 0.00592913,-0.00477953 0.00886614,-0.00716929 0.00312205,-0.00254724 0.00622835,-0.00508661 0.0092874,-0.00763386 0.00280709,-0.00233858 0.00557874,-0.0046811 0.00833465,-0.00701575 0.00302362,-0.00256693 0.00600787,-0.00513386 0.00896457,-0.00769685l0.00822441 -0.00722441c0.00283465,-0.00251969 0.00562598,-0.00503543 0.00839764,-0.00755512 0.00260236,-0.0023622 0.00518504,-0.00471654 0.00772441,-0.00708268 0.00272441,-0.0025315 0.00539764,-0.00506693 0.00805512,-0.00759843 0.00257874,-0.00245276 0.00514173,-0.00491339 0.00765354,-0.0073622 0.00246063,-0.00240551 0.00485433,-0.00481102 0.00725197,-0.00720472 0.00245276,-0.00245276 0.00489764,-0.00490551 0.00727953,-0.00735827 0.0024252,-0.00249213 0.00477559,-0.00498425 0.00712992,-0.0074685 0.00228346,-0.00240551 0.00456299,-0.00481496 0.00677559,-0.00722047 0.00226772,-0.00246457 0.00444882,-0.00492913 0.00664567,-0.00738976 0.00215354,-0.00240551 0.00432283,-0.00480709 0.00640157,-0.00720472 0.0020748,-0.00239764 0.00404724,-0.00477953 0.00605512,-0.00716929 0.00210236,-0.00249606 0.00422835,-0.00499213 0.00624803,-0.00748031 0.00170079,-0.00209055 0.00329528,-0.0041811 0.00494488,-0.00626772 0.00216535,-0.00274803 0.00437795,-0.0055 0.00644882,-0.00823622 0.00137795,-0.0018189 0.00264961,-0.00362205 0.00398819,-0.00543701 0.00215748,-0.00292913 0.00435827,-0.00587402 0.00640551,-0.00879134 -0.20513,0.061126 -0.526091,0.132559 -0.999661,0.179854 -0.176094,0.0175669 -0.363654,0.0247244 -0.551457,0.0247244 -0.419169,0 -0.839413,-0.0356378 -1.13576,-0.0705512 -0.331665,-0.0390551 -0.599283,-0.0935669 -0.806531,-0.0935669 -0.0404567,-7.87402e-006 -0.0786102,0.00206693 -0.114488,0.00674016 -0.00781102,0.00493701 -0.0156102,0.00983465 -0.0233898,0.0146496 0.0788189,0.00144094 0.154087,0.0233465 0.225165,0.0558346l0.000437008 0.000200787 0.00700787 0.00324409 9.84252e-005 4.72441e-005 0.00026378 0.000122047 0.00327953 0.00155512 0.00353543 0.00168898 0.000956693 0.000456693 0.000275591 0.000129921 0.00122047 0.000594488 0.00489764 0.00238976 0.00122047 0.000602362 0.000125984 5.90551e-005 0.00109843 0.000547244 0.00609055 0.00304724 0.000519685 0.000267717 0.00766929 0.0039252 0.000307087 0.00015748c0.0100866,0.00523228 0.0200866,0.0106339 0.0299882,0.0162047l4.33071e-005 2.75591e-005c0.00473622,0.00266535 0.00945669,0.00537008 0.0141575,0.00810236l0.000799213 0.00046063 0.00038189 0.000220472 0.00117323 0.000688976 0.00117323 0.000688976 0.00469291 0.00276772 0.00158661 0.000940945 0.00160236 0.000948819 0.00162598 0.000972441 0.00163386 0.000976378 0.00165748 0.000984252 0.000992126 0.000594488 0.000681102 0.000409449 0.00168898 0.00100787 0.00170472 0.00102756 0.00345669 0.00208268 0.00176378 0.00105118 0.000326772 0.000204724 0.00144094 0.000866142 0.0017874 0.00107874 0.00181102 0.00109449 0.00366142 0.0022126 0.00144882 0.00088189 0.000409449 0.000244094 0.00187795 0.00113386 0.00379528 0.00230315 0.00192126 0.00115748 0.00194488 0.00118504 0.000724409 0.000440945 0.00122835 0.000740157 0.00197244 0.00120079 0.010122 0.00613386 0.00207874 0.00125591 0.00208661 0.00127165 0.0021063 0.00126772 0.00212205 0.00129134 0.00119685 0.000724409 0.000948819 0.000566929 0.00214961 0.00130315 0.0021811 0.0013189 0.00218504 0.0013189 0.00220472 0.00133071 0.00222835 0.00134646 0.000334646 0.000204724 0.00189764 0.00114173 0.00225984 0.00135827 0.00226772 0.00136614 0.0022874 0.00137795 0.000122047 7.48031e-005 0.00684252 0.0041063 0.00235827 0.00140551 0.00237008 0.00142126 0.00238189 0.0014252 0.00240551 0.00143701 0.00080315 0.000484252 0.00161417 0.000956693 0.00243701 0.00144488 0.00245276 0.00146457 0.00246457 0.00146063 0.00248819 0.00147638 0.00231496 0.00137795 0.000181102 0.000102362 0.00252362 0.00148819 0.0025315 0.00149606 0.00254724 0.00150394 0.00256693 0.00151575 0.00258268 0.00151575 0.00259449 0.00152362 0.00261811 0.00153543 0.00262598 0.00153543 0.00398425 0.00233071 0.000641732 0.000374016 0.00742913 0.0043189 0.00409055 0.00237402 0.00412598 0.00238583 0.00329921 0.00190551 0.000858268 0.000488189 0.000472441 0.000275591 0.0112638 0.00644488 0.000976378 0.000562992 0.0022126 0.00126772 0.00208661 0.00118898 0.0131417 0.00743701 0.00105118 0.000594488 0.00340157 0.00190551 0.00900787 0.00503937 0.00436614 0.00244094 0.000188976 0.000102362 0.00101969 0.000566929 0.015126 0.00834252 0.000937008 0.000519685 0.0015 0.000818898 0.0161929 0.00881102 0.000165354 9.05512e-005 0.0155551 0.00835827 0.00602362 0.00320079 0.0110039 0.0058189 0.00430315 0.00226772 0.000783465 0.000409449 0.0154685 0.00805512 0.00296457 0.00153543 0.00225984 0.00116142 0.0158858 0.00811811 0.00155118 0.000795276 0.0038189 0.0019252 0.0108307 0.00544094 0.00546457 0.00273228 6.69291e-005 4.33071e-005 0.00543701 0.00268898 0.0126732 0.00624803 0.00611417 0.00298425 0.0154606 0.00748425 0.00441339 0.00211024 0.0159724 0.00759055 0.00627165 0.00294882 0.0165748 0.00770472 0.0045748 0.00211024c0.00596063,0.00273622 0.0119764,0.0054685 0.0180433,0.00820866l0.00461024 0.0020748c0.00625591,0.00280709 0.0125669,0.00561417 0.0189291,0.00842126l0.00317717 0.00140157c0.00674016,0.00295669 0.0135433,0.00592126 0.0203937,0.00887008l0.0040748 0.00174803c0.00650394,0.0027874 0.0130591,0.0055748 0.0196614,0.00834646l0.00474803 0.00198819c0.00676772,0.00283465 0.0135787,0.00565354 0.0204606,0.0084685l0.00114961 0.000468504 0.00172047 0.000692913c0.00692913,0.00282677 0.0139291,0.00565354 0.0209724,0.00846063l0.0021378 0.000858268 0.0014685 0.000582677c0.00696457,0.00276378 0.0139921,0.00552362 0.021063,0.00826378l0.0044252 0.0017126c0.00717717,0.00277559 0.0144173,0.00553937 0.0217087,0.00828346l0.00455512 0.00171654c0.00724016,0.0027126 0.0145118,0.00541339 0.0218543,0.00809843l0.00559449 0.00203543c0.0070748,0.00256693 0.0141929,0.00512992 0.0213543,0.00766929l0.00590945 0.0020748c0.00665748,0.00234252 0.0133583,0.0046811 0.0200984,0.00699606l0.00388583 0.00133858c0.00743701,0.0025315 0.0149291,0.00505118 0.0224606,0.00755906l0.00622835 0.00207087c0.00759449,0.00250394 0.0152441,0.00498425 0.0229409,0.00744882l0.00498425 0.00159055c0.00772441,0.00246063 0.0155039,0.00490551 0.0233307,0.00731102l0.00683465 0.00208661c0.00756693,0.00231496 0.0151614,0.00461811 0.0228189,0.00688583l0.00603543 0.00176772c0.00822441,0.00241339 0.0164764,0.00481496 0.0247992,0.00717717l0.000456693 0.000129921 0.000125984 3.54331e-005c0.00835039,0.0023622 0.0167717,0.00469685 0.0252323,0.00700787l0.00674803 0.00184252c0.00802362,0.00217323 0.0161024,0.00430315 0.0242244,0.00642126l0.00611024 0.00159055c0.0082874,0.0021378 0.0166181,0.00424803 0.0249961,0.00632283l0.00627953 0.00154331c0.00851575,0.00209055 0.0170669,0.00416142 0.0256772,0.0061811l0.00557087 0.00129921c0.00893307,0.00208268 0.0178937,0.00414567 0.0269252,0.00614567l0.000728346 0.000165354 0.0016063 0.000346457c0.00857874,0.00189764 0.0172165,0.00375591 0.0258898,0.00558661l0.00611417 0.00129134c0.00884252,0.00184252 0.0177362,0.00364567 0.0266654,0.00541339l0.00623622 0.00123622c0.0091063,0.00178346 0.0182638,0.00351969 0.0274685,0.00522047l0.00524016 0.00096063c0.00949213,0.00173622 0.0190197,0.00343701 0.0286063,0.00508268l0.0047126 0.000799213c0.00970472,0.00164567 0.0194488,0.00325197 0.0292559,0.00480709l0.00440157 0.000685039c0.00929921,0.00146063 0.0186417,0.00288189 0.0280315,0.00424409l0.00360236 0.000535433c0.00984646,0.0014252 0.0197638,0.00277953 0.0297126,0.00410236l0.00560236 0.000751969c0.00962992,0.00125591 0.0193189,0.00246457 0.0290433,0.00362598l0.00690551 0.000818898c0.00953937,0.00112205 0.0191299,0.00220079 0.0287638,0.00321654l0.00698819 0.000724409c0.0101339,0.00105118 0.0203031,0.00206299 0.0305354,0.003l0.00277953 0.000244094c0.0101535,0.00092126 0.0203701,0.00178346 0.030622,0.00259449l0.00467717 0.000377953c0.0106024,0.000818898 0.0212559,0.00157087 0.0319567,0.00226772l0.00422835 0.000279528c0.0104331,0.000661417 0.0209173,0.00127165 0.0314488,0.00181102l0.00674803 0.000338583c0.010563,0.000519685 0.0211772,0.000992126 0.0318386,0.00138976l0.00491732 0.000169291c0.0109213,0.000389764 0.0218858,0.000724409 0.0329016,0.000984252l0.00481102 9.44882e-005c0.0114646,0.000244094 0.0229803,0.000437008 0.0345551,0.00053937l0.000326772 0 0.000334646 7.87402e-006 0.000330709 0 0.000334646 0 0.000326772 0c0.00822835,7.48031e-005 0.0164528,4.72441e-005 0.024689,1.1811e-005zm-1.05507 -0.213862c0.00677559,0.00283465 0.0135787,0.00565354 0.0204606,0.0084685m0.423752 0.135524c0.00893307,0.00208268 0.0178898,0.00414567 0.0269252,0.00614567"/>
  <path class="fil4" d="M2.2761 3.65313c0.018626,-0.00233465 0.0370827,-0.00343701 0.0553465,-0.00343701 0.00279134,-7.87402e-006 0.00558661,1.9685e-005 0.00838583,7.08661e-005 1.5748e-005,-7.87402e-006 0,0 0,0 0.00777165,-0.00482283 0.0155866,-0.0097126 0.0233898,-0.0146496 -0.0307165,0.004 -0.0597205,0.00990157 -0.087122,0.0180157z"/>
  <path class="fil5" d="M5.9975 3.54501c-0.220461,0.105098 -0.578937,0.230146 -1.10188,0.282343 -0.569193,0.0568071 -1.05314,0.0667402 -1.48228,0.0161929 -0.511409,-0.0602283 -0.926461,-0.344728 -1.16471,-0.186039 0.148118,-0.0281654 0.285331,0.0237323 0.407787,0.0962953 0.188358,0.111622 0.739406,0.481319 1.54861,0.488291 0.808756,0.007 1.63141,-0.390209 1.79248,-0.697083z"/>
  <path class="fil6" d="M2.65641 3.7538c-7.87402e-006,-7.87402e-006 0.662669,0.36274 1.46489,0.437138 0.580303,0.0538425 1.48228,-0.32163 1.57337,-0.360327 -0.347811,0.222272 -0.922134,0.416398 -1.48965,0.41148 -0.809205,-0.00697244 -1.36025,-0.376669 -1.54861,-0.488291z"/>
  <path class="fil7" d="M2.16754 3.61664c0,0 -0.011374,0.0025315 -0.0327638,0.00727953 -0.0216614,0.00409055 -0.0524764,0.0132008 -0.0917717,0.0254173 -0.0781299,0.0254331 -0.184984,0.0758425 -0.306697,0.144724 -0.12213,0.0676732 -0.260469,0.153709 -0.423071,0.207268 -0.0814606,0.0271063 -0.166988,0.0438031 -0.257362,0.0369606 -0.0573661,-0.00312205 -0.115343,-0.0118976 -0.17361,-0.0221614 -0.0107559,0.00139764 -0.0212323,0.0022874 -0.0314173,0.00268898 0.0192874,0.00576378 0.0423976,0.012437 0.0690748,0.0192992 0.0433386,0.0117835 0.0965906,0.0232283 0.158264,0.0293937 0.0154921,0.000944882 0.0313976,0.00253543 0.0478504,0.00291732 0.0164764,-0.000389764 0.0333937,-0.000818898 0.0506929,-0.00120079 0.034563,-0.00335433 0.0708543,-0.00833858 0.106705,-0.0177362 0.0723976,-0.0173937 0.147425,-0.0451693 0.221315,-0.0808268 0.0740079,-0.0355472 0.147035,-0.078374 0.219465,-0.122539 0.144457,-0.0887362 0.289736,-0.180264 0.443327,-0.231484z"/>
  <path class="fil7" d="M2.07015 3.57009c0,0 -0.0234094,0.00169291 -0.065311,0.00627165 -0.0414882,0.00558268 -0.100051,0.0214409 -0.166575,0.0491496 -0.0656575,0.0289291 -0.138165,0.069311 -0.215122,0.109646 -0.0194488,0.00962992 -0.0391732,0.0194173 -0.0591969,0.0293465 -0.0204803,0.00874409 -0.0411732,0.0175866 -0.0621142,0.0265197 -0.0425,0.0167165 -0.0857638,0.0319291 -0.133035,0.025563 0,0 0.00646063,0.00175984 0.0183543,0.00501181 0.0119528,0.00416535 0.0301654,0.00580709 0.0535354,0.00575591 0.0231457,-0.00175197 0.0510787,-0.00534646 0.081122,-0.0141339 0.0301654,-0.00848425 0.0644685,-0.0176614 0.0987795,-0.0328937 0.0702087,-0.0276102 0.143858,-0.070063 0.218378,-0.10974 0.074689,-0.0401654 0.152102,-0.0749724 0.231185,-0.100496z"/>
  <path class="fil7" d="M2.08039 3.48644c0,0 -0.00271654,-0.00120472 -0.00785433,-0.00351969 -0.00520472,-0.00218898 -0.0129331,-0.00587008 -0.0233701,-0.00801575 -0.0206535,-0.00566929 -0.0516969,-0.00836614 -0.0872598,-0.00515748 -0.0355866,0.00288976 -0.0755039,0.0110315 -0.116461,0.0193425 -0.0411811,0.00749213 -0.0828071,0.0176142 -0.127043,0.00234252 -7.87402e-006,-7.87402e-006 0.00240551,0.00230709 0.0067874,0.0065 0.00241339,0.00209843 0.00533071,0.00467717 0.00870079,0.00768504 0.00394882,0.00233465 0.00850394,0.00496457 0.0135157,0.00790551 0.020811,0.011126 0.0550827,0.0181693 0.0929291,0.016626 0.0380118,-0.00111417 0.0790236,-0.00920866 0.119091,-0.018815 0.0405197,-0.00974016 0.0783976,-0.0212283 0.120965,-0.0248937z"/>
  <path class="fil7" d="M2.11232 3.41659c9.44882e-005,-0.000625984 -0.0111142,-0.00224016 -0.0279764,-0.00999606 -0.0170315,-0.00728346 -0.0391732,-0.0208189 -0.0650709,-0.0394134 -0.026122,-0.0183189 -0.0562323,-0.0415591 -0.0934094,-0.0620669 -0.0183858,-0.0103583 -0.0390787,-0.0193425 -0.0608583,-0.0260197 -0.0220748,-0.00621654 -0.0458268,-0.00908268 -0.0686378,-0.00662598 -3.93701e-006,-3.93701e-006 0.00301181,0.00135433 0.00847638,0.00385827 0.0054685,0.00240551 0.013248,0.00566142 0.0224567,0.0110591 0.018622,0.00994882 0.0423819,0.0263071 0.0692165,0.0466457 0.0270551,0.0200354 0.0576063,0.0441102 0.0943937,0.0634291 0.0182441,0.0096378 0.0385551,0.0175197 0.0594173,0.0220945 0.0211772,0.00407087 0.0433386,0.00356693 0.0619921,-0.00296457z"/>
  <path class="fil7" d="M2.15048 3.33774c0,0 -0.00438583,-0.0030315 -0.0125512,-0.00876378 -0.00788189,-0.00617323 -0.0208189,-0.0124843 -0.0343307,-0.0251811 -0.0291654,-0.0219961 -0.064622,-0.0603701 -0.105819,-0.107882 -0.0206299,-0.0237795 -0.0427165,-0.0502874 -0.0673622,-0.0776535 -0.0248937,-0.0269606 -0.0525197,-0.056374 -0.0870039,-0.0804685 -0.033748,-0.0246063 -0.0730472,-0.044189 -0.113669,-0.0571969 -0.0405512,-0.0134291 -0.0818425,-0.0233425 -0.123472,-0.0334843 0,-7.87402e-006 0.0212992,0.0120197 0.0580906,0.0302992 0.0365433,0.0187008 0.0892874,0.0424528 0.140071,0.0809803 0.0504961,0.0386654 0.0968268,0.0967087 0.151878,0.152583 0.0542362,0.0552835 0.121382,0.108988 0.194169,0.126768z"/>
  <path class="fil7" d="M2.21112 3.22159c0,0 -0.00741732,-0.00517717 -0.0212441,-0.0148583 -0.00694488,-0.00474803 -0.0154961,-0.0106299 -0.0255433,-0.0175669 -0.00961024,-0.00744488 -0.0206929,-0.0160236 -0.0331496,-0.0255827 -0.0494882,-0.0386063 -0.115378,-0.0988583 -0.19315,-0.173831 -0.0784016,-0.0737795 -0.169882,-0.164413 -0.29039,-0.234134 -0.0599488,-0.0344331 -0.127307,-0.0626181 -0.199035,-0.076374 -0.0352953,-0.00615354 -0.070878,-0.0115906 -0.106559,-0.0169843 -0.0361417,-0.00325591 -0.0724016,-0.00588189 -0.108417,-0.00829134 0,-7.87402e-006 0.0402087,0.00886614 0.107984,0.0238543 0.0331732,0.00987795 0.0742992,0.0188622 0.118437,0.0334646 0.0109331,0.00363386 0.0222362,0.00746457 0.0337795,0.0113465 0.0113504,0.00452756 0.0226929,0.00988189 0.0344252,0.0148858 0.0237795,0.00927559 0.0466457,0.0235906 0.0711024,0.0360945 0.0475039,0.0284803 0.0957677,0.0627835 0.14398,0.101528 0.0481102,0.0388386 0.0962244,0.0819094 0.145835,0.124945 0.0981732,0.0862756 0.206276,0.173276 0.321945,0.221504z"/>
  <path class="fil3" d="M4.78165 3.78203c0,0 -0.223193,0.125579 -0.348787,0.125579 -0.125551,-3.93701e-006 -0.069748,0.158094 0.102346,0.162748 0.172043,0.00461417 0.325472,-0.232551 0.246441,-0.288327z"/>
  <path class="fil5" d="M5.30783 3.41337c0,0.0638465 0.0672283,0.114417 0.131071,0.114417 0.0472953,0 0.100106,-0.0505709 0.100106,-0.114413 0,-0.0638268 -0.0622087,-0.115575 -0.126051,-0.115575 -0.0638189,-3.93701e-006 -0.105118,0.051748 -0.105126,0.115571z"/>
  <path class="fil8" d="M5.3288 3.41332c0,0.0522362 0.0423819,0.0945945 0.0946142,0.0945945 0.052252,-7.87402e-006 0.0946102,-0.0423583 0.0946102,-0.0945906 0,-0.0522362 -0.0423504,-0.0945945 -0.0946102,-0.0945945 -0.0522402,0 -0.0946142,0.0423583 -0.0946142,0.0945906z"/>
  <path class="fil9" d="M5.3766 3.41333c0,0.0258504 0.0209843,0.046811 0.046815,0.046811 0.0258701,0 0.0468071,-0.0209606 0.0468071,-0.046811 -3.93701e-006,-0.0258543 -0.0209291,-0.0468346 -0.0468071,-0.0468346 -0.0258307,0 -0.046815,0.0209843 -0.046815,0.0468346z"/>
  <path class="fil3" d="M5.88086 3.68913c0,0 -0.14935,0.0367717 -0.178433,-0.102728 -3.93701e-006,-7.87402e-006 -0.0117047,0.215949 0.178433,0.102728z"/>
  <path class="fil3" d="M5.35181 3.09582c0,0 -0.00744488,0.00190551 -0.0213898,0.00544882 -0.00701969,0.00187795 -0.0156417,0.00421654 -0.0258071,0.00694094 -0.00988583,0.00365354 -0.0212283,0.00787402 -0.0339252,0.0125709 -0.0495591,0.0207913 -0.121331,0.0572953 -0.18561,0.127937 -0.0328425,0.0342559 -0.0626102,0.077748 -0.0841299,0.128701 -0.0215394,0.0507638 -0.0336339,0.110181 -0.0282323,0.171035 0.0053937,0.0609764 0.0288583,0.120705 0.0657441,0.171543 0.0373661,0.0510709 0.0877717,0.0884882 0.138146,0.122846 0,0 -0.0061378,-0.00624016 -0.0174409,-0.0177087 -0.0115669,-0.0111102 -0.0277283,-0.0281417 -0.0472953,-0.0497795 -0.0190591,-0.0219685 -0.041126,-0.0492402 -0.058689,-0.0833583 -0.00535039,-0.00794882 -0.00864567,-0.0174449 -0.0122402,-0.0269843 -0.00368898,-0.00944488 -0.00746457,-0.0191299 -0.0113701,-0.0290315 -0.00279921,-0.0102165 -0.00498425,-0.0208386 -0.00768504,-0.0314646 -0.00135039,-0.00529921 -0.00264961,-0.0106732 -0.00397244,-0.0160945 -0.000586614,-0.00554724 -0.0011063,-0.011126 -0.00164173,-0.0167874 -0.0137126,-0.0902598 0.0202165,-0.19335 0.0838937,-0.278252 0.0643268,-0.0853346 0.155035,-0.153398 0.251646,-0.197563z"/>
  <rect class="fil10" width="6.82666" height="6.82666"/>
 </g>
</svg>
