<?xml version="1.0" encoding="UTF-8"?>
<!DOCTYPE svg PUBLIC "-//W3C//DTD SVG 1.1//EN" "http://www.w3.org/Graphics/SVG/1.1/DTD/svg11.dtd">
<!-- Creator: CorelDRAW -->
<svg xmlns="http://www.w3.org/2000/svg" xml:space="preserve" width="6.82666in" height="6.82666in" style="shape-rendering:geometricPrecision; text-rendering:geometricPrecision; image-rendering:optimizeQuality; fill-rule:evenodd; clip-rule:evenodd"
viewBox="0 0 6.82666 6.82666"
 xmlns:xlink="http://www.w3.org/1999/xlink">
 <defs>
  <style type="text/css">
   <![CDATA[
    .fil2 {fill:none}
    .fil1 {fill:#4E342E}
    .fil0 {fill:#6D4C41}
   ]]>
  </style>
 </defs>
 <g id="Layer_x0020_1">
  <metadata id="CorelCorpID_0Corel-Layer"/>
  <g id="_214724680">
   <path id="_214725112" class="fil0" d="M2.6971 5.41262l0.284953 -0.837539c0,0 0.0812047,-0.105933 0.287366,-0.21461 0.20613,-0.108602 0.801031,-0.386256 0.847492,-0.619039 0.0466417,-0.232831 0.0607402,-0.488185 0.0607402,-0.488185l0.822343 -0.308165 0.292205 0.245185 0.0559724 0.0895079c0,0 0.0873504,-0.102398 0.0313976,-0.191957 -0.0558346,-0.0895472 -0.177346,-0.208429 -0.177346,-0.208429 0,0 0.203075,-0.19689 0.198193,-0.310882 -0.00485433,-0.113823 -0.061748,-0.30274 0.00870079,-0.390031 0.0706339,-0.0873425 0.247807,-0.0519094 0.247807,-0.0519094 0,0 0.0652441,0.0659252 0.151669,0.0371772 0.0864449,-0.0287402 0.0842126,-0.132961 0.0842126,-0.132961l0.0265984 -0.0755197 -0.231339 -0.156783c0,0 -0.0600039,-0.104295 -0.135846,-0.151669 -0.0756654,-0.0474213 -0.164819,-0.0860079 -0.164819,-0.0860079 0,0 -0.0292913,-0.22248 -0.0425984,-0.271256 -0.013311,-0.0487756 -0.034126,-0.106012 -0.034126,-0.106012 0,0 -0.099815,0.0953543 -0.114476,0.21463 -0.0145157,0.119283 -0.0140945,0.255366 -0.0140945,0.255366 0,0 -0.0585591,0.0159803 -0.105575,0.170287 -0.0468228,0.154303 -0.10015,0.305055 -0.275642,0.352941 -0.175524,0.0478937 -0.782181,-0.043437 -1.1917,0.0683071 -0.409748,0.111807 -0.697024,0.384146 -0.938965,1.05271 -0.241961,0.668622 -0.364287,1.25753 -1.11224,1.43542l-0.153386 0.109969c0,0 0.1925,0.0522559 0.436358,-0.0142835 0.243815,-0.0665315 0.670205,-0.308713 0.840512,-0.664217 0.170126,-0.355646 0.355858,-0.731244 0.355858,-0.731244 0,0 0.29637,0.126079 0.346169,0.174035 0.0497953,0.0480039 0.13315,0.0989961 0.0560118,0.339823 -0.0367323,0.114839 -0.628654,0.423047 -0.628654,0.423047l-0.210327 0.995366 0.0965827 0.0469291z"/>
   <path id="_214725400" class="fil1" d="M2.13137 4.38151c0.0746457,-0.0811024 0.141343,-0.180433 0.208709,-0.305953 0.191075,-0.35602 0.218606,-0.636705 0.378429,-1.02525 0.181224,-0.440276 0.431004,-0.755402 0.909252,-0.858839 0.43978,-0.0951693 0.745236,0.0139134 1.09922,-0.0458189 0.300618,-0.0504803 0.309646,-0.325602 0.338697,-0.390957 0.0429803,-0.0969724 0.102445,-0.143228 0.102445,-0.143228 0,0 -0.014374,-0.141965 0.0109685,-0.228311 0.0434843,-0.148197 0.136744,-0.243083 0.136744,-0.243083 0,0 0.0289764,0.0682165 0.0480551,0.128429 0.0183425,0.0580433 0.030252,0.134598 0.030252,0.134598 0,0 0.0510276,-0.0244685 0.0971496,-0.047563 0.0461102,-0.0230748 0.11661,-0.0526772 0.11661,-0.0526772 0,0 -0.0107717,0.0762047 -0.0316102,0.134315 -0.0206929,0.0580039 -0.0987992,0.13689 -0.0987992,0.13689 0,0 0.0988386,0.0447953 0.145417,0.0913543 0.0288661,0.0288189 0.0785591,0.11489 0.0785591,0.11489 0,0 0.146709,0.0961535 0.199012,0.134236 0.0522795,0.0381614 0.0761299,0.0551575 0.0364055,0.0948976 -0.0353819,0.0355354 -0.0319488,0.0559252 -0.039374,0.105161 -0.0076378,0.0491614 -0.104752,0.0876732 -0.160051,0.0855827 -0.0526339,-0.00200787 -0.0856575,-0.0446929 -0.0856575,-0.0446929 0,0 -0.16937,-0.00619291 -0.198106,0.0225079 -0.0288346,0.028874 -0.0700945,0.0506732 -0.0341654,0.239921 0.0360039,0.18928 0.00219291,0.277079 -0.0744055,0.360898 -0.076752,0.0838465 -0.110752,0.103488 -0.110752,0.103488 0,0 0.0614606,0.0650197 0.114461,0.125295 0.0239724,0.0273268 0.0907717,0.0887126 0.0695512,0.165075 -0.0209882,0.0765039 -0.0827677,0.224331 -0.157925,0.237039 -0.075126,0.0126535 -0.114343,-0.0135512 -0.114654,-0.0262874 -0.000527559,-0.0314016 0.0565669,-0.0232795 0.0742992,-0.0543228 0.0177323,-0.0310433 0.00622835,-0.0492953 0.0105512,-0.0762913 0.00493307,-0.0302598 0.0280157,-0.0417087 0.0280157,-0.0417087 0,0 -0.0579409,-0.0679685 -0.117693,-0.114583 -0.0599528,-0.0465394 -0.14113,-0.113508 -0.14113,-0.113508 0,0 -0.237161,0.0909134 -0.413803,0.144461 -0.176693,0.0533622 -0.242201,0.0817953 -0.272551,0.0952283 -0.030563,0.0134882 -0.104476,0.0782165 -0.10676,0.118252 -0.0021378,0.0397992 -0.0421181,0.375256 -0.0677087,0.442831 -0.0063189,0.0167205 -0.0178819,0.0367638 -0.0345669,0.0593346l-0.129047 0.0352126c0.049752,-0.0536299 0.0874724,-0.11113 0.107969,-0.173634 0.0385669,-0.118004 -0.00241732,-0.373988 0.00193307,-0.540224 0.00440157,-0.166236 0.0127638,-0.231433 0.0127638,-0.231433l0.0414724 -0.0113189c0,0 0.0470354,0.0762874 0.180201,0.0267598 0.13322,-0.0493622 0.325224,-0.108921 0.382425,-0.129874 -0.0417402,-0.172374 0.135299,-0.42498 0.248177,-0.51626 -0.0545591,0.100634 -0.218055,0.321693 -0.115764,0.429724 0.0294213,0.0313819 0.0787008,0.0963661 0.215165,0.203303 0.136642,0.10689 0.279382,0.188433 0.279382,0.188433l0.015937 0.0872244c0,0 0.0190906,-0.0260669 0.0270709,-0.0544016 0.00792126,-0.0283622 -0.00373228,-0.0618976 -0.0552008,-0.115969 -0.0514567,-0.0540276 -0.329406,-0.324122 -0.3435,-0.34648 -0.0137913,-0.0224409 -0.0275787,-0.0343386 -0.0275787,-0.0343386l0.0846102 0.00306693c0,0 0.0533701,-0.0826299 0.112228,-0.145898 0.0586535,-0.0632598 0.0910079,-0.0982913 0.111713,-0.166665 0.0205197,-0.0685157 0.0506732,-0.121307 0.0506732,-0.121307l0.00833858 -9.44882e-005c0,0 -0.026689,0.115083 -0.0176496,0.196539 0.00916142,0.0812756 0.0226772,0.140504 -0.0261024,0.21137 -0.0486811,0.0710512 -0.128504,0.142398 -0.128504,0.142398l0.0362126 0.0361496c0,0 0.109677,-0.114835 0.139315,-0.159815 0.0589252,-0.0898268 0.0379685,-0.15137 0.0305079,-0.204921 -0.0203622,-0.146756 0.0406024,-0.283543 0.0406024,-0.283543 0,0 -0.0511969,-0.0506575 -0.0743228,-0.105406 -0.0231575,-0.054937 -0.0245866,-0.12011 -0.0245866,-0.12011 0,0 0.0649606,0.0692126 0.160835,0.0951378 0.0597992,0.0162126 0.186283,0.0229055 0.186283,0.0229055l0.0220984 -0.0101811c0,0 0.00366142,0.0568976 0.0577323,0.0806969 0.0539094,0.0238425 0.115035,-0.00768898 0.126571,-0.0418661 0.0113465,-0.0343228 -0.00222835,-0.0736614 -0.00222835,-0.0736614l-0.0272323 -0.0177874 -0.00814961 -0.0408189 0.0869961 0.0251654c0,0 0.0274134,-0.0193465 -0.0217992,-0.0474567 -0.049252,-0.0281378 -0.195961,-0.120091 -0.195961,-0.120091 0,0 -0.0604921,-0.112815 -0.111559,-0.147606 -0.0638976,-0.0434803 -0.178673,-0.0670866 -0.178673,-0.0670866l-0.0289843 0.0895079c-0.0170512,-0.00723228 -0.0585906,-0.00721654 -0.0752205,0.00135827 0,0 -0.0311614,-0.103315 -0.0284567,-0.191142 0.0035748,-0.11228 0.0318661,-0.182252 0.0318661,-0.182252 0,0 0.00766929,0.0960197 0.0151654,0.13687 0.009,0.049437 0.0435039,0.0994331 0.0435039,0.0994331 0,0 0.0199843,-0.0678819 0.00448819,-0.157087 -0.0153346,-0.0892795 -0.0437835,-0.182472 -0.0437835,-0.182472 0,0 -0.0709055,0.0936142 -0.0885315,0.197717 -0.0174488,0.104201 0.0029252,0.273717 0.0029252,0.273717 0,0 -0.0393701,-0.0194961 -0.0691772,0.0345669 -0.0298189,0.0540236 -0.0493701,0.116929 -0.0689921,0.183878 -0.0197559,0.066937 -0.054122,0.248016 -0.278571,0.30926 -0.224268,0.0611929 -0.706181,-0.0420709 -1.1274,0.0488386 -0.432476,0.0933071 -0.710323,0.490181 -0.784043,0.627268 -0.133909,0.248799 -0.191201,0.446031 -0.299315,0.736693 -0.0996732,0.267646 -0.119795,0.412823 -0.323689,0.696071 -0.00725197,0.0101614 -0.0147323,0.0200197 -0.0222441,0.0297677l-0.111992 0.0305591zm0.307693 -0.0839567c0.0622165,-0.112622 0.152815,-0.29235 0.205445,-0.470098 0.141713,-0.478878 0.337917,-0.768228 0.337917,-0.768228 0,0 0.0162205,0.0978976 0.0479331,0.175669 0.0317441,0.077811 0.0763071,0.183622 0.220358,0.269957 0.144079,0.0865039 0.251555,0.0963937 0.259157,0.248858 0.00589764,0.118882 -0.0448622,0.216638 -0.111929,0.282193l-0.15639 0.0426772c0.0364134,-0.0187835 0.0632835,-0.0327835 0.0739252,-0.0385315 0.0958386,-0.0523543 0.125925,-0.191547 0.126862,-0.265264 0.000818898,-0.0734409 -0.010185,-0.133354 -0.147252,-0.174579 -0.137079,-0.0412087 -0.231878,-0.120122 -0.231878,-0.120122 0,0 -0.0616693,0.0430315 -0.202661,0.390535 -0.052689,0.130378 -0.111839,0.251154 -0.180496,0.360996l-0.103413 0.0283937c0.201209,-0.310898 0.232567,-0.587429 0.232567,-0.587429 0,0 -0.144122,0.304315 -0.203126,0.414508 -0.040563,0.0758268 -0.0880866,0.145028 -0.129815,0.200134l-0.0372047 0.0103307z"/>
   <path id="_214724104" class="fil1" d="M5.47936 1.74664c0,0 0.0370512,-0.000472441 0.0735787,0.0152953 0.0365394,0.0158622 0.0594646,0.0466929 0.0594646,0.0466929l-0.0143858 0.012063 -0.0233504 -0.0146339 -0.0142441 0.0425866c0,0 -0.0359961,-0.0193701 -0.053752,-0.0435669 -0.0179055,-0.0239646 -0.027311,-0.058437 -0.027311,-0.058437z"/>
   <path id="_214724800" class="fil1" d="M2.24336 4.35095c-0.162807,0.20578 -0.400906,0.311142 -0.400906,0.311142l-0.0367638 0.0859606c0,0 -0.0613583,0.0245906 -0.105157,0.0365433 -0.0439843,0.012 -0.147492,0.0454134 -0.147492,0.0454134 0,0 0.133063,-0.00225984 0.286661,-0.0441732 0.153614,-0.0419134 0.503748,-0.179366 0.720177,-0.500394 0.00574409,-0.00841339 0.0114016,-0.0169646 0.0167598,-0.0254331l0.103457 -0.0282283c-0.114937,0.183063 -0.256827,0.335213 -0.442295,0.448075 -0.296661,0.180583 -0.597256,0.231087 -0.861083,0.224469 -0.26378,-0.00664961 -0.470886,-0.0549213 -0.504528,-0.0822913 -0.0335748,-0.0275551 -0.0221614,-0.0621654 0.0160315,-0.056748 0.0381299,0.00525591 0.322358,0.048189 0.698772,-0.0701811 0.243559,-0.0766339 0.407319,-0.164551 0.544413,-0.313457l0.111953 -0.0306969zm0.232953 -0.063563c-0.0580551,0.0764016 -0.104429,0.125429 -0.104429,0.125429 0,0 0.0279252,-0.0443346 0.0671772,-0.115264l0.037252 -0.0101654zm0.92163 -0.251484c-0.0189843,0.0185197 -0.0392913,0.0345709 -0.0600551,0.0477598 -0.0937126,0.0596181 -0.501654,0.312429 -0.501654,0.312429l-0.176287 0.813083 0.0341102 0.134886c0,0 0.181929,-0.581476 0.203921,-0.645244 0.0218819,-0.0635276 0.047689,-0.151843 0.047689,-0.151843 0,0 0.0291969,-0.0079685 0.0660079,-0.0363661 0.0368071,-0.0284016 0.122039,-0.109217 0.395972,-0.257441 0.201335,-0.108665 0.429976,-0.226594 0.567724,-0.375l0.129091 -0.0350472c-0.0795315,0.10798 -0.272764,0.272496 -0.539484,0.390819 -0.322622,0.142957 -0.527772,0.264504 -0.561031,0.373193 -0.0332913,0.108571 -0.255087,0.803232 -0.275654,0.871567 -0.0206575,0.0685551 -0.0866496,0.104917 -0.150043,0.122217 -0.0635315,0.0173346 -0.131689,0.0359331 -0.169906,0.00179921 -0.0381654,-0.0341417 -0.0227402,-0.0932283 -0.0227402,-0.0932283 0,0 0.118276,-0.0349724 0.167461,-0.134815 0.0776575,-0.15752 0.228689,-1.06334 0.228689,-1.06334 0,0 0.310114,-0.156193 0.459752,-0.232913l0.156437 -0.0425118z"/>
  </g>
  <rect class="fil2" width="6.82666" height="6.82666"/>
 </g>
</svg>
