<?xml version="1.0" encoding="UTF-8"?>
<!DOCTYPE svg PUBLIC "-//W3C//DTD SVG 1.1//EN" "http://www.w3.org/Graphics/SVG/1.1/DTD/svg11.dtd">
<!-- Creator: CorelDRAW -->
<svg xmlns="http://www.w3.org/2000/svg" xml:space="preserve" width="6.82666in" height="6.82666in" style="shape-rendering:geometricPrecision; text-rendering:geometricPrecision; image-rendering:optimizeQuality; fill-rule:evenodd; clip-rule:evenodd"
viewBox="0 0 6.82666 6.82666"
 xmlns:xlink="http://www.w3.org/1999/xlink">
 <defs>
  <style type="text/css">
   <![CDATA[
    .fil4 {fill:none}
    .fil8 {fill:#40292A}
    .fil6 {fill:#424242}
    .fil1 {fill:#663300}
    .fil3 {fill:#82400E}
    .fil9 {fill:#BF8D43}
    .fil2 {fill:#CC984A}
    .fil0 {fill:#DCA553}
    .fil5 {fill:#EEEEEE}
    .fil7 {fill:#FAFAFA}
   ]]>
  </style>
 </defs>
 <g id="Layer_x0020_1">
  <metadata id="CorelCorpID_0Corel-Layer"/>
  <path class="fil0" d="M5.48231 3.94203c-0.327433,-0.0442047 -0.54765,-0.34478 -0.712988,-0.725858 -0.104063,-0.239843 -0.315496,-0.404728 -0.508441,-0.509272 -0.0099252,-0.00212598 -0.0198031,-0.00411811 -0.0296339,-0.00598031 -0.537295,-0.101791 -0.93835,0.177791 -1.38647,-0.187457 -0.0483898,-0.0394331 -0.0965984,-0.0866693 -0.144449,-0.133543 -0.0796575,-0.0780433 -0.329264,-0.246862 -0.414437,-0.295157 0.0448976,0.0491929 0.0926299,0.106354 0.121791,0.160953 0.0153937,0.0288228 0.0496654,0.0990354 0.0299961,0.131717 -0.0259803,0.0347441 -0.156244,-0.00294488 -0.196142,0.00982677l-0.0515236 -0.0113386 0.0199291 0.0488504c0.0366575,0.0898661 0.124909,0.12861 0.131409,0.225965 0.00412598,0.0618346 0.0518031,0.148272 0.0415945,0.208791 -0.00147638,0.00876378 -0.0028937,0.0175157 -0.00422835,0.0263071 -0.00229528,0.0151142 -0.0163386,0.025563 -0.0314764,0.0232913 -0.00737795,-0.00111024 -0.0136535,-0.00609449 -0.0186378,-0.0113661 -0.0101024,-0.0106929 -0.0320709,-0.0230866 -0.0449094,-0.0306732 -0.0237559,-0.0140433 -0.135433,-0.0524961 -0.159555,-0.0658976l-0.0704843 -0.0391535 0.0315433 0.0742008c0.0398307,0.0937126 0.101169,0.159173 0.11865,0.259744 0.0031378,0.0180472 0.00601575,0.0373189 0.00662598,0.0556457 0.0051378,0.155575 0.100409,0.0846299 -0.256287,-0.0939646l0.0520748 0.109587c0.00546457,0.123929 0.0320157,0.216535 0.0130984,0.338441 -0.00517717,0.0333701 -0.00152362,0.00977953 -0.00305512,0.0434213l-3.14961e-005 0.000720472c-0.0108937,0.237972 -0.0695709,-0.289244 -0.215201,-0.121071 -0.00467717,-0.00454724 -0.0260197,0.0409134 -0.0306969,0.036374 -0.00733858,-0.00712598 -0.0146732,-0.014248 -0.0219528,-0.0214252l0.0125748 0.108878 -0.0128228 0.0449094c-0.0382441,0.133949 -0.034752,0.209634 -0.172724,0.260039 -0.0608543,0.173508 -0.171512,0.44889 -0.282988,0.596315 -0.0332598,0.044 -0.0551024,0.0491496 -0.0751024,0.0538583 -0.0618622,0.0145709 -0.114598,0.0269961 -0.200457,0.273776 -0.0134921,0.0387205 0.0200433,0.076874 0.0594764,0.0698583 0.0524094,0.00151575 0.171697,-0.000106299 0.26674,-0.00139764 0.0508543,-0.000692913 0.0934803,-0.00127165 0.123272,-0.00127165 0.0663701,0 0.0830551,-0.151134 0.113744,-0.199083 0.16537,-0.11876 0.266161,-0.433535 0.513811,-0.651134 0.0238465,0.0152362 0.0653976,0.0287323 0.151287,0.0163189 0.0434331,0.0494685 0.0906339,0.0944134 0.13798,0.139492 0.128587,0.122433 0.258386,0.246039 0.291909,0.456843 -0.0156339,0.00446063 -0.0319803,0.00846063 -0.0483268,0.0124567 -0.123315,0.0301575 -0.246642,0.0603228 -0.241201,0.246346 0.000393701,0.0143268 0.00642126,0.0271732 0.0159055,0.0364764 0.0586142,0.0602638 0.223047,0.0442677 0.346665,0.032248 0.0396378,-0.00385827 0.0744016,-0.00724016 0.0977205,-0.00724016 0.0197874,0 0.037063,-0.0107795 0.0462677,-0.0267874 0.0148898,-0.0214134 0.0421732,-0.0375748 0.0687362,-0.0532992 0.0527559,-0.0312323 0.103614,-0.0613425 0.119012,-0.135228 0.0584409,-0.280378 0.0237441,-0.523165 -0.0392126,-0.717193 0.0239291,0.0139331 0.0485945,0.0253465 0.0741535,0.0342756 0.137571,0.0480709 0.294236,0.0223031 0.492543,-0.0727953 -0.0317283,0.109988 -0.0339213,0.192925 -0.0358268,0.265083 -0.00196063,0.0742598 -0.0035748,0.135248 -0.0451299,0.202138 -0.0425866,0.0685551 -0.0681378,0.098874 -0.0855591,0.119547 -0.0451496,0.0535787 -0.0492677,0.0584646 -0.0800433,0.244311 -0.00181496,0.0111693 -1.9685e-005,0.0221102 0.00454331,0.0316063 0.00725197,0.0150787 0.0215039,0.0265197 0.0394134,0.029437 0.084622,0.0137795 0.232622,0.00084252 0.328543,0.00084252 0.00921654,0 0.0178898,-0.00233858 0.0254567,-0.00645669 0.188307,-0.0869094 0.184843,-0.217626 0.181673,-0.336031 -0.00120472,-0.0450709 -0.00234646,-0.0877638 0.0116693,-0.115583 0.0626929,-0.124433 0.114524,-0.159917 0.184307,-0.207685 0.0708504,-0.0485 0.157984,-0.108169 0.284268,-0.260382l0.00334646 0.00431496c0.090622,0.116217 0.215866,0.211197 0.361933,0.280075 0.146941,0.0692913 0.315303,0.112433 0.49076,0.12437 0.120768,0.00822441 0.216122,0.019185 0.276965,0.0574961 0.053185,0.0334921 0.083937,0.0939291 0.0888031,0.203504 -0.022,0.0336693 -0.076311,0.0465591 -0.13063,0.059437 -0.00717323,0.00170079 -0.0143543,0.00340551 -0.0279252,0.00680315 -0.0325,0.00812598 -0.0725157,0.0733622 -0.0866535,0.100815 -0.132732,0.257736 0.268539,0.167386 0.420106,0.167386 0.025189,0 0.0462992,-0.0174724 0.0518858,-0.0409528 0.0124488,-0.037 0.038437,-0.0652835 0.0644134,-0.093563 0.0361929,-0.0393937 0.0723976,-0.0788031 0.0908661,-0.144453 0.00383858,-0.0136929 0.00195276,-0.0276417 -0.00421654,-0.0392874 -0.0296732,-0.0601378 -0.0567087,-0.115575 -0.0768661,-0.172917 -0.0199409,-0.0567362 -0.0338819,-0.117126 -0.0383031,-0.189311 -0.00305906,-0.0497008 -0.00927953,-0.0985591 -0.0228307,-0.138441 -0.0173622,-0.0510866 -0.0465433,-0.0889252 -0.0945197,-0.101917 -0.0557913,-0.0150906 -0.105319,-0.0238425 -0.151941,-0.0320748 -0.0545,-0.00962205 -0.104665,-0.0184803 -0.153587,-0.0364488z"/>
  <path class="fil1" d="M1.35433 3.21437l0.00250394 -0.00424803c0.0161732,-0.0279764 0.00366535,-0.0510315 0.0114409,-0.0454291 0.0128465,0.00924409 -0.0058189,0.109213 0.00298819,0.141598 0.00841732,0.033374 0.0439055,0.0749567 0.0885394,0.12724 0.0417047,0.0488543 0.129831,0.15739 0.171496,0.239827 -0.00364961,0.0465236 -0.0178583,0.095374 -0.0469685,0.162008l-0.0514843 0.117866 0.0724409 -0.0654488 0.0229961 -0.0207756c0.0851535,-0.076937 0.126677,-0.213417 0.155209,-0.321035 0.00458268,-0.0172756 0.00995669,-0.0397008 0.0182638,-0.0555039 0.0037874,-0.00719685 0.00998819,-0.0127362 0.0179488,-0.0147992 0.0146575,-0.00379921 0.0297402,0.00509055 0.0335433,0.0197441 0.00332677,0.012811 0.0197362,0.0283858 0.0289567,0.0377598 0.0155512,0.0158031 0.0315591,0.0312244 0.0474646,0.0466654 0.0132756,0.0128858 0.0265512,0.0257717 0.0395276,0.0389606l0.0388543 0.0394764 0.00827953 -0.0547677c0.00754331,-0.0499213 0.0168976,-0.430846 0.0171614,-0.431295 0.00766535,-0.0130748 0.0245354,-0.0174961 0.0376102,-0.0098189 0.0621378,0.0364724 0.130236,0.0684016 0.194102,0.104075l-0.0159803 -0.0625079c-0.0295039,-0.11539 -0.0747087,-0.244189 -0.141154,-0.343894 -0.00370866,-0.00556693 -0.0056378,-0.0120709 -0.00494882,-0.0187756 0.00154331,-0.0150709 0.015122,-0.0261575 0.0301969,-0.0246063 0.011437,0.00134252 0.0412717,0.0154331 0.0521614,0.0204843 0.031374,0.0145433 0.0623228,0.030622 0.092685,0.0471654 0.00370079,0.00201575 0.0073937,0.00404331 0.0110827,0.00608268 0.0217677,0.0120315 0.043374,0.0244213 0.0646732,0.0372677l0.0370236 0.0223346 0.00480709 -0.0429724c0.0174331,-0.155933 -0.0345236,-0.307744 -0.100248,-0.447295l0.000279528 -0.000129921 -0.012189 -0.0250157c-0.00307874,-0.0063189 -0.00362992,-0.0134331 -0.00156299,-0.0201496 0.0044685,-0.0145512 0.0198701,-0.0227087 0.0344173,-0.0182323 0.0443661,0.0136378 0.0958898,0.0289409 0.142122,0.0340827 0.0261102,0.00290551 0.0629291,0.00352362 0.075437,-0.0252913 0.00610236,-0.014063 0.00294882,-0.0287874 -0.00399606,-0.0417953 -0.0177323,-0.0332047 -0.042063,-0.0652874 -0.065878,-0.0943622 -0.0285669,-0.034878 -0.0592402,-0.0683071 -0.0905079,-0.100772 -0.114866,-0.119283 -0.202803,-0.215791 -0.376626,-0.266106 -0.25924,-0.0750236 -0.365402,0.00326378 -0.539087,0.159965 -0.0676102,0.061 -0.135087,0.121878 -0.210819,0.156429 -0.23424,0.106866 -0.103724,0.126957 -0.227059,0.279858 -0.0341575,0.0423543 -0.0997008,0.0669764 -0.134547,0.111106 -0.0445118,0.056374 -0.0768937,0.0986181 -0.0790276,0.102583 -0.00822047,0.0152874 -0.00820079,0.0328071 -0.00147638,0.0474567 0.0142559,0.0331457 0.0291654,0.0647835 0.045063,0.0940827 0.0158937,0.0292913 0.0335157,0.0576693 0.0534252,0.084811 0.00106693,0.0561378 0.0172953,0.120657 0.0437717,0.175315 0.0307402,0.0634646 0.0767283,0.116425 0.132004,0.134795 0.0237598,0.00785039 0.0491142,-0.00200394 0.0617598,-0.0223622 0.000240157,0.000149606 0.0482756,0.0160551 0.0503425,0.0165709 0.0622953,0.0155197 0.124272,0.0309646 0.16298,-0.0282205z"/>
  <path class="fil2" d="M4.99581 3.26843c0.0524961,0.0770118 0.0671693,0.174205 0.131205,0.282622 0.11628,0.196878 0.550457,0.358941 0.554705,0.0312953 0.000358268,-0.205504 -0.18387,-0.351969 -0.22798,-0.425783 -0.0213425,-0.0357244 -0.0359843,-0.0602126 -0.037874,-0.0777913 -0.0118031,-0.109618 0.169787,-0.562575 0.266256,-0.557673 0.0293386,0.00149213 0.0519094,0.0264961 0.0504173,0.0558346 -0.00233465,0.0447598 -0.00888189,0.0979252 -0.0156299,0.152772 -0.00384646,0.0312402 -0.00776378,0.0630669 -0.0110157,0.0930157 0.0157126,-0.00685827 0.0313228,-0.0066378 0.046878,-0.000759843 0.0498976,0.0188504 0.0646929,0.0971811 0.0797953,0.177161 0.00724016,0.0383386 0.0145827,0.0772008 0.0222717,0.0996457 0.0285472,0.00242126 0.050189,0.027122 0.0486063,0.0559252 -0.00340157,0.0607441 -0.000913386,0.125665 0.00155906,0.190201 0.00823622,0.214839 0.0163307,0.425992 -0.170465,0.524004 -0.0749843,0.0393465 -0.152354,0.0610551 -0.228035,0.0659843 -0.0172047,0.00112205 -0.0343228,0.00137402 -0.0513071,0.000771654 0.00544094,0.00224803 0.0108937,0.00437008 0.0163661,0.00637795 -0.327433,-0.0442047 -0.54765,-0.34478 -0.712988,-0.725858 -0.104063,-0.239843 -0.315496,-0.404728 -0.508441,-0.509272 0.0867205,0.018563 0.176984,0.0472756 0.271594,0.0905 0.25711,0.117469 0.315972,0.239087 0.474083,0.471028z"/>
  <path class="fil3" d="M5.44231 3.13733c-0.0150276,-0.0255748 -0.0249134,-0.0443307 -0.0264409,-0.0585591 -0.0118031,-0.109618 0.169787,-0.562575 0.266256,-0.557673 0.0293386,0.00149213 0.0519094,0.0264961 0.0504173,0.0558346 -0.00233465,0.0447598 -0.00888189,0.0979252 -0.0156299,0.152772 -0.00384646,0.0312402 -0.00776378,0.0630669 -0.0110157,0.0930157 0.0157126,-0.00685827 0.0313228,-0.0066378 0.046878,-0.000759843 0.0498976,0.0188504 0.0646929,0.0971811 0.0797953,0.177161 0.00724016,0.0383386 0.0145827,0.0772008 0.0222717,0.0996457 0.0285472,0.00242126 0.050189,0.027122 0.0486063,0.0559252 -0.00340157,0.0607441 -0.000913386,0.125665 0.00155906,0.190201 0.000480315,0.0124882 0.000956693,0.0249646 0.00139764,0.0374094 -0.0132795,0.0139606 -0.029437,0.0239055 -0.0489961,0.0285906 -0.0447559,0.0107244 -0.0897283,-0.0168622 -0.100453,-0.0616181 -0.0117362,-0.0513858 -0.0186575,-0.0836063 -0.0227283,-0.112492 -0.0119843,0.00851969 -0.0238071,0.0149409 -0.0354488,0.0172402 -0.10548,0.0208307 -0.119575,-0.0809843 -0.105181,-0.192177l-0.0671024 0.0550709c-0.0274764,0.0200315 -0.0578661,0.0259882 -0.084185,0.0204134z"/>
  <path class="fil4" d="M1.52291 1.9843c0,0.0712165 -0.0486457,0.0529173 -0.0310709,0.112858 0.0580787,0.0329331 0.0203583,-0.00135433 0.0932126,0.0427362 0.0804409,0.0486811 0.104626,0.230791 0.0514291,0.306906 -0.0227717,0.0325827 -0.123283,0.226335 -0.129878,0.258689 -0.0210276,0.103142 0.0644724,0.264713 -0.0117874,0.353457 -0.0061811,0.00719291 -0.0020315,0.0137835 -0.0177402,0.021189 -0.0103543,0.00488189 -0.0505906,0.0337087 -0.0701181,0.0382126 -0.00502362,0.0385709 -0.0337598,-0.00208268 -0.0378543,0.0534528 -0.000559055,0.00755512 -0.00338189,0.00749606 -0.00869291,0.00833465"/>
  <path class="fil0" d="M0.885484 2.60934c-0.0445118,0.056374 -0.0768937,0.0986181 -0.0790276,0.102583 -0.00822047,0.0152874 -0.00820079,0.0328071 -0.00147638,0.0474567 0.0142559,0.0331457 0.0291654,0.0647835 0.045063,0.0940827 0.0158937,0.0292913 0.0335157,0.0576693 0.0534252,0.084811 0.00106693,0.0561378 0.0172953,0.120657 0.0437717,0.175315 0.0307402,0.0634646 0.0767283,0.116425 0.132004,0.134795 0.0237598,0.00785039 0.0491142,-0.00200394 0.0617598,-0.0223622 0.000240157,0.000149606 0.0482756,0.0160551 0.0503425,0.0165709 0.0622953,0.0155197 0.124272,0.0309646 0.16298,-0.0282205l0.00250394 -0.00424803c0.00685827,-0.0118661 0.00855906,-0.0228465 0.00883465,-0.0311299 0.000377953,-0.011248 -0.00187008,-0.0175236 0.0026063,-0.0142992 0.000503937,0.000362205 0.000956693,0.000862205 0.00137008,0.00149606 0.00559055,-0.0471063 0.0324764,-0.0106535 0.0373189,-0.0478386 0.0195276,-0.00450394 0.0597638,-0.0333307 0.0701181,-0.0382126 0.0157087,-0.00740551 0.0115591,-0.0139961 0.0177402,-0.021189 0.0762598,-0.0887441 -0.00924016,-0.250315 0.0117874,-0.353457 0.00659449,-0.0323543 0.107106,-0.226106 0.129878,-0.258689 0.0531969,-0.0761142 0.0290118,-0.258224 -0.0514291,-0.306906 -0.0728543,-0.0440906 -0.0351339,-0.00980315 -0.0932126,-0.0427362 -0.0154606,-0.0527283 0.0203228,-0.0449134 0.0291575,-0.0907441 -0.020248,0.0171535 -0.0411299,0.0357126 -0.0630906,0.0555276 -0.0676102,0.061 -0.135087,0.121878 -0.210819,0.156429 -0.23424,0.106866 -0.112004,0.126957 -0.235339,0.279858 -0.0341575,0.0423543 -0.0914213,0.0669764 -0.126268,0.111106z"/>
  <path class="fil1" d="M0.864154 2.87842l0.001 0.00169685c0.000732283,0.00114567 0.00158661,0.00227953 0.00259449,0.00340157 0.0119764,0.0133268 0.0259567,0.0288898 0.0276654,0.0435276 0.00264173,0.00376378 0.00532677,0.00750394 0.00805512,0.0112244 0.000751969,0.039626 0.00906299,0.0834291 0.0231969,0.124992 0.00270079,0.00701181 0.0056811,0.0141969 0.0089685,0.0215197 0.000110236,0.00109449 0.000271654,0.00240157 0.000507874,0.0038622 0.00346063,0.00849213 0.00716535,0.0168268 0.0110984,0.0249409l0.0018622 0.0037874c0.0134055,0.0148425 0.0399252,-0.00183858 0.0924291,-0.0241811 0.0862874,-0.0367165 0.214094,-0.0545945 0.214386,-0.0549016 0.00632677,-0.00664961 0.00606693,-0.0171772 -0.000582677,-0.0235039 -0.0312717,-0.029752 -0.193512,0.0336299 -0.226827,0.0478071 -0.0540433,0.0229961 -0.0593307,0.0239449 -0.0598504,0.0186417 8.66142e-005,-0.00250394 -0.000385827,-0.00506299 -0.0015,-0.00749606l-5.11811e-005 2.3622e-005c-0.0122441,-0.0267835 -0.0200315,-0.051622 -0.0248228,-0.0734646 -0.00648819,-0.0295394 -0.0143661,-0.0518386 -0.0135236,-0.0672244 0.00162598,-0.0296535 -0.0189173,-0.0525157 -0.0362717,-0.0718228 -0.00607874,-0.00675984 -0.00474803,-0.0143071 -0.00761417,-0.0189409 -0.00481496,-0.00780315 -0.0150512,-0.0102205 -0.0228543,-0.00540551 -0.00780315,0.00481496 -0.0102205,0.0150512 -0.00540551,0.0228543 0.00365748,0.00591339 0.00413386,0.0123937 0.00753937,0.0186614z"/>
  <path class="fil1" d="M0.806457 2.71192c-0.00822047,0.0152874 -0.00820079,0.0328071 -0.00147638,0.0474567 0.0142559,0.0331457 0.0291654,0.0647835 0.045063,0.0940827 0.007,0.0128976 0.0143307,0.0256181 0.0220472,0.0381339 0.0421102,-0.0533543 0.118531,-0.161024 0.109992,-0.200878 -0.00853937,-0.0398543 -0.0381772,-0.0821575 -0.0621772,-0.114118 -0.0103031,0.0129921 -0.0246102,0.020315 -0.0344213,0.0327402 -0.0445118,0.056374 -0.0768937,0.0986181 -0.0790276,0.102583z"/>
  <path class="fil5" d="M1.35202 2.40031c0.00801969,-0.000216535 0.0161575,0.000220472 0.0242992,0.000929134 0.00402756,0.0200197 0.00390551,0.0404252 -0.00472835,0.0585787 -0.00897244,0.018874 -0.0225394,0.0307795 -0.039311,0.0423228 -0.0185433,0.0127638 -0.0317717,0.0122283 -0.0520118,0.00377559 -0.0282283,-0.0117559 -0.0451417,-0.0381732 -0.0512205,-0.0671772 0,0 0.000181102,-0.000952756 0.000181102,-0.000952756 0.0385591,-0.0204016 0.0781535,-0.036252 0.122791,-0.0374764z"/>
  <path class="fil6" d="M1.27455 2.41679c0.0237874,-0.00916535 0.0484961,-0.0153386 0.0749606,-0.0163819 0.00608268,0.0108819 0.00752756,0.0254646 0.00282283,0.0402244 -0.00834252,0.0261693 -0.0328504,0.0429803 -0.054748,0.0375591 -0.0218937,-0.00542913 -0.0328858,-0.0310394 -0.0245433,-0.0572087 0.000452756,-0.0014252 0.00096063,-0.00282283 0.00150787,-0.00419291z"/>
  <path class="fil7" d="M1.31964 2.4199c0.00500394,-0.00416142 0.00755906,0.00935827 0.0044252,0.0135315 -0.00373228,0.00495669 -0.019874,0.00942913 -0.0252126,0.00429528 -0.00974409,-0.00939764 0.0132835,-0.0322835 0.0236024,-0.0186417l-0.00281496 0.000814961z"/>
  <path class="fil8" d="M1.39598 2.40009c-0.133894,-0.00917323 -0.187091,0.0529488 -0.256949,0.16022 0.0619921,-0.134244 0.111634,-0.19802 0.264142,-0.209378 0.0135748,0.00198819 0.0229685,0.0146024 0.0209843,0.0281772 -0.00198819,0.0135748 -0.0146024,0.0229646 -0.0281772,0.0209803z"/>
  <path class="fil9" d="M4.41693 3.93174c-0.21148,-0.179587 -0.282795,-0.355378 -0.282795,-0.355378 -0.195571,0.213819 -0.245339,0.256339 -0.527295,0.385937 -0.0312008,0.109031 -0.033378,0.191417 -0.0352717,0.263154 -0.00196063,0.0742598 -0.0035748,0.135248 -0.0451299,0.202138 -0.0425866,0.0685551 -0.0681378,0.098874 -0.0855591,0.119547 -0.0451496,0.0535787 -0.0492677,0.0584646 -0.0800433,0.244311 -0.00181496,0.0111693 -1.9685e-005,0.0221102 0.00454331,0.0316063 0.00725197,0.0150787 0.0215039,0.0265197 0.0394134,0.029437 0.084622,0.0137795 0.232622,0.00084252 0.328543,0.00084252 0.00921654,0 0.0178898,-0.00233858 0.0254567,-0.00645669 0.188307,-0.0869094 0.184843,-0.217626 0.181673,-0.336031 -0.00120472,-0.0450709 -0.00234646,-0.0877638 0.0116693,-0.115583 0.0626929,-0.124433 0.114524,-0.159917 0.184307,-0.207685 0.0701417,-0.0480157 0.15624,-0.106976 0.280488,-0.255839z"/>
  <path class="fil9" d="M1.58014 4.64959c0.163469,-0.117394 0.263835,-0.426323 0.505327,-0.643591 -0.00781102,-0.0124882 -0.0166063,-0.0275551 -0.0263858,-0.0457165 -0.0486102,-0.0902795 -0.0590315,-0.121528 -0.13889,-0.177083 -0.0798583,-0.0555551 -0.100689,-0.0486102 -0.145831,-0.114583 -0.00678346,-0.00991732 -0.0127835,-0.0195945 -0.0180827,-0.0288858 -0.0275394,0.0846024 -0.0663268,0.171555 -0.128,0.227276l-0.0229961 0.0207756 -0.0607756 0.0549094c-0.0634843,0.168925 -0.157469,0.386087 -0.252039,0.511157 -0.0332598,0.044 -0.0551024,0.0491496 -0.0751024,0.0538583 -0.0618622,0.0145709 -0.114598,0.0269961 -0.200457,0.273776 -0.0134921,0.0387205 0.0200433,0.076874 0.0594764,0.0698583 0.0524094,0.00151575 0.171697,-0.000106299 0.26674,-0.00139764 0.0508543,-0.000692913 0.0934803,-0.00127165 0.123272,-0.00127165 0.0663701,0 0.0830551,-0.151134 0.113744,-0.199083z"/>
  <rect class="fil4" width="6.82666" height="6.82666"/>
 </g>
</svg>
