<?xml version="1.0" encoding="UTF-8"?>
<!DOCTYPE svg PUBLIC "-//W3C//DTD SVG 1.1//EN" "http://www.w3.org/Graphics/SVG/1.1/DTD/svg11.dtd">
<!-- Creator: CorelDRAW -->
<svg xmlns="http://www.w3.org/2000/svg" xml:space="preserve" width="6.82666in" height="6.82666in" style="shape-rendering:geometricPrecision; text-rendering:geometricPrecision; image-rendering:optimizeQuality; fill-rule:evenodd; clip-rule:evenodd"
viewBox="0 0 6.82666 6.82666"
 xmlns:xlink="http://www.w3.org/1999/xlink">
 <defs>
  <style type="text/css">
   <![CDATA[
    .fil7 {fill:none}
    .fil1 {fill:#2D3133}
    .fil0 {fill:#353B3D}
    .fil6 {fill:#3C3F40}
    .fil4 {fill:#D88D56}
    .fil2 {fill:#F9AC6B}
    .fil3 {fill:#F9FCFE}
    .fil5 {fill:#FB9F49}
   ]]>
  </style>
 </defs>
 <g id="Layer_x0020_1">
  <metadata id="CorelCorpID_0Corel-Layer"/>
  <ellipse class="fil0" cx="3.41868" cy="5.40296" rx="0.353404" ry="0.114317"/>
  <path class="fil1" d="M4.27282 2.36396c0,0 0.269744,0.848618 0.864232,1.25075 0.594453,0.402012 -0.036311,0.48863 -0.266102,0.420394 -0.272461,-0.0807677 -0.535744,-0.334094 -0.612358,-1.1083l0.0142283 -0.562843z"/>
  <path class="fil1" d="M2.57551 2.36961c0,0 -0.275831,0.846614 -0.873177,1.24437 -0.597299,0.397783 0.0327795,0.488909 0.26311,0.42235 0.273016,-0.0788071 0.538098,-0.330224 0.620295,-1.10391l-0.0102283 -0.562819z"/>
  <path class="fil0" d="M2.10985 4.59076c0,0 0.150075,1.52633 0.896173,1.06148 0.0452677,-0.0281929 0.123441,-0.125047 0.156744,-0.203272l-1.05292 -0.858209z"/>
  <path class="fil0" d="M4.73146 4.59076c0,0 -0.201661,1.52633 -0.947768,1.06148 -0.0452598,-0.0281929 -0.123417,-0.125047 -0.15672,-0.203272l1.10449 -0.858209z"/>
  <path class="fil2" d="M3.12907 5.8658c0,0 0,-0.263295 -0.416846,-0.263295 -0.230173,0 -0.416787,0.117882 -0.416787,0.263295 0,0 0.0545118,0.033252 0.128547,0.0319252 0.131819,-0.00236614 0.109303,-0.089378 0.178138,-0.0224213 0.0095748,0.00931496 0.020815,0.0199291 0.0329567,0.0307559 0.0291732,0.0260315 0.0635748,0.053378 0.092685,0.0672756 7.87402e-006,0 0.0676063,-0.0368583 0.119421,-0.0775118 0.0939016,-0.0736693 0.0304685,0.00920472 0.169409,0.00837008 0.0342756,-0.000200787 0.0728504,-0.0100709 0.112476,-0.0383937z"/>
  <path class="fil2" d="M4.52514 5.8658c0,0 0,-0.263295 -0.416846,-0.263295 -0.230173,0 -0.416787,0.117882 -0.416787,0.263295 0,0 0.0545118,0.033252 0.128547,0.0319252 0.131819,-0.00236614 0.109303,-0.089378 0.178138,-0.0224213 0.0095748,0.00931496 0.020815,0.0199291 0.0329567,0.0307559 0.0291732,0.0260315 0.0635748,0.053378 0.092685,0.0672756 7.87402e-006,0 0.0676063,-0.0368583 0.119421,-0.0775118 0.0939016,-0.0736693 0.0304685,0.00920472 0.169409,0.00837008 0.0342756,-0.000200787 0.0728504,-0.0100709 0.112476,-0.0383937z"/>
  <path class="fil0" d="M4.24643 1.63771c0,0.433197 -0.370835,0.784358 -0.828346,0.784358 -0.457528,0 -0.846102,-0.0793425 -0.828409,-0.784358 0.0108189,-0.433024 0.122594,-0.784378 0.828409,-0.784378 0.625634,0 0.828346,0.351248 0.828346,0.784378z"/>
  <path class="fil0" d="M4.23709 1.48586c0,0 0.0390748,0.900173 0.104945,1.16487 0.193886,0.779224 0.551063,1.57786 0.335567,2.12332 -0.215425,0.545531 -0.0726063,0.611866 -0.644319,0.691165l-0.303004 -0.00109449c-1.09458,0.0544488 -1.33794,-0.144539 -1.56427,-0.690071 -0.226315,-0.545465 0.126004,-1.34409 0.329673,-2.12332 0.0691811,-0.264709 0.0979252,-1.03931 0.0979252,-1.03931l1.64348 -0.125559z"/>
  <path class="fil3" d="M4.1251 5.31263c0.181441,-0.145406 0.273535,-0.264386 0.323768,-0.687417 0.0502165,-0.42298 -0.029311,-0.621252 -0.0821969,-0.869382 -0.0528661,-0.248177 -0.246654,-1.14685 -0.287764,-1.28795 -0.0351969,-0.120717 -0.201531,-0.14124 -0.201531,-0.14124 0.255362,-0.191677 0.279701,-0.459685 0.247724,-0.760492 -0.0598898,-0.563693 -0.658382,-0.600701 -0.699374,0l-0.00766929 0c-0.0321969,-0.610382 -0.647181,-0.552035 -0.705795,0 -0.0342402,0.322126 -0.0113425,0.559248 0.256803,0.760492 0,0 -0.172335,0.0205236 -0.211571,0.14439 -0.0444055,0.140146 -0.233965,1.03663 -0.286846,1.2848 -0.0528425,0.24813 -0.132366,0.446402 -0.0821811,0.869382 0.0502598,0.423031 0.142335,0.542012 0.323795,0.687417 0.181409,0.145441 0.486374,0.0184685 0.689067,0.0184685 0.219992,0 0.547138,0.123126 0.723772,-0.0184685z"/>
  <path class="fil4" d="M3.41933 1.78002l-1.1811e-005 7.87402e-006 -1.1811e-005 -7.87402e-006 0 1.5748e-005 -0.147614 0.0792362c0,0 -0.117543,0.0407795 0.147614,0.431323l0 3.93701e-005 1.1811e-005 -1.5748e-005 1.1811e-005 1.5748e-005 0 -3.93701e-005c0.265157,-0.390543 0.147602,-0.431323 0.147602,-0.431323l-0.147602 -0.0792362 0 -1.5748e-005z"/>
  <path class="fil2" d="M3.41779 1.76813l-0.147638 0.0596417c0,0 -0.117575,0.0306732 0.147638,0.324528l0 -0.384169z"/>
  <path class="fil5" d="M3.41774 1.76813l0.147646 0.0596417c0,0 0.117591,0.0306732 -0.147646,0.324528l0 -0.384169z"/>
  <path class="fil6" d="M3.15258 1.76525c-0.0109331,0 -0.0198346,-0.00885039 -0.0198346,-0.0198031 0,-0.0337953 -0.0275039,-0.0612992 -0.0613189,-0.0612992 -0.033815,0 -0.0613386,0.0275039 -0.0613386,0.0612992 0,0.0109449 -0.00888583,0.0198031 -0.0198346,0.0198031 -0.0109528,0 -0.0198307,-0.00885039 -0.0198307,-0.0198031 0,-0.0556614 0.0453031,-0.100957 0.101004,-0.100957 0.0556732,0 0.101,0.0453031 0.101,0.100957 0,0.0109449 -0.00890157,0.0198031 -0.0198465,0.0198031z"/>
  <path class="fil6" d="M3.80567 1.76525c-0.0109528,0 -0.0198307,-0.00885039 -0.0198307,-0.0198031 0,-0.0337953 -0.0275039,-0.0612992 -0.0613425,-0.0612992 -0.0338346,0 -0.0613622,0.0275039 -0.0613622,0.0612992 3.93701e-006,0.0109449 -0.00885433,0.0198031 -0.0198307,0.0198031 -0.0109488,0 -0.0198071,-0.00885039 -0.0198071,-0.0198031 3.93701e-006,-0.0556614 0.0453031,-0.100957 0.101,-0.100957 0.0556772,0 0.100976,0.0453031 0.100976,0.100957 3.93701e-006,0.0109449 -0.00885433,0.0198031 -0.0198031,0.0198031z"/>
  <circle class="fil0" cx="3.07143" cy="1.75452" r="0.056185"/>
  <circle class="fil0" cx="3.72449" cy="1.75452" r="0.056185"/>
  <rect class="fil7" width="6.82666" height="6.82666"/>
 </g>
</svg>
