<?xml version="1.0" encoding="UTF-8"?>
<!DOCTYPE svg PUBLIC "-//W3C//DTD SVG 1.1//EN" "http://www.w3.org/Graphics/SVG/1.1/DTD/svg11.dtd">
<!-- Creator: CorelDRAW -->
<svg xmlns="http://www.w3.org/2000/svg" xml:space="preserve" width="6.82666in" height="6.82666in" style="shape-rendering:geometricPrecision; text-rendering:geometricPrecision; image-rendering:optimizeQuality; fill-rule:evenodd; clip-rule:evenodd"
viewBox="0 0 6.82666 6.82666"
 xmlns:xlink="http://www.w3.org/1999/xlink">
 <defs>
  <style type="text/css">
   <![CDATA[
    .fil13 {fill:none}
    .fil9 {fill:#424242}
    .fil10 {fill:#5E330B}
    .fil5 {fill:#804712}
    .fil8 {fill:#81D4FA}
    .fil12 {fill:#DEA85D}
    .fil11 {fill:#E57373}
    .fil6 {fill:#FAFAFA}
    .fil7 {fill:#003333;fill-rule:nonzero}
    .fil2 {fill:#424242;fill-rule:nonzero}
    .fil4 {fill:#5E330B;fill-rule:nonzero}
    .fil1 {fill:#804712;fill-rule:nonzero}
    .fil0 {fill:#E8B46A;fill-rule:nonzero}
    .fil3 {fill:#FFC675;fill-rule:nonzero}
   ]]>
  </style>
 </defs>
 <g id="Layer_x0020_1">
  <metadata id="CorelCorpID_0Corel-Layer"/>
  <path class="fil0" d="M3.26642 5.12489c-0.00339764,0.0204528 -0.00677559,0.0415906 -0.0101811,0.0629134 -0.00683071,0.0427835 -0.0137795,0.086315 -0.022311,0.131787 -0.014622,0.0780354 -0.0211142,0.126126 -0.0261299,0.163264 -0.0104055,0.0770866 -0.0147441,0.109157 -0.0720472,0.278622 -0.00642913,0.0189055 -0.0117047,0.0560039 -0.014311,0.0767717 0.0480276,0.133394 -0.209598,0.109413 -0.210366,0.109354l-0.0134646 -0.00320866c-0.0590197,-0.0240512 -0.0650827,-0.0649449 -0.0499528,-0.110846 0.00617717,-0.0187283 0.0169173,-0.0350945 0.0270512,-0.0505394 0.00507087,-0.00772441 0.00987008,-0.0150433 0.010189,-0.0161142l5.90551e-005 1.9685e-005c0.00438189,-0.0145748 0.0110748,-0.0313858 0.0187559,-0.0506772 0.0140236,-0.0352362 0.0317441,-0.0797638 0.0335276,-0.0989764l2.3622e-005 3.93701e-006c0.00281102,-0.0302008 0.0344685,-0.142417 0.0606929,-0.235362 0.0143661,-0.0509331 0.027126,-0.0961299 0.0312559,-0.112831l0 -0.000212598c0.0705709,-0.284535 0.111362,-1.14591 0.0700118,-1.42107 -0.00096063,-0.0063937 -0.00151969,-0.0100472 -0.00493307,-0.0330039 0.00251575,0.00775591 0.0049252,0.0156614 0.00722047,0.0237323l0 0.000114173 0.00179528 0.00652756c0.0152835,0.0555827 0.0325787,0.111185 0.049063,0.166504 0.00529528,0.0177559 0.0105866,0.0355157 0.015878,0.0532717 0.0138661,0.0466024 0.0277362,0.0932087 0.0413346,0.139874 0.00730315,0.025063 0.0160945,0.0521024 0.021689,0.0774409l0.00106299 0.00480709c0.0137126,0.0668031 0.0137874,0.144992 0.0155,0.212681 0.00180709,0.0715 0.00175197,0.155075 0.0187244,0.22472 0.00662598,0.0271811 0.0126811,0.0545984 0.0182244,0.0821654 -0.011937,0.157008 -0.0212717,0.294429 -0.0183622,0.318272z"/>
  <path class="fil1" d="M3.1217 5.83902c0.0647677,0.133031 -0.20715,0.142315 -0.291791,0.112665 -0.0105827,-0.0500945 0.00261811,-0.0722362 0.017752,-0.118138 0.00142126,-0.00430709 0.00307874,-0.00849213 0.00492126,-0.0125669 0.0112008,0.007 0.0267441,0.0145472 0.0641142,0.0221378 0.041622,0.00845276 0.150925,0.00529134 0.205004,-0.00409843z"/>
  <path class="fil0" d="M4.74464 4.89956c-0.00286614,0.0199291 -0.00570866,0.0405276 -0.00857874,0.0613031 -0.00575197,0.041689 -0.0418543,0.253339 -0.0490433,0.297646 -0.0123189,0.0760394 -0.0177913,0.122902 -0.0220157,0.159087 -0.00876772,0.0751142 -0.0124213,0.106366 -0.0607047,0.271492 -0.00541732,0.0184213 -0.0098622,0.0545709 -0.012063,0.0748071 0.0404685,0.12998 -0.176598,0.106614 -0.177248,0.106555l-0.0113425 -0.00312598c-0.0497283,-0.023437 -0.0548386,-0.0632835 -0.0420906,-0.108008 0.00520472,-0.018252 0.0142559,-0.0341969 0.0227913,-0.049248 0.00427165,-0.00752756 0.0083189,-0.0146575 0.00859055,-0.0157008l4.72441e-005 1.9685e-005c0.00368898,-0.0142047 0.00933071,-0.0305827 0.0158031,-0.0493819 0.011815,-0.0343346 0.026748,-0.0777205 0.028252,-0.0964449l1.5748e-005 3.93701e-006c0.00237008,-0.0294252 0.0290433,-0.138772 0.0511417,-0.229339 0.0121024,-0.0496299 0.0228543,-0.0936693 0.0263346,-0.109941l0 -0.000208661c0.0594606,-0.277252 0.0645591,-0.63998 0.0297205,-0.908106 -0.000992126,-0.00762992 -0.00147638,-0.0112559 -0.0065,-0.0503858l-2.3622e-005 7.87402e-006c-0.00174409,-0.0103819 -0.00352756,-0.0207677 -0.00534646,-0.0311339 0.0273583,0.0361969 0.0533307,0.0734961 0.0769606,0.115299 0.0497559,0.0880157 0.104075,0.297512 0.125669,0.451622 0.00200394,0.0378543 0.00565748,0.0755433 0.00962992,0.113181z"/>
  <path class="fil2" d="M1.92688 1.74299c-4.33071e-005,0.000562992 -0.000275591,0.00234252 -0.000413386,0.00315354l0.00111417 -0.003 -0.000700787 -0.000153543z"/>
  <path class="fil3" d="M4.18206 4.03311c-0.203079,0.130949 -0.493638,0.0621969 -0.579551,0.0374843 -0.0206732,0.0114961 -0.045437,0.0216457 -0.0646772,0.0288071 -0.0043937,0.030937 -0.00922835,0.0776024 -0.00251969,0.099811l-0.000188976 5.51181e-005c0.0171299,0.0563622 0.014437,0.167874 0.0116142,0.284555 -0.00253543,0.104921 -0.0051811,0.214335 0.00636614,0.279106l-0.000169291 2.75591e-005c0.00822441,0.046563 -0.000885827,0.175402 -0.0110039,0.318311 -0.0105551,0.149169 -0.0222323,0.314217 -0.016689,0.402083l0 0.000208661c0.00115354,0.0189488 0.0012874,0.0362559 0.00140945,0.052622 0.000240157,0.0319134 0.000456693,0.0595354 0.0135709,0.118701 0.0175157,0.0786614 -0.019063,0.149 -0.0453583,0.199571 -0.00796063,0.015311 -0.0158425,0.0153976 -0.0150433,0.0213937 0.00790945,0.060122 0.00362992,0.114575 -0.0120157,0.155524 -0.0105906,0.0277165 -0.229386,0.0368307 -0.278776,-0.00689764 -0.0231614,-0.179449 0.0293543,-0.0738071 0.0674094,-0.200409 0.00380709,-0.0126693 0.00623228,-0.0257047 0.00525984,-0.0367913 -0.00215354,-0.024811 -0.00129134,-0.0611024 0.00115748,-0.095811 0.00271654,-0.0384685 0.00765748,-0.0765472 0.0127677,-0.0958583l0 -0.000204724c0.00251575,-0.00938583 0.00551575,-0.0456417 0.00819685,-0.0881102 0.00376378,-0.0596732 0.00642126,-0.130173 0.00642126,-0.159508 0,-0.0721693 -0.00629134,-0.158567 -0.0165433,-0.245413 -0.0111024,-0.0940827 -0.0265276,-0.187547 -0.0434488,-0.26372 -0.0117441,-0.0532441 -0.0134961,-0.129075 -0.0153228,-0.208665 -0.00179921,-0.0783976 -0.00370079,-0.160732 -0.0156417,-0.221189l-3.93701e-005 7.87402e-006c-0.00477559,-0.0238268 -0.0403189,-0.155134 -0.070626,-0.267114 -0.0197717,-0.0730551 -0.0373504,-0.137992 -0.0431535,-0.161228l0 -0.000208661c-0.0245236,-0.0984449 -0.0601614,-0.165232 -0.0909685,-0.222972 -0.0727874,-0.136417 -0.122402,-0.229488 0.00026378,-0.506469 -0.0645118,-0.076189 -0.132287,-0.199823 -0.194421,-0.335165 -0.0964488,-0.210102 -0.180976,-0.451461 -0.216614,-0.581697l-0.00125197 -0.00479134c-0.0158701,-0.0895787 -0.0500787,-0.209909 -0.0870433,-0.324795 -0.0560709,-0.174244 -0.116835,-0.333232 -0.130138,-0.35428 -0.00341339,-0.00540157 -0.0063622,-0.00964567 -0.00888583,-0.0129724 -0.081815,0.0456535 -0.224205,0.0939764 -0.22476,0.0941693l-0.00729134 0.00187402c-0.0544685,0.0104606 -0.0836772,0.0304606 -0.096063,0.0412087 -0.012315,0.0372638 -0.0485236,0.0625394 -0.0909685,0.0773268 -0.035811,0.0124685 -0.0699449,0.00794488 -0.101272,0.00683858 -0.0106378,-0.000374016 -0.0288858,0.00888583 -0.0375669,0.00693307l-0.027311 -0.00614567 -0.0103976 -0.025937c-0.0480866,-0.119969 0.0457717,-0.235331 0.0662165,-0.258453 0.0239134,-0.0363937 0.114783,-0.167634 0.136618,-0.199142 0.008,-0.0282953 0.00965748,-0.046937 0.011437,-0.0670591 0.00100394,-0.0113386 0.00204724,-0.0230906 0.00420866,-0.0377283 -0.0279724,-0.0321417 -0.0494094,-0.0749961 -0.0494882,-0.0751575l-0.0132126 -0.0270236 0.0161299 -0.0250591c0.0271732,-0.0422087 0.102709,-0.0348622 0.169949,-0.028315 0.0115276,0.00112205 0.0219921,0.0025 0.0306457,0.00371654 0.00675984,-0.0443701 0.023878,-0.102874 0.0545157,-0.15678 0.0318543,-0.0560512 0.0776575,-0.111295 0.140122,-0.14724l0.0750591 -0.0431929 0.00452362 0.0865236c0.00411417,0.0786929 -0.00456299,0.149661 -0.0113189,0.204929 -0.00346457,0.0283189 -0.00632283,0.051748 -0.00681496,0.0648268 0.0099685,0.00542126 0.0337126,0.0168701 0.0603228,0.0296969 0.0562992,0.0271378 0.122272,0.0589488 0.159913,0.102138 0.0449488,0.0512323 0.0894921,0.109882 0.13415,0.173913 0.0452362,0.0648583 0.0891614,0.132874 0.133083,0.203236 0.0329606,0.0527874 0.0692559,0.112358 0.106232,0.173047 0.272776,0.447685 0.584736,0.959673 1.04157,1.09998 0.0443858,0.0136299 0.149157,0.0413661 0.251528,0.0654528 0.0752717,0.0177126 0.14774,0.0331299 0.191016,0.0388701 0.126776,0.016689 0.520417,0.403244 0.564799,0.522626 0.0713268,0.191831 0.00218898,0.444429 -0.0289488,0.643587 -0.000259843,0.00666535 -0.00587795,0.0118583 -0.0125433,0.0115984 -0.00666535,-0.00026378 -0.0118583,-0.00587795 -0.0115945,-0.0125433 -0.0063937,-0.128559 0.0338661,-0.395354 -0.0364685,-0.571307 -0.0088189,0.0690039 -0.0367795,0.135283 -0.0654055,0.20311 -0.0302717,0.0717126 -0.0614016,0.14548 -0.063437,0.222591 0.0263228,0.245689 0.0766575,0.316819 0.119016,0.37665 0.0602362,0.0850827 0.10722,0.151457 0.0789134,0.483965l-1.5748e-005 0c-0.00209843,0.0267874 0.00644882,0.162937 0.0140551,0.284024 0.00505118,0.0804409 0.00968898,0.154303 0.0105906,0.190154l0 0.000204724c0.000228346,0.00989764 0.000393701,0.0208346 0.000551181,0.0316063 0.000909449,0.0629016 0.00173228,0.119307 0.0276811,0.178949 0.0380827,0.0876417 -0.00416142,0.143878 -0.0370236,0.18761 -0.00657874,0.00875984 -0.0125276,0.0166772 -0.0143189,0.0206772 -0.00540157,0.0121457 -0.00520472,0.0259331 -0.00425197,0.0347441 0.0263031,0.0414055 0.0114213,0.0828819 -0.00233465,0.106961 -0.00254331,0.0325 -0.0276496,0.0508307 -0.066622,0.0593819 -0.0455551,0.01 -0.123894,0.00172047 -0.172142,-0.00337402 -0.0143228,-0.00151575 -0.0253622,-0.0026811 -0.0296772,-0.0026811l-0.0414567 0 -0.0102087 -0.0402087c0.0181063,-0.0510039 0.0329449,-0.0824055 0.0535551,-0.114299 0.00819685,-0.00555118 0.0169055,-0.0114488 0.0173976,-0.013815 0.00495276,-0.0234567 0.0157087,-0.0434449 0.0269291,-0.0642874 0.0104409,-0.0194016 0.0215276,-0.0400079 0.0209213,-0.0533189l0 -0.000208661c-0.000248031,-0.00593307 -0.000937008,-0.0169488 -0.00165748,-0.0285866 -0.00287402,-0.0462913 -0.00638976,-0.102878 0.00484646,-0.157638 0.00509449,-0.0248071 -0.00493307,-0.104319 -0.016689,-0.197543 -0.00980315,-0.077748 -0.0207362,-0.164433 -0.0252638,-0.242161 0.00786614,-0.145512 -0.0931102,-0.47078 -0.184177,-0.596051 -0.0516811,-0.0710945 -0.105776,-0.124063 -0.163614,-0.180701 -0.0594449,-0.0582126 -0.195843,-0.190697 -0.236524,-0.261157z"/>
  <path class="fil4" d="M1.87109 1.8601c-0.0120118,-0.000326772 -0.0237126,-0.00117323 -0.0350433,-0.0015748 -0.00654331,-0.000228346 -0.0159606,0.0031811 -0.0242638,0.00538976 0.00182283,-0.0052126 0.00619685,-0.00939764 0.0119724,-0.0107362 0.0644606,-0.0205591 0.105752,-0.100886 0.122516,-0.10772 0.00181102,0.0322205 -0.0360512,0.0824724 -0.0751811,0.114642z"/>
  <path class="fil1" d="M2.40519 1.74547c-0.0194016,-0.0511063 -0.034126,-0.0862559 -0.0399016,-0.0953937 -0.00341339,-0.00540157 -0.0063622,-0.00964567 -0.00888583,-0.0129724 -0.00461024,0.00257087 -0.00942126,0.00515354 -0.014378,0.00773228 -0.0379961,-0.511331 0.119224,-0.0885827 0.189602,0.115846l-0.126437 -0.0152126z"/>
  <path class="fil1" d="M2.54483 1.20792c0.0250315,0.0154724 0.0477874,0.0326457 0.0647717,0.0521339 0.0449488,0.0512323 0.0894921,0.109882 0.13415,0.173913 0.0301339,0.0432047 0.059689,0.087815 0.0890433,0.133583l-0.0637402 0.122665 -0.206701 -0.0575669 -0.0175236 -0.424728z"/>
  <path class="fil1" d="M2.55886 2.22189c-0.0173071,-0.0684331 -0.0398071,-0.144094 -0.063437,-0.217531 -0.0123583,-0.0384016 -0.0249409,-0.0760591 -0.0371969,-0.111665l0.213941 -0.108665 0.0762362 0.155949 0.0125197 0.284346 -0.202063 -0.00243307z"/>
  <path class="fil1" d="M2.96515 1.78085l0.0179173 0.0294016c0.0466339,0.0765354 0.0944134,0.154953 0.143866,0.233071l-0.070378 0.112902 -0.206701 -0.0479882 -0.0184528 -0.372791 0.133748 0.0454055z"/>
  <path class="fil1" d="M2.84025 2.99923c-0.0135,-0.027122 -0.0268307,-0.0550945 -0.0399134,-0.0835906 -0.028315,-0.0616772 -0.0555945,-0.126047 -0.0809213,-0.189512l0.0327913 -0.0639488 0.128839 0.104528 0.0145827 0.247945 -0.055378 -0.0154213z"/>
  <path class="fil1" d="M3.36031 2.38255c0.0360827,0.0469921 0.0732008,0.0924843 0.111496,0.135906l-0.0953346 0.201906 -0.142902 -0.138976 0.097874 -0.179209 0.0288661 -0.019626z"/>
  <path class="fil1" d="M3.20728 2.16728c0.0194961,0.0292874 0.0392756,0.0583701 0.0593622,0.0871181l-0.0105866 0.0253228 0.00483071 0.148421 -0.233713 -0.0732835 0.0854291 -0.203835 0.0946772 0.0162559z"/>
  <path class="fil1" d="M2.65887 2.56625c-0.0240039,-0.0669055 -0.0444646,-0.128673 -0.0600433,-0.180134l0.00106299 -0.052752 0.257709 -0.0704882 -0.00735827 0.252807c0,0 -0.18039,0.0510472 -0.18776,0.0534803l-0.00361024 -0.00291339z"/>
  <path class="fil1" d="M4.34025 4.21672c-0.0540276,-0.0546181 -0.114898,-0.119343 -0.147071,-0.166146l0 -0.0790039 0.0486102 -0.0948031 0.128839 0.104528 0.0145827 0.247945 -0.0449606 -0.0125197z"/>
  <path class="fil1" d="M4.62486 4.54632c-0.0141654,-0.0276496 -0.0285354,-0.0519134 -0.0426654,-0.0713543 -0.0187559,-0.0258031 -0.0378346,-0.0492165 -0.0572913,-0.0712874l0.103524 -0.0428858 -0.00356693 0.185528z"/>
  <path class="fil1" d="M4.81794 4.07165c0.0136811,0.108272 0.0324016,0.179039 0.0527323,0.229839 -0.0307087,0.0132047 -0.062378,0.0268661 -0.0648386,0.0280945l-0.0437559 -0.0534803 0.00242913 -0.182319 0.0534331 -0.0221339z"/>
  <path class="fil1" d="M4.95449 4.44254c0.0368268,0.055874 0.0645354,0.119126 0.0654331,0.271004l-0.101248 -0.0419449 -0.00242913 -0.182315 0.0382441 -0.0467441z"/>
  <path class="fil1" d="M3.16616 4.28082c-0.0117283,-0.0437717 -0.0250787,-0.0930866 -0.0375433,-0.139138l-0.0139055 -0.0513976 0.161472 -0.051748 -0.0361142 0.10939 -0.0072874 0.133697 -0.066622 -0.00080315z"/>
  <polygon class="fil3" points="3.49317,4.35627 3.30008,4.29236 3.30875,4.16538 3.34489,4.07915 3.52893,4.11075 3.48834,4.20785 "/>
  <path class="fil1" d="M2.92643 3.59313c-0.00972047,-0.0490315 -0.00894094,-0.104374 0.00877559,-0.175846l0.20348 -0.0652087 -0.0361142 0.10939 -0.0072874 0.133697 -0.168854 -0.0020315z"/>
  <path class="fil1" d="M5.04501 3.57866c0.0130433,0.049748 0.0181654,0.10276 0.0181181,0.15728l-0.038189 -0.0195197c0,0 0.0106772,-0.0716969 0.0200709,-0.13776z"/>
  <path class="fil1" d="M5.05918 3.8228c-0.00768504,0.0905 -0.0252362,0.182528 -0.0407913,0.268504l-0.000724409 0.000822835 -0.0377283 -0.0192835c0.00300787,-0.0806732 0.0081811,-0.178638 0.00130709,-0.27322 0.0141339,0.00747638 0.0266969,0.0153858 0.0266969,0.0153858 0.00180709,-0.00180709 0.0345945,0.00446457 0.0512402,0.00779134z"/>
  <path class="fil1" d="M4.97357 3.72948c-0.0064685,-0.0429173 -0.0163543,-0.0839528 -0.0311496,-0.120961 -0.00557874,0.0436575 -0.0188228,0.0862244 -0.0350472,0.128783l-0.10328 -0.0427874 -0.00242913 -0.182315 0.0437559 -0.0534843c0.0048622,0.00242913 0.123972,0.0534843 0.123972,0.0534843l0.00417717 0.21728z"/>
  <path class="fil1" d="M4.80726 3.26317c0.0595472,0.058185 0.114953,0.118094 0.156343,0.1695l-0.200445 -0.0249882 -0.0435157 -0.071185 0.0258228 -0.0695197 0.0617953 -0.00380709z"/>
  <path class="fil3" d="M4.42974 3.16215c0.0291693,0.00485827 0.221209,0.0632008 0.221209,0.0632008l-0.00356693 0.0843543 0.0501417 0.0919764 -0.0490079 0.0278583 -0.184744 0.0413268 -0.0340315 -0.308717z"/>
  <path class="fil1" d="M4.47931 3.01706c0.056437,0.0152047 0.151957,0.0856142 0.248098,0.171453l4.33071e-005 0.0195551 -0.260815 -0.114154 0.0126732 -0.0768543z"/>
  <path class="fil1" d="M4.04969 2.91761c0.0520866,0.0148543 0.14013,0.0377638 0.226469,0.0580787 0.0304921,0.00717717 0.0605236,0.0139724 0.0883425,0.0199055l0.0321929 0.054378 -0.282661 0.0340394 -0.0643425 -0.166402z"/>
  <path class="fil1" d="M3.73465 2.76224c0.0464291,0.033563 0.0945039,0.0634134 0.144413,0.088811l0.0134606 0.0510079 -0.199331 0.0777835 -0.0704921 -0.182311 0.111949 -0.0352913z"/>
  <polygon class="fil5" points="3.97274,2.96282 3.81231,3.02602 3.76855,3.17431 3.92656,3.31773 4.06755,3.19132 "/>
  <path class="fil5" d="M4.16478 3.17674c0.0145866,-0.00485827 0.16287,-0.0194449 0.16287,-0.0194449l0.0534764 0.228496 -0.177453 0.0875118 -0.111819 -0.155571 0.0729252 -0.140992z"/>
  <path class="fil5" d="M4.42974 3.16215c0.0291693,0.00485827 0.221209,0.0632008 0.221209,0.0632008l-0.00356693 0.0843543 0.0501417 0.0919764 -0.0490079 0.0278583 -0.184744 0.0413268 -0.0340315 -0.308717z"/>
  <polygon class="fil5" points="3.85849,3.3712 4.05539,3.41496 4.09185,3.59241 3.8512,3.64589 3.81717,3.48545 "/>
  <polygon class="fil5" points="3.65917,3.47087 3.80502,3.42711 3.73452,3.75771 "/>
  <polygon class="fil5" points="3.50845,3.43927 3.63729,3.5438 3.65187,3.79174 3.45983,3.73826 3.45983,3.53407 "/>
  <polygon class="fil5" points="3.50602,3.36148 3.70778,3.36391 3.71507,3.23022 3.6616,3.12083 3.50845,3.19861 "/>
  <polygon class="fil5" points="3.18758,3.06978 3.45254,3.15972 3.33586,3.3469 3.19974,3.3153 "/>
  <polygon class="fil5" points="3.3817,2.7996 3.3942,2.95796 3.56679,2.91178 3.57165,2.82913 3.5154,2.64544 "/>
  <polygon class="fil5" points="4.96423,4.79193 4.79443,4.80239 4.7686,4.87191 4.81212,4.9431 5.01709,4.96865 "/>
  <path class="fil5" d="M3.57165 2.96768l0.0607717 0.092378 -0.104528 0.0777835 -0.21148 -0.0899409 0.0486142 -0.0534803c0,0 0.211484,-0.0267402 0.206622,-0.0267402z"/>
  <polygon class="fil5" points="3.14869,2.72217 3.24592,2.70272 3.30912,2.82913 3.31885,2.95067 3.1973,3.00172 3.08548,2.90205 "/>
  <polygon class="fil5" points="3.01499,2.94824 3.14869,3.05033 3.13654,3.26425 3.01499,3.308 2.92019,3.11354 "/>
  <path class="fil5" d="M4.50753 3.55352l0.187173 -0.0559094 0.0534803 0.0315984 -0.0704921 0.199331 -0.162874 0.00972441c0,0 -0.00971654,-0.182315 -0.0072874,-0.184744z"/>
  <path class="fil5" d="M4.76277 3.7334c0,0 -0.0486142,0.119114 -0.0607717,0.121543 -0.0121535,0.00242913 -0.136126,-0.0559094 -0.136126,-0.0559094l0.0437559 0.223634 0.109386 0.0316024 0.0899449 -0.0753543 0.0437559 -0.179882 -0.0899449 -0.0656339z"/>
  <path class="fil5" d="M4.78502 4.3723c0,0 -0.0656339,-0.0413228 -0.0656339,-0.0243071 0,0.0170118 -0.0340315,0.245516 -0.0340315,0.245516l0.109386 0.0559094 0.0534803 -0.0607717 -0.00242913 -0.206622c0,0 -0.0583425,-0.0121535 -0.0607717,-0.00972441z"/>
  <polygon class="fil5" points="4.34566,3.50449 4.18522,3.56769 4.14147,3.71598 4.29948,3.8594 4.44046,3.73299 "/>
  <polygon class="fil5" points="3.38588,3.66981 3.15217,3.59652 3.2376,3.39269 3.42164,3.42429 3.38105,3.52139 "/>
  <polygon class="fil5" points="4.07274,3.66283 3.91231,3.72603 3.86855,3.87431 4.02656,4.01773 4.16755,3.89133 "/>
  <polygon class="fil5" points="4.47099,4.02954 4.66789,4.0733 4.70435,4.25074 4.4637,4.30422 4.42967,4.14379 "/>
  <polygon class="fil5" points="4.40083,3.87504 4.53314,3.79899 4.50914,3.9519 4.42927,3.98328 "/>
  <polygon class="fil5" points="3.60602,4.06149 3.80778,4.06392 3.81507,3.93022 3.7616,3.82083 3.60845,3.89862 "/>
  <polygon class="fil5" points="3.28758,3.76978 3.55254,3.85973 3.43586,4.0469 3.29974,4.0153 "/>
  <path class="fil5" d="M3.46332 4.39269l0.0607717 0.092378 -0.104528 0.0777835 -0.21148 -0.0899409 0.0486142 -0.0534803c0,0 0.211484,-0.0267402 0.206622,-0.0267402z"/>
  <polygon class="fil5" points="3.11499,3.64824 3.24869,3.75033 3.23654,3.96425 3.11499,4.00801 3.02019,3.81354 "/>
  <polygon class="fil5" points="3.49317,4.35627 3.30008,4.29236 3.30875,4.16538 3.34489,4.07915 3.52893,4.11075 3.48834,4.20785 "/>
  <polygon class="fil5" points="2.98999,2.40657 3.12369,2.50867 3.11154,2.72258 2.98999,2.76634 2.89519,2.57187 "/>
  <path class="fil6" d="M2.23097 1.31407c0.0272441,0 0.0493346,0.0276102 0.0493346,0.0616693 0,0.0340591 -0.0220906,0.0616693 -0.0493346,0.0616693 -0.0272441,0 -0.0493346,-0.0276102 -0.0493346,-0.0616693 0,-0.0340591 0.0220906,-0.0616693 0.0493346,-0.0616693z"/>
  <path class="fil7" d="M2.23097 1.31241c0.0141457,0 0.0269409,0.00714567 0.0361811,0.0186969 0.00915354,0.0114449 0.0148228,0.0272362 0.0148228,0.0446417 0,0.0174055 -0.00566929,0.0331929 -0.0148228,0.0446417 -0.00924016,0.0115512 -0.0220354,0.0186969 -0.0361811,0.0186969 -0.0141457,0 -0.0269409,-0.00714567 -0.0361811,-0.0186969 -0.00915354,-0.0114488 -0.0148228,-0.0272362 -0.0148228,-0.0446417 0,-0.0174055 0.00566929,-0.0331969 0.0148228,-0.0446417 0.00924016,-0.0115512 0.0220354,-0.0186969 0.0361811,-0.0186969zm0.0335906 0.0207677c-0.00861417,-0.0107677 -0.0204961,-0.0174291 -0.0335906,-0.0174291 -0.0130945,0 -0.0249764,0.00666142 -0.0335906,0.0174291 -0.00868898,0.0108661 -0.0140748,0.0259252 -0.0140748,0.0425709 0,0.0166457 0.00538583,0.0317047 0.0140748,0.0425709 0.00861417,0.0107677 0.0204961,0.0174291 0.0335906,0.0174291 0.0130945,0 0.0249764,-0.00666142 0.0335906,-0.0174291 0.00868898,-0.0108661 0.0140748,-0.0259252 0.0140748,-0.0425709 0,-0.0166457 -0.00538583,-0.0317047 -0.0140748,-0.0425709z"/>
  <path class="fil8" d="M2.23097 1.33517c0.0179252,0 0.0324567,0.0181654 0.0324567,0.0405709 0,0.0224055 -0.0145315,0.0405709 -0.0324567,0.0405709 -0.0179252,0 -0.0324567,-0.0181654 -0.0324567,-0.0405709 0,-0.0224055 0.0145315,-0.0405709 0.0324567,-0.0405709z"/>
  <path class="fil9" d="M2.23097 1.3508c0.0110197,0 0.0199567,0.0111693 0.0199567,0.0249449 0,0.0137756 -0.00893701,0.0249449 -0.0199567,0.0249449 -0.0110197,0 -0.0199567,-0.0111693 -0.0199567,-0.0249449 0,-0.0137756 0.00893701,-0.0249449 0.0199567,-0.0249449z"/>
  <path class="fil10" d="M1.81084 1.71107c-0.0212323,0.023437 -0.000744094,0.0902362 -0.00104331,0.093748 0.0282087,0 0.0239291,-0.0920354 0.0145827,-0.0916654 -0.00284646,0.000110236 -0.0141142,-0.00144882 -0.0135394,-0.00208268z"/>
  <path class="fil11" d="M2.34006 0.919937c-0.0209685,-0.0585787 -0.179992,0.195886 -0.135327,0.217362 7.87402e-006,3.93701e-006 0.103382,0.0235276 0.106248,0.0227402 -0.000354331,-0.0254409 0.0353898,-0.22248 0.0290787,-0.240102z"/>
  <path class="fil12" d="M1.9802 1.29441c0.00937402,-0.0541693 0.114587,-0.122917 0.134378,-0.139583 0.0131024,-0.0110315 0.0129646,-0.0270866 0.011374,-0.0366811 -0.00700787,-0.000933071 -0.014878,-0.00188976 -0.0233189,-0.0027126 -0.0672402,-0.00654724 -0.142776,-0.0138937 -0.169949,0.028315l-0.0161299 0.0250591 0.0132126 0.0270236c7.87402e-005,0.000161417 0.0215157,0.0430157 0.0494882,0.0751575 -0.00216142,0.0146378 -0.00320472,0.0263898 -0.00420866,0.0377283 -0.000814961,0.00922835 -0.0016063,0.0181457 -0.00299606,0.0278228 0.00230315,-0.0104567 0.00505512,-0.024252 0.00814961,-0.0421299z"/>
  <path class="fil5" d="M3.4678 6.03137c0.0123425,-0.0323031 0.0176102,-0.0730079 0.0154016,-0.118268 -0.0499528,0.0106929 -0.167839,0.0335197 -0.219654,0.0229921 -0.0363031,-0.00737402 -0.0577795,-0.0178386 -0.069811,-0.0258386 -0.0106929,0.0129409 -0.0146024,0.0375787 -0.0047126,0.114217 0.0493898,0.0437283 0.268185,0.0346142 0.278776,0.00689764z"/>
  <path class="fil1" d="M4.59654 5.76664c0.0566693,0.116402 -0.181252,0.124524 -0.255311,0.0985787 -0.00925984,-0.0438307 0.00229134,-0.0632047 0.0155315,-0.103366 0.00124409,-0.00376772 0.00269685,-0.00742913 0.00430709,-0.0109961 0.00979921,0.00612598 0.0234016,0.0127283 0.0560984,0.0193701 0.0364173,0.00739764 0.132055,0.00462992 0.179374,-0.00358661z"/>
  <path class="fil1" d="M5.03091 5.84838c0.0772087,0.169161 -0.246933,0.178504 -0.347839,0.134303 -0.0126142,-0.0597165 0.0104094,-0.078815 0.0284488,-0.133535 0.00822441,-0.0249213 0.0370512,-0.00359055 0.0750079,0.00411811 0.0496142,0.0100748 0.179913,0.00630709 0.244382,-0.00488583z"/>
  <rect class="fil13" width="6.82666" height="6.82666"/>
 </g>
</svg>
