<?xml version="1.0" encoding="UTF-8"?>
<!DOCTYPE svg PUBLIC "-//W3C//DTD SVG 1.1//EN" "http://www.w3.org/Graphics/SVG/1.1/DTD/svg11.dtd">
<!-- Creator: CorelDRAW -->
<svg xmlns="http://www.w3.org/2000/svg" xml:space="preserve" width="6.82666in" height="6.82666in" style="shape-rendering:geometricPrecision; text-rendering:geometricPrecision; image-rendering:optimizeQuality; fill-rule:evenodd; clip-rule:evenodd"
viewBox="0 0 6.82666 6.82666"
 xmlns:xlink="http://www.w3.org/1999/xlink">
 <defs>
  <style type="text/css">
   <![CDATA[
    .fil12 {fill:none}
    .fil11 {fill:#3E2723}
    .fil0 {fill:#42250B}
    .fil6 {fill:#424242}
    .fil7 {fill:#5D3512}
    .fil10 {fill:#FFCC00}
    .fil4 {fill:#263238;fill-rule:nonzero}
    .fil2 {fill:#331B05;fill-rule:nonzero}
    .fil5 {fill:#424242;fill-rule:nonzero}
    .fil1 {fill:#522F0F;fill-rule:nonzero}
    .fil9 {fill:#E3CF91;fill-rule:nonzero}
    .fil8 {fill:#EEDA9D;fill-rule:nonzero}
    .fil3 {fill:white;fill-rule:nonzero}
   ]]>
  </style>
 </defs>
 <g id="Layer_x0020_1">
  <metadata id="CorelCorpID_0Corel-Layer"/>
  <path class="fil0" d="M2.74927 1.94731l0.671472 -0.309382 0.664472 0.293756c-0.11198,0.151909 -0.0651024,0.118917 -0.085937,0.307283l-1.16407 -0.0182283c0.00312205,-0.187165 0.0103346,-0.205976 -0.0859409,-0.273429z"/>
  <path class="fil1" d="M2.75132 2.01775c-0.00364567,-0.0107047 -0.00698031,-0.0215039 -0.0100039,-0.0323858 -0.0141024,-0.0507598 -0.0213189,-0.102728 -0.0213189,-0.154736 0,-0.175272 0.0784055,-0.333681 0.205161,-0.448102 0.125224,-0.113039 0.29785,-0.182965 0.488177,-0.182965 0.190327,0 0.362953,0.0699252 0.488177,0.182965 0.126756,0.114421 0.205161,0.272831 0.205161,0.448102 0,0.0597598 -0.00948819,0.119244 -0.0278976,0.176732 -0.00111024,0.00347244 -0.00225591,0.00693307 -0.00343701,0.0103898 -0.178559,-0.119984 -0.491937,-0.305398 -0.662079,-0.241874 -0.170169,-0.0633898 -0.483425,0.121917 -0.661941,0.241874z"/>
  <path class="fil2" d="M2.70996 1.89185c-0.00371654,-0.0263661 -0.00559449,-0.0529055 -0.00559449,-0.0794488 0,-0.175272 0.0784055,-0.333681 0.205161,-0.448102 0.0614488,-0.0554685 0.134315,-0.100543 0.215083,-0.132083 0.0145906,0.0949252 -0.0172126,0.233193 -0.092622,0.369311 -0.0926102,0.167177 -0.222862,0.280327 -0.322028,0.290323z"/>
  <path class="fil2" d="M4.1243 1.89185c0.00371654,-0.0263661 0.00559449,-0.0529055 0.00559449,-0.0794488 0,-0.175272 -0.0784055,-0.333681 -0.205161,-0.448102 -0.0614488,-0.0554685 -0.134315,-0.100543 -0.215083,-0.132083 -0.0145906,0.0949252 0.0172126,0.233193 0.092622,0.369311 0.0926102,0.167177 0.222862,0.280327 0.322028,0.290323z"/>
  <path class="fil3" d="M2.71944 1.68093c0.0284843,-0.122402 0.0959449,-0.231654 0.190091,-0.316638 0.0171378,-0.0154685 0.0351654,-0.030126 0.054,-0.0439094 0.0171142,0.0534488 0.00382283,0.132386 -0.0404016,0.208634 -0.0542559,0.0935394 -0.137972,0.153563 -0.203689,0.151913z"/>
  <path class="fil3" d="M4.11482 1.68093c-0.0284843,-0.122402 -0.0959449,-0.231654 -0.190091,-0.316638 -0.0171378,-0.0154685 -0.0351654,-0.030126 -0.054,-0.0439094 -0.0171142,0.0534488 -0.00382283,0.132386 0.0404016,0.208634 0.0542559,0.0935394 0.137972,0.153563 0.203689,0.151913z"/>
  <path class="fil4" d="M2.75326 1.59783c0.0146142,-0.0628031 0.0492283,-0.118858 0.0975354,-0.162465 0.00879134,-0.00793701 0.0180433,-0.0154567 0.0277047,-0.0225315 0.00878346,0.0274252 0.00196457,0.0679291 -0.0207283,0.107051 -0.0278386,0.0479921 -0.0707913,0.0787913 -0.104512,0.0779449z"/>
  <path class="fil4" d="M4.081 1.59783c-0.0146142,-0.0628031 -0.0492283,-0.118858 -0.0975354,-0.162465 -0.00879134,-0.00793701 -0.0180433,-0.0154567 -0.0277047,-0.0225315 -0.00878346,0.0274252 -0.00196457,0.0679291 0.0207283,0.107051 0.0278386,0.0479921 0.0707913,0.0787913 0.104512,0.0779449z"/>
  <path class="fil5" d="M3.49633 1.97105c0.000338583,-0.000251969 0.000515748,-0.00038189 8.26772e-005,-6.69291e-005l-8.26772e-005 6.69291e-005z"/>
  <path class="fil6" d="M4.02981 5.39967l-1.233 0c0.033874,0.068815 0.0701575,0.132209 0.108551,0.189535 0.146142,0.218209 0.321539,0.346358 0.50798,0.346358 0.187394,0 0.363618,-0.129488 0.510193,-0.34978 0.0375551,-0.0564449 0.0730748,-0.118681 0.106276,-0.186114zm-0.66724 -1.90248l0.101528 0c-0.0182362,-0.0598386 -0.035126,-0.119992 -0.0507598,-0.179992 -0.0156339,0.0600039 -0.0325315,0.120154 -0.0507677,0.179992zm-0.244587 0.598606l0.590701 0c-0.0830709,-0.151339 -0.152638,-0.31913 -0.2105,-0.491937l-0.169701 0c-0.0578622,0.172807 -0.127429,0.340598 -0.2105,0.491937zm-0.432795 0.598602l1.45629 0c-0.0813465,-0.0864528 -0.155961,-0.178122 -0.222449,-0.269346 -0.0525276,-0.072063 -0.101988,-0.146398 -0.148354,-0.222587l-0.714685 0c-0.0463661,0.076189 -0.0958268,0.150524 -0.148354,0.222587 -0.0664882,0.0912244 -0.141102,0.182894 -0.222449,0.269346zm0.0628937 0.598602l1.33048 0c0.0618583,-0.145846 0.113772,-0.311453 0.153437,-0.491933l-1.63729 0c0.0396614,0.18052 0.0915512,0.346126 0.15337,0.491933z"/>
  <ellipse class="fil7" cx="3.41335" cy="4.17556" rx="0.868154" ry="1.76"/>
  <path class="fil5" d="M3.28245 1.97098c-0.000433071,-0.000314961 -0.000255906,-0.000185039 8.26772e-005,6.69291e-005l-8.26772e-005 -6.69291e-005z"/>
  <path class="fil8" d="M3.33698 1.87983c0.00213386,0.00123622 0.0047874,0.00300787 0.00796457,0.0053189 0.0907047,0.0661181 0.0939094,0.538933 -0.00670079,1.06678 -0.0744764,0.390744 -0.201634,0.817228 -0.384642,1.13353 -0.0566102,0.0978346 -0.116992,0.190366 -0.179961,0.27676 -0.195638,0.268406 -0.413429,0.471787 -0.618992,0.587492 -0.215894,0.121516 -0.421197,0.148307 -0.57989,0.0564882 -0.0114055,-0.00659843 -0.0231339,-0.0142795 -0.0351535,-0.0230394 -0.177028,-0.129035 -0.244949,-0.398614 -0.211634,-0.730126 0.0321614,-0.320055 0.15824,-0.701539 0.370598,-1.06856 0.0381575,-0.0659409 0.0816929,-0.131976 0.129421,-0.197465 0.23526,-0.32278 0.566272,-0.619449 0.855272,-0.825472 0.301717,-0.215087 0.56937,-0.330512 0.653717,-0.281709z"/>
  <path class="fil9" d="M3.31452 2.01235c0.0197402,-0.0191969 0.0201772,-0.0507677 0.000980315,-0.0705079 -0.0191969,-0.0197402 -0.0507677,-0.0201772 -0.0705079,-0.000980315 -0.104217,0.101374 -0.189949,0.234697 -0.262571,0.375551 -0.0719567,0.139567 -0.13052,0.284866 -0.181441,0.413559 -0.0149409,0.0377677 -0.0480945,0.044811 -0.100457,0.0559291 -0.041748,0.00886614 -0.0924961,0.0196457 -0.156039,0.0456496l-0.0647323 0.0264882 0.018752 0.0460945 -0.018937 -0.0462756c-0.00135039,0.000551181 -0.00266535,0.00116142 -0.00394094,0.00181496 -0.00731102,0.00309449 -0.0109252,0.00494882 -0.0135787,0.00633071l0 -0.000259843c-0.000984252,0.00076378 -0.00205906,0.00132677 -0.000275591,0.000401575l0.000275591 -0.000141732 0 -0.000259843c0.000929134,-0.000728346 0.00177559,-0.0016378 0,-0.0016378 -0.0223386,0 -0.041248,0.0146496 -0.0476654,0.0348622l-0.00285433 -0.00687008c0.00057874,0.00735039 -0.000956693,0.021878 0.00123622,0.0135472 0.000389764,-0.00227953 0.000933071,-0.00451181 0.00161811,-0.00667717l-0.00285433 -0.00687008c-0.000200787,-0.00252362 -0.000645669,-0.00420866 -0.00158268,-0.00381496 -0.0224449,0.00940945 -0.0459488,0.019252 -0.0594961,0.0385079 -0.00825591,0.00605906 -0.0141378,0.0142244 -0.0174016,0.023252 -0.0222047,0.0480276 -0.0381142,0.0949173 -0.053374,0.139933 -0.0431299,0.127209 -0.0804449,0.237252 -0.243043,0.243075 -0.0746772,0.00266929 -0.156146,0.0146102 -0.212531,0.0228661 -0.0305079,0.0044685 -0.0529843,0.00775984 -0.0562126,0.00761024 -0.0275039,-0.00129134 -0.0508543,0.0199567 -0.0521457,0.0474606 -0.00129134,0.0275039 0.0199567,0.0508543 0.0474606,0.0521457 0.0137047,0.000641732 0.0398543,-0.00319291 0.0753543,-0.00838976 0.0549567,-0.00804724 0.13435,-0.0196811 0.201587,-0.0220866 0.231539,-0.00829134 0.279094,-0.148535 0.334059,-0.31065 0.013626,-0.040189 0.0277795,-0.0819252 0.0452362,-0.121264 0.00988583,-0.0075315 0.0169961,-0.0187283 0.0190827,-0.0319724l-0.0493898 -0.00779134 0.0492205 0.00761811c0.00270472,-0.0171575 0.00379134,0.0144252 0.00987795,0.011874 0.0123622,-0.00517717 0.0244213,-0.0102283 0.0347008,-0.0169528 0.0099685,-0.000929134 0.0143937,-0.00322835 0.024937,-0.00870472 0.00183465,-0.000952756 0.00420079,-0.00217717 0.00673228,-0.00334252 0.000952756,-0.000322835 0.00190157,-0.000677165 0.00284252,-0.00106299l-6.29921e-005 -0.000153543 7.08661e-005 -2.75591e-005 -2.75591e-005 -6.69291e-005 0.0645669 -0.0264213c0.0539134,-0.022063 0.100728,-0.0320079 0.139236,-0.040185 0.0845591,-0.0179567 0.138091,-0.0293268 0.172724,-0.116866 0.0503898,-0.127346 0.108193,-0.270846 0.177142,-0.404575 0.0682913,-0.132449 0.148051,-0.256984 0.243429,-0.349764z"/>
  <path class="fil9" d="M2.77172 2.88176c0.00290945,-0.0273976 -0.0169409,-0.0519724 -0.0443386,-0.0548819 -0.0273976,-0.00290945 -0.0519724,0.0169409 -0.0548819,0.0443386 -0.0131654,0.122201 -0.00921654,0.345169 0.0109803,0.55824 0.0170591,0.180008 0.0459409,0.354378 0.0862638,0.457992 0.00992126,0.0256693 0.0387835,0.038437 0.0644528,0.0285157 0.0256693,-0.00992126 0.038437,-0.0387835 0.0285157,-0.0644528 -0.0368071,-0.0945827 -0.0637126,-0.259421 -0.0800118,-0.431433 -0.0195866,-0.206638 -0.0235512,-0.421622 -0.0109803,-0.538319z"/>
  <path class="fil9" d="M2.76773 3.54675c0.0147756,-0.0232992 0.00786614,-0.0541693 -0.0154331,-0.0689449 -0.0232992,-0.0147756 -0.0541693,-0.00786614 -0.0689449,0.0154331 -0.000275591,0.000433071 -0.106748,0.0641772 -0.253638,0.15211 -0.183976,0.110138 -0.428441,0.256488 -0.623724,0.384138 -0.117783,0.0769882 -0.201783,0.187583 -0.26185,0.266669 -0.0268189,0.035311 -0.0482795,0.0635669 -0.0621417,0.0747638 -0.0214646,0.0172598 -0.024874,0.0486535 -0.00761417,0.0701181 0.0172598,0.0214646 0.0486535,0.024874 0.0701181,0.00761417 0.0227795,-0.0184016 0.0477441,-0.0512677 0.078937,-0.0923386 0.0554488,-0.0730079 0.132988,-0.175098 0.237236,-0.243236 0.198004,-0.129429 0.438913,-0.27365 0.620213,-0.382185 0.158913,-0.0951339 0.274106,-0.164094 0.286843,-0.184142z"/>
  <path class="fil9" d="M2.22554 3.92967c0.0251299,-0.0112165 0.0364134,-0.040689 0.0251969,-0.0658189 -0.0112165,-0.0251299 -0.040689,-0.0364134 -0.0658189,-0.0251969 -0.00215354,0.000956693 -0.116169,0.150441 -0.180319,0.301209 -0.0215866,0.0507323 -0.039185,0.10263 -0.0477165,0.150732 -0.00945276,0.0532559 -0.00794882,0.103193 0.0105787,0.144724 0.0155591,0.0348858 0.0418583,0.0623268 0.081752,0.0792992 0.0645236,0.0274528 0.0762992,0.0591102 0.0877559,0.0899094 0.00969685,0.0260748 0.0192677,0.0517835 0.0437362,0.0788622 0.0184449,0.0203858 0.0499252,0.0219606 0.070311,0.00351575 0.0203858,-0.0184449 0.0219606,-0.0499252 0.00351575,-0.070311 -0.0115157,-0.012748 -0.0178189,-0.0296693 -0.0242008,-0.0468307 -0.0188504,-0.0506811 -0.0382283,-0.102764 -0.142055,-0.146941 -0.0148386,-0.00631496 -0.0244016,-0.0160236 -0.0297992,-0.028126 -0.00949213,-0.0212756 -0.00938976,-0.0517756 -0.00315354,-0.0869134 0.00714961,-0.0403031 0.0223307,-0.084811 0.0410709,-0.128858 0.0556811,-0.13087 0.128193,-0.248835 0.129146,-0.249256z"/>
  <path class="fil9" d="M1.82503 4.12921c0.011,-0.0252402 -0.000543307,-0.054626 -0.0257835,-0.065626 -0.0252402,-0.011 -0.054626,0.000543307 -0.065626,0.0257835 -0.00499606,0.0114764 -0.0109646,0.107776 -0.0144646,0.201976 -0.00333465,0.0896378 -0.00534252,0.180984 -0.00302756,0.196071 0.00409843,0.0272874 0.0295472,0.0460906 0.0568346,0.0419921 0.0272874,-0.00409843 0.0460906,-0.0295472 0.0419921,-0.0568346 -0.00151969,-0.00991339 0.000681102,-0.0935945 0.00380709,-0.177717 0.00313386,-0.0844331 0.00619291,-0.165469 0.00626772,-0.165646z"/>
  <path class="fil9" d="M2.12617 4.5089c0.0159606,-0.022437 0.0107165,-0.0535709 -0.0117205,-0.0695315 -0.022437,-0.0159606 -0.0535709,-0.0107165 -0.0695315,0.0117205l-0.030748 0.0431732c-0.0197559,0.0277402 -0.0942638,0.113748 -0.163213,0.18937 -0.0550039,0.0603268 -0.104047,0.112173 -0.112677,0.116815 -0.0242677,0.0130512 -0.0333622,0.043311 -0.020311,0.0675787 0.0130512,0.0242677 0.043311,0.0333622 0.0675787,0.020311 0.0193858,-0.0104291 0.0779567,-0.0703071 0.139236,-0.137516 0.0707638,-0.0776102 0.148528,-0.167701 0.170638,-0.198748l0.030748 -0.0431732z"/>
  <path class="fil9" d="M2.22756 3.3742c0.0229724,-0.0152087 0.0292717,-0.0461693 0.014063,-0.0691417 -0.0152087,-0.0229724 -0.0461693,-0.0292717 -0.0691417,-0.014063 -0.047437,0.0314252 -0.171799,0.167055 -0.276,0.297307 -0.0888661,0.111087 -0.165122,0.22202 -0.172539,0.270209 -0.00409843,0.0272874 0.0147047,0.0527362 0.0419921,0.0568346 0.0272874,0.00409843 0.0527362,-0.0147047 0.0568346,-0.0419921 0.00457087,-0.0297205 0.0719567,-0.123579 0.151445,-0.222941 0.0986614,-0.123327 0.213094,-0.249547 0.253346,-0.276213z"/>
  <path class="fil9" d="M2.98848 2.56429c0.00237008,-0.0273976 -0.0179173,-0.0515354 -0.045315,-0.0539055 -0.0273976,-0.00237008 -0.0515354,0.0179173 -0.0539055,0.045315 -0.00421654,0.0468898 0.0152165,0.199394 0.0417559,0.332094 0.0218346,0.109161 0.050189,0.209409 0.0778031,0.239319 0.0186575,0.0202795 0.0502283,0.0215906 0.0705079,0.00293307 0.0202795,-0.0186575 0.0215906,-0.0502283 0.00293307,-0.0705079 -0.0137795,-0.0149252 -0.034374,-0.0971732 -0.0531969,-0.191272 -0.0251654,-0.125843 -0.0440394,-0.265547 -0.0405827,-0.303976z"/>
  <path class="fil5" d="M3.54425 1.97098c0.000433071,-0.000314961 0.000255906,-0.000185039 -8.26772e-005,6.69291e-005l8.26772e-005 -6.69291e-005z"/>
  <path class="fil8" d="M3.48972 1.87983c-0.00213386,0.00123622 -0.0047874,0.00300787 -0.00796457,0.0053189 -0.0907047,0.0661181 -0.0939094,0.538933 0.00670079,1.06678 0.0744764,0.390744 0.201634,0.817228 0.384642,1.13353 0.0566102,0.0978346 0.116992,0.190366 0.179961,0.27676 0.195638,0.268406 0.413429,0.471787 0.618992,0.587492 0.215894,0.121516 0.421197,0.148307 0.57989,0.0564882 0.0114055,-0.00659843 0.0231339,-0.0142795 0.0351535,-0.0230394 0.177028,-0.129035 0.244949,-0.398614 0.211634,-0.730126 -0.0321614,-0.320055 -0.15824,-0.701539 -0.370598,-1.06856 -0.0381575,-0.0659409 -0.0816929,-0.131976 -0.129421,-0.197465 -0.23526,-0.32278 -0.566272,-0.619449 -0.855272,-0.825472 -0.301717,-0.215087 -0.56937,-0.330512 -0.653717,-0.281709z"/>
  <path class="fil9" d="M3.58171 1.94086c-0.0197402,-0.0191969 -0.051311,-0.0187598 -0.0705079,0.000980315 -0.0191969,0.0197402 -0.0187598,0.051311 0.000980315,0.0705079 0.095378,0.0927795 0.175138,0.217315 0.243429,0.349764 0.0689488,0.133728 0.126752,0.277228 0.177142,0.404575 0.0346339,0.0875394 0.0881654,0.0989094 0.172724,0.116866 0.0385079,0.00817717 0.0853228,0.018122 0.139236,0.040185l0.0645669 0.0264213 -2.75591e-005 6.69291e-005 7.08661e-005 2.75591e-005 -6.29921e-005 0.000153543c0.000940945,0.000385827 0.00188976,0.000740157 0.00284252,0.00106299 0.0025315,0.00116535 0.00490157,0.00238976 0.00673228,0.00334252 0.0105433,0.00547638 0.0149685,0.00777559 0.024937,0.00870472 0.0102795,0.00672441 0.0223386,0.0117756 0.0347008,0.0169528 0.00608661,0.00255118 0.00717323,-0.0290315 0.00987795,-0.011874l0.0492205 -0.00761811 -0.0493898 0.00779134c0.00208661,0.0132441 0.00919685,0.0244409 0.0190827,0.0319724 0.0174567,0.0393386 0.0316102,0.0810748 0.0452362,0.121264 0.0549646,0.162114 0.10252,0.302358 0.334059,0.31065 0.0672362,0.00240551 0.14663,0.0140394 0.201587,0.0220866 0.0355,0.00519685 0.0616496,0.0090315 0.0753543,0.00838976 0.0275039,-0.00129134 0.048752,-0.0246417 0.0474606,-0.0521457 -0.00129134,-0.0275039 -0.0246417,-0.048752 -0.0521457,-0.0474606 -0.00322835,0.000149606 -0.0257047,-0.00314173 -0.0562126,-0.00761024 -0.0563858,-0.00825591 -0.137854,-0.0201969 -0.212531,-0.0228661 -0.162598,-0.00582283 -0.199913,-0.115866 -0.243043,-0.243075 -0.0152598,-0.0450157 -0.0311693,-0.0919055 -0.053374,-0.139933 -0.00326378,-0.00902756 -0.00914567,-0.0171929 -0.0174016,-0.023252 -0.0135472,-0.0192559 -0.0370512,-0.0290984 -0.0594961,-0.0385079 -0.000937008,-0.000393701 -0.00138189,0.00129134 -0.00158268,0.00381496l-0.00285433 0.00687008c0.000685039,0.00216535 0.00122835,0.0043937 0.00161811,0.00667717 0.00219291,0.00833071 0.00065748,-0.00619685 0.00123622,-0.0135472l-0.00285433 0.00687008c-0.00641339,-0.0202165 -0.0253268,-0.0348622 -0.0476654,-0.0348622 -0.00177559,0 -0.000929134,0.000909449 0,0.0016378l0 0.000259843 0.000275591 0.000141732c0.00178346,0.000925197 0.000708661,0.000362205 -0.000275591,-0.000401575l0 0.000259843c-0.00265354,-0.00138189 -0.00626772,-0.00323622 -0.0135787,-0.00633071 -0.00127559,-0.00065748 -0.00259055,-0.00126378 -0.00394094,-0.00181496l-0.018937 0.0462756 0.018752 -0.0460945 -0.0647323 -0.0264882c-0.0635433,-0.0260039 -0.114291,-0.0367835 -0.156039,-0.0456496 -0.0523622,-0.0111181 -0.0855157,-0.0181614 -0.100457,-0.0559291 -0.0509213,-0.128693 -0.109484,-0.273992 -0.181441,-0.413559 -0.072622,-0.140854 -0.158354,-0.274177 -0.262571,-0.375551z"/>
  <path class="fil9" d="M4.1542 2.87122c-0.00290945,-0.0273976 -0.0274843,-0.047248 -0.0548819,-0.0443386 -0.0273976,0.00290945 -0.047248,0.0274843 -0.0443386,0.0548819 0.0125709,0.116697 0.0086063,0.331681 -0.0109803,0.538319 -0.0162992,0.172012 -0.0432047,0.33685 -0.0800118,0.431433 -0.00992126,0.0256693 0.00284646,0.0545315 0.0285157,0.0644528 0.0256693,0.00992126 0.0545315,-0.00284646 0.0644528,-0.0285157 0.0403228,-0.103614 0.0692047,-0.277984 0.0862638,-0.457992 0.0201969,-0.213071 0.0241457,-0.436039 0.0109803,-0.55824z"/>
  <path class="fil9" d="M4.14335 3.49324c-0.0147756,-0.0232992 -0.0456457,-0.0302087 -0.0689449,-0.0154331 -0.0232992,0.0147756 -0.0302087,0.0456457 -0.0154331,0.0689449 0.0127362,0.0200472 0.127929,0.0890079 0.286843,0.184142 0.181299,0.108535 0.422209,0.252756 0.620213,0.382185 0.104248,0.0681378 0.181787,0.170228 0.237236,0.243236 0.0311929,0.0410709 0.0561575,0.073937 0.078937,0.0923386 0.0214646,0.0172598 0.0528583,0.0138504 0.0701181,-0.00761417 0.0172598,-0.0214646 0.0138504,-0.0528583 -0.00761417,-0.0701181 -0.0138622,-0.0111969 -0.0353228,-0.0394528 -0.0621417,-0.0747638 -0.0600669,-0.0790866 -0.144067,-0.189681 -0.26185,-0.266669 -0.195283,-0.12765 -0.439748,-0.274 -0.623724,-0.384138 -0.14689,-0.0879331 -0.253362,-0.151677 -0.253638,-0.15211z"/>
  <path class="fil9" d="M4.64178 3.83865c-0.0251299,-0.0112165 -0.0546024,6.69291e-005 -0.0658189,0.0251969 -0.0112165,0.0251299 6.69291e-005,0.0546024 0.0251969,0.0658189 0.000952756,0.00042126 0.0734646,0.118386 0.129146,0.249256 0.0187402,0.0440472 0.0339213,0.0885551 0.0410709,0.128858 0.00623622,0.0351378 0.00633858,0.0656378 -0.00315354,0.0869134 -0.00539764,0.0121024 -0.0149606,0.021811 -0.0297992,0.028126 -0.103827,0.0441772 -0.123205,0.0962598 -0.142055,0.146941 -0.00638189,0.0171614 -0.012685,0.0340827 -0.0242008,0.0468307 -0.0184449,0.0203858 -0.0168701,0.0518661 0.00351575,0.070311 0.0203858,0.0184449 0.0518661,0.0168701 0.070311,-0.00351575 0.0244685,-0.0270787 0.0340394,-0.0527874 0.0437362,-0.0788622 0.0114567,-0.0307992 0.0232323,-0.0624567 0.0877559,-0.0899094 0.0398937,-0.0169724 0.0661929,-0.0444134 0.081752,-0.0792992 0.0185276,-0.0415315 0.0200315,-0.0914685 0.0105787,-0.144724 -0.0085315,-0.0481024 -0.0261299,-0.1 -0.0477165,-0.150732 -0.0641496,-0.150768 -0.178165,-0.300252 -0.180319,-0.301209z"/>
  <path class="fil9" d="M5.09308 4.08937c-0.011,-0.0252402 -0.0403858,-0.0367835 -0.065626,-0.0257835 -0.0252402,0.011 -0.0367835,0.0403858 -0.0257835,0.065626 7.48031e-005,0.000177165 0.00313386,0.0812126 0.00626772,0.165646 0.00312598,0.084122 0.00532677,0.167803 0.00380709,0.177717 -0.00409843,0.0272874 0.0147047,0.0527362 0.0419921,0.0568346 0.0272874,0.00409843 0.0527362,-0.0147047 0.0568346,-0.0419921 0.00231496,-0.0150866 0.000307087,-0.106433 -0.00302756,-0.196071 -0.0035,-0.0942008 -0.0094685,-0.1905 -0.0144646,-0.201976z"/>
  <path class="fil9" d="M4.78178 4.45109c-0.0159606,-0.022437 -0.0470945,-0.0276811 -0.0695315,-0.0117205 -0.022437,0.0159606 -0.0276811,0.0470945 -0.0117205,0.0695315l0.030748 0.0431732c0.0221102,0.0310472 0.099874,0.121138 0.170638,0.198748 0.0612795,0.0672087 0.11985,0.127087 0.139236,0.137516 0.0242677,0.0130512 0.0545276,0.00395669 0.0675787,-0.020311 0.0130512,-0.0242677 0.00395669,-0.0545276 -0.020311,-0.0675787 -0.00862992,-0.00464173 -0.0576732,-0.0564882 -0.112677,-0.116815 -0.0689488,-0.075622 -0.143457,-0.16163 -0.163213,-0.18937l-0.030748 -0.0431732z"/>
  <path class="fil9" d="M4.65422 3.291c-0.0229724,-0.0152087 -0.0539331,-0.00890945 -0.0691417,0.014063 -0.0152087,0.0229724 -0.00890945,0.0539331 0.014063,0.0691417 0.040252,0.0266654 0.154685,0.152886 0.253346,0.276213 0.0794882,0.0993622 0.146874,0.19322 0.151445,0.222941 0.00409843,0.0272874 0.0295472,0.0460906 0.0568346,0.0419921 0.0272874,-0.00409843 0.0460906,-0.0295472 0.0419921,-0.0568346 -0.00741732,-0.048189 -0.0836732,-0.159122 -0.172539,-0.270209 -0.104201,-0.130252 -0.228563,-0.265882 -0.276,-0.297307z"/>
  <path class="fil9" d="M3.93744 2.5557c-0.00237008,-0.0273976 -0.0265079,-0.047685 -0.0539055,-0.045315 -0.0273976,0.00237008 -0.047685,0.0265079 -0.045315,0.0539055 0.00345669,0.0384291 -0.0154173,0.178134 -0.0405827,0.303976 -0.0188228,0.0940984 -0.0394173,0.176346 -0.0531969,0.191272 -0.0186575,0.0202795 -0.0173465,0.0518504 0.00293307,0.0705079 0.0202795,0.0186575 0.0518504,0.0173465 0.0705079,-0.00293307 0.0276142,-0.0299094 0.0559685,-0.130157 0.0778031,-0.239319 0.0265394,-0.132701 0.0459724,-0.285205 0.0417559,-0.332094z"/>
  <path class="fil10" d="M3.41335 5.12334c-0.245894,0 -0.480992,0.0320984 -0.697075,0.0905945 -0.00120079,0.000326772 -0.00240157,0.000653543 -0.00360236,0.000980315 0.0399016,0.110366 0.0859961,0.210957 0.13724,0.299669 0.00256693,-0.000547244 0.0051378,-0.00109055 0.00770866,-0.00162992 0.175917,-0.0368819 0.362488,-0.0567047 0.555728,-0.0567047 0.193209,0 0.379748,0.0198189 0.555642,0.056685 0.00259843,0.000547244 0.00519685,0.00109449 0.00779528,0.00164961 0.0512441,-0.0887126 0.0973386,-0.189303 0.13724,-0.299669 -0.00121654,-0.000334646 -0.00242913,-0.000661417 -0.00364567,-0.000992126 -0.216075,-0.0584882 -0.451157,-0.0905827 -0.697031,-0.0905827z"/>
  <path class="fil10" d="M3.41335 4.40252c-0.182591,0 -0.359224,0.0177008 -0.526543,0.0507638 -0.0781535,0.0154409 -0.154272,0.0342362 -0.22802,0.0561457 -0.0287677,0.0344016 -0.0578465,0.0674094 -0.0871417,0.0989606 0.00820472,0.0657795 0.0182362,0.130083 0.0299764,0.192677 0.0035,0.0186575 0.00715354,0.0371614 0.0109528,0.0555079 0.0661024,-0.0210945 0.134224,-0.0396535 0.20411,-0.0555079 0.187811,-0.0426024 0.388366,-0.0656378 0.596665,-0.0656378 0.208299,0 0.408854,0.0230354 0.596665,0.0656378 0.0698858,0.0158543 0.138008,0.0344134 0.20411,0.0555079 0.00379921,-0.0183465 0.00745276,-0.0368504 0.0109528,-0.0555079 0.0117402,-0.0625945 0.0217717,-0.126898 0.0299764,-0.192677 -0.0292953,-0.0315512 -0.058374,-0.0645591 -0.0871417,-0.0989606 -0.0737598,-0.0219134 -0.149894,-0.0407126 -0.228063,-0.0561575 -0.167307,-0.0330551 -0.343929,-0.050752 -0.5265,-0.050752z"/>
  <path class="fil10" d="M3.13946 3.68179c-0.0465354,0.125453 -0.0990512,0.244965 -0.157657,0.353256 0.0589094,-0.0093937 0.118854,-0.0169094 0.179697,-0.0224449 0.0824173,-0.00749606 0.16648,-0.0113661 0.251846,-0.0113661 0.0853504,0 0.169402,0.00386614 0.251807,0.0113622 0.0608543,0.00553937 0.120811,0.0130512 0.179736,0.0224488 -0.0586063,-0.108291 -0.111122,-0.227803 -0.157657,-0.353256 -0.0546575,-0.00542126 -0.110059,-0.00924409 -0.166098,-0.0113976 -0.0356772,-0.00137402 -0.0716142,-0.00206693 -0.107787,-0.00206693 -0.036185,0 -0.0721378,0.00069685 -0.107831,0.00206693 -0.0560276,0.00215354 -0.111413,0.00597638 -0.166055,0.0113976z"/>
  <path class="fil10" d="M3.32826 3.00294c-0.0222756,0.110902 -0.0487441,0.224142 -0.0794803,0.336453 0.052752,-0.00311024 0.10611,-0.00474016 0.159988,-0.00482677 0.00152756,-3.93701e-006 0.00305118,-3.93701e-006 0.00457874,-3.93701e-006 0.00151575,0 0.0030315,0 0.00454724,3.93701e-006 0.0538898,8.66142e-005 0.10726,0.00171654 0.16002,0.00482677 -0.0307362,-0.112311 -0.0572047,-0.225551 -0.0794803,-0.336453 -0.0282087,-0.000854331 -0.0565748,-0.0012874 -0.0850866,-0.0012874 -0.0285118,0 -0.056878,0.000433071 -0.0850866,0.0012874z"/>
  <g id="_213845456">
   <path id="_213845408" class="fil11" d="M4.19429 0.769634c-0.265185,0.0760354 -0.641083,0.388031 -0.61663,0.659827l0.0125433 0.064752 -0.0169724 -0.0643386c-0.0444646,-0.281083 0.327598,-0.621669 0.59848,-0.715236 0.0173189,-0.0054685 0.0364094,0.00241339 0.0426496,0.0175984 0.00623622,0.015185 -0.00275197,0.0319291 -0.0200709,0.0373976z"/>
   <path id="_213845384" class="fil11" d="M2.63238 0.769634c0.265185,0.0760354 0.641083,0.388031 0.61663,0.659827l-0.0125433 0.064752 0.0169724 -0.0643386c0.0444646,-0.281083 -0.327598,-0.621669 -0.59848,-0.715236 -0.0173189,-0.0054685 -0.0364094,0.00241339 -0.0426496,0.0175984 -0.00623622,0.015185 0.00275197,0.0319291 0.0200709,0.0373976z"/>
  </g>
  <rect class="fil12" width="6.82666" height="6.82666"/>
 </g>
</svg>
