<?xml version="1.0" encoding="UTF-8"?>
<!DOCTYPE svg PUBLIC "-//W3C//DTD SVG 1.1//EN" "http://www.w3.org/Graphics/SVG/1.1/DTD/svg11.dtd">
<!-- Creator: CorelDRAW -->
<svg xmlns="http://www.w3.org/2000/svg" xml:space="preserve" width="6.82666in" height="6.82666in" style="shape-rendering:geometricPrecision; text-rendering:geometricPrecision; image-rendering:optimizeQuality; fill-rule:evenodd; clip-rule:evenodd"
viewBox="0 0 6.82666 6.82666"
 xmlns:xlink="http://www.w3.org/1999/xlink">
 <defs>
  <style type="text/css">
   <![CDATA[
    .fil5 {fill:none}
    .fil3 {fill:#212121}
    .fil4 {fill:#34526B}
    .fil0 {fill:#527490}
    .fil1 {fill:#B2C5D4}
    .fil2 {fill:#FAFAFA;fill-rule:nonzero}
   ]]>
  </style>
 </defs>
 <g id="Layer_x0020_1">
  <metadata id="CorelCorpID_0Corel-Layer"/>
  <path class="fil0" d="M2.27067 1.37667c0.0352008,0.0165472 0.122634,0.0604961 0.192437,0.277661 0.0640787,0.199335 0.118516,0.558276 0.10985,1.21146 0.078874,0.448717 0.335315,0.600071 0.728783,0.727547 0.304079,0.0985197 0.682618,0.208067 0.801185,0.240929 0.54948,0.152213 1.50952,0.484697 1.8799,0.996453 0.259429,0.358472 -0.609657,0.0400866 -0.670224,0.0191063 -0.115898,-0.0401417 -0.20572,-0.071248 -0.280512,-0.0646378 -0.569429,0.187685 -1.74356,0.310929 -2.31687,0.304067 0.00779134,0.00873228 0.0177638,0.0192638 0.0293307,0.0310709 0.168815,0.172339 0.333087,0.216476 0.489969,0.326791 0.0817795,0.0574803 0.0620354,0.0903937 -0.0307913,0.104067 -0.0123268,0.0018189 -0.0316024,0.00233071 -0.0549252,0.00186614 -0.220157,-0.0043937 -0.312862,-0.0414016 -0.518327,-0.0909449 -0.113563,-0.0273819 -0.2295,-0.0553425 -0.272382,-0.0707677 -0.0112677,-0.00406299 -0.0353346,-0.0102913 -0.0652441,-0.0180276 -0.0784921,-0.0203031 -0.194752,-0.0503898 -0.276996,-0.094252 -0.0882087,-0.0470512 -0.140413,-0.109291 -0.0992205,-0.192972l0.0246457 -0.0689961 0.00831102 -0.0232677c-0.00954724,0.000586614 -0.0197165,0.00116929 -0.0304094,0.00171654 -0.141512,0.00726378 -0.373961,0.00909449 -0.447921,-0.050122l-0.00958268 -0.00979134c-0.159138,-0.214937 -0.144256,-0.473291 0.0779213,-0.315425 0.0144528,0.0102677 0.0305354,0.0216969 0.0695118,0.0189764 0.0126142,-0.0484291 0.0330039,-0.136681 0.0232165,-0.167984 -0.600287,-1.24307 -0.0627165,-1.80425 -0.197307,-2.25649 -0.0150157,-0.0462087 -0.0431142,-0.081815 -0.0859921,-0.100799 -0.0135315,-0.00598819 -0.0286181,-0.0105118 -0.0453071,-0.0133858 -0.0659331,-0.0113701 -0.324512,-0.142748 -0.33072,-0.147189 -0.0859961,-0.0615236 -0.152421,-0.136909 -0.162083,-0.216114 -0.0106181,-0.0355433 -0.0522205,-0.206831 0.127811,-0.22022 0.109189,-0.0196102 0.271709,-0.0791535 0.42089,-0.133811 0.311421,-0.114091 0.590228,-0.157358 0.911059,-0.00651181z"/>
  <path class="fil1" d="M1.3518 3.11342c-0.0319606,0.339004 -0.00147638,0.767224 0.273004,1.34213l0.00203543 0.00306299c0.000641732,0.00174409 0.00128346,0.00348425 0.00192913,0.00521654 0.00117717,0.00244882 0.00235827,0.00490157 0.00354331,0.00735827 0.000527559,0.00168898 0.000968504,0.00354331 0.00132677,0.00555118 0.0828583,0.216453 0.198882,0.362886 0.311098,0.517374 0.000188976,-1.1811e-005 0.000377953,-2.3622e-005 0.000570866,-3.54331e-005l0.105248 -0.0300748c0.411697,-0.117626 0.166228,-0.412437 -0.0249843,-0.683992 -0.34502,-0.490004 0.0200276,-0.95787 -0.0960827,-1.20183 -0.0755984,-0.15885 -0.448882,-0.156114 -0.577689,0.0352402z"/>
  <path class="fil2" d="M0.939543 1.61055c-0.00458268,0 -0.00829921,0.00371654 -0.00829921,0.00829921 0,0.00458268 0.00371654,0.00829921 0.00829921,0.00829921l0.420654 -0.00139764c0.00458268,0 0.00829921,-0.00371654 0.00829921,-0.00829921 0,-0.00458268 -0.00371654,-0.00829921 -0.00829921,-0.00829921l-0.420654 0.00139764z"/>
  <path class="fil2" d="M0.932059 1.64733c-0.00377165,-0.0026063 -0.00894882,-0.00165748 -0.0115551,0.00211417 -0.0026063,0.00377165 -0.00165748,0.00894882 0.00211417,0.0115551l0.29663 0.204264c0.00377165,0.0026063 0.00894882,0.00165748 0.0115551,-0.00211417 0.0026063,-0.00377165 0.00165748,-0.00894882 -0.00211417,-0.0115551l-0.29663 -0.204264z"/>
  <path class="fil2" d="M0.940894 1.63029c-0.00438189,-0.00134646 -0.00903543,0.00111811 -0.0103819,0.0055 -0.00134646,0.00438189 0.00111811,0.00903543 0.0055,0.0103819l0.351543 0.108657c0.00438189,0.00134646 0.00903543,-0.00111811 0.0103819,-0.0055 0.00134646,-0.00438189 -0.00111811,-0.00903543 -0.0055,-0.0103819l-0.351543 -0.108657z"/>
  <path class="fil3" d="M1.78374 1.57482c0.0495433,0 0.0897047,0.0401614 0.0897047,0.0897047 0,0.0495394 -0.0401614,0.0897008 -0.0897047,0.0897008 -0.0495433,0 -0.0897047,-0.0401614 -0.0897047,-0.0897008 0,-0.0495433 0.0401614,-0.0897047 0.0897047,-0.0897047z"/>
  <path class="fil3" d="M0.786969 1.70937c-0.0113031,-0.0603268 -0.0147953,-0.17363 0.108736,-0.201315 0.0299528,0.0207795 0.0495709,0.0554094 0.0495709,0.094622 0,0.0635591 -0.0515276,0.115087 -0.115091,0.115087 -0.0152835,0 -0.029874,-0.00298425 -0.0432165,-0.0083937z"/>
  <path class="fil4" d="M1.91662 5.08608c-0.0411929,0.0836811 0.0110118,0.145921 0.0992205,0.192972 0.0822441,0.0438622 0.198504,0.0739488 0.276996,0.094252 0.0299094,0.00773622 0.0539764,0.0139646 0.0652441,0.0180276 0.0428819,0.0154252 0.158819,0.0433858 0.272382,0.0707677 0.205465,0.0495433 0.298169,0.0865512 0.518327,0.0909449 0.0233228,0.000464567 0.0425984,-4.72441e-005 0.0549252,-0.00186614 0.0928268,-0.0136732 0.112571,-0.0465866 0.0307913,-0.104067 -0.156882,-0.110315 -0.321154,-0.154453 -0.489969,-0.326791 -0.0115669,-0.0118071 -0.0215394,-0.0223386 -0.0293307,-0.0310709 0.11011,0.0013189 0.242386,-0.00216142 0.38828,-0.00998031 0.114539,-0.0490945 0.202591,-0.203665 0.145614,-0.311618 -0.0659724,-0.125 -0.32639,-0.0243071 -0.32639,-0.0243071 0,0 -0.436638,0.130646 -0.666736,0.0874606 -0.00114173,-0.000212598 -0.00227559,-0.000429134 -0.00340551,-0.000653543 -0.159602,-0.031437 -0.258996,0.0878543 -0.304634,0.163173 -0.000122047,0.000204724 -0.000248031,0.000409449 -0.000370079,0.000614173 0.000673228,-3.93701e-005 0.00134252,-8.26772e-005 0.00201181,-0.000122047l-0.00831102 0.0232677 -0.0246457 0.0689961z"/>
  <path class="fil4" d="M1.53959 4.62019c-0.222177,-0.157866 -0.237059,0.100488 -0.0779213,0.315425l0.00958268 0.00979134c0.0739606,0.0592165 0.306409,0.0573858 0.447921,0.050122 0.00890551,-0.000456693 0.0174488,-0.000937008 0.0255709,-0.00142126 -0.112217,-0.154488 -0.22824,-0.300921 -0.311098,-0.517374 0.00628346,0.0351614 -0.0126102,0.116618 -0.0245433,0.162433 -0.0389764,0.00272047 -0.0550591,-0.00870866 -0.0695118,-0.0189764z"/>
  <rect class="fil5" width="6.82666" height="6.82666"/>
 </g>
</svg>
