<?xml version="1.0" encoding="UTF-8"?>
<!DOCTYPE svg PUBLIC "-//W3C//DTD SVG 1.1//EN" "http://www.w3.org/Graphics/SVG/1.1/DTD/svg11.dtd">
<!-- Creator: CorelDRAW -->
<svg xmlns="http://www.w3.org/2000/svg" xml:space="preserve" width="6.82666in" height="6.82666in" style="shape-rendering:geometricPrecision; text-rendering:geometricPrecision; image-rendering:optimizeQuality; fill-rule:evenodd; clip-rule:evenodd"
viewBox="0 0 6.82666 6.82666"
 xmlns:xlink="http://www.w3.org/1999/xlink">
 <defs>
  <style type="text/css">
   <![CDATA[
    .fil5 {fill:none}
    .fil4 {fill:#212121}
    .fil3 {fill:#3E586B}
    .fil0 {fill:#456075}
    .fil2 {fill:#BDBDBD}
    .fil1 {fill:#FAFAFA}
   ]]>
  </style>
 </defs>
 <g id="Layer_x0020_1">
  <metadata id="CorelCorpID_0Corel-Layer"/>
  <g id="_376074840">
   <path id="_376074720" class="fil0" d="M0.906315 2.89978c0.536921,0.207504 0.923898,0.642283 0.923898,0.642283 0.157811,-0.0769291 0.354343,-0.132811 0.354343,-0.132811 0.0162835,-0.0392677 -0.00906299,-0.0950433 -0.00906299,-0.0950433l0.0170236 -0.0234213c0.0552087,0.00234646 0.130287,0.0658976 0.130287,0.0658976 0.441094,-0.154874 1.00778,-0.267185 1.00778,-0.267185 0.192563,-0.220346 0.112555,-0.511673 0.112555,-0.511673 -0.0300354,-0.0737913 0.0505945,-0.0613976 0.0505945,-0.0613976 0.147791,0.0267323 0.262346,0.227197 0.262346,0.227197 0.0507598,0.0995472 0.205469,0.30789 0.205469,0.30789 1.29269,-0.0482953 1.97563,0.392028 1.97563,0.392028 0.072378,0.0439724 0.0137165,0.0737756 0.0137165,0.0737756 0,-3.93701e-006 -1.73007,0.29472 -3.14262,0.129358 -3.93701e-006,0 -0.595327,-0.0655709 -1.04212,0.075374 -0.308091,0.407902 -0.722335,0.359512 -0.722335,0.359512l-0.0104685 -0.0372913c0.101921,-0.039622 0.155858,-0.203791 0.155858,-0.203791l0.0627441 -0.112484c0.0648583,-0.0979213 0.0189606,-0.175209 0.0189606,-0.175209 -0.183713,-0.341732 -0.350858,-0.468283 -0.350858,-0.468283 -0.00297244,-0.0726732 -0.0567795,-0.143571 -0.0567795,-0.143571 -0.0374764,-0.0660354 0.0430394,-0.0411457 0.0430354,-0.0411535z"/>
   <path id="_376075392" class="fil1" d="M5.51459 3.4176c0,0.023437 0.0190079,0.0423819 0.0424409,0.0423819 0.0234134,-3.93701e-006 0.0424094,-0.0189449 0.0424094,-0.042378 0,-0.0234646 -0.0189921,-0.0424252 -0.0424094,-0.0424252 -0.0234409,0 -0.0424409,0.0189685 -0.0424409,0.0424213z"/>
   <path id="_376075008" class="fil2" d="M5.95089 3.51731l-0.274563 0.153539c-0.0761024,-0.0322717 -0.144965,0.0591063 -0.144965,0.0591063l0.0856457 0.0213346c-0.0561614,0.162709 -0.488106,0.188272 -0.488106,0.188272l-0.552638 0.0271024c0,0 0.0620906,-0.0746417 0.101024,-0.304228 0.728291,-0.0522362 1.2736,-0.145122 1.2736,-0.145126z"/>
   <path id="_376075272" class="fil2" d="M1.76616 3.72205c0.446783,-0.140949 1.04212,-0.075374 1.04212,-0.075374 0.425764,0.0498346 0.880323,0.0578268 1.3077,0.0447677 -0.0516496,0.115827 -0.0491535,0.281531 -0.0475039,0.324354l-0.0654173 -0.0772913c-0.384614,0.0451693 -1.08265,-0.0880866 -1.08265,-0.0880866l-0.174067 0.0716063c-0.0341102,0.014374 -0.0673583,-0.0796457 -0.0673583,-0.0796457l-0.124437 -0.0532087 -0.0254882 -0.0316772 -0.275264 -0.0297677c-0.060874,0.0946732 -0.150618,0.0886339 -0.150618,0.0886339 0.00703543,-0.031815 -0.0495512,-0.110232 -0.0495512,-0.110232l-0.287465 0.0159213z"/>
   <path id="_376074864" class="fil3" d="M4.11811 3.68487c0.196571,-0.00600787 0.387449,-0.0164055 0.56728,-0.029311 -0.0393543,0.23202 -0.102094,0.307457 -0.102094,0.307457 -0.142543,0.281913 -0.578937,0.340677 -0.578937,0.340677 -0.0455157,0.0152126 -0.0824764,0.00201575 -0.0824764,0.00201575 -0.0235866,-0.0354173 0.0134528,-0.073437 0.0134528,-0.073437l0.103752 -0.114862c0.0460039,-0.0535236 0.0330079,-0.10237 0.0330079,-0.10237l-0.00198425 -0.00237402c-0.00166929,-0.0432795 -0.00418504,-0.210736 0.048,-0.327795z"/>
   <path id="_376075080" class="fil4" d="M5.53893 3.41759c0,0.00998819 0.00810236,0.018063 0.0180906,0.018063 0.00997638,-3.93701e-006 0.0180748,-0.0080748 0.0180748,-0.018063 0,-0.00999606 -0.00809449,-0.0180787 -0.0180748,-0.0180787 -0.00999213,0 -0.0180866,0.00808268 -0.0180906,0.0180787z"/>
  </g>
  <rect class="fil5" width="6.82666" height="6.82666"/>
 </g>
</svg>
