<?xml version="1.0" encoding="UTF-8"?>
<!DOCTYPE svg PUBLIC "-//W3C//DTD SVG 1.1//EN" "http://www.w3.org/Graphics/SVG/1.1/DTD/svg11.dtd">
<!-- Creator: CorelDRAW -->
<svg xmlns="http://www.w3.org/2000/svg" xml:space="preserve" width="6.82666in" height="6.82666in" style="shape-rendering:geometricPrecision; text-rendering:geometricPrecision; image-rendering:optimizeQuality; fill-rule:evenodd; clip-rule:evenodd"
viewBox="0 0 6.82666 6.82666"
 xmlns:xlink="http://www.w3.org/1999/xlink">
 <defs>
  <style type="text/css">
   <![CDATA[
    .fil7 {fill:none}
    .fil2 {fill:#4D2909}
    .fil1 {fill:#57300F}
    .fil0 {fill:#673B15}
    .fil3 {fill:#7C4D24}
    .fil6 {fill:#824E21}
    .fil5 {fill:#945823}
    .fil4 {fill:#424242;fill-rule:nonzero}
   ]]>
  </style>
 </defs>
 <g id="Layer_x0020_1">
  <metadata id="CorelCorpID_0Corel-Layer"/>
  <g id="_356625440">
   <path id="_356625704" class="fil0" d="M3.1799 2.16569c-0.0260906,0.0047874 -0.0511378,-0.0125 -0.0559252,-0.0385866 -0.142496,-0.776933 -0.890551,-1.29313 -1.66749,-1.15063 -0.0260945,0.0047874 -0.0511417,-0.0124961 -0.0559252,-0.0385866 -0.0047874,-0.0260906 0.0124961,-0.0511417 0.0385906,-0.0559252 0.829087,-0.152067 1.62728,0.398728 1.77934,1.22781 0.0047874,0.0260945 -0.0125,0.0511378 -0.0385906,0.0559213z"/>
   <path id="_356625248" class="fil0" d="M3.64618 2.16569c0.0260906,0.0047874 0.0511378,-0.0125 0.0559252,-0.0385866 0.142496,-0.776933 0.890551,-1.29313 1.66749,-1.15063 0.0260945,0.0047874 0.0511417,-0.0124961 0.0559252,-0.0385866 0.0047874,-0.0260906 -0.0124961,-0.0511417 -0.0385906,-0.0559252 -0.829087,-0.152067 -1.62728,0.398728 -1.77934,1.22781 -0.0047874,0.0260945 0.0125,0.0511378 0.0385906,0.0559213z"/>
  </g>
  <path class="fil1" d="M3.69499 2.22405l0.0106693 -0.0367717c0.00430315,-0.0139961 0.00253937,-0.0284094 -0.00379134,-0.0404173 -0.0145118,-0.0248346 -0.0760236,-0.0622874 -0.0951024,-0.0649843 -0.0227835,0.000933071 -0.043252,0.0165709 -0.0492677,0.0397874 -0.00333071,0.0127441 -0.00634252,0.0249055 -0.00900787,0.0364331l0.000240157 9.44882e-005 0.145835 0.065626c0.000149606,6.69291e-005 0.000291339,0.000145669 0.000425197,0.000232283z"/>
  <path class="fil2" d="M2.69769 2.6732c-0.0647441,-0.0353622 -0.117862,-0.0532165 -0.176854,-0.101882 -0.0202795,-0.0167323 -0.0375079,-0.0346142 -0.0503228,-0.0529921l-0.0756024 0.0275394c-0.057189,0.0252835 -0.16372,0.0702598 -0.247917,0.101626 -0.0457874,0.0170591 -0.0868858,0.0297402 -0.115039,0.0334055 -0.00884252,0.00227559 -0.0183858,0.00230315 -0.0278031,-0.000374016 -0.0281063,-0.00802362 -0.0509882,-0.0269213 -0.066815,-0.0509921 -0.0639724,-0.00189764 -0.158469,-0.0205591 -0.209654,-0.0410197 -0.0321417,-0.0128701 -0.0721181,-0.017252 -0.105807,-0.00826772 -0.0284173,0.00747638 -0.0575236,-0.00949606 -0.065,-0.0379134 -0.00747638,-0.0284173 0.00949606,-0.0575236 0.0379134,-0.065 0.0573504,-0.0151969 0.118598,-0.00899606 0.17339,0.012815 0.0433819,0.0172677 0.130756,0.0333465 0.18385,0.0333268 0.0308425,-1.1811e-005 0.0578701,0.0181063 0.0723386,0.0447992l0.00896457 0.00975984c0.00322441,-0.000338583 0.0322559,-0.0136063 0.0765748,-0.030122 0.0790354,-0.0294449 0.184378,-0.0740236 0.242091,-0.0995394 0.0326024,-0.0143898 0.11252,-0.0445079 0.14515,-0.0429291 0.027878,0.00135433 0.0486457,0.0162362 0.0553268,0.0423583 0.00248819,0.0100433 0.0193701,0.0278425 0.0358583,0.0414409 0.0457362,0.0377283 0.0990118,0.0572835 0.152307,0.0861299 0.0215433,0.0116614 0.049811,0.0267559 0.0730984,0.0428583l-0.114213 0.052752c-0.000952756,0.000440945 -0.00159843,0.00127559 -0.00183465,0.00222047z"/>
  <path class="fil2" d="M2.38986 3.58615c-0.0612677,0.008 -0.135791,0.0152992 -0.190484,0.00256693l3.14961e-005 -0.000133858c-0.00340945,-0.000779528 -0.00672441,-0.00170079 -0.00994488,-0.00275197 -0.0444094,0.0656929 -0.0702087,0.179252 -0.0971181,0.279079 -0.0361654,0.134319 -0.0957205,0.355524 -0.185189,0.398858 -0.0280157,0.0135669 -0.0596575,0.0129803 -0.0884843,0.00292913 -0.0508504,0.0249409 -0.118563,0.0470748 -0.169575,0.0570709l-0.0221732 0.0080315c-0.0373622,0.0164882 -0.0873346,0.0193898 -0.102819,0.0355197 -0.0203622,0.0211693 -0.0540394,0.0218228 -0.0752087,0.00146063 -0.0211693,-0.0203622 -0.0218228,-0.0540394 -0.00146063,-0.0752087 0.0460197,-0.0479409 0.0989173,-0.0426378 0.136575,-0.0592677l0.0446732 -0.0150984c0.0445118,-0.00874016 0.104055,-0.0283425 0.148083,-0.0507165 0.0408976,-0.0207835 0.0811535,0.000885827 0.0841378,-0.000555118 0.0508071,-0.0245354 0.111598,-0.267354 0.142756,-0.383343 0.033874,-0.126236 0.0573937,-0.213866 0.120453,-0.288575 0.0240157,-0.0284291 0.0643622,-0.0321102 0.0948228,-0.013122l0.0045748 0.0022126 3.14961e-005 -0.000137795c0.0403031,0.00938189 0.112394,0.00102362 0.160898,-0.00551181 -0.000279528,0.000515748 -0.00042126,0.00111024 -0.000393701,0.00173622l0.00494488 0.102866c3.93701e-005,0.000807087 0.000366142,0.00153543 0.000870079,0.00209055z"/>
  <path class="fil2" d="M2.43665 4.57554c-0.0890472,0.0227953 -0.190425,0.0492874 -0.261098,0.0438031 -0.0597795,0.163406 -0.103406,0.477583 -0.134028,0.677673 -0.0194843,0.127323 0.00196063,0.306866 -0.0727008,0.41278 -0.0160276,0.0227362 -0.0408307,0.0358071 -0.0678622,0.0385472l-0.00638976 0.00149213 -9.84252e-005 -0.000287402c-0.0562598,0.0422677 -0.144209,0.0788622 -0.206398,0.0956732l-3.54331e-005 -0.000137795 -0.0212323 0.0096063c-0.0354882,0.0188661 -0.0854724,0.025126 -0.0999921,0.042685 -0.018752,0.0226654 -0.0523307,0.0258346 -0.0749961,0.00708268 -0.0226654,-0.018752 -0.0258346,-0.0523307 -0.00708268,-0.0749961 0.0421535,-0.0509724 0.0953504,-0.0494252 0.132071,-0.068937l0.043811 -0.0180709 -3.93701e-005 -0.000145669c0.0520197,-0.014063 0.124126,-0.0440512 0.171134,-0.0784016l-0.000102362 -0.000133858c0.0150039,-0.0113346 0.0353071,-0.0180394 0.0537126,-0.0206693 0.0471929,-0.0775591 0.0341811,-0.253413 0.0507835,-0.361921 0.0318425,-0.208142 0.0829252,-0.573378 0.152035,-0.730165l-5.51181e-005 -2.3622e-005c0.0148622,-0.0335787 0.0526772,-0.0507283 0.0868346,-0.0392559l0.00172835 0.000551181 1.1811e-005 -4.72441e-005 0.00212992 0.000444882 1.5748e-005 -0.000137795c0.0508819,0.00625984 0.146406,-0.0186181 0.228681,-0.0395866 -0.000287402,0.000681102 -0.000354331,0.00146063 -0.000129921,0.00222835l0.0291693 0.1 0.000122047 0.000350394z"/>
  <path class="fil2" d="M4.39384 4.45982c0.0836929,0.0208346 0.196783,0.0526654 0.249472,0.0442047l0.00229134 -0.000559055 -1.9685e-005 -6.29921e-005c0.0345157,-0.0115551 0.0722598,0.00585433 0.0867717,0.0399094l7.48031e-005 -3.14961e-005c0.0709488,0.166709 0.118705,0.514051 0.151811,0.729567 0.016689,0.108638 0.00365748,0.284445 0.0509134,0.361933 0.0183031,0.00270079 0.0383268,0.00935827 0.0534764,0.0209252l6.69291e-005 -9.05512e-005c0.0445748,0.0335866 0.121693,0.0649213 0.17124,0.0783583l0.043563 0.0182913 3.93701e-005 -7.48031e-005c0.0367874,0.0195433 0.0898858,0.0179685 0.132031,0.068937 0.018752,0.0226654 0.0155827,0.0562441 -0.00708268,0.0749961 -0.0226654,0.018752 -0.0562441,0.0155827 -0.0749961,-0.00708268 -0.0145157,-0.0175551 -0.0644331,-0.023815 -0.0999528,-0.042685l4.33071e-005 -7.87402e-005 -0.0215591 -0.00938976c-0.0615748,-0.016748 -0.150728,-0.0538465 -0.206539,-0.0955118l-0.00595276 -0.00138583c-0.0272559,-0.00273622 -0.0521732,-0.0158307 -0.0680906,-0.0387362l9.84252e-005 -7.08661e-005c-0.0743071,-0.104031 -0.0532874,-0.286012 -0.0727165,-0.4125 -0.030811,-0.200575 -0.074122,-0.513921 -0.134059,-0.677673 -0.0710157,0.00552362 -0.17322,-0.0213583 -0.262744,-0.044252l7.87402e-005 -0.000405512 0.0135394 -0.103126c0.000188976,-0.00143701 -0.000570866,-0.00278346 -0.00179921,-0.00340551z"/>
  <path class="fil2" d="M4.43963 3.48328c0.0454016,0.00611417 0.131461,0.0161024 0.165386,0.00544094l0.00264961 -0.00157874 -4.72441e-005 -7.48031e-005c0.0310315,-0.0193189 0.0711969,-0.0155945 0.0960669,0.0146102 0.0693661,0.084252 0.0916339,0.184378 0.127177,0.315894 0.0309173,0.114406 0.0860512,0.331004 0.134787,0.354535l0.0117126 -0.00323622c0.0226102,-0.00748819 0.0509921,-0.00732677 0.0723858,0.00387795l4.33071e-005 -8.66142e-005c0.046563,0.0236772 0.102043,0.0411142 0.149169,0.0509252l0.0436181 0.0148898c0.0374213,0.0165354 0.0905906,0.0113504 0.13672,0.0592677 0.0203622,0.0211693 0.0197087,0.0548465 -0.00146063,0.0752087 -0.0211693,0.0203622 -0.0548465,0.0197087 -0.0752087,-0.00146063 -0.0155118,-0.0161142 -0.0657165,-0.0190669 -0.102953,-0.0355433l-0.0231299 -0.00817717c-0.0527598,-0.0109252 -0.116283,-0.0312362 -0.168654,-0.0569016 -0.0288189,0.0100551 -0.0604606,0.0106299 -0.0884961,-0.00292913 -0.0896575,-0.0434213 -0.149264,-0.265531 -0.18528,-0.399736 -0.0257795,-0.0959252 -0.0525787,-0.212673 -0.0969921,-0.278213 -0.0520512,0.0169173 -0.137543,0.00847638 -0.198815,0.000527559 3.54331e-005,-0.000192913 5.51181e-005,-0.000389764 5.90551e-005,-0.000590551l0.00156299 -0.105209c7.87402e-006,-0.000515748 -0.000102362,-0.00100394 -0.00030315,-0.00144094z"/>
  <path class="fil2" d="M4.03756 2.6044c0.0358622,-0.0208937 0.0726811,-0.0409252 0.109122,-0.0577874 0.0336929,-0.0155197 0.0650866,-0.0344567 0.0890551,-0.0541811 0.0194961,-0.0160433 0.0324921,-0.029748 0.0368504,-0.044189 0.0112008,-0.0371299 0.0497244,-0.0457047 0.0844134,-0.0361575 0.0403504,0.0111063 0.0739449,0.021378 0.115165,0.0395827 0.0578189,0.0254685 0.163496,0.0701654 0.242531,0.0995866 0.0441339,0.0164291 0.0728425,0.0296457 0.0759685,0.0298937 0.0010748,-0.000307087 0.00206693,-0.000874016 0.00296063,-0.00163386l-9.05512e-005 -0.000102362c0.00241339,-0.00212205 0.0045315,-0.00491339 0.00632283,-0.00813386l-5.90551e-005 -3.14961e-005c0.0137756,-0.026622 0.0423976,-0.0447362 0.0731181,-0.0444724 0.0534488,0.00046063 0.140661,-0.0171181 0.184035,-0.0340276l-2.75591e-005 -7.08661e-005c0.0544724,-0.0215354 0.11702,-0.0268543 0.172409,-0.0122244 0.0284173,0.00747638 0.0453898,0.0365827 0.0379134,0.065 -0.00747638,0.0284173 -0.0365827,0.0453898 -0.065,0.0379134 -0.0333386,-0.00880709 -0.0726614,-0.00476378 -0.106157,0.00847638l-2.75591e-005 -7.48031e-005c-0.0489409,0.0202126 -0.146803,0.0390748 -0.209311,0.0410394 -0.00653937,0.00998425 -0.0141299,0.0189843 -0.0227992,0.0266063l-9.05512e-005 -0.000106299c-0.0122008,0.0109803 -0.0277283,0.0196969 -0.0440315,0.0243386l-1.5748e-005 -5.51181e-005c-0.0227953,0.00651181 -0.0777795,-0.00877165 -0.142205,-0.032752 -0.0842638,-0.0313701 -0.191055,-0.0764291 -0.248358,-0.101673l-0.0755709 -0.0276693c-0.035937,0.0514606 -0.102917,0.0942598 -0.162417,0.121787l-0.0649488 0.0333819c-0.00015748,-0.000720472 -0.000551181,-0.00138976 -0.00116929,-0.00188583l-0.0875 -0.070315 -8.66142e-005 -6.29921e-005z"/>
  <path class="fil1" d="M3.1322 2.22405l-0.0106693 -0.0367717c-0.00430315,-0.0139961 -0.00253937,-0.0284094 0.00379134,-0.0404173 0.00554331,-0.0119843 0.0668031,-0.0584213 0.0951024,-0.0649843 0.0227835,0.000933071 0.043252,0.0165709 0.0492677,0.0397874 0.00333071,0.0127441 0.00634252,0.0249055 0.00900787,0.0364331l-0.000240157 9.44882e-005 -0.145835 0.065626c-0.000149606,6.69291e-005 -0.000291339,0.000145669 -0.000425197,0.000232283z"/>
  <path class="fil0" d="M3.69811 2.2152c0.0155472,0.0193031 0.0221102,0.0436299 0.0205197,0.0702244 -0.00190551,0.0332638 0.00206693,0.0684331 0.0108937,0.097l8.26772e-005 -9.44882e-005c0.0171496,0.0147795 0.044315,0.038189 0.0654055,0.0888543 0.0114094,0.0274961 0.0453346,0.0386024 0.0918819,0.0538386 0.048878,0.0159961 0.109268,0.0349606 0.162008,0.0692717 -8.66142e-005,0.00106299 0.000338583,0.00214961 0.00123622,0.00287008l0.0875 0.070315c0.0014252,0.00114173 0.00349606,0.000929134 0.00465354,-0.000476378 0.0182126,0.0110315 0.0426417,0.0219606 0.0814567,0.0334291 0.0922598,0.0271575 0.306126,0.180772 0.312843,0.284287 0.00369291,0.0559016 -0.0185118,0.0942953 -0.0415591,0.13413 -0.0142795,0.024685 -0.0290433,0.0502047 -0.0311575,0.0776142 0.00101181,0.0456614 -0.00109449,0.190079 -0.00246063,0.281614 -0.000633858,0.000598425 -0.00103543,0.00144094 -0.00105118,0.00238189l-0.00156299 0.105209c-7.87402e-006,0.000622047 0.000153543,0.00120866 0.000444882,0.0017126 -0.00351969,0.125791 -0.00637008,0.247331 -0.00173228,0.343157 0.00588976,0.122697 -0.0137598,0.402933 -0.0251181,0.536843l0.0016811 0.000417323c-0.00167323,-3.54331e-005 -0.00314567,0.00119685 -0.00337008,0.00289764l-0.0135394 0.103126c-0.000204724,0.00156693 0.000708661,0.00302362 0.00212992,0.00355512l-0.0232402 0.116028 -0.000153543 -3.54331e-005c-0.0108228,0.0479252 -0.046311,0.0874646 -0.0472283,0.0919606 -0.0121102,0.0625197 -0.0396772,0.17765 -0.0869685,0.239921 -0.0165472,0.0217559 -0.0332362,0.0290157 -0.0485984,0.033752 -0.0290669,0.0714921 -0.074752,0.168075 -0.125291,0.24122l-4.72441e-005 -3.14961e-005c-0.0348819,0.0518937 -0.077685,0.0586339 -0.0808937,0.0612008 -0.00191732,0.0015315 -0.079874,0.134126 -0.147969,0.172713 -0.0244134,0.0138819 -0.0495354,0.0170157 -0.0705,0.0196102 -0.00209843,0.000259843 -0.000401575,-0.00327165 -0.00133465,-0.0109173l-5.90551e-005 -3.54331e-005c-0.0487047,0.0794685 -0.10878,0.154197 -0.202248,0.150878 -0.0439134,0.0412638 -0.13578,0.0745551 -0.197783,0.0644094 -0.0501457,-0.00820472 -0.112732,-0.0315236 -0.148894,-0.0680118l-0.00753937 9.05512e-005 0 -0.000208661c-0.0440354,-0.00391339 -0.104157,-0.00925591 -0.190803,-0.146913l9.44882e-005 -5.90551e-005 -0.00019685 -0.000314961c-0.000952756,0.00781102 0.000850394,0.0113661 -0.00135433,0.0110945 -0.0212441,-0.00261811 -0.045185,-0.00557874 -0.0700472,-0.0193937l3.93701e-005 -7.08661e-005c-0.0682953,-0.0379409 -0.146118,-0.171083 -0.148335,-0.172846 -0.0221181,-0.00772047 -0.0514213,-0.0182913 -0.0810157,-0.0611929 -0.0753701,-0.109004 -0.097122,-0.173134 -0.174201,-0.275l-0.0417598 -0.0979331c-0.0375591,-0.0939764 -0.0921693,-0.233402 -0.0922795,-0.233886l-0.0235236 -0.117417c0.000468504,-0.000771654 0.000622047,-0.00172835 0.000350394,-0.00266142l-0.0291693 -0.1c-0.000326772,-0.00111811 -0.00118504,-0.00193307 -0.00222047,-0.00225591 -0.0107283,-0.151598 -0.0131339,-0.413315 -0.0070315,-0.540531 0.00464961,-0.096122 0.00174016,-0.218012 -0.00165748,-0.344118 0.000740157,-0.000645669 0.00118898,-0.00161024 0.0011378,-0.00266929l-0.00494488 -0.102866c-5.51181e-005,-0.00112992 -0.000665354,-0.0021063 -0.00155118,-0.00266535l-0.000338583 -0.112642 5.90551e-005 -3.93701e-006 -0.000665354 -0.0890945c5.90551e-005,-0.0279528 0.000389764,-0.0548583 0.00102362,-0.0803386 -0.00144488,-0.0584646 -0.0789213,-0.114457 -0.0727126,-0.211421 0.00661024,-0.103232 0.220709,-0.257189 0.312866,-0.284465l1.5748e-005 5.90551e-005c0.040685,-0.0124528 0.0618465,-0.0213071 0.0816378,-0.0333583 0.000956693,0.000976378 0.00246457,0.00130315 0.00377953,0.00069685l0.11615 -0.0536457c0.000952756,-0.000440945 0.00159843,-0.00127559 0.00183465,-0.00222047 0.0170118,0.00119291 0.0323425,-0.0465079 0.0578071,-0.0581417l0.0267008 -0.0119528 1.5748e-005 4.72441e-005c0.0169331,-0.0062126 0.0335551,-0.0116614 0.049126,-0.0167638 0.046437,-0.0152205 0.0803701,-0.0263425 0.0918189,-0.0537913 0.0211417,-0.050811 0.0484173,-0.0743071 0.0656496,-0.0891339 0.00915354,-0.0305 0.0124685,-0.0649213 0.0105512,-0.096626 -0.00192126,-0.0254724 0.00525197,-0.0502126 0.0197953,-0.0690276 0.00092126,0.00119291 0.00257087,0.00164961 0.00400394,0.00100394l0.145835 -0.065626c0.00248819,-0.00112205 0.00261811,-0.00454724 0.000330709,-0.00590551 0.0414016,-0.030752 0.0876535,-0.0393858 0.138457,-0.0393858l0 0.000173228c0.0511969,-0.00116142 0.0994134,0.0136772 0.134413,0.0403268 0.000598425,0.00133465 0.00219685,0.00202362 0.00380709,0.00202756 0.000267717,0.000267717 0.000582677,0.000492126 0.000944882,0.000661417l0.140106 0.065626c0.00100394,0.000468504 0.00211811,0.000397638 0.00301969,-9.84252e-005z"/>
  <path class="fil3" d="M3.92687 2.53827c0.0182008,0.00624409 0.0371654,0.0132008 0.0561299,0.0213583 0.0201614,0.0169488 0.048315,0.0162244 0.0642165,0.0339291 0.00023622,0.000944882 0.00101969,0.00156299 0.00183465,0.00222047l0.072937 0.0591299 0.0156417 0.0125709c0.0014252,0.00114173 0.00349606,0.000929134 0.00465354,-0.000476378 0.0182126,0.0110315 0.0426417,0.0219606 0.0814567,0.0334291 0.0922598,0.0271575 0.306126,0.180772 0.312843,0.284287 0.00369291,0.0559016 -0.0185118,0.0942953 -0.0415591,0.13413 -0.0142795,0.024685 -0.0290433,0.0502047 -0.0311575,0.0776142 0.00101181,0.0456614 -0.00109449,0.190079 -0.00246063,0.281614 -0.000633858,0.000598425 -0.00103543,0.00144094 -0.00105118,0.00238189l-0.00156299 0.105209c-7.87402e-006,0.000622047 0.000153543,0.00120866 0.000444882,0.0017126 -0.00351969,0.125791 -0.00637008,0.247331 -0.00173228,0.343157 0.00588976,0.122697 -0.0137598,0.402933 -0.0251181,0.536843l0.0016811 0.000417323c-0.00167323,-3.54331e-005 -0.00314567,0.00119685 -0.00337008,0.00289764l-0.0135394 0.103126c-0.000204724,0.00156693 0.000708661,0.00302362 0.00212992,0.00355512l-0.0232402 0.116028 -0.000153543 -3.54331e-005c-0.0108228,0.0479252 -0.046311,0.0874646 -0.0472283,0.0919606 -0.0121102,0.0625197 -0.0396772,0.17765 -0.0869685,0.239921 -0.0165472,0.0217559 -0.0332362,0.0290157 -0.0485984,0.033752 -0.0290669,0.0714921 -0.074752,0.168075 -0.125291,0.24122l-4.72441e-005 -3.14961e-005c-0.0348819,0.0518937 -0.077685,0.0586339 -0.0808937,0.0612008 -0.00191732,0.0015315 -0.079874,0.134126 -0.147969,0.172713 -0.0154291,0.00877165 -0.0311417,0.013252 -0.0459055,0.0160157 -0.236831,-0.675756 -0.383917,-1.58681 -0.383917,-2.50395 0,-0.206976 0.195358,-0.390555 0.497795,-0.507902z"/>
  <path class="fil3" d="M3.02374 5.55181c-0.0173858,-0.00255906 -0.0361654,-0.00673622 -0.0555039,-0.0174803l3.93701e-005 -7.08661e-005c-0.0682953,-0.0379409 -0.146118,-0.171083 -0.148335,-0.172846 -0.0221181,-0.00772047 -0.0514213,-0.0182913 -0.0810157,-0.0611929 -0.0753701,-0.109004 -0.097122,-0.173134 -0.174201,-0.275l-0.0417598 -0.0979331c-0.0375591,-0.0939764 -0.0921693,-0.233402 -0.0922795,-0.233886l-0.0235236 -0.117417c0.000468504,-0.000771654 0.000622047,-0.00172835 0.000350394,-0.00266142l-0.0291693 -0.1c-0.000326772,-0.00111811 -0.00118504,-0.00193307 -0.00222047,-0.00225591 -0.0107283,-0.151598 -0.0131339,-0.413315 -0.0070315,-0.540531 0.00464961,-0.096122 0.00174016,-0.218012 -0.00165748,-0.344118 0.000740157,-0.000645669 0.00118898,-0.00161024 0.0011378,-0.00266929l-0.00494488 -0.102866c-5.51181e-005,-0.00112992 -0.000665354,-0.0021063 -0.00155118,-0.00266535l-0.000338583 -0.112642 5.90551e-005 -3.93701e-006 -0.000665354 -0.0890945c5.90551e-005,-0.0279528 0.000389764,-0.0548583 0.00102362,-0.0803386 -0.00144488,-0.0584646 -0.0789213,-0.114457 -0.0727126,-0.211421 0.00661024,-0.103232 0.220709,-0.257189 0.312866,-0.284465l1.5748e-005 5.90551e-005c0.040685,-0.0124528 0.0618465,-0.0213071 0.0816378,-0.0333583 0.000956693,0.000976378 0.00246457,0.00130315 0.00377953,0.00069685l0.11615 -0.0536457c0.000952756,-0.000440945 0.00159843,-0.00127559 0.00183465,-0.00222047 0.0170118,0.00119291 0.0323425,-0.0465079 0.0578071,-0.0581417l0.0267008 -0.0119528 1.5748e-005 4.72441e-005c0.00510236,-0.00187008 0.0101732,-0.00367323 0.0151969,-0.00541732 0.305295,0.117256 0.502799,0.301732 0.502799,0.50985 0,0.917898 -0.147327,1.82971 -0.384504,2.50564z"/>
  <line class="fil0" x1="3.10739" y1="2.28542" x2="3.10739" y2= "2.28542" />
  <line class="fil0" x1="1.66665" y1="2.46042" x2="1.66665" y2= "2.46042" />
  <line class="fil0" x1="1.65873" y1="2.56664" x2="1.65873" y2= "2.56664" />
  <line class="fil0" x1="1.60161" y1="4.21925" x2="1.60161" y2= "4.21925" />
  <line class="fil0" x1="1.62202" y1="4.32377" x2="1.62202" y2= "4.32377" />
  <line class="fil0" x1="4.9612" y1="5.74832" x2="4.9612" y2= "5.74832" />
  <line class="fil0" x1="4.96717" y1="5.74967" x2="4.96717" y2= "5.74967" />
  <line class="fil0" x1="5.22676" y1="4.33178" x2="5.22676" y2= "4.33178" />
  <line class="fil0" x1="5.26966" y1="4.23433" x2="5.26966" y2= "4.23433" />
  <line class="fil0" x1="5.22605" y1="4.21943" x2="5.22605" y2= "4.21943" />
  <line class="fil0" x1="4.80733" y1="2.56866" x2="4.80733" y2= "2.56866" />
  <line class="fil0" x1="3.71863" y1="2.28542" x2="3.71863" y2= "2.28542" />
  <path class="fil4" d="M3.73215 2.39022c0.00315354,0.00822047 -0.00255512,-0.00714567 -0.00257087,-0.00786614l-6.29921e-005 7.08661e-005c0.000807087,0.00259449 0.00161024,0.00501575 0.00241339,0.00724016l0.000220472 0.000555118z"/>
  <path class="fil5" d="M3.64293 3.16229c-0.0208228,-0.0208228 -0.0545945,-0.0208228 -0.0754173,0 -0.0208228,0.0208228 -0.0208228,0.0545945 0,0.0754173l0.502087 0.426665 -0.426669 -0.502083z"/>
  <path class="fil5" d="M3.15922 3.8127c0.0150709,-0.0251969 0.0477205,-0.0334055 0.0729173,-0.0183346 0.0251969,0.0150709 0.0334055,0.0477205 0.0183346,0.0729173l-0.392917 0.551665 0.301665 -0.606248z"/>
  <path class="fil5" d="M3.65085 3.8127c-0.0150709,-0.0251969 -0.0477205,-0.0334055 -0.0729173,-0.0183346 -0.0251969,0.0150709 -0.0334055,0.0477205 -0.0183346,0.0729173l0.392917 0.551665 -0.301665 -0.606248z"/>
  <path class="fil5" d="M3.08297 4.56687c0.0109291,-0.0272677 0.0418976,-0.0405118 0.0691654,-0.0295827 0.0272677,0.0109291 0.0405118,0.0418976 0.0295827,0.0691654l-0.2825 0.562917 0.183752 -0.6025z"/>
  <path class="fil5" d="M3.74377 4.56687c-0.0109291,-0.0272677 -0.0418976,-0.0405118 -0.0691654,-0.0295827 -0.0272677,0.0109291 -0.0405118,0.0418976 -0.0295827,0.0691654l0.2825 0.562917 -0.183752 -0.6025z"/>
  <path class="fil5" d="M3.16714 3.16229c0.0208228,-0.0208228 0.0545945,-0.0208228 0.0754173,0 0.0208228,0.0208228 0.0208228,0.0545945 0,0.0754173l-0.502087 0.426665 0.426669 -0.502083z"/>
  <line class="fil6" x1="2.56469" y1="5.02525" x2="2.56469" y2= "5.02525" />
  <rect class="fil7" width="6.82666" height="6.82666"/>
 </g>
</svg>
