<?xml version="1.0" encoding="UTF-8"?>
<!DOCTYPE svg PUBLIC "-//W3C//DTD SVG 1.1//EN" "http://www.w3.org/Graphics/SVG/1.1/DTD/svg11.dtd">
<!-- Creator: CorelDRAW -->
<svg xmlns="http://www.w3.org/2000/svg" xml:space="preserve" width="6.82666in" height="6.82666in" style="shape-rendering:geometricPrecision; text-rendering:geometricPrecision; image-rendering:optimizeQuality; fill-rule:evenodd; clip-rule:evenodd"
viewBox="0 0 6.82666 6.82666"
 xmlns:xlink="http://www.w3.org/1999/xlink">
 <defs>
  <style type="text/css">
   <![CDATA[
    .fil12 {fill:none}
    .fil9 {fill:#B71C1C}
    .fil11 {fill:#E65100}
    .fil8 {fill:#FB8C00}
    .fil10 {fill:#FDD835}
    .fil0 {fill:#004D40;fill-rule:nonzero}
    .fil1 {fill:#00796B;fill-rule:nonzero}
    .fil2 {fill:#26A69A;fill-rule:nonzero}
    .fil3 {fill:#424242;fill-rule:nonzero}
    .fil4 {fill:#80CBC4;fill-rule:nonzero}
    .fil7 {fill:#B71C1C;fill-rule:nonzero}
    .fil5 {fill:#FDD835;fill-rule:nonzero}
    .fil6 {fill:#FF9100;fill-rule:nonzero}
   ]]>
  </style>
 </defs>
 <g id="Layer_x0020_1">
  <metadata id="CorelCorpID_0Corel-Layer"/>
  <g id="_212373744">
   <path id="_212361792" class="fil0" d="M2.7213 0.977453c0.0124252,-0.0265787 0.0440472,-0.0380512 0.070626,-0.025626 0.0265787,0.0124252 0.0380512,0.0440472 0.025626,0.070626 -0.0659213,0.140909 -0.054248,0.199949 0.00395276,0.227177 0.0521614,0.0244016 0.137465,0.0353701 0.239205,0.0484488 0.0476969,0.00612992 0.0987953,0.0127047 0.151039,0.0211417 0.0289921,0.00460236 0.0487677,0.0318425 0.0441654,0.0608346 -0.00460236,0.0289921 -0.0318425,0.0487677 -0.0608346,0.0441654 -0.0525984,-0.00849606 -0.101787,-0.0148268 -0.147701,-0.0207244 -0.110799,-0.0142402 -0.203697,-0.026185 -0.270874,-0.0576142 -0.120154,-0.0562165 -0.155433,-0.154177 -0.0552047,-0.368429z"/>
   <path id="_212360448" class="fil0" d="M4.00594 1.02245c-0.0124252,-0.0265787 -0.000952756,-0.0582008 0.025626,-0.070626 0.0265787,-0.0124252 0.0582008,-0.000952756 0.070626,0.025626 0.100228,0.214252 0.0649488,0.312213 -0.0552047,0.368429 -0.0671772,0.0314291 -0.160075,0.043374 -0.270874,0.0576142 -0.0459134,0.00589764 -0.0951024,0.0122283 -0.147701,0.0207244 -0.0289921,0.00460236 -0.0562323,-0.0151732 -0.0608346,-0.0441654 -0.00460236,-0.0289921 0.0151732,-0.0562323 0.0441654,-0.0608346 0.0522441,-0.00843701 0.103343,-0.0150118 0.151039,-0.0211417 0.10174,-0.0130787 0.187043,-0.0240472 0.239205,-0.0484488 0.0582008,-0.0272283 0.069874,-0.0862677 0.00395276,-0.227177z"/>
   <path id="_212360352" class="fil1" d="M3.41174 1.23995c0.10287,0 0.196378,0.0373976 0.264382,0.0978425 0.0696654,0.0619252 0.11276,0.147929 0.11276,0.243315 0,0.0651535 -0.0201811,0.126008 -0.0552638,0.17787 -0.0355945,0.0526181 -0.086626,0.0958268 -0.147378,0.124539 -0.00936614,0.00441732 -0.0193701,0.0058622 -0.0289488,0.00472441l-7.87402e-006 6.69291e-005c-0.0242874,-0.00287402 -0.0480827,-0.00501181 -0.0712559,-0.00636614 -0.0224961,-0.00131102 -0.0467323,-0.00198819 -0.0726969,-0.00198819 -0.0262165,0 -0.0508071,0.000704724 -0.0737559,0.00206693 -0.0238386,0.00141732 -0.0481181,0.00363386 -0.0727047,0.00659843 -0.0118701,0.00140157 -0.0232913,-0.00121654 -0.0328976,-0.00677165 -0.059063,-0.0286102 -0.10876,-0.071063 -0.143705,-0.122583 -0.0353346,-0.0520984 -0.0556693,-0.113063 -0.0556693,-0.178157 0,-0.0953858 0.0430945,-0.18139 0.11276,-0.243315 0.0680039,-0.0604449 0.161512,-0.0978425 0.264382,-0.0978425z"/>
   <path id="_212361000" class="fil2" d="M3.41333 1.77329c0.213886,0 0.408642,0.0505472 0.55061,0.132264 0.150752,0.0867677 0.243992,0.209539 0.243992,0.34774 0,0.0554528 -0.0152323,0.108709 -0.0433858,0.158453 -0.0279173,0.0493307 -0.0684803,0.0947008 -0.119287,0.134748 -0.0169646,0.0133346 -0.0395079,0.0147283 -0.0574882,0.00539764l-1.1811e-005 1.9685e-005c-0.0863661,-0.0449173 -0.179783,-0.0800354 -0.278189,-0.103591 -0.0953701,-0.0228228 -0.196504,-0.0350276 -0.301642,-0.0350276 -0.103406,0 -0.203366,0.0119685 -0.29815,0.034374 -0.0981772,0.0232008 -0.190661,0.0573976 -0.275539,0.100894 -0.0192283,0.00982283 -0.0416417,0.00680315 -0.0574528,-0.0058937l-4.72441e-005 5.90551e-005c-0.0494409,-0.0397756 -0.0888504,-0.0846535 -0.115941,-0.133339 -0.0273189,-0.0490827 -0.0420709,-0.101535 -0.0420709,-0.156094 0,-0.138201 0.0932402,-0.260972 0.243992,-0.34774 0.141969,-0.0817165 0.336724,-0.132264 0.55061,-0.132264z"/>
   <path id="_212360400" class="fil3" d="M1.15877 1.56516c-0.00287402,-0.0292244 0.0184843,-0.055252 0.0477087,-0.058126 0.0292244,-0.00287402 0.055252,0.0184843 0.058126,0.0477087l0.104004 1.04002 0.499547 0.299732 0.527886 -0.024063c0.0293386,0.00229921 0.0252165,0.163366 0.0229173,0.192705 -0.00229921,0.0293386 -0.0279528,0.0512598 -0.0572913,0.0489606l-0.514146 -0.0420472 7.87402e-006 -0.00011811c-0.00792913,-0.000614173 -0.0158425,-0.00301969 -0.0231339,-0.00738189l-0.532425 -0.389768c-0.0144331,-0.00826378 -0.0247795,-0.0231535 -0.0265315,-0.0409606l-0.106669 -1.06667z"/>
   <path id="_212360928" class="fil3" d="M0.847528 3.10244c-0.0163346,-0.0243898 -0.00980709,-0.0574134 0.0145827,-0.073748 0.0243898,-0.0163346 0.0574134,-0.00980709 0.073748,0.0145827l0.414378 0.621161 0.484736 0.0302795 0.448878 -0.134772c0.0291063,-0.00425591 0.122791,0.147457 0.127047,0.176563 0.00425591,0.0291063 -0.0158937,0.0561614 -0.045,0.0604173l-0.503921 0.0745039c-0.00664567,0.00130709 -0.0136496,0.00137008 -0.0207047,-3.54331e-005l-0.533331 -0.106665 3.14961e-005 -0.000161417c-0.0133189,-0.00265354 -0.025626,-0.010374 -0.0337795,-0.0225472l-0.426665 -0.639579z"/>
   <path id="_212360904" class="fil3" d="M0.884402 5.85537c-0.015874,0.0247362 -0.0488031,0.0319173 -0.0735394,0.0160433 -0.0247362,-0.015874 -0.0319173,-0.0488031 -0.0160433,-0.0735394l0.478748 -0.746669c0.00372047,-0.00579921 0.00837795,-0.0106299 0.0136457,-0.0144291l0.637189 -0.530992c0.0252559,-0.021 0.603705,-0.115213 0.684996,-0.129854 0.0293386,-0.0010315 0.14772,0.113059 0.148752,0.142398 0.0010315,0.0293386 0.0249606,0.119071 -0.00437795,0.120102l-0.728563 0.0257756 -0.666268 0.451063 -0.474539 0.740102z"/>
   <path id="_212360616" class="fil3" d="M5.66789 1.56516c0.00287402,-0.0292244 -0.0184843,-0.055252 -0.0477087,-0.058126 -0.0292244,-0.00287402 -0.055252,0.0184843 -0.058126,0.0477087l-0.104004 1.04002 -0.499547 0.299732 -0.527886 -0.024063c-0.0293386,0.00229921 -0.0252165,0.163366 -0.0229173,0.192705 0.00229921,0.0293386 0.0279528,0.0512598 0.0572913,0.0489606l0.514146 -0.0420472 -7.87402e-006 -0.00011811c0.00792913,-0.000614173 0.0158425,-0.00301969 0.0231339,-0.00738189l0.532425 -0.389768c0.0144331,-0.00826378 0.0247795,-0.0231535 0.0265315,-0.0409606l0.106669 -1.06667z"/>
   <path id="_212360496" class="fil3" d="M5.97914 3.10244c0.0163346,-0.0243898 0.00980709,-0.0574134 -0.0145827,-0.073748 -0.0243898,-0.0163346 -0.0574134,-0.00980709 -0.073748,0.0145827l-0.414378 0.621161 -0.484736 0.0302795 -0.448878 -0.134772c-0.0291063,-0.00425591 -0.122791,0.147457 -0.127047,0.176563 -0.00425591,0.0291063 0.0158937,0.0561614 0.045,0.0604173l0.503921 0.0745039c0.00664567,0.00130709 0.0136496,0.00137008 0.0207047,-3.54331e-005l0.533331 -0.106665 -3.14961e-005 -0.000161417c0.0133189,-0.00265354 0.025626,-0.010374 0.0337795,-0.0225472l0.426665 -0.639579z"/>
   <path id="_212360736" class="fil3" d="M5.94226 5.85537c0.015874,0.0247362 0.0488031,0.0319173 0.0735394,0.0160433 0.0247362,-0.015874 0.0319173,-0.0488031 0.0160433,-0.0735394l-0.478748 -0.746669c-0.00372047,-0.00579921 -0.00837795,-0.0106299 -0.0136457,-0.0144291l-0.637189 -0.530992c-0.0252559,-0.021 -0.603705,-0.115213 -0.684996,-0.129854 -0.0293386,-0.0010315 -0.14772,0.113059 -0.148752,0.142398 -0.0010315,0.0293386 -0.0249606,0.119071 0.00437795,0.120102l0.728563 0.0257756 0.666268 0.451063 0.474539 0.740102z"/>
   <path id="_212360832" class="fil4" d="M3.40793 2.30662c0.337063,0 0.642744,0.118441 0.864461,0.309925 0.223783,0.193264 0.362205,0.460791 0.362205,0.75674 0,0.302685 -0.208634,0.812476 -0.469748,1.22789 -0.241827,0.384728 -0.533445,0.692114 -0.756917,0.692114 -0.223472,0 -0.515091,-0.307386 -0.756917,-0.692114 -0.261114,-0.415413 -0.469748,-0.925205 -0.469748,-1.22789 0,-0.295949 0.138421,-0.563476 0.362205,-0.75674 0.221717,-0.191484 0.527398,-0.309925 0.864461,-0.309925z"/>
   <path id="_212359944" class="fil5" d="M4.2859 4.39504c-0.0233701,0.0425984 -0.0474606,0.0847638 -0.0721496,0.126217 -0.00162205,9.05512e-005 -0.00325197,0.000141732 -0.00489764,0.000141732 -0.0478583,0 -0.0866535,-0.0387953 -0.0866535,-0.0866575 0,-0.0478583 0.0387953,-0.0866575 0.0866535,-0.0866575 0.0335512,0 0.0626457,0.0190709 0.0770472,0.0469567z"/>
   <path id="_212359776" class="fil6" d="M2.84428 4.87722c-0.0281299,-0.0357795 -0.0560276,-0.0731575 -0.0835472,-0.111835 0.0117441,-0.0316339 0.0421969,-0.0541732 0.0779213,-0.0541732 0.0458976,0 0.0831024,0.0372008 0.0831024,0.0830984 0,0.0440079 -0.0342008,0.0800197 -0.0774764,0.0829094z"/>
   <path id="_212359872" class="fil5" d="M4.08106 4.7284c-0.0937756,0.135791 -0.192618,0.25722 -0.290417,0.352378 -0.0330551,-0.0401732 -0.0529016,-0.091622 -0.0529016,-0.147709 0,-0.12848 0.104157,-0.232638 0.232638,-0.232638 0.0400669,0 0.0777677,0.0101299 0.110681,0.0279685z"/>
   <path id="_212360208" class="fil7" d="M3.27369 5.26142c-0.0665276,-0.0295039 -0.136425,-0.0784331 -0.207327,-0.142161 -0.0117205,-0.0277795 -0.0182047,-0.058311 -0.0182047,-0.0903583 0,-0.12848 0.104157,-0.232638 0.232638,-0.232638 0.12848,0 0.232638,0.104157 0.232638,0.232638 0,0.12848 -0.104157,0.232638 -0.232638,0.232638 -0.00237795,0 -0.00474409,-4.72441e-005 -0.0071063,-0.00011811z"/>
   <circle id="_212360112" class="fil8" cx="3.39052" cy="4.6223" r="0.128059"/>
   <circle id="_212360280" class="fil8" cx="3.83357" cy="4.27647" r="0.117232"/>
   <circle id="_212359344" class="fil9" cx="3.04669" cy="4.62722" r="0.129093"/>
   <circle id="_212358792" class="fil10" cx="3.47933" cy="4.27791" r="0.163956"/>
   <circle id="_212359320" class="fil10" cx="3.17205" cy="4.42294" r="0.060119"/>
   <circle id="_212359272" class="fil9" cx="3.75718" cy="4.5664" r="0.110417"/>
   <circle id="_212359032" class="fil10" cx="2.83913" cy="4.33515" r="0.0944252"/>
   <circle id="_212358960" class="fil9" cx="3.26447" cy="4.1407" r="0.054437"/>
   <circle id="_212359056" class="fil9" cx="3.66644" cy="4.80334" r="0.083101"/>
   <circle id="_212359416" class="fil11" cx="2.77616" cy="4.56861" r="0.083101"/>
   <circle id="_212374944" class="fil8" cx="3.99144" cy="4.53389" r="0.083101"/>
   <circle id="_212374368" class="fil8" cx="3.10116" cy="4.2575" r="0.103224"/>
   <circle id="_212374320" class="fil12" cx="3.58133" cy="4.45435" r="0.0557848"/>
   <circle id="_212374296" class="fil9" cx="2.63202" cy="4.34462" r="0.0557848"/>
   <circle id="_212374224" class="fil9" cx="4.07647" cy="4.32032" r="0.0557848"/>
   <circle id="_212374728" class="fil10" cx="3.64213" cy="5.11584" r="0.060503"/>
   <circle id="_212374416" class="fil9" cx="3.40793" cy="3.94001" r="0.128059"/>
   <circle id="_212374608" class="fil8" cx="3.40793" cy="3.64834" r="0.0880551"/>
   <circle id="_212374656" class="fil10" cx="3.40793" cy="3.35667" r="0.0740787"/>
   <circle id="_212373552" class="fil9" cx="3.40793" cy="3.12056" r="0.0447507"/>
  </g>
  <rect class="fil12" width="6.82666" height="6.82666"/>
 </g>
</svg>
