<?xml version="1.0" encoding="UTF-8"?>
<!DOCTYPE svg PUBLIC "-//W3C//DTD SVG 1.1//EN" "http://www.w3.org/Graphics/SVG/1.1/DTD/svg11.dtd">
<!-- Creator: CorelDRAW -->
<svg xmlns="http://www.w3.org/2000/svg" xml:space="preserve" width="6.82666in" height="6.82666in" style="shape-rendering:geometricPrecision; text-rendering:geometricPrecision; image-rendering:optimizeQuality; fill-rule:evenodd; clip-rule:evenodd"
viewBox="0 0 6.82666 6.82666"
 xmlns:xlink="http://www.w3.org/1999/xlink">
 <defs>
  <style type="text/css">
   <![CDATA[
    .fil8 {fill:none}
    .fil6 {fill:#263238}
    .fil5 {fill:#3C5E19}
    .fil7 {fill:#D50000}
    .fil4 {fill:#263238;fill-rule:nonzero}
    .fil3 {fill:#3C5E19;fill-rule:nonzero}
    .fil2 {fill:#517A28;fill-rule:nonzero}
    .fil1 {fill:#5A8A2B;fill-rule:nonzero}
    .fil0 {fill:#669933;fill-rule:nonzero}
   ]]>
  </style>
 </defs>
 <g id="Layer_x0020_1">
  <metadata id="CorelCorpID_0Corel-Layer"/>
  <g id="_352359760">
   <g>
    <path id="_352364104" class="fil0" d="M1.46512 2.77128l-0.0385866 0.0129016c-0.102213,-0.30574 -0.434087,-0.471315 -0.739807,-0.36911l-0.0129016 -0.0385866c0.326984,-0.109311 0.681972,0.0677835 0.791295,0.394795z"/>
    <path id="_352364080" class="fil1" d="M0.769622 2.36256c0.0144094,0.0431063 -0.00885039,0.0897323 -0.0519567,0.104142 -0.0431024,0.0144094 -0.0897402,-0.00884646 -0.10415,-0.0519528 -0.0144134,-0.0431024 0.00885827,-0.0897441 0.0519606,-0.104154 0.0431063,-0.0144094 0.0897362,0.0088622 0.104146,0.0519646z"/>
   </g>
   <path id="_352363840" class="fil0" d="M5.9918 3.59226c0.0582165,0.153992 0.0317008,0.288906 0.00715354,0.413831l-0.00465354 0.0235866c-0.00948819,0.0490787 -0.044378,0.0835236 -0.0906457,0.104323 -0.0330276,0.0148504 -0.0725866,0.0225315 -0.111508,0.0231693 -0.0389449,0.000645669 -0.0782677,-0.0057874 -0.11078,-0.0191378 -0.0445118,-0.0182756 -0.0779016,-0.0494488 -0.0876693,-0.0939843l-0.00377165 -0.0179803c-0.00302362,-0.0144213 -0.0032874,-0.0153701 -0.0037874,-0.017874l0.000625984 -0.0229173 0.000586614 -0.00240551 -0.000102362 -2.3622e-005c0.000279528,-0.00118898 -7.87402e-006,0.000531496 0.000204724,-0.000590551l0 -0.000208661c0.0053622,-0.0277402 0.00564961,-0.0291299 0.00656299,-0.0337835 0.0237835,-0.121 0.0489961,-0.24928 0.0299685,-0.382362l-0.00340551 -0.023811 0.0156969 -0.0182717c0.0241772,-0.0281457 0.054126,-0.0486024 0.0864921,-0.0608386 0.0335748,-0.0126969 0.0699055,-0.0165157 0.105248,-0.0109055 0.0356063,0.00565748 0.0699921,0.020815 0.0993386,0.0460276 0.0268976,0.0231024 0.0494055,0.0543819 0.0644449,0.0941575z"/>
   <path id="_352364248" class="fil1" d="M5.69058 3.3991c0.0350197,0.11385 0.0440433,0.220039 0.039815,0.320945 -0.0041811,0.0997992 -0.0210236,0.192374 -0.0383583,0.282004 -0.0118819,0.061437 -0.0563307,0.104909 -0.115406,0.131469 -0.0439528,0.0197638 -0.0967874,0.0299843 -0.148933,0.0308425 -0.0521614,0.000862205 -0.104642,-0.00767323 -0.147819,-0.0254016 -0.0564252,-0.0231654 -0.098626,-0.0620787 -0.110697,-0.117122 -0.00199213,-0.00909055 -0.00509449,-0.0240472 -0.00956299,-0.0462205 -0.00316142,-0.0156614 -0.0061063,-0.0309764 -0.00880709,-0.0459016l0 -0.0195827 0.00543701 -0.0277126c0.0322756,-0.164244 0.0664449,-0.338083 0.043626,-0.520181l0.00562598 -0.0310394c0.0293031,-0.0564173 0.0681929,-0.0980748 0.111559,-0.124638 0.044248,-0.0271063 0.0928543,-0.0382913 0.140917,-0.0333937 0.0479252,0.00488583 0.0944252,0.0255236 0.134575,0.0620472 0.041315,0.0375787 0.0759882,0.0922283 0.0980276,0.163886z"/>
   <path id="_352364152" class="fil0" d="M5.24924 3.20757c0.10122,0.267713 0.0646811,0.442122 0.021252,0.649413 -0.00600394,0.0286772 -0.0121614,0.0580433 -0.018752,0.0921339 -0.0150197,0.0776614 -0.0720236,0.13298 -0.147917,0.167106 -0.0582835,0.0262047 -0.128563,0.0397677 -0.198063,0.0409134 -0.0695157,0.00114961 -0.139264,-0.0101496 -0.196437,-0.033626 -0.0720709,-0.0295906 -0.125827,-0.0786575 -0.140929,-0.1475 -0.0336969,-0.153622 -0.0570787,-0.301807 -0.0603858,-0.444181 -0.00335039,-0.144252 0.0141693,-0.281327 0.0626772,-0.410197 0.0258504,-0.0686732 0.0668701,-0.119689 0.116701,-0.153992 0.0571811,-0.0393622 0.124972,-0.056122 0.194165,-0.0519409 0.0672008,0.00405906 0.13589,0.0279685 0.197126,0.0701181 0.0719016,0.0494882 0.133724,0.124323 0.170563,0.221752z"/>
   <path id="_352363864" class="fil1" d="M4.65274 3.12163l0.00470866 0.0130118c0.00130709,0.00362598 0.0028189,0.00789764 0.00451181,0.0127756l0.000208661 0.034374c-0.0361181,0.105661 -0.0499094,0.218205 -0.048126,0.336681 0.0018189,0.120496 0.0197441,0.247665 0.0467874,0.380283l0.000208661 0.0208346 -0.00291339 0.0148937 -3.93701e-005 -7.87402e-006 -0.00284646 0.0146378c-0.0150197,0.0776693 -0.0720276,0.132984 -0.147921,0.16711 -0.0582874,0.0262087 -0.128567,0.0397638 -0.198059,0.0409094 -0.0695157,0.00114961 -0.139264,-0.0101457 -0.196437,-0.033622 -0.0720709,-0.0295945 -0.125831,-0.0786575 -0.140929,-0.147504 -0.0336969,-0.153622 -0.0570787,-0.301807 -0.0603858,-0.444181 -0.00335039,-0.144248 0.0141654,-0.281327 0.0626772,-0.410197 0.0302126,-0.0802598 0.0810827,-0.142 0.142177,-0.183591 0.0590866,-0.0402205 0.127811,-0.0615039 0.196839,-0.0624331 0.0692835,-0.000929134 0.138768,0.0187008 0.199063,0.060315 0.059063,0.0407598 0.108933,0.102268 0.140476,0.185709z"/>
   <path id="_352364392" class="fil0" d="M4.05887 3.12163l0.00470866 0.0130118c0.00130709,0.00362598 0.0028189,0.00789764 0.00451181,0.0127756l0.000208661 0.034374c-0.0361181,0.105661 -0.0499134,0.218205 -0.048126,0.336681 0.00181496,0.120496 0.0197441,0.247665 0.0467874,0.380283l0.000208661 0.0208346 -0.00291339 0.0148937 -3.93701e-005 -7.87402e-006 -0.00284646 0.0146378c-0.0150197,0.0776654 -0.0720236,0.13298 -0.147917,0.167106 -0.0582835,0.0262047 -0.128563,0.0397677 -0.198063,0.0409134 -0.0695157,0.00114961 -0.139264,-0.0101457 -0.196437,-0.033622 -0.0720669,-0.0295945 -0.125831,-0.0786496 -0.140933,-0.147504 -0.0337008,-0.153618 -0.0570787,-0.301807 -0.0603858,-0.444181 -0.00335039,-0.144248 0.0141654,-0.281327 0.0626772,-0.410197 0.0302087,-0.0802559 0.0810827,-0.142 0.142177,-0.183591 0.0590866,-0.0402205 0.127811,-0.0615039 0.196839,-0.0624331 0.0692835,-0.000929134 0.138768,0.0187047 0.199067,0.060315 0.0590591,0.0407598 0.108933,0.102272 0.140476,0.185709z"/>
   <path id="_352364512" class="fil1" d="M3.45626 3.12163l0.00470866 0.0130118c0.00130709,0.00362598 0.0028189,0.00789764 0.00451181,0.0127756l0.000208661 0.034374c-0.0361181,0.105661 -0.0499094,0.218205 -0.048126,0.336681 0.0018189,0.120496 0.0197441,0.247665 0.0467874,0.380283l0.000208661 0.0208346 -0.00291339 0.0148937 -3.93701e-005 -7.87402e-006 -0.00284646 0.0146378c-0.0150197,0.0776693 -0.0720315,0.132988 -0.147921,0.16711 -0.0582874,0.0262087 -0.128567,0.0397638 -0.198059,0.0409094 -0.0695157,0.00114961 -0.139264,-0.0101457 -0.196437,-0.033622 -0.0720709,-0.0295945 -0.125831,-0.0786575 -0.140929,-0.147504 -0.0337008,-0.153618 -0.0570787,-0.301807 -0.0603858,-0.444181 -0.00335039,-0.144248 0.0141654,-0.281327 0.0626772,-0.410197 0.0302126,-0.0802559 0.0810827,-0.142 0.142177,-0.183591 0.0590866,-0.0402205 0.127811,-0.0615039 0.196839,-0.0624331 0.0692795,-0.000929134 0.138768,0.0187008 0.199063,0.060315 0.059063,0.0407598 0.108933,0.102268 0.140476,0.185709z"/>
   <path id="_352364128" class="fil0" d="M2.84619 3.12163l0.00470866 0.0130118c0.0026811,0.00742913 0.00411811,0.0114213 0.00451575,0.0125669l0.000208661 0.0345827c-0.036122,0.105657 -0.0499134,0.218205 -0.0481299,0.336681 0.0018189,0.120496 0.0197441,0.247665 0.0467874,0.380283l0.000208661 0.0208346 -0.00291339 0.0148937 -3.93701e-005 -7.87402e-006 -0.00284646 0.0146378c-0.0150197,0.0776693 -0.0720276,0.132984 -0.147921,0.16711 -0.0582874,0.0262087 -0.128567,0.0397638 -0.198059,0.0409094 -0.0695157,0.00114961 -0.139264,-0.0101457 -0.196437,-0.033622 -0.0720709,-0.0295945 -0.125831,-0.0786575 -0.140929,-0.147504 -0.0337008,-0.153618 -0.0570787,-0.301807 -0.0603858,-0.444181 -0.00335039,-0.144248 0.0141654,-0.281327 0.0626772,-0.410197 0.0302126,-0.0802559 0.0810827,-0.142 0.142177,-0.183591 0.0590866,-0.0402205 0.127811,-0.0615039 0.196839,-0.0624331 0.0692795,-0.000929134 0.138768,0.0187008 0.199063,0.060315 0.059063,0.0407598 0.108933,0.102268 0.140476,0.185709z"/>
   <path id="_352364320" class="fil2" d="M5.40208 4.0882c-0.0205945,-0.0146102 -0.020315,-0.0381024 0.000625984,-0.0524685 0.0209409,-0.0143701 0.0546142,-0.0141732 0.0752087,0.000437008 0.000649606,0.000456693 0.228752,0.159531 0.228752,0.323693l0 0.148839c0,0.0205512 -0.0238819,0.0372126 -0.0533346,0.0372126 -0.0294528,0 -0.0533346,-0.0166614 -0.0533346,-0.0372126l0 -0.148839c0,-0.13352 -0.197354,-0.27126 -0.197917,-0.271661z"/>
   <path id="_352363432" class="fil2" d="M4.97542 4.0882c-0.0205945,-0.0146102 -0.020315,-0.0381024 0.000625984,-0.0524685 0.0209409,-0.0143701 0.0546142,-0.0141732 0.0752087,0.000437008 0.000649606,0.000456693 0.228752,0.159531 0.228752,0.323693l0 0.148839c0,0.0205512 -0.0238819,0.0372126 -0.0533346,0.0372126 -0.0294528,0 -0.0533346,-0.0166614 -0.0533346,-0.0372126l0 -0.148839c0,-0.13352 -0.197354,-0.27126 -0.197917,-0.271661z"/>
   <path id="_352363168" class="fil2" d="M4.54875 4.0882c-0.0205945,-0.0146102 -0.020315,-0.0381024 0.000625984,-0.0524685 0.0209409,-0.0143701 0.0546142,-0.0141732 0.0752087,0.000437008 0.000649606,0.000456693 0.228752,0.159531 0.228752,0.323693l0 0.148839c0,0.0205512 -0.0238819,0.0372126 -0.0533346,0.0372126 -0.0294528,0 -0.0533346,-0.0166614 -0.0533346,-0.0372126l0 -0.148839c0,-0.13352 -0.197354,-0.27126 -0.197917,-0.271661z"/>
   <path id="_352363600" class="fil2" d="M4.12209 4.0882c-0.0205945,-0.0146102 -0.020315,-0.0381024 0.000625984,-0.0524685 0.0209409,-0.0143701 0.0546142,-0.0141732 0.0752087,0.000437008 0.000649606,0.000456693 0.228752,0.159531 0.228752,0.323693l0 0.148839c0,0.0205512 -0.0238819,0.0372126 -0.0533346,0.0372126 -0.0294528,0 -0.0533346,-0.0166614 -0.0533346,-0.0372126l0 -0.148839c0,-0.13352 -0.197354,-0.27126 -0.197917,-0.271661z"/>
   <path id="_352363648" class="fil2" d="M3.69542 4.0882c-0.0205945,-0.0146102 -0.020315,-0.0381024 0.000625984,-0.0524685 0.0209409,-0.0143701 0.0546142,-0.0141732 0.0752087,0.000437008 0.000649606,0.000456693 0.228752,0.159531 0.228752,0.323693l0 0.148839c0,0.0205512 -0.0238819,0.0372126 -0.0533346,0.0372126 -0.0294528,0 -0.0533346,-0.0166614 -0.0533346,-0.0372126l0 -0.148839c0,-0.13352 -0.197354,-0.27126 -0.197917,-0.271661z"/>
   <path id="_352363624" class="fil2" d="M3.26876 4.0882c-0.0205945,-0.0146102 -0.020315,-0.0381024 0.000625984,-0.0524685 0.0209409,-0.0143701 0.0546142,-0.0141732 0.0752087,0.000437008 0.000649606,0.000456693 0.228752,0.159531 0.228752,0.323693l0 0.148839c0,0.0205512 -0.0238819,0.0372126 -0.0533346,0.0372126 -0.0294528,0 -0.0533346,-0.0166614 -0.0533346,-0.0372126l0 -0.148839c0,-0.13352 -0.197354,-0.27126 -0.197917,-0.271661z"/>
   <path id="_352363120" class="fil2" d="M2.84209 4.0882c-0.0205945,-0.0146102 -0.020315,-0.0381024 0.000625984,-0.0524685 0.0209409,-0.0143701 0.0546142,-0.0141732 0.0752087,0.000437008 0.000649606,0.000456693 0.228752,0.159531 0.228752,0.323693l0 0.148839c0,0.0205512 -0.0238819,0.0372126 -0.0533346,0.0372126 -0.0294528,0 -0.0533346,-0.0166614 -0.0533346,-0.0372126l0 -0.148839c0,-0.13352 -0.197354,-0.27126 -0.197917,-0.271661z"/>
   <path id="_352363792" class="fil2" d="M2.41543 4.0882c-0.0205945,-0.0146102 -0.020315,-0.0381024 0.000625984,-0.0524685 0.0209409,-0.0143701 0.0546142,-0.0141732 0.0752087,0.000437008 0.000649606,0.000456693 0.228752,0.159531 0.228752,0.323693l0 0.148839c0,0.0205512 -0.0238819,0.0372126 -0.0533346,0.0372126 -0.0294528,0 -0.0533346,-0.0166614 -0.0533346,-0.0372126l0 -0.148839c0,-0.13352 -0.197354,-0.27126 -0.197917,-0.271661z"/>
   <path id="_352363240" class="fil1" d="M1.56895 2.67317c0.146638,0 0.283709,0.0484606 0.400551,0.132654 0.119378,0.0860236 0.21722,0.209264 0.28189,0.355862l0.00208661 0.0375c-0.0344843,0.108878 -0.046,0.224858 -0.0417638,0.346941 0.00430709,0.123992 0.0249685,0.255276 0.0544843,0.392331l-0.00270866 0.0308346c-0.061315,0.151886 -0.157402,0.280512 -0.276114,0.371406 -0.116465,0.0891732 -0.254764,0.142114 -0.403705,0.145441l-0.0400669 0.000893701 -0.011811 -0.0383937c-0.0345276,-0.112248 -0.0988307,-0.221035 -0.161437,-0.290965 -0.0243386,-0.027185 -0.047622,-0.0476339 -0.0676772,-0.0588976 0.0041811,0.0518189 0.0123346,0.146772 0.0237717,0.252874l0.0108543 0.100654 -0.0889803 -0.0481535c-0.135098,-0.0731142 -0.249039,-0.191 -0.328201,-0.337469 -0.0760157,-0.140638 -0.120126,-0.307783 -0.120126,-0.486846 0,-0.248476 0.084878,-0.473933 0.222102,-0.637559 0.139429,-0.166264 0.332736,-0.269106 0.54685,-0.269106z"/>
   <path id="_352362496" class="fil3" d="M1.18568 3.32099c0.0493858,-0.0572953 0.079937,-0.137114 0.079937,-0.225862 0,-0.0444567 -0.0075748,-0.0864528 -0.0212756,-0.124335 -0.00842913,-0.0233189 -0.0191457,-0.0451732 -0.0317992,-0.0651732 -0.035626,0.0275394 -0.0689252,0.0590787 -0.0994488,0.0940866 -0.00313386,0.00359843 -0.00624016,0.00723622 -0.00931496,0.0109055 -0.0256811,0.0306614 -0.0493307,0.0638543 -0.0706732,0.0992598 -0.0476417,0.0790236 -0.0835669,0.168925 -0.104732,0.266079 -0.00151181,0.00694094 -0.00294882,0.0139173 -0.00431102,0.0209291 0.00672047,0.0024685 0.0135157,0.0046063 0.0203661,0.00639764 0.0178583,0.00466929 0.0368504,0.0071378 0.0567835,0.0071378 0.0715906,0 0.136846,-0.0341772 0.184469,-0.0894252z"/>
   <path id="_352362904" class="fil4" d="M1.18582 3.32018c0.0340157,-0.0394606 0.0550551,-0.0944331 0.0550551,-0.155555 0,-0.0306181 -0.00521654,-0.0595394 -0.0146535,-0.0856299 -0.00580315,-0.016063 -0.013185,-0.0311142 -0.0219016,-0.0448858 -0.0245354,0.0189646 -0.0474685,0.040689 -0.0684921,0.0647992 -0.00215748,0.00247638 -0.00429528,0.00498031 -0.00641339,0.00750787 -0.017689,0.0211181 -0.0339764,0.0439803 -0.0486732,0.0683622 -0.032815,0.0544252 -0.0575551,0.116343 -0.0721339,0.183256 -0.00103937,0.00477953 -0.0020315,0.00958661 -0.0029685,0.0144134 0.00462992,0.00170079 0.00930709,0.00317323 0.0140276,0.00440551 0.0122992,0.00321654 0.025378,0.00491732 0.0391063,0.00491732 0.0493071,0 0.094248,-0.0235394 0.127047,-0.0615906z"/>
   <path id="_352362448" class="fil5" d="M1.5681 4.46222c-0.0433976,-0.141083 -0.124217,-0.277819 -0.202909,-0.365713 -0.0305906,-0.0341693 -0.0598543,-0.0598701 -0.085063,-0.0740276 0.00525591,0.0651299 0.0155039,0.184476 0.0298819,0.317835l0.0126181 0.116996c0.0875906,0.049811 0.174453,0.0710591 0.260319,0.0531654l-0.0148465 -0.0482559z"/>
   <path id="_352362688" class="fil6" d="M2.25483 3.03884c0.0170394,0.201921 0.0458386,0.213122 0.0185394,0.444622 -0.0159094,0.134941 -0.0255512,0.228524 -0.0346496,0.364547 -0.0499803,-0.191492 -0.0372244,-0.178996 -0.0324449,-0.371102 0.00556693,-0.223701 -0.0225512,-0.238059 -0.051374,-0.434327 -0.0010315,-0.0275945 0.0205,-0.0508031 0.0480945,-0.0518346 0.0275945,-0.0010315 0.0508031,0.0205 0.0518346,0.0480945z"/>
   <path id="_352363000" class="fil6" d="M2.86419 3.02285c0.0308425,0.352728 -0.0364213,0.226504 -0.0579134,0.496504 -0.010374,0.130362 -0.00805906,0.179823 0.00806693,0.307764l-0.000204724 0.000102362c-0.0707165,-0.13689 -0.0664606,-0.149681 -0.0698661,-0.310118 -0.00590157,-0.277961 0.0713819,-0.144008 0.0200197,-0.489787 -0.00123228,-0.0275866 0.0201299,-0.0509488 0.0477165,-0.0521811 0.0275866,-0.00123228 0.0509488,0.0201299 0.0521811,0.0477165z"/>
   <path id="_352362088" class="fil6" d="M3.46883 3.04228c0.0397283,0.041126 0.0339528,0.28785 0.0109055,0.386291 -0.0267638,0.114291 -0.0479961,0.190898 -0.024874,0.307453 -0.0658898,-0.051689 -0.0577874,-0.176642 -0.0495669,-0.254476 0.0280866,-0.265953 -0.00403543,-0.193457 -0.0321102,-0.468457 0.00805906,-0.0264134 0.0360039,-0.0412874 0.0624173,-0.0332283 0.0264134,0.00805906 0.0412874,0.0360039 0.0332283,0.0624173z"/>
   <path id="_352361632" class="fil6" d="M4.07948 3.00669c0.0766496,0.357547 -0.109827,0.38678 -0.0412638,0.752764l-3.93701e-005 2.3622e-005c-0.172957,-0.211283 0.0339094,-0.418673 -0.0516811,-0.715984 -0.0101614,-0.0256772 0.00241339,-0.0547323 0.0280906,-0.0648937 0.0256772,-0.0101614 0.0547323,0.00241339 0.0648937,0.0280906z"/>
   <path id="_352361896" class="fil6" d="M5.2977 3.1732c0.0996496,0.218012 0.0111063,0.404106 0.0582087,0.648768 -0.121988,-0.0722283 -0.0403386,-0.409776 -0.139705,-0.590815 -0.0160039,-0.0225039 -0.0107323,-0.0537205 0.0117717,-0.0697244 0.0225039,-0.0160039 0.0537205,-0.0107323 0.0697244,0.0117717z"/>
   <path id="_352362040" class="fil6" d="M5.79169 3.45281c-0.00348819,0.146866 0.00757874,0.387012 -0.0399488,0.520197 -0.0327205,-0.0829252 -0.0548583,-0.464705 -0.0503661,-0.563134 0.0118583,-0.0249409 0.041685,-0.0355472 0.066626,-0.023689 0.0249409,0.0118583 0.0355472,0.041685 0.023689,0.066626z"/>
   <path id="_352361776" class="fil6" d="M4.66443 3.04826c0.0758189,0.227402 -0.0320748,0.402984 -0.0113465,0.651276 -0.113587,-0.0848307 0.00361417,-0.41174 -0.0758701,-0.602346 -0.0135118,-0.0240866 -0.00493701,-0.0545591 0.0191457,-0.0680709 0.0240827,-0.0135118 0.0545591,-0.00494094 0.0680709,0.0191417z"/>
   <circle id="_352361584" class="fil7" cx="3.09538" cy="3.08809" r="0.093748"/>
   <circle id="_352361128" class="fil7" cx="3.09538" cy="3.36239" r="0.0694488"/>
   <circle id="_352360936" class="fil7" cx="3.09538" cy="3.6367" r="0.0451496"/>
   <circle id="_352361368" class="fil7" cx="3.71344" cy="3.08809" r="0.093748"/>
   <circle id="_352361008" class="fil7" cx="4.33149" cy="3.08809" r="0.093748"/>
   <circle id="_352360768" class="fil7" cx="4.93913" cy="3.11586" r="0.093748"/>
   <circle id="_352361488" class="fil7" cx="5.51837" cy="3.32357" r="0.0653393"/>
   <circle id="_352360912" class="fil7" cx="5.88927" cy="3.60419" r="0.0369306"/>
   <circle id="_352360888" class="fil7" cx="3.71344" cy="3.36239" r="0.0694488"/>
   <circle id="_352360024" class="fil7" cx="4.33149" cy="3.36239" r="0.0694488"/>
   <circle id="_352360648" class="fil7" cx="4.93913" cy="3.39017" r="0.0694488"/>
   <circle id="_352360720" class="fil7" cx="5.51837" cy="3.51475" r="0.0484036"/>
   <circle id="_352360288" class="fil7" cx="5.88927" cy="3.71225" r="0.0273583"/>
   <circle id="_352360480" class="fil7" cx="3.71344" cy="3.6367" r="0.0451496"/>
   <circle id="_352360360" class="fil7" cx="4.33149" cy="3.6367" r="0.0451496"/>
   <circle id="_352360696" class="fil7" cx="4.93913" cy="3.66448" r="0.0451496"/>
   <circle id="_352360672" class="fil7" cx="5.51837" cy="3.70593" r="0.0314678"/>
   <circle id="_352359256" class="fil7" cx="5.88927" cy="3.82031" r="0.017786"/>
   <circle id="_352359520" class="fil7" cx="2.51552" cy="3.08809" r="0.093748"/>
   <circle id="_352359352" class="fil7" cx="2.51552" cy="3.36239" r="0.0694488"/>
   <circle id="_352359400" class="fil7" cx="2.51552" cy="3.6367" r="0.0451496"/>
  </g>
  <rect class="fil8" width="6.82666" height="6.82666"/>
 </g>
</svg>
