<?xml version="1.0" encoding="UTF-8"?>
<!DOCTYPE svg PUBLIC "-//W3C//DTD SVG 1.1//EN" "http://www.w3.org/Graphics/SVG/1.1/DTD/svg11.dtd">
<!-- Creator: CorelDRAW -->
<svg xmlns="http://www.w3.org/2000/svg" xml:space="preserve" width="6.82666in" height="6.82666in" style="shape-rendering:geometricPrecision; text-rendering:geometricPrecision; image-rendering:optimizeQuality; fill-rule:evenodd; clip-rule:evenodd"
viewBox="0 0 6.82666 6.82666"
 xmlns:xlink="http://www.w3.org/1999/xlink">
 <defs>
  <style type="text/css">
   <![CDATA[
    .fil5 {fill:none}
    .fil3 {fill:#124D16;fill-rule:nonzero}
    .fil4 {fill:#1B5E20;fill-rule:nonzero}
    .fil0 {fill:#388E3C;fill-rule:nonzero}
    .fil1 {fill:#FFD600;fill-rule:nonzero}
    .fil2 {fill:white;fill-rule:nonzero}
   ]]>
  </style>
 </defs>
 <g id="Layer_x0020_1">
  <metadata id="CorelCorpID_0Corel-Layer"/>
  <g id="_352369096">
   <g>
    <path id="_352371928" class="fil0" d="M0.860909 2.47113c-0.0590276,0.571378 0.233354,1.09968 0.653024,1.18001 0.419622,0.0803346 1.86078,-1.21678 1.86078,-1.21678 0,0 -1.22751,-0.772028 -1.64713,-0.852362 -0.419638,-0.0803346 -0.807689,0.317748 -0.866665,0.889126z"/>
    <path id="_352371832" class="fil0" d="M1.96542 5.26894c0.311378,0.391307 0.796854,0.364898 1.08429,-0.0591024 0.287425,-0.423945 0.324756,-2.77565 0.324756,-2.77565 0,0 -1.16502,0.934457 -1.45245,1.35843 -0.28739,0.423972 -0.26798,1.08497 0.0434094,1.47632z"/>
    <path id="_352371688" class="fil1" d="M2.23519 4.8648c0.249961,0.314106 0.639642,0.292909 0.870378,-0.0474685 0.230697,-0.340299 0.260677,-2.22806 0.260677,-2.22806 0,0 -0.935161,0.75013 -1.16592,1.09046 -0.230705,0.340291 -0.215114,0.870921 0.0348622,1.18506z"/>
    <path id="_352372216" class="fil1" d="M1.28058 2.49521c-0.0449961,0.436004 0.178094,0.839154 0.498303,0.900449 0.320217,0.0612795 1.41993,-0.928496 1.41993,-0.928496 0,0 -0.936697,-0.589134 -1.25688,-0.650406 -0.320236,-0.0613071 -0.616327,0.242465 -0.661354,0.678453z"/>
    <g>
     <path id="_352371592" class="fil2" d="M1.34548 3.39174c0,0.0282874 0.0168465,0.0512126 0.0375984,0.0512126 0.0207638,0 0.0376024,-0.0229252 0.0376024,-0.0512126 0,-0.0282795 -0.0168386,-0.0512047 -0.0376024,-0.0512047 -0.020752,0 -0.0375984,0.0229252 -0.0375984,0.0512047z"/>
     <path id="_352370968" class="fil2" d="M1.13667 3.1869c0,0.045252 0.0269567,0.0819331 0.060189,0.0819331 0.0332362,0 0.0601969,-0.0366811 0.0601969,-0.0819331 0,-0.045252 -0.0269606,-0.0819331 -0.0601969,-0.0819331 -0.0332323,0 -0.060189,0.0366811 -0.060189,0.0819331z"/>
     <path id="_352370872" class="fil2" d="M0.976854 2.81317c0,0.0622244 0.0370551,0.112661 0.0827638,0.112661 0.0457047,0 0.082748,-0.050437 0.082748,-0.112661 0,-0.0622165 -0.0370433,-0.112654 -0.082748,-0.112654 -0.0457087,0 -0.0827638,0.050437 -0.0827638,0.112654z"/>
     <path id="_352370776" class="fil2" d="M0.971154 2.37024c0,0.0565669 0.0337047,0.102425 0.0752402,0.102425 0.0415512,0 0.0752402,-0.0458583 0.0752402,-0.102425 0,-0.0565512 -0.033689,-0.102429 -0.0752402,-0.102429 -0.0415354,0 -0.0752402,0.045878 -0.0752402,0.102429z"/>
     <path id="_352371136" class="fil2" d="M1.08585 2.01176c0,0.0509016 0.030311,0.092185 0.0677047,0.092185 0.0373976,0 0.0677126,-0.0412835 0.0677126,-0.092185 0,-0.0509094 -0.030315,-0.0921929 -0.0677126,-0.0921929 -0.0373937,0 -0.0677047,0.0412835 -0.0677047,0.0921929z"/>
     <path id="_352370824" class="fil2" d="M1.34916 1.7377c0,0.0282874 0.0168346,0.0512047 0.0375984,0.0512047 0.0207559,0 0.0376024,-0.0229173 0.0376024,-0.0512047 0,-0.0282874 -0.0168465,-0.0512047 -0.0376024,-0.0512047 -0.0207638,0 -0.0375984,0.0229173 -0.0375984,0.0512047z"/>
     <path id="_352371184" class="fil2" d="M2.71828 5.25089c0,0.0452362 0.0269488,0.0819567 0.060185,0.0819567 0.0332559,0 0.060189,-0.0367205 0.060189,-0.0819567 0,-0.0452677 -0.0269331,-0.0819646 -0.060189,-0.0819646 -0.0332362,0 -0.060185,0.0366969 -0.060185,0.0819646z"/>
     <path id="_352371064" class="fil2" d="M2.38729 5.29189c0,0.0678661 0.0404252,0.122894 0.0902756,0.122894 0.0498465,0 0.0902756,-0.0550276 0.0902756,-0.122894 0,-0.067874 -0.0404291,-0.122929 -0.0902756,-0.122929 -0.0498504,0 -0.0902756,0.0550551 -0.0902756,0.122929z"/>
     <path id="_352370800" class="fil2" d="M2.0262 5.08702c0,0.0905079 0.0538858,0.16387 0.120358,0.16387 0.0664724,0 0.120354,-0.0733622 0.120354,-0.16387 0,-0.0905039 -0.0538819,-0.16389 -0.120354,-0.16389 -0.0664724,0 -0.120358,0.0733858 -0.120358,0.16389z"/>
     <path id="_352371040" class="fil2" d="M1.82308 4.64659c0,0.0735236 0.0437795,0.133157 0.0977992,0.133157 0.0540118,0 0.0977835,-0.0596339 0.0977835,-0.133157 0,-0.0735236 -0.0437717,-0.133154 -0.0977835,-0.133154 -0.0540197,0 -0.0977992,0.0596299 -0.0977992,0.133154z"/>
     <path id="_352370896" class="fil2" d="M1.84563 4.16518c0,0.0452598 0.0269646,0.0819606 0.0602008,0.0819606 0.0332323,0 0.0601811,-0.0367008 0.0601811,-0.0819606 0,-0.0452441 -0.0269488,-0.0819331 -0.0601811,-0.0819331 -0.0332362,0 -0.0602008,0.036689 -0.0602008,0.0819331z"/>
    </g>
   </g>
   <g>
    <path id="_352370248" class="fil0" d="M5.96575 2.47113c0.0590394,0.571378 -0.233335,1.09968 -0.653,1.18001 -0.419634,0.0803346 -1.86082,-1.21678 -1.86082,-1.21678 0,0 1.22753,-0.772028 1.64718,-0.852362 0.419634,-0.0803346 0.807677,0.317748 0.866638,0.889126z"/>
    <path id="_352370536" class="fil0" d="M4.86124 5.26894c-0.311362,0.391307 -0.796839,0.364898 -1.0843,-0.0591024 -0.287437,-0.423945 -0.324768,-2.77565 -0.324768,-2.77565 0,0 1.16504,0.934457 1.45248,1.35843 0.287398,0.423972 0.267996,1.08497 -0.0434134,1.47632z"/>
    <path id="_352370008" class="fil1" d="M4.59148 4.8648c-0.249953,0.314106 -0.639634,0.292909 -0.870378,-0.0474685 -0.230701,-0.340299 -0.260669,-2.22806 -0.260669,-2.22806 0,0 0.935154,0.75013 1.16592,1.09046 0.230701,0.340291 0.215114,0.870921 -0.0348701,1.18506z"/>
    <path id="_352370104" class="fil1" d="M5.5461 2.49521c0.0449921,0.436004 -0.178098,0.839154 -0.498295,0.900449 -0.320232,0.0612795 -1.41996,-0.928496 -1.41996,-0.928496 0,0 0.936709,-0.589134 1.25689,-0.650406 0.320232,-0.0613071 0.616339,0.242465 0.661362,0.678453z"/>
    <g>
     <path id="_352370392" class="fil2" d="M5.48119 3.39174c0,0.0282874 -0.0168425,0.0512126 -0.0375787,0.0512126 -0.0207717,0 -0.0376181,-0.0229252 -0.0376181,-0.0512126 0,-0.0282795 0.0168465,-0.0512047 0.0376181,-0.0512047 0.0207362,0 0.0375787,0.0229252 0.0375787,0.0512047z"/>
     <path id="_352370296" class="fil2" d="M5.69002 3.1869c0,0.045252 -0.0269685,0.0819331 -0.0602126,0.0819331 -0.0332126,0 -0.0601772,-0.0366811 -0.0601772,-0.0819331 0,-0.045252 0.0269646,-0.0819331 0.0601772,-0.0819331 0.0332441,0 0.0602126,0.0366811 0.0602126,0.0819331z"/>
     <path id="_352370152" class="fil2" d="M5.84981 2.81317c0,0.0622244 -0.0370551,0.112661 -0.0827717,0.112661 -0.0456811,0 -0.0827283,-0.050437 -0.0827283,-0.112661 0,-0.0622165 0.0370472,-0.112654 0.0827283,-0.112654 0.0457165,0 0.0827717,0.050437 0.0827717,0.112654z"/>
     <path id="_352370680" class="fil2" d="M5.85552 2.37024c0,0.0565669 -0.033689,0.102425 -0.0752402,0.102425 -0.0415472,0 -0.0752362,-0.0458583 -0.0752362,-0.102425 0,-0.0565512 0.033689,-0.102429 0.0752362,-0.102429 0.0415512,0 0.0752402,0.045878 0.0752402,0.102429z"/>
     <path id="_352370056" class="fil2" d="M5.74084 2.01176c0,0.0509016 -0.0303346,0.092185 -0.0677087,0.092185 -0.0374173,0 -0.0677047,-0.0412835 -0.0677047,-0.092185 0,-0.0509094 0.0302874,-0.0921929 0.0677047,-0.0921929 0.037374,0 0.0677087,0.0412835 0.0677087,0.0921929z"/>
     <path id="_352370176" class="fil2" d="M5.47752 1.7377c0,0.0282874 -0.0168268,0.0512047 -0.0376024,0.0512047 -0.020752,0 -0.0375945,-0.0229173 -0.0375945,-0.0512047 0,-0.0282874 0.0168425,-0.0512047 0.0375945,-0.0512047 0.0207756,0 0.0376024,0.0229173 0.0376024,0.0512047z"/>
     <path id="_352369792" class="fil2" d="M4.1084 5.25089c0,0.0452362 -0.0269528,0.0819567 -0.0601772,0.0819567 -0.0332638,0 -0.0601929,-0.0367205 -0.0601929,-0.0819567 0,-0.0452677 0.0269291,-0.0819646 0.0601929,-0.0819646 0.0332244,0 0.0601772,0.0366969 0.0601772,0.0819646z"/>
     <path id="_352369504" class="fil2" d="M4.43939 5.29189c0,0.0678661 -0.040437,0.122894 -0.0902874,0.122894 -0.0498504,0 -0.0902598,-0.0550276 -0.0902598,-0.122894 0,-0.067874 0.0404094,-0.122929 0.0902598,-0.122929 0.0498504,0 0.0902874,0.0550551 0.0902874,0.122929z"/>
     <path id="_352369600" class="fil2" d="M4.80048 5.08702c0,0.0905079 -0.0538819,0.16387 -0.12037,0.16387 -0.0664528,0 -0.120354,-0.0733622 -0.120354,-0.16387 0,-0.0905039 0.0539016,-0.16389 0.120354,-0.16389 0.0664882,0 0.12037,0.0733858 0.12037,0.16389z"/>
     <path id="_352369384" class="fil2" d="M5.00359 4.64659c0,0.0735236 -0.0437756,0.133157 -0.0977913,0.133157 -0.0540079,0 -0.0977795,-0.0596339 -0.0977795,-0.133157 0,-0.0735236 0.0437717,-0.133154 0.0977795,-0.133154 0.0540157,0 0.0977913,0.0596299 0.0977913,0.133154z"/>
     <path id="_352369288" class="fil2" d="M4.98105 4.16518c0,0.0452598 -0.0269449,0.0819606 -0.0601929,0.0819606 -0.033248,0 -0.0601772,-0.0367008 -0.0601772,-0.0819606 0,-0.0452441 0.0269291,-0.0819331 0.0601772,-0.0819331 0.033248,0 0.0601929,0.036689 0.0601929,0.0819331z"/>
    </g>
   </g>
   <path id="_352369360" class="fil3" d="M2.80982 1.56256c0,0 0.000338583,-0.0050748 0.000968504,-0.0145709 0.000181102,-0.0078622 0.0025315,-0.0272717 0.00729528,-0.0477362 0.00500787,-0.020063 0.0128819,-0.0441181 0.0266339,-0.0693976 0.0138583,-0.0251024 0.0330669,-0.0515906 0.0590315,-0.075315 0.0258543,-0.0237283 0.0584843,-0.0445906 0.0962874,-0.0581142 0.0372323,-0.0136299 0.0815039,-0.0194646 0.122528,-0.0155512 0.0452953,0.00374803 0.0875591,0.0189291 0.126091,0.0433031 0.0384291,0.0240787 0.070626,0.0585591 0.0931811,0.0982953 0.0230748,0.0395472 0.0346929,0.0851575 0.0359528,0.129681 0.000610236,0.0116457 0.000165354,0.0210354 5.90551e-005,0.0310394 -0.000161417,0.00990945 -0.000322835,0.0197598 -0.000464567,0.029563 -0.000322835,0.0195984 -0.000645669,0.0389528 -0.000952756,0.0579882 -0.00123622,0.0761575 -0.00237008,0.147236 -0.00333858,0.208165 -0.00198819,0.121858 -0.00327953,0.203094 -0.00327953,0.203094 -0.000204724,0.0114488 -0.0096378,0.0205827 -0.0210748,0.0203976 -0.0112126,-0.000181102 -0.0202047,-0.00927165 -0.0203898,-0.0203976 0,0 -0.00131496,-0.0812362 -0.00327953,-0.203094 -0.000992126,-0.0609291 -0.00214567,-0.132008 -0.0033622,-0.208165 -0.000322835,-0.0190354 -0.000602362,-0.0383898 -0.000925197,-0.0579882 -0.000165354,-0.00980315 -0.000330709,-0.0196535 -0.000488189,-0.029563 -0.000200787,-0.00981102 -0.000125984,-0.0203425 -0.000972441,-0.0286417 -0.00218504,-0.0351929 -0.0123543,-0.0704331 -0.0313661,-0.100528 -0.0185236,-0.030252 -0.0442362,-0.0561181 -0.0742874,-0.0734764 -0.0294213,-0.0176102 -0.0639016,-0.0281614 -0.0946575,-0.029622 -0.0349291,-0.00211024 -0.0650669,0.00354724 -0.0930945,0.0144882 -0.0276299,0.0109134 -0.0511457,0.0270866 -0.0695354,0.0451181 -0.0184646,0.0180433 -0.0317559,0.037815 -0.0412362,0.0562677 -0.00934252,0.0186063 -0.0143504,0.0360906 -0.0174882,0.0505433 -0.00253543,0.0142598 -0.00394882,0.0226693 -0.00404331,0.0338346 -0.000322835,0.00951575 -0.000496063,0.0145945 -0.000496063,0.0145945 -0.000787402,0.0230157 -0.0200945,0.0410394 -0.0431142,0.040248 -0.0230197,-0.000787402 -0.0410394,-0.0200945 -0.040252,-0.0431024 1.5748e-005,-0.000401575 4.72441e-005,-0.000976378 7.08661e-005,-0.00135827z"/>
   <path id="_352369216" class="fil3" d="M4.03008 1.56256c0,0 -0.00034252,-0.0050748 -0.000972441,-0.0145709 -0.000181102,-0.0078622 -0.0025315,-0.0272717 -0.0072874,-0.0477362 -0.00502362,-0.020063 -0.012874,-0.0441181 -0.0266457,-0.0693976 -0.0138543,-0.0251024 -0.0330433,-0.0515906 -0.0590236,-0.075315 -0.0258543,-0.0237283 -0.0584961,-0.0445906 -0.0962756,-0.0581142 -0.0372559,-0.0136299 -0.0815157,-0.0194646 -0.122539,-0.0155512 -0.0452953,0.00374803 -0.0875472,0.0189291 -0.126102,0.0433031 -0.0384252,0.0240787 -0.0706024,0.0585591 -0.0931772,0.0982953 -0.023063,0.0395472 -0.0347047,0.0851575 -0.0359567,0.129681 -0.000614173,0.0116457 -0.000165354,0.0210354 -4.33071e-005,0.0310394 0.000161417,0.00990945 0.000322835,0.0197598 0.000464567,0.029563 0.000322835,0.0195984 0.000629921,0.0389528 0.000952756,0.0579882 0.00121654,0.0761575 0.00235039,0.147236 0.00333858,0.208165 0.00196457,0.121858 0.00327953,0.203094 0.00327953,0.203094 0.000181102,0.0114488 0.00962205,0.0205827 0.0210827,0.0203976 0.0112126,-0.000181102 0.0202047,-0.00927165 0.0203858,-0.0203976 0,0 0.0013189,-0.0812362 0.00327953,-0.203094 0.000996063,-0.0609291 0.00212992,-0.132008 0.00333858,-0.208165 0.000330709,-0.0190354 0.000629921,-0.0383898 0.000952756,-0.0579882 0.000141732,-0.00980315 0.000307087,-0.0196535 0.000468504,-0.029563 0.000200787,-0.00981102 0.000137795,-0.0203425 0.000972441,-0.0286417 0.00218504,-0.0351929 0.0123465,-0.0704331 0.0313819,-0.100528 0.0185276,-0.030252 0.0442205,-0.0561181 0.0742677,-0.0734764 0.0294449,-0.0176102 0.0639016,-0.0281614 0.0946811,-0.029622 0.0349055,-0.00211024 0.0650551,0.00354724 0.0930945,0.0144882 0.0276181,0.0109134 0.0511417,0.0270866 0.0695315,0.0451181 0.0184685,0.0180433 0.031752,0.037815 0.0412244,0.0562677 0.00935827,0.0186063 0.0143543,0.0360906 0.0174961,0.0505433 0.00252756,0.0142598 0.00394488,0.0226693 0.00405118,0.0338346 0.000322835,0.00951575 0.000480315,0.0145945 0.000480315,0.0145945 0.000787402,0.0230157 0.0200906,0.0410394 0.043126,0.040248 0.0230039,-0.000787402 0.0410236,-0.0200945 0.0402559,-0.0431024 -4.33071e-005,-0.000401575 -5.90551e-005,-0.000976378 -8.26772e-005,-0.00135827z"/>
   <path id="_352369264" class="fil4" d="M3.60278 2.17882c0,0.0989606 -0.0802205,0.179177 -0.179173,0.179177 -0.0989449,0 -0.179161,-0.0802165 -0.179161,-0.179177 0,-0.0989488 0.0802165,-0.179161 0.179161,-0.179161 0.0989528,0 0.179173,0.0802126 0.179173,0.179161z"/>
   <path id="_352369672" class="fil4" d="M3.61071 2.58444c0,0.157386 -0.132339,1.7804 -0.132339,1.7804 -0.030126,0.369535 -0.0794134,0.369535 -0.109539,0 0,0 -0.132331,-1.62302 -0.132331,-1.7804 0,-0.15739 0.0837638,-0.284972 0.187102,-0.284972 0.103343,0 0.187106,0.127583 0.187106,0.284972z"/>
  </g>
  <rect class="fil5" width="6.82666" height="6.82666"/>
 </g>
</svg>
