<?xml version="1.0" encoding="UTF-8"?>
<!DOCTYPE svg PUBLIC "-//W3C//DTD SVG 1.1//EN" "http://www.w3.org/Graphics/SVG/1.1/DTD/svg11.dtd">
<!-- Creator: CorelDRAW -->
<svg xmlns="http://www.w3.org/2000/svg" xml:space="preserve" width="2048px" height="2048px" style="shape-rendering:geometricPrecision; text-rendering:geometricPrecision; image-rendering:optimizeQuality; fill-rule:evenodd; clip-rule:evenodd"
viewBox="0 0 2048 2048"
 xmlns:xlink="http://www.w3.org/1999/xlink">
 <defs>
  <style type="text/css">
   <![CDATA[
    .fil3 {fill:none}
    .fil0 {fill:#263238}
    .fil2 {fill:#880E4F}
    .fil1 {fill:#C2185B}
   ]]>
  </style>
 </defs>
 <g id="Layer_x0020_1">
  <metadata id="CorelCorpID_0Corel-Layer"/>
  <path class="fil0" d="M1327.57 811.411c123.581,0 241.027,48.6591 328.397,136.031 87.3721,87.3709 136.032,204.819 136.032,328.4 0,123.581 -48.6603,241.028 -136.032,328.399 -87.3709,87.3721 -204.816,136.031 -328.397,136.031 -123.582,0 -241.029,-48.6591 -328.4,-136.031 -87.3721,-87.3709 -136.032,-204.817 -136.032,-328.399 0,-123.581 48.6603,-241.029 136.032,-328.4 87.3709,-87.3721 204.817,-136.031 328.4,-136.031zm261.907 202.523c-69.6993,-69.6993 -163.324,-108.482 -261.907,-108.482 -98.5843,0 -192.21,38.7827 -261.91,108.482 -69.6981,69.6981 -108.481,163.325 -108.481,261.908 0,98.5843 38.7827,192.208 108.481,261.908 69.6993,69.6969 163.325,108.481 261.91,108.481 98.5843,0 192.207,-38.7827 261.907,-108.481 69.6993,-69.7004 108.482,-163.324 108.482,-261.908 0,-98.5831 -38.7827,-192.21 -108.482,-261.908z"/>
  <path class="fil0" d="M530.698 1190.88c73.0879,0 142.565,28.7882 194.237,80.4615 51.6733,51.6709 80.4615,121.149 80.4615,194.237 0,73.0867 -28.7882,142.566 -80.4603,194.238 -51.6721,51.6721 -121.15,80.4591 -194.238,80.4591 -73.0879,0 -142.567,-28.787 -194.238,-80.4591 -51.6733,-51.6721 -80.4603,-121.152 -80.4603,-194.238 0,-73.089 28.787,-142.566 80.4603,-194.237 51.6721,-51.6744 121.149,-80.4615 194.238,-80.4615zm127.747 146.952c-34.0016,-34.0004 -79.656,-52.9111 -127.747,-52.9111 -48.0922,0 -93.7465,18.9095 -127.748,52.9111 -33.9992,34.0004 -52.9099,79.656 -52.9099,127.747 0,48.0898 18.9106,93.7465 52.9099,127.747 34.0004,34.0004 79.6571,52.9099 127.748,52.9099 48.091,0 93.7465,-18.9095 127.748,-52.9099 33.9992,-34.0004 52.9087,-79.6571 52.9087,-127.747 0,-48.091 -18.9106,-93.7465 -52.9099,-127.747z"/>
  <path class="fil1" d="M1374.59 400.998l0 874.844c0,25.963 -21.0567,47.0209 -47.0197,47.0209 -25.963,0 -47.0209,-21.0579 -47.0209,-47.0209l0 -909.987c0,-18.8622 11.3976,-35.2736 28.2969,-43.1303 43.6855,-20.3126 94.6902,-19.1103 139.095,-1.69606 31.787,12.4665 60.7607,32.7024 83.2548,58.4056 24.8977,28.4457 41.1981,62.6245 46.9217,100.047 11.002,71.9316 -18.8043,141.058 -61.2461,197.623 -15.5398,20.7095 -44.941,24.913 -65.6552,9.37442 -20.7154,-15.5374 -24.9189,-44.9445 -9.37678,-65.6587 26.5607,-35.3965 50.3209,-81.6107 43.3347,-127.293 -2.99882,-19.6051 -11.5465,-37.4079 -24.5858,-52.3063 -12.6272,-14.4272 -29.0374,-25.7315 -46.8697,-32.7248 -11.961,-4.69016 -25.8189,-7.89804 -39.1288,-7.49764z"/>
  <path class="fil1" d="M484.559 1456.93c13.1717,-70.3028 26.9551,-140.647 43.1315,-210.326 13.2437,-57.0437 28.167,-114.129 47.0611,-169.584 29.915,-87.8032 70.1091,-172.05 135.949,-238.808 6.01772,-6.10158 12.2126,-12.0272 18.5752,-17.7662 66.2504,-59.7402 146.263,-94.4457 231.462,-117.901 53.0705,-14.6114 107.623,-24.789 162.047,-32.8299 66.6095,-9.84331 133.831,-16.5756 200.926,-22.1067 25.7516,-2.12362 48.5847,17.2335 50.7036,42.9874 2.12126,25.7504 -17.2335,48.5788 -42.9839,50.7012 -65.9067,5.43426 -131.989,11.9906 -197.416,21.698 -51.6567,7.66418 -103.619,17.3599 -153.902,31.5922 -75.4312,21.3508 -146.747,52.9182 -202.521,109.472 -57.0095,57.8067 -91.3241,134.764 -116.622,210.804 -17.2961,51.9851 -30.9933,105.468 -43.2402,158.847 -15.248,66.4512 -28.3358,133.498 -40.8922,200.504 -4.77048,25.461 -29.315,42.267 -54.7784,37.4988 -25.4634,-4.7693 -42.2705,-29.3173 -37.4988,-54.7819z"/>
  <rect class="fil1" x="811.099" y="575.999" width="94.0406" height="224"/>
  <path class="fil2" d="M1116.24 582.334c0,0 12.0898,-64.4623 -158.136,-51.3685 0,0 -119.958,-0.461811 -223.1,-52.0335 -132.833,-53.3386 -187.423,99.867 -34.7551,155.779 59.3339,-0.217323 409.335,30.1654 415.99,-52.3772z"/>
 </g>
 <rect class="fil3" width="2048" height="2048"/>
</svg>
