<?xml version="1.0" encoding="UTF-8"?>
<!DOCTYPE svg PUBLIC "-//W3C//DTD SVG 1.1//EN" "http://www.w3.org/Graphics/SVG/1.1/DTD/svg11.dtd">
<!-- Creator: CorelDRAW -->
<svg xmlns="http://www.w3.org/2000/svg" xml:space="preserve" width="2048px" height="2048px" style="shape-rendering:geometricPrecision; text-rendering:geometricPrecision; image-rendering:optimizeQuality; fill-rule:evenodd; clip-rule:evenodd"
viewBox="0 0 2048 2048"
 xmlns:xlink="http://www.w3.org/1999/xlink">
 <defs>
  <style type="text/css">
   <![CDATA[
    .fil9 {fill:none}
    .fil4 {fill:none;fill-rule:nonzero}
    .fil3 {fill:#212121}
    .fil6 {fill:#BBDEFB}
    .fil2 {fill:#FFCA28}
    .fil7 {fill:#212121;fill-rule:nonzero}
    .fil5 {fill:#263238;fill-rule:nonzero}
    .fil1 {fill:#37474F;fill-rule:nonzero}
    .fil8 {fill:#BDBDBD;fill-rule:nonzero}
    .fil0 {fill:#FF5722;fill-rule:nonzero}
   ]]>
  </style>
   <clipPath id="id0" style="clip-rule:nonzero">
    <path d="M368.879 1062.47l1310.24 0c29.8229,0 57.2847,10.4563 77.4957,27.3 21.8303,18.1925 35.3835,43.6914 35.3835,72.1004l0 188.719c0,28.4079 -13.552,53.9067 -35.3847,72.0993 -20.211,16.8437 -47.6705,27.3 -77.4945,27.3l-24.6402 0 -346.341 0 -116.167 0 -307.817 0 -144.298 0 -346.34 0 -12.3201 0 -12.3201 0c-29.8229,0 -57.2847,-10.4563 -77.4957,-27.3 -21.8303,-18.1914 -35.3835,-43.6902 -35.3835,-72.0993l0 -188.719c0,-28.4091 13.5508,-53.9091 35.3835,-72.1004 20.211,-16.8437 47.6705,-27.3 77.4957,-27.3z"/>
   </clipPath>
 </defs>
 <g id="Layer_x0020_1">
  <metadata id="CorelCorpID_0Corel-Layer"/>
  <path class="fil0" d="M810.122 466.877c-8.83583,-15.2563 -28.3689,-20.4603 -43.6252,-11.6244 -15.2563,8.83583 -20.4603,28.3689 -11.6244,43.6252l44.0563 76.3075c8.83583,15.2563 28.3689,20.4603 43.6252,11.6244 15.2563,-8.83583 20.4603,-28.3689 11.6244,-43.6252l-44.0563 -76.3075z"/>
  <path class="fil0" d="M801.003 787.015l0 -90.7772c0,-53.9174 31.2461,-88.4977 71.2418,-103.686 14.7543,-5.60197 30.5646,-8.40473 46.1953,-8.40473 15.6307,0 31.441,2.80276 46.1953,8.40473 39.9957,15.1878 71.2418,49.7681 71.2418,103.686l0 90.7772c-101.079,0 -133.795,0 -234.874,0z"/>
  <path class="fil1" d="M368.879 1062.47l1310.24 0c29.8229,0 57.2847,10.4563 77.4957,27.3 21.8303,18.1925 35.3835,43.6914 35.3835,72.1004l0 188.719c0,28.4079 -13.552,53.9067 -35.3847,72.0993 -20.211,16.8437 -47.6705,27.3 -77.4945,27.3l-24.6402 0 -346.341 0 -116.167 0 -307.817 0 -144.298 0 -346.34 0 -12.3201 0 -12.3201 0c-29.8229,0 -57.2847,-10.4563 -77.4957,-27.3 -21.8303,-18.1914 -35.3835,-43.6902 -35.3835,-72.0993l0 -188.719c0,-28.4091 13.5508,-53.9091 35.3835,-72.1004 20.211,-16.8437 47.6705,-27.3 77.4957,-27.3z"/>
  <g style="clip-path:url(#id0)">
   <g id="_319277848">
    <g>
     <g>
      <rect id="_319281088" class="fil2" transform="matrix(1 -0 -1.05016 1 159.711 1197.4)" width="57.8126" height="57.8126"/>
      <rect id="_319281064" class="fil3" transform="matrix(-1 -0 -1.05016 1 275.336 1197.4)" width="57.8126" height="57.8126"/>
      <rect id="_319281472" class="fil2" transform="matrix(1 -0 -1.05016 1 275.336 1197.4)" width="57.8126" height="57.8126"/>
      <rect id="_319280920" class="fil3" transform="matrix(-1 -0 -1.05016 1 390.961 1197.4)" width="57.8126" height="57.8126"/>
      <rect id="_319280776" class="fil2" transform="matrix(1 -0 -1.05016 1 390.961 1197.4)" width="57.8126" height="57.8126"/>
      <rect id="_319280728" class="fil3" transform="matrix(-1 -0 -1.05016 1 506.586 1197.4)" width="57.8126" height="57.8126"/>
      <rect id="_319280392" class="fil2" transform="matrix(1 -0 -1.05016 1 506.586 1197.4)" width="57.8126" height="57.8126"/>
      <rect id="_319280896" class="fil3" transform="matrix(-1 -0 -1.05016 1 622.212 1197.4)" width="57.8126" height="57.8126"/>
      <rect id="_319280344" class="fil2" transform="matrix(1 -0 -1.05016 1 622.212 1197.4)" width="57.8126" height="57.8126"/>
      <rect id="_319279888" class="fil3" transform="matrix(-1 -0 -1.05016 1 737.837 1197.4)" width="57.8126" height="57.8126"/>
      <rect id="_319279696" class="fil2" transform="matrix(1 -0 -1.05016 1 737.837 1197.4)" width="57.8126" height="57.8126"/>
      <rect id="_319280056" class="fil3" transform="matrix(-1 -0 -1.05016 1 853.462 1197.4)" width="57.8126" height="57.8126"/>
      <rect id="_319279816" class="fil2" transform="matrix(1 -0 -1.05016 1 853.462 1197.4)" width="57.8126" height="57.8126"/>
      <rect id="_319279528" class="fil3" transform="matrix(-1 -0 -1.05016 1 969.088 1197.4)" width="57.8126" height="57.8126"/>
      <rect id="_319280104" class="fil2" transform="matrix(1 -0 -1.05016 1 969.088 1197.4)" width="57.8126" height="57.8126"/>
      <rect id="_319279936" class="fil3" transform="matrix(-1 -0 -1.05016 1 1084.71 1197.4)" width="57.8126" height="57.8126"/>
     </g>
     <g>
      <rect id="_319279240" class="fil2" transform="matrix(1 -0 -1.05016 1 1084.71 1197.4)" width="57.8126" height="57.8126"/>
      <rect id="_319278880" class="fil3" transform="matrix(-1 -0 -1.05016 1 1200.34 1197.4)" width="57.8126" height="57.8126"/>
      <rect id="_319279048" class="fil2" transform="matrix(1 -0 -1.05016 1 1200.34 1197.4)" width="57.8126" height="57.8126"/>
      <rect id="_319278784" class="fil3" transform="matrix(-1 -0 -1.05016 1 1315.96 1197.4)" width="57.8126" height="57.8126"/>
      <rect id="_319278976" class="fil2" transform="matrix(1 -0 -1.05016 1 1315.96 1197.4)" width="57.8126" height="57.8126"/>
      <rect id="_319278136" class="fil3" transform="matrix(-1 -0 -1.05016 1 1431.59 1197.4)" width="57.8126" height="57.8126"/>
      <rect id="_319278664" class="fil2" transform="matrix(1 -0 -1.05016 1 1431.59 1197.4)" width="57.8126" height="57.8126"/>
      <rect id="_319278520" class="fil3" transform="matrix(-1 -0 -1.05016 1 1547.21 1197.4)" width="57.8126" height="57.8126"/>
      <rect id="_319278184" class="fil2" transform="matrix(1 -0 -1.05016 1 1547.21 1197.4)" width="57.8126" height="57.8126"/>
      <rect id="_319278376" class="fil3" transform="matrix(-1 -0 -1.05016 1 1662.84 1197.4)" width="57.8126" height="57.8126"/>
      <rect id="_319278352" class="fil2" transform="matrix(1 -0 -1.05016 1 1662.84 1197.4)" width="57.8126" height="57.8126"/>
      <rect id="_319277944" class="fil3" transform="matrix(-1 -0 -1.05016 1 1778.46 1197.4)" width="57.8126" height="57.8126"/>
      <rect id="_319277752" class="fil2" transform="matrix(1 -0 -1.05016 1 1778.46 1197.4)" width="57.8126" height="57.8126"/>
      <rect id="_319277680" class="fil3" transform="matrix(-1 -0 -1.05016 1 1894.09 1197.4)" width="57.8126" height="57.8126"/>
      <rect id="_319277296" class="fil2" transform="matrix(1 -0 -1.05016 1 1894.09 1197.4)" width="57.8126" height="57.8126"/>
      <rect id="_319277560" class="fil3" transform="matrix(-1 -0 -1.05016 1 2009.72 1197.4)" width="57.8126" height="57.8126"/>
     </g>
    </g>
   </g>
  </g>
  <path class="fil4" d="M368.879 1062.47l1310.24 0c29.8229,0 57.2847,10.4563 77.4957,27.3 21.8303,18.1925 35.3835,43.6914 35.3835,72.1004l0 188.719c0,28.4079 -13.552,53.9067 -35.3847,72.0993 -20.211,16.8437 -47.6705,27.3 -77.4945,27.3l-24.6402 0 -346.341 0 -116.167 0 -307.817 0 -144.298 0 -346.34 0 -12.3201 0 -12.3201 0c-29.8229,0 -57.2847,-10.4563 -77.4957,-27.3 -21.8303,-18.1914 -35.3835,-43.6902 -35.3835,-72.0993l0 -188.719c0,-28.4091 13.5508,-53.9091 35.3835,-72.1004 20.211,-16.8437 47.6705,-27.3 77.4957,-27.3z"/>
  <path class="fil5" d="M731.84 1449.99l-330.303 0c2.68347,-39.8847 19.6335,-77.3611 48.1063,-105.835 31.1268,-31.1292 73.0158,-48.4867 117.045,-48.4867 44.0292,0 85.917,17.3587 117.045,48.4855 28.4729,28.474 45.4229,65.9516 48.1063,105.836z"/>
  <path class="fil5" d="M1646.46 1449.99l-330.303 0c2.68347,-39.8847 19.6335,-77.3611 48.1063,-105.835 31.1268,-31.1292 73.0158,-48.4867 117.045,-48.4867 44.0292,0 85.917,17.3587 117.045,48.4855 28.4729,28.474 45.4229,65.9516 48.1063,105.836z"/>
  <path class="fil1" d="M391.36 1073.84c-11.3906,13.3925 -9.76772,33.4855 3.62481,44.876 13.3925,11.3906 33.4855,9.76772 44.876,-3.62481l238.108 -279.79 469.283 0 317.01 272.216c13.3925,11.4591 33.541,9.89174 45,-3.50079 11.4591,-13.3925 9.89174,-33.541 -3.50079,-45l-324.246 -278.429c-5.78386,-5.74016 -13.748,-9.2882 -22.5402,-9.2882l-495.577 0 0 0.00354331c-9.05198,0.00354331 -18.0437,3.82559 -24.3697,11.2583l24.3697 20.739 -24.2504 -20.6256 -247.788 291.166z"/>
  <polygon class="fil1" points="982.312,818.019 982.312,1094.47 918.31,1094.47 918.31,818.019 "/>
  <path class="fil0" d="M950.44 445.271c0,-17.6728 -14.328,-32.0008 -32.0008,-32.0008 -17.6728,0 -32.0008,14.328 -32.0008,32.0008l0 88.1127c0,17.6728 14.328,32.0008 32.0008,32.0008 17.6728,0 32.0008,-14.328 32.0008,-32.0008l0 -88.1127z"/>
  <path class="fil0" d="M1082.01 498.878c8.83583,-15.2563 3.63189,-34.7894 -11.6244,-43.6252 -15.2563,-8.83583 -34.7894,-3.63189 -43.6252,11.6244l-44.0563 76.3075c-8.83583,15.2563 -3.63189,34.7894 11.6244,43.6252 15.2563,8.83583 34.7894,3.63189 43.6252,-11.6244l44.0563 -76.3075z"/>
  <polygon class="fil6" points="918.31,1062.47 918.31,835.305 677.969,835.305 484.647,1062.47 "/>
  <polygon class="fil6" points="982.312,835.305 982.312,1062.47 1411.8,1062.47 1147.25,835.305 "/>
  <path class="fil7" d="M566.689 1319.66c39.078,0 74.4615,15.8433 100.075,41.4567 25.6134,25.6134 41.4567,60.9969 41.4567,100.075 0,39.0792 -15.8433,74.4627 -41.4567,100.076 -25.6134,25.6134 -60.9969,41.4567 -100.075,41.4567 -39.0803,0 -74.4638,-15.8433 -100.075,-41.4567 -25.6134,-25.6134 -41.4567,-60.9969 -41.4567,-100.076 0,-39.078 15.8433,-74.4615 41.4567,-100.075 25.611,-25.6134 60.9945,-41.4567 100.075,-41.4567z"/>
  <path class="fil7" d="M1481.31 1319.66c39.078,0 74.4615,15.8433 100.075,41.4567 25.6134,25.6134 41.4567,60.9969 41.4567,100.075 0,39.0792 -15.8433,74.4627 -41.4567,100.076 -25.6134,25.6134 -60.9969,41.4567 -100.075,41.4567 -39.0792,0 -74.4627,-15.8433 -100.076,-41.4567 -25.6134,-25.6134 -41.4567,-60.9969 -41.4567,-100.076 0,-39.078 15.8433,-74.4615 41.4567,-100.075 25.6134,-25.6134 60.9969,-41.4567 100.076,-41.4567z"/>
  <path class="fil8" d="M1481.31 1372.52c24.4831,0 46.6512,9.92599 62.6989,25.9736 16.0465,16.0477 25.9736,38.2158 25.9736,62.6989 0,24.4843 -9.92717,46.6524 -25.9736,62.7 -16.0477,16.0465 -38.2158,25.9736 -62.6989,25.9736 -24.4843,0 -46.6524,-9.92717 -62.7,-25.9736 -16.0477,-16.0477 -25.9736,-38.2158 -25.9736,-62.7 0,-24.4831 9.92599,-46.6512 25.9736,-62.6989 16.0477,-16.0477 38.2158,-25.9736 62.7,-25.9736z"/>
  <path class="fil8" d="M566.69 1372.52c24.4831,0 46.6512,9.92599 62.6989,25.9736 16.0465,16.0477 25.9736,38.2158 25.9736,62.6989 0,24.4843 -9.92717,46.6524 -25.9736,62.7 -16.0477,16.0465 -38.2158,25.9736 -62.6989,25.9736 -24.4843,0 -46.6524,-9.92717 -62.7,-25.9736 -16.0477,-16.0477 -25.9736,-38.2158 -25.9736,-62.7 0,-24.4831 9.92599,-46.6512 25.9736,-62.6989 16.0477,-16.0477 38.2158,-25.9736 62.7,-25.9736z"/>
 </g>
 <rect class="fil9" width="2048" height="2048"/>
</svg>
