<?xml version="1.0" encoding="UTF-8"?>
<!DOCTYPE svg PUBLIC "-//W3C//DTD SVG 1.1//EN" "http://www.w3.org/Graphics/SVG/1.1/DTD/svg11.dtd">
<!-- Creator: CorelDRAW -->
<svg xmlns="http://www.w3.org/2000/svg" xml:space="preserve" width="2048px" height="2048px" style="shape-rendering:geometricPrecision; text-rendering:geometricPrecision; image-rendering:optimizeQuality; fill-rule:evenodd; clip-rule:evenodd"
viewBox="0 0 2048 2048"
 xmlns:xlink="http://www.w3.org/1999/xlink">
 <defs>
  <style type="text/css">
   <![CDATA[
    .fil4 {fill:none}
    .fil1 {fill:#00ACC1;fill-rule:nonzero}
    .fil0 {fill:#26C6DA;fill-rule:nonzero}
    .fil3 {fill:#37474F;fill-rule:nonzero}
    .fil2 {fill:#455A64;fill-rule:nonzero}
   ]]>
  </style>
 </defs>
 <g id="Layer_x0020_1">
  <metadata id="CorelCorpID_0Corel-Layer"/>
  <g id="_319291192">
   <path id="_319292272" class="fil0" d="M931.706 879.687l35.8536 -85.3808c4.97363,-11.8488 10.3701,-23.6965 18.9626,-34.0666 11.4638,-13.8378 26.3303,-22.9748 47.5205,-22.9748l326.328 0c18.6165,0 33.3331,7.18701 44.8394,18.6945 11.2158,11.2158 18.4642,26.302 22.839,41.9315l22.898 81.7961 -519.241 0z"/>
   <polygon id="_319291480" class="fil1" points="888.337,982.965 931.706,879.687 1450.95,879.687 1479.86,982.965 "/>
   <path id="_319291624" class="fil2" d="M602.527 1220.48l-265.851 -183.528 -80.6764 -55.6937 98.0056 0 1297.43 0 30.5965 0 0 30.5953 0 302.489 0 30.5965 -30.5965 0 -620.219 0c-36.9555,0 -56.1615,0.244488 -73.1434,0.46063 -159.615,2.03268 -171.434,2.18268 -355.542,-124.919z"/>
   <path id="_319291312" class="fil3" d="M476.82 981.257l1174.61 0 30.5965 0 0 30.5953 0 289.61c-326.164,9.99804 -877.968,-23.3008 -1205.21,-320.205z"/>
   <path id="_319291072" class="fil3" d="M1651.43 1132.5c-16.8969,0 -30.5965,13.6984 -30.5965,30.5965 0,16.8969 13.6996,30.5965 30.5965,30.5965l109.974 0c16.8969,0 30.5965,-13.6996 30.5965,-30.5965 0,-16.898 -13.6996,-30.5965 -30.5965,-30.5965l-109.974 0z"/>
  </g>
 </g>
 <rect class="fil4" width="2048" height="2048"/>
</svg>
