<?xml version="1.0" encoding="UTF-8"?>
<!DOCTYPE svg PUBLIC "-//W3C//DTD SVG 1.1//EN" "http://www.w3.org/Graphics/SVG/1.1/DTD/svg11.dtd">
<!-- Creator: CorelDRAW -->
<svg xmlns="http://www.w3.org/2000/svg" xml:space="preserve" width="2048px" height="2048px" style="shape-rendering:geometricPrecision; text-rendering:geometricPrecision; image-rendering:optimizeQuality; fill-rule:evenodd; clip-rule:evenodd"
viewBox="0 0 2048 2048"
 xmlns:xlink="http://www.w3.org/1999/xlink">
 <defs>
  <style type="text/css">
   <![CDATA[
    .fil13 {fill:none}
    .fil0 {fill:#212121}
    .fil2 {fill:#37474F}
    .fil1 {fill:#546E7A}
    .fil7 {fill:#E1F5FE}
    .fil8 {fill:#E8F5E9}
    .fil11 {fill:#FFFFFE}
    .fil9 {fill:#263238;fill-rule:nonzero}
    .fil4 {fill:#3D5059;fill-rule:nonzero}
    .fil3 {fill:#546E7A;fill-rule:nonzero}
    .fil6 {fill:#576971;fill-rule:nonzero}
    .fil5 {fill:#78909C;fill-rule:nonzero}
    .fil12 {fill:#E53935;fill-rule:nonzero}
    .fil10 {fill:#ECEFF1;fill-rule:nonzero}
   ]]>
  </style>
 </defs>
 <g id="Layer_x0020_1">
  <metadata id="CorelCorpID_0Corel-Layer"/>
  <polygon class="fil0" points="904.426,800.934 763.46,800.934 833.944,600.098 "/>
  <g id="_252327000">
   <polygon id="_252326808" class="fil0" points="682.026,443.373 641.735,483.664 547.072,348.711 "/>
   <circle id="_252327048" class="fil0" transform="matrix(0.631493 -0.631493 0.631493 0.631493 553.824 355.464)" r="17.7083"/>
  </g>
  <path class="fil1" d="M850.795 652.434c-116.257,116.257 -304.745,116.257 -421.001,0l421.001 -421.001c116.257,116.257 116.257,304.744 0,421.001z"/>
  <rect class="fil2" transform="matrix(0.51851 -0.51851 0.23955 0.23955 412.366 669.863)" width="879.168" height="56.25" rx="9.52796" ry="9.52796"/>
  <path class="fil3" d="M1192.84 1018.73l202.838 0 162.026 244.543c9.73347,14.7047 29.5465,18.7335 44.2512,9.00001 14.7047,-9.73347 18.7335,-29.5465 9.00001,-44.2512l-170.359 -257.119c-5.50748,-9.66024 -15.9012,-16.174 -27.8173,-16.174l-219.939 0 0 64.0016z"/>
  <rect class="fil1" x="1192.84" y="990.956" width="69.4075" height="281.25"/>
  <path class="fil3" d="M1192.84 1226.55l469.849 0c25.8555,0 49.3382,10.5579 66.3402,27.5599 17.0043,17.0043 27.5599,40.4906 27.5599,66.3414l0 170.33c0,25.8496 -10.5579,49.3335 -27.5622,66.3378 -17.0043,17.0043 -40.4882,27.5622 -66.3378,27.5622l-8.03741 0c-157.935,0 -360.185,0 -563.653,0 0.810237,-0.765355 1.61339,-1.54252 2.40355,-2.33386 21.9815,-21.9815 99.4383,-51.6189 99.4383,-82.7233l0 -273.075z"/>
  <path class="fil4" d="M1592.51 1584.68l-331.173 0c2.51811,-40.2709 19.5437,-78.1418 48.2705,-106.871 31.1988,-31.1988 73.1847,-48.5965 117.315,-48.5965 44.1307,0 86.1166,17.3988 117.317,48.5977 28.7268,28.728 45.7524,66.5989 48.2705,106.87z"/>
  <path class="fil5" d="M341.057 763.727l770.14 0c23.4225,0 44.6953,9.56103 60.0957,24.9614 15.4004,15.4004 24.9614,36.6744 24.9614,60.0957l0 650.84c0,23.4213 -9.56103,44.6929 -24.9614,60.0957 -15.4028,15.4004 -36.6744,24.9614 -60.0957,24.9614l-324.564 0 -95.3765 0 -347.201 0 -2.99882 0 -3.38386 0 0 -0.0673229c-22.0819,-0.871654 -42.0567,-10.239 -56.7119,-24.8941 -15.4004,-15.4004 -24.9614,-36.6733 -24.9614,-60.0957l0 -650.84c0,-23.4236 9.55985,-44.6965 24.9603,-60.0969 15.4004,-15.4004 36.6733,-24.9603 60.0969,-24.9603z"/>
  <path class="fil6" d="M683.243 1584.68l-331.173 0c2.51811,-40.2709 19.5437,-78.1418 48.2705,-106.871 31.1988,-31.1988 73.1847,-48.5965 117.315,-48.5965 44.1307,0 86.1166,17.3988 117.317,48.5977 28.7268,28.728 45.7524,66.5989 48.2705,106.87z"/>
  <polygon class="fil7" points="1533.37,1226.55 1395.67,1018.73 1262.24,1018.73 1262.24,1226.55 "/>
  <path class="fil8" d="M1692.58 1333.5l-142.025 0c-17.6728,0 -32.0008,14.328 -32.0008,32.0008 0,17.6728 14.328,32.0008 32.0008,32.0008l142.025 0c17.6728,0 32.0008,-14.328 32.0008,-32.0008 0,-17.6728 -14.328,-32.0008 -32.0008,-32.0008z"/>
  <g id="_252325560">
   <path id="_252325728" class="fil9" d="M1426.92 1453.21c39.1843,0 74.6646,15.887 100.347,41.5689 25.6819,25.6819 41.5677,61.1611 41.5677,100.345 0,39.1843 -15.8858,74.6634 -41.5677,100.345 -25.6831,25.6819 -61.1623,41.5677 -100.347,41.5677 -39.1843,0 -74.6634,-15.8858 -100.345,-41.5677 -25.6819,-25.6819 -41.5677,-61.1611 -41.5677,-100.345 0,-39.1843 15.8858,-74.6634 41.5677,-100.347 25.6819,-25.6819 61.1611,-41.5677 100.345,-41.5677z"/>
   <path id="_252325296" class="fil10" d="M1426.92 1503.53c25.2921,0 48.1926,10.2543 64.7693,26.8311 16.5768,16.5756 26.8299,39.476 26.8299,64.7682 0,25.291 -10.2532,48.1914 -26.8299,64.7682 -16.578,16.5768 -39.4772,26.8299 -64.7693,26.8299 -25.2921,0 -48.1914,-10.2532 -64.7682,-26.8299 -16.5768,-16.5768 -26.8299,-39.4772 -26.8299,-64.7682 0,-25.2921 10.2532,-48.1926 26.8299,-64.7693 16.5768,-16.5768 39.476,-26.8299 64.7682,-26.8299z"/>
  </g>
  <g id="_252324672">
   <path id="_252325152" class="fil9" d="M517.656 1453.21c39.1843,0 74.6646,15.887 100.347,41.5689 25.6819,25.6819 41.5677,61.1611 41.5677,100.345 0,39.1843 -15.8858,74.6634 -41.5677,100.345 -25.6831,25.6819 -61.1623,41.5677 -100.347,41.5677 -39.1843,0 -74.6634,-15.8858 -100.345,-41.5677 -25.6819,-25.6819 -41.5677,-61.1611 -41.5677,-100.345 0,-39.1843 15.8858,-74.6634 41.5677,-100.347 25.6819,-25.6819 61.1611,-41.5677 100.345,-41.5677z"/>
   <path id="_252325200" class="fil10" d="M517.656 1503.53c25.2921,0 48.1926,10.2543 64.7693,26.8311 16.5768,16.5756 26.8299,39.476 26.8299,64.7682 0,25.291 -10.2532,48.1914 -26.8299,64.7682 -16.578,16.5768 -39.4772,26.8299 -64.7693,26.8299 -25.2921,0 -48.1914,-10.2532 -64.7682,-26.8299 -16.5768,-16.5768 -26.8299,-39.4772 -26.8299,-64.7682 0,-25.2921 10.2532,-48.1926 26.8299,-64.7693 16.5768,-16.5768 39.476,-26.8299 64.7682,-26.8299z"/>
  </g>
  <g id="_252324792">
   <rect id="_252324504" class="fil11" x="431.334" y="958.72" width="589.584" height="187.5" rx="38.5418" ry="38.5418"/>
   <path id="_252324936" class="fil12" d="M501.058 1001.56l29.3965 0 38.3327 56.3268 0 -56.3268 29.6575 0 0 101.819 -29.6575 0 -38.1437 -55.9004 0 55.9004 -29.5855 0 0 -101.819zm118.224 0l84.3001 0 0 21.7382 -52.7705 0 0 16.1917 48.9532 0 0 20.7673 -48.9532 0 0 20.0551 54.3119 0 0 23.0669 -85.8414 0 0 -101.819zm92.289 0l29.8701 0 10.7622 56.8713 15.6945 -56.8713 29.7981 0 15.7654 56.8713 10.7634 -56.8713 29.7272 0 -22.4256 101.819 -30.8433 0 -17.85 -64.102 -17.7803 64.102 -30.8421 0 -22.6394 -101.819zm147.241 68.1319l29.941 -1.87205c0.638977,4.85906 1.96772,8.55827 3.95906,11.1177 3.22441,4.12559 7.86969,6.16418 13.891,6.16418 4.48111,0 7.94292,-1.0441 10.3843,-3.15355 2.41772,-2.10945 3.62717,-4.55079 3.62717,-7.3252 0,-2.6315 -1.1374,-5.00197 -3.46063,-7.0878 -2.32441,-2.08583 -7.6819,-4.05355 -16.1209,-5.90315 -13.7976,-3.10512 -23.6351,-7.20709 -29.5146,-12.3508 -5.92678,-5.14489 -8.89016,-11.687 -8.89016,-19.6524 0,-5.23937 1.51772,-10.1941 4.55197,-14.8406 3.03425,-4.64646 7.58623,-8.29725 13.6784,-10.976 6.09331,-2.65512 14.4378,-3.98268 25.0347,-3.98268 13.0146,0 22.9465,2.41772 29.7756,7.25316 6.82678,4.83662 10.8803,12.541 12.1843,23.0906l-29.6563 1.7315c-0.78189,-4.57559 -2.44252,-7.91812 -4.97953,-10.0051 -2.51221,-2.06103 -5.99764,-3.10512 -10.4303,-3.10512 -3.67441,0 -6.42402,0.758268 -8.27363,2.32323 -1.84843,1.54134 -2.77323,3.43701 -2.77323,5.66575 0,1.61221 0.758268,3.05906 2.27599,4.36181 1.4941,1.35236 5.00197,2.58425 10.5721,3.74646 13.7504,2.96339 23.5878,5.97284 29.5394,9.00827 5.9504,3.03425 10.2886,6.77953 12.991,11.2843 2.70236,4.47992 4.07717,9.50552 4.07717,15.0768 0,6.51969 -1.82599,12.541 -5.42835,18.0402 -3.60355,5.52402 -8.65276,9.69686 -15.1488,12.541 -6.47126,2.84528 -14.6504,4.26733 -24.5126,4.26733 -17.3055,0 -29.3008,-3.3189 -35.9622,-10.0039 -6.68504,-6.66142 -10.4551,-15.1252 -11.3315,-25.4138z"/>
  </g>
 </g>
 <rect class="fil13" width="2048" height="2048"/>
</svg>
