<?xml version="1.0" encoding="UTF-8"?>
<!DOCTYPE svg PUBLIC "-//W3C//DTD SVG 1.1//EN" "http://www.w3.org/Graphics/SVG/1.1/DTD/svg11.dtd">
<!-- Creator: CorelDRAW -->
<svg xmlns="http://www.w3.org/2000/svg" xml:space="preserve" width="2048px" height="2048px" style="shape-rendering:geometricPrecision; text-rendering:geometricPrecision; image-rendering:optimizeQuality; fill-rule:evenodd; clip-rule:evenodd"
viewBox="0 0 2048 2048"
 xmlns:xlink="http://www.w3.org/1999/xlink">
 <defs>
  <style type="text/css">
   <![CDATA[
    .fil10 {fill:none}
    .fil6 {fill:#1E88E5}
    .fil7 {fill:#37474F}
    .fil3 {fill:#4EB86F}
    .fil0 {fill:#546E7A}
    .fil2 {fill:#5D4037}
    .fil4 {fill:#78909C}
    .fil1 {fill:#A91A17}
    .fil8 {fill:#E53935}
    .fil5 {fill:#FF6F00}
    .fil9 {fill:white}
   ]]>
  </style>
 </defs>
 <g id="Layer_x0020_1">
  <metadata id="CorelCorpID_0Corel-Layer"/>
  <polygon class="fil0" points="1417.21,1196.22 1394.47,445.505 1380.34,445.505 1366.2,445.505 1343.46,1196.22 1380.34,1203.12 "/>
  <path class="fil0" d="M1492.01 563.393l-111.677 0 -111.678 0 0 16.2685c0,38.8264 31.7634,70.5898 70.5898,70.5898l41.0882 0 41.087 0c38.8264,0 70.5898,-31.7634 70.5898,-70.5898l0 -16.2685z"/>
  <rect class="fil1" x="332.901" y="1024.11" width="164.493" height="164.493" rx="20.9351" ry="20.9351"/>
  <rect class="fil2" x="497.336" y="1024.11" width="164.493" height="164.493" rx="20.9351" ry="20.9351"/>
  <rect class="fil3" x="661.827" y="1024.11" width="164.493" height="164.493" rx="20.9351" ry="20.9351"/>
  <rect class="fil3" x="333.136" y="859.599" width="164.493" height="164.493" rx="20.9351" ry="20.9351"/>
  <rect class="fil4" x="497.336" y="859.599" width="164.493" height="164.493" rx="20.9351" ry="20.9351"/>
  <rect class="fil1" x="826.283" y="1024.11" width="164.493" height="164.493" rx="20.9351" ry="20.9351"/>
  <rect class="fil5" x="661.827" y="859.599" width="164.493" height="164.493" rx="20.9351" ry="20.9351"/>
  <rect class="fil5" x="332.901" y="695.106" width="164.493" height="164.493" rx="20.9351" ry="20.9351"/>
  <rect class="fil6" x="497.336" y="695.106" width="164.493" height="164.493" rx="20.9351" ry="20.9351"/>
  <path class="fil4" d="M1466.59 1188.62l-1168.5 0 -42.091 0 11.7201 40.5355 79.3335 274.37c8.47914,29.3256 24.15,56.9327 47.8205,76.656 21.3851,17.8205 48.5091,28.9181 81.7194,28.9181l1094.81 0c33.2055,0 60.3331,-11.1 81.717,-28.9205 23.6717,-19.7268 39.3461,-47.3363 47.8229,-76.6536 43.5591,-150.647 71.0056,-243.78 113.425,-393.7l-285 0 -62.7851 78.7938z"/>
  <path class="fil7" d="M483.812 1336.06c0,-25.624 -20.7721,-46.3949 -46.3961,-46.3949 -25.624,0 -46.3961,20.7709 -46.3961,46.3949 0,25.6252 20.7721,46.3961 46.3961,46.3961 25.624,0 46.3961,-20.7709 46.3961,-46.3961z"/>
  <path class="fil7" d="M601.128 1336.06c0,-25.624 -20.7721,-46.3949 -46.3961,-46.3949 -25.624,0 -46.3961,20.7709 -46.3961,46.3949 0,25.6252 20.7721,46.3961 46.3961,46.3961 25.624,0 46.3961,-20.7709 46.3961,-46.3961z"/>
  <path class="fil7" d="M718.445 1336.06c0,-25.624 -20.7721,-46.3949 -46.3961,-46.3949 -25.624,0 -46.3961,20.7709 -46.3961,46.3949 0,25.6252 20.7721,46.3961 46.3961,46.3961 25.624,0 46.3961,-20.7709 46.3961,-46.3961z"/>
  <path class="fil7" d="M835.762 1336.06c0,-25.624 -20.7721,-46.3949 -46.3961,-46.3949 -25.624,0 -46.3961,20.7709 -46.3961,46.3949 0,25.6252 20.7721,46.3961 46.3961,46.3961 25.624,0 46.3961,-20.7709 46.3961,-46.3961z"/>
  <path class="fil7" d="M953.078 1336.06c0,-25.624 -20.7721,-46.3949 -46.3961,-46.3949 -25.624,0 -46.3961,20.7709 -46.3961,46.3949 0,25.6252 20.7721,46.3961 46.3961,46.3961 25.624,0 46.3961,-20.7709 46.3961,-46.3961z"/>
  <path class="fil7" d="M1070.4 1336.06c0,-25.624 -20.7721,-46.3949 -46.3961,-46.3949 -25.624,0 -46.3961,20.7709 -46.3961,46.3949 0,25.6252 20.7721,46.3961 46.3961,46.3961 25.624,0 46.3961,-20.7709 46.3961,-46.3961z"/>
  <path class="fil7" d="M1187.71 1336.06c0,-25.624 -20.7721,-46.3949 -46.3961,-46.3949 -25.624,0 -46.3961,20.7709 -46.3961,46.3949 0,25.6252 20.7721,46.3961 46.3961,46.3961 25.624,0 46.3961,-20.7709 46.3961,-46.3961z"/>
  <path class="fil7" d="M1305.03 1336.06c0,-25.624 -20.7721,-46.3949 -46.3961,-46.3949 -25.624,0 -46.3961,20.7709 -46.3961,46.3949 0,25.6252 20.7721,46.3961 46.3961,46.3961 25.624,0 46.3961,-20.7709 46.3961,-46.3961z"/>
  <path class="fil7" d="M1422.35 1336.06c0,-25.624 -20.7721,-46.3949 -46.3961,-46.3949 -25.624,0 -46.3961,20.7709 -46.3961,46.3949 0,25.6252 20.7721,46.3961 46.3961,46.3961 25.624,0 46.3961,-20.7709 46.3961,-46.3961z"/>
  <path class="fil7" d="M1539.66 1336.06c0,-25.624 -20.7721,-46.3949 -46.3961,-46.3949 -25.624,0 -46.3961,20.7709 -46.3961,46.3949 0,25.6252 20.7721,46.3961 46.3961,46.3961 25.624,0 46.3961,-20.7709 46.3961,-46.3961z"/>
  <path class="fil7" d="M1656.98 1336.06c0,-25.624 -20.7721,-46.3949 -46.3961,-46.3949 -25.624,0 -46.3961,20.7709 -46.3961,46.3949 0,25.6252 20.7721,46.3961 46.3961,46.3961 25.624,0 46.3961,-20.7709 46.3961,-46.3961z"/>
  <path class="fil8" d="M345.909 1499.57l1.14449 3.9567c8.47914,29.3256 24.15,56.9327 47.8205,76.656 21.3851,17.8205 48.5091,28.9181 81.7194,28.9181l1094.81 0c33.2055,0 60.3331,-11.1 81.717,-28.9205 23.6717,-19.7268 39.3461,-47.3363 47.8229,-76.6536l1.14449 -3.9567 -1356.18 0z"/>
  <path class="fil9" d="M473.017 1336.06c0,-19.6618 -15.939,-35.5996 -35.6008,-35.5996 -19.6618,0 -35.6008,15.9378 -35.6008,35.5996 0,19.663 15.939,35.6008 35.6008,35.6008 19.6618,0 35.6008,-15.9378 35.6008,-35.6008z"/>
  <path class="fil9" d="M554.732 1371.66c19.6618,0 35.6008,-15.9378 35.6008,-35.6008 0,-19.6618 -15.939,-35.5996 -35.6008,-35.5996 -19.6618,0 -35.6008,15.9378 -35.6008,35.5996 0,19.663 15.939,35.6008 35.6008,35.6008z"/>
  <path class="fil9" d="M707.65 1336.06c0,-19.6618 -15.939,-35.5996 -35.5996,-35.5996 -19.663,0 -35.602,15.9378 -35.602,35.5996 0,19.663 15.939,35.6008 35.602,35.6008 19.6606,0 35.5996,-15.9378 35.5996,-35.6008z"/>
  <path class="fil9" d="M789.367 1371.66c19.6606,0 35.5996,-15.9378 35.5996,-35.6008 0,-19.6618 -15.939,-35.5996 -35.5996,-35.5996 -19.663,0 -35.602,15.9378 -35.602,35.5996 0,19.663 15.939,35.6008 35.602,35.6008z"/>
  <path class="fil9" d="M906.683 1371.66c19.6618,0 35.5996,-15.9378 35.5996,-35.6008 0,-19.6618 -15.9378,-35.5996 -35.5996,-35.5996 -19.663,0 -35.602,15.9378 -35.602,35.5996 0,19.663 15.939,35.6008 35.602,35.6008z"/>
  <path class="fil9" d="M1059.6 1336.06c0,-19.6618 -15.9378,-35.5996 -35.6008,-35.5996 -19.663,0 -35.6008,15.9378 -35.6008,35.5996 0,19.663 15.9378,35.6008 35.6008,35.6008 19.663,0 35.6008,-15.9378 35.6008,-35.6008z"/>
  <path class="fil9" d="M1141.32 1371.66c19.663,0 35.602,-15.9378 35.602,-35.6008 0,-19.6618 -15.939,-35.5996 -35.602,-35.5996 -19.6618,0 -35.5996,15.9378 -35.5996,35.5996 0,19.663 15.9378,35.6008 35.5996,35.6008z"/>
  <path class="fil9" d="M1294.24 1336.06c0,-19.6618 -15.939,-35.5996 -35.602,-35.5996 -19.6606,0 -35.5996,15.9378 -35.5996,35.5996 0,19.663 15.939,35.6008 35.5996,35.6008 19.663,0 35.602,-15.9378 35.602,-35.6008z"/>
  <path class="fil9" d="M1411.55 1336.06c0,-19.6618 -15.939,-35.5996 -35.602,-35.5996 -19.6606,0 -35.5996,15.9378 -35.5996,35.5996 0,19.663 15.939,35.6008 35.5996,35.6008 19.663,0 35.602,-15.9378 35.602,-35.6008z"/>
  <path class="fil9" d="M1528.87 1336.06c0,-19.6618 -15.939,-35.5996 -35.6008,-35.5996 -19.6618,0 -35.6008,15.9378 -35.6008,35.5996 0,19.663 15.939,35.6008 35.6008,35.6008 19.6618,0 35.6008,-15.9378 35.6008,-35.6008z"/>
  <path class="fil9" d="M1646.19 1336.06c0,-19.6618 -15.939,-35.5996 -35.6008,-35.5996 -19.6618,0 -35.6008,15.9378 -35.6008,35.5996 0,19.663 15.939,35.6008 35.6008,35.6008 19.6618,0 35.6008,-15.9378 35.6008,-35.6008z"/>
 </g>
 <rect class="fil10" width="2048" height="2048"/>
</svg>
