<?xml version="1.0" encoding="UTF-8"?>
<!DOCTYPE svg PUBLIC "-//W3C//DTD SVG 1.1//EN" "http://www.w3.org/Graphics/SVG/1.1/DTD/svg11.dtd">
<!-- Creator: CorelDRAW -->
<svg xmlns="http://www.w3.org/2000/svg" xml:space="preserve" width="2048px" height="2048px" style="shape-rendering:geometricPrecision; text-rendering:geometricPrecision; image-rendering:optimizeQuality; fill-rule:evenodd; clip-rule:evenodd"
viewBox="0 0 2048 2048"
 xmlns:xlink="http://www.w3.org/1999/xlink">
 <defs>
  <style type="text/css">
   <![CDATA[
    .fil16 {fill:none}
    .fil9 {fill:#212121}
    .fil13 {fill:#CD2514}
    .fil15 {fill:#D15F39}
    .fil7 {fill:#E42916}
    .fil14 {fill:#E6DBCA}
    .fil10 {fill:#E8693F}
    .fil8 {fill:#FFF3E0}
    .fil2 {fill:#00ACC1;fill-rule:nonzero}
    .fil4 {fill:#263238;fill-rule:nonzero}
    .fil0 {fill:#455A64;fill-rule:nonzero}
    .fil1 {fill:#546E7A;fill-rule:nonzero}
    .fil12 {fill:#BC1225;fill-rule:nonzero}
    .fil6 {fill:#D11429;fill-rule:nonzero}
    .fil11 {fill:#D15F39;fill-rule:nonzero}
    .fil5 {fill:#E8693F;fill-rule:nonzero}
    .fil3 {fill:#FBC02D;fill-rule:nonzero}
   ]]>
  </style>
 </defs>
 <g id="Layer_x0020_1">
  <metadata id="CorelCorpID_0Corel-Layer"/>
  <path class="fil0" d="M1116.92 575.948l-35.8536 -85.3808c-4.97363,-11.8488 -10.3701,-23.6965 -18.9626,-34.0666 -11.4638,-13.8378 -26.3303,-22.9748 -47.5205,-22.9748l-326.328 0c-18.6165,0 -33.3331,7.18701 -44.8394,18.6945 -11.2158,11.2158 -18.4642,26.302 -22.839,41.9315l-22.898 81.7961 519.241 0z"/>
  <polygon class="fil1" points="1160.29,679.227 1116.92,575.948 597.68,575.948 568.766,679.227 "/>
  <path class="fil2" d="M1446.1 916.74l265.851 -183.528 80.6764 -55.6937 -98.0056 0 -1297.43 0 -30.5965 0 0 30.5953 0 302.489 0 30.5965 30.5965 0 620.219 0c36.9555,0 56.1615,0.244488 73.1434,0.46063 159.615,2.03268 171.434,2.18268 355.542,-124.919z"/>
  <path class="fil3" d="M1571.81 677.519l-1174.61 0 -30.5965 0 0 30.5953 0 289.61c326.164,9.99804 877.968,-23.3008 1205.21,-320.205z"/>
  <path class="fil3" d="M397.197 828.762c16.8969,0 30.5965,13.6984 30.5965,30.5965 0,16.8969 -13.6996,30.5965 -30.5965,30.5965l-109.974 0c-16.8969,0 -30.5965,-13.6996 -30.5965,-30.5965 0,-16.898 13.6996,-30.5965 30.5965,-30.5965l109.974 0z"/>
  <path class="fil4" d="M1497.09 1093.47c29.2099,-277.506 -29.2193,-507.404 -79.6394,-656.293 -10.8366,-32.0008 -21.3555,-55.643 -30.8233,-68.8465 -17.4366,39.6685 -29.1827,136.381 -29.1827,309.255l-61.1918 0c0,-183.601 14.165,-289.12 35.1343,-335.381 23.7095,-52.3099 54.8469,-58.0205 89.4721,-26.7437 19.0299,17.1886 37.7646,52.8827 54.4359,102.116 52.4445,154.867 68.3221,389.609 38.1768,675.997l-16.3819 -0.103937zm-116 -731.784c-0.370866,-0.367323 -0.740552,-0.71693 -1.10551,-1.04764 -2.00906,-1.81417 -0.826772,-0.731103 1.10551,1.04764z"/>
  <g id="_415919928">
   <g>
    <g>
     <polygon id="_415921944" class="fil5" points="1313.5,1389.04 1349.2,1322.2 1362.62,1319.01 1367.1,1328.58 "/>
     <polygon id="_415922208" class="fil5" points="1313.5,1410.21 1349.2,1343.37 1362.62,1340.18 1367.1,1349.75 "/>
     <polygon id="_415922280" class="fil5" points="1313.5,1431.38 1349.2,1364.54 1362.62,1361.35 1367.1,1370.91 "/>
     <polygon id="_415922448" class="fil5" points="1313.5,1452.55 1349.2,1385.71 1362.62,1382.52 1367.1,1392.08 "/>
     <polygon id="_415922088" class="fil5" points="1313.5,1473.72 1349.2,1406.87 1362.62,1403.69 1367.1,1413.25 "/>
    </g>
    <g>
     <polygon id="_415922520" class="fil5" points="1696.4,1377.05 1660.7,1310.21 1647.28,1307.02 1642.81,1316.59 "/>
     <polygon id="_415921824" class="fil5" points="1700.76,1403.54 1660.7,1331.38 1647.28,1328.19 1642.81,1337.75 "/>
     <polygon id="_415922112" class="fil5" points="1701.64,1428.37 1665.94,1361.53 1652.52,1358.34 1648.05,1367.9 "/>
     <polygon id="_415922256" class="fil5" points="1701.32,1446.57 1665.62,1379.72 1652.2,1376.53 1647.73,1386.1 "/>
     <polygon id="_415921008" class="fil5" points="1696.4,1461.72 1660.7,1394.88 1647.28,1391.69 1642.81,1401.26 "/>
     <polygon id="_415921728" class="fil5" points="1696.4,1482.89 1660.7,1416.05 1647.28,1412.86 1642.81,1422.43 "/>
    </g>
    <path id="_415921320" class="fil6" d="M1527.81 1589.84l-14.7851 9.28583 -15.9354 -0.270473c-1.74095,-7.37835 -8.25709,-11.7059 -14.5536,-9.66733 -18.1453,5.87953 -33.8374,19.0181 -44.9055,36.7772 -10.741,17.2323 -17.1177,38.7544 -17.1177,62.1142 0,9.85867 1.1315,19.4232 3.24213,28.5036 2.10591,9.06733 5.21221,17.6776 9.163,25.6382 0.973229,2.24764 2.47677,4.21418 4.45512,5.61142 5.61142,3.9626 12.9036,1.84488 16.2862,-4.73032 -3.06142,-2.20748 19.089,-23.5028 22.154,-25.5414 8.64686,-5.74843 18.5906,-8.93741 29.1662,-8.75906 10.5697,0.177165 20.5299,3.71693 29.2134,9.78308 8.91261,6.22678 16.4858,15.1288 22.0122,25.8201 0.973229,2.20394 2.46142,4.1315 4.40906,5.5063 5.61142,3.96378 12.9036,1.84725 16.2862,-4.72796l-0.0106299 -0.00944883c4.08898,-7.95001 7.32756,-16.761 9.54568,-26.2323 2.14016,-9.1382 3.28701,-18.6744 3.28701,-28.4079 0,-23.4166 -6.3626,-45.137 -17.0776,-62.6445 -11.035,-18.0354 -26.7047,-31.6217 -44.8347,-38.0492z"/>
    <path id="_415921392" class="fil7" d="M1664.03 1359.6c0,20.6232 -2.13425,40.8071 -6.22441,60.4193 -19.0264,10.0772 -42.4796,18.0662 -68.5666,23.5831 -26.7803,5.66339 -56.354,8.70001 -86.7969,8.70001 -29.3303,0 -57.9284,-2.83347 -84.0426,-8.14489 -24.1016,-4.90158 -46.0489,-11.8937 -64.4516,-20.6929 -5.05158,-21.7571 -7.70788,-44.1839 -7.7315,-67.0902 18.5421,7.17284 39.6036,12.9697 62.2772,17.2205 29.2819,5.49095 61.1965,8.42127 93.7772,8.42127 33.8055,0 66.8174,-3.14292 96.8765,-9.00355 23.8288,-4.64646 45.7961,-11.0138 64.8319,-18.8906 0.034252,1.82362 0.0507874,3.64961 0.0507874,5.47796zm-37.9051 145.458c-14.7862,9.05434 -32.6693,16.2898 -52.4493,21.3921 -21.6732,5.59252 -45.5941,8.59016 -70.2012,8.59016 -23.7366,0 -46.8721,-2.79567 -67.9867,-8.03386 -17.5524,-4.35473 -33.6969,-10.3937 -47.6044,-17.9102l-1.35473 -2.37992c-11.811,-20.9752 -21.2374,-43.0087 -27.9957,-65.8666 17.0788,7.13623 36.4347,12.9059 57.2445,17.1378 26.9988,5.49095 56.4898,8.42009 86.6646,8.42009 31.2177,0 61.7268,-3.15118 89.5264,-9.03072 22.7091,-4.80237 43.5992,-11.4437 61.5863,-19.6937 -6.41103,23.4508 -15.6579,45.991 -27.4299,67.3749zm-115.038 124.102l0.0141732 0.0295276c-4.08426,2.79095 -9.00237,2.40236 -12.6662,-0.520867 -38.7024,-27.4795 -71.5406,-60.4654 -96.7064,-97.4635 9.39213,3.67323 19.3748,6.82441 29.7992,9.40985 22.4209,5.563 46.9063,8.53111 71.9469,8.53111 25.9418,0 51.2752,-3.19016 74.341,-9.14174 12.0697,-3.11339 23.5264,-6.99331 34.1386,-11.5795 -25.7114,38.68 -60.0367,72.8209 -100.867,100.735zm-100.185 -269.394c-23.7166,-4.44685 -45.5339,-10.6217 -64.3276,-18.3106 1.22008,-24.7453 5.5252,-48.828 12.6106,-72.0048 18.4465,10.1634 40.6229,18.1406 64.9536,23.576 24.6579,5.50867 51.5918,8.44843 79.1457,8.44843 28.5118,0 56.3729,-3.16181 81.7571,-9.05906 24.3567,-5.65985 46.4327,-13.8673 64.6264,-24.2516 7.33583,22.898 11.9858,46.6477 13.6606,71.0103 -19.1693,8.40709 -41.8382,15.1618 -66.6957,20.0079 -29.1366,5.68229 -61.291,8.72835 -94.3619,8.72835 -31.9571,0 -63.0473,-2.83347 -91.369,-8.14489zm16.1244 -80.5146c-23.5902,-5.2689 -44.8807,-12.9484 -62.2867,-22.6819 -0.364961,-0.204331 -0.739371,-0.370866 -1.11969,-0.501969 1.51417,-4.2378 3.12047,-8.44253 4.82126,-12.613 6.77245,-16.611 15.0095,-32.6469 24.5858,-48.0107 19.5201,46.7752 71.3623,56.3374 99.5328,47.8146 -35.7508,-0.64252 -78.156,-17.9823 -91.2638,-60.4323 9.32953,-13.5591 19.7268,-26.5429 31.1008,-38.8784 30.0792,-32.6162 47.615,-50.4579 66.8209,-53.0363 0.174803,24.9851 1.26614,102.442 5.90434,102.442 4.91221,0 5.7815,-76.7552 5.91142,-102.1 17.6658,3.42284 35.1142,20.0268 63.1642,50.2134 28.5295,30.7004 51.2115,65.2914 66.6508,102.627 1.45748,3.52559 2.85,7.07363 4.17638,10.6453 -17.3776,10.2532 -38.9398,18.3721 -62.9788,23.9575 -24.3024,5.64685 -51.1382,8.67284 -78.7619,8.67284 -26.6162,0 -52.5662,-2.82402 -76.2579,-8.11772zm114.523 -43.9524c0,7.8378 -5.64567,14.0469 -12.6095,13.8662 -6.96378,-0.180709 -12.6083,-6.6815 -12.6083,-14.5181 0,-7.8378 5.64449,-14.0469 12.6083,-13.8662 6.96378,0.180709 12.6095,6.68032 12.6095,14.5181z"/>
    <path id="_415921680" class="fil8" d="M1393.03 1195.44c19.5201,46.7752 71.3623,56.3374 99.5328,47.8146 -35.7508,-0.64252 -78.156,-17.9823 -91.2638,-60.4323l-8.2689 12.6177z"/>
    <path id="_415921056" class="fil8" d="M1503.28 1301.47c28.5118,0 56.3729,-3.16181 81.7571,-9.05906 24.3567,-5.65985 46.4327,-13.8673 64.6264,-24.2516l-4.64292 -13.4256c-17.3776,10.2532 -38.9398,18.3721 -62.9788,23.9575 -24.3024,5.64685 -51.1382,8.67284 -78.7619,8.67284 -26.6162,0 -52.5662,-2.82402 -76.2579,-8.11772 -23.5902,-5.2689 -44.8807,-12.9484 -62.2867,-22.6819 -0.364961,-0.204331 -0.739371,-0.370866 -1.11969,-0.501969l-4.43504 13.3831c18.4465,10.1634 40.6229,18.1406 64.9536,23.576 24.6579,5.50867 51.5918,8.44843 79.1457,8.44843z"/>
    <path id="_415921656" class="fil8" d="M1502.27 1382.01c33.8055,0 66.8174,-3.14292 96.8765,-9.00355 23.8288,-4.64646 45.7961,-11.0138 64.8319,-18.8906l-0.650788 -14.948c-19.1693,8.40709 -41.8382,15.1618 -66.6957,20.0079 -29.1366,5.68229 -61.291,8.72835 -94.3619,8.72835 -31.9571,0 -63.0473,-2.83347 -91.369,-8.14489 -23.7166,-4.44685 -45.5339,-10.6217 -64.3276,-18.3106l-0.357874 14.9197c18.5421,7.17284 39.6036,12.9697 62.2772,17.2205 29.2819,5.49095 61.1965,8.42127 93.7772,8.42127z"/>
    <path id="_415921200" class="fil8" d="M1502.44 1466.4c31.2177,0 61.7268,-3.15118 89.5264,-9.03072 22.7091,-4.80237 43.5992,-11.4437 61.5863,-19.6937l4.25079 -17.6634c-19.0264,10.0772 -42.4796,18.0662 -68.5666,23.5831 -26.7803,5.66339 -56.354,8.70001 -86.7969,8.70001 -29.3303,0 -57.9284,-2.83347 -84.0426,-8.14489 -24.1016,-4.90158 -46.0489,-11.8937 -64.4516,-20.6929l4.58504 17.3847c17.0788,7.13623 36.4347,12.9059 57.2445,17.1378 26.9988,5.49095 56.4898,8.42009 86.6646,8.42009z"/>
    <path id="_415921368" class="fil8" d="M1503.47 1549.14c25.9418,0 51.2752,-3.19016 74.341,-9.14174 12.0697,-3.11339 23.5264,-6.99331 34.1386,-11.5795l14.1709 -23.3669c-14.7862,9.05434 -32.6693,16.2898 -52.4493,21.3921 -21.6732,5.59252 -45.5941,8.59016 -70.2012,8.59016 -23.7366,0 -46.8721,-2.79567 -67.9867,-8.03386 -17.5524,-4.35473 -33.6969,-10.3937 -47.6044,-17.9102l13.8449 22.1091c9.39213,3.67323 19.3748,6.82441 29.7992,9.40985 22.4209,5.563 46.9063,8.53111 71.9469,8.53111z"/>
    <path id="_415921464" class="fil8" d="M1528.94 1253.92c9.29646,0.240945 16.8331,-8.04686 16.8331,-18.5103 0,-10.4634 -7.53662,-19.141 -16.8331,-19.3819 -9.29646,-0.240945 -16.8319,8.04686 -16.8319,18.5103 0,10.4634 7.53544,19.1398 16.8319,19.3819z"/>
    <path id="_415920384" class="fil9" d="M1528.94 1244.9c4.87323,0.126378 8.82402,-4.2189 8.82402,-9.70394 0,-5.48504 -3.95079,-10.0335 -8.82402,-10.1599 -4.87323,-0.126378 -8.82402,4.21772 -8.82402,9.70394 0,5.48386 3.95079,10.0335 8.82402,10.1599z"/>
    <path id="_415920768" class="fil10" d="M1503.28 1287.37c27.6236,0 54.4595,-3.02599 78.7619,-8.67284 24.039,-5.58544 45.6012,-13.7043 62.9788,-23.9575 -1.32638,-3.57166 -2.7189,-7.11969 -4.17638,-10.6453 -15.4394,-37.3359 -38.1213,-71.9268 -66.6508,-102.627 -28.05,-30.1866 -45.4985,-46.7906 -63.1642,-50.2134 -0.129921,25.3453 -0.999213,102.1 -5.91142,102.1 -4.63819,0 -5.72953,-77.4568 -5.90434,-102.442 -19.2059,2.57835 -36.7418,20.4201 -66.8209,53.0363 -11.374,12.3354 -21.7713,25.3193 -31.1008,38.8784 13.1079,42.45 55.513,59.7898 91.2638,60.4323 -28.1705,8.52284 -80.0127,-1.03937 -99.5328,-47.8146 -9.57639,15.3638 -17.8134,31.3996 -24.5858,48.0107 -1.70079,4.17048 -3.30709,8.3752 -4.82126,12.613 0.380315,0.131102 0.754725,0.297638 1.11969,0.501969 17.4059,9.73347 38.6965,17.413 62.2867,22.6819 23.6918,5.2937 49.6418,8.11772 76.2579,8.11772zm25.6559 -71.3422c9.29646,0.240945 16.8331,8.91851 16.8331,19.3819 0,10.4634 -7.53662,18.7512 -16.8331,18.5103 -9.29646,-0.240945 -16.8319,-8.91851 -16.8319,-19.3819 0,-10.4634 7.53544,-18.7512 16.8319,-18.5103z"/>
   </g>
   <g>
    <g>
     <polygon id="_415920264" class="fil11" points="1313.5,1389.04 1349.2,1322.2 1362.62,1319.01 1367.1,1328.58 "/>
     <polygon id="_415920432" class="fil11" points="1313.5,1410.21 1349.2,1343.37 1362.62,1340.18 1367.1,1349.75 "/>
     <polygon id="_415920288" class="fil11" points="1313.5,1431.38 1349.2,1364.54 1362.62,1361.35 1367.1,1370.91 "/>
     <polygon id="_415920552" class="fil11" points="1313.5,1452.55 1349.2,1385.71 1362.62,1382.52 1367.1,1392.08 "/>
     <polygon id="_415920864" class="fil11" points="1313.5,1473.72 1349.2,1406.87 1362.62,1403.69 1367.1,1413.25 "/>
    </g>
    <path id="_415920816" class="fil12" d="M1507.57 1599.03l-10.4811 -0.177165c-1.74095,-7.37835 -8.25709,-11.7059 -14.5547,-9.66615 -18.1441,5.87835 -33.8362,19.0169 -44.9044,36.776 -10.741,17.2323 -17.1154,38.7544 -17.1177,62.1142 0,9.85867 1.1315,19.4232 3.24213,28.5036 2.10709,9.06733 5.21339,17.6776 9.163,25.6394 0.973229,2.24646 2.47795,4.213 4.45512,5.61024 5.61142,3.9626 12.9036,1.84488 16.2862,-4.73032 -3.06024,-2.20866 19.089,-23.5028 22.154,-25.5414 8.64686,-5.74843 18.5917,-8.93741 29.1662,-8.75906 0.868111,0.0141732 1.7315,0.0519685 2.59134,0.112205l0 -109.882z"/>
    <path id="_415920960" class="fil13" d="M1507.57 1452.27c-1.70788,0.0177165 -3.42048,0.0271654 -5.13426,0.0271654 -29.3292,0 -57.9272,-2.83229 -84.0414,-8.14253 -24.1016,-4.90276 -46.05,-11.8949 -64.4516,-20.6953 -5.0504,-21.7547 -7.70788,-44.1827 -7.7315,-67.089 18.5421,7.17284 39.6036,12.9685 62.2772,17.2205 29.2819,5.49095 61.1965,8.42127 93.7772,8.42127 1.76929,0 3.53859,-0.00826772 5.30433,-0.0259843l0 70.2839zm0 -266.858l0 101.93c-1.42795,0.0153543 -2.85709,0.0236221 -4.28977,0.0236221 -26.6185,0 -52.5674,-2.8252 -76.2591,-8.1189 -23.5902,-5.2689 -44.8807,-12.9496 -62.2867,-22.6819 -0.364961,-0.204331 -0.740552,-0.370866 -1.11969,-0.500788 1.51417,-4.2378 3.12166,-8.44371 4.82126,-12.6142 6.77127,-16.611 15.0106,-32.6469 24.5858,-48.0107 19.5201,46.7752 71.3634,56.3363 99.5328,47.8146 -35.7508,-0.64252 -78.156,-17.9823 -91.265,-60.4323 9.33072,-13.5591 19.7291,-26.5429 31.102,-38.8784 30.0792,-32.6173 47.6162,-50.4579 66.8209,-53.0363 0.174803,24.9851 1.26496,102.442 5.90434,102.442 0.966142,0 1.7752,-2.97638 2.45315,-7.93701zm0 116.035l0 66.4335c-1.76575,0.0165354 -3.53386,0.0259843 -5.30433,0.0259843 -31.9571,0 -63.0473,-2.83347 -91.369,-8.14489 -23.7166,-4.44685 -45.5327,-10.6217 -64.3276,-18.3106 1.22008,-24.7453 5.5252,-48.828 12.6095,-72.0048 18.4465,10.1634 40.624,18.1406 64.9548,23.5772 24.6591,5.50867 51.5918,8.44725 79.1445,8.44725 1.43386,0 2.86418,-0.00708662 4.29213,-0.0236221zm0 164.928l0 68.6327c-1.36536,0.0188977 -2.73071,0.0283465 -4.09961,0.0283465 -23.739,0 -46.8733,-2.79449 -67.9878,-8.03386 -17.5524,-4.35473 -33.6969,-10.3937 -47.6044,-17.9114l-1.35473 -2.37874c-11.8122,-20.9752 -21.2362,-43.0099 -27.9957,-65.8666 17.0788,7.13623 36.4347,12.9059 57.2445,17.1378 26.9977,5.48977 56.4898,8.42009 86.6635,8.42009 1.71378,0 3.4252,-0.00944883 5.13426,-0.0283465zm0 82.7386l0 81.6697c-3.17599,0.785434 -6.4878,-0.0011811 -9.14056,-2.1189 -38.7024,-27.4795 -71.5406,-60.4666 -96.7052,-97.4635 9.39213,3.67323 19.3736,6.82441 29.7981,9.40985 22.4209,5.56182 46.9063,8.53111 71.9481,8.53111 1.36772,0 2.73425,-0.0106299 4.09961,-0.0283465z"/>
    <path id="_415920504" class="fil14" d="M1393.03 1195.44c19.5201,46.7752 71.3634,56.3363 99.5328,47.8146 -35.7508,-0.64252 -78.156,-17.9823 -91.265,-60.4323l-8.26772 12.6177z"/>
    <path id="_415919568" class="fil14" d="M1503.28 1301.47c1.43386,0 2.86418,-0.00708662 4.29213,-0.0236221l0 -14.1047c-1.42795,0.0153543 -2.85709,0.0236221 -4.28977,0.0236221 -26.6185,0 -52.5674,-2.8252 -76.2591,-8.1189 -23.5902,-5.2689 -44.8807,-12.9496 -62.2867,-22.6819 -0.364961,-0.204331 -0.740552,-0.370866 -1.11969,-0.500788l-4.43622 13.3819c18.4465,10.1634 40.624,18.1406 64.9548,23.5772 24.6591,5.50867 51.5918,8.44725 79.1445,8.44725z"/>
    <path id="_415920072" class="fil14" d="M1502.27 1382.01c1.76929,0 3.53859,-0.00826772 5.30433,-0.0259843l0 -14.1059c-1.76575,0.0165354 -3.53386,0.0259843 -5.30433,0.0259843 -31.9571,0 -63.0473,-2.83347 -91.369,-8.14489 -23.7166,-4.44685 -45.5327,-10.6217 -64.3276,-18.3106l-0.357874 14.9197c18.5421,7.17284 39.6036,12.9685 62.2772,17.2205 29.2819,5.49095 61.1965,8.42127 93.7772,8.42127z"/>
    <path id="_415920144" class="fil14" d="M1502.44 1466.4c1.71378,0 3.4252,-0.00944883 5.13426,-0.0283465l0 -14.1047c-1.70788,0.0177165 -3.42048,0.0271654 -5.13426,0.0271654 -29.3292,0 -57.9272,-2.83229 -84.0414,-8.14253 -24.1016,-4.90276 -46.05,-11.8949 -64.4516,-20.6953l4.58504 17.3858c17.0788,7.13623 36.4347,12.9059 57.2445,17.1378 26.9977,5.48977 56.4898,8.42009 86.6635,8.42009z"/>
    <path id="_415919952" class="fil14" d="M1503.47 1549.14c1.36772,0 2.73425,-0.0106299 4.09961,-0.0283465l0 -14.1059c-1.36536,0.0188977 -2.73071,0.0283465 -4.09961,0.0283465 -23.739,0 -46.8733,-2.79449 -67.9878,-8.03386 -17.5524,-4.35473 -33.6969,-10.3937 -47.6044,-17.9114l13.8461 22.1103c9.39213,3.67323 19.3736,6.82441 29.7981,9.40985 22.4209,5.56182 46.9063,8.53111 71.9481,8.53111z"/>
    <path id="_415919496" class="fil15" d="M1503.28 1287.37c1.43268,0 2.86181,-0.00826772 4.28977,-0.0236221l0 -101.93c-0.677953,4.96063 -1.48701,7.93701 -2.45315,7.93701 -4.63937,0 -5.72953,-77.4568 -5.90434,-102.442 -19.2047,2.57835 -36.7418,20.4189 -66.8209,53.0363 -11.3728,12.3354 -21.7713,25.3193 -31.102,38.8784 13.1091,42.45 55.5142,59.7898 91.265,60.4323 -28.1693,8.52166 -80.0127,-1.03937 -99.5328,-47.8146 -9.5752,15.3638 -17.8146,31.3996 -24.5858,48.0107 -1.69961,4.17048 -3.30709,8.37638 -4.82126,12.6142 0.379134,0.129921 0.754725,0.296457 1.11969,0.500788 17.4059,9.73229 38.6965,17.413 62.2867,22.6819 23.6918,5.2937 49.6406,8.1189 76.2591,8.1189z"/>
   </g>
  </g>
 </g>
 <rect class="fil16" width="2048" height="2048"/>
</svg>
