<?xml version="1.0" encoding="UTF-8"?>
<!DOCTYPE svg PUBLIC "-//W3C//DTD SVG 1.1//EN" "http://www.w3.org/Graphics/SVG/1.1/DTD/svg11.dtd">
<!-- Creator: CorelDRAW -->
<svg xmlns="http://www.w3.org/2000/svg" xml:space="preserve" width="2048px" height="2048px" style="shape-rendering:geometricPrecision; text-rendering:geometricPrecision; image-rendering:optimizeQuality; fill-rule:evenodd; clip-rule:evenodd"
viewBox="0 0 2048 2048"
 xmlns:xlink="http://www.w3.org/1999/xlink">
 <defs>
  <style type="text/css">
   <![CDATA[
    .fil6 {fill:none}
    .fil4 {fill:#B3E5FC}
    .fil2 {fill:#C62828}
    .fil5 {fill:#E1F5FE}
    .fil1 {fill:#424242;fill-rule:nonzero}
    .fil0 {fill:#E53935;fill-rule:nonzero}
    .fil3 {fill:#FFCC80;fill-rule:nonzero}
   ]]>
  </style>
 </defs>
 <g id="Layer_x0020_1">
  <metadata id="CorelCorpID_0Corel-Layer"/>
  <path class="fil0" d="M368.88 807.996l1310.24 0c31.0725,0 59.2985,12.6957 79.7398,33.137 20.4473,20.4473 33.1406,48.6804 33.1406,79.7434l0 461.018c0,31.063 -12.698,59.2926 -33.1441,79.7363 -18.9626,18.965 -44.6469,31.4622 -73.0548,33.1441 0.453544,-5.17087 0.708662,-10.585 0.708662,-15.8256 0,-47.1355 -18.5882,-91.9961 -51.913,-125.32 -33.3236,-33.3236 -78.1831,-51.9119 -125.319,-51.9119 -47.1343,0 -91.9961,18.5894 -125.32,51.9119 -33.3225,33.3236 -51.9119,78.1855 -51.9119,125.32 0,5.30906 0.238583,10.5886 0.703938,15.8256l-617.503 0c0.465355,-5.23701 0.703938,-10.5165 0.703938,-15.8256 0,-47.1343 -18.5894,-91.9961 -51.9119,-125.32 -33.3236,-33.3225 -78.1855,-51.9119 -125.32,-51.9119 -47.1355,0 -91.995,18.5882 -125.319,51.9119 -21.6803,21.6792 -37.1209,48.2433 -45.2658,77.1379 -4.41733,15.6685 -6.64725,31.9016 -6.64725,48.1819 0,5.24056 0.242126,10.6547 0.69567,15.8256 -28.4079,-1.68189 -54.0815,-14.1744 -73.0477,-33.1406 -20.4414,-20.4414 -33.137,-48.6674 -33.137,-79.7398l0 -461.018c0,-31.076 12.6898,-59.3044 33.1335,-79.7469 20.4425,-20.4437 48.6709,-33.1335 79.7469,-33.1335zm1359.12 383.109l0 -270.228 -1408 0 0 270.228 1408 0z"/>
  <path class="fil1" d="M1509.28 1331.5c40.7114,0 77.5737,16.5059 104.257,43.1882 26.6835,26.6835 43.1882,63.5469 43.1882,104.257 0,40.7114 -16.5047,77.5737 -43.1882,104.257 -26.6835,26.6835 -63.5457,43.1882 -104.257,43.1882 -40.7114,0 -77.5737,-16.5047 -104.257,-43.1882 -26.6835,-26.6835 -43.1882,-63.5457 -43.1882,-104.257 0,-40.7091 16.5059,-77.5737 43.1882,-104.257 26.6835,-26.6823 63.5481,-43.1882 104.257,-43.1882z"/>
  <path class="fil1" d="M538.72 1331.5c40.7091,0 77.5737,16.5059 104.257,43.1882 26.6823,26.6835 43.1882,63.5481 43.1882,104.257 0,40.7114 -16.5047,77.5737 -43.1882,104.257 -26.6835,26.6835 -63.5457,43.1882 -104.257,43.1882 -40.7114,0 -77.5737,-16.5047 -104.257,-43.1882 -26.6835,-26.6835 -43.1882,-63.5457 -43.1882,-104.257 0,-40.7103 16.5047,-77.5737 43.1882,-104.257 26.6835,-26.6823 63.5457,-43.1882 104.257,-43.1882z"/>
  <path class="fil2" d="M1728 1269.01l-84.6698 0c-17.6728,0 -32.0008,14.328 -32.0008,32.0008 0,17.6728 14.328,32.0008 32.0008,32.0008l84.6698 0 0 -64.0016z"/>
  <path class="fil2" d="M664.04 1353.63c-33.3236,-33.3225 -78.1855,-51.9119 -125.32,-51.9119 -47.1355,0 -91.995,18.5882 -125.319,51.9119 -21.6803,21.6792 -37.1209,48.2433 -45.2658,77.1379 -4.41733,15.6685 -6.64725,31.9016 -6.64725,48.1819 0,5.24056 0.242126,10.6547 0.69567,15.8256l32.1567 0c-0.563386,-5.19804 -0.852757,-10.4776 -0.852757,-15.8256 0,-40.0996 16.2567,-76.4091 42.5398,-102.692 26.2831,-26.2819 62.5914,-42.5398 102.692,-42.5398 40.0985,0 76.4091,16.2579 102.692,42.5398 26.2819,26.2831 42.5398,62.5937 42.5398,102.692 0,5.34804 -0.28937,10.6276 -0.852757,15.8256l32.1484 0c0.465355,-5.23701 0.703938,-10.5165 0.703938,-15.8256 0,-47.1343 -18.5894,-91.9961 -51.9119,-125.32z"/>
  <path class="fil2" d="M1634.6 1353.63c-33.3236,-33.3236 -78.1831,-51.9119 -125.319,-51.9119 -47.1343,0 -91.9961,18.5894 -125.32,51.9119 -33.3225,33.3236 -51.9119,78.1855 -51.9119,125.32 0,5.30906 0.238583,10.5886 0.703938,15.8256l32.1484 0c-0.563386,-5.19804 -0.852757,-10.4776 -0.852757,-15.8256 0,-40.0985 16.2579,-76.4091 42.5398,-102.692 26.2831,-26.2819 62.5937,-42.5398 102.692,-42.5398 40.1008,0 76.4091,16.2579 102.692,42.5398 26.2831,26.2831 42.5398,62.5926 42.5398,102.692 0,5.34804 -0.28937,10.6276 -0.852757,15.8256l32.1437 0c0.453544,-5.17087 0.708662,-10.585 0.708662,-15.8256 0,-47.1355 -18.5882,-91.9961 -51.913,-125.32z"/>
  <path class="fil3" d="M538.72 1397.41c22.513,0 42.8989,9.12757 57.6544,23.8831 14.7555,14.7555 23.8831,35.1414 23.8831,57.6544 0,22.5142 -9.12757,42.8989 -23.8831,57.6544 -14.7555,14.7555 -35.1402,23.8831 -57.6544,23.8831 -22.5142,0 -42.8989,-9.12757 -57.6544,-23.8831 -14.7555,-14.7555 -23.8831,-35.1402 -23.8831,-57.6544 0,-22.513 9.12757,-42.8989 23.8831,-57.6544 14.7555,-14.7555 35.1402,-23.8831 57.6544,-23.8831z"/>
  <path class="fil1" d="M538.72 1453.05c7.15158,0 13.6276,2.89961 18.3154,7.58741 4.6878,4.6878 7.58741,11.1638 7.58741,18.3154 0,7.15158 -2.89961,13.6276 -7.58741,18.3154 -4.6878,4.6878 -11.1638,7.58741 -18.3154,7.58741 -7.15158,0 -13.6276,-2.89961 -18.3154,-7.58741 -4.6878,-4.6878 -7.58741,-11.1638 -7.58741,-18.3154 0,-7.15158 2.89961,-13.6276 7.58741,-18.3154 4.6878,-4.6878 11.1638,-7.58741 18.3154,-7.58741z"/>
  <path class="fil3" d="M1509.28 1397.41c22.513,0 42.8989,9.12757 57.6544,23.8831 14.7555,14.7555 23.8831,35.1414 23.8831,57.6544 0,22.5142 -9.12757,42.8989 -23.8831,57.6544 -14.7555,14.7555 -35.1402,23.8831 -57.6544,23.8831 -22.5142,0 -42.8989,-9.12757 -57.6544,-23.8831 -14.7555,-14.7555 -23.8831,-35.1402 -23.8831,-57.6544 0,-22.513 9.12757,-42.8989 23.8831,-57.6544 14.7555,-14.7555 35.1402,-23.8831 57.6544,-23.8831z"/>
  <path class="fil1" d="M1509.28 1453.05c7.15158,0 13.6276,2.89961 18.3154,7.58741 4.6878,4.6878 7.58741,11.1638 7.58741,18.3154 0,7.15158 -2.89961,13.6276 -7.58741,18.3154 -4.6878,4.6878 -11.1638,7.58741 -18.3154,7.58741 -7.15158,0 -13.6276,-2.89961 -18.3154,-7.58741 -4.6878,-4.6878 -7.58741,-11.1638 -7.58741,-18.3154 0,-7.15158 2.89961,-13.6276 7.58741,-18.3154 4.6878,-4.6878 11.1638,-7.58741 18.3154,-7.58741z"/>
  <polygon class="fil0" points="500.19,518.493 500.19,806.271 467.771,806.271 467.771,518.493 "/>
  <polygon class="fil0" points="692.431,518.493 692.431,806.271 660.012,806.271 660.012,518.493 "/>
  <polygon class="fil0" points="884.671,518.493 884.671,806.271 852.252,806.271 852.252,518.493 "/>
  <polygon class="fil0" points="1076.91,518.493 1076.91,806.271 1044.49,806.271 1044.49,518.493 "/>
  <polygon class="fil0" points="1269.15,518.493 1269.15,806.271 1236.73,806.271 1236.73,518.493 "/>
  <polygon class="fil0" points="1461.39,518.493 1461.39,806.271 1428.98,806.271 1428.98,518.493 "/>
  <polygon class="fil4" points="1792,1191.1 1792,920.877 320.001,920.877 320.001,1191.1 "/>
  <polygon class="fil0" points="500.19,920.877 500.19,1208.65 467.771,1208.65 467.771,920.877 "/>
  <polygon class="fil0" points="692.431,920.877 692.431,1208.65 660.012,1208.65 660.012,920.877 "/>
  <polygon class="fil0" points="884.671,920.877 884.671,1208.65 852.252,1208.65 852.252,920.877 "/>
  <polygon class="fil0" points="1076.91,920.877 1076.91,1208.65 1044.49,1208.65 1044.49,920.877 "/>
  <polygon class="fil0" points="1269.15,920.877 1269.15,1208.65 1236.73,1208.65 1236.73,920.877 "/>
  <polygon class="fil0" points="1461.39,920.877 1461.39,1208.65 1428.98,1208.65 1428.98,920.877 "/>
  <polygon class="fil5" points="1714.71,1191.1 1759.71,1191.1 1614.74,920.877 1569.74,920.877 "/>
  <path class="fil0" d="M368.88 421.605l1310.24 0c31.0725,0 59.2985,12.6957 79.7398,33.137 20.4473,20.4473 33.1406,48.6804 33.1406,79.7434l0 431.118 -1536 0 0 -431.118c0,-31.076 12.6898,-59.3044 33.1335,-79.7469 20.4425,-20.4437 48.6709,-33.1335 79.7469,-33.1335zm-48.8788 331.607l1408 0 0 -218.726 -1408 0 0 218.726z"/>
  <polygon class="fil4" points="467.771,753.212 467.771,534.486 320.001,534.486 320.001,753.212 "/>
  <polygon class="fil4" points="660.012,753.212 660.012,534.486 500.19,534.486 500.19,753.212 "/>
  <polygon class="fil4" points="852.252,534.486 692.431,534.486 692.431,753.212 852.252,753.212 "/>
  <polygon class="fil4" points="1044.49,534.486 884.671,534.486 884.671,753.212 1044.49,753.212 "/>
  <polygon class="fil4" points="1076.91,534.486 1076.91,753.212 1236.73,753.212 1236.73,534.486 "/>
  <polygon class="fil4" points="1269.15,534.486 1269.15,753.212 1428.98,753.212 1428.98,534.486 "/>
  <polygon class="fil4" points="1461.39,534.486 1461.39,753.212 1728,753.212 1728,534.486 "/>
 </g>
 <rect class="fil6" width="2048" height="2048"/>
</svg>
