<?xml version="1.0" encoding="UTF-8"?>
<!DOCTYPE svg PUBLIC "-//W3C//DTD SVG 1.1//EN" "http://www.w3.org/Graphics/SVG/1.1/DTD/svg11.dtd">
<!-- Creator: CorelDRAW -->
<svg xmlns="http://www.w3.org/2000/svg" xml:space="preserve" width="2048px" height="2048px" style="shape-rendering:geometricPrecision; text-rendering:geometricPrecision; image-rendering:optimizeQuality; fill-rule:evenodd; clip-rule:evenodd"
viewBox="0 0 2048 2048"
 xmlns:xlink="http://www.w3.org/1999/xlink">
 <defs>
  <style type="text/css">
   <![CDATA[
    .fil7 {fill:none}
    .fil3 {fill:#212121}
    .fil6 {fill:#424242}
    .fil4 {fill:#424242;fill-rule:nonzero}
    .fil2 {fill:#B74643;fill-rule:nonzero}
    .fil1 {fill:#C84A47;fill-rule:nonzero}
    .fil0 {fill:#EF5350;fill-rule:nonzero}
    .fil5 {fill:#FAFAFA;fill-rule:nonzero}
   ]]>
  </style>
 </defs>
 <g id="Layer_x0020_1">
  <metadata id="CorelCorpID_0Corel-Layer"/>
  <path class="fil0" d="M1346.14 927.437c-97.1009,-51.7725 -191.139,-80.817 -297.518,-88.6926 -73.6831,-5.4567 -153.659,-0.915355 -244.864,13.1079l33.4264 28.9595 480.532 64.0725 28.4233 -17.4473zm-35.0752 277.161l310.592 4.83071 0 0.0011811 105.846 1.64646c48.3768,6.0756 65.7745,-11.4036 64.4233,-43.5992 -0.507874,-12.1087 -6.43229,-24.6543 -15.2209,-37.5827l14.8169 -37.7445 0.262205 -23.5441c-16.7032,-45.991 -87.1052,-99.769 -168.265,-135.553 -67.3004,-29.6729 -143.887,-48.4607 -204.69,-41.5052 -120.129,-70.7504 -233.805,-109.76 -365.499,-119.51 -133.37,-9.87757 -284.173,10.6784 -478.641,58.9902 -11.4496,2.8441 -34.239,5.53701 -56.452,8.15906 -19.3193,2.28189 -38.2335,4.51654 -52.1398,7.26615 -45.117,2.40591 -85.4363,13.9973 -118.168,31.9299 -28.7067,15.7264 -51.867,36.4737 -67.7658,60.4418 -16.7351,25.2343 -25.3583,53.8666 -24.0319,83.9989 0.770079,17.4933 4.91339,35.2642 12.7913,52.9028 -7.11378,35.8477 2.96811,63.2126 27.3236,83.5347 15.5646,12.9862 36.8859,21.6343 63.0367,26.6374l322.223 7.93465 -0.301181 0.967324 629.86 9.79843 0 -0.0011811z"/>
  <path class="fil1" d="M268.826 1076.24l1509 50.8181 -1.11496 2.83937c8.78859,12.9284 14.713,25.474 15.2209,37.5827 1.35118,32.1957 -16.0465,49.6748 -64.4233,43.5992l-105.846 -1.64646 0 -0.0011811 -310.592 -4.83071 0 0.0011811 -629.86 -9.79843 0.301181 -0.967324 -322.223 -7.93465c-26.1508,-5.00315 -47.4721,-13.6512 -63.0367,-26.6374 -24.2398,-20.2252 -34.3382,-47.4284 -27.4217,-83.0245z"/>
  <path class="fil2" d="M1467.34 986.512c42.0071,0 81.9745,16.5614 111.673,46.2591 29.6988,29.6988 46.2591,69.6674 46.2591,111.674 0,22.6288 -4.80827,44.6646 -13.8851,64.8237l-290.045 -4.51181c-7.81536,-18.9154 -11.9362,-39.3603 -11.9362,-60.3119 0,-42.0071 16.5614,-81.9757 46.2591,-111.674 29.6988,-29.6988 69.6662,-46.2591 111.674,-46.2591z"/>
  <path class="fil3" d="M1346.14 927.437c-97.1009,-51.7725 -191.139,-80.817 -297.518,-88.6926 -73.6831,-5.4567 -153.659,-0.915355 -244.864,13.1079l33.4264 28.9595 480.532 64.0725 28.4233 -17.4473z"/>
  <path class="fil4" d="M1467.34 1010.51c36.9803,0 70.4646,14.9929 94.7032,39.2303 24.2386,24.2398 39.2303,57.7241 39.2303,94.7044 0,36.9803 -14.9917,70.4634 -39.2303,94.7032 -24.2386,24.2386 -57.7229,39.2303 -94.7032,39.2303 -36.9815,0 -70.4646,-14.9917 -94.7044,-39.2303 -24.2374,-24.2398 -39.2303,-57.7229 -39.2303,-94.7032 0,-36.9803 14.9929,-70.4646 39.2303,-94.7044 24.2398,-24.2374 57.7229,-39.2303 94.7044,-39.2303z"/>
  <path class="fil2" d="M521.511 986.512c42.0071,0 81.9757,16.5614 111.673,46.2591 29.6977,29.6988 46.2591,69.6674 46.2591,111.674 0,16.8898 -2.67992,33.45 -7.81182,49.1445l-302.476 -7.44804c-3.67323,-13.4504 -5.57835,-27.4559 -5.57835,-41.6965 0,-42.0083 16.5626,-81.9757 46.2603,-111.674 29.6988,-29.6977 69.6662,-46.2591 111.673,-46.2591z"/>
  <path class="fil4" d="M521.511 1010.51c36.9803,0 70.4646,14.9929 94.7032,39.2303 24.2374,24.2398 39.2303,57.7241 39.2303,94.7044 0,36.9803 -14.9929,70.4634 -39.2303,94.7032 -24.2386,24.2386 -57.7229,39.2303 -94.7032,39.2303 -36.9803,0 -70.4646,-14.9917 -94.7032,-39.2303 -24.2386,-24.2398 -39.2315,-57.7229 -39.2315,-94.7032 0,-36.9803 14.9929,-70.4646 39.2315,-94.7044 24.2386,-24.2374 57.7229,-39.2303 94.7032,-39.2303z"/>
  <g id="_415929912">
   <path id="_415930440" class="fil5" d="M521.511 1049.74c26.1484,0 49.8248,10.6016 66.9638,27.7394 17.1378,17.139 27.7394,40.8154 27.7394,66.9638 0,26.1484 -10.6016,49.8248 -27.7394,66.9638 -17.139,17.139 -40.8154,27.7406 -66.9638,27.7406 -26.1484,0 -49.8248,-10.6016 -66.9638,-27.7406 -17.139,-17.139 -27.7406,-40.8154 -27.7406,-66.9638 0,-26.1484 10.6016,-49.8248 27.7406,-66.9638 17.139,-17.1378 40.8154,-27.7394 66.9638,-27.7394z"/>
   <g>
    <polygon id="_415930392" class="fil6" points="504.015,1031.94 571.516,1144.44 504.015,1144.44 "/>
    <polygon id="_415930632" class="fil6" points="634.013,1126.95 521.511,1194.45 521.511,1126.95 "/>
    <polygon id="_415929576" class="fil6" points="539.008,1256.95 471.507,1144.44 539.008,1144.44 "/>
    <polygon id="_415930152" class="fil6" points="409.01,1161.94 521.511,1094.44 521.511,1161.94 "/>
   </g>
  </g>
  <g id="_415928712">
   <path id="_415929648" class="fil5" d="M1467.34 1049.74c26.1484,0 49.8248,10.6016 66.9638,27.7394 17.1378,17.139 27.7394,40.8154 27.7394,66.9638 0,26.1484 -10.6016,49.8248 -27.7394,66.9638 -17.139,17.139 -40.8154,27.7406 -66.9638,27.7406 -26.1484,0 -49.8248,-10.6016 -66.9638,-27.7406 -17.139,-17.139 -27.7406,-40.8154 -27.7406,-66.9638 0,-26.1484 10.6016,-49.8248 27.7406,-66.9638 17.139,-17.1378 40.8154,-27.7394 66.9638,-27.7394z"/>
   <g>
    <polygon id="_415929984" class="fil6" points="1449.84,1031.94 1517.34,1144.44 1449.84,1144.44 "/>
    <polygon id="_415929264" class="fil6" points="1579.84,1126.95 1467.34,1194.45 1467.34,1126.95 "/>
    <polygon id="_415929072" class="fil6" points="1484.83,1256.95 1417.33,1144.44 1484.83,1144.44 "/>
    <polygon id="_415929408" class="fil6" points="1354.83,1161.94 1467.34,1094.44 1467.34,1161.94 "/>
   </g>
  </g>
 </g>
 <rect class="fil7" width="2048" height="2048"/>
</svg>
