<?xml version="1.0" encoding="UTF-8"?>
<!DOCTYPE svg PUBLIC "-//W3C//DTD SVG 1.1//EN" "http://www.w3.org/Graphics/SVG/1.1/DTD/svg11.dtd">
<!-- Creator: CorelDRAW -->
<svg xmlns="http://www.w3.org/2000/svg" xml:space="preserve" width="2048px" height="2048px" style="shape-rendering:geometricPrecision; text-rendering:geometricPrecision; image-rendering:optimizeQuality; fill-rule:evenodd; clip-rule:evenodd"
viewBox="0 0 2048 2048"
 xmlns:xlink="http://www.w3.org/1999/xlink">
 <defs>
  <style type="text/css">
   <![CDATA[
    .fil5 {fill:none}
    .fil4 {fill:#8C7F4D}
    .fil0 {fill:#424242;fill-rule:nonzero}
    .fil2 {fill:#8C7F4D;fill-rule:nonzero}
    .fil1 {fill:#B4A15D;fill-rule:nonzero}
    .fil3 {fill:#D3C8A0;fill-rule:nonzero}
   ]]>
  </style>
 </defs>
 <g id="Layer_x0020_1">
  <metadata id="CorelCorpID_0Corel-Layer"/>
  <polygon class="fil0" points="1142.49,939.884 993.185,831.294 1030.69,779.542 1179.99,888.133 "/>
  <path class="fil1" d="M288 821.679l444.847 0 21.3756 8.25119 125.117 112.406 233.101 0 48.5693 -102.281 8.72481 -18.3756 20.1508 0 389.131 0c25.4232,0 48.5138,10.3784 65.2323,27.0969 16.7185,16.7173 27.0969,39.8091 27.0969,65.2312l0 325.772 0 32.0008 -32.0008 0c-442.178,0 -693.501,0 -1351.35,0l-32.0008 0 0 -32.0008 0 -386.099 0 -32.0008 32.0008 0z"/>
  <path class="fil2" d="M1470.19 1271.78l-380.849 0 -0.00354331 -0.641339c0,-50.6469 19.9713,-98.843 55.7776,-134.649 35.8063,-35.8075 84.0036,-55.7788 134.65,-55.7788 50.6469,0 98.843,19.9713 134.65,55.7776 35.8063,35.8075 55.7776,84.0036 55.7776,134.65l-0.00354331 0.641339z"/>
  <path class="fil2" d="M767.998 1271.78l-380.849 0 -0.00354331 -0.641339c0,-50.6469 19.9713,-98.843 55.7776,-134.649 35.8063,-35.8075 84.0036,-55.7788 134.65,-55.7788 50.6469,0 98.843,19.9713 134.65,55.7776 35.8063,35.8075 55.7776,84.0036 55.7776,134.65l-0.00354331 0.641339z"/>
  <path class="fil1" d="M1639.35 1058.13l120.656 0 32.0008 0 0 32.0008 0 88.8461c0,25.5544 -10.4315,48.763 -27.2362,65.5654 -16.8024,16.8047 -40.0111,27.2362 -65.5654,27.2362l-59.8548 0 -32.0008 0 0 -32.0008 0 -149.647 0 -32.0008 32.0008 0z"/>
  <path class="fil0" d="M577.574 1112.71c43.7445,0 83.3528,17.7354 112.023,46.4055 28.6701,28.6701 46.4055,68.2784 46.4055,112.023 0,43.7445 -17.7354,83.354 -46.4055,112.024 -28.6701,28.6701 -68.2784,46.4055 -112.023,46.4055 -43.7445,0 -83.3528,-17.7354 -112.023,-46.4055 -28.6701,-28.6701 -46.4055,-68.2796 -46.4055,-112.024 0,-43.7445 17.7354,-83.3528 46.4055,-112.023 28.6689,-28.6701 68.2772,-46.4055 112.023,-46.4055z"/>
  <path class="fil0" d="M1279.77 1112.71c43.7445,0 83.3528,17.7354 112.023,46.4055 28.6701,28.6701 46.4055,68.2784 46.4055,112.023 0,43.7445 -17.7354,83.354 -46.4055,112.024 -28.6701,28.6701 -68.2784,46.4055 -112.023,46.4055 -43.7445,0 -83.3528,-17.7354 -112.023,-46.4055 -28.6701,-28.6701 -46.4055,-68.2796 -46.4055,-112.024 0,-43.7445 17.7354,-83.3528 46.4055,-112.023 28.6689,-28.6701 68.2772,-46.4055 112.023,-46.4055z"/>
  <path class="fil1" d="M1156.9 856.657c7.45512,15.9473 26.4284,22.8307 42.3756,15.3756 15.9473,-7.45512 22.8307,-26.4284 15.3756,-42.3756l-115.445 -246.836c-7.45512,-15.9473 -26.4284,-22.8307 -42.3756,-15.3756 -15.9473,7.45512 -22.8307,26.4284 -15.3756,42.3756l115.445 246.836z"/>
  <path class="fil0" d="M1063.82 733.482c8.82757,8.44607 8.92678,25.0949 1.94882,45.1855 -5.39174,15.5291 -15.3886,33.7311 -28.7055,50.9209 -13.3606,17.2429 -28.1008,30.9638 -41.1284,39.2032 -16.8189,10.6358 -31.6264,13.0004 -40.4351,4.57205 -8.82757,-8.44607 -8.92442,-25.0973 -1.94882,-45.1878 5.3941,-15.5291 15.3898,-33.7288 28.7055,-50.9174l0.0011811 -0.00236221c13.3595,-17.2406 28.1008,-30.9626 41.1284,-39.202 16.8165,-10.6347 31.6264,-13.0016 40.4339,-4.57205z"/>
  <path class="fil1" d="M697.436 856.657c7.45512,15.9473 26.4284,22.8307 42.3756,15.3756 15.9473,-7.45512 22.8307,-26.4284 15.3756,-42.3756l-115.443 -246.836c-7.45512,-15.9473 -26.4284,-22.8307 -42.3756,-15.3756 -15.9473,7.45512 -22.8307,26.4284 -15.3756,42.3756l115.443 246.836z"/>
  <path class="fil3" d="M1279.77 1184.74c23.8547,0 45.4548,9.67205 61.089,25.3063 15.6343,15.6343 25.3063,37.2343 25.3063,61.089 0,23.8547 -9.67205,45.4548 -25.3063,61.0902 -15.6343,15.6343 -37.2343,25.3063 -61.089,25.3063 -23.8547,0 -45.4548,-9.67205 -61.089,-25.3063 -15.6343,-15.6354 -25.3063,-37.2355 -25.3063,-61.0902 0,-23.8547 9.67205,-45.4548 25.3063,-61.089 15.6343,-15.6343 37.2331,-25.3063 61.089,-25.3063z"/>
  <path class="fil3" d="M577.574 1184.74c23.8547,0 45.4548,9.67205 61.089,25.3063 15.6343,15.6343 25.3063,37.2343 25.3063,61.089 0,23.8547 -9.67205,45.4548 -25.3063,61.0902 -15.6343,15.6343 -37.2343,25.3063 -61.089,25.3063 -23.8547,0 -45.4548,-9.67205 -61.089,-25.3063 -15.6343,-15.6354 -25.3063,-37.2355 -25.3063,-61.0902 0,-23.8547 9.67205,-45.4548 25.3063,-61.089 15.6343,-15.6343 37.2331,-25.3063 61.089,-25.3063z"/>
  <path class="fil4" d="M534.278 891.398c112.286,91.4552 129.538,-97.2509 164.158,137.404 -41.6717,3.77362 -104.56,-49.6453 -140.015,-27.4299l-74.8276 46.8851c-158.195,99.1205 -54.7678,-242.749 50.6847,-156.859z"/>
  <path class="fil4" d="M864.616 1092.16c1.23662,95.4768 103.981,24.3851 -0.0625985,141.149 -19.5354,-19.4811 -19.1162,-73.8851 -45.3496,-82.4209l-55.3654 -18.0165c-117.047,-38.0894 99.6166,-130.38 100.778,-40.7114z"/>
  <path class="fil4" d="M1047.37 1114.05c-88.0123,-37.0335 -63.9189,85.5638 -129.357,-56.4827 25.6666,-10.1185 75.3674,12.0142 93.6792,-8.61969l38.6457 -43.5473c81.704,-92.0623 79.6867,143.431 -2.96811,108.65z"/>
  <path class="fil4" d="M352.905 1104.76c0.754725,58.3146 63.5091,14.8937 -0.0389764,86.2099 -11.9315,-11.8984 -11.6752,-45.1264 -27.6981,-50.341l-33.8162 -11.0043c-71.4898,-23.263 60.8434,-79.6312 61.5532,-24.8646z"/>
  <path class="fil4" d="M309.991 882.413c57.9071,-6.93898 8.07166,-64.7304 85.728,-9.10867 -10.565,13.1268 -43.6323,16.3973 -47.1178,32.8831l-7.35355 34.7918c-15.5469,73.5556 -85.6383,-52.05 -31.2567,-58.5662z"/>
  <path class="fil4" d="M1405.09 891.398c-112.286,91.4552 -129.538,-97.2509 -164.158,137.404 41.6717,3.77362 104.56,-49.6453 140.015,-27.4299l74.8276 46.8851c158.195,99.1205 54.7678,-242.749 -50.6847,-156.859z"/>
  <path class="fil4" d="M1613.56 1139.2c-44.8229,37.3122 -52.5839,-38.6032 -65.5134,56.0398 16.7977,1.33937 41.8914,-20.4425 56.2654,-11.6504l30.3343 18.5575c64.1315,39.2327 21.0083,-97.9891 -21.0862,-62.9469z"/>
  <path class="fil4" d="M1623 926.477c-57.9071,-6.93898 -8.07166,-64.7304 -85.728,-9.10867 10.565,13.1268 43.6323,16.3973 47.1178,32.8831l7.35355 34.7918c15.5469,73.5556 85.6383,-52.05 31.2567,-58.5662z"/>
  <path class="fil4" d="M1011.31 1201.47c-27.7217,23.0764 -32.5217,-23.8748 -40.5177,34.6583 10.389,0.829134 25.9087,-12.6425 34.7977,-7.20473l18.7606 11.4768c39.6638,24.2646 12.9933,-60.6024 -13.0406,-38.9303z"/>
 </g>
 <rect class="fil5" width="2048" height="2048"/>
</svg>
