<?xml version="1.0" encoding="UTF-8"?>
<!DOCTYPE svg PUBLIC "-//W3C//DTD SVG 1.1//EN" "http://www.w3.org/Graphics/SVG/1.1/DTD/svg11.dtd">
<!-- Creator: CorelDRAW -->
<svg xmlns="http://www.w3.org/2000/svg" xml:space="preserve" width="2048px" height="2048px" style="shape-rendering:geometricPrecision; text-rendering:geometricPrecision; image-rendering:optimizeQuality; fill-rule:evenodd; clip-rule:evenodd"
viewBox="0 0 2048 2048"
 xmlns:xlink="http://www.w3.org/1999/xlink">
 <defs>
  <style type="text/css">
   <![CDATA[
    .fil7 {fill:none}
    .fil3 {fill:#C8E6C9}
    .fil4 {fill:#F1F8E9}
    .fil6 {fill:#FFFFFE}
    .fil2 {fill:#424242;fill-rule:nonzero}
    .fil1 {fill:#71954A;fill-rule:nonzero}
    .fil0 {fill:#9CCC65;fill-rule:nonzero}
    .fil5 {fill:#F1F8E9;fill-rule:nonzero}
   ]]>
  </style>
 </defs>
 <g id="Layer_x0020_1">
  <metadata id="CorelCorpID_0Corel-Layer"/>
  <path class="fil0" d="M1254.24 1244.51l-118.671 0 -228.327 0 -86.0953 0 -0.0366142 -0.393307 -376.693 -1.71851c-139.675,-13.5473 -182.608,-90.8292 -182.608,-188.582 0,-79.9075 32.2087,-171.97 59.5146,-250.018 5.93032,-16.9512 11.6126,-33.1925 17.361,-50.726 9.81969,-29.954 23.061,-59.0126 42.4985,-81.4701 22.0311,-25.4563 50.7626,-41.9079 89.1296,-41.9079l702.175 0 16.2496 4.50118 480.452 283.503c7.85079,4.63111 15.8504,8.95512 23.7142,13.2047 48.6213,26.2725 93.2894,50.4118 93.2894,115.546l0 64.8095c0,36.6697 -14.987,69.9922 -39.124,94.128 -22.9299,22.9299 -54.1477,37.6004 -88.6512,39.0107l0 0.113386 -5.47796 0 -21.7736 0 -376.925 0zm-882.992 -390.035l1065.09 0 -272.475 -160.78 -693.553 0c-17.3232,0 -30.5469,7.71733 -40.8792,19.6559 -12.9272,14.9362 -22.4705,36.5103 -29.9977,59.4709 -4.80355,14.6528 -11.1898,32.9032 -17.8618,51.9756 -3.38859,9.68505 -6.8563,19.6004 -10.3252,29.6776z"/>
  <path class="fil1" d="M1254.24 1244.51l-118.671 0 -228.327 0 -86.0953 0 -0.0366142 -0.393307 -376.693 -1.71851c-66.489,-6.44882 -111.044,-27.3484 -139.493,-58.0146l1459.29 0c-4.99961,7.57323 -10.7516,14.6102 -17.1449,21.0024 -22.9299,22.9299 -54.1477,37.6004 -88.6512,39.0107l0 0.113386 -5.47796 0 -21.7736 0 -376.925 0z"/>
  <path class="fil1" d="M813.071 1244.08l-360.614 -1.64528c4.2437,-41.2524 22.4729,-79.8001 52.1115,-109.44 34.0736,-34.0736 79.9205,-53.0705 128.115,-53.0705 48.1949,0 94.0418,18.998 128.115,53.0705 30.0319,30.0331 48.3496,69.2138 52.2721,111.085z"/>
  <path class="fil1" d="M1623.01 1244.08l-360.614 -1.64528c4.2437,-41.2524 22.4729,-79.8001 52.1115,-109.44 34.0736,-34.0736 79.9205,-53.0705 128.115,-53.0705 48.1949,0 94.0418,18.998 128.115,53.0705 30.0319,30.0331 48.3496,69.2138 52.2721,111.085z"/>
  <path class="fil2" d="M632.684 1103.93c43.4008,0 82.6985,17.5961 111.145,46.0418 28.4457,28.4469 46.0418,67.7445 46.0418,111.145 0,43.402 -17.5949,82.6997 -46.0418,111.147 -28.4469,28.4457 -67.7434,46.0418 -111.145,46.0418 -43.4032,0 -82.7009,-17.5961 -111.145,-46.0418 -28.4469,-28.4469 -46.0418,-67.7445 -46.0418,-111.147 0,-43.402 17.5949,-82.6985 46.0418,-111.145 28.4445,-28.4457 67.7422,-46.0418 111.145,-46.0418z"/>
  <path class="fil2" d="M1442.7 1103.93c43.402,0 82.6985,17.5961 111.145,46.0418 28.4469,28.4469 46.0418,67.7445 46.0418,111.145 0,43.402 -17.5949,82.6997 -46.0418,111.147 -28.4469,28.4457 -67.7434,46.0418 -111.145,46.0418 -43.4032,0 -82.6997,-17.5949 -111.145,-46.0418 -28.4469,-28.4469 -46.0418,-67.7445 -46.0418,-111.147 0,-43.402 17.5949,-82.6985 46.0418,-111.145 28.4457,-28.4469 67.7422,-46.0418 111.145,-46.0418z"/>
  <polygon class="fil0" points="1049.08,661.698 1049.08,886.479 985.076,886.479 985.076,661.698 "/>
  <polygon class="fil0" points="789.873,661.698 789.873,886.479 725.872,886.479 725.872,661.698 "/>
  <path class="fil3" d="M725.872 854.479l0 -160.78 -255.559 0c-17.3232,0 -30.5469,7.71733 -40.8792,19.6559 -12.9272,14.9362 -22.4705,36.5103 -29.9977,59.4709 -4.80355,14.6528 -11.1898,32.9032 -17.8618,51.9756 -3.38859,9.68505 -6.8563,19.6004 -10.3252,29.6776l354.623 0z"/>
  <polygon class="fil3" points="789.873,693.699 789.873,854.479 985.076,854.479 985.076,693.699 "/>
  <polygon class="fil3" points="1049.08,693.699 1049.08,854.479 1436.34,854.479 1163.87,693.699 "/>
  <path class="fil4" d="M1700.02 990.441l-121.634 0c-17.6728,0 -32.0008,14.328 -32.0008,32.0008 0,17.6728 14.328,32.0008 32.0008,32.0008l121.634 0c17.6728,0 32.0008,-14.328 32.0008,-32.0008 0,-17.6728 -14.328,-32.0008 -32.0008,-32.0008z"/>
  <path class="fil5" d="M632.684 1160.09c27.8941,0 53.152,11.3091 71.4355,29.5914 18.2823,18.2835 29.5914,43.5414 29.5914,71.4355 0,27.8953 -11.3091,53.152 -29.5914,71.4355 -18.2835,18.2823 -43.5402,29.5925 -71.4355,29.5925 -27.8965,0 -53.1532,-11.3102 -71.4355,-29.5925 -18.2823,-18.2835 -29.5914,-43.5402 -29.5914,-71.4355 0,-27.8953 11.3091,-53.152 29.5914,-71.4355 18.2823,-18.2823 43.539,-29.5914 71.4355,-29.5914z"/>
  <path class="fil5" d="M1442.7 1160.09c27.8941,0 53.152,11.3091 71.4355,29.5914 18.2823,18.2835 29.5914,43.5414 29.5914,71.4355 0,27.8953 -11.3091,53.152 -29.5914,71.4355 -18.2835,18.2823 -43.5402,29.5925 -71.4355,29.5925 -27.8965,0 -53.1532,-11.3102 -71.4355,-29.5925 -18.2823,-18.2835 -29.5914,-43.5402 -29.5914,-71.4355 0,-27.8953 11.3091,-53.152 29.5914,-71.4355 18.2823,-18.2823 43.539,-29.5914 71.4355,-29.5914z"/>
  <g id="_248992560">
   <polygon id="_248992632" class="fil6" points="1124.03,693.759 1087.07,693.759 1259.82,831.69 "/>
   <polygon id="_248992368" class="fil6" points="1311.99,854.479 1345.58,854.479 1188.58,729.123 "/>
  </g>
 </g>
 <rect class="fil7" width="2048" height="2048"/>
</svg>
