<?xml version="1.0" encoding="UTF-8"?>
<!DOCTYPE svg PUBLIC "-//W3C//DTD SVG 1.1//EN" "http://www.w3.org/Graphics/SVG/1.1/DTD/svg11.dtd">
<!-- Creator: CorelDRAW -->
<svg xmlns="http://www.w3.org/2000/svg" xml:space="preserve" width="2048px" height="2048px" style="shape-rendering:geometricPrecision; text-rendering:geometricPrecision; image-rendering:optimizeQuality; fill-rule:evenodd; clip-rule:evenodd"
viewBox="0 0 2048 2048"
 xmlns:xlink="http://www.w3.org/1999/xlink">
 <defs>
  <style type="text/css">
   <![CDATA[
    .fil9 {fill:none}
    .fil2 {fill:#C39C26}
    .fil1 {fill:#D5AA26}
    .fil7 {fill:#E3F2FD}
    .fil6 {fill:#E9B927}
    .fil0 {fill:#FFCA28}
    .fil4 {fill:#29B6F6;fill-rule:nonzero}
    .fil5 {fill:#424242;fill-rule:nonzero}
    .fil8 {fill:#ECEFF1;fill-rule:nonzero}
    .fil3 {fill:#FFCA28;fill-rule:nonzero}
   ]]>
  </style>
 </defs>
 <g id="Layer_x0020_1">
  <metadata id="CorelCorpID_0Corel-Layer"/>
  <polygon class="fil0" points="1158.72,1031.07 1305.22,1029.82 1305.22,765.015 1158.72,766.264 "/>
  <path class="fil1" d="M1611.08 1205.65c-31.3914,-31.3902 -91.1516,-43.278 -135.554,-43.278 -44.4024,0 -102.288,18.137 -133.678,49.5272 -13.6973,13.6984 -44.1296,36.9709 -52.2402,54.0863 -9.02953,19.0536 20.5914,57.2741 19.2791,78.6627l30.7866 0c2.50748,-33.5091 17.139,-63.6437 39.5209,-86.0268 24.6555,-24.6543 58.715,-39.9048 96.332,-39.9048 37.617,0 71.6776,15.2516 96.3331,39.9059 22.3819,22.3819 37.0134,52.5166 39.5209,86.0257l30.7866 0c6.88465,-41.2217 -2.13425,-110.045 -31.0866,-138.998z"/>
  <path class="fil2" d="M648.369 1211.27c-31.3914,-31.3902 -73.0264,-63.9024 -117.43,-63.9024 -44.4036,0 -112.912,12.5114 -144.304,43.9016 -13.6996,13.7008 -59.7556,36.9721 -67.8662,54.0863 -9.0319,19.0571 23.0918,77.9056 21.7807,99.2954l30.7866 0c2.50512,-33.5126 17.1378,-63.6497 39.5209,-86.0327 24.6555,-24.6543 58.715,-39.9059 96.332,-39.9059 37.6181,0 71.6776,15.2516 96.332,39.9059 22.3831,22.3831 37.017,52.5189 39.5221,86.0327l30.7866 0c-2.48858,-40.6004 3.4937,-104.425 -25.461,-133.381z"/>
  <path class="fil3" d="M1081.22 1001.12l620.634 0c24.8209,0 47.3646,10.1362 63.6863,26.4579 16.324,16.324 26.4567,38.8713 26.4567,63.6875l0 163.518c0,24.815 -10.135,47.3599 -26.4591,63.6839 -16.324,16.324 -38.8689,26.4591 -63.6839,26.4591l-59.6741 0c-2.42953,-40.7008 -19.5839,-79.0064 -48.6024,-108.026 -31.3914,-31.3902 -73.6524,-48.9024 -118.055,-48.9024 -44.4024,0 -86.6623,17.5099 -118.054,48.9024 -13.6996,13.6996 -24.7547,29.4697 -32.8654,46.5839l0 0.0011811c-9.06851,19.1362 -14.4543,39.9544 -15.737,61.441l-232.902 0c3.45118,-10.8626 5.25473,-22.2945 5.25473,-33.939l0 -247.873c0.282284,-0.366142 0.290551,-0.550394 0,-0.551575l0 -61.4422z"/>
  <path class="fil4" d="M1790.78 1076.48c0.800788,4.81418 1.21772,9.75355 1.21772,14.7874l0 149.286c-25.4339,-3.87048 -45.3508,-39.1642 -45.3508,-82.141 0,-42.2882 19.2839,-77.139 44.1331,-81.932z"/>
  <path class="fil3" d="M1158.72 801.616l286.803 0 155.545 234.761c9.34371,14.1165 28.3642,17.9847 42.4807,8.64095 14.1165,-9.34489 17.9847,-28.3654 8.64095,-42.4819l-163.545 -246.834c-5.28662,-9.27402 -15.2646,-15.5268 -26.7047,-15.5268l-303.22 0 0 61.441z"/>
  <path class="fil5" d="M1475.53 1218.72c37.617,0 71.6776,15.2516 96.3331,39.9059 24.6543,24.6543 39.9048,58.715 39.9048,96.332 0,37.617 -15.2504,71.6764 -39.9048,96.3308 -24.6567,24.6555 -58.7162,39.9059 -96.3331,39.9059 -37.617,0 -71.6764,-15.2504 -96.332,-39.9059 -24.6543,-24.6543 -39.9048,-58.7138 -39.9048,-96.3308 0,-37.617 15.2504,-71.6776 39.9048,-96.3331 24.6555,-24.6543 58.715,-39.9048 96.332,-39.9048z"/>
  <path class="fil5" d="M507.189 1218.72c37.6181,0 71.6776,15.2516 96.332,39.9059 24.6543,24.6532 39.9059,58.7138 39.9059,96.332 0,37.617 -15.2504,71.6764 -39.9048,96.3308 -24.6567,24.6555 -58.7162,39.9059 -96.3331,39.9059 -37.617,0 -71.6753,-15.2504 -96.332,-39.9059 -24.6543,-24.6543 -39.9048,-58.7138 -39.9048,-96.3308 0,-37.617 15.2504,-71.6776 39.9048,-96.332 24.6555,-24.6543 58.715,-39.9059 96.332,-39.9059z"/>
  <path class="fil6" d="M356.27 1283.48c8.11064,-17.1142 19.1658,-32.8843 32.8654,-46.5851 31.3914,-31.3902 73.6501,-48.9024 118.054,-48.9024 44.4036,0 86.6623,17.5122 118.054,48.9024 29.0185,29.0197 46.1741,67.3252 48.6036,108.026l455.002 0c22.4847,0 42.9059,-9.17835 57.6922,-23.9622 14.7839,-14.7874 23.9634,-35.2075 23.9634,-57.6922l0 -624.806c0,-22.4847 -9.17953,-42.9071 -23.9634,-57.6922 -14.7851,-14.7839 -35.2063,-23.9622 -57.6922,-23.9622l-791.194 0c-22.487,0 -42.9083,9.17717 -57.6934,23.961 -14.7839,14.7851 -23.9622,35.2063 -23.9622,57.6934l0 624.806c0,22.4858 9.17953,42.9071 23.9634,57.6922 14.7851,14.7839 35.2075,23.9622 57.6922,23.9622l2.87835 0c1.28268,-21.4854 6.66733,-42.3036 15.737,-61.441l0 0z"/>
  <path class="fil1" d="M356.27 1283.48c1.63937,-3.45827 3.39922,-6.86221 5.27599,-10.2059l-104.933 0c2.27953,18.5008 10.7917,35.1272 23.3492,47.6847 14.7851,14.7839 35.2075,23.9622 57.6922,23.9622l2.87835 0c1.28268,-21.4854 6.66733,-42.3036 15.737,-61.441l0 0zm84.7595 -81.8528c20.6646,-8.91969 43.1233,-13.6347 66.1595,-13.6347 23.0362,0 45.4949,4.71496 66.1595,13.6347l637.156 0 0 -71.6469 -954.505 0 0 71.6469 185.03 0zm211.803 71.6469c12.2634,21.8398 19.5,46.278 21.0142,71.6469l455.002 0c22.4847,0 42.9059,-9.17835 57.6922,-23.9622 12.5575,-12.5599 21.0697,-29.1839 23.3492,-47.6847l-557.058 0zm557.672 -214.941l0 -71.6469 -954.505 0 0 71.6469 954.505 0zm0 -143.293l0 -71.6469 -954.505 0 0 71.6469 954.505 0zm0 -143.294l0 -71.6469 -954.505 0 0 71.6469 954.505 0zm-0.614174 -143.294c-2.27953,-18.5008 -10.7917,-35.1272 -23.3492,-47.6847 -14.7851,-14.7839 -35.2063,-23.9622 -57.6922,-23.9622l-791.194 0c-22.487,0 -42.9083,9.17717 -57.6934,23.961 -12.5575,12.5587 -21.0685,29.1827 -23.348,47.6859l953.277 0z"/>
  <polygon class="fil1" points="1622.4,1025.12 1281.23,1025.12 1281.23,777.617 1458.41,777.617 "/>
  <polygon class="fil7" points="1577.71,1001.12 1445.53,801.616 1305.22,801.616 1305.22,1001.12 "/>
  <path class="fil8" d="M507.189 1283.57c19.7103,0 37.5567,7.99134 50.4733,20.9091 12.9177,12.9165 20.9091,30.763 20.9091,50.4721 0,19.7103 -7.99016,37.5555 -20.9079,50.4733 -12.9189,12.9177 -30.7642,20.9079 -50.4744,20.9079 -19.7091,0 -37.5544,-7.99016 -50.4721,-20.9079 -12.9177,-12.9177 -20.9079,-30.763 -20.9079,-50.4733 0,-19.7091 7.99016,-37.5544 20.9079,-50.4721 12.9177,-12.9177 30.763,-20.9091 50.4721,-20.9091z"/>
  <path class="fil8" d="M1475.53 1283.57c19.7103,0 37.5567,7.99134 50.4733,20.9091 12.9177,12.9165 20.9091,30.763 20.9091,50.4721 0,19.7103 -7.99016,37.5555 -20.9079,50.4733 -12.9189,12.9177 -30.7642,20.9079 -50.4744,20.9079 -19.7091,0 -37.5544,-7.99016 -50.4721,-20.9079 -12.9177,-12.9177 -20.9079,-30.763 -20.9079,-50.4733 0,-19.7091 7.99016,-37.5544 20.9079,-50.4721 12.9177,-12.9177 30.763,-20.9091 50.4721,-20.9091z"/>
 </g>
 <rect class="fil9" width="2048" height="2048"/>
</svg>
