<?xml version="1.0" encoding="UTF-8"?>
<!DOCTYPE svg PUBLIC "-//W3C//DTD SVG 1.1//EN" "http://www.w3.org/Graphics/SVG/1.1/DTD/svg11.dtd">
<!-- Creator: CorelDRAW -->
<svg xmlns="http://www.w3.org/2000/svg" xml:space="preserve" width="2048px" height="2048px" style="shape-rendering:geometricPrecision; text-rendering:geometricPrecision; image-rendering:optimizeQuality; fill-rule:evenodd; clip-rule:evenodd"
viewBox="0 0 2048 2048"
 xmlns:xlink="http://www.w3.org/1999/xlink">
 <defs>
  <style type="text/css">
   <![CDATA[
    .fil13 {fill:none}
    .fil12 {fill:#776E45}
    .fil6 {fill:#8C7F4D}
    .fil5 {fill:#CEC295}
    .fil7 {fill:#E3F2FD}
    .fil3 {fill:#424242;fill-rule:nonzero}
    .fil9 {fill:#4E342E;fill-rule:nonzero}
    .fil8 {fill:#6D4C41;fill-rule:nonzero}
    .fil1 {fill:#6E6641;fill-rule:nonzero}
    .fil0 {fill:#8C7F4D;fill-rule:nonzero}
    .fil2 {fill:#B4A15D;fill-rule:nonzero}
    .fil4 {fill:#D3C8A0;fill-rule:nonzero}
    .fil11 {fill:#EF6C00;fill-rule:nonzero}
    .fil10 {fill:#FFCC80;fill-rule:nonzero}
   ]]>
  </style>
 </defs>
 <g id="Layer_x0020_1">
  <metadata id="CorelCorpID_0Corel-Layer"/>
  <polygon class="fil0" points="405.136,1141.7 503.71,898.688 817.058,902.613 901.266,1141.7 "/>
  <path class="fil1" d="M485.651 943.208l18.0591 -44.5193 313.348 3.92481 16.2248 46.0654 -80.243 46.3288c-90.28,52.1233 -204.735,28.0607 -267.389,-51.7996z"/>
  <path class="fil2" d="M344.055 1485.16l-2.99882 0 -1.05827 0c-46.2,0 -83.9989,-37.7988 -83.9989,-83.9989l0 -1.05827 0 -29.0516 0 -228.019 0.0011811 0 0 -16.0039 962.273 0 0 64.0016 -2.19449 0c1.42205,4.41851 2.19449,9.12284 2.19449,13.9984l0 18.0024 32.0008 0 0 177.072c0,23.4213 -9.56103,44.6929 -24.9614,60.0957 -15.4028,15.4004 -36.6744,24.9614 -60.0957,24.9614l-254.254 0 -219.708 0 -347.201 0z"/>
  <path class="fil0" d="M683.242 1485.16l-331.173 0c2.51811,-40.2709 19.5437,-78.1418 48.2705,-106.87 31.2,-31.1988 73.1847,-48.5977 117.315,-48.5977 44.1307,0 86.1154,17.3988 117.315,48.5977 28.7268,28.728 45.7536,66.5989 48.2717,106.87z"/>
  <path class="fil2" d="M1218.27 1127.03l479.828 0c25.8555,0 49.3382,10.5579 66.3402,27.5599 17.0043,17.0043 27.5599,40.4906 27.5599,66.3414l0 170.33c0,25.8496 -10.5579,49.3335 -27.5622,66.3378 -17.0043,17.0043 -40.4882,27.5622 -66.3378,27.5622l-21.8965 0 -40.2638 0 -347.201 0 -27.5362 0 -149.043 0 0 -64.0016 55.9914 0 0 -261.236 50.1213 0 0 -32.8937z"/>
  <path class="fil0" d="M1627.93 1485.16l-331.173 0c2.51811,-40.2709 19.5437,-78.1418 48.2705,-106.871 31.1988,-31.1988 73.1847,-48.5965 117.315,-48.5965 44.1307,0 86.1166,17.3988 117.317,48.5977 28.7268,28.728 45.7524,66.5989 48.2705,106.87z"/>
  <path class="fil2" d="M1218.27 855.212c-17.6728,0 -32.0008,14.328 -32.0008,32.0008 0,17.6728 14.328,32.0008 32.0008,32.0008l212.817 0 162.026 244.543c9.73347,14.7047 29.5465,18.7335 44.2512,9.00001 14.7047,-9.73347 18.7335,-29.5465 9.00001,-44.2512l-170.359 -257.119c-5.50748,-9.66024 -15.9012,-16.174 -27.8173,-16.174l-229.918 0z"/>
  <path class="fil3" d="M1462.34 1353.69c39.1843,0 74.6646,15.887 100.347,41.5689 25.6819,25.6819 41.5677,61.1611 41.5677,100.345 0,39.1843 -15.8858,74.6634 -41.5677,100.345 -25.6831,25.6819 -61.1623,41.5677 -100.347,41.5677 -39.1843,0 -74.6634,-15.8858 -100.345,-41.5677 -25.6819,-25.6819 -41.5677,-61.1611 -41.5677,-100.345 0,-39.1843 15.8858,-74.6634 41.5677,-100.347 25.6819,-25.6819 61.1611,-41.5677 100.345,-41.5677z"/>
  <path class="fil3" d="M517.655 1353.69c39.1855,0 74.6646,15.887 100.345,41.5689 25.6819,25.6807 41.5689,61.1599 41.5689,100.345 0,39.1843 -15.8858,74.6634 -41.5677,100.345 -25.6831,25.6819 -61.1623,41.5677 -100.347,41.5677 -39.1843,0 -74.6623,-15.8858 -100.345,-41.5677 -25.6819,-25.6819 -41.5677,-61.1611 -41.5677,-100.345 0,-39.1843 15.8858,-74.6634 41.5677,-100.345 25.6819,-25.6819 61.1611,-41.5689 100.345,-41.5689z"/>
  <polygon class="fil2" points="1250.27,887.213 1250.27,1311.57 1186.27,1311.57 1186.27,887.213 "/>
  <path class="fil4" d="M517.655 1408.3c24.1075,0 45.9343,9.77363 61.7339,25.5732 15.7996,15.7996 25.5732,37.6264 25.5732,61.7339 0,24.1063 -9.77363,45.9331 -25.5732,61.7327 -15.7996,15.7996 -37.6264,25.5732 -61.7339,25.5732 -24.1063,0 -45.9319,-9.77363 -61.7327,-25.5732 -15.7996,-15.7996 -25.5732,-37.6264 -25.5732,-61.7327 0,-24.1075 9.77363,-45.9343 25.5732,-61.7339 15.7996,-15.7996 37.6264,-25.5732 61.7327,-25.5732z"/>
  <path class="fil4" d="M1462.34 1408.3c24.1075,0 45.9343,9.77363 61.7339,25.5732 15.7996,15.7996 25.5732,37.6264 25.5732,61.7339 0,24.1063 -9.77363,45.9331 -25.5732,61.7327 -15.7996,15.7996 -37.6264,25.5732 -61.7339,25.5732 -24.1063,0 -45.9319,-9.77363 -61.7327,-25.5732 -15.7996,-15.7996 -25.5732,-37.6264 -25.5732,-61.7327 0,-24.1075 9.77363,-45.9343 25.5732,-61.7339 15.7996,-15.7996 37.6264,-25.5732 61.7327,-25.5732z"/>
  <path class="fil5" d="M1561.73 1297.98l142.025 0c17.6728,0 32.0008,-14.328 32.0008,-32.0008 0,-17.6728 -14.328,-32.0008 -32.0008,-32.0008l-142.025 0c-17.6728,0 -32.0008,14.328 -32.0008,32.0008 0,17.6728 14.328,32.0008 32.0008,32.0008z"/>
  <polygon class="fil6" points="1226.28,1151.03 1226.28,895.215 1443.98,895.215 1613.47,1151.03 "/>
  <polygon class="fil7" points="1250.27,1127.03 1568.78,1127.03 1431.09,919.214 1250.27,919.214 "/>
  <path class="fil6" d="M948.133 1212.92c112.286,91.4552 129.538,-97.2509 164.158,137.404 -41.6717,3.77362 -104.56,-49.6453 -140.015,-27.4299l-74.8276 46.8851c-158.195,99.1205 -54.7678,-242.749 50.6847,-156.859z"/>
  <path class="fil6" d="M713.783 1212.63c1.23662,95.4768 103.981,24.3851 -0.0625985,141.149 -19.5354,-19.4811 -19.1162,-73.8851 -45.3496,-82.4209l-55.3654 -18.0165c-117.047,-38.0894 99.6166,-130.38 100.778,-40.7114z"/>
  <path class="fil6" d="M1296.22 1325.57c-88.0123,-37.0335 -63.9189,85.5638 -129.357,-56.4827 25.6666,-10.1185 75.3674,12.0142 93.6792,-8.61969l38.6457 -43.5473c81.704,-92.0623 79.6867,143.431 -2.96811,108.65z"/>
  <path class="fil6" d="M340.832 1350.94c0.624804,48.202 52.4953,12.3106 -0.0318898,71.2595 -9.86221,-9.83505 -9.65079,-37.3004 -22.8945,-41.6103l-27.9508 -9.09568c-59.0918,-19.2295 50.2914,-65.8217 50.8772,-20.5536z"/>
  <path class="fil6" d="M316.936 1191.7c57.9071,-6.93898 8.07166,-64.7304 85.728,-9.10867 -10.565,13.1268 -43.6323,16.3973 -47.1178,32.8831l-7.35355 34.7918c-15.5469,73.5556 -85.6383,-52.05 -31.2567,-58.5662z"/>
  <path class="fil6" d="M1188.1 1378.37c-38.9174,32.3977 -45.6567,-33.5185 -56.8819,48.6579 14.5843,1.16339 36.3721,-17.7508 48.8528,-10.1161l26.3386 16.1138c55.6831,34.0642 18.241,-85.082 -18.3095,-54.6556z"/>
  <path class="fil6" d="M786.716 1404.51c-43.0843,-5.1626 -6.00473,-48.163 -63.7855,-6.77717 7.86142,9.76654 32.465,12.2008 35.0575,24.4666l5.47205 25.8874c11.5677,54.7288 63.7193,-38.7284 23.2559,-43.5768z"/>
  <path class="fil6" d="M489.988 1219.57c-37.2922,31.0441 -43.7492,-32.1189 -54.5067,46.6252 13.9748,1.11496 34.8544,-17.0091 46.813,-9.69331l25.239 15.4406c53.3575,32.6422 17.4791,-81.528 -17.5453,-52.3725z"/>
  <path class="fil6" d="M1710.97 1372.24c-60.9827,-2.10118 -14.1496,-66.7666 -90.1796,-1.89803 12.1784,12.7476 46.9418,13.2272 52.0359,30.1051l10.7492 35.6197c22.7268,75.3036 84.6662,-61.852 27.3945,-63.8268z"/>
  <g id="_413047360">
   <path id="_413047480" class="fil8" d="M1164.96 521.11c-1.72323,6.40867 -6.59292,13.7362 -13.8036,20.9599 -6.70276,6.71339 -15.5197,13.4658 -25.7481,19.3713 -2.43425,1.40551 -4.96181,2.75906 -7.55788,4.05709 -2.50748,1.25315 -5.06103,2.42717 -7.63701,3.51851l-0.0011811 -0.00236221 -0.0425197 0.0177165 -4.18583 1.78347 -2.11536 -3.6626 -12.6343 -21.8823 -2.11417 -3.6626 3.6378 -2.73425 0.140551 -0.106299 -0.0011811 -0.00236221c2.22284,-1.67362 4.5,-3.28465 6.81851,-4.81418 2.40591,-1.5874 4.82363,-3.08622 7.23544,-4.47874 10.2284,-5.90552 20.4851,-10.1646 29.6492,-12.613 9.86103,-2.63268 18.6425,-3.18544 25.0536,-1.47402l4.52008 1.20709 -1.21417 4.51772z"/>
   <path id="_413047456" class="fil9" d="M1114.25 569.802c-11.289,5.8878 -23.6457,13.4717 -28.1185,26.1555l-2.27362 2.7567 -104.136 60.1217 -4.47048 2.58189 -2.58071 -4.47166 -24.7961 -42.9473 -2.58071 -4.47048 4.47048 -2.58189 104.134 -60.1217 3.52441 -0.591733c13.2213,2.46851 25.9666,-4.44095 36.7111,-11.2724 6.70512,11.6138 13.4102,23.2276 20.1154,34.8414z"/>
   <path id="_413047600" class="fil10" d="M1114.25 569.802c-3.11457,1.62402 -6.30945,3.37796 -9.39804,5.3315l-20.0339 -34.7008c3.23622,-1.69843 6.35197,-3.58819 9.31654,-5.47205 6.70512,11.6138 13.4102,23.2276 20.1154,34.8414z"/>
   <path id="_413047528" class="fil11" d="M937.016 615.108c-1.42559,-2.46851 -0.579922,-5.62559 1.88977,-7.05119 2.46851,-1.42559 5.62678,-0.579922 7.05237,1.88977l29.263 50.6859c1.42559,2.46851 0.579922,5.62678 -1.88977,7.05237 -2.46851,1.42441 -5.62678,0.578741 -7.05119,-1.88977l-29.2642 -50.687z"/>
  </g>
  <g id="_413046880">
   <path id="_413047192" class="fil8" d="M1224.96 625.033c-1.72323,6.40867 -6.59292,13.7374 -13.8036,20.9599 -6.70276,6.71339 -15.5197,13.4658 -25.7481,19.3713 -2.43425,1.40551 -4.96181,2.76024 -7.55788,4.05709 -2.50748,1.25433 -5.06103,2.42835 -7.63701,3.51851l-0.0011811 -0.00236221 -0.0425197 0.0177165 -4.18583 1.78347 -2.11536 -3.6626 -12.6343 -21.8823 -2.11417 -3.6626 3.6378 -2.73425 0.140551 -0.106299 -0.0011811 -0.0011811c2.22284,-1.6748 4.5,-3.28583 6.81851,-4.81536 2.40591,-1.5874 4.82363,-3.08622 7.23544,-4.47874 10.2284,-5.90552 20.4851,-10.1646 29.6492,-12.6118 9.86103,-2.63386 18.6425,-3.18662 25.0536,-1.4752l4.52008 1.20709 -1.21417 4.51772z"/>
   <path id="_413046472" class="fil9" d="M1174.25 673.725c-11.289,5.8878 -23.6457,13.4717 -28.1185,26.1555l-2.27362 2.7567 -104.136 60.1217 -4.47048 2.58189 -2.58071 -4.47166 -24.7961 -42.9473 -2.58071 -4.47048 4.47048 -2.58071 104.134 -60.1229 3.52441 -0.590552c13.2213,2.46732 25.9666,-4.44213 36.7111,-11.2736 6.70512,11.6138 13.4102,23.2276 20.1154,34.8414z"/>
   <path id="_413046616" class="fil10" d="M1174.25 673.725c-3.11457,1.62402 -6.30945,3.37796 -9.39804,5.3315l-20.0339 -34.7008c3.23622,-1.69725 6.35197,-3.58819 9.31654,-5.47205 6.70512,11.6138 13.4102,23.2276 20.1154,34.8414z"/>
   <path id="_413046232" class="fil11" d="M997.017 719.032c-1.42559,-2.46969 -0.579922,-5.62678 1.88977,-7.05237 2.46851,-1.42559 5.62678,-0.579922 7.05237,1.88977l29.263 50.6859c1.42559,2.46851 0.579922,5.62678 -1.88977,7.05237 -2.46851,1.42559 -5.62678,0.578741 -7.05119,-1.88977l-29.2642 -50.6859z"/>
  </g>
  <g id="_413046520">
   <path id="_413046832" class="fil8" d="M1104.96 417.187c-1.72323,6.40749 -6.59292,13.7362 -13.8036,20.9599 -6.70276,6.71339 -15.5197,13.4658 -25.7481,19.3713 -2.43425,1.40551 -4.96181,2.75906 -7.55788,4.05709 -2.50748,1.25315 -5.06103,2.42717 -7.63701,3.51733l-0.0011811 -0.00236221 -0.0425197 0.0188977 -4.18583 1.78347 -2.11536 -3.66378 -12.6343 -21.8811 -2.11417 -3.6626 3.6378 -2.73425 0.140551 -0.106299 -0.0011811 -0.00236221c2.22284,-1.67362 4.5,-3.28465 6.81851,-4.81418 2.40591,-1.5874 4.82363,-3.08622 7.23544,-4.47874 10.2284,-5.90552 20.4851,-10.1658 29.6492,-12.613 9.86103,-2.63268 18.6425,-3.18544 25.0536,-1.47402l4.52008 1.20709 -1.21417 4.51772z"/>
   <path id="_413046784" class="fil9" d="M1054.25 465.878c-11.289,5.88898 -23.6457,13.4728 -28.1185,26.1555l-2.27362 2.7567 -104.136 60.1229 -4.47048 2.58071 -2.58071 -4.47048 -24.7961 -42.9473 -2.58071 -4.47048 4.47048 -2.58189 104.134 -60.1217 3.52441 -0.591733c13.2213,2.46851 25.9666,-4.44213 36.7111,-11.2724 6.70512,11.6126 13.4102,23.2264 20.1154,34.8402z"/>
   <path id="_413046568" class="fil10" d="M1054.25 465.878c-3.11457,1.6252 -6.30945,3.37796 -9.39804,5.33268l-20.0339 -34.7008c3.23622,-1.69843 6.35197,-3.58819 9.31654,-5.47205 6.70512,11.6126 13.4102,23.2264 20.1154,34.8402z"/>
   <path id="_413046592" class="fil11" d="M877.016 511.185c-1.42559,-2.46851 -0.579922,-5.62678 1.88977,-7.05119 2.46851,-1.42559 5.62678,-0.579922 7.05237,1.88858l29.263 50.687c1.42559,2.46851 0.579922,5.62559 -1.88977,7.05119 -2.46851,1.42559 -5.62678,0.579922 -7.05119,-1.88977l-29.2642 -50.6859z"/>
  </g>
  <rect class="fil12" transform="matrix(0.558368 -0.322374 0.322374 0.558368 723.4 588.998)" width="430.002" height="120"/>
  <rect class="fil12" transform="matrix(0.558368 -0.322374 0.322374 0.558368 783.4 692.922)" width="430.002" height="120"/>
  <rect class="fil12" transform="matrix(0.558368 -0.322374 0.322374 0.558368 843.4 796.845)" width="430.002" height="120"/>
  <path class="fil6" d="M557.291 655.958l159.132 -91.8757 183.751 318.266 -159.134 91.8757c-87.5233,50.5311 -200.476,20.2654 -251.007,-67.2579l-0.0011811 -0.0011811c-50.5311,-87.5233 -20.2666,-200.476 67.2579,-251.007z"/>
 </g>
 <rect class="fil13" width="2048" height="2048"/>
</svg>
