<?xml version="1.0" encoding="UTF-8"?>
<!DOCTYPE svg PUBLIC "-//W3C//DTD SVG 1.1//EN" "http://www.w3.org/Graphics/SVG/1.1/DTD/svg11.dtd">
<!-- Creator: CorelDRAW -->
<svg xmlns="http://www.w3.org/2000/svg" xml:space="preserve" width="2048px" height="2048px" style="shape-rendering:geometricPrecision; text-rendering:geometricPrecision; image-rendering:optimizeQuality; fill-rule:evenodd; clip-rule:evenodd"
viewBox="0 0 2048 2048"
 xmlns:xlink="http://www.w3.org/1999/xlink">
 <defs>
  <style type="text/css">
   <![CDATA[
    .fil9 {fill:none}
    .fil2 {fill:#424242}
    .fil3 {fill:#757575}
    .fil5 {fill:#C84A47}
    .fil8 {fill:#E3F2FD}
    .fil6 {fill:#263238;fill-rule:nonzero}
    .fil7 {fill:#424242;fill-rule:nonzero}
    .fil4 {fill:#C84A47;fill-rule:nonzero}
    .fil1 {fill:#E53935;fill-rule:nonzero}
    .fil0 {fill:#EF5350;fill-rule:nonzero}
   ]]>
  </style>
 </defs>
 <g id="Layer_x0020_1">
  <metadata id="CorelCorpID_0Corel-Layer"/>
  <path class="fil0" d="M1167.01 879.703l26.8406 0 404.517 0c19.1362,0 33.8882,12.4299 42.2315,32.4579 4.81063,11.5406 7.79646,26.7355 7.79646,42.7996l0 16.9866 0 93.4052 0 169.096 -1364.09 0 0 -92.7544 0 -169.747 0 -16.9866c0,-19.7469 7.22953,-37.9713 18.8728,-51.4252 12.7252,-14.7036 30.6083,-23.8323 50.5666,-23.8323l813.26 0z"/>
  <path class="fil1" d="M1648.39 1109.22l0 125.232 -1364.09 0 0 -61.3146c1.28504,-1.35236 2.5878,-2.68937 3.91063,-4.01221 35.0823,-35.0823 80.902,-57.3426 130.241,-62.8583l27.0095 -3.02008 0.467717 1.66417 84.6225 0 1071.2 0 0.459449 -1.68189 27.1831 3.02126c6.39567,0.711024 12.7311,1.70433 18.9921,2.96929z"/>
  <path class="fil2" d="M1024.01 1346.58c-12.6662,0 -22.9512,-10.2709 -22.9512,-22.9276 0,-12.652 10.285,-22.9264 22.95,-22.9264 12.6567,0 22.9465,10.2744 22.9465,22.9264 0.0011811,12.6567 -10.2898,22.9276 -22.9453,22.9276zm44.439 -67.3371c-11.3386,-11.3303 -27.0355,-18.3177 -44.4402,-18.3177 -17.2807,0 -33.104,6.98741 -44.4473,18.3177 -11.3445,11.3386 -18.4618,27.1418 -18.4618,44.4095 0,17.4 7.11733,33.0862 18.4618,44.4166 11.3433,11.4662 27.0343,18.4536 44.4473,18.4536 17.4047,0 33.1004,-6.98741 44.439,-18.4536 11.4803,-11.3303 18.463,-27.0166 18.463,-44.4166 0.0011811,-17.2677 -6.98268,-33.0709 -18.4618,-44.4095z"/>
  <path class="fil2" d="M770.523 1346.58c-12.6614,0 -22.9477,-10.2709 -22.9477,-22.9276 0.0011811,-12.652 10.2862,-22.9264 22.9465,-22.9264 12.6626,0 22.9512,10.2744 22.9512,22.9264 0,12.6567 -10.2886,22.9276 -22.95,22.9276zm44.4473 -67.3371c-11.4756,-11.3303 -27.1713,-18.3177 -44.4485,-18.3177 -17.4036,0 -33.0992,6.98741 -44.5737,18.3177 -11.3445,11.3386 -18.3331,27.1418 -18.3331,44.4095 0,17.4 6.98859,33.0862 18.3331,44.4166 11.4744,11.4662 27.1701,18.4536 44.5737,18.4536 17.2784,0 32.9729,-6.98741 44.4485,-18.4536 11.3386,-11.3303 18.3319,-27.0166 18.3319,-44.4166 0,-17.2677 -6.99331,-33.0709 -18.3319,-44.4095z"/>
  <path class="fil2" d="M1277.61 1346.58c-12.6614,0 -22.95,-10.2709 -22.95,-22.9276 0,-12.652 10.2886,-22.9264 22.95,-22.9264 12.6614,0 22.9465,10.2744 22.9465,22.9264 0,12.6567 -10.2862,22.9276 -22.9465,22.9276zm44.4485 -67.3371c-11.3492,-11.3303 -27.1725,-18.3177 -44.4485,-18.3177 -17.4083,0 -33.104,6.98741 -44.4437,18.3177 -11.4744,11.3386 -18.4618,27.1418 -18.4618,44.4095 0,17.4 6.98741,33.0862 18.4618,44.4166 11.3398,11.4662 27.0343,18.4536 44.4437,18.4536 17.276,0 33.0992,-6.98741 44.4485,-18.4536 11.3386,-11.3303 18.4583,-27.0166 18.4583,-44.4166 0,-17.2677 -7.11969,-33.0709 -18.4583,-44.4095z"/>
  <rect class="fil3" x="312.177" y="1178.42" width="1411.46" height="290.594" rx="145.297" ry="145.297"/>
  <path class="fil0" d="M828.758 1365.17c11.3906,0 21.7488,4.6441 29.2914,12.1606l0.0295276 0.0307087 0.0011811 0.00236221 0.0330709 -0.0330709c0.357874,0.359055 0.69567,0.732284 1.01221,1.11732 6.91654,7.44095 11.1461,17.3669 11.1461,28.2343 0,11.4626 -4.64764,21.841 -12.1606,29.354 -7.51182,7.51182 -17.8925,12.1595 -29.3528,12.1595 -11.4626,0 -21.841,-4.64764 -29.3528,-12.1595 -7.513,-7.513 -12.1606,-17.8914 -12.1606,-29.354 0,-11.4591 4.64764,-21.8398 12.1606,-29.3528 7.51182,-7.513 17.8902,-12.1595 29.3528,-12.1595z"/>
  <path class="fil4" d="M828.758 1387.27c5.32678,0 10.1705,2.17205 13.6973,5.68701l0.0141732 0.0141732 0 0 0.0153543 -0.0141732c0.167717,0.167717 0.324803,0.34252 0.473622,0.522048 3.23386,3.47953 5.21221,8.12127 5.21221,13.2024 0,5.36103 -2.17323,10.213 -5.68701,13.7268 -3.5126,3.5126 -8.36694,5.68583 -13.7256,5.68583 -5.35985,0 -10.213,-2.17323 -13.7256,-5.68583 -3.5126,-3.51378 -5.68583,-8.36575 -5.68583,-13.7268 0,-5.35867 2.17323,-10.213 5.68583,-13.7256 3.5126,-3.5126 8.36575,-5.68583 13.7256,-5.68583z"/>
  <path class="fil0" d="M1024 1200c11.3906,0 21.7488,4.6441 29.2914,12.1618l0.0295276 0.0307087 0.0011811 0.0011811 0.0318898 -0.0318898c0.359055,0.357874 0.69567,0.732284 1.01339,1.11732 6.91654,7.43977 11.1449,17.3658 11.1449,28.2343 0,11.4626 -4.64646,21.8398 -12.1595,29.3528 -7.513,7.513 -17.8937,12.1595 -29.3528,12.1595 -11.4626,0 -21.841,-4.64646 -29.354,-12.1595 -7.51182,-7.513 -12.1595,-17.8902 -12.1595,-29.3528 0,-11.4602 4.64764,-21.841 12.1595,-29.354 7.513,-7.51182 17.8914,-12.1595 29.354,-12.1595z"/>
  <path class="fil4" d="M1024 1222.1c5.32559,0 10.1693,2.17205 13.6973,5.68701l0.0129921 0.0141732 0.0011811 0.0011811 0.0153543 -0.0153543c0.167717,0.167717 0.324803,0.34252 0.473622,0.522048 3.23386,3.47953 5.21103,8.12127 5.21103,13.2036 0,5.35985 -2.17323,10.213 -5.68583,13.7256 -3.5126,3.5126 -8.36694,5.68583 -13.7256,5.68583 -5.35985,0 -10.213,-2.17323 -13.7256,-5.68583 -3.51378,-3.5126 -5.68701,-8.36575 -5.68701,-13.7256 0,-5.35867 2.17323,-10.213 5.68701,-13.7256 3.5126,-3.51378 8.36575,-5.68701 13.7256,-5.68701z"/>
  <path class="fil0" d="M1024 1365.17c11.3906,0 21.7488,4.6441 29.2914,12.1606l0.0295276 0.0307087 0.0011811 0.00236221 0.0318898 -0.0330709c0.359055,0.359055 0.69567,0.732284 1.01339,1.11732 6.91654,7.44095 11.1449,17.3669 11.1449,28.2343 0,11.4626 -4.64646,21.841 -12.1595,29.354 -7.513,7.51182 -17.8937,12.1595 -29.3528,12.1595 -11.4626,0 -21.841,-4.64764 -29.354,-12.1595 -7.51182,-7.513 -12.1595,-17.8914 -12.1595,-29.354 0,-11.4591 4.64764,-21.8398 12.1595,-29.3528 7.513,-7.513 17.8914,-12.1595 29.354,-12.1595z"/>
  <path class="fil4" d="M1024 1387.27c5.32559,0 10.1693,2.17205 13.6973,5.68701l0.0129921 0.0141732 0.0011811 0 0.0153543 -0.0141732c0.167717,0.167717 0.324803,0.34252 0.473622,0.522048 3.23386,3.47953 5.21103,8.12127 5.21103,13.2024 0,5.36103 -2.17323,10.213 -5.68583,13.7268 -3.5126,3.5126 -8.36694,5.68583 -13.7256,5.68583 -5.35985,0 -10.213,-2.17323 -13.7256,-5.68583 -3.51378,-3.51378 -5.68701,-8.36575 -5.68701,-13.7268 0,-5.35867 2.17323,-10.213 5.68701,-13.7256 3.5126,-3.5126 8.36575,-5.68583 13.7256,-5.68583z"/>
  <path class="fil0" d="M1219.25 1200c11.3906,0 21.7488,4.6441 29.2925,12.1618l0.0283465 0.0307087 0.00236221 0.0011811 0.0318898 -0.0318898c0.359055,0.357874 0.69567,0.732284 1.01221,1.11732 6.91654,7.43977 11.1461,17.3658 11.1461,28.2343 0,11.4626 -4.64764,21.8398 -12.1595,29.3528 -7.513,7.513 -17.8937,12.1595 -29.354,12.1595 -11.4626,0 -21.8398,-4.64646 -29.3528,-12.1595 -7.513,-7.513 -12.1595,-17.8902 -12.1595,-29.3528 0,-11.4602 4.64646,-21.841 12.1595,-29.354 7.513,-7.51182 17.8902,-12.1595 29.3528,-12.1595z"/>
  <path class="fil4" d="M1219.25 1222.1c5.32678,0 10.1705,2.17205 13.6973,5.68701l0.0141732 0.0141732 0 0.0011811 0.0153543 -0.0153543c0.167717,0.167717 0.325985,0.34252 0.473622,0.522048 3.23504,3.47953 5.21221,8.12127 5.21221,13.2036 0,5.35985 -2.17323,10.213 -5.68583,13.7256 -3.51378,3.5126 -8.36812,5.68583 -13.7268,5.68583 -5.35985,0 -10.213,-2.17323 -13.7256,-5.68583 -3.5126,-3.5126 -5.68583,-8.36575 -5.68583,-13.7256 0,-5.35867 2.17323,-10.213 5.68583,-13.7256 3.5126,-3.51378 8.36575,-5.68701 13.7256,-5.68701z"/>
  <path class="fil0" d="M1219.25 1365.17c11.3906,0 21.7488,4.6441 29.2925,12.1606l0.0283465 0.0307087 0.00236221 0.00236221 0.0318898 -0.0330709c0.359055,0.359055 0.69567,0.732284 1.01221,1.11732 6.91654,7.44095 11.1461,17.3669 11.1461,28.2343 0,11.4626 -4.64764,21.841 -12.1595,29.354 -7.513,7.51182 -17.8937,12.1595 -29.354,12.1595 -11.4626,0 -21.8398,-4.64764 -29.3528,-12.1595 -7.513,-7.513 -12.1595,-17.8914 -12.1595,-29.354 0,-11.4591 4.64646,-21.8398 12.1595,-29.3528 7.513,-7.513 17.8902,-12.1595 29.3528,-12.1595z"/>
  <path class="fil4" d="M1219.25 1387.27c5.32678,0 10.1705,2.17205 13.6973,5.68701l0.0141732 0.0141732 0 0 0.0153543 -0.0141732c0.167717,0.167717 0.325985,0.34252 0.473622,0.522048 3.23504,3.47953 5.21221,8.12127 5.21221,13.2024 0,5.36103 -2.17323,10.213 -5.68583,13.7268 -3.51378,3.5126 -8.36812,5.68583 -13.7268,5.68583 -5.35985,0 -10.213,-2.17323 -13.7256,-5.68583 -3.5126,-3.51378 -5.68583,-8.36575 -5.68583,-13.7268 0,-5.35867 2.17323,-10.213 5.68583,-13.7256 3.5126,-3.5126 8.36575,-5.68583 13.7256,-5.68583z"/>
  <path class="fil0" d="M828.758 1200c11.3906,0 21.7488,4.6441 29.2914,12.1618l0.0295276 0.0307087 0.0011811 0.0011811 0.0330709 -0.0318898c0.357874,0.357874 0.69567,0.732284 1.01221,1.11732 6.91654,7.43977 11.1461,17.3658 11.1461,28.2343 0,11.4626 -4.64764,21.8398 -12.1606,29.3528 -7.51182,7.513 -17.8925,12.1595 -29.3528,12.1595 -11.4626,0 -21.841,-4.64646 -29.3528,-12.1595 -7.513,-7.513 -12.1606,-17.8902 -12.1606,-29.3528 0,-11.4602 4.64764,-21.841 12.1606,-29.354 7.51182,-7.51182 17.8902,-12.1595 29.3528,-12.1595z"/>
  <path class="fil4" d="M828.758 1222.1c5.32678,0 10.1705,2.17205 13.6973,5.68701l0.0141732 0.0141732 0 0.0011811 0.0153543 -0.0153543c0.167717,0.167717 0.324803,0.34252 0.473622,0.522048 3.23386,3.47953 5.21221,8.12127 5.21221,13.2036 0,5.35985 -2.17323,10.213 -5.68701,13.7256 -3.5126,3.5126 -8.36694,5.68583 -13.7256,5.68583 -5.35985,0 -10.213,-2.17323 -13.7256,-5.68583 -3.5126,-3.5126 -5.68583,-8.36575 -5.68583,-13.7256 0,-5.35867 2.17323,-10.213 5.68583,-13.7256 3.5126,-3.51378 8.36575,-5.68701 13.7256,-5.68701z"/>
  <g id="_385732504">
   <polygon id="_385733464" class="fil5" points="567.578,1379.61 553.604,1403.82 535.04,1398.03 492.654,1373.56 517.379,1416.38 522.915,1434.51 498.71,1448.48 485.527,1434.19 461.054,1391.8 461.054,1440.75 456.785,1459.72 428.835,1459.72 424.566,1441.25 424.566,1391.8 400.095,1434.19 386.913,1448.48 362.707,1434.51 368.243,1416.38 392.967,1373.56 350.582,1398.03 332.019,1403.82 318.044,1379.61 331.899,1366.68 374.724,1341.96 325.781,1341.96 306.81,1337.69 306.81,1309.74 325.276,1305.47 374.724,1305.47 332.34,1281 318.044,1267.82 332.019,1243.61 350.144,1249.15 392.968,1273.88 368.497,1231.49 362.707,1212.93 386.915,1198.95 399.844,1212.81 424.566,1255.63 424.566,1206.18 428.835,1187.72 456.785,1187.72 461.054,1206.69 461.054,1255.63 485.778,1212.81 498.707,1198.95 522.913,1212.92 517.125,1231.49 492.654,1273.87 535.478,1249.15 553.603,1243.61 567.578,1267.82 553.282,1281 510.898,1305.47 560.346,1305.47 578.811,1309.74 578.813,1337.69 559.841,1341.96 510.898,1341.96 553.722,1366.68 "/>
   <ellipse id="_385733704" class="fil5" cx="442.811" cy="1323.38" rx="77.245" ry="77.245"/>
   <path id="_385733368" class="fil0" d="M442.811 1204.93c32.7036,0 62.3174,13.2602 83.752,34.6949 21.4347,21.4347 34.6949,51.0473 34.6949,83.752 0,32.7047 -13.2602,62.3174 -34.6949,83.752 -21.4347,21.4347 -51.0485,34.6949 -83.752,34.6949 -32.7047,0 -62.3174,-13.2602 -83.752,-34.6949 -21.4347,-21.4347 -34.6949,-51.0473 -34.6949,-83.752 0,-32.7047 13.2602,-62.3174 34.6949,-83.752 21.4347,-21.4347 51.0473,-34.6949 83.752,-34.6949zm46.5319 71.915c-11.9055,-11.9043 -28.3583,-19.2709 -46.5319,-19.2709 -18.1736,0 -34.6264,7.36654 -46.5319,19.2709 -11.9043,11.9055 -19.2709,28.3583 -19.2709,46.5319 0,18.1736 7.36654,34.6264 19.2709,46.5319 11.9055,11.9043 28.3583,19.2709 46.5319,19.2709 18.1736,0 34.6264,-7.36654 46.5319,-19.2709 11.9043,-11.9055 19.2709,-28.3583 19.2709,-46.5319 0,-18.1736 -7.36654,-34.6264 -19.2709,-46.5319z"/>
   <path id="_385733224" class="fil0" d="M442.811 1297.06c7.22245,0 13.7894,2.94449 18.5728,7.71024l0.0177165 0.0200788 0.0011811 0.0011811 0.0200788 -0.0212599c0.227953,0.227953 0.441733,0.464174 0.64252,0.708662 4.38544,4.71733 7.06654,11.0114 7.06654,17.902 0,7.26733 -2.94685,13.8484 -7.71024,18.6118 -4.76221,4.76221 -11.3445,7.70906 -18.6106,7.70906 -7.26851,0 -13.8484,-2.94685 -18.6118,-7.70906 -4.76339,-4.76339 -7.70906,-11.3445 -7.70906,-18.6118 0,-7.26615 2.94567,-13.8484 7.70906,-18.6118 4.76339,-4.76339 11.3433,-7.70906 18.6118,-7.70906z"/>
  </g>
  <g id="_385733200">
   <polygon id="_385733128" class="fil5" points="1729.95,1379.61 1715.98,1403.82 1697.42,1398.03 1655.03,1373.56 1679.76,1416.38 1685.29,1434.51 1661.09,1448.48 1647.9,1434.19 1623.43,1391.8 1623.43,1440.75 1619.16,1459.72 1591.21,1459.72 1586.94,1441.25 1586.94,1391.8 1562.47,1434.19 1549.29,1448.48 1525.08,1434.51 1530.62,1416.38 1555.34,1373.56 1512.96,1398.03 1494.4,1403.82 1480.42,1379.61 1494.28,1366.68 1537.1,1341.96 1488.16,1341.96 1469.19,1337.69 1469.19,1309.74 1487.65,1305.47 1537.1,1305.47 1494.72,1281 1480.42,1267.82 1494.4,1243.61 1512.52,1249.15 1555.35,1273.88 1530.87,1231.49 1525.08,1212.93 1549.29,1198.95 1562.22,1212.81 1586.94,1255.63 1586.94,1206.18 1591.21,1187.72 1619.16,1187.72 1623.43,1206.69 1623.43,1255.63 1648.16,1212.81 1661.08,1198.95 1685.29,1212.92 1679.5,1231.49 1655.03,1273.87 1697.85,1249.15 1715.98,1243.61 1729.95,1267.82 1715.66,1281 1673.27,1305.47 1722.72,1305.47 1741.19,1309.74 1741.19,1337.69 1722.22,1341.96 1673.27,1341.96 1716.1,1366.68 "/>
   <ellipse id="_385733104" class="fil5" cx="1605.19" cy="1323.38" rx="77.245" ry="77.245"/>
   <path id="_385732576" class="fil0" d="M1605.19 1204.93c32.7036,0 62.3174,13.2602 83.752,34.6949 21.4347,21.4347 34.6949,51.0473 34.6949,83.752 0,32.7047 -13.2602,62.3174 -34.6949,83.752 -21.4347,21.4347 -51.0485,34.6949 -83.752,34.6949 -32.7047,0 -62.3174,-13.2602 -83.752,-34.6949 -21.4347,-21.4347 -34.6949,-51.0473 -34.6949,-83.752 0,-32.7047 13.2602,-62.3174 34.6949,-83.752 21.4347,-21.4347 51.0473,-34.6949 83.752,-34.6949zm46.5319 71.915c-11.9055,-11.9043 -28.3583,-19.2709 -46.5319,-19.2709 -18.1736,0 -34.6264,7.36654 -46.5319,19.2709 -11.9043,11.9055 -19.2709,28.3583 -19.2709,46.5319 0,18.1736 7.36654,34.6264 19.2709,46.5319 11.9055,11.9043 28.3583,19.2709 46.5319,19.2709 18.1736,0 34.6264,-7.36654 46.5319,-19.2709 11.9043,-11.9055 19.2709,-28.3583 19.2709,-46.5319 0,-18.1736 -7.36654,-34.6264 -19.2709,-46.5319z"/>
   <path id="_385732552" class="fil0" d="M1605.19 1297.06c7.22245,0 13.7894,2.94449 18.5728,7.71024l0.0177165 0.0200788 0.0011811 0.0011811 0.0200788 -0.0212599c0.227953,0.227953 0.441733,0.464174 0.64252,0.708662 4.38544,4.71733 7.06654,11.0114 7.06654,17.902 0,7.26733 -2.94685,13.8484 -7.71024,18.6118 -4.76221,4.76221 -11.3445,7.70906 -18.6106,7.70906 -7.26851,0 -13.8484,-2.94685 -18.6118,-7.70906 -4.76339,-4.76339 -7.70906,-11.3445 -7.70906,-18.6118 0,-7.26615 2.94567,-13.8484 7.70906,-18.6118 4.76339,-4.76339 11.3433,-7.70906 18.6118,-7.70906z"/>
  </g>
  <path class="fil6" d="M465.711 1136.91l45.2433 0 5.09528 18.1358 33.9673 0 4.96181 -18.1358 45.2422 0 5.09646 18.1358 33.9662 0 4.95945 -18.1358 45.2445 0 5.09646 18.1358 33.9662 0 4.96063 -18.1358 45.2422 0 5.09764 18.1358 33.9662 0 4.96063 -18.1358 45.2422 0 5.09764 18.1358 33.9673 0 4.95945 -18.1358 45.2422 0 5.09764 18.1358 33.9673 0 4.95945 -18.1358 45.2422 0 5.09646 18.1358 33.9673 0 4.96063 -18.1358 45.2433 0 5.09528 18.1358 33.9673 0 4.96063 -18.1358 45.2433 0 5.09528 18.1358 33.9673 0 4.96181 -18.1358 45.2422 0 5.09646 18.1358 33.9662 0 4.95945 -18.1358 45.2445 0 5.09646 18.1358 33.9662 0 4.96063 -18.1358 45.2422 0 5.09764 18.1358 33.9662 0 4.96063 -18.1358 45.2422 0 5.09764 18.1358 33.9673 0 4.64646 -16.9914c43.1977,4.80118 82.0524,24.4583 111.293,53.6989 33.8386,33.8386 54.8433,80.5536 54.8433,131.967l0 0.00236221c0,51.4158 -21.0047,98.1296 -54.8433,131.967 -29.2323,29.2323 -68.0717,48.8847 -111.252,53.6941l-4.6878 -17.1437 -33.9685 0 -5.14134 18.2929 -45.1548 0 -5.00315 -18.2929 -33.9673 0 -5.14134 18.2929 -45.1548 0 -5.00315 -18.2929 -33.9662 0 -5.14134 18.2929 -45.1559 0 -5.00197 -18.2929 -33.9673 0 -5.14134 18.2929 -45.1548 0 -5.00315 -18.2929 -33.9685 0 -5.14016 18.2929 -45.1548 0 -5.00315 -18.2929 -33.9685 0 -5.14016 18.2929 -45.1548 0 -5.00315 -18.2929 -33.9685 0 -5.14016 18.2929 -45.1559 0 -5.00197 -18.2929 -33.9685 0 -5.14016 18.2929 -45.1559 0 -5.00197 -18.2929 -33.9685 0 -5.14134 18.2929 -45.1548 0 -5.00315 -18.2929 -33.9673 0 -5.14134 18.2929 -45.1548 0 -5.00315 -18.2929 -33.9662 0 -5.14134 18.2929 -45.1559 0 -5.00197 -18.2929 -33.9673 0 -5.14134 18.2929 -45.1548 0 -5.00315 -18.2929 -33.9685 0 -5.14016 18.2929 -45.1548 0 -5.00315 -18.2929 -33.9685 0 -4.813 17.1307c-43.1292,-4.83307 -81.9237,-24.4784 -111.126,-53.6811 -33.8386,-33.8374 -54.8433,-80.5512 -54.8433,-131.967l0 -0.00236221c0,-51.4134 21.0047,-98.1284 54.8433,-131.967 29.2134,-29.2134 68.0233,-48.8599 111.17,-53.6847l4.7693 16.9772 33.9673 0 4.96063 -18.1358zm1139.48 83.0292l-25.4445 0 -4.21418 -15.4063 -33.9673 0 -4.32874 15.4063 -46.7563 0 -4.21418 -15.4063 -33.9662 0 -4.32874 15.4063 -46.7575 0 -4.213 -15.4063 -33.9673 0 -4.32874 15.4063 -46.7563 0 -4.21418 -15.4063 -33.9685 0 -4.32756 15.4063 -46.7563 0 -4.21418 -15.4063 -33.9685 0 -4.32874 15.4063 -46.7563 0 -4.213 -15.4063 -33.9685 0 -4.32874 15.4063 -46.7563 0 -4.213 -15.4063 -33.9685 0 -4.32874 15.4063 -46.7563 0 -4.213 -15.4063 -33.9685 0 -4.32874 15.4063 -46.7563 0 -4.21418 -15.4063 -33.9673 0 -4.32874 15.4063 -46.7563 0 -4.21418 -15.4063 -33.9662 0 -4.32874 15.4063 -46.7575 0 -4.213 -15.4063 -33.9673 0 -4.32874 15.4063 -46.7563 0 -4.21418 -15.4063 -33.9685 0 -4.32756 15.4063 -46.7563 0 -4.21418 -15.4063 -33.9685 0 -4.32874 15.4063 -23.2252 0c-28.4977,0 -54.4359,11.6894 -73.2638,30.5173 -18.828,18.828 -30.5173,44.7674 -30.5173,73.2638l0 0.00236221c0,28.4977 11.6894,54.4359 30.5173,73.2638 18.828,18.828 44.7662,30.5173 73.2638,30.5173l22.5402 0 5.01378 17.8453 33.9685 0 4.88032 -17.8453 45.4052 0 5.0126 17.8453 33.9685 0 4.88032 -17.8453 45.4052 0 5.01378 17.8453 33.9673 0 4.87914 -17.8453 45.4063 0 5.01378 17.8453 33.9662 0 4.88032 -17.8453 45.4052 0 5.01378 17.8453 33.9673 0 4.88032 -17.8453 45.4052 0 5.01378 17.8453 33.9685 0 4.87914 -17.8453 45.4052 0 5.01378 17.8453 33.9685 0 4.88032 -17.8453 45.404 0 5.01378 17.8453 33.9685 0 4.88032 -17.8453 45.4052 0 5.0126 17.8453 33.9685 0 4.88032 -17.8453 45.4052 0 5.0126 17.8453 33.9685 0 4.88032 -17.8453 45.4052 0 5.01378 17.8453 33.9673 0 4.87914 -17.8453 45.4063 0 5.01378 17.8453 33.9662 0 4.88032 -17.8453 45.4052 0 5.01378 17.8453 33.9673 0 4.88032 -17.8453 24.7784 0c28.4977,0 54.4359,-11.6894 73.2638,-30.5173 18.828,-18.828 30.5173,-44.7662 30.5173,-73.2638l0 -0.00236221c0,-28.4965 -11.6894,-54.4359 -30.5173,-73.2638 -18.828,-18.828 -44.7662,-30.5173 -73.2638,-30.5173z"/>
  <path class="fil7" d="M1368.98 925.23l0 -157.781c0,-29.1284 11.8949,-55.5886 31.0547,-74.7497 19.161,-19.1599 45.6213,-31.0547 74.7497,-31.0547l39.6957 0 -39.6957 64.0016c-11.4638,0 -21.9083,4.71378 -29.4992,12.3036 -7.58977,7.59095 -12.3036,18.0366 -12.3036,29.4992l0 157.781 -64.0016 0z"/>
  <path class="fil0" d="M1158.46 924.537l-722.53 14.8524 -64.0016 0 0 -328.14c0,-20.348 4.9004,-39.4146 12.7913,-53.7402 11.0764,-20.1059 28.3465,-32.5878 49.1339,-32.5878l503.931 0c16.4835,0 53.8701,43.7481 99.5162,108.35 49.3654,69.8623 115.826,167.876 174.411,256.015l-53.2512 35.2512z"/>
  <path class="fil5" d="M1136.41 862.874c-45.3685,-67.8012 -91.2355,-135.275 -138.313,-201.904 -11.7366,-16.611 -23.8606,-33.0756 -36.4016,-49.0843 -7.1067,-9.07324 -14.4142,-18.1158 -22.1138,-26.6929 -3.19725,-3.56103 -7.73032,-8.62205 -11.9894,-12.2728l-170.926 0 0 289.954 379.744 0zm-411.743 -289.954l-290.816 0c-2.39646,0 -6.11339,5.97166 -7.09134,7.74804 -4.8378,8.78268 -6.83504,20.6433 -6.83504,30.5811l0 251.625 304.742 0 0 -289.954z"/>
  <path class="fil8" d="M1091.4 838.875c-37.0866,-55.0595 -74.5914,-109.839 -112.899,-164.056 -11.5264,-16.3134 -23.3752,-32.4083 -35.6941,-48.1335 -6.79134,-8.67048 -13.7185,-17.2618 -21.0792,-25.4599 -1.25551,-1.39843 -2.55236,-2.86181 -3.88583,-4.3063l-137.172 0 0 241.956 310.731 0zm-390.728 -241.956l-254.783 0c-1.39606,4.64764 -1.96181,10.1693 -1.96181,14.3303l0 227.626 256.745 0 0 -241.956z"/>
  <path class="fil2" d="M357.52 947.079l-0.394488 0c-0.396851,0 0.263386,0 0.527953,0.131102l-0.133465 -0.131102z"/>
 </g>
 <rect class="fil9" width="2048" height="2048"/>
</svg>
