<?xml version="1.0" encoding="UTF-8"?>
<!DOCTYPE svg PUBLIC "-//W3C//DTD SVG 1.1//EN" "http://www.w3.org/Graphics/SVG/1.1/DTD/svg11.dtd">
<!-- Creator: CorelDRAW -->
<svg xmlns="http://www.w3.org/2000/svg" xml:space="preserve" width="2048px" height="2048px" style="shape-rendering:geometricPrecision; text-rendering:geometricPrecision; image-rendering:optimizeQuality; fill-rule:evenodd; clip-rule:evenodd"
viewBox="0 0 2048 2048"
 xmlns:xlink="http://www.w3.org/1999/xlink">
 <defs>
  <style type="text/css">
   <![CDATA[
    .fil5 {fill:none}
    .fil1 {fill:#817649}
    .fil2 {fill:#A59457}
    .fil3 {fill:#424242;fill-rule:nonzero}
    .fil0 {fill:#A59457;fill-rule:nonzero}
    .fil4 {fill:#EEEEEE;fill-rule:nonzero}
   ]]>
  </style>
 </defs>
 <g id="Layer_x0020_1">
  <metadata id="CorelCorpID_0Corel-Layer"/>
  <g id="_385729336">
   <g>
    <path id="_415210392" class="fil0" d="M641.582 609.445l174.806 0c89.5973,0 124.415,69.1678 163.259,146.342 13.6039,27.026 27.7713,55.1741 44.4945,79.8213l32.4579 47.843 -642.414 0c-4.44331,0 -8.85946,0.212599 -13.239,0.627166l32.8831 -48.4701c16.7232,-24.6496 30.8906,-52.7977 44.4945,-79.8225 38.8453,-77.1756 73.6583,-146.341 163.258,-146.341z"/>
    <path id="_415209624" class="fil0" d="M929.845 754.901l581.019 0c11.3681,0 21.1193,-5.0067 25.2673,-12.137 8.74135,-12.5646 14.4886,-25.4433 15.2539,-38.8382 0.842127,-14.7579 -4.30985,-29.3918 -17.9291,-43.8437l0.0496063 -0.0236221c-5.35158,-5.67756 -14.0634,-8.70946 -22.9016,-8.65512l-602.554 0c-15.1323,0 -27.4016,8.87245 -27.4016,19.8166 17.987,13.0087 44.517,83.6812 49.1965,83.6812z"/>
    <path id="_415209504" class="fil1" d="M652.625 693.074c5.77087,-48.1559 53.8323,-6.71103 7.5756,-71.2938 -10.9169,8.78623 -13.637,36.287 -27.3473,39.1843l-28.9335 6.11575c-61.1717,12.9295 43.2863,71.2205 48.7052,25.9937z"/>
    <path id="_415209408" class="fil1" d="M764.764 656.181c-14.2713,-17.1449 14.7662,-20.1142 -21.4347,-25.0595 -0.512599,6.4252 7.8189,16.024 4.4563,21.5221l-7.09843 11.6032c-15.0071,24.5303 37.4811,8.03505 24.0768,-8.06575z"/>
    <path id="_415209672" class="fil1" d="M633.114 825.292c-36.515,0.473622 -9.32599,39.7677 -53.9823,-0.0236221 7.4504,-7.47048 28.2567,-7.31103 31.5225,-17.3433l6.88938 -21.1736c14.5665,-44.7638 49.8626,38.0977 15.5705,38.5406z"/>
    <path id="_415209576" class="fil1" d="M766.073 754.289c-36.5209,0.472441 -9.32717,39.7725 -53.9906,-0.0248032 7.45158,-7.47166 28.2614,-7.31221 31.5272,-17.3457l6.89174 -21.1784c14.5689,-44.7709 49.8697,38.1048 15.5717,38.5488z"/>
    <path id="_415208544" class="fil1" d="M659.723 753.25c8.87835,-20.465 24.6083,4.12441 12.7181,-30.424 -5.96693,2.43543 -10.7847,14.198 -17.2075,13.6713l-13.5567 -1.11142c-28.6607,-2.34921 9.70749,37.0843 18.0461,17.8642z"/>
    <path id="_415208976" class="fil1" d="M561.941 802.747c-34.9819,42.9496 37.1988,49.5485 -52.5579,62.791 -1.44331,-15.939 18.9898,-39.9945 10.4929,-53.5559l-17.9339 -28.6217c-37.9146,-60.5103 92.8524,-20.9492 59.9989,19.3866z"/>
    <path id="_415208448" class="fil1" d="M933.412 769.894c6.29174,52.5095 58.6973,7.3193 8.26064,77.7379 -11.9032,-9.57993 -14.8701,-39.5658 -29.8193,-42.7264l-31.5484 -6.66733c-66.6993,-14.0976 47.1981,-77.6575 53.1071,-28.3441z"/>
    <path id="_415208952" class="fil1" d="M829.573 844.769c-24.978,-46.4764 52.9689,-23.2276 -38.0091,-68.5016 -5.94213,11.5961 8.93268,37.9559 -3.78898,44.9729l-26.8488 14.811c-56.7638,31.311 92.1036,52.3654 68.6469,8.71772z"/>
    <path id="_415208280" class="fil1" d="M700.715 837.604c-14.2725,-17.1449 14.7662,-20.113 -21.4347,-25.0583 -0.512599,6.42402 7.8189,16.0228 4.45512,21.5209l-7.09843 11.6032c-15.0059,24.5303 37.4811,8.03505 24.078,-8.06575z"/>
    <path id="_415207776" class="fil1" d="M866.617 712.89c11.2205,-25.8626 31.0996,5.21221 16.0725,-38.4508 -7.54134,3.07914 -13.6288,17.9445 -21.7465,17.2795l-17.1331 -1.40433c-36.2209,-2.96929 12.2693,46.865 22.8071,22.5756z"/>
    <path id="_415207728" class="fil1" d="M1025.74 679.704c4.53426,37.8402 42.3012,5.27363 5.95276,56.0221 -8.57835,-6.90473 -10.7161,-28.5142 -21.489,-30.7914l-22.7362 -4.80591c-48.0674,-10.1599 34.0146,-55.963 38.2725,-20.4248z"/>
    <path id="_415208088" class="fil1" d="M1373.58 704.251c-14.1378,18.4866 22.8744,16.5236 -21.3839,27.1146 -2.04213,-5.96811 6.30119,-16.3736 0.890552,-21l-11.4177 -9.76536c-24.1382,-20.6445 45.1878,-13.7102 31.911,3.65079z"/>
    <path id="_415207800" class="fil1" d="M1274.91 706.664c-18.2445,4.42678 -9.72166,-18.613 -26.8795,6.90355 4.66418,2.76969 15.0047,0.034252 17.9114,4.61339l6.13465 9.66497c12.9697,20.4331 19.9677,-25.3382 2.83347,-21.1819z"/>
    <path id="_385730920" class="fil1" d="M1469.04 700.6c8.87953,-20.465 24.6083,4.12323 12.7181,-30.4252 -5.96693,2.43662 -10.7835,14.1992 -17.2075,13.6725l-13.5567 -1.11142c-28.6607,-2.34921 9.70867,37.0831 18.0461,17.8642z"/>
    <path id="_385730896" class="fil1" d="M1177.77 710.559c-14.2725,-17.1449 14.765,-20.1142 -21.4358,-25.0595 -0.512599,6.4252 7.8189,16.024 4.4563,21.5221l-7.09843 11.6032c-15.0071,24.5303 37.4811,8.03505 24.078,-8.06575z"/>
    <path id="_385730752" class="fil1" d="M1113.9 690.593c8.87835,-20.465 24.6083,4.12441 12.7181,-30.4252 -5.96693,2.43662 -10.7847,14.1992 -17.2075,13.6725l-13.5567 -1.11142c-28.6607,-2.34921 9.70749,37.0831 18.0461,17.8642z"/>
   </g>
   <path id="_385730392" class="fil2" d="M1427.14 846.472l-362.168 0 -481.939 0 -7.03229 0 -224.002 0 -8.52284 0c-24.0898,0 -45.9662,9.83268 -61.8048,25.6725 -15.8398,15.8386 -25.6725,37.7162 -25.6725,61.806l0 244.101c0,24.0898 9.83387,45.9662 25.6725,61.8048 10.4976,10.4976 23.6492,18.3555 38.3374,22.4634 429.591,0 867.483,3.21024 1292.05,3.21024l15.0721 0 9.67796 -11.876 147.939 -181.545 24.7571 -30.3815 -34.7575 -18.1181 -332.861 -173.511 -14.7496 -3.62599z"/>
   <path id="_385730728" class="fil1" d="M328.011 1262.32c398.719,0.0366142 804.47,2.80276 1199.98,3.1689l0.00944883 -1.48937c0,-44.6859 -17.6173,-87.1997 -49.2083,-118.792 -31.5922,-31.591 -74.106,-49.2083 -118.792,-49.2083 -44.6859,0 -87.1997,17.6173 -118.792,49.2083 -9.77717,9.77717 -18.215,20.6008 -25.2071,32.211 -6.99331,-11.6102 -15.4311,-22.4339 -25.2083,-32.211 -31.5922,-31.591 -74.106,-49.2083 -118.792,-49.2083 -44.6859,0 -87.1997,17.6173 -118.792,49.2083 -9.77717,9.77717 -18.215,20.6008 -25.2083,32.211 -6.99213,-11.6102 -15.4299,-22.4339 -25.2071,-32.211 -31.5922,-31.591 -74.106,-49.2083 -118.792,-49.2083 -44.6859,0 -87.1997,17.6173 -118.792,49.2083 -9.77717,9.77717 -18.215,20.6008 -25.2083,32.211 -6.99213,-11.6102 -15.4299,-22.4339 -25.2071,-32.211 -31.5922,-31.591 -74.106,-49.2083 -118.792,-49.2083 -44.6859,0 -87.1997,17.6173 -118.792,49.2083 -31.1953,31.1965 -48.7618,73.043 -49.1977,117.112z"/>
   <path id="_385730368" class="fil3" d="M496.001 1120c39.7607,0 75.7631,16.1209 101.822,42.1796 26.0587,26.0587 42.1796,62.0611 42.1796,101.822 0,39.7607 -16.1209,75.7631 -42.1796,101.822 -26.0587,26.0587 -62.0611,42.1796 -101.822,42.1796 -39.7607,0 -75.7631,-16.1209 -101.822,-42.1796 -26.0587,-26.0587 -42.1796,-62.0611 -42.1796,-101.822 0,-39.7607 16.1209,-75.7631 42.1796,-101.822 26.0587,-26.0587 62.0611,-42.1796 101.822,-42.1796z"/>
   <path id="_385730872" class="fil3" d="M784 1120c39.7607,0 75.7631,16.1209 101.822,42.1796 26.0587,26.0587 42.1796,62.0611 42.1796,101.822 0,39.7607 -16.1209,75.7631 -42.1796,101.822 -26.0587,26.0587 -62.0611,42.1796 -101.822,42.1796 -39.7607,0 -75.7631,-16.1209 -101.822,-42.1796 -26.0587,-26.0587 -42.1796,-62.0611 -42.1796,-101.822 0,-39.7607 16.1209,-75.7631 42.1796,-101.822 26.0587,-26.0587 62.0611,-42.1796 101.822,-42.1796z"/>
   <path id="_385730608" class="fil3" d="M1072 1120c39.7607,0 75.7631,16.1209 101.822,42.1796 26.0587,26.0587 42.1796,62.0611 42.1796,101.822 0,39.7607 -16.1209,75.7631 -42.1796,101.822 -26.0587,26.0587 -62.0611,42.1796 -101.822,42.1796 -39.7607,0 -75.7631,-16.1209 -101.822,-42.1796 -26.0587,-26.0587 -42.1796,-62.0611 -42.1796,-101.822 0,-39.7607 16.1209,-75.7631 42.1796,-101.822 26.0587,-26.0587 62.0611,-42.1796 101.822,-42.1796z"/>
   <path id="_385729720" class="fil3" d="M1360 1120c39.7607,0 75.7631,16.1209 101.822,42.1796 26.0587,26.0587 42.1796,62.0611 42.1796,101.822 0,39.7607 -16.1209,75.7631 -42.1796,101.822 -26.0587,26.0587 -62.0611,42.1796 -101.822,42.1796 -39.7607,0 -75.7631,-16.1209 -101.822,-42.1796 -26.0587,-26.0587 -42.1796,-62.0611 -42.1796,-101.822 0,-39.7607 16.1209,-75.7631 42.1796,-101.822 26.0587,-26.0587 62.0611,-42.1796 101.822,-42.1796z"/>
   <polygon id="_385729888" class="fil1" points="544.001,1024 544.001,960 448.001,960 448.001,1024 "/>
   <polygon id="_385729840" class="fil1" points="832,1024 832,960 736,960 736,1024 "/>
   <polygon id="_385729432" class="fil1" points="1120,1024 1120,960 1024,960 1024,1024 "/>
   <polygon id="_385729528" class="fil1" points="1408,1024 1408,960 1312,960 1312,1024 "/>
   <path id="_385729600" class="fil4" d="M496.001 1182.38c22.5366,0 42.9426,9.13701 57.7122,23.9067 14.7697,14.7697 23.9067,35.1756 23.9067,57.7122 0,22.5366 -9.13701,42.9426 -23.9067,57.7122 -14.7697,14.7697 -35.1756,23.9067 -57.7122,23.9067 -22.5366,0 -42.9426,-9.13701 -57.7122,-23.9067 -14.7697,-14.7697 -23.9067,-35.1756 -23.9067,-57.7122 0,-22.5366 9.13701,-42.9426 23.9067,-57.7122 14.7697,-14.7697 35.1756,-23.9067 57.7122,-23.9067z"/>
   <path id="_385730008" class="fil4" d="M784 1182.38c22.5366,0 42.9426,9.13701 57.7122,23.9067 14.7697,14.7697 23.9067,35.1756 23.9067,57.7122 0,22.5366 -9.13701,42.9426 -23.9067,57.7122 -14.7697,14.7697 -35.1756,23.9067 -57.7122,23.9067 -22.5366,0 -42.9426,-9.13701 -57.7122,-23.9067 -14.7697,-14.7697 -23.9067,-35.1756 -23.9067,-57.7122 0,-22.5366 9.13701,-42.9426 23.9067,-57.7122 14.7697,-14.7697 35.1756,-23.9067 57.7122,-23.9067z"/>
   <path id="_385729792" class="fil4" d="M1072 1182.38c22.5366,0 42.9426,9.13701 57.7122,23.9067 14.7697,14.7697 23.9067,35.1756 23.9067,57.7122 0,22.5366 -9.13701,42.9426 -23.9067,57.7122 -14.7697,14.7697 -35.1756,23.9067 -57.7122,23.9067 -22.5366,0 -42.9426,-9.13701 -57.7122,-23.9067 -14.7697,-14.7697 -23.9067,-35.1756 -23.9067,-57.7122 0,-22.5366 9.13701,-42.9426 23.9067,-57.7122 14.7697,-14.7697 35.1756,-23.9067 57.7122,-23.9067z"/>
   <path id="_385729816" class="fil4" d="M1360 1182.38c22.5366,0 42.9426,9.13701 57.7122,23.9067 14.7697,14.7697 23.9067,35.1756 23.9067,57.7122 0,22.5366 -9.13701,42.9426 -23.9067,57.7122 -14.7697,14.7697 -35.1756,23.9067 -57.7122,23.9067 -22.5366,0 -42.9426,-9.13701 -57.7122,-23.9067 -14.7697,-14.7697 -23.9067,-35.1756 -23.9067,-57.7122 0,-22.5366 9.13701,-42.9426 23.9067,-57.7122 14.7697,-14.7697 35.1756,-23.9067 57.7122,-23.9067z"/>
  </g>
 </g>
 <rect class="fil5" width="2048" height="2048"/>
</svg>
