<?xml version="1.0" encoding="UTF-8"?>
<!DOCTYPE svg PUBLIC "-//W3C//DTD SVG 1.1//EN" "http://www.w3.org/Graphics/SVG/1.1/DTD/svg11.dtd">
<!-- Creator: CorelDRAW -->
<svg xmlns="http://www.w3.org/2000/svg" xml:space="preserve" width="2048px" height="2048px" style="shape-rendering:geometricPrecision; text-rendering:geometricPrecision; image-rendering:optimizeQuality; fill-rule:evenodd; clip-rule:evenodd"
viewBox="0 0 2048 2048"
 xmlns:xlink="http://www.w3.org/1999/xlink">
 <defs>
  <style type="text/css">
   <![CDATA[
    .fil0 {fill:none}
    .fil3 {fill:#AD1457}
    .fil1 {fill:#C2185B}
    .fil2 {fill:#D81B60}
    .fil4 {fill:#FFAB40}
    .fil5 {fill:#FF9100;fill-rule:nonzero}
   ]]>
  </style>
 </defs>
 <g id="Layer_x0020_1">
  <metadata id="CorelCorpID_0Corel-Layer"/>
  <rect class="fil0" width="2048" height="2048"/>
  <rect class="fil0" x="255.999" y="255.999" width="1536" height="1536"/>
  <g id="_218075552">
   <polygon id="_218050592" class="fil1" points="1629.21,1561.6 1641.6,1753.6 1603.2,1792 412.8,1792 374.401,1753.6 386.789,1561.6 "/>
   <path id="_218051696" class="fil2" d="M484.947 524.8l1046.11 0c18.5622,0 32.3859,17.3232 33.7453,38.3988l59.4579 921.601 -1232.51 0 59.4579 -921.601c1.35945,-21.0768 15.1831,-38.3988 33.7453,-38.3988z"/>
   <polygon id="_218061152" class="fil3" points="1614.35,1331.2 1624.26,1484.8 391.744,1484.8 401.653,1331.2 "/>
   <polygon id="_218052032" class="fil4" points="1628.97,1561.6 1624,1484.8 391.763,1484.8 386.789,1561.6 "/>
   <path id="_218081192" class="fil5" d="M796.799 524.282l0 -160.764c0,-29.6079 12.0862,-56.4981 31.5544,-75.9662 19.4681,-19.4693 46.3595,-31.5544 75.9674,-31.5544l207.359 0c29.6079,0 56.4993,12.085 75.9674,31.5544 19.4681,19.4681 31.5544,46.3583 31.5544,75.9662l0 161.375 -76.8024 0 0 -161.375c0,-8.40827 -3.46772,-16.0819 -9.05198,-21.6662 -5.58426,-5.58426 -13.2579,-9.05198 -21.6673,-9.05198l-207.359 0c-8.40946,0 -16.0831,3.46772 -21.6673,9.05198 -5.58426,5.58426 -9.05198,13.2579 -9.05198,21.6662l0 160.764 -76.8024 0z"/>
  </g>
 </g>
</svg>
