<?xml version="1.0" encoding="UTF-8"?>
<!DOCTYPE svg PUBLIC "-//W3C//DTD SVG 1.1//EN" "http://www.w3.org/Graphics/SVG/1.1/DTD/svg11.dtd">
<!-- Creator: CorelDRAW -->
<svg xmlns="http://www.w3.org/2000/svg" xml:space="preserve" width="2048px" height="2048px" style="shape-rendering:geometricPrecision; text-rendering:geometricPrecision; image-rendering:optimizeQuality; fill-rule:evenodd; clip-rule:evenodd"
viewBox="0 0 2048 2048"
 xmlns:xlink="http://www.w3.org/1999/xlink">
 <defs>
  <style type="text/css">
   <![CDATA[
    .fil0 {fill:none}
    .fil4 {fill:#424242}
    .fil5 {fill:#558B2F}
    .fil1 {fill:#81D4FA}
    .fil8 {fill:#AAAAAA}
    .fil9 {fill:#BDBDBD}
    .fil6 {fill:#C62828}
    .fil7 {fill:#EF5350}
    .fil3 {fill:#FFD180}
    .fil2 {fill:#039BE5;fill-rule:nonzero}
   ]]>
  </style>
 </defs>
 <g id="Layer_x0020_1">
  <metadata id="CorelCorpID_0Corel-Layer"/>
  <rect class="fil0" width="2048" height="2048"/>
  <rect class="fil0" x="255.999" y="255.999" width="1536" height="1536"/>
  <g id="_224125760">
   <rect id="_224117960" class="fil1" x="325.808" y="255.999" width="1056" height="1536"/>
   <g>
    <polygon id="_224118296" class="fil2" points="458.022,437.001 1249.6,437.001 1249.6,467.001 458.022,467.001 "/>
    <polygon id="_224117552" class="fil2" points="458.022,580.001 1249.6,580.001 1249.6,610.001 458.022,610.001 "/>
    <polygon id="_224120216" class="fil2" points="458.022,723.001 1249.6,723.001 1249.6,753.001 458.022,753.001 "/>
    <polygon id="_224118776" class="fil2" points="458.022,866 1249.6,866 1249.6,896 458.022,896 "/>
    <polygon id="_224121392" class="fil2" points="458.022,1009 1249.6,1009 1249.6,1039 458.022,1039 "/>
    <polygon id="_224119448" class="fil2" points="458.022,1152 1249.6,1152 1249.6,1182 458.022,1182 "/>
    <polygon id="_224120888" class="fil2" points="458.022,1295 1249.6,1295 1249.6,1325 458.022,1325 "/>
    <polygon id="_224121368" class="fil2" points="458.022,1438 1249.6,1438 1249.6,1468 458.022,1468 "/>
    <polygon id="_224122688" class="fil2" points="458.022,1581 1249.6,1581 1249.6,1611 458.022,1611 "/>
   </g>
   <g>
    <polygon id="_224124080" class="fil3" points="947.818,1581.5 991.934,1354.53 1004.61,1342.58 1161.37,1459.68 1153.84,1476.64 "/>
    <path id="_224124704" class="fil4" d="M947.818 1581.5l13.7197 -70.5863c10.5969,1.08543 20.6646,4.78937 29.3386,11.3315 9.30355,7.01575 15.913,16.4717 19.7882,27.2681l-62.8465 31.9866z"/>
    <path id="_224125592" class="fil5" d="M1704.95 662.951l-82.526 -62.243c-21.6898,-16.3583 -55.7563,-8.09056 -75.7005,18.3685l-31.7882 42.1701 161.395 121.728 31.7882 -42.1713c19.9477,-26.4614 18.5209,-61.493 -3.1689,-77.8524z"/>
    <path id="_224126936" class="fil6" d="M1555.92 692.161l-0.661418 -0.499607 -40.3264 -30.4146 -522.743 693.471 0.972048 0.733465c9.29174,-1.95827 18.5351,-0.452363 25.7953,5.02441 7.26024,5.47559 11.2476,13.9488 11.9221,23.4225l2.29961 1.73386 522.742 -693.471z"/>
    <path id="_224109632" class="fil7" d="M1595.63 722.11l-0.661418 -0.498426 -39.0485 -29.4508 -522.742 693.471 0.376772 0.284646c9.29174,-1.95827 18.5327,-0.453544 25.7929,5.02205 7.26024,5.47559 11.25,13.95 11.9244,23.4248l1.61575 1.2189 522.742 -693.472z"/>
    <path id="_224129552" class="fil6" d="M1635.34 752.06l-0.661418 -0.499607 -39.0485 -29.4508 -522.742 693.472 1.39016 1.04882c9.29174,-1.95945 18.5327,-0.453544 25.7941,5.02205 7.25906,5.47559 11.2476,13.95 11.9221,23.4236l0.602363 0.454725 522.743 -693.471z"/>
    <path id="_224127656" class="fil7" d="M1676.33 782.973l-40.9878 -30.913 -522.743 693.471 2.07284 1.56378c9.29174,-1.95827 18.5327,-0.453544 25.7929,5.02205 7.26024,5.47559 11.2512,13.9512 11.9256,23.4248l1.19646 0.903544 522.743 -693.472z"/>
    <polygon id="_224127488" class="fil8" points="1555.92,692.161 1555.26,691.661 1514.93,661.247 1436.6,765.164 1477.02,795.654 1477.59,796.078 "/>
    <polygon id="_224127512" class="fil9" points="1595.63,722.11 1594.97,721.612 1555.92,692.161 1477.59,796.078 1516.73,825.603 1517.3,826.028 "/>
    <polygon id="_224127464" class="fil8" points="1635.34,752.06 1634.68,751.561 1595.63,722.11 1517.3,826.028 1556.44,855.553 1557.01,855.977 "/>
    <polygon id="_224127008" class="fil9" points="1676.33,782.973 1635.34,752.06 1557.01,855.977 1597.99,886.892 "/>
   </g>
  </g>
 </g>
</svg>
