<?xml version="1.0" encoding="UTF-8"?>
<!DOCTYPE svg PUBLIC "-//W3C//DTD SVG 1.1//EN" "http://www.w3.org/Graphics/SVG/1.1/DTD/svg11.dtd">
<!-- Creator: CorelDRAW -->
<svg xmlns="http://www.w3.org/2000/svg" xml:space="preserve" width="2048px" height="2048px" style="shape-rendering:geometricPrecision; text-rendering:geometricPrecision; image-rendering:optimizeQuality; fill-rule:evenodd; clip-rule:evenodd"
viewBox="0 0 2048 2048"
 xmlns:xlink="http://www.w3.org/1999/xlink">
 <defs>
  <style type="text/css">
   <![CDATA[
    .fil0 {fill:none}
    .fil4 {fill:#00695C}
    .fil3 {fill:#00897B}
    .fil2 {fill:#424242}
    .fil9 {fill:#616161}
    .fil7 {fill:#87C9FF}
    .fil1 {fill:#999999}
    .fil8 {fill:#9ED3FF}
    .fil6 {fill:#D32F2F}
    .fil5 {fill:#FBC02D}
   ]]>
  </style>
 </defs>
 <g id="Layer_x0020_1">
  <metadata id="CorelCorpID_0Corel-Layer"/>
  <rect class="fil0" width="2048" height="2048"/>
  <rect class="fil0" x="255.999" y="255.999" width="1536" height="1536"/>
  <g id="_218055992">
   <g>
    <g>
     <g>
      <rect id="_218051984" class="fil1" transform="matrix(-0.550345 -0.465025 -0.930049 1.10069 1323.32 322.667)" width="18.8197" height="211.451" rx="6.51733" ry="6.51733"/>
      <rect id="_218067992" class="fil1" transform="matrix(-0.330193 -0.279003 -0.930049 1.10069 1367.27 266.455)" width="18.8197" height="211.451" rx="3.90945" ry="3.90945"/>
      <circle id="_218055176" class="fil2" transform="matrix(-3.06052 -2.58603 -2.58607 3.06052 1361.66 266.795)" r="2.6941"/>
     </g>
     <rect id="_218053520" class="fil1" transform="matrix(-1.10069 -0.93005 -0.930049 1.10069 1213.59 463.039)" width="18.8197" height="211.451" rx="13.0335" ry="13.0335"/>
    </g>
    <g>
     <g>
      <rect id="_218079368" class="fil1" transform="matrix(0.550345 -0.465025 0.930049 1.10069 739.385 322.667)" width="18.8197" height="211.451" rx="6.51733" ry="6.51733"/>
      <rect id="_218072624" class="fil1" transform="matrix(0.330193 -0.279003 0.930049 1.10069 695.438 266.455)" width="18.8197" height="211.451" rx="3.90945" ry="3.90945"/>
      <circle id="_218056784" class="fil2" transform="matrix(3.06052 -2.58603 2.58607 3.06052 701.05 266.795)" r="2.6941"/>
     </g>
     <rect id="_218051072" class="fil1" transform="matrix(1.10069 -0.93005 0.930049 1.10069 849.119 463.039)" width="18.8197" height="211.451" rx="13.0335" ry="13.0335"/>
    </g>
   </g>
   <path id="_218081912" class="fil3" d="M323.542 642.427l1400.92 0c22.6618,0 41.2028,22.4917 41.2028,49.9819l0 1049.61c0,27.4902 -18.5421,49.9819 -41.2028,49.9819l-1400.92 0c-22.6606,0 -41.2028,-22.4894 -41.2028,-49.9819l0 -1049.61c0,-27.4925 18.541,-49.9819 41.2028,-49.9819z"/>
   <polygon id="_218056424" class="fil4" points="1765.66,1606.59 1765.66,1737.23 282.339,1737.23 282.339,1606.59 "/>
   <g>
    <path id="_218073296" class="fil5" d="M897.059 1649.02c17.5264,0 31.7351,14.2087 31.7351,31.7351 0,17.5264 -14.2087,31.7351 -31.7351,31.7351 -17.5264,0 -31.7351,-14.2087 -31.7351,-31.7351 0,-17.5264 14.2087,-31.7351 31.7351,-31.7351z"/>
    <path id="_218059736" class="fil6" d="M1024 1649.02c17.5264,0 31.7351,14.2087 31.7351,31.7351 0,17.5264 -14.2087,31.7351 -31.7351,31.7351 -17.5264,0 -31.7351,-14.2087 -31.7351,-31.7351 0,-17.5264 14.2087,-31.7351 31.7351,-31.7351z"/>
    <path id="_218063192" class="fil5" d="M1150.94 1649.02c17.5264,0 31.7351,14.2087 31.7351,31.7351 0,17.5264 -14.2087,31.7351 -31.7351,31.7351 -17.5264,0 -31.7351,-14.2087 -31.7351,-31.7351 0,-17.5264 14.2087,-31.7351 31.7351,-31.7351z"/>
   </g>
   <g>
    <rect id="_218077688" class="fil7" x="430.671" y="783.969" width="1186.66" height="789.472" rx="15.4193" ry="15.4193"/>
    <path id="_218079320" class="fil8" d="M546.062 783.969c83.126,67.1032 753.031,638.599 929.805,789.472l122.484 0c10.4386,0 18.978,-6.93662 18.978,-15.4193l0 -758.633c0,-8.4815 -8.53938,-15.4193 -18.978,-15.4193l-1051.78 0 -0.507874 0z"/>
   </g>
   <path id="_218065976" class="fil9" d="M846.667 645.367c31.9559,-65.8678 99.4583,-111.11 177.327,-111.11 78.0107,0 145.426,45.3437 177.339,111.11l-354.666 0z"/>
  </g>
 </g>
</svg>
