<?xml version="1.0" encoding="UTF-8"?>
<!DOCTYPE svg PUBLIC "-//W3C//DTD SVG 1.1//EN" "http://www.w3.org/Graphics/SVG/1.1/DTD/svg11.dtd">
<!-- Creator: CorelDRAW -->
<svg xmlns="http://www.w3.org/2000/svg" xml:space="preserve" width="2048px" height="2048px" style="shape-rendering:geometricPrecision; text-rendering:geometricPrecision; image-rendering:optimizeQuality; fill-rule:evenodd; clip-rule:evenodd"
viewBox="0 0 2048 2048"
 xmlns:xlink="http://www.w3.org/1999/xlink">
 <defs>
  <style type="text/css">
   <![CDATA[
    .fil0 {fill:none}
    .fil4 {fill:#EDE7F6}
    .fil2 {fill:#FF8A65}
    .fil3 {fill:#FFAB91}
    .fil8 {fill:#2E7D32;fill-rule:nonzero}
    .fil1 {fill:#3E2723;fill-rule:nonzero}
    .fil6 {fill:#43A047;fill-rule:nonzero}
    .fil7 {fill:#66BB6A;fill-rule:nonzero}
    .fil5 {fill:#B9A688;fill-rule:nonzero}
   ]]>
  </style>
 </defs>
 <g id="Layer_x0020_1">
  <metadata id="CorelCorpID_0Corel-Layer"/>
  <rect class="fil0" width="2048" height="2048"/>
  <rect class="fil0" x="255.999" y="255.999" width="1536" height="1536"/>
  <path class="fil1" d="M455.68 628.974l173.738 0c32.2323,-53.0634 84.8989,-98.2217 150.907,-130.526 69.2327,-33.8859 153.325,-53.7957 243.675,-53.7957 90.3497,0 174.442,19.9099 243.675,53.7957 66.0083,32.3044 118.675,77.4627 150.907,130.526l173.738 0 30.7217 0 0 30.7205 0 368.64 0 30.7205c-450.854,0 -747.227,0 -1198.08,0l0 -30.7205 0 -368.64 0 -30.7205 30.7205 0z"/>
  <path class="fil2" d="M486.4 690.413l0 307.204c358.401,0 716.801,0 1075.2,0l0 -307.204 -177.586 0 -17.9457 -29.5418c-28.761,-47.3504 -76.2402,-83.178 -125.404,-107.238 -66.6189,-32.6067 -142.754,-47.5406 -216.666,-47.5406 -73.9123,0 -150.047,14.9339 -216.666,47.5406 -49.1634,24.0603 -96.6426,59.8878 -125.404,107.238l-17.9457 29.5418 -177.585 0z"/>
  <path class="fil3" d="M495.998 700.013l0 288.004c352.002,0 704.003,0 1056,0l0 -288.004 -173.387 0 -20.7496 -34.1587c-27.776,-45.7276 -73.9146,-80.3505 -121.42,-103.599 -65.3186,-31.9689 -139.96,-46.5638 -212.446,-46.5638 -72.4867,0 -147.128,14.5949 -212.446,46.5638 -47.5052,23.2488 -93.6438,57.8717 -121.42,103.599l-20.7496 34.1587 -173.386 0z"/>
  <path class="fil4" d="M551 921.232l446.001 0c8.8004,0 15.9992,7.19882 15.9992,15.9992l0 112c0,8.79804 -7.20119,15.9992 -15.9992,15.9992l-476.72 0c-8.79804,0 -18.3272,-7.51182 -15.9992,-15.9992l30.7181 -112c2.32795,-8.48741 7.19882,-15.9992 16.0004,-15.9992z"/>
  <path class="fil4" d="M1051 921.232l446.001 0c8.80158,0 13.6725,7.513 16.0004,15.9992l30.7181 112c2.32795,8.48505 -7.20119,15.9992 -16.0004,15.9992l-476.719 0c-8.79804,0 -15.9992,-7.19882 -15.9992,-15.9992l0 -112c0,-8.8004 7.19882,-15.9992 15.9992,-15.9992z"/>
  <path class="fil5" d="M1636.08 1050.91l106.621 158.841 -0.122835 0.106299c11.7921,19.4882 18.7063,43.024 18.7063,68.3127l0 17.3563 0 34.7079 -30.7205 0 -1413.12 0 -30.7205 0 0 -34.7079 0 -17.3563c0,-31.317 10.6016,-59.9457 27.9414,-81.5257l97.6902 -145.538 76.7682 -0.0307087 55.6205 0c320.838,0 637.684,0 958.522,0l132.816 -0.165354z"/>
  <path class="fil6" d="M1733.55 1201.33l9.14646 8.4189 -0.122835 0.106299c11.7921,19.4882 18.7063,43.0229 18.7063,68.3127l0 17.3563 0 34.7079 -30.7205 0 -1413.12 0 -30.7205 0 0 -34.7079 0 -17.3563c0,-31.317 10.6016,-59.9457 27.9414,-81.5257l58.3347 -86.9056 858.686 0 501.871 91.5934z"/>
  <polygon class="fil7" points="1736.07,1203.59 1738.03,1205.62 1260.92,1205.87 1228.56,1109.62 1228.64,1109.62 "/>
  <polygon class="fil8" points="1736.07,1200.73 1738.03,1202.7 1262.92,1202.7 1228.56,1109.62 1228.64,1109.62 "/>
  <path class="fil1" d="M286.72 1326.86l1474.56 0 30.7205 0 0 30.7217 0 215.041 0 30.7205 -30.7205 0 -153.683 0 -29.4248 0 -1.17638 -29.5205c-0.690945,-17.3492 -8.30316,-33.0603 -20.1508,-44.4437 -11.7118,-11.2524 -27.6425,-18.1949 -45.163,-18.1949l-975.363 0c-17.5205,0 -33.4512,6.94253 -45.163,18.1949 -11.8476,11.3835 -19.4599,27.0945 -20.1508,44.4437l-1.17638 29.5205 -29.4248 0 -153.684 0 -30.7193 0 -0.0011811 -30.7205 0 -215.041 0 -30.7217 30.7205 0z"/>
 </g>
</svg>
