<?xml version="1.0" encoding="UTF-8"?>
<!DOCTYPE svg PUBLIC "-//W3C//DTD SVG 1.1//EN" "http://www.w3.org/Graphics/SVG/1.1/DTD/svg11.dtd">
<!-- Creator: CorelDRAW -->
<svg xmlns="http://www.w3.org/2000/svg" xml:space="preserve" width="2048px" height="2048px" style="shape-rendering:geometricPrecision; text-rendering:geometricPrecision; image-rendering:optimizeQuality; fill-rule:evenodd; clip-rule:evenodd"
viewBox="0 0 2048 2048"
 xmlns:xlink="http://www.w3.org/1999/xlink">
 <defs>
  <style type="text/css">
   <![CDATA[
    .fil0 {fill:none}
    .fil3 {fill:#00695C}
    .fil6 {fill:#80CBC4}
    .fil7 {fill:#9CCC65}
    .fil2 {fill:#B0B0B0}
    .fil5 {fill:#B2DFDB}
    .fil1 {fill:#BDBDBD}
    .fil9 {fill:#C5E1A5}
    .fil8 {fill:#DC3137}
    .fil4 {fill:#E0E0E0}
   ]]>
  </style>
 </defs>
 <g id="Layer_x0020_1">
  <metadata id="CorelCorpID_0Corel-Layer"/>
  <rect class="fil0" width="2048" height="2048"/>
  <rect class="fil0" x="255.999" y="255.999" width="1536" height="1536"/>
  <path class="fil1" d="M281.081 613.144l1485.84 0c13.7504,0 24.9992,11.2547 24.9992,24.9992l0 858.442c0,13.7445 -11.2547,24.9992 -24.9992,24.9992l-1485.84 0c-13.7445,0 -24.9992,-11.2488 -24.9992,-24.9992l0 -858.442c0,-13.7504 11.2488,-24.9992 24.9992,-24.9992z"/>
  <path class="fil2" d="M1791.92 1489.43l0 7.15158c0,13.7445 -11.2547,24.9992 -24.9992,24.9992l-1485.84 0c-13.7445,0 -24.9992,-11.2488 -24.9992,-24.9992l0 -9.99686 1535.84 2.84528z"/>
  <polygon class="fil1" points="1789.11,626.666 260.244,626.606 357.571,526.417 1679.92,529.584 "/>
  <polygon class="fil2" points="323.409,561.584 357.571,526.417 1679.92,529.584 1715.91,561.584 "/>
  <path class="fil3" d="M281.081 613.144l1485.84 0c13.7504,0 24.9992,11.2536 24.9992,24.9992l0 795.066c0,13.7457 -11.2536,24.9992 -24.9992,24.9992l-1485.84 0c-13.7457,0 -24.9992,-11.2488 -24.9992,-24.9992l0 -795.066c0,-13.7504 11.2488,-24.9992 24.9992,-24.9992z"/>
  <path class="fil2" d="M404.52 779.166l903.484 0c8.88544,0 16.1539,7.27205 16.1539,16.1551l0 480.711c0,8.88308 -7.27205,16.1551 -16.1539,16.1551l-903.484 0c-8.88308,0 -16.1551,-7.26851 -16.1551,-16.1551l0 -480.711c0,-8.88662 7.26969,-16.1551 16.1551,-16.1551z"/>
  <rect class="fil4" x="1457.51" y="605.665" width="57.5693" height="860.023"/>
  <path class="fil5" d="M416.821 796.264l891.94 0c8.46851,0 15.3969,7.03111 15.3969,15.6165l0 464.69c0,8.58662 -6.9319,15.6165 -15.3969,15.6165l-891.94 0c-8.46615,0 -15.398,-7.02638 -15.398,-15.6165l0 -464.69c0,-8.58898 6.92835,-15.6165 15.398,-15.6165z"/>
  <path class="fil6" d="M1308.76 796.264c7.50827,-3.97441 15.3969,7.03111 15.3969,15.6165l0 464.69c0,8.58662 -6.9319,15.6165 -15.3969,15.6165l-891.94 0c-8.46615,0 -22.9051,-11.6421 -15.398,-15.6165l907.338 -480.306z"/>
  <circle class="fil7" cx="1657.65" cy="1086.5" r="55.9217"/>
  <circle class="fil8" cx="1657.65" cy="1086.5" r="41.569"/>
  <rect class="fil9" x="1568.07" y="789.323" width="179.153" height="26.6185"/>
  <rect class="fil9" x="1568.07" y="849.618" width="179.153" height="26.6185"/>
  <rect class="fil9" x="1568.07" y="909.914" width="179.153" height="26.6185"/>
  <rect class="fil9" x="1568.07" y="970.209" width="179.153" height="26.6185"/>
  <rect class="fil9" x="1568.07" y="1184.74" width="179.153" height="26.6185"/>
  <rect class="fil9" x="1568.07" y="1255.41" width="179.153" height="26.6185"/>
 </g>
</svg>
