<?xml version="1.0" encoding="UTF-8"?>
<!DOCTYPE svg PUBLIC "-//W3C//DTD SVG 1.1//EN" "http://www.w3.org/Graphics/SVG/1.1/DTD/svg11.dtd">
<!-- Creator: CorelDRAW -->
<svg xmlns="http://www.w3.org/2000/svg" xml:space="preserve" width="2048px" height="2048px" style="shape-rendering:geometricPrecision; text-rendering:geometricPrecision; image-rendering:optimizeQuality; fill-rule:evenodd; clip-rule:evenodd"
viewBox="0 0 2048 2048"
 xmlns:xlink="http://www.w3.org/1999/xlink">
 <defs>
  <style type="text/css">
   <![CDATA[
    .fil0 {fill:none}
    .fil1 {fill:#C62828;fill-rule:nonzero}
    .fil2 {fill:#F9A825;fill-rule:nonzero}
    .fil3 {fill:#FBC02D;fill-rule:nonzero}
   ]]>
  </style>
 </defs>
 <g id="Layer_x0020_1">
  <metadata id="CorelCorpID_0Corel-Layer"/>
  <rect class="fil0" width="2048" height="2048"/>
  <rect class="fil0" x="255.999" y="255.999" width="1536" height="1536"/>
  <path class="fil1" d="M1133.98 469.941c-2.96811,16.5602 8.04922,32.3941 24.6095,35.3622 16.5602,2.96929 32.3941,-8.04922 35.3622,-24.6095l33.9957 -188.847c2.96929,-16.5602 -8.04922,-32.3941 -24.6095,-35.3634 -16.5591,-2.96811 -32.3929,8.0504 -35.3622,24.6095l-33.9957 188.848z"/>
  <path class="fil1" d="M852.621 485.128c2.96811,16.5602 18.802,27.5788 35.3622,24.6095 16.5591,-2.96811 27.5776,-18.802 24.6095,-35.3622l-33.9957 -188.848c-2.96929,-16.5602 -18.8032,-27.5788 -35.3622,-24.6095 -16.5602,2.96811 -27.5788,18.802 -24.6095,35.3622l33.9957 188.848z"/>
  <path class="fil2" d="M1024 483.349l1.07599 0.206693 2.81811 0.539764 154.807 -31.2425 5.97284 -0.597638c49.878,0.0354331 84.6993,25.7433 103.342,60.5693 8.58072,16.0335 13.5614,33.9118 14.8311,51.9378 1.26142,17.9032 -1.15158,36.2374 -7.34292,53.3079 -10.9654,30.2351 -33.3225,56.0894 -67.5827,68.6469l0 130.031c50.2607,77.5997 133.492,329.954 184.833,552.551 42.7465,185.325 62.3422,354.221 22.8295,398.483l0.011811 0.0106299c-4.82835,5.41418 -10.7988,9.7004 -17.4331,12.6638l-0.115748 0.0519685c-5.37874,5.59843 -12.8835,9.15591 -21.2575,9.35198 -16.8248,0.39567 -30.7855,-12.9225 -31.1811,-29.7473 -0.314173,-11.8252 -5.30788,-22.5059 -13.2402,-30.2244 -7.80237,-7.59331 -18.5811,-12.2693 -30.6496,-12.2693 -11.987,0 -22.9547,4.93701 -30.9284,12.9095 -7.93111,7.92993 -12.8681,18.8516 -12.8681,30.8882l-61.1693 0c0,-12.098 -4.9004,-23.048 -12.8244,-30.9721 -7.92402,-7.92402 -18.874,-12.8256 -30.9721,-12.8256 -12.0969,0 -23.048,4.90276 -30.9721,12.8256 -7.92284,7.92402 -12.8256,18.8752 -12.8256,30.9721l-61.1682 0c0,-12.098 -4.90158,-23.048 -12.8244,-30.9721 -7.92402,-7.92402 -18.8752,-12.8256 -30.9721,-12.8256 -1.38543,0 -2.7567,0.0661418 -4.10906,0.191339l-0.0850394 0.00708662 0 -1234.47z"/>
  <path class="fil3" d="M635.827 1784.15c-3.98268,-0.766536 -7.86851,-2.00669 -11.5854,-3.67914 -6.57048,-2.96221 -12.5114,-7.28504 -17.3858,-12.7476l-0.119291 -0.120473c-37.9654,-43.1516 -16.8449,-210.952 26.8878,-395.412 51.3142,-216.432 132.293,-461.616 181.625,-545.109l0 -140.365c-34.2603,-12.561 -56.6174,-38.4142 -67.5827,-68.6493 -6.19134,-17.0752 -8.60316,-35.4071 -7.34292,-53.3115l0 -0.119291c1.26614,-17.9386 6.24567,-35.7744 14.8358,-51.8174 18.6437,-34.8236 53.4638,-60.5268 103.335,-60.5623l5.73426 0.478347 159.771 30.6154 0 1234.47c-10.4244,0.989765 -19.7823,5.63032 -26.7792,12.6272 -7.92284,7.92402 -12.8244,18.874 -12.8244,30.9721l-61.1682 0c0,-12.0969 -4.90276,-23.048 -12.8256,-30.9721 -7.92402,-7.92284 -18.8752,-12.8256 -30.9721,-12.8256 -12.0969,0 -23.048,4.90158 -30.9721,12.8256 -7.92402,7.92402 -12.8244,18.874 -12.8244,30.9721l-61.1693 0c0,-12.0969 -4.90158,-23.048 -12.8256,-30.9721 -7.92284,-7.92284 -18.8752,-12.8256 -30.9709,-12.8256 -12.098,0 -23.048,4.90158 -30.9733,12.8256 -7.92284,7.92402 -12.8244,18.874 -12.8244,30.9721 0,16.8898 -13.6937,30.5835 -30.5835,30.5835 -7.86851,0 -15.0414,-2.97166 -20.4603,-7.85316z"/>
  <path class="fil1" d="M815.249 825.075l0 -138.36 416.678 0 -0.00590552 0.00236221 0 130.031c1.67126,2.58071 3.38268,5.36811 5.12363,8.32678l-421.796 0z"/>
 </g>
</svg>
