<?xml version="1.0" encoding="UTF-8"?>
<!DOCTYPE svg PUBLIC "-//W3C//DTD SVG 1.1//EN" "http://www.w3.org/Graphics/SVG/1.1/DTD/svg11.dtd">
<!-- Creator: CorelDRAW -->
<svg xmlns="http://www.w3.org/2000/svg" xml:space="preserve" width="2048px" height="2048px" style="shape-rendering:geometricPrecision; text-rendering:geometricPrecision; image-rendering:optimizeQuality; fill-rule:evenodd; clip-rule:evenodd"
viewBox="0 0 2048 2048"
 xmlns:xlink="http://www.w3.org/1999/xlink">
 <defs>
  <style type="text/css">
   <![CDATA[
    .fil0 {fill:none}
    .fil3 {fill:#B71C1C}
    .fil1 {fill:#B71C1C;fill-rule:nonzero}
    .fil2 {fill:#D32F2F;fill-rule:nonzero}
   ]]>
  </style>
 </defs>
 <g id="Layer_x0020_1">
  <metadata id="CorelCorpID_0Corel-Layer"/>
  <rect class="fil0" width="2048" height="2048"/>
  <rect class="fil0" x="255.999" y="255.999" width="1536" height="1536"/>
  <g id="_215723376">
   <path id="_215742000" class="fil1" d="M1499.17 1061.83c11.5453,-3.07914 23.5689,-2.72835 34.5555,0.597638 11.0787,3.35433 21.3366,9.75946 29.2477,18.7477 9.47363,10.7622 15.4878,24.8752 15.4878,41.4957l0 582.702c0,1.9748 0.805512,3.76772 2.10591,5.06811 1.29449,1.29449 3.0874,2.09882 5.06457,2.09882l60.6367 0c2.08347,0 3.93071,-0.804331 5.22874,-2.10118 1.2248,-1.22362 1.98189,-3.01063 1.98189,-5.06575l0 -632.832c0,-15.75 1.50354,-31.8508 4.47638,-48.0969 2.91024,-15.9083 7.21772,-31.4362 12.8882,-46.3796l24.9414 -65.7438 0.478347 -1.26142 -197.093 150.77z"/>
   <g>
    <path id="_215730312" class="fil2" d="M1599.47 346.643l-287.468 404.309c-3.49961,243.256 -182.61,482.021 -479.535,607.466 -50.0717,31.8225 -106.371,54.1559 -166.114,65.2276l-370.021 68.6906c-11.7307,2.16496 -21.841,8.35631 -29.0103,16.9748 -7.11142,8.54764 -11.3209,19.6465 -11.3209,31.7114 0,10.9276 3.51378,21.1618 9.60709,29.4331 6.09213,8.27127 14.7484,14.6362 25.0276,17.8228 21.3166,6.62481 50.9032,16.076 80.0008,25.3689 162.83,52.0063 311.208,99.3981 490.318,99.3981 58.0642,0 114.064,-14.4319 163.473,-40.8744 49.4717,-26.4756 92.556,-65.0339 124.73,-113.251l-0.0944883 -0.0625985 314.064 -471.109 0.137008 0c9.23741,-13.8508 22.0193,-22.2508 35.7744,-25.9229l0.137008 0 197.093 -150.77 77.4568 -204.168c6.12284,-16.1339 10.7244,-32.6209 13.7693,-49.2615 2.99528,-16.3571 4.50709,-33.4087 4.50709,-50.9552 0,-38.9823 -8.03268,-77.0694 -23.1496,-112.061 -15.137,-35.0374 -37.3205,-66.965 -65.602,-93.58l-62.1142 -58.4847c-1.00276,-0.943702 -1.96299,-1.74095 -2.86654,-2.38819l-0.137008 0c-5.66575,-4.05709 -12.4016,-5.70473 -18.8929,-5.07402 -6.42166,0.624804 -12.6543,3.52323 -17.3929,8.56064 -0.635434,0.675591 -1.42913,1.67362 -2.37756,2.99882z"/>
    <path id="_215727312" class="fil3" d="M1312 750.953l-422.218 581.803c289.062,-104.184 451.398,-338.731 422.218,-581.803z"/>
   </g>
  </g>
 </g>
</svg>
