<?xml version="1.0" encoding="UTF-8"?>
<!DOCTYPE svg PUBLIC "-//W3C//DTD SVG 1.1//EN" "http://www.w3.org/Graphics/SVG/1.1/DTD/svg11.dtd">
<!-- Creator: CorelDRAW -->
<svg xmlns="http://www.w3.org/2000/svg" xml:space="preserve" width="2048px" height="2048px" style="shape-rendering:geometricPrecision; text-rendering:geometricPrecision; image-rendering:optimizeQuality; fill-rule:evenodd; clip-rule:evenodd"
viewBox="0 0 2048 2048"
 xmlns:xlink="http://www.w3.org/1999/xlink">
 <defs>
  <style type="text/css">
   <![CDATA[
    .fil0 {fill:none}
    .fil2 {fill:#C62828}
    .fil1 {fill:#E53935}
    .fil5 {fill:#F57F17;fill-rule:nonzero}
    .fil4 {fill:#F9A825;fill-rule:nonzero}
    .fil3 {fill:#FBC02D;fill-rule:nonzero}
   ]]>
  </style>
 </defs>
 <g id="Layer_x0020_1">
  <metadata id="CorelCorpID_0Corel-Layer"/>
  <rect class="fil0" width="2048" height="2048"/>
  <rect class="fil0" x="255.999" y="255.999" width="1536" height="1536"/>
  <polygon class="fil1" points="796.62,255.999 1251.38,255.999 1426.29,804.571 621.714,804.571 "/>
  <polygon class="fil2" points="1343.2,543.998 1384.02,671.999 663.983,671.999 704.795,543.998 "/>
  <polygon class="fil3" points="1060.57,804.571 1060.57,1682.29 987.427,1682.29 987.427,804.571 "/>
  <path class="fil4" d="M804.57 1645.71c-20.1969,0 -36.5717,16.3748 -36.5717,36.5717 0,20.198 16.3748,36.5729 36.5717,36.5729l438.86 0c20.1969,0 36.5717,-16.3748 36.5717,-36.5729 0,-20.1969 -16.3748,-36.5717 -36.5717,-36.5717l-438.86 0z"/>
  <path class="fil5" d="M658.373 1718.85c-20.198,0 -36.5729,16.3748 -36.5729,36.5729 0,20.198 16.3748,36.5729 36.5729,36.5729l731.254 0c20.198,0 36.5729,-16.3748 36.5729,-36.5729 0,-20.198 -16.3748,-36.5729 -36.5729,-36.5729l-731.254 0z"/>
 </g>
</svg>
