<?xml version="1.0" encoding="UTF-8"?>
<!DOCTYPE svg PUBLIC "-//W3C//DTD SVG 1.1//EN" "http://www.w3.org/Graphics/SVG/1.1/DTD/svg11.dtd">
<!-- Creator: CorelDRAW -->
<svg xmlns="http://www.w3.org/2000/svg" xml:space="preserve" width="2048px" height="2048px" style="shape-rendering:geometricPrecision; text-rendering:geometricPrecision; image-rendering:optimizeQuality; fill-rule:evenodd; clip-rule:evenodd"
viewBox="0 0 2048 2048"
 xmlns:xlink="http://www.w3.org/1999/xlink">
 <defs>
  <style type="text/css">
   <![CDATA[
    .fil0 {fill:none}
    .fil4 {fill:#F57C00}
    .fil2 {fill:#689F38;fill-rule:nonzero}
    .fil3 {fill:#9CCC65;fill-rule:nonzero}
    .fil1 {fill:#FFAB40;fill-rule:nonzero}
   ]]>
  </style>
 </defs>
 <g id="Layer_x0020_1">
  <metadata id="CorelCorpID_0Corel-Layer"/>
  <rect class="fil0" width="2048" height="2048"/>
  <rect class="fil0" x="255.999" y="255.999" width="1536" height="1536"/>
  <path class="fil1" d="M1577.29 1424.02l-1106.57 0c-40.9807,0 -78.2197,-16.7457 -105.2,-43.7268 -26.9811,-26.9799 -43.728,-64.2178 -43.728,-105.201 0,-6.57166 0.744095,-12.978 2.14725,-19.1362 18.489,7.46339 38.4059,11.4095 58.8024,11.4095l1282.52 0c20.3953,0 40.3134,-3.94607 58.8012,-11.4095 1.40315,6.15827 2.14725,12.5646 2.14725,19.1362 0,40.9819 -16.7469,78.2197 -43.7256,105.201 -26.9799,26.9811 -64.2154,43.7268 -105.196,43.7268z"/>
  <path class="fil1" d="M706.652 615.158l634.697 0c105.865,0 202.088,43.2874 271.831,113.032 69.7406,69.7418 113.029,165.964 113.029,271.834 0,14.8902 -2.94921,29.1189 -8.28662,42.1359 -16.7291,-5.94922 -34.5048,-9.07914 -52.6619,-9.07914l-1282.52 0c-18.1571,0 -35.9339,3.12874 -52.663,9.07914 -5.33859,-13.0158 -8.28662,-27.2457 -8.28662,-42.1359 0,-105.871 43.2886,-202.093 113.029,-271.834 69.743,-69.7441 165.967,-113.032 271.832,-113.032z"/>
  <path class="fil2" d="M1665.26 1281.24l-1282.52 0c-34.878,0 -66.5682,-14.2524 -89.5288,-37.2142 -22.9583,-22.9595 -37.2118,-54.652 -37.2118,-89.5324l0 -0.00590552c0,-34.8792 14.2512,-66.5693 37.2107,-89.5288 22.9606,-22.9606 54.6532,-37.2118 89.53,-37.2118l1282.52 0c34.8768,0 66.5693,14.2512 89.53,37.2118 22.9595,22.9595 37.2107,54.6496 37.2107,89.5288l0 0.00590552c0,34.8803 -14.2536,66.5729 -37.2118,89.5324 -22.9606,22.9618 -54.6508,37.2142 -89.5288,37.2142z"/>
  <path class="fil3" d="M381.637 1160.79c-12.9768,11.0374 -14.55,30.5079 -3.5126,43.4847 11.0374,12.978 30.5079,14.55 43.4847,3.5126 16.5024,-14.0469 33.0095,-28.0973 49.0926,-38.217 12.7276,-8.00788 24.7229,-13.2236 35.2441,-12.8599 10.6559,0.369685 25.0536,7.05119 39.4323,13.7221 21.1701,9.82324 42.3189,19.637 67.3701,19.265 24.4677,-0.362599 44.8607,-10.2236 65.2501,-20.0799 14.4284,-6.9756 28.8579,-13.9512 39.2575,-14.028 10.4953,-0.0767717 25.1339,6.74174 39.7985,13.5709 20.4331,9.51969 40.9111,19.0595 65.5406,19.2402 24.404,0.178347 44.9811,-9.12166 65.5548,-18.4205 14.6516,-6.62126 29.3055,-13.2449 40.0536,-13.0866 10.5331,0.154725 25.0606,7.05709 39.6674,13.9961 20.9138,9.93544 41.9516,19.9311 67.2485,20.1118 25.2437,0.18189 47.0752,-9.78072 68.7272,-19.6618 14.7721,-6.74056 29.4319,-13.4327 40.0642,-13.6677 10.8224,-0.242126 25.1173,6.34961 39.3603,12.9177 19.3288,8.91497 38.5996,17.8004 61.9725,18.3295 23.5276,0.531496 43.7528,-7.68071 64.1315,-15.9567 15.0047,-6.09213 30.1311,-12.235 41.4839,-11.9043 11.2181,0.328347 25.8166,6.99567 40.3264,13.6217 20.9823,9.58347 41.8465,19.1114 66.2186,18.9295 25.611,-0.190158 46.8898,-10.7634 67.6099,-21.0567 13.0642,-6.49134 25.8154,-12.8256 34.3075,-13.3181 17.6728,-1.02402 41.4296,22.6902 65.1898,46.4256 28.6831,25.7929 74.0611,-18.9957 53.7579,-36.7217 -33.5492,-33.5138 -77.1945,-74.0953 -122.34,-71.478 -21.2858,1.23543 -39.5634,10.3146 -58.2898,19.6169 -14.5736,7.23898 -29.5418,14.6764 -40.4776,14.7579 -10.8709,0.080315 -25.5425,-6.62008 -40.2969,-13.3583 -20.1886,-9.21969 -40.4953,-18.4949 -64.3099,-19.1929 -24.613,-0.719292 -45.6083,7.80709 -66.4359,16.265 -14.6268,5.93977 -29.1414,11.8323 -39.665,11.5961 -10.0949,-0.227953 -23.6575,-6.48426 -37.2638,-12.7583 -20.6197,-9.50906 -41.3126,-19.0524 -66.4902,-18.4902 -23.5229,0.523229 -43.9489,9.84686 -64.5343,19.2402 -15.4654,7.05709 -31.0618,14.1744 -42.8044,14.0894 -11.1579,-0.0779528 -26.1662,-7.20945 -41.0859,-14.2973 -20.5264,-9.75237 -40.9418,-19.4504 -65.3434,-19.8095 -24.6732,-0.36378 -45.4465,9.02717 -66.2197,18.4158 -14.5689,6.58347 -29.1402,13.1705 -39.8752,13.0913 -10.4421,-0.0767717 -25.0477,-6.88111 -39.6201,-13.6689 -20.7638,-9.67205 -41.4886,-19.3252 -66.2044,-19.1421 -24.7382,0.183071 -45.3237,10.1339 -65.9044,20.0847 -14.3421,6.93308 -28.689,13.8697 -39.0874,14.0232 -10.8638,0.159449 -25.7858,-6.763 -40.7233,-13.6937 -19.8933,-9.23032 -39.8126,-18.4748 -63.4123,-19.2945 -24.6473,-0.853938 -47.7721,8.23938 -70.1304,22.3075 -19.0051,11.9563 -37.565,27.7536 -56.1178,43.5473z"/>
  <ellipse class="fil4" transform="matrix(0.256781 -0.763839 0.702788 0.608046 1442.52 809.821)" rx="19.2319" ry="24.841"/>
  <ellipse class="fil4" transform="matrix(0.256781 -0.763839 0.702788 0.608046 1303.01 809.821)" rx="19.2319" ry="24.841"/>
  <ellipse class="fil4" transform="matrix(0.256781 -0.763839 0.702788 0.608046 1163.51 809.821)" rx="19.2319" ry="24.841"/>
  <ellipse class="fil4" transform="matrix(0.256781 -0.763839 0.702788 0.608046 1024 809.821)" rx="19.2319" ry="24.841"/>
  <ellipse class="fil4" transform="matrix(-0.256781 -0.763839 -0.702788 0.608046 884.493 809.821)" rx="19.2319" ry="24.841"/>
  <ellipse class="fil4" transform="matrix(-0.256781 -0.763839 -0.702788 0.608046 605.481 809.821)" rx="19.2319" ry="24.841"/>
  <ellipse class="fil4" transform="matrix(-0.256781 -0.763839 -0.702788 0.608046 744.987 809.821)" rx="19.2319" ry="24.841"/>
  <ellipse class="fil4" transform="matrix(0.256781 -0.763839 0.702788 0.608046 1442.52 915.966)" rx="19.2319" ry="24.841"/>
  <ellipse class="fil4" transform="matrix(0.256781 -0.763839 0.702788 0.608046 1303.01 915.966)" rx="19.2319" ry="24.841"/>
  <ellipse class="fil4" transform="matrix(0.256781 -0.763839 0.702788 0.608046 1163.51 915.966)" rx="19.2319" ry="24.841"/>
  <ellipse class="fil4" transform="matrix(0.256781 -0.763839 0.702788 0.608046 1024 915.966)" rx="19.2319" ry="24.841"/>
  <ellipse class="fil4" transform="matrix(-0.256781 -0.763839 -0.702788 0.608046 884.493 915.966)" rx="19.2319" ry="24.841"/>
  <ellipse class="fil4" transform="matrix(-0.256781 -0.763839 -0.702788 0.608046 605.481 915.966)" rx="19.2319" ry="24.841"/>
  <ellipse class="fil4" transform="matrix(-0.256781 -0.763839 -0.702788 0.608046 744.987 915.966)" rx="19.2319" ry="24.841"/>
  <ellipse class="fil4" transform="matrix(0.256781 -0.763839 0.702788 0.608046 1303.01 710.198)" rx="19.2319" ry="24.841"/>
  <ellipse class="fil4" transform="matrix(0.256781 -0.763839 0.702788 0.608046 1163.51 710.198)" rx="19.2319" ry="24.841"/>
  <ellipse class="fil4" transform="matrix(0.256781 -0.763839 0.702788 0.608046 1024 710.198)" rx="19.2319" ry="24.841"/>
  <ellipse class="fil4" transform="matrix(0.256781 -0.763839 0.702788 0.608046 884.493 710.198)" rx="19.2319" ry="24.841"/>
  <ellipse class="fil4" transform="matrix(-0.256781 -0.763839 -0.702788 0.608046 744.987 710.198)" rx="19.2319" ry="24.841"/>
 </g>
</svg>
