<?xml version="1.0" encoding="UTF-8"?>
<!DOCTYPE svg PUBLIC "-//W3C//DTD SVG 1.1//EN" "http://www.w3.org/Graphics/SVG/1.1/DTD/svg11.dtd">
<!-- Creator: CorelDRAW -->
<svg xmlns="http://www.w3.org/2000/svg" xml:space="preserve" width="2048px" height="2048px" style="shape-rendering:geometricPrecision; text-rendering:geometricPrecision; image-rendering:optimizeQuality; fill-rule:evenodd; clip-rule:evenodd"
viewBox="0 0 2048 2048"
 xmlns:xlink="http://www.w3.org/1999/xlink">
 <defs>
  <style type="text/css">
   <![CDATA[
    .fil0 {fill:none}
    .fil3 {fill:black;fill-rule:nonzero}
    .fil1 {fill:#0277BD;fill-rule:nonzero}
    .fil2 {fill:#0288D1;fill-rule:nonzero}
    .fil5 {fill:#29B6F6;fill-rule:nonzero}
    .fil4 {fill:#E53935;fill-rule:nonzero}
    .fil6 {fill:#FBC02D;fill-rule:nonzero}
   ]]>
  </style>
 </defs>
 <g id="Layer_x0020_1">
  <metadata id="CorelCorpID_0Corel-Layer"/>
  <rect class="fil0" width="2048" height="2048"/>
  <rect class="fil0" x="255.999" y="255.999" width="1536" height="1536"/>
  <path class="fil1" d="M1670.26 881.959c-4.43977,-2.95748 -643.465,-147.917 -643.465,-147.917 0,0 -639.018,144.959 -643.459,147.917 -4.44095,2.96929 -52.5036,123.508 -52.5036,123.508 0,0 111.742,29.1142 182.746,94.2048 0,0 186.558,-15.0473 304.649,60.3886 0,0 68.7768,-19.9736 208.567,-19.9736 139.791,0 208.571,19.9736 208.571,19.9736 118.074,-75.4359 304.643,-60.3886 304.643,-60.3886 71.002,-65.0906 182.739,-94.2048 182.739,-94.2048 0,0 -48.0461,-120.539 -52.4882,-123.508z"/>
  <path class="fil2" d="M818.231 1160.06c-1.6441,-1.05 -3.30355,-2.07756 -4.97363,-3.09095l-1.42677 -0.858662c-1.33937,-0.804331 -2.68819,-1.59567 -4.0441,-2.37874l-1.17992 -0.681497c-1.67599,-0.955513 -3.36142,-1.89803 -5.05985,-2.81929l-1.25551 -0.672048c-1.34882,-0.724016 -2.70236,-1.4374 -4.06181,-2.14488l-1.55669 -0.801969c-1.67362,-0.852757 -3.34961,-1.69488 -5.04095,-2.51929l-0.210236 -0.106299 -0.0212599 -0.00826772 -0.124016 -0.0590552c-1.68898,-0.820867 -3.39095,-1.62756 -5.09764,-2.41772l-1.81536 -0.83504c-1.33228,-0.608268 -2.67047,-1.20827 -4.00985,-1.80118l-1.39252 -0.616536c-1.78819,-0.779528 -3.58347,-1.54725 -5.38701,-2.29606l-1.3063 -0.536221c-1.39961,-0.576378 -2.80276,-1.14449 -4.21063,-1.70433l-1.7563 -0.693308c-1.67126,-0.65315 -3.34488,-1.29685 -5.02559,-1.92638l-0.440552 -0.168898 -0.0437008 -0.0141732 -0.253937 -0.0921261c-1.74331,-0.647245 -3.49252,-1.28386 -5.2441,-1.90748l-1.75276 -0.618898c-1.35945,-0.477166 -2.72362,-0.944883 -4.0878,-1.40669l-1.71732 -0.582284c-1.82244,-0.609449 -3.64725,-1.20709 -5.47678,-1.78937l-1.27205 -0.398032c-1.46811,-0.462992 -2.93622,-0.917717 -4.4067,-1.36417l-1.7811 -0.537402c-1.8189,-0.543308 -3.64252,-1.08307 -5.4626,-1.60158l-0.137008 -0.0389764 -0.0661418 -0.0188977c-1.89803,-0.540945 -3.79725,-1.06536 -5.69764,-1.58032l-1.53543 -0.411024 -4.363 -1.14449 -1.65945 -0.42874c-1.82244,-0.461811 -3.64134,-0.912993 -5.46142,-1.35236l-1.48465 -0.354331c-1.43386,-0.341339 -2.86418,-0.675591 -4.29567,-1.0063l-1.81299 -0.415748c-1.76339,-0.398032 -3.52559,-0.788977 -5.28426,-1.16811l-0.292914 -0.0649607 -0.0885827 -0.0177165c-1.82126,-0.389764 -3.64016,-0.768898 -5.4567,-1.1374l-1.93583 -0.390945 -3.99803 -0.785434 -1.80236 -0.346063c-1.76811,-0.334252 -3.53032,-0.661418 -5.29134,-0.976772l-1.8626 -0.327166 -3.66733 -0.634252 -2.04685 -0.346063c-1.74095,-0.28937 -3.47717,-0.572835 -5.20867,-0.84567l-0.185433 -0.0307087 -0.10748 -0.0165354c-1.70551,-0.26811 -3.40866,-0.52441 -5.10355,-0.775985l-2.34685 -0.343701 -3.17126 -0.451181 -2.45315 -0.337796 -0.144095 -0.0212599c-1.45394,-0.198425 -2.90551,-0.390945 -4.34764,-0.575197l-0.199606 -0.0236221 -1.93583 -0.243307 -3.58819 -0.440552 -2.02559 -0.238583 -3.37205 -0.386221 -3.29173 -0.357874 -3.18662 -0.335433 -2.39055 -0.238583 -2.79921 -0.270473 -2.40591 -0.225591 -0.159449 -0.0141732 -4.08071 -0.359055 -2.47559 -0.205512 -2.55118 -0.204331 -2.35276 -0.180709 -2.19803 -0.159449 -4.37481 -0.302362 -2.49685 -0.161811 -2.28189 -0.137008 -1.92166 -0.111024 -2.71181 -0.152362 -0.0673229 -0.00354331 -3.70985 -0.187795 -0.0637796 -0.00354331 -2.0126 -0.0921261 -2.42599 -0.10748 -2.30906 -0.0944883 -1.47284 -0.0543308c-1.89567,-0.0696851 -3.76536,-0.134646 -5.60315,-0.188977l-0.372048 -0.011811 -2.97638 -0.080315 -0.69567 -0.0177165 -2.95158 -0.0673229 -3.23268 -0.0602363 -2.05748 -0.0295276 -1.59567 -0.0212599c-3.34607,-0.0377953 -6.56339,-0.0519685 -9.62599,-0.0484252l-1.12559 0.00354331 -1.11024 0.00354331 -1.09724 0.00590552 -0.431103 0.00236221 -0.651969 0.00472441 -1.0689 0.00944883 -1.05354 0.011811 -2.06575 0.0248032 -1.01102 0.0141732 -1.9748 0.0318898 -0.966142 0.0188977 -0.950788 0.0188977 -2.75551 0.0625985 -0.887009 0.022441 -1.72677 0.0484252 -0.838583 0.0248032 -0.762993 0.022441 -0.0602363 0.00354331 -0.805512 0.0259843 -0.790158 0.0271654 -0.77126 0.0259843 -1.3689 0.0507874 -0.125197 0.00354331 -0.721654 0.0283465 -0.661418 0.0259843 -0.0413386 0.00236221 -0.687402 0.0295276 -0.669686 0.0283465 -0.649607 0.0283465 -0.283465 0.0106299 -0.349607 0.0177165 -0.615355 0.0283465 -0.597638 0.0295276 -1.13858 0.056693 -0.540945 0.0259843 -0.522048 0.0283465 -0.232677 0.0106299 -0.272835 0.0153543 -0.485433 0.0259843 -0.465355 0.0271654 -0.429922 0.0236221 -0.0153543 0.00236221 -0.42874 0.0248032 -0.407481 0.0236221 -0.387402 0.0248032 -0.175984 0.00944883 -0.19252 0.0129921 -0.349607 0.0212599 -0.328347 0.022441 -0.301181 0.0188977 -0.00472441 0 -0.28937 0.0188977 -0.266929 0.0177165 -0.246851 0.0177165 -0.112205 0.00708662 -0.113386 0.00826772 -0.206693 0.0141732 -0.183071 0.0129921 -0.16063 0.011811 -0.0011811 0 -0.142913 0.0106299 -0.120473 0.00944883 -0.0980316 0.00826772 -0.0413386 0.0011811 -0.0354331 0.00472441 -0.0543308 0.00354331 -0.034252 0.00354331 -0.0106299 0 -0.0283465 -0.0259843 -0.0283465 -0.0248032 -0.0283465 -0.0259843 -0.0283465 -0.0271654 -1.70197 -1.54725c5.61615,-65.5867 17.7414,-158.714 43.3311,-256.405l4.25552 -0.979135 1.78701 -0.409843 2.49921 -0.572835 4.31221 -0.992127 4.34055 -0.99567 2.59134 -0.596457 1.77638 -0.405118 4.39134 -1.00984 4.41496 -1.01221 3.41811 -0.785434 1.02284 -0.233858 4.46221 -1.02402 4.48347 -1.02756 9.02953 -2.06811 4.5437 -1.04173 4.56142 -1.04646 0.564567 -0.129921 4.01457 -0.918898 4.59449 -1.05236 4.61103 -1.05591 1.38307 -0.317717 3.24213 -0.739371 4.63701 -1.06181 4.65118 -1.06417 2.21693 -0.509056 2.44488 -0.557481 4.67244 -1.07008 4.68544 -1.07008 3.05906 -0.701575 1.63228 -0.372048 4.69961 -1.0748 4.7067 -1.07717 3.90473 -0.891733 0.807875 -0.184252 4.71851 -1.07835 4.72441 -1.07953 4.72559 -1.07953 0.0248032 -0.00590552 4.70433 -1.0748 4.73032 -1.08071 4.7315 -1.08071 0.858662 -0.197244 3.87284 -0.882284 4.7315 -1.08071 4.72678 -1.07835 1.69134 -0.387402 3.03544 -0.692127 4.71969 -1.07835 4.71851 -1.07599 2.51811 -0.575197 2.19213 -0.499607 4.70552 -1.07362 4.69607 -1.07244 3.33307 -0.759449 1.35709 -0.31063 4.67835 -1.06654 4.67008 -1.06417 4.13386 -0.94252 0.52441 -0.120473 4.64646 -1.05945 4.63347 -1.05591 4.61929 -1.05236 0.294095 -0.068504 4.31103 -0.982678 4.58859 -1.0441 4.57323 -1.04291 1.09606 -0.250394 3.45945 -0.786615 4.5378 -1.03347 4.51772 -1.02992 1.87677 -0.42874 2.62087 -0.595276 4.47638 -1.02047 4.45276 -1.01457 26.2146 -5.96811c-13.9453,100.673 -23.6528,226.655 -25.9512,384.362l-1.73977 0.45 -0.0862205 0.022441 -0.133465 0.0354331 -0.0318898 0.00708662 -0.0814961 0.0212599 -0.0791339 0.0200788 -0.0744095 0.0212599 -0.0755906 0.0200788 -0.0732284 0.0188977 -0.0696851 0.0188977 -0.0696851 0.0188977 -0.0673229 0.0188977 -0.0661418 0.0165354 -0.0637796 0.0177165 -0.0614174 0.0165354 -0.0578741 0.0165354 -0.0590552 0.0153543 -0.056693 0.0153543 -0.022441 0.00708662 -0.0318898 0.00708662 -0.0519685 0.0153543 -0.0507874 0.0129921 -0.0496063 0.0129921 -0.046063 0.0129921 -0.0448819 0.0141732 -0.0437008 0.0106299 -0.034252 0.00944883 -0.00708662 0.00236221 -0.0389764 0.0106299 -0.0377953 0.011811 -0.0366142 0.00944883 -0.0330709 0.00944883 -0.034252 0.00944883 -0.0295276 0.00708662 -0.0283465 0.00944883 -0.00590552 0.00236221 -0.0200788 0.00472441 -0.0248032 0.00590552 -0.0248032 0.00708662 -0.0200788 0.00590552 -0.0188977 0.00590552 -0.0165354 0.00590552 -0.0177165 0.00354331 -0.00708662 0.00236221 -0.00590552 0.0011811 -0.0106299 0.00354331 -0.00590552 0 -0.00944883 0.00472441 -0.00354331 0.0011811 -0.00826772 0.00236221 -0.0011811 0 -0.00590552 0.0011811z"/>
  <path class="fil2" d="M1235.37 1160.06l-0.0011811 0 -0.00472441 -0.0011811 -0.00354331 0 -0.0011811 -0.00236221 -0.00590552 -0.0011811 -0.00236221 0 -0.00354331 0 -0.00590552 -0.00236221 -0.00354331 -0.00236221 -0.0106299 -0.00354331 -0.00826772 -0.0011811 -0.00354331 0 -0.00708662 -0.00472441 -0.00236221 0 -0.011811 -0.00354331 -0.0129921 -0.00354331 -0.0129921 -0.00354331 -0.0129921 -0.00354331 -0.0153543 -0.00472441 -0.0141732 -0.00354331 -0.0177165 -0.00472441 -0.0354331 -0.00944883 -0.00354331 0 -0.0153543 -0.00590552 -0.0200788 -0.00590552 -0.0212599 -0.00590552 -0.0448819 -0.0129921 -0.0248032 -0.00708662 -0.0236221 -0.00590552 -0.0248032 -0.00708662 -0.0259843 -0.00826772 -0.0283465 -0.00708662 -0.022441 -0.00590552 -0.00590552 -0.0011811 -1.37717 -0.37441c-2.28662,-157.722 -11.9658,-283.703 -25.8992,-384.409l4.31811 0.982678 3.32362 0.757087 1.02047 0.232677 4.37126 0.994489 4.39489 1.00158 4.15985 0.947245 0.259843 0.0590552 4.44331 1.01102 4.46693 1.01929 4.48937 1.02165 0.525591 0.120473 3.9815 0.905906 4.52835 1.0311 4.54725 1.03701 1.33228 0.304725 3.23268 0.737008 4.58268 1.04291 4.59804 1.04882 2.15788 0.491339 2.45551 0.559843 4.62756 1.05473 4.64174 1.05945 2.99292 0.682678 1.66181 0.377953 4.66536 1.06536 4.67481 1.06536 3.83504 0.875198 0.851575 0.193701 4.6937 1.07126 4.70315 1.07244 4.68071 1.06772 0.0307087 0.00708662 4.71378 1.07717 4.72205 1.07599 4.72441 1.07953 0.800788 0.18189 3.92835 0.896457 4.7315 1.08071 4.7315 1.07953 1.62992 0.372048 3.10394 0.711024 4.73268 1.07953 4.7315 1.08071 2.45788 0.562205 2.27244 0.518504 4.72796 1.08071 4.72205 1.07835 3.27874 0.750001 1.43858 0.328347 4.7126 1.07835 4.70552 1.0748 4.08662 0.934253 0.61063 0.140551 4.69016 1.07362 4.68071 1.0689 4.67008 1.0689 0.210236 0.0472441 4.44803 1.01811 4.64646 1.06417 4.63347 1.05945 1.01929 0.232677 3.6 0.825591 4.60512 1.05354 4.58859 1.05236 1.81181 0.413386 2.76024 0.633071 4.55433 1.04291 4.53662 1.03937 2.58189 0.591733 1.93347 0.444095 4.49646 1.0311 4.47638 1.02638 3.32599 0.762993 1.12677 0.257481 4.42914 1.01575 4.4067 1.01102 4.03937 0.928347 0.340158 0.0767717 4.35591 1.00039 8.62914 1.98189 0.418111 0.0980316 8.09764 1.86024c25.2957,96.7087 37.4055,188.948 43.0737,254.328l-0.056693 0.0507874 -0.0578741 0.0507874 -0.056693 0.0507874 -0.0590552 0.0507874 -0.0318898 0.0283465 -0.0236221 0.022441 -0.056693 0.0507874 -0.0578741 0.0507874 -0.056693 0.0507874 -0.056693 0.0496063c-1.00866,0.895276 -2.00433,1.79173 -2.99292,2.69646l-0.056693 0.0531496 -0.056693 0.0507874 -0.0106299 0 -0.034252 -0.00354331 -0.0543308 -0.00354331 -0.0354331 -0.00472441 -0.0413386 -0.0011811 -0.0980316 -0.00826772 -0.120473 -0.00944883 -0.142913 -0.0106299 -0.0011811 0 -0.159449 -0.011811 -0.184252 -0.0129921 -0.205512 -0.0141732 -0.115748 -0.00826772 -0.109843 -0.00708662 -0.248032 -0.0177165 -0.266929 -0.0177165 -0.287008 -0.0188977 -0.00708662 0 -0.301181 -0.0188977 -0.328347 -0.022441 -0.348425 -0.0212599 -0.19252 -0.0129921 -0.174803 -0.00944883 -0.387402 -0.0248032 -0.407481 -0.0236221 -0.42874 -0.0248032 -0.0165354 -0.00236221 -0.42874 -0.0236221 -0.466536 -0.0271654 -0.484252 -0.0259843 -0.274016 -0.0153543 -0.230315 -0.0106299 -0.522048 -0.0283465 -0.543308 -0.0259843 -1.13858 -0.056693 -0.595276 -0.0295276 -0.614174 -0.0283465 -0.35315 -0.0177165 -0.279921 -0.0106299 -0.651969 -0.0283465 -0.669686 -0.0283465 -0.686221 -0.0295276 -0.0448819 -0.00236221 -0.657875 -0.0259843 -0.720473 -0.0283465 -0.170079 -0.00590552 -1.32402 -0.0484252 -0.772442 -0.0259843 -0.788977 -0.0271654 -0.806694 -0.0259843 -0.0637796 -0.00354331 -0.759449 -0.022441 -0.837402 -0.0248032 -0.857481 -0.0248032 -0.869292 -0.0236221 -0.889371 -0.022441 -0.901182 -0.0212599 -0.918898 -0.022441 -0.936615 -0.0188977 -0.950788 -0.0188977 -0.96378 -0.0188977 -1.97599 -0.0318898 -1.01102 -0.0141732 -2.06575 -0.0248032 -1.05591 -0.011811 -1.0689 -0.00944883 -0.651969 -0.00472441 -0.431103 -0.00236221 -1.09724 -0.00590552 -1.11142 -0.00354331 -1.12559 -0.00354331c-3.05906,-0.00590552 -6.27874,0.00944883 -9.62717,0.0484252l-1.60039 0.0212599 -2.05394 0.0295276 -3.23268 0.0602363 -2.93977 0.0673229 -0.720473 0.0177165 -2.94567 0.080315 -0.467717 0.0153543c-1.79646,0.056693 -3.62008,0.114567 -5.47087,0.184252l-1.54961 0.0578741 -2.26654 0.0921261 -2.48032 0.108662 -1.96181 0.090945 -0.0826772 0.00354331 -3.70866 0.187795 -0.0850394 0.00590552 -2.6811 0.147638 -1.94528 0.113386 -2.24646 0.137008 -2.56418 0.165354 -4.24961 0.292914 -2.34095 0.17126 -2.21457 0.168898 -2.72008 0.218504 -2.35512 0.194882 -0.0295276 0.00236221 -4.08189 0.359055 -0.188977 0.0165354 -2.31024 0.217323 -2.91614 0.282284 -2.29725 0.229134 -3.42992 0.359055 -2.90079 0.317717 -3.64725 0.414567 -1.86614 0.222047 -3.74646 0.458268 -1.81417 0.227953 -0.236221 0.0295276 -4.35 0.575197 -0.222047 0.0307087 -2.21693 0.308268 -3.45355 0.490158 -2.12717 0.309449c-1.72677,0.256299 -3.45945,0.517323 -5.19922,0.791339l-0.103937 0.0165354c-1.8248,0.288189 -3.65788,0.587008 -5.49449,0.892914l-1.80591 0.304725 -3.98504 0.689764 -1.6441 0.28937c-1.78937,0.32126 -3.58347,0.65315 -5.38111,0.993308l-1.59803 0.307087c-1.44095,0.275197 -2.88544,0.559843 -4.33229,0.850394l-1.64055 0.330709c-1.85669,0.377953 -3.71103,0.762993 -5.57599,1.16221l-0.0862205 0.0177165 -0.0767717 0.0177165c-1.87205,0.401575 -3.74882,0.818505 -5.62441,1.2437l-1.50709 0.343701c-1.55315,0.355512 -3.10984,0.721654 -4.66536,1.0937l-1.2437 0.296457c-1.86969,0.453544 -3.73937,0.915355 -5.60906,1.39134l-1.35827 0.349607c-1.57914,0.407481 -3.15709,0.818505 -4.73386,1.24134l-1.25669 0.338977c-1.93937,0.523229 -3.87638,1.05709 -5.81339,1.60984l-0.0625985 0.0188977c-1.90394,0.540945 -3.80551,1.10079 -5.70473,1.67008l-1.55433 0.472441c-1.59685,0.484252 -3.19252,0.976772 -4.78347,1.47874l-0.921261 0.28937c-1.89331,0.602363 -3.78425,1.2189 -5.67048,1.85079l-1.39252 0.47126c-1.49764,0.505512 -2.99173,1.02165 -4.48347,1.54606l-1.46221 0.514961c-1.87914,0.667323 -3.75,1.34764 -5.61969,2.04331l-0.0413386 0.0141732 -0.20315 0.0779528c-1.79646,0.670867 -3.58937,1.35827 -5.37284,2.05866l-1.53307 0.607087c-1.49173,0.591733 -2.97756,1.19291 -4.46103,1.80354l-1.11969 0.459449c-1.8378,0.764174 -3.66969,1.5437 -5.49095,2.34095l-1.16221 0.514961c-1.44331,0.636615 -2.88425,1.28268 -4.31811,1.94055l-1.60866 0.73819c-1.77402,0.823229 -3.53977,1.65945 -5.29725,2.51339l-0.0188977 0.00826772c-1.77756,0.868111 -3.54331,1.75512 -5.30433,2.65394l-1.42205 0.732284c-1.43032,0.739371 -2.84882,1.49055 -4.26615,2.25118l-1.08071 0.578741c-1.74331,0.949607 -3.47362,1.91103 -5.19331,2.8937l-0.950788 0.550394c-1.40551,0.810237 -2.79921,1.6311 -4.18819,2.46378l-1.42677 0.858662c-1.67008,1.01693 -3.32953,2.04095 -4.97363,3.09095z"/>
  <path class="fil3" d="M1025.13 255.999c-9.73229,0 -17.6339,47.3315 -17.6339,105.725l35.2666 0c0,-58.3937 -7.90158,-105.725 -17.6327,-105.725z"/>
  <path class="fil3" d="M987.541 364.217l0 1305.89c0,10.9843 8.90316,19.8874 19.8886,19.8874 10.9831,0 19.8851,-8.90316 19.8851,-19.8874l0 -1305.89c0,-10.9831 -8.90198,-19.8862 -19.8851,-19.8862 -10.9854,0 -19.8886,8.90316 -19.8886,19.8862z"/>
  <path class="fil4" d="M980.913 1497.75l0 172.351c0,14.6433 11.8713,26.5169 26.5158,26.5169 14.6433,0 26.5146,-11.8736 26.5146,-26.5169l0 -172.351c0,-14.6433 -11.8713,-26.5146 -26.5146,-26.5146 -14.6445,0 -26.5158,11.8713 -26.5158,26.5146z"/>
  <path class="fil4" d="M788.919 1671.83c-0.0129921,33.104 13.4929,63.3071 35.204,84.9745 21.6709,21.7087 51.8729,35.2063 84.9768,35.1933 33.0992,-0.0188977 63.6319,-13.3429 86.0174,-34.8414 11.2028,-10.7669 20.4236,-23.6386 26.8725,-38.0906 6.45,-14.4425 10.0961,-30.4843 10.0961,-47.2359 0,-13.8933 -11.2618,-25.1587 -25.1575,-25.1587 -13.8933,0 -25.1563,11.2654 -25.1563,25.1587 0,9.48544 -2.02795,18.4394 -5.72008,26.7331 -5.52756,12.4228 -14.948,23.3209 -26.7071,31.0028 -11.7662,7.69725 -25.6937,12.1311 -40.2449,12.124 -19.3748,-0.011811 -36.6827,-7.78111 -49.4044,-20.4614 -12.6874,-12.7205 -20.4567,-30.0296 -20.4709,-49.3985 0,-13.8933 -11.263,-25.1587 -25.1504,-25.1587 -13.8945,0 -25.1551,11.2654 -25.1551,25.1587z"/>
  <path class="fil5" d="M1025.31 307.441c-383.776,1.9878 -694.352,312.453 -695.213,697.297 0,0 95.8241,-157.481 374.185,-154.81 91.4977,-40.663 202.694,-58.4091 321.027,-58.4091 118.331,0 229.538,17.7461 321.029,58.4091 278.367,-2.67166 374.188,154.81 374.188,154.81 -0.855119,-384.845 -311.438,-695.31 -695.216,-697.297z"/>
  <path class="fil6" d="M1008.55 307.738c-108.945,7.2756 -295.849,163.742 -302.538,541.434l-1.72559 0.757087c-278.361,-2.67166 -374.185,154.81 -374.185,154.81 0.848032,-379.225 302.434,-686.214 678.449,-697.001z"/>
  <path class="fil6" d="M1050.67 308.075c109.545,10.9063 292.051,168.358 298.426,541.851 276.232,-1.6063 371.438,154.812 371.438,154.812 -0.836221,-376.329 -297.858,-681.482 -669.864,-696.663z"/>
  <path class="fil3" d="M336.435 1010.48c0,7.65001 -2.75788,13.8543 -6.15709,13.8543 -3.39803,0 -6.163,-6.20434 -6.163,-13.8543 0,-7.64882 2.76496,-13.8543 6.163,-13.8543 3.39922,0 6.15709,6.20552 6.15709,13.8543z"/>
  <path class="fil3" d="M714.282 858.015c0,7.64882 -2.75906,13.8555 -6.15827,13.8555 -3.39685,0 -6.16182,-6.2067 -6.16182,-13.8555 0,-7.65001 2.76496,-13.8543 6.16182,-13.8543 3.39922,0 6.15827,6.20434 6.15827,13.8543z"/>
  <path class="fil3" d="M520.748 1109.91c0,6.03898 -2.17677,10.9429 -4.86378,10.9429 -2.6811,0 -4.86496,-4.90394 -4.86496,-10.9429 0,-6.04489 2.18386,-10.9382 4.86496,-10.9382 2.68701,0 4.86378,4.89331 4.86378,10.9382z"/>
  <path class="fil3" d="M825.677 1169.57c0,6.03898 -2.17795,10.9429 -4.86378,10.9429 -2.6811,0 -4.86496,-4.90394 -4.86496,-10.9429 0,-6.04489 2.18386,-10.9382 4.86496,-10.9382 2.68583,0 4.86378,4.89331 4.86378,10.9382z"/>
  <path class="fil3" d="M1711.57 1010.48c0,7.65001 2.7567,13.8543 6.15237,13.8543 3.39922,0 6.16418,-6.20434 6.16418,-13.8543 0,-7.64882 -2.76496,-13.8543 -6.16418,-13.8543 -3.39567,0 -6.15237,6.20552 -6.15237,13.8543z"/>
  <path class="fil3" d="M1340.35 858.015c0,7.64882 2.75788,13.8555 6.15237,13.8555 3.4004,0 6.16418,-6.2067 6.16418,-13.8555 0,-7.65001 -2.76378,-13.8543 -6.16418,-13.8543 -3.39449,0 -6.15237,6.20434 -6.15237,13.8543z"/>
  <path class="fil3" d="M1533.88 1109.91c0,6.03898 2.18032,10.9429 4.85906,10.9429 2.68347,0 4.87323,-4.90394 4.87323,-10.9429 0,-6.04489 -2.18977,-10.9382 -4.87323,-10.9382 -2.67874,0 -4.85906,4.89331 -4.85906,10.9382z"/>
  <path class="fil3" d="M1228.95 1169.57c0,6.03898 2.1815,10.9429 4.85906,10.9429 2.68583,0 4.87323,-4.90394 4.87323,-10.9429 0,-6.04489 -2.1874,-10.9382 -4.87323,-10.9382 -2.67756,0 -4.85906,4.89331 -4.85906,10.9382z"/>
 </g>
</svg>
