<?xml version="1.0" encoding="UTF-8"?>
<!DOCTYPE svg PUBLIC "-//W3C//DTD SVG 1.1//EN" "http://www.w3.org/Graphics/SVG/1.1/DTD/svg11.dtd">
<!-- Creator: CorelDRAW -->
<svg xmlns="http://www.w3.org/2000/svg" xml:space="preserve" width="2048px" height="2048px" style="shape-rendering:geometricPrecision; text-rendering:geometricPrecision; image-rendering:optimizeQuality; fill-rule:evenodd; clip-rule:evenodd"
viewBox="0 0 2048 2048"
 xmlns:xlink="http://www.w3.org/1999/xlink">
 <defs>
  <style type="text/css">
   <![CDATA[
    .fil0 {fill:none}
    .fil3 {fill:#F4511E}
    .fil2 {fill:#4FC3F7;fill-rule:nonzero}
    .fil1 {fill:#F4511E;fill-rule:nonzero}
   ]]>
  </style>
 </defs>
 <g id="Layer_x0020_1">
  <metadata id="CorelCorpID_0Corel-Layer"/>
  <rect class="fil0" width="2048" height="2048"/>
  <rect class="fil0" x="255.999" y="255.999" width="1536" height="1536"/>
  <g id="_218066000">
   <path id="_218071184" class="fil1" d="M964.094 1481.48c35.8925,23.7319 57.3603,61.6087 63.0532,103.658 5.53937,40.8992 -3.95551,85.7398 -29.7969,124.821 -25.8414,39.0815 -63.3827,65.3764 -103.185,76.2957 -40.9217,11.2276 -84.1808,6.30591 -120.072,-17.4272 -35.8902,-23.7307 -57.3603,-61.6087 -63.0532,-103.658 -5.53819,-40.8992 3.95551,-85.7398 29.7969,-124.821 25.8425,-39.0815 63.3839,-65.3764 103.186,-76.2957 40.9205,-11.2276 84.1808,-6.30473 120.071,17.4272zm14.8973 110.18c-3.84567,-28.4126 -18.0815,-53.8264 -41.7922,-69.5044 -23.7106,-15.678 -52.6701,-18.8256 -80.3197,-11.2394 -28.7717,7.89331 -56.1674,27.2929 -75.3662,56.328 -19.1977,29.0339 -26.3209,61.839 -22.3169,91.4032 3.84685,28.4126 18.0827,53.8276 41.7933,69.5056 23.7106,15.6768 52.6689,18.8244 80.3197,11.2382 28.7705,-7.89331 56.1674,-27.2929 75.365,-56.328 19.1988,-29.0339 26.3209,-61.839 22.3169,-91.4032z"/>
   <g>
    <path id="_218062064" class="fil2" d="M890.319 1460.58c8.86418,0.197244 17.5665,0.951969 26.1106,2.25118l57.9142 -314.326 50.0693 -271.754 114.254 -620.108c-24.4807,-4.83544 -44.5689,17.4839 -85.2733,62.7308 -13.6358,15.1571 -29.0386,32.2784 -46.3973,50.6764 -39.554,112.26 -72.1441,223.758 -96.8044,334.388 -25.0902,112.552 -41.8524,223.684 -49.2555,333.21 -2.27599,33.652 -3.6815,66.6579 -4.18819,98.9871 -0.512599,32.6268 -0.148819,65.3233 1.12205,98.08l-0.0236221 0.0011811 0.0625985 0.660237 4.98426 226.324c9.313,-0.95315 18.4536,-1.32284 27.4252,-1.12205z"/>
    <path id="_218056496" class="fil2" d="M669.197 1314.37c-3.65197,-8.07875 -7.75512,-15.7902 -12.2965,-23.1437l266.548 -176.374 230.445 -152.485 525.848 -347.953c14.0351,20.6327 1.36536,47.8548 -24.3295,103.028 -8.60788,18.4819 -18.3307,39.3591 -28.461,62.5359 -87.8079,80.3552 -177.639,154.003 -269.778,220.015 -93.7394,67.1599 -189.434,126.102 -287.314,175.801 -30.0733,15.2717 -59.8937,29.4898 -89.4414,42.6154 -29.8217,13.2484 -60.0497,25.7173 -90.6875,37.3748l0.00826772 0.0212599 -0.63189 0.201969 -210.203 84.0379c-2.76969,-8.94213 -6.00827,-17.498 -9.70631,-25.6748z"/>
   </g>
   <circle id="_218053544" class="fil3" transform="matrix(0.584157 -0.883452 0.883452 0.584156 923.515 1170.07)" r="31.9996"/>
   <path id="_218079584" class="fil1" d="M617.026 1245.15c-35.8914,-23.7331 -79.1493,-28.6547 -120.071,-17.4272 -39.802,10.9193 -77.3434,37.2142 -103.185,76.2957 -25.8425,39.0815 -35.3362,83.9221 -29.7981,124.821 5.69292,42.0496 27.1618,79.9264 63.0532,103.658 35.8902,23.7319 79.1505,28.6547 120.072,17.4272 39.802,-10.9193 77.3434,-37.2142 103.185,-76.2957 25.8414,-39.0815 35.3362,-83.9221 29.7969,-124.821 -5.69292,-42.0496 -27.1618,-79.9276 -63.0532,-103.658zm-107.215 29.4366c27.6496,-7.58623 56.6091,-4.43859 80.3197,11.2394 23.7106,15.678 37.9465,41.0918 41.7922,69.5044 4.00394,29.5642 -3.11811,62.3693 -22.3169,91.4032 -19.1977,29.0351 -46.5945,48.4347 -75.365,56.328 -27.6508,7.58623 -56.6091,4.43859 -80.3197,-11.2382 -23.7106,-15.678 -37.9465,-41.0929 -41.7933,-69.5056 -4.00394,-29.5642 3.11929,-62.3693 22.3169,-91.4032 19.1988,-29.0351 46.5945,-48.4347 75.3662,-56.328z"/>
  </g>
 </g>
</svg>
