<?xml version="1.0" encoding="UTF-8"?>
<!DOCTYPE svg PUBLIC "-//W3C//DTD SVG 1.1//EN" "http://www.w3.org/Graphics/SVG/1.1/DTD/svg11.dtd">
<!-- Creator: CorelDRAW -->
<svg xmlns="http://www.w3.org/2000/svg" xml:space="preserve" width="2048px" height="2048px" style="shape-rendering:geometricPrecision; text-rendering:geometricPrecision; image-rendering:optimizeQuality; fill-rule:evenodd; clip-rule:evenodd"
viewBox="0 0 2048 2048"
 xmlns:xlink="http://www.w3.org/1999/xlink">
 <defs>
  <style type="text/css">
   <![CDATA[
    .fil0 {fill:none}
    .fil4 {fill:#00695C}
    .fil5 {fill:#00897B}
    .fil8 {fill:#01579B}
    .fil2 {fill:#424242}
    .fil6 {fill:#AAAAAA}
    .fil7 {fill:#BDBDBD}
    .fil11 {fill:#C62828}
    .fil3 {fill:#D32F2F}
    .fil12 {fill:#EF5350}
    .fil9 {fill:#F57F17}
    .fil10 {fill:#F9A825}
    .fil1 {fill:#FFD180}
   ]]>
  </style>
 </defs>
 <g id="Layer_x0020_1">
  <metadata id="CorelCorpID_0Corel-Layer"/>
  <rect class="fil0" width="2048" height="2048"/>
  <rect class="fil0" x="255.999" y="255.999" width="1536" height="1536"/>
  <g id="_224129120">
   <polygon id="_224102240" class="fil1" points="1398.71,255.998 1527.49,525.331 1523.53,547.471 1270.9,546.563 1265.67,523.183 "/>
   <path id="_224102264" class="fil2" d="M1398.71 255.998l40.0512 83.7615c-11.8252,7.02166 -25.1162,10.9228 -39.1429,10.8071 -15.0449,-0.122835 -29.1709,-4.84725 -41.4922,-13.0654l40.5839 -81.5032z"/>
   <path id="_224101832" class="fil3" d="M1319.79 1790.9l133.456 1.09488c35.0764,0.288189 64.05,-34.4835 64.3902,-77.2619l0.540945 -68.1827 -261 -2.14252 -0.540945 68.1839c-0.340158,42.7831 28.0772,78.0213 63.1536,78.3083z"/>
   <path id="_224101064" class="fil4" d="M1451.89 1646.01l1.07008 0.00826772 65.2146 0.53504 8.9067 -1121.22 -1.57205 -0.0129921c-8.13071,9.17599 -18.8764,14.7213 -30.6177,14.6256 -11.7402,-0.0968505 -22.3925,-5.81811 -30.3768,-15.1264l-3.71811 -0.0307087 -8.9067 1121.23z"/>
   <path id="_224099048" class="fil5" d="M1387.67 1645.48l1.07008 0.00944883 63.1465 0.518504 8.9067 -1121.23 -0.609449 -0.00472441c-8.13071,9.17599 -18.8728,14.7213 -30.613,14.6256 -11.7413,-0.0968505 -22.3961,-5.81693 -30.3815,-15.1264l-2.6126 -0.0212599 -8.9067 1121.22z"/>
   <path id="_224099888" class="fil4" d="M1323.46 1644.95l1.07126 0.00944883 63.1453 0.517323 8.9067 -1121.22 -2.24882 -0.0177165c-8.13071,9.17599 -18.8728,14.7213 -30.6142,14.6244 -11.7413,-0.0956694 -22.3925,-5.81811 -30.378,-15.1252l-0.975591 -0.00826772 -8.9067 1121.22z"/>
   <path id="_224099456" class="fil5" d="M1257.17 1644.41l66.2835 0.543308 8.9067 -1121.22 -3.35079 -0.0271654c-8.1319,9.17481 -18.8728,14.7213 -30.6142,14.6244 -11.7413,-0.0956694 -22.3961,-5.81811 -30.3815,-15.1252l-1.93583 -0.0153543 -8.90788 1121.22z"/>
   <polygon id="_224098664" class="fil6" points="1451.89,1646.01 1452.96,1646.02 1518.17,1646.55 1519.51,1478.54 1454.13,1478 1453.22,1477.99 "/>
   <polygon id="_224130776" class="fil7" points="1387.67,1645.48 1388.74,1645.49 1451.89,1646.01 1453.22,1477.99 1389.92,1477.47 1389.01,1477.46 "/>
   <polygon id="_224129960" class="fil6" points="1323.46,1644.95 1324.53,1644.96 1387.67,1645.48 1389.01,1477.46 1325.7,1476.94 1324.79,1476.94 "/>
   <polygon id="_224130128" class="fil7" points="1257.17,1644.41 1323.46,1644.95 1324.79,1476.94 1258.51,1476.39 "/>
  </g>
  <g id="_224116088">
   <polygon id="_224129096" class="fil1" points="1030.65,255.998 1159.43,525.331 1155.47,547.471 902.837,546.563 897.609,523.183 "/>
   <path id="_224098184" class="fil2" d="M1030.65 255.998l40.0512 83.7615c-11.8252,7.02166 -25.1162,10.9228 -39.1429,10.8071 -15.0449,-0.122835 -29.1709,-4.84725 -41.4922,-13.0654l40.5839 -81.5032z"/>
   <path id="_224130752" class="fil8" d="M951.726 1790.9l133.456 1.09488c35.0764,0.288189 64.05,-34.4835 64.3902,-77.2619l0.540945 -68.1827 -261 -2.14252 -0.540945 68.1839c-0.340158,42.7831 28.0772,78.0213 63.1536,78.3083z"/>
   <path id="_224100584" class="fil9" d="M1083.83 1646.01l1.07008 0.00826772 65.2146 0.53504 8.9067 -1121.22 -1.57205 -0.0129921c-8.13071,9.17599 -18.8764,14.7213 -30.6177,14.6256 -11.7402,-0.0968505 -22.3925,-5.81811 -30.3768,-15.1264l-3.71811 -0.0307087 -8.9067 1121.23z"/>
   <path id="_224103224" class="fil10" d="M1019.61 1645.48l1.07008 0.00944883 63.1465 0.518504 8.9067 -1121.23 -0.609449 -0.00472441c-8.13071,9.17599 -18.8728,14.7213 -30.613,14.6256 -11.7413,-0.0968505 -22.3961,-5.81693 -30.3815,-15.1264l-2.6126 -0.0212599 -8.9067 1121.22z"/>
   <path id="_224106320" class="fil9" d="M955.397 1644.95l1.07126 0.00944883 63.1453 0.517323 8.9067 -1121.22 -2.24882 -0.0177165c-8.13071,9.17599 -18.8728,14.7213 -30.6142,14.6244 -11.7413,-0.0956694 -22.3925,-5.81811 -30.378,-15.1252l-0.975591 -0.00826772 -8.9067 1121.22z"/>
   <path id="_224099120" class="fil10" d="M889.113 1644.41l66.2835 0.543308 8.9067 -1121.22 -3.35079 -0.0271654c-8.1319,9.17481 -18.8728,14.7213 -30.6142,14.6244 -11.7413,-0.0956694 -22.3961,-5.81811 -30.3815,-15.1252l-1.93583 -0.0153543 -8.90788 1121.22z"/>
   <polygon id="_224107832" class="fil6" points="1083.83,1646.01 1084.9,1646.02 1150.11,1646.55 1151.45,1478.54 1086.07,1478 1085.16,1477.99 "/>
   <polygon id="_224112704" class="fil7" points="1019.61,1645.48 1020.68,1645.49 1083.83,1646.01 1085.16,1477.99 1021.86,1477.47 1020.95,1477.46 "/>
   <polygon id="_224114528" class="fil6" points="955.397,1644.95 956.468,1644.96 1019.61,1645.48 1020.95,1477.46 957.642,1476.94 956.731,1476.94 "/>
   <polygon id="_224115176" class="fil7" points="889.113,1644.41 955.397,1644.95 956.731,1476.94 890.449,1476.39 "/>
  </g>
  <g id="_224119664">
   <polygon id="_224115752" class="fil1" points="662.592,255.998 791.372,525.331 787.407,547.471 534.776,546.563 529.549,523.183 "/>
   <path id="_224118224" class="fil2" d="M662.591 255.998l40.0512 83.7615c-11.8252,7.02166 -25.1162,10.9228 -39.1429,10.8071 -15.0449,-0.122835 -29.1709,-4.84725 -41.4922,-13.0654l40.5839 -81.5032z"/>
   <path id="_224117240" class="fil9" d="M583.666 1790.9l133.456 1.09488c35.0764,0.288189 64.05,-34.4835 64.3902,-77.2619l0.540945 -68.1827 -261 -2.14252 -0.540945 68.1839c-0.340158,42.7831 28.0772,78.0213 63.1536,78.3083z"/>
   <path id="_224120768" class="fil11" d="M715.77 1646.01l1.07008 0.00826772 65.2146 0.53504 8.9067 -1121.22 -1.57205 -0.0129921c-8.13071,9.17599 -18.8764,14.7213 -30.6177,14.6256 -11.7402,-0.0968505 -22.3925,-5.81811 -30.3768,-15.1264l-3.71811 -0.0307087 -8.9067 1121.23z"/>
   <path id="_224123024" class="fil12" d="M651.553 1645.48l1.07008 0.00944883 63.1465 0.518504 8.9067 -1121.23 -0.609449 -0.00472441c-8.13071,9.17599 -18.8728,14.7213 -30.613,14.6256 -11.7413,-0.0968505 -22.3961,-5.81693 -30.3815,-15.1264l-2.6126 -0.0212599 -8.9067 1121.22z"/>
   <path id="_224123336" class="fil11" d="M587.337 1644.95l1.07126 0.00944883 63.1453 0.517323 8.9067 -1121.22 -2.24882 -0.0177165c-8.13071,9.17599 -18.8728,14.7213 -30.6142,14.6244 -11.7413,-0.0956694 -22.3925,-5.81811 -30.378,-15.1252l-0.975591 -0.00826772 -8.9067 1121.22z"/>
   <path id="_224126624" class="fil12" d="M521.053 1644.41l66.2835 0.543308 8.9067 -1121.22 -3.35079 -0.0271654c-8.1319,9.17481 -18.8728,14.7213 -30.6142,14.6244 -11.7413,-0.0956694 -22.3961,-5.81811 -30.3815,-15.1252l-1.93583 -0.0153543 -8.90788 1121.22z"/>
   <polygon id="_224125544" class="fil6" points="715.77,1646.01 716.84,1646.02 782.055,1646.55 783.389,1478.54 718.014,1478 717.104,1477.99 "/>
   <polygon id="_224128136" class="fil7" points="651.553,1645.48 652.623,1645.49 715.77,1646.01 717.104,1477.99 653.797,1477.47 652.888,1477.46 "/>
   <polygon id="_224129768" class="fil6" points="587.337,1644.95 588.408,1644.96 651.553,1645.48 652.888,1477.46 589.582,1476.94 588.671,1476.94 "/>
   <polygon id="_224129696" class="fil7" points="521.053,1644.41 587.337,1644.95 588.671,1476.94 522.389,1476.39 "/>
  </g>
 </g>
</svg>
