<?xml version="1.0" encoding="UTF-8"?>
<!DOCTYPE svg PUBLIC "-//W3C//DTD SVG 1.1//EN" "http://www.w3.org/Graphics/SVG/1.1/DTD/svg11.dtd">
<!-- Creator: CorelDRAW -->
<svg xmlns="http://www.w3.org/2000/svg" xml:space="preserve" width="2048px" height="2048px" style="shape-rendering:geometricPrecision; text-rendering:geometricPrecision; image-rendering:optimizeQuality; fill-rule:evenodd; clip-rule:evenodd"
viewBox="0 0 2048 2048"
 xmlns:xlink="http://www.w3.org/1999/xlink">
 <defs>
  <style type="text/css">
   <![CDATA[
    .fil0 {fill:none}
    .fil4 {fill:#33691E}
    .fil1 {fill:#7CB342}
    .fil3 {fill:#424242;fill-rule:nonzero}
    .fil2 {fill:#C62828;fill-rule:nonzero}
   ]]>
  </style>
 </defs>
 <g id="Layer_x0020_1">
  <metadata id="CorelCorpID_0Corel-Layer"/>
  <rect class="fil0" width="2048" height="2048"/>
  <rect class="fil0" x="255.999" y="255.999" width="1536" height="1536"/>
  <g id="_224121344">
   <path id="_224124368" class="fil1" d="M1398.37 1462.86l182.857 0 0 -146.283 -182.856 0 0 -73.1445 182.856 0 0 -512.001c0,-261.486 -213.942,-475.428 -475.428,-475.428l-146.287 0c-261.487,0 -475.428,213.943 -475.428,475.428l0 512.001 182.857 0 0 -473.214c0,-182.248 142.629,-331.36 316.953,-331.36l97.5237 0c174.324,0 316.953,149.113 316.953,331.36l0 692.641zm-914.286 -146.283l0 146.283 182.857 0 0 -146.283 -182.857 0z"/>
   <polygon id="_224123096" class="fil2" points="593.8,1572.57 593.8,1792 520.655,1792 520.655,1572.57 "/>
   <polygon id="_224122904" class="fil2" points="447.513,1645.71 666.942,1645.71 666.942,1718.86 447.513,1718.86 "/>
   <polygon id="_224122448" class="fil3" points="1381.06,1645.71 1600.49,1645.71 1600.49,1718.86 1381.06,1718.86 "/>
   <polygon id="_224121824" class="fil4" points="666.942,1316.57 666.942,1243.43 484.085,1243.43 484.085,1316.57 "/>
   <polygon id="_224121752" class="fil4" points="1581.23,1316.57 1581.23,1243.43 1398.37,1243.43 1398.37,1316.57 "/>
  </g>
 </g>
</svg>
