<?xml version="1.0" encoding="UTF-8"?>
<!DOCTYPE svg PUBLIC "-//W3C//DTD SVG 1.1//EN" "http://www.w3.org/Graphics/SVG/1.1/DTD/svg11.dtd">
<!-- Creator: CorelDRAW -->
<svg xmlns="http://www.w3.org/2000/svg" xml:space="preserve" width="2048px" height="2048px" style="shape-rendering:geometricPrecision; text-rendering:geometricPrecision; image-rendering:optimizeQuality; fill-rule:evenodd; clip-rule:evenodd"
viewBox="0 0 2048 2048"
 xmlns:xlink="http://www.w3.org/1999/xlink">
 <defs>
  <style type="text/css">
   <![CDATA[
    .fil0 {fill:none}
    .fil4 {fill:#0277BD}
    .fil3 {fill:#01579B;fill-rule:nonzero}
    .fil2 {fill:#0277BD;fill-rule:nonzero}
    .fil1 {fill:#7CB342;fill-rule:nonzero}
   ]]>
  </style>
 </defs>
 <g id="Layer_x0020_1">
  <metadata id="CorelCorpID_0Corel-Layer"/>
  <rect class="fil0" width="2048" height="2048"/>
  <rect class="fil0" x="255.999" y="255.999" width="1536" height="1536"/>
  <g id="_224106056">
   <path id="_224126888" class="fil1" d="M1079.58 1475.5c-315.715,0 -571.647,-255.931 -571.647,-571.909 0,-315.676 255.932,-571.587 571.647,-571.587 315.917,0 571.829,255.911 571.829,571.587 0,315.978 -255.912,571.909 -571.829,571.909z"/>
   <path id="_224127080" class="fil2" d="M1560.24 1042.69c2.4815,-17.8028 -7.7504,-64.0028 -7.7504,-64.0028 0,0 -20.5878,-15.5221 -7.56969,-28.076 12.8173,-13.0996 15.3201,-46.4221 15.3201,-46.4221l23.0705 -25.3311c0,0 17.8016,-25.5532 20.3646,-38.3894 2.50394,-12.8173 0,-20.589 -2.56299,-33.4051 -2.50276,-12.7358 5.06693,-35.8666 5.06693,-48.6024 -95.4308,-234.475 -255.932,-289.335 -255.932,-289.335l-12.8173 53.7095c0,0 28.1575,7.7693 43.4575,2.74488 15.2386,-4.96654 23.0492,-4.96654 23.0492,-4.96654l20.5878 28.0559c0,0 7.74922,17.8028 10.2532,28.1362 2.56299,10.2532 -5.28898,25.5532 -5.28898,25.5532 0,0 -35.6044,2.50276 -35.6044,-7.77166 0,-10.3134 5.06693,-15.2976 5.06693,-15.2976l4.98544 -17.8028c0,0 -23.0492,-12.8173 -84.3083,-7.75158 -61.4398,5.26772 -38.6528,48.6237 -64.2249,58.9371 -25.5532,10.2732 20.5878,46.141 30.9012,66.4453 10.2732,20.5878 25.5732,-25.552 25.5732,-25.552 0,0 -15.3,-17.8028 10.2543,-23.0906 25.6536,-5.02678 42.587,46.1398 29.4874,43.6784 -12.7358,-2.50276 -26.9256,13.6039 -24.4217,26.3799 2.48268,13.1197 2.48268,11.9693 15.2988,40.1244 12.7358,28.0358 40.5697,48.8859 40.5697,48.8859 0,0 13.0595,-8.03386 5.57008,7.26615 -7.74922,15.3201 2.50276,51.1453 2.50276,61.4587 0,10.3158 30.9024,-17.8004 35.8878,-43.6559 4.96418,-25.3512 35.0185,-3.06851 45.352,-0.565748 9.97087,2.78504 28.904,-4.48111 33.8882,-17.237 5.06811,-12.7961 51.2079,25.552 64.0241,33.3437 12.737,7.52835 7.44804,28.115 -12.8162,17.8016 -20.3055,-10.2732 -38.3906,-2.50158 -33.4051,18.0851 5.32914,20.3457 25.6347,7.81182 23.1307,20.3457 -2.56181,12.7358 -23.1307,25.8555 -28.1162,43.6571 -4.98426,17.7827 -53.9918,2.50394 -69.0083,-5.06575 -15.5209,-7.77048 -58.9371,-15.5209 -63.9414,5.06575 -5.52993,20.5677 -53.9516,28.0559 -71.7544,33.1217 -18.0851,5.24764 -53.9918,7.75158 -74.5595,28.3193 -20.3043,20.3043 15.5823,58.956 18.0851,71.7721 2.48268,12.8374 17.8028,43.376 28.1162,63.9626 10.2732,20.2654 15.2599,28.1162 28.076,38.3705 12.7973,10.3134 20.5866,28.115 20.5866,28.115l2.4626 43.376c0,0 -4.96418,36.15 -12.7358,48.9662 -7.52835,12.5539 27.4902,88.728 27.4902,88.728 22.2638,-4.19882 34.5355,-30.0343 42.3071,-50.3386 7.74922,-20.5878 17.8004,-31.4469 15.2976,-54.5363 -2.52166,-23.0705 19.9819,-35.0197 27.5504,-47.8359 7.48938,-13.0595 17.8028,-30.861 17.8028,-43.6784 0,-12.7961 28.3382,-30.9012 28.3382,-30.9012 0,0 50.9044,-22.787 58.6748,-33.0012 8.113,-10.3536 15.8646,-53.9918 18.3673,-71.7934z"/>
   <path id="_224123168" class="fil2" d="M1248.72 449.689c-54.4772,-50.3174 -140.985,-40.0831 -147.685,-28.115 15.3189,25.3713 39.2374,16.9536 42.0225,42.587 2.48268,25.5532 43.3748,58.676 38.087,69.1902 -4.98662,10.3358 0,53.9918 36.189,15.6024 35.6055,-38.3894 71.4721,-51.4075 68.9682,-77.3233 -0.543308,-4.98544 -37.0158,-13.0394 -37.5815,-21.9414z"/>
   <path id="_224126192" class="fil2" d="M977.233 994.452c0,-234.193 -179.698,-57.5245 -179.698,-57.5245 -102.332,68.4225 -115.977,-56.4945 -115.977,-56.4945l-75.0426 -27.2492 -6.72048 -34.2307 10.839 -47.5737 109.073 -44.9894c0,0 10.5567,35.6044 -17.5193,78.9591 0,0 9.40513,49.4906 32.2536,36.7347l63.0945 -31.7492c0,0 21.4559,-9.18308 55.4044,11.3634 34.1918,20.3858 92.0587,-1.04882 92.0587,-1.04882 0,0 -4.78347,-34.2532 -40.65,-52.0548l-29.2063 -19.4374c0,0 7.8319,-35.0386 0.848032,-62.2867 -6.66142,-27.2894 -18.6508,-3.65433 -45.9189,-23.9386 -27.1878,-20.3043 -46.1398,40.0855 -86.9918,33.1016 -40.8922,-6.7004 -20.5878,-13.6441 -47.876,-27.2481 -27.5315,-13.6039 -47.8359,27.2481 -47.8359,27.2481l-54.5363 6.98386c0,0 8.39646,-61.8036 4.78347,-45.9189 -34.5555,59.5229 -85.1764,218.007 -66.5067,246.142 11.3847,-5.00433 20.5477,-9.20316 20.5477,-9.20316l68.4638 0 -40.8922 47.876c0,0 -19.7209,29.1862 -47.8359,27.2481 18.3473,214.211 196.934,351.562 196.934,351.562 27.2681,-27.2894 13.8862,-51.1264 13.8862,-51.1264l-7.77048 -40.9524 -4.46103 -69.1902c0,0 0,-71.5111 68.4225,-37.6028 73.4091,18.9331 42.8504,18.9331 116.844,23.9173 74.2571,5.24764 61.9867,-151.317 61.9867,-151.317z"/>
   <path id="_224122376" class="fil2" d="M813.138 581.188l-41.1555 -27.5516c0,0 17.237,-43.9193 14.452,-65.6575 -9.99095,-4.68189 -50.3386,16.389 -84.2469,52.2756 22.787,85.4386 76.7587,75.1253 76.7587,75.1253 0,0 39.1772,-1.13032 34.1918,-34.1918z"/>
   <path id="_224124800" class="fil3" d="M897.884 1767.71c-29.6634,5.04804 -63.3437,12.5221 -84.5032,18.9673 15.548,1.57205 41.2311,2.67874 84.7749,2.67874l378.588 1.8437c0,0 15.4713,0.796064 33.1382,0.796064 10.4055,0 18.5008,-0.271654 24.5965,-0.796064 -14.4437,-5.35748 -39.8551,-13.3559 -84.2516,-24.5953l-106.189 -25.141 1.35945 -158.388 10.1339 -1.32047c128.94,-17.3929 261.121,-76.7575 361.389,-161.902 0.271654,-0.175984 23.0032,-26.1295 9.66733,-39.5634 0,-0.272835 -13.6476,-10.1339 -31.5851,-10.1339 -4.25079,0 -8.54174,0.52441 -12.8126,1.8437l-34.4965 21.724c-15.0059,11.4921 -26.5181,19.7622 -47.6788,31.565l-63.6142 32.8465c-77.341,34.5355 -160.002,52.2012 -245.321,52.2012 -334.676,0 -617.444,-281.68 -617.444,-615.056 0,-216.58 141.801,-435.322 334.659,-531.796 0,0 25.4114,-12.0343 52.2012,-23.7992l43.8532 -17.1213c5.88189,-2.97166 15.802,-11.5311 15.802,-37.7587 0.271654,-3.96024 -1.10669,-16.0158 -7.80473,-22.7327 -6.91064,-7.20237 -20.0717,-7.99843 -37.1941,-2.40709 -281.932,93.104 -478.565,354.477 -478.565,635.615 0,335.491 289.757,650.601 632.645,688.32l10.5012 1.10669 0 10.4055c0,58.8402 1.2815,135.113 1.2815,135.113l0 9.87993 -143.13 27.6047z"/>
   <circle id="_224117720" class="fil4" cx="855.706" cy="303.286" r="16.2159"/>
   <circle id="_224113040" class="fil4" cx="1467.34" cy="1421.25" r="16.2159"/>
   <polygon id="_224105528" class="fil2" points="869.233,295.921 1480.87,1413.88 1453.81,1428.62 842.18,310.653 "/>
  </g>
 </g>
</svg>
