<?xml version="1.0" encoding="UTF-8"?>
<!DOCTYPE svg PUBLIC "-//W3C//DTD SVG 1.1//EN" "http://www.w3.org/Graphics/SVG/1.1/DTD/svg11.dtd">
<!-- Creator: CorelDRAW -->
<svg xmlns="http://www.w3.org/2000/svg" xml:space="preserve" width="2048px" height="2048px" style="shape-rendering:geometricPrecision; text-rendering:geometricPrecision; image-rendering:optimizeQuality; fill-rule:evenodd; clip-rule:evenodd"
viewBox="0 0 2048 2048"
 xmlns:xlink="http://www.w3.org/1999/xlink">
 <defs>
  <style type="text/css">
   <![CDATA[
    .fil4 {fill:none}
    .fil0 {fill:#FBC02D}
    .fil3 {fill:#424242;fill-rule:nonzero}
    .fil2 {fill:#616161;fill-rule:nonzero}
    .fil1 {fill:#F9A023;fill-rule:nonzero}
   ]]>
  </style>
 </defs>
 <g id="Layer_x0020_1">
  <metadata id="CorelCorpID_0Corel-Layer"/>
  <path class="fil0" d="M1270.28 734.809c273.51,145.786 344.872,459.898 183.94,738.299 -160.931,278.401 -513.115,385.908 -786.625,240.121 -273.51,-145.786 -364.772,-489.661 -203.842,-768.061 160.93,-278.4 533.017,-356.145 806.527,-210.359z"/>
  <path class="fil1" d="M1363.56 1368.14c-47.6552,-27.9957 -96.6839,-54.065 -146.672,-77.9434 -2.16614,154.96 -29.3339,309.487 -79.0418,450.887 12.0732,-3.25985 23.9445,-6.71103 35.4355,-10.461 47.8583,-15.6165 93.0804,-40.1658 134.354,-70.8934 31.7126,-88.0359 51.7193,-191.235 55.9241,-291.59z"/>
  <path class="fil1" d="M1126.97 1249.95c-4.38898,-1.83189 -8.84056,-3.64488 -13.3181,-5.44961 -38.0221,180.963 -97.5686,357.293 -177.018,524.259 64.1989,-0.812599 127.618,-9.30709 185.607,-23.6445 51.8067,-144.157 79.9005,-302.49 81.4465,-461.146 -25.3701,-11.8866 -50.9469,-23.2855 -76.7174,-34.0181z"/>
  <path class="fil1" d="M1380.54 1378.14c-1.33819,-0.806694 -2.70355,-1.57914 -4.04292,-2.38465 -4.51772,92.0859 -22.0524,186.232 -49.5603,268.945 54.6367,-44.5996 101.32,-100.049 136.669,-159.497 2.89843,-36.6815 -24.2693,-71.706 -83.0658,-107.063z"/>
  <path class="fil1" d="M615.947 1524.02c-0.614174,0.18189 -1.23543,0.265748 -1.84725,0.265748 -2.89134,0 -5.55591,-1.90512 -6.39686,-4.81654 -0.161811,-0.559843 -0.262205,-1.1374 -0.420473,-1.69606 -5.51103,3.71575 -10.8331,7.61457 -15.5374,12.137 0.37441,1.63228 0.643701,3.34488 1.05354,4.94292 0.910631,3.56457 -1.23898,7.19528 -4.80355,8.10119 -0.551575,0.147638 -1.10906,0.21378 -1.65354,0.21378 -2.97166,0 -5.68347,-2.00433 -6.45119,-5.01851 -15.3839,-60.2174 -5.76733,-139.501 14.5063,-206.916 -50.0126,54.2575 -104.694,119.516 -122.668,196.517 5.20748,10.7197 10.7197,21.2929 16.5898,31.6796 26.6622,47.1709 62.2678,85.1068 103.78,115.173 69.3768,-85.1847 132.547,-176.712 176.897,-257.347 1.76693,-3.22323 5.82402,-4.39607 9.04607,-2.62441 3.22559,1.76575 4.40433,5.82402 2.62441,9.04135 -44.5843,81.0757 -108.011,173.02 -177.659,258.618 33.2658,22.4398 70.0477,40.0122 108.986,53.3115 129.646,-145.944 225.845,-320.518 279.403,-508.428 1.00512,-3.5374 4.69725,-5.60197 8.23465,-4.58386 3.5374,1.01221 5.59016,4.69725 4.58268,8.24174 -53.5902,188.01 -149.427,362.804 -278.496,509.374 62.3044,19.441 129.587,28.2496 196.484,28.6217 0.10748,-0.494882 0.146457,-0.992127 0.373229,-1.46575 80.3481,-167.971 140.401,-345.549 178.518,-527.817 -81.4075,-31.4327 -176.019,-54.5103 -277.315,-22.0441 -69.065,22.1256 -117.243,57.8363 -147.295,109.168 -22.5567,38.5418 -46.1351,98.6434 -30.3508,166.121 0.838583,3.5752 -1.3878,7.15749 -4.9689,7.99961 -0.510237,0.119291 -1.01929,0.179528 -1.52362,0.179528 -2.65748,0 -5.00552,-1.65236 -6.04607,-4.12441 -4.24134,4.92402 -9.22087,9.09922 -14.5772,12.9118 0.520867,1.99961 0.920079,4.03819 1.49173,6.01536 1.01575,3.53859 -1.02284,7.22953 -4.56024,8.24883z"/>
  <path class="fil1" d="M1159.68 1005.59c-171.749,-91.0879 -371.665,-142.301 -538.764,-137.191 -49.3536,1.5 -110.621,8.44843 -146.625,49.2024 -0.785434,0.891733 -1.78465,1.42559 -2.83229,1.79173 -11.8606,20.3457 -21.9532,41.752 -30.1559,64.4245 184.101,-73.6111 405.006,-61.7268 585.076,35.6622 43.6181,-8.16024 88.1292,-12.8091 133.3,-13.8898z"/>
  <path class="fil1" d="M1192.13 1000.23c40.3252,-20.7473 158.789,-77.9304 263.1,-91.7599 -9.75355,-15.065 -20.7319,-29.6398 -33.2303,-43.7244 -27.0626,-30.5008 -59.85,-63.8067 -95.3658,-91.9135 -29.8536,83.4379 -75.5162,160.814 -134.504,227.398z"/>
  <path class="fil1" d="M1290.89 1012.33l9.81261 -2.41181c54.0178,-13.3169 131.308,-32.2654 193.989,-22.278 -8.78268,-23.1709 -19.1091,-45.4241 -31.7339,-66.717 -94.519,10.9724 -203.434,60.567 -252.481,84.9709 26.6221,0.927166 53.4378,3.06496 80.4131,6.43583z"/>
  <path class="fil1" d="M1110.14 966.002c22.3866,10.4185 44.3918,21.5197 65.9563,33.2327 0.279921,-0.894095 0.714567,-1.75276 1.37835,-2.49331 61.1339,-67.5567 108.004,-146.845 138.018,-232.482 -22.7917,-17.0291 -46.5426,-31.6595 -70.5272,-41.7851 -26.4555,-11.1803 -55.5697,-20.5795 -85.4174,-28.689 7.12087,82.3949 -11.4319,186.3 -49.4079,272.217z"/>
  <path class="fil1" d="M1525.31 1115.91c-1.18701,-18.9414 -3.65079,-37.663 -8.2689,-55.9701 -5.02323,-19.8886 -10.6323,-39.163 -17.1154,-57.8705 -53.3516,-10.7055 -122.547,3.16536 -173.786,15.3709 3.07796,0.506693 6.14292,0.973229 9.22087,1.50473 55.8308,9.71457 145.338,50.8819 189.95,96.965z"/>
  <path class="fil1" d="M1044.87 935.441c-0.133465,0.740552 -0.407481,1.4126 -0.747638,2.03977 18.1429,7.20827 36.0839,14.9634 53.8855,23.0173 37.8343,-85.6583 56.0174,-189.442 47.889,-270.343 -37.8473,-9.6945 -76.4705,-17.3291 -112.24,-23.4177 -1.07835,-0.187795 -2.15197,-0.340158 -3.2374,-0.519685 24.8776,87.2694 29.9327,179.195 14.4508,269.223z"/>
  <path class="fil2" d="M1651.46 663.904c-3.19843,-9.27993 -9.70158,-16.9949 -16.0559,-24.4772 -4.92402,-5.78268 -9.84095,-11.5654 -14.765,-17.3551 -7.52127,-8.84056 -15.2894,-17.889 -25.5236,-23.3764 -10.226,-5.48504 -23.6303,-6.67087 -33.0107,0.165354 -10.8402,7.89449 -12.8043,23.9847 -8.14725,36.5622 3.18425,8.60788 8.99292,15.7512 15.2492,22.5721 -105.038,96.1194 -210.298,192.436 -315.333,288.559 -27.3709,25.0512 -54.7453,50.1 -82.3134,74.9386 -70.6878,63.691 -141.669,126.497 -212.723,189.129 7.9878,-0.232677 15.9165,0.561024 23.6988,2.22638 11.8311,0.825591 20.0599,4.29685 30.4736,9.41221 197.012,-174.253 391.683,-354.135 576.044,-542.371 5.62205,6.18898 33.952,35.2418 57.8682,11.5843 6.9815,-6.90119 7.74331,-18.2811 4.5378,-27.5693z"/>
  <path class="fil3" d="M647.62 1544.96c97.5922,-111.24 195.938,-220.988 293.528,-332.229 34.1977,-38.9811 70.0205,-78.1489 103.965,-117.357 212.322,-245.234 417.695,-494.065 609.297,-755.808 6.44764,5.32323 38.628,30.0414 58.9288,3.21851 5.92796,-7.83662 5.05512,-19.2012 0.565748,-27.9355 -4.49764,-8.72717 -12.026,-15.437 -19.3878,-21.939 -5.69764,-5.02441 -11.3929,-10.0476 -17.0894,-15.0709 -8.70001,-7.68071 -17.6823,-15.5291 -28.5886,-19.5012 -10.911,-3.96969 -24.3425,-3.2315 -32.6575,4.87087 -9.60001,9.36142 -9.25394,25.5626 -2.85236,37.3488 4.38307,8.06812 11.1543,14.3114 18.3154,20.1685 -90.2611,110.114 -180.708,220.455 -270.963,330.571 -23.5252,28.702 -47.0492,57.3957 -70.7882,85.9111 -220.569,264.9 -446.615,519 -663.071,793.248 -22.0087,27.8882 -67.9548,81.5623 -58.8827,88.2591 9.28465,6.84567 55.0607,-45.6839 79.6808,-73.7552z"/>
  <path class="fil2" d="M957.212 1212.27c6.62126,-6.30945 9.61182,-1.87914 1.62402,-1.64646 -186.375,164.28 -373.259,327.294 -556.68,501.468 -25.7587,24.4618 -78.8906,71.0327 -70.8662,78.9556 8.21457,8.10709 61.0099,-37.3689 89.3835,-61.6347 112.455,-96.1902 225.444,-190.788 337.898,-286.987 39.4099,-33.704 80.4497,-67.3619 119.636,-101.327 44.9859,-38.987 101.947,-89.4757 146.458,-128.829 -9.53859,-4.77756 -30.9319,-6.54331 -41.2193,-8.74725 -7.84134,-0.54567 -21.8599,4.58386 -26.2347,8.74725z"/>
  <path class="fil1" d="M701.487 1160.82c11.791,-9.93308 24.2717,-19.174 37.2898,-27.4607 26.5925,-16.9358 53.889,-32.1862 81.7831,-45.7973 -108.78,-21.3189 -199.019,-26.6882 -275.335,-16.3689 -47.3374,6.40158 -91.839,19.0205 -132.008,36.9697 -8.54528,62.7308 -10.2095,127.136 -4.02402,190.51 28.6051,-26.7177 59.4804,-46.878 85.7859,-61.2284 64.6595,-35.263 136.048,-56.2288 205.089,-76.5024 0.475985,-0.134646 0.946064,-0.0874016 1.41969,-0.121654z"/>
  <path class="fil1" d="M604.381 1301.15c6.29174,-17.0894 13.2,-32.967 20.4614,-46.9784 13.2791,-25.6418 32.1567,-50.7331 54.7453,-73.291 -60.6839,18.0083 -122.294,37.7492 -178.228,68.2619 -27.7465,15.137 -60.7619,36.8705 -90.3568,66.2056 8.0315,67.0288 24.991,132.601 51.9815,193.5 24.9343,-83.1804 88.656,-151.51 140.766,-207.246 0.183071,-0.199606 0.42874,-0.287008 0.630709,-0.452363z"/>
  <path class="fil1" d="M1005.64 1023.62c-177.471,-90.3414 -392.313,-97.969 -570.039,-22.9925 -3.18544,10.1728 -6.013,20.6079 -8.4815,31.2922 -4.6004,19.9618 -8.46733,40.2225 -11.641,60.6815 39.2882,-16.676 82.3725,-28.4551 127.964,-34.6252 81.8918,-11.0717 179.144,-4.51536 297.311,20.041 53.0268,-24.0969 108.164,-42.2516 164.887,-54.3969z"/>
  <path class="fil1" d="M1462.93 1330.88c-49.1882,-36.2752 -90.4418,-66.1501 -135.999,-92.8867 -19.8118,-11.6315 -48.6083,-24.0366 -74.0115,-34.9772 -11.6043,-4.99725 -22.6642,-9.76772 -32.178,-14.1425 -66.5847,-30.6425 -144.587,-43.5071 -231.829,-38.204 -63.9189,3.88465 -121.714,17.1024 -190.784,61.7953 6.98268,-2.69882 14.1449,-5.27717 21.5858,-7.66182 116.337,-37.2756 223.194,-4.31693 312.384,32.8453 87.828,36.5882 173.734,80.0127 255.313,129.063 52.3252,31.4717 81.3745,63.5445 88.1564,97.4552 14.8701,-28.3878 25.9689,-59.4863 33.5256,-91.428 -13.0854,-14.9894 -28.1622,-28.5733 -46.1634,-41.8583z"/>
  <path class="fil1" d="M727.288 785.059c42.5115,23.811 66.6355,46.0973 89.015,82.2532 0.839764,1.35945 1.03819,2.88544 0.852757,4.35118 37.8485,7.00867 76.1103,16.0831 114.306,27.1949 -7.31693,-85.6642 -48.6567,-168.937 -111.295,-228.352 -45.6024,18.3154 -91.1422,27.202 -136.215,53.2926 -17.7602,10.2791 -35.3634,21.1666 -52.5248,32.7189 31.0843,1.29213 59.3741,8.10709 95.8619,28.5414z"/>
  <path class="fil1" d="M944.84 898.645c0.119291,1.43386 -0.327166,2.73898 -1.01457,3.88465 29.5087,8.92205 58.8886,19.0536 87.9698,30.2599 15.4158,-89.9942 9.79961,-181.906 -15.9957,-268.917 -29.5217,-4.63819 -58.8355,-8.29489 -88.6028,-10.6193 -41.3929,-3.24685 -67.7493,4.20355 -92.9717,12.4039 62.4119,61.513 103.433,146.086 110.615,232.988z"/>
  <path class="fil1" d="M620.51 855.073c57.3095,-1.74449 118.455,3.13937 180.983,13.7847 -20.1343,-30.8457 -42.6071,-50.8335 -80.7178,-72.1725 -41.1248,-23.0327 -70.4753,-27.7347 -108.176,-27.0355 -20.7756,14.9504 -40.7067,30.952 -59.1426,48.2681 -22.089,20.7473 -41.6233,42.6 -58.63,65.8382 37.813,-22.6134 85.5201,-27.463 125.684,-28.6831z"/>
  <path class="fil1" d="M633.592 1496.84c-0.142913,-0.340158 -0.347244,-0.651969 -0.435827,-1.0252 -16.7858,-71.7473 8.04331,-135.246 31.8296,-175.872 11.6882,-19.9666 25.9429,-37.6677 42.8658,-53.2394 0.364961,-1.03819 0.891733,-2.02441 1.77756,-2.79685 110.864,-98.0162 188.747,-121.081 278.475,-126.532 89.4485,-5.42363 169.604,7.83544 238.205,39.3945 9.42757,4.3441 20.387,9.06142 31.8803,14.0114 25.761,11.0988 54.9567,23.6764 75.4902,35.7236 49.78,29.2134 98.2288,64.943 137.157,93.6579 15.8953,11.726 29.5925,23.6788 41.7189,36.5292 5.71654,-28.8071 8.6882,-58.0075 9.00827,-86.217 0.100394,-9.35316 0.412205,-18.7866 0.825591,-28.2614 -62.0457,-51.7796 -129.848,-84.6308 -218.677,-106.765 -94.2721,-23.4839 -179.843,-37.2685 -290.991,-28.1339 -36.3437,2.97874 -133.288,18.9673 -201.016,49.4008 -36.6343,16.4563 -95.3753,60.8729 -118.153,83.0386 -68.706,66.8445 -98.791,176.978 -74.5382,269.998 5.3563,-3.8126 10.3358,-7.9878 14.5772,-12.9118z"/>
  <path class="fil1" d="M684.262 1230.2c24.0154,-23.3658 83.4733,-68.3434 121.988,-85.6453 69.3024,-31.1327 168.297,-47.4839 205.386,-50.5335 112.974,-9.26694 199.751,4.68898 295.295,28.4941 87.2694,21.7465 154.739,53.6115 216.253,103.08 1.51772,-29.3209 3.45709,-58.9619 2.98347,-88.2568 -35.5158,-46.8355 -135.217,-95.204 -193.093,-105.265 -104.04,-18.1075 -206.16,-17.7744 -303.729,0.421654 -1.35236,0.777166 -2.89134,1.09134 -4.45158,0.811418 -98.595,18.9614 -192.494,56.2311 -278.961,111.287 -46.7764,29.7803 -86.5961,71.954 -109.256,115.706 -36.2965,70.0808 -63.7642,187.218 -44.9315,269.605 4.70433,-4.52244 10.0264,-8.42127 15.5374,-12.137 -27.639,-98.4249 3.84331,-216.415 76.9796,-287.567z"/>
  <rect class="fil4" width="2048" height="2048"/>
  <rect class="fil4" x="255.999" y="255.999" width="1536" height="1536"/>
 </g>
</svg>
