<?xml version="1.0" encoding="UTF-8"?>
<!DOCTYPE svg PUBLIC "-//W3C//DTD SVG 1.1//EN" "http://www.w3.org/Graphics/SVG/1.1/DTD/svg11.dtd">
<!-- Creator: CorelDRAW -->
<svg xmlns="http://www.w3.org/2000/svg" xml:space="preserve" width="2048px" height="2048px" style="shape-rendering:geometricPrecision; text-rendering:geometricPrecision; image-rendering:optimizeQuality; fill-rule:evenodd; clip-rule:evenodd"
viewBox="0 0 2048 2048"
 xmlns:xlink="http://www.w3.org/1999/xlink">
 <defs>
  <style type="text/css">
   <![CDATA[
    .fil0 {fill:none}
    .fil2 {fill:#EC407A}
    .fil3 {fill:#EF6C00}
    .fil1 {fill:#F57C00}
    .fil5 {fill:#FFA726}
    .fil6 {fill:#FB8C00;fill-rule:nonzero}
    .fil4 {fill:#FFAB40;fill-rule:nonzero}
   ]]>
  </style>
 </defs>
 <g id="Layer_x0020_1">
  <metadata id="CorelCorpID_0Corel-Layer"/>
  <rect class="fil0" width="2048" height="2048"/>
  <rect class="fil0" x="255.999" y="255.999" width="1536" height="1536"/>
  <rect class="fil1" x="1354.06" y="922.639" width="21.5614" height="37.5295"/>
  <rect class="fil1" x="671.231" y="922.639" width="21.5614" height="37.5295"/>
  <path class="fil2" d="M530.294 956.103l987.494 0c33.8044,0 66.5304,28.0418 61.4611,61.4611l-108.184 712.975c-5.0693,33.4181 -27.6603,61.4611 -61.4611,61.4611l-761.29 0c-33.8008,0 -55.9418,-28.1103 -61.4611,-61.4611l-118.021 -712.975c-5.5193,-33.3496 27.6567,-61.4611 61.4611,-61.4611z"/>
  <polygon class="fil3" points="1557.42,1161.4 1541.43,1266.78 510.085,1266.78 492.642,1161.4 "/>
  <path class="fil4" d="M524.507 1172.51l0 8.00079 -7.99961 0 0 -8.00079 7.99961 0zm1007.95 0l0 8.00079 -7.99961 0 0 -8.00079 7.99961 0zm-15.9992 0l0 8.00079 -7.99961 0 0 -8.00079 7.99961 0zm-15.9992 0l0 8.00079 -7.99961 0 0 -8.00079 7.99961 0zm-15.9992 0l0 8.00079 -7.99961 0 0 -8.00079 7.99961 0zm-15.9992 0l0 8.00079 -7.99961 0 0 -8.00079 7.99961 0zm-15.9992 0l0 8.00079 -7.99961 0 0 -8.00079 7.99961 0zm-15.9992 0l0 8.00079 -7.99961 0 0 -8.00079 7.99961 0zm-15.9992 0l0 8.00079 -7.99961 0 0 -8.00079 7.99961 0zm-15.9992 0l0 8.00079 -7.99961 0 0 -8.00079 7.99961 0zm-15.9992 0l0 8.00079 -7.99961 0 0 -8.00079 7.99961 0zm-15.9992 0l0 8.00079 -7.99961 0 0 -8.00079 7.99961 0zm-15.9992 0l0 8.00079 -7.99961 0 0 -8.00079 7.99961 0zm-15.9992 0l0 8.00079 -7.99961 0 0 -8.00079 7.99961 0zm-15.9992 0l0 8.00079 -7.99961 0 0 -8.00079 7.99961 0zm-15.9992 0l0 8.00079 -7.99961 0 0 -8.00079 7.99961 0zm-15.9992 0l0 8.00079 -7.99961 0 0 -8.00079 7.99961 0zm-15.9992 0l0 8.00079 -7.99961 0 0 -8.00079 7.99961 0zm-15.9992 0l0 8.00079 -7.99961 0 0 -8.00079 7.99961 0zm-15.9992 0l0 8.00079 -7.99961 0 0 -8.00079 7.99961 0zm-15.9992 0l0 8.00079 -7.99961 0 0 -8.00079 7.99961 0zm-15.9992 0l0 8.00079 -7.99961 0 0 -8.00079 7.99961 0zm-15.9992 0l0 8.00079 -7.99961 0 0 -8.00079 7.99961 0zm-15.9992 0l0 8.00079 -7.99961 0 0 -8.00079 7.99961 0zm-15.9992 0l0 8.00079 -7.99961 0 0 -8.00079 7.99961 0zm-15.9992 0l0 8.00079 -7.99961 0 0 -8.00079 7.99961 0zm-15.9992 0l0 8.00079 -7.99961 0 0 -8.00079 7.99961 0zm-15.9992 0l0 8.00079 -7.99961 0 0 -8.00079 7.99961 0zm-15.9992 0l0 8.00079 -7.99961 0 0 -8.00079 7.99961 0zm-15.9992 0l0 8.00079 -7.99961 0 0 -8.00079 7.99961 0zm-15.9992 0l0 8.00079 -7.99961 0 0 -8.00079 7.99961 0zm-15.9992 0l0 8.00079 -7.99961 0 0 -8.00079 7.99961 0zm-15.9992 0l0 8.00079 -7.99961 0 0 -8.00079 7.99961 0zm-15.9992 0l0 8.00079 -7.99961 0 0 -8.00079 7.99961 0zm-15.9992 0l0 8.00079 -7.99961 0 0 -8.00079 7.99961 0zm-15.9992 0l0 8.00079 -7.99961 0 0 -8.00079 7.99961 0zm-15.9992 0l0 8.00079 -7.99961 0 0 -8.00079 7.99961 0zm-15.9992 0l0 8.00079 -7.99961 0 0 -8.00079 7.99961 0zm-15.9992 0l0 8.00079 -7.99961 0 0 -8.00079 7.99961 0zm-15.9992 0l0 8.00079 -7.99961 0 0 -8.00079 7.99961 0zm-15.9992 0l0 8.00079 -7.99961 0 0 -8.00079 7.99961 0zm-15.9992 0l0 8.00079 -7.99961 0 0 -8.00079 7.99961 0zm-15.9992 0l0 8.00079 -7.99961 0 0 -8.00079 7.99961 0zm-15.9992 0l0 8.00079 -7.99961 0 0 -8.00079 7.99961 0zm-15.9992 0l0 8.00079 -7.99961 0 0 -8.00079 7.99961 0zm-15.9992 0l0 8.00079 -7.99961 0 0 -8.00079 7.99961 0zm-15.9992 0l0 8.00079 -7.99961 0 0 -8.00079 7.99961 0zm-15.9992 0l0 8.00079 -7.99961 0 0 -8.00079 7.99961 0zm-15.9992 0l0 8.00079 -7.99961 0 0 -8.00079 7.99961 0zm-15.9992 0l0 8.00079 -7.99961 0 0 -8.00079 7.99961 0zm-15.9992 0l0 8.00079 -7.99961 0 0 -8.00079 7.99961 0zm-15.9992 0l0 8.00079 -7.99961 0 0 -8.00079 7.99961 0zm-15.9992 0l0 8.00079 -7.99961 0 0 -8.00079 7.99961 0zm-15.9992 0l0 8.00079 -7.99961 0 0 -8.00079 7.99961 0zm-15.9992 0l0 8.00079 -7.99961 0 0 -8.00079 7.99961 0zm-15.9992 0l0 8.00079 -7.99961 0 0 -8.00079 7.99961 0zm-15.9992 0l0 8.00079 -7.99961 0 0 -8.00079 7.99961 0zm-15.9992 0l0 8.00079 -7.99961 0 0 -8.00079 7.99961 0zm-15.9992 0l0 8.00079 -7.99961 0 0 -8.00079 7.99961 0zm-15.9992 0l0 8.00079 -7.99961 0 0 -8.00079 7.99961 0zm-15.9992 0l0 8.00079 -7.99961 0 0 -8.00079 7.99961 0zm-15.9992 0l0 8.00079 -7.99961 0 0 -8.00079 7.99961 0zm-15.9992 0l0 8.00079 -7.99843 0 0 -8.00079 7.99843 0zm-15.998 0l0 8.00079 -7.99961 0 0 -8.00079 7.99961 0z"/>
  <path class="fil4" d="M524.507 1247.66l0 8.00079 -7.99961 0 0 -8.00079 7.99961 0zm1007.95 0l0 8.00079 -7.99961 0 0 -8.00079 7.99961 0zm-15.9992 0l0 8.00079 -7.99961 0 0 -8.00079 7.99961 0zm-15.9992 0l0 8.00079 -7.99961 0 0 -8.00079 7.99961 0zm-15.9992 0l0 8.00079 -7.99961 0 0 -8.00079 7.99961 0zm-15.9992 0l0 8.00079 -7.99961 0 0 -8.00079 7.99961 0zm-15.9992 0l0 8.00079 -7.99961 0 0 -8.00079 7.99961 0zm-15.9992 0l0 8.00079 -7.99961 0 0 -8.00079 7.99961 0zm-15.9992 0l0 8.00079 -7.99961 0 0 -8.00079 7.99961 0zm-15.9992 0l0 8.00079 -7.99961 0 0 -8.00079 7.99961 0zm-15.9992 0l0 8.00079 -7.99961 0 0 -8.00079 7.99961 0zm-15.9992 0l0 8.00079 -7.99961 0 0 -8.00079 7.99961 0zm-15.9992 0l0 8.00079 -7.99961 0 0 -8.00079 7.99961 0zm-15.9992 0l0 8.00079 -7.99961 0 0 -8.00079 7.99961 0zm-15.9992 0l0 8.00079 -7.99961 0 0 -8.00079 7.99961 0zm-15.9992 0l0 8.00079 -7.99961 0 0 -8.00079 7.99961 0zm-15.9992 0l0 8.00079 -7.99961 0 0 -8.00079 7.99961 0zm-15.9992 0l0 8.00079 -7.99961 0 0 -8.00079 7.99961 0zm-15.9992 0l0 8.00079 -7.99961 0 0 -8.00079 7.99961 0zm-15.9992 0l0 8.00079 -7.99961 0 0 -8.00079 7.99961 0zm-15.9992 0l0 8.00079 -7.99961 0 0 -8.00079 7.99961 0zm-15.9992 0l0 8.00079 -7.99961 0 0 -8.00079 7.99961 0zm-15.9992 0l0 8.00079 -7.99961 0 0 -8.00079 7.99961 0zm-15.9992 0l0 8.00079 -7.99961 0 0 -8.00079 7.99961 0zm-15.9992 0l0 8.00079 -7.99961 0 0 -8.00079 7.99961 0zm-15.9992 0l0 8.00079 -7.99961 0 0 -8.00079 7.99961 0zm-15.9992 0l0 8.00079 -7.99961 0 0 -8.00079 7.99961 0zm-15.9992 0l0 8.00079 -7.99961 0 0 -8.00079 7.99961 0zm-15.9992 0l0 8.00079 -7.99961 0 0 -8.00079 7.99961 0zm-15.9992 0l0 8.00079 -7.99961 0 0 -8.00079 7.99961 0zm-15.9992 0l0 8.00079 -7.99961 0 0 -8.00079 7.99961 0zm-15.9992 0l0 8.00079 -7.99961 0 0 -8.00079 7.99961 0zm-15.9992 0l0 8.00079 -7.99961 0 0 -8.00079 7.99961 0zm-15.9992 0l0 8.00079 -7.99961 0 0 -8.00079 7.99961 0zm-15.9992 0l0 8.00079 -7.99961 0 0 -8.00079 7.99961 0zm-15.9992 0l0 8.00079 -7.99961 0 0 -8.00079 7.99961 0zm-15.9992 0l0 8.00079 -7.99961 0 0 -8.00079 7.99961 0zm-15.9992 0l0 8.00079 -7.99961 0 0 -8.00079 7.99961 0zm-15.9992 0l0 8.00079 -7.99961 0 0 -8.00079 7.99961 0zm-15.9992 0l0 8.00079 -7.99961 0 0 -8.00079 7.99961 0zm-15.9992 0l0 8.00079 -7.99961 0 0 -8.00079 7.99961 0zm-15.9992 0l0 8.00079 -7.99961 0 0 -8.00079 7.99961 0zm-15.9992 0l0 8.00079 -7.99961 0 0 -8.00079 7.99961 0zm-15.9992 0l0 8.00079 -7.99961 0 0 -8.00079 7.99961 0zm-15.9992 0l0 8.00079 -7.99961 0 0 -8.00079 7.99961 0zm-15.9992 0l0 8.00079 -7.99961 0 0 -8.00079 7.99961 0zm-15.9992 0l0 8.00079 -7.99961 0 0 -8.00079 7.99961 0zm-15.9992 0l0 8.00079 -7.99961 0 0 -8.00079 7.99961 0zm-15.9992 0l0 8.00079 -7.99961 0 0 -8.00079 7.99961 0zm-15.9992 0l0 8.00079 -7.99961 0 0 -8.00079 7.99961 0zm-15.9992 0l0 8.00079 -7.99961 0 0 -8.00079 7.99961 0zm-15.9992 0l0 8.00079 -7.99961 0 0 -8.00079 7.99961 0zm-15.9992 0l0 8.00079 -7.99961 0 0 -8.00079 7.99961 0zm-15.9992 0l0 8.00079 -7.99961 0 0 -8.00079 7.99961 0zm-15.9992 0l0 8.00079 -7.99961 0 0 -8.00079 7.99961 0zm-15.9992 0l0 8.00079 -7.99961 0 0 -8.00079 7.99961 0zm-15.9992 0l0 8.00079 -7.99961 0 0 -8.00079 7.99961 0zm-15.9992 0l0 8.00079 -7.99961 0 0 -8.00079 7.99961 0zm-15.9992 0l0 8.00079 -7.99961 0 0 -8.00079 7.99961 0zm-15.9992 0l0 8.00079 -7.99961 0 0 -8.00079 7.99961 0zm-15.9992 0l0 8.00079 -7.99961 0 0 -8.00079 7.99961 0zm-15.9992 0l0 8.00079 -7.99961 0 0 -8.00079 7.99961 0zm-15.9992 0l0 8.00079 -7.99843 0 0 -8.00079 7.99843 0zm-15.998 0l0 8.00079 -7.99961 0 0 -8.00079 7.99961 0z"/>
  <path class="fil5" d="M647.599 857.103l66.9851 0c5.63386,0 10.2425,4.60985 10.2425,10.2437l0 45.0496c0,5.63386 -4.60985,10.2425 -10.2425,10.2425l-66.9851 0c-5.63268,0 -10.2425,-4.60748 -10.2425,-10.2425l0 -45.0496c0,-5.63504 4.60866,-10.2437 10.2425,-10.2437zm10.4693 10.2437l46.0465 0c3.87284,0 7.04174,3.1689 7.04174,7.04174l0 30.9673c0,3.87166 -3.1689,7.04056 -7.04174,7.04056l-46.0465 0c-3.87284,0 -7.04174,-3.16772 -7.04174,-7.04056l0 -30.9673c0,-3.87402 3.1689,-7.04174 7.04174,-7.04174z"/>
  <path class="fil5" d="M1331.35 857.103l66.9839 0c5.63386,0 10.2425,4.60985 10.2425,10.2437l0 45.0496c0,5.63386 -4.60985,10.2425 -10.2425,10.2425l-66.9839 0c-5.63386,0 -10.2437,-4.60748 -10.2437,-10.2425l0 -45.0496c0,-5.63504 4.60866,-10.2437 10.2437,-10.2437zm10.4693 10.2437l46.0453 0c3.87284,0 7.04174,3.1689 7.04174,7.04174l0 30.9673c0,3.87166 -3.1689,7.04056 -7.04174,7.04056l-46.0453 0c-3.87284,0 -7.04174,-3.16772 -7.04174,-7.04056l0 -30.9673c0,-3.87402 3.1689,-7.04174 7.04174,-7.04174z"/>
  <path class="fil6" d="M1349.99 868.788c0.794883,8.4189 8.26772,14.5996 16.6866,13.8047 8.42009,-0.794883 14.5996,-8.26772 13.8047,-16.6866 -26.628,-279.956 -110.023,-463.542 -210.881,-550.308 -46.1859,-39.7311 -96.1808,-59.5985 -146.436,-59.5985 -50.2548,0 -100.25,19.8673 -146.434,59.5985 -100.859,86.7662 -184.254,270.352 -210.882,550.308 -0.794883,8.4189 5.38465,15.8917 13.8047,16.6866 8.42009,0.794883 15.8917,-5.38583 16.6866,-13.8047 25.8118,-271.366 104.945,-447.854 200.317,-529.901 40.4162,-34.7693 83.5961,-52.1563 126.508,-52.1563 42.9118,0 86.0918,17.387 126.508,52.1563 95.3729,82.0465 174.506,258.535 200.317,529.901z"/>
 </g>
</svg>
