<?xml version="1.0" encoding="UTF-8"?>
<!DOCTYPE svg PUBLIC "-//W3C//DTD SVG 1.1//EN" "http://www.w3.org/Graphics/SVG/1.1/DTD/svg11.dtd">
<!-- Creator: CorelDRAW -->
<svg xmlns="http://www.w3.org/2000/svg" xml:space="preserve" width="2048px" height="2048px" style="shape-rendering:geometricPrecision; text-rendering:geometricPrecision; image-rendering:optimizeQuality; fill-rule:evenodd; clip-rule:evenodd"
viewBox="0 0 2048 2048"
 xmlns:xlink="http://www.w3.org/1999/xlink">
 <defs>
  <style type="text/css">
   <![CDATA[
    .fil0 {fill:none}
    .fil4 {fill:#6D4C41}
    .fil3 {fill:#FF8F00}
    .fil2 {fill:#FFB300}
    .fil5 {fill:#6D4C41;fill-rule:nonzero}
    .fil1 {fill:#A1887F;fill-rule:nonzero}
   ]]>
  </style>
 </defs>
 <g id="Layer_x0020_1">
  <metadata id="CorelCorpID_0Corel-Layer"/>
  <rect class="fil0" width="2048" height="2048"/>
  <rect class="fil0" x="255.999" y="255.999" width="1536" height="1536"/>
  <g id="_215723328">
   <g>
    <path id="_215728608" class="fil1" d="M589.284 267.331c16.6701,-18.6508 46.8107,-13.4788 56.3552,9.6567 4.77992,11.9622 2.51575,25.2732 -5.99764,34.9536 -71.1733,80.576 -119.477,177.262 -143.673,281.869 -4.28268,17.9788 -21.1689,27.9319 -37.4032,25.7232l2.40355 266.738c16.8071,-2.96693 33.9319,7.29804 38.4378,24.9071 7.42678,29.0551 16.65,57.0248 27.8705,84.8327 7.07599,17.2725 14.713,33.9603 23.1744,50.5996 2.25236,4.37244 4.53544,8.70946 6.86575,13.0417 18.1984,33.3957 38.5654,64.1481 62.3209,93.8516 4.53307,5.6067 9.12048,11.1036 13.8177,16.5732 5.51811,6.34489 11.1,12.5209 16.8331,18.6732 12.5953,13.5602 11.4697,33.0201 0.747638,45.2788 1.29331,-1.24606 2.70591,-2.41063 4.24016,-3.47717l-6.20552 5.53583c-4.363,4.19646 -9.99568,7.31457 -16.6984,8.68701 -11.4614,2.25945 -23.0847,-1.45394 -31.1055,-9.95198 -5.4567,-5.85827 -10.8036,-11.7354 -16.0937,-17.7473 -18.561,-21.3461 -35.4118,-43.2154 -51.3307,-66.5989 -10.5957,-15.7476 -20.4166,-31.6158 -29.7862,-48.1229 -10.7173,-19.1138 -20.3977,-38.3256 -29.4071,-58.3016 -8.43662,-18.9803 -15.9508,-37.9559 -22.8166,-57.5587 -6.7004,-19.4634 -12.5492,-38.9126 -17.6563,-58.8544 -3.81024,-15.2374 3.28583,-30.9343 17.2299,-38.1508 2.55236,-1.30394 5.17441,-2.24646 7.81536,-2.85945 -5.07993,0.896457 -10.5059,0.64252 -15.965,-1.03583 2.61969,-55.3453 29.9008,-244.401 -2.96693,-274.77 -8.83347,-8.29607 -12.5799,-20.4225 -9.84804,-32.2465 26.7225,-115.52 80.2536,-222.28 158.842,-311.247z"/>
    <circle id="_215745888" class="fil2" cx="453.786" cy="667.012" r="53.1059"/>
    <circle id="_215731200" class="fil3" cx="447.053" cy="697.171" r="21.0992"/>
    <circle id="_215729760" class="fil2" cx="447.596" cy="772.596" r="53.1059"/>
    <circle id="_215749848" class="fil3" cx="440.863" cy="802.756" r="21.0992"/>
    <circle id="_215752128" class="fil2" cx="463.998" cy="874.893" r="53.1059"/>
    <circle id="_215729568" class="fil3" cx="457.265" cy="905.052" r="21.0992"/>
    <circle id="_215731704" class="fil2" transform="matrix(-0.813531 1.01664 1.01664 0.813531 687.972 1264.75)" r="40.7859"/>
    <circle id="_215726616" class="fil3" transform="matrix(-0.32322 0.403914 0.403914 0.32322 707.313 1288.85)" r="40.7859"/>
    <g>
     <circle id="_215735232" class="fil2" transform="matrix(-0.813531 1.01664 1.01664 0.813531 766.543 1335.55)" r="40.7859"/>
     <circle id="_215750064" class="fil3" transform="matrix(-0.32322 0.403914 0.403914 0.32322 785.885 1359.65)" r="40.7859"/>
    </g>
    <g>
     <circle id="_215753160" class="fil2" transform="matrix(-0.813531 1.01664 1.01664 0.813531 848 1397.11)" r="40.7859"/>
     <circle id="_215723880" class="fil3" transform="matrix(-0.32322 0.403914 0.403914 0.32322 867.342 1421.21)" r="40.7859"/>
    </g>
   </g>
   <g>
    <path id="_215730576" class="fil1" d="M1458.72 267.331c-16.6701,-18.6508 -46.8107,-13.4788 -56.3552,9.6567 -4.77992,11.9622 -2.51575,25.2732 5.99764,34.9536 71.1733,80.576 119.477,177.262 143.673,281.869 4.28268,17.9788 21.1689,27.9319 37.4032,25.7232l-2.40355 266.738c-16.8071,-2.96693 -33.9319,7.29804 -38.4378,24.9071 -7.42678,29.0551 -16.65,57.0248 -27.8705,84.8327 -7.07599,17.2725 -14.713,33.9603 -23.1744,50.5996 -2.25236,4.37244 -4.53544,8.70946 -6.86575,13.0417 -18.1984,33.3957 -38.5654,64.1481 -62.3209,93.8516 -4.53307,5.6067 -9.12048,11.1036 -13.8177,16.5732 -5.51811,6.34489 -11.1,12.5209 -16.8331,18.6732 -12.5953,13.5602 -11.4697,33.0201 -0.747638,45.2788 -1.29331,-1.24606 -2.70591,-2.41063 -4.24016,-3.47717l6.20552 5.53583c4.363,4.19646 9.99568,7.31457 16.6984,8.68701 11.4614,2.25945 23.0847,-1.45394 31.1055,-9.95198 5.4567,-5.85827 10.8036,-11.7354 16.0937,-17.7473 18.561,-21.3461 35.4118,-43.2154 51.3307,-66.5989 10.5957,-15.7476 20.4166,-31.6158 29.7862,-48.1229 10.7173,-19.1138 20.3977,-38.3256 29.4071,-58.3016 8.43662,-18.9803 15.9508,-37.9559 22.8166,-57.5587 6.7004,-19.4634 12.5492,-38.9126 17.6563,-58.8544 3.81024,-15.2374 -3.28583,-30.9343 -17.2299,-38.1508 -2.55236,-1.30394 -5.17441,-2.24646 -7.81536,-2.85945 5.07993,0.896457 10.5059,0.64252 15.965,-1.03583 -2.61969,-55.3453 -29.9008,-244.401 2.96693,-274.77 8.83347,-8.29607 12.5799,-20.4225 9.84804,-32.2465 -26.7225,-115.52 -80.2536,-222.28 -158.842,-311.247z"/>
    <circle id="_215743872" class="fil2" cx="1594.21" cy="667.012" r="53.1059"/>
    <circle id="_215744568" class="fil3" cx="1600.95" cy="697.171" r="21.0992"/>
    <circle id="_215749272" class="fil2" cx="1600.4" cy="772.596" r="53.1059"/>
    <circle id="_215746368" class="fil3" cx="1607.14" cy="802.756" r="21.0992"/>
    <circle id="_215752896" class="fil2" cx="1584" cy="874.893" r="53.1059"/>
    <circle id="_215736312" class="fil3" cx="1590.73" cy="905.052" r="21.0992"/>
    <circle id="_215722200" class="fil2" transform="matrix(0.813531 1.01664 -1.01664 0.813531 1360.03 1264.75)" r="40.7859"/>
    <circle id="_215730240" class="fil3" transform="matrix(0.32322 0.403914 -0.403914 0.32322 1340.69 1288.85)" r="40.7859"/>
    <g>
     <circle id="_215751024" class="fil2" transform="matrix(0.813531 1.01664 -1.01664 0.813531 1281.46 1335.55)" r="40.7859"/>
     <circle id="_215749824" class="fil3" transform="matrix(0.32322 0.403914 -0.403914 0.32322 1262.12 1359.65)" r="40.7859"/>
    </g>
    <g>
     <circle id="_215745048" class="fil2" transform="matrix(0.813531 1.01664 -1.01664 0.813531 1200 1397.11)" r="40.7859"/>
     <circle id="_215746224" class="fil3" transform="matrix(0.32322 0.403914 -0.403914 0.32322 1180.66 1421.21)" r="40.7859"/>
    </g>
   </g>
   <path id="_215737344" class="fil4" d="M1015.88 1354.72c60.3709,0 115.03,24.4736 154.597,64.0406 39.5681,39.567 64.0418,94.2272 64.0418,154.598 0,60.3709 -24.4736,115.031 -64.0418,154.598 -39.567,39.567 -94.2261,64.0406 -154.597,64.0406 -60.3721,0 -115.031,-24.4736 -154.598,-64.0406 -39.567,-39.567 -64.0418,-94.2272 -64.0418,-154.598 0,-60.3709 24.4748,-115.031 64.0418,-154.598 39.567,-39.567 94.2261,-64.0406 154.598,-64.0406z"/>
   <path id="_215748024" class="fil2" d="M1015.88 1429.69c39.6697,0 75.5894,16.0854 101.591,42.0839 25.9984,26.002 42.0839,61.9217 42.0839,101.593 0,39.6709 -16.0854,75.5906 -42.0839,101.593 -26.002,25.9984 -61.9217,42.0839 -101.591,42.0839 -39.6721,0 -75.5918,-16.0854 -101.59,-42.0863 -26.0008,-25.9984 -42.0863,-61.9182 -42.0863,-101.59 0,-39.6685 16.0843,-75.5882 42.0863,-101.59 25.9984,-26.0008 61.9182,-42.0863 101.59,-42.0863z"/>
   <path id="_215723904" class="fil5" d="M1064.94 1524.31c-12.548,-12.5469 -29.8925,-20.3103 -49.0512,-20.3103 -19.1575,0 -36.5008,7.76339 -49.05,20.3126 -12.5492,12.5492 -20.3126,29.8925 -20.3126,49.05 0,19.1575 7.76339,36.5008 20.3126,49.05 12.5492,12.5492 29.8925,20.3126 49.05,20.3126 19.1587,0 36.5032,-7.76339 49.0512,-20.3103 12.5469,-12.548 20.3103,-29.8925 20.3103,-49.0524 0,-19.1599 -7.76339,-36.5044 -20.3103,-49.0524z"/>
  </g>
 </g>
</svg>
