<?xml version="1.0" encoding="UTF-8"?>
<!DOCTYPE svg PUBLIC "-//W3C//DTD SVG 1.1//EN" "http://www.w3.org/Graphics/SVG/1.1/DTD/svg11.dtd">
<!-- Creator: CorelDRAW -->
<svg xmlns="http://www.w3.org/2000/svg" xml:space="preserve" width="2048px" height="2048px" style="shape-rendering:geometricPrecision; text-rendering:geometricPrecision; image-rendering:optimizeQuality; fill-rule:evenodd; clip-rule:evenodd"
viewBox="0 0 2048 2048"
 xmlns:xlink="http://www.w3.org/1999/xlink">
 <defs>
  <style type="text/css">
   <![CDATA[
    .fil0 {fill:none}
    .fil3 {fill:#29B6F6}
    .fil2 {fill:#81D4FA}
    .fil1 {fill:#0288D1;fill-rule:nonzero}
   ]]>
  </style>
 </defs>
 <g id="Layer_x0020_1">
  <metadata id="CorelCorpID_0Corel-Layer"/>
  <rect class="fil0" width="2048" height="2048"/>
  <rect class="fil0" x="255.999" y="255.999" width="1536" height="1536"/>
  <g id="_215724384">
   <path id="_215730144" class="fil1" d="M648.505 385.618c28.3335,0 53.9894,11.4886 72.5611,30.0591 18.5705,18.5705 30.0603,44.2288 30.0603,72.5623 0,28.3323 -11.4886,53.9894 -30.0603,72.5611 -18.5717,18.5717 -44.2288,30.0591 -72.5611,30.0591 -28.3335,0 -53.9918,-11.4886 -72.5611,-30.0591 -18.5717,-18.5717 -30.0603,-44.2276 -30.0603,-72.5611 0,-28.3335 11.4898,-53.9918 30.0603,-72.5623 18.5693,-18.5693 44.2276,-30.0591 72.5611,-30.0591z"/>
   <path id="_215734824" class="fil1" d="M993.67 686.102c-9.79489,-97.9631 -55.8485,-171.91 -110.067,-215.199 -24.5055,-19.5662 -50.2748,-32.6292 -74.6068,-38.53 -21.9721,-5.32678 -42.4465,-4.74213 -58.9902,2.34331 -16.5165,7.07481 -29.8547,21.5433 -37.3961,44.1674l-66.0378 -21.8315c14.4272,-43.2803 41.6717,-71.6953 76.1469,-86.4638 30.5906,-13.1032 66.1548,-14.739 102.65,-5.89016 34.1315,8.27717 69.267,25.7929 101.623,51.6272 67.1682,53.6292 124.113,144.174 135.99,262.954l-69.3119 6.82323z"/>
   <path id="_215735664" class="fil2" d="M1024 576.558c336.398,0 609.103,331.987 609.103,741.516 0,35.804 -2.12953,70.9985 -6.15827,105.449l-0.056693 0.483071 -1205.78 0 -0.170079 -1.47284c-3.95551,-34.1327 -6.04489,-68.9965 -6.04489,-104.459 0,-409.529 272.705,-741.516 609.103,-741.516z"/>
   <rect id="_215724792" class="fil3" x="255.999" y="1424.01" width="1536" height="264.828" rx="105.931" ry="105.931"/>
  </g>
 </g>
</svg>
