<?xml version="1.0" encoding="UTF-8"?>
<!DOCTYPE svg PUBLIC "-//W3C//DTD SVG 1.1//EN" "http://www.w3.org/Graphics/SVG/1.1/DTD/svg11.dtd">
<!-- Creator: CorelDRAW -->
<svg xmlns="http://www.w3.org/2000/svg" xml:space="preserve" width="2048px" height="2048px" style="shape-rendering:geometricPrecision; text-rendering:geometricPrecision; image-rendering:optimizeQuality; fill-rule:evenodd; clip-rule:evenodd"
viewBox="0 0 2048 2048"
 xmlns:xlink="http://www.w3.org/1999/xlink">
 <defs>
  <style type="text/css">
   <![CDATA[
    .fil0 {fill:none}
    .fil4 {fill:#F48FB1}
    .fil1 {fill:#880E4F;fill-rule:nonzero}
    .fil2 {fill:#C2185B;fill-rule:nonzero}
    .fil3 {fill:#EC407A;fill-rule:nonzero}
   ]]>
  </style>
 </defs>
 <g id="Layer_x0020_1">
  <metadata id="CorelCorpID_0Corel-Layer"/>
  <rect class="fil0" width="2048" height="2048"/>
  <rect class="fil0" x="255.999" y="255.999" width="1536" height="1536"/>
  <g id="_215744328">
   <polygon id="_215726928" class="fil1" points="1596.97,1336.14 1678.83,1336.14 1709.55,1336.14 1709.55,1361.61 1709.55,1429.58 1709.55,1455.06 1678.83,1455.06 1596.97,1455.06 1566.25,1455.06 1566.25,1429.58 1566.25,1361.61 1566.25,1336.14 "/>
   <polygon id="_215728824" class="fil1" points="368.17,1336.14 450.031,1336.14 480.752,1336.14 480.752,1361.61 480.752,1429.58 480.752,1455.06 450.031,1455.06 368.17,1455.06 337.449,1455.06 337.449,1429.58 337.449,1361.61 337.449,1336.14 "/>
   <path id="_215733048" class="fil2" d="M457.46 688.462c25.265,-22.6358 70.6571,-53.1083 105.266,-67.7552 52.5154,-22.2284 114.222,-34.7162 178.616,-34.7162 63.9024,0 125.234,12.3402 177.593,34.3335 41.3445,17.3669 77.3233,40.9394 104.976,69.4737 27.6532,-28.5343 63.6319,-52.1067 104.976,-69.4737 52.3595,-21.9933 113.691,-34.3335 177.593,-34.3335 64.3938,0 126.1,12.4878 178.616,34.7162 34.689,14.6823 77.5394,44.6847 102.837,67.389 -0.897638,0.287008 -1.79528,0.578741 -2.69173,0.876379 -82.2048,27.5244 -78.691,89.5808 -80.4402,179.863 -0.0141732,1.04528 -0.0212599,2.09055 -0.0212599,3.13701l0 293.992c-138.481,-15.4996 -343.116,-10.6063 -481.152,8.04449 -137.955,-18.6343 -340.157,-23.5181 -478.505,-8.04568l0 -293.991c0,-97.8509 -7.65709,-158.3 -87.6638,-183.51z"/>
   <path id="_215739360" class="fil3" d="M491.467 700.301c43.3441,28.5756 71.778,77.4697 71.778,131.586l0 316.282 460.464 4.11378 461.047 -4.1126 0 -316.283c0,-53.589 27.8847,-102.054 70.519,-130.742 22.2402,-12.3071 57.8079,-26.4 85.0052,-26.4l151.721 0 0 725.54 -1536 0 0 -725.54 151.721 0c11.7425,0 52.1044,5.44961 83.7461,25.5567z"/>
   <path id="_215738136" class="fil4" d="M577.896 1030.19c149.375,-11.041 286.412,-16.3276 436.614,0 3.07796,0.334252 4.99961,3.01772 5.61969,6.54331 6.18426,35.1981 4.74567,65.3256 0,93.2516 -0.601182,3.53032 -2.52874,6.54331 -5.61969,6.54331l-436.614 0c-3.09095,0 -5.01024,-3.01536 -5.61969,-6.54331 -5.51575,-31.8874 -6.9756,-63.1843 0,-93.2516 0.805512,-3.47599 2.53465,-6.31536 5.61969,-6.54331z"/>
   <path id="_215749368" class="fil4" d="M1034.07 1030.19c149.375,-11.041 286.412,-16.3276 436.613,0 3.07796,0.334252 5.00079,3.01772 5.61969,6.54331 6.18544,35.1981 4.74685,65.3256 0,93.2516 -0.6,3.53032 -2.52756,6.54331 -5.61969,6.54331l-436.613 0c-3.09095,0 -5.01024,-3.01536 -5.61969,-6.54331 -5.51575,-31.8874 -6.9756,-63.1843 0,-93.2516 0.805512,-3.47599 2.53465,-6.31536 5.61969,-6.54331z"/>
   <polygon id="_215731632" class="fil2" points="571.409,1145.18 571.409,1400.28 563.409,1400.28 563.409,1145.18 "/>
   <polygon id="_215737560" class="fil2" points="1484.69,1145.18 1484.69,1400.28 1476.69,1400.28 1476.69,1145.18 "/>
  </g>
 </g>
</svg>
