<?xml version="1.0" encoding="UTF-8"?>
<!DOCTYPE svg PUBLIC "-//W3C//DTD SVG 1.1//EN" "http://www.w3.org/Graphics/SVG/1.1/DTD/svg11.dtd">
<!-- Creator: CorelDRAW -->
<svg xmlns="http://www.w3.org/2000/svg" xml:space="preserve" width="2048px" height="2048px" style="shape-rendering:geometricPrecision; text-rendering:geometricPrecision; image-rendering:optimizeQuality; fill-rule:evenodd; clip-rule:evenodd"
viewBox="0 0 2048 2048"
 xmlns:xlink="http://www.w3.org/1999/xlink">
 <defs>
  <style type="text/css">
   <![CDATA[
    .fil0 {fill:none}
    .fil3 {fill:none;fill-rule:nonzero}
    .fil9 {fill:#039BE5}
    .fil8 {fill:#4FC3F7}
    .fil6 {fill:#E53935}
    .fil7 {fill:#039BE5;fill-rule:nonzero}
    .fil2 {fill:#29B6F6;fill-rule:nonzero}
    .fil1 {fill:#4FC3F7;fill-rule:nonzero}
    .fil4 {fill:#E53935;fill-rule:nonzero}
    .fil5 {fill:#F44336;fill-rule:nonzero}
   ]]>
  </style>
 </defs>
 <g id="Layer_x0020_1">
  <metadata id="CorelCorpID_0Corel-Layer"/>
  <rect class="fil0" width="2048" height="2048"/>
  <rect class="fil0" x="255.999" y="255.999" width="1536" height="1536"/>
  <rect class="fil0" width="2048" height="2048"/>
  <rect class="fil0" x="255.999" y="255.999" width="1536" height="1536"/>
  <g id="_210060896">
   <path id="_210071312" class="fil1" d="M867.771 457.057l610.622 0c16.6937,0 30.2268,13.5343 30.2268,30.2268l0 1274.49c0,16.6925 -13.5331,30.2268 -30.2268,30.2268l-610.622 0 0 -1334.94z"/>
   <path id="_210072656" class="fil2" d="M583.228 324.77l224.092 113.423 0 1342.07 -249.344 -126.23c-10.9169,-4.5567 -18.5906,-15.3331 -18.5906,-27.9036l0 -1274.01c-0.0755906,-4.74449 0.966142,-9.5752 3.25748,-14.1024 7.53898,-14.8925 25.7256,-20.8571 40.6181,-13.3193l-0.0330709 0.0673229zm284.543 162.397l0.0011811 0.116929 0 1274.04c0.00590552,0.334252 0.00472441,0.667323 -0.0011811,1.00276l0 -1275.16z"/>
   <path id="_210060584" class="fil3" d="M870.021 391.689l0 -76.2768m236.61 0l0 76.2768c0.103937,3.14055 -1.14921,9.16064 -3.17362,11.0232l0 0.0921261 -0.0980316 0c-11.9492,10.7988 -57.163,18.0732 -115.039,18.0732 -57.8705,0 -103.642,-12.6791 -115.591,-23.478l-0.0980316 0 0 -0.0862205c-1.78819,-1.65118 -2.73662,-3.35315 -2.73662,-5.11181"/>
   <path id="_210056840" class="fil4" d="M839.801 392.201c0.0897638,5.40473 1.59921,10.4658 4.17048,14.824 -1.01575,-3.02244 -1.56614,-6.25985 -1.56614,-9.62481l0 -0.0862205c0,-1.74213 0.148819,-3.45 0.432284,-5.113l-3.03662 0zm32.928 29.5925c13.5154,-1.2 24.4725,-11.2949 26.9764,-24.3933l-26.9764 0 0 24.3933zm27.3851 -30.1028l-0.708662 0c0.0720473,0.191339 0.138189,0.36378 0.201969,0.510237l0.51378 0 -0.00708662 -0.510237zm-22.2189 0l-0.00590552 0 1.43504 -1.5874 0.0153543 -0.00944883 3.75118 -4.14685 -0.683859 0.742914 -3.08268 3.41339 0.0153543 -0.00944883 -1.44449 1.59685zm-0.0885827 0l-1.43504 0 -0.950788 0.510237 1.91457 0 0.47126 -0.510237zm-1.43504 0l-3.64252 0 0 0.510237 2.69173 0 0.950788 -0.510237zm-33.3284 0l-0.0968505 0 -0.0956694 0.510237 0.100394 0 0.0921261 -0.510237zm-0.113386 0l-3.13583 0 0 -2.24173c-0.0826772,0.905906 -0.125197,1.82362 -0.125197,2.75197 0,5.93623 1.47756,11.5618 4.35709,16.8839 1.33701,2.47323 2.9374,4.78111 4.79174,6.93071 2.3504,3.00118 5.25709,5.54764 8.563,7.48347 11.3894,7.84253 30.8303,15.3626 55.1162,20.2949 21.4358,4.35355 47.5559,7.30985 75.8245,7.30985 29.8725,0 57.163,-1.97362 79.0619,-5.41418 22.1398,-3.47717 39.8705,-9.15827 51.0662,-16.6347 4.46103,-2.55355 8.20867,-6.20906 10.8697,-10.598 2.44961,-3.72166 4.23426,-7.84016 5.40591,-11.9173 0.988583,-3.43229 1.64646,-7.46693 1.90748,-11.1532 0.147638,-1.21181 0.225591,-2.44488 0.225591,-3.69567l0 -76.278c0,-16.6925 -13.5343,-30.2268 -30.2268,-30.2268 -16.6925,0 -30.2268,13.5343 -30.2268,30.2268l0 67.3949c-4.29803,1.01457 -10.4693,2.15433 -18.2315,3.37323 -18.0815,2.84055 -42.1252,4.47048 -69.8516,4.47048 -24.8398,0 -46.7363,-2.38347 -64.017,-5.89371 -10.428,-2.11772 -18.5788,-4.24725 -24.0579,-6.15945l0 -63.1855c0,-16.6925 -13.5331,-30.2268 -30.2256,-30.2268 -16.6925,0 -30.2268,13.5343 -30.2268,30.2268l0 74.0363c1.39016,-15.4028 14.3362,-27.4736 30.1004,-27.4736 11.1118,0 20.8217,5.99646 26.0729,14.9303 -0.869292,-0.402756 -1.59095,-0.788977 -2.16142,-1.15866 -0.265748,-0.261024 -0.536221,-0.518504 -0.812599,-0.77126l0.00236221 -0.00236221 -0.362599 -0.318898c-5.32914,-4.70788 -12.3307,-7.56733 -20.002,-7.56733 -14.7709,0 -27.0662,10.598 -29.7012,24.6036zm29.8772 5.62323l4.6252 -5.113 -0.00472441 0 -4.62048 5.113z"/>
   <path id="_210041960" class="fil5" d="M988.326 255.999c35.3044,0 67.6418,2.91969 91.3796,7.64174 37.0016,7.35945 59.889,23.4898 59.889,46.6595 0,18.5622 -14.6929,32.6067 -39.5611,41.2418l3.42402 0 0 51.1713 -213.606 0 0 -10.513 -50.0563 0 0 -44.8394 26.4768 0c-18.5445,-8.70473 -29.2146,-21.2421 -29.2146,-37.0607 0,-23.1697 22.8874,-39.3 59.889,-46.6595 23.739,-4.72205 56.0752,-7.64174 91.3796,-7.64174zm90.8162 54.3012c0,-3.69685 -0.589371,-2.66339 -1.68543,0 1.09606,2.66457 1.68543,3.69685 1.68543,0zm-181.632 0c0,3.69685 0.589371,2.66457 1.68543,0 -1.09606,-2.66339 -1.68543,-3.69685 -1.68543,0z"/>
   <rect id="_210064976" class="fil6" x="839.795" y="362.364" width="58.9107" height="35.0356"/>
   <path id="_210041336" class="fil7" d="M845.046 457.057l513.776 0 -154.178 -83.165 -35.9433 0 0 -60.4524 43.017 0c4.99134,-0.0755906 10.0724,1.08425 14.778,3.62362l-0.0307087 0.0543308 264.449 142.649c10.4445,4.75985 17.7047,15.2917 17.7047,27.5173 0,16.6925 -13.5343,30.2268 -30.2268,30.2268l-640.42 0c-4.99134,0.0755906 -10.0713,-1.08543 -14.778,-3.62362l0.0307087 -0.0555119 -264.447 -142.648c-10.4445,-4.76103 -17.7047,-15.2917 -17.7047,-27.5173 0,-16.6937 13.5331,-30.2268 30.2256,-30.2268l254.655 0 0 60.4524 -135.084 0 154.175 83.165z"/>
   <path id="_210049376" class="fil8" d="M1136.86 323.483l0 68.2075c0,1.25079 -0.0767717,2.48386 -0.22441,3.69567 -0.261024,3.68622 -0.918898,7.72087 -1.90748,11.1532 -1.17165,4.07717 -2.9563,8.19568 -5.40591,11.9173 -2.66221,4.38898 -6.40867,8.04449 -10.8697,10.598 -11.1957,7.47638 -28.9264,13.1575 -51.0662,16.6347 -21.8988,3.43937 -49.1894,5.41418 -79.0619,5.41418 -28.2685,0 -54.3886,-2.9563 -75.8245,-7.30985 -24.2858,-4.93229 -43.7268,-12.4524 -55.1162,-20.2949 -3.30591,-1.93583 -6.2126,-4.48229 -8.563,-7.48347 -1.85433,-2.14961 -3.45473,-4.45748 -4.79174,-6.93071 -2.02559,-3.7441 -3.35788,-7.63701 -3.96851,-11.6847l-0.262205 0 0 -2.21811c-0.0838583,-0.98504 -0.126378,-1.97953 -0.126378,-2.9811 0,-0.928347 0.0437008,-1.84606 0.126378,-2.75197l0 -27.0851 0 -15.0024 0 -23.8784c-1.3937,-3.16772 -2.27008,-6.51851 -2.59488,-10.0429l-11.2441 0 0 60.4524 -135.086 0 154.178 83.165 22.7232 0 491.052 0 -154.178 -83.165 -35.9445 0 0 -60.4524 -29.2488 0c-0.324803,3.52441 -1.20118,6.8752 -2.59488,10.0429z"/>
   <polygon id="_210050600" class="fil9" points="807.32,1780.27 792.982,1773.01 807.32,505.252 934.644,517.51 867.771,1792 "/>
  </g>
 </g>
</svg>
