<?xml version="1.0" encoding="UTF-8"?>
<!DOCTYPE svg PUBLIC "-//W3C//DTD SVG 1.1//EN" "http://www.w3.org/Graphics/SVG/1.1/DTD/svg11.dtd">
<!-- Creator: CorelDRAW -->
<svg xmlns="http://www.w3.org/2000/svg" xml:space="preserve" width="2048px" height="2048px" style="shape-rendering:geometricPrecision; text-rendering:geometricPrecision; image-rendering:optimizeQuality; fill-rule:evenodd; clip-rule:evenodd"
viewBox="0 0 2048 2048"
 xmlns:xlink="http://www.w3.org/1999/xlink">
 <defs>
  <style type="text/css">
   <![CDATA[
    .fil1 {fill:none}
    .fil2 {fill:#FBC02D}
    .fil3 {fill:#424242;fill-rule:nonzero}
    .fil0 {fill:#F57F17;fill-rule:nonzero}
   ]]>
  </style>
 </defs>
 <g id="Layer_x0020_1">
  <metadata id="CorelCorpID_0Corel-Layer"/>
  <polygon class="fil0" points="288.001,927.999 448.001,927.999 448.001,992 288.001,992 "/>
  <polygon class="fil0" points="1632,927.996 1760,927.996 1760,991.998 1632,991.998 "/>
  <rect class="fil1" width="2048" height="2048"/>
  <rect class="fil1" x="255.999" y="255.999" width="1536" height="1536"/>
  <path class="fil2" d="M384 767.999l1280 0 0 535.386c0,215.939 -171.243,392.615 -380.54,392.615l-518.921 0c-209.296,0 -380.54,-176.675 -380.54,-392.615l0 -535.386z"/>
  <line class="fil1" x1="320" y1="750.133" x2="1728" y2= "750.133" />
  <path class="fil0" d="M320 718.132c-17.6728,0 -32.0008,14.328 -32.0008,32.0008 0,17.6728 14.328,32.0008 32.0008,32.0008l1408 0c17.6728,0 32.0008,-14.328 32.0008,-32.0008 0,-17.6728 -14.328,-32.0008 -32.0008,-32.0008l-1408 0z"/>
  <path class="fil3" d="M1254.05 644.726c-3.13937,-44.6681 -18.5658,-80.5914 -32.2784,-112.523 -32.4496,-75.5611 -57.2906,-133.408 41.5288,-232.227l45.2504 45.2504c-68.1957,68.1957 -50.778,108.754 -28.0288,161.727 15.6957,36.5504 33.3544,77.6682 37.2792,133.523l-63.7512 4.24961z"/>
  <path class="fil3" d="M970.83 640.477c3.92481,-55.8544 21.5835,-96.9721 37.2792,-133.523 22.7492,-52.9737 40.167,-93.5316 -28.0288,-161.727l45.2504 -45.2504c98.8194,98.8194 73.9784,156.666 41.5288,232.227 -13.7126,31.9311 -29.139,67.8544 -32.2784,112.523l-63.7512 -4.24961z"/>
  <path class="fil3" d="M730.203 640.477c4.63111,-65.9079 25.5981,-114.729 44.2347,-158.126 28.2697,-65.8288 49.9122,-116.226 -34.9843,-201.124l45.2504 -45.2504c115.521,115.523 86.4532,183.208 48.4843,271.624 -16.6536,38.7792 -35.3882,82.4044 -39.2339,137.126l-63.7512 -4.24961z"/>
 </g>
</svg>
