<?xml version="1.0" encoding="UTF-8"?>
<!DOCTYPE svg PUBLIC "-//W3C//DTD SVG 1.1//EN" "http://www.w3.org/Graphics/SVG/1.1/DTD/svg11.dtd">
<!-- Creator: CorelDRAW -->
<svg xmlns="http://www.w3.org/2000/svg" xml:space="preserve" width="2048px" height="2048px" style="shape-rendering:geometricPrecision; text-rendering:geometricPrecision; image-rendering:optimizeQuality; fill-rule:evenodd; clip-rule:evenodd"
viewBox="0 0 2048 2048"
 xmlns:xlink="http://www.w3.org/1999/xlink">
 <defs>
  <style type="text/css">
   <![CDATA[
    .fil0 {fill:none}
    .fil7 {fill:#424242}
    .fil5 {fill:#B0BEC5}
    .fil6 {fill:#BCAAA4}
    .fil1 {fill:#424242;fill-rule:nonzero}
    .fil3 {fill:#4E342E;fill-rule:nonzero}
    .fil2 {fill:#90A4AE;fill-rule:nonzero}
    .fil4 {fill:#BCAAA4;fill-rule:nonzero}
   ]]>
  </style>
 </defs>
 <g id="Layer_x0020_1">
  <metadata id="CorelCorpID_0Corel-Layer"/>
  <rect class="fil0" width="2048" height="2048"/>
  <rect class="fil0" x="255.999" y="255.999" width="1536" height="1536"/>
  <g id="_210057656">
   <polygon id="_210050384" class="fil1" points="1396,303.877 1396.16,303.857 1396.04,303.857 "/>
   <g>
    <path id="_210043280" class="fil2" d="M1525.84 1041.81c-0.0188977,-7.94174 -0.173622,-59.5961 -1.02756,-133.292 -0.844489,-73.069 -2.39646,-167.934 -5.2252,-262.995 -1.70315,-56.8217 -3.73819,-108.665 -6.08268,-155.201 -2.21457,-43.9418 -4.80591,-83.2383 -7.75276,-117.575l-0.011811 0.0011811c-1.93228,-22.3205 -3.68386,-39.7075 -5.27126,-52.3323 -1.66654,-13.2508 -3.62126,-25.474 -5.89016,-36.8634l-0.0177165 -0.0885827c-1.82126,-9.09804 -5.10473,-25.4847 -6.75237,-27.4654 -0.465355,0.582284 -1.4811,2.06457 -3.81142,5.70237 -8.72717,13.6264 -19.9725,39.3969 -36.326,87.4749 -10.1776,29.8642 -21.0036,64.8875 -31.9488,103.218 -11.1402,39.0189 -22.0536,80.1284 -32.2016,121.441 -14.9067,60.7075 -41.2843,175.505 -56.6209,285.437 -9.71457,69.626 -14.9929,136.899 -9.96379,185.921 2.84646,27.802 8.77324,44.9894 16.0512,55.1292 5.79567,8.07638 12.9213,10.3441 19.0795,10.3441 0.733465,0 18.9862,0.18189 56.4426,0.360236 12.4169,0.0590552 22.4114,0.116929 24.2835,0.153543l34.2626 0.687402 -0.923623 34.1173c-1.80118,66.4997 -13.0973,159.41 -24.0803,249.756l-0.0838583 0.694489 -0.0555119 0.458268c-14.7154,120.773 -29.9268,245.621 -24.9496,316.243 1.94055,27.5244 10.5024,46.4268 22.1457,58.6524 13.6807,14.3622 32.3528,20.2122 49.1941,20.2122 11.6717,0 23.4921,-2.49449 34.4811,-7.07717 11.1142,-4.63583 21.2788,-11.2878 29.504,-19.5402 7.02048,-7.063 12.4807,-15.2386 16.1977,-24.1016l0.046063 0.0200788c3.62835,-8.69174 5.50512,-17.8547 5.45906,-27.0662 -0.147638,-29.9339 -5.56654,-114.869 -12.724,-214.816 -13.4138,-187.296 -33.4689,-431.255 -35.426,-454.81l0 -2.8004z"/>
    <path id="_210046952" class="fil3" d="M1467.05 1111.87l-0.923623 34.1185c-1.80118,66.4985 -13.0984,159.409 -24.0792,249.756l-0.0862205 0.693308 -0.0543308 0.458268c-14.7154,120.773 -29.9268,245.621 -24.9496,316.242 1.94055,27.5256 10.5024,46.428 22.1469,58.6536 13.6795,14.3622 32.3516,20.2122 49.1918,20.2122 11.6728,0 23.4933,-2.49449 34.4823,-7.07717 11.1142,-4.63583 21.2788,-11.2878 29.504,-19.5402 7.02048,-7.063 12.4795,-15.2386 16.1977,-24.1016l0.046063 0.0200788c3.62835,-8.69174 5.5063,-17.8547 5.45788,-27.0662 -0.146457,-29.9339 -5.56654,-114.871 -12.7228,-214.814 -9.53741,-133.182 -22.4327,-294.986 -29.7921,-385.852 -1.22835,-0.0862205 -2.4437,-0.186614 -3.71929,-0.218504l-60.6993 -1.48347z"/>
   </g>
   <g>
    <polygon id="_210069320" class="fil4" points="664.314,783.562 664.314,1173.13 620.439,1173.13 620.439,783.562 "/>
    <path id="_210044264" class="fil2" d="M779.702 728.069c-24.4122,44.8441 -61.5367,77.5961 -105.777,89.4308l0.00590552 0.0283465c-7.07717,1.89685 -18.5091,2.87008 -29.6622,3.00118 -11.5134,0.134646 -23.4284,-0.673229 -30.2575,-2.31732 -45.0496,-10.9039 -82.9312,-43.4386 -107.934,-88.4788 -23.9717,-43.18 -36.0473,-97.9725 -30.8847,-155.795l0.0212599 0.00236221c5.36811,-64.9359 25.715,-143.038 56.0185,-200.962 28.0607,-53.6386 65.5973,-91.8036 110.342,-93.332l1.56496 0c44.765,1.52835 82.3512,39.7382 110.436,93.4229 30.2835,57.8882 50.6126,135.876 55.9158,200.746l0.0307087 -0.00354331c5.18741,57.2315 -6.48426,111.396 -29.8193,154.257z"/>
    <path id="_210047888" class="fil3" d="M577.268 1700.26c-0.00708662,-1.64291 0.0011811,-2.86181 0.0259843,-3.64252l0.0106299 0 12.365 -499.947 0 -1.69606c1.75394,-30.0083 15.1784,-50.0185 31.9831,-59.5406 6.92008,-3.92244 14.4862,-5.91969 21.9803,-5.93859 7.63583,-0.0188977 15.2976,2.03268 22.2496,6.2067 15.8858,9.54568 27.9532,28.7953 29.2028,58.1871l0 0.848032 12.3567 501.74 0.0141732 -0.0011811c0.0271654,0.805512 0.0366142,2.11299 0.0295276,3.87166 -0.0826772,20.1225 -6.32953,42.3886 -16.7764,59.4048 -10.9075,17.7662 -26.6646,30.9638 -45.3768,32.1945 -0.640158,0.0413386 -1.63347,0.056693 -2.95276,0.0507874 -1.21299,0.00944883 -2.13189,-0.00590552 -2.76614,-0.0448819 -18.7902,-1.14213 -34.5981,-14.3374 -45.5386,-32.1544 -10.4587,-17.0303 -16.7126,-39.3449 -16.8071,-59.5382z"/>
    <path id="_210071960" class="fil5" d="M1114.45 290.214c0,-18.854 -10.6323,-34.2142 -23.889,-34.2142 -13.1587,0 -23.7992,15.3602 -23.7992,34.2154l0.0011811 888.727c0,18.8504 10.6394,34.2154 23.798,34.2154 13.2567,0 23.889,-15.365 23.889,-34.2154l0 -888.728z"/>
    <path id="_210060320" class="fil6" d="M1114.45 792.061c0,-18.8551 -10.6323,-34.2142 -23.889,-34.2142 -13.1587,0 -23.7992,15.3602 -23.7992,34.2154l0.0011811 386.88c0,18.8504 10.6394,34.2154 23.798,34.2154 13.2567,0 23.889,-15.365 23.889,-34.2154l0 -386.881z"/>
    <path id="_210068552" class="fil7" d="M1072.06 1699.93c-0.125197,0.512599 -0.125197,0.251575 -0.125197,0.512599 0,4.51536 2.6941,10.1976 7.01103,15.3673 3.36851,3.87048 7.28504,6.7063 10.9276,6.96851 0.537402,0 0.400394,0 0.537402,0l0.400394 0c0.137008,0 -0.137008,0 0.546851,0 3.63307,-0.262205 7.68544,-3.09803 11.0551,-7.09961 4.17992,-5.03859 6.87402,-10.7209 6.87402,-15.2362 0,-0.129921 0,0.131102 -0.125197,-0.392126l0 -0.382677 -17.1295 -503.954c-0.822048,0 -1.62165,0.12874 -2.29606,0.516142l0.0011811 0c-0.274016,0.126378 -0.536221,0.259843 -0.536221,0.516142l0 -0.127559 -17.1414 503.05 0 0.262205z"/>
    <path id="_210050216" class="fil5" d="M998.397 534.134c0.00354331,-0.392126 0.011811,-0.787796 0.0401575,-1.19055l1.88504 -28.6677c3.87284,-58.8745 7.45867,-117.81 10.3807,-176.734 0.646063,-13.0004 -9.8882,-23.9516 -23.4756,-24.5776 -13.4398,-0.618898 -25.0051,9.53032 -25.6299,22.3453 -2.86772,58.7575 -6.79489,117.523 -10.3996,176.247l-1.19055 19.4126 0.0944883 0 -0.707481 10.0665c-0.0330709,0.682678 -0.0236221,0.787796 -0.0732284,1.04173l-0.011811 0.167717c-3.84331,54.5764 1.59803,114.373 21.7087,165.914 15.7512,40.3689 43.7492,81.9957 88.0843,97.3005 4.81654,1.66181 10.1421,2.65276 15.2256,3.17599 4.24607,0.435827 8.64922,0.435827 12.9272,0.700394 1.07599,0.0661418 2.2063,0.196063 3.27992,0.196063 1.07717,0 2.2063,-0.12874 3.28465,-0.194882 4.32284,-0.266929 8.78032,-0.261024 13.0713,-0.701575 5.08819,-0.52441 10.4079,-1.51536 15.2303,-3.17835 44.3374,-15.2906 72.3284,-56.9398 88.0796,-97.2993 20.1142,-51.5374 25.5532,-111.338 21.7099,-165.913l-0.0106299 -0.146457c-0.0543308,-0.276378 -0.0425197,-0.375591 -0.0791339,-1.13976l-0.702756 -9.98977 0.0956694 0 -1.1941 -19.5473c-3.58347,-58.6808 -7.53308,-117.399 -10.3984,-176.112 -0.624804,-12.815 -12.1878,-22.963 -25.6299,-22.3453 -13.5827,0.625985 -24.124,11.576 -23.4768,24.5764 2.93268,58.8839 6.53268,117.776 10.3843,176.613l1.88386 28.7929c0.0248032,0.389764 0.0354331,0.77126 0.0377953,1.15039l0.0968505 1.38425c3.36142,47.9174 -0.900001,101.032 -18.6165,146.307 -10.4315,26.6658 -29.0764,59.4378 -59.0575,69.4193 -2.31496,0.77126 -3.21733,0.681497 -4.03111,0.65315 -3.1063,0.333071 -6.25867,0.604725 -9.38623,0.56693 -0.42874,-0.00472441 -0.863386,-0.0330709 -1.28858,-0.0330709 -0.415748,0.00236221 -0.836221,0.0283465 -1.25433,0.0330709 -3.04961,0.0318898 -6.12048,-0.231496 -9.26812,-0.565748 -0.775985,0.0283465 -1.69488,0.124016 -4.03347,-0.651969 -29.9882,-9.96733 -48.6319,-42.7595 -59.0623,-69.4217 -17.7165,-45.2752 -21.978,-98.3883 -18.6154,-146.306l0.0933072 -1.34764z"/>
    <path id="_210073520" class="fil3" d="M1025.5 1704.38c-0.00708662,-1.56969 0.0011811,-2.73307 0.0259843,-3.47953l0.0106299 0 12.3662 -477.474 0 -1.61929c1.75276,-28.6595 15.1772,-47.7709 31.9819,-56.8642 6.92008,-3.74528 14.4862,-5.65276 21.9803,-5.67166 7.63583,-0.0177165 15.2976,1.94173 22.2496,5.92796 15.8858,9.11694 27.9532,27.5008 29.2028,55.5709l0 0.810237 12.3567 479.187 0.0141732 -0.0011811c0.0271654,0.768898 0.0366142,2.01732 0.0295276,3.69685 -0.0826772,19.2189 -6.32953,40.4835 -16.7764,56.7355 -10.9075,16.9677 -26.6646,29.5713 -45.3768,30.7465 -0.638977,0.0389764 -1.63347,0.0543308 -2.95276,0.0484252 -1.21181,0.00826772 -2.13189,-0.00472441 -2.76614,-0.0425197 -18.7902,-1.09134 -34.5981,-13.6937 -45.5386,-30.7099 -10.4587,-16.2638 -16.7126,-37.5756 -16.8071,-56.8607z"/>
   </g>
  </g>
 </g>
</svg>
