<?xml version="1.0" encoding="UTF-8"?>
<!DOCTYPE svg PUBLIC "-//W3C//DTD SVG 1.1//EN" "http://www.w3.org/Graphics/SVG/1.1/DTD/svg11.dtd">
<!-- Creator: CorelDRAW -->
<svg xmlns="http://www.w3.org/2000/svg" xml:space="preserve" width="2048px" height="2048px" style="shape-rendering:geometricPrecision; text-rendering:geometricPrecision; image-rendering:optimizeQuality; fill-rule:evenodd; clip-rule:evenodd"
viewBox="0 0 2048 2048"
 xmlns:xlink="http://www.w3.org/1999/xlink">
 <defs>
  <style type="text/css">
   <![CDATA[
    .fil0 {fill:none}
    .fil3 {fill:#F57F17}
    .fil2 {fill:#FBC02D}
    .fil4 {fill:#29B6F6;fill-rule:nonzero}
    .fil1 {fill:#4FC3F7;fill-rule:nonzero}
    .fil5 {fill:#81D4FA;fill-rule:nonzero}
   ]]>
  </style>
 </defs>
 <g id="Layer_x0020_1">
  <metadata id="CorelCorpID_0Corel-Layer"/>
  <rect class="fil0" width="2048" height="2048"/>
  <rect class="fil0" x="255.999" y="255.999" width="1536" height="1536"/>
  <g id="_210069224">
   <path id="_210042608" class="fil1" d="M1248.66 1722.41c18.5055,-0.162992 33.639,14.7083 33.802,33.2138 0.161811,18.5055 -14.7095,33.6402 -33.2138,33.802l-293.062 2.57126c-18.5055,0.161811 -33.6402,-14.7095 -33.802,-33.2138 -0.162992,-18.5055 14.7083,-33.6402 33.2138,-33.802l293.062 -2.57126z"/>
   <path id="_210058592" class="fil1" d="M1062.97 1079.24c-0.161811,-18.5043 14.7083,-33.639 33.2138,-33.802 18.5055,-0.161811 33.6402,14.7095 33.802,33.215l5.9504 678.264c0.162992,18.5043 -14.7083,33.639 -33.2138,33.802 -18.5055,0.161811 -33.6402,-14.7095 -33.802,-33.215l-5.9504 -678.264z"/>
   <path id="_210063632" class="fil2" d="M607.557 256.374c-112.585,7.3063 -197.933,104.499 -190.627,217.084 7.3063,112.586 104.499,197.933 217.084,190.627 40.1044,-2.60197 76.7469,-16.6181 106.982,-38.6634l-164.966 -161.267c-1.50473,-23.1933 16.089,-43.2296 39.2823,-44.7343l199.516 -1.42795c-25.0051,-91.7079 -108.726,-168.013 -207.272,-161.619z"/>
   <ellipse id="_210051752" class="fil3" transform="matrix(-0.884482 0.0077595 0.0077595 0.884482 614.413 297.098)" rx="10.4681" ry="17.2736"/>
   <ellipse id="_210062720" class="fil3" transform="matrix(-0.884482 0.0077595 0.0077595 0.884482 617.277 623.495)" rx="10.4681" ry="17.2736"/>
   <ellipse id="_210063344" class="fil3" transform="matrix(-0.762104 0.448961 0.448961 0.762104 533.006 319.678)" rx="10.4681" ry="17.2736"/>
   <ellipse id="_210042248" class="fil3" transform="matrix(-0.762104 0.448961 0.448961 0.762104 698.684 600.915)" rx="10.4681" ry="17.2736"/>
   <ellipse id="_210073016" class="fil3" transform="matrix(-0.435521 0.769864 0.769864 0.435521 473.795 379.937)" rx="10.4681" ry="17.2736"/>
   <ellipse id="_210072560" class="fil3" transform="matrix(-0.435521 0.769864 0.769864 0.435521 757.895 540.656)" rx="10.4681" ry="17.2736"/>
   <ellipse id="_210061424" class="fil3" transform="matrix(0.0077595 0.884482 0.884482 -0.0077595 452.646 461.728)" rx="10.4681" ry="17.2736"/>
   <ellipse id="_210052568" class="fil3" transform="matrix(0.0077595 0.884482 0.884482 -0.0077595 779.043 458.865)" rx="10.4681" ry="17.2736"/>
   <ellipse id="_210069824" class="fil3" transform="matrix(0.448961 0.762104 0.762104 -0.448961 475.227 543.136)" rx="10.4681" ry="17.2736"/>
   <ellipse id="_210050048" class="fil3" transform="matrix(0.448961 0.762104 0.762104 -0.448961 756.463 377.457)" rx="10.4681" ry="17.2736"/>
   <ellipse id="_210059240" class="fil3" transform="matrix(0.769864 0.435521 0.435521 -0.769864 535.485 602.346)" rx="10.4681" ry="17.2736"/>
   <ellipse id="_210042824" class="fil3" transform="matrix(0.769864 0.435521 0.435521 -0.769864 696.204 318.246)" rx="10.4681" ry="17.2736"/>
   <path id="_210070184" class="fil4" d="M1604.3 404.698l-1027.41 9.013c-14.8595,0.131102 -26.7744,15.2398 -26.6126,33.7441 0.0814961,9.35906 3.2374,17.791 8.25827,23.8276l519.153 635.018 -0.00236221 0.00236221c10.6217,12.9921 27.6591,12.8433 38.0516,-0.334252l0.147638 -0.191339 507.941 -644.047 0.0011811 0.00236221c10.3925,-13.1764 10.2059,-34.3937 -0.415748,-47.3859 -5.31024,-6.49725 -12.2256,-9.70749 -19.1114,-9.64725l0 -0.0011811z"/>
   <path id="_210055640" class="fil5" d="M1352.37 641.083c8.97757,-11.3835 23.6965,-11.5122 32.8725,-0.288189 9.17599,11.2252 9.3378,29.5547 0.359055,40.9382l-201.458 255.443c-8.97875,11.3835 -23.6977,11.5134 -32.8736,0.288189 -9.17599,-11.224 -9.33662,-29.5536 -0.359055,-40.937l201.46 -255.444z"/>
  </g>
 </g>
</svg>
