<?xml version="1.0" encoding="UTF-8"?>
<!DOCTYPE svg PUBLIC "-//W3C//DTD SVG 1.1//EN" "http://www.w3.org/Graphics/SVG/1.1/DTD/svg11.dtd">
<!-- Creator: CorelDRAW -->
<svg xmlns="http://www.w3.org/2000/svg" xml:space="preserve" width="2048px" height="2048px" style="shape-rendering:geometricPrecision; text-rendering:geometricPrecision; image-rendering:optimizeQuality; fill-rule:evenodd; clip-rule:evenodd"
viewBox="0 0 2048 2048"
 xmlns:xlink="http://www.w3.org/1999/xlink">
 <defs>
  <style type="text/css">
   <![CDATA[
    .fil0 {fill:none}
    .fil3 {fill:none;fill-rule:nonzero}
    .fil1 {fill:#FF7043;fill-rule:nonzero}
    .fil2 {fill:#FF8A65;fill-rule:nonzero}
   ]]>
  </style>
     <clipPath id="id0" style="clip-rule:nonzero">
      <path d="M456.309 728.431c-61.539,21.2315 -109.36,65.2453 -137.068,119.538 -28.3595,55.5638 -35.6481,121.871 -15.0189,185.505l140.87 434.553c14.6752,-2.96457 28.9914,-2.47323 42.3626,3.04607 18.5799,7.67008 33.802,24.3236 43.3878,53.8229 0.193701,0.465355 0.372048,0.94252 0.530315,1.43032l17.0327 52.5414 166.135 -53.8571 0.0590552 -0.0188977 181.147 -58.7233 -17.191 -53.0327c-0.373229,-1.15158 0.137008,0.318898 -0.657875,-2.33504 -5.96103,-19.9536 -5.83937,-40.676 2.21103,-58.7658 7.59686,-17.0681 21.802,-31.3477 43.9949,-39.9355l127.484 -313.338c7.05237,-17.3374 7.88386,-35.8736 2.6811,-51.9626 -4.76457,-14.7378 -14.7461,-27.4618 -29.7792,-35.1485 -15.5587,-7.95709 -32.9729,-8.82166 -48.489,-3.80551 -15.5339,5.02205 -29.1662,15.9414 -37.1445,31.5425l-73.3607 143.454c-1.98071,4.71851 -5.92678,8.57953 -11.1756,10.2803 -9.56457,3.10158 -19.8319,-2.13898 -22.9335,-11.7036l-64.2237 -198.117c-20.6291,-63.6343 -65.4331,-113.054 -120.998,-141.413 -55.5638,-28.3571 -121.872,-35.6457 -185.509,-15.0165 -1.27441,0.413386 -2.54292,0.838583 -3.80551,1.27323l-0.540945 0.186614z"/>
     </clipPath>
     <clipPath id="id1" style="clip-rule:nonzero">
      <path d="M1583.19 479.78c64.1504,22.1327 113.999,68.0138 142.885,124.61 29.5618,57.9213 37.1599,127.043 15.6555,193.377l-146.848 452.99c-15.2965,-3.09095 -30.2209,-2.57835 -44.1591,3.17481 -19.3677,7.99489 -35.237,25.3559 -45.2292,56.1071 -0.201969,0.484252 -0.387402,0.981497 -0.552756,1.48937l-17.7555 54.7713 -173.183 -56.1426 -0.0625985 -0.0200788 -188.832 -61.2142 17.9209 -55.2827c0.388583,-1.2 -0.144095,0.33189 0.68504,-2.43307 6.21378,-20.8004 6.08741,-42.4028 -2.30551,-61.2591 -7.91812,-17.7921 -22.7268,-32.6788 -45.8611,-41.6303l-132.892 -326.633c-7.35237,-18.0721 -8.21812,-37.3961 -2.79567,-54.1666 4.96654,-15.3638 15.3732,-28.6276 31.0429,-36.6402 16.2189,-8.29489 34.3713,-9.19607 50.5465,-3.96733 16.1929,5.23465 30.404,16.6181 38.7201,32.8807l76.4741 149.542c2.06457,4.91811 6.17835,8.94213 11.6492,10.7161 9.97087,3.23268 20.674,-2.22992 23.9055,-12.2008l66.9497 -206.522c21.5043,-66.3343 68.2099,-117.852 126.132,-147.413 57.9213,-29.5607 127.043,-37.1587 193.378,-15.6543 1.32874,0.431103 2.6504,0.875198 3.96733,1.32756l0.563386 0.193701z"/>
     </clipPath>
 </defs>
 <g id="Layer_x0020_1">
  <metadata id="CorelCorpID_0Corel-Layer"/>
  <rect class="fil0" width="2048" height="2048"/>
  <rect class="fil0" x="255.999" y="255.999" width="1536" height="1536"/>
  <g id="_210053480">
   <g>
    <path id="_210071552" class="fil1" d="M449.428 692.334c73.1965,-23.7284 149.431,-15.3638 213.286,17.2264 63.8563,32.5902 115.357,89.4178 139.086,162.613l50.7083 156.424 54.0556 -105.705c12.5055,-24.4547 33.887,-41.5725 58.2532,-49.4493 24.3851,-7.88386 51.7713,-6.5126 76.2674,6.01418 24.0792,12.313 40.063,32.6776 47.687,56.2571 7.78701,24.0851 6.68623,51.4819 -3.60709,76.7823l-130.638 321.092 -0.114567 -0.0472441 -0.00472441 0.0106299 0.194882 0.0791339c-2.13307,5.24174 -6.43111,8.95276 -11.4425,10.5189l-0.0673229 0.022441c-0.350788,0.114567 -0.702756,0.216142 -1.05591,0.307087 -0.194882,0.068504 -0.517323,0.175984 -1.03465,0.344882 -14.661,4.75276 -23.5028,12.7205 -27.6839,22.1126 -4.35473,9.78426 -4.23189,21.6284 -0.698032,33.4548 0.400394,1.33583 -0.225591,-0.851575 0.572835,1.61457l22.8059 70.3512c3.1004,9.56457 -2.13898,19.8319 -11.7036,22.9323l-381.979 123.828c-9.56339,3.1004 -19.8319,-2.14016 -22.9323,-11.7047l-22.6465 -69.8599c-0.172441,-0.532678 -0.318898,-1.0689 -0.440552,-1.60512 -5.91378,-18.1075 -13.7457,-27.7122 -22.6559,-31.3902 -9.19135,-3.79488 -21.1205,-2.04685 -34.1244,2.78386l0.0200788 0.0531496c-9.42284,3.5067 -19.9051,-1.28976 -23.4118,-10.7126 -0.0921261,-0.244488 -0.175984,-0.490158 -0.255118,-0.735827l-0.0011811 0 -146.282 -451.244c-23.7284,-73.1953 -15.3626,-149.43 17.2276,-213.285 32.5914,-63.8552 89.419,-115.356 162.615,-139.084z"/>
    <path id="_210066656" class="fil2" d="M456.309 728.431c-61.539,21.2315 -109.36,65.2453 -137.068,119.538 -28.3595,55.5638 -35.6481,121.871 -15.0189,185.505l140.87 434.553c14.6752,-2.96457 28.9914,-2.47323 42.3626,3.04607 18.5799,7.67008 33.802,24.3236 43.3878,53.8229 0.193701,0.465355 0.372048,0.94252 0.530315,1.43032l17.0327 52.5414 166.135 -53.8571 0.0590552 -0.0188977 181.147 -58.7233 -17.191 -53.0327c-0.373229,-1.15158 0.137008,0.318898 -0.657875,-2.33504 -5.96103,-19.9536 -5.83937,-40.676 2.21103,-58.7658 7.59686,-17.0681 21.802,-31.3477 43.9949,-39.9355l127.484 -313.338c7.05237,-17.3374 7.88386,-35.8736 2.6811,-51.9626 -4.76457,-14.7378 -14.7461,-27.4618 -29.7792,-35.1485 -15.5587,-7.95709 -32.9729,-8.82166 -48.489,-3.80551 -15.5339,5.02205 -29.1662,15.9414 -37.1445,31.5425l-73.3607 143.454c-1.98071,4.71851 -5.92678,8.57953 -11.1756,10.2803 -9.56457,3.10158 -19.8319,-2.13898 -22.9335,-11.7036l-64.2237 -198.117c-20.6291,-63.6343 -65.4331,-113.054 -120.998,-141.413 -55.5638,-28.3571 -121.872,-35.6457 -185.509,-15.0165 -1.27441,0.413386 -2.54292,0.838583 -3.80551,1.27323l-0.540945 0.186614z"/>
    <g style="clip-path:url(#id0)">
     <g>
      <path id="_2180767281" class="fil1" d="M671.647 635.793l686.435 700.028 -9.21261 10.8685 -686.435 -700.028 9.21261 -10.8685zm-51.2989 16.6299l686.435 700.028 -9.21261 10.8685 -686.435 -700.028 9.21261 -10.8685zm-51.2989 16.6299l686.435 700.028 -9.21261 10.8685 -686.435 -700.028 9.21261 -10.8685zm-51.2989 16.6299l686.435 700.028 -9.21261 10.8673 -686.435 -700.028 9.21261 -10.8673zm-51.2989 16.6299l686.435 700.028 -9.21379 10.8673 -686.434 -700.028 9.21261 -10.8673zm-51.2989 16.6299l686.434 700.028 -9.21261 10.8673 -686.435 -700.028 9.21379 -10.8673zm-51.3 16.6299l686.435 700.028 -9.21261 10.8673 -686.435 -700.028 9.21261 -10.8673zm-51.2989 16.6299l686.435 700.028 -9.21261 10.8673 -686.435 -700.028 9.21261 -10.8673zm-51.2989 16.6299l686.435 700.028 -9.21261 10.8673 -686.435 -700.028 9.21261 -10.8673zm-51.2989 16.6288l686.435 700.028 -9.21261 10.8685 -686.435 -700.028 9.21261 -10.8685zm-51.2989 16.6299l686.435 700.028 -9.21261 10.8685 -686.435 -700.028 9.21261 -10.8685zm-51.2989 16.6299l686.435 700.028 -9.21261 10.8685 -686.435 -700.028 9.21261 -10.8685zm-51.2989 16.6299l686.435 700.028 -9.21379 10.8673 -686.434 -700.028 9.21261 -10.8673zm-51.2989 16.6299l686.435 700.028 -9.21379 10.8673 -686.435 -700.028 9.21379 -10.8673zm-51.3 16.6299l686.435 700.028 -9.21261 10.8673 -686.435 -700.028 9.21261 -10.8673zm-51.2989 16.6299l686.435 700.028 -9.21261 10.8673 -686.435 -700.028 9.21261 -10.8673z"/>
      <path id="_218059952" class="fil1" d="M306.444 754.183l-145.179 969.615 13.8366 3.39567 145.179 -969.615 -13.8366 -3.39567zm51.2989 -16.6299l-145.179 969.615 13.8366 3.39567 145.179 -969.615 -13.8366 -3.39567zm51.3 -16.6299l-145.18 969.616 13.8366 3.39567 145.18 -969.616 -13.8366 -3.39567zm51.2989 -16.6299l-145.18 969.616 13.8366 3.39567 145.18 -969.616 -13.8366 -3.39567zm51.2989 -16.6299l-145.179 969.616 13.8366 3.39567 145.179 -969.616 -13.8366 -3.39567zm51.2989 -16.6299l-145.179 969.616 13.8366 3.39567 145.179 -969.616 -13.8366 -3.39567zm51.2989 -16.6299l-145.179 969.616 13.8366 3.39567 145.179 -969.616 -13.8366 -3.39567zm51.2989 -16.6299l-145.179 969.616 13.8366 3.39567 145.179 -969.616 -13.8366 -3.39567zm51.2989 -16.6299l-145.179 969.616 13.8366 3.39567 145.179 -969.616 -13.8366 -3.39567zm51.2989 -16.6288l-145.179 969.615 13.8366 3.39567 145.179 -969.615 -13.8366 -3.39567zm51.3 -16.6299l-145.18 969.615 13.8366 3.39567 145.18 -969.615 -13.8366 -3.39567zm51.2989 -16.6299l-145.18 969.616 13.8366 3.39567 145.18 -969.616 -13.8366 -3.39567zm51.2989 -16.6299l-145.179 969.616 13.8366 3.39567 145.179 -969.616 -13.8366 -3.39567zm51.2989 -16.6299l-145.179 969.616 13.8366 3.39567 145.179 -969.616 -13.8366 -3.39567zm51.2989 -16.6299l-145.179 969.616 13.8366 3.39567 145.179 -969.616 -13.8366 -3.39567zm51.2989 -16.6299l-145.179 969.616 13.8366 3.39567 145.179 -969.616 -13.8366 -3.39567z"/>
     </g>
    </g>
    <path class="fil3" d="M456.309 728.431c-61.539,21.2315 -109.36,65.2453 -137.068,119.538 -28.3595,55.5638 -35.6481,121.871 -15.0189,185.505l140.87 434.553c14.6752,-2.96457 28.9914,-2.47323 42.3626,3.04607 18.5799,7.67008 33.802,24.3236 43.3878,53.8229 0.193701,0.465355 0.372048,0.94252 0.530315,1.43032l17.0327 52.5414 166.135 -53.8571 0.0590552 -0.0188977 181.147 -58.7233 -17.191 -53.0327c-0.373229,-1.15158 0.137008,0.318898 -0.657875,-2.33504 -5.96103,-19.9536 -5.83937,-40.676 2.21103,-58.7658 7.59686,-17.0681 21.802,-31.3477 43.9949,-39.9355l127.484 -313.338c7.05237,-17.3374 7.88386,-35.8736 2.6811,-51.9626 -4.76457,-14.7378 -14.7461,-27.4618 -29.7792,-35.1485 -15.5587,-7.95709 -32.9729,-8.82166 -48.489,-3.80551 -15.5339,5.02205 -29.1662,15.9414 -37.1445,31.5425l-73.3607 143.454c-1.98071,4.71851 -5.92678,8.57953 -11.1756,10.2803 -9.56457,3.10158 -19.8319,-2.13898 -22.9335,-11.7036l-64.2237 -198.117c-20.6291,-63.6343 -65.4331,-113.054 -120.998,-141.413 -55.5638,-28.3571 -121.872,-35.6457 -185.509,-15.0165 -1.27441,0.413386 -2.54292,0.838583 -3.80551,1.27323l-0.540945 0.186614z"/>
   </g>
   <g>
    <path id="_210056336" class="fil1" d="M1590.37 442.152c-76.3016,-24.7347 -155.771,-16.0158 -222.336,17.9575 -66.5658,33.9721 -120.252,93.2115 -144.986,169.512l-52.8603 163.061 -56.3493 -110.19c-13.0358,-25.4918 -35.3233,-43.3359 -60.7241,-51.5481 -25.4197,-8.21694 -53.9682,-6.7878 -79.5036,6.27048 -25.1008,12.835 -41.7626,34.063 -49.7091,58.643 -8.1189,25.1067 -6.97087,53.667 3.75945,80.041l136.18 334.715 0.119291 -0.0484252 0.00472441 0.0106299 -0.201969 0.0826772c2.22284,5.46496 6.70394,9.3319 11.9268,10.9654l0.0708662 0.0236221c0.366142,0.11811 0.732284,0.22441 1.10079,0.320079 0.20315,0.0708662 0.538583,0.183071 1.07835,0.357874 15.2835,4.95473 24.5008,13.2602 28.8591,23.0516 4.53898,10.2 4.41142,22.5461 0.72756,34.8744 -0.416929,1.39252 0.23504,-0.887009 -0.597638,1.68307l-23.7732 73.3359c-3.23268,9.96969 2.22992,20.674 12.2008,23.9055l398.184 129.082c9.97087,3.2315 20.674,-2.2311 23.9067,-12.2008l23.6067 -72.8245c0.180709,-0.555119 0.33189,-1.11378 0.459449,-1.67362 6.16536,-18.8752 14.3291,-28.8874 23.6173,-32.7213 9.58111,-3.95551 22.0158,-2.13425 35.5725,2.90197l-0.0212599 0.0555119c9.82205,3.65551 20.7496,-1.3441 24.4051,-11.1673 0.0956694,-0.255118 0.183071,-0.510237 0.265748,-0.766536l0.0011811 0 152.489 -470.39c24.7347,-76.3005 16.0146,-155.77 -17.9587,-222.334 -33.9733,-66.5646 -93.2127,-120.249 -169.514,-144.985z"/>
    <path id="_210069632" class="fil2" d="M1583.19 479.78c64.1504,22.1327 113.999,68.0138 142.885,124.61 29.5618,57.9213 37.1599,127.043 15.6555,193.377l-146.848 452.99c-15.2965,-3.09095 -30.2209,-2.57835 -44.1591,3.17481 -19.3677,7.99489 -35.237,25.3559 -45.2292,56.1071 -0.201969,0.484252 -0.387402,0.981497 -0.552756,1.48937l-17.7555 54.7713 -173.183 -56.1426 -0.0625985 -0.0200788 -188.832 -61.2142 17.9209 -55.2827c0.388583,-1.2 -0.144095,0.33189 0.68504,-2.43307 6.21378,-20.8004 6.08741,-42.4028 -2.30551,-61.2591 -7.91812,-17.7921 -22.7268,-32.6788 -45.8611,-41.6303l-132.892 -326.633c-7.35237,-18.0721 -8.21812,-37.3961 -2.79567,-54.1666 4.96654,-15.3638 15.3732,-28.6276 31.0429,-36.6402 16.2189,-8.29489 34.3713,-9.19607 50.5465,-3.96733 16.1929,5.23465 30.404,16.6181 38.7201,32.8807l76.4741 149.542c2.06457,4.91811 6.17835,8.94213 11.6492,10.7161 9.97087,3.23268 20.674,-2.22992 23.9055,-12.2008l66.9497 -206.522c21.5043,-66.3343 68.2099,-117.852 126.132,-147.413 57.9213,-29.5607 127.043,-37.1587 193.378,-15.6543 1.32874,0.431103 2.6504,0.875198 3.96733,1.32756l0.563386 0.193701z"/>
    <g style="clip-path:url(#id1)">
     <g>
      <path id="_2180723841" class="fil1" d="M1358.72 383.211l-715.558 729.729 9.60355 11.3291 715.558 -729.729 -9.60355 -11.3291zm53.4756 17.3362l-715.558 729.728 9.60355 11.3291 715.558 -729.729 -9.60355 -11.328zm53.4756 17.3351l-715.558 729.728 9.60355 11.3291 715.558 -729.728 -9.60355 -11.3291zm53.4756 17.3351l-715.56 729.729 9.60355 11.328 715.56 -729.728 -9.60355 -11.3291zm53.4745 17.3351l-715.558 729.729 9.60355 11.3291 715.56 -729.729 -9.60473 -11.3291zm53.4756 17.3362l-715.558 729.728 9.60355 11.3291 715.558 -729.729 -9.60355 -11.328zm53.4756 17.3351l-715.558 729.728 9.60355 11.3291 715.558 -729.728 -9.60355 -11.3291zm53.4756 17.3351l-715.558 729.729 9.60355 11.328 715.558 -729.728 -9.60355 -11.3291zm53.4756 17.3362l-715.558 729.728 9.60355 11.3291 715.558 -729.729 -9.60355 -11.328zm53.4756 17.3351l-715.558 729.728 9.60355 11.3291 715.558 -729.729 -9.60355 -11.328zm53.4756 17.3351l-715.558 729.729 9.60355 11.328 715.558 -729.728 -9.60355 -11.3291zm53.4756 17.3351l-715.558 729.729 9.60355 11.3291 715.558 -729.729 -9.60355 -11.3291zm53.4756 17.3362l-715.56 729.728 9.60473 11.3291 715.558 -729.729 -9.60355 -11.328zm53.4756 17.3351l-715.56 729.728 9.60355 11.3291 715.56 -729.728 -9.60355 -11.3291zm53.4745 17.3351l-715.558 729.729 9.60355 11.328 715.558 -729.728 -9.60355 -11.3291zm53.4756 17.3351l-715.558 729.729 9.60355 11.3291 715.558 -729.729 -9.60355 -11.3291z"/>
      <path id="_218050856" class="fil1" d="M1739.42 506.624l151.338 1010.76 -14.4236 3.53977 -151.338 -1010.76 14.4236 -3.53977zm-53.4756 -17.3351l151.338 1010.75 -14.4236 3.53977 -151.338 -1010.75 14.4236 -3.53977zm-53.4756 -17.3351l151.338 1010.75 -14.4236 3.53977 -151.338 -1010.75 14.4236 -3.53977zm-53.4756 -17.3351l151.338 1010.75 -14.4236 3.53977 -151.338 -1010.76 14.4236 -3.53859zm-53.4756 -17.3362l151.338 1010.76 -14.4236 3.53977 -151.338 -1010.76 14.4236 -3.53977zm-53.4756 -17.3351l151.338 1010.75 -14.4236 3.53977 -151.338 -1010.75 14.4236 -3.53977zm-53.4756 -17.3351l151.339 1010.75 -14.4236 3.53977 -151.339 -1010.75 14.4236 -3.53977zm-53.4756 -17.3362l151.339 1010.76 -14.4236 3.53977 -151.339 -1010.76 14.4236 -3.53977zm-53.4756 -17.3351l151.339 1010.76 -14.4236 3.53977 -151.339 -1010.76 14.4236 -3.53977zm-53.4745 -17.3351l151.338 1010.75 -14.4236 3.53977 -151.338 -1010.75 14.4236 -3.53977zm-53.4756 -17.3351l151.338 1010.75 -14.4236 3.53977 -151.338 -1010.75 14.4236 -3.53977zm-53.4756 -17.3362l151.338 1010.76 -14.4236 3.53977 -151.338 -1010.76 14.4236 -3.53977zm-53.4756 -17.3351l151.338 1010.75 -14.4236 3.53977 -151.338 -1010.75 14.4236 -3.53977zm-53.4756 -17.3351l151.338 1010.75 -14.4236 3.53977 -151.338 -1010.75 14.4236 -3.53977zm-53.4756 -17.3351l151.338 1010.75 -14.4236 3.53977 -151.338 -1010.75 14.4236 -3.53977zm-53.4756 -17.3362l151.339 1010.76 -14.4236 3.53977 -151.339 -1010.76 14.4236 -3.53977z"/>
     </g>
    </g>
    <path class="fil3" d="M1583.19 479.78c64.1504,22.1327 113.999,68.0138 142.885,124.61 29.5618,57.9213 37.1599,127.043 15.6555,193.377l-146.848 452.99c-15.2965,-3.09095 -30.2209,-2.57835 -44.1591,3.17481 -19.3677,7.99489 -35.237,25.3559 -45.2292,56.1071 -0.201969,0.484252 -0.387402,0.981497 -0.552756,1.48937l-17.7555 54.7713 -173.183 -56.1426 -0.0625985 -0.0200788 -188.832 -61.2142 17.9209 -55.2827c0.388583,-1.2 -0.144095,0.33189 0.68504,-2.43307 6.21378,-20.8004 6.08741,-42.4028 -2.30551,-61.2591 -7.91812,-17.7921 -22.7268,-32.6788 -45.8611,-41.6303l-132.892 -326.633c-7.35237,-18.0721 -8.21812,-37.3961 -2.79567,-54.1666 4.96654,-15.3638 15.3732,-28.6276 31.0429,-36.6402 16.2189,-8.29489 34.3713,-9.19607 50.5465,-3.96733 16.1929,5.23465 30.404,16.6181 38.7201,32.8807l76.4741 149.542c2.06457,4.91811 6.17835,8.94213 11.6492,10.7161 9.97087,3.23268 20.674,-2.22992 23.9055,-12.2008l66.9497 -206.522c21.5043,-66.3343 68.2099,-117.852 126.132,-147.413 57.9213,-29.5607 127.043,-37.1587 193.378,-15.6543 1.32874,0.431103 2.6504,0.875198 3.96733,1.32756l0.563386 0.193701z"/>
   </g>
  </g>
 </g>
</svg>
