<?xml version="1.0" encoding="UTF-8"?>
<!DOCTYPE svg PUBLIC "-//W3C//DTD SVG 1.1//EN" "http://www.w3.org/Graphics/SVG/1.1/DTD/svg11.dtd">
<!-- Creator: CorelDRAW -->
<svg xmlns="http://www.w3.org/2000/svg" xml:space="preserve" width="2048px" height="2048px" style="shape-rendering:geometricPrecision; text-rendering:geometricPrecision; image-rendering:optimizeQuality; fill-rule:evenodd; clip-rule:evenodd"
viewBox="0 0 2048 2048"
 xmlns:xlink="http://www.w3.org/1999/xlink">
 <defs>
  <style type="text/css">
   <![CDATA[
    .fil0 {fill:none}
    .fil4 {fill:#B71C1C}
    .fil3 {fill:#E53935}
    .fil2 {fill:#00897B;fill-rule:nonzero}
    .fil1 {fill:#757575;fill-rule:nonzero}
   ]]>
  </style>
 </defs>
 <g id="Layer_x0020_1">
  <metadata id="CorelCorpID_0Corel-Layer"/>
  <rect class="fil0" width="2048" height="2048"/>
  <rect class="fil0" x="255.999" y="255.999" width="1536" height="1536"/>
  <g id="_210062360">
   <path id="_210046088" class="fil1" d="M1566.87 648.101c22.1445,-1.11496 43.3453,0.16063 63.313,3.73347 46.2792,8.28308 85.2532,28.9276 113.536,60.8575 28.1953,31.8296 45.3178,74.3658 47.9386,126.474 1.13858,22.6051 -0.505512,47.1426 -5.2252,73.513l-47.7225 -8.55709c4.02874,-22.5071 5.43189,-43.4268 4.46339,-62.6741 -2.0374,-40.5048 -14.8075,-72.9615 -35.7685,-96.6237 -20.8713,-23.5618 -50.3256,-38.9209 -85.7788,-45.267 -16.1953,-2.89843 -33.7642,-3.913 -52.4752,-2.97166l-2.28071 -48.4843z"/>
   <path id="_210056216" class="fil2" d="M449.796 1299.07l214.366 127.828 30.0248 17.9032 -17.954 30.1063 -119.223 199.94c-24.2421,40.6536 -61.3571,68.8217 -101.621,81.4501 -41.5453,13.0299 -86.5926,9.63544 -125.102,-13.3264l-0.011811 -0.00826772c-0.488977,-0.290551 -0.973229,-0.587008 -1.45866,-0.883465l-0.0425197 0.0649607 -0.00354331 -0.00236221 0.0425197 -0.0649607c-37.604,-23.015 -61.4752,-60.6473 -69.6745,-102.941 -8.01379,-41.3315 -0.848032,-87.3414 23.4213,-128.047l0.00708662 -0.00944883 119.221 -199.937 17.9043 -30.0248 30.1051 17.9528zm148.404 170.006l-154.236 -91.9737 -101.321 169.918 -0.00708662 0.00944883c-15.0626,25.2673 -19.5508,53.6185 -14.641,78.9379 4.61457,23.8063 17.7272,44.6977 38.2193,56.9174l1.50827 0.823229 0.00354331 0.00236221 0.204331 0.166536c20.0941,11.2784 44.0162,12.5681 66.6083,5.48386 24.5173,-7.68898 47.2878,-25.1268 62.3894,-50.4508l101.271 -169.834z"/>
   <line id="_210065672" class="fil0" x1="568.335" y1="1343.85" x2="360.76" y2= "1691.95" />
   <polygon id="_210071336" class="fil2" points="598.375,1361.81 390.799,1709.92 330.718,1673.99 538.295,1325.88 "/>
   <line id="_210063680" class="fil0" x1="660.546" y1="1188.65" x2="539.011" y2= "1393.02" />
   <polygon id="_210054920" class="fil2" points="690.722,1206.48 569.187,1410.85 508.835,1375.19 630.369,1170.82 "/>
   <path id="_210066608" class="fil3" d="M625.375 1051.67l156.086 -393.363c-33.5882,-72.6083 -33.8162,-159.574 6.98032,-235.462 68.8713,-128.112 228.558,-176.136 356.67,-107.265 71.276,38.3185 117.745,104.752 133.102,178.214l298.031 33.4311c57.5752,6.45709 92.5135,69.1772 79.9146,125.73l-7.63583 34.2744c-12.5976,56.5536 -68.1839,86.6741 -125.728,79.917l-312.797 -36.7217c-50.4945,52.3949 -120.272,81.0048 -191.646,80.5087l-209.992 339.108c-97.8284,157.981 -251.521,74.3493 -182.985,-98.3705z"/>
   <path id="_210060272" class="fil4" d="M958.87 519.527c16.4705,-30.6378 54.6579,-42.1229 85.2946,-25.6524 30.6366,16.4705 42.1217,54.6579 25.6524,85.2946 -16.4705,30.6378 -54.6579,42.1217 -85.2957,25.6512 -30.6366,-16.4705 -42.1217,-54.6567 -25.6512,-85.2934z"/>
  </g>
 </g>
</svg>
