<?xml version="1.0" encoding="UTF-8"?>
<!DOCTYPE svg PUBLIC "-//W3C//DTD SVG 1.1//EN" "http://www.w3.org/Graphics/SVG/1.1/DTD/svg11.dtd">
<!-- Creator: CorelDRAW -->
<svg xmlns="http://www.w3.org/2000/svg" xml:space="preserve" width="2048px" height="2048px" style="shape-rendering:geometricPrecision; text-rendering:geometricPrecision; image-rendering:optimizeQuality; fill-rule:evenodd; clip-rule:evenodd"
viewBox="0 0 2048 2048"
 xmlns:xlink="http://www.w3.org/1999/xlink">
 <defs>
  <style type="text/css">
   <![CDATA[
    .fil0 {fill:none}
    .fil14 {fill:#373737}
    .fil2 {fill:#3E2723}
    .fil3 {fill:#40C4FF}
    .fil4 {fill:#424242}
    .fil1 {fill:#4E342E}
    .fil13 {fill:#6F6F6F}
    .fil15 {fill:#999999}
    .fil11 {fill:#99CCCC}
    .fil10 {fill:#A1887F}
    .fil7 {fill:#BDBDBD}
    .fil5 {fill:#CCCCCC}
    .fil6 {fill:white}
    .fil12 {fill:#3E2723;fill-rule:nonzero}
    .fil9 {fill:#424242;fill-rule:nonzero}
    .fil8 {fill:red;fill-rule:nonzero}
   ]]>
  </style>
 </defs>
 <g id="Layer_x0020_1">
  <metadata id="CorelCorpID_0Corel-Layer"/>
  <rect class="fil0" width="2048" height="2048"/>
  <rect class="fil0" x="255.999" y="255.999" width="1536" height="1536"/>
  <path class="fil1" d="M322.003 684.564l1403.99 0c18.1831,0 34.6925,7.41733 46.6406,19.3654 11.9469,11.9469 19.3642,28.4575 19.3642,46.6406l0 731.989c0,18.1843 -7.41733,34.6949 -19.3642,46.6418 -11.948,11.948 -28.4575,19.3654 -46.6406,19.3654l-1403.99 0c-18.1854,0 -34.6937,-7.41733 -46.6394,-19.3654 -11.9469,-11.9469 -19.3642,-28.4575 -19.3642,-46.6418l0 -731.989c0,-18.1831 7.41733,-34.6937 19.3642,-46.6406 11.9457,-11.948 28.454,-19.3654 46.6394,-19.3654z"/>
  <path class="fil2" d="M1791.95 1485.25c-0.692127,17.1201 -7.95473,32.5973 -19.3099,43.9524 -11.948,11.948 -28.4575,19.3654 -46.6406,19.3654l-1403.99 0c-18.1854,0 -34.6937,-7.41733 -46.6394,-19.3654 -11.3551,-11.3551 -18.6177,-26.8323 -19.3099,-43.9524l1535.89 0z"/>
  <path class="fil2" d="M959.907 684.564l772.873 0c16.3146,0 31.1268,7.41733 41.8477,19.3654 10.7185,11.9469 17.374,28.4575 17.374,46.6406l0 308.743 -832.094 0 0 -374.749z"/>
  <path class="fil3" d="M1664.61 684.564l24.0732 0 0 22.6595c0,6.62008 -5.41654,12.0354 -12.0366,12.0354l0 0c-6.62008,0 -12.0366,-5.41536 -12.0366,-12.0354l0 -22.6595z"/>
  <path class="fil4" d="M1443.42 1257.84c9.91064,-36.2114 33.6,-66.7571 66.2186,-85.3595 32.6173,-18.6012 70.969,-23.439 107.182,-13.5284 36.2091,9.90946 66.7571,33.6 85.3583,66.2162 18.6012,32.6173 23.4378,70.9701 13.5284,107.18 -9.90828,36.2114 -33.5988,66.7583 -66.2162,85.3595 -32.6173,18.6024 -70.969,23.4378 -107.182,13.5295 -36.2103,-9.90946 -66.7571,-33.5988 -85.3583,-66.2162 -18.6024,-32.6185 -23.439,-70.9701 -13.5307,-107.182z"/>
  <path class="fil5" d="M1457.89 1261.8c8.52166,-31.141 28.9229,-59.0339 59.1815,-76.2898 30.2575,-17.2559 64.6512,-20.6126 95.791,-12.091 31.1398,8.52166 59.0327,28.9229 76.2886,59.1804 17.2571,30.2587 20.6126,64.6524 12.0921,95.7922 -8.52166,31.1398 -28.9229,59.0327 -59.1804,76.2886 -30.2575,17.2559 -64.6524,20.6126 -95.7922,12.091 -31.1398,-8.52048 -59.0327,-28.9217 -76.2886,-59.1792 -17.2559,-30.2587 -20.6126,-64.6524 -12.0921,-95.7922z"/>
  <path class="fil6" d="M1467.53 1264.44c-8.15906,29.8181 -4.18347,61.3418 11.1331,88.2001 15.3177,26.8583 40.4244,46.3288 70.2426,54.489 29.817,8.15788 61.3406,4.18347 88.1989,-11.1331 26.8583,-15.3177 46.33,-40.4256 54.489,-70.2426 8.15788,-29.817 4.18465,-61.3406 -11.1319,-88.1989 -15.3177,-26.8571 -40.4256,-46.3288 -70.2426,-54.489 -29.817,-8.15906 -61.3406,-4.18465 -88.1989,11.1319 -26.8583,15.3177 -46.33,40.4256 -54.4902,70.2426z"/>
  <path class="fil3" d="M1529.24 1190.41c-2.44016,1.1752 -4.84843,2.43662 -7.2189,3.78898 -1.81181,1.03347 -3.58937,2.11417 -5.33268,3.23504l10.8236 18.9791c1.86142,3.26457 6.05434,4.4126 9.3189,2.55l0.625985 -0.356693c3.26457,-1.86142 4.41142,-6.05434 2.55,-9.3189l-10.7669 -18.8776z"/>
  <rect class="fil7" x="997.388" y="781.248" width="704.947" height="197.327"/>
  <rect class="fil6" x="1006.12" y="789.975" width="696.22" height="188.6"/>
  <polygon class="fil8" points="1122.2,789.975 1122.2,978.575 1117.2,978.575 1117.2,789.975 "/>
  <polygon class="fil9" points="1024.28,789.975 1024.28,845.744 1019.28,845.744 1019.28,789.975 "/>
  <polygon class="fil9" points="1050.79,789.975 1050.79,819.409 1045.79,819.409 1045.79,789.975 "/>
  <polygon class="fil9" points="1077.36,789.975 1077.36,845.744 1072.36,845.744 1072.36,789.975 "/>
  <polygon class="fil9" points="1103.87,789.975 1103.87,819.409 1098.87,819.409 1098.87,789.975 "/>
  <polygon class="fil9" points="1130.32,789.975 1130.32,845.744 1125.32,845.744 1125.32,789.975 "/>
  <polygon class="fil9" points="1156.84,789.975 1156.84,819.409 1151.84,819.409 1151.84,789.975 "/>
  <polygon class="fil9" points="1183.4,789.975 1183.4,845.744 1178.4,845.744 1178.4,789.975 "/>
  <line class="fil0" x1="1286.94" y1="789.975" x2="1286.94" y2= "845.744" />
  <polygon class="fil9" points="1289.44,789.975 1289.44,845.744 1284.44,845.744 1284.44,789.975 "/>
  <line class="fil0" x1="1392.98" y1="789.975" x2="1392.98" y2= "845.744" />
  <polygon class="fil9" points="1395.48,789.975 1395.48,845.744 1390.48,845.744 1390.48,789.975 "/>
  <line class="fil0" x1="1499.02" y1="789.975" x2="1499.02" y2= "845.744" />
  <polygon class="fil9" points="1501.52,789.975 1501.52,845.744 1496.52,845.744 1496.52,789.975 "/>
  <polygon class="fil9" points="1209.91,789.975 1209.91,819.409 1204.91,819.409 1204.91,789.975 "/>
  <line class="fil0" x1="1313.45" y1="789.975" x2="1313.45" y2= "819.409" />
  <polygon class="fil9" points="1315.95,789.975 1315.95,819.409 1310.95,819.409 1310.95,789.975 "/>
  <line class="fil0" x1="1419.49" y1="789.975" x2="1419.49" y2= "819.409" />
  <polygon class="fil9" points="1422,789.975 1422,819.409 1416.99,819.409 1416.99,789.975 "/>
  <line class="fil0" x1="1525.54" y1="789.975" x2="1525.54" y2= "819.409" />
  <polygon class="fil9" points="1528.04,789.975 1528.04,819.409 1523.04,819.409 1523.04,789.975 "/>
  <line class="fil0" x1="1233.86" y1="789.975" x2="1233.86" y2= "845.744" />
  <polygon class="fil9" points="1236.36,789.975 1236.36,845.744 1231.36,845.744 1231.36,789.975 "/>
  <line class="fil0" x1="1339.91" y1="789.975" x2="1339.91" y2= "845.744" />
  <polygon class="fil9" points="1342.41,789.975 1342.41,845.744 1337.41,845.744 1337.41,789.975 "/>
  <line class="fil0" x1="1445.95" y1="789.975" x2="1445.95" y2= "845.744" />
  <polygon class="fil9" points="1448.45,789.975 1448.45,845.744 1443.45,845.744 1443.45,789.975 "/>
  <polygon class="fil9" points="1554.49,789.975 1554.49,845.744 1549.49,845.744 1549.49,789.975 "/>
  <line class="fil0" x1="1260.38" y1="789.975" x2="1260.38" y2= "819.409" />
  <polygon class="fil9" points="1262.88,789.975 1262.88,819.409 1257.88,819.409 1257.88,789.975 "/>
  <line class="fil0" x1="1366.42" y1="789.975" x2="1366.42" y2= "819.409" />
  <polygon class="fil9" points="1368.92,789.975 1368.92,819.409 1363.92,819.409 1363.92,789.975 "/>
  <line class="fil0" x1="1472.46" y1="789.975" x2="1472.46" y2= "819.409" />
  <polygon class="fil9" points="1474.96,789.975 1474.96,819.409 1469.96,819.409 1469.96,789.975 "/>
  <line class="fil0" x1="1578.5" y1="789.975" x2="1578.5" y2= "819.409" />
  <polygon class="fil9" points="1581,789.975 1581,819.409 1576,819.409 1576,789.975 "/>
  <line class="fil0" x1="1605.11" y1="789.975" x2="1605.11" y2= "845.744" />
  <polygon class="fil9" points="1607.61,789.975 1607.61,845.744 1602.61,845.744 1602.61,789.975 "/>
  <line class="fil0" x1="1631.63" y1="789.975" x2="1631.63" y2= "819.409" />
  <polygon class="fil9" points="1634.13,789.975 1634.13,819.409 1629.13,819.409 1629.13,789.975 "/>
  <line class="fil0" x1="1658.08" y1="789.975" x2="1658.08" y2= "845.744" />
  <polygon class="fil9" points="1660.58,789.975 1660.58,845.744 1655.58,845.744 1655.58,789.975 "/>
  <line class="fil0" x1="1684.59" y1="789.975" x2="1684.59" y2= "819.409" />
  <polygon class="fil9" points="1687.09,789.975 1687.09,819.409 1682.09,819.409 1682.09,789.975 "/>
  <rect class="fil10" x="959.907" y="1059.31" width="832.094" height="13.8189"/>
  <path class="fil4" d="M1204.46 1237.33c15.3579,-15.3591 36.0366,-23.9292 57.7607,-23.9292 21.7252,0 42.404,8.57009 57.7619,23.9292 15.3579,15.3579 23.928,36.0378 23.928,57.7607 0,21.724 -8.5689,42.4028 -23.9268,57.7619 -15.3591,15.3602 -36.0378,23.928 -57.763,23.928 -21.724,0 -42.404,-8.5689 -57.7619,-23.928 -15.3579,-15.3591 -23.9268,-36.0378 -23.9268,-57.7619 0,-21.724 8.5689,-42.4028 23.928,-57.7607z"/>
  <path class="fil5" d="M1215.77 1248.65c11.8866,-11.8878 28.311,-19.2425 46.4481,-19.2425 18.1382,0 34.5614,7.35473 46.4492,19.2425 11.8866,11.8866 19.2414,28.311 19.2414,46.4481 0,18.1382 -7.35473,34.5614 -19.2414,46.4492 -11.8878,11.8878 -28.311,19.2414 -46.4492,19.2414 -18.137,0 -34.5614,-7.35355 -46.4481,-19.2414 -11.8878,-11.8878 -19.2414,-28.311 -19.2414,-46.4492 0,-18.137 7.35355,-34.5614 19.2414,-46.4481z"/>
  <path class="fil6" d="M1219.45 1252.33c-11.3823,11.3823 -17.7165,26.6669 -17.7165,42.7677 0,16.0996 6.33426,31.3831 17.7165,42.7666 11.3823,11.3823 26.6669,17.7165 42.7677,17.7165 16.0996,0 31.3843,-6.33426 42.7666,-17.7165 11.3811,-11.3835 17.7165,-26.6669 17.7165,-42.7666 0,-16.1008 -6.33426,-31.3855 -17.7165,-42.7677 -11.3823,-11.3823 -26.6669,-17.7165 -42.7666,-17.7165 -16.1008,0 -31.3855,6.33426 -42.7677,17.7165z"/>
  <circle class="fil11" cx="1223.07" cy="1294.87" r="8.0005"/>
  <path class="fil4" d="M992.063 1237.33c15.3579,-15.3591 36.0366,-23.9292 57.7607,-23.9292 21.7252,0 42.404,8.57009 57.7619,23.9292 15.3579,15.3579 23.928,36.0378 23.928,57.7607 0,21.724 -8.5689,42.4028 -23.9268,57.7619 -15.3591,15.3602 -36.0378,23.928 -57.763,23.928 -21.724,0 -42.404,-8.5689 -57.7619,-23.928 -15.3579,-15.3591 -23.9268,-36.0378 -23.9268,-57.7619 0,-21.724 8.5689,-42.4028 23.928,-57.7607z"/>
  <path class="fil5" d="M1112.03 1273.99c5.40119,15.9201 4.73032,33.9024 -3.2941,50.1685 -8.0256,16.2662 -21.887,27.7406 -37.8071,33.1418 -15.9201,5.40119 -33.9024,4.72914 -50.1685,-3.29528 -16.2662,-8.0256 -27.7406,-21.8858 -33.1418,-37.8059 -5.40119,-15.9201 -4.73032,-33.9024 3.29528,-50.1685 8.02442,-16.2662 21.8858,-27.7418 37.8059,-33.1429 15.9201,-5.40119 33.9024,-4.72914 50.1685,3.29528 16.2662,8.0256 27.7406,21.887 33.1418,37.8071z"/>
  <path class="fil6" d="M1107.1 1275.66c-5.17205,-15.2433 -16.0772,-27.6862 -30.5162,-34.8095 -14.4378,-7.12323 -30.9473,-8.20512 -46.1918,-3.03425 -15.2433,5.17205 -27.6862,16.0772 -34.8095,30.515 -7.12323,14.439 -8.20512,30.9484 -3.03307,46.1918 5.17205,15.2433 16.076,27.6862 30.515,34.8095 14.4378,7.12323 30.9473,8.20631 46.1918,3.03425 15.2433,-5.17087 27.6862,-16.076 34.8095,-30.515 7.12323,-14.4378 8.20512,-30.9473 3.03425,-46.1918z"/>
  <circle class="fil11" transform="matrix(-0.745139 1.51037 -1.51037 -0.745139 1068.25 1258.24)" r="4.7504"/>
  <rect class="fil10" x="255.999" y="1471.43" width="1536" height="13.8189"/>
  <path class="fil12" d="M688.563 1396.06l0 0 0 -11.3162 11.3185 0 0 11.3162 -11.3185 0zm238.135 -368.511l0 0 11.315 0 0 11.315 -11.315 0 0 -11.315zm0 23.8158l0 0 11.315 0 0 11.315 -11.315 0 0 -11.315zm0 23.8028l0 0 11.315 0 0 11.328 -11.315 0 0 -11.328zm0 23.8193l0 0 11.315 0 0 11.3126 -11.315 0 0 -11.3126zm0 23.8134l0 0 11.315 0 0 11.3055 -11.315 0 0 -11.3055zm0 23.8288l0 0 11.315 0 0 11.3055 -11.315 0 0 -11.3055zm-23.8169 -190.506l0 0 11.315 0 0 11.3055 -11.315 0 0 -11.3055zm0 23.8028l0 0 11.315 0 0 11.3185 -11.315 0 0 -11.3185zm0 23.8063l0 0 11.315 0 0 11.3291 -11.315 0 0 -11.3291zm0 23.8169l0 0 11.315 0 0 11.315 -11.315 0 0 -11.315zm0 23.8158l0 0 11.315 0 0 11.315 -11.315 0 0 -11.315zm0 23.8028l0 0 11.315 0 0 11.328 -11.315 0 0 -11.328zm0 23.8193l0 0 11.315 0 0 11.3126 -11.315 0 0 -11.3126zm0 23.8134l0 0 11.315 0 0 11.3055 -11.315 0 0 -11.3055zm0 23.8288l0 0 11.315 0 0 11.3055 -11.315 0 0 -11.3055zm0 23.8063l0 0 11.315 0 0 11.315 -11.315 0 0 -11.315zm0 23.8028l0 0 11.315 0 0 11.3291 -11.315 0 0 -11.3291zm0 23.8169l0 0 11.315 0 0 11.315 -11.315 0 0 -11.315zm-452.451 119.071l0 0 11.3221 0 0 11.315 -11.3221 0 0 -11.315zm23.8169 0l0 0 11.315 0 0 11.315 -11.315 0 0 -11.315zm23.8158 0l0 0 11.3091 0 0 11.315 -11.3091 0 0 -11.315zm23.8099 0l0 0 11.3185 0 0 11.315 -11.3185 0 0 -11.315zm23.8099 0l0 0 11.3209 0 0 11.315 -11.3209 0 0 -11.315zm23.8193 0l0 0 11.315 0 0 11.315 -11.315 0 0 -11.315zm23.8087 0l0 0 11.3162 0 0 11.315 -11.3162 0 0 -11.315zm23.8169 0l0 0 11.315 0 0 11.315 -11.315 0 0 -11.315zm23.8099 0l0 0 11.315 0 0 11.315 -11.315 0 0 -11.315zm23.8087 0l0 0 11.3221 0 0 11.315 -11.3221 0 0 -11.315zm23.8169 0l0 0 11.3185 0 0 11.315 -11.3185 0 0 -11.315zm23.8193 0l0 0 11.3079 0 0 11.315 -11.3079 0 0 -11.315zm23.8087 0l0 0 11.3162 0 0 11.315 -11.3162 0 0 -11.315zm23.8099 0l0 0 11.3221 0 0 11.315 -11.3221 0 0 -11.315zm23.8169 0l0 0 11.315 0 0 11.315 -11.315 0 0 -11.315zm23.8087 0l0 0 11.3185 0 0 11.315 -11.3185 0 0 -11.315zm35.1319 -12.5173l0 0 -11.3126 0 0 -11.2984 11.3126 0 0 11.2984zm-23.8134 0l0 0 -11.3185 0 0 -11.2984 11.3185 0 0 11.2984zm-23.8122 0l0 0 -11.315 0 0 -11.2984 11.315 0 0 11.2984zm-23.8099 0l0 0 -11.3221 0 0 -11.2984 11.3221 0 0 11.2984zm-23.8158 0l0 0 -11.3162 0 0 -11.2984 11.3162 0 0 11.2984zm-23.8169 0l0 0 -11.3079 0 0 -11.2984 11.3079 0 0 11.2984zm-23.8087 0l0 0 -11.3185 0 0 -11.2984 11.3185 0 0 11.2984zm-23.8134 0l0 0 -11.3221 0 0 -11.2984 11.3221 0 0 11.2984zm-23.8158 0l0 0 -11.315 0 0 -11.2984 11.315 0 0 11.2984zm-23.8099 0l0 0 -11.315 0 0 -11.2984 11.315 0 0 11.2984zm-23.8158 0l0 0 -11.3162 0 0 -11.2984 11.3162 0 0 11.2984zm-23.8099 0l0 0 -11.315 0 0 -11.2984 11.315 0 0 11.2984zm-23.8134 0l0 0 -11.3209 0 0 -11.2984 11.3209 0 0 11.2984zm-23.8122 0l0 0 -11.3185 0 0 -11.2984 11.3185 0 0 11.2984zm-23.8193 0l0 0 -11.3091 0 0 -11.2984 11.3091 0 0 11.2984zm-23.8099 0l0 0 -11.315 0 0 -11.2984 11.315 0 0 11.2984zm-23.8099 0l0 0 -11.3221 0 0 -11.2984 11.3221 0 0 11.2984zm-23.8158 0l0 0 -11.315 0 0 -11.2984 11.315 0 0 11.2984zm60.1264 36.3331l0 0 11.3091 0 0 11.315 -11.3091 0 0 -11.315zm23.8099 0l0 0 11.3185 0 0 11.315 -11.3185 0 0 -11.315zm23.8099 0l0 0 11.3209 0 0 11.315 -11.3209 0 0 -11.315zm23.8193 0l0 0 11.315 0 0 11.315 -11.315 0 0 -11.315zm23.8087 0l0 0 11.3162 0 0 11.315 -11.3162 0 0 -11.315zm23.8169 0l0 0 11.315 0 0 11.315 -11.315 0 0 -11.315zm23.8099 0l0 0 11.315 0 0 11.315 -11.315 0 0 -11.315zm23.8087 0l0 0 11.3221 0 0 11.315 -11.3221 0 0 -11.315zm23.8169 0l0 0 11.3185 0 0 11.315 -11.3185 0 0 -11.315zm23.8193 0l0 0 11.3079 0 0 11.315 -11.3079 0 0 -11.315zm23.8087 0l0 0 11.3162 0 0 11.315 -11.3162 0 0 -11.315zm23.8099 0l0 0 11.3221 0 0 11.315 -11.3221 0 0 -11.315zm119.065 -452.464l0 0 11.3221 0 0 11.3291 -11.3221 0 0 -11.3291zm0 23.8299l0 0 11.3221 0 0 11.302 -11.3221 0 0 -11.302zm0 23.8158l0 0 11.3221 0 0 11.3055 -11.3221 0 0 -11.3055zm0 23.8028l0 0 11.3221 0 0 11.3185 -11.3221 0 0 -11.3185zm0 23.8063l0 0 11.3221 0 0 11.3291 -11.3221 0 0 -11.3291zm0 23.8169l0 0 11.3221 0 0 11.315 -11.3221 0 0 -11.315zm0 23.8158l0 0 11.3221 0 0 11.315 -11.3221 0 0 -11.315zm0 23.8028l0 0 11.3221 0 0 11.328 -11.3221 0 0 -11.328zm0 23.8193l0 0 11.3221 0 0 11.3126 -11.3221 0 0 -11.3126zm0 23.8134l0 0 11.3221 0 0 11.3055 -11.3221 0 0 -11.3055zm0 23.8288l0 0 11.3221 0 0 11.3055 -11.3221 0 0 -11.3055zm0 23.8063l0 0 11.3221 0 0 11.315 -11.3221 0 0 -11.315zm0 23.8028l0 0 11.3221 0 0 11.3291 -11.3221 0 0 -11.3291zm0 23.8169l0 0 11.3221 0 0 11.315 -11.3221 0 0 -11.315zm0 23.8158l0 0 11.3221 0 0 11.315 -11.3221 0 0 -11.315zm0 23.8063l0 0 11.3221 0 0 11.3244 -11.3221 0 0 -11.3244zm-23.8099 -381.003l0 0 11.315 0 0 11.315 -11.315 0 0 -11.315zm0 23.8028l0 0 11.315 0 0 11.3291 -11.315 0 0 -11.3291zm0 23.8299l0 0 11.315 0 0 11.302 -11.315 0 0 -11.302zm0 23.8158l0 0 11.315 0 0 11.3055 -11.315 0 0 -11.3055zm0 23.8028l0 0 11.315 0 0 11.3185 -11.315 0 0 -11.3185zm0 23.8063l0 0 11.315 0 0 11.3291 -11.315 0 0 -11.3291zm0 23.8169l0 0 11.315 0 0 11.315 -11.315 0 0 -11.315zm0 23.8158l0 0 11.315 0 0 11.315 -11.315 0 0 -11.315zm0 23.8028l0 0 11.315 0 0 11.328 -11.315 0 0 -11.328zm0 23.8193l0 0 11.315 0 0 11.3126 -11.315 0 0 -11.3126zm0 23.8134l0 0 11.315 0 0 11.3055 -11.315 0 0 -11.3055zm0 23.8288l0 0 11.315 0 0 11.3055 -11.315 0 0 -11.3055zm0 23.8063l0 0 11.315 0 0 11.315 -11.315 0 0 -11.315zm0 23.8028l0 0 11.315 0 0 11.3291 -11.315 0 0 -11.3291zm0 23.8169l0 0 11.315 0 0 11.315 -11.315 0 0 -11.315zm0 23.8158l0 0 11.315 0 0 11.315 -11.315 0 0 -11.315zm0 23.8063l0 0 11.315 0 0 11.3244 -11.315 0 0 -11.3244zm11.315 23.8122l0 0 0 11.3185 -11.315 0 0 -11.3185 11.315 0zm-35.1248 -428.618l0 0 11.3126 0 0 11.302 -11.3126 0 0 -11.302zm0 23.8028l0 0 11.3126 0 0 11.315 -11.3126 0 0 -11.315zm0 23.8028l0 0 11.3126 0 0 11.3291 -11.3126 0 0 -11.3291zm0 23.8299l0 0 11.3126 0 0 11.302 -11.3126 0 0 -11.302zm0 23.8158l0 0 11.3126 0 0 11.3055 -11.3126 0 0 -11.3055zm0 23.8028l0 0 11.3126 0 0 11.3185 -11.3126 0 0 -11.3185zm0 23.8063l0 0 11.3126 0 0 11.3291 -11.3126 0 0 -11.3291zm0 23.8169l0 0 11.3126 0 0 11.315 -11.3126 0 0 -11.315zm0 23.8158l0 0 11.3126 0 0 11.315 -11.3126 0 0 -11.315zm0 23.8028l0 0 11.3126 0 0 11.328 -11.3126 0 0 -11.328zm0 23.8193l0 0 11.3126 0 0 11.3126 -11.3126 0 0 -11.3126zm0 23.8134l0 0 11.3126 0 0 11.3055 -11.3126 0 0 -11.3055zm0 23.8288l0 0 11.3126 0 0 11.3055 -11.3126 0 0 -11.3055zm0 23.8063l0 0 11.3126 0 0 11.315 -11.3126 0 0 -11.315zm0 23.8028l0 0 11.3126 0 0 11.3291 -11.3126 0 0 -11.3291zm0 23.8169l0 0 11.3126 0 0 11.315 -11.3126 0 0 -11.315zm0 23.8158l0 0 11.3126 0 0 11.315 -11.3126 0 0 -11.315zm0 23.8063l0 0 11.3126 0 0 11.3244 -11.3126 0 0 -11.3244zm11.3126 23.8122l0 0 0 11.3185 -11.3126 0 0 -11.3185 11.3126 0zm-35.1319 -452.446l0 0 11.3185 0 0 11.315 -11.3185 0 0 -11.315zm0 23.8288l0 0 11.3185 0 0 11.302 -11.3185 0 0 -11.302zm0 23.8028l0 0 11.3185 0 0 11.315 -11.3185 0 0 -11.315zm0 23.8028l0 0 11.3185 0 0 11.3291 -11.3185 0 0 -11.3291zm0 23.8299l0 0 11.3185 0 0 11.302 -11.3185 0 0 -11.302zm0 23.8158l0 0 11.3185 0 0 11.3055 -11.3185 0 0 -11.3055zm0 23.8028l0 0 11.3185 0 0 11.3185 -11.3185 0 0 -11.3185zm0 23.8063l0 0 11.3185 0 0 11.3291 -11.3185 0 0 -11.3291zm0 23.8169l0 0 11.3185 0 0 11.315 -11.3185 0 0 -11.315zm0 23.8158l0 0 11.3185 0 0 11.315 -11.3185 0 0 -11.315zm0 23.8028l0 0 11.3185 0 0 11.328 -11.3185 0 0 -11.328zm0 23.8193l0 0 11.3185 0 0 11.3126 -11.3185 0 0 -11.3126zm0 23.8134l0 0 11.3185 0 0 11.3055 -11.3185 0 0 -11.3055zm0 23.8288l0 0 11.3185 0 0 11.3055 -11.3185 0 0 -11.3055zm0 23.8063l0 0 11.3185 0 0 11.315 -11.3185 0 0 -11.315zm0 23.8028l0 0 11.3185 0 0 11.3291 -11.3185 0 0 -11.3291zm0 23.8169l0 0 11.3185 0 0 11.315 -11.3185 0 0 -11.315zm0 23.8158l0 0 11.3185 0 0 11.315 -11.3185 0 0 -11.315zm0 23.8063l0 0 11.3185 0 0 11.3244 -11.3185 0 0 -11.3244zm11.3185 23.8122l0 0 0 11.3185 -11.3185 0 0 -11.3185 11.3185 0zm-35.1272 -452.446l0 0 11.315 0 0 11.315 -11.315 0 0 -11.315zm0 23.8288l0 0 11.315 0 0 11.302 -11.315 0 0 -11.302zm0 23.8028l0 0 11.315 0 0 11.315 -11.315 0 0 -11.315zm0 23.8028l0 0 11.315 0 0 11.3291 -11.315 0 0 -11.3291zm0 23.8299l0 0 11.315 0 0 11.302 -11.315 0 0 -11.302zm0 23.8158l0 0 11.315 0 0 11.3055 -11.315 0 0 -11.3055zm0 23.8028l0 0 11.315 0 0 11.3185 -11.315 0 0 -11.3185zm0 23.8063l0 0 11.315 0 0 11.3291 -11.315 0 0 -11.3291zm0 23.8169l0 0 11.315 0 0 11.315 -11.315 0 0 -11.315zm0 23.8158l0 0 11.315 0 0 11.315 -11.315 0 0 -11.315zm0 23.8028l0 0 11.315 0 0 11.328 -11.315 0 0 -11.328zm0 23.8193l0 0 11.315 0 0 11.3126 -11.315 0 0 -11.3126zm0 23.8134l0 0 11.315 0 0 11.3055 -11.315 0 0 -11.3055zm0 23.8288l0 0 11.315 0 0 11.3055 -11.315 0 0 -11.3055zm0 23.8063l0 0 11.315 0 0 11.315 -11.315 0 0 -11.315zm0 23.8028l0 0 11.315 0 0 11.3291 -11.315 0 0 -11.3291zm0 23.8169l0 0 11.315 0 0 11.315 -11.315 0 0 -11.315zm0 23.8158l0 0 11.315 0 0 11.315 -11.315 0 0 -11.315zm0 23.8063l0 0 11.315 0 0 11.3244 -11.315 0 0 -11.3244zm11.315 23.8122l0 0 0 11.3185 -11.315 0 0 -11.3185 11.315 0zm-35.1319 -476.263l0 0 11.3221 0 0 11.3291 -11.3221 0 0 -11.3291zm0 23.8169l0 0 11.3221 0 0 11.315 -11.3221 0 0 -11.315zm0 23.8288l0 0 11.3221 0 0 11.302 -11.3221 0 0 -11.302zm0 23.8028l0 0 11.3221 0 0 11.315 -11.3221 0 0 -11.315zm0 23.8028l0 0 11.3221 0 0 11.3291 -11.3221 0 0 -11.3291zm0 23.8299l0 0 11.3221 0 0 11.302 -11.3221 0 0 -11.302zm0 23.8158l0 0 11.3221 0 0 11.3055 -11.3221 0 0 -11.3055zm0 23.8028l0 0 11.3221 0 0 11.3185 -11.3221 0 0 -11.3185zm0 23.8063l0 0 11.3221 0 0 11.3291 -11.3221 0 0 -11.3291zm0 23.8169l0 0 11.3221 0 0 11.315 -11.3221 0 0 -11.315zm0 23.8158l0 0 11.3221 0 0 11.315 -11.3221 0 0 -11.315zm0 23.8028l0 0 11.3221 0 0 11.328 -11.3221 0 0 -11.328zm0 23.8193l0 0 11.3221 0 0 11.3126 -11.3221 0 0 -11.3126zm0 23.8134l0 0 11.3221 0 0 11.3055 -11.3221 0 0 -11.3055zm0 23.8288l0 0 11.3221 0 0 11.3055 -11.3221 0 0 -11.3055zm0 23.8063l0 0 11.3221 0 0 11.315 -11.3221 0 0 -11.315zm0 23.8028l0 0 11.3221 0 0 11.3291 -11.3221 0 0 -11.3291zm0 23.8169l0 0 11.3221 0 0 11.315 -11.3221 0 0 -11.315zm0 23.8158l0 0 11.3221 0 0 11.315 -11.3221 0 0 -11.315zm0 23.8063l0 0 11.3221 0 0 11.3244 -11.3221 0 0 -11.3244zm11.3221 23.8122l0 0 0 11.3185 -11.3221 0 0 -11.3185 11.3221 0zm-35.1319 -476.263l0 0 11.3162 0 0 11.3291 -11.3162 0 0 -11.3291zm0 23.8169l0 0 11.3162 0 0 11.315 -11.3162 0 0 -11.315zm0 23.8288l0 0 11.3162 0 0 11.302 -11.3162 0 0 -11.302zm0 23.8028l0 0 11.3162 0 0 11.315 -11.3162 0 0 -11.315zm0 23.8028l0 0 11.3162 0 0 11.3291 -11.3162 0 0 -11.3291zm0 23.8299l0 0 11.3162 0 0 11.302 -11.3162 0 0 -11.302zm0 23.8158l0 0 11.3162 0 0 11.3055 -11.3162 0 0 -11.3055zm0 23.8028l0 0 11.3162 0 0 11.3185 -11.3162 0 0 -11.3185zm0 23.8063l0 0 11.3162 0 0 11.3291 -11.3162 0 0 -11.3291zm0 23.8169l0 0 11.3162 0 0 11.315 -11.3162 0 0 -11.315zm0 23.8158l0 0 11.3162 0 0 11.315 -11.3162 0 0 -11.315zm0 23.8028l0 0 11.3162 0 0 11.328 -11.3162 0 0 -11.328zm0 23.8193l0 0 11.3162 0 0 11.3126 -11.3162 0 0 -11.3126zm0 23.8134l0 0 11.3162 0 0 11.3055 -11.3162 0 0 -11.3055zm0 23.8288l0 0 11.3162 0 0 11.3055 -11.3162 0 0 -11.3055zm0 23.8063l0 0 11.3162 0 0 11.315 -11.3162 0 0 -11.315zm0 23.8028l0 0 11.3162 0 0 11.3291 -11.3162 0 0 -11.3291zm0 23.8169l0 0 11.3162 0 0 11.315 -11.3162 0 0 -11.315zm0 23.8158l0 0 11.3162 0 0 11.315 -11.3162 0 0 -11.315zm0 23.8063l0 0 11.3162 0 0 11.3244 -11.3162 0 0 -11.3244zm11.3162 23.8122l0 0 0 11.3185 -11.3162 0 0 -11.3185 11.3162 0zm-35.1248 -476.263l0 0 11.3079 0 0 11.3291 -11.3079 0 0 -11.3291zm0 23.8169l0 0 11.3079 0 0 11.315 -11.3079 0 0 -11.315zm0 23.8288l0 0 11.3079 0 0 11.302 -11.3079 0 0 -11.302zm0 23.8028l0 0 11.3079 0 0 11.315 -11.3079 0 0 -11.315zm0 23.8028l0 0 11.3079 0 0 11.3291 -11.3079 0 0 -11.3291zm0 23.8299l0 0 11.3079 0 0 11.302 -11.3079 0 0 -11.302zm0 23.8158l0 0 11.3079 0 0 11.3055 -11.3079 0 0 -11.3055zm0 23.8028l0 0 11.3079 0 0 11.3185 -11.3079 0 0 -11.3185zm0 23.8063l0 0 11.3079 0 0 11.3291 -11.3079 0 0 -11.3291zm0 23.8169l0 0 11.3079 0 0 11.315 -11.3079 0 0 -11.315zm0 23.8158l0 0 11.3079 0 0 11.315 -11.3079 0 0 -11.315zm0 23.8028l0 0 11.3079 0 0 11.328 -11.3079 0 0 -11.328zm0 23.8193l0 0 11.3079 0 0 11.3126 -11.3079 0 0 -11.3126zm0 23.8134l0 0 11.3079 0 0 11.3055 -11.3079 0 0 -11.3055zm0 23.8288l0 0 11.3079 0 0 11.3055 -11.3079 0 0 -11.3055zm0 23.8063l0 0 11.3079 0 0 11.315 -11.3079 0 0 -11.315zm0 23.8028l0 0 11.3079 0 0 11.3291 -11.3079 0 0 -11.3291zm0 23.8169l0 0 11.3079 0 0 11.315 -11.3079 0 0 -11.315zm0 23.8158l0 0 11.3079 0 0 11.315 -11.3079 0 0 -11.315zm0 23.8063l0 0 11.3079 0 0 11.3244 -11.3079 0 0 -11.3244zm11.3079 23.8122l0 0 0 11.3185 -11.3079 0 0 -11.3185 11.3079 0zm-35.1272 -500.066l0 0 11.3185 0 0 11.3256 -11.3185 0 0 -11.3256zm0 23.8028l0 0 11.3185 0 0 11.3291 -11.3185 0 0 -11.3291zm0 23.8169l0 0 11.3185 0 0 11.315 -11.3185 0 0 -11.315zm0 23.8288l0 0 11.3185 0 0 11.302 -11.3185 0 0 -11.302zm0 23.8028l0 0 11.3185 0 0 11.315 -11.3185 0 0 -11.315zm0 23.8028l0 0 11.3185 0 0 11.3291 -11.3185 0 0 -11.3291zm0 23.8299l0 0 11.3185 0 0 11.302 -11.3185 0 0 -11.302zm0 23.8158l0 0 11.3185 0 0 11.3055 -11.3185 0 0 -11.3055zm0 23.8028l0 0 11.3185 0 0 11.3185 -11.3185 0 0 -11.3185zm0 23.8063l0 0 11.3185 0 0 11.3291 -11.3185 0 0 -11.3291zm0 23.8169l0 0 11.3185 0 0 11.315 -11.3185 0 0 -11.315zm0 23.8158l0 0 11.3185 0 0 11.315 -11.3185 0 0 -11.315zm0 23.8028l0 0 11.3185 0 0 11.328 -11.3185 0 0 -11.328zm0 23.8193l0 0 11.3185 0 0 11.3126 -11.3185 0 0 -11.3126zm0 23.8134l0 0 11.3185 0 0 11.3055 -11.3185 0 0 -11.3055zm0 23.8288l0 0 11.3185 0 0 11.3055 -11.3185 0 0 -11.3055zm0 23.8063l0 0 11.3185 0 0 11.315 -11.3185 0 0 -11.315zm0 23.8028l0 0 11.3185 0 0 11.3291 -11.3185 0 0 -11.3291zm0 23.8169l0 0 11.3185 0 0 11.315 -11.3185 0 0 -11.315zm0 23.8158l0 0 11.3185 0 0 11.315 -11.3185 0 0 -11.315zm0 23.8063l0 0 11.3185 0 0 11.3244 -11.3185 0 0 -11.3244zm11.3185 23.8122l0 0 0 11.3185 -11.3185 0 0 -11.3185 11.3185 0zm-35.1355 -500.066l0 0 11.3221 0 0 11.3256 -11.3221 0 0 -11.3256zm0 23.8028l0 0 11.3221 0 0 11.3291 -11.3221 0 0 -11.3291zm0 23.8169l0 0 11.3221 0 0 11.315 -11.3221 0 0 -11.315zm0 23.8288l0 0 11.3221 0 0 11.302 -11.3221 0 0 -11.302zm0 23.8028l0 0 11.3221 0 0 11.315 -11.3221 0 0 -11.315zm0 23.8028l0 0 11.3221 0 0 11.3291 -11.3221 0 0 -11.3291zm0 23.8299l0 0 11.3221 0 0 11.302 -11.3221 0 0 -11.302zm0 23.8158l0 0 11.3221 0 0 11.3055 -11.3221 0 0 -11.3055zm0 23.8028l0 0 11.3221 0 0 11.3185 -11.3221 0 0 -11.3185zm0 23.8063l0 0 11.3221 0 0 11.3291 -11.3221 0 0 -11.3291zm0 23.8169l0 0 11.3221 0 0 11.315 -11.3221 0 0 -11.315zm0 23.8158l0 0 11.3221 0 0 11.315 -11.3221 0 0 -11.315zm0 23.8028l0 0 11.3221 0 0 11.328 -11.3221 0 0 -11.328zm0 23.8193l0 0 11.3221 0 0 11.3126 -11.3221 0 0 -11.3126zm0 23.8134l0 0 11.3221 0 0 11.3055 -11.3221 0 0 -11.3055zm0 23.8288l0 0 11.3221 0 0 11.3055 -11.3221 0 0 -11.3055zm0 23.8063l0 0 11.3221 0 0 11.315 -11.3221 0 0 -11.315zm0 23.8028l0 0 11.3221 0 0 11.3291 -11.3221 0 0 -11.3291zm0 23.8169l0 0 11.3221 0 0 11.315 -11.3221 0 0 -11.315zm0 23.8158l0 0 11.3221 0 0 11.315 -11.3221 0 0 -11.315zm0 23.8063l0 0 11.3221 0 0 11.3244 -11.3221 0 0 -11.3244zm11.3221 23.8122l0 0 0 11.3185 -11.3221 0 0 -11.3185 11.3221 0zm-35.1307 -500.066l0 0 11.315 0 0 11.3256 -11.315 0 0 -11.3256zm0 23.8028l0 0 11.315 0 0 11.3291 -11.315 0 0 -11.3291zm0 23.8169l0 0 11.315 0 0 11.315 -11.315 0 0 -11.315zm0 23.8288l0 0 11.315 0 0 11.302 -11.315 0 0 -11.302zm0 23.8028l0 0 11.315 0 0 11.315 -11.315 0 0 -11.315zm0 23.8028l0 0 11.315 0 0 11.3291 -11.315 0 0 -11.3291zm0 23.8299l0 0 11.315 0 0 11.302 -11.315 0 0 -11.302zm0 23.8158l0 0 11.315 0 0 11.3055 -11.315 0 0 -11.3055zm0 23.8028l0 0 11.315 0 0 11.3185 -11.315 0 0 -11.3185zm0 23.8063l0 0 11.315 0 0 11.3291 -11.315 0 0 -11.3291zm0 23.8169l0 0 11.315 0 0 11.315 -11.315 0 0 -11.315zm0 23.8158l0 0 11.315 0 0 11.315 -11.315 0 0 -11.315zm0 23.8028l0 0 11.315 0 0 11.328 -11.315 0 0 -11.328zm0 23.8193l0 0 11.315 0 0 11.3126 -11.315 0 0 -11.3126zm0 23.8134l0 0 11.315 0 0 11.3055 -11.315 0 0 -11.3055zm0 23.8288l0 0 11.315 0 0 11.3055 -11.315 0 0 -11.3055zm0 23.8063l0 0 11.315 0 0 11.315 -11.315 0 0 -11.315zm0 23.8028l0 0 11.315 0 0 11.3291 -11.315 0 0 -11.3291zm0 23.8169l0 0 11.315 0 0 11.315 -11.315 0 0 -11.315zm0 23.8158l0 0 11.315 0 0 11.315 -11.315 0 0 -11.315zm0 23.8063l0 0 11.315 0 0 11.3244 -11.315 0 0 -11.3244zm11.315 23.8122l0 0 0 11.3185 -11.315 0 0 -11.3185 11.315 0zm-35.1248 -500.066l0 0 11.315 0 0 11.3256 -11.315 0 0 -11.3256zm0 23.8028l0 0 11.315 0 0 11.3291 -11.315 0 0 -11.3291zm0 23.8169l0 0 11.315 0 0 11.315 -11.315 0 0 -11.315zm0 23.8288l0 0 11.315 0 0 11.302 -11.315 0 0 -11.302zm0 23.8028l0 0 11.315 0 0 11.315 -11.315 0 0 -11.315zm0 23.8028l0 0 11.315 0 0 11.3291 -11.315 0 0 -11.3291zm0 23.8299l0 0 11.315 0 0 11.302 -11.315 0 0 -11.302zm0 23.8158l0 0 11.315 0 0 11.3055 -11.315 0 0 -11.3055zm0 23.8028l0 0 11.315 0 0 11.3185 -11.315 0 0 -11.3185zm0 23.8063l0 0 11.315 0 0 11.3291 -11.315 0 0 -11.3291zm0 23.8169l0 0 11.315 0 0 11.315 -11.315 0 0 -11.315zm0 23.8158l0 0 11.315 0 0 11.315 -11.315 0 0 -11.315zm0 23.8028l0 0 11.315 0 0 11.328 -11.315 0 0 -11.328zm0 23.8193l0 0 11.315 0 0 11.3126 -11.315 0 0 -11.3126zm0 23.8134l0 0 11.315 0 0 11.3055 -11.315 0 0 -11.3055zm0 23.8288l0 0 11.315 0 0 11.3055 -11.315 0 0 -11.3055zm0 23.8063l0 0 11.315 0 0 11.315 -11.315 0 0 -11.315zm0 23.8028l0 0 11.315 0 0 11.3291 -11.315 0 0 -11.3291zm0 23.8169l0 0 11.315 0 0 11.315 -11.315 0 0 -11.315zm0 23.8158l0 0 11.315 0 0 11.315 -11.315 0 0 -11.315zm0 23.8063l0 0 11.315 0 0 11.3244 -11.315 0 0 -11.3244zm11.315 23.8122l0 0 0 11.3185 -11.315 0 0 -11.3185 11.315 0zm-35.1319 -500.066l0 0 11.3162 0 0 11.3256 -11.3162 0 0 -11.3256zm0 23.8028l0 0 11.3162 0 0 11.3291 -11.3162 0 0 -11.3291zm0 23.8169l0 0 11.3162 0 0 11.315 -11.3162 0 0 -11.315zm0 23.8288l0 0 11.3162 0 0 11.302 -11.3162 0 0 -11.302zm0 23.8028l0 0 11.3162 0 0 11.315 -11.3162 0 0 -11.315zm0 23.8028l0 0 11.3162 0 0 11.3291 -11.3162 0 0 -11.3291zm0 23.8299l0 0 11.3162 0 0 11.302 -11.3162 0 0 -11.302zm0 23.8158l0 0 11.3162 0 0 11.3055 -11.3162 0 0 -11.3055zm0 23.8028l0 0 11.3162 0 0 11.3185 -11.3162 0 0 -11.3185zm0 23.8063l0 0 11.3162 0 0 11.3291 -11.3162 0 0 -11.3291zm0 23.8169l0 0 11.3162 0 0 11.315 -11.3162 0 0 -11.315zm0 23.8158l0 0 11.3162 0 0 11.315 -11.3162 0 0 -11.315zm0 23.8028l0 0 11.3162 0 0 11.328 -11.3162 0 0 -11.328zm0 23.8193l0 0 11.3162 0 0 11.3126 -11.3162 0 0 -11.3126zm0 23.8134l0 0 11.3162 0 0 11.3055 -11.3162 0 0 -11.3055zm0 23.8288l0 0 11.3162 0 0 11.3055 -11.3162 0 0 -11.3055zm0 23.8063l0 0 11.3162 0 0 11.315 -11.3162 0 0 -11.315zm0 23.8028l0 0 11.3162 0 0 11.3291 -11.3162 0 0 -11.3291zm0 23.8169l0 0 11.3162 0 0 11.315 -11.3162 0 0 -11.315zm0 23.8158l0 0 11.3162 0 0 11.315 -11.3162 0 0 -11.315zm0 23.8063l0 0 11.3162 0 0 11.3244 -11.3162 0 0 -11.3244zm11.3162 23.8122l0 0 0 11.3185 -11.3162 0 0 -11.3185 11.3162 0zm-35.1248 -500.066l0 0 11.315 0 0 11.3256 -11.315 0 0 -11.3256zm0 23.8028l0 0 11.315 0 0 11.3291 -11.315 0 0 -11.3291zm0 23.8169l0 0 11.315 0 0 11.315 -11.315 0 0 -11.315zm0 23.8288l0 0 11.315 0 0 11.302 -11.315 0 0 -11.302zm0 23.8028l0 0 11.315 0 0 11.315 -11.315 0 0 -11.315zm0 23.8028l0 0 11.315 0 0 11.3291 -11.315 0 0 -11.3291zm0 23.8299l0 0 11.315 0 0 11.302 -11.315 0 0 -11.302zm0 23.8158l0 0 11.315 0 0 11.3055 -11.315 0 0 -11.3055zm0 23.8028l0 0 11.315 0 0 11.3185 -11.315 0 0 -11.3185zm0 23.8063l0 0 11.315 0 0 11.3291 -11.315 0 0 -11.3291zm0 23.8169l0 0 11.315 0 0 11.315 -11.315 0 0 -11.315zm0 23.8158l0 0 11.315 0 0 11.315 -11.315 0 0 -11.315zm0 23.8028l0 0 11.315 0 0 11.328 -11.315 0 0 -11.328zm0 23.8193l0 0 11.315 0 0 11.3126 -11.315 0 0 -11.3126zm0 23.8134l0 0 11.315 0 0 11.3055 -11.315 0 0 -11.3055zm0 23.8288l0 0 11.315 0 0 11.3055 -11.315 0 0 -11.3055zm0 23.8063l0 0 11.315 0 0 11.315 -11.315 0 0 -11.315zm0 23.8028l0 0 11.315 0 0 11.3291 -11.315 0 0 -11.3291zm0 23.8169l0 0 11.315 0 0 11.315 -11.315 0 0 -11.315zm0 23.8158l0 0 11.315 0 0 11.315 -11.315 0 0 -11.315zm0 23.8063l0 0 11.315 0 0 11.3244 -11.315 0 0 -11.3244zm11.315 23.8122l0 0 0 11.3185 -11.315 0 0 -11.3185 11.315 0zm-35.1343 -476.263l0 0 11.3209 0 0 11.3291 -11.3209 0 0 -11.3291zm0 23.8169l0 0 11.3209 0 0 11.315 -11.3209 0 0 -11.315zm0 23.8288l0 0 11.3209 0 0 11.302 -11.3209 0 0 -11.302zm0 23.8028l0 0 11.3209 0 0 11.315 -11.3209 0 0 -11.315zm0 23.8028l0 0 11.3209 0 0 11.3291 -11.3209 0 0 -11.3291zm0 23.8299l0 0 11.3209 0 0 11.302 -11.3209 0 0 -11.302zm0 23.8158l0 0 11.3209 0 0 11.3055 -11.3209 0 0 -11.3055zm0 23.8028l0 0 11.3209 0 0 11.3185 -11.3209 0 0 -11.3185zm0 23.8063l0 0 11.3209 0 0 11.3291 -11.3209 0 0 -11.3291zm0 23.8169l0 0 11.3209 0 0 11.315 -11.3209 0 0 -11.315zm0 23.8158l0 0 11.3209 0 0 11.315 -11.3209 0 0 -11.315zm0 23.8028l0 0 11.3209 0 0 11.328 -11.3209 0 0 -11.328zm0 23.8193l0 0 11.3209 0 0 11.3126 -11.3209 0 0 -11.3126zm0 23.8134l0 0 11.3209 0 0 11.3055 -11.3209 0 0 -11.3055zm0 23.8288l0 0 11.3209 0 0 11.3055 -11.3209 0 0 -11.3055zm0 23.8063l0 0 11.3209 0 0 11.315 -11.3209 0 0 -11.315zm0 23.8028l0 0 11.3209 0 0 11.3291 -11.3209 0 0 -11.3291zm0 23.8169l0 0 11.3209 0 0 11.315 -11.3209 0 0 -11.315zm0 23.8158l0 0 11.3209 0 0 11.315 -11.3209 0 0 -11.315zm0 23.8063l0 0 11.3209 0 0 11.3244 -11.3209 0 0 -11.3244zm11.3209 23.8122l0 0 0 11.3185 -11.3209 0 0 -11.3185 11.3209 0zm-35.1307 -476.263l0 0 11.3185 0 0 11.3291 -11.3185 0 0 -11.3291zm0 23.8169l0 0 11.3185 0 0 11.315 -11.3185 0 0 -11.315zm0 23.8288l0 0 11.3185 0 0 11.302 -11.3185 0 0 -11.302zm0 23.8028l0 0 11.3185 0 0 11.315 -11.3185 0 0 -11.315zm0 23.8028l0 0 11.3185 0 0 11.3291 -11.3185 0 0 -11.3291zm0 23.8299l0 0 11.3185 0 0 11.302 -11.3185 0 0 -11.302zm0 23.8158l0 0 11.3185 0 0 11.3055 -11.3185 0 0 -11.3055zm0 23.8028l0 0 11.3185 0 0 11.3185 -11.3185 0 0 -11.3185zm0 23.8063l0 0 11.3185 0 0 11.3291 -11.3185 0 0 -11.3291zm0 23.8169l0 0 11.3185 0 0 11.315 -11.3185 0 0 -11.315zm0 23.8158l0 0 11.3185 0 0 11.315 -11.3185 0 0 -11.315zm0 23.8028l0 0 11.3185 0 0 11.328 -11.3185 0 0 -11.328zm0 23.8193l0 0 11.3185 0 0 11.3126 -11.3185 0 0 -11.3126zm0 23.8134l0 0 11.3185 0 0 11.3055 -11.3185 0 0 -11.3055zm0 23.8288l0 0 11.3185 0 0 11.3055 -11.3185 0 0 -11.3055zm0 23.8063l0 0 11.3185 0 0 11.315 -11.3185 0 0 -11.315zm0 23.8028l0 0 11.3185 0 0 11.3291 -11.3185 0 0 -11.3291zm0 23.8169l0 0 11.3185 0 0 11.315 -11.3185 0 0 -11.315zm0 23.8158l0 0 11.3185 0 0 11.315 -11.3185 0 0 -11.315zm0 23.8063l0 0 11.3185 0 0 11.3244 -11.3185 0 0 -11.3244zm11.3185 23.8122l0 0 0 11.3185 -11.3185 0 0 -11.3185 11.3185 0zm-35.1284 -476.263l0 0 11.3091 0 0 11.3291 -11.3091 0 0 -11.3291zm0 23.8169l0 0 11.3091 0 0 11.315 -11.3091 0 0 -11.315zm0 23.8288l0 0 11.3091 0 0 11.302 -11.3091 0 0 -11.302zm0 23.8028l0 0 11.3091 0 0 11.315 -11.3091 0 0 -11.315zm0 23.8028l0 0 11.3091 0 0 11.3291 -11.3091 0 0 -11.3291zm0 23.8299l0 0 11.3091 0 0 11.302 -11.3091 0 0 -11.302zm0 23.8158l0 0 11.3091 0 0 11.3055 -11.3091 0 0 -11.3055zm0 23.8028l0 0 11.3091 0 0 11.3185 -11.3091 0 0 -11.3185zm0 23.8063l0 0 11.3091 0 0 11.3291 -11.3091 0 0 -11.3291zm0 23.8169l0 0 11.3091 0 0 11.315 -11.3091 0 0 -11.315zm0 23.8158l0 0 11.3091 0 0 11.315 -11.3091 0 0 -11.315zm0 23.8028l0 0 11.3091 0 0 11.328 -11.3091 0 0 -11.328zm0 23.8193l0 0 11.3091 0 0 11.3126 -11.3091 0 0 -11.3126zm0 23.8134l0 0 11.3091 0 0 11.3055 -11.3091 0 0 -11.3055zm0 23.8288l0 0 11.3091 0 0 11.3055 -11.3091 0 0 -11.3055zm0 23.8063l0 0 11.3091 0 0 11.315 -11.3091 0 0 -11.315zm0 23.8028l0 0 11.3091 0 0 11.3291 -11.3091 0 0 -11.3291zm0 23.8169l0 0 11.3091 0 0 11.315 -11.3091 0 0 -11.315zm0 23.8158l0 0 11.3091 0 0 11.315 -11.3091 0 0 -11.315zm0 23.8063l0 0 11.3091 0 0 11.3244 -11.3091 0 0 -11.3244zm11.3091 23.8122l0 0 0 11.3185 -11.3091 0 0 -11.3185 11.3091 0zm-35.1248 -452.446l0 0 11.315 0 0 11.315 -11.315 0 0 -11.315zm0 23.8288l0 0 11.315 0 0 11.302 -11.315 0 0 -11.302zm0 23.8028l0 0 11.315 0 0 11.315 -11.315 0 0 -11.315zm0 23.8028l0 0 11.315 0 0 11.3291 -11.315 0 0 -11.3291zm0 23.8299l0 0 11.315 0 0 11.302 -11.315 0 0 -11.302zm0 23.8158l0 0 11.315 0 0 11.3055 -11.315 0 0 -11.3055zm0 23.8028l0 0 11.315 0 0 11.3185 -11.315 0 0 -11.3185zm0 23.8063l0 0 11.315 0 0 11.3291 -11.315 0 0 -11.3291zm0 23.8169l0 0 11.315 0 0 11.315 -11.315 0 0 -11.315zm0 23.8158l0 0 11.315 0 0 11.315 -11.315 0 0 -11.315zm0 23.8028l0 0 11.315 0 0 11.328 -11.315 0 0 -11.328zm0 23.8193l0 0 11.315 0 0 11.3126 -11.315 0 0 -11.3126zm0 23.8134l0 0 11.315 0 0 11.3055 -11.315 0 0 -11.3055zm0 23.8288l0 0 11.315 0 0 11.3055 -11.315 0 0 -11.3055zm0 23.8063l0 0 11.315 0 0 11.315 -11.315 0 0 -11.315zm0 23.8028l0 0 11.315 0 0 11.3291 -11.315 0 0 -11.3291zm0 23.8169l0 0 11.315 0 0 11.315 -11.315 0 0 -11.315zm0 23.8158l0 0 11.315 0 0 11.315 -11.315 0 0 -11.315zm0 23.8063l0 0 11.315 0 0 11.3244 -11.315 0 0 -11.3244zm11.315 23.8122l0 0 0 11.3185 -11.315 0 0 -11.3185 11.315 0zm-35.1319 -452.446l0 0 11.3221 0 0 11.315 -11.3221 0 0 -11.315zm0 23.8288l0 0 11.3221 0 0 11.302 -11.3221 0 0 -11.302zm0 23.8028l0 0 11.3221 0 0 11.315 -11.3221 0 0 -11.315zm0 23.8028l0 0 11.3221 0 0 11.3291 -11.3221 0 0 -11.3291zm0 23.8299l0 0 11.3221 0 0 11.302 -11.3221 0 0 -11.302zm0 23.8158l0 0 11.3221 0 0 11.3055 -11.3221 0 0 -11.3055zm0 23.8028l0 0 11.3221 0 0 11.3185 -11.3221 0 0 -11.3185zm0 23.8063l0 0 11.3221 0 0 11.3291 -11.3221 0 0 -11.3291zm0 23.8169l0 0 11.3221 0 0 11.315 -11.3221 0 0 -11.315zm0 23.8158l0 0 11.3221 0 0 11.315 -11.3221 0 0 -11.315zm0 23.8028l0 0 11.3221 0 0 11.328 -11.3221 0 0 -11.328zm0 23.8193l0 0 11.3221 0 0 11.3126 -11.3221 0 0 -11.3126zm0 23.8134l0 0 11.3221 0 0 11.3055 -11.3221 0 0 -11.3055zm0 23.8288l0 0 11.3221 0 0 11.3055 -11.3221 0 0 -11.3055zm0 23.8063l0 0 11.3221 0 0 11.315 -11.3221 0 0 -11.315zm0 23.8028l0 0 11.3221 0 0 11.3291 -11.3221 0 0 -11.3291zm0 23.8169l0 0 11.3221 0 0 11.315 -11.3221 0 0 -11.315zm0 23.8158l0 0 11.3221 0 0 11.315 -11.3221 0 0 -11.315zm0 23.8063l0 0 11.3221 0 0 11.3244 -11.3221 0 0 -11.3244zm11.3221 23.8122l0 0 0 11.3185 -11.3221 0 0 -11.3185 11.3221 0zm-35.1307 -428.618l0 0 11.315 0 0 11.302 -11.315 0 0 -11.302zm0 23.8028l0 0 11.315 0 0 11.315 -11.315 0 0 -11.315zm0 23.8028l0 0 11.315 0 0 11.3291 -11.315 0 0 -11.3291zm0 23.8299l0 0 11.315 0 0 11.302 -11.315 0 0 -11.302zm0 23.8158l0 0 11.315 0 0 11.3055 -11.315 0 0 -11.3055zm0 23.8028l0 0 11.315 0 0 11.3185 -11.315 0 0 -11.3185zm0 23.8063l0 0 11.315 0 0 11.3291 -11.315 0 0 -11.3291zm0 23.8169l0 0 11.315 0 0 11.315 -11.315 0 0 -11.315zm0 23.8158l0 0 11.315 0 0 11.315 -11.315 0 0 -11.315zm0 23.8028l0 0 11.315 0 0 11.328 -11.315 0 0 -11.328zm0 23.8193l0 0 11.315 0 0 11.3126 -11.315 0 0 -11.3126zm0 23.8134l0 0 11.315 0 0 11.3055 -11.315 0 0 -11.3055zm0 23.8288l0 0 11.315 0 0 11.3055 -11.315 0 0 -11.3055zm0 23.8063l0 0 11.315 0 0 11.315 -11.315 0 0 -11.315zm0 23.8028l0 0 11.315 0 0 11.3291 -11.315 0 0 -11.3291zm0 23.8169l0 0 11.315 0 0 11.315 -11.315 0 0 -11.315zm0 23.8158l0 0 11.315 0 0 11.315 -11.315 0 0 -11.315zm0 23.8063l0 0 11.315 0 0 11.3244 -11.315 0 0 -11.3244zm11.315 23.8122l0 0 0 11.3185 -11.315 0 0 -11.3185 11.315 0zm-35.1248 -404.815l0 0 11.315 0 0 11.315 -11.315 0 0 -11.315zm0 23.8028l0 0 11.315 0 0 11.3291 -11.315 0 0 -11.3291zm0 23.8299l0 0 11.315 0 0 11.302 -11.315 0 0 -11.302zm0 23.8158l0 0 11.315 0 0 11.3055 -11.315 0 0 -11.3055zm0 23.8028l0 0 11.315 0 0 11.3185 -11.315 0 0 -11.3185zm0 23.8063l0 0 11.315 0 0 11.3291 -11.315 0 0 -11.3291zm0 23.8169l0 0 11.315 0 0 11.315 -11.315 0 0 -11.315zm0 23.8158l0 0 11.315 0 0 11.315 -11.315 0 0 -11.315zm0 23.8028l0 0 11.315 0 0 11.328 -11.315 0 0 -11.328zm0 23.8193l0 0 11.315 0 0 11.3126 -11.315 0 0 -11.3126zm0 23.8134l0 0 11.315 0 0 11.3055 -11.315 0 0 -11.3055zm0 23.8288l0 0 11.315 0 0 11.3055 -11.315 0 0 -11.3055zm0 23.8063l0 0 11.315 0 0 11.315 -11.315 0 0 -11.315zm0 23.8028l0 0 11.315 0 0 11.3291 -11.315 0 0 -11.3291zm0 23.8169l0 0 11.315 0 0 11.315 -11.315 0 0 -11.315zm0 23.8158l0 0 11.315 0 0 11.315 -11.315 0 0 -11.315zm0 23.8063l0 0 11.315 0 0 11.3244 -11.315 0 0 -11.3244zm11.315 23.8122l0 0 0 11.3185 -11.315 0 0 -11.3185 11.315 0zm-35.1343 -381.012l0 0 11.3185 0 0 11.3291 -11.3185 0 0 -11.3291zm0 23.8299l0 0 11.3185 0 0 11.302 -11.3185 0 0 -11.302zm0 23.8158l0 0 11.3185 0 0 11.3055 -11.3185 0 0 -11.3055zm0 23.8028l0 0 11.3185 0 0 11.3185 -11.3185 0 0 -11.3185zm0 23.8063l0 0 11.3185 0 0 11.3291 -11.3185 0 0 -11.3291zm0 23.8169l0 0 11.3185 0 0 11.315 -11.3185 0 0 -11.315zm0 23.8158l0 0 11.3185 0 0 11.315 -11.3185 0 0 -11.315zm0 23.8028l0 0 11.3185 0 0 11.328 -11.3185 0 0 -11.328zm0 23.8193l0 0 11.3185 0 0 11.3126 -11.3185 0 0 -11.3126zm0 23.8134l0 0 11.3185 0 0 11.3055 -11.3185 0 0 -11.3055zm0 23.8288l0 0 11.3185 0 0 11.3055 -11.3185 0 0 -11.3055zm0 23.8063l0 0 11.3185 0 0 11.315 -11.3185 0 0 -11.315zm0 23.8028l0 0 11.3185 0 0 11.3291 -11.3185 0 0 -11.3291zm0 23.8169l0 0 11.3185 0 0 11.315 -11.3185 0 0 -11.315zm0 23.8158l0 0 11.3185 0 0 11.315 -11.3185 0 0 -11.315zm0 23.8063l0 0 11.3185 0 0 11.3244 -11.3185 0 0 -11.3244zm-23.8099 -309.554l0 0 11.3185 0 0 11.3055 -11.3185 0 0 -11.3055zm0 23.8028l0 0 11.3185 0 0 11.3185 -11.3185 0 0 -11.3185zm0 23.8063l0 0 11.3185 0 0 11.3291 -11.3185 0 0 -11.3291zm0 23.8169l0 0 11.3185 0 0 11.315 -11.3185 0 0 -11.315zm0 23.8158l0 0 11.3185 0 0 11.315 -11.3185 0 0 -11.315zm0 23.8028l0 0 11.3185 0 0 11.328 -11.3185 0 0 -11.328zm0 23.8193l0 0 11.3185 0 0 11.3126 -11.3185 0 0 -11.3126zm0 23.8134l0 0 11.3185 0 0 11.3055 -11.3185 0 0 -11.3055zm0 23.8288l0 0 11.3185 0 0 11.3055 -11.3185 0 0 -11.3055zm0 23.8063l0 0 11.3185 0 0 11.315 -11.3185 0 0 -11.315zm0 23.8028l0 0 11.3185 0 0 11.3291 -11.3185 0 0 -11.3291zm0 23.8169l0 0 11.3185 0 0 11.315 -11.3185 0 0 -11.315zm-23.8158 -190.506l0 0 11.3221 0 0 11.315 -11.3221 0 0 -11.315zm0 23.8158l0 0 11.3221 0 0 11.315 -11.3221 0 0 -11.315zm0 23.8028l0 0 11.3221 0 0 11.328 -11.3221 0 0 -11.328zm0 23.8193l0 0 11.3221 0 0 11.3126 -11.3221 0 0 -11.3126zm0 23.8134l0 0 11.3221 0 0 11.3055 -11.3221 0 0 -11.3055zm0 23.8288l0 0 11.3221 0 0 11.3055 -11.3221 0 0 -11.3055zm238.135 249.431l0 0 0 -11.3162 11.315 0 0 11.3162 -11.315 0zm23.8087 0l0 0 0 -11.3162 11.3162 0 0 11.3162 -11.3162 0zm23.8169 0l0 0 0 -11.3162 11.315 0 0 11.3162 -11.315 0zm23.8099 0l0 0 0 -11.3162 11.315 0 0 11.3162 -11.315 0zm23.8087 0l0 0 0 -11.3162 11.3221 0 0 11.3162 -11.3221 0z"/>
  <rect class="fil13" transform="matrix(0.17716 -1.03043 2.06086 0.354319 723.338 541.377)" width="18.8197" height="211.451" rx="9.45709" ry="9.45709"/>
  <rect class="fil13" transform="matrix(0.106291 -0.618232 2.06086 0.354319 622.033 519.966)" width="18.8197" height="211.451" rx="5.67402" ry="5.67402"/>
  <rect class="fil4" transform="matrix(0.354319 -2.06086 2.06086 0.354319 976.301 594.851)" width="18.8197" height="211.451" rx="18.9142" ry="18.9142"/>
  <circle class="fil14" transform="matrix(0.985185 -5.73043 5.73036 0.985245 628.585 515.102)" r="2.6941"/>
  <path class="fil5" d="M1403.36 622.888l0 0c17.4508,0 31.728,14.2772 31.728,31.728l0 30.6319 -63.456 0 0 -30.6319c0,-17.4508 14.2772,-31.728 31.728,-31.728z"/>
  <circle class="fil15" cx="1403.36" cy="650.162" r="12.8268"/>
 </g>
</svg>
