<?xml version="1.0" encoding="UTF-8"?>
<!DOCTYPE svg PUBLIC "-//W3C//DTD SVG 1.1//EN" "http://www.w3.org/Graphics/SVG/1.1/DTD/svg11.dtd">
<!-- Creator: CorelDRAW -->
<svg xmlns="http://www.w3.org/2000/svg" xml:space="preserve" width="2048px" height="2048px" style="shape-rendering:geometricPrecision; text-rendering:geometricPrecision; image-rendering:optimizeQuality; fill-rule:evenodd; clip-rule:evenodd"
viewBox="0 0 2048 2048"
 xmlns:xlink="http://www.w3.org/1999/xlink">
 <defs>
  <style type="text/css">
   <![CDATA[
    .fil0 {fill:none}
    .fil7 {fill:#01579B}
    .fil5 {fill:#0277BD}
    .fil6 {fill:#0288D1}
    .fil10 {fill:#212121}
    .fil11 {fill:#272727}
    .fil14 {fill:#2A2A2A}
    .fil2 {fill:#3F3F3F}
    .fil1 {fill:#424242}
    .fil3 {fill:#535353}
    .fil9 {fill:#616161}
    .fil4 {fill:#B3E5FC}
    .fil8 {fill:#C62828}
    .fil13 {fill:#01579B;fill-rule:nonzero}
    .fil12 {fill:#81D4FA;fill-rule:nonzero}
   ]]>
  </style>
 </defs>
 <g id="Layer_x0020_1">
  <metadata id="CorelCorpID_0Corel-Layer"/>
  <rect class="fil0" width="2048" height="2048"/>
  <rect class="fil0" x="255.999" y="255.999" width="1536" height="1536"/>
  <path class="fil1" d="M1502.13 1411.22c42.4961,0 76.9442,39.3709 76.9442,87.9355 0,39.7772 -23.113,73.3808 -54.8256,84.241 -3.70158,-8.13662 -7.41969,-16.1823 -11.1461,-24.15 24.3969,-5.78977 42.7311,-30.4949 42.7311,-60.091 0,-33.8953 -24.0437,-61.3749 -53.7036,-61.3749 -3.10512,0 -6.14764,0.304725 -9.10985,0.883465 0.180709,-9.01654 0.214961,-17.961 0.10748,-26.8429 2.95512,-0.392126 5.9563,-0.601182 9.00237,-0.601182zm-57.45 29.4473c12.2138,-15.6543 29.25,-26.2878 48.4465,-28.8461 -15.4583,10.6524 -31.5768,20.3126 -48.4465,28.8461z"/>
  <path class="fil2" d="M623.43 970.784l-121.279 -194.705c-25.2331,11.6669 -44.341,25.6347 -49.1433,44.967 36.9154,48.4406 70.1941,107.78 100.724,175.368 24.711,-1.89095 47.5406,-12.2421 69.6981,-25.6299z"/>
  <path class="fil3" d="M488.093 783.221c-3.47362,1.95827 -6.76418,3.98386 -9.84095,6.09095 41.1803,62.9682 77.8465,129.747 112.736,198.025 3.6567,-1.46339 7.28268,-3.06733 10.8815,-4.79174 -35.3481,-70.9583 -72.5812,-138.613 -113.777,-199.324z"/>
  <path class="fil4" d="M624.637 997.256l-135.919 -233.029 262.549 -242.705c115.663,-100.247 247.231,-198.864 423.905,-263.582 45.8941,-4.61103 82.3418,-0.825591 111.463,9.47127 268.929,69.0249 204.278,380.541 -69.3449,502.747 178.04,224.248 301.708,444.32 271.319,739.686l-77.602 29.8229c-48.4949,-35.3197 -78.0662,-59.0965 -92.6729,-97.8202 -46.3618,-303.813 -149.258,-451.526 -274.705,-543.048 -38.4792,-18.2067 -78.5918,-20.8973 -119.471,-16.3169l-299.522 114.774z"/>
  <path class="fil5" d="M703.829 565.374l47.4378 -43.852c115.663,-100.247 247.231,-198.864 423.905,-263.582 45.8941,-4.61103 82.3418,-0.825591 111.463,9.47127 268.929,69.0249 204.278,380.541 -69.3449,502.747 158.704,199.893 274.2,396.473 275.893,646.017l-48.5067 24.4914c-117.875,-458.118 -366.956,-737.119 -740.847,-875.293z"/>
  <path class="fil6" d="M1177.52 268.181c-64.3123,23.6374 -124.773,52.0158 -182.191,85.0135 114.352,100.08 215.314,220.242 304.772,357.663 41.2418,-29.6268 77.5867,-66.0603 104.412,-108.873 34.1315,-54.476 53.1839,-121.559 35.1945,-185.025 -21.0886,-74.4024 -85.2733,-118.012 -156.104,-139.578 -34.5957,-10.5331 -70.2154,-12.6697 -106.083,-9.20079z"/>
  <path class="fil7" d="M1133.27 274.257c13.6854,-5.64804 27.6461,-11.0941 41.9032,-16.3169 45.8941,-4.61103 82.3418,-0.825591 111.463,9.47127 170.23,43.6926 206.754,184.541 141.271,313.041 -70.8697,-147.483 -166.474,-253.882 -294.637,-306.195z"/>
  <path class="fil5" d="M1234.42 256.855c6.46182,0.507874 12.6732,1.24134 18.6425,2.1874l-48.5351 28.5059c-2.69882,1.5815 -6.17008,0.676772 -7.75158,-2.02087 -1.58032,-2.69882 -0.676772,-6.17008 2.02205,-7.75158l35.6221 -20.9209zm35.5772 5.59489c5.17678,1.27795 10.1492,2.7378 14.928,4.37008l-60.1985 35.3563c-2.69764,1.58032 -6.1689,0.676772 -7.7504,-2.02205 -1.5815,-2.69764 -0.676772,-6.1689 2.02087,-7.7504l51 -29.954zm32.7591 9.51733c4.87323,1.50236 9.63308,3.0874 14.2642,4.75985l-71.5312 42.0118c-2.69764,1.5815 -6.1689,0.676772 -7.7504,-2.02087 -1.5815,-2.69882 -0.676772,-6.17008 2.02087,-7.75158l62.9965 -36.9992zm27.4252 9.8693c4.35709,1.81181 8.59725,3.70158 12.7217,5.66575l-75.1241 44.1225c-2.69882,1.5815 -6.17008,0.676772 -7.75158,-2.02087 -1.5815,-2.69764 -0.676772,-6.17008 2.02087,-7.7504l68.1331 -40.017zm22.774 10.7221c3.91418,2.0752 7.72087,4.22008 11.4083,6.43701l-76.5071 44.9351c-2.69882,1.5815 -6.17008,0.676772 -7.75158,-2.02087 -1.58032,-2.69882 -0.676772,-6.17008 2.02205,-7.75158l70.8284 -41.5996zm21.6709 12.9626c3.4689,2.34213 6.83623,4.74567 10.0795,7.21654l-82.0371 48.1831c-2.69882,1.5815 -6.17008,0.676772 -7.75158,-2.02087 -1.58032,-2.69882 -0.676772,-6.17008 2.02205,-7.75158l77.6871 -45.6272zm16.7917 12.5764c3.09449,2.56536 6.08386,5.18859 8.95749,7.87442l-82.1989 48.2788c-2.69764,1.58032 -6.1689,0.676772 -7.7504,-2.02205 -1.5815,-2.69764 -0.676772,-6.1689 2.02087,-7.7504l78.9709 -46.3807zm18.0532 16.9606c2.64921,2.83229 5.19449,5.7189 7.62402,8.65985l-77.3977 45.4571c-2.69882,1.5815 -6.17008,0.677953 -7.75158,-2.02087 -1.58032,-2.69764 -0.676772,-6.1689 2.02205,-7.7504l75.5032 -44.3457zm15.8587 19.4256c2.19685,3.10512 4.28032,6.25985 6.25276,9.46418l-77.0741 45.2681c-2.69764,1.5815 -6.17008,0.677953 -7.7504,-2.02087 -1.5815,-2.69764 -0.677953,-6.1689 2.02087,-7.7504l76.5508 -44.9611zm12.391 20.2595c1.76102,3.36733 3.40512,6.77953 4.93701,10.2366l-74.6445 43.8414c-2.69764,1.5815 -6.1689,0.676772 -7.7504,-2.02205 -1.5815,-2.69764 -0.676772,-6.1689 2.02087,-7.7504l75.4371 -44.3055zm10.7433 25.1197c1.24961,3.67677 2.37756,7.39371 3.38859,11.1473l-68.1544 40.0288c-2.69882,1.5815 -6.17008,0.677953 -7.75158,-2.02087 -1.5815,-2.69764 -0.676772,-6.1689 2.02087,-7.7504l70.4965 -41.4048zm7.15158 28.3051c0.687402,4.01693 1.24725,8.06812 1.68307,12.1488l-57.6815 33.8788c-2.69882,1.5815 -6.17008,0.676772 -7.75158,-2.02087 -1.58032,-2.69882 -0.676772,-6.17008 2.02205,-7.7504l61.728 -36.2563zm2.66457 25.3618c0.175984,4.32874 0.209055,8.6882 0.115748,13.0689l-49.2591 28.9311c-2.69764,1.5815 -6.1689,0.677953 -7.7504,-2.02087 -1.5815,-2.69764 -0.676772,-6.1689 2.02087,-7.7504l54.8729 -32.2288zm-1.08189 31.7268c-0.500788,4.74449 -1.15512,9.5067 -1.95709,14.2854l-33.7229 19.8071c-2.69764,1.5815 -6.1689,0.676772 -7.7504,-2.02087 -1.5815,-2.69882 -0.676772,-6.17008 2.02087,-7.75158l41.4095 -24.3201z"/>
  <path class="fil8" d="M1120.02 991.672c-3.60945,-10.813 1.91221,-15.4311 14.3728,-16.3406 28.3866,7.97481 48.6449,29.0055 58.7209,66.0166 5.88426,9.96024 -0.437008,13.7587 -12.1512,15.6496 -18.3709,-26.1555 -38.8677,-47.5205 -60.9426,-65.3256z"/>
  <path class="fil9" d="M1502.13 1421.64c-7.87205,0 -15.574,1.60158 -22.8118,4.6878 -28.3477,12.0921 -43.7091,43.0429 -43.7091,72.8256 0,3.22205 0.180709,6.46063 0.537402,9.68505l2.30433 -1.31575c-0.295276,-2.77914 -0.446457,-5.57481 -0.446457,-8.3693 0,-27.9378 14.8914,-55.8615 41.2654,-67.1079 7.24489,-3.08859 14.9823,-4.68898 22.8603,-4.68898 7.87914,0 15.6165,1.60039 22.8614,4.68898 26.3729,11.2465 41.2642,39.1701 41.2642,67.1079 0,27.9366 -14.8914,55.8603 -41.2642,67.1079 -2.42126,1.0311 -4.89804,1.89685 -7.41497,2.5937l2.3126 5.01142c1.70669,-0.550394 3.39213,-1.17992 5.05276,-1.88858 28.3477,-12.091 43.7103,-43.0429 43.7103,-72.8245 0,-29.7827 -15.3626,-60.7335 -43.7103,-72.8256 -7.2378,-3.08622 -14.9398,-4.6878 -22.8118,-4.6878z"/>
  <path class="fil9" d="M1243.39 811.914c-2.07874,-6.79371 1.43504,-9.58347 9.21261,-9.95316 17.5595,5.41536 29.85,18.8386 35.5441,42.0567 3.50788,6.29882 -0.490158,8.56536 -7.8189,9.55749 -11.0327,-16.5851 -23.465,-30.2197 -36.9378,-41.6611z"/>
  <path class="fil10" d="M1296.02 878.558c-1.11378,-7.01693 2.75315,-9.29174 10.5071,-8.57717 16.637,7.80237 26.9421,22.8024 29.3551,46.5874 2.59961,6.72402 -1.6748,8.413 -9.06969,8.37875 -8.62205,-17.9575 -19.0394,-33.1866 -30.7925,-46.389z"/>
  <path class="fil9" d="M1342.2 952.823c-1.11378,-7.01693 2.75197,-9.29174 10.5059,-8.57717 16.637,7.80237 26.9433,22.8024 29.3563,46.5874 2.59961,6.72402 -1.6748,8.413 -9.07087,8.37875 -8.62087,-17.9575 -19.0394,-33.1866 -30.7914,-46.389z"/>
  <path class="fil1" d="M1403.18 1527.67l74.2784 -42.43c40.6618,82.7894 83.5607,172.749 117.536,278.94 -8.05631,17.7862 -23.7862,25.5957 -43.8154,27.8185 -40.1103,-95.3387 -89.5371,-180.671 -147.999,-264.329z"/>
  <path class="fil11" d="M1501.22 1534.14c1.65591,3.46181 3.31299,6.93898 4.97126,10.4315 -10.7516,7.78819 -22.7055,13.9831 -35.8406,18.6154 -11.5276,4.06418 -23.9705,6.92363 -37.3134,8.59725 -2.32087,-3.54803 -4.65945,-7.08898 -7.01339,-10.6264 14.6622,-1.4315 28.1847,-4.31457 40.5508,-8.67402 12.7949,-4.51063 24.3532,-10.6169 34.6453,-18.3437zm10.161 21.4288c1.62992,3.47244 3.25866,6.96024 4.88504,10.4622 -10.4008,7.33938 -21.9059,13.2154 -34.4965,17.654 -11.0539,3.89764 -22.9488,6.68741 -35.6729,8.38465 -2.24173,-3.54213 -4.50118,-7.07717 -6.77363,-10.6063 13.9394,-1.48937 26.8358,-4.30748 38.6705,-8.4815 12.2764,-4.32874 23.4142,-10.1244 33.3874,-17.413zm9.99095 21.5256c1.59803,3.48307 3.19134,6.98386 4.78111,10.4988 -9.9945,6.84449 -20.9894,12.3685 -32.9634,16.591 -10.6984,3.77126 -22.1823,6.50434 -34.4445,8.21575 -2.16378,-3.54095 -4.3441,-7.07245 -6.53977,-10.5992 13.3795,-1.52717 25.787,-4.29213 37.2083,-8.31969 11.6929,-4.12323 22.3536,-9.57875 31.9583,-16.3866zm9.78544 21.6366c1.55906,3.49607 3.11457,7.01103 4.66536,10.5402 -9.52442,6.30237 -19.9347,11.4343 -31.2142,15.411 -10.4599,3.68859 -21.6721,6.38386 -33.6284,8.10119 -2.08819,-3.54331 -4.19174,-7.07953 -6.31063,-10.6063 12.9815,-1.55197 25.0406,-4.27559 36.163,-8.19804 11.035,-3.89055 21.1488,-8.96812 30.3248,-15.248zm9.54922 21.7536c1.51654,3.51024 3.02599,7.03938 4.53189,10.5839 -8.9752,5.713 -18.7169,10.4114 -29.211,14.1118 -10.3441,3.64725 -21.424,6.32245 -33.2292,8.04331 -2.01378,-3.54922 -4.03937,-7.09134 -6.08386,-10.6228 12.7441,-1.5626 24.5941,-4.26378 35.537,-8.12245 10.291,-3.62835 19.7799,-8.29016 28.4551,-13.9937zm9.28229 21.8729c1.46811,3.52559 2.9315,7.0689 4.38662,10.6299 -8.33859,5.0752 -17.3173,9.30355 -26.928,12.6921 -10.35,3.64961 -21.4382,6.32481 -33.2528,8.04568 -1.93937,-3.56103 -3.89292,-7.11024 -5.863,-10.6512 12.6673,-1.56496 24.4524,-4.25906 35.3398,-8.09764 9.45001,-3.33307 18.228,-7.53662 26.3173,-12.6189zm8.98583 21.9886c1.41732,3.53977 2.82638,7.10079 4.22953,10.6784 -7.59922,4.39607 -15.7146,8.113 -24.3378,11.1532 -10.4811,3.69567 -21.7169,6.39449 -33.6981,8.11182 -1.86732,-3.57402 -3.74882,-7.13623 -5.64567,-10.689 12.7547,-1.5626 24.6154,-4.26378 35.5677,-8.12599 8.51103,-3.00118 16.4752,-6.70867 23.8843,-11.1284zm8.65867 22.0984c1.36299,3.5563 2.7189,7.12914 4.06654,10.7232 -6.74764,3.68622 -13.8874,6.85394 -21.4146,9.50906 -10.7339,3.78425 -22.2626,6.52441 -34.5709,8.23347 -1.79646,-3.58819 -3.60709,-7.16575 -5.43071,-10.7315 13.0051,-1.54843 25.0855,-4.27677 36.2256,-8.20512 7.46457,-2.63268 14.5075,-5.8063 21.124,-9.52914zm8.31142 22.1906c1.3063,3.57048 2.60315,7.15985 3.89174,10.7681 -5.76969,2.95394 -11.8146,5.5441 -18.1323,7.77166 -11.1106,3.91772 -23.0717,6.71575 -35.8701,8.41182 -1.72559,-3.60709 -3.46654,-7.20119 -5.22166,-10.7823 13.4209,-1.52362 25.8662,-4.29449 37.317,-8.33268 6.30709,-2.22402 12.313,-4.83544 18.0154,-7.83662zm7.94056 22.2614c1.24488,3.58583 2.4815,7.19056 3.70866,10.8118 -4.65237,2.21457 -9.47599,4.20355 -14.4697,5.96457 -11.6114,4.0937 -24.15,6.96497 -37.6016,8.63386 -1.65709,-3.62599 -3.32717,-7.2378 -5.0126,-10.8366 14.002,-1.48465 26.9551,-4.30985 38.8382,-8.49922 5.03859,-1.77638 9.88347,-3.80197 14.537,-6.07441zm7.54961 22.3122c1.18347,3.59882 2.35866,7.21536 3.52205,10.8532 -3.38386,1.48465 -6.85512,2.85591 -10.4138,4.11024 -12.2291,4.31221 -25.4894,7.26851 -39.7607,8.89016 -1.5874,-3.64488 -3.18898,-7.27796 -4.80473,-10.8957 14.7532,-1.42323 28.3559,-4.31339 40.7894,-8.69764 3.65788,-1.28976 7.213,-2.71063 10.6677,-4.26024z"/>
  <path class="fil11" d="M1493.12 1411.82c0.386221,31.7811 -1.05591,64.4091 -4.51418,98.0233l-77.602 29.8229c-32.3906,-23.5902 -56.3363,-42.0319 -73.0229,-63.2162 58.9311,-10.7185 109.862,-33.4347 155.139,-64.63z"/>
  <polygon class="fil12" points="565.867,896.731 958.876,653.126 963.836,661.159 570.826,904.764 "/>
  <polygon class="fil13" points="939.781,664.961 1429.58,360.844 1434.54,368.877 944.742,672.994 "/>
  <path class="fil14" d="M917.676 664.049l55.9855 -38.3929c5.81693,-3.98977 13.8402,-2.49331 17.8299,3.32362l3.92008 5.71654c3.98977,5.81693 2.49331,13.8413 -3.32362,17.8299l-55.9855 38.3929c-5.81693,3.98977 -13.8402,2.49449 -17.8299,-3.32362l-3.92008 -5.71654c-3.98977,-5.81693 -2.49449,-13.8402 3.32362,-17.8299z"/>
  <circle class="fil10" cx="929.422" cy="677.52" r="5.28662"/>
 </g>
</svg>
