<?xml version="1.0" encoding="UTF-8"?>
<!DOCTYPE svg PUBLIC "-//W3C//DTD SVG 1.1//EN" "http://www.w3.org/Graphics/SVG/1.1/DTD/svg11.dtd">
<!-- Creator: CorelDRAW -->
<svg xmlns="http://www.w3.org/2000/svg" xml:space="preserve" width="2048px" height="2048px" style="shape-rendering:geometricPrecision; text-rendering:geometricPrecision; image-rendering:optimizeQuality; fill-rule:evenodd; clip-rule:evenodd"
viewBox="0 0 2048 2048"
 xmlns:xlink="http://www.w3.org/1999/xlink">
 <defs>
  <style type="text/css">
   <![CDATA[
    .fil4 {fill:none}
    .fil2 {fill:#616161}
    .fil3 {fill:#757575}
    .fil5 {fill:#B6B6B6}
    .fil0 {fill:#F9A825}
    .fil6 {fill:#FBC02D}
    .fil1 {fill:#FFF59D}
   ]]>
  </style>
 </defs>
 <g id="Layer_x0020_1">
  <metadata id="CorelCorpID_0Corel-Layer"/>
  <path class="fil0" d="M1305.79 678.184l-706.522 0c-73.8107,-150.308 -28.1681,-259.662 189.378,-310.079 117.471,-27.6059 238.304,-34.6075 367.307,8.32442 173.059,41.2583 207.09,149.509 149.837,301.754z"/>
  <path class="fil1" d="M1291.76 658.185c48.3142,-139.317 7.61457,-220.082 -141.286,-262.523 -120.152,-34.2449 -236.134,-36.3544 -357.28,-8.08229 -71.2075,16.6181 -173.482,50.6422 -199.917,127.884 -15.9402,46.5768 -1.32874,98.941 18.6449,142.721l679.838 0z"/>
  <path class="fil2" d="M1618.48 914.483l125.734 0c26.2855,0 47.7886,21.5032 47.7886,47.7886l0 0c0,26.2855 -21.5055,47.7886 -47.7886,47.7886l-125.734 0 0 -95.5772z"/>
  <circle class="fil3" cx="1646.48" cy="1397.98" r="76.1856"/>
  <rect class="fil4" width="2048" height="2048"/>
  <rect class="fil4" x="255.999" y="255.999" width="1536" height="1536"/>
  <path class="fil5" d="M409.639 663.589l1070.92 0c84.5032,0 153.639,69.1394 153.639,153.639l0 757.881 -1378.2 0 0 -757.881c0,-84.5032 69.1359,-153.639 153.639,-153.639z"/>
  <path class="fil3" d="M359.541 1575.11l230.651 0 0 61.6241c0,10.5602 -8.64213,19.2024 -19.2036,19.2024l-192.243 0c-10.5614,0 -19.2036,-8.63977 -19.2036,-19.2024l0 -61.6241z"/>
  <path class="fil3" d="M1315.92 1575.11l230.651 0 0 61.6241c0,10.5602 -8.64213,19.2024 -19.2036,19.2024l-192.243 0c-10.5614,0 -19.2036,-8.63977 -19.2036,-19.2024l0 -61.6241z"/>
  <circle class="fil6" cx="689.47" cy="508.007" r="17.4691"/>
  <circle class="fil6" cx="782.531" cy="558.53" r="17.4691"/>
  <circle class="fil6" cx="861.892" cy="482.106" r="11.3693"/>
  <circle class="fil6" cx="977.47" cy="590.53" r="17.4691"/>
  <circle class="fil6" cx="1009.47" cy="465.467" r="17.4691"/>
  <circle class="fil6" cx="1137.47" cy="558.53" r="17.4691"/>
 </g>
</svg>
