<?xml version="1.0" encoding="UTF-8"?>
<!DOCTYPE svg PUBLIC "-//W3C//DTD SVG 1.1//EN" "http://www.w3.org/Graphics/SVG/1.1/DTD/svg11.dtd">
<!-- Creator: CorelDRAW -->
<svg xmlns="http://www.w3.org/2000/svg" xml:space="preserve" width="2048px" height="2048px" style="shape-rendering:geometricPrecision; text-rendering:geometricPrecision; image-rendering:optimizeQuality; fill-rule:evenodd; clip-rule:evenodd"
viewBox="0 0 2048 2048"
 xmlns:xlink="http://www.w3.org/1999/xlink">
 <defs>
  <style type="text/css">
   <![CDATA[
    .fil0 {fill:none}
    .fil2 {fill:#388E3C}
    .fil4 {fill:#EF6C00}
    .fil3 {fill:#FFA726}
    .fil1 {fill:#43A047;fill-rule:nonzero}
   ]]>
  </style>
 </defs>
 <g id="Layer_x0020_1">
  <metadata id="CorelCorpID_0Corel-Layer"/>
  <path class="fil0" d="M1061.93 862.373c38.4036,-237.079 72.7123,-270.364 157.412,-362.903"/>
  <path class="fil1" d="M1046.18 859.873c38.3646,-236.844 72.9945,-274.642 156.169,-365.43l5.24292 -5.72363 23.4992 21.5008 -5.24292 5.72363c-78.606,85.8001 -111.332,121.521 -148.168,348.93l-31.5 -5.00079z"/>
  <path class="fil2" d="M1441.6 441.514c-117.247,-82.5343 -203.035,-12.4406 -279.955,104.994 137.238,95.5772 236.805,51.3485 279.955,-104.994z"/>
  <path class="fil3" d="M911.059 847.528l283.342 0c0,365.262 141.671,597.892 141.671,694.465 0,138.073 -126.858,250.006 -283.343,250.006 -156.482,0 -283.34,-111.933 -283.34,-250.006 0,-96.5741 141.67,-329.203 141.67,-694.465z"/>
  <rect class="fil0" width="2048" height="2048"/>
  <rect class="fil0" x="255.999" y="255.999" width="1536" height="1536"/>
  <path class="fil4" d="M1248.22 1482.42c6.60945,55.3087 -11.0043,91.917 -44.5264,116.354 -29.9398,21.8232 -71.5843,31.5095 -118.833,35.5559l-27.7736 2.37756 -0.011811 0.126378 -28.0748 -1.67244c-47.3941,-2.82166 -89.282,-11.4059 -119.675,-32.3776 -34.161,-23.5689 -52.7256,-59.7567 -47.5429,-115.318l1.88504 -20.1957 19.8236 -5.08347c26.511,-6.79961 50.6268,-9.24686 71.9953,-7.36064 25.3701,2.23701 46.8555,10.5106 63.9697,24.7843 17.2571,14.3894 29.3799,34.2248 35.8453,59.439l0.387402 1.55079c0.126378,-0.583465 0.255118,-1.16339 0.387402,-1.74095 5.8004,-25.3264 17.387,-45.4382 34.2437,-60.2528 16.7705,-14.7402 38.1095,-23.5914 63.5209,-26.4981 21.2232,-2.42835 45.3697,-0.6 72.0804,5.5193l19.8815 4.55197 2.41772 20.2406zm-78.5882 69.5445c12.3036,-8.9693 20.0776,-22.304 21.5386,-41.7626 -11.3858,-1.4126 -21.7075,-1.58858 -30.8977,-0.537402 -13.2921,1.52008 -23.9303,5.68937 -31.6524,12.4772 -7.63583,6.71103 -13.0736,16.6477 -16.0878,29.8004 -1.44449,6.30945 -2.3315,13.2933 -2.64095,20.9504 24.6579,-3.99685 45.3744,-10.4551 59.7402,-20.928zm-250.123 -38.1638c1.95945,19.376 10.0748,32.4862 22.6016,41.1296 14.7012,10.1445 35.589,16.0866 60.3166,19.4528 -0.510237,-7.65827 -1.58268,-14.6386 -3.19961,-20.9374 -3.33898,-13.0264 -9.0189,-22.7882 -16.8083,-29.2819 -7.93111,-6.61536 -18.7465,-10.5236 -32.1839,-11.7106 -9.14646,-0.805512 -19.4091,-0.359055 -30.7264,1.34764z"/>
  <path class="fil1" d="M989.57 846.84c5.66693,-128.381 -4.91221,-232.786 -30.867,-314.497 -25.4138,-80.0032 -65.5843,-138.06 -119.669,-175.409l18.1252 -26.2488c59.9811,41.4201 104.27,104.988 131.92,192.032 27.1063,85.3359 38.1981,193.408 32.367,325.498l-31.8756 -1.3748z"/>
  <path class="fil2" d="M608 322.7c98.7154,-103.991 196.618,-52.1469 295.14,47.8559 -115.748,120.713 -222.072,96.9402 -295.14,-47.8559z"/>
 </g>
</svg>
