<?xml version="1.0" encoding="UTF-8"?>
<!DOCTYPE svg PUBLIC "-//W3C//DTD SVG 1.1//EN" "http://www.w3.org/Graphics/SVG/1.1/DTD/svg11.dtd">
<!-- Creator: CorelDRAW -->
<svg xmlns="http://www.w3.org/2000/svg" xml:space="preserve" width="2048px" height="2048px" style="shape-rendering:geometricPrecision; text-rendering:geometricPrecision; image-rendering:optimizeQuality; fill-rule:evenodd; clip-rule:evenodd"
viewBox="0 0 2048 2048"
 xmlns:xlink="http://www.w3.org/1999/xlink">
 <defs>
  <style type="text/css">
   <![CDATA[
    .fil0 {fill:none}
    .fil2 {fill:#B71C1C}
    .fil1 {fill:#D32F2F}
    .fil4 {fill:#FFA726}
    .fil3 {fill:#FFCC80}
   ]]>
  </style>
 </defs>
 <g id="Layer_x0020_1">
  <metadata id="CorelCorpID_0Corel-Layer"/>
  <rect class="fil0" width="2048" height="2048"/>
  <rect class="fil0" x="255.999" y="255.999" width="1536" height="1536"/>
  <g id="_210054392">
   <path id="_210062168" class="fil1" d="M1595.97 1186.72l-133.133 393.962c-41.5418,124.06 -160.884,211.322 -294.141,211.322l-289.4 0c-133.317,0 -252.899,-82.7823 -294.142,-211.322l-126.385 -386.365c47.3764,19.9051 99.3922,30.9154 153.957,30.9154 58.6926,0 117.653,-15.4748 170.647,-40.865 75.4087,34.8048 154.122,54.5398 238.341,54.5398l4.49646 0c84.4312,0 162.902,-19.7941 238.451,-54.5906 53.6622,25.1906 110.353,36.2091 170.548,36.2091 57.2209,0 111.599,-12.0874 160.761,-33.8055z"/>
   <path id="_210060680" class="fil2" d="M1315.72 1754.49c-14.2075,7.69607 -29.0374,14.3173 -44.3622,19.7599l0 -586.881c14.5606,6.4878 29.3457,11.9539 44.3622,16.4551l0 550.666zm-133.083 37.1776c-4.62638,0.212599 -9.27166,0.329528 -13.9358,0.329528l-30.4252 0 0 -564.989c14.9421,-3.19961 29.7225,-7.02166 44.3611,-11.4295l0 576.089zm-133.082 0.329528l-44.3611 0 0 -553.354c5.48622,0.168898 10.9925,0.257481 16.5248,0.257481l4.49646 0c7.82953,0 15.6083,-0.170079 23.3398,-0.507874l0 553.604zm-133.082 0l-37.1717 0c-2.40236,0 -4.79764,-0.0354331 -7.18938,-0.0885827l0 -574.307c14.6374,4.20827 29.4189,7.82481 44.3611,10.8224l0 563.573zm-133.082 -14.791c-15.2941,-4.85433 -30.1217,-10.8567 -44.3611,-17.9327l0 -556.542c15.1382,-5.31969 29.9646,-11.4791 44.3481,-18.3709l0.0129921 0.00708662 0 592.838z"/>
   <path id="_210043616" class="fil3" d="M1508.83 550.874c-40.8626,-102.086 -207.089,-203.96 -295.853,-258.216 -95.4686,-44.5571 -211.533,-56.7308 -378.208,10.6158 -88.2367,52.8579 -255.797,135.871 -300.094,252.072 -160.875,36.8327 -275.753,179.32 -275.753,349.33 0,197.7 160.873,353.868 353.81,353.868 59.667,0 119.352,-18.4299 170.067,-46.0111 73.3418,36.7583 151.689,59.6859 238.921,59.6859l4.49646 0c87.2989,0 165.347,-22.9276 238.988,-59.6859 50.4248,27.5811 105.613,41.3055 170.01,41.3055 197.699,0 353.868,-160.648 353.868,-353.868 0,-169.844 -119.586,-312.271 -280.252,-349.096z"/>
   <path id="_210054560" class="fil4" d="M1458.13 913.919c-32.1201,0 -59.6859,-27.6319 -59.6859,-59.6682 0,-32.3374 27.5658,-59.9174 59.6693,-59.9174 32.2866,0 59.9162,27.5799 59.9162,59.9174 0,32.0362 -27.6295,59.6682 -59.8997,59.6682z"/>
   <path id="_210046376" class="fil4" d="M1311.15 697.856c-32.054,0 -55.1882,-27.6307 -55.1882,-54.9697 0,-32.3292 27.6225,-55.1871 55.1882,-55.1871 32.1036,-0.0188977 55.1941,27.5634 55.1941,55.1871 0,32.0445 -23.0906,54.9697 -55.1941,54.9697z"/>
   <path id="_210042920" class="fil4" d="M1026.21 1019.56c-41.2382,0 -78.0709,-36.7666 -78.0709,-78.0544 0,-41.5311 36.8327,-78.065 78.0709,-78.065 41.289,0 78.0969,36.5339 78.0969,78.065 0,45.9922 -36.8079,78.0544 -78.0969,78.0544z"/>
   <path id="_210041864" class="fil4" d="M736.788 697.856c-32.0374,0 -55.1965,-27.6307 -55.1965,-54.9697 0,-32.3292 27.6319,-55.1871 55.1965,-55.1871 27.6307,-0.0188977 55.1953,27.5634 55.1953,55.1871 4.47166,32.0445 -23.0929,54.9697 -55.1953,54.9697z"/>
   <path id="_210058472" class="fil4" d="M589.87 913.919c-32.3362,0 -59.9008,-27.6319 -59.9008,-59.6682 0,-32.3374 27.5646,-59.9174 59.9008,-59.9174 32.054,0 59.667,27.5799 59.667,59.9174 0,32.0362 -23.1331,59.6682 -59.667,59.6682z"/>
   <path id="_210056168" class="fil4" d="M1023.99 513.098c-28.0477,0 -53.0977,-25.0051 -53.0977,-53.0859 0,-28.2461 25.05,-53.0941 53.0977,-53.0941 28.0807,0 53.1154,24.8481 53.1154,53.0941 0,31.2803 -25.0347,53.0859 -53.1154,53.0859z"/>
  </g>
 </g>
</svg>
