<?xml version="1.0" encoding="UTF-8"?>
<!DOCTYPE svg PUBLIC "-//W3C//DTD SVG 1.1//EN" "http://www.w3.org/Graphics/SVG/1.1/DTD/svg11.dtd">
<!-- Creator: CorelDRAW -->
<svg xmlns="http://www.w3.org/2000/svg" xml:space="preserve" width="2048px" height="2048px" style="shape-rendering:geometricPrecision; text-rendering:geometricPrecision; image-rendering:optimizeQuality; fill-rule:evenodd; clip-rule:evenodd"
viewBox="0 0 2048 2048"
 xmlns:xlink="http://www.w3.org/1999/xlink">
 <defs>
  <style type="text/css">
   <![CDATA[
    .fil3 {fill:none}
    .fil0 {fill:#BCAAA4;fill-rule:nonzero}
    .fil1 {fill:#D7CCC8;fill-rule:nonzero}
    .fil2 {fill:#E53935;fill-rule:nonzero}
   ]]>
  </style>
 </defs>
 <g id="Layer_x0020_1">
  <metadata id="CorelCorpID_0Corel-Layer"/>
  <g id="_210070928">
   <polygon id="_210053792" class="fil0" points="837.938,785.959 837.938,1175.53 794.064,1175.53 794.064,785.959 "/>
   <path id="_210061112" class="fil1" d="M953.326 730.466c-24.4122,44.8441 -61.5367,77.5961 -105.777,89.4308l0.00590552 0.0283465c-7.07717,1.89685 -18.5091,2.87008 -29.6622,3.00118 -11.5134,0.134646 -23.4284,-0.673229 -30.2575,-2.31732 -45.0496,-10.9039 -82.9312,-43.4386 -107.934,-88.4788 -23.9717,-43.18 -36.0473,-97.9725 -30.8847,-155.795l0.0212599 0.00236221c5.36811,-64.9359 25.715,-143.038 56.0185,-200.962 28.0607,-53.6386 65.5973,-91.8036 110.343,-93.332l1.56378 0c44.765,1.52835 82.3512,39.7382 110.437,93.4229 30.2823,57.8882 50.6115,135.876 55.9146,200.746l0.0307087 -0.00354331c5.18741,57.2315 -6.48426,111.396 -29.8193,154.257z"/>
   <path id="_210049424" class="fil2" d="M750.892 1702.66c-0.00708662,-1.6441 0.0011811,-2.86181 0.0259843,-3.64252l0.0106299 0 12.3662 -499.947 0 -1.69606c1.75276,-30.0083 15.1772,-50.0185 31.9819,-59.5406 6.92008,-3.92244 14.4862,-5.91969 21.9803,-5.93859 7.63583,-0.0188977 15.2976,2.03268 22.2496,6.2067 15.8858,9.54568 27.9532,28.7953 29.2028,58.1859l0 0.848032 12.3567 501.741 0.0141732 -0.0011811c0.0271654,0.805512 0.0366142,2.11299 0.0295276,3.87166 -0.0826772,20.1225 -6.32953,42.3874 -16.7764,59.4048 -10.9075,17.7662 -26.6646,30.9638 -45.3768,32.1945 -0.640158,0.0413386 -1.63347,0.056693 -2.95276,0.0507874 -1.21299,0.00826772 -2.13189,-0.00590552 -2.76614,-0.0448819 -18.7902,-1.14331 -34.5981,-14.3374 -45.5386,-32.1544 -10.4587,-17.0303 -16.7126,-39.3449 -16.8071,-59.5382z"/>
  </g>
  <rect class="fil3" width="2048" height="2048"/>
  <rect class="fil3" x="255.999" y="255.999" width="1536" height="1536"/>
  <g id="_210071792">
   <polygon id="_210049832" class="fil0" points="1261.58,785.959 1261.58,1175.53 1217.7,1175.53 1217.7,785.959 "/>
   <path id="_210052688" class="fil1" d="M1376.96 730.466c-24.4122,44.8441 -61.5367,77.5961 -105.777,89.4308l0.00590552 0.0283465c-7.07717,1.89685 -18.5091,2.87008 -29.6622,3.00118 -11.5134,0.134646 -23.4284,-0.673229 -30.2575,-2.31732 -45.0496,-10.9039 -82.9312,-43.4386 -107.934,-88.4788 -23.9717,-43.18 -36.0473,-97.9725 -30.8847,-155.795l0.0212599 0.00236221c5.36811,-64.9359 25.715,-143.038 56.0185,-200.962 28.0607,-53.6386 65.5973,-91.8036 110.343,-93.332l1.56378 0c44.765,1.52835 82.3512,39.7382 110.437,93.4229 30.2823,57.8882 50.6115,135.876 55.9146,200.746l0.0307087 -0.00354331c5.18741,57.2315 -6.48426,111.396 -29.8193,154.257z"/>
   <path id="_210056072" class="fil2" d="M1174.53 1702.66c-0.00708662,-1.6441 0.0011811,-2.86181 0.0259843,-3.64252l0.0106299 0 12.3662 -499.947 0 -1.69606c1.75276,-30.0083 15.1772,-50.0185 31.9819,-59.5406 6.92008,-3.92244 14.4862,-5.91969 21.9803,-5.93859 7.63583,-0.0188977 15.2976,2.03268 22.2496,6.2067 15.8858,9.54568 27.9532,28.7953 29.2028,58.1859l0 0.848032 12.3567 501.741 0.0141732 -0.0011811c0.0271654,0.805512 0.0366142,2.11299 0.0295276,3.87166 -0.0826772,20.1225 -6.32953,42.3874 -16.7764,59.4048 -10.9075,17.7662 -26.6646,30.9638 -45.3768,32.1945 -0.640158,0.0413386 -1.63347,0.056693 -2.95276,0.0507874 -1.21299,0.00826772 -2.13189,-0.00590552 -2.76614,-0.0448819 -18.7902,-1.14331 -34.5981,-14.3374 -45.5386,-32.1544 -10.4587,-17.0303 -16.7126,-39.3449 -16.8071,-59.5382z"/>
  </g>
 </g>
</svg>
