<?xml version="1.0" encoding="UTF-8"?>
<!DOCTYPE svg PUBLIC "-//W3C//DTD SVG 1.1//EN" "http://www.w3.org/Graphics/SVG/1.1/DTD/svg11.dtd">
<!-- Creator: CorelDRAW -->
<svg xmlns="http://www.w3.org/2000/svg" xml:space="preserve" width="2048px" height="2048px" style="shape-rendering:geometricPrecision; text-rendering:geometricPrecision; image-rendering:optimizeQuality; fill-rule:evenodd; clip-rule:evenodd"
viewBox="0 0 2048 2048"
 xmlns:xlink="http://www.w3.org/1999/xlink">
 <defs>
  <style type="text/css">
   <![CDATA[
    .fil0 {fill:none}
    .fil3 {fill:#00897B}
    .fil4 {fill:#0288D1}
    .fil8 {fill:#33691E}
    .fil7 {fill:#3949AB}
    .fil13 {fill:#4E342E}
    .fil12 {fill:#6D4C41}
    .fil5 {fill:#AAAAAA}
    .fil1 {fill:#BCAAA4}
    .fil6 {fill:#BDBDBD}
    .fil10 {fill:#C2185B}
    .fil11 {fill:#C62828}
    .fil9 {fill:#D84315}
    .fil2 {fill:#FFD180}
   ]]>
  </style>
 </defs>
 <g id="Layer_x0020_1">
  <metadata id="CorelCorpID_0Corel-Layer"/>
  <rect class="fil0" width="2048" height="2048"/>
  <rect class="fil0" x="255.999" y="255.999" width="1536" height="1536"/>
  <g id="_218079968">
   <rect id="_224126504" class="fil1" x="416.133" y="593.131" width="1198.85" height="337.182"/>
   <polygon id="_224112944" class="fil2" points="1358.12,255.998 1430.98,407.829 1429,420.479 1290.75,422.903 1287.69,409.654 "/>
   <path id="_224107496" class="fil3" d="M1358.12 255.998l22.6559 47.2181c-6.40749,4.13504 -13.6453,6.51024 -21.3225,6.60827 -8.23347,0.105118 -16.0051,-2.42008 -22.8201,-6.95434l21.4866 -46.8721z"/>
   <path id="_224123792" class="fil4" d="M1328.52 1130.73l73.0382 -0.929528c19.1953,-0.244488 34.7422,-20.3776 34.5496,-44.7355l-0.307087 -38.8229 -142.839 1.82008 0.307087 38.8229c0.193701,24.3603 16.0547,44.0894 35.2512,43.8449z"/>
   <path id="_224098736" class="fil3" d="M1292.96 1048.06l36.2752 -0.461811 0.585827 -0.00826772 34.5579 -0.43937 0.584646 -0.00708662 34.5591 -0.441733 0.584646 -0.00590552 35.6906 -0.455906 -5.0504 -638.413 -0.858662 0.0106299c-4.36772,5.31851 -10.1988,8.60079 -16.6252,8.68229 -6.42402,0.0814961 -12.3036,-3.05079 -16.7551,-8.25591l-2.03622 0.0248032 -0.333071 0.00354331c-4.36772,5.31851 -10.1965,8.60198 -16.6228,8.68347 -6.42402,0.0826772 -12.3047,-3.05079 -16.7575,-8.25709l-1.43032 0.0177165 -1.23071 0.0153543c-4.36654,5.31969 -10.1965,8.60079 -16.6228,8.68229 -6.4252,0.0838583 -12.3047,-3.04961 -16.7563,-8.25591l-0.533859 0.00590552 -1.83307 0.0236221c-4.3689,5.31851 -10.1988,8.60198 -16.6228,8.68347 -6.42638,0.0814961 -12.3071,-3.05197 -16.7587,-8.25827l-1.06063 0.0129921 5.0504 638.415z"/>
   <polygon id="_224104136" class="fil5" points="1399.52,1046.71 1400.11,1046.7 1435.8,1046.24 1435.04,950.578 1399.27,951.034 1398.77,951.041 "/>
   <polygon id="_224103488" class="fil6" points="1364.38,1047.16 1364.97,1047.15 1399.52,1046.71 1398.77,951.041 1364.12,951.481 1363.62,951.489 "/>
   <polygon id="_224114456" class="fil5" points="1329.24,1047.6 1329.82,1047.59 1364.38,1047.16 1363.62,951.489 1328.98,951.929 1328.48,951.936 "/>
   <polygon id="_224098520" class="fil6" points="1292.96,1048.06 1329.24,1047.6 1328.48,951.936 1292.2,952.398 "/>
   <polygon id="_224121056" class="fil2" points="1194.79,255.998 1267.64,407.829 1265.67,420.479 1127.42,422.903 1124.35,409.654 "/>
   <path id="_224118704" class="fil7" d="M1194.79 255.998l22.6571 47.2181c-6.40867,4.13504 -13.6465,6.51024 -21.3225,6.60827 -8.23347,0.105118 -16.0063,-2.42008 -22.8213,-6.95434l21.4866 -46.8721z"/>
   <path id="_224125160" class="fil4" d="M1165.18 1130.73l73.0371 -0.929528c19.1965,-0.244488 34.7433,-20.3776 34.5508,-44.7355l-0.307087 -38.8229 -142.839 1.82008 0.307087 38.8229c0.19252,24.3603 16.0547,44.0894 35.2512,43.8449z"/>
   <path id="_224110688" class="fil7" d="M1129.63 1048.06l36.2752 -0.461811 0.585827 -0.00826772 34.5579 -0.43937 0.584646 -0.00708662 34.5591 -0.441733 0.584646 -0.00590552 35.6906 -0.455906 -5.0504 -638.413 -0.858662 0.0106299c-4.3689,5.31851 -10.2,8.60079 -16.6252,8.68229 -6.4252,0.0814961 -12.3047,-3.05079 -16.7551,-8.25591l-2.03622 0.0248032 -0.333071 0.00354331c-4.36772,5.31851 -10.1965,8.60198 -16.6228,8.68347 -6.42402,0.0826772 -12.3059,-3.05079 -16.7575,-8.25709l-1.43032 0.0177165 -1.23071 0.0153543c-4.36654,5.31969 -10.1965,8.60079 -16.6228,8.68229 -6.4252,0.0838583 -12.3059,-3.04961 -16.7563,-8.25591l-0.533859 0.00590552 -1.83425 0.0236221c-4.36772,5.31851 -10.1976,8.60198 -16.6217,8.68347 -6.42638,0.0814961 -12.3071,-3.05197 -16.7587,-8.25827l-1.06063 0.0129921 5.0504 638.415z"/>
   <polygon id="_224116784" class="fil5" points="1236.19,1046.71 1236.77,1046.7 1272.47,1046.24 1271.71,950.578 1235.93,951.034 1235.43,951.041 "/>
   <polygon id="_224113760" class="fil6" points="1201.05,1047.16 1201.63,1047.15 1236.19,1046.71 1235.43,951.041 1200.79,951.481 1200.29,951.489 "/>
   <polygon id="_224109080" class="fil5" points="1165.9,1047.6 1166.49,1047.59 1201.05,1047.16 1200.29,951.489 1165.64,951.929 1165.14,951.936 "/>
   <polygon id="_224110352" class="fil6" points="1129.63,1048.06 1165.9,1047.6 1165.14,951.936 1128.87,952.398 "/>
   <polygon id="_224103824" class="fil2" points="1031.45,255.998 1104.31,407.829 1102.33,420.479 964.084,422.903 961.016,409.654 "/>
   <path id="_224100752" class="fil4" d="M1031.45 255.998l22.6571 47.2181c-6.40867,4.13504 -13.6465,6.51024 -21.3236,6.60827 -8.23347,0.105118 -16.0051,-2.42008 -22.8201,-6.95434l21.4866 -46.8721z"/>
   <path id="_224129912" class="fil4" d="M1001.85 1130.73l73.0382 -0.929528c19.1953,-0.244488 34.7422,-20.3776 34.5496,-44.7355l-0.307087 -38.8229 -142.838 1.82008 0.307087 38.8229c0.19252,24.3603 16.0547,44.0894 35.25,43.8449z"/>
   <path id="_224100824" class="fil4" d="M1072.86 1046.71l0.584646 -0.00590552 35.6894 -0.455906 -5.04922 -638.413 -0.858662 0.0106299c-4.3689,5.31851 -10.2,8.60079 -16.6264,8.68229 -6.42402,0.0814961 -12.3036,-3.05079 -16.7551,-8.25591l-2.03504 0.0248032 -0.333071 0.00354331c-4.3689,5.31851 -10.1976,8.60198 -16.6228,8.68347 -6.4252,0.0826772 -12.3059,-3.05079 -16.7587,-8.25709l-1.42913 0.0177165 -1.23071 0.0153543c-4.36772,5.31969 -10.1976,8.60079 -16.6228,8.68229 -6.42638,0.0838583 -12.3059,-3.04961 -16.7575,-8.25591l-0.532678 0.00590552 -1.83425 0.0236221c-4.36772,5.31851 -10.1976,8.60198 -16.6228,8.68347 -6.4252,0.0814961 -12.3071,-3.05197 -16.7575,-8.25827l-1.06063 0.0129921 5.04922 638.415 36.2752 -0.461811 0.587008 -0.00826772 34.5567 -0.43937 0.585827 -0.00708662 34.5591 -0.441733z"/>
   <polygon id="_224099144" class="fil5" points="1072.85,1046.71 1073.44,1046.7 1109.13,1046.24 1108.37,950.578 1072.6,951.034 1072.1,951.041 "/>
   <polygon id="_224099936" class="fil6" points="1037.71,1047.16 1038.3,1047.15 1072.85,1046.71 1072.1,951.041 1037.45,951.481 1036.95,951.489 "/>
   <polygon id="_224101352" class="fil5" points="1002.57,1047.6 1003.15,1047.59 1037.71,1047.16 1036.95,951.489 1002.31,951.929 1001.81,951.936 "/>
   <polygon id="_224102096" class="fil6" points="966.291,1048.06 1002.57,1047.6 1001.81,951.936 965.534,952.398 "/>
   <polygon id="_224108384" class="fil2" points="868.118,255.998 940.971,407.829 938.997,420.479 800.749,422.903 797.682,409.654 "/>
   <path id="_224104064" class="fil8" d="M868.118 255.998l22.6559 47.2181c-6.40749,4.13504 -13.6453,6.51024 -21.3225,6.60827 -8.23347,0.105118 -16.0051,-2.42008 -22.8201,-6.95434l21.4866 -46.8721z"/>
   <path id="_224108144" class="fil4" d="M838.514 1130.73l73.0382 -0.929528c19.1953,-0.244488 34.7422,-20.3776 34.5496,-44.7355l-0.307087 -38.8229 -142.838 1.82008 0.305906 38.8229c0.193701,24.3603 16.0559,44.0894 35.2512,43.8449z"/>
   <path id="_224109368" class="fil8" d="M909.519 1046.71l0.584646 -0.00590552 35.6906 -0.455906 -5.0504 -638.413 -0.858662 0.0106299c-4.36772,5.31851 -10.1988,8.60079 -16.6252,8.68229 -6.42402,0.0814961 -12.3036,-3.05079 -16.7551,-8.25591l-2.03504 0.0248032 -0.334252 0.00354331c-4.36772,5.31851 -10.1965,8.60198 -16.6217,8.68347 -6.4252,0.0826772 -12.3059,-3.05079 -16.7587,-8.25709l-1.43032 0.0177165 -1.23071 0.0153543c-4.36654,5.31969 -10.1965,8.60079 -16.6217,8.68229 -6.42638,0.0838583 -12.3059,-3.04961 -16.7575,-8.25591l-0.533859 0.00590552 -1.83307 0.0236221c-4.3689,5.31851 -10.1988,8.60198 -16.6228,8.68347 -6.42638,0.0814961 -12.3071,-3.05197 -16.7587,-8.25827l-1.06063 0.0129921 5.0504 638.415 36.2752 -0.461811 0.585827 -0.00826772 34.5579 -0.43937 0.584646 -0.00708662 34.5591 -0.441733z"/>
   <polygon id="_224110712" class="fil5" points="909.519,1046.71 910.105,1046.7 945.794,1046.24 945.039,950.578 909.261,951.034 908.762,951.041 "/>
   <polygon id="_224112560" class="fil6" points="874.375,1047.16 874.961,1047.15 909.519,1046.71 908.762,951.041 874.117,951.481 873.618,951.489 "/>
   <polygon id="_224114768" class="fil5" points="839.231,1047.6 839.816,1047.59 874.375,1047.16 873.618,951.489 838.972,951.929 838.475,951.936 "/>
   <polygon id="_224118320" class="fil6" points="802.957,1048.06 839.231,1047.6 838.475,951.936 802.199,952.398 "/>
   <polygon id="_224117528" class="fil2" points="704.783,255.998 777.635,407.829 775.661,420.479 637.414,422.903 634.347,409.654 "/>
   <path id="_224125040" class="fil9" d="M704.782 255.998l22.6571 47.2181c-6.40867,4.13504 -13.6465,6.51024 -21.3225,6.60827 -8.23347,0.105118 -16.0051,-2.42008 -22.8213,-6.95434l21.4866 -46.8721z"/>
   <path id="_224120648" class="fil4" d="M675.179 1130.73l73.0371 -0.929528c19.1965,-0.244488 34.7433,-20.3776 34.5508,-44.7355l-0.307087 -38.8229 -142.839 1.82008 0.307087 38.8229c0.19252,24.3603 16.0547,44.0894 35.2512,43.8449z"/>
   <path id="_224121944" class="fil9" d="M746.184 1046.71l0.584646 -0.00590552 35.6906 -0.455906 -5.0504 -638.413 -0.858662 0.0106299c-4.36772,5.31851 -10.2,8.60079 -16.6252,8.68229 -6.4252,0.0814961 -12.3047,-3.05079 -16.7551,-8.25591l-2.03622 0.0248032 -0.333071 0.00354331c-4.36772,5.31851 -10.1965,8.60198 -16.6228,8.68347 -6.42402,0.0826772 -12.3047,-3.05079 -16.7575,-8.25709l-1.43032 0.0177165 -1.23071 0.0153543c-4.36654,5.31969 -10.1965,8.60079 -16.6228,8.68229 -6.4252,0.0838583 -12.3047,-3.04961 -16.7563,-8.25591l-0.533859 0.00590552 -1.83307 0.0236221c-4.3689,5.31851 -10.1988,8.60198 -16.6228,8.68347 -6.42638,0.0814961 -12.3071,-3.05197 -16.7587,-8.25827l-1.06063 0.0129921 5.0504 638.415 36.2752 -0.461811 0.585827 -0.00826772 34.5579 -0.43937 0.584646 -0.00708662 34.5591 -0.441733z"/>
   <polygon id="_224123768" class="fil5" points="746.183,1046.71 746.769,1046.7 782.46,1046.24 781.703,950.578 745.925,951.034 745.427,951.041 "/>
   <polygon id="_224126696" class="fil6" points="711.04,1047.16 711.625,1047.15 746.183,1046.71 745.427,951.041 710.781,951.481 710.284,951.489 "/>
   <polygon id="_224126912" class="fil5" points="675.896,1047.6 676.482,1047.59 711.04,1047.16 710.284,951.489 675.637,951.929 675.14,951.936 "/>
   <polygon id="_224129720" class="fil6" points="639.621,1048.06 675.896,1047.6 675.14,951.936 638.865,952.398 "/>
   <polygon id="_224129648" class="fil2" points="541.447,255.998 614.3,407.829 612.326,420.479 474.078,422.903 471.011,409.654 "/>
   <path id="_224128232" class="fil10" d="M541.447 255.998l22.6571 47.2181c-6.40867,4.13504 -13.6465,6.51024 -21.3236,6.60827 -8.23347,0.105118 -16.0051,-2.42008 -22.8201,-6.95434l21.4866 -46.8721z"/>
   <path id="_224124416" class="fil4" d="M511.844 1130.73l73.0371 -0.929528c19.1965,-0.244488 34.7433,-20.3776 34.5496,-44.7355l-0.307087 -38.8229 -142.838 1.82008 0.307087 38.8229c0.19252,24.3603 16.0547,44.0894 35.2512,43.8449z"/>
   <path id="_224121656" class="fil10" d="M582.85 1046.71l0.584646 -0.00590552 35.6894 -0.455906 -5.04922 -638.413 -0.858662 0.0106299c-4.3689,5.31851 -10.2,8.60079 -16.6252,8.68229 -6.4252,0.0814961 -12.3047,-3.05079 -16.7563,-8.25591l-2.03504 0.0248032 -0.333071 0.00354331c-4.3689,5.31851 -10.1965,8.60198 -16.6228,8.68347 -6.42402,0.0826772 -12.3059,-3.05079 -16.7587,-8.25709l-1.42913 0.0177165 -1.23071 0.0153543c-4.36654,5.31969 -10.1965,8.60079 -16.6228,8.68229 -6.42638,0.0838583 -12.3059,-3.04961 -16.7563,-8.25591l-0.533859 0.00590552 -1.83425 0.0236221c-4.36772,5.31851 -10.1976,8.60198 -16.6228,8.68347 -6.4252,0.0814961 -12.3059,-3.05197 -16.7575,-8.25827l-1.06063 0.0129921 5.04922 638.415 36.2752 -0.461811 0.587008 -0.00826772 34.5567 -0.43937 0.585827 -0.00708662 34.5591 -0.441733z"/>
   <polygon id="_224116232" class="fil5" points="582.848,1046.71 583.434,1046.7 619.125,1046.24 618.368,950.578 582.59,951.034 582.093,951.041 "/>
   <polygon id="_224106872" class="fil6" points="547.705,1047.16 548.291,1047.15 582.848,1046.71 582.093,951.041 547.446,951.481 546.948,951.489 "/>
   <polygon id="_224102984" class="fil5" points="512.561,1047.6 513.147,1047.59 547.705,1047.16 546.948,951.489 512.302,951.929 511.804,951.936 "/>
   <polygon id="_224100704" class="fil6" points="476.286,1048.06 512.561,1047.6 511.804,951.936 475.529,952.398 "/>
   <polygon id="_224102720" class="fil2" points="1521.46,255.998 1594.31,407.829 1592.34,420.479 1454.09,422.903 1451.02,409.654 "/>
   <path id="_224121704" class="fil11" d="M1521.46 255.998l22.6571 47.2181c-6.40867,4.13504 -13.6465,6.51024 -21.3236,6.60827 -8.23347,0.105118 -16.0051,-2.42008 -22.8201,-6.95434l21.4866 -46.8721z"/>
   <path id="_224125856" class="fil4" d="M1491.85 1130.73l73.0382 -0.929528c19.1953,-0.244488 34.7422,-20.3776 34.5496,-44.7355l-0.307087 -38.8229 -142.838 1.82008 0.307087 38.8229c0.19252,24.3603 16.0547,44.0894 35.25,43.8449z"/>
   <path id="_218050400" class="fil11" d="M1562.86 1046.71l0.585827 -0.00590552 35.6894 -0.455906 -5.04922 -638.413 -0.858662 0.0106299c-4.3689,5.31851 -10.2,8.60079 -16.6264,8.68229 -6.42402,0.0814961 -12.3036,-3.05079 -16.7551,-8.25591l-2.03504 0.0248032 -0.333071 0.00354331c-4.3689,5.31851 -10.1976,8.60198 -16.6228,8.68347 -6.4252,0.0826772 -12.3059,-3.05079 -16.7587,-8.25709l-1.42913 0.0177165 -1.23071 0.0153543c-4.36772,5.31969 -10.1976,8.60079 -16.6228,8.68229 -6.42638,0.0838583 -12.3059,-3.04961 -16.7575,-8.25591l-0.533859 0.00590552 -1.83307 0.0236221c-4.36772,5.31851 -10.1976,8.60198 -16.6228,8.68347 -6.4252,0.0814961 -12.3071,-3.05197 -16.7575,-8.25827l-1.06063 0.0129921 5.04922 638.415 36.2752 -0.461811 0.587008 -0.00826772 34.5567 -0.43937 0.585827 -0.00708662 34.5579 -0.441733z"/>
   <polygon id="_218050088" class="fil5" points="1562.86,1046.71 1563.45,1046.7 1599.13,1046.24 1598.38,950.578 1562.6,951.034 1562.1,951.041 "/>
   <polygon id="_218062424" class="fil6" points="1527.72,1047.16 1528.3,1047.15 1562.86,1046.71 1562.1,951.041 1527.46,951.481 1526.96,951.489 "/>
   <polygon id="_218082464" class="fil5" points="1492.57,1047.6 1493.16,1047.59 1527.72,1047.16 1526.96,951.489 1492.31,951.929 1491.81,951.936 "/>
   <polygon id="_218054144" class="fil6" points="1456.3,1048.06 1492.57,1047.6 1491.81,951.936 1455.54,952.398 "/>
   <path id="_218076224" class="fil12" d="M387.098 511.995l0 1235.06 0 44.941 31.2697 0 1211.26 0 31.2709 0 0 -44.941 0 -1235.06 -1273.8 0zm1208.25 127.273l-1142.69 0 0 223.696 1142.69 0 0 -223.696z"/>
   <rect id="_218053472" class="fil13" x="387.098" y="1085.07" width="1273.24" height="418.933"/>
  </g>
 </g>
</svg>
