<?xml version="1.0" encoding="UTF-8"?>
<!DOCTYPE svg PUBLIC "-//W3C//DTD SVG 1.1//EN" "http://www.w3.org/Graphics/SVG/1.1/DTD/svg11.dtd">
<!-- Creator: CorelDRAW -->
<svg xmlns="http://www.w3.org/2000/svg" xml:space="preserve" width="2048px" height="2048px" style="shape-rendering:geometricPrecision; text-rendering:geometricPrecision; image-rendering:optimizeQuality; fill-rule:evenodd; clip-rule:evenodd"
viewBox="0 0 2048 2048"
 xmlns:xlink="http://www.w3.org/1999/xlink">
 <defs>
  <style type="text/css">
   <![CDATA[
    .fil0 {fill:none}
    .fil2 {fill:#C62828}
    .fil1 {fill:#E53935}
   ]]>
  </style>
 </defs>
 <g id="Layer_x0020_1">
  <metadata id="CorelCorpID_0Corel-Layer"/>
  <rect class="fil0" width="2048" height="2048"/>
  <rect class="fil0" x="255.999" y="255.999" width="1536" height="1536"/>
  <path class="fil1" d="M256.063 562.558c17.4036,358.527 503.152,761.827 746.794,953.305 158.275,106.986 345.258,231.323 542.05,221.77 91.8095,-4.4563 251.262,-235.836 247.01,-323.418 -17.0268,-61.4481 -302.951,-212.427 -388.29,-241.837 -56.0126,-7.99961 -182.615,95.6788 -208.056,103.501 -32.9551,1.59921 -426.898,-353.181 -445.665,-401.613 -7.10552,-18.2953 115.054,-177.721 74.5099,-250.853 -28.4929,-51.3378 -181.706,-264.585 -226.399,-308.856 -152.385,-38.0067 -346.028,164.085 -341.954,248.001z"/>
  <path class="fil2" d="M1714.05 1593.64c12.4063,-17.7945 23.9268,-36.0614 34.102,-54.0567l-491.154 -301.467c-28.0902,18.411 -51.1819,34.3028 -60.9284,37.5898l517.98 317.934z"/>
  <path class="fil2" d="M749.651 871.66c0.670867,-9.40631 14.3339,-33.3673 30.4016,-63.6437l-368.156 -447.545c-17.9032,11.6799 -35.015,24.7914 -50.9103,38.713l388.664 472.476z"/>
  <line class="fil0" x1="1216" y1="1280" x2="1727.99" y2= "1572.87" />
 </g>
</svg>
