<?xml version="1.0" encoding="UTF-8"?>
<!DOCTYPE svg PUBLIC "-//W3C//DTD SVG 1.1//EN" "http://www.w3.org/Graphics/SVG/1.1/DTD/svg11.dtd">
<!-- Creator: CorelDRAW -->
<svg xmlns="http://www.w3.org/2000/svg" xml:space="preserve" width="2048px" height="2048px" style="shape-rendering:geometricPrecision; text-rendering:geometricPrecision; image-rendering:optimizeQuality; fill-rule:evenodd; clip-rule:evenodd"
viewBox="0 0 2048 2048"
 xmlns:xlink="http://www.w3.org/1999/xlink">
 <defs>
  <style type="text/css">
   <![CDATA[
    .fil0 {fill:none}
    .fil2 {fill:#33691E}
    .fil4 {fill:#616161}
    .fil3 {fill:#689F38}
    .fil6 {fill:#4FC3F7;fill-rule:nonzero}
    .fil1 {fill:#757575;fill-rule:nonzero}
    .fil5 {fill:#81D4FA;fill-rule:nonzero}
   ]]>
  </style>
 </defs>
 <g id="Layer_x0020_1">
  <metadata id="CorelCorpID_0Corel-Layer"/>
  <rect class="fil0" width="2048" height="2048"/>
  <rect class="fil0" x="255.999" y="255.999" width="1536" height="1536"/>
  <path class="fil1" d="M1590.11 488.047l57.0071 0 0 190.023 -683.598 124.895c-20.4083,3.64961 -35.2205,21.5339 -35.2205,42.2055l0 183.839 -43.565 0c-31.5803,0 -57.15,25.5591 -57.15,57.2918l287.524 0c0,-31.5815 -25.7209,-57.2918 -57.2717,-57.2918l-43.5851 0 0 -148.07 683.588 -124.763c20.3776,-3.78071 35.1898,-21.5232 35.1898,-42.1855l0 -268.818c0,-23.7543 -19.2827,-42.8953 -43.0264,-42.8953l-99.893 0c0,-395.464 0,520.203 0,85.7705z"/>
  <path class="fil2" d="M879.51 1024l188.685 0c33,0 59.9989,27 59.9989,59.9989l0 636.686c0,32.9988 -27,59.9989 -59.9989,59.9989l-188.685 0c-32.9988,0 -59.9989,-26.9988 -59.9989,-59.9989l0 -636.686c0,-33 26.9988,-59.9989 59.9989,-59.9989z"/>
  <path class="fil3" d="M879.51 1024l188.685 0c33,0 59.9989,27 59.9989,59.9989l0 135.775 -308.683 0 0 -135.775c0,-33 26.9988,-59.9989 59.9989,-59.9989z"/>
  <rect class="fil4" x="1568" y="377.653" width="44.6398" height="132.776"/>
  <path class="fil5" d="M1590.11 313.292c0,-31.7233 -25.6807,-57.2918 -57.2516,-57.2918l-1160.58 0c-11.8819,0 -22.9335,3.64961 -32.0067,9.79371 -6.15355,4.19646 -11.3043,9.32717 -15.5221,15.4914 -6.12402,9.08387 -9.77363,20.1343 -9.77363,32.0067l0 263.779c0,11.8725 3.64961,22.8827 9.77363,31.976 4.21772,6.1441 9.36851,11.335 15.5221,15.5221 9.07324,6.1441 20.1248,9.75355 32.0067,9.75355l1160.58 0c31.5709,0 57.2516,-25.5697 57.2516,-57.2516l0 -89.0245 0 -85.7705 0 -88.9843z"/>
  <g id="_218054696">
   <path id="_218064296" class="fil6" d="M1567.82 267.919c-9.67914,-7.4752 -21.8103,-11.9185 -34.9677,-11.9185l-1160.58 0c-11.8819,0 -22.9335,3.64961 -32.0067,9.79371 -6.15355,4.19646 -11.3043,9.32717 -15.5221,15.4914 -6.12402,9.08387 -9.77363,20.1343 -9.77363,32.0067l0 47.9965c3.0874,-0.865749 6.0378,-2.03032 8.7189,-3.65551 29.739,-17.824 56.9563,-25.0264 82.8804,-26.341 0,0.855119 -0.13937,1.5815 -0.13937,2.32914l0 95.2548c0,24.6307 20.4626,45.2445 45.1902,45.2445 24.6201,0 45.202,-20.6138 45.202,-45.2445l0 -84.3544c45.5103,11.915 91.6099,25.6347 146.087,11.915 11.1874,-2.78977 20.7614,-4.7126 29.8878,-6.04843 -10.441,26.661 2.8311,63.6449 40.2107,63.6449 26.0528,0 40.35,-18.1441 43.1386,-37.9996 15.0461,27.9768 16.6701,73.317 43.4705,121.2 20.8807,37.3902 68.8926,23.2524 82.591,-10.8886 25.037,-62.0209 -3.54803,-113.41 14.7354,-175.11 25.187,0.897638 51.528,-1.77402 77.8902,-5.14016 57.4477,21.7996 113.997,32.4012 176.979,31.6311 102.66,-1.01575 141.525,20.9339 185.55,119.276 19.2992,42.7217 84.2575,19.3099 84.4075,-22.8036 0.11811,-42.8504 12.2032,-83.9481 17.4921,-126.212 17.2264,-4.40315 34.7516,-7.95119 52.7351,-9.57402 21.0414,-1.8815 34.4516,-15.3024 40.1788,-31.2036 11.9587,0.438189 23.8736,1.04764 35.8193,1.61339 -0.0507874,-0.303544 -0.109843,-0.604725 -0.178347,-0.903544z"/>
   <path id="_218075048" class="fil6" d="M1069.28 439.302c55.3347,0 55.3347,85.7906 0,85.7906 -55.3252,0 -55.3252,-85.7906 0,-85.7906z"/>
  </g>
 </g>
</svg>
