<?xml version="1.0" encoding="UTF-8"?>
<!DOCTYPE svg PUBLIC "-//W3C//DTD SVG 1.1//EN" "http://www.w3.org/Graphics/SVG/1.1/DTD/svg11.dtd">
<!-- Creator: CorelDRAW -->
<svg xmlns="http://www.w3.org/2000/svg" xml:space="preserve" width="2048px" height="2048px" style="shape-rendering:geometricPrecision; text-rendering:geometricPrecision; image-rendering:optimizeQuality; fill-rule:evenodd; clip-rule:evenodd"
viewBox="0 0 2048 2048"
 xmlns:xlink="http://www.w3.org/1999/xlink">
 <defs>
  <style type="text/css">
   <![CDATA[
    .fil0 {fill:none}
    .fil9 {fill:#212121}
    .fil10 {fill:#29B6F6}
    .fil6 {fill:#303030}
    .fil8 {fill:#424242}
    .fil2 {fill:#4FC3F7}
    .fil3 {fill:#81D4FA}
    .fil1 {fill:#87C6FA}
    .fil5 {fill:#CFCFCF}
    .fil7 {fill:#E0E0E0;fill-rule:nonzero}
    .fil4 {fill:#FFFFFE;fill-rule:nonzero}
   ]]>
  </style>
 </defs>
 <g id="Layer_x0020_1">
  <metadata id="CorelCorpID_0Corel-Layer"/>
  <rect class="fil0" width="2048" height="2048"/>
  <rect class="fil0" x="224.749" y="255.999" width="1536" height="1536"/>
  <g id="_218065640">
   <path id="_218054072" class="fil1" d="M569.66 770.171c0,143.883 52.6737,273.894 137.472,366.893 119,130.507 143.851,183.675 145.537,230.235 0.209055,5.8063 0.225591,69.1938 0.225591,74.9351 121.158,0 220.591,0 341.748,0 0,-6.9756 0.0259843,-71.5808 0.392126,-78.6993 2.36103,-45.704 30.0272,-99.4666 145.833,-226.471 84.7973,-92.9989 137.472,-223.01 137.472,-366.893 0,-282.741 -203.41,-511.986 -454.313,-511.986 -250.938,0 -454.367,229.192 -454.367,511.986z"/>
   <path id="_218065232" class="fil2" d="M1024 1442.23l0.255118 0 170.387 0c0,-6.9756 0.0259843,-71.5808 0.392126,-78.6993 2.36103,-45.704 30.0272,-99.4666 145.833,-226.471 84.7973,-92.9989 137.472,-223.01 137.472,-366.893 0,-282.379 -202.891,-511.387 -453.353,-511.972 -0.320079,-0.0011811 -0.637796,-0.0141732 -0.959056,-0.0141732l-0.0271654 0 0 1184.05z"/>
   <path id="_218070440" class="fil3" d="M569.66 770.171c0,143.883 52.6737,273.894 137.472,366.893 119,130.507 143.851,183.675 145.537,230.235 0.209055,5.8063 0.225591,69.1938 0.225591,74.9351l171.105 0 0 -1184.05c-250.925,0.0165354 -454.34,229.203 -454.34,511.986z"/>
   <path id="_218053496" class="fil4" d="M854.466 793.524c-1.77874,1.87559 -4.57441,1.77047 -6.23859,-0.23504 -1.66417,-2.00551 -1.57087,-5.15552 0.207874,-7.03111 0.394488,-0.415748 3.46181,-3.84803 7.20473,-8.03741 3.75,-4.19528 8.20512,-9.1819 11.589,-12.9201 8.36339,-9.23741 17.8477,-16.3158 28.0193,-18.9189 9.04843,-2.31496 18.5103,-1.10669 28.0453,5.19331 2.24764,1.48583 4.4315,3.19725 6.51142,5.0752 1.29213,-1.91929 2.83819,-3.60118 4.57914,-5.04331 5.39764,-4.4752 12.7606,-6.66733 20.0421,-6.63544 7.27087,0.0318898 14.5949,2.28543 19.9228,6.70158 1.48347,1.22953 2.82166,2.62914 3.97559,4.19528 0.569292,-0.442914 1.14449,-0.868111 1.72795,-1.27323 6.2941,-4.37481 13.3831,-6.56339 20.4721,-6.56457l0 -0.0200788c7.07245,0 14.1602,2.19567 20.4744,6.58347 0.584646,0.4063 1.16102,0.831497 1.73032,1.27559 1.12913,-1.52835 2.43898,-2.89488 3.89174,-4.10079 5.46851,-4.53189 13.0843,-6.80079 20.6126,-6.80079 7.52953,0 15.1429,2.26654 20.6138,6.80079 1.74449,1.44567 3.28347,3.12756 4.54843,5.04095 0.335433,-0.291733 0.673229,-0.577559 1.01339,-0.859843 4.72678,-3.91772 9.913,-6.96142 15.1146,-8.71182 5.42245,-1.8248 10.9122,-2.26181 16.0193,-0.870473 5.2193,1.42323 9.93544,4.7067 13.6559,10.2874 4.46103,-4.06536 9.38387,-7.34882 14.3953,-9.28938 7.62638,-2.95158 16.0335,-1.92166 24.065,1.32638 9.46654,3.82677 18.4772,10.7941 24.9083,17.7886 1.96299,2.13425 9.03898,9.97324 14.7154,16.6228 3.45,4.04292 6.43701,7.71733 7.62402,9.62363 1.40669,2.25355 0.924804,5.36811 -1.0748,6.95315 -1.99961,1.58504 -4.76339,1.04291 -6.17008,-1.21063 -0.915355,-1.47165 -3.5941,-4.74685 -6.75709,-8.45198 -5.59016,-6.54804 -12.5457,-14.2524 -14.4721,-16.3488 -5.67048,-6.16772 -13.5543,-12.2858 -21.7547,-15.6012 -6.25985,-2.5311 -12.6591,-3.39567 -18.2055,-1.24843 -4.2626,1.65 -8.49922,4.55906 -12.3437,8.1815 8.5819,16.4008 8.91024,29.6847 5.69882,38.6445 -2.39173,6.67323 -6.76536,11.0941 -11.4118,12.9059 -5.12363,1.99725 -10.5614,0.923623 -14.426,-3.58701 -4.03819,-4.71496 -6.11339,-13.252 -3.40512,-25.878 1.67008,-7.78347 6.15945,-16.3134 12.1051,-23.5583l-0.459449 -0.711024c-2.41536,-3.70158 -5.44252,-5.85591 -8.76733,-6.76182 -3.48425,-0.948426 -7.40788,-0.591733 -11.4095,0.754725 -4.22244,1.42087 -8.48386,3.93425 -12.4099,7.18819 -0.453544,0.37441 -0.900001,0.759449 -1.34173,1.15276 8.50631,16.3323 8.82402,29.5607 5.62087,38.4945 -2.39173,6.67323 -6.76536,11.0941 -11.4106,12.9059 -5.12481,1.99725 -10.5626,0.924804 -14.4272,-3.58701 -4.03819,-4.71496 -6.11339,-13.252 -3.40512,-25.878 1.80827,-8.42717 6.26693,-16.6854 12.098,-23.5677l-0.452363 -0.701575c-0.72756,-1.11378 -1.64764,-2.11772 -2.71299,-3 -3.89882,-3.2315 -9.59765,-4.84725 -15.3791,-4.84725 -5.78268,0 -11.4815,1.61811 -15.378,4.84725 -0.93189,0.772442 -1.75276,1.63701 -2.43071,2.58662 5.13898,6.22087 9.1689,14.452 11.3634,24.6827 2.70827,12.626 0.633071,21.163 -3.40394,25.878 -3.86339,4.51063 -9.30355,5.58308 -14.4272,3.58701 -4.64528,-1.81181 -9.0189,-6.23268 -11.4106,-12.9059 -3.27047,-9.1252 -2.8689,-22.7362 6.18426,-39.5575 -0.453544,-0.354331 -0.912993,-0.693308 -1.37717,-1.01575 -4.85315,-3.37205 -10.3347,-5.05985 -15.8291,-5.05985l0 -0.0200788c-5.47323,0 -10.9559,1.69488 -15.8268,5.08111 -0.462992,0.322441 -0.923623,0.660237 -1.3748,1.01339 9.05316,16.8213 9.45709,30.4323 6.18544,39.5575 -2.39173,6.67323 -6.76536,11.0941 -11.4106,12.9059 -5.12481,1.99843 -10.5638,0.923623 -14.4272,-3.58701 -4.03937,-4.71378 -6.11339,-13.2508 -3.40512,-25.8768 2.19449,-10.2307 6.22441,-18.463 11.3634,-24.6839 -0.702756,-0.988583 -1.55197,-1.88386 -2.51457,-2.6811 -3.80433,-3.15355 -9.22796,-4.76457 -14.7236,-4.78819 -5.48977,-0.0236221 -10.9299,1.53662 -14.7721,4.72205 -1.10906,0.918898 -2.0752,1.9748 -2.85,3.16181l-0.434646 0.672048c1.02874,1.24606 2.0126,2.52638 2.94095,3.83032 4.50827,6.33308 7.81772,13.3299 9.15709,19.8248 2.61851,12.6886 0.459449,21.2516 -3.6378,25.9571 -3.87992,4.45512 -9.29056,5.49804 -14.3764,3.4937 -4.61457,-1.81772 -8.94331,-6.22914 -11.3091,-12.874 -3.19725,-8.97638 -2.84528,-22.298 5.77087,-38.7402 -1.92992,-1.80236 -3.96378,-3.42756 -6.05788,-4.81181 -7.39607,-4.88622 -14.6882,-5.83583 -21.6331,-4.05945 -8.40119,2.15079 -16.4776,8.26418 -23.7555,16.3016 -3.40394,3.76063 -7.82835,8.713 -11.5524,12.8799 -3.53386,3.95551 -6.4193,7.18583 -7.41497,8.23347zm77.9103 -19.9547c-0.320079,-0.45 -0.648426,-0.897638 -0.983859,-1.34055 -5.92678,12.1902 -6.27402,21.5882 -4.0689,27.7807 1.35118,3.79252 3.63898,6.23859 6.00591,7.17166 1.89331,0.746457 3.84095,0.437008 5.15552,-1.07244 2.17205,-2.49449 3.14528,-7.86733 1.31457,-16.7374 -1.03347,-5.0126 -3.71929,-10.598 -7.42323,-15.802zm48.9178 26.3634c2.2878,-6.38386 1.86496,-16.1669 -4.60512,-28.9051 -3.47953,4.8 -6.22441,10.9323 -7.82599,18.4016 -1.88386,8.78032 -0.956694,14.1189 1.18701,16.6193 1.30158,1.52008 3.25866,1.83307 5.16969,1.0878 2.39173,-0.93189 4.70788,-3.38859 6.07441,-7.20355zm50.8985 -10.5036c-1.60276,-7.4693 -4.34646,-13.6016 -7.82599,-18.4004 -6.47008,12.7382 -6.8941,22.5213 -4.60512,28.9051 1.36772,3.81496 3.68504,6.27166 6.07441,7.20355 1.91221,0.744095 3.86811,0.432284 5.16969,-1.0878 2.14252,-2.50158 3.06969,-7.83898 1.18701,-16.6205zm42.515 10.5047c2.21693,-6.18426 1.88858,-15.5599 -4.01693,-27.7193 -4.07126,5.23465 -7.12441,11.2063 -8.41418,17.2146 -1.88268,8.7815 -0.954331,14.1189 1.18819,16.6205 1.30158,1.52008 3.25748,1.83307 5.16969,1.0878 2.38937,-0.93189 4.7067,-3.38859 6.07323,-7.20355zm45.9059 0c2.21221,-6.17245 1.88858,-15.5244 -3.98504,-27.6508 -4.18819,5.55827 -7.27205,11.6717 -8.44607,17.1461 -1.88386,8.7815 -0.956694,14.1189 1.18583,16.6205 1.30039,1.5189 3.25748,1.83307 5.17087,1.0878 2.39055,-0.93189 4.70788,-3.38859 6.07441,-7.20355z"/>
   <path id="_218070320" class="fil5" d="M1194.38 1629.8l0 85.9194c0,23.1496 -16.8118,42.0945 -37.3536,42.0945l-266.048 0c-20.5417,0 -37.3536,-18.9425 -37.3536,-42.0945l0 -85.9194 340.755 0z"/>
   <path id="_218073200" class="fil6" d="M825.225 1437.8l397.549 0 0 142.001c0,21.1618 -11.8252,42.3319 -28.3961,49.5969l0 0.318898 0 0.0838583 -340.755 0 0 -0.402756c-0.501969,-0.219685 -0.999213,-0.452363 -1.49173,-0.698032 -15.7843,-7.84843 -26.9055,-28.3748 -26.9055,-48.8989l0 -142.001z"/>
   <path id="_218077664" class="fil7" d="M883.372 774.884c-2.20984,-6.5693 -1.65473,-15.9614 1.23898,-20.9764 2.89252,-5.01496 7.02993,-3.75591 9.23859,2.81339 39.8658,118.448 40.4551,318.99 41.0445,519.528 0.16063,54.3071 0.320079,108.619 1.27913,161.554l-13.1823 0c-0.936615,-52.4197 -1.09724,-106.93 -1.25787,-161.436 -0.574016,-195.457 -1.14921,-390.918 -38.3611,-501.483z"/>
   <path id="_218068280" class="fil7" d="M1154.15 756.721c2.20866,-6.5693 6.34607,-7.82835 9.23859,-2.81339 2.8937,5.01496 3.44882,14.4071 1.23898,20.9764 -37.2118,110.565 -37.787,306.026 -38.3611,501.483 -0.16063,54.5056 -0.32126,109.016 -1.25787,161.436l-13.1823 0c0.959056,-52.9347 1.1185,-107.247 1.27913,-161.554 0.589371,-200.538 1.17874,-401.08 41.0445,-519.528z"/>
   <rect id="_218077976" class="fil8" x="796.313" y="1469.8" width="457.629" height="31.9996" rx="16.0004" ry="16.0004"/>
   <rect id="_218055752" class="fil8" x="796.313" y="1533.8" width="457.629" height="31.9996" rx="16.0004" ry="16.0004"/>
   <path id="_218050808" class="fil9" d="M911.482 1757.82l55.1835 0 0 15.998c0,8.79922 -7.19882,15.998 -15.998,15.998l-23.1874 0c-8.79804,0 -15.998,-7.19882 -15.998,-15.998l0 -15.998z"/>
   <path id="_218063864" class="fil9" d="M1081.33 1757.82l55.1823 0 0 15.998c0,8.79922 -7.19764,15.998 -15.998,15.998l-23.1862 0c-8.79922,0 -15.998,-7.19882 -15.998,-15.998l0 -15.998z"/>
   <path id="_218051216" class="fil10" d="M949.437 1245.8l149.126 0c20.8347,0 37.8803,17.0457 37.8803,37.8803l0 154.12 -224.887 0 0 -154.12c0,-20.8347 17.0457,-37.8803 37.8803,-37.8803z"/>
  </g>
 </g>
</svg>
