<?xml version="1.0" encoding="UTF-8"?>
<!DOCTYPE svg PUBLIC "-//W3C//DTD SVG 1.1//EN" "http://www.w3.org/Graphics/SVG/1.1/DTD/svg11.dtd">
<!-- Creator: CorelDRAW -->
<svg xmlns="http://www.w3.org/2000/svg" xml:space="preserve" width="6.82666in" height="6.82666in" style="shape-rendering:geometricPrecision; text-rendering:geometricPrecision; image-rendering:optimizeQuality; fill-rule:evenodd; clip-rule:evenodd"
viewBox="0 0 6.82666 6.82666"
 xmlns:xlink="http://www.w3.org/1999/xlink">
 <defs>
  <style type="text/css">
   <![CDATA[
    .fil7 {fill:none}
    .fil0 {fill:#424242}
    .fil4 {fill:black;fill-rule:nonzero}
    .fil3 {fill:#182A33;fill-rule:nonzero}
    .fil1 {fill:#263238;fill-rule:nonzero}
    .fil6 {fill:#37474F;fill-rule:nonzero}
    .fil2 {fill:#546E7A;fill-rule:nonzero}
    .fil5 {fill:white;fill-rule:nonzero}
   ]]>
  </style>
 </defs>
 <g id="Layer_x0020_1">
  <metadata id="CorelCorpID_0Corel-Layer"/>
  <line class="fil0" x1="3.20968" y1="0.964177" x2="3.20968" y2= "0.964177" />
  <line class="fil0" x1="1.66989" y1="5.8115" x2="1.66989" y2= "5.8115" />
  <g id="_215563440">
   <path id="_215564232" class="fil1" d="M5.15706 3.33788c0.0225827,0.377386 -0.242177,0.545673 -0.464366,0.597504 -0.222169,0.0519134 -0.0683583,-0.137047 -0.0683583,-0.137047 0.0952087,-0.187535 0.0520945,-0.455437 0.0520945,-0.455437l0.00348819 -3.54331e-005 0.00159843 1.1811e-005c0.111783,0.00100394 0.225776,0.00212598 0.266858,0.0012874 0.0199685,-0.000409449 0.0662913,-0.00380315 0.127929,-0.00542126l0.00141339 -1.5748e-005 0.0793425 -0.000846457z"/>
   <line id="_215564616" class="fil0" x1="4.74041" y1="4.4306" x2="4.74041" y2= "4.4306" />
   <path id="_215564448" class="fil1" d="M5.88602 3.2232c-0.00309449,-0.00324016 -0.0315866,-0.0325945 -0.0805354,-0.0737323l0.0805354 0.0737323zm0.000318898 0.000295276l0 0c0.0565394,0.110083 0.0753701,0.187138 0.0491378,0.227898 -0.000913386,-0.0121457 -0.010815,-0.0821969 -0.11726,-0.120016 -0.116886,-0.0415787 -0.226118,-0.177146 -0.273563,-0.250169 -0.0475039,-0.0730551 -0.122185,-0.337957 -0.451598,-0.1625 0,0 -0.208209,0.0857008 -0.362417,0.0563504 0,0 -0.759626,0.286449 -1.27719,0.17498 0,0 -0.0621417,-0.0165945 0.0717717,-0.0603701 0.106732,-0.0348071 0.41428,-0.186913 0.448287,-0.236409 0,0 -0.491972,0.0573465 -0.741059,0.153472 -0.249059,0.0960787 -0.603961,0.386039 -0.323654,0.392016 -0.298697,0.0798228 -0.718008,0.44998 -0.830535,0.566429 -0.112531,0.116453 -0.0205669,0.17202 0.117972,0.442638 0.138543,0.270618 -0.015815,0.548362 -0.015815,0.548362 -0.0609134,-0.195626 -0.253839,-0.280217 -0.368783,-0.351921 -0.114894,-0.0716811 -0.139193,-0.16413 -0.139193,-0.16413 -0.0641575,0.0386614 -0.161567,0.0114409 -0.336732,-0.0819567 -0.175142,-0.0933189 -0.493287,-0.0189646 -0.493287,-0.0189646 0.212488,-0.497457 0.772839,-0.417673 0.877496,-0.404598 0.104598,0.0130472 0.245323,-0.351732 0.315224,-0.463122 0.0699016,-0.111386 0.349205,-0.512563 0.704224,-0.808539 0.354992,-0.296059 0.482012,-0.313894 0.732988,-0.435701 0.251051,-0.121835 0.194768,-0.212697 0.148075,-0.260906 -0.0467756,-0.0481772 -0.019937,-0.0790827 0.137209,-0.0949764 0.157173,-0.0159449 0.364484,0.189445 0.364484,0.189445 0,0 0.143831,-0.0115 0.390461,0.00241339 0.24663,0.0139173 0.682571,0.119535 1.18614,0.486472 0.503642,0.366909 0.187614,0.673803 0.187614,0.673803zm-0.480012 -0.43937l0 0c-0.00142913,-0.00152362 -0.00246063,-0.00251575 -0.00314961,-0.00286614l0.00314961 0.00286614zm0.3985 0.364803l0 0 -0.398472 -0.36472c0.0212874,0.0234252 0.124047,0.175937 0.223823,0.238075 0.0719016,0.0447126 0.131232,0.090252 0.17465,0.126646zm-0.44085 -0.457071l0 0c0.00679134,-0.013374 -0.00318898,-0.0319921 -0.0222441,-0.0416654 -0.0190551,-0.00967717 -0.0399724,-0.00674409 -0.0467638,0.00663386 -0.00676378,0.0133228 0.00318504,0.0319921 0.0222441,0.0416693 0.0190551,0.00967323 0.04,0.00668898 0.0467638,-0.0066378zm-0.514744 -0.241291l0 0c0.166224,0.0144882 0.474992,0.0243661 0.387693,-0.066689 -0.0872992,-0.0910512 -0.129602,-0.139228 -0.342248,-0.193776 -0.21265,-0.0545472 -0.414957,-0.0768701 -0.795528,-0.0899567 0,0 -0.0923661,-0.0942244 -0.221299,-0.14272 -0.128902,-0.0485512 -0.208933,-0.0224173 -0.187945,0.0282953 0.0209882,0.0507126 0.0178858,0.122575 -0.0437677,0.191417 -0.0616535,0.0688425 -0.426555,0.242878 -0.49074,0.290409 -0.064189,0.0475276 -0.442748,0.298398 -0.52235,0.376953 -0.0955433,0.0942992 -0.422807,0.467122 -0.509567,0.609209 0,0 -0.0726732,0.130012 -0.0861496,0.156551 -0.0134724,0.0265394 0.109508,-0.0579016 0.187248,-0.145283 0.0777441,-0.087378 0.549256,-0.569031 0.818819,-0.679201 0.269567,-0.110165 0.83222,-0.258472 0.984028,-0.268193 0.151811,-0.00972047 0.65561,-0.0815551 0.821807,-0.0670157zm-3.14709 1.86964l0 0c0.113504,0.102823 0.230331,0.166606 0.211732,0.0608268 -0.0215866,-0.122917 -0.0616654,-0.255295 -0.200823,-0.321264 0,0 -0.142957,-0.0492756 -0.28828,-0.020374 -0.0860709,0.017126 -0.277764,0.0876457 -0.238913,0.121323 0.038878,0.0337559 0.410827,0.0639606 0.516283,0.159488z"/>
   <path id="_215563608" class="fil2" d="M5.81822 3.33138c0.106445,0.0378189 0.116346,0.10787 0.11726,0.120016 -0.0338976,0.0528268 -0.143559,0.0447559 -0.345004,-0.0309449 -0.137697,-0.0517441 -0.303429,-0.064311 -0.433421,-0.0652126 -0.0284055,-0.000200787 -0.0550315,0.000165354 -0.0793425,0.000846457l-0.00141339 1.5748e-005 -0.394787 0.00413386 -0.00159843 -1.1811e-005c-0.111224,-0.000917323 -0.219732,-0.00166142 -0.251587,-7.08661e-005 -0.0639409,0.00312205 -0.337083,-0.0198465 -0.535996,-0.00506299 -0.198882,0.0147283 -0.983528,0.0436614 -0.983528,0.0436614 -0.280307,-0.00597638 0.0624409,-0.309827 0.3115,-0.405906 0.249091,-0.096126 0.79835,-0.160417 0.79835,-0.160417 -0.0340079,0.0495 -0.386693,0.222437 -0.493425,0.257244 -0.133913,0.0437756 -0.0335709,0.0464803 -0.0335709,0.0464803 0.517559,0.111469 1.21468,-0.188866 1.21468,-0.188866 0.154205,0.0293504 0.369358,-0.0598268 0.369358,-0.0598268 0.329413,-0.175457 0.421457,0.120697 0.468961,0.193752 0.0474449,0.0730236 0.156677,0.208591 0.273563,0.250169z"/>
   <path id="_215563920" class="fil3" d="M5.38873 2.76807l0.427157 0.362594 0.0708071 0.0942992c-0.0472559,-0.0396142 -0.176071,-0.149083 -0.254335,-0.197752 -0.108602,-0.0676378 -0.220461,-0.233642 -0.24363,-0.259142z"/>
   <path id="_215563272" class="fil4" d="M5.36169 2.62462c0.0335984,0.0170551 0.0511929,0.0498819 0.0392165,0.0734724 -0.0119252,0.0234921 -0.0488543,0.028752 -0.0824567,0.0116969 -0.0336024,-0.0170591 -0.0511457,-0.0499764 -0.0392165,-0.0734685 0.0119724,-0.0235906 0.0488543,-0.0287598 0.0824567,-0.0117008z"/>
   <path id="_215563704" class="fil5" d="M5.34701 2.65354c0.0107756,0.0054685 0.0164173,0.0159961 0.0125787,0.023563 -0.00382677,0.0075315 -0.0156693,0.00922047 -0.0264449,0.00375197 -0.0107756,-0.00547244 -0.0164016,-0.0160276 -0.0125787,-0.023563 0.00384252,-0.00756299 0.0156693,-0.00922441 0.0264449,-0.00375197z"/>
   <path id="_215563848" class="fil6" d="M5.26123 2.37694c0.0872992,0.0910512 -0.242303,0.117642 -0.408528,0.10315 -0.474114,-0.0414764 -1.36126,0.155331 -1.79715,0.333472 -0.265764,0.125366 -0.744283,0.599819 -0.8275,0.665315 -0.0777402,0.087378 -0.247598,0.206539 -0.234122,0.18 0.0134724,-0.0265394 0.112197,-0.21037 0.112197,-0.21037 0.0822913,-0.164421 0.426591,-0.533661 0.526921,-0.604 0.0796024,-0.0785551 0.444272,-0.35026 0.508461,-0.397787 0.064185,-0.0475276 0.434295,-0.204205 0.495953,-0.273043 0.0616535,-0.0688465 0.064752,-0.147654 0.0437677,-0.198366 -0.0209882,-0.0507126 0.0590354,-0.0768465 0.187941,-0.0282913 0.128933,0.0484921 0.231713,0.146193 0.231713,0.146193 0.380575,0.0130866 0.582882,0.0336693 0.795531,0.0882165 0.212646,0.0545472 0.277516,0.104461 0.364815,0.195512z"/>
   <path id="_215563368" class="fil6" d="M1.95397 4.39728c0.0206417,0.117382 -0.115945,0.0691732 -0.241894,-0.0449213 -0.11702,-0.106008 -0.522815,-0.162091 -0.565957,-0.199551 -0.0431102,-0.0373701 0.169602,-0.115626 0.265114,-0.134626 0.16126,-0.0320748 0.319894,0.0226063 0.319894,0.0226063 0.154413,0.0732047 0.198894,0.220098 0.222843,0.356492z"/>
  </g>
  <rect class="fil7" width="6.82666" height="6.82666"/>
 </g>
</svg>
