<?xml version="1.0" encoding="UTF-8"?>
<!DOCTYPE svg PUBLIC "-//W3C//DTD SVG 1.1//EN" "http://www.w3.org/Graphics/SVG/1.1/DTD/svg11.dtd">
<!-- Creator: CorelDRAW -->
<svg xmlns="http://www.w3.org/2000/svg" xml:space="preserve" width="6.82666in" height="6.82666in" style="shape-rendering:geometricPrecision; text-rendering:geometricPrecision; image-rendering:optimizeQuality; fill-rule:evenodd; clip-rule:evenodd"
viewBox="0 0 6.82666 6.82666"
 xmlns:xlink="http://www.w3.org/1999/xlink">
 <defs>
  <style type="text/css">
   <![CDATA[
    .fil5 {fill:none}
    .fil0 {fill:#3E2723}
    .fil1 {fill:#4E342E}
    .fil2 {fill:#5D4037}
    .fil4 {fill:#6D4C41}
    .fil3 {fill:#A1887F}
   ]]>
  </style>
 </defs>
 <g id="Layer_x0020_1">
  <metadata id="CorelCorpID_0Corel-Layer"/>
  <path class="fil0" d="M2.74429 1.90357c0.241606,0.0326299 0.36737,0.187661 0.507476,0.27022 -0.0919528,-0.144795 -0.218173,-0.256402 -0.390748,-0.336866 0.000271654,-0.00038189 0.000543307,-0.00076378 0.000814961,-0.00114173l-0.117543 0.0677874z"/>
  <path class="fil1" d="M1.66601 4.30099c-0.0384528,0.325925 -0.431748,0.486193 -0.417685,0.875827 0,0.0763189 0,0.152677 0,0.229039 0.027189,0.107488 0.0524764,0.216984 0.107488,0.296429 0.287976,0.0347717 0.698398,0.0468661 0.984154,0 0.0303071,-0.165374 -0.0477165,-0.222343 -0.161961,-0.242543 0.14035,-0.31778 0.306535,-0.609449 0.458098,-0.91626 0.0619567,0.00911024 0.11626,0.025689 0.172516,0.0404016 0.00142126,-0.0981535 0.0260394,-0.196063 0.0471654,-0.293346 0.00362598,-0.0332362 0.00940945,-0.0645276 0.0179488,-0.092248 -0.0700039,-0.0818976 -0.141984,-0.162094 -0.210988,-0.244961 -0.0949685,-0.114051 -0.184866,-0.232122 -0.263028,-0.358445 -0.0641142,-0.103626 -0.118386,-0.209866 -0.160799,-0.319228 -0.394874,-0.023252 -0.616819,0.125685 -0.640311,0.445961 -0.0140118,0.188362 0.0898228,0.388213 0.0674016,0.579374z"/>
  <path class="fil2" d="M2.10648 2.68578c-0.0544528,0.708484 0.460646,1.20224 0.741055,1.53604 -0.0210315,0.171205 -0.0875591,0.338504 -0.0673583,0.485043 0.0384528,0.277874 0.343031,0.464858 0.45839,0.660232 -0.102169,0.131362 -0.234394,0.267217 -0.148783,0.511984 0.272315,0.159413 0.781772,0.0867402 1.07846,0 0.105551,-0.790161 -0.0931693,-1.58513 -0.256268,-2.23666 0.114256,0.128299 0.208004,0.393579 0.256268,0.633272 0.111469,-0.0184961 0.191744,-0.0682008 0.282693,-0.10776 -0.0336929,0.126307 -0.172087,0.163909 -0.188646,0.282953 -0.0157283,0.113386 0.0898228,0.304559 0.148213,0.444583 0.0665394,0.159197 0.13811,0.308272 0.188925,0.417689 -0.0623307,0.068252 -0.169839,0.0912323 -0.242799,0.148256 -0.039315,0.0906772 -0.0356654,0.259051 0,0.350283 0.223154,0.0715906 0.624547,0.0772008 0.862299,0.0134961 0.250681,-0.701453 0.422469,-1.48182 0.498543,-2.35794 0,-0.152689 0,-0.305398 0,-0.458087 0.00757874,-0.63637 -0.410949,-0.918461 -0.875795,-1.03748 0.000559055,0.103854 -0.0300433,0.176539 -0.0266654,0.282933 -0.050252,-0.00953543 -0.0581181,0.0230315 -0.107803,0.0134961 0.0409921,0.0468543 0.142878,0.0954331 0.120984,0.161669 -0.100213,0.0078622 -0.223441,0.0637362 -0.242799,0.107791 0.12772,-0.034252 0.247567,-0.0760551 0.417953,-0.0673701 -0.0415276,0.232449 -0.154362,0.393547 -0.350319,0.471594 -0.247291,-0.064563 -0.449118,-0.282378 -0.269185,-0.552441 -0.151575,0.119866 -0.414055,0.0418346 -0.512291,-0.0808228 -0.00898819,-0.0763504 0.0435197,-0.0909724 0.0538976,-0.148224 -0.0482638,-0.0687598 -0.104972,-0.226228 -0.0404213,-0.32337 0.220059,0.00898031 0.419654,0.0384646 0.606598,0.0808346 0.0842205,-0.0592008 0.203795,-0.0833701 0.296134,-0.134728 -0.0187913,-0.138394 -0.119004,-0.19565 -0.242799,-0.229059 -0.0409764,-0.313547 -0.183866,-0.525205 -0.363787,-0.700634 -0.0221693,0 -0.0446339,0 -0.0670984,0 -0.560575,0.184976 -0.943165,0.548209 -1.25306,0.983587 0.151583,0.0909606 0.287157,0.197894 0.390748,0.336866 -0.148488,-0.0996693 -0.279587,-0.286894 -0.566173,-0.269504 -0.374201,0.0227362 -0.551882,0.423319 -0.579114,0.781488z"/>
  <path class="fil1" d="M2.63346 4.7562c-0.012815,0.124819 0.172953,0.165492 0.231004,0.272394 -0.0230315,0.0665 -0.0771811,0.101878 -0.10752,0.16165 0.0303386,0.153815 0.0632205,0.242307 0.103917,0.386028 0.0608465,0.0164764 0.136476,0.0181693 0.203075,0.0288898 0.00274016,-0.0562205 0.0154882,-0.112169 0.0395984,-0.167752 0.0286339,-0.0660118 0.0853071,-0.0754606 0.127618,-0.129902 -0.0213819,-0.027063 -0.0449055,-0.0529449 -0.0673268,-0.0771378 -0.0505079,-0.0545079 -0.102874,-0.107106 -0.152059,-0.162866 -0.0815394,-0.0924409 -0.154024,-0.192819 -0.191126,-0.308976 -0.00951181,-0.0297913 -0.0245236,-0.147437 -0.0289449,-0.179441 -0.000279528,-0.0020315 -0.00053937,-0.00406299 -0.000795276,-0.00609449 -0.0226969,-0.00451181 -0.151449,0.124854 -0.157441,0.183209z"/>
  <path class="fil0" d="M4.50454 2.18725c-0.073811,0.0123583 -0.0462953,0.0985276 -0.040126,0.161697 0.0179567,-0.0224606 0.0763504,-0.00450394 0.0940118,-0.0269567 -0.00420079,-0.0586654 -0.0404016,-0.0853386 -0.0538858,-0.13474z"/>
  <path class="fil0" d="M4.54496 2.18725c0.023878,0.0392835 0.0426772,0.0833819 0.0676457,0.121276 0.0160236,-0.0154528 0.0477402,-0.0151575 0.0808465,-0.0134843 -0.0392874,-0.0463189 -0.0718661,-0.098815 -0.148492,-0.107791z"/>
  <path class="fil3" d="M4.3612 2.41313c-0.0100276,0.00605906 -0.0204567,0.0114488 -0.0312126,0.0161732 -0.0673583,0.0295748 -0.144783,0.0320512 -0.216287,0.0185591 -0.0886496,-0.0167323 -0.189929,-0.0634685 -0.24735,-0.135169l-0.00119685 -0.00148819 -0.000220472 -0.00189764c-0.00479921,-0.0407402 0.00557874,-0.0639646 0.027937,-0.0963504 0.0115197,-0.016689 0.0212913,-0.0312087 0.0254961,-0.0511654 -0.0578346,-0.0841102 -0.0996378,-0.23713 -0.0388898,-0.328547l0.0020748 -0.00312205 0.00374803 0.000149606c0.204276,0.00833858 0.405555,0.0353346 0.604929,0.0803465 0.0857244,-0.0592008 0.196236,-0.080752 0.288102,-0.130024l0.00689764 -0.00370079 0.0708189 0.205374 -0.00774016 -0.002c-0.00122835,0.0930354 -0.0296181,0.180173 -0.0266339,0.27413l0.00026378 0.00831102 -0.00816929 -0.00155118c-0.0204646,-0.00388189 -0.0321929,-0.000858268 -0.0508898,0.00658661 -0.0140669,0.00560236 -0.0251496,0.00878346 -0.0379331,0.00884252 0.0454213,0.041874 0.130957,0.0906024 0.109575,0.15528l-0.00138976 0.00420866 -0.00441732 0.000346457c-0.0258819,0.0020315 -0.0518819,0.0071063 -0.0769134,0.0139252 -0.0359803,0.00980315 -0.120193,0.0404409 -0.151299,0.0762205 0.0117244,-0.0032126 0.023437,-0.00647244 0.0351535,-0.00973228 0.0561339,-0.0156142 0.111961,-0.0308346 0.169433,-0.0408937 0.066063,-0.011563 0.131587,-0.015815 0.198598,-0.0124016l0.00755118 0.000385827 -0.00132677 0.00744488c-0.0389173,0.217831 -0.143512,0.392614 -0.354417,0.476614l-0.0020315 0.000807087 -0.00211811 -0.000551181c-0.131457,-0.0343228 -0.270906,-0.118713 -0.322894,-0.250252 -0.0388268,-0.0982323 -0.0179213,-0.197264 0.032752,-0.284858zm0.315244 -0.273035c0.0365,-0.055622 0.0577244,-0.123205 0.0853661,-0.184303 -0.114079,0.0356732 -0.239799,0.0444409 -0.358378,0.0459173 -0.138996,0.00172835 -0.278299,-0.00648425 -0.417287,-0.00973622 0.000586614,0.0118189 0.00301575,0.0233228 0.00727165,0.0344764 0.0321142,0.0841614 0.171008,0.140075 0.243232,0.193866 0.081815,-0.0256654 0.130079,-0.0843819 0.196886,-0.132772l0.00237402 -0.00172047 0.00287795 0.000590551c0.0283701,0.00582283 0.055815,0.0142717 0.0834252,0.022878 0.0525551,0.0163858 0.0988661,0.0294843 0.154232,0.0308031zm-0.118591 0.0559252c0.0193858,0.0339173 0.0355315,0.0697953 0.0563976,0.102768 0.0169488,-0.0109567 0.0428858,-0.0117874 0.0643819,-0.0110866 -0.0350827,-0.0424724 -0.0634409,-0.0802638 -0.12078,-0.0916811zm-0.0882323 0.140461c0.0243386,-0.0125157 0.0671339,-0.00292126 0.0819252,-0.0168228 -0.00474409,-0.0510906 -0.0372677,-0.0795512 -0.0516654,-0.124657 -0.0112913,0.00275197 -0.0214331,0.00808268 -0.028378,0.0179803 -0.0190984,0.0272126 -0.00706299,0.0857087 -0.00188189,0.1235z"/>
  <path class="fil0" d="M3.96999 1.98276c-0.00113386,0.120106 0.168945,0.177268 0.262039,0.248248 0.0882087,-0.0264488 0.140205,-0.0896457 0.20685,-0.137917 0.0839213,0.0172323 0.148839,0.0537244 0.248244,0.0551575 0.0405118,-0.0603268 0.0637835,-0.138496 0.0965512,-0.206858 -0.224693,0.0755709 -0.516602,0.0479646 -0.813685,0.0413701z"/>
  <path class="fil1" d="M3.88957 3.60075c0.110524,0.403118 0.230772,0.902819 0.282992,1.38065 0.00767323,-0.0363228 0.224091,-0.0800472 0.276622,-0.0452795 -0.00630315,-0.0134685 -0.0125866,-0.0270276 -0.0188268,-0.0406614 -0.0639488,-0.140024 -0.179551,-0.331197 -0.162323,-0.444583 0.0181339,-0.119043 0.169705,-0.174008 0.206606,-0.300315 -0.0996102,0.0395591 -0.17711,0.0857913 -0.299193,0.104287 -0.0528583,-0.239693 -0.160744,-0.525803 -0.285878,-0.654102z"/>
  <path class="fil4" d="M4.13956 3.2285c0.124413,0.337957 0.327012,0.686287 0.495937,1.00288 0.00883858,0.0165669 0.0514685,0.109866 0.0627953,0.121827 0.000925197,-0.00108268 -7.87402e-005,-0.132583 0.000893701,-0.137102 0.0585354,0.158106 0.097563,0.373835 0.142858,0.493252 0.0234882,-0.0190118 0.00492913,-0.0526024 0.0509921,-0.0914685 0.032878,0.031 -0.0447992,0.294626 0.000594488,0.478772l0.00694488 0.0281732c0.0029252,0.0118622 0.0163543,0.0795276 0.0127008,0.0856181l0.00515748 -0.0166693c-0.0954882,0.11076 0.172795,-0.240646 0.149402,-0.775496l-0.00118898 -0.0271811c-0.00343701,-0.078685 0,-0.160697 0,-0.240083 0,0.0476181 0,0.0952402 0,0.142858 0,-0.341114 0.173248,-0.56963 0.15913,-0.888295 -0.00194094,-0.0438543 -0.00635039,-0.0858701 -0.00635039,-0.130157 0,0.0381614 -0.00369291,0.155126 0.00406693,0.184528 0.0315512,-0.362031 0.121571,-0.452004 0.045437,-0.783835 -0.00614173,-0.0267598 -0.00783858,-0.00779921 -0.00783858,-0.048311 -0.0138189,-0.00318898 -0.00548425,-0.00644882 -0.0162717,-0.0208346 -0.0219882,0.0188622 -0.0451614,0.203626 -0.0607126,0.242756 -0.014626,-0.0158031 -0.0338307,-0.0439961 -0.0468268,-0.0576378 -0.043063,0.0302402 -0.0830157,0.110287 -0.104461,0.158933 -0.100787,-0.232886 -0.0710906,0.213598 -0.210815,0.0611102 -0.0716299,-0.0781732 -0.11713,0.0340906 -0.199209,0.0833307l-0.0456339 -0.0208307c-0.051626,-0.0235669 -0.0769606,-0.0219764 -0.121031,-0.0597205 -0.0854252,0.0400197 0.0236575,0.14065 -0.382539,-0.0450433l-0.0138898 -0.00635039c-0.0209055,-0.00955906 -0.031437,-0.0244488 -0.0380945,-0.0277756l-0.00357087 0.0144843c0.00167323,0.0630394 0.106807,0.238295 0.121524,0.278272z"/>
  <path class="fil4" d="M4.59745 5.30889c0.332185,-0.00769291 0.430898,-0.117437 0.430898,-0.448988 0,-0.00475984 -0.0104094,-0.00952756 -0.0103898,-0.0142992 0.000700787,-0.162921 -0.13328,-0.53589 -0.165508,-0.694535 -0.0106063,-0.0522047 -0.0150787,-0.465138 -0.0150787,-0.550398 -0.0480787,0.00450394 -0.680161,-0.621516 -0.821146,-0.658236 -0.00981102,-0.00255512 -0.0184055,-0.00498425 -0.0255787,-0.00724409 -0.0371339,-0.0117165 -0.0943819,-0.0150787 -0.135913,-0.0150787 -0.0359606,0.0434016 -0.0990433,0.0176142 -0.126189,0.0960354 -0.0162795,0.00336614 0.201925,0.592858 0.180236,0.605677 0.116902,0.136602 0.216531,0.405693 0.266665,0.633028 0.122083,-0.0184961 0.199583,-0.0647283 0.299193,-0.104287 -0.0369016,0.126307 -0.188472,0.181272 -0.206606,0.300315 -0.0172283,0.113386 0.098374,0.304559 0.162323,0.444583 0.00624016,0.0136339 0.0125236,0.0271929 0.0188268,0.0406614 -0.00632283,-0.00418504 -0.0150236,-0.00723228 -0.0254488,-0.00929528 0.0617953,0.145291 0.126421,0.280339 0.173717,0.382063z"/>
  <rect class="fil5" width="6.82666" height="6.82666"/>
 </g>
</svg>
