<?xml version="1.0" encoding="UTF-8"?>
<!DOCTYPE svg PUBLIC "-//W3C//DTD SVG 1.1//EN" "http://www.w3.org/Graphics/SVG/1.1/DTD/svg11.dtd">
<!-- Creator: CorelDRAW -->
<svg xmlns="http://www.w3.org/2000/svg" xml:space="preserve" width="6.82666in" height="6.82666in" style="shape-rendering:geometricPrecision; text-rendering:geometricPrecision; image-rendering:optimizeQuality; fill-rule:evenodd; clip-rule:evenodd"
viewBox="0 0 6.82666 6.82666"
 xmlns:xlink="http://www.w3.org/1999/xlink">
 <defs>
  <style type="text/css">
   <![CDATA[
    .fil7 {fill:none}
    .fil2 {fill:#424242}
    .fil3 {fill:#575757}
    .fil4 {fill:#636363}
    .fil6 {fill:#6E6E6E}
    .fil1 {fill:#727272}
    .fil5 {fill:#ECEFF1}
    .fil0 {fill:#636363;fill-rule:nonzero}
   ]]>
  </style>
 </defs>
 <g id="Layer_x0020_1">
  <metadata id="CorelCorpID_0Corel-Layer"/>
  <path class="fil0" d="M1.3704 2.49564c0.0255394,-0.0144961 0.058,-0.00553937 0.0724961,0.02 0.0144961,0.0255394 0.00553937,0.058 -0.02,0.0724961 -0.190051,0.107846 -0.380228,0.265283 -0.483846,0.460079 -0.0796142,0.149665 -0.107669,0.322457 -0.0431575,0.512736 0.00943307,0.0278425 -0.00549213,0.0580669 -0.0333346,0.0675 -0.0278425,0.00943307 -0.0580669,-0.00549213 -0.0675,-0.0333346 -0.0752165,-0.221862 -0.0427008,-0.422957 0.0498268,-0.596902 0.114146,-0.214587 0.320311,-0.386126 0.525516,-0.502575z"/>
  <path class="fil1" d="M4.82118 2.17959c0.00254331,-0.00718898 0.00490945,-0.0139882 0.00714567,-0.0204055 0.0195236,-0.0560276 0.031,-0.0889488 0.0618898,-0.114197 0.042748,-0.0349488 0.0961339,-0.0337677 0.225512,-0.0309094l0.00124016 2.75591e-005 0.216673 -0.380791c0.00851575,-0.0181299 0.0269409,-0.0306811 0.0482953,-0.0306811l0.297571 0 0 7.48031e-005c0.00199606,0 0.00401181,0.000110236 0.00604331,0.00034252 0.0842795,0.00970472 0.157256,0.0447205 0.210937,0.0897244 0.0382244,0.0320433 0.0672559,0.0697953 0.0842992,0.107846 0.019248,0.0429567 0.0236142,0.0871063 0.00992913,0.12637 -0.00875984,0.0251299 -0.0244921,0.0473898 -0.0479094,0.0652283l-0.123453 0.108031c-0.0065315,0.00630709 -0.0147638,0.0110236 -0.0242126,0.0133465l-0.0947205 0.0234685c-0.0180276,0.038252 -0.0310984,0.0742402 -0.0384213,0.107591 -0.00798031,0.0363583 -0.00901969,0.0689803 -0.00198819,0.0972402l-8.26772e-005 1.9685e-005c0.00026378,0.00109055 0.000507874,0.00219291 0.000708661,0.00331496 0.0125709,0.0700276 0.0347638,0.122047 0.0642244,0.160441 0.0273583,0.0356575 0.0615906,0.0599685 0.10052,0.0764724 0.00850394,0.00275984 0.0164291,0.00770472 0.022878,0.0147913l0.0222638 0.0244921 0.00754331 -0.0182559c0.00620866,-0.0183858 0.0222677,-0.0327087 0.0427835,-0.0357087 0.0291063,-0.00425591 0.0561614,0.0158937 0.0604173,0.045l0.016626 0.113272c0.041189,0.0362559 0.0525827,0.0485039 0.0728228,0.112276l-0.000161417 5.11811e-005c0.00540945,0.0171969 0.00193307,0.0367205 -0.0108819,0.0512008 -0.0837835,0.0948268 -0.168461,0.14474 -0.253614,0.169205 -0.0762677,0.0219094 -0.151248,0.0227126 -0.225835,0.0171457l-0.661071 0.343425 -0.000110236 0.000102362c-0.000893701,0.000822835 -0.220969,0.211343 -0.343098,0.402118 -0.0779724,0.121803 -0.069752,0.235571 -0.0897165,0.281583 -0.0307323,0.0708346 -0.0904016,0.277996 -0.129677,0.454075 -0.0274134,0.122894 -0.0467835,0.224343 -0.0402087,0.233866 0.0133346,0.0192992 0.0240669,0.0465709 0.0366732,0.0786339 0.0182953,0.0465315 0.0413465,0.105146 0.0735866,0.14126 0.0102677,0.0115039 0.0218071,0.0213898 0.0333425,0.0298976 0.011685,0.00861811 0.0239449,0.0160591 0.0349843,0.022374 0.0202992,0.011622 0.0324094,0.0264961 0.0373346,0.0439409 0.0109331,0.038626 -0.00814173,0.0651535 -0.0499882,0.0808937 -0.0165079,0.00620866 -0.0395709,0.0111654 -0.0668386,0.0147638 -0.10565,0.013937 -0.294835,0.0093622 -0.393004,-0.022878 -0.0148386,-0.00485039 -0.027685,-0.0243976 -0.0407992,-0.0580472 -0.0107756,0.00409449 -0.0225669,0.00768504 -0.0353386,0.0107244 -0.0496575,0.0118189 -0.119866,0.0179173 -0.205736,0.0148661 -0.0388976,-0.00138189 -0.0800827,-0.00449213 -0.122917,-0.00961024 -0.0254055,-0.0022126 -0.0462795,-0.0224606 -0.0484409,-0.0487323 -0.00884252,-0.103854 0.00396457,-0.143646 0.0149449,-0.177744 0.00977953,-0.0303701 0.0173937,-0.0540709 -0.0191181,-0.187295 -0.00215748,-0.00699606 -0.00289764,-0.0145551 -0.00191732,-0.0222913l0.0387874 -0.304028 -0.000740157 -0.00046063c-0.309382,0.0453937 -0.637634,0.0844134 -0.960067,0.069626 -0.314417,-0.0144213 -0.621925,-0.0800669 -0.898878,-0.240461 -0.0288425,0.0557047 -0.0124961,0.191252 -0.0372677,0.312035 -0.0119449,0.0582441 -0.00712598,0.151339 -0.00361417,0.219185 0.00248819,0.0480591 0.00441339,0.0853071 -0.00132283,0.104409 -0.0133228,0.0443937 0.162331,0.192965 0.163012,0.193488l-2.75591e-005 3.54331e-005c0.0126732,0.00980315 0.0207874,0.0252047 0.0206535,0.0424646 -0.000228346,0.0293386 -0.0242047,0.052937 -0.0535433,0.0527087l-0.575728 -0.0064685 0 -1.1811e-005c-0.0238858,-0.000169291 -0.0454724,-0.0165512 -0.051248,-0.0408228 -0.0244016,-0.10135 0.0232638,-0.236083 0.00144094,-0.312028 -0.0184961,-0.239642 -0.117669,-0.309386 -0.0575591,-0.729886l-0.141118 -0.466323c-0.0374606,-0.0505945 -0.0671102,-0.10185 -0.087878,-0.154969 -0.0222598,-0.056937 -0.0341378,-0.115839 -0.0342953,-0.178075 -0.000232283,-0.0910354 0.0248976,-0.187535 0.0796614,-0.293776 0.0527126,-0.10226 0.133469,-0.214378 0.246315,-0.340508 0.123315,-0.137839 0.307087,-0.222469 0.528799,-0.269921 0.21552,-0.0461339 0.468134,-0.0573071 0.73585,-0.0485866 0.266189,0.00866535 0.486315,0.0645906 0.705642,0.120303 0.285598,0.0725512 0.569846,0.14476 0.945949,0.10624l0.102339 -0.0104803 0.338799 -0.13852c-0.0268858,-0.137079 0.0566102,-0.213555 0.196339,-0.213555 0.0200984,0 0.0394961,0.00225591 0.0577717,0.00643307z"/>
  <path class="fil2" d="M1.42593 2.58628l-0.00283071 0.00174016c0.000968504,-0.000555118 0.00191339,-0.0011378 0.00283071,-0.00174016z"/>
  <path class="fil2" d="M4.92069 2.48365l-3.93701e-006 0 0.000106299 0.00126378c-2.75591e-005,-0.00042126 -5.90551e-005,-0.00084252 -0.000102362,-0.00126378z"/>
  <path class="fil3" d="M5.17628 2.5248c-0.0923307,0.0221378 -0.0613661,0.184472 0.0177795,0.250894 0.152957,0.12837 0.286016,0.119004 0.471134,0.111087 0.0360118,-0.00153937 0.0310551,0.0400315 0.129315,0.0136929 0.056748,-0.0152087 0.0265,0.0338583 0.131772,-0.0330354 0.00472835,-0.00300394 0.0163465,-0.00546457 0.0177835,-0.0116811 0.0205197,0 0.0575512,-0.0910236 0.0594488,-0.124555 7.87402e-006,-0.00015748 1.9685e-005,-0.000311024 3.14961e-005,-0.000464567 -0.0018189,-0.00161811 -0.00370472,-0.00327953 -0.00565354,-0.00499606l-0.016626 -0.113272c-0.00425591,-0.0291063 -0.031311,-0.0492559 -0.0604173,-0.045 -0.0205157,0.003 -0.0365748,0.0173228 -0.0427835,0.0357087l-0.00754331 0.0182559 -0.0222638 -0.0244921c-0.00644882,-0.00708661 -0.014374,-0.0120315 -0.022878,-0.0147913 -0.0389291,-0.0165039 -0.0731614,-0.040815 -0.10052,-0.0764724 -0.0294606,-0.0383937 -0.0516535,-0.0904134 -0.0642244,-0.160441l-0.000708661 -0.00331496 8.26772e-005 -1.9685e-005c-0.0070315,-0.0282598 -0.00599213,-0.0608819 0.00198819,-0.0972402 0.00732283,-0.0333504 0.0203937,-0.0693386 0.0384213,-0.107591l0.0947205 -0.0234685c0.00944882,-0.00232283 0.0176811,-0.00703937 0.0242126,-0.0133465l0.123453 -0.108031c0.0234173,-0.0178386 0.0391496,-0.0400984 0.0479094,-0.0652283 0.00589764,-0.0169173 0.00844094,-0.0347441 0.00788976,-0.0529921 -0.0158386,-0.00104331 -0.0298937,0.00338189 -0.0338189,0.0024685 -0.0535866,0.0188937 -0.141437,0.0434409 -0.148772,0.104724 -0.0232008,0.0136024 0.0180866,0.0251929 -0.0497008,0.0305787 -0.0702913,0.00558661 -0.0890433,0.0313307 -0.109378,0.0861614 -0.0112953,0.0304606 -0.0772756,-0.000492126 -0.072248,0.117189 0.00200394,0.0468858 -0.143831,0.00379528 -0.148209,0.0755197 -0.0076063,0.12463 -0.0143425,0.0763386 -0.11176,0.151264 -0.0379764,0.0292087 0.0158622,0.0434921 -0.141295,0.0811772l-0.00714173 0.0017126z"/>
  <path class="fil4" d="M5.27633 2.36747c-0.0509252,0.0346575 -0.0508543,0.0694646 -0.107441,0.110043 -0.036,0.025815 -0.0587402,0.0941024 -0.0492362,0.139524 -0.0011811,-0.0446614 0.0154803,-0.082374 0.0566299,-0.0922402l0.00714173 -0.0017126c0.157157,-0.037685 0.103319,-0.0519685 0.141295,-0.0811772 0.0974173,-0.0749252 0.104154,-0.0266339 0.11176,-0.151264 0.00437795,-0.0717244 0.150213,-0.0286339 0.148209,-0.0755197 -0.00502756,-0.117681 0.0609528,-0.0867283 0.072248,-0.117189 0.0203346,-0.0548307 0.0390866,-0.0805748 0.109378,-0.0861614 0.0677874,-0.00538583 0.0265,-0.0169764 0.0497008,-0.0305787 0.00733465,-0.0612835 0.095185,-0.0858307 0.148772,-0.104724 0.0039252,0.000913386 0.0179803,-0.00351181 0.0338189,-0.0024685 -0.000551181,-0.0181969 -0.00418504,-0.0368071 -0.0106457,-0.0553583 -0.0385827,-0.00486614 -0.0932047,0.0375669 -0.131791,0.0407874 -0.0114961,0.000956693 -0.0223701,0.0139016 -0.0264882,0.0258189 -0.031248,0.00648031 -0.098374,0.0757323 -0.166665,0.0961339 -0.0789724,0.0235906 -0.0421496,0.0731575 -0.105882,0.10811 -0.0184055,0.0100945 -0.00175197,0.0498976 -0.0690472,0.0833307 -0.0504213,0.0250512 0.0151181,0.0547441 -0.113913,0.0850472 -0.0657638,0.0154449 -0.00762205,0.0481929 -0.0978425,0.109598z"/>
  <path class="fil4" d="M5.94407 2.85575c0.0205197,0 0.0575512,-0.0910236 0.0594488,-0.124555l3.14961e-005 -0.000464567 -0.00565354 -0.00499606 -0.016626 -0.113272c-0.00425591,-0.0291063 -0.031311,-0.0492559 -0.0604173,-0.045 -0.0205157,0.003 -0.0365748,0.0173228 -0.0427835,0.0357087l-0.00720079 0.0174252c0.0192953,0.114508 -0.192283,0.167677 -0.279169,0.175504 -0.106059,0.00955118 -0.104126,0.00232283 -0.198858,-0.00567717 -0.0404252,-0.00341339 -0.183315,-0.0229764 -0.220047,-0.0361614 0.00661024,0.00787795 0.0137205,0.0150866 0.0212717,0.0214252 0.152957,0.12837 0.286016,0.119004 0.471134,0.111087 0.0360118,-0.00153937 0.0310551,0.0400315 0.129315,0.0136929 0.056748,-0.0152087 0.0265,0.0338583 0.131772,-0.0330354 0.00472835,-0.00300394 0.0163465,-0.00546457 0.0177835,-0.0116811z"/>
  <ellipse class="fil5" transform="matrix(0.624858 0.515059 -0.473571 0.46761 4.83632 2.46699)" rx="0.121094" ry="0.118488"/>
  <ellipse class="fil3" transform="matrix(0.288904 0.238138 -0.218956 0.2162 4.83632 2.46699)" rx="0.121094" ry="0.118488"/>
  <path class="fil6" d="M5.57859 3.07696c-0.126547,0.00287402 -0.309276,0.0505394 -0.483594,0.0567126 -0.12765,0.00451969 -0.237303,0.033748 -0.324701,0.119791 -0.191732,0.18876 -0.147673,0.146909 -0.331102,0.368004l-0.0108622 0.0130945c-0.079315,0.0956024 -0.0715827,0.244354 -0.0833307,0.379319 -0.0103976,0.119461 0.0676378,0.299291 0.0382402,0.415776 -0.020378,0.0807362 -0.0314055,0.125217 -0.0371693,0.175071 0.00332283,-0.0154449 0.00683071,-0.031437 0.0104843,-0.047811 0.0392756,-0.176079 0.0989449,-0.38324 0.129677,-0.454075 0.0379134,-0.332465 0.79939,-0.942217 1.09236,-1.02588z"/>
  <path class="fil3" d="M3.98321 5.12561c-0.00395276,-0.129382 -0.0492087,-0.273701 -0.0492087,-0.438177 0,-0.0964409 -0.020626,-0.276217 0.0142874,-0.356697 0.00450394,-0.0103819 0.0139409,-0.058874 0.011311,-0.0729173 -0.0249528,0.00730709 -0.169181,0.121732 -0.358445,0.139232 -0.0058189,0.0465787 -0.0439173,0.301524 -0.0361299,0.32678 0.0365118,0.133224 0.0288976,0.156925 0.0191181,0.187295 -0.0109803,0.0340984 -0.0237874,0.0738898 -0.0149449,0.177744 0.00216142,0.0262717 0.0230354,0.0465197 0.0484409,0.0487323 0.0428346,0.00511811 0.0840197,0.00822835 0.122917,0.00961024 0.0858701,0.00305118 0.156079,-0.00304724 0.205736,-0.0148661 0.0127717,-0.00303937 0.024563,-0.00662992 0.0353386,-0.0107244 0.000527559,0.00135039 0.00105512,0.0026811 0.00157874,0.00398819z"/>
  <path class="fil3" d="M1.25437 5.14407l0 0zm0.0597992 -0.763846c-0.0333543,-0.121713 -0.0121969,-0.277693 -0.031626,-0.33363 -0.0510709,-0.147016 -0.213457,-0.328102 -0.276441,-0.450886l0.140902 0.465614c-0.0709567,0.425567 0.0464488,0.481713 0.073185,0.719469 0.0218228,0.0759449 -0.0414685,0.221094 -0.0170669,0.322445 0.00577559,0.0242717 0.0273622,0.0406535 0.051248,0.0408346l0.0789173 0.000885827c-0.00174803,-0.00686614 -0.00112598,-0.00511024 -0.00349606,-0.0108622 -0.0436496,-0.105819 0.0236299,-0.127358 0.0104173,-0.161461 -0.0589449,-0.152138 0.0187362,-0.429016 -0.0260394,-0.592409z"/>
  <rect class="fil7" width="6.82666" height="6.82666"/>
 </g>
</svg>
