<?xml version="1.0" encoding="UTF-8"?>
<!DOCTYPE svg PUBLIC "-//W3C//DTD SVG 1.1//EN" "http://www.w3.org/Graphics/SVG/1.1/DTD/svg11.dtd">
<!-- Creator: CorelDRAW -->
<svg xmlns="http://www.w3.org/2000/svg" xml:space="preserve" width="6.82666in" height="6.82666in" style="shape-rendering:geometricPrecision; text-rendering:geometricPrecision; image-rendering:optimizeQuality; fill-rule:evenodd; clip-rule:evenodd"
viewBox="0 0 6.82666 6.82666"
 xmlns:xlink="http://www.w3.org/1999/xlink">
 <defs>
  <style type="text/css">
   <![CDATA[
    .fil11 {fill:none}
    .fil2 {fill:#130F0F}
    .fil7 {fill:#212121}
    .fil5 {fill:#424242}
    .fil0 {fill:#A0A0A0}
    .fil8 {fill:#AB7165}
    .fil10 {fill:#ADADAD}
    .fil1 {fill:#BDBDBD}
    .fil9 {fill:#C98576}
    .fil3 {fill:#D49385}
    .fil4 {fill:#FAFAFA}
    .fil6 {fill:#130F0F;fill-rule:nonzero}
   ]]>
  </style>
 </defs>
 <g id="Layer_x0020_1">
  <metadata id="CorelCorpID_0Corel-Layer"/>
  <path class="fil0" d="M5.04829 4.9118c-0.0203543,0.000366142 -0.0915709,-0.0134094 -0.114476,-0.016126 -0.0313583,-0.00372835 -0.0624724,-0.0113898 -0.0845394,-0.0252087 -0.0228661,-0.0143189 -0.0446535,-0.0309606 -0.0579882,-0.0517126l-5.90551e-005 -9.44882e-005 -0.000161417 9.44882e-005c-0.0221181,-0.0344488 -0.0228228,-0.0700197 0.0157913,-0.105331 0.024122,-0.0220669 0.0619764,-0.0675394 0.0930866,-0.104909 0.0804449,-0.0966299 0.135106,-0.187307 0.141193,-0.321563 0.00359449,-0.0787874 -0.00546457,-0.14587 -0.0133189,-0.204051 -0.00635039,-0.047063 -0.0119882,-0.0887992 -0.010626,-0.129291 0.000724409,-0.0215039 -0.00539764,-0.0614252 -0.0102008,-0.0927244l-0.00195669 -0.012874 -0.000874016 0.000472441 -0.00155118 0.00130709c-0.00174803,0.00214961 0.00424803,-0.000511811 0.00240157,0.00403543l-7.48031e-005 0.000181102 7.48031e-005 2.75591e-005c-0.0106575,0.0261732 -0.0235551,0.0578307 -0.0561969,0.0753465 -0.0321417,0.017248 -0.0610591,0.0178661 -0.087374,0.00105118 -0.0214094,-0.0136811 -0.0339409,-0.036563 -0.0379488,-0.0691929 -0.00185827,-0.0151496 -0.000185039,-0.0315433 0.00161417,-0.0492165 0.00193307,-0.0189843 0.00466142,-0.0406299 0.00442126,-0.0408189 -0.00780315,-0.00611811 -0.0149488,-0.0125276 -0.0214134,-0.0184646 -0.00126772,0.0047126 -0.00242913,0.0100157 -0.00354724,0.0153661l-0.000401575 0.00176378 -0.000850394 0.00416142 -0.000413386 0.00182677c-0.00983071,0.0485157 -0.0218898,0.102772 -0.0982953,0.0980472 -0.0315236,-0.00194094 -0.0553976,-0.0115512 -0.0734488,-0.0334764 -0.0154921,-0.018815 -0.0222756,-0.0428543 -0.0214449,-0.0753976 0.00034252,-0.0135669 0.00164567,-0.0268858 0.00290945,-0.0399488 0.0019252,-0.019815 0.00377165,-0.0387756 0.00326772,-0.039622l-0.000137795 -0.000244094 -7.87402e-005 3.93701e-005 -0.0036378 -0.00619685c-0.0142874,-0.0244094 -0.0488543,-0.0834331 -0.0719685,-0.118035 0.042185,-0.0212126 0.179933,-0.0908346 0.225287,-0.118051 0.124323,0.102843 0.214984,0.189772 0.279835,0.273626 0.0658465,0.0851457 0.105146,0.167346 0.126343,0.260366 0.0316142,0.138701 0.0483819,0.338579 0.014685,0.522512 -0.0283386,0.154642 -0.0494134,0.309469 -0.133768,0.402933 -0.00247638,0.00274016 -0.00385039,0.00603937 -0.00415748,0.0093937z"/>
  <path class="fil1" d="M5.57513 3.20109c-0.0241378,0.355925 -0.0317402,0.514803 -0.0372323,0.629815 -0.00833465,0.174295 -0.0119291,0.249476 -0.0579449,0.719016 -0.00234252,0.0239331 -0.00387402,0.0366693 -0.00527559,0.0483189 -0.00427953,0.0355827 -0.0075,0.0623543 -0.00406299,0.0836693 0.000610236,0.00377953 0.000834646,0.00469685 0.00234646,0.0135827 0.0102874,0.0604488 0.0261417,0.153642 -0.0406811,0.172193 -0.0165354,0.00459843 -0.0296417,0.00347244 -0.0414606,9.44882e-005l0.000401575 0.00618504c0.00192126,0.0394567 0.00380315,0.0779803 -0.0344921,0.106295 -0.00332677,0.00245669 -0.00927165,0.00718898 -0.0155551,0.0121929 -0.0310709,0.0247362 -0.0695866,0.0554016 -0.127634,0.0662205 -0.0327992,0.00610236 -0.0661929,0.00618504 -0.0956772,0.00154331 -0.0339409,-0.00534646 -0.0642126,-0.0173425 -0.0851181,-0.0342677 -0.0198898,-0.0161024 -0.0331654,-0.033937 -0.0385157,-0.0537205 0.00374803,-0.000586614 0.0073189,-0.00244882 0.00999213,-0.00553937 0.0851496,-0.0984764 0.139358,-0.249465 0.167433,-0.409394 0.0330079,-0.188063 0.0300906,-0.389327 -0.00101969,-0.531807 -0.0213268,-0.0976772 -0.0608031,-0.183913 -0.126902,-0.27313 -0.0653976,-0.0882677 -0.156839,-0.179276 -0.282736,-0.287327l-3.93701e-006 3.93701e-006c-0.00598031,-0.00512598 -0.0149567,-0.00540945 -0.0212835,-0.00026378 -0.0164961,0.0134488 -0.377622,0.214346 -0.422823,0.227417 -0.0203071,0.00587008 -0.0461142,0.0154134 -0.0734331,0.0255118 -0.0681102,0.0251772 -0.145157,0.0536614 -0.226705,0.0559252 -0.0527598,0.0014685 -0.123035,0.00220079 -0.193406,-0.000834646 -0.0725197,-0.00312992 -0.145776,-0.0102362 -0.202429,-0.0245276 -0.12828,-0.0323543 -0.229638,-0.0794331 -0.308752,-0.116173 -0.0603819,-0.0280433 -0.106138,-0.0492913 -0.130799,-0.0492913 -0.0140906,0 -0.0204016,0.0329055 -0.0204016,0.130213 0,0.0246102 -0.00747244,0.0641535 -0.0173268,0.105157 -0.0147283,0.0612953 -0.0353465,0.128122 -0.0422362,0.146508 -0.00436614,0.0116378 -0.013622,0.0480315 -0.0182362,0.0926929 -0.00287008,0.0277756 -0.00368898,0.0578268 0.000114173,0.0851063 0.00629921,0.0451417 0.00733858,0.139555 0.00826772,0.224681 0.00080315,0.073315 0.0015315,0.139181 0.0035315,0.145189 0.00496457,0.0149016 0.021374,0.0800197 0.0290945,0.128228 0.00755512,0.0471575 0.00404331,0.0891142 -0.023252,0.106469 -0.00912598,0.00578346 -0.0193425,0.00845669 -0.0293937,0.00828346 0.0027126,0.0182008 0.000909449,0.0460354 -0.023563,0.0934646 -0.0110433,0.0213937 -0.0348346,0.0580157 -0.0664055,0.0867165 -0.024126,0.021937 -0.0533386,0.0400236 -0.0867677,0.0463701 -0.0345433,0.00654724 -0.0791535,0.0077126 -0.117728,0.00264173 -0.0400079,-0.00525984 -0.0765866,-0.0181496 -0.0977087,-0.0400591 -0.0223701,-0.023189 -0.034437,-0.0449961 -0.034752,-0.0699409 -0.000389764,-0.0305748 0.0145709,-0.0534843 0.0467441,-0.0727795 0.0221457,-0.0132795 0.0445827,-0.0542283 0.0656614,-0.0926969 0.0717323,-0.130953 0.118354,-0.454421 0.0862283,-0.554504 -0.0307205,-0.0957323 -0.0824685,-0.414409 -0.0848268,-0.418122 0.0202717,0.250118 0.0131378,0.238409 -0.0173858,0.456965 -0.0163898,0.117142 -0.0205748,0.220311 -0.0320984,0.335626 -0.00026378,0.00266929 -0.000476378,0.00476772 -0.000956693,0.0109567 -0.000362205,0.00472441 0.00136614,-0.000649606 0.00266535,0.00399606 0.0153543,-0.00438583 0.00375197,0.108 -0.00438976,0.119764 -0.0239252,0.034563 -0.0484724,0.0360669 -0.0737323,0.0327835 0.000669291,0.00261417 0.0012126,0.00572835 0.00116142,0.00947244 -0.000326772,0.024374 -0.000673228,0.0488622 -0.0125906,0.0726969 -0.0107323,0.0214724 -0.033185,0.0534685 -0.0616142,0.0777283 -0.0233307,0.0199055 -0.0514449,0.0357717 -0.0828031,0.0401575 -0.0303819,0.00425591 -0.0702244,0.00711417 -0.106181,0.00424409 -0.0318622,-0.00253937 -0.0623386,-0.0098189 -0.0854764,-0.0246063 -0.0193465,-0.0123543 -0.0334606,-0.0261181 -0.0422165,-0.0403504 -0.00764961,-0.0124488 -0.0117717,-0.0257638 -0.0123346,-0.0396417 -0.000622047,-0.0153819 0.00332677,-0.029937 0.0118701,-0.043315 0.0070748,-0.0110984 0.0167598,-0.0205709 0.0289567,-0.0280748l0.00164173 -0.000964567c0.00497244,-0.0039685 0.0129331,-0.0134803 0.021685,-0.0250787 0.0149449,-0.0198071 0.0288228,-0.0422244 0.0364409,-0.0574567 0.0543425,-0.108634 0.140772,-0.320035 0.152213,-0.448815 0.00120472,-0.0136181 0.00410236,-0.0198346 0.00321654,-0.0210512 -0.0109449,-0.0150551 -0.0264882,-0.0474567 -0.0384764,-0.0810827 -0.00977165,-0.0274094 -0.0178701,-0.0575394 -0.0200748,-0.0823031 -0.00322047,-0.0361614 0.00181496,-0.067189 0.00764173,-0.103157 0.00211024,-0.0130394 0.0043622,-0.0269094 0.00670472,-0.0462835 0.00370472,-0.0307677 -0.000826772,-0.0956063 -0.00482677,-0.14063 -0.0565118,-0.00269291 -0.425256,-0.507339 -0.469476,-0.708508 -0.0468622,-0.213185 -0.0904291,-0.411358 -0.209685,-0.46639 -0.00866535,-0.00400394 -0.0166024,0.00543307 -0.0234646,0.0202913 -0.0267362,0.0578858 -0.0334528,0.163929 -0.0369882,0.219815 -0.00167323,0.0264409 -0.00280709,0.0444685 -0.00779921,0.0561142 -0.00940551,0.0219567 -0.0439213,0.0479882 -0.0813228,0.0669528 -0.0331772,0.0168268 -0.0722677,0.0312441 -0.0973189,0.0332126 -0.0205433,0.00162598 -0.0844843,-0.00540551 -0.140118,-0.0147165 -0.0502205,-0.00840157 -0.098189,-0.0204685 -0.114193,-0.0332756 -0.0184843,-0.0147874 -0.029689,-0.0258268 -0.0375551,-0.0429252 -0.00859449,-0.0186929 -0.00926378,-0.035185 -0.0059252,-0.059374l0.000279528 -0.00177559c0.00209055,-0.0145 0.00655512,-0.0390787 0.0116457,-0.0671417 0.0109567,-0.060378 0.0251535,-0.138614 0.0232283,-0.156213 -0.00322441,-0.0296457 -0.0117441,-0.0589764 -0.0187677,-0.0831575 -0.00470866,-0.0162205 -0.00888189,-0.030563 -0.011189,-0.0424961 -0.0034252,-0.0177283 -0.00281102,-0.0398898 -0.00214567,-0.0640709 0.000681102,-0.0245354 0.00143701,-0.0518937 -0.00288976,-0.0670945l-0.00061811 -0.00238189c-0.00357087,-0.0125472 -0.0050315,-0.0173346 -0.0063189,-0.0215472 -0.00764961,-0.0250433 -0.012126,-0.0397047 -0.0146811,-0.0704134 -0.00116929,-0.0141063 -0.00137795,-0.0353858 -0.0015748,-0.0557953 -9.44882e-005,-0.0102953 -0.000192913,-0.0202953 -0.000354331,-0.0280472l-0.00633465 0.00106693c-0.0475591,0.00800394 -0.118921,0.0200157 -0.162823,-0.000433071 -0.00145669,-0.000677165 -0.00286614,-0.00141732 -0.00423228,-0.00220472 -0.00503937,-0.00264961 -0.0108937,-0.00616142 -0.017378,-0.0104213 -0.030752,-0.0202008 -0.0809606,-0.0624882 -0.119606,-0.10663 -0.0479882,-0.054815 -0.0802874,-0.117169 -0.0570276,-0.167236 0.00152756,-0.00329134 0.00357874,-0.00691732 0.00619291,-0.0108858 0.0199291,-0.0303346 0.070748,-0.054811 0.126004,-0.0618858 0.0444449,-0.00568504 0.094622,-0.00160236 0.135579,0.0182835 0.0293189,0.0142402 0.0574764,0.0343189 0.0843268,0.0534528 0.0300394,0.0214094 0.0575079,0.0411772 0.0575984,0.0411496 0.00562992,-0.00174409 0.0218858,-0.0171575 0.0397598,-0.0341063 0.0337835,-0.0320315 0.0714961,-0.0677874 0.118776,-0.079685 0.012252,-0.00308268 0.0610945,-0.00488976 0.116409,-0.00580315 0.0852047,-0.00141339 0.193835,7.87402e-005 0.199693,0.0018622 0.0229213,0.00698031 0.0461929,0.0290276 0.0734094,0.0548268 0.0300197,0.0284606 0.0678661,0.0643268 0.070189,0.0636457 0.246461,-0.0723622 0.540445,-0.0189488 0.821972,0.0322047 0.142697,0.0259291 0.282098,0.0512598 0.407843,0.0583189 0.652311,0.0366181 0.957004,-0.00268898 1.51704,0.00999606 0.0826969,0.00187402 0.18561,-0.0107874 0.289843,-0.0236142 0.108012,-0.0132913 0.217429,-0.0267598 0.316083,-0.0249764 0.0173976,0.000314961 0.0338346,0.000338583 0.0498504,0.000354331 0.112815,0.000122047 0.207882,0.000251969 0.298724,0.0808425 0.192295,0.122346 0.310744,0.286614 0.379283,0.470969 0.0683661,0.183882 0.0863425,0.386657 0.0784567,0.586768 -0.00374803,0.0950512 -0.00385039,0.982705 -0.088311,0.979394 -0.0293386,-0.00114961 -0.0192087,-0.223787 -0.0180591,-0.253126l0.00011811 -0.730433c0.0073937,-0.187693 -0.00726772,-0.315886 -0.0700512,-0.484752 -0.0419685,-0.085811 -0.0716654,-0.105118 -0.123417,-0.135461 0.00560236,0.0451102 0.000283465,-0.020185 -0.00122835,0.0246969 -0.00260236,0.0771811 -0.0146929,0.151079 -0.0325945,0.211488 -0.00885827,0.0299055 -0.0410866,0.171335 -0.0672205,0.304437 -0.0169646,0.0863858 -0.0311024,0.167937 -0.0339449,0.209929z"/>
  <path class="fil2" d="M2.30374 3.58202c-0.108,-0.137358 -0.248492,-0.349421 -0.309539,-0.494575 0.0632913,-0.0333465 0.144945,-0.0499843 0.194894,-0.0388898 0.110126,0.0235866 0.112484,0.234413 0.0955748,0.390772 -0.00324803,0.0299803 0.0397756,0.102937 0.0314567,0.123134 -0.00346063,0.00726378 -0.00764173,0.0137874 -0.0123858,0.0195591z"/>
  <path class="fil3" d="M1.7001 2.74938c-0.000917323,0.0124803 -0.00164173,0.0239409 -0.00226772,0.0338268 -0.00167323,0.0264409 -0.00280709,0.0444685 -0.00779921,0.0561142 -0.00940551,0.0219567 -0.0439213,0.0479882 -0.0813228,0.0669528 -0.0331772,0.0168268 -0.0722677,0.0312441 -0.0973189,0.0332126 -0.0205433,0.00162598 -0.0844843,-0.00540551 -0.140118,-0.0147165 -0.0502205,-0.00840157 -0.098189,-0.0204685 -0.114193,-0.0332756 -0.0184843,-0.0147874 -0.029689,-0.0258268 -0.0375551,-0.0429252 -0.00859449,-0.0186929 -0.00926378,-0.035185 -0.0059252,-0.059374l0.000279528 -0.00177559c0.00209055,-0.0145 0.00655512,-0.0390787 0.0116457,-0.0671417 0.00177165,-0.00977165 0.00362992,-0.0200157 0.00549213,-0.0303898 0.0260157,-0.0251575 0.0374055,-0.0416024 0.0860394,-0.0416024 0.0486339,0 0.079748,0.0421457 0.104976,0.0870157 0.0135315,-0.0348622 0.0719094,-0.0633504 0.126909,-0.0590079 0.055,0.00434252 0.101602,0.0565591 0.151157,0.0730866z"/>
  <path class="fil2" d="M5.543 3.72696c-0.0020315,0.0396693 -0.00364173,0.0733622 -0.00510236,0.103949 -0.00627559,0.131217 -0.00986614,0.206287 -0.0308898,0.435713 -0.0796929,0.0223346 -0.217618,-0.0587283 -0.254874,-0.126516 -0.0521142,-0.0931496 0.0964882,-0.226756 0.218374,-0.312555 0.0233701,-0.0164449 0.0483858,-0.0927244 0.0679724,-0.099437 0.00151181,-0.000429134 0.00301969,-0.00080315 0.00451969,-0.00115354z"/>
  <path class="fil2" d="M5.24543 1.93633l0.00794488 1.1811e-005c0.0411299,4.33071e-005 0.0799016,9.44882e-005 0.116969,0.00403937 0.234563,0.0878858 0.324858,0.306437 0.346291,0.513996l-0.00651575 -0.00383465c0.00560236,0.0451102 0.000283465,-0.020185 -0.00122835,0.0246969 -0.00260236,0.0771811 -0.0146929,0.151079 -0.0325945,0.211488 -0.00698425,0.0235748 -0.0284843,0.116445 -0.0500787,0.219906 -0.00948819,-0.0088622 -0.0270709,-0.035 -0.0500866,-0.112055 -0.0354055,-0.118535 -0.171016,-0.0902441 -0.248646,-0.0802323 -0.0776142,0.01 -0.207602,-0.0820827 -0.288118,-0.0297835 -0.0805157,0.0523228 -0.242559,-0.0244921 -0.267087,-0.111783 -0.0245,-0.0872913 -0.0702402,0.00882283 -0.18776,-0.0710315 -0.117524,-0.0798346 -0.00564961,-0.156098 0.0621496,-0.153043 0.0677953,0.00302756 0.0851693,-0.00955512 0.120205,-0.0825197 0.0350039,-0.0729961 0.167417,-0.0644016 0.2175,-0.0520512 0.0500669,0.0123543 0.0896024,0.0655984 0.214575,0.0444094 0.124965,-0.0211654 0.124685,-0.130248 0.0558976,-0.210953 -0.0416142,-0.0488465 -0.0272441,-0.0879764 -0.00941732,-0.11126z"/>
  <path class="fil2" d="M3.25213 1.98285c0.113465,0.00453937 0.216264,0.00673622 0.312587,0.00747638 0.0184331,0.0113307 0.0338583,0.0262244 0.045626,0.0454409 0.0258583,0.19424 -0.232846,0.109484 -0.225146,0.229559 0.00772441,0.120083 -0.111193,0.109476 -0.251634,0.0423819 -0.140449,-0.0671102 -0.147839,0.113016 -0.136752,0.295457 0.0111102,0.182469 -0.164079,0.153642 -0.274941,0.150118 -0.11087,0.0289882 -0.235079,0.141425 -0.400846,0.0162087 -0.165768,-0.0538228 -0.270346,-0.246358 -0.270346,-0.246358 -0.125437,-0.46472 0.269012,-0.672787 0.468051,-0.517555 0.058189,0.045374 0.123972,0.0924094 0.19861,0.0901339 0.146559,-0.00446063 0.354012,-0.075626 0.534791,-0.112862z"/>
  <path class="fil2" d="M4.91497 3.606c-0.0444528,-0.0442677 -0.0954921,-0.0907756 -0.153969,-0.140965l-3.93701e-006 3.93701e-006c-0.00598031,-0.00512598 -0.0149567,-0.00540945 -0.0212835,-0.00026378 -0.0164961,0.0134488 -0.377622,0.214346 -0.422823,0.227417 -0.00874016,0.00252756 -0.0184961,0.00573228 -0.0289528,0.00937008 -0.250551,0.0320591 -0.517618,0.0143228 -0.504945,-0.112469 -0.0230709,-0.16602 0.256339,-0.0935748 0.249472,-0.196205 -0.0068937,-0.102638 0.168646,-0.107461 0.293937,-0.0501102 0.125299,0.0573583 0.135366,-0.0410472 0.125476,-0.19698 -0.00991339,-0.155957 0.170957,-0.0915433 0.269862,-0.0885315 0.0989134,0.00300787 0.230283,-0.103102 0.378173,-0.0571024 0.147886,0.0460039 0.196043,0.214035 0.196043,0.214035 0.0239331,0.0316614 0.0338425,0.495638 -0.380988,0.391799z"/>
  <path class="fil4" d="M1.28155 2.2046c0.0272441,0 0.0493346,0.0276102 0.0493346,0.0616693 0,0.0340591 -0.0220906,0.0616693 -0.0493346,0.0616693 -0.0272441,0 -0.0493346,-0.0276102 -0.0493346,-0.0616693 0,-0.0340591 0.0220906,-0.0616693 0.0493346,-0.0616693z"/>
  <path class="fil5" d="M1.28155 2.2326c0.014874,0 0.0269331,0.0150709 0.0269331,0.0336654 0,0.0185945 -0.0120591,0.0336654 -0.0269331,0.0336654 -0.014874,0 -0.0269331,-0.0150709 -0.0269331,-0.0336654 0,-0.0185945 0.0120591,-0.0336654 0.0269331,-0.0336654z"/>
  <path class="fil6" d="M3.29409 3.15597c-0.119075,-0.0732795 -0.0319488,-0.293071 0.0639291,-0.30635 0.132028,-0.0183189 0.0767874,-0.156772 0.25039,-0.17361 0.159831,-0.0154764 0.303677,0.121921 0.266382,0.276949 -0.0373031,0.155067 -0.138516,0.213673 -0.266382,0.181705 -0.127858,-0.0319567 -0.175803,0.106551 -0.314319,0.0213071z"/>
  <path class="fil6" d="M4.07165 2.45707c0.123169,-0.00655512 0.275287,-0.129937 0.201425,-0.226181 -0.0738386,-0.0962205 -0.275071,-0.138358 -0.355728,-0.0434291 -0.0806929,0.0949213 -0.100831,0.283181 0.154303,0.26961z"/>
  <path class="fil6" d="M2.96435 3.505c0.0637795,-0.00190157 0.173705,0.0345472 0.241717,0.0180039 0.0669331,-0.0162717 0.092815,-0.0851929 0.0551654,-0.135744 -0.0132441,-0.0159173 -0.0934291,-0.0121614 -0.117114,-0.0281535 -0.123547,-0.0833898 -0.301276,-0.174744 -0.369791,-0.0929016 -0.0546614,0.0642953 -0.0814764,0.24622 -0.0122244,0.29898 0.0357992,0.0272559 0.112906,-0.0554331 0.202248,-0.060185z"/>
  <path class="fil6" d="M1.72613 2.46398c0.0797874,-0.00237795 0.0305669,-0.000244094 0.115622,-0.0209094 0.0837087,-0.0203268 0.189984,-0.219535 0.142878,-0.282776 -0.0165669,-0.0199134 -0.164709,0.0716378 -0.163909,-0.00046063 0.00205512,-0.186417 -0.246606,-0.14911 -0.332323,-0.0467205 -0.0683819,0.080437 -0.101929,0.308047 -0.0152913,0.374035 0.0447717,0.0340984 0.141252,-0.0172244 0.253024,-0.0231693z"/>
  <path class="fil4" d="M1.63311 2.19809c0.0272441,0 0.0493346,0.0276102 0.0493346,0.0616693 0,0.0340591 -0.0220906,0.0616693 -0.0493346,0.0616693 -0.0272441,0 -0.0493346,-0.0276102 -0.0493346,-0.0616693 0,-0.0340591 0.0220906,-0.0616693 0.0493346,-0.0616693z"/>
  <path class="fil7" d="M1.63311 2.22717c0.0143976,0 0.0260709,0.0145906 0.0260709,0.0325906 0,0.018 -0.0116732,0.0325906 -0.0260709,0.0325906 -0.0143976,0 -0.0260709,-0.0145906 -0.0260709,-0.0325906 0,-0.018 0.0116732,-0.0325906 0.0260709,-0.0325906z"/>
  <ellipse class="fil8" cx="1.32541" cy="2.77771" rx="0.0282126" ry="0.0364567"/>
  <ellipse class="fil8" cx="1.50163" cy="2.80028" rx="0.0282126" ry="0.0364567"/>
  <path class="fil9" d="M1.60871 2.90627c0.0374016,-0.0189646 0.0719173,-0.0449961 0.0813228,-0.0669528 0.00499213,-0.0116457 0.00612598,-0.0296732 0.00779921,-0.0561142 0.000625984,-0.00988583 0.00135039,-0.0213425 0.00226772,-0.0338268 -0.016815,-0.00561024 -0.0332913,-0.0153268 -0.049874,-0.0258898 -0.00914961,0.0312087 -0.0283307,0.0910118 -0.0465945,0.112429 -0.0690512,0.0809606 -0.291331,0.0329646 -0.390539,-0.00740551 0.00121654,0.0067126 0.00329921,0.0132362 0.00643307,0.0200551 0.00786614,0.0170984 0.0190709,0.0281378 0.0375551,0.0429252 0.0160039,0.0128071 0.0639724,0.024874 0.114193,0.0332756 0.0556339,0.00931102 0.119575,0.0163425 0.140118,0.0147165 0.0250512,-0.0019685 0.0641417,-0.0163858 0.0973189,-0.0332126z"/>
  <path class="fil10" d="M1.19003 2.12909c0.00518504,-0.0434921 0.0166102,-0.129469 0.0316614,-0.18465 0.00762598,-0.0279606 0.0133937,-0.0494134 0.0176378,-0.0653701 -0.00294094,0.00227165 -0.00527165,0.00376772 -0.00681102,0.00424409 -9.05512e-005,2.75591e-005 -0.0275591,-0.0197402 -0.0575984,-0.0411496 -0.0268504,-0.0191339 -0.0550079,-0.0392126 -0.0843268,-0.0534528 -0.0409567,-0.0198858 -0.0911339,-0.0239685 -0.135579,-0.0182835 -0.0552559,0.0070748 -0.106075,0.0315512 -0.126004,0.0618858 -0.00261417,0.0039685 -0.00466535,0.00759449 -0.00619291,0.0108858 -0.0232598,0.0500669 0.00903937,0.112421 0.0570276,0.167236 0.0386457,0.0441417 0.0888543,0.0864291 0.119606,0.10663 0.00648425,0.00425984 0.0123386,0.00777165 0.017378,0.0104213 0.00136614,0.000787402 0.00277559,0.00152756 0.00423228,0.00220472 0.0439016,0.0204488 0.115264,0.00843701 0.162823,0.000433071l0.00614567 -0.00103543z"/>
  <path class="fil10" d="M1.86779 2.09119c-0.0969291,-0.032189 -0.0416063,-0.180606 -0.044378,-0.190307 0.00952362,-0.0181654 0.0406969,-0.0377913 0.0575197,-0.0512165 0.0233583,-0.0186417 0.0478504,-0.0382008 0.0733543,-0.0529882 0.035626,-0.0206496 0.0792717,-0.0289843 0.117933,-0.0285866 0.0480669,0.000503937 0.0922717,0.0159961 0.109606,0.0394213 0.00227165,0.00306299 0.00405906,0.00589764 0.00538583,0.0085 0.0202323,0.0396063 -0.0078622,0.0949409 -0.0496063,0.145504 -0.0889803,0.10778 -0.130264,0.136535 -0.264472,0.129937l-0.00534252 -0.00026378z"/>
  <path class="fil0" d="M2.74102 4.19338c0.0298504,-0.213744 0.0373307,-0.207252 0.018685,-0.440827 -0.035185,0.00112992 -0.13763,0.00266535 -0.202929,-0.0143701 -0.0798583,-0.0208346 -0.0590315,-0.0277795 -0.15278,-0.0729173 -0.0314252,-0.0151299 -0.0655827,-0.0489882 -0.0971063,-0.0873189 -0.00102362,0.0013937 -0.0020748,0.00275197 -0.00315748,0.00406693 0.0631575,0.0803268 0.115197,0.135098 0.133713,0.13598 0.004,0.0450236 0.0085315,0.109862 0.00482677,0.14063 -0.00234252,0.019374 -0.00459449,0.0332441 -0.00670472,0.0462835 -0.00582677,0.0359685 -0.0108622,0.0669961 -0.00764173,0.103157 0.00220472,0.0247638 0.0103031,0.0548937 0.0200748,0.0823031 0.0119882,0.033626 0.0275315,0.0660276 0.0384764,0.0810827 0.000885827,0.00121654 -0.00201181,0.00743307 -0.00321654,0.0210512 -0.0114409,0.12878 -0.0978701,0.340181 -0.152213,0.448815 -0.00761811,0.0152323 -0.0214961,0.0376496 -0.0364409,0.0574567 -0.00875197,0.0115984 -0.0167126,0.0211102 -0.021685,0.0250787l-0.00164173 0.000964567c-0.0121969,0.00750394 -0.0218819,0.0169764 -0.0289567,0.0280748 -0.00854331,0.013378 -0.0124921,0.0279331 -0.0118701,0.043315 0.000562992,0.013878 0.00468504,0.0271929 0.0123346,0.0396417 0.00875591,0.0142323 0.0228701,0.0279961 0.0422165,0.0403504 0.0231378,0.0147874 0.0536142,0.0220669 0.0854764,0.0246063 0.0359567,0.00287008 0.0757992,1.1811e-005 0.106181,-0.00424409 0.0313583,-0.00438583 0.0594724,-0.020252 0.0828031,-0.0401575 0.0284291,-0.0242598 0.0508819,-0.0562559 0.0616142,-0.0777283 0.0119173,-0.0238346 0.0122638,-0.0483228 0.0125906,-0.0726969 5.11811e-005,-0.00374409 -0.000492126,-0.00685827 -0.00116142,-0.00947244 0.0252598,0.00328346 0.0498071,0.00177953 0.0737323,-0.0327835 0.00814173,-0.0117638 0.0197441,-0.12415 0.00438976,-0.119764 -0.00129921,-0.00464567 -0.00302756,0.000728346 -0.00266535,-0.00399606 0.000480315,-0.00618898 0.000692913,-0.0082874 0.000956693,-0.0109567 0.0115236,-0.115315 0.0157087,-0.218484 0.0320984,-0.335626z"/>
  <rect class="fil11" width="6.82666" height="6.82666"/>
 </g>
</svg>
