<?xml version="1.0" encoding="UTF-8"?>
<!DOCTYPE svg PUBLIC "-//W3C//DTD SVG 1.1//EN" "http://www.w3.org/Graphics/SVG/1.1/DTD/svg11.dtd">
<!-- Creator: CorelDRAW -->
<svg xmlns="http://www.w3.org/2000/svg" xml:space="preserve" width="6.82666in" height="6.82666in" style="shape-rendering:geometricPrecision; text-rendering:geometricPrecision; image-rendering:optimizeQuality; fill-rule:evenodd; clip-rule:evenodd"
viewBox="0 0 6.82666 6.82666"
 xmlns:xlink="http://www.w3.org/1999/xlink">
 <defs>
  <style type="text/css">
   <![CDATA[
    .fil9 {fill:none}
    .fil6 {fill:#37474F}
    .fil8 {fill:#876153}
    .fil5 {fill:#ECEFF1}
    .fil0 {fill:#3E2723;fill-rule:nonzero}
    .fil7 {fill:#424242;fill-rule:nonzero}
    .fil3 {fill:#876153;fill-rule:nonzero}
    .fil4 {fill:#BF360C;fill-rule:nonzero}
    .fil1 {fill:#D49A74;fill-rule:nonzero}
    .fil2 {fill:#EBBFA1;fill-rule:nonzero}
   ]]>
  </style>
 </defs>
 <g id="Layer_x0020_1">
  <metadata id="CorelCorpID_0Corel-Layer"/>
  <path class="fil0" d="M2.58867 4.62061c-0.022252,-0.00612598 -0.0142205,0.00206693 -0.0364094,-0.00427953 -0.080563,0.0770551 -0.10563,0.204772 -0.0924567,0.310063 0.00476772,0.0380551 -0.055063,0.0377205 -0.0597677,0 -0.0137559,-0.109906 -0.0115197,-0.248882 0.0613504,-0.338583 -0.012752,-0.00341732 -0.00574016,-0.00255118 -0.0185669,-0.00568898 -0.0946614,0.0739646 -0.114445,0.221224 -0.100878,0.330366 0.0047126,0.0380669 -0.0550906,0.0377402 -0.0597559,0 -0.0243622,-0.195807 0.0725079,-0.494374 0.327469,-0.414268 0.0726024,0.022811 0.110957,0.0992362 0.045748,0.156984 -0.0877953,0.0777283 -0.0687559,0.218496 -0.0669882,0.327 0.00061811,0.0384843 -0.0591417,0.0384843 -0.0597677,0 -0.00198425,-0.123705 -0.0261024,-0.269937 0.0600236,-0.361594z"/>
  <path class="fil1" d="M4.67502 4.09117c0.178118,0.15126 0.350909,0.369941 0.49315,0.556335 0.130917,0.171528 0.292697,0.346732 0.396504,0.534173 0.0915827,0.165339 0.234189,0.407272 0.206248,0.606366 -0.0101181,0.0721378 -0.0600472,0.145945 -0.126421,0.180866 -0.135504,0.0712047 -0.253236,-0.0344134 -0.341571,-0.126374 -0.189709,-0.19748 -0.34965,-0.450618 -0.501752,-0.67728 -0.161024,-0.239984 -0.316724,-0.472622 -0.478102,-0.712181 -0.0468307,-0.0695236 -0.0719567,-0.136563 -0.125579,-0.201949 -0.0268386,-0.0327047 -0.0771575,-0.0754291 -0.0918622,-0.112972 -0.0415984,-0.106205 0.113055,-0.138008 0.188083,-0.151358 0.119622,-0.0212598 0.243331,-0.0350866 0.381303,0.104374z"/>
  <path class="fil2" d="M1.38804 2.43774c0.00723622,0.0809843 -0.0299567,0.162677 -0.046689,0.240862 -0.0184449,0.0863386 -0.0263425,0.16802 -0.0263425,0.257508 0,0.179059 0.00731496,0.359126 0.0531142,0.530886 0.109681,0.411083 0.487831,0.756551 0.871937,0.92985 0.405539,0.18298 0.827815,0.374315 1.28683,0.318169 0.191894,-0.0234646 0.381807,-0.0329567 0.550472,-0.132634 0.172697,-0.102063 0.284933,-0.353661 0.199016,-0.539508 -0.112972,-0.244382 -0.2565,-0.465571 -0.42087,-0.679839 -0.178681,-0.232949 -0.383539,-0.438209 -0.616677,-0.617024 -0.208819,-0.160177 -0.429197,-0.33628 -0.660386,-0.463413 -0.253843,-0.139567 -0.432567,-0.143118 -0.698756,-0.0672953 -0.128791,0.0366929 -0.274697,0.0747008 -0.372122,0.169311l-0.119528 0.053126z"/>
  <path class="fil3" d="M1.9226 1.00674c0,0 0.204189,-0.199213 0.637472,-0.169327 0.433287,0.029878 0.433287,0.134465 0.298819,0.134465 -0.134465,0 -0.277339,0.00745276 -0.337098,0.057252 -0.0597677,0.0498071 -0.0219055,0.076626 -0.0219055,0.076626 0,0 0.234492,-0.0541969 0.418764,0.0304685 0.184272,0.0846654 0.169335,0.154394 0.129492,0.149413 -0.0398465,-0.00498031 -0.219138,-0.0249016 -0.388465,0.0199173 -0.169331,0.0448228 -0.244031,0.124508 -0.244031,0.124508l-0.493047 -0.423323z"/>
  <path class="fil1" d="M2.55675 2.71663c-0.0926299,-0.0344606 -0.249976,0.041878 -0.340335,0.0713701 -0.0666693,0.0217874 -0.142,0.0413031 -0.210846,0.0416693 -0.0525039,0.000271654 -0.129118,-0.00540945 -0.179425,-0.0200748 -0.0473898,-0.0138543 -0.0731102,-0.0385984 -0.126024,-0.0398465 -0.120618,-0.00283858 -0.181429,0.039748 -0.280181,-0.0642559 -0.0885984,-0.093311 -0.0464213,-0.195728 -0.0186378,-0.307425 0.0432283,-0.173669 0.142717,-0.363559 0.145594,-0.543669 -0.0502677,-0.00788583 -0.0971929,0.0302087 -0.145087,0.039689 -0.038752,0.00768504 -0.0797283,0.0076063 -0.119685,0.00577559 -0.124232,-0.00569685 -0.151705,-0.0692441 -0.153067,-0.192059 -0.00388976,-0.350555 0.261425,-0.684768 0.607559,-0.732555 0.219598,-0.0303189 0.45865,-0.0170315 0.63576,0.131539 0.183142,0.153646 0.308256,0.396366 0.442661,0.591433 0.12363,0.179449 0.282146,0.324772 0.448087,0.466453 0.137449,0.117327 0.19963,0.277441 0.309028,0.419055 0.0487953,0.0631614 0.150508,0.160563 0.146224,0.244776 -0.233571,0.0163622 -0.463126,-0.0808858 -0.691831,-0.105657 -0.124409,-0.0134724 -0.341461,0.0499961 -0.469795,-0.00621654z"/>
  <path class="fil4" d="M1.569 1.85587c0,0 -0.0423307,0.171819 -0.062252,0.276406 -0.0199213,0.104587 -0.0423307,0.199213 -0.0423307,0.199213 0,0 -0.19174,0.0647441 -0.266445,0.0996063 -0.0747087,0.0348583 -0.145795,0.0714449 -0.145795,0.0714449 0.200543,-0.18948 0.32628,-0.403161 0.484453,-0.626744 0,0 -0.245563,0.31548 -0.310303,0.415087 -0.064748,0.0996063 -0.170295,0.207445 -0.170295,0.207445 0,0 -0.0074685,-0.154386 0.0174331,-0.343638 0.0249016,-0.189252 0.0821732,-0.321224 0.0821732,-0.321224l0.413362 0.0224055z"/>
  <path class="fil3" d="M4.97383 4.24391c0.0243661,-0.0330906 -0.172752,-0.310642 -0.205795,-0.361906 -0.106504,-0.165268 -0.224512,-0.324902 -0.338728,-0.484909 -0.158154,-0.221563 -0.327752,-0.441004 -0.512764,-0.64063 -0.158965,-0.171512 -0.331626,-0.33822 -0.530437,-0.46548 -0.15728,-0.100673 -0.346094,-0.205827 -0.539547,-0.205181 -0.335933,0.00110236 -0.640823,0.36111 -0.615508,0.692472 0.025,0.327008 0.262843,0.664709 0.459937,0.912028 0.207827,0.26078 0.517902,0.442815 0.835236,0.518744 0.582693,0.139445 1.28677,0.123594 1.44761,0.0348622z"/>
  <circle class="fil5" cx="1.77271" cy="1.60065" r="0.115624"/>
  <circle class="fil6" cx="1.77271" cy="1.60065" r="0.0458394"/>
  <path class="fil7" d="M1.92345 1.57363c-0.0553228,-0.0453583 -0.131783,-0.0736417 -0.198937,-0.0346181 -0.0568465,0.0330236 -0.0712795,0.0998937 -0.0558346,0.159898 0.00638189,0.0248465 -0.0320591,0.035437 -0.0384409,0.0105906 -0.02,-0.0778228 0.00167323,-0.16222 0.0741575,-0.204894 0.0835787,-0.049189 0.177992,-0.0159488 0.247228,0.0408504 0.0198425,0.0162835 -0.00850394,0.044311 -0.0281732,0.0281732z"/>
  <path class="fil8" d="M3.37171 4.46204l0.161839 0 -0.022437 0.199047c-0.00397638,0.0353228 -0.0290945,0.0646417 -0.0646417,0.0646417l-3.93701e-006 0c-0.0355512,0 -0.0628425,-0.0291339 -0.0646417,-0.0646417l-0.0101142 -0.199047z"/>
  <path class="fil0" d="M3.12357 4.73753c-0.022252,-0.00612598 -0.0142205,0.00206693 -0.0364094,-0.00427953 -0.080563,0.0770551 -0.10563,0.204772 -0.0924567,0.310063 0.00476772,0.0380551 -0.055063,0.0377205 -0.0597677,0 -0.0137559,-0.109906 -0.0115197,-0.248882 0.0613504,-0.338583 -0.012752,-0.00341732 -0.00574016,-0.00255118 -0.0185669,-0.00568898 -0.0946614,0.0739646 -0.114445,0.221224 -0.100878,0.330366 0.0047126,0.0380669 -0.0550906,0.0377402 -0.0597559,0 -0.0744134,-0.598087 0.570402,-0.431909 0.373217,-0.257283 -0.0877953,0.0777283 -0.0687559,0.218496 -0.0669882,0.327 0.00061811,0.0384843 -0.0591417,0.0384843 -0.0597677,0 -0.00198425,-0.123705 -0.0261024,-0.269937 0.0600236,-0.361594z"/>
  <path class="fil0" d="M3.42675 4.72455c0.018189,0.00258661 0.0350433,-0.010063 0.0376299,-0.028252 0.00258661,-0.018189 -0.010063,-0.0350433 -0.028252,-0.0376299l-0.2875 -0.0416693c-0.018189,-0.00258661 -0.0350433,0.010063 -0.0376299,0.028252 -0.00258661,0.018189 0.010063,0.0350433 0.028252,0.0376299l0.2875 0.0416693z"/>
  <rect class="fil9" width="6.82666" height="6.82666"/>
 </g>
</svg>
