<?xml version="1.0" encoding="UTF-8"?>
<!DOCTYPE svg PUBLIC "-//W3C//DTD SVG 1.1//EN" "http://www.w3.org/Graphics/SVG/1.1/DTD/svg11.dtd">
<!-- Creator: CorelDRAW -->
<svg xmlns="http://www.w3.org/2000/svg" xml:space="preserve" width="6.82666in" height="6.82666in" style="shape-rendering:geometricPrecision; text-rendering:geometricPrecision; image-rendering:optimizeQuality; fill-rule:evenodd; clip-rule:evenodd"
viewBox="0 0 6.82666 6.82666"
 xmlns:xlink="http://www.w3.org/1999/xlink">
 <defs>
  <style type="text/css">
   <![CDATA[
    .fil13 {fill:none}
    .fil12 {fill:#A46741}
    .fil4 {fill:#46372F;fill-rule:nonzero}
    .fil3 {fill:#8F5A3A;fill-rule:nonzero}
    .fil8 {fill:#935B3A;fill-rule:nonzero}
    .fil2 {fill:#A46741;fill-rule:nonzero}
    .fil10 {fill:#A52F22;fill-rule:nonzero}
    .fil9 {fill:#B27853;fill-rule:nonzero}
    .fil11 {fill:#BC442F;fill-rule:nonzero}
    .fil1 {fill:#BD7D54;fill-rule:nonzero}
    .fil6 {fill:#C6855A;fill-rule:nonzero}
    .fil0 {fill:#DAA739;fill-rule:nonzero}
    .fil5 {fill:#FEFEFE;fill-rule:nonzero}
    .fil7 {fill:#A46741;fill-rule:nonzero;fill-opacity:0.501961}
   ]]>
  </style>
 </defs>
 <g id="Layer_x0020_1">
  <metadata id="CorelCorpID_0Corel-Layer"/>
  <g id="_213850880">
   <g>
    <polygon id="_215587112" class="fil0" points="5.73735,2.41716 4.98128,2.7473 2.247,2.7473 2.10279,2.92288 5.03372,2.92288 5.85153,2.56583 "/>
    <path id="_215586632" class="fil1" d="M0.840283 2.00741c0.000181102,-0.000740157 0.000181102,-0.00112992 0.000370079,-0.00169685 0,0 -0.000188976,-0.000188976 0,-0.000188976 -0.000188976,0.000574803 -0.000188976,0.00114567 -0.000370079,0.00188583z"/>
    <path id="_215586824" class="fil1" d="M0.840079 2.01402c-0.00149213,0.0207717 -0.00602756,0.0375866 0.0179449,0.0496693 0.0139843,0.00699213 0.0298425,0.00944094 0.0443976,0.0147362 0.0166181,0.00584646 0.0302087,0.0167992 0.0462559,0.0234213 0.0704882,0.0290827 0.038874,-0.0712205 0.218701,0.0207677 0.0368307,0.0188858 0.0814055,0.0181339 0.121819,0.0228543 0.0449488,0.00529134 0.0898937,0.0122795 0.134858,0.018126 0.00717323,0.000944882 0.0139606,0.00188189 0.0201969,0.00320866 0.0256929,0.00511024 0.0436378,0.0143504 0.0566575,0.0428819 0.00887008,0.0196417 0.0173701,0.0394724 0.025878,0.0594843 0.00774016,0.018126 0.0154882,0.0362559 0.0234213,0.0543858 0.0353189,0.0799016 0.0672244,0.162047 0.106697,0.240039 0.0368268,0.0727244 0.0521378,0.155449 0.0961457,0.224571 0.0207638,0.0324803 0.0473976,0.0602402 0.0738307,0.0881969 0.0300433,0.0317244 0.0581654,0.0651614 0.0912165,0.0938583 0.117287,0.101232 0.263654,0.16752 0.416248,0.192827 0.169795,0.0279606 0.346189,0.00811811 0.508988,-0.0462756 0.0203976,-0.0067874 0.0407953,-0.0139606 0.060626,-0.0220945 0.018315,-0.00774409 0.0360748,-0.0188858 0.0559016,-0.0224606 0.0336181,-0.00587008 0.0545748,0.0196417 0.0717638,0.0447598 0.0200276,0.029063 0.0413661,0.0564528 0.069126,0.0785512 0.0272008,0.0215433 0.0617638,0.0340079 0.086315,0.0587402 0.027185,0.0270039 0.034374,0.0689409 0.0415512,0.105 0.00829921,0.042126 0.0171693,0.0840433 0.0262441,0.125984 0.0188858,0.0868661 0.0447598,0.17222 0.0610079,0.259685 0.00811811,0.0436142 0.0139646,0.0879882 0.0158622,0.132386 0.00188583,0.044374 0.000755906,0.088378 0.00433858,0.132752 0.00717323,0.0893386 -0.00774803,0.177169 -0.00490945,0.266307 0.00151575,0.043252 0.0105748,0.0819606 0.0272047,0.122 0.0164173,0.0398583 0.0302126,0.0783661 0.0362598,0.121248 0.0120787,0.0880118 0.00944094,0.179236 0.00264173,0.267618 -0.0066063,0.0855551 -0.0151102,0.176394 -0.0394724,0.25911 -0.0058622,0.0202165 -0.0139764,0.0394685 -0.0249331,0.0576142 -0.0100157,0.0164173 -0.0207717,0.0320945 -0.0264331,0.0509843 -0.0111575,0.0362598 -0.00813386,0.0736575 -0.0255039,0.108409 -0.0154724,0.0309646 -0.0407992,0.0581693 -0.0711929,0.0747874 -0.0285354,0.0154921 -0.0611969,0.0137953 -0.0897087,0.0275709 -0.0139803,0.00662205 -0.0245472,0.017374 -0.0319252,0.0309882 -0.00472047,0.00887008 -0.0160472,0.028126 -0.0124685,0.0385079 0.00396457,0.0115315 0.0239961,0.0109567 0.0340079,0.0132205 0.0185,0.00453937 0.0369961,0.00964961 0.0558858,0.0130433 0.0432677,0.00754331 0.0878307,0.00584646 0.13165,0.00433465 0.0377717,-0.00112205 0.0762953,-0.00357874 0.113492,-0.0101969 0.0256929,-0.00452362 0.0787559,-0.0147244 0.076874,-0.0496693 -0.00096063,-0.0151102 -0.016815,-0.0311535 -0.00831496,-0.0460748 0.00565748,-0.0100157 0.0190709,-0.0118937 0.0294724,-0.0128543 0.0319055,-0.00300787 0.0638307,-0.000940945 0.0959252,-0.00584646 0.0255079,-0.00378346 0.0723346,-0.0132283 0.0789528,-0.0438228 0.00584646,-0.025874 -0.0196417,-0.0517362 -0.0322913,-0.0715748 -0.0188898,-0.0294567 -0.0190709,-0.0594843 0.0033937,-0.0872598 0.0130354,-0.0160433 0.0220945,-0.0294528 0.0224764,-0.0509764 0.000377953,-0.0194606 -0.00340945,-0.0392835 -0.00604724,-0.058374 -0.00565748,-0.0434331 -0.0113228,-0.0868661 -0.0147323,-0.130689 -0.00699213,-0.0912205 -0.0107559,-0.183185 -0.0111417,-0.274606 -0.000188976,-0.0914055 0.00566535,-0.182421 0.0130394,-0.273461 0.00698819,-0.0878268 0.0152913,-0.176579 -0.00341339,-0.263461 -0.018315,-0.0846024 -0.0468268,-0.16563 -0.0572087,-0.251945 -0.0107717,-0.0897087 -0.0124685,-0.179984 -0.0232402,-0.269693 -0.00547638,-0.0453189 -0.0117126,-0.0906535 -0.0158622,-0.136169 -0.00283858,-0.0298386 -0.00660236,-0.0615591 -0.0033937,-0.0915866 0.0032126,-0.0285157 0.0135906,-0.0489134 0.0451299,-0.0430669 0.0394724,0.00756693 0.0783858,0.0107717 0.118614,0.0126535 0.0921614,0.00435039 0.184323,0.00320866 0.276669,0.00245669 0.0899094,-0.000759843 0.179988,0.00019685 0.269697,-0.00358268 0.16413,-0.00717323 0.329937,-0.0396693 0.478016,-0.112378 0.0759134,-0.0372008 0.146555,-0.0840433 0.213024,-0.135976 0.033626,-0.026252 0.0660984,-0.0540079 0.0978268,-0.0827244 0.0311654,-0.0279409 -0.0456063,0.0133622 -0.00235827,0.0093937 -0.00700787,0.338961 0.0439646,-0.0349724 0.140055,0.395335 0.0132008,0.0362598 0.0322756,0.0700551 0.0507953,0.103862 0.0190669,0.0347677 0.0415551,0.068189 0.0570236,0.104835 0.014937,0.034748 0.0168228,0.0717638 0.015126,0.109146 -0.00169685,0.0421299 -0.00320866,0.0842323 -0.00435433,0.126543 -0.000940945,0.0404094 -0.00414961,0.0812087 0.00169685,0.121429 0.0280315,0.193346 0.0131614,0.38552 -0.0390787,0.576602 -0.0109606,0.0396496 -0.0232402,0.078937 -0.0347677,0.118421 -0.0230354,0.0789409 -0.0460709,0.158063 -0.0732795,0.235689 -0.0128346,0.0372008 -0.0262402,0.0742165 -0.0421024,0.110295 -0.0158661,0.0355039 -0.0366457,0.0662874 -0.0595,0.0978386 -0.0205787,0.0285197 -0.0373858,0.0602402 -0.061378,0.0862992 -0.0239803,0.0262638 -0.0557008,0.0438268 -0.0900787,0.051752 -0.0290866,0.00680709 -0.0621339,0.00302756 -0.0887677,0.0181299 -0.0200118,0.0113228 -0.0479724,0.051752 -0.0289055,0.0746063 0.0100157,0.0118937 0.0334409,0.00905118 0.0472205,0.00981102 0.0198425,0.00096063 0.0396693,0.00169291 0.0595,0.00245276 0.0423071,0.00114173 0.0845945,0.00189764 0.12672,0.00302362 0.0224843,0.000574803 0.0585433,0.00792913 0.0751614,-0.0117126 0.0215394,-0.0254882 -0.0107559,-0.062689 0.00698425,-0.0917756 0.00983465,-0.0158583 0.0272087,-0.0255039 0.0404291,-0.0383425 0.0115118,-0.0115236 0.0190709,-0.0253031 0.0254882,-0.0402244 0.0158622,-0.0366457 0.0279646,-0.0749724 0.0417441,-0.112378 0.0281417,-0.0770512 0.0596811,-0.152965 0.0904646,-0.228902 0.0313504,-0.0774213 0.0627047,-0.154866 0.0985787,-0.230413 0.0347441,-0.0736457 0.0774449,-0.142587 0.119933,-0.211894 0.0205866,-0.0334252 0.0428661,-0.0662874 0.0592992,-0.101976 0.017189,-0.0370197 0.0153031,-0.0712126 0.00717323,-0.110106 -0.0169843,-0.0815906 -0.0217047,-0.164315 -0.025874,-0.247417 -0.00187795,-0.0419252 -0.00376378,-0.0838465 -0.00490945,-0.125787 -0.000755906,-0.0217087 -0.000566929,-0.0436142 -0.00206299,-0.0651417 -0.000570866,-0.00813386 -0.00247244,-0.0168228 0,-0.0249331 0.00206299,-0.00756299 0.00829921,-0.0130394 0.0122598,-0.0194606 0.0256969,0.0339921 0.033626,0.0721496 0.0419252,0.113504 0.00888976,0.043248 0.0126535,0.0874606 0.0215433,0.130705 0.00887008,0.0441929 0.0253031,0.0861102 0.0424961,0.127854 0.0173701,0.042122 0.0309646,0.0834724 0.0241614,0.129748 -0.00624016,0.0440039 0.00038189,0.0872559 -0.00112598,0.131445 -0.00151575,0.0479724 -0.0033937,0.0950039 0.00132677,0.142772 0.00471654,0.0489291 0.0102008,0.0974567 0.00944094,0.146752 -0.000570866,0.0483425 -0.00774409,0.0961299 -0.0143661,0.143713 -0.0135906,0.0961496 -0.0177402,0.193213 -0.0337913,0.288768 -0.00755906,0.0445787 -0.0211496,0.0870748 -0.0396693,0.12824 -0.00962598,0.0213543 -0.0202165,0.0423071 -0.0285118,0.0642205 -0.00699213,0.018126 -0.0118976,0.0368346 -0.0198268,0.0545748 -0.0164331,0.0360787 -0.0460906,0.0647953 -0.0829252,0.0798976 -0.035685,0.0145315 -0.0793071,0.0167992 -0.110287,0.0419213 -0.0268228,0.0220945 -0.00962992,0.0479724 0.0160433,0.0598622 0.0340118,0.0155 0.0748071,0.0134134 0.111067,0.0126575 0.0464567,-0.00112598 0.0929213,-0.0032126 0.139173,-0.00509055 0.0173937,-0.000574803 0.0389173,-0.00114567 0.051,-0.0156772 0.0105827,-0.0126535 0.00717323,-0.0294764 0.00283465,-0.0440039 -0.00662205,-0.0220945 -0.0152874,-0.0424961 -0.00641732,-0.0657362 0.0066063,-0.0167992 0.0198307,-0.0294567 0.0303976,-0.0436181 0.0272008,-0.035685 0.0196417,-0.0870748 0.0217244,-0.129563 0.00453543,-0.0946142 0.0230354,-0.188472 0.0400394,-0.281575 0.017189,-0.0936772 0.0358898,-0.187165 0.0579882,-0.279902 0.0215236,-0.0897087 0.0432323,-0.182441 0.0777953,-0.268185 0.0083189,-0.0204016 0.0177598,-0.0402244 0.0298386,-0.0585394 0.0107717,-0.016248 0.0256929,-0.0309882 0.0304134,-0.0504252 0.00983071,-0.0400394 -0.018126,-0.0774449 -0.0322913,-0.112559 -0.0175591,-0.0434567 -0.0277598,-0.0908543 -0.0404094,-0.135799 -0.0132244,-0.0466457 -0.025878,-0.0933071 -0.0379764,-0.140134 -0.0237913,-0.0923465 -0.0373858,-0.183016 -0.0355,-0.27839 0.0018937,-0.0976378 0.0101969,-0.195087 0.0156732,-0.292724 0.00547638,-0.0978268 0.00962598,-0.196035 0.0167992,-0.293862 0.00681102,-0.0955709 0.0175827,-0.190945 0.0190906,-0.286705 0.00169685,-0.0955551 -0.000389764,-0.195075 -0.017189,-0.289319 -0.0073622,-0.0407992 -0.0217244,-0.0782008 -0.0485394,-0.110106 -0.026815,-0.0317244 -0.0549646,-0.0589252 -0.0744055,-0.0963307 -0.289492,-0.345583 -0.535685,-0.34665 -0.796236,-0.586783 -0.033626,-0.0307795 -0.0719685,-0.0574094 -0.110496,-0.0817717 -0.0749724,-0.0474016 -0.155811,-0.0863189 -0.240598,-0.112748 -0.17678,-0.0555315 -0.367154,-0.0540236 -0.547327,-0.0173937 -0.0832913,0.0170039 -0.166378,0.0438228 -0.232476,0.0991535 -0.0636496,0.0532638 -0.0967008,0.128992 -0.136929,0.199445 -0.279449,0.470016 -0.835602,1.22863 -1.47311,0.804173 -0.0683661,-0.0453346 -0.119362,-0.111433 -0.162228,-0.180559 -0.0948189,-0.152602 -0.148079,-0.325972 -0.191701,-0.499154 0.0251181,0.00169685 0.0464606,-0.0202165 0.0623228,-0.0368307 0.0196417,-0.0203976 0.0362598,-0.043622 0.0476024,-0.069685 0.0222795,-0.0509921 0.0236102,-0.110858 0.00509055,-0.163185 -0.0266339,0.0209685 -0.0547756,0.0404291 -0.0846024,0.0564724 -0.025874,0.0141693 -0.0553504,0.0222835 -0.0793228,0.0400394 -0.0310787,-0.052622 -0.118591,-0.0440079 -0.142787,-0.0285118 -0.0103858,0.00245276 -0.0239803,0.0039685 -0.0343661,0.000370079 -0.00661811,-0.00206693 -0.00717323,-0.00433465 -0.0134055,-0.00887008 -0.0390984,-0.0283307 -0.0923661,-0.0275709 -0.134862,-0.0083189 -0.0222756,0.0100157 -0.0423071,0.024752 -0.0579685,0.0434528 -0.00340945,0.0039685 -0.0283228,0.0468268 -0.0245591,0.0464567 -0.043622,0.036811 -0.0957441,0.0649606 -0.15222,0.0755472 -0.0305945,0.00584252 -0.0621299,0.00547638 -0.0927323,0.0113268 -0.0292677,0.00547638 -0.0547756,0.0200039 -0.0825315,0.0302087 -0.0289016,0.0107677 -0.060811,0.0109528 -0.0889528,0.0239961 -0.0264291,0.0122795 -0.0477717,0.0328661 -0.0670433,0.0542047 -0.0341772,0.0383425 -0.0679843,0.0832913 -0.0783858,0.134654z"/>
    <path id="_215586800" class="fil1" d="M0.839709 2.01572c0.000188976,-0.000570866 0.000188976,-0.00112598 0.000370079,-0.00169685 0.000204724,-0.000937008 0.000385827,-0.00208268 0.000204724,-0.00320866 -0.000204724,0.00169685 -0.000385827,0.0033937 -0.000574803,0.00490551z"/>
    <path id="_215586752" class="fil2" d="M1.6531 1.72831c0,0 -0.0305,-0.041315 -0.105976,-0.0401811 -0.0755,0.00112598 -0.0454528,0.0401811 -0.0454528,0.0401811 0,0 0.023,0.0496575 0.0831929,0.050811 0.060189,0.0011811 0.0682362,-0.050811 0.0682362,-0.050811z"/>
    <path id="_215586896" class="fil3" d="M1.63128 1.72977c0,0 -0.0220315,-0.0298425 -0.0765866,-0.0290433 -0.0545472,0.000799213 -0.0328504,0.0290433 -0.0328504,0.0290433 0,0 0.016626,0.0359055 0.060122,0.0367244 0.0435039,0.000846457 0.049315,-0.0367244 0.049315,-0.0367244z"/>
    <path id="_213837512" class="fil4" d="M1.54024 1.73228c0,0.0115709 0.0057874,0.0216772 0.0144606,0.028189l0.000240157 0c0.00648425,0.00313386 0.0139646,0.00529528 0.0226378,0.00601969 0.0175669,-0.00145276 0.031063,-0.0161496 0.031063,-0.0342087 0,-0.00961417 -0.00411811,-0.0185276 -0.0106063,-0.0247795l-0.000232283 0c-0.00987795,-0.00362598 -0.0219173,-0.00627953 -0.0366102,-0.00675197l-0.000232283 0c-0.0120394,0.00555118 -0.0207205,0.0175906 -0.0207205,0.0315315z"/>
    <path id="_213855272" class="fil5" d="M1.55501 1.72644c0,0.00733858 0.00588583,0.0132126 0.0132244,0.0132126 0.00725984,0 0.0132165,-0.00587402 0.0132165,-0.0132126 0,-0.00729528 -0.00595669,-0.0132165 -0.0132165,-0.0132165 -0.00733858,0 -0.0132244,0.00592126 -0.0132244,0.0132165z"/>
    <path id="_213844832" class="fil2" d="M1.69961 1.75234c0,0 0.0188583,0.0968543 -0.0895394,0.0968543l-0.110228 0c0,0 0.189209,-0.0111732 0.199768,-0.0968543z"/>
    <path id="_213836672" class="fil2" d="M1.68593 1.73419c0,0 -0.0115709,-0.0178465 -0.0360709,-0.0382362 -0.0122441,-0.0101535 -0.0277638,-0.020878 -0.0465079,-0.0291772 -0.00937795,-0.00401969 -0.0194921,-0.00775984 -0.0303307,-0.00992126 -0.0108661,-0.00216535 -0.0222717,-0.0028937 -0.0338386,-0.00227953 -0.0057126,0.000748031 -0.0114252,0.002 -0.0170906,0.00302756l-0.0151654 0.00479921c-0.0104213,0.00375984 -0.0203661,0.00911811 -0.0290433,0.0145315 -0.00874803,0.00566535 -0.0164134,0.0122717 -0.0230394,0.0190906 -0.00649213,0.00691339 -0.0119528,0.0140394 -0.0161063,0.0211142 -0.00853937,0.0139921 -0.0124921,0.0270433 -0.0143465,0.0360945 -0.00185827,0.00914961 -0.00166535,0.0144409 -0.00166535,0.0144409 0,0 0.00738189,-0.0202992 0.0271299,-0.0423504 0.00491339,-0.00548031 0.0108425,-0.0107717 0.0171929,-0.0160787 0.00650787,-0.0051063 0.0138661,-0.0097126 0.0216732,-0.0140866 0.00809055,-0.00430315 0.0163465,-0.00729134 0.0250236,-0.0104921l0.0141732 -0.00411417 0.0133858 -0.00201969c0.0367205,-0.00312598 0.0744606,0.0145787 0.100772,0.0287795 0.0265433,0.014811 0.0438543,0.026878 0.0438543,0.026878z"/>
    <path id="_213864296" class="fil6" d="M1.35864 1.73294c-0.0275197,0.0231496 -0.0579291,0.039563 -0.0900984,0.0569567 -0.0683504,0.0364409 -0.148819,0.0109331 -0.216047,0.0521181 -0.0264488,0.0164331 -0.0630748,0.0158622 -0.0944252,0.025122 -0.019626,0.0056811 -0.0416535,0.0209843 -0.0630591,0.0413504 0.0325709,-0.044248 0.0734016,-0.0819449 0.107134,-0.0917047 0.0313543,-0.00925591 0.0679843,-0.00868504 0.0944291,-0.0251181 0.0672087,-0.0411654 0.147657,-0.0156772 0.216047,-0.052122 0.0194016,-0.0104961 0.0380709,-0.0208228 0.0559252,-0.0322795 -0.00867323,0.0151102 -0.012122,0.0264173 -0.012122,0.0264173l0.00221654 -0.000740157z"/>
    <path id="_213861296" class="fil2" d="M1.94929 1.60501c0,0 0.0086811,0.104071 -0.0736299,0.162461 0,0 -0.0378268,-0.00942126 -0.051622,-0.0805748 0,0 0.0822953,-0.0312795 0.125252,-0.0818858z"/>
    <path id="_213858536" class="fil7" d="M1.44425 2.16681c0.0256929,0.00511024 0.0436378,0.0143504 0.0566575,0.0428819 0.00887008,0.0196417 0.0173701,0.0394724 0.025878,0.0594843 0.0230315,-0.0124685 0.0428622,-0.0309724 0.0594961,-0.0511811 0.00433465,-0.00509055 0.00830315,-0.0103858 0.0120827,-0.0154921 0.0311654,-0.043252 0.0477835,-0.0879961 0.0494803,-0.0927205 -0.0205827,0.0247362 -0.0585394,0.0389016 -0.0983898,0.0468268 -0.0381614,0.00774803 -0.078185,0.0100197 -0.105205,0.0102008z"/>
    <path id="_213855248" class="fil7" d="M1.06386 1.88117c0,0 -0.0826299,0.00787402 -0.111752,0.0676693 0,0 0.0141654,0.0401339 0.0558819,0.0377756 0,0 -0.0102362,-0.0590197 0.0558701,-0.105445z"/>
    <path id="_213854744" class="fil7" d="M1.03047 2.08551c0,0 0.00612598,-0.00179134 0.0164882,-0.00577559 0.010252,-0.00424016 0.0251732,-0.00990551 0.0420512,-0.0190906 0.00848031,-0.00453543 0.0175787,-0.00971654 0.0266496,-0.0162638 0.0045748,-0.00324803 0.00924016,-0.00666142 0.0137598,-0.0106575 0.00315354,-0.00256693 0.00914961,-0.0078622 0.0130591,-0.00914961 0.00824409,-0.00433858 0.0204331,-0.00765748 0.0318307,-0.0102008 0.011622,-0.00278346 0.0239055,-0.00446457 0.0361535,-0.00612205 0.0245433,-0.00328346 0.0494803,-0.00503937 0.0728504,-0.00645669 0.0232008,-0.000716535 0.0461811,-0.00241732 0.064937,-0.00584646 0.0189646,-0.00319291 0.0343819,-0.00825984 0.0447087,-0.0126496 0.00514567,-0.00230709 0.009,-0.00448425 0.0114134,-0.00627559 0.00245669,-0.00169291 0.00376378,-0.00261811 0.00376378,-0.00261811 0,0 -0.00579134,0.00284252 -0.0163622,0.00538583 -0.0105433,0.0027874 -0.0261142,0.00435039 -0.0447362,0.00537008 -0.00933858,0.00046063 -0.0194843,0.000586614 -0.0301575,0.000645669 -0.010811,-0.000185039 -0.0221929,-0.000425197 -0.0339724,-0.000629921 -0.0239409,-0.000165354 -0.0493937,0.00135039 -0.0748976,0.00437402 -0.0127087,0.00191732 -0.0254331,0.00388976 -0.0379252,0.00709843 -0.0127047,0.00315354 -0.024252,0.00675197 -0.0366457,0.0140354 -0.00335433,0.00175197 -0.00577165,0.00361417 -0.00783465,0.0055l-0.00332283 0.00276378 -0.00348819 0.0034685c-0.00366929,0.00388976 -0.00772441,0.00745276 -0.0117087,0.0108465 -0.00803937,0.00674803 -0.0161024,0.012815 -0.0237362,0.0181811 -0.015311,0.0107323 -0.0285354,0.0193661 -0.0380118,0.0250118 -0.00946457,0.00575197 -0.0148661,0.00905512 -0.0148661,0.00905512z"/>
    <path id="_213854648" class="fil8" d="M1.49752 2.2057c0,0.000204724 0,0.000389764 0.000181102,0.000574803l0 -0.000370079 -0.000181102 -0.000204724z"/>
    <path id="_213854552" class="fil8" d="M1.4977 2.20591l-0.000181102 -0.000204724c0,0.000204724 0,0.000389764 0.000181102,0.000574803l0 -0.000370079z"/>
    <path id="_213854984" class="fil2" d="M5.5463 3.61158c0.149421,0.110138 0.118705,0.0980315 0.14952,0.248189 0.00888583,0.044189 0.0253228,0.0861102 0.0424921,0.127846 0.0173701,0.042126 0.0309843,0.0834803 0.0241732,0.129748 -0.00622835,0.0440079 0.000393701,0.0872598 -0.00111811,0.131453 -0.00151575,0.0479685 -0.00341339,0.0949961 0.00130709,0.142783 0.00472047,0.0489134 0.0101969,0.0974409 0.00944488,0.14674 -0.000551181,0.0483386 -0.00773228,0.0961299 -0.0143504,0.143728 -0.0135906,0.096126 -0.0177402,0.193197 -0.0338071,0.288768 -0.00754331,0.0445591 -0.0211575,0.0870551 -0.0396535,0.12824 -0.00962992,0.0213386 -0.0202126,0.0422874 -0.0285118,0.0642008 -0.00699213,0.0181299 -0.0119173,0.0368307 -0.0198465,0.0545945 -0.0139843,0.0307087 -0.0376063,0.0559921 -0.0670433,0.0721654 0.00191732,-0.00344882 0.00378346,-0.00695669 0.0054252,-0.0105472 0.00792913,-0.0177638 0.0128307,-0.0364449 0.0198228,-0.0545748 0.0083189,-0.0219094 0.0188898,-0.0428819 0.0285157,-0.0642205 0.0185157,-0.0411614 0.0321102,-0.0836575 0.0396732,-0.12824 0.0160433,-0.0955551 0.0202165,-0.192642 0.0338031,-0.288768 0.0066063,-0.0475827 0.0137795,-0.0953701 0.0143504,-0.143728 0.000755906,-0.0492795 -0.00472047,-0.0978228 -0.00944094,-0.146732 -0.00472441,-0.0477913 -0.00284252,-0.0948228 -0.00132677,-0.142791 0.00151181,-0.0441929 -0.00509449,-0.0874449 0.0011378,-0.131449 0.0067874,-0.0462559 -0.00680315,-0.087622 -0.0241772,-0.129728 -0.017189,-0.0417598 -0.0336181,-0.0836811 -0.0424882,-0.12787 -0.00181102,-0.00879921 -0.00330315,-0.0176732 -0.00478346,-0.0265433 -0.000826772,-0.0146417 -0.00159843,-0.0292874 -0.00233858,-0.0439685 -0.00209449,-0.0465591 -0.0871614,-0.218181 -0.0807795,-0.239295z"/>
    <path id="_213854864" class="fil2" d="M2.90496 3.05516c0.0203937,-0.00680315 0.0407913,-0.0139803 0.060622,-0.0220945 0.0183307,-0.00774803 0.0360709,-0.0188858 0.0559016,-0.0224843 0.033622,-0.00584646 0.0545906,0.0196417 0.0717795,0.0447598 0.0200118,0.0290906 0.0413504,0.0564764 0.0691102,0.0785748 0.0272008,0.0215197 0.0617677,0.0339882 0.086315,0.0587402 0.0272047,0.027 0.0343819,0.0689213 0.0415551,0.104996 0.00829528,0.0421299 0.017189,0.0840472 0.0262402,0.125965 0.0188898,0.0868898 0.0447638,0.172244 0.0610118,0.259685 0.00811417,0.0436378 0.0139803,0.0880118 0.0158622,0.132409 0.00188189,0.0443701 0.000759843,0.088374 0.00433465,0.132752 0.00718504,0.0893386 -0.00772835,0.177146 -0.00490157,0.266303 0.00150787,0.043252 0.0105827,0.0819646 0.0271929,0.122004 0.016437,0.0398425 0.0302126,0.0783661 0.0362598,0.121248 0.0120827,0.0880118 0.00944488,0.179236 0.00264173,0.26761 -0.0066063,0.085563 -0.0151102,0.176402 -0.0394724,0.259118 -0.00584646,0.0202165 -0.0139803,0.0394646 -0.0249252,0.0575984 -0.01,0.0164291 -0.0207717,0.0321102 -0.0264331,0.0509961 -0.0111378,0.0362598 -0.0081378,0.0736614 -0.0255079,0.108409 -0.0149724,0.0299724 -0.0392835,0.0561772 -0.0683504,0.0729291 0.00223228,-0.00376378 0.00479134,-0.00740157 0.00673228,-0.0113071 0.0173701,-0.034752 0.0143465,-0.0721339 0.0254882,-0.108409 0.00567717,-0.0188898 0.0164331,-0.0345472 0.0264488,-0.0509843 0.0109567,-0.018126 0.0190709,-0.0373976 0.0249331,-0.0576142 0.0243622,-0.0827165 0.0328504,-0.173555 0.0394724,-0.25911 0.00679921,-0.0883819 0.00943701,-0.179606 -0.00264173,-0.267618 -0.00604724,-0.0428622 -0.0198425,-0.0813898 -0.0362756,-0.121248 -0.0166142,-0.0400394 -0.0256732,-0.078748 -0.027189,-0.122 -0.00283858,-0.0891378 0.0120827,-0.176969 0.00490945,-0.266287 -0.00358268,-0.0443937 -0.00245276,-0.0883976 -0.00433858,-0.132772 -0.00189764,-0.0443976 -0.00774409,-0.0887717 -0.015878,-0.132386 -0.0162323,-0.0874646 -0.0421063,-0.172819 -0.0609921,-0.259685 -0.0090748,-0.0419409 -0.0179449,-0.0838583 -0.0262441,-0.125965 -0.00719291,-0.0360787 -0.0143661,-0.0780157 -0.0415512,-0.10502 -0.0245512,-0.0247323 -0.0591142,-0.0371969 -0.086315,-0.0587402 -0.0277598,-0.0220984 -0.0490984,-0.0494646 -0.069126,-0.0785512 -0.017189,-0.0251181 -0.0381457,-0.0506299 -0.0717638,-0.0447598 -0.0198268,0.0035748 -0.0375866,0.0147165 -0.0559016,0.0224606 -0.0198307,0.00813386 -0.0402283,0.0153071 -0.060626,0.0220945 -0.162799,0.0543937 -0.339193,0.0742362 -0.508988,0.0462756 -0.152594,-0.0253071 -0.298961,-0.0915945 -0.416248,-0.192827 -0.128831,-0.111858 -0.174531,-0.184693 -0.234169,-0.343575 0.00184252,0.00237402 0.00385827,0.00431102 0.0059685,0.00642126 2.75591e-005,3.93701e-005 0.0148819,0.0208504 0.0117165,0.0145039 0.193339,0.386661 0.795953,0.543673 1.20334,0.407583z"/>
    <path id="_213854360" class="fil2" d="M3.6619 3.23288c0.0394724,0.00755906 0.0783898,0.0107717 0.118614,0.0126496 0.0921614,0.00435433 0.184323,0.0032126 0.276689,0.00245276 0.0898898,-0.000755906 0.179969,0.000188976 0.269677,-0.0035748 0.16413,-0.00717323 0.329957,-0.0396693 0.47802,-0.112378 0.0759134,-0.0372008 0.146551,-0.0840433 0.21302,-0.13598 0.033626,-0.026248 -0.0554291,0.0640354 -0.023689,0.0353346 0.0311535,-0.0279606 0.048122,-0.0743189 0.091374,-0.0782835 0.0639252,0.399008 0.411201,0.628016 0.461354,0.659307 0.0632244,0.0394488 0.00703937,0.0149409 0.0131457,0.101933 0.00149606,0.0215276 0.00130709,0.0434331 0.00206299,0.0651417 0.00114567,0.0419409 0.0030315,0.0838622 0.00490945,0.125787 0.00416929,0.0831024 0.00888976,0.165827 0.025874,0.247417 0.00812992,0.0388937 0.0100157,0.0730866 -0.00717323,0.110106 -0.0164331,0.035689 -0.0387126,0.0685512 -0.0592992,0.101976 -0.0424882,0.0693071 -0.085189,0.138248 -0.119933,0.211894 -0.035874,0.0755472 -0.0672283,0.152992 -0.0985787,0.230413 -0.0307835,0.075937 -0.0623228,0.15185 -0.0904646,0.228902 -0.0137795,0.0374055 -0.0258819,0.0757323 -0.0417441,0.112378 -0.00641732,0.0149213 -0.0139764,0.0287008 -0.0254882,0.0402244 -0.0132205,0.0128386 -0.0305945,0.0224843 -0.0404291,0.0383425 -0.0177402,0.0290866 0.0145551,0.0662874 -0.00698425,0.0917756 -0.0166181,0.0196417 -0.0526772,0.0122874 -0.0751614,0.0117126 -0.042126,-0.00112598 -0.0844134,-0.00188189 -0.12672,-0.00302362 -0.0198307,-0.000759843 -0.0396575,-0.00149213 -0.0595,-0.00245276 -0.0137795,-0.000759843 -0.0372047,0.00208268 -0.0472205,-0.00981102 -0.0190669,-0.0228543 0.0088937,-0.0632835 0.0289055,-0.0746063 0.0266339,-0.0151024 0.0596811,-0.0113228 0.0887677,-0.0181299 0.034378,-0.0079252 0.0660984,-0.0254882 0.0900787,-0.051752 0.0091811,-0.00997244 0.017311,-0.0207717 0.0249961,-0.0319055l-0.000393701 0.000240157c0.0125079,-0.0180748 0.0239961,-0.0369213 0.0367756,-0.0546339 0.0228543,-0.0315354 0.0436339,-0.0623189 0.0595,-0.0978386 0.0158622,-0.0360591 0.0292677,-0.0730709 0.0421024,-0.110295 0.0272087,-0.0776102 0.0502441,-0.156748 0.0732795,-0.235689 0.0115276,-0.0394685 0.0238071,-0.078752 0.0347677,-0.118421 0.00981102,-0.035874 0.00547638,-0.0732795 0.0120787,-0.10972 0.00698819,-0.0387165 0.0194567,-0.0763031 0.0273858,-0.114827 0.00811811,-0.0389016 0.0122677,-0.0785748 0.017378,-0.117858 0.00547638,-0.0405906 -0.00293701,-0.0715472 -0.00690157,-0.112524 -0.00377953,-0.0379606 -0.00538583,-0.083878 -0.0108622,-0.121654 -0.00584646,-0.0402402 -0.0026378,-0.0810197 -0.00169685,-0.121449 0.00114567,-0.0422913 0.00264173,-0.0844134 0.00435433,-0.126543 0.00169685,-0.0373819 -0.000204724,-0.0743976 -0.015126,-0.109146 -0.0154685,-0.0366457 -0.0379567,-0.0700669 -0.0570236,-0.104811 -0.0185197,-0.0338071 -0.0375945,-0.0676102 -0.050815,-0.10387 -0.0701024,-0.164709 -0.137201,-0.218992 -0.157402,-0.34674 -0.043252,0.0039685 -0.0706378,0.0321102 -0.101807,0.0600512 -0.0317244,0.0287165 0.0573307,-0.0615827 0.0237047,-0.0353307 -0.0664685,0.0519331 -0.13711,0.0987756 -0.213039,0.135976 -0.148063,0.0727244 -0.31389,0.105205 -0.478,0.112378 -0.0897087,0.00377953 -0.179803,0.00284252 -0.269697,0.00359843 -0.0923465,0.00073622 -0.184508,0.00187795 -0.276669,-0.00247244 -0.0350079,-0.00164173 -0.0690197,-0.00446063 -0.103264,-0.0100866 0.000106299,-0.00709843 0.000401575,-0.0141654 0.0011378,-0.021122 0.0032126,-0.0285276 0.0135945,-0.0489094 0.0451299,-0.043063z"/>
    <path id="_213854816" class="fil9" d="M5.83086 2.30842c-0.0109606,-0.0134094 -0.0298425,-0.0179449 -0.0447677,-0.0251181 -0.0211496,-0.0101969 -0.0413465,-0.0220945 -0.0623189,-0.0325 -0.0400394,-0.0196378 -0.0815945,-0.035689 -0.124839,-0.0468268 -0.0428661,-0.0109567 -0.0876299,-0.0147362 -0.130126,-0.0281457 -0.0217244,-0.0067874 -0.0409803,-0.0184961 -0.061378,-0.0281417 -0.0207638,-0.00962598 -0.0381575,-0.0105709 -0.060252,-0.0120827 -0.0200118,-0.00151181 -0.0311535,-0.0171929 -0.0462559,-0.0283268 -0.0175827,-0.0128386 -0.0383465,-0.0211575 -0.0572283,-0.0317244 -0.0345669,-0.0196417 -0.059689,-0.0500551 -0.0885866,-0.076685 -0.0336024,-0.0307835 -0.0719528,-0.0574173 -0.110476,-0.0817795 -0.0749764,-0.0474016 -0.155807,-0.0862992 -0.240614,-0.112748 -0.17678,-0.0555157 -0.367134,-0.0540197 -0.547307,-0.0173701 -0.0832913,0.017 -0.166398,0.0438189 -0.2325,0.0991457 -0.0636496,0.0532677 -0.0967008,0.129 -0.136925,0.199429 -0.0398386,0.0695157 -0.0900748,0.122394 -0.16752,0.148087 -0.0823307,0.0273661 -0.169591,0.0322992 -0.246831,0.0749764 -0.0744134,0.0409803 -0.130685,0.101787 -0.185646,0.165067 -0.0630787,0.0723346 -0.124272,0.146161 -0.187736,0.21813 -0.0589252,0.0668583 -0.130307,0.12313 -0.206236,0.169402 -0.0721496,0.0440039 -0.152217,0.0781811 -0.237016,0.086685 -0.0847992,0.00850394 -0.170917,-0.010752 -0.242126,-0.0581693 -0.0683701,-0.045315 -0.119366,-0.111417 -0.162228,-0.180547 -0.059626,-0.0959764 -0.102787,-0.200161 -0.137492,-0.307378 0.0286024,0.0344724 0.0607677,0.0657362 0.0982795,0.0905984 0.653303,0.434988 1.15562,-0.306646 1.47311,-0.804173 0.0402283,-0.070437 0.0732795,-0.146165 0.136929,-0.199429 0.0660984,-0.0553307 0.149205,-0.0821496 0.232492,-0.0991535 0.180181,-0.0366457 0.370531,-0.0381378 0.547311,0.017374 0.0848031,0.0264488 0.165642,0.0653425 0.240614,0.112744 0.0385276,0.0243661 0.076878,0.051 0.11048,0.0817795 0.0288976,0.0266299 0.0540157,0.0570472 0.0885787,0.076685 0.32178,0.180138 0.287433,0.0394094 0.645157,0.40587 0.0288819,0.0296417 0.0438031,0.0681654 0.0625,0.104244 0.0194606,0.0374055 0.0476063,0.0645906 0.0744213,0.0963071 0.026815,0.0319291 0.0411614,0.069315 0.0485236,0.110114 0.00477559,0.026815 0.00826772,0.0540906 0.0109213,0.0815551 -0.0216181,-0.0215984 -0.0430118,-0.0409449 -0.0445984,-0.0742205 -0.00133071,-0.0290827 0.0122638,-0.0685551 -0.00831496,-0.0936732zm-1.93265 -0.260882l0 0c5.11811e-005,0.00042126 9.05512e-005,0.000846457 0.000141732,0.00127559 0,3.54331e-005 0,0 0,1.5748e-005 -0.000220472,-0.00188189 -0.000437008,-0.00372835 -0.000677165,-0.00557087 0.00042126,0.00623228 0.000610236,0.00782283 0.000570866,0.00472441 9.05512e-005,0.000716535 0.000106299,0.00088189 0.000106299,0.000846457 0.000224409,0.00173228 0.000444882,0.00348425 0.000649606,0.00524016 -0.000204724,-0.00175591 -0.000425197,-0.00350787 -0.000649606,-0.00525591 -1.5748e-005,-0.000204724 -6.69291e-005,-0.000755906 -0.000141732,-0.00127559z"/>
    <path id="_213854288" class="fil10" d="M3.6618 1.72618l0 1.61364 1.35299 0 0 -1.6871c-0.0115039,-0.00962598 -0.0222756,-0.0200118 -0.0330472,-0.0307835 -0.00830315,-0.00811417 -0.0164134,-0.0164331 -0.0251024,-0.0243622 -0.00132677,-0.00132677 -0.00265354,-0.00245276 -0.00416535,-0.00359843 -0.00170079,-0.00169685 -0.0033937,-0.00320866 -0.00527559,-0.00472047 -0.0107717,-0.00962598 -0.0221102,-0.018685 -0.0338071,-0.0273701 -0.0217283,-0.0164331 -0.0443937,-0.0317402 -0.067248,-0.0460945 -0.0749724,-0.0473937 -0.155811,-0.086315 -0.24061,-0.11274 -0.176764,-0.0555315 -0.367134,-0.0540197 -0.547307,-0.017374 -0.0832953,0.0169843 -0.166398,0.0437992 -0.2325,0.0991496 -0.0224646,0.018685 -0.0411693,0.0402283 -0.0575984,0.0634449 -0.00830315,0.0117165 -0.0160512,0.023815 -0.0234252,0.0362598 -0.00206693,0.00302756 -0.00375984,0.00623622 -0.00566142,0.00944488 -0.00547638,0.00925984 -0.010752,0.0185197 -0.0158622,0.0279606 -0.0115236,0.0207677 -0.0226654,0.0417362 -0.034378,0.0623228 -0.00151181,0.00265354 -0.00300394,0.0051063 -0.00451969,0.00755906 -0.00717323,0.0120827 -0.0145512,0.0236063 -0.0224803,0.0343622z"/>
    <polygon id="_213854888" class="fil11" points="3.66178,2.53099 5.01477,2.53099 5.01477,2.46117 3.66178,2.46117 "/>
    <polygon id="_213853784" class="fil11" points="3.66178,2.12179 5.01477,2.12179 5.01477,2.05196 3.66178,2.05196 "/>
    <path id="_213854048" class="fil11" d="M3.68428 1.69181l1.33051 0 0 -0.0390984c-0.0115039,-0.00962598 -0.0222756,-0.0200118 -0.0330472,-0.0307835l-1.25856 0c-0.0115236,0.0207677 -0.0226654,0.0417362 -0.034378,0.0623228 -0.00151181,0.0026378 -0.00300394,0.0051063 -0.00451969,0.00755906z"/>
    <polygon id="_213854168" class="fil11" points="3.66178,2.024 5.01477,2.024 5.01477,1.75646 3.66178,1.75646 "/>
    <path id="_213854000" class="fil11" d="M3.73904 1.59397l1.21343 0c-0.00170079,-0.00169685 -0.0033937,-0.00320866 -0.00527559,-0.00472047 -0.0107717,-0.00962598 -0.0221102,-0.018685 -0.0338071,-0.0273701 -0.0217283,-0.0164331 -0.0443937,-0.0317402 -0.067248,-0.0460945 -0.0749724,-0.0473937 -0.155811,-0.086315 -0.24061,-0.11274 -0.176764,-0.0555315 -0.367134,-0.0540197 -0.547307,-0.017374 -0.0832953,0.0169843 -0.166398,0.0437992 -0.2325,0.0991496 -0.0224646,0.018685 -0.0411693,0.0402283 -0.0575984,0.0634449 -0.00830315,0.0117165 -0.0160512,0.023815 -0.0234252,0.0362598 -0.00206693,0.00302756 -0.00375984,0.00623622 -0.00566142,0.00944488z"/>
    <polygon id="_213853688" class="fil11" points="3.66178,2.42779 5.01477,2.42779 5.01477,2.16024 3.66178,2.16024 "/>
    <polygon id="_213854096" class="fil11" points="3.6618,3.06572 5.01479,3.06572 5.01479,2.99589 3.6618,2.99589 "/>
    <polygon id="_213853664" class="fil11" points="3.66178,2.65651 5.01477,2.65651 5.01477,2.58669 3.66178,2.58669 "/>
    <polygon id="_213853880" class="fil11" points="3.66178,2.96251 5.01477,2.96251 5.01477,2.69497 3.66178,2.69497 "/>
    <polygon id="_213853856" class="fil11" points="3.66178,3.39654 5.01477,3.39654 5.01477,3.129 3.66178,3.129 "/>
    <path id="_213853832" class="fil9" d="M5.59349 2.00476l0.16424 0.126398c0.0572441,0.044063 0.0956024,0.108213 0.107323,0.179488l0.000488189 0.00297244c0.0180118,0.109543 0.0605157,0.213154 0.122382,0.305047 -0.143441,-0.293689 0.0119764,-0.479594 -0.394433,-0.613906z"/>
    <path id="_213853016" class="fil12" d="M3.60699 3.89209c-0.00482283,0.0604882 -0.0241969,0.315807 -0.0119724,0.370807 0.0138898,0.0625 0.0138898,0.156252 0.0138898,0.197917 0,0.0416654 -0.00347244,0.0625 0,0.135417 0.00347244,0.0729173 0.0104134,0.156244 0.0104134,0.215276 0,0.0590315 0.00347638,0.170138 -0.0173583,0.194445 -0.0208346,0.0243071 -0.0173622,0.0277756 -0.031252,0.0590276 -0.0138898,0.031252 -0.0208307,0.0347205 -0.031248,0.0694449 -0.0104173,0.0347244 -0.0208386,0.0520866 -0.0381969,0.0868071 -0.0173583,0.0347205 -0.0104134,0.0277756 -0.0173583,0.0520827 -0.00694488,0.0243071 -0.0277795,0.0625 -0.0277795,0.0625l0.0209094 0.0300591c0.000362205,-0.00201181 0.00106299,-0.00401181 0.00218898,-0.00598819 0.00565748,-0.0100157 0.0190709,-0.0118937 0.0294724,-0.0128543 0.0319055,-0.00300787 0.0638307,-0.000940945 0.0959252,-0.00584646 0.0255079,-0.00378346 0.0723346,-0.0132283 0.0789528,-0.0438228 0.00584646,-0.025874 -0.0196417,-0.0517362 -0.0322913,-0.0715748 -0.0188898,-0.0294567 -0.0190709,-0.0594843 0.0033937,-0.0872598 0.0130354,-0.0160433 0.0220945,-0.0294528 0.0224764,-0.0509764 0.000377953,-0.0194606 -0.00340945,-0.0392835 -0.00604724,-0.058374 -0.00565748,-0.0434331 -0.0113228,-0.0868661 -0.0147323,-0.130689 -0.00699213,-0.0912205 -0.0107559,-0.183185 -0.0111417,-0.274606 -0.000188976,-0.0914055 0.00566535,-0.182421 0.0130394,-0.273461 0.00698819,-0.0878268 0.0152913,-0.176579 -0.00341339,-0.263461 -0.0142283,-0.0657283 -0.0346142,-0.129299 -0.0478701,-0.19487z"/>
   </g>
   <path id="_213853088" class="fil11" d="M5.02064 3.4135c0,0.0115315 -0.00933858,0.020874 -0.0208583,0.020874 -0.0115354,0 -0.0208583,-0.00934252 -0.0208583,-0.020874 0,-0.0115197 0.00932283,-0.0208622 0.0208583,-0.0208622 0.0115197,0 0.0208583,0.00934252 0.0208583,0.0208622z"/>
   <path id="_213853352" class="fil11" d="M4.9781 3.4135c0,0.0115315 -0.00933858,0.020874 -0.0208583,0.020874 -0.0115354,0 -0.0208583,-0.00934252 -0.0208583,-0.020874 0,-0.0115197 0.00932283,-0.0208622 0.0208583,-0.0208622 0.0115197,0 0.0208583,0.00934252 0.0208583,0.0208622z"/>
   <path id="_213852968" class="fil11" d="M4.93557 3.4135c0,0.0115315 -0.00933858,0.020874 -0.0208583,0.020874 -0.0115354,0 -0.0208583,-0.00934252 -0.0208583,-0.020874 0,-0.0115197 0.00932283,-0.0208622 0.0208583,-0.0208622 0.0115197,0 0.0208583,0.00934252 0.0208583,0.0208622z"/>
   <path id="_213853304" class="fil11" d="M4.89303 3.4135c0,0.0115315 -0.00933858,0.020874 -0.0208583,0.020874 -0.0115354,0 -0.0208583,-0.00934252 -0.0208583,-0.020874 0,-0.0115197 0.00932283,-0.0208622 0.0208583,-0.0208622 0.0115197,0 0.0208583,0.00934252 0.0208583,0.0208622z"/>
   <path id="_213853232" class="fil11" d="M4.8505 3.4135c0,0.0115315 -0.00933858,0.020874 -0.0208583,0.020874 -0.0115354,0 -0.0208583,-0.00934252 -0.0208583,-0.020874 0,-0.0115197 0.00932283,-0.0208622 0.0208583,-0.0208622 0.0115197,0 0.0208583,0.00934252 0.0208583,0.0208622z"/>
   <path id="_213853040" class="fil11" d="M4.80796 3.4135c0,0.0115315 -0.00933858,0.020874 -0.0208583,0.020874 -0.0115354,0 -0.0208583,-0.00934252 -0.0208583,-0.020874 0,-0.0115197 0.00932283,-0.0208622 0.0208583,-0.0208622 0.0115197,0 0.0208583,0.00934252 0.0208583,0.0208622z"/>
   <path id="_213853400" class="fil11" d="M4.76543 3.4135c0,0.0115315 -0.00933858,0.020874 -0.0208583,0.020874 -0.0115354,0 -0.0208583,-0.00934252 -0.0208583,-0.020874 0,-0.0115197 0.00932283,-0.0208622 0.0208583,-0.0208622 0.0115197,0 0.0208583,0.00934252 0.0208583,0.0208622z"/>
   <path id="_213853160" class="fil11" d="M4.72289 3.4135c0,0.0115315 -0.00933858,0.020874 -0.0208583,0.020874 -0.0115354,0 -0.0208583,-0.00934252 -0.0208583,-0.020874 0,-0.0115197 0.00932283,-0.0208622 0.0208583,-0.0208622 0.0115197,0 0.0208583,0.00934252 0.0208583,0.0208622z"/>
   <path id="_213852920" class="fil11" d="M4.68035 3.4135c0,0.0115315 -0.00933858,0.020874 -0.0208583,0.020874 -0.0115354,0 -0.0208583,-0.00934252 -0.0208583,-0.020874 0,-0.0115197 0.00932283,-0.0208622 0.0208583,-0.0208622 0.0115197,0 0.0208583,0.00934252 0.0208583,0.0208622z"/>
   <path id="_213852248" class="fil11" d="M4.63782 3.4135c0,0.0115315 -0.00933858,0.020874 -0.0208583,0.020874 -0.0115354,0 -0.0208583,-0.00934252 -0.0208583,-0.020874 0,-0.0115197 0.00932283,-0.0208622 0.0208583,-0.0208622 0.0115197,0 0.0208583,0.00934252 0.0208583,0.0208622z"/>
   <path id="_213852536" class="fil11" d="M4.59528 3.4135c0,0.0115315 -0.00933858,0.020874 -0.0208583,0.020874 -0.0115354,0 -0.0208583,-0.00934252 -0.0208583,-0.020874 0,-0.0115197 0.00932283,-0.0208622 0.0208583,-0.0208622 0.0115197,0 0.0208583,0.00934252 0.0208583,0.0208622z"/>
   <path id="_213852440" class="fil11" d="M4.55275 3.4135c0,0.0115315 -0.00933858,0.020874 -0.0208583,0.020874 -0.0115354,0 -0.0208583,-0.00934252 -0.0208583,-0.020874 0,-0.0115197 0.00932283,-0.0208622 0.0208583,-0.0208622 0.0115197,0 0.0208583,0.00934252 0.0208583,0.0208622z"/>
   <path id="_213852608" class="fil11" d="M4.51021 3.4135c0,0.0115315 -0.00933858,0.020874 -0.0208583,0.020874 -0.0115354,0 -0.0208583,-0.00934252 -0.0208583,-0.020874 0,-0.0115197 0.00932283,-0.0208622 0.0208583,-0.0208622 0.0115197,0 0.0208583,0.00934252 0.0208583,0.0208622z"/>
   <path id="_213852104" class="fil11" d="M4.46768 3.4135c0,0.0115315 -0.00933858,0.020874 -0.0208583,0.020874 -0.0115354,0 -0.0208583,-0.00934252 -0.0208583,-0.020874 0,-0.0115197 0.00932283,-0.0208622 0.0208583,-0.0208622 0.0115197,0 0.0208583,0.00934252 0.0208583,0.0208622z"/>
   <path id="_213852392" class="fil11" d="M4.42514 3.4135c0,0.0115315 -0.00933858,0.020874 -0.0208583,0.020874 -0.0115354,0 -0.0208583,-0.00934252 -0.0208583,-0.020874 0,-0.0115197 0.00932283,-0.0208622 0.0208583,-0.0208622 0.0115197,0 0.0208583,0.00934252 0.0208583,0.0208622z"/>
   <path id="_213852152" class="fil11" d="M4.38261 3.4135c0,0.0115315 -0.00933858,0.020874 -0.0208583,0.020874 -0.0115354,0 -0.0208583,-0.00934252 -0.0208583,-0.020874 0,-0.0115197 0.00932283,-0.0208622 0.0208583,-0.0208622 0.0115197,0 0.0208583,0.00934252 0.0208583,0.0208622z"/>
   <path id="_213852656" class="fil11" d="M4.34007 3.4135c0,0.0115315 -0.00933858,0.020874 -0.0208583,0.020874 -0.0115354,0 -0.0208583,-0.00934252 -0.0208583,-0.020874 0,-0.0115197 0.00932283,-0.0208622 0.0208583,-0.0208622 0.0115197,0 0.0208583,0.00934252 0.0208583,0.0208622z"/>
   <path id="_213852632" class="fil11" d="M4.29754 3.4135c0,0.0115315 -0.00933858,0.020874 -0.0208583,0.020874 -0.0115354,0 -0.0208583,-0.00934252 -0.0208583,-0.020874 0,-0.0115197 0.00932283,-0.0208622 0.0208583,-0.0208622 0.0115197,0 0.0208583,0.00934252 0.0208583,0.0208622z"/>
   <path id="_213852320" class="fil11" d="M4.255 3.4135c0,0.0115315 -0.00933858,0.020874 -0.0208583,0.020874 -0.0115354,0 -0.0208583,-0.00934252 -0.0208583,-0.020874 0,-0.0115197 0.00932283,-0.0208622 0.0208583,-0.0208622 0.0115197,0 0.0208583,0.00934252 0.0208583,0.0208622z"/>
   <path id="_213852080" class="fil11" d="M4.21246 3.4135c0,0.0115315 -0.00933858,0.020874 -0.0208583,0.020874 -0.0115354,0 -0.0208583,-0.00934252 -0.0208583,-0.020874 0,-0.0115197 0.00932283,-0.0208622 0.0208583,-0.0208622 0.0115197,0 0.0208583,0.00934252 0.0208583,0.0208622z"/>
   <path id="_213851456" class="fil11" d="M4.16993 3.4135c0,0.0115315 -0.00933858,0.020874 -0.0208583,0.020874 -0.0115354,0 -0.0208583,-0.00934252 -0.0208583,-0.020874 0,-0.0115197 0.00932283,-0.0208622 0.0208583,-0.0208622 0.0115197,0 0.0208583,0.00934252 0.0208583,0.0208622z"/>
   <path id="_213851816" class="fil11" d="M4.12739 3.4135c0,0.0115315 -0.00933858,0.020874 -0.0208583,0.020874 -0.0115354,0 -0.0208583,-0.00934252 -0.0208583,-0.020874 0,-0.0115197 0.00932283,-0.0208622 0.0208583,-0.0208622 0.0115197,0 0.0208583,0.00934252 0.0208583,0.0208622z"/>
   <path id="_213851768" class="fil11" d="M4.08486 3.4135c0,0.0115315 -0.00933858,0.020874 -0.0208583,0.020874 -0.0115354,0 -0.0208583,-0.00934252 -0.0208583,-0.020874 0,-0.0115197 0.00932283,-0.0208622 0.0208583,-0.0208622 0.0115197,0 0.0208583,0.00934252 0.0208583,0.0208622z"/>
   <path id="_213851552" class="fil11" d="M4.04232 3.4135c0,0.0115315 -0.00933858,0.020874 -0.0208583,0.020874 -0.0115354,0 -0.0208583,-0.00934252 -0.0208583,-0.020874 0,-0.0115197 0.00932283,-0.0208622 0.0208583,-0.0208622 0.0115197,0 0.0208583,0.00934252 0.0208583,0.0208622z"/>
   <path id="_213851960" class="fil11" d="M3.99979 3.4135c0,0.0115315 -0.00933858,0.020874 -0.0208583,0.020874 -0.0115354,0 -0.0208583,-0.00934252 -0.0208583,-0.020874 0,-0.0115197 0.00932283,-0.0208622 0.0208583,-0.0208622 0.0115197,0 0.0208583,0.00934252 0.0208583,0.0208622z"/>
   <path id="_213851384" class="fil11" d="M3.95725 3.4135c0,0.0115315 -0.00933858,0.020874 -0.0208583,0.020874 -0.0115354,0 -0.0208583,-0.00934252 -0.0208583,-0.020874 0,-0.0115197 0.00932283,-0.0208622 0.0208583,-0.0208622 0.0115197,0 0.0208583,0.00934252 0.0208583,0.0208622z"/>
   <path id="_213851936" class="fil11" d="M3.91472 3.4135c0,0.0115315 -0.00933858,0.020874 -0.0208583,0.020874 -0.0115354,0 -0.0208583,-0.00934252 -0.0208583,-0.020874 0,-0.0115197 0.00932283,-0.0208622 0.0208583,-0.0208622 0.0115197,0 0.0208583,0.00934252 0.0208583,0.0208622z"/>
   <path id="_213851672" class="fil11" d="M3.87218 3.4135c0,0.0115315 -0.00933858,0.020874 -0.0208583,0.020874 -0.0115354,0 -0.0208583,-0.00934252 -0.0208583,-0.020874 0,-0.0115197 0.00932283,-0.0208622 0.0208583,-0.0208622 0.0115197,0 0.0208583,0.00934252 0.0208583,0.0208622z"/>
   <path id="_213851504" class="fil11" d="M3.82965 3.4135c0,0.0115315 -0.00933858,0.020874 -0.0208583,0.020874 -0.0115354,0 -0.0208583,-0.00934252 -0.0208583,-0.020874 0,-0.0115197 0.00932283,-0.0208622 0.0208583,-0.0208622 0.0115197,0 0.0208583,0.00934252 0.0208583,0.0208622z"/>
   <path id="_213851840" class="fil11" d="M3.78711 3.4135c0,0.0115315 -0.00933858,0.020874 -0.0208583,0.020874 -0.0115354,0 -0.0208583,-0.00934252 -0.0208583,-0.020874 0,-0.0115197 0.00932283,-0.0208622 0.0208583,-0.0208622 0.0115197,0 0.0208583,0.00934252 0.0208583,0.0208622z"/>
   <path id="_213850568" class="fil11" d="M3.74457 3.4135c0,0.0115315 -0.00933858,0.020874 -0.0208583,0.020874 -0.0115354,0 -0.0208583,-0.00934252 -0.0208583,-0.020874 0,-0.0115197 0.00932283,-0.0208622 0.0208583,-0.0208622 0.0115197,0 0.0208583,0.00934252 0.0208583,0.0208622z"/>
   <path id="_213851048" class="fil11" d="M3.70204 3.4135c0,0.0115315 -0.00933858,0.020874 -0.0208583,0.020874 -0.0115354,0 -0.0208583,-0.00934252 -0.0208583,-0.020874 0,-0.0115197 0.00932283,-0.0208622 0.0208583,-0.0208622 0.0115197,0 0.0208583,0.00934252 0.0208583,0.0208622z"/>
  </g>
  <rect class="fil13" width="6.82666" height="6.82666"/>
 </g>
</svg>
