<?xml version="1.0" encoding="UTF-8"?>
<!DOCTYPE svg PUBLIC "-//W3C//DTD SVG 1.1//EN" "http://www.w3.org/Graphics/SVG/1.1/DTD/svg11.dtd">
<!-- Creator: CorelDRAW -->
<svg xmlns="http://www.w3.org/2000/svg" xml:space="preserve" width="6.82666in" height="6.82666in" style="shape-rendering:geometricPrecision; text-rendering:geometricPrecision; image-rendering:optimizeQuality; fill-rule:evenodd; clip-rule:evenodd"
viewBox="0 0 6.82666 6.82666"
 xmlns:xlink="http://www.w3.org/1999/xlink">
 <defs>
  <style type="text/css">
   <![CDATA[
    .fil6 {fill:none}
    .fil4 {fill:#43372D}
    .fil2 {fill:#4D3C2E}
    .fil1 {fill:#7D583C}
    .fil3 {fill:#926A4C}
    .fil5 {fill:#FBE9E7}
    .fil0 {fill:#926A4C;fill-rule:nonzero}
   ]]>
  </style>
 </defs>
 <g id="Layer_x0020_1">
  <metadata id="CorelCorpID_0Corel-Layer"/>
  <path class="fil0" d="M5.43815 3.10489c-0.120579,-0.166772 -0.264831,-0.383654 -0.424717,-0.513646 0.00435039,-0.0217874 0.00815354,-0.043689 0.0114055,-0.0656732 0.00946457,-0.0640354 0.0142874,-0.128701 0.0142874,-0.193433 0,-0.255398 -0.0846417,-0.540547 -0.209732,-0.749705 0.329531,-0.102402 0.666059,-0.0997559 0.892673,0.0910472 0.46637,0.392661 0.232429,1.30426 -0.283917,1.43141z"/>
  <path class="fil1" d="M5.28075 3.00605c0.0181693,-0.00931102 0.129236,-0.077626 0.145669,-0.0897795 0.129953,-0.0961378 0.20561,-0.274484 0.226185,-0.426567 0.0243346,-0.179882 -0.0161417,-0.378665 -0.16039,-0.500118 -0.126567,-0.106563 -0.30335,-0.118323 -0.466921,-0.0922756 -0.00959449,0.00152756 -0.202894,0.0425118 -0.212386,0.0442874 0.0753307,0.170461 0.167677,0.357205 0.167677,0.535717 0,0.0570551 -0.00407874,0.114087 -0.0121063,0.170571 0.101465,0.0958031 0.230465,0.243465 0.312272,0.358165z"/>
  <path class="fil0" d="M1.38852 3.10489c0.120575,-0.166772 0.264827,-0.383654 0.424713,-0.513646 -0.00435039,-0.0217874 -0.00815354,-0.043689 -0.0114055,-0.0656732 -0.00946457,-0.0640354 -0.0142874,-0.128701 -0.0142874,-0.193433 0,-0.255398 0.0846417,-0.540547 0.209732,-0.749705 -0.329531,-0.102402 -0.666059,-0.0997559 -0.892673,0.0910472 -0.46637,0.392661 -0.232429,1.30426 0.283921,1.43141z"/>
  <path class="fil1" d="M1.54591 3.00605c-0.0181693,-0.00931102 -0.129236,-0.077626 -0.145669,-0.0897795 -0.129953,-0.0961378 -0.20561,-0.274484 -0.226185,-0.426567 -0.0243346,-0.179882 0.0161417,-0.378665 0.16039,-0.500118 0.126567,-0.106563 0.30335,-0.118323 0.466921,-0.0922756 0.00959449,0.00152756 0.202894,0.0425118 0.21239,0.0442874 -0.0753346,0.170461 -0.167681,0.357205 -0.167681,0.535717 0,0.0570551 0.00407874,0.114087 0.0121063,0.170571 -0.101461,0.0958031 -0.230465,0.243465 -0.312272,0.358165z"/>
  <path class="fil2" d="M5.09858 2.58323c0.227886,0.173965 0.412969,0.382898 0.541417,0.615965 0.129925,0.235736 0.201961,0.495909 0.201961,0.769425 0,0.533846 -0.273764,1.01628 -0.716366,1.36471 -0.438803,0.345441 -1.04423,0.559102 -1.71226,0.559102 -0.668031,0 -1.27346,-0.213661 -1.71226,-0.559102 -0.442602,-0.348429 -0.716366,-0.830866 -0.716366,-1.36471 0,-0.273516 0.0720354,-0.533689 0.201961,-0.769425 0.128449,-0.233067 0.313531,-0.442 0.541417,-0.615965 -0.0104291,-0.0395945 -0.0187205,-0.0798268 -0.024748,-0.120614 -0.00784646,-0.053063 -0.0118937,-0.10678 -0.0118937,-0.160945 0,-0.380201 0.194657,-0.723555 0.509366,-0.971307 0.310909,-0.244756 0.739657,-0.396146 1.21253,-0.396146 0.47287,0 0.901618,0.15139 1.21253,0.396146 0.314709,0.247752 0.509366,0.591106 0.509366,0.971307 0,0.0541654 -0.00404724,0.107882 -0.0118937,0.160945 -0.00602756,0.0407874 -0.0143189,0.0810197 -0.024748,0.120614z"/>
  <path class="fil3" d="M1.60207 4.62196c-0.112445,-0.173909 -0.181909,-0.372244 -0.181909,-0.58961 0,-0.569783 0.356902,-0.901673 0.724547,-1.24357l0.0339291 -0.0315669c-0.0781063,-0.602547 0.178799,-1.01718 0.554059,-1.23686 0.203791,-0.119295 0.442528,-0.180323 0.681098,-0.182035 0.238575,-0.00170866 0.477453,0.0559291 0.681524,0.173949 0.373756,0.21615 0.630535,0.632047 0.55676,1.25315 0.176083,0.162327 0.358555,0.337358 0.500693,0.538059 0.150417,0.212386 0.25372,0.451055 0.25372,0.728874 0,0.217366 -0.0694646,0.415701 -0.181909,0.58961 -0.128012,0.197996 -0.311559,0.363524 -0.510902,0.488614 -0.187787,0.117839 -0.393945,0.204705 -0.607866,0.262736 -0.225988,0.0613031 -0.461008,0.0907126 -0.692488,0.0907126 -0.23148,0 -0.4665,-0.0294094 -0.692488,-0.0907126 -0.213921,-0.0580315 -0.420079,-0.144898 -0.607866,-0.262736 -0.199343,-0.125091 -0.38289,-0.290618 -0.510902,-0.488614z"/>
  <path class="fil2" d="M3.80689 3.50175c0.0673386,0 0.129433,0.0114409 0.175386,0.0299331 0.0613268,0.0246811 0.0992638,0.0646693 0.0992638,0.114079 0,0.0494134 -0.037937,0.0894016 -0.0992598,0.114083 -0.0459488,0.0184961 -0.108047,0.029937 -0.17539,0.029937 -0.0673386,0 -0.129445,-0.011437 -0.175386,-0.029937 -0.0613228,-0.0246811 -0.0992598,-0.0646575 -0.0992598,-0.114083 0,-0.0494094 0.037937,-0.0893976 0.0992638,-0.114079 0.0459409,-0.0184921 0.108039,-0.0299331 0.175382,-0.0299331z"/>
  <path class="fil2" d="M3.01978 3.50175c0.0673425,0 0.129441,0.0114409 0.175382,0.0299331 0.0613268,0.0246811 0.0992638,0.0646693 0.0992638,0.114079 0,0.0494134 -0.037937,0.0894016 -0.0992598,0.114083 -0.0459449,0.0184961 -0.108043,0.029937 -0.175386,0.029937 -0.0673425,0 -0.129441,-0.0114409 -0.17539,-0.029937 -0.0613228,-0.0246811 -0.0992598,-0.0646693 -0.0992598,-0.114083 0,-0.0494094 0.037937,-0.0893976 0.0992638,-0.114079 0.0459528,-0.0184921 0.108047,-0.0299331 0.175386,-0.0299331z"/>
  <path class="fil4" d="M3.90553 2.49315c0.0841969,0 0.160433,0.0341378 0.215618,0.0893189 0.055185,0.055185 0.0893189,0.131425 0.0893189,0.215626 0,0.0841969 -0.0341339,0.160437 -0.0893189,0.215622 -0.055185,0.0551811 -0.131421,0.0893189 -0.215618,0.0893189 -0.0842008,0 -0.160441,-0.0341378 -0.215622,-0.0893189 -0.055189,-0.055185 -0.0893228,-0.131425 -0.0893228,-0.215622 0,-0.0842008 0.0341339,-0.160441 0.0893228,-0.215626 0.0551811,-0.055185 0.131421,-0.0893189 0.215622,-0.0893189z"/>
  <path class="fil4" d="M2.92114 2.49315c0.0842008,0 0.160437,0.0341378 0.215618,0.0893189 0.055189,0.055185 0.0893228,0.131425 0.0893228,0.215626 0,0.0841969 -0.0341339,0.160437 -0.0893228,0.215622 -0.0551811,0.0551811 -0.131417,0.0893189 -0.215618,0.0893189 -0.0841969,0 -0.160437,-0.0341378 -0.215622,-0.0893189 -0.055185,-0.055185 -0.0893189,-0.131425 -0.0893189,-0.215622 0,-0.0842008 0.0341339,-0.160441 0.0893189,-0.215626 0.055185,-0.055185 0.131425,-0.0893189 0.215622,-0.0893189z"/>
  <path class="fil2" d="M3.46584 4.73781l0 0.000846457 -0.0525039 0c-0.38187,0 -0.787496,-0.0995354 -1.10123,-0.323626 -0.115079,-0.0821969 -0.217362,-0.180988 -0.299543,-0.296256 -0.0347441,-0.0487283 -0.023315,-0.116461 0.025437,-0.15115 0.0487283,-0.0346772 0.116374,-0.0232598 0.151083,0.0254252 0.0681693,0.095622 0.153398,0.177354 0.248823,0.245512 0.276795,0.197709 0.638969,0.283063 0.975433,0.283063l0.0295197 0c0.328083,-0.00486614 0.67715,-0.0910906 0.945913,-0.283063 0.0954173,-0.0681575 0.180646,-0.14989 0.248815,-0.245512 0.0347126,-0.048685 0.102354,-0.0601024 0.151083,-0.0254252 0.048748,0.034689 0.0601811,0.102421 0.025437,0.15115 -0.0821772,0.115264 -0.184465,0.214059 -0.299539,0.296256 -0.299346,0.213815 -0.682535,0.314059 -1.04872,0.32278z"/>
  <path class="fil5" d="M3.9875 2.71611c-0.0209724,-0.0209764 -0.0499567,-0.0339528 -0.0819685,-0.0339528 -0.0320157,0 -0.061,0.0129764 -0.0819764,0.0339528 -0.0209724,0.0209724 -0.0339528,0.0499606 -0.0339528,0.0819764 0,0.0320118 0.0129803,0.061 0.0339528,0.0819724 0.0209764,0.0209764 0.0499606,0.0339528 0.0819764,0.0339528 0.0320118,0 0.0609961,-0.0129764 0.0819685,-0.0339528 0.0209764,-0.0209724 0.0339528,-0.0499606 0.0339528,-0.0819724 0,-0.0320157 -0.0129764,-0.0610039 -0.0339528,-0.0819764z"/>
  <path class="fil5" d="M3.00311 2.71611c-0.0209764,-0.0209764 -0.0499567,-0.0339528 -0.0819724,-0.0339528 -0.0320118,0 -0.061,0.0129764 -0.0819724,0.0339528 -0.0209764,0.0209724 -0.0339528,0.0499606 -0.0339528,0.0819764 0,0.0320118 0.0129764,0.061 0.0339528,0.0819724 0.0209724,0.0209764 0.0499606,0.0339528 0.0819724,0.0339528 0.0320157,0 0.0609961,-0.0129764 0.0819724,-0.0339528 0.0209724,-0.0209724 0.0339528,-0.0499606 0.0339528,-0.0819724 0,-0.0320157 -0.0129803,-0.0610039 -0.0339528,-0.0819764z"/>
  <rect class="fil6" width="6.82666" height="6.82666"/>
 </g>
</svg>
