<?xml version="1.0" encoding="UTF-8"?>
<!DOCTYPE svg PUBLIC "-//W3C//DTD SVG 1.1//EN" "http://www.w3.org/Graphics/SVG/1.1/DTD/svg11.dtd">
<!-- Creator: CorelDRAW -->
<svg xmlns="http://www.w3.org/2000/svg" xml:space="preserve" width="6.82666in" height="6.82666in" style="shape-rendering:geometricPrecision; text-rendering:geometricPrecision; image-rendering:optimizeQuality; fill-rule:evenodd; clip-rule:evenodd"
viewBox="0 0 6.82666 6.82666"
 xmlns:xlink="http://www.w3.org/1999/xlink">
 <defs>
  <style type="text/css">
   <![CDATA[
    .fil6 {fill:none}
    .fil5 {fill:#3E2723}
    .fil1 {fill:#BA8F72}
    .fil0 {fill:#C4997C}
    .fil2 {fill:#EBBFA1}
    .fil3 {fill:#F7D2B9}
    .fil4 {fill:#F9FBE7}
   ]]>
  </style>
 </defs>
 <g id="Layer_x0020_1">
  <metadata id="CorelCorpID_0Corel-Layer"/>
  <path class="fil0" d="M1.57329 2.01239c0.231213,0.146217 0.17878,0.263969 0.115484,0.419035 0,0 -0.0597874,-0.0167874 -0.101398,0.00279921 -0.0416063,0.0195906 -0.101276,0.0738622 -0.101276,0.0738622 -0.0406732,-0.115555 -0.0940394,-0.33765 0.087189,-0.495697z"/>
  <path class="fil1" d="M1.57329 2.01239c0.231213,0.146217 0.17878,0.263969 0.115484,0.419035 0,0 -0.0597874,-0.0167874 -0.101398,0.00279921 -0.0416063,0.0195906 -0.101276,0.0738622 -0.101276,0.0738622 -0.0406732,-0.115555 -0.0940394,-0.33765 0.087189,-0.495697z"/>
  <path class="fil2" d="M1.01272 3.33825l-0.00812598 0.0279173c-0.0074252,0.0119921 -0.0109843,0.0221496 -0.0114213,0.0307047 -0.000759843,0.0149488 0.0101811,0.0297047 0.0271732,0.0433858 0.0246102,0.019815 0.0594764,0.0359173 0.0954882,0.0484055 0.17098,0.0593031 0.456398,0.083685 0.619146,0.062937 0.225567,0.0579921 0.581201,0.33024 0.268949,0.440461 -0.298945,0.10552 -0.782516,-0.200543 -0.852189,-0.246236 -0.119157,-0.0260748 -0.188732,-0.0601102 -0.294343,0.0143819 -0.0262205,0.0185 -0.0639449,0.0523228 -0.0622559,0.0877638 0.0015315,0.0307598 0.0174882,0.063626 0.0389134,0.0904449 0.0672165,0.0841339 0.281862,0.122272 0.367496,0.132642 0.0478819,0.00579921 0.0910669,0.0110354 0.123496,0.0186772 0.278157,0.0655472 0.503878,0.296047 0.883209,0.305193l0.025626 0.00729134c0.185102,0.108941 0.198488,0.235764 0.214531,0.387819 0.0106929,0.101358 0.0227795,0.21585 0.10263,0.342047l0.0416654 0.0658465 -0.0766654 0.0147795c-0.268098,0.0516732 -0.55974,0.0999134 -0.754248,0.295689 -0.0942244,0.0695276 -0.105028,0.138181 0.0311457,0.150732 0.259799,0.0239488 1.11642,0.00548031 1.30015,0.0314961 0.465193,0.00831102 0.0225236,-0.15072 0.0023189,-0.184626 -0.0012874,-0.00216142 0.333142,0.0520118 0.447787,0.0530433 0.138409,0.00124016 0.272437,-0.012185 0.391594,-0.0689685 0.117398,-0.0559409 0.222555,-0.155606 0.306736,-0.327902l0.0271575 -0.0555906c0.0333661,0.0230276 0.0666732,0.0458583 0.0994724,0.0697126 0.138457,0.100705 0.244685,0.177961 0.634417,-0.138705 0.17763,-0.144319 0.343831,-0.333394 0.373311,-0.568894 0.0187756,-0.149929 -0.0200236,-0.294441 -0.0839449,-0.430917 -0.0659134,-0.140724 -0.159087,-0.274366 -0.244587,-0.396933 -0.187528,-0.268815 -0.235831,-0.465843 -0.202961,-0.590043 0.0272598,-0.103008 0.104272,-0.159067 0.205803,-0.169319 0.0900787,-0.00909449 0.200232,0.0206339 0.308189,0.0882992 0.192346,0.120555 0.38326,0.364898 0.439272,0.726268 0.0593622,-0.161594 0.106193,-0.319472 0.14187,-0.471634 0.0566063,-0.241429 0.0852362,-0.46802 0.0913898,-0.671902 0.0102953,-0.34063 -0.101406,-0.656555 -0.276925,-0.901449 -0.187862,-0.262106 -0.447839,-0.441783 -0.707839,-0.481425 -0.202134,-0.0308228 -0.363669,0.00484252 -0.489465,0.0876063 -0.225567,0.148402 -0.325949,0.438685 -0.364862,0.69387 -0.0792441,0.51965 0.0479055,1.1609 0.292165,1.53217 0.0121417,0.0184567 0.0229173,0.0357953 0.032378,0.0520354 0.132669,0.22774 0.146315,0.440138 0.118386,0.601189 -0.0288898,0.166594 -0.107563,0.28415 -0.146449,0.309886l6.69291e-005 9.84252e-005c-0.00135433,0.000897638 -0.00285827,0.00182677 -0.00449213,0.00277559 -0.0337874,0.0197047 -0.0599016,0.0111969 -0.0798465,-0.0231024 -0.0132677,-0.0227598 -0.0208937,-0.0737087 -0.0321693,-0.149051 -0.0548189,-0.366307 -0.206535,-1.38009 -1.14205,-1.38955 -0.305488,-0.0031063 -0.938106,-0.209752 -1.1025,-0.489618 -0.0396929,-0.0675709 -0.130201,-0.221642 -0.195358,-0.235811 -0.0213583,-0.00464567 -0.0444055,0.0268937 -0.0665315,0.128642l-0.011126 0.0511575 -0.0511654 -0.0101142c-0.102445,-0.0190236 -0.258,0.0364291 -0.330622,0.110398l-0.0216378 0.019c-0.228606,0.200421 -0.438154,0.55652 -0.438154,0.877028z"/>
  <path class="fil3" d="M2.02506 2.90005c-0.170906,0.274906 -0.310709,0.213933 -0.494768,0.140449 0,0 0.0193228,-0.0708976 -0.00423228,-0.119949 -0.0235551,-0.0490551 -0.088315,-0.119161 -0.088315,-0.119161 0.136358,-0.0491811 0.398665,-0.114339 0.587315,0.0986614z"/>
  <path class="fil4" d="M1.64842 2.75661c0.0681024,0 0.123311,0.0552087 0.123311,0.123311 0,0.0681024 -0.0552087,0.123311 -0.123311,0.123311 -0.0681024,0 -0.123311,-0.0552087 -0.123311,-0.123311 0,-0.0681024 0.0552087,-0.123311 0.123311,-0.123311z"/>
  <path class="fil5" d="M1.64842 2.82537c0.030122,0 0.0545472,0.0244252 0.0545472,0.0545472 0,0.030122 -0.0244252,0.0545472 -0.0545472,0.0545472 -0.030122,0 -0.0545472,-0.0244252 -0.0545472,-0.0545472 0,-0.030122 0.0244252,-0.0545472 0.0545472,-0.0545472z"/>
  <path class="fil0" d="M4.36816 5.1763c0.138457,0.100705 0.244685,0.177961 0.634417,-0.138705 0.17763,-0.144319 0.343831,-0.333394 0.373311,-0.568894 0.0187756,-0.149929 -0.0200236,-0.294441 -0.0839449,-0.430917 -0.0659134,-0.140724 -0.159087,-0.274366 -0.244587,-0.396933 -0.187528,-0.268815 -0.235831,-0.465843 -0.202961,-0.590043 0.0272598,-0.103008 0.104272,-0.159067 0.205803,-0.169319 0.0900787,-0.00909449 0.200232,0.0206339 0.308189,0.0882992 0.192346,0.120555 0.38326,0.364898 0.439272,0.726268 0.0593622,-0.161594 0.106193,-0.319472 0.14187,-0.471634 0.0566063,-0.241429 0.0852362,-0.46802 0.0913898,-0.671902 0.0102953,-0.34063 -0.101406,-0.656555 -0.276925,-0.901449 -0.187862,-0.262106 -0.447839,-0.441783 -0.707839,-0.481425 -0.202134,-0.0308228 -0.363669,0.00484252 -0.489465,0.0876063 -0.225567,0.148402 -0.325949,0.438685 -0.364862,0.69387 -0.0792441,0.51965 0.0479055,1.1609 0.292165,1.53217 0.0121417,0.0184567 0.0229173,0.0357953 0.032378,0.0520354 0.132669,0.22774 0.146315,0.440138 0.118386,0.601189 -0.0288898,0.166594 -0.107563,0.28415 -0.146449,0.309886l6.69291e-005 9.84252e-005c-0.00135433,0.000897638 -0.00285827,0.00182677 -0.00449213,0.00277559 -0.0337874,0.0197047 -0.0599016,0.0111969 -0.0798465,-0.0231024 -0.0132677,-0.0227598 -0.0208937,-0.0737087 -0.0321693,-0.149051 -0.000728346,-0.00485827 -0.00147244,-0.00982677 -0.00223228,-0.0149094 0.0199764,0.181161 0.0249646,0.512185 -0.10148,0.845465l0.000531496 -0.00108661c0.0333661,0.0230276 0.0666732,0.0458583 0.0994724,0.0697126z"/>
  <path class="fil3" d="M5.50204 3.08505c0.13672,0.13652 0.253791,0.34113 0.295622,0.611008 0.0593622,-0.161594 0.106193,-0.319472 0.14187,-0.471634 0.050626,-0.215925 0.078874,-0.41998 0.0886811,-0.606535l-0.142563 -0.215291 -0.0165512 0.289469 -0.182173 -0.260866 0.0293937 0.350098 -0.268047 -0.214114 0.15128 0.357409 -0.19711 -0.0967638 0.0995984 0.25722z"/>
  <path class="fil0" d="M2.09956 2.01394c0.181413,0.235638 0.0838976,0.33626 -0.0386496,0.470917 0,0 -0.0547638,-0.0394724 -0.104555,-0.0350197 -0.0497953,0.00445276 -0.13098,0.0375669 -0.13098,0.0375669 0.00164173,-0.133161 0.0301339,-0.379827 0.274185,-0.473465z"/>
  <path class="fil3" d="M2.02738 2.46571c-0.0199252,-0.00932677 -0.0460945,-0.0181024 -0.0710236,-0.015874 -0.0214291,0.00191732 -0.0486693,0.00914173 -0.072752,0.016748 0.00180709,-0.0797008 0.0213583,-0.219 0.161445,-0.272752 0.104358,0.135555 0.0520591,0.195287 -0.0176693,0.271878z"/>
  <path class="fil0" d="M1.41647 2.77364c0.10498,-0.0252717 0.187768,-0.0463976 0.27437,-0.0473858 0.150059,-0.00171654 0.276394,0.068878 0.350496,0.19622 0,0 -0.00211417,-0.0038622 -0.00331102,-0.00524016 -0.0927402,-0.106902 -0.22074,-0.163283 -0.35315,-0.164996 -0.0842559,-0.00108661 -0.170307,0.0301693 -0.250205,0.0516181l-0.0182008 -0.0302165z"/>
  <g id="_352804224">
   <path id="_352805304" class="fil3" d="M2.86294 2.99597c0.267654,0.234228 0.353421,0.147858 0.627094,0.289409 0.318713,0.164843 0.544035,0.723705 0.6195,1.06029 0.0123937,0.0552638 0.0103228,0.0388346 0.000980315,0.10176 -0.197079,-0.303343 -0.284862,-0.595921 -0.543146,-0.906965 -0.230173,-0.277177 -0.667776,-0.260661 -0.704429,-0.544496z"/>
   <path id="_352804440" class="fil3" d="M2.64343 3.15749c0.277748,0.248323 0.347161,0.189638 0.634323,0.353055 0.304602,0.173335 0.414736,0.601996 0.483728,0.922949 0.0343465,0.159783 0.0265787,0.123512 0.0259803,0.266571 -0.156555,-0.309976 -0.240323,-0.64724 -0.450299,-0.938252 -0.181571,-0.251642 -0.657461,-0.313642 -0.693732,-0.604323z"/>
   <path id="_352803984" class="fil3" d="M2.46319 3.29794c0.238787,0.285992 0.31598,0.237996 0.576398,0.441339 0.276232,0.215689 0.32302,0.655795 0.344724,0.983362 0.0107992,0.163075 0.00837795,0.126059 -0.0129646,0.267516 -0.109937,-0.329406 -0.14389,-0.675256 -0.309433,-0.993646 -0.143146,-0.275323 -0.605004,-0.405701 -0.598724,-0.698571z"/>
   <path id="_352804248" class="fil3" d="M2.35281 3.48343c0.159402,0.258394 0.227236,0.228642 0.413681,0.42289 0.197772,0.206039 0.184417,0.566453 0.163898,0.833185 -0.0102165,0.132787 -0.00787402,0.102654 -0.0415118,0.214272 -0.0504331,-0.278457 -0.0376732,-0.561358 -0.134236,-0.837386 -0.0835,-0.238689 -0.440894,-0.397465 -0.401831,-0.632961z"/>
  </g>
  <rect class="fil6" width="6.82666" height="6.82666"/>
 </g>
</svg>
