<?xml version="1.0" encoding="UTF-8"?>
<!DOCTYPE svg PUBLIC "-//W3C//DTD SVG 1.1//EN" "http://www.w3.org/Graphics/SVG/1.1/DTD/svg11.dtd">
<!-- Creator: CorelDRAW -->
<svg xmlns="http://www.w3.org/2000/svg" xml:space="preserve" width="6.82666in" height="6.82666in" style="shape-rendering:geometricPrecision; text-rendering:geometricPrecision; image-rendering:optimizeQuality; fill-rule:evenodd; clip-rule:evenodd"
viewBox="0 0 6.82666 6.82666"
 xmlns:xlink="http://www.w3.org/1999/xlink">
 <defs>
  <style type="text/css">
   <![CDATA[
    .str0 {stroke:#212121;stroke-width:0.00333465;stroke-linecap:round;stroke-linejoin:round}
    .fil5 {fill:none}
    .fil4 {fill:#757575}
    .fil1 {fill:#1A1919;fill-rule:nonzero}
    .fil2 {fill:#212121;fill-rule:nonzero}
    .fil0 {fill:#3D3D3F;fill-rule:nonzero}
    .fil3 {fill:#FD5B00;fill-rule:nonzero}
   ]]>
  </style>
 </defs>
 <g id="Layer_x0020_1">
  <metadata id="CorelCorpID_0Corel-Layer"/>
  <g id="_212361384">
   <g>
    <g>
     <g>
      <path id="_212364456" class="fil0" d="M1.65065 4.84565c-0.0274173,-0.0566614 -0.00369685,-0.124827 0.0529409,-0.152232l0.615559 -0.297783c0.056685,-0.0273819 0.124827,-0.00368504 0.152232,0.0529764 0.0274055,0.0566614 0.00368898,0.124807 -0.0529724,0.152236l-0.615547 0.297756c-0.0566378,0.0274055 -0.124819,0.00368504 -0.152213,-0.0529528z"/>
      <path id="_212364648" class="fil0" d="M1.45057 5.22565c-0.0262402,-0.0174291 -0.033378,-0.0527756 -0.0159449,-0.0790039l0.248701 -0.374531c0.0173858,-0.0262165 0.0527402,-0.0333543 0.0789685,-0.0159488 0.0262402,0.0174213 0.033378,0.0527638 0.0159488,0.0789803l-0.248693 0.374555c-0.0173937,0.0261929 -0.0527756,0.0333307 -0.0789803,0.0159488z"/>
      <path id="_212364216" class="fil0" d="M1.47928 5.6103c-0.0139764,0.000153543 -0.025437,-0.0110591 -0.0255787,-0.025063l-0.00451181 -0.4115c-0.000141732,-0.0139567 0.0110709,-0.0254409 0.025063,-0.0255591 0.0139803,-0.000188976 0.0254409,0.0110236 0.0256024,0.0250157l0.00448819 0.411504c0.000141732,0.0139921 -0.0110591,0.0254724 -0.025063,0.0256024z"/>
     </g>
     <g>
      <path id="_212364480" class="fil0" d="M1.49071 3.9364c0,0.0629291 0.0510315,0.113961 0.113961,0.113961l0.683795 0c0.062937,0 0.11398,-0.0510315 0.11398,-0.113961 0,-0.0629488 -0.0510433,-0.113969 -0.11398,-0.113969l-0.683795 0c-0.0629291,0 -0.113961,0.0510197 -0.113961,0.113969z"/>
      <path id="_212364288" class="fil0" d="M1.06382 3.79234c-0.00831496,0.0303504 0.00953937,0.0617008 0.0399016,0.0700157l0.433618 0.118693c0.0303504,0.00832677 0.0616929,-0.00955118 0.0700197,-0.0399016 0.00831496,-0.0303504 -0.00956693,-0.061689 -0.039937,-0.0700039l-0.43361 -0.118728c-0.0303504,-0.00829134 -0.0616929,0.00955118 -0.0699921,0.0399252z"/>
      <path id="_212364600" class="fil0" d="M0.832543 3.48363c-0.0106339,0.00907087 -0.0118819,0.0250394 -0.00280315,0.0357126l0.267161 0.313008c0.00907874,0.0106339 0.0250591,0.0119055 0.035685,0.00282677 0.0106575,-0.00909449 0.0119055,-0.025063 0.00285039,-0.0357087l-0.267173 -0.313012c-0.00907874,-0.0106575 -0.0250748,-0.0119291 -0.0357205,-0.00282677z"/>
     </g>
     <g>
      <path id="_212364672" class="fil0" d="M1.61265 2.96417c-0.0262756,0.0571929 -0.0012126,0.12485 0.0559646,0.151138l0.621319 0.285543c0.057189,0.0262756 0.124862,0.00121654 0.151138,-0.0559646 0.0262874,-0.0571929 0.0012126,-0.124874 -0.0559528,-0.151138l-0.621331 -0.28552c-0.057189,-0.0262992 -0.124862,-0.00125197 -0.151138,0.0559409z"/>
      <path id="_212364576" class="fil0" d="M1.28489 2.65503c-0.0202087,0.0240984 -0.0170866,0.0600433 0.00705512,0.080252l0.344417 0.288945c0.024122,0.0202244 0.0600669,0.0170787 0.0802756,-0.00702756 0.0202244,-0.0241102 0.0170787,-0.0600433 -0.00701969,-0.0802874l-0.344441 -0.288925c-0.024122,-0.0202323 -0.0600394,-0.0170866 -0.0802874,0.00704331z"/>
      <path id="_212364624" class="fil0" d="M1.20367 2.27795c-0.0134488,0.00379528 -0.0212598,0.0177835 -0.0174646,0.0312598l0.112051 0.395969c0.00379134,0.0134488 0.0177835,0.0212913 0.0312323,0.0174764 0.0134724,-0.00382677 0.0213031,-0.0178071 0.0174882,-0.0312559l-0.112051 -0.39598c-0.00379134,-0.0134764 -0.0177835,-0.0213307 -0.0312559,-0.0174685z"/>
     </g>
    </g>
    <g>
     <g>
      <path id="_212363712" class="fil0" d="M5.17602 4.84565c0.0274173,-0.0566614 0.00369685,-0.124827 -0.0529409,-0.152232l-0.615559 -0.297783c-0.056685,-0.0273819 -0.124827,-0.00368504 -0.152232,0.0529764 -0.0274055,0.0566614 -0.00368898,0.124807 0.0529724,0.152236l0.615547 0.297756c0.0566378,0.0274055 0.124819,0.00368504 0.152213,-0.0529528z"/>
      <path id="_212364072" class="fil0" d="M5.37609 5.22565c0.0262402,-0.0174291 0.033378,-0.0527756 0.0159449,-0.0790039l-0.248701 -0.374531c-0.0173858,-0.0262165 -0.0527402,-0.0333543 -0.0789685,-0.0159488 -0.0262402,0.0174213 -0.033378,0.0527638 -0.0159488,0.0789803l0.248693 0.374555c0.0173937,0.0261929 0.0527756,0.0333307 0.0789803,0.0159488z"/>
      <path id="_212363688" class="fil0" d="M5.34739 5.6103c0.0139764,0.000153543 0.025437,-0.0110591 0.0255787,-0.025063l0.00451181 -0.4115c0.000141732,-0.0139567 -0.0110709,-0.0254409 -0.025063,-0.0255591 -0.0139803,-0.000188976 -0.0254409,0.0110236 -0.0256024,0.0250157l-0.00448819 0.411504c-0.000141732,0.0139921 0.0110591,0.0254724 0.025063,0.0256024z"/>
     </g>
     <g>
      <path id="_212363400" class="fil0" d="M5.33596 3.9364c0,0.0629291 -0.0510315,0.113961 -0.113961,0.113961l-0.683795 0c-0.062937,0 -0.11398,-0.0510315 -0.11398,-0.113961 0,-0.0629488 0.0510433,-0.113969 0.11398,-0.113969l0.683795 0c0.0629291,0 0.113961,0.0510197 0.113961,0.113969z"/>
      <path id="_212363592" class="fil0" d="M5.76285 3.79234c0.00831496,0.0303504 -0.00953937,0.0617008 -0.0399016,0.0700157l-0.433618 0.118693c-0.0303504,0.00832677 -0.0616929,-0.00955118 -0.0700197,-0.0399016 -0.00831496,-0.0303504 0.00956693,-0.061689 0.039937,-0.0700039l0.43361 -0.118728c0.0303504,-0.00829134 0.0616929,0.00955118 0.0699921,0.0399252z"/>
      <path id="_212363568" class="fil0" d="M5.99413 3.48363c0.0106339,0.00907087 0.0118819,0.0250394 0.00280315,0.0357126l-0.267161 0.313008c-0.00907874,0.0106339 -0.0250591,0.0119055 -0.035685,0.00282677 -0.0106575,-0.00909449 -0.0119055,-0.025063 -0.00285039,-0.0357087l0.267173 -0.313012c0.00907874,-0.0106575 0.0250748,-0.0119291 0.0357205,-0.00282677z"/>
     </g>
     <g>
      <path id="_212363856" class="fil0" d="M5.21402 2.96417c0.0262756,0.0571929 0.0012126,0.12485 -0.0559646,0.151138l-0.621319 0.285543c-0.057189,0.0262756 -0.124862,0.00121654 -0.151138,-0.0559646 -0.0262874,-0.0571929 -0.0012126,-0.124874 0.0559528,-0.151138l0.621331 -0.28552c0.057189,-0.0262992 0.124862,-0.00125197 0.151138,0.0559409z"/>
      <path id="_212363784" class="fil0" d="M5.54178 2.65503c0.0202087,0.0240984 0.0170866,0.0600433 -0.00705512,0.080252l-0.344417 0.288945c-0.024122,0.0202244 -0.0600669,0.0170787 -0.0802756,-0.00702756 -0.0202244,-0.0241102 -0.0170787,-0.0600433 0.00701969,-0.0802874l0.344441 -0.288925c0.024122,-0.0202323 0.0600394,-0.0170866 0.0802874,0.00704331z"/>
      <path id="_212363280" class="fil0" d="M5.623 2.27795c0.0134488,0.00379528 0.0212598,0.0177835 0.0174646,0.0312598l-0.112051 0.395969c-0.00379134,0.0134488 -0.0177835,0.0212913 -0.0312323,0.0174764 -0.0134724,-0.00382677 -0.0213031,-0.0178071 -0.0174882,-0.0312559l0.112051 -0.39598c0.00379134,-0.0134764 0.0177835,-0.0213307 0.0312559,-0.0174685z"/>
     </g>
    </g>
   </g>
   <path id="_212362752" class="fil1" d="M3.74091 1.98468c0.124469,0.0504803 0.204232,0.133441 0.25028,0.240748 0.0484134,0.112811 0.0574173,0.250937 0.0411575,0.405043l-0.00505906 0.0479173 -0.0478583 0 -1.13221 0 -0.0478583 0 -0.00505906 -0.0479173c-0.0162598,-0.154106 -0.00725591,-0.292232 0.0411575,-0.405043 0.0460472,-0.107307 0.125811,-0.190268 0.25028,-0.240748 0.00197244,-0.079315 0.0344173,-0.150421 0.0858268,-0.204272 0.0524094,-0.0549055 0.124654,-0.0917205 0.204232,-0.10061 0.0128898,-0.00144094 0.0254291,-0.0021811 0.0375276,-0.0021811 0.0120984,0 0.0246378,0.000740157 0.0375276,0.0021811 0.0795827,0.00889764 0.151823,0.0457126 0.204236,0.10061 0.0514094,0.0538543 0.0838504,0.124957 0.0858228,0.204272z"/>
   <path id="_212363016" class="fil2" d="M4.01909 2.67689c0.186457,0.077874 0.342457,0.190791 0.451291,0.326657 0.107854,0.134642 0.16961,0.29148 0.16961,0.459217 0,0.294173 -0.0848701,1.01269 -0.37824,1.52157 -0.187689,0.325567 -0.459835,0.567028 -0.848425,0.567028 -0.997902,0 -1.22667,-1.60692 -1.22667,-2.0886 0,-0.167736 0.0617559,-0.324575 0.16961,-0.459217 0.109465,-0.136654 0.266638,-0.250098 0.454531,-0.328016 0.0066811,-0.00277559 0.0136063,-0.00408661 0.0204173,-0.00408268l0 -8.66142e-005 1.16421 0c0.00849606,0 0.0165315,0.00199213 0.0236575,0.00552756z"/>
   <path id="_212362944" class="fil3" d="M4.01909 2.67689c0.186457,0.077874 0.342457,0.190791 0.451291,0.326657 0.0505669,0.063126 0.091,0.131126 0.119685,0.202843 0.00283071,0.0109567 0.00559843,0.0220157 0.00830315,0.0331811 0.0159173,0.0657402 0.029626,0.135185 0.0414331,0.207169 0.000125984,0.00533071 0.000188976,0.0106693 0.000188976,0.0160236 0,0.294173 -0.0848701,1.01269 -0.37824,1.52157 -0.0507874,0.0880945 -0.107776,0.170016 -0.171563,0.242677 -0.180331,-0.130941 -0.335776,-0.334906 -0.452965,-0.572417 -0.113535,-0.230098 -0.19148,-0.492126 -0.221406,-0.749476 -0.0302283,-0.259862 -0.0116299,-0.515709 0.0683898,-0.730693 0.0852992,-0.229169 0.239217,-0.411319 0.476472,-0.502906l0.000409449 -0.00015748 0.0343425 0c0.00849606,0 0.0165315,0.00199213 0.0236575,0.00552756z"/>
   <path id="_212362728" class="fil3" d="M2.72911 5.2159c-0.426476,-0.497827 -0.542445,-1.41034 -0.542445,-1.75313 0,-0.167736 0.0617559,-0.324575 0.16961,-0.459217 0.109465,-0.136654 0.266638,-0.250098 0.454531,-0.328016 0.0066811,-0.00277559 0.0136063,-0.00408661 0.0204173,-0.00408268l0 -8.66142e-005 0.0119567 0 0.000409449 0.00015748c0.237256,0.0915866 0.391173,0.273736 0.476472,0.502906 0.0800197,0.21498 0.098622,0.470831 0.0683898,0.730693 -0.0299252,0.25735 -0.10787,0.519378 -0.221406,0.749476 -0.113921,0.230886 -0.263992,0.430083 -0.437937,0.561303z"/>
   <g>
    <circle id="_212362776" class="fil4 str0" cx="3.1286" cy="2.24241" r="0.0868071"/>
    <circle id="_212362968" class="fil4 str0" cx="3.69805" cy="2.24241" r="0.0868071"/>
   </g>
   <g>
    <polygon id="_212362104" class="fil0" points="3.22913,1.75863 3.03122,1.53246 3.05604,1.54299 2.77335,1.55712 2.7607,1.55776 2.74795,1.54589 2.49757,1.31305 2.61492,1.21636 2.79567,1.50657 2.77027,1.49535 3.05296,1.48122 3.06791,1.48048 3.07778,1.49175 3.27569,1.71793 "/>
    <polygon id="_212362560" class="fil0" points="3.55096,1.71793 3.74886,1.49175 3.75873,1.48048 3.77369,1.48122 4.05639,1.49535 4.03099,1.50657 4.21174,1.21636 4.32909,1.31305 4.0787,1.54589 4.06596,1.55776 4.05331,1.55712 3.7706,1.54299 3.79544,1.53246 3.59753,1.75863 "/>
   </g>
   <path id="_212361960" class="fil2" d="M2.5779 3.11701c0,0.0825512 0.0669134,0.149453 0.149453,0.149453 0.0825433,0 0.149445,-0.0669016 0.149445,-0.149453 0,-0.0825315 -0.0669016,-0.149445 -0.149445,-0.149445 -0.0825394,0 -0.149453,0.0669134 -0.149453,0.149445z"/>
   <path id="_212362512" class="fil2" d="M4.19136 3.11701c0,0.0825512 -0.0669134,0.149453 -0.149453,0.149453 -0.0825433,0 -0.149445,-0.0669016 -0.149445,-0.149453 0,-0.0825315 0.0669016,-0.149445 0.149445,-0.149445 0.0825394,0 0.149453,0.0669134 0.149453,0.149445z"/>
   <path id="_212362416" class="fil2" d="M2.36956 3.70467c0,0.0825394 0.0669134,0.149453 0.149453,0.149453 0.0825433,0 0.149445,-0.0669134 0.149445,-0.149453 0,-0.0825315 -0.0669016,-0.149445 -0.149445,-0.149445 -0.0825394,0 -0.149453,0.0669134 -0.149453,0.149445z"/>
   <path id="_212361864" class="fil2" d="M4.3997 3.70467c0,0.0825394 -0.0669134,0.149453 -0.149453,0.149453 -0.0825433,0 -0.149445,-0.0669134 -0.149445,-0.149453 0,-0.0825315 0.0669016,-0.149445 0.149445,-0.149445 0.0825394,0 0.149453,0.0669134 0.149453,0.149445z"/>
   <path id="_212362200" class="fil2" d="M2.88434 3.57728c0,0.0825512 0.0669094,0.149437 0.149453,0.149437 0.0825315,0 0.149445,-0.0668858 0.149445,-0.149437 0,-0.0825315 -0.0669134,-0.149445 -0.149445,-0.149445 -0.0825433,0 -0.149453,0.0669134 -0.149453,0.149445z"/>
   <path id="_212362296" class="fil2" d="M3.88491 3.57728c0,0.0825512 -0.0669094,0.149437 -0.149453,0.149437 -0.0825315,0 -0.149445,-0.0668858 -0.149445,-0.149437 0,-0.0825315 0.0669134,-0.149445 0.149445,-0.149445 0.0825433,0 0.149453,0.0669134 0.149453,0.149445z"/>
   <path id="_212362584" class="fil2" d="M2.80706 4.12133c0,0.0825394 0.0669134,0.149453 0.149453,0.149453 0.0825433,0 0.149445,-0.0669134 0.149445,-0.149453 0,-0.0825315 -0.0669016,-0.149445 -0.149445,-0.149445 -0.0825394,0 -0.149453,0.0669134 -0.149453,0.149445z"/>
   <path id="_212361576" class="fil2" d="M3.96219 4.12133c0,0.0825394 -0.0669134,0.149453 -0.149453,0.149453 -0.0825433,0 -0.149445,-0.0669134 -0.149445,-0.149453 0,-0.0825315 0.0669016,-0.149445 0.149445,-0.149445 0.0825394,0 0.149453,0.0669134 0.149453,0.149445z"/>
   <path id="_212361240" class="fil2" d="M2.62651 4.62133c0,0.0825394 0.0669134,0.149453 0.149453,0.149453 0.0825433,0 0.149445,-0.0669134 0.149445,-0.149453 0,-0.0825315 -0.0669016,-0.149445 -0.149445,-0.149445 -0.0825394,0 -0.149453,0.0669134 -0.149453,0.149445z"/>
   <path id="_212361216" class="fil2" d="M4.14275 4.62133c0,0.0825394 -0.0669134,0.149453 -0.149453,0.149453 -0.0825433,0 -0.149445,-0.0669134 -0.149445,-0.149453 0,-0.0825315 0.0669016,-0.149445 0.149445,-0.149445 0.0825394,0 0.149453,0.0669134 0.149453,0.149445z"/>
  </g>
  <rect class="fil5" width="6.82666" height="6.82666"/>
 </g>
</svg>
