<?xml version="1.0" encoding="UTF-8"?>
<!DOCTYPE svg PUBLIC "-//W3C//DTD SVG 1.1//EN" "http://www.w3.org/Graphics/SVG/1.1/DTD/svg11.dtd">
<!-- Creator: CorelDRAW -->
<svg xmlns="http://www.w3.org/2000/svg" xml:space="preserve" width="6.82666in" height="6.82666in" style="shape-rendering:geometricPrecision; text-rendering:geometricPrecision; image-rendering:optimizeQuality; fill-rule:evenodd; clip-rule:evenodd"
viewBox="0 0 6.82666 6.82666"
 xmlns:xlink="http://www.w3.org/1999/xlink">
 <defs>
  <style type="text/css">
   <![CDATA[
    .fil9 {fill:none}
    .fil6 {fill:#039BE5;fill-rule:nonzero}
    .fil2 {fill:#155219;fill-rule:nonzero}
    .fil5 {fill:#1B5E20;fill-rule:nonzero}
    .fil4 {fill:#29B6F6;fill-rule:nonzero}
    .fil1 {fill:#388E3C;fill-rule:nonzero}
    .fil0 {fill:#3D3D3F;fill-rule:nonzero}
    .fil3 {fill:#4FC3F7;fill-rule:nonzero}
    .fil8 {fill:#BDBDBD;fill-rule:nonzero}
    .fil7 {fill:#D0D0D0;fill-rule:nonzero}
   ]]>
  </style>
 </defs>
 <g id="Layer_x0020_1">
  <metadata id="CorelCorpID_0Corel-Layer"/>
  <g id="_212365344">
   <path id="_212368752" class="fil0" d="M5.20567 2.45122c0.0327087,0.0711417 0.00153543,0.155374 -0.0696654,0.188079l-0.77313 0.355311c-0.0711535,0.0326929 -0.155374,0.00148819 -0.188079,-0.0696654 -0.0327047,-0.0711693 -0.00148819,-0.155358 0.0696654,-0.188079l0.77313 -0.35528c0.0711417,-0.0327205 0.155374,-0.00151969 0.188079,0.0696339z"/>
   <path id="_212368128" class="fil0" d="M5.6135 2.9023c0.0251614,-0.0299685 0.0212165,-0.0747244 -0.00876378,-0.0998583l-0.42861 -0.359551c-0.0299803,-0.0251929 -0.0747402,-0.021248 -0.0998543,0.00873228 -0.0251614,0.0300157 -0.0212638,0.0747283 0.00876378,0.0999173l0.428547 0.359551c0.0300433,0.0251496 0.0747402,0.021248 0.0999173,-0.00879134z"/>
   <path id="_212368704" class="fil0" d="M6.10874 2.96058c0.00297638,-0.017126 -0.00857087,-0.033374 -0.0257283,-0.0363976l-0.504583 -0.0871496c-0.0171142,-0.00298819 -0.0334646,0.00854331 -0.0363976,0.0256535 -0.00296063,0.0172008 0.00851181,0.0334803 0.0256378,0.0364567l0.50463 0.0871614c0.0171575,0.00297638 0.0335236,-0.00849606 0.0364409,-0.0257244z"/>
   <path id="_212367600" class="fil0" d="M5.91748 2.93689l0.151386 -0.0744291c0.015622,-0.00772047 0.0221417,-0.0265748 0.0143425,-0.0422717 -0.00763386,-0.0155945 -0.0265433,-0.0219646 -0.0422441,-0.0142992l-0.196067 0.0964055 0.0725827 0.0345945z"/>
   <path id="_212367576" class="fil0" d="M5.4813 3.70231c0.00815354,0.0779094 -0.0483898,0.147618 -0.126315,0.155776l-0.84622 0.0885748c-0.0778661,0.00815748 -0.147634,-0.0483858 -0.155791,-0.126283 -0.00809449,-0.0778937 0.0484331,-0.147634 0.126315,-0.155772l0.84622 -0.0885787c0.0778661,-0.00815354 0.147697,0.0483858 0.155791,0.126283z"/>
   <path id="_212367672" class="fil0" d="M5.72294 4.26039c0.0334173,-0.0203386 0.0440866,-0.0639685 0.023685,-0.0974449l-0.290598 -0.477996c-0.0203543,-0.0334646 -0.0639803,-0.0441024 -0.0974606,-0.023748 -0.0334213,0.0203701 -0.0440276,0.0639685 -0.0236732,0.0974488l0.290598 0.477992c0.0204016,0.0334646 0.0639685,0.0441024 0.0974488,0.023748z"/>
   <path id="_212367840" class="fil0" d="M6.17333 4.47442c0.00830315,-0.0152795 0.0026063,-0.0343701 -0.0127205,-0.0427323l-0.449976 -0.244386c-0.0152205,-0.00833071 -0.0344449,-0.00264567 -0.0426457,0.0126339 -0.00834646,0.0153268 -0.00272047,0.0344488 0.0125591,0.042748l0.449976 0.244413c0.0153268,0.00830315 0.0345039,0.0026811 0.0428071,-0.0126772z"/>
   <path id="_212367744" class="fil0" d="M5.99976 4.39063l0.167264 -0.0219449c0.0172756,-0.00230709 0.0294764,-0.0180945 0.027126,-0.0354134 -0.00222047,-0.0172598 -0.0181102,-0.0293307 -0.0353858,-0.027126l-0.216677 0.0284488 0.0576732 0.0560354z"/>
   <path id="_212367912" class="fil0" d="M5.32413 4.98265c-0.0235866,0.0746929 -0.103236,0.116091 -0.177933,0.0925039l-0.811417 -0.256181c-0.0746339,-0.0235866 -0.116059,-0.103236 -0.0925197,-0.177933 0.0236732,-0.0746811 0.103339,-0.116075 0.177972,-0.0925197l0.811374 0.256197c0.0746811,0.0235551 0.116165,0.103252 0.0925236,0.177933z"/>
   <path id="_212367936" class="fil0" d="M5.3232 5.59076c0.0387638,-0.00529528 0.0659331,-0.0410827 0.0605472,-0.0798583l-0.075815 -0.554252c-0.00538583,-0.0387913 -0.0411102,-0.0659606 -0.0799173,-0.0606339 -0.0388071,0.00535433 -0.0658701,0.0411102 -0.0606496,0.0798858l0.0759764 0.55424c0.00528346,0.0388189 0.0410079,0.0659291 0.0798583,0.0606181z"/>
   <path id="_212367408" class="fil0" d="M5.65087 5.96664c0.013689,-0.0106811 0.0160984,-0.0304882 0.00538583,-0.044252l-0.315209 -0.403563c-0.0106535,-0.0136929 -0.0305039,-0.0161181 -0.0441929,-0.00538976 -0.0137362,0.0107008 -0.016189,0.0304764 -0.00547638,0.0441929l0.315209 0.403551c0.0107165,0.013748 0.0305512,0.0162047 0.0442835,0.00546063z"/>
   <path id="_212367336" class="fil0" d="M5.52513 5.82059l0.162083 0.0465433c0.0167717,0.00477559 0.0342992,-0.00483465 0.0390157,-0.0216496 0.00486614,-0.0166811 -0.00488189,-0.0340906 -0.0216339,-0.0389528l-0.210028 -0.0603228 0.030563 0.0743819z"/>
   <path id="_212367456" class="fil0" d="M1.62103 2.45122c-0.032752,0.0711417 -0.00153543,0.155374 0.0696654,0.188079l0.77313 0.355311c0.0711575,0.0326929 0.155315,0.00148819 0.188079,-0.0696654 0.0326496,-0.0711693 0.00148819,-0.155358 -0.0696654,-0.188079l-0.77313 -0.35528c-0.0711535,-0.0327205 -0.155433,-0.00151969 -0.188079,0.0696339z"/>
   <path id="_212366784" class="fil0" d="M1.21315 2.9023c-0.0251299,-0.0299685 -0.0212323,-0.0747244 0.00880709,-0.0998583l0.428551 -0.359551c0.0300394,-0.0251929 0.0747402,-0.021248 0.0999016,0.00873228 0.0251772,0.0300157 0.0212323,0.0747283 -0.00876378,0.0999173l-0.428594 0.359551c-0.0299803,0.0251496 -0.0746969,0.021248 -0.0999016,-0.00879134z"/>
   <path id="_212366664" class="fil0" d="M0.71789 2.96058c-0.00291339,-0.017126 0.00861811,-0.033374 0.0257874,-0.0363976l0.504571 -0.0871496c0.017126,-0.00297638 0.0334764,0.00854331 0.0363937,0.0256535 0.00297638,0.0172008 -0.00851181,0.0334803 -0.025622,0.0364567l-0.50463 0.0871614c-0.0171693,0.00297638 -0.0335236,-0.00849606 -0.0365,-0.0257244z"/>
   <path id="_212366472" class="fil0" d="M0.909154 2.93689l-0.151386 -0.0744291c-0.0155787,-0.00772047 -0.0220787,-0.0265748 -0.0143425,-0.0422717 0.00769291,-0.0155945 0.0265591,-0.0219646 0.0422441,-0.0142992l0.196126 0.0964055 -0.0726417 0.0345945z"/>
   <path id="_212367168" class="fil0" d="M1.3454 3.70231c-0.00821654,0.0779094 0.0483425,0.147618 0.126252,0.155776l0.846236 0.0885748c0.0779094,0.00815748 0.147622,-0.0483858 0.155835,-0.126283 0.00809449,-0.0778937 -0.0484488,-0.147634 -0.126315,-0.155772l-0.84622 -0.0885787c-0.077878,-0.00815354 -0.147693,0.0483858 -0.155787,0.126283z"/>
   <path id="_212366976" class="fil0" d="M1.10369 4.26039c-0.0334213,-0.0203386 -0.0440315,-0.0639685 -0.023689,-0.0974173l0.290614 -0.478024c0.0203386,-0.0334646 0.0639646,-0.0441024 0.0974449,-0.023748 0.0334213,0.0203701 0.0440315,0.0639685 0.0237323,0.0974488l-0.290657 0.477992c-0.0203543,0.0334646 -0.0639213,0.0441024 -0.0974449,0.023748z"/>
   <path id="_212366856" class="fil0" d="M0.653358 4.47442c-0.0083622,-0.0152795 -0.00261811,-0.0343701 0.0127087,-0.0427323l0.449972 -0.244386c0.0152402,-0.00833071 0.0344016,-0.00264567 0.0426614,0.0126339 0.00834646,0.0153268 0.00270866,0.0344488 -0.0125591,0.042748l-0.450035 0.244413c-0.0153228,0.00830315 -0.0344449,0.0026811 -0.042748,-0.0126772z"/>
   <path id="_212366808" class="fil0" d="M0.826929 4.39063l-0.16726 -0.0219449c-0.0172756,-0.00230709 -0.0295394,-0.0180945 -0.0271732,-0.0354134 0.00224803,-0.0172598 0.0180945,-0.0293307 0.0354134,-0.027126l0.216634 0.0284488 -0.0576142 0.0560354z"/>
   <path id="_212367072" class="fil0" d="M1.50256 4.98265c0.0235394,0.0746929 0.103248,0.116091 0.177929,0.0925039l0.811374 -0.256181c0.0746969,-0.0235866 0.116059,-0.103236 0.0925354,-0.177933 -0.0236299,-0.0746811 -0.103295,-0.116075 -0.177929,-0.0925197l-0.811374 0.256197c-0.0746969,0.0235551 -0.116165,0.103252 -0.0925354,0.177933z"/>
   <path id="_212366880" class="fil0" d="M1.50348 5.59076c-0.0388071,-0.00529528 -0.0659173,-0.0410827 -0.0605906,-0.0798583l0.075874 -0.554252c0.00538583,-0.0387913 0.0411102,-0.0659606 0.0799173,-0.0606339 0.0387598,0.00535433 0.065874,0.0411102 0.0605906,0.0798858l-0.0759173 0.55424c-0.00532677,0.0388189 -0.0410512,0.0659291 -0.079874,0.0606181z"/>
   <path id="_212366904" class="fil0" d="M1.17581 5.96664c-0.0137323,-0.0106811 -0.0160827,-0.0304882 -0.00537008,-0.044252l0.31515 -0.403563c0.0106693,-0.0136929 0.0305512,-0.0161181 0.0441929,-0.00538976 0.0137953,0.0107008 0.0162047,0.0304764 0.00549213,0.0441929l-0.315165 0.403551c-0.0107126,0.013748 -0.0306102,0.0162047 -0.0442992,0.00546063z"/>
   <path id="_212367216" class="fil0" d="M1.30156 5.82059l-0.162126 0.0465433c-0.0167717,0.00477559 -0.0342559,-0.00483465 -0.0390157,-0.0216496 -0.0048189,-0.0166811 0.00490945,-0.0340906 0.0216811,-0.0389528l0.209965 -0.0603228 -0.0305039 0.0743819z"/>
   <path id="_212365920" class="fil1" d="M2.10658 3.82885c0,-0.837488 0.589917,-1.5164 1.31758,-1.5164 0.727657,0 1.31753,0.678913 1.31753,1.5164 0,0.837484 -0.589874,1.85196 -1.31753,1.85196 -0.727661,0 -1.31758,-1.01448 -1.31758,-1.85196z"/>
   <path id="_212365752" class="fil2" d="M3.53106 1.20445c0,-0.108339 0.0404882,-0.207008 0.106776,-0.282504l-0.474528 0c0.0662756,0.0754961 0.106776,0.174165 0.106776,0.282504 0,0.149063 -0.076122,0.280244 -0.191559,0.357083l0.644094 0c-0.115437,-0.0768386 -0.191559,-0.20802 -0.191559,-0.357083z"/>
   <path id="_212365824" class="fil1" d="M4.20165 2.04021c0,0.297846 -0.35863,0.539283 -0.801079,0.539283 -0.442429,0 -0.801059,-0.241437 -0.801059,-0.539283 0,-0.297846 0.35863,-0.658634 0.801059,-0.658634 0.442449,0 0.801079,0.360787 0.801079,0.658634z"/>
   <path id="_212366256" class="fil3" d="M4.29161 1.77312c0,0.236811 -0.191917,0.428803 -0.428803,0.428803 -0.236823,0 -0.428799,-0.191992 -0.428799,-0.428803 0,-0.236839 0.191976,-0.428831 0.428799,-0.428831 0.236886,0 0.428803,0.191992 0.428803,0.428831z"/>
   <path id="_212366064" class="fil3" d="M3.36076 1.77312c0,0.236811 -0.191976,0.428803 -0.428803,0.428803 -0.236839,0 -0.428862,-0.191992 -0.428862,-0.428803 0,-0.236839 0.192024,-0.428831 0.428862,-0.428831 0.236827,0 0.428803,0.191992 0.428803,0.428831z"/>
   <path id="_212366016" class="fil4" d="M4.17993 1.77312c0,0.17513 -0.141933,0.317118 -0.317118,0.317118 -0.175142,0 -0.317114,-0.141988 -0.317114,-0.317118 0,-0.17515 0.141972,-0.317138 0.317114,-0.317138 0.175185,0 0.317118,0.141988 0.317118,0.317138z"/>
   <path id="_212366280" class="fil4" d="M3.24905 1.77312c0,0.17513 -0.141929,0.317118 -0.317114,0.317118 -0.175142,0 -0.317118,-0.141988 -0.317118,-0.317118 0,-0.17515 0.141976,-0.317138 0.317118,-0.317138 0.175185,0 0.317114,0.141988 0.317114,0.317138z"/>
   <path id="_212366208" class="fil5" d="M3.72054 0.909256c0,0.0308898 -0.0250157,0.0559331 -0.055874,0.0559331l-0.515906 0c-0.0308031,0 -0.055874,-0.0250433 -0.055874,-0.0559331 0,-0.0309055 0.0250709,-0.0559173 0.055874,-0.0559173l0.515906 0c0.0308583,0 0.055874,0.0250118 0.055874,0.0559173z"/>
   <path id="_212366040" class="fil6" d="M4.06824 1.77311c0,0.113453 -0.0919409,0.205429 -0.205429,0.205429 -0.113457,0 -0.205429,-0.0919764 -0.205429,-0.205429 0,-0.113465 0.0919724,-0.205445 0.205429,-0.205445 0.113488,0 0.205429,0.0919803 0.205429,0.205445z"/>
   <path id="_212366424" class="fil6" d="M3.13736 1.77311c0,0.113453 -0.0919449,0.205429 -0.205429,0.205429 -0.113461,0 -0.205433,-0.0919764 -0.205433,-0.205429 0,-0.113465 0.0919724,-0.205445 0.205433,-0.205445 0.113484,0 0.205429,0.0919803 0.205429,0.205445z"/>
   <path id="_212365320" class="fil7" d="M3.07584 4.96286c-0.26302,0.494921 -0.652307,0.879205 -1.08532,0.933697 -0.0259803,0.00327165 -0.0402126,0.00526772 -0.0529646,0.00706299 -0.0239173,0.0033622 -0.0440157,0.00618504 -0.0573504,0.00741339 -0.123331,0.0113386 -0.13376,-0.0173583 -0.146031,-0.192315 -0.0283307,-0.404142 -0.053748,-1.68952 0.179886,-2.5211 0.0589606,-0.20985 0.13478,-0.392091 0.231689,-0.526378 0.101189,-0.140213 0.224709,-0.228213 0.375059,-0.242028 0.0725276,-0.00666142 0.150776,0.00426772 0.235138,0.0353307 0.298941,0.110071 0.487083,0.336583 0.585303,0.624154 0.0921339,0.269768 0.103839,0.592638 0.0529488,0.921752 -0.0503937,0.325933 -0.162386,0.658921 -0.318358,0.952409z"/>
   <path id="_212365272" class="fil8" d="M2.93277 4.73859c-0.188598,0.354886 -0.467736,0.630437 -0.778228,0.669512 -0.0186299,0.00234252 -0.0288346,0.00377559 -0.0379803,0.00506299 -0.0171496,0.00240945 -0.031563,0.00443701 -0.041122,0.00531496 -0.0884331,0.00813386 -0.0959134,-0.0124449 -0.104713,-0.137898 -0.020315,-0.289791 -0.0385394,-1.21148 0.128988,-1.80776 0.0422756,-0.150472 0.0966417,-0.28115 0.166134,-0.377437 0.0725551,-0.100543 0.161126,-0.163642 0.268937,-0.173547 0.0520039,-0.00477953 0.10811,0.00305906 0.168606,0.0253346 0.214354,0.0789252 0.34926,0.241346 0.419689,0.447547 0.0660669,0.193437 0.0744606,0.424953 0.0379685,0.660945 -0.0361339,0.233713 -0.116437,0.47248 -0.22828,0.682925z"/>
   <path id="_212365584" class="fil7" d="M3.77244 4.96286c0.263024,0.494921 0.652307,0.879205 1.08532,0.933697 0.0259803,0.00327165 0.0402126,0.00526772 0.0529685,0.00706299 0.0239134,0.0033622 0.0440118,0.00618504 0.0573504,0.00741339 0.123327,0.0113386 0.133756,-0.0173583 0.146028,-0.192315 0.0283307,-0.404142 0.053748,-1.68952 -0.179886,-2.5211 -0.0589606,-0.20985 -0.134776,-0.392091 -0.231689,-0.526378 -0.101185,-0.140213 -0.224705,-0.228213 -0.375059,-0.242028 -0.0725276,-0.00666142 -0.150772,0.00426772 -0.235138,0.0353307 -0.298937,0.110071 -0.487079,0.336583 -0.585299,0.624154 -0.0921378,0.269768 -0.103843,0.592638 -0.0529528,0.921752 0.0503937,0.325933 0.162386,0.658921 0.318358,0.952409z"/>
   <path id="_212365440" class="fil8" d="M3.9155 4.73859c0.188602,0.354886 0.46774,0.630437 0.778232,0.669512 0.0186299,0.00234252 0.0288346,0.00377559 0.0379803,0.00506299 0.0171457,0.00240945 0.0315591,0.00443701 0.041122,0.00531496 0.0884331,0.00813386 0.0959134,-0.0124449 0.104709,-0.137898 0.0203189,-0.289791 0.0385433,-1.21148 -0.128988,-1.80776 -0.0422756,-0.150472 -0.0966417,-0.28115 -0.16613,-0.377437 -0.0725551,-0.100543 -0.161126,-0.163642 -0.268937,-0.173547 -0.0520079,-0.00477953 -0.108114,0.00305906 -0.168606,0.0253346 -0.214354,0.0789252 -0.349264,0.241346 -0.419689,0.447547 -0.0660669,0.193437 -0.0744606,0.424953 -0.0379724,0.660945 0.0361378,0.233713 0.116441,0.47248 0.22828,0.682925z"/>
  </g>
  <rect class="fil9" width="6.82666" height="6.82666"/>
 </g>
</svg>
