<?xml version="1.0" encoding="UTF-8"?>
<!DOCTYPE svg PUBLIC "-//W3C//DTD SVG 1.1//EN" "http://www.w3.org/Graphics/SVG/1.1/DTD/svg11.dtd">
<!-- Creator: CorelDRAW -->
<svg xmlns="http://www.w3.org/2000/svg" xml:space="preserve" width="6.82666in" height="6.82666in" style="shape-rendering:geometricPrecision; text-rendering:geometricPrecision; image-rendering:optimizeQuality; fill-rule:evenodd; clip-rule:evenodd"
viewBox="0 0 6.82666 6.82666"
 xmlns:xlink="http://www.w3.org/1999/xlink">
 <defs>
  <style type="text/css">
   <![CDATA[
    .fil13 {fill:none}
    .fil3 {fill:none;fill-rule:nonzero}
    .fil9 {fill:#212121}
    .fil8 {fill:#365414}
    .fil10 {fill:#424242}
    .fil12 {fill:#44691A}
    .fil2 {fill:#6E6742}
    .fil11 {fill:#EEEEEE}
    .fil4 {fill:#243B09;fill-rule:nonzero}
    .fil0 {fill:#365414;fill-rule:nonzero}
    .fil6 {fill:#44691A;fill-rule:nonzero}
    .fil5 {fill:#4C7320;fill-rule:nonzero}
    .fil7 {fill:#557D27;fill-rule:nonzero}
    .fil1 {fill:#A79D6C;fill-rule:nonzero}
   ]]>
  </style>
    <clipPath id="id0" style="clip-rule:nonzero">
     <path d="M5.3665 3.37077c0.235732,0.1255 0.504012,0.272205 0.534083,0.460409 0.0113504,0.0710709 -0.0754646,0.115327 -0.228315,0.139748 -0.760665,0.080748 -1.53445,0.0551496 -2.29807,0.0387205 -0.0933504,-0.00200394 -0.15922,-0.0034252 -0.197138,-0.0034252 -0.205453,0 -0.392169,-0.087315 -0.527461,-0.22798 -0.13478,-0.140126 -0.218441,-0.333217 -0.218441,-0.545413l0 -3.93701e-006c0,-0.143248 0.0549449,-0.273953 0.144039,-0.370492 0.0669567,-0.0725591 0.153291,-0.125843 0.250248,-0.150776 -0.0945906,0.327539 1.88506,0.114126 2.54105,0.659213z"/>
    </clipPath>
 </defs>
 <g id="Layer_x0020_1">
  <metadata id="CorelCorpID_0Corel-Layer"/>
  <g id="_352376128">
   <path id="_352346872" class="fil0" d="M4.01746 3.79497c-0.0236378,0.0027126 -0.174929,-0.0936732 -0.178776,-0.11037 -0.00384646,-0.0166969 0.0122008,-0.032437 0.0358425,-0.0351535 0.00280709,-0.000322835 1.11916,-0.104354 1.18661,-0.0387598 0.0869724,0.0614252 -0.503693,0.637457 -0.442146,0.798209 0.00549606,0.0143504 0.0215472,0.0143937 0.0410157,0.014437 0.0129409,3.14961e-005 0.0265748,6.29921e-005 0.0400276,0.00117323 0.0685354,0.00564173 0.142524,0.0248898 0.142736,0.0249409 0.0225157,0.00576378 0.0341496,0.0233307 0.0259882,0.0392323 -0.00815748,0.0159055 -0.0330315,0.024122 -0.0555472,0.0183583 -0.000185039,-4.72441e-005 -0.0644409,-0.0167598 -0.123031,-0.0215827 -0.010748,-0.000885827 -0.0207126,-0.000909449 -0.0301732,-0.000933071 -0.0559803,-0.000133858 -0.10213,-0.000248031 -0.124929,-0.0597913 -0.0240827,-0.0628976 0.117303,-0.266791 0.195756,-0.457106 0.0680787,-0.165142 0.0880945,-0.262579 0.0757559,-0.274575 -0.0354488,-0.0344685 -0.786476,0.10161 -0.78913,0.101921z"/>
   <path id="_352346296" class="fil0" d="M3.5215 3.40239c0.0257717,-0.0118543 0.0581417,-0.00396457 0.0722913,0.017622 0.0141496,0.0215866 0.00473228,0.0487008 -0.0210394,0.0605551 -0.000555118,0.000255906 -0.195386,0.0900669 -0.209378,0.127406 -0.0126929,0.0338661 -0.0787677,0.233043 -0.130354,0.405524 -0.0302835,0.101264 -0.055374,0.192492 -0.0610551,0.233209 -0.00956693,0.068563 -0.0180118,0.205961 -0.023252,0.305433 -0.00351181,0.0667362 0.352043,0.142591 0.352028,0.142945 -0.0010315,0.0245748 -0.0256614,0.0437953 -0.055,0.0429291 -0.0363386,-0.00106693 -0.406713,-0.131654 -0.405787,-0.168354 0.00730709,-0.289547 0.0105039,-0.84326 0.0681063,-0.996937 0.0269134,-0.0718228 0.412776,-0.170028 0.413441,-0.170331z"/>
   <path id="_352346848" class="fil0" d="M2.56067 3.31167c0.0257717,-0.0109016 0.0581417,-0.00364567 0.0722913,0.0162126 0.0141496,0.0198583 0.00473228,0.0447992 -0.0210394,0.0557008 -0.000555118,0.000240157 -0.157925,0.162472 -0.171921,0.196815 -0.0327874,0.0804685 -0.223815,0.47463 -0.228866,0.507929 -0.00781496,0.0515079 -0.0148819,0.14524 -0.0200591,0.227713 -0.00541732,0.0862756 -0.567819,0.243177 -0.567839,0.243591 -0.0010315,0.0226063 -0.0256614,0.0402874 -0.055,0.0394921 -0.0293386,-0.000795276 -0.0522835,-0.0197717 -0.051252,-0.042378 1.9685e-005,-0.000374016 0.56174,-0.142358 0.566173,-0.216764 0.0053622,-0.0900591 0.0132953,-0.202642 0.0221417,-0.260965 0.00629921,-0.0415079 0.0167047,-0.163157 0.047937,-0.259232 0.0519921,-0.159906 0.12415,-0.359142 0.137122,-0.390976 0.0269213,-0.0660709 0.269646,-0.116854 0.270311,-0.117138z"/>
   <path id="_352346800" class="fil1" d="M5.3665 3.37077c0.235732,0.1255 0.504012,0.272205 0.534083,0.460409 0.0113504,0.0710709 -0.0754646,0.115327 -0.228315,0.139748 -0.760665,0.080748 -1.53445,0.0551496 -2.29807,0.0387205 -0.0933504,-0.00200394 -0.15922,-0.0034252 -0.197138,-0.0034252 -0.205453,0 -0.392169,-0.087315 -0.527461,-0.22798 -0.13478,-0.140126 -0.218441,-0.333217 -0.218441,-0.545413l0 -3.93701e-006c0,-0.143248 0.0549449,-0.273953 0.144039,-0.370492 0.0669567,-0.0725591 0.153291,-0.125843 0.250248,-0.150776 -0.0945906,0.327539 1.88506,0.114126 2.54105,0.659213z"/>
   <g style="clip-path:url(#id0)">
    <g>
     <g>
      <path id="_2138683041" class="fil2" d="M2.9861 3.97838c0.379201,0.0171024 0.449551,-0.432362 0.425283,-0.722039 -0.00389764,-0.0465315 -0.0225709,-0.0842126 -0.030622,-0.123803 0.0275354,0.00363386 0.0603386,0.101071 0.0642283,0.120244 0.0711024,0.350484 -0.0312244,0.826323 -0.461228,0.825575l0.00233858 -0.0999764z"/>
      <path id="_213868520" class="fil2" d="M3.48263 4.00963c0.379201,0.0171024 0.449551,-0.432362 0.425283,-0.722039 -0.00389764,-0.0465315 -0.0225709,-0.0842126 -0.030622,-0.123803 0.0275354,0.00363386 0.0603386,0.101071 0.0642283,0.120244 0.0711024,0.350484 -0.0312244,0.826323 -0.461228,0.825575l0.00233858 -0.0999764z"/>
      <path id="_213868424" class="fil2" d="M4.00481 4.00079c0.338445,0.0152638 0.401236,-0.385894 0.379575,-0.644437 -0.00347638,-0.0415276 -0.0201457,-0.0751614 -0.0273307,-0.110496 0.0245748,0.00324409 0.0538543,0.0902087 0.0573268,0.107319 0.0634606,0.312819 -0.0278701,0.737516 -0.411657,0.736846l0.00208661 -0.0892323z"/>
      <path id="_213867608" class="fil2" d="M4.46315 4.02857c0.338445,0.0152638 0.401236,-0.385894 0.379575,-0.644437 -0.00347638,-0.0415276 -0.0201457,-0.0751614 -0.0273307,-0.110496 0.0245748,0.00324409 0.0538543,0.0902087 0.0573268,0.107319 0.0634606,0.312819 -0.0278701,0.737516 -0.411657,0.736846l0.00208661 -0.0892323z"/>
      <path id="_213867440" class="fil2" d="M4.86245 4.01468c0.338445,0.0152638 0.401236,-0.385894 0.379575,-0.644437 -0.00347638,-0.0415276 -0.0201457,-0.0751614 -0.0273307,-0.110496 0.0245748,0.00324409 0.0538543,0.0902087 0.0573268,0.107319 0.0634606,0.312819 -0.0278701,0.737516 -0.411657,0.736846l0.00208661 -0.0892323z"/>
      <path id="_213867920" class="fil2" d="M5.2058 4.00226c0.272866,0.0123071 0.323488,-0.311118 0.306024,-0.519563 -0.00280315,-0.0334843 -0.0162402,-0.0605984 -0.0220354,-0.0890866 0.019815,0.00261417 0.0434213,0.0727283 0.0462205,0.0865236 0.0511614,0.252201 -0.0224685,0.594606 -0.33189,0.594067l0.0016811 -0.0719409z"/>
      <path id="_213867512" class="fil2" d="M5.50414 3.98358c0.229154,0.0103346 0.271665,-0.26128 0.257,-0.436335 -0.00235433,-0.0281181 -0.0136378,-0.0508898 -0.0185039,-0.074815 0.0166378,0.00219685 0.0364606,0.0610787 0.038811,0.0726654 0.0429685,0.211799 -0.0188661,0.499354 -0.27872,0.498902l0.00141339 -0.0604173z"/>
     </g>
    </g>
   </g>
   <path class="fil3" d="M5.3665 3.37077c0.235732,0.1255 0.504012,0.272205 0.534083,0.460409 0.0113504,0.0710709 -0.0754646,0.115327 -0.228315,0.139748 -0.760665,0.080748 -1.53445,0.0551496 -2.29807,0.0387205 -0.0933504,-0.00200394 -0.15922,-0.0034252 -0.197138,-0.0034252 -0.205453,0 -0.392169,-0.087315 -0.527461,-0.22798 -0.13478,-0.140126 -0.218441,-0.333217 -0.218441,-0.545413l0 -3.93701e-006c0,-0.143248 0.0549449,-0.273953 0.144039,-0.370492 0.0669567,-0.0725591 0.153291,-0.125843 0.250248,-0.150776 -0.0945906,0.327539 1.88506,0.114126 2.54105,0.659213z"/>
   <path id="_352346536" class="fil4" d="M1.20795 2.67656c0.0149567,0.0251969 0.00665354,0.057752 -0.0185433,0.0727087 -0.0251969,0.0149567 -0.057752,0.00665354 -0.0727087,-0.0185433 -0.310909,-0.522343 -0.387878,-0.808134 -0.248543,-0.960713 0.151319,-0.165701 1.23689,0.172276 2.08049,0.1 -0.763319,0.183783 -1.82389,-0.24524 -2.01563,-0.0352756 -0.101665,0.111327 -0.00769291,0.366992 0.274937,0.841823z"/>
   <path id="_352346776" class="fil0" d="M4.19696 3.94666c-0.0289921,0.00471654 -0.214539,-0.162657 -0.219256,-0.19165 -0.00471654,-0.0289921 0.0149646,-0.0563268 0.0439567,-0.0610433 0.00344488,-0.000562992 1.37257,-0.181205 1.4553,-0.0673071 0.106665,0.106665 -0.617748,1.10692 -0.542264,1.38606 0.00674016,0.0249173 0.0264291,0.0249921 0.0503031,0.0250709 0.015874,5.11811e-005 0.0325945,0.000110236 0.0490945,0.00203543 0.0840512,0.00979528 0.174795,0.0432165 0.175055,0.043311 0.0276142,0.0100079 0.0418819,0.0405118 0.031874,0.068126 -0.0100079,0.0276142 -0.0405118,0.0418819 -0.068126,0.031874 -0.000228346,-8.26772e-005 -0.0790315,-0.0291024 -0.15089,-0.0374764 -0.013185,-0.00153543 -0.0254055,-0.00157874 -0.0370079,-0.00161811 -0.0686535,-0.000232283 -0.125252,-0.000433071 -0.153217,-0.103827 -0.0295354,-0.10922 0.143866,-0.463276 0.240083,-0.793748 0.0834961,-0.28676 0.108039,-0.455953 0.0929094,-0.476783 -0.0434764,-0.0598583 -0.964559,0.176441 -0.967815,0.176976z"/>
   <path id="_352345744" class="fil0" d="M3.76456 3.59791c0.0257717,-0.0141496 0.0581417,-0.00473228 0.0722913,0.0210394 0.0141496,0.0257717 0.00473228,0.0581417 -0.0210394,0.0722913 -0.000555118,0.000307087 -0.195386,0.107524 -0.209378,0.152098 -0.0126929,0.0404291 -0.0787677,0.278209 -0.130354,0.484114 -0.0302835,0.12089 -0.055374,0.229803 -0.0610551,0.278409 -0.00956693,0.0818504 -0.0180118,0.245878 -0.023252,0.364626 -0.00351181,0.0796732 0.352043,0.170228 0.352028,0.17065 -0.0010315,0.0293386 -0.0256614,0.0522835 -0.055,0.051252 -0.0363386,-0.00127559 -0.406713,-0.157169 -0.405787,-0.200984 0.00730709,-0.345665 0.0105039,-1.00669 0.0681063,-1.19015 0.0269134,-0.0857402 0.412776,-0.202976 0.413441,-0.203343z"/>
   <path id="_352345600" class="fil5" d="M2.58365 2.64784c0.0741496,0.0958307 0.120012,0.417937 0.120012,0.561626 0,0.143693 -0.0458622,0.274823 -0.120012,0.370657 -0.0798228,0.103181 -0.192476,0.167004 -0.319004,0.167004 -0.126528,0 -0.239177,-0.0638228 -0.319012,-0.167 -0.0741496,-0.0958386 -0.120012,-0.226969 -0.120012,-0.370661 0,-0.143689 0.045874,-0.465799 0.120012,-0.561626 0.181291,-0.0360866 0.47526,-0.0554213 0.638016,0z"/>
   <path id="_352345504" class="fil6" d="M2.70862 2.58738c0.144394,0 0.272972,0.0797559 0.364071,0.208689 0.0846299,0.11976 0.136969,0.283626 0.136969,0.463189 0,0.179563 -0.0523386,0.343429 -0.136969,0.463185 -0.0910984,0.128941 -0.219669,0.208697 -0.364071,0.208697 -0.144409,0 -0.272972,-0.0797559 -0.364087,-0.208689 -0.084626,-0.119764 -0.136969,-0.28363 -0.136969,-0.463193 0,-0.179563 0.0523543,-0.343437 0.136969,-0.463189 0.0911142,-0.128933 0.219677,-0.208689 0.364087,-0.208689z"/>
   <path id="_352345384" class="fil7" d="M2.86248 2.60365c0.0689724,-0.0367835 0.216256,-0.0521024 0.418252,-0.0622953 0.358366,-0.0180906 3.33029,-0.448504 3.29683,-0.166965 -0.063063,0.530496 -0.408224,1.01031 -1.59681,1.08736 -0.108638,-0.00836614 -2.01419,-0.284606 -2.0759,-0.339898 -0.0550315,-0.049315 -0.24372,-0.410819 -0.042374,-0.518205z"/>
   <path id="_352346080" class="fil6" d="M1.035 3.45656c-0.0892874,-0.195602 -0.0752992,-0.401764 -0.00295276,-0.635043 0.000948819,-0.00306693 0.00209055,-0.00656693 0.0033622,-0.010374 0.038874,-0.115969 0.118831,-0.206161 0.217378,-0.258567 0.0990472,-0.0526732 0.216949,-0.0673307 0.331098,-0.0319331 0.00277559,0.000858268 0.00598425,0.00190157 0.00955118,0.00309449 0.166811,0.0559173 0.296315,0.177402 0.370559,0.328063 0.0740039,0.150173 0.0932283,0.329528 0.039811,0.501787l-0.101634 0.327717c-0.0046811,0.0150906 -0.0102835,0.0350748 -0.0161969,0.0561654 -0.0175591,0.0626535 -0.0378937,0.135173 -0.0670472,0.189488 -0.0415827,0.0774803 -0.0977402,0.120122 -0.179492,0.0762441 -0.329567,-0.176878 -0.516598,-0.354213 -0.604437,-0.546642z"/>
   <path id="_352345696" class="fil0" d="M2.894 3.59791c0.0257717,-0.0141496 0.0581417,-0.00473228 0.0722913,0.0210394 0.0141496,0.0257717 0.00473228,0.0581417 -0.0210394,0.0722913 -0.000555118,0.000307087 -0.157925,0.210854 -0.171921,0.255425 -0.0327874,0.104433 -0.223815,0.61598 -0.228866,0.659197 -0.00781496,0.0668465 -0.0148819,0.188492 -0.0200591,0.295524 -0.00541732,0.111972 -0.567819,0.315598 -0.567839,0.316138 -0.0010315,0.0293386 -0.0256614,0.0522835 -0.055,0.051252 -0.0293386,-0.0010315 -0.0522835,-0.0256614 -0.051252,-0.055 1.9685e-005,-0.000484252 0.56174,-0.184752 0.566173,-0.281319 0.0053622,-0.116878 0.0132953,-0.262988 0.0221417,-0.338681 0.00629921,-0.0538701 0.0167047,-0.211744 0.047937,-0.336433 0.0519921,-0.207528 0.12415,-0.466094 0.137122,-0.507413 0.0269213,-0.0857441 0.269646,-0.151654 0.270311,-0.15202z"/>
   <path id="_352345576" class="fil8" d="M1.47334 3.90843c0.101835,-0.276335 0.0278504,-0.232409 -0.173941,-0.384016l0.00307087 0.0018937c-0.0355512,-0.0221496 -0.032878,-0.0839173 -0.0250472,-0.118575 0.00451181,0.0660197 -0.0127598,0.0821181 0.104264,0.132161 0.20513,0.0877205 0.257374,0.165709 0.185071,0.422697l-0.0934173 -0.0541614z"/>
   <ellipse id="_352345432" class="fil9" transform="matrix(0.74183 -0.227653 0.227653 0.74183 1.28175 3.02796)" rx="0.211807" ry="0.366319"/>
   <ellipse id="_352344736" class="fil10" transform="matrix(0.595317 -0.182691 0.182691 0.595317 1.24661 2.97345)" rx="0.211807" ry="0.366319"/>
   <ellipse id="_352345264" class="fil11" transform="matrix(0.15376 -0.0471859 0.0471859 0.15376 1.15807 2.93761)" rx="0.211807" ry="0.366319"/>
   <g>
    <path id="_352345000" class="fil12" d="M2.86414 3.03523c0.218803,-0.1035 0.387717,-0.193606 0.816012,-0.276402 0.35063,-0.0677835 0.368472,-0.0548189 0.718996,-0.0534134 0.377047,0.00150787 0.233063,-0.0341457 0.548024,-0.100079 0.0624921,-0.0130827 0.36172,0.0111299 0.468661,0.00696457 0.24848,-0.00967717 0.538587,-0.0616181 0.73739,-0.224965 -0.0214094,0.0343386 -0.0132677,0.0271969 -0.0503898,0.0550748 -0.276835,0.207902 -0.68076,0.250787 -1.01581,0.224654 -0.214193,-0.0167047 -0.164327,0.0344803 -0.376307,0.089689 -0.237839,0.061937 -0.573315,-0.00277165 -0.886728,0.0632874 -0.582606,0.122803 -0.61765,0.15652 -0.92337,0.308299l-0.0364803 -0.0931102z"/>
    <path id="_352345144" class="fil12" d="M3.69441 2.8183c0.308012,0.165146 0.269571,0.308902 0.680626,0.379165l0.0663701 0.0127953c-0.123146,0.0264646 -0.185634,0.0176969 -0.310075,-0.0193701 -0.129217,-0.0384882 -0.439657,-0.252957 -0.533213,-0.345614l0.0962913 -0.0269764z"/>
    <path id="_352344760" class="fil12" d="M3.9218 2.98385c0.166791,0.00426378 0.326362,-0.0379094 0.441173,-0.0317953l0.165236 0.0325118c-0.241264,0.0280197 -0.385913,0.0852756 -0.622756,0.097937l0.0163465 -0.0986535z"/>
    <path id="_352344520" class="fil12" d="M4.58558 2.72126c0.218461,0.171236 0.433776,0.311484 0.654972,0.491268 0.047689,0.0387638 0.0461181,0.0371457 0.100165,0.0775945 -0.122693,-0.0239606 -0.756071,-0.448705 -0.828201,-0.500587l0.073063 -0.0682756z"/>
    <path id="_352343848" class="fil12" d="M4.99337 3.03553c0.119071,0.0538622 0.384339,0.0162677 0.520425,0.0407008l0.170677 0.0489606c-0.162366,0.00065748 -0.566224,0.0262913 -0.690854,-0.0197126l-0.000248031 -0.0699488z"/>
    <path id="_352344184" class="fil12" d="M4.99249 2.629l-0.000165354 1.9685e-005 1.9685e-005 2.75591e-005 0.000145669 -4.72441e-005zm-0.000145669 4.72441e-005c0.0542913,0.0963976 0.645161,0.231791 0.754713,0.238055 0.104169,0.00595669 0.264831,-0.0192677 0.336717,-0.000602362 -0.0422244,0.0307795 -0.302441,0.0530276 -0.337118,0.0538386 -0.14002,0.00327953 -0.777913,-0.100402 -0.849386,-0.260787l0.0950748 -0.0305039z"/>
    <path id="_352344304" class="fil12" d="M5.49489 2.82954c0.271157,-0.0829331 0.116906,-0.068122 0.365787,-0.175091 0.139583,-0.0599921 0.328839,-0.121394 0.48011,-0.052378 0.00843701,0.00384646 0.0196693,0.0107953 0.0175157,0.0212835l-0.000440945 0.000188976c-0.00411024,-0.00111024 -0.00658268,-0.00250394 -0.0103661,-0.00350394 -0.140189,-0.0370315 -0.327114,0.0355709 -0.447961,0.0985984 -0.246169,0.12839 -0.109339,0.0555591 -0.365764,0.15011l-0.0388819 -0.0392087z"/>
    <path id="_352344112" class="fil12" d="M6.00706 2.62235c0.0926811,0.0816575 0.26963,0.136957 0.392669,0.122594l4.72441e-005 6.29921e-005c-0.0703504,0.106205 -0.359323,0.0226575 -0.454559,-0.0440748l0.0618425 -0.0785827z"/>
   </g>
  </g>
  <rect class="fil13" width="6.82666" height="6.82666"/>
 </g>
</svg>
