<?xml version="1.0" encoding="UTF-8"?>
<!DOCTYPE svg PUBLIC "-//W3C//DTD SVG 1.1//EN" "http://www.w3.org/Graphics/SVG/1.1/DTD/svg11.dtd">
<!-- Creator: CorelDRAW -->
<svg xmlns="http://www.w3.org/2000/svg" xml:space="preserve" width="2048px" height="2048px" style="shape-rendering:geometricPrecision; text-rendering:geometricPrecision; image-rendering:optimizeQuality; fill-rule:evenodd; clip-rule:evenodd"
viewBox="0 0 2048 2048"
 xmlns:xlink="http://www.w3.org/1999/xlink">
 <defs>
  <style type="text/css">
   <![CDATA[
    .fil10 {fill:none}
    .fil9 {fill:#9C0000;fill-rule:nonzero}
    .fil3 {fill:#B30606;fill-rule:nonzero}
    .fil1 {fill:#C30303;fill-rule:nonzero}
    .fil7 {fill:#C91C1C;fill-rule:nonzero}
    .fil8 {fill:#D50000;fill-rule:nonzero}
    .fil2 {fill:#D58E26;fill-rule:nonzero}
    .fil5 {fill:#D91919;fill-rule:nonzero}
    .fil0 {fill:#E99A26;fill-rule:nonzero}
    .fil6 {fill:#EBA43B;fill-rule:nonzero}
    .fil4 {fill:#FFAF3B;fill-rule:nonzero}
   ]]>
  </style>
 </defs>
 <g id="Layer_x0020_1">
  <metadata id="CorelCorpID_0Corel-Layer"/>
  <g id="_356972680">
   <g>
    <g>
     <path id="_35087128" class="fil0" d="M1548.81 1568l-105.177 0c-16.2685,0 -33.9827,-5.32559 -49.1233,-14.0398 -15.2976,-8.80631 -28.5933,-21.4441 -36.0638,-36.0898l0.0992127 -0.0507874c-28.213,-55.1032 -52.6914,-116.612 -68.3339,-179.612 -13.8957,-55.963 -20.9221,-113.333 -17.6138,-168.855 5.78504,-96.1229 43.7351,-155.367 78.9768,-210.384 32.2996,-50.4248 61.93,-96.6839 52.2154,-166.661 -3.30236,-23.8205 -8.17205,-51.4004 -13.0902,-79.2627 -24.2776,-137.543 -49.6902,-281.494 61.5957,-321.594 16.1126,-5.78741 29.6599,-8.6882 43.9252,-8.69056 14.2606,-0.00236221 27.8126,2.89016 43.9347,8.69056 111.207,40.0677 85.8709,183.796 61.643,321.236 -4.92993,27.9685 -9.81142,55.6607 -13.1185,79.6205 -9.71457,69.9792 19.9099,116.238 52.2048,166.663 35.2347,55.017 73.1776,114.261 78.9638,210.382 3.48189,58.0725 -4.57796,115.788 -17.5949,168.163 -19.1197,76.9347 -49.1162,142.689 -68.4532,180.354 -7.52953,14.7177 -20.7579,27.3591 -35.9362,36.1063 -15.1028,8.70473 -32.7721,14.0232 -49.0536,14.0232z"/>
     <path id="_35087488" class="fil1" d="M1405.18 831.702c0.914174,-12.3307 0.549213,-25.3855 -1.39488,-39.3933 -1.08662,-7.83662 -2.34213,-16.0795 -3.71339,-24.6059l192.304 0c-1.36654,8.52048 -2.61732,16.7634 -3.7004,24.6059 -1.9441,14.0079 -2.30906,27.0626 -1.39606,39.3933l-182.099 0z"/>
     <path id="_35087608" class="fil1" d="M1394.73 735.999c-1.31929,-7.58032 -2.67402,-15.2551 -4.03229,-22.9524 -2.41063,-13.6547 -4.82953,-27.3732 -7.12678,-41.0469l225.284 0c-2.27599,13.5532 -4.67244,27.1524 -7.05827,40.689 -1.37835,7.81654 -2.75197,15.6118 -4.08898,23.3103l-202.977 0z"/>
    </g>
    <g>
     <path id="_35087776" class="fil2" d="M1548.81 1568l-52.0807 0 0 -1185.24c14.074,0.0661418 27.4949,2.9563 43.4256,8.6882 111.207,40.0677 85.8709,183.796 61.643,321.236 -4.92993,27.9685 -9.81142,55.6607 -13.1185,79.6205 -9.71457,69.9792 19.9099,116.238 52.2048,166.663 35.2347,55.017 73.1776,114.261 78.9638,210.382 3.48189,58.0725 -4.57796,115.788 -17.5949,168.163 -19.1197,76.9347 -49.1162,142.689 -68.4532,180.354 -7.52953,14.7177 -20.7579,27.3591 -35.9362,36.1063 -15.1028,8.70473 -32.7721,14.0232 -49.0536,14.0232z"/>
     <path id="_35086936" class="fil3" d="M1496.73 767.703l95.6505 0c-1.36654,8.52048 -2.61732,16.7634 -3.7004,24.6059 -1.9441,14.0079 -2.30906,27.0626 -1.39606,39.3933l-90.554 0 0 -63.9993z"/>
     <path id="_35086456" class="fil3" d="M1496.73 671.999l112.127 0c-2.27599,13.5532 -4.67244,27.1524 -7.05827,40.689 -1.37835,7.81654 -2.75197,15.6118 -4.08898,23.3103l-100.98 0 0 -63.9993z"/>
    </g>
   </g>
   <g>
    <g>
     <path id="_35086312" class="fil0" d="M715.933 1568l-105.177 0c-16.2685,0 -33.9827,-5.32559 -49.1233,-14.0398 -15.2976,-8.80631 -28.5933,-21.4441 -36.0638,-36.0898l0.0992127 -0.0507874c-28.213,-55.1032 -52.6914,-116.612 -68.3339,-179.612 -13.8957,-55.963 -20.9221,-113.333 -17.6138,-168.855 5.78504,-96.1229 43.7351,-155.367 78.9768,-210.384 32.2996,-50.4248 61.93,-96.6839 52.2154,-166.661 -3.30236,-23.8205 -8.17205,-51.4004 -13.0902,-79.2627 -24.2776,-137.543 -49.6902,-281.494 61.5957,-321.594 16.1126,-5.78741 29.6599,-8.6882 43.9252,-8.69056 14.2606,-0.00236221 27.8126,2.89016 43.9347,8.69056 111.207,40.0677 85.8709,183.796 61.643,321.236 -4.92993,27.9685 -9.81142,55.6607 -13.1185,79.6205 -9.71457,69.9792 19.9099,116.238 52.2048,166.663 35.2347,55.017 73.1776,114.261 78.9638,210.382 3.48189,58.0725 -4.57796,115.788 -17.5949,168.163 -19.1197,76.9347 -49.1162,142.689 -68.4532,180.354 -7.52953,14.7177 -20.7579,27.3591 -35.9362,36.1063 -15.1028,8.70473 -32.7721,14.0232 -49.0536,14.0232z"/>
     <path id="_35086480" class="fil1" d="M572.307 831.702c0.914174,-12.3307 0.549213,-25.3855 -1.39488,-39.3933 -1.08662,-7.83662 -2.34213,-16.0795 -3.71339,-24.6059l192.304 0c-1.36654,8.52048 -2.61732,16.7634 -3.7004,24.6059 -1.9441,14.0079 -2.30906,27.0626 -1.39606,39.3933l-182.099 0z"/>
     <path id="_35086576" class="fil1" d="M561.854 735.999c-1.31929,-7.58032 -2.67402,-15.2551 -4.03229,-22.9524 -2.41063,-13.6547 -4.82953,-27.3732 -7.12678,-41.0469l225.284 0c-2.27599,13.5532 -4.67244,27.1524 -7.05827,40.689 -1.37835,7.81654 -2.75197,15.6118 -4.08898,23.3103l-202.977 0z"/>
    </g>
    <g>
     <path id="_356966464" class="fil2" d="M715.933 1568l-52.0807 0 0 -1185.24c14.074,0.0661418 27.4949,2.9563 43.4256,8.6882 111.207,40.0677 85.8709,183.796 61.643,321.236 -4.92993,27.9685 -9.81142,55.6607 -13.1185,79.6205 -9.71457,69.9792 19.9099,116.238 52.2048,166.663 35.2347,55.017 73.1776,114.261 78.9638,210.382 3.48189,58.0725 -4.57796,115.788 -17.5949,168.163 -19.1197,76.9347 -49.1162,142.689 -68.4532,180.354 -7.52953,14.7177 -20.7579,27.3591 -35.9362,36.1063 -15.1028,8.70473 -32.7721,14.0232 -49.0536,14.0232z"/>
     <path id="_356967064" class="fil3" d="M663.852 767.703l95.6505 0c-1.36654,8.52048 -2.61732,16.7634 -3.7004,24.6059 -1.9441,14.0079 -2.30906,27.0626 -1.39606,39.3933l-90.554 0 0 -63.9993z"/>
     <path id="_356966608" class="fil3" d="M663.852 671.999l112.127 0c-2.27599,13.5532 -4.67244,27.1524 -7.05827,40.689 -1.37835,7.81654 -2.75197,15.6118 -4.08898,23.3103l-100.98 0 0 -63.9993z"/>
    </g>
   </g>
   <g>
    <g>
     <path id="_356966992" class="fil4" d="M1159.09 1792l-136.303 0c-21.0839,0 -44.0398,-6.90237 -63.6615,-18.1949 -19.8248,-11.413 -37.0548,-27.7902 -46.7363,-46.7705l0.12874 -0.0661418c-36.5622,-71.4095 -68.2855,-151.121 -88.5568,-232.766 -18.0083,-72.5245 -27.1146,-146.873 -22.8272,-218.827 7.49764,-124.569 56.6788,-201.346 102.35,-272.645 41.8583,-65.3481 80.2571,-125.297 67.6678,-215.982 -4.27914,-30.8705 -10.5898,-66.6119 -16.9642,-102.719 -31.4622,-178.249 -64.3949,-364.799 79.8249,-416.768 20.8807,-7.50001 38.4378,-11.2595 56.9245,-11.263 18.4807,-0.00236221 36.0437,3.74528 56.9363,11.263 144.118,51.9248 111.285,238.188 79.8863,416.303 -6.38859,36.2457 -12.7146,72.1323 -17.0008,103.184 -12.5894,90.6887 25.8024,150.638 67.6548,215.986 45.6615,71.2985 94.8331,148.075 102.332,272.641 4.51181,75.2587 -5.93268,150.056 -22.8024,217.93 -24.7772,99.7028 -63.6508,184.917 -88.7115,233.729 -9.75709,19.0736 -26.9008,35.4555 -46.5709,46.7918 -19.5721,11.2807 -42.4701,18.1736 -63.5705,18.1736z"/>
     <path id="_356966704" class="fil5" d="M972.962 837.8c1.18465,-15.9791 0.711024,-32.8973 -1.80827,-51.0508 -1.40788,-10.1563 -3.03544,-20.8382 -4.81181,-31.8874l249.214 0c-1.77047,11.041 -3.39213,21.724 -4.79528,31.8874 -2.51929,18.1536 -2.99292,35.0717 -1.80945,51.0508l-235.989 0z"/>
     <path id="_356974120" class="fil5" d="M959.416 713.775c-1.71024,-9.82442 -3.46536,-19.7705 -5.22638,-29.7449 -3.12402,-17.6965 -6.25867,-35.4744 -9.23505,-53.1945l291.955 0c-2.9504,17.5642 -6.05552,35.1874 -9.14764,52.7304 -1.78583,10.1291 -3.56693,20.2323 -5.29961,30.2091l-263.046 0z"/>
    </g>
    <g>
     <path id="_356974168" class="fil6" d="M1159.09 1792l-67.493 0 0 -1536c18.2386,0.0850394 35.6315,3.8315 56.276,11.2595 144.118,51.9248 111.285,238.188 79.8863,416.303 -6.38859,36.2457 -12.7146,72.1323 -17.0008,103.184 -12.5894,90.6887 25.8024,150.638 67.6548,215.986 45.6615,71.2985 94.8331,148.075 102.332,272.641 4.51181,75.2587 -5.93268,150.056 -22.8024,217.93 -24.7772,99.7028 -63.6508,184.917 -88.7115,233.729 -9.75709,19.0736 -26.9008,35.4555 -46.5709,46.7918 -19.5721,11.2807 -42.4701,18.1736 -63.5705,18.1736z"/>
     <path id="_356973376" class="fil7" d="M1091.6 754.862l123.957 0c-1.77047,11.041 -3.39213,21.724 -4.79528,31.8874 -2.51929,18.1536 -2.99292,35.0717 -1.80945,51.0508l-117.352 0 0 -82.9383z"/>
     <path id="_356973592" class="fil7" d="M1091.6 630.836l145.31 0c-2.9504,17.5642 -6.05552,35.1874 -9.14764,52.7304 -1.78583,10.1291 -3.56693,20.2323 -5.29961,30.2091l-130.863 0 0 -82.9394z"/>
    </g>
   </g>
   <g>
    <path id="_356973832" class="fil8" d="M670.421 1105.85c94.7339,0 180.503,38.4024 242.587,100.486 62.0835,62.0835 100.486,147.854 100.486,242.588 0,94.7339 -38.4024,180.503 -100.486,242.587 -62.0835,62.0835 -147.854,100.486 -242.587,100.486 -94.7363,0 -180.507,-38.4 -242.593,-100.485 -62.0859,-62.0847 -100.487,-147.854 -100.487,-242.588 0,-94.7339 38.4012,-180.503 100.487,-242.589 62.0859,-62.0823 147.856,-100.485 242.593,-100.485z"/>
    <path id="_356973784" class="fil9" d="M803.355 1277.89c-9.0756,-11.3209 -22.7776,-19.2142 -38.9433,-20.9917 -15.9366,-1.75158 -31.0701,3.11575 -42.6414,12.3945 -11.5689,9.27993 -19.6087,22.9949 -21.3603,38.9315 -1.75158,15.9295 3.11811,31.063 12.398,42.6355 9.27993,11.5701 22.9902,19.6075 38.928,21.3591 15.9201,1.7504 31.0429,-3.12047 42.613,-12.4004l0.167717 0.206693c11.4532,-9.27402 19.4173,-23.0433 21.1854,-39.1288 1.75158,-15.9366 -3.11221,-31.0654 -12.3886,-42.6331l0.0413386 -0.373229z"/>
    <path id="_356973040" class="fil9" d="M710.526 1163.61c-6.2256,-7.76575 -15.6248,-13.1811 -26.7154,-14.4 -10.9323,-1.20118 -21.313,2.13662 -29.2512,8.50158 -7.93583,6.36615 -13.4516,15.7748 -14.6539,26.7071 -1.20118,10.9287 2.14016,21.3095 8.50512,29.2477 6.36615,7.9382 15.7725,13.4516 26.7047,14.6528 10.9217,1.20118 21.2953,-2.14016 29.2335,-8.50631l0.114567 0.141732c7.8567,-6.3626 13.3193,-15.8079 14.5323,-26.8418 1.20236,-10.9335 -2.13425,-21.3118 -8.49804,-29.2465l0.0283465 -0.256299z"/>
    <path id="_356972632" class="fil9" d="M883.583 1215.02c-5.51221,-6.8752 -13.8354,-11.6705 -23.6551,-12.7488 -9.67914,-1.06417 -18.8717,1.89213 -25.9004,7.52717 -7.02638,5.63741 -11.9091,13.9665 -12.9732,23.6469 -1.06417,9.67678 1.89331,18.8681 7.53071,25.8969 5.63622,7.02756 13.9642,11.9102 23.6445,12.9732 9.66969,1.06299 18.8551,-1.89449 25.8827,-7.5319l0.101575 0.126378c6.9567,-5.63386 11.7945,-13.9961 12.8681,-23.7673 1.06417,-9.67914 -1.88977,-18.8693 -7.52481,-25.8945l0.0259843 -0.227953z"/>
   </g>
  </g>
  <rect class="fil10" width="2048" height="2048"/>
 </g>
</svg>
