<?xml version="1.0" encoding="UTF-8"?>
<!DOCTYPE svg PUBLIC "-//W3C//DTD SVG 1.1//EN" "http://www.w3.org/Graphics/SVG/1.1/DTD/svg11.dtd">
<!-- Creator: CorelDRAW -->
<svg xmlns="http://www.w3.org/2000/svg" xml:space="preserve" width="2048px" height="2048px" style="shape-rendering:geometricPrecision; text-rendering:geometricPrecision; image-rendering:optimizeQuality; fill-rule:evenodd; clip-rule:evenodd"
viewBox="0 0 2048 2048"
 xmlns:xlink="http://www.w3.org/1999/xlink">
 <defs>
  <style type="text/css">
   <![CDATA[
    .fil8 {fill:none}
    .fil0 {fill:#212121;fill-rule:nonzero}
    .fil2 {fill:#424242;fill-rule:nonzero}
    .fil1 {fill:#4D4D4D;fill-rule:nonzero}
    .fil3 {fill:#E88000;fill-rule:nonzero}
    .fil7 {fill:#ED9D26;fill-rule:nonzero}
    .fil6 {fill:#EF6C00;fill-rule:nonzero}
    .fil4 {fill:#FB8C00;fill-rule:nonzero}
    .fil5 {fill:#FFA726;fill-rule:nonzero}
   ]]>
  </style>
 </defs>
 <g id="Layer_x0020_1">
  <metadata id="CorelCorpID_0Corel-Layer"/>
  <g id="_35091616">
   <polygon id="_35075824" class="fil0" points="477.281,264.082 1575.63,264.062 1380.15,476.611 663.136,476.631 "/>
   <polygon id="_35075608" class="fil1" points="503.177,292.334 1125.27,1004.42 1169.51,1054.81 1102.45,1054.81 878.932,1054.81 865.233,1054.81 856.116,1044.47 361.968,457.432 345.505,438.76 360.661,418.929 476.406,264.068 "/>
   <polygon id="_35076256" class="fil2" points="1546.4,291.721 1571.01,263.838 1593.34,293.622 1687.45,419.166 1702.27,438.948 1685.9,457.432 1192.25,1029.14 1165.3,1064.46 1013.95,883.398 "/>
   <path id="_35091736" class="fil3" d="M1145.68 1141.39l0 -25.7362 -243.377 0 0 25.741c-21.4358,8.33032 -41.8028,18.7973 -60.8445,31.1386l0 -87.3024 0 -30.4229 30.4217 0 304.221 0 30.4229 0 0 30.4229 0 87.2953c-19.0406,-12.3402 -39.4087,-22.8059 -60.8445,-31.1362z"/>
   <path id="_35091352" class="fil4" d="M1174.58 1304.16c-38.5311,-38.53 -91.7717,-62.3646 -150.585,-62.3646 -58.813,0 -112.054,23.8347 -150.584,62.3646 -38.5311,38.5311 -62.3646,91.7705 -62.3646,150.584 0,58.8119 23.8335,112.052 62.3646,150.585 38.5311,38.5311 91.7717,62.3634 150.584,62.3634 58.8119,0 112.052,-23.8323 150.585,-62.3634 38.5311,-38.5323 62.3634,-91.7729 62.3634,-150.585 0,-58.813 -23.8323,-112.052 -62.3634,-150.584z"/>
   <path id="_35091208" class="fil3" d="M1174.58 1304.16c-38.53,-38.5311 -91.7717,-62.3646 -150.585,-62.3646 -58.813,0 -112.054,23.8335 -150.585,62.3646 -38.5311,38.5323 -62.3634,91.7705 -62.3634,150.584 0,58.8119 23.8323,112.052 62.3634,150.585 21.3555,21.3543 47.2323,38.191 76.0666,48.9615 -25.9512,-9.73229 -49.2721,-24.3957 -68.6717,-42.7701 -36.6378,-34.7055 -59.3008,-82.6607 -59.3008,-135.634 0,-52.9725 22.663,-100.926 59.3008,-135.631 36.639,-34.7055 87.2646,-56.1733 143.19,-56.1733 55.9252,0 106.551,21.4677 143.19,56.1733 36.639,34.7044 59.3008,82.6583 59.3008,135.631 0,52.9737 -22.6618,100.929 -59.3008,135.634 -19.3996,18.3744 -42.7193,33.0402 -68.6717,42.7701 28.8355,-10.7705 54.7111,-27.6071 76.0666,-48.9615 38.5311,-38.5323 62.3634,-91.7729 62.3634,-150.585 0,-58.813 -23.8323,-112.051 -62.3634,-150.584z"/>
   <path id="_35091016" class="fil5" d="M1024 1109.65c95.2879,0 181.56,38.6292 244.014,101.082 62.4508,62.4508 101.08,148.723 101.08,244.011 0,95.2867 -38.6292,181.56 -101.08,244.014 -62.4532,62.4508 -148.727,101.08 -244.014,101.08 -95.2867,0 -181.559,-38.6292 -244.012,-101.08 -62.4508,-62.4532 -101.081,-148.727 -101.081,-244.014 0,-95.2879 38.6303,-181.56 101.081,-244.011 62.4532,-62.4532 148.725,-101.082 244.012,-101.082zm143.19 201.905c-36.639,-36.639 -87.2646,-59.302 -143.19,-59.302 -55.9252,0 -106.551,22.663 -143.19,59.302 -36.6378,36.639 -59.3008,87.2635 -59.3008,143.189 0,55.9241 22.663,106.55 59.3008,143.19 36.6402,36.639 87.2658,59.3008 143.19,59.3008 55.9241,0 106.55,-22.6618 143.19,-59.3008 36.639,-36.6402 59.3008,-87.2658 59.3008,-143.19 0,-55.9252 -22.6618,-106.55 -59.3008,-143.189z"/>
   <polygon id="_35091256" class="fil6" points="1047.9,1382.32 1056.31,1408.38 1083.75,1408.33 1161.49,1408.17 1098.5,1453.76 1076.3,1469.82 1084.82,1495.87 1108.97,1569.71 1046.18,1523.9 1024,1507.72 1001.82,1523.9 939.027,1569.71 963.176,1495.87 971.697,1469.82 949.503,1453.76 886.507,1408.17 964.254,1408.33 991.693,1408.38 1000.1,1382.32 1024,1308.28 "/>
   <path id="_35091280" class="fil7" d="M1024 1166.99c79.4599,0 151.401,32.2099 203.475,84.2835 52.0737,52.0737 84.2823,124.013 84.2823,203.473 0,79.4599 -32.2087,151.401 -84.2823,203.475 -52.0737,52.0737 -124.015,84.2823 -203.475,84.2823 -79.4599,0 -151.401,-32.2087 -203.475,-84.2823 -52.0737,-52.0737 -84.2823,-124.015 -84.2823,-203.475 0,-79.4599 32.2087,-151.4 84.2823,-203.473 52.0737,-52.0737 124.015,-84.2835 203.475,-84.2835zm190.032 97.7268c-48.6307,-48.6307 -115.819,-78.7123 -190.032,-78.7123 -74.2123,0 -141.401,30.0815 -190.031,78.7123 -48.6307,48.6307 -78.7111,115.818 -78.7111,190.03 0,74.2134 30.0803,141.401 78.7111,190.032 48.6307,48.6307 115.819,78.7099 190.031,78.7099 74.2134,0 141.402,-30.0792 190.032,-78.7099 48.6307,-48.6319 78.7099,-115.819 78.7099,-190.032 0,-74.2123 -30.0792,-141.399 -78.7099,-190.03z"/>
  </g>
  <rect class="fil8" width="2048" height="2048"/>
 </g>
</svg>
