<?xml version="1.0" encoding="UTF-8"?>
<!DOCTYPE svg PUBLIC "-//W3C//DTD SVG 1.1//EN" "http://www.w3.org/Graphics/SVG/1.1/DTD/svg11.dtd">
<!-- Creator: CorelDRAW -->
<svg xmlns="http://www.w3.org/2000/svg" xml:space="preserve" width="2048px" height="2048px" style="shape-rendering:geometricPrecision; text-rendering:geometricPrecision; image-rendering:optimizeQuality; fill-rule:evenodd; clip-rule:evenodd"
viewBox="0 0 2048 2048"
 xmlns:xlink="http://www.w3.org/1999/xlink">
 <defs>
  <style type="text/css">
   <![CDATA[
    .fil8 {fill:none}
    .fil5 {fill:#456B1A}
    .fil6 {fill:#424242;fill-rule:nonzero}
    .fil0 {fill:#8BC34A;fill-rule:nonzero}
    .fil4 {fill:#B7B8B8;fill-rule:nonzero}
    .fil2 {fill:#BEC0C0;fill-rule:nonzero}
    .fil3 {fill:#C6C9C9;fill-rule:nonzero}
    .fil1 {fill:#D0D2D2;fill-rule:nonzero}
    .fil7 {fill:#D50000;fill-rule:nonzero}
   ]]>
  </style>
 </defs>
 <g id="Layer_x0020_1">
  <metadata id="CorelCorpID_0Corel-Layer"/>
  <g id="_357815304">
   <path id="_357810720" class="fil0" d="M1024 1246.33c205.8,0 392.72,22.0736 528.556,57.7607 147.94,38.8677 239.445,97.8083 239.445,167.606 0,69.7949 -91.506,128.736 -239.447,167.602 -135.835,35.6859 -322.753,57.7607 -528.553,57.7607 -205.8,0 -392.718,-22.0748 -528.553,-57.7607 -147.941,-38.8666 -239.447,-97.8072 -239.447,-167.602 0,-69.7973 91.5048,-128.738 239.445,-167.606 135.835,-35.687 322.755,-57.7607 528.556,-57.7607z"/>
   <g>
    <g>
     <path id="_357810768" class="fil1" d="M987.818 1419.75l0.00354331 -0.00708662c10.4445,-23.0988 29.2855,-39.7878 51.3,-48.0945 21.9957,-8.29961 47.1839,-8.19922 70.3453,2.27126l0.00590552 0.00354331c23.1012,10.4433 39.7914,29.2843 48.1004,51.3012 8.30079,21.998 8.2004,47.1886 -2.27008,70.3512 -10.4445,23.1024 -29.2866,39.7949 -51.3048,48.1028 -21.9992,8.30079 -47.1898,8.19922 -70.3536,-2.27244 -23.1024,-10.4469 -39.7937,-29.289 -48.1004,-51.3059 -8.29961,-21.998 -8.19922,-47.1863 2.27362,-70.3501z"/>
     <g>
      <path id="_357810360" class="fil2" d="M1048.93 1439.37l0 -0.0011811c1.1315,-2.50276 3.17244,-4.31103 5.55709,-5.20985 2.38347,-0.900001 5.11181,-0.889371 7.62166,0.245669l0 0c2.50276,1.1315 4.31103,3.17244 5.21103,5.55827 0.89882,2.38229 0.88819,5.11181 -0.245669,7.62048 -1.1315,2.50276 -3.17244,4.31103 -5.55827,5.21103 -2.38347,0.900001 -5.11181,0.889371 -7.62166,-0.245669 -2.50276,-1.1315 -4.31103,-3.17244 -5.21103,-5.55827 -0.89882,-2.38229 -0.88819,-5.11181 0.246851,-7.62048z"/>
      <path id="_357810528" class="fil2" d="M1021.83 1410.98l0 0c1.1315,-2.50276 3.17362,-4.31103 5.55827,-5.21103 2.38229,-0.89882 5.11181,-0.88819 7.62048,0.246851l0.0011811 0c2.50158,1.1315 4.30985,3.17244 5.20985,5.55709 0.900001,2.38347 0.889371,5.113 -0.245669,7.62166 -1.1315,2.50276 -3.17244,4.31103 -5.55827,5.21103 -2.38229,0.900001 -5.11181,0.88819 -7.62166,-0.245669 -2.50276,-1.1315 -4.30985,-3.17362 -5.20985,-5.55827 -0.900001,-2.38347 -0.88819,-5.11181 0.245669,-7.62166z"/>
      <path id="_357810576" class="fil2" d="M1103.13 1496.15l0 -0.0011811c1.1315,-2.50276 3.17244,-4.30985 5.55827,-5.20985 2.38229,-0.900001 5.11063,-0.88819 7.62048,0.245669l0 0c2.50276,1.1315 4.31103,3.17244 5.21103,5.55827 0.900001,2.38229 0.88819,5.11181 -0.245669,7.62048 -1.1315,2.50276 -3.17244,4.31103 -5.55827,5.21103 -2.38347,0.900001 -5.11181,0.889371 -7.62166,-0.245669 -2.50276,-1.1315 -4.31103,-3.17244 -5.21103,-5.55827 -0.89882,-2.38229 -0.88819,-5.11181 0.246851,-7.62048z"/>
      <path id="_357810504" class="fil2" d="M1076.03 1467.76l0 -0.0011811c1.1315,-2.50276 3.17244,-4.30985 5.55709,-5.20985 2.38347,-0.89882 5.11181,-0.88819 7.62048,0.245669l0.0011811 0c2.50276,1.1315 4.31103,3.17244 5.21103,5.55827 0.89882,2.38347 0.88819,5.11181 -0.245669,7.62166 -1.1315,2.50276 -3.17362,4.31103 -5.55827,5.21103 -2.38347,0.89882 -5.113,0.88819 -7.62166,-0.246851 -2.50276,-1.1315 -4.31103,-3.17244 -5.21103,-5.55827 -0.89882,-2.38229 -0.88819,-5.11181 0.246851,-7.62048z"/>
     </g>
     <path id="_357809568" class="fil2" d="M1037.13 1478.11l0 -0.0011811c1.1315,-2.50276 3.17244,-4.30985 5.55827,-5.20985 2.38229,-0.900001 5.11063,-0.88819 7.62048,0.245669l0 0c2.50276,1.1315 4.31103,3.17244 5.21103,5.55827 0.900001,2.38347 0.88819,5.11181 -0.245669,7.62166 -1.1315,2.50158 -3.17244,4.31103 -5.55827,5.21103 -2.38229,0.89882 -5.11181,0.88819 -7.62166,-0.246851 -2.50276,-1.1315 -4.31103,-3.17244 -5.21103,-5.55827 -0.89882,-2.38229 -0.88819,-5.11181 0.246851,-7.62048z"/>
     <path id="_357809808" class="fil2" d="M1093.13 1424.65l-0.0011811 0c-2.55236,1.01457 -4.45276,2.97047 -5.46142,5.31024 -1.00866,2.33977 -1.12441,5.06575 -0.10748,7.62402l0 0.0011811c1.01457,2.55236 2.96929,4.45276 5.31024,5.4626 2.33977,1.00866 5.06575,1.12441 7.6252,0.10748 2.55236,-1.01457 4.45276,-2.96929 5.4626,-5.31142 1.00866,-2.33858 1.12441,-5.06457 0.10748,-7.62402 -1.01457,-2.55236 -2.97047,-4.45394 -5.31142,-5.4626 -2.33858,-1.00866 -5.06457,-1.12441 -7.62402,-0.10748z"/>
     <path id="_357809952" class="fil2" d="M1010.03 1449.73l0.0011811 0c1.1315,-2.50276 3.17244,-4.31103 5.55709,-5.21103 2.38229,-0.89882 5.11181,-0.88819 7.62048,0.246851l0.0011811 0c2.50276,1.1315 4.30985,3.17244 5.21103,5.55827 0.89882,2.38229 0.88819,5.11181 -0.246851,7.62048 -1.1315,2.50276 -3.17244,4.31103 -5.55709,5.21103 -2.38347,0.900001 -5.113,0.88819 -7.62166,-0.245669 -2.50276,-1.1315 -4.31103,-3.17362 -5.21103,-5.55827 -0.900001,-2.38347 -0.88819,-5.11181 0.245669,-7.62166z"/>
     <path id="_357810072" class="fil2" d="M1066.03 1396.26l-0.0011811 0c-2.55118,1.01457 -4.45158,2.96929 -5.46142,5.31024 -1.00866,2.33858 -1.12441,5.06575 -0.10748,7.62402l0 0.0011811c1.01457,2.55236 2.97047,4.45276 5.31142,5.4626 2.33858,1.00866 5.06457,1.12441 7.62402,0.10748 2.55236,-1.01457 4.45394,-2.97047 5.4626,-5.31142 1.00866,-2.33858 1.12441,-5.06575 0.10748,-7.62402 -1.01457,-2.55355 -2.97047,-4.45394 -5.31142,-5.46378 -2.33858,-1.00748 -5.06457,-1.12323 -7.62402,-0.106299z"/>
     <path id="_357810048" class="fil2" d="M1064.23 1506.5l0 -0.0011811c1.1315,-2.50158 3.17244,-4.30985 5.55709,-5.20985 2.38347,-0.89882 5.11181,-0.88819 7.62166,0.245669l0 0.0011811c2.50276,1.13032 4.31103,3.17244 5.21103,5.55709 0.89882,2.38347 0.88819,5.11181 -0.245669,7.62166 -1.1315,2.50276 -3.17244,4.31103 -5.55827,5.21103 -2.38347,0.89882 -5.11181,0.88819 -7.62166,-0.246851 -2.50276,-1.1315 -4.31103,-3.17244 -5.21103,-5.55827 -0.89882,-2.38229 -0.88819,-5.11181 0.246851,-7.62048z"/>
     <path id="_357809688" class="fil2" d="M1120.23 1453.04l0 0.0011811c-2.55236,1.01457 -4.45276,2.96929 -5.4626,5.31024 -1.00866,2.33858 -1.12323,5.06457 -0.106299,7.62402l0 0c1.01457,2.55236 2.96929,4.45276 5.31024,5.4626 2.33858,1.00866 5.06575,1.12441 7.62402,0.10748 2.55355,-1.01457 4.45394,-2.96929 5.46378,-5.31024 1.00866,-2.33977 1.12323,-5.06575 0.106299,-7.6252 -1.01457,-2.55236 -2.96929,-4.45276 -5.31024,-5.4626 -2.33858,-1.00866 -5.06575,-1.12441 -7.6252,-0.10748z"/>
     <path id="_357809472" class="fil2" d="M1022.74 1511.03l0.0011811 0c1.1315,-2.50276 3.17244,-4.31103 5.55709,-5.21103 2.38229,-0.89882 5.11181,-0.88819 7.62048,0.246851l0.0011811 0c2.50276,1.1315 4.30985,3.17244 5.21103,5.55709 0.89882,2.38347 0.88819,5.113 -0.246851,7.62166 -1.1315,2.50276 -3.17244,4.31103 -5.55709,5.21103 -2.38347,0.900001 -5.113,0.88819 -7.62166,-0.245669 -2.50276,-1.1315 -4.31103,-3.17362 -5.21103,-5.55827 -0.900001,-2.38347 -0.88819,-5.11181 0.245669,-7.62166z"/>
     <path id="_357809640" class="fil2" d="M1126.67 1411.8l-0.0011811 0c-2.55236,1.01457 -4.45276,2.97047 -5.4626,5.31024 -1.00866,2.33858 -1.12323,5.06575 -0.106299,7.62402l0 0.0011811c1.01457,2.55236 2.96929,4.45276 5.31024,5.4626 2.33858,1.00866 5.06575,1.12441 7.6252,0.10748 2.55236,-1.01457 4.45276,-2.97047 5.4626,-5.31142 1.00866,-2.33858 1.12323,-5.06457 0.106299,-7.62402 -1.01457,-2.55236 -2.96929,-4.45394 -5.31024,-5.4626 -2.33858,-1.00866 -5.06575,-1.12441 -7.62402,-0.10748z"/>
     <path id="_357809448" class="fil2" d="M995.641 1482.64l0 -0.0011811c1.1315,-2.50158 3.17244,-4.30985 5.55709,-5.20985 2.38347,-0.89882 5.11181,-0.88819 7.62048,0.245669l0.0011811 0.0011811c2.50276,1.1315 4.31103,3.17244 5.21103,5.55709 0.89882,2.38347 0.88819,5.11181 -0.245669,7.62166 -1.1315,2.50276 -3.17362,4.31103 -5.55827,5.21103 -2.38347,0.89882 -5.11181,0.88819 -7.62166,-0.245669 -2.50276,-1.13268 -4.31103,-3.17362 -5.21103,-5.55827 -0.89882,-2.38347 -0.88819,-5.11181 0.246851,-7.62166z"/>
     <path id="_357809592" class="fil2" d="M1099.57 1383.41l-0.0011811 0c-2.55236,1.01457 -4.45276,2.96929 -5.46142,5.31024 -1.00866,2.33858 -1.12441,5.06457 -0.10748,7.62402l0 0.0011811c1.01457,2.55236 2.96929,4.45276 5.31024,5.4626 2.33977,1.00866 5.06575,1.12323 7.6252,0.10748 2.55236,-1.01457 4.45276,-2.97047 5.4626,-5.31142 1.00866,-2.33858 1.12441,-5.06575 0.10748,-7.6252 -1.01457,-2.55236 -2.97047,-4.45276 -5.31142,-5.4626 -2.33858,-1.00866 -5.06457,-1.12323 -7.62402,-0.106299z"/>
    </g>
    <g>
     <path id="_357809136" class="fil3" d="M987.818 1419.75l0.00354331 -0.00708662c5.23937,-11.589 12.5941,-21.5634 21.4016,-29.6764l126.976 132.998c-9.24331,9.12875 -20.2536,16.1055 -32.2004,20.6138 -21.9992,8.30079 -47.1898,8.19922 -70.3536,-2.27244 -23.1024,-10.4469 -39.7937,-29.289 -48.1004,-51.3059 -8.29961,-21.998 -8.19922,-47.1863 2.27362,-70.3501z"/>
     <g>
      <path id="_357809160" class="fil4" d="M1048.93 1439.37l0 0c0.778347,-1.72205 1.98662,-3.11457 3.44292,-4.10906l13.5768 14.2205c-1.15158,1.52835 -2.70236,2.66103 -4.43386,3.31536 -2.38347,0.89882 -5.11181,0.887009 -7.62166,-0.246851 -2.50276,-1.1315 -4.31103,-3.17362 -5.21103,-5.55827 -0.89882,-2.38347 -0.88819,-5.11181 0.246851,-7.62166z"/>
      <path id="_357808632" class="fil4" d="M1021.83 1410.98l0 0c0.779528,-1.72205 1.9878,-3.11457 3.44292,-4.10906l13.578 14.2205c-1.15276,1.52835 -2.70236,2.66103 -4.43504,3.31418 -2.38229,0.900001 -5.11181,0.88819 -7.62166,-0.245669 -2.50158,-1.1315 -4.30985,-3.17362 -5.20985,-5.55827 -0.900001,-2.38347 -0.889371,-5.11181 0.245669,-7.62166z"/>
      <path id="_357808920" class="fil4" d="M1103.13 1496.15l0 0c0.778347,-1.72087 1.9878,-3.11457 3.44292,-4.10906l13.5768 14.2205c-1.15276,1.52835 -2.70236,2.66103 -4.43386,3.31536 -2.38347,0.89882 -5.11181,0.887009 -7.62166,-0.246851 -2.50276,-1.1315 -4.31103,-3.17244 -5.21103,-5.55827 -0.89882,-2.38229 -0.88819,-5.11181 0.246851,-7.62166z"/>
      <path id="_357807984" class="fil4" d="M1076.03 1467.76l0 0c0.778347,-1.72087 1.98662,-3.11457 3.44292,-4.10906l13.5768 14.2217c-1.15276,1.52835 -2.70236,2.65984 -4.43386,3.31418 -2.38347,0.89882 -5.11181,0.887009 -7.62166,-0.246851 -2.50276,-1.1315 -4.31103,-3.17244 -5.21103,-5.55709 -0.89882,-2.38347 -0.88819,-5.11181 0.246851,-7.62284z"/>
     </g>
     <path id="_357808320" class="fil4" d="M1037.13 1478.11l0 0c1.1315,-2.50276 3.17244,-4.30985 5.55827,-5.20985 2.38347,-0.900001 5.11063,-0.889371 7.62048,0.245669l0.0011811 0.0011811c2.50276,1.13032 4.30985,3.17126 5.21103,5.55709 0.89882,2.38347 0.887009,5.11181 -0.246851,7.62166 -1.1315,2.50276 -3.17244,4.31103 -5.55827,5.21103 -2.38347,0.89882 -5.11181,0.887009 -7.62166,-0.246851 -2.50276,-1.1315 -4.31103,-3.17244 -5.21103,-5.55827 -0.89882,-2.38347 -0.887009,-5.11181 0.246851,-7.62166z"/>
     <path id="_357808152" class="fil4" d="M1010.03 1449.73l0 0c1.1315,-2.50276 3.17244,-4.31103 5.55827,-5.21103 2.38347,-0.89882 5.11181,-0.88819 7.62048,0.246851l0.0011811 0c2.50276,1.1315 4.31103,3.17244 5.21103,5.55709 0.89882,2.38347 0.887009,5.113 -0.245669,7.62166 -1.13268,2.50394 -3.17362,4.31103 -5.55945,5.21221 -2.38229,0.897638 -5.11063,0.887009 -7.62166,-0.246851 -2.50158,-1.1315 -4.30985,-3.17362 -5.20985,-5.55827 -0.89882,-2.38347 -0.88819,-5.11181 0.245669,-7.62166z"/>
     <path id="_357808560" class="fil4" d="M1064.23 1506.5l0 0c1.1315,-2.50158 3.17244,-4.30985 5.55709,-5.20985 2.38347,-0.900001 5.11181,-0.88819 7.62166,0.245669l0 0.0011811c2.50276,1.13032 4.31103,3.17126 5.21103,5.55709 0.89882,2.38347 0.88819,5.113 -0.245669,7.62166 -1.1315,2.50276 -3.17244,4.30985 -5.55945,5.21103 -2.38229,0.89882 -5.11063,0.88819 -7.62048,-0.246851 -2.50276,-1.1315 -4.31103,-3.17244 -5.21103,-5.55827 -0.89882,-2.38347 -0.88819,-5.11181 0.246851,-7.62166z"/>
     <path id="_357808296" class="fil4" d="M1022.74 1511.03l0.0011811 -0.0011811c1.13032,-2.50158 3.17126,-4.30985 5.55709,-5.20985 2.38347,-0.89882 5.11181,-0.88819 7.62166,0.246851l0 0c2.50276,1.13032 4.30985,3.17126 5.21103,5.55709 0.89882,2.38347 0.887009,5.113 -0.245669,7.62166 -1.13268,2.50394 -3.17362,4.31103 -5.55827,5.21103 -2.38347,0.89882 -5.113,0.88819 -7.62284,-0.245669 -2.50158,-1.1315 -4.30985,-3.17362 -5.20985,-5.55827 -0.89882,-2.38347 -0.88819,-5.11181 0.245669,-7.62166z"/>
     <path id="_357815712" class="fil4" d="M995.641 1482.64l0 0c1.1315,-2.50158 3.17244,-4.30985 5.55709,-5.20985 2.38347,-0.89882 5.11181,-0.88819 7.62166,0.245669l0 0.0011811c2.50276,1.13032 4.31103,3.17126 5.21103,5.55709 0.89882,2.38347 0.88819,5.11181 -0.245669,7.62166 -1.1315,2.50276 -3.17244,4.31103 -5.55827,5.21103 -2.38347,0.89882 -5.11181,0.88819 -7.62166,-0.246851 -2.50276,-1.13032 -4.31103,-3.17244 -5.21103,-5.55709 -0.89882,-2.38347 -0.88819,-5.11181 0.246851,-7.62284z"/>
    </g>
   </g>
   <ellipse id="_357815832" class="fil5" cx="1341.25" cy="1490.63" rx="61.2497" ry="19.6878"/>
   <path id="_357815784" class="fil6" d="M1318.39 1470.94l0 -1105.22 0 -7.63701 51.215 -7.13859 0 7.63701 0 1112.36c0.0011811,32.0008 -51.2126,32.0008 -51.215,0z"/>
   <polygon id="_357814824" class="fil7" points="1084.01,487.176 1312.42,350.944 1369.61,350.944 1369.61,373.061 1369.61,599.683 1369.61,626.881 1319.05,626.881 1089.64,544.551 1026.06,521.738 "/>
  </g>
  <rect class="fil8" width="2048" height="2048"/>
 </g>
</svg>
