<?xml version="1.0" encoding="UTF-8"?>
<!DOCTYPE svg PUBLIC "-//W3C//DTD SVG 1.1//EN" "http://www.w3.org/Graphics/SVG/1.1/DTD/svg11.dtd">
<!-- Creator: CorelDRAW -->
<svg xmlns="http://www.w3.org/2000/svg" xml:space="preserve" width="2048px" height="2048px" style="shape-rendering:geometricPrecision; text-rendering:geometricPrecision; image-rendering:optimizeQuality; fill-rule:evenodd; clip-rule:evenodd"
viewBox="0 0 2048 2048"
 xmlns:xlink="http://www.w3.org/1999/xlink">
 <defs>
  <style type="text/css">
   <![CDATA[
    .fil0 {fill:none}
    .fil2 {fill:none;fill-rule:nonzero}
    .fil12 {fill:#AAB2B1}
    .fil9 {fill:#BDBDBD}
    .fil11 {fill:#CAD1D0}
    .fil8 {fill:#E0E0E0}
    .fil7 {fill:#E59B49}
    .fil6 {fill:#E9AE58}
    .fil4 {fill:#FBA94D}
    .fil3 {fill:#FFBE5E}
    .fil13 {fill:#A52120;fill-rule:nonzero}
    .fil10 {fill:#B71C1C;fill-rule:nonzero}
    .fil5 {fill:#E9BB77;fill-rule:nonzero}
    .fil1 {fill:#FFCC80;fill-rule:nonzero}
   ]]>
  </style>
 </defs>
 <g id="Layer_x0020_1">
  <metadata id="CorelCorpID_0Corel-Layer"/>
  <g id="_406681056">
   <rect id="_272084656" class="fil0" width="2048" height="2048"/>
   <g>
    <g>
     <path id="_272084752" class="fil1" d="M612.592 861.741c17.5772,-17.6516 26.8075,-40.402 27.6,-63.0367 0.77126,-22.0536 -6.47126,-43.9571 -21.8055,-60.7004l-346.363 -344.299c-14.7142,-14.7307 -14.7012,-38.6044 0.0295276,-53.3174l73.0394 -73.3607c14.7307,-14.7142 38.6044,-14.7012 53.3174,0.0295276l346.426 344.352c16.702,15.0402 38.4992,22.0807 60.4583,21.2268 22.7717,-0.885827 45.5906,-10.2284 63.202,-27.9189 14.7307,-14.7142 38.6044,-14.7012 53.3174,0.0295276 91.5426,91.1434 254.893,253.527 418.353,416.025 111.541,110.883 223.253,221.934 416.209,414.044 20.9303,20.8406 31.0925,48.5752 30.613,76.4587 -0.470079,27.411 -11.2973,55.0075 -32.3492,76.1575l-155.746 156.426 -0.00354331 0.00472441c-20.974,21.0638 -48.4406,31.9701 -75.7867,32.563 -27.9083,0.605906 -55.7622,-9.49135 -76.8131,-30.4465l-0.011811 -0.0129921c-142.199,-141.578 -280.107,-279.09 -417.955,-416.546 -137.245,-136.854 -274.44,-273.658 -415.76,-414.362 -14.713,-14.7307 -14.7012,-38.6044 0.0295276,-53.3174z"/>
     <line id="_272180792" class="fil2" x1="1685.97" y1="1481.11" x2="1685.96" y2= "1481.1" />
     <path id="_272180672" class="fil3" d="M1073.8 1064.27l-317.309 -444.128c-4.09489,-2.52638 -7.99725,-5.4378 -11.6551,-8.73072l-346.425 -344.353c-14.7154,-14.7307 -38.5866,-14.7425 -53.3197,-0.0295276l-73.0382 73.3619c-14.7307,14.713 -14.7437,38.5866 -0.0295276,53.3162l346.361 344.3c0.721654,0.787796 1.42441,1.58622 2.11063,2.39646l453.305 323.867z"/>
     <path id="_272180936" class="fil4" d="M741.414 608.007l-343.003 -340.951c-14.7154,-14.7307 -38.5866,-14.7425 -53.3197,-0.0295276l-73.0382 73.3619c-14.7307,14.713 -14.7437,38.5866 -0.0295276,53.3162l342.867 340.827 126.523 -126.525z"/>
    </g>
    <g>
     <path id="_272180504" class="fil5" d="M612.593 861.741c17.576,-17.6504 26.8063,-40.402 27.6,-63.0367 0.77126,-22.0547 -6.47245,-43.9571 -21.8091,-60.7004l-346.361 -344.3c-14.7142,-14.7295 -14.7012,-38.6032 0.0295276,-53.3162l38.85 -39.0213 1365.07 1365.07 -77.0823 77.419 -0.00472441 0.00472441c-20.9729,21.0626 -48.4394,31.9713 -75.7855,32.563 -27.9095,0.607087 -55.7622,-9.49016 -76.8131,-30.4465l-0.011811 -0.011811c-142.199,-141.579 -280.107,-279.091 -417.955,-416.548 -137.244,-136.853 -274.44,-273.658 -415.76,-414.361 -14.7142,-14.7307 -14.7,-38.6032 0.0307087,-53.3174z"/>
     <path id="_272180336" class="fil6" d="M1073.8 1064.27l-0.0106299 -0.0141732 -762.886 -762.886 -38.85 39.0213c-14.7307,14.713 -14.7437,38.5866 -0.0295276,53.3162l346.361 344.3c0.721654,0.787796 1.42441,1.58622 2.11063,2.39646l453.305 323.867z"/>
     <path id="_272182136" class="fil7" d="M310.903 301.367l-38.85 39.0213c-14.7307,14.713 -14.7437,38.5866 -0.0295276,53.3162l342.867 340.827 64.5886 -64.5886 -368.576 -368.576z"/>
    </g>
   </g>
   <g>
    <g>
     <circle id="_272181992" class="fil8" transform="matrix(1.04794 -0.545092 -0.545092 -1.04794 1100.04 1568.77)" r="188.93"/>
     <path id="_272181392" class="fil9" d="M1113.42 1345.97c-39.0166,-2.3811 -79.1611,5.45315 -116.365,24.8043 -37.2036,19.3512 -66.665,47.7237 -87.1158,81.0367 42.3225,65.1556 112.885,95.732 164.971,68.6398 52.0843,-27.0921 67.5615,-102.422 38.5099,-174.481z"/>
     <path id="_272181656" class="fil10" d="M906.597 1457.43c1.2189,1.87914 0.868111,1.30866 2.13071,3.12874 21.5032,30.9815 49.35,53.7851 78.3319,65.843 30.861,12.8398 63.0686,13.6004 90.58,-0.708662 27.5114,-14.3102 45.378,-41.1166 52.5839,-73.7575 6.78189,-30.7299 4.06654,-66.7252 -9.03898,-102.203 -0.737008,-1.99134 -0.438189,-1.28858 -1.23898,-3.27756l-12.8173 -0.778347c0.108662,0.269292 1.05827,3.04843 1.16575,3.31418 13.8839,34.8567 17.0374,70.3926 10.4138,100.404 -6.46063,29.2736 -22.2756,53.2052 -46.5201,65.817 -24.2445,12.6106 -52.9193,11.8205 -80.5973,0.303544 -27.5634,-11.4697 -54.1004,-33.4866 -74.4497,-63.502 -0.759449,-1.11969 -3.15945,-4.26024 -3.90237,-5.40355l-6.64134 10.8201z"/>
     <path id="_272181368" class="fil9" d="M1203.03 1766.75c37.2036,-19.3512 66.665,-47.7237 87.1158,-81.0367 -42.3225,-65.1567 -112.886,-95.7331 -164.971,-68.641 -52.0855,27.0921 -67.5615,102.422 -38.5099,174.482 39.0166,2.3811 79.1611,-5.45197 116.365,-24.8043z"/>
     <path id="_272181224" class="fil10" d="M1080.22 1791.23c-0.838583,-2.07756 -0.572835,-1.46221 -1.33819,-3.54095 -13.0217,-35.3929 -15.7063,-71.2855 -8.93977,-101.937 7.20355,-32.6398 25.0725,-59.4485 52.5827,-73.7587 27.5114,-14.3091 59.7178,-13.5496 90.58,-0.708662 29.0551,12.0886 56.9682,34.9772 78.4926,66.0756 1.20709,1.74685 0.804331,1.09843 1.97244,2.89725l-6.72166 10.9406c-0.158268,-0.243307 -1.8874,-2.61614 -2.04449,-2.85709 -20.5689,-31.3796 -47.8548,-54.3626 -76.2296,-66.1701 -27.678,-11.5158 -56.3528,-12.3071 -80.5973,0.303544 -24.2445,12.6118 -40.0595,36.5433 -46.5201,65.817 -6.43465,29.1532 -3.64134,63.5221 9.25158,97.4162 0.480709,1.26378 1.67362,5.03268 2.18386,6.29646l-12.6721 -0.773623z"/>
    </g>
    <g>
     <path id="_272181104" class="fil11" d="M1203.03 1766.75l0.00236221 -0.0011811 -205.969 -395.977 -0.00236221 0.0011811c-109.347,56.8772 -151.88,191.627 -95.0044,300.973 56.8772,109.345 191.627,151.88 300.973,95.0032z"/>
     <path id="_272181248" class="fil12" d="M997.061 1370.78l-0.00236221 0.0011811c-37.2036,19.3512 -66.665,47.7237 -87.1158,81.0367 42.3225,65.1556 112.885,95.732 164.971,68.6398l0.00236221 -0.0011811 -77.8548 -149.676z"/>
     <path id="_406681440" class="fil13" d="M906.597 1457.43c1.2189,1.87914 0.868111,1.30866 2.13071,3.12874 21.5032,30.9815 49.35,53.7851 78.3319,65.843 30.861,12.8398 63.0686,13.6004 90.58,-0.708662l0.00236221 -0.0011811 -5.45197 -10.4811 -0.00236221 0.0011811c-24.2445,12.6106 -52.9193,11.8205 -80.5973,0.303544 -27.5634,-11.4697 -54.1004,-33.4866 -74.4497,-63.502 -0.759449,-1.11969 -3.15945,-4.26024 -3.90237,-5.40355l-6.64134 10.8201z"/>
     <path id="_406681176" class="fil12" d="M1203.03 1766.75l0.00236221 -0.0011811 -77.8548 -149.678 -0.00236221 0.0011811c-52.0855,27.0921 -67.5615,102.422 -38.5099,174.482 39.0166,2.3811 79.1611,-5.45197 116.365,-24.8043z"/>
     <path id="_406680408" class="fil13" d="M1080.22 1791.23c-0.838583,-2.07756 -0.572835,-1.46221 -1.33819,-3.54095 -13.0217,-35.3929 -15.7063,-71.2855 -8.93977,-101.937 7.20355,-32.6398 25.0725,-59.4485 52.5827,-73.7587l0.00236221 -0.0011811 5.45197 10.4811 -0.00236221 0.0011811c-24.2445,12.6118 -40.0595,36.5433 -46.5201,65.817 -6.43465,29.1532 -3.64134,63.5221 9.25158,97.4162 0.480709,1.26378 1.67362,5.03268 2.18386,6.29646l-12.6721 -0.773623z"/>
    </g>
   </g>
  </g>
 </g>
</svg>
