<?xml version="1.0" encoding="UTF-8"?>
<!DOCTYPE svg PUBLIC "-//W3C//DTD SVG 1.1//EN" "http://www.w3.org/Graphics/SVG/1.1/DTD/svg11.dtd">
<!-- Creator: CorelDRAW -->
<svg xmlns="http://www.w3.org/2000/svg" xml:space="preserve" width="2048px" height="2048px" style="shape-rendering:geometricPrecision; text-rendering:geometricPrecision; image-rendering:optimizeQuality; fill-rule:evenodd; clip-rule:evenodd"
viewBox="0 0 2048 2048"
 xmlns:xlink="http://www.w3.org/1999/xlink">
 <defs>
  <style type="text/css">
   <![CDATA[
    .fil12 {fill:none}
    .fil11 {fill:#3B2623}
    .fil7 {fill:#3E2723}
    .fil10 {fill:#47302B}
    .fil6 {fill:#4E342E}
    .fil5 {fill:#00695C;fill-rule:nonzero}
    .fil9 {fill:#0E564C;fill-rule:nonzero}
    .fil8 {fill:#6B9E99;fill-rule:nonzero}
    .fil4 {fill:#80CBC4;fill-rule:nonzero}
    .fil3 {fill:#929292;fill-rule:nonzero}
    .fil1 {fill:#9E9E9E;fill-rule:nonzero}
    .fil2 {fill:#ADADAD;fill-rule:nonzero}
    .fil0 {fill:#BDBDBD;fill-rule:nonzero}
   ]]>
  </style>
 </defs>
 <g id="Layer_x0020_1">
  <metadata id="CorelCorpID_0Corel-Layer"/>
  <g id="_412080592">
   <g>
    <path id="_411345856" class="fil0" d="M598.95 1515.49l0.00708662 -0.0141732c21.8091,-48.2304 61.1493,-83.0776 107.115,-100.422 45.9272,-17.3291 98.5194,-17.1201 146.881,4.74331l0.0141732 0.00590552c48.2339,21.8067 83.0835,61.1469 100.432,107.118 17.3327,45.9331 17.1236,98.53 -4.73977,146.895 -21.8067,48.2363 -61.1493,83.0894 -107.124,100.436 -45.9331,17.3339 -98.5324,17.1213 -146.899,-4.74331 -48.2363,-21.8126 -83.0894,-61.1563 -100.434,-107.128 -17.3303,-45.9307 -17.1189,-98.5241 4.74685,-146.89z"/>
    <g>
     <path id="_411345424" class="fil1" d="M726.549 1556.45l0.0011811 -0.0011811c2.36221,-5.2252 6.62481,-9.00001 11.6043,-10.8791 4.97481,-1.87795 10.6724,-1.85433 15.9118,0.51378l0.0011811 0c5.2252,2.36339 9.00119,6.62481 10.8803,11.6055 1.87795,4.97599 1.85551,10.6736 -0.51378,15.913 -2.36221,5.2252 -6.62363,9.00119 -11.6043,10.8803 -4.97599,1.87795 -10.6748,1.85551 -15.9142,-0.51378 -5.2252,-2.36339 -9.00119,-6.62481 -10.8803,-11.6055 -1.87795,-4.97599 -1.85433,-10.6736 0.51378,-15.913z"/>
     <path id="_411345736" class="fil1" d="M669.96 1497.18l0 -0.0011811c2.36221,-5.2252 6.62481,-9.00001 11.6043,-10.8791 4.97599,-1.87677 10.6724,-1.85433 15.9118,0.51378l0.0011811 0.0011811c5.22638,2.36221 9.00119,6.62363 10.8803,11.6043 1.87795,4.97599 1.85551,10.6736 -0.512599,15.913 -2.36339,5.22638 -6.62481,9.00237 -11.6055,10.8815 -4.97599,1.87677 -10.6748,1.85433 -15.9142,-0.51378 -5.2252,-2.36339 -9.00119,-6.62599 -10.8803,-11.6055 -1.87677,-4.97599 -1.85433,-10.6736 0.514961,-15.9142z"/>
     <path id="_411345232" class="fil1" d="M839.728 1675l0.0011811 -0.00236221c2.36221,-5.2252 6.62481,-9.00001 11.6043,-10.8791 4.97481,-1.87677 10.6724,-1.85433 15.9118,0.51378l0.0011811 0.0011811c5.2252,2.36221 9.00119,6.62481 10.8803,11.6043 1.87795,4.97599 1.85551,10.6736 -0.51378,15.913 -2.36221,5.22638 -6.62363,9.00237 -11.6043,10.8815 -4.97599,1.87795 -10.6748,1.85433 -15.9142,-0.51378 -5.22638,-2.36339 -9.00119,-6.62599 -10.8803,-11.6055 -1.87795,-4.97599 -1.85433,-10.6736 0.51378,-15.913z"/>
     <path id="_411345280" class="fil1" d="M783.139 1615.73l0.0011811 -0.00236221c2.36221,-5.22402 6.62481,-9.00001 11.6043,-10.878 4.97481,-1.87795 10.6724,-1.85551 15.9118,0.51378l0.0011811 0c5.2252,2.36221 9.00119,6.62481 10.8803,11.6043 1.87795,4.97599 1.85551,10.6748 -0.51378,15.9142 -2.36221,5.2252 -6.62481,9.00119 -11.6043,10.8803 -4.97599,1.87795 -10.6748,1.85433 -15.9142,-0.51378 -5.22638,-2.36339 -9.00119,-6.62599 -10.8803,-11.6055 -1.87795,-4.97599 -1.85433,-10.6736 0.51378,-15.913z"/>
    </g>
    <path id="_411345616" class="fil1" d="M701.91 1637.34l0.0011811 -0.0011811c2.36221,-5.2252 6.62481,-9.00001 11.6043,-10.8791 4.97481,-1.87795 10.6724,-1.85551 15.9118,0.51378l0.0011811 0c5.2252,2.36221 9.00119,6.62481 10.8803,11.6043 1.87795,4.97599 1.85551,10.6748 -0.51378,15.9142 -2.36221,5.2252 -6.62363,9.00119 -11.6043,10.8803 -4.97599,1.87795 -10.6748,1.85433 -15.9142,-0.51378 -5.2252,-2.36339 -9.00119,-6.62481 -10.8803,-11.6055 -1.87795,-4.97599 -1.85433,-10.6736 0.51378,-15.913z"/>
    <path id="_411345112" class="fil1" d="M818.842 1525.71l-0.00236221 0.0011811c-5.32796,2.11772 -9.29646,6.20079 -11.4047,11.087 -2.10591,4.88386 -2.34685,10.5756 -0.223229,15.9189l0.0011811 0.00236221c2.11772,5.32914 6.19961,9.29764 11.087,11.4059 4.88386,2.10591 10.5768,2.34685 15.9213,0.223229 5.32914,-2.11772 9.29764,-6.19961 11.4059,-11.0882 2.10591,-4.88386 2.34685,-10.5768 0.223229,-15.9213 -2.11772,-5.32914 -6.20079,-9.29764 -11.0882,-11.4059 -4.88386,-2.10591 -10.5768,-2.34685 -15.9201,-0.223229z"/>
    <path id="_411345400" class="fil1" d="M645.321 1578.07l0 -0.0011811c2.36221,-5.2252 6.62481,-9.00001 11.6043,-10.8791 4.97599,-1.87795 10.6724,-1.85433 15.9118,0.51378l0.00236221 0.0011811c5.2252,2.36221 9.00001,6.62363 10.8791,11.6043 1.87795,4.97599 1.85551,10.6736 -0.512599,15.913 -2.36339,5.2252 -6.62481,9.00119 -11.6055,10.8803 -4.97599,1.87795 -10.6748,1.85551 -15.9142,-0.51378 -5.2252,-2.36221 -9.00119,-6.62481 -10.8803,-11.6055 -1.87677,-4.97599 -1.85433,-10.6736 0.514961,-15.913z"/>
    <path id="_411345544" class="fil1" d="M762.252 1466.43l-0.0011811 0.0011811c-5.32914,2.11772 -9.29764,6.20079 -11.4047,11.0882 -2.10591,4.88268 -2.34803,10.5756 -0.22441,15.9189l0.0011811 0.0011811c2.11772,5.32914 6.19961,9.29764 11.0882,11.4059 4.88268,2.10591 10.5756,2.34685 15.9201,0.22441 5.32914,-2.1189 9.29764,-6.20079 11.4059,-11.0894 2.10591,-4.88386 2.34685,-10.5768 0.22441,-15.9201 -2.1189,-5.33032 -6.20197,-9.29883 -11.0894,-11.4059 -4.88386,-2.10591 -10.5768,-2.34803 -15.9201,-0.22441z"/>
    <path id="_411345064" class="fil1" d="M758.5 1696.62l0.0011811 -0.0011811c2.36221,-5.2252 6.62481,-9.00001 11.6043,-10.8791 4.97481,-1.87677 10.6724,-1.85433 15.9118,0.51378l0.0011811 0.0011811c5.2252,2.36221 9.00119,6.62363 10.8803,11.6043 1.87795,4.97599 1.85551,10.6736 -0.51378,15.913 -2.36221,5.22638 -6.62481,9.00237 -11.6043,10.8815 -4.97599,1.87795 -10.6748,1.85433 -15.9142,-0.51378 -5.22638,-2.36339 -9.00119,-6.62599 -10.8803,-11.6055 -1.87795,-4.97599 -1.85433,-10.6736 0.51378,-15.9142z"/>
    <path id="_411345568" class="fil1" d="M875.433 1584.98l-0.00236221 0c-5.32796,2.1189 -9.29646,6.20079 -11.4047,11.0882 -2.10591,4.88386 -2.34685,10.5756 -0.223229,15.9189l0 0.0011811c2.11772,5.32914 6.20079,9.29883 11.0882,11.4059 4.88386,2.10591 10.5768,2.34803 15.9201,0.22441 5.33032,-2.11772 9.29883,-6.20079 11.4071,-11.0882 2.10591,-4.88386 2.34685,-10.578 0.223229,-15.9213 -2.11772,-5.32914 -6.20079,-9.29883 -11.0894,-11.4059 -4.88268,-2.10591 -10.5756,-2.34685 -15.9189,-0.223229z"/>
    <path id="_411348928" class="fil1" d="M671.873 1706.06l0.0011811 -0.0011811c2.36221,-5.2252 6.62481,-9.00001 11.6043,-10.8791 4.97481,-1.87677 10.6724,-1.85433 15.9118,0.51378l0.0011811 0.0011811c5.2252,2.36221 9.00119,6.62363 10.8803,11.6043 1.87795,4.97599 1.85551,10.6736 -0.51378,15.913 -2.36221,5.22638 -6.62481,9.00119 -11.6043,10.8803 -4.97717,1.87795 -10.6748,1.85551 -15.9142,-0.51378 -5.22638,-2.36221 -9.00119,-6.62481 -10.8803,-11.6055 -1.87795,-4.97481 -1.85433,-10.6724 0.51378,-15.913z"/>
    <path id="_411349048" class="fil1" d="M888.881 1498.89l-0.00236221 0c-5.32796,2.1189 -9.29646,6.20079 -11.4047,11.0882 -2.10591,4.88386 -2.34685,10.5756 -0.223229,15.9189l0 0.0011811c2.11772,5.32914 6.20079,9.29883 11.0882,11.4059 4.88386,2.10709 10.5768,2.34803 15.9201,0.22441 5.33032,-2.11772 9.29883,-6.20079 11.4071,-11.0882 2.10591,-4.88386 2.34685,-10.578 0.223229,-15.9213 -2.11772,-5.32914 -6.20079,-9.29883 -11.0894,-11.4059 -4.88268,-2.10591 -10.5756,-2.34685 -15.9189,-0.223229z"/>
    <path id="_411348976" class="fil1" d="M615.283 1646.79l0.0011811 -0.00236221c2.36221,-5.22402 6.62481,-9.00001 11.6043,-10.8791 4.97481,-1.87677 10.6724,-1.85433 15.9118,0.51378l0.0011811 0.0011811c5.2252,2.36221 9.00119,6.62481 10.8803,11.6043 1.87795,4.97599 1.85551,10.6736 -0.51378,15.9142 -2.36221,5.2252 -6.62363,9.00119 -11.6043,10.8803 -4.97599,1.87795 -10.6748,1.85433 -15.9142,-0.51378 -5.2252,-2.36339 -9.00119,-6.62599 -10.8803,-11.6055 -1.87795,-4.97599 -1.85433,-10.6736 0.51378,-15.913z"/>
    <path id="_411348688" class="fil1" d="M832.29 1439.61l-0.00236221 0.0011811c-5.32796,2.11772 -9.29646,6.20079 -11.4047,11.087 -2.10591,4.88386 -2.34685,10.5768 -0.223229,15.9189l0.0011811 0.00236221c2.11772,5.32914 6.19961,9.29764 11.087,11.4059 4.88386,2.10591 10.5768,2.34685 15.9213,0.223229 5.32914,-2.11772 9.29764,-6.19961 11.4059,-11.0882 2.10591,-4.88386 2.34685,-10.5768 0.223229,-15.9213 -2.11772,-5.32914 -6.20079,-9.29764 -11.0882,-11.4059 -4.88386,-2.10591 -10.5768,-2.34685 -15.9201,-0.223229z"/>
   </g>
   <g>
    <path id="_411348448" class="fil2" d="M598.95 1515.49l0.00708662 -0.0141732c10.9406,-24.1973 26.2973,-45.026 44.687,-61.9654l265.126 277.701c-19.2992,19.0606 -42.2894,33.6284 -67.2343,43.0406 -45.9331,17.3339 -98.5324,17.1213 -146.899,-4.74331 -48.2363,-21.8126 -83.0894,-61.1563 -100.434,-107.128 -17.3303,-45.9307 -17.1189,-98.5241 4.74685,-146.89z"/>
    <g>
     <path id="_411348664" class="fil3" d="M726.55 1556.45l0 0c1.6252,-3.59528 4.14922,-6.50434 7.18819,-8.58072l28.35 29.6941c-2.40709,3.19134 -5.64331,5.55591 -9.25985,6.92127 -4.97599,1.87677 -10.6724,1.85315 -15.9142,-0.514961 -5.22402,-2.36221 -9.00001,-6.62599 -10.8791,-11.6055 -1.87677,-4.97599 -1.85433,-10.6736 0.514961,-15.9142z"/>
     <path id="_411348304" class="fil3" d="M669.96 1497.18l0 0c1.62638,-3.59528 4.14922,-6.50434 7.18938,-8.58072l28.3488 29.6929c-2.40709,3.19134 -5.64331,5.55591 -9.25985,6.92127 -4.97481,1.87677 -10.6724,1.85315 -15.913,-0.51378 -5.2252,-2.36339 -9.00119,-6.62599 -10.8803,-11.6067 -1.87677,-4.97599 -1.85433,-10.6736 0.514961,-15.913z"/>
     <path id="_411347824" class="fil3" d="M839.729 1675l0 0c1.6252,-3.59528 4.14922,-6.50434 7.18938,-8.58072l28.3477 29.6929c-2.40591,3.19134 -5.64213,5.55591 -9.25867,6.92245 -4.97481,1.87677 -10.6736,1.85197 -15.913,-0.514961 -5.22638,-2.36339 -9.00119,-6.62481 -10.8803,-11.6055 -1.87677,-4.97599 -1.85551,-10.6736 0.514961,-15.9142z"/>
     <path id="_411347920" class="fil3" d="M783.14 1615.73l0 0c1.6252,-3.59528 4.14922,-6.50434 7.18819,-8.58072l28.35 29.6941c-2.40709,3.19134 -5.64331,5.55591 -9.25985,6.92127 -4.97599,1.87559 -10.6736,1.85197 -15.9142,-0.514961 -5.2252,-2.36339 -9.00001,-6.62599 -10.8791,-11.6055 -1.87677,-4.97599 -1.85433,-10.6736 0.514961,-15.9142z"/>
    </g>
    <path id="_411347992" class="fil3" d="M701.911 1637.34l0 0c2.36221,-5.2252 6.62363,-9.00001 11.6043,-10.8791 4.97717,-1.87795 10.6724,-1.85551 15.913,0.51378l0.0011811 0.0011811c5.2252,2.36103 9.00001,6.62245 10.8803,11.6032 1.87677,4.97717 1.85315,10.6748 -0.51378,15.9142 -2.36339,5.22638 -6.62481,9.00119 -11.6067,10.8815 -4.97481,1.87677 -10.6736,1.85315 -15.913,-0.514961 -5.22638,-2.36221 -9.00119,-6.62481 -10.8803,-11.6055 -1.87677,-4.97599 -1.85433,-10.6724 0.514961,-15.9142z"/>
    <path id="_411347464" class="fil3" d="M645.321 1578.07l0 0c2.36221,-5.2252 6.62363,-9.00001 11.6043,-10.8791 4.97717,-1.87795 10.6736,-1.85433 15.913,0.51378l0.0011811 0.0011811c5.22638,2.36103 9.00119,6.62245 10.8803,11.6043 1.87677,4.97599 1.85315,10.6736 -0.51378,15.913 -2.36339,5.22638 -6.62481,9.00119 -11.6067,10.8815 -4.97599,1.87677 -10.6724,1.85315 -15.9142,-0.514961 -5.22402,-2.36221 -9.00001,-6.62481 -10.8791,-11.6043 -1.87677,-4.97717 -1.85433,-10.6736 0.514961,-15.9154z"/>
    <path id="_411347560" class="fil3" d="M758.5 1696.62l0 0c2.36339,-5.22402 6.62481,-8.99883 11.6043,-10.8791 4.97717,-1.87795 10.6736,-1.85433 15.913,0.51378l0.0011811 0.0011811c5.22638,2.36103 9.00119,6.62363 10.8815,11.6043 1.87677,4.97599 1.85315,10.6748 -0.51378,15.913 -2.36339,5.22638 -6.62599,9.00119 -11.6067,10.8815 -4.97481,1.87795 -10.6724,1.85433 -15.913,-0.51378 -5.2252,-2.36339 -9.00119,-6.62481 -10.8803,-11.6055 -1.87795,-4.97717 -1.85551,-10.6736 0.51378,-15.9154z"/>
    <path id="_412080472" class="fil3" d="M671.874 1706.06l0 0c2.36221,-5.2252 6.62363,-9.00001 11.6043,-10.8791 4.97599,-1.87677 10.6724,-1.85551 15.913,0.514961l0.0011811 0c5.2252,2.36103 9.00001,6.62245 10.8803,11.6043 1.87677,4.97599 1.85315,10.6748 -0.51378,15.9142 -2.36339,5.22638 -6.62481,9.00001 -11.6055,10.8803 -4.97717,1.87677 -10.6748,1.85315 -15.9154,-0.514961 -5.2252,-2.36221 -9.00001,-6.62481 -10.8791,-11.6043 -1.87677,-4.97717 -1.85433,-10.6736 0.514961,-15.9154z"/>
    <path id="_412080808" class="fil3" d="M615.283 1646.79l0.0011811 0c2.36221,-5.2252 6.62363,-8.99883 11.6043,-10.8791 4.97599,-1.87677 10.6736,-1.85433 15.913,0.514961l0.0011811 0c5.22638,2.36221 9.00001,6.62363 10.8791,11.6043 1.87795,4.97717 1.85433,10.6748 -0.512599,15.9142 -2.36339,5.22638 -6.62481,9.00001 -11.6055,10.8803 -4.97717,1.87677 -10.6736,1.85433 -15.9154,-0.514961 -5.22402,-2.36103 -9.00001,-6.62481 -10.8791,-11.6043 -1.87677,-4.97717 -1.85433,-10.6736 0.51378,-15.9154z"/>
   </g>
  </g>
  <g id="_412078936">
   <g>
    <path id="_412080928" class="fil4" d="M1533.42 810.994c2.80394,10.6075 4.05,20.6906 3.8067,31.1929 -0.725197,31.3382 -14.3173,56.7272 -38.765,102.382 -11.8417,22.115 -26.4945,49.4752 -42.9863,83.5843l-87.6048 181.213 202.944 350.662c13.8543,23.941 16.65,51.3933 10.0004,76.3123 -6.64016,24.8941 -22.7882,47.3091 -46.8248,61.2189l-48.3733 27.9921 -0.00944883 0.00472441c-23.8925,13.8236 -51.2918,16.624 -76.1717,9.98741 -24.9803,-6.66142 -47.439,-22.7988 -61.3382,-46.8095l-0.00354331 -0.00826772 -202.856 -350.511 -200.586 -14.3067c-38.4036,-2.73544 -69.1253,-3.65433 -93.9568,-4.39725 -51.7382,-1.54606 -80.5099,-2.40709 -108.025,-17.3799 -9.53977,-5.19095 -17.902,-11.5323 -25.9453,-19.6193l816.694 -471.518z"/>
    <path id="_412080568" class="fil5" d="M1363.03 501.74c24.1323,41.68 48.4843,83.7627 72.9579,126.06l25.9606 44.8607c6.82678,11.7992 3.81969,6.51497 13.9099,23.8677 30.9851,53.2855 49.5886,85.2804 57.2741,113.389l0.285827 1.07599 -816.694 471.518 -0.0850394 -0.0862205c-20.5441,-20.6894 -39.0296,-52.7811 -69.7949,-106.195 -4.34055,-7.54016 -8.95158,-15.5386 -13.8591,-24.0236l-49.6807 -85.8355 -49.2367 -85.0843c-113.671,-196.414 -78.6627,-384.72 27.4453,-519.837 40.9087,-52.0937 92.4544,-96.1371 150.11,-129.503 57.4973,-33.2776 121.329,-55.9855 186.985,-65.517 169.991,-24.6792 350.705,38.8146 464.422,235.31z"/>
    <path id="_412080352" class="fil6" d="M1348.1 1688.73l0 0zm137.519 36.8174l0 0zm-343.859 -571.004l1.70433 183.541 1.77638 0.126378 202.859 350.52c13.8992,24.0106 36.3579,40.1481 61.3382,46.8095 24.8799,6.63662 52.2792,3.83622 76.1812,-9.99213l48.3733 -27.9921c24.0366,-13.9099 40.1847,-36.3248 46.8248,-61.2189 6.64961,-24.9189 3.85394,-52.3713 -10.0004,-76.3123l-202.944 -350.662 0.453544 -0.936615 -159.078 -93.8422c-31.3359,-18.0921 -67.741,12.1146 -67.4882,39.9603z"/>
    <path id="_412080304" class="fil7" d="M1350.45 1692.59l222.586 -128.51c11.915,22.9512 14.0551,48.7347 7.77875,72.2575 -6.64016,24.8941 -22.7882,47.3091 -46.8248,61.2189l-48.3733 27.9921c-23.902,13.8284 -51.3012,16.6288 -76.1812,9.99213 -23.6162,-6.29764 -44.9788,-21.0673 -58.9855,-42.9508zm135.167 32.9587l0 0z"/>
   </g>
   <g>
    <path id="_412080088" class="fil8" d="M1509.07 1711.98l-23.4508 13.5709 -0.00944883 0.00472441c-23.8925,13.8236 -51.2918,16.624 -76.1717,9.98741 -24.9803,-6.66142 -47.439,-22.7988 -61.3382,-46.8095l-0.00354331 -0.00826772 -202.856 -350.511 -200.586 -14.3067c-38.4036,-2.73544 -69.1253,-3.65433 -93.9568,-4.39725 -51.7382,-1.54606 -80.5099,-2.40709 -108.025,-17.3799 -9.53977,-5.19095 -17.902,-11.5323 -25.9453,-19.6193l408.291 -235.727 384.051 665.196z"/>
    <path id="_412080280" class="fil9" d="M1125.02 1046.78l-408.291 235.727 -0.0850394 -0.0862205c-20.5441,-20.6894 -39.0296,-52.7811 -69.7949,-106.195 -4.34055,-7.54016 -8.95158,-15.5386 -13.8591,-24.0236l-49.6807 -85.8355 -49.2367 -85.0843c-113.671,-196.414 -78.6627,-384.72 27.4453,-519.837 40.9087,-52.0937 92.4544,-96.1371 150.11,-129.503l0.510237 -0.294095 412.882 715.132z"/>
    <path id="_412079656" class="fil10" d="M1348.1 1688.73l0 0zm-182.915 -572.382l343.885 595.628 -23.4508 13.5709c-23.902,13.8284 -51.3012,16.6288 -76.1812,9.99213 -24.9803,-6.66142 -47.439,-22.7988 -61.3382,-46.8095l-202.859 -350.52 -1.77638 -0.126378 -1.70433 -183.541c-0.131102,-14.4614 9.62717,-29.5559 23.4248,-38.1945zm320.434 609.199l0 0z"/>
    <path id="_412079296" class="fil11" d="M1350.45 1692.59l110.568 -63.8363 48.0496 83.2241 -23.4508 13.5709c-23.902,13.8284 -51.3012,16.6288 -76.1812,9.99213 -23.6162,-6.29764 -44.9788,-21.0673 -58.9855,-42.9508zm135.167 32.9587l0 0z"/>
   </g>
  </g>
  <rect class="fil12" width="2048" height="2048"/>
 </g>
</svg>
