<?xml version="1.0" encoding="UTF-8"?>
<!DOCTYPE svg PUBLIC "-//W3C//DTD SVG 1.1//EN" "http://www.w3.org/Graphics/SVG/1.1/DTD/svg11.dtd">
<!-- Creator: CorelDRAW -->
<svg xmlns="http://www.w3.org/2000/svg" xml:space="preserve" width="2048px" height="2048px" style="shape-rendering:geometricPrecision; text-rendering:geometricPrecision; image-rendering:optimizeQuality; fill-rule:evenodd; clip-rule:evenodd"
viewBox="0 0 2048 2048"
 xmlns:xlink="http://www.w3.org/1999/xlink">
 <defs>
  <style type="text/css">
   <![CDATA[
    .fil3 {fill:none}
    .fil1 {fill:none;fill-rule:nonzero}
    .fil4 {fill:#49302A}
    .fil2 {fill:#4E342E;fill-rule:nonzero}
    .fil0 {fill:#E9BB77;fill-rule:nonzero}
   ]]>
  </style>
 </defs>
 <g id="Layer_x0020_1">
  <metadata id="CorelCorpID_0Corel-Layer"/>
  <path class="fil0" d="M1074.8 611.647c-85.4493,42.9166 -196.669,108.631 -313.876,200.02 -2.1378,1.66654 -4.27677,3.3437 -6.41812,5.02796 90.6887,-1.56969 182.095,13.1953 261.677,44.08 123.222,47.8229 218.772,133.532 243.47,256.581 61.5709,-78.6355 128.775,-173.717 204.272,-289.414l53.4993 34.7504c-95.2678,145.994 -177.836,260.036 -252.853,350.182 -0.65315,7.71733 -1.44567,15.2634 -2.37166,22.6347 -20.3575,162.086 -107.743,283.536 -224.75,361.537 -115.694,77.126 -260.489,111.325 -397.467,99.8162 -8.42599,-0.707481 -16.7362,-1.57677 -24.9154,-2.60315 -100.389,-12.6095 -191.726,-46.5461 -255.577,-101.915 -33.0945,-28.6996 -58.852,-63.1323 -74.8465,-103.343 -15.9957,-40.2142 -22.0583,-85.5402 -15.7347,-135.889 2.43662,-19.4008 6.72875,-39.5965 13.0075,-60.5764 -36.0922,-145.941 4.92993,-258.737 87.7595,-338.54 68.6575,-66.1477 166.234,-108.22 271.705,-126.632 26.9067,-23.2725 53.7437,-45.2469 80.2926,-65.9469 120.939,-94.2993 236.055,-162.284 324.626,-206.769l28.5 57zm-405.219 275.751c-59.9268,52.8119 -120.032,112.317 -177.757,178.884 -74.5583,85.9796 -120.399,161.873 -143.352,227.908 5.66575,19.9158 12.9579,40.5709 22.0299,61.989 28.4847,67.2544 94.0761,118.623 179.042,141.791 81.6095,22.2532 180.621,18.3886 282.31,-22.0229 92.8099,-36.8894 179.995,-90.8599 278.548,-188.364 29.3398,-29.028 59.6717,-61.8839 91.4221,-99.2257 2.49921,-131.035 -86.9694,-220.863 -208.642,-268.084 -93.8635,-36.4276 -206.349,-48.0496 -312.251,-34.4398 -3.7937,0.487796 -7.57678,1.01221 -11.3504,1.56378zm-226.008 137.134c31.5425,-36.3744 63.7772,-70.7091 96.3119,-103.064 -48.4607,19.3264 -91.6607,45.4831 -125.958,78.5257 -46.5863,44.8843 -76.5792,103.419 -80.3623,175.915 27.2977,-47.3587 63.5741,-97.8308 110.008,-151.376zm-111.411 395.275c2.10945,16.2673 6.08504,31.4953 11.7331,45.6933 12.0106,30.1937 31.7599,56.4048 57.3449,78.5918 53.8087,46.6618 133.125,75.554 221.577,86.6646 7.53071,0.944883 15.0083,1.7315 22.4162,2.35276 123.292,10.3595 253.347,-20.2406 356.965,-89.3162 82.5981,-55.063 148.303,-134.88 179.919,-238.142 -8.99292,9.39568 -17.8961,18.4583 -26.7154,27.1831 -105.476,104.353 -199.501,162.399 -300.049,202.364 -115.272,45.8103 -228.508,49.9181 -322.559,24.2717 -87.4572,-23.8477 -158.684,-73.4847 -200.632,-139.663z"/>
  <line class="fil1" x1="1455.14" y1="757.762" x2="1455.14" y2= "757.76" />
  <path class="fil2" d="M1769.97 471.333c17.8276,13.3122 28.591,32.7307 31.5709,53.289 2.96457,20.4555 -1.84843,42.065 -15.1536,59.8831l-201.657 270.012c-13.3146,17.8299 -32.7319,28.5957 -53.2914,31.5756 -20.4555,2.96693 -42.0638,-1.84725 -59.8843,-15.1524l-0.011811 -0.0129921c-17.8205,-13.3099 -28.5839,-32.7248 -31.5614,-53.2796 -2.96457,-20.4508 1.84961,-42.0591 15.15,-59.8784l0.00826772 -0.00944883 201.66 -270.017 0.00944883 0 -0.00590552 -0.00472441c13.3087,-17.8252 32.7248,-28.5874 53.2796,-31.565 20.452,-2.96339 42.0567,1.84843 59.8784,15.1512l0 0.0188977 0.00826772 -0.0106299z"/>
  <path class="fil2" d="M1470.3 397.179c8.95867,20.2583 8.8004,42.3886 1.3311,61.7233 -7.4693,19.3394 -22.2827,35.85 -42.6331,44.8607l-308.162 136.41c-20.2701,8.97284 -42.4158,8.82166 -61.7646,1.34764 -19.3394,-7.46812 -35.85,-22.2815 -44.8583,-42.6319l-0.00354331 -0.0153543c-8.96812,-20.263 -8.81694,-42.404 -1.34291,-61.7493 7.46812,-19.3358 22.2803,-35.8429 42.6307,-44.8559l0.00826772 -0.00236221 0 -0.0011811 308.17 -136.413 0.00590552 -0.00236221c20.2618,-8.97048 42.4004,-8.81694 61.7457,-1.3441 19.3347,7.46812 35.8441,22.2792 44.8548,42.6272l0.0177165 0.046063z"/>
 </g>
 <g id="Layer_x0020_1_0">
  <metadata id="CorelCorpID_1Corel-Layer"/>
  <rect class="fil3" width="2048" height="2048"/>
  <path class="fil4" d="M1055.5 492.268l0 0zm-42.6307 44.8559c-4.56378,11.8122 -6.39686,24.6662 -5.09174,37.4988 0.80315,7.88977 2.79213,15.7725 6.06378,23.3988l44.0776 -20.1366 409.287 -186.973c-9.42757,-17.1543 -24.4701,-29.7225 -41.7756,-36.4063 -19.9347,-7.70079 -40.8591,-7.45276 -61.7516,1.34646l-308.178 136.416c-20.3504,9.013 -35.1626,25.5201 -42.6307,44.8559z"/>
  <path class="fil4" d="M1455.14 757.76l0 0zm314.822 -286.435l0 0zm-113.162 16.4185l-201.669 270.026c-13.3004,17.8193 -18.1146,39.4276 -15.15,59.8784 1.5437,10.6547 5.17914,21.0024 10.8047,30.3532 4.97717,8.27245 11.5134,15.7654 19.5366,21.9969l19.324 -25.3512 282.986 -371.237c-0.869292,-0.707481 -1.75748,-1.39961 -2.67166,-2.08465 -35.7177,-26.661 -86.5973,-19.161 -113.162,16.4185z"/>
  <rect class="fil3" width="2048" height="2048"/>
  <rect class="fil3" width="2048" height="2048"/>
 </g>
</svg>
