<?xml version="1.0" encoding="UTF-8"?>
<!DOCTYPE svg PUBLIC "-//W3C//DTD SVG 1.1//EN" "http://www.w3.org/Graphics/SVG/1.1/DTD/svg11.dtd">
<!-- Creator: CorelDRAW -->
<svg xmlns="http://www.w3.org/2000/svg" xml:space="preserve" width="2048px" height="2048px" style="shape-rendering:geometricPrecision; text-rendering:geometricPrecision; image-rendering:optimizeQuality; fill-rule:evenodd; clip-rule:evenodd"
viewBox="0 0 2048 2048"
 xmlns:xlink="http://www.w3.org/1999/xlink">
 <defs>
  <style type="text/css">
   <![CDATA[
    .fil8 {fill:none}
    .fil5 {fill:#3C3C3C;fill-rule:nonzero}
    .fil1 {fill:#424242;fill-rule:nonzero}
    .fil6 {fill:#656565;fill-rule:nonzero}
    .fil7 {fill:#6F6F6F;fill-rule:nonzero}
    .fil2 {fill:#757575;fill-rule:nonzero}
    .fil3 {fill:#828282;fill-rule:nonzero}
    .fil4 {fill:#FA8900;fill-rule:nonzero}
    .fil0 {fill:#FF9800;fill-rule:nonzero}
   ]]>
  </style>
 </defs>
 <g id="Layer_x0020_1">
  <metadata id="CorelCorpID_0Corel-Layer"/>
  <g id="_35079688">
   <path id="_35080912" class="fil0" d="M653.049 960c-16.5378,0 -29.9445,21.4914 -29.9445,48 0,26.5087 13.4067,48 29.9445,48l741.882 0c16.5366,0 29.9445,-21.4914 29.9445,-48 0,-26.5087 -13.4079,-48 -29.9445,-48l-741.882 0z"/>
   <path id="_35081536" class="fil0" d="M1701.11 960c-17.7,0 -32.0492,21.4914 -32.0492,48 0,26.5087 14.3492,48 32.0492,48l58.2083 0c17.6988,0 32.0492,-21.4914 32.0492,-48 0,-26.5087 -14.3504,-48 -32.0492,-48l-58.2083 0z"/>
   <path id="_35081272" class="fil1" d="M1460.81 1344l55.8 0c22.8248,0 43.6902,-8.97993 58.9193,-23.4461 15.6449,-14.8595 25.3547,-35.4449 25.3547,-58.1611l0 -508.785c0,-22.7162 -9.71103,-43.3016 -25.3547,-58.1622 -15.2291,-14.4662 -36.0945,-23.4461 -58.9193,-23.4461l-55.8 0c-22.8225,0 -43.6855,8.98111 -58.9146,23.4473 -15.6437,14.8606 -25.3536,35.4449 -25.3536,58.1611l0 508.785c0,22.7162 9.71103,43.2992 25.3536,58.1611 15.228,14.4673 36.0922,23.4461 58.9146,23.4461z"/>
   <path id="_35080936" class="fil1" d="M1610.61 1248.05l44.6386 0c18.9803,0 36.587,-6.59882 49.6618,-17.2217 14.9102,-12.1181 24.1666,-29.3398 24.1666,-48.7288l0 -348.198c0,-19.3925 -9.25394,-36.613 -24.1654,-48.7323 -13.076,-10.624 -30.6815,-17.2228 -49.663,-17.2228l-44.6386 0c-18.9839,0 -36.587,6.59882 -49.663,17.2228 -14.9114,12.1193 -24.1654,29.3398 -24.1654,48.7323l0 348.198c0,19.389 9.25631,36.6107 24.1666,48.7288 13.0748,10.6252 30.6803,17.2217 49.6618,17.2217z"/>
   <path id="_35081200" class="fil0" d="M287.412 960c-17.6988,0 -32.0492,21.4914 -32.0492,48 0,26.5087 14.3504,48 32.0492,48l59.4378 0c17.6988,0 32.0492,-21.4914 32.0492,-48 0,-26.5087 -14.3504,-48 -32.0492,-48l-59.4378 0z"/>
   <path id="_35081104" class="fil2" d="M392.757 1248.05l44.6386 0c18.9803,0 36.587,-6.59646 49.6618,-17.2217 14.9102,-12.1181 24.1666,-29.3398 24.1666,-48.7288l0 -348.198c0,-19.3925 -9.25394,-36.613 -24.1654,-48.7323 -13.076,-10.624 -30.6803,-17.2228 -49.663,-17.2228l-44.6386 0c-18.9839,0 -36.587,6.59882 -49.663,17.2228 -14.9114,12.1193 -24.1654,29.3398 -24.1654,48.7323l0 348.198c0,19.389 9.25631,36.6107 24.1666,48.7288 13.0748,10.6252 30.6803,17.2217 49.6618,17.2217z"/>
   <path id="_35081392" class="fil3" d="M531.402 1344l55.8 0c22.8213,0 43.6866,-8.98111 58.9123,-23.4473 15.6425,-14.8618 25.3547,-35.4461 25.3547,-58.1611l0 -508.785c0,-22.7162 -9.71221,-43.3004 -25.3547,-58.1622 -15.2256,-14.4662 -36.091,-23.4473 -58.9123,-23.4473l-55.8 0c-22.826,0 -43.6914,8.98229 -58.9205,23.4461 -15.6461,14.863 -25.3571,35.4485 -25.3571,58.1634l0 508.785c0,22.7162 9.71103,43.3004 25.3571,58.1622 15.2315,14.465 36.0957,23.4461 58.9205,23.4461z"/>
   <path id="_35081080" class="fil2" d="M1653.97 1248.05l-44.6386 0c-18.9803,0 -36.587,-6.59646 -49.6618,-17.2217 -14.9102,-12.1181 -24.1666,-29.3398 -24.1666,-48.7288l0 -348.198c0,-19.3925 9.25394,-36.613 24.1654,-48.7323 13.076,-10.624 30.6803,-17.2228 49.663,-17.2228l44.6386 0c18.9839,0 36.587,6.59882 49.663,17.2228 14.9114,12.1193 24.1654,29.3398 24.1654,48.7323l0 348.198c0,19.389 -9.25631,36.6107 -24.1666,48.7288 -13.0748,10.6252 -30.6803,17.2217 -49.6618,17.2217z"/>
   <path id="_35081464" class="fil3" d="M1515.32 1344l-55.8 0c-22.8213,0 -43.6866,-8.98111 -58.9123,-23.4473 -15.6425,-14.8618 -25.3547,-35.4461 -25.3547,-58.1611l0 -508.785c0,-22.7162 9.71221,-43.3004 25.3547,-58.1622 15.2256,-14.4662 36.091,-23.4473 58.9123,-23.4473l55.8 0c22.826,0 43.6914,8.98229 58.9205,23.4461 15.6461,14.863 25.3571,35.4485 25.3571,58.1634l0 508.785c0,22.7162 -9.71103,43.3004 -25.3571,58.1622 -15.2315,14.465 -36.0957,23.4461 -58.9205,23.4461z"/>
   <path id="_35080288" class="fil4" d="M623.104 1008l0 0.00236221c0,26.5087 13.4067,48 29.9445,48l741.882 0c16.5366,0 29.9445,-21.4914 29.9445,-48l0 -0.00236221 -801.771 0z"/>
   <path id="_35080360" class="fil4" d="M1669.06 1008l0 0.00236221c0,26.5087 14.3492,48 32.0492,48l58.2083 0c17.6988,0 32.0492,-21.4914 32.0492,-48l0 -0.00236221 -122.307 0z"/>
   <path id="_35080168" class="fil5" d="M1460.81 1344l55.8 0c22.8248,0 43.6902,-8.97993 58.9193,-23.4461 15.6449,-14.8595 25.3547,-35.4449 25.3547,-58.1611l0 -254.395 -224.342 0 0 254.395c0,22.7162 9.71103,43.2992 25.3536,58.1611 15.228,14.4673 36.0922,23.4461 58.9146,23.4461z"/>
   <path id="_35080528" class="fil5" d="M1610.61 1248.05l44.6386 0c18.9803,0 36.587,-6.59882 49.6618,-17.2217 14.9102,-12.1181 24.1666,-29.3398 24.1666,-48.7288l0 -174.104 -192.295 0 0 174.104c0,19.389 9.25631,36.6107 24.1666,48.7288 13.0748,10.6252 30.6803,17.2217 49.6618,17.2217z"/>
   <path id="_35080192" class="fil4" d="M255.363 1008l0 0.00236221c0,26.5087 14.3504,48 32.0492,48l59.4378 0c17.6988,0 32.0492,-21.4914 32.0492,-48l0 -0.00236221 -123.536 0z"/>
   <path id="_35080576" class="fil6" d="M392.757 1248.05l44.6386 0c18.9803,0 36.587,-6.59646 49.6618,-17.2217 14.9102,-12.1181 24.1666,-29.3398 24.1666,-48.7288l0 -174.104 -192.295 0 0 174.104c0,19.389 9.25631,36.6107 24.1666,48.7288 13.0748,10.6252 30.6803,17.2217 49.6618,17.2217z"/>
   <path id="_35079832" class="fil7" d="M531.402 1344l55.8 0c22.8213,0 43.6866,-8.98111 58.9123,-23.4473 15.6425,-14.8618 25.3547,-35.4461 25.3547,-58.1611l0 -254.395 -224.345 0 0 254.395c0,22.7162 9.71103,43.3004 25.3571,58.1622 15.2315,14.465 36.0957,23.4461 58.9205,23.4461z"/>
   <path id="_35079808" class="fil6" d="M1653.97 1248.05l-44.6386 0c-18.9803,0 -36.587,-6.59646 -49.6618,-17.2217 -14.9102,-12.1181 -24.1666,-29.3398 -24.1666,-48.7288l0 -174.104 192.295 0 0 174.104c0,19.389 -9.25631,36.6107 -24.1666,48.7288 -13.0748,10.6252 -30.6803,17.2217 -49.6618,17.2217z"/>
   <path id="_35080072" class="fil7" d="M1515.32 1344l-55.8 0c-22.8213,0 -43.6866,-8.98111 -58.9123,-23.4473 -15.6425,-14.8618 -25.3547,-35.4461 -25.3547,-58.1611l0 -254.395 224.345 0 0 254.395c0,22.7162 -9.71103,43.3004 -25.3571,58.1622 -15.2315,14.465 -36.0957,23.4461 -58.9205,23.4461z"/>
  </g>
  <rect class="fil8" width="2048" height="2048"/>
 </g>
</svg>
