<?xml version="1.0" encoding="UTF-8"?>
<!DOCTYPE svg PUBLIC "-//W3C//DTD SVG 1.1//EN" "http://www.w3.org/Graphics/SVG/1.1/DTD/svg11.dtd">
<!-- Creator: CorelDRAW -->
<svg xmlns="http://www.w3.org/2000/svg" xml:space="preserve" width="2048px" height="2048px" style="shape-rendering:geometricPrecision; text-rendering:geometricPrecision; image-rendering:optimizeQuality; fill-rule:evenodd; clip-rule:evenodd"
viewBox="0 0 2048 2048"
 xmlns:xlink="http://www.w3.org/1999/xlink">
 <defs>
  <style type="text/css">
   <![CDATA[
    .fil6 {fill:none}
    .fil1 {fill:#263238}
    .fil0 {fill:#FFAB00}
    .fil3 {fill:#263238;fill-rule:nonzero}
    .fil5 {fill:#424242;fill-rule:nonzero}
    .fil2 {fill:#64B5F6;fill-rule:nonzero}
    .fil4 {fill:#90CAF9;fill-rule:nonzero}
   ]]>
  </style>
 </defs>
 <g id="Layer_x0020_1">
  <metadata id="CorelCorpID_0Corel-Layer"/>
  <g id="_406749224">
   <path id="_406750112" class="fil0" d="M584.866 1208.57c-105.396,-45.9579 -215.353,6.4689 -327.916,-42.0945 -10.2496,119.71 67.2461,117.199 0.527953,204.71 95.9198,5.76024 193.94,-78.2422 287.569,-63.802l5.62441 -1.09843c-9.05434,-15.6969 -14.7095,-35.2902 -9.35316,-54.7489 7.02402,-25.5083 30.1016,-37.8225 43.5473,-42.9662z"/>
   <path id="_406749992" class="fil1" d="M701.366 1021.86l0.159449 0.0484252 6.17126 8.07166 0.35315 0.462992c13.3134,17.4165 26.1992,35.1969 39.1063,52.917 20.3799,27.9756 40.7658,56.0197 62.1,83.2772l45.6733 58.3524 -266.945 -16.2177 -4.96418 -0.302362 -5.94095 -1.12913c-13.4457,5.14489 -36.5221,17.4579 -43.5461,42.9674 -5.35867,19.4599 0.297638,39.052 9.35198,54.7489l1.0937 -0.212599 6.69213 1.43858c10.0831,2.16969 20.3386,4.13386 30.6638,5.95512 20.7496,3.65906 41.7851,6.7441 62.2843,9.77245 49.2307,7.26969 98.7142,13.4988 148.233,18.4228 63.189,6.28465 131.89,11.8843 195.305,8.4815 32.3658,-1.7374 54.241,-16.6677 75.8316,-39.1831 1.07953,-1.12441 2.15433,-2.27008 3.27284,-3.35551 0.0673229,-0.0661418 0.108662,-0.105118 0.12874,-0.125197 31.7114,-32.5359 67.3323,-60.3367 106.238,-83.7591 6.87402,-4.13859 13.8331,-8.13544 20.8701,-11.9917l103.24 -56.5784 -60.2563 105.92c-12.7854,22.4752 -10.65,46.4044 5.3504,66.5705 4.9878,6.28701 11.1591,11.7626 18.039,15.9036 6.62245,3.9874 14.0516,6.8504 21.7181,7.97245 21.6839,3.17481 37.4823,-6.74174 48.1772,-25.5969 25.2378,-44.4922 54.2374,-86.8359 87.8127,-125.473 33.404,-38.4378 69.5245,-74.1343 112.51,-101.858 0.421654,-0.272835 0.848032,-0.533859 1.27205,-0.800788 4.28977,-3.02362 8.0752,-6.72638 11.3858,-10.7882 3.32244,-4.07953 6.09922,-9.06024 8.63032,-13.6606 0.145276,-0.265748 0.315355,-0.568111 0.448819,-0.8563 3.15945,-12.7382 2.82638,-27.9579 1.17992,-40.852 -2.84882,-22.2862 -10.6665,-45.7512 -22.8083,-64.7752 -12.287,-19.252 -29.2878,-34.9051 -51.8646,-40.676 -9.45827,-2.41772 -19.8071,-2.43307 -29.478,-1.63583 -0.301181,0.0248032 -0.609449,0.0448819 -0.912993,0.0779528 -85.8284,16.5083 -171.571,37.7221 -253.069,69.6556 -72.4501,28.389 -140.998,65.2796 -201.667,114.343l-24.2776 19.6323 -21.1949 -22.9276c-11.4331,-12.3685 -22.7504,-24.8504 -34.076,-37.317 -9.12757,-10.0453 -18.2551,-20.0906 -27.4229,-30.0992 -15.998,-17.465 -32.1118,-34.8898 -48.6709,-51.8244 -7.27914,-7.44331 -15.1288,-15.5055 -23.1992,-22.9205 -4.17874,-3.83859 -8.41654,-7.50355 -12.665,-10.8177l-3.76654 -2.93858 -1.52008 -2.10945c-12.7287,-5.72835 -29.915,-9.7819 -47.7461,-3.08622 -34.0654,12.7937 -47.4603,54.8032 -47.2595,76.069 0.00236221,0.258662 -0.0153543,1.33819 -0.0413386,2.80866z"/>
   <path id="_406750184" class="fil0" d="M509.263 676.534c-84.9898,73.3914 -35.6705,189.47 -106.282,227.519l301.629 121.89c0.0259843,-1.47047 0.0425197,-2.55 0.0413386,-2.80866 -0.200788,-21.2646 13.1941,-63.2776 47.2595,-76.069 17.8299,-6.69567 35.0173,-2.64213 47.7461,3.08622l-1.27205 -1.76693c-122.884,-120.586 -221.845,-96.0202 -289.122,-271.851z"/>
   <path id="_406749680" class="fil2" d="M1510 886.698c-18.3366,-9.83268 -82.7257,0.81378 -102.85,6.70985 -1.77874,11.5654 -5.93977,26.5217 -17.6457,31.5213 -0.35315,0.15 -0.711024,0.287008 -1.07008,0.408662l0.00236221 0.00590552c-25.3866,8.59016 -75.652,27.3815 -123.219,45.163 -39.0189,14.5878 -260.945,105.462 -279.911,112.141 -7.89686,2.78504 -16.5591,-1.35945 -19.3441,-9.25631l-25.3134 -71.7213c-2.87717,-8.1567 1.62165,-17.0032 9.87166,-19.5461l386.857 -152.71 -0.0106299 -0.0283465c27.9473,-9.8752 58.2697,4.99016 68.0221,32.9752 12.3437,-3.04725 73.5071,-10.95 86.0953,-9.16654 15.3662,2.10118 30.7158,3.73111 48.0461,16.4681l-0.759449 0.341339 -3.4252 0 -1.02756 0.34252 -0.68504 0.34252 -1.02756 0 -0.68504 0.34252 -0.68504 0 -0.34252 0.343701 -2.05512 0 -1.02756 0.34252 -1.02756 0.341339 -0.68504 0.34252 -0.68504 0.34252 -0.68504 0.34252 -1.02756 0 -1.02756 0.68504 -0.68504 0 0 0.34252 -0.34252 0 0 0.34252 -0.34252 0 0 0.34252 -0.68504 0 0 0.34252 -0.34252 0 0 0.343701 -0.68504 0.341339 -0.68504 0.34252 -0.34252 0.68504 -0.68504 0 -0.68504 0.34252 -0.34252 0.68504 -0.34252 0 0 0.34252 -0.68504 0 0 0.68504 -0.68504 0 -0.34252 0.68504 -0.34252 0.68504 -0.34252 0 0 0.34252 -0.34252 0 0 1.02756 -0.34252 0 0 0.34252 -0.68504 0.34252 0 0.68504 -0.34252 0 0 0.34252 -0.34252 0 0 0.68504 -0.34252 0 0 0.34252 -0.34252 0 -0.34252 0.68504 0 0.68504 -0.68504 0 0 0.68504 -0.34252 0 0 0.252756z"/>
   <path id="_406749512" class="fil3" d="M1548.05 812.046l-1.81417 -1.18347 0.630709 -1.2815 0.651969 0 0 -0.651969 0.651969 0 0 -1.30394 0.650788 0 0 -0.650788 0.651969 0 0 -1.30276 1.30276 -0.651969 0 -0.650788 0.651969 0 0 -1.95591 0.651969 0 0 -0.650788 1.30276 -0.651969 0.650788 -1.30394 0 -0.650788 1.30394 0 0 -1.30276 1.30276 0 0 -0.650788 1.30276 -0.651969 0 -0.651969 1.30394 -0.651969 1.30276 0 0.650788 -1.30276 1.30276 -0.650788 1.30394 -0.651969 0 -0.651969 0.651969 0 0 -0.651969 1.30276 0 0 -0.650788 0.650788 0 0 -0.651969 0.65315 0 0 -0.650788 1.30276 0 1.95354 -1.30394 1.95591 0 1.30158 -0.651969 1.30394 -0.650788 1.30276 -0.651969 1.95473 -0.650788 1.95473 -0.651969 3.90945 0 0.651969 -0.651969 1.95473 0 1.30276 -0.651969 1.95473 0 1.95473 -0.650788 1.30276 -0.650788 5.86418 0 2.60669 -0.651969 1.11614 -0.557481 0.173622 0.141732 1.96654 -0.23504 1.95591 0 0.650788 -0.65315 3.90945 0 0 -1.14685c76.6961,-15.6307 149.979,43.128 151.982,121.3l20.5949 21.398c11.0339,11.4709 10.6819,29.7154 -0.788977,40.7492l-70.9548 68.1993c-10.3665,9.97205 -26.2689,10.6406 -37.3772,2.20866 -23.85,21.6851 -60.4973,22.9181 -86.0729,3.30709 -8.04686,-6.16772 -14.8335,-14.2217 -19.5449,-24.0721 -55.4197,-34.0831 -76.1918,-105.487 -47.491,-163.927 6.65552,-13.5567 15.3284,-25.8201 26.3327,-36.2315z"/>
   <path id="_406749152" class="fil4" d="M1763.36 900.414l20.5949 21.398c11.0339,11.4709 10.6819,29.7154 -0.788977,40.7492l-70.9548 68.1993c-10.3665,9.97205 -26.2689,10.6406 -37.3772,2.20866l-0.290551 0.258662c-12.1819,-7.55316 -21.5965,-16.8945 -23.7437,-28.7138 -2.90906,-16.0063 19.5874,-41.7296 40.3772,-59.83 26.3232,-22.9181 54.241,-37.2544 72.1831,-44.2701z"/>
   <path id="_406749272" class="fil5" d="M1407.01 785.708c0.972048,-0.540945 -1.66772,0.112205 -3.59764,0.257481l1.45276 0.472441 2.14488 -0.729922z"/>
  </g>
  <rect class="fil6" width="2048" height="2048"/>
 </g>
</svg>
