<?xml version="1.0" encoding="UTF-8"?>
<!DOCTYPE svg PUBLIC "-//W3C//DTD SVG 1.1//EN" "http://www.w3.org/Graphics/SVG/1.1/DTD/svg11.dtd">
<!-- Creator: CorelDRAW -->
<svg xmlns="http://www.w3.org/2000/svg" xml:space="preserve" width="2048px" height="2048px" style="shape-rendering:geometricPrecision; text-rendering:geometricPrecision; image-rendering:optimizeQuality; fill-rule:evenodd; clip-rule:evenodd"
viewBox="0 0 2048 2048"
 xmlns:xlink="http://www.w3.org/1999/xlink">
 <defs>
  <style type="text/css">
   <![CDATA[
    .fil40 {fill:none}
    .fil8 {fill:#003C69}
    .fil19 {fill:#00406B}
    .fil33 {fill:#005187}
    .fil32 {fill:#00558E}
    .fil21 {fill:#005A96}
    .fil20 {fill:#0077C7}
    .fil27 {fill:#01579B}
    .fil18 {fill:#0F0706}
    .fil29 {fill:#191919}
    .fil9 {fill:#212121}
    .fil38 {fill:#388E3C}
    .fil17 {fill:#3E2723}
    .fil11 {fill:#424242}
    .fil14 {fill:#4B4B4B}
    .fil10 {fill:#616161}
    .fil13 {fill:#636363}
    .fil22 {fill:#757575}
    .fil1 {fill:#AD0000}
    .fil23 {fill:#B09176}
    .fil35 {fill:#B5D7D9}
    .fil7 {fill:#BDBDBD}
    .fil25 {fill:#BF9E83}
    .fil24 {fill:#BFE3E6}
    .fil28 {fill:#C20000}
    .fil16 {fill:#C3E8EA}
    .fil37 {fill:#CCA98B}
    .fil26 {fill:#D50000}
    .fil34 {fill:#D7B293}
    .fil5 {fill:#DCB696}
    .fil30 {fill:#DE0000}
    .fil3 {fill:#E3BC9B}
    .fil36 {fill:#E5BD9C}
    .fil31 {fill:#F2C8A5}
    .fil4 {fill:#F7CCA9}
    .fil6 {fill:#F7D5B8}
    .fil15 {fill:#F7F7F7}
    .fil0 {fill:#FFD3AE}
    .fil2 {fill:#FFDCBE}
    .fil12 {fill:white}
    .fil39 {fill:black;fill-rule:nonzero}
   ]]>
  </style>
 </defs>
 <g id="Layer_x0020_1">
  <metadata id="CorelCorpID_0Corel-Layer"/>
  <path class="fil0" d="M1108.36 738.224c11.5276,20.4945 37.4823,27.7677 57.9768,16.239 20.4933,-11.5228 9.16772,-32.6918 -2.35866,-53.191l-57.2552 -139.447c-11.524,-20.4921 -37.4835,-27.7618 -57.9768,-16.2343 -20.4933,11.5264 -27.7618,37.4859 -16.2378,57.9733l75.8516 134.66z"/>
  <path class="fil1" d="M1054.92 643.345l-22.4055 -39.7807c-11.524,-20.4874 -4.25552,-46.4469 16.2378,-57.9733 20.4933,-11.5276 46.4528,-4.25788 57.9768,16.2331l30.8882 72.8835 -82.6973 8.63741z"/>
  <path class="fil0" d="M1275.68 728.569c15.5185,-2.38465 17.3351,-13.1079 14.9457,-28.6252 -2.37756,-15.5126 -1.33701,-21.0095 -16.8508,-18.626l-134.544 16.3039c-20.8335,3.20315 -35.8299,9.85158 -32.6233,30.6921 3.20433,20.8394 17.6162,34.9323 43.5296,31.9288 32.1201,-3.71811 125.543,-31.6736 125.543,-31.6736z"/>
  <path class="fil0" d="M1296.04 675.413c1.52126,3.50788 5.59607,5.11772 9.10631,3.5941l23.5937 -9.86457c3.50315,-1.52126 5.11181,-5.60197 3.59764,-9.10394 -1.52835,-3.5067 -5.60079,-5.1189 -9.10985,-3.60118l-23.5914 9.86694c-3.51024,1.52362 -5.11536,5.59725 -3.59646,9.10867z"/>
  <path class="fil0" d="M1308.28 717.788c1.56142,3.59882 5.74725,5.25473 9.34371,3.69449l24.137 -10.1067c3.6,-1.56142 5.25,-5.74371 3.69213,-9.3378 -1.56142,-3.60355 -5.75079,-5.25827 -9.34961,-3.69567l-24.1288 10.1008c-3.6,1.56378 -5.25591,5.74489 -3.69449,9.34489z"/>
  <path class="fil0" d="M1301.76 688.608c1.63701,3.77953 6.02717,5.5193 9.80788,3.87992l25.2201 -10.5744c3.77835,-1.63819 5.50512,-6.03308 3.8752,-9.81142 -1.63937,-3.78307 -6.02717,-5.51693 -9.81379,-3.88111l-25.2166 10.5721c-3.78071,1.64173 -5.52166,6.03308 -3.87284,9.81497z"/>
  <path class="fil0" d="M1306.39 702.866c1.63819,3.78071 6.03189,5.5193 9.81261,3.87638l25.2118 -10.5697c3.77953,-1.63819 5.51811,-6.03426 3.87756,-9.81261 -1.63819,-3.78071 -6.02717,-5.52048 -9.81024,-3.87756l-25.2189 10.5685c-3.77953,1.64055 -5.51575,6.03189 -3.87284,9.81497z"/>
  <path class="fil0" d="M1308.58 663.541c0,0 -11.8642,-0.97441 -15.7205,-0.196063 -23.6339,4.73977 -31.7646,33.4087 -25.4669,47.941 9.44174,21.7666 32.1591,18.6036 46.7008,12.2988l10.037 -4.93819 -15.5504 -55.1056z"/>
  <path class="fil2" d="M1323.24 680.135c-0.269292,-2.45551 -2.46851,-4.22126 -4.9193,-3.95197 -0.372048,0.0413386 -0.729922,0.126378 -1.06417,0.252756 0.711024,2.05866 1.17992,4.1941 1.41732,6.36142 0.0838583,0.757087 0.13937,1.52008 0.165354,2.28189 0.151181,-0.0011811 0.302362,-0.0106299 0.455906,-0.0271654 2.44961,-0.269292 4.21418,-2.46969 3.94488,-4.91693z"/>
  <path class="fil2" d="M1317.62 667.157c-0.0767717,-0.694489 -0.316536,-1.38307 -0.732284,-2.00315 -1.3748,-2.04685 -4.14803,-2.58662 -6.19371,-1.21181 -0.421654,0.281103 -0.780709,0.625985 -1.0689,1.01102 0.823229,0.65315 1.57323,1.39961 2.25473,2.19449 0.833859,0.933072 1.55906,1.94882 2.24292,2.98937 0.32126,0.517323 0.644882,1.02756 0.954331,1.54843 0.204331,-0.0968505 0.4063,-0.209055 0.6,-0.336614 1.42441,-0.957875 2.1189,-2.5937 1.94291,-4.19174z"/>
  <path class="fil3" d="M1305.7 663.341c1.23898,0.0649607 2.28543,0.817323 3.19134,1.57559 0.905906,0.796064 1.69725,1.71732 2.39528,2.70591 0.711024,0.976772 1.3311,2.01851 1.95236,3.0567 0.578741,1.06181 1.17992,2.12953 1.6252,3.22914 0.929528,2.19803 1.51536,4.54607 1.88977,6.90827 0.380315,2.36103 0.512599,4.77048 0.309449,7.13386 -0.214961,2.33977 -0.713386,4.72796 -1.88032,6.60945 -0.561024,0.944883 -1.30748,1.71732 -2.21103,2.12835 -0.231496,0.0779528 -0.454725,0.19252 -0.702756,0.227953l-0.327166 0.068504 -0.46063 0.0377953c-0.407481,0.0106299 -0.946064,-0.0696851 -1.36299,-0.265748 -0.878741,-0.386221 -1.59213,-1.22008 -2.0941,-2.20512 -0.507874,-0.986221 -0.826772,-2.11536 -1.02992,-3.26103 -0.400394,-2.29961 -0.426378,-4.72678 0.0011811,-7.063l0.00236221 -0.0141732c0.0614174,-0.334252 -0.159449,-0.656693 -0.493701,-0.715749 -0.274016,-0.0496063 -0.539764,0.0921261 -0.660237,0.33189 -0.216142,0.438189 -0.557481,0.930709 -0.89882,1.36536 -0.362599,0.432284 -0.740552,0.8563 -1.17165,1.22953 -0.852757,0.755906 -1.80236,1.40788 -2.83701,1.93228 -0.530315,0.225591 -1.05354,0.490158 -1.61457,0.649607 -0.550394,0.200788 -1.11969,0.333071 -1.69488,0.454725 -1.15276,0.239764 -2.33504,0.344882 -3.52914,0.387402 1.18583,0.102756 2.39292,0.167717 3.58937,0.0177165 0.601182,-0.0720473 1.20354,-0.152362 1.79173,-0.305906 0.6,-0.111024 1.17047,-0.335433 1.75512,-0.52441 0.563386,-0.239764 1.13504,-0.475985 1.66772,-0.788977 0.539764,-0.295276 1.05473,-0.650788 1.53307,-1.04173 0.493701,-0.381496 0.937796,-0.822048 1.36654,-1.28032 0.418111,-0.479528 0.797245,-0.944883 1.14449,-1.55315l-1.15158 -0.400394c-0.576378,2.46732 -0.764174,5.03386 -0.389764,7.5815 0.20315,1.2685 0.527953,2.53937 1.11732,3.75237 0.587008,1.1941 1.49055,2.3941 2.87126,3.04252 0.696851,0.320079 1.39961,0.468898 2.21693,0.454725l0.455906 -0.0318898c0.259843,-0.0295276 0.38504,-0.0602363 0.581103,-0.0944883 0.360236,-0.0531496 0.705119,-0.199606 1.05,-0.322441 1.36063,-0.587008 2.39173,-1.65945 3.0874,-2.81457 1.37953,-2.34921 1.82008,-4.93937 2.01614,-7.45749 0.301181,-5.05867 -0.597638,-10.1469 -2.80748,-14.6953 -0.543308,-1.15276 -1.20945,-2.19095 -1.86969,-3.24922 -0.683859,-1.04055 -1.40906,-2.0563 -2.24292,-2.98937 -0.811418,-0.944883 -1.71732,-1.82362 -2.73189,-2.55709 -0.999213,-0.714567 -2.20276,-1.3441 -3.44882,-1.24961z"/>
  <path class="fil3" d="M1325.99 701.943c0,0 -0.568111,0.0188977 -1.54961,0.187795 -0.972048,0.19252 -2.38701,0.451181 -4.00276,1.10079 -0.809056,0.309449 -1.66654,0.733465 -2.52874,1.28032 -0.837402,0.576378 -1.73858,1.24488 -2.42008,2.22166 -0.729922,0.920079 -1.21181,2.1626 -1.29803,3.43347l-0.00236221 0.961418c0.0153543,0.440552 0.0814961,0.598819 0.119291,0.90945 0.0484252,0.522048 0.276378,1.19173 0.465355,1.81063 0.490158,1.17638 1.27087,2.26417 2.29134,3.03898 1.00512,0.818505 2.24055,1.15748 3.3626,1.35827 1.14449,0.207874 2.23937,0.106299 3.24449,-0.0188977 1.00512,-0.141732 1.92402,-0.386221 2.7437,-0.667323 1.65118,-0.542126 2.90433,-1.24725 3.77481,-1.71378 0.8563,-0.509056 1.32756,-0.822048 1.32756,-0.822048 0,0 -0.548032,0.164173 -1.47638,0.486615 -0.925985,0.315355 -2.28189,0.689764 -3.89764,1.00394 -0.809056,0.155906 -1.68662,0.262205 -2.60433,0.314173 -0.915355,0.0236221 -1.88268,0.00472441 -2.80866,-0.212599 -0.923623,-0.211417 -1.8378,-0.564567 -2.55591,-1.16575 -0.729922,-0.583465 -1.2815,-1.38189 -1.64764,-2.28662 -0.302362,-0.811418 -0.588189,-2.03977 -0.523229,-2.89134 0.0614174,-0.918898 0.291733,-1.83307 0.84567,-2.59606 1.00276,-1.58032 2.64803,-2.65866 4.05118,-3.47244 1.43504,-0.800788 2.72008,-1.37835 3.63544,-1.72087 0.915355,-0.356693 1.45394,-0.540945 1.45394,-0.539764z"/>
  <path class="fil3" d="M1336.18 698.017c0,0 -1.50709,0.465355 -3.77008,1.15984 -2.23937,0.683859 -5.20394,1.62402 -8.1815,2.16732 -0.744095,0.155906 -1.48701,0.252756 -2.21339,0.323622 -0.726379,0.0330709 -1.44331,0.108662 -2.11536,0.0448819 -1.35945,-0.0661418 -2.54764,-0.42874 -3.39331,-1.05827 -0.429922,-0.301181 -0.779528,-0.66378 -1.03937,-1.02874 -0.294095,-0.350788 -0.447638,-0.724016 -0.624804,-1.01457 -0.269292,-0.634252 -0.425197,-0.99567 -0.425197,-0.99567 0,0 -0.00472441,0.393307 0.0673229,1.10669 0.0862205,0.34252 0.125197,0.79252 0.35315,1.25669 0.183071,0.475985 0.484252,1.00748 0.940158,1.47638 0.875198,1.00039 2.36693,1.69488 3.9378,1.90394 1.5815,0.259843 3.2504,0.114567 4.85079,-0.165354 3.21024,-0.602363 6.16654,-1.88858 8.26418,-3.02599 2.10473,-1.1315 3.34961,-2.15079 3.34961,-2.15079z"/>
  <path class="fil3" d="M1333.83 683.173c0,0 -1.15276,-0.090945 -2.82992,0.0992127 -1.68189,0.175984 -3.89055,0.620079 -6.02126,1.38425 -1.05473,0.405118 -2.11063,0.825591 -3.0437,1.35827 -0.944883,0.50315 -1.78819,1.07008 -2.43662,1.65827 -0.341339,0.263386 -0.618898,0.558662 -0.846851,0.836221 -0.238583,0.264567 -0.435827,0.496063 -0.557481,0.728741 -0.258662,0.444095 -0.379134,0.694489 -0.379134,0.694489 0,0 0.23504,-0.157087 0.646063,-0.432284 0.402756,-0.261024 0.992127,-0.597638 1.7315,-0.927166 1.45866,-0.679134 3.47481,-1.42205 5.52048,-2.14725 2.03858,-0.741733 4.1067,-1.47756 5.64922,-2.11063 1.54488,-0.617717 2.56772,-1.14213 2.56772,-1.14213z"/>
  <path class="fil3" d="M1328.84 669.067c0,0 -0.937796,0.00590552 -2.26181,0.261024 -1.32874,0.243307 -3.04488,0.720473 -4.69961,1.37717 -1.65,0.666142 -3.23977,1.4811 -4.35945,2.28898 -1.14685,0.739371 -1.71378,1.58504 -1.70788,1.5378 0,0 0.225591,-0.0555119 0.622441,-0.154725 0.367323,-0.116929 0.900001,-0.238583 1.55315,-0.407481 0.634252,-0.178347 1.3748,-0.388583 2.15906,-0.644882 0.784253,-0.252756 1.60512,-0.565748 2.42953,-0.874016 1.62756,-0.659056 3.22323,-1.42913 4.37717,-2.11536 1.16221,-0.670867 1.8874,-1.2685 1.8874,-1.2685z"/>
  <path class="fil2" d="M1326.84 694.505c-0.26811,-2.44843 -2.47914,-4.22363 -4.92874,-3.95551 -2.44488,0.269292 -4.21063,2.48032 -3.94252,4.92993 0.26811,2.44606 2.47323,4.21772 4.91811,3.94961 2.44843,-0.26811 4.22244,-2.47795 3.95315,-4.92402z"/>
  <path class="fil4" d="M1346 704.089c0,-0.00236221 0,-0.00354331 0,-0.00472441 -0.0779528,-0.687402 -0.255118,-1.37953 -0.54567,-2.04567l-0.0011811 0c-0.158268,-0.364961 -0.34252,-0.707481 -0.548032,-1.0311 -0.00590552,-0.00590552 -0.00826772,-0.011811 -0.0129921,-0.0165354 -0.00236221,-0.00354331 -0.00472441,-0.0106299 -0.00708662,-0.0141732 -1.75158,-2.68229 -5.13307,-3.85512 -8.22048,-2.81221l0.34252 -0.142913c-0.00236221,0 -0.00236221,0 -0.00236221,0l-1.99843 0.837402c-0.553937,0.369685 -1.28976,0.829134 -2.1815,1.30866 -2.05512,1.11496 -4.93229,2.37166 -8.07048,2.98937l-4.47166 1.87559 0.368504 1.30039c0.772442,-0.682678 1.75394,-1.14095 2.85473,-1.26142 2.84764,-0.312992 5.40237,1.73858 5.71536,4.5815 0.31063,2.84173 -1.73622,5.40355 -4.58386,5.71654 -0.494882,0.0543308 -0.981497,0.0366142 -1.44921,-0.0448819l0.422835 1.5c0.890552,-0.0531496 1.74331,-0.159449 2.52992,-0.31063 1.61575,-0.314173 2.97166,-0.688583 3.89764,-1.00394 0.928347,-0.32126 1.47638,-0.486615 1.47638,-0.486615 0,0 -0.470079,0.311811 -1.32756,0.822048 -0.870473,0.466536 -2.12362,1.17165 -3.77481,1.71378 -0.731103,0.251575 -1.54016,0.472441 -2.42008,0.617717l0.133465 0.470079 -1.5248 0.750001 19.161 -8.02087c2.91851,-1.26378 4.55552,-4.25197 4.24252,-7.25197 -0.0011811,-0.011811 -0.00354331,-0.0236221 -0.00472441,-0.0354331z"/>
  <path class="fil4" d="M1341.41 696.173l-22.1043 5.39882 0.0259843 0.0944883c0.18189,0.0212599 0.368504,0.0377953 0.559843,0.046063 0.672048,0.0637796 1.38898,-0.011811 2.11536,-0.0448819 0.726379,-0.0708662 1.46929,-0.168898 2.21339,-0.323622 2.97756,-0.542126 5.94213,-1.48347 8.1815,-2.16732 2.26299,-0.694489 3.77008,-1.15984 3.77008,-1.15984 0,0 -0.413386,0.338977 -1.16811,0.842127l1.99843 -0.837402 4.40788 -1.84843zm-16.6583 6.98386c-0.0637796,0.0129921 -0.12874,0.0259843 -0.193701,0.0366142 -0.747638,0.132284 -1.50945,0.231496 -2.27126,0.276378 -0.43937,0.219685 -0.907087,0.464174 -1.39134,0.733465 -0.23504,0.138189 -0.480709,0.279921 -0.726379,0.435827l0.111024 0.393307 4.47166 -1.87559zm-4.74449 0.245669c-0.0661418,-0.00708662 -0.129921,-0.0165354 -0.193701,-0.0271654l0.0283465 0.0992127c0.0543308,-0.0248032 0.108662,-0.0472441 0.165354,-0.0720473z"/>
  <path class="fil5" d="M1331.52 715.023c0,0 -0.548032,0.164173 -1.47638,0.486615 -0.925985,0.315355 -2.28189,0.689764 -3.89764,1.00394 -0.787796,0.152362 -1.63937,0.257481 -2.52874,0.31063 -0.0271654,0 -0.0507874,0.0011811 -0.0755906,0.00354331 -0.915355,0.0236221 -1.88268,0.00472441 -2.80866,-0.212599 -0.923623,-0.211417 -1.8378,-0.564567 -2.55591,-1.16575 -0.729922,-0.583465 -1.2815,-1.38189 -1.64764,-2.28662 -0.216142,-0.576378 -0.421654,-1.36181 -0.500788,-2.07284 -0.0318898,-0.291733 -0.0425197,-0.571654 -0.022441,-0.818505 0.0614174,-0.918898 0.291733,-1.83307 0.84567,-2.59606 0.832678,-1.31221 2.11181,-2.28071 3.32481,-3.03662 0.245669,-0.154725 0.491339,-0.298819 0.726379,-0.435827 0.484252,-0.269292 0.951969,-0.51378 1.39134,-0.733465 -0.766536,0.046063 -1.53071,0.0318898 -2.27953,-0.0673229 -0.056693,0.0248032 -0.111024,0.0472441 -0.165354,0.0708662 -0.630709,0.277559 -1.28386,0.622441 -1.93819,1.03819 -0.837402,0.576378 -1.73858,1.24488 -2.42008,2.22166 -0.729922,0.920079 -1.21181,2.1626 -1.29803,3.43347l-0.00236221 0.961418c0.00354331,0.109843 0.011811,0.20315 0.0200788,0.285827 0.0271654,0.243307 0.0720473,0.390945 0.0992127,0.623623 0.0011811,0.0141732 0.00354331,0.0259843 0.00472441,0.0389764 0.056693,0.517323 0.276378,1.16693 0.46063,1.77165 0.490158,1.17638 1.27087,2.26417 2.29134,3.03898 1.00512,0.818505 2.24055,1.15748 3.3626,1.35827 1.14449,0.207874 2.23937,0.106299 3.24449,-0.0188977 0.108662,-0.0153543 0.217323,-0.0318898 0.323622,-0.0496063 0.879922,-0.145276 1.68898,-0.366142 2.42008,-0.617717 1.65118,-0.542126 2.90433,-1.24725 3.77481,-1.71378 0.8563,-0.509056 1.32756,-0.822048 1.32756,-0.822048z"/>
  <path class="fil5" d="M1336.18 698.017c0,0 -1.50709,0.465355 -3.77008,1.15984 -2.23937,0.683859 -5.20394,1.62402 -8.1815,2.16732 -0.744095,0.155906 -1.48701,0.252756 -2.21339,0.323622 -0.726379,0.0330709 -1.44331,0.108662 -2.11536,0.0448819 -0.191339,-0.00826772 -0.377953,-0.0248032 -0.558662,-0.046063 -0.0944883,-0.00944883 -0.184252,-0.0200788 -0.272835,-0.0354331l-2.41772 0.591733c0.848032,0.584646 1.93465,0.987402 3.06496,1.13622 0.0354331,0.00590552 0.0708662,0.011811 0.106299,0.0165354 0.0637796,0.0106299 0.12874,0.0200788 0.193701,0.0271654 0.747638,0.0992127 1.51417,0.113386 2.27953,0.0673229 0.760631,-0.0448819 1.52362,-0.144095 2.27126,-0.276378 0.0637796,-0.00944883 0.129921,-0.0236221 0.193701,-0.0366142 3.13819,-0.617717 6.01536,-1.87441 8.07048,-2.98937 0.891733,-0.479528 1.62756,-0.938977 2.1815,-1.30866 0.754725,-0.50315 1.16811,-0.842127 1.16811,-0.842127z"/>
  <path class="fil6" d="M1329.22 709.653c-0.311811,-2.84292 -2.86654,-4.89449 -5.71418,-4.5815 -1.10079,0.120473 -2.08229,0.578741 -2.85473,1.26024l2.53701 8.9941c0.467717,0.080315 0.954331,0.0980316 1.44921,0.0437008 2.84764,-0.312992 4.89567,-2.87481 4.58268,-5.71654z"/>
  <path class="fil6" d="M1323.19 715.326l-2.53701 -8.99292c-1.22244,1.07599 -1.91811,2.71063 -1.72677,4.4504 0.257481,2.34685 2.04921,4.15748 4.26378,4.54252z"/>
  <path class="fil0" d="M1144.21 1007.37c21.2197,20.6658 45.9945,37.6512 68.752,23.3811 22.7622,-14.2654 25.5012,-37.2508 11.2323,-60.0189l-112.645 -169.662c-18.0756,-28.8142 -48.6296,-19.5969 -77.452,-1.51654 -28.826,18.0732 -36.0744,39.3803 -18,68.1993l128.113 139.617z"/>
  <path class="fil0" d="M1100.61 1140.83c-6.23386,19.3843 4.42441,24.9567 24.2977,34.5496 19.8697,9.58229 34.2839,5.7626 43.8709,-14.113l58.35 -141.888c9.58702,-19.8756 1.25079,-43.7611 -18.6201,-53.3481 -19.8732,-9.58465 -32.1166,2.04921 -47.6835,17.6941 -29.6469,29.7886 -60.2138,157.106 -60.215,157.106z"/>
  <path class="fil7" d="M1110.28 1104.45c4.38898,1.65 8.7756,3.30355 13.1563,4.97008 19.2532,7.30749 38.4012,15.3248 58.376,20.1614l-13.0347 31.6925c-9.58583,19.8756 -24,23.6953 -43.8697,14.113 -19.8744,-9.59292 -30.5315,-15.1654 -24.2965,-34.5496 -0.0011811,0 3.6567,-15.2315 9.66851,-36.3874z"/>
  <path class="fil8" d="M981.755 794.819c1.63937,-1.39606 127.545,3.68268 129.253,5.68229l64.1315 88.8792c-22.265,22.2732 -62.8808,69.2823 -85.1469,91.5426l-115.228 -99.2599c-22.0488,-25.9099 -18.9201,-64.7918 6.99095,-86.8442z"/>
  <path class="fil9" d="M1095.12 1139.27c0,0 -4.85315,15.287 -17.0374,33.2374 -4.15748,6.12284 -5.29489,16.7504 -7.90394,22.0465 -10.7268,2.32677 -14.1248,27.2882 -12.2917,31.6547 1.59095,7.30867 37.8414,14.5417 60.6768,6.50315 15.8894,-5.59016 28.8,-0.287008 46.6701,5.01378 17.0575,5.06339 38.6315,10.1256 71.6292,5.71063 32.4662,-4.3441 25.8036,-35.2701 15.0532,-43.5107 -15.0437,-6.63898 -31.6158,-7.22008 -44.2548,-9.19607 -39.3425,-6.12756 -16.9654,-27.3732 -39.7028,-40.9359 -19.4126,11.1756 -36.3579,17.1662 -47.9729,13.8626 -17.6847,-5.02678 -15.6402,-24.0508 -24.8658,-24.3862z"/>
  <path class="fil10" d="M1112.39 1216.49c-16.7221,5.88898 -39.6922,4.63347 -54.6178,0.779528 1.15039,-8.93387 5.05748,-21.1276 12.3969,-22.7197 2.60906,-5.29607 3.74646,-15.9236 7.90394,-22.0465 12.1843,-17.9504 17.0386,-33.2374 17.0386,-33.2374 9.22442,0.335433 7.17993,19.3595 24.8646,24.3862 11.615,3.30355 28.5603,-2.68701 47.9729,-13.8626 22.7374,13.5626 0.360236,34.8083 39.7028,40.9359 12.639,1.97599 29.211,2.55709 44.2548,9.19607 5.85,4.48583 10.474,15.6815 8.25709,25.663 -3.34607,1.47402 -7.3193,2.59134 -12.0071,3.21851 -37.8697,5.06339 -62.6292,-0.746457 -82.206,-6.5563 -20.5075,-6.08741 -35.3244,-12.1736 -53.5607,-5.7567z"/>
  <path class="fil11" d="M1068.02 1195.39c0.683859,-0.37441 1.39725,-0.675591 2.15197,-0.837402 2.60906,-5.29607 3.74646,-15.9236 7.90394,-22.0465 12.1843,-17.9504 17.0386,-33.2374 17.0386,-33.2374 9.22442,0.335433 7.17993,19.3595 24.8646,24.3862 11.615,3.30355 28.5603,-2.68701 47.9729,-13.8626 22.7374,13.5626 11.6492,34.8083 50.9918,40.9359 12.6425,1.97599 17.9221,2.55709 32.9658,9.19607 1.45158,1.12559 2.82638,2.64921 4.04055,4.45748 -3.41221,2.00433 -7.74213,3.49961 -13.2012,4.23071 -32.9953,4.4126 -54.5717,-0.647245 -71.6292,-5.71063 -17.8725,-5.30315 -30.7819,-10.6063 -46.6725,-5.01378 -18.5445,6.52205 -45.9378,2.98465 -56.4272,-2.49803z"/>
  <path class="fil9" d="M1144.28 1183.79c-13.8602,2.60551 -31.8803,6.33662 -45.9508,2.96339 -8.2382,-1.97599 -15.3295,-6.34371 -21.7028,-11.6976 0.442914,-0.907087 0.924804,-1.76457 1.45276,-2.54882 12.1843,-17.9504 17.0386,-33.2374 17.0386,-33.2374 9.22442,0.335433 7.17993,19.3595 24.8646,24.3862 11.4083,3.24449 27.9591,-2.48386 46.9382,-13.2768 -2.92087,12.2516 -8.79804,30.8044 -22.6406,33.411z"/>
  <path class="fil12" d="M1175.38 1189.46c0.989765,2.29725 3.64843,3.35197 5.93741,2.35748l15.3059 -6.60945c2.29252,-0.989765 3.34725,-3.64252 2.35984,-5.93859 -0.992127,-2.28898 -3.64843,-3.34607 -5.94095,-2.3504l-15.3095 6.60355c-2.28425,0.989765 -3.34252,3.65315 -2.35276,5.93741z"/>
  <path class="fil12" d="M1167.26 1177.11c0.905906,2.09528 3.33662,3.0626 5.42953,2.15669l14.0079 -6.04725c2.09764,-0.907087 3.06024,-3.3437 2.15788,-5.43308 -0.907087,-2.09291 -3.33544,-3.06024 -5.43308,-2.15788l-14.0091 6.05079c-2.09528,0.902363 -3.06142,3.33189 -2.15315,5.43071z"/>
  <path class="fil12" d="M1159.88 1165.72c0.905906,2.09882 3.33662,3.0626 5.43426,2.16024l14.0055 -6.05079c2.09646,-0.910631 3.0626,-3.34252 2.15669,-5.43308 -0.905906,-2.09291 -3.33662,-3.06496 -5.43189,-2.15197l-14.0055 6.04371c-2.10118,0.900001 -3.0626,3.33189 -2.15906,5.43189z"/>
  <path class="fil13" d="M1210.99 1189.12c-0.0106299,-0.00472441 -0.022441,-0.00590552 -0.034252,-0.0106299 0.00944883,0.00236221 0.0248032,0.00708662 0.034252,0.0106299l0 0zm-0.0590552 -0.0165354c-5.29843,-1.35945 -9.4004,-3.08504 -12.6933,-5.06575 -0.00236221,0.00354331 -0.00590552,0.00708662 -0.00826772,0.00944883 3.29055,1.97953 7.40316,3.7004 12.7016,5.0563l0 0zm-20.1118 -11.224l2.22402 -0.957875 -2.21457 0.95315c-0.994489,-1.13504 -1.88858,-2.29961 -2.71418,-3.4937 0.822048,1.19646 1.7126,2.36693 2.70473,3.49843z"/>
  <path class="fil14" d="M1212.57 1245.12c0.00354331,0 0.00590552,0 0.00944883,0 -0.00354331,0 -0.00472441,0 -0.00944883,0l0 0zm-0.011811 0c-19.5768,-0.00354331 -34.2579,-3.55158 -46.5662,-7.1752 12.3106,3.62362 26.9882,7.17284 46.5662,7.1752zm23.6823 -1.6063c0.00236221,0 0.00708662,-0.00236221 0.00826772,-0.00236221 -0.0011811,0 -0.00590552,0.00236221 -0.00826772,0.00236221zm0.622441 -0.0838583l0 0c0.0283465,-0.00354331 0.0543308,-0.00590552 0.0826772,-0.0106299 -0.0283465,0.00472441 -0.0543308,0.00708662 -0.0826772,0.0106299l0 0zm0.114567 -0.0141732c0.0188977,-0.00354331 0.0330709,-0.00590552 0.0507874,-0.00826772 -0.0165354,0.00236221 -0.034252,0.00472441 -0.0507874,0.00826772zm0.0874016 -0.011811c0.0236221,-0.00472441 0.0507874,-0.00826772 0.0755906,-0.00944883 -0.0271654,0.0011811 -0.0496063,0.00472441 -0.0755906,0.00944883zm0.116929 -0.0165354c0.0129921,-0.0011811 0.0236221,-0.00354331 0.0354331,-0.00590552 -0.0129921,0.00236221 -0.022441,0.00472441 -0.034252,0.00590552l-0.0011811 0zm0.0862205 -0.011811c0.00708662,-0.00236221 0.0153543,-0.00354331 0.0236221,-0.00354331 -0.0106299,0.0011811 -0.0141732,0.0011811 -0.0236221,0.00354331zm0.210236 -0.0307087c0.0011811,0 0.00354331,-0.00236221 0.00354331,-0.00236221 -0.00236221,0 -0.00236221,0.00236221 -0.00354331,0.00236221zm-72.6119 -5.73308c-0.0555119,-0.0177165 -0.108662,-0.0318898 -0.162992,-0.0496063 0.0543308,0.0177165 0.10748,0.0318898 0.164173,0.0496063l-0.0011811 0zm-0.448819 -0.134646c-12.085,-3.61299 -21.9201,-7.15158 -32.0233,-7.1563 10.1032,0.00472441 19.9394,3.54331 32.0233,7.1563l0 0zm-45.854 -4.77166c0.0543308,-0.0177165 0.10748,-0.0366142 0.161811,-0.056693 -0.0555119,0.0200788 -0.10748,0.0389764 -0.161811,0.056693l0 0zm13.8047 -2.38465c0.0011811,0 0.00590552,0 0.00826772,0l0 0c-0.00236221,0 -0.00590552,0 -0.00826772,0z"/>
  <path class="fil13" d="M1198.9 1179.09c-0.77126,-1.58977 -2.36811,-2.53701 -4.04646,-2.54173 1.67835,0.00472441 3.2752,0.951969 4.04646,2.54292l0 -0.0011811zm-5.81457 -2.18504c0.0177165,-0.00826772 0.0377953,-0.0165354 0.0578741,-0.0248032 -0.0200788,0.00826772 -0.0401575,0.0165354 -0.0578741,0.0248032l0 0zm1.74449 -0.356693c0.00354331,0 0.00590552,0 0.0106299,0l-0.0011811 0c-0.00354331,0 -0.00590552,0 -0.00944883,0l0 0zm-5.99174 -8.80867c-0.682678,-1.52953 -2.18268,-2.44606 -3.76063,-2.45197 1.57795,0.00826772 3.07796,0.922442 3.76063,2.45197l0 0zm-5.3504 -2.14016c0.00472441,-0.0011811 0.00826772,-0.00354331 0.0141732,-0.00590552 -0.00590552,0.00236221 -0.00944883,0.00472441 -0.0141732,0.00590552zm1.5626 -0.311811c0.00236221,0 0.00472441,0 0.00708662,0l-0.0011811 0c-0.0011811,0 -0.00354331,0 -0.00590552,0z"/>
  <path class="fil11" d="M1164.48 1159.24l10.2059 -4.40197c0,-0.00236221 -0.00236221,-0.00236221 -0.00236221,-0.00354331l-0.0141732 0.00590552c-0.740552,-0.696851 -1.5378,-1.38071 -2.39173,-2.06221l0.00472441 -0.0141732c-1.29449,-1.02284 -2.72599,-2.01496 -4.32638,-2.97047l0 0c-0.347244,0.200788 -0.693308,0.399213 -1.03701,0.595276 -0.649607,2.72244 -1.44331,5.75315 -2.43898,8.85119z"/>
  <path class="fil15" d="M1179.52 1192.2c0.596457,0 1.20591,-0.119291 1.79173,-0.37441l15.3059 -6.60945c0.634252,-0.272835 1.1752,-0.675591 1.60394,-1.16339 0.0011811,-0.00236221 0.00590552,-0.00590552 0.00826772,-0.00944883 -0.00472441,-0.00236221 -0.00826772,-0.00472441 -0.0141732,-0.00944883 1.11024,-1.2685 1.47165,-3.09685 0.761812,-4.7563 -0.0295276,-0.0625985 -0.0555119,-0.122835 -0.0862205,-0.18189 -0.77126,-1.59095 -2.36811,-2.53819 -4.04646,-2.54292 -0.00590552,0 -0.00944883,0 -0.0129921,0 -0.00472441,0 -0.00708662,0 -0.0106299,0 -0.563386,0 -1.13386,0.10748 -1.68662,0.33189 -0.0200788,0.00826772 -0.0401575,0.0165354 -0.0578741,0.0248032 -0.0153543,0.00590552 -0.0283465,0.011811 -0.0401575,0.0177165l-0.0011811 0 -2.22402 0.957875 -13.0843 5.64567c-2.28425,0.989765 -3.34252,3.65315 -2.35276,5.93741 0.737008,1.71024 2.39882,2.73189 4.14567,2.73189z"/>
  <path class="fil15" d="M1171.05 1179.6c0.546851,0 1.10197,-0.108662 1.63347,-0.338977l14.0079 -6.04725c0.165354,-0.0720473 0.325985,-0.153543 0.478347,-0.244488 -0.00236221,-0.00472441 -0.00708662,-0.00944883 -0.00826772,-0.0141732 1.75866,-1.05118 2.51929,-3.24095 1.6878,-5.17441 -0.00826772,-0.0141732 -0.0141732,-0.0295276 -0.0200788,-0.0437008 -0.682678,-1.52953 -2.18268,-2.4437 -3.76063,-2.45197 -0.00708662,0 -0.0129921,0 -0.0200788,0 -0.00236221,0 -0.00472441,0 -0.00708662,0 -0.516142,0 -1.04173,0.0992127 -1.54843,0.305906 -0.00590552,0.00236221 -0.00944883,0.00472441 -0.0141732,0.00590552 -0.0200788,0.00826772 -0.0425197,0.0165354 -0.0625985,0.0259843l-0.45 0.194882c0,0 0,0 0,0l-13.5591 5.85591c-2.09528,0.902363 -3.06142,3.33189 -2.15197,5.43071 0.673229,1.56024 2.19567,2.49567 3.79488,2.49567z"/>
  <path class="fil16" d="M1181.47 1156.4c-0.672048,-1.55315 -2.1815,-2.4874 -3.77244,-2.49449 1.58977,0.00708662 3.10158,0.941339 3.77362,2.49449l-0.0011811 0zm-3.79725 -2.49449c0.00236221,0 0.00472441,0 0.00590552,0l0 0c-0.00236221,0 -0.00354331,0 -0.00590552,0z"/>
  <path class="fil15" d="M1163.68 1168.22c0.546851,0 1.10197,-0.109843 1.63583,-0.337796l14.0055 -6.05079c0.309449,-0.135827 0.597638,-0.303544 0.8563,-0.499607 -0.00472441,-0.00472441 -0.00590552,-0.00826772 -0.0106299,-0.0129921 1.48819,-1.11732 2.0811,-3.13701 1.31102,-4.92048l-0.0011811 0c-0.672048,-1.55315 -2.1815,-2.4874 -3.77244,-2.49449 -0.00708662,0 -0.011811,0 -0.0188977,0 -0.00236221,0 -0.00354331,0 -0.00590552,0 -0.546851,0 -1.10079,0.112205 -1.63347,0.34252l0 0 -1.35827 0.587008 -10.2059 4.40197 -2.44134 1.05473c-2.10118,0.900001 -3.0626,3.33189 -2.15906,5.43189 0.316536,0.734646 0.823229,1.33228 1.43504,1.75748 0.688583,0.479528 1.51654,0.740552 2.36339,0.740552z"/>
  <path class="fil17" d="M1718.06 768.786c0,0 2.5063,-128.542 -27.4713,-160.811l20.55 -96.4879 -55.0914 57.3815 6.83859 -68.8678 -50.5276 66.5776c0,0 -140.243,-103.41 -285.001,140.01 0,0 -2.34567,4.5567 -6.83504,12.2811 -37.9866,65.3693 -77.8619,150.15 -149.112,163.51l-51.463 9.15001 -40.0276 1.14331c-146.849,11.2902 -408.394,-56.1355 -487.507,60.0272 0,0 -213.676,-59.7225 -220.531,218.191 0,0 34.5579,163.133 -50.5276,195.352 0,0 119.395,45.9615 163.084,-236.75 0,0 -4.56615,-114.83 77.9965,-130.814 0,0 -45.73,89.6505 0,229.66 0,0 23.1225,75.7075 -38.8902,131.048 0,0 -45.9626,-4.79646 -55.0926,130.815 0,0 -71.3906,124.026 -43.6878,179.118 0,0 18.2764,29.9941 9.12993,43.6878 0,0 -43.6725,20.8488 11.4201,59.7237 0,0 64.5355,27.6366 50.543,-25.1811 0,0 -41.3977,-121.902 13.9925,-229.662 0,0 165.358,-177.01 181.343,-218.406 0,0 64.304,4.79646 75.7229,89.6493 0,0 -27.4051,121.919 29.9776,174.736 0,0 39.1229,165.424 85.0855,165.424 0,0 -2.29016,52.8178 64.2875,52.8178 0,0 66.5941,-2.52284 29.7614,-41.3977 0,0 -137.737,-20.6162 -128.591,-275.873 0,0 39.1075,-140.01 39.1075,-204.248 0,0 266.494,91.7079 365.339,32.2181 0,0 6.85512,208.863 -29.9764,330.781 0,0 -34.3276,68.869 15.9839,84.8528 0,0 -36.6,80.5217 16.2839,80.5217 0,0 68.8016,15.9839 64.2201,-25.4138 0,0 -18.2587,-45.7453 -38.8737,-59.6717 0,0 -29.9268,-73.4339 13.7599,-156.229 0,0 66.5292,-176.842 64.2378,-234.241 0,0 101.137,48.2528 156.227,105.702 0,0 29.9788,77.9977 -22.839,147.031 0,0 -32.2512,27.704 -29.9776,48.3201 0,0 -57.4489,-25.1811 -59.7225,55.0914 0,0 6.90591,80.5205 52.8674,0 0,0 105.469,-73.4174 128.542,-193.061 0,0 22.8886,-77.9977 -41.3977,-123.96 0,0 -52.8178,-82.5627 -80.289,-98.8465 0,0 84.8528,-107.924 38.8914,-206.521 0,0 -38.8914,-29.9941 -11.4201,-89.6505 24.8858,-45.1713 55.7067,-127.123 57.3815,-186.455 5.89607,21.5977 42.287,72.5859 71.3753,85.0855 0,0 0,78.2304 64.3028,75.9556 0,-0.217323 53.2394,-2.00551 44.1355,-111.875 -1.24488,-15.0319 -3.65906,-32.0882 -7.53426,-51.4394z"/>
  <path class="fil18" d="M1602.28 560.55c-34.5992,-18.078 -153.154,-58.7126 -274.916,146.039 0,0 -2.34567,4.5567 -6.83504,12.2811 -14.6232,25.1658 -29.5311,53.2063 -46.3973,78.9426l-0.00708662 0.0177165 59.4886 -63.0154 12.437 39.515c0,0 8.29134,-51.6662 9.00591,-57.3839 0.715749,-5.7189 25.7315,37.8815 25.7315,37.8815 0,0 0.715749,-72.9048 1.42913,-78.6237 0.714567,-5.71772 18.5847,58.6111 18.5847,58.6111l20.928 -73.3323 29.1047 62.3209c26.3953,-78.7264 -5.40119,-54.0768 -0.793701,-109.135l32.9587 40.8083 -0.714567 -75.7666c0,0 10.1492,48.2374 14.2961,55.0371 1.23543,2.02914 -6.77599,-19.05 27.8752,-48.6036 9.60119,2.60315 -2.74488,71.08 -5.71772,107.215 -0.589371,7.15749 45.7441,-131.517 45.7441,-131.517l4.28859 35.7378c0,0 23.341,-24.7193 33.5091,-37.0288z"/>
  <path class="fil16" d="M1174.68 1154.83l1.35827 -0.587008 -1.36063 0.582284c0,0.00236221 0.00236221,0.00236221 0.00236221,0.00472441l0 0zm-2.40355 -2.07402l54.8493 -133.377 -54.8493 133.377zm58.9784 -166.537c-0.0011811,-0.00472441 -0.0011811,-0.00472441 -0.0011811,-0.00826772 0,0.0011811 0,0.00590552 0.0011811,0.00826772l0 0zm-0.0200788 -0.0708662c-1.45158,-5.08111 -3.81142,-10.2555 -7.04882,-15.4193 3.23504,5.16378 5.59725,10.3382 7.04882,15.4193zm-59.0634 -93.7607c1.01457,-1.0441 2.01496,-2.05158 2.96457,-3.00945l0 -0.0011811c-0.955513,0.957875 -1.94764,1.96063 -2.96811,3.00473l0.00354331 0.00590552z"/>
  <path class="fil0" d="M907.205 1183.25c-8.5193,18.4925 1.39961,25.304 19.9736,37.2012 18.5823,11.9043 33.352,9.83623 45.2516,-8.74489l70.9902 -133.804c11.9008,-18.5764 6.48544,-43.2933 -12.0933,-55.1882 -18.5811,-11.9067 -32.1248,-1.81417 -49.4552,11.85 -33.0036,26.0268 -74.667,148.686 -74.667,148.686z"/>
  <path class="fil7" d="M927.178 1220.45c-18.5728,-11.8984 -28.4906,-18.7099 -19.9725,-37.2024 0,0 8.89253,-26.2004 21.7264,-56.9445 6.25985,3.26811 12.3449,6.8315 18.2599,10.0784 15.0425,8.24764 29.9032,16.924 45.3733,24.3685 1.82362,0.884646 3.67087,1.74331 5.5063,2.61851l-25.6406 48.3355c-11.8996,18.5811 -26.6693,20.6492 -45.2528,8.74607z"/>
  <path class="fil0" d="M968.422 1006.54c3.37914,29.439 11.8441,58.2508 38.5063,61.5721 26.6551,3.33189 43.3063,-12.7547 46.6311,-39.4051l26.0764 -196.073c4.213,-33.7642 -10.2567,-36.0674 -44.0162,-40.278l0.558662 4.10079c-33.7689,-4.21181 -74.5879,-12.8327 -78.802,20.9232l11.0457 189.16z"/>
  <path class="fil19" d="M913.538 1167.66c0,0 -10.9701,11.6976 -29.6977,22.6441 -6.38977,3.72992 -11.9988,12.8268 -16.6335,16.4823 -10.6866,-2.5252 -24.5114,18.5362 -24.7382,23.2606 -1.71496,7.28623 27.8729,29.4366 51.9437,32.0256 32.7355,3.53386 37.2603,39.7111 102.123,60.6756 31.1658,10.0784 38.4827,-20.7047 32.3315,-32.7626 -10.7114,-12.4807 -25.4067,-20.1555 -35.9622,-27.3839 -19.1291,-13.0878 -17.178,-21.7843 -15.0992,-31.1162 1.49055,-6.69686 3.04961,-13.7221 -3.08268,-22.9323 -22.3347,1.71378 -40.2024,-0.18189 -49.2579,-8.17442 -13.787,-12.1595 -3.74055,-28.4457 -11.9268,-32.7189z"/>
  <path class="fil20" d="M895.842 1244.78c-17.6256,-1.89803 -37.813,-12.9343 -49.6134,-22.8402 4.88741,-7.57205 13.6665,-16.8898 20.9788,-15.1606 4.63465,-3.65551 10.2437,-12.7524 16.6335,-16.4823 18.7276,-10.9465 29.6977,-22.6453 29.6977,-22.6453 8.18623,4.27559 -1.86024,20.5606 11.9268,32.7201 9.05434,7.99371 26.9244,9.8882 49.2579,8.17442 6.13229,9.21024 4.57323,16.2354 3.08268,22.9323 -2.07874,9.33308 -4.02992,18.0284 15.0992,31.1162 10.5555,7.22835 25.2508,14.9032 35.9622,27.3839 3.34961,6.55867 2.69646,18.6543 -3.60236,26.7036 -3.6567,-0.102756 -7.72323,-0.817323 -12.2197,-2.27008 -74.4414,-24.0638 -79.63,-65.5843 -117.203,-69.6319z"/>
  <path class="fil21" d="M864.899 1206.61c0.775985,-0.0413386 1.55197,-0.00354331 2.30788,0.170079 4.63465,-3.65551 10.2437,-12.7524 16.6335,-16.4823 18.7276,-10.9465 29.6977,-22.6453 29.6977,-22.6453 8.18623,4.27559 -1.86024,20.5606 11.9268,32.7201 9.05434,7.99371 26.9244,9.8882 49.2579,8.17442 14.6693,22.0394 -4.49174,36.4311 28.363,58.9158 10.5638,7.23426 15.0697,10.0358 25.7811,22.5166 0.827953,1.62402 1.41614,3.59882 1.72795,5.7567 -3.9437,0.333071 -8.49449,-0.185433 -13.7339,-1.87677 -64.8615,-20.9646 -69.3863,-57.1465 -102.121,-60.6733 -19.5449,-2.10827 -42.7359,-17.1118 -49.8414,-26.576z"/>
  <path class="fil19" d="M938.705 1229.01c-13.6181,-3.62244 -31.4918,-8.02087 -42.7335,-17.1319 -6.57875,-5.32796 -11.0988,-12.3295 -14.5406,-19.9063 0.788977,-0.627166 1.59803,-1.19528 2.40945,-1.67244 18.7276,-10.9465 29.6977,-22.6453 29.6977,-22.6453 8.18623,4.27559 -1.86024,20.5606 11.9268,32.7201 8.89016,7.84489 26.3067,9.80552 48.0685,8.25473 -7.91339,9.79843 -21.2114,24.0012 -34.8284,20.3811z"/>
  <path class="fil12" d="M964.324 1247.55c-0.0956694,2.49331 1.84843,4.59213 4.34055,4.68544l16.6559 0.636615c2.49803,0.090945 4.59213,-1.84961 4.68544,-4.34646 0.0992127,-2.48622 -1.84488,-4.58741 -4.33347,-4.68189l-16.6677 -0.634252c-2.49331,-0.0956694 -4.58741,1.84606 -4.68071,4.34055z"/>
  <path class="fil12" d="M962.318 1232.9c-0.0838583,2.2748 1.69606,4.19528 3.97677,4.27914l15.2469 0.584646c2.28189,0.0862205 4.19764,-1.69016 4.28386,-3.97441 0.0897638,-2.27835 -1.68662,-4.20237 -3.96496,-4.28859l-15.2528 -0.582284c-2.28307,-0.0862205 -4.2,1.69488 -4.28977,3.9815z"/>
  <path class="fil12" d="M960.572 1219.44c-0.090945,2.27953 1.69134,4.19646 3.96969,4.28504l15.2551 0.582284c2.27599,0.0874016 4.18937,-1.6937 4.2815,-3.97323 0.0885827,-2.27953 -1.69134,-4.19882 -3.97559,-4.2874l-15.2469 -0.578741c-2.27717,-0.0921261 -4.19055,1.69016 -4.28386,3.97205z"/>
  <path class="fil16" d="M1030.33 1294.27l-0.0177165 -0.0980316 -0.0188977 -0.0708662c0.011811,0.056693 0.0248032,0.112205 0.0366142,0.168898zm-0.421654 -1.65118l-0.00826772 -0.0377953c-0.011811,-0.0354331 -0.0236221,-0.0708662 -0.034252,-0.106299 0.0153543,0.0472441 0.0283465,0.0944883 0.0437008,0.142913l-0.0011811 0.0011811zm-0.692127 -1.88858c-0.108662,-0.257481 -0.225591,-0.505512 -0.35315,-0.748819 -10.7114,-12.4807 -15.2162,-15.2823 -25.7811,-22.5166l0 0c10.5638,7.23426 15.0697,10.0358 25.7811,22.5166l0 0.0011811c0.122835,0.240945 0.242126,0.490158 0.35315,0.747638l0 0zm-32.4981 32.0729c-0.011811,-0.00236221 -0.0200788,-0.00708662 -0.0318898,-0.00944883 0.00944883,0.00236221 0.022441,0.00708662 0.0318898,0.00944883zm-0.0874016 -0.0283465c-0.0330709,-0.00826772 -0.0661418,-0.0188977 -0.0992127,-0.0307087 0.0330709,0.011811 0.0661418,0.0200788 0.0992127,0.0307087zm3.43701 -57.4559c-0.00354331,-0.00236221 -0.00472441,-0.00472441 -0.00826772,-0.00826772 0.00354331,0.00354331 0.00472441,0.00590552 0.00826772,0.00826772l0 0zm-0.0649607 -0.0484252c-6.08741,-4.53307 -10.0701,-8.74371 -12.7193,-12.7689 -0.00708662,0.00236221 -0.0141732,0.00590552 -0.0212599,0.00826772 2.6563,4.02166 6.65552,8.23229 12.7406,12.7606l0 0zm-14.3351 -21.4288l-2.41418 -0.090945c-0.569292,-2.01614 -0.934253,-4.01457 -1.1811,-6 -0.00236221,-0.0011811 -0.00236221,-0.0011811 -0.00236221,0.0011811 0.245669,1.99016 0.598819,3.9815 1.16693,5.99646l2.43071 0.0933072zm-3.81142 -14.3398l-0.491339 -0.0212599 -0.0011811 0.00236221 0.49252 0.0188977zm-7.59213 -20.9185c-0.0614174,0.00472441 -0.124016,0.00826772 -0.188977,0.011811l0 0.00236221c0.0649607,-0.00354331 0.126378,-0.0106299 0.188977,-0.0141732zm-75.9638 54.0815c-1.25433,-0.251575 -2.55,-0.451181 -3.89174,-0.596457 -0.0307087,-0.0011811 -0.0590552,-0.00590552 -0.0862205,-0.00944883 0.0271654,0.00354331 0.0555119,0.00708662 0.0862205,0.00944883 1.34173,0.145276 2.6374,0.343701 3.89174,0.596457l0 0zm15.0225 -96.5552c-0.121654,0.330709 -0.238583,0.646063 -0.351969,0.96378 1.86614,-5.08819 2.77795,-7.76812 0.351969,-0.96378zm-0.52441 1.42913c-0.068504,0.187795 -0.13937,0.37441 -0.209055,0.558662 -0.0968505,0.272835 -0.196063,0.536221 -0.290551,0.809056 -0.702756,0.690945 -1.69961,1.6441 -2.9752,2.80394 1.27441,-1.15748 2.27126,-2.11181 2.9752,-2.80276 0.162992,-0.447638 0.329528,-0.903544 0.499607,-1.37008l0 0.0011811zm-19.0677 94.4528c-0.0389764,-0.00590552 -0.0767717,-0.011811 -0.114567,-0.0153543 0.0377953,0.00472441 0.0755906,0.00944883 0.114567,0.0153543l0 0zm-6.0567 -74.0115c-0.00236221,0.00354331 -0.00708662,0.00472441 -0.011811,0.00708662 0.00236221,-0.0011811 0.00944883,-0.00590552 0.011811,-0.00708662zm-0.0992127 0.0625985c-0.00472441,0.00354331 -0.011811,0.00590552 -0.0188977,0.0106299 0.00708662,-0.00472441 0.011811,-0.00826772 0.0188977,-0.0106299zm-0.0921261 0.0555119c-0.00944883,0.00708662 -0.0188977,0.0129921 -0.0283465,0.0188977 0.00944883,-0.00590552 0.0188977,-0.011811 0.0283465,-0.0188977l0 0zm-0.0968505 0.0614174c-0.0236221,0.0141732 -0.0472441,0.0295276 -0.0708662,0.0437008 0.0236221,-0.0141732 0.0472441,-0.0295276 0.0708662,-0.0437008l0 0zm-0.113386 0.0708662c-0.0212599,0.0141732 -0.0448819,0.0271654 -0.0661418,0.0425197 0.0212599,-0.0153543 0.0448819,-0.0295276 0.0673229,-0.0437008l-0.0011811 0.0011811zm-0.0874016 0.0519685c-0.0212599,0.0153543 -0.046063,0.0295276 -0.0673229,0.0437008 0.022441,-0.0141732 0.0448819,-0.0283465 0.068504,-0.0437008l-0.0011811 0zm-0.0874016 0.0543308c-0.10748,0.0673229 -0.216142,0.134646 -0.324803,0.201969 0.108662,-0.0673229 0.217323,-0.134646 0.325985,-0.201969l-0.0011811 0zm-0.324803 0.200788c-0.840946,0.517323 -1.70079,1.03583 -2.57835,1.54843 0.87756,-0.514961 1.73504,-1.02992 2.57835,-1.54725l0 -0.0011811zm-2.5878 1.55551c-0.0212599,0.0141732 -0.0448819,0.0259843 -0.0661418,0.0401575 0.0212599,-0.0141732 0.0448819,-0.0283465 0.0661418,-0.0401575zm-0.0992127 0.0578741c-0.0177165,0.0106299 -0.0389764,0.0236221 -0.0578741,0.034252 0.0188977,-0.0106299 0.0377953,-0.0212599 0.0590552,-0.034252l-0.0011811 0zm-0.105118 0.0625985c-0.0165354,0.0106299 -0.034252,0.0188977 -0.0507874,0.0283465 0.0165354,-0.00826772 0.0354331,-0.0200788 0.0519685,-0.0295276l-0.0011811 0.0011811zm-31.9571 52.663c-6.2941,-5.11418 -10.135,-9.97442 -9.57639,-12.7559l0 0.0011811c-0.558662,2.78032 3.28465,7.64056 9.57639,12.7536l0 0.0011811zm3.79725 -32.0185l-0.0377953 0.0318898c-0.0921261,0.0744095 -0.180709,0.148819 -0.270473,0.225591 0.101575,-0.0862205 0.205512,-0.17126 0.309449,-0.257481l-0.0011811 0zm-12.7287 16.878c-0.0011811,0.00236221 0,0.00354331 -0.0011811,0.00590552 0,-0.0011811 0.0011811,-0.00354331 0.0011811,-0.00590552l0 0zm-0.00354331 0.00826772c-0.265748,0.66378 -0.451181,1.24843 -0.549213,1.73268 -0.0413386,0.209055 -0.0673229,0.398032 -0.0744095,0.565748 0.00708662,-0.167717 0.0330709,-0.357874 0.0744095,-0.563386 0.0968505,-0.484252 0.283465,-1.07126 0.549213,-1.73622l0 0.0011811zm-0.623623 2.29843c-0.00708662,0.0271654 -0.0129921,0.0531496 -0.0177165,0.0779528 0.00472441,-0.0248032 0.0106299,-0.0531496 0.0177165,-0.0779528z"/>
  <path class="fil9" d="M1029.99 1306.68c-0.00354331,0.0188977 -0.00944883,0.0389764 -0.0129921,0.056693 0.00354331,-0.0177165 0.00944883,-0.0377953 0.0129921,-0.0578741l0 0.0011811zm-0.0188977 0.0744095c-0.876379,3.5374 -2.4189,7.0004 -4.71024,9.92717 -3.6567,-0.102756 -7.72323,-0.817323 -12.2197,-2.27008 -74.4414,-24.0638 -79.63,-65.5843 -117.203,-69.6319 -17.6256,-1.89803 -37.813,-12.9343 -49.6134,-22.8402 0.920079,-1.42559 1.97717,-2.9126 3.13701,-4.37717l-0.0307087 0.0377953c-0.754725,0.95315 -1.46339,1.91103 -2.11772,2.86181l-0.0590552 0.0767717c-1.86142,2.69646 -3.29173,5.27599 -4.06181,7.1941 -0.0011811,0.00236221 0,0.00354331 -0.0011811,0.00590552 0,0.0011811 -0.00236221,0 -0.00236221,0.0011811 -0.265748,0.664961 -0.451181,1.25197 -0.549213,1.73622 -0.0413386,0.206693 -0.0673229,0.39567 -0.0744095,0.563386l0 0c-0.00708662,0.0259843 -0.0129921,0.0531496 -0.0177165,0.0779528l0 0.0011811c-0.558662,2.78032 3.28229,7.64056 9.57639,12.7536 10.2036,8.29843 26.8477,17.263 41.5926,19.1008 0.0377953,0.00472441 0.0755906,0.00944883 0.114567,0.0153543 0.197244,0.0236221 0.393307,0.046063 0.591733,0.0673229 0.0271654,0.00354331 0.0555119,0.00708662 0.0862205,0.00944883 1.34173,0.145276 2.6374,0.343701 3.89174,0.596457 29.3185,5.87953 36.0296,39.9733 98.2312,60.0792l0 0c0.0330709,0.011811 0.0661418,0.022441 0.0992127,0.0307087 0.0188977,0.00826772 0.0377953,0.0141732 0.0555119,0.0188977 0.011811,0.00236221 0.0200788,0.00708662 0.0318898,0.00944883 14.1036,4.5 23.2831,0.598819 28.5425,-6.11811l0.00944883 -0.011811c2.28543,-2.92441 3.82914,-6.38032 4.70079,-9.91536zm-172.552 -97.1209c-0.00354331,0.0011811 -0.00590552,0.00472441 -0.00826772,0.00708662l-0.00826772 0.00472441c0.00590552,-0.00354331 0.0129921,-0.00826772 0.0177165,-0.011811l-0.0011811 0zm-1.57323 1.20354l-0.0248032 0.0177165c-0.103937,0.0874016 -0.206693,0.17126 -0.308268,0.257481 -0.33189,0.279921 -0.662599,0.569292 -0.986221,0.865749l-0.0165354 0.0153543c0.438189,-0.400394 0.885827,-0.786615 1.33701,-1.1563l-0.0011811 0zm-3.39331 3.16654c-0.629528,0.655512 -1.2378,1.33701 -1.83189,2.03032l-0.0437008 0.0543308c0.604725,-0.713386 1.23307,-1.41142 1.87559,-2.08465z"/>
  <path class="fil22" d="M1030.26 1305.48c0.177165,-0.882284 0.312992,-1.76811 0.409843,-2.64685l0.0188977 -0.179528c0.0519685,-0.522048 0.0956694,-1.03819 0.125197,-1.55079l0.00944883 -0.348425c0.0248032,-0.45 0.0307087,-0.902363 0.0248032,-1.34528l-0.00236221 -0.459449c-0.00944883,-0.402756 -0.0295276,-0.798426 -0.0507874,-1.19528l-0.0354331 -0.523229c-0.0377953,-0.367323 -0.0744095,-0.72756 -0.124016,-1.08662l-0.0472441 -0.401575c-3.94252,0.333071 -8.49213,-0.185433 -13.7315,-1.87677 -64.8615,-20.9646 -69.3863,-57.1465 -102.121,-60.6733 -19.5449,-2.10827 -42.7359,-17.1118 -49.8414,-26.576 0.465355,-0.0259843 0.93189,-0.0212599 1.3937,0.022441 -0.109843,-0.0106299 -0.219685,-0.0188977 -0.327166,-0.0283465l-0.376772 -0.0141732c-0.316536,-0.00590552 -0.636615,0.00236221 -0.955513,0.0259843l-0.347244 0.0318898c-0.420473,0.0472441 -0.837402,0.125197 -1.26378,0.230315l-0.243307 0.0744095c-0.357874,0.0968505 -0.711024,0.211417 -1.06063,0.338977l-0.405118 0.157087c-0.334252,0.140551 -0.67441,0.295276 -1.01929,0.459449l-0.285827 0.140551c-0.424016,0.219685 -0.846851,0.459449 -1.27205,0.718111l-0.325985 0.210236c-0.330709,0.210236 -0.657875,0.42874 -0.986221,0.657875 -0.00590552,0.00354331 -0.011811,0.00826772 -0.0165354,0.0106299l-0.359055 0.264567c-0.389764,0.288189 -0.780709,0.587008 -1.16457,0.903544l-0.034252 0.0248032c-0.45,0.369685 -0.896457,0.754725 -1.33583,1.1563l-0.270473 0.252756c-0.335433,0.312992 -0.667323,0.629528 -0.996851,0.954331l-0.257481 0.258662c-0.178347,0.180709 -0.354331,0.361418 -0.531496,0.544489 -0.643701,0.67441 -1.27205,1.37126 -1.87677,2.08347l-0.15 0.179528c-0.349607,0.415748 -0.701575,0.832678 -1.03347,1.26142l-0.0318898 0.0354331c-1.15984,1.46339 -2.21575,2.9504 -3.13701,4.37599 11.8004,9.90709 31.989,20.9421 49.6134,22.8402 37.5733,4.04764 42.7618,45.5681 117.203,69.6319 4.49646,1.45276 8.563,2.16732 12.2197,2.27008 2.29134,-2.92677 3.83386,-6.38977 4.71024,-9.92717 0.0011811,-0.00590552 0.00472441,-0.011811 0.00590552,-0.0177165 0.00354331,-0.0177165 0.00944883,-0.0377953 0.0129921,-0.0578741 0.0980316,-0.400394 0.188977,-0.804331 0.270473,-1.20709zm0.0732284 -11.1839l-0.00354331 -0.0212599c-0.011811,-0.0555119 -0.0248032,-0.112205 -0.0366142,-0.168898l-0.00472441 -0.0165354c0.0153543,0.068504 0.0307087,0.137008 0.046063,0.206693l-0.0011811 0zm-0.413386 -1.62874l-0.011811 -0.0437008c-0.0141732,-0.0496063 -0.0271654,-0.0968505 -0.0425197,-0.144095 -0.0129921,-0.0330709 -0.022441,-0.0661418 -0.034252,-0.0992127 0.0307087,0.0944883 0.0614174,0.190158 0.0897638,0.285827l-0.0011811 0.0011811zm-0.659056 -1.82599c-0.0129921,-0.0354331 -0.0283465,-0.0720473 -0.0448819,-0.106299 -0.111024,-0.257481 -0.229134,-0.506693 -0.35315,-0.748819 0.13937,0.274016 0.274016,0.558662 0.398032,0.855119zm-162.059 -84.0532l0 0c-0.090945,-0.0212599 -0.183071,-0.0413386 -0.275197,-0.0578741 0.090945,0.0165354 0.184252,0.0366142 0.275197,0.0578741z"/>
  <path class="fil10" d="M1030.6 1295.74l0 0 -0.0366142 -0.19252c-0.046063,-0.322441 -0.102756,-0.636615 -0.168898,-0.95315l-0.0519685 -0.301181c-0.0141732,-0.068504 -0.0295276,-0.138189 -0.0448819,-0.206693l-0.0165354 -0.0614174c-0.068504,-0.315355 -0.154725,-0.614174 -0.233858,-0.920079l-0.11811 -0.440552c-0.0283465,-0.0968505 -0.0578741,-0.19252 -0.0885827,-0.287008 -0.0814961,-0.248032 -0.168898,-0.484252 -0.255118,-0.720473l-0.159449 -0.432284c-0.0496063,-0.129921 -0.100394,-0.259843 -0.155906,-0.386221 -0.124016,-0.296457 -0.258662,-0.581103 -0.398032,-0.855119l0 0.0011811c-10.7114,-12.4819 -15.2162,-15.2835 -25.7811,-22.5177l0 0c-1.05827,-0.721654 -2.06221,-1.43858 -3.01418,-2.14606 -0.00354331,-0.00236221 -0.00472441,-0.00472441 -0.00826772,-0.00826772 -0.0212599,-0.011811 -0.0389764,-0.0259843 -0.056693,-0.0401575 -6.08504,-4.52835 -10.0831,-8.73898 -12.7406,-12.7606 -0.595276,0.253937 -1.25551,0.38504 -1.94646,0.360236l-16.6571 -0.635434c-2.49095,-0.0944883 -4.43504,-2.19331 -4.33819,-4.68662 0.00826772,-0.248032 0.0377953,-0.491339 0.0862205,-0.72756 0.42874,-2.13307 2.3504,-3.7004 4.59331,-3.61299l14.237 0.540945c-0.568111,-2.01496 -0.920079,-4.0063 -1.16693,-5.99646 -0.174803,0.0141732 -0.35315,0.0200788 -0.532678,0.0129921l-15.2469 -0.583465c-2.28071,-0.0850394 -4.06063,-2.00669 -3.97677,-4.2815 0.00826772,-0.22441 0.0354331,-0.446457 0.0791339,-0.661418 0.393307,-1.95827 2.15315,-3.39685 4.21063,-3.32008l14.7602 0.564567 0.0011811 -0.00236221 -0.00236221 0c-0.137008,-1.72205 -0.315355,-3.47481 -0.597638,-5.24882 -0.312992,0.0637796 -0.640158,0.0885827 -0.972048,0.0767717l-15.2551 -0.579922c-1.47874,-0.0590552 -2.74961,-0.885827 -3.43347,-2.08465 -6.7004,5.563 -14.4969,9.46772 -22.4032,7.36536 -13.6181,-3.62126 -31.4918,-8.01969 -42.7335,-17.1307 -6.57875,-5.32796 -11.0988,-12.3295 -14.5406,-19.9063 0.788977,-0.627166 1.59803,-1.19528 2.40945,-1.67244 -6.38977,3.72992 -11.9988,12.8268 -16.6335,16.4823l-0.0011811 0.0011811c-0.090945,-0.0212599 -0.183071,-0.0413386 -0.275197,-0.0578741 -0.212599,-0.0401575 -0.425197,-0.0696851 -0.637796,-0.090945 -0.461811,-0.0437008 -0.928347,-0.0484252 -1.3937,-0.022441 7.10552,9.46536 30.2965,24.4666 49.8414,26.576 32.7343,3.52677 37.2591,39.7087 102.121,60.6733 5.23937,1.69134 9.78898,2.20984 13.7315,1.87677l-0.00236221 0 0.00472441 0zm-51.9874 -79.7457c-0.924804,-2.39764 -2.16732,-4.8626 -3.88465,-7.44331l0 0c-0.15,0.0153543 -0.3,0.0236221 -0.454725,0.034252 -0.248032,0.0177165 -0.49252,0.0366142 -0.739371,0.0531496 -1.75748,2.17677 -3.78071,4.56733 -6.013,6.93544l11.0917 0.420473z"/>
  <path class="fil11" d="M973.534 1208.63c-21.7618,1.54961 -39.1772,-0.412205 -48.0685,-8.25591 -13.787,-12.1595 -3.74055,-28.4457 -11.9268,-32.7201l0 0.0011811c0,0 -1.45512,1.55197 -4.21063,4.05473 -4.27441,3.88111 -11.6799,10.0524 -21.6496,16.2697 -0.00236221,0.00236221 -0.00944883,0.00590552 -0.011811,0.00708662 -0.0295276,0.0200788 -0.056693,0.0366142 -0.0874016,0.0555119 -0.00708662,0.00236221 -0.011811,0.00590552 -0.0188977,0.0106299 -0.0236221,0.0165354 -0.0472441,0.0295276 -0.0732284,0.0448819 -0.00944883,0.00708662 -0.0188977,0.0129921 -0.0283465,0.0188977 -0.0236221,0.0153543 -0.0448819,0.0283465 -0.068504,0.0425197 -0.0236221,0.0141732 -0.0472441,0.0295276 -0.0708662,0.0437008 -0.0141732,0.00944883 -0.0271654,0.0165354 -0.0413386,0.0259843 -0.022441,0.0153543 -0.046063,0.0283465 -0.0673229,0.0437008 -0.00708662,0.00236221 -0.0129921,0.00708662 -0.0200788,0.00944883 -0.0236221,0.0165354 -0.046063,0.0295276 -0.068504,0.0437008 -0.00826772,0.00236221 -0.011811,0.00590552 -0.0188977,0.0106299 -0.108662,0.0673229 -0.217323,0.134646 -0.325985,0.201969l0 -0.0011811c-0.843308,0.518504 -1.70079,1.03347 -2.57835,1.54843 -0.00236221,0.00354331 -0.00472441,0.00590552 -0.00944883,0.00708662 -0.0212599,0.011811 -0.0448819,0.0259843 -0.0661418,0.0401575 -0.011811,0.00590552 -0.0200788,0.011811 -0.0318898,0.0177165 -0.022441,0.0129921 -0.0401575,0.0236221 -0.0590552,0.034252 -0.0165354,0.00944883 -0.0318898,0.0177165 -0.046063,0.0271654 -0.0165354,0.00944883 -0.0354331,0.0200788 -0.0519685,0.0295276 -0.0307087,0.0200788 -0.0625985,0.0366142 -0.0933072,0.0578741l-0.0011811 0c-0.810237,0.477166 -1.61929,1.0441 -2.40827,1.67244 3.44173,7.5756 7.96182,14.5784 14.5406,19.9063 11.2417,9.11103 29.1154,13.5095 42.7335,17.1307 7.90631,2.10236 15.7039,-1.80236 22.4032,-7.36536 -0.369685,-0.648426 -0.569292,-1.40315 -0.536221,-2.20158 0.00708662,-0.223229 0.0354331,-0.442914 0.0779528,-0.655512 0.393307,-1.95591 2.15197,-3.39922 4.20591,-3.31654l2.65984 0.101575c2.23229,-2.36811 4.25552,-4.75867 6.013,-6.93544l-0.0011811 0.0011811c0.00236221,-0.00236221 0.00354331,-0.00472441 0.00590552,-0.00708662z"/>
  <path class="fil16" d="M989.963 1249c0.0011811,-0.00590552 0.00236221,-0.0129921 0.00354331,-0.0177165 -0.0011811,0.00590552 -0.00236221,0.011811 -0.00354331,0.0177165zm0.0011811 -0.0200788c0.022441,-0.151181 0.0366142,-0.303544 0.0413386,-0.459449 0.0897638,-2.24173 -1.48583,-4.17402 -3.62244,-4.59922 2.13662,0.425197 3.71221,2.3563 3.62244,4.59922 -0.00472441,0.155906 -0.0188977,0.308268 -0.0413386,0.459449z"/>
  <path class="fil15" d="M989.919 1249.25c0.0165354,-0.0791339 0.0307087,-0.161811 0.0437008,-0.243307 0.0011811,-0.00590552 0.00236221,-0.0129921 0.00354331,-0.0177165 -0.00236221,-0.00236221 -0.00236221,-0.00354331 -0.00236221,-0.00354331 0.022441,-0.15 0.0366142,-0.302362 0.0413386,-0.458268 0.0897638,-2.24173 -1.48583,-4.17402 -3.62244,-4.59922 -0.232677,-0.0437008 -0.470079,-0.0732284 -0.711024,-0.0826772l0 0 -2.43071 -0.0933072 -14.237 -0.540945c-2.24292,-0.0874016 -4.16457,1.47992 -4.59331,3.61299 -0.0484252,0.236221 -0.0779528,0.479528 -0.0862205,0.72756 -0.0968505,2.49331 1.84725,4.59213 4.33937,4.68544l16.6559 0.636615c0.690945,0.0248032 1.35118,-0.106299 1.94646,-0.360236 0.00708662,-0.00236221 0.0141732,-0.00590552 0.0212599,-0.00826772 -0.00354331,-0.00236221 -0.00590552,-0.00590552 -0.00708662,-0.00708662 1.33228,-0.578741 2.34331,-1.7752 2.63858,-3.24803z"/>
  <path class="fil15" d="M985.749 1234.45c0.0425197,-0.211417 0.068504,-0.433465 0.0767717,-0.659056l0 0c0.080315,-2.05512 -1.35827,-3.82205 -3.31418,-4.21181 -0.211417,-0.0425197 -0.429922,-0.068504 -0.650788,-0.0767717l0 0 -0.49252 -0.0188977 -14.7602 -0.563386c-2.05748,-0.0779528 -3.81733,1.36063 -4.21063,3.3189 -0.0437008,0.214961 -0.0708662,0.435827 -0.0791339,0.661418 -0.0838583,2.27599 1.69606,4.19646 3.97677,4.28032l15.2469 0.584646c0.179528,0.00708662 0.359055,0.0011811 0.532678,-0.0129921 0,-0.00236221 0,-0.00236221 0.00236221,-0.0011811 -0.0011811,-0.00472441 -0.00236221,-0.011811 -0.00236221,-0.0177165 1.82126,-0.166536 3.31654,-1.50236 3.67441,-3.28347z"/>
  <path class="fil16" d="M984.001 1220.99c0.0425197,-0.211417 0.0696851,-0.429922 0.0779528,-0.65315 0.0814961,-2.0563 -1.36299,-3.82087 -3.32244,-4.20945 1.95945,0.388583 3.40394,2.15315 3.32244,4.20945 -0.0106299,0.223229 -0.034252,0.440552 -0.0779528,0.655512 -0.011811,0.0590552 -0.0259843,0.11811 -0.0401575,0.174803 0.0141732,-0.0578741 0.0295276,-0.11811 0.0413386,-0.177165l-0.0011811 0zm-0.0413386 0.184252c0,0.00354331 -0.0011811,0.00708662 -0.00236221,0.011811 0.0011811,-0.00472441 0.00236221,-0.00826772 0.00236221,-0.011811z"/>
  <path class="fil15" d="M984.001 1220.99c0.0425197,-0.21378 0.068504,-0.432284 0.0779528,-0.655512 0.0814961,-2.0563 -1.36299,-3.82087 -3.32244,-4.20945 -0.212599,-0.0425197 -0.429922,-0.0673229 -0.65315,-0.0779528l-1.49528 -0.056693 -11.0917 -0.420473 -2.65984 -0.101575c-2.05512,-0.0826772 -3.8126,1.35945 -4.20591,3.31654 -0.0425197,0.212599 -0.0696851,0.431103 -0.0779528,0.655512 -0.0330709,0.798426 0.166536,1.55315 0.536221,2.20158 0.682678,1.19882 1.95473,2.02559 3.43347,2.08347l15.2551 0.582284c0.33189,0.0106299 0.659056,-0.0153543 0.972048,-0.0779528 -0.0011811,-0.00590552 -0.00236221,-0.0106299 -0.0011811,-0.0141732 1.55197,-0.317717 2.8004,-1.4941 3.18898,-3.03189 0.0011811,-0.00472441 0.00236221,-0.00826772 0.00354331,-0.0129921 0,-0.0011811 0,-0.00354331 0,-0.00590552 0.0141732,-0.056693 0.0283465,-0.115748 0.0401575,-0.174803z"/>
  <path class="fil23" d="M1001.25 538.069c-2.15315,22.1882 21.0992,27.2965 47.0457,29.817 25.9547,2.52284 32.2571,28.3087 34.4114,6.1252 0,0 7.34764,-68.093 9.20434,-133.805 0.629528,-22.2827 -1.36417,-37.5709 -27.3107,-40.0914 -25.9524,-2.52047 -56.2465,10.7646 -56.2465,33.0555 -0.0011811,75.4867 -7.10316,104.899 -7.10434,104.899z"/>
  <path class="fil0" d="M1008.44 451.447c-2.29488,21.5374 41.641,62.3941 75.7028,63.2788l7.54253 -0.264567c34.0607,0.884646 62.3941,-26.0091 63.2788,-60.0733l1.78465 -68.6032c4.81181,-69.1052 -26.0044,-62.3941 -60.0674,-63.2812l-23.1815 0.269292c-34.0583,-0.88819 -62.3882,26.0055 -63.2788,60.0709l-1.7811 68.6032z"/>
  <path class="fil9" d="M1008.66 443.102c-60.9815,-124.191 27.7158,-156.952 70.18,-149.697 129.086,5.3693 73.2756,58.0465 77.3575,62.7615 -125.467,-25.7044 -100.388,49.93 -123.592,51.8126 -23.211,1.88268 -7.7504,26.9646 -23.9457,35.1225z"/>
  <path class="fil0" d="M1000.64 418.614c0,11.4213 9.25276,20.6764 20.6693,20.6764 11.4177,0 20.6752,-9.25513 20.6752,-20.6764 0,-11.4165 -9.25749,-20.6705 -20.6752,-20.6705 -11.4165,0 -20.6693,9.25513 -20.6693,20.6705z"/>
  <path class="fil24" d="M1008.31 442.405l0 0c-1.09016,-2.23701 -2.13662,-4.4504 -3.12874,-6.62835 0.992127,2.17914 2.03622,4.39016 3.12992,6.62835l-0.0011811 0zm-3.17126 -6.72048c-0.00236221,-0.00590552 -0.00826772,-0.0200788 -0.011811,-0.0259843 0.00354331,0.00826772 0.00826772,0.0188977 0.011811,0.0259843z"/>
  <path class="fil25" d="M1008.4 451.864c0,-0.00236221 0,-0.00354331 0,-0.00826772 0,0.0011811 0,0.00590552 0,0.00826772l0 0zm0.00944883 -0.127559c0,-0.00826772 0,-0.011811 0.00236221,-0.0200788 -0.00236221,0.00708662 -0.00236221,0.011811 -0.00236221,0.0200788zm0.00472441 -0.0531496c0.0011811,-0.00826772 0.00236221,-0.0153543 0.00236221,-0.0236221 -0.0011811,0.00826772 0,0.0165354 -0.00236221,0.0248032l0 -0.0011811zm0.00590552 -0.0519685c0,-0.0165354 0.00236221,-0.034252 0.00354331,-0.0484252 -0.00236221,0.0129921 -0.00354331,0.0318898 -0.00354331,0.0484252zm0.00590552 -0.0732284c0.00236221,-0.011811 0.00236221,-0.022441 0.00472441,-0.034252 -0.00236221,0.00944883 -0.00236221,0.022441 -0.00472441,0.034252l0 0zm0.00590552 -0.056693c0.00236221,-0.0177165 0.00472441,-0.0354331 0.00708662,-0.0543308 -0.00236221,0.0177165 -0.00472441,0.0366142 -0.00708662,0.0543308l0 0zm0.223229 -8.40355l0 0c-0.113386,-0.231496 -0.22441,-0.458268 -0.337796,-0.693308l-0.0011811 0c0.112205,0.230315 0.225591,0.461811 0.338977,0.693308z"/>
  <path class="fil26" d="M973.098 767.679c-2.9941,-0.507874 -5.98701,-1.01693 -8.98465,-1.5248 4.67126,-33.7536 38.0811,-257.881 41.8252,-264.6 0.901182,-3.49961 13.0996,22.1351 80.6138,30.9083 18.7843,19.2201 30.8977,41.8465 39,71.2914 9.52324,34.6075 -8.20631,180.562 -9.01536,188.543 -52.8733,-7.20945 -88.8296,-15.3295 -143.439,-24.6177z"/>
  <path class="fil27" d="M952.968 936.474c-5.99646,-67.728 -19.748,-97.9064 12.2055,-177.806 7.34646,1.9311 15.4784,4.22244 22.8307,6.14292 29.1957,7.62402 58.4977,14.7898 87.7406,22.2343 16.324,4.15866 23.7319,7.49882 40.3205,10.4681 -0.993308,11.4012 -0.318898,10.5213 -0.318898,10.5213l-30.8292 46.4941c-1.16457,3.12638 -2.63504,6.2941 -4.42441,9.49489l-7.0689 102.626c-27.5729,-19.2378 -92.8796,-10.9417 -120.456,-30.176z"/>
  <path class="fil28" d="M1026.07 765.984l25.6855 -99.1702 -14.465 -22.8402 -32.7449 -51.6945c-4.41024,-6.97678 -6.51497,-14.7555 -6.51497,-22.4421l0 0c0.0011811,-13.937 6.92481,-27.5693 19.5756,-35.5713 0.0755906,-0.0484252 0.15,-0.0944883 0.226772,-0.141732 0.00826772,-0.00590552 0.0188977,-0.011811 0.0271654,-0.0177165 6.90827,-4.30158 14.5843,-6.3567 22.1752,-6.35906 0.0011811,0 0.00590552,0 0.00826772,0l0 0c0.00472441,0 0.011811,0 0.0153543,0 13.6595,0.00590552 27.0236,6.6626 35.0823,18.8374 0.0283465,0.0425197 0.0543308,0.0838583 0.0826772,0.126378 0.0200788,0.0295276 0.0389764,0.0602363 0.0590552,0.090945 0.00354331,0.00354331 0.00590552,0.0106299 0.0106299,0.0141732 0.0330709,0.0543308 0.0696851,0.108662 0.106299,0.162992 0.0732284,0.115748 0.146457,0.229134 0.218504,0.344882l4.60158 9.5882 6.33426 -24.4512c-63.2493,-8.21694 -77.9505,-31.2331 -80.2949,-31.2331 -0.158268,0 -0.262205,0.106299 -0.318898,0.325985 -3.3437,6.00237 -30.3851,185.638 -39.4276,247.85l59.5571 16.5803zm-60.8953 -7.31575c0,0 0.0011811,0 0.0011811,0l-0.0011811 0zm0.0472441 -0.33189l1.24725 -8.62678c-0.466536,3.20788 -0.884646,6.09686 -1.24725,8.62678z"/>
  <path class="fil16" d="M1116.07 797.514c0.206693,-1.50591 0.341339,-3.22441 0.425197,-4.48937 -0.0838583,1.26614 -0.220866,2.98937 -0.425197,4.48937l0 0z"/>
  <path class="fil29" d="M1116.07 797.514c0.204331,-1.5 0.341339,-3.22323 0.425197,-4.48937 0.0177165,-0.265748 0.0318898,-0.509056 0.0448819,-0.72756l-0.470079 5.21693z"/>
  <path class="fil0" d="M1274.25 603.897c2.59725,3.31418 7.39016,3.89646 10.7067,1.29803l25.1587 -20.2713c3.31299,-2.59725 3.89646,-7.3878 1.29685,-10.702 -2.59488,-3.31536 -7.38544,-3.89646 -10.7055,-1.30039l-19.7728 15.4925c-3.31299,2.59725 -9.27875,12.1677 -6.68386,15.4831z"/>
  <path class="fil0" d="M1299.1 645.65c2.66811,3.40276 7.58268,3.99803 10.9878,1.33465l25.6736 -20.6752c3.4004,-2.66457 3.99803,-7.58505 1.33347,-10.9831 -2.66339,-3.40276 -7.58268,-3.99803 -10.9854,-1.33465l-25.6736 20.6729c-3.40158,2.66811 -3.99922,7.58386 -1.33583,10.9854z"/>
  <path class="fil0" d="M1284.02 616.368c2.79921,3.57048 7.96654,4.19882 11.5394,1.40079l26.6953 -21.4772c3.57756,-2.79921 4.2,-7.963 1.40197,-11.5335 -2.8004,-3.5752 -7.96418,-4.20473 -11.5382,-1.40433l-26.6953 21.476c-3.5752,2.79803 -4.20118,7.96536 -1.40315,11.5382z"/>
  <path class="fil0" d="M1292.93 630.275c2.79685,3.57284 7.963,4.19882 11.5358,1.40079l26.6977 -21.4748c3.57284,-2.79921 4.2,-7.96536 1.40079,-11.5358 -2.79921,-3.57756 -7.96536,-4.20237 -11.5382,-1.40315l-26.6977 21.4725c-3.57284,2.80276 -4.2,7.97008 -1.39843,11.5406z"/>
  <path class="fil0" d="M1284.54 585.595c0,0 -17.354,3.1063 -21.2469,5.00552 -17.8347,15.7134 -22.6205,47.0788 -11.8547,60.8138 16.1173,20.5725 39.4536,10.8744 53.1898,0.111024l8.52402 -6.89882 -28.6122 -59.0315z"/>
  <path class="fil3" d="M1327.05 613.512c0,0 -0.416929,0.255118 -1.11732,0.734646 -0.67441,0.516142 -1.74449,1.10551 -2.92914,1.92756 -0.590552,0.4063 -1.23307,0.848032 -1.91103,1.31575 -0.657875,0.486615 -1.39843,0.944883 -2.14961,1.44331 -1.51181,0.973229 -3.08268,2.07047 -4.65591,3.16181 -1.52362,1.16339 -3.14173,2.18858 -4.63701,3.19016 -1.49173,1.00158 -2.86654,1.97362 -4.02638,2.83583 -2.31969,1.73032 -3.81142,3 -3.81142,3 0,0 1.78347,-0.761812 4.37363,-2.07756 1.29331,-0.660237 2.78622,-1.46457 4.363,-2.36575 1.59331,-0.875198 3.23977,-1.89095 4.80709,-3.03425 1.56851,-1.1374 3.14055,-2.2689 4.57323,-3.38504 1.46339,-1.06654 2.69055,-2.27717 3.76063,-3.2563 2.14606,-1.9748 3.36024,-3.49016 3.36024,-3.49016z"/>
  <path class="fil3" d="M1321.65 596.604c0,0 -1.72205,0.77126 -4.16575,2.13662 -1.22953,0.667323 -2.61969,1.52126 -4.15748,2.34095 -1.53071,0.836221 -3.12166,1.78583 -4.71496,2.73071 -3.16418,1.92992 -6.24922,3.98622 -8.50394,5.63622 -2.26299,1.63701 -3.69449,2.87835 -3.69449,2.87835 0,-0.0011811 1.74803,-0.692127 4.24961,-1.95 2.50748,-1.24488 5.77678,-3.05079 8.96694,-4.98307 1.58268,-0.98504 3.16772,-1.96536 4.61575,-2.93977 1.47284,-0.938977 2.74843,-1.95473 3.84331,-2.82284 2.19213,-1.73504 3.56103,-3.02717 3.56103,-3.02717z"/>
  <path class="fil3" d="M1311.32 583.825c0,0 -1.72205,0.773623 -4.16575,2.1378 -1.23071,0.667323 -2.62087,1.52126 -4.15985,2.34213 -1.52717,0.836221 -3.11929,1.78465 -4.71378,2.73071 -3.16181,1.92756 -6.24686,3.98504 -8.50158,5.63741 -2.26536,1.63701 -3.69449,2.87599 -3.69449,2.87599 0,0 1.74449,-0.689764 4.24725,-1.95 2.50984,-1.2437 5.77914,-3.04961 8.9693,-4.98307 1.58032,-0.986221 3.16536,-1.96536 4.61575,-2.93858 1.47284,-0.940158 2.74607,-1.95591 3.84095,-2.82638 2.19213,-1.73268 3.56221,-3.02599 3.56221,-3.02599z"/>
  <path class="fil3" d="M1284.54 585.595c0,0 -1.24488,0.533859 -2.97992,1.48937 -1.74449,0.943702 -3.97914,2.32205 -6.18544,3.72284 -1.0878,0.720473 -2.17677,1.44331 -3.19488,2.1189 -1.01221,0.686221 -1.95945,1.32402 -2.76851,1.87323 -0.798426,0.596457 -1.50827,0.944883 -1.99488,1.28504 -0.491339,0.329528 -0.772442,0.519685 -0.772442,0.519685 0,0 0.325985,-0.0484252 0.902363,-0.167717 0.561024,-0.141732 1.44331,-0.266929 2.35276,-0.67441 0.927166,-0.37441 2.04331,-0.797245 3.1252,-1.40788 1.10669,-0.577559 2.26063,-1.24725 3.37205,-1.96772 2.23229,-1.4374 4.30748,-3.0874 5.78741,-4.42559 1.48701,-1.32756 2.3563,-2.36575 2.3563,-2.36575z"/>
  <path class="fil0" d="M1086.22 721.232c12.4134,19.6252 38.3859,25.4776 58.0134,13.0595 19.624,-12.4075 6.99567,-35.6233 -5.41772,-55.2556l-63.202 -131.713c-12.4146,-19.6217 -38.3823,-25.4717 -58.0122,-13.0571 -19.6264,12.4146 -25.4681,38.3859 -13.0595,58.0134l81.678 128.953z"/>
  <path class="fil30" d="M1037.08 645.06l-33.3555 -52.6595c-12.6402,-19.9961 -6.68859,-46.4516 13.3051,-59.0977 19.9949,-12.6461 46.4492,-6.68623 59.0953,13.3028l24.0874 50.1993c-19.9099,19.9087 -43.2237,28.3453 -63.1323,48.2552z"/>
  <path class="fil0" d="M1264.99 665.398c24.861,-18.4181 13.0524,-15.9543 6.19134,-31.826 -6.85985,-15.8634 -6.90827,-23.7319 -22.7776,-16.8709l-142.069 54.4465c-21.313,9.21615 -32.5914,22.5721 -23.3752,43.8874 9.21497,21.3106 28.4988,32.3209 55.2827,21.9083 33.1902,-12.9071 126.748,-71.5441 126.748,-71.5453z"/>
  <path class="fil31" d="M1122.02 740.799c7.31812,-0.0377953 14.7047,-1.98662 21.4028,-6.01772 -1.85669,0.818505 -3.58701,1.54252 -5.17914,2.1626 -5.76615,2.24055 -11.1791,3.49016 -16.2236,3.85512z"/>
  <path class="fil32" d="M1085.09 719.45c-0.00472441,-0.00826772 -0.00826772,-0.0165354 -0.0129921,-0.0248032l-33.326 -52.6134 0 0.00236221 33.339 52.6359z"/>
  <path class="fil33" d="M1051.75 666.814l0 -0.00236221 -14.465 -22.8378c0,0 0,0.0011811 0,0.0011811l-32.7449 -51.6957c-4.41024,-6.97678 -6.51497,-14.7555 -6.51497,-22.4421 0,7.68662 2.10473,15.4654 6.51615,22.4421l32.7437 51.6945 14.465 22.8402z"/>
  <path class="fil24" d="M1232.28 685.451c2.37402,-1.43032 4.67244,-2.82166 6.86812,-4.15394 -0.00236221,0 -0.00236221,0 -0.00236221,0 -2.19803,1.33583 -4.48701,2.72126 -6.86575,4.15394l0 0zm21.8209 -4.06181l0 0c0.33189,-0.122835 0.660237,-0.248032 0.988583,-0.379134 -0.327166,0.131102 -0.656693,0.257481 -0.988583,0.379134l0 0zm0.989765 -0.381496c0.0141732,-0.00354331 0.0283465,-0.00944883 0.0425197,-0.0165354 -0.0141732,0.00590552 -0.0283465,0.0106299 -0.0425197,0.0177165l0 -0.0011811zm0.0543308 -0.022441c0.0129921,-0.00354331 0.022441,-0.00708662 0.0354331,-0.011811 -0.0129921,0.00354331 -0.022441,0.00826772 -0.0354331,0.0129921l0 -0.0011811zm0.0555119 -0.0200788c0.00708662,-0.00354331 0.0165354,-0.00590552 0.0236221,-0.00944883 -0.00708662,0.0011811 -0.0153543,0.00590552 -0.0236221,0.00944883l0 0zm0.0496063 -0.0200788c0.00708662,-0.00354331 0.0129921,-0.00590552 0.0188977,-0.00826772 -0.00590552,0.00236221 -0.011811,0.00472441 -0.0177165,0.00826772l-0.0011811 0zm0.0555119 -0.0248032c0.0011811,0 0.00236221,0.0011811 0.00354331,0.0011811 -0.00236221,-0.0011811 -0.0011811,0 -0.00354331,0l0 -0.0011811zm46.6241 -27.3851c0.934253,-0.660237 1.83543,-1.33347 2.7,-2.01024l8.52402 -6.89882 -8.52402 6.89882c-0.864568,0.675591 -1.76575,1.35118 -2.7,2.01024z"/>
  <path class="fil34" d="M1301.81 631.121c0,0 1.57087,-0.669686 3.90591,-1.84016 0.152362,-0.0779528 0.308268,-0.155906 0.467717,-0.237402 1.29331,-0.660237 2.78622,-1.46457 4.363,-2.36575 0.142913,-0.0814961 0.291733,-0.161811 0.437008,-0.243307 1.45512,-0.817323 2.94449,-1.7504 4.37008,-2.79095 1.56851,-1.1374 3.14055,-2.2689 4.57323,-3.38504 1.46339,-1.06654 2.69055,-2.27717 3.76063,-3.2563 2.09882,-1.93347 3.30709,-3.4252 3.35788,-3.4878 0.00236221,-0.00236221 0.00236221,-0.00236221 0.00236221,-0.00236221 0,0 -0.416929,0.255118 -1.11732,0.734646 -0.67441,0.516142 -1.74449,1.10551 -2.92914,1.92756 -0.590552,0.4063 -1.23307,0.848032 -1.91103,1.31575 -0.657875,0.486615 -1.39843,0.944883 -2.14961,1.44331 -1.51181,0.973229 -3.08268,2.07047 -4.65591,3.16181 -1.52362,1.16339 -3.14173,2.18858 -4.63701,3.19016 -1.49173,1.00158 -2.86654,1.97362 -4.02638,2.83583 -0.116929,0.0862205 -0.230315,0.17126 -0.34252,0.255118 -2.12362,1.59803 -3.4689,2.74488 -3.4689,2.74488z"/>
  <path class="fil35" d="M1291.49 599.933l15.0319 -12.1122c-0.00236221,0.00236221 -0.00354331,0.00472441 -0.00826772,0.00590552l-14.8677 11.9787 -0.155906 0.127559zm18.0921 -14.5772l0.53504 -0.432284 -0.53504 0.432284c0,0 0,0 0,0z"/>
  <path class="fil36" d="M1291.65 599.806l14.8677 -11.9787c-0.499607,0.386221 -1.03228,0.785434 -1.59685,1.17874l-13.2709 10.8zm17.9362 -14.4496l0.53504 -0.432284c0.272835,-0.21378 0.52441,-0.448819 0.757087,-0.69567 -0.295276,0.266929 -0.733465,0.654331 -1.29213,1.12795z"/>
  <path class="fil37" d="M1304.92 589.004c0.564567,-0.392126 1.09724,-0.791339 1.59685,-1.17756 0.00472441,-0.0011811 0.00590552,-0.00354331 0.00826772,-0.00590552l3.06024 -2.46496c0,0 0,0 0,0 0.558662,-0.474804 0.996851,-0.861024 1.29213,-1.12795 0.0826772,-0.0874016 0.164173,-0.175984 0.242126,-0.264567l0.198425 -0.138189 -0.148819 0.0933072 -6.24922 5.08583z"/>
  <path class="fil9" d="M1048.87 402.068l10.4528 0.287008c-6.70394,45.9744 -1.9441,81.8516 11.3693,110.192l-10.4539 -0.287008c-14.1721,-26.5736 -19.1173,-62.1733 -11.3681,-110.192z"/>
  <path class="fil11" d="M1115.66 802.818c0.380315,-2.77914 0.930709,-11.6303 0.930709,-11.6303l-150.082 -41.7839 -2.39882 16.7504c0,0 101.379,27.1607 151.55,36.6638z"/>
  <polygon class="fil10" points="1040.83,358.825 1066.92,359.541 1066.92,406.001 1040.83,405.285 "/>
  <path class="fil38" d="M1063.09 256.426c62.8973,-6.10394 124.958,54.9768 128.348,89.9174 3.39095,34.9394 -54.6579,7.36654 -117.555,13.4693 -62.8973,6.10394 -106.827,43.5721 -110.218,8.63268 -3.38977,-34.9406 36.528,-105.917 99.4253,-112.019z"/>
  <path class="fil39" d="M1726.42 821.47c-2.06221,0.491339 -4.30512,1.09488 -6.74056,1.82126 -2.47087,0.737008 -5.14843,1.59567 -8.04449,2.5878 -35.4355,12.1394 -77.9493,31.0181 -88.7623,35.8843 -3.0189,6.84686 -11.7969,26.3717 -25.611,54 -1.38189,2.76378 -3.18898,6.66733 -5.08937,10.7752 -17.7036,38.2536 -43.4504,93.8847 -131.711,59.7024 -149.98,-58.0855 -170.706,-292.375 -178.475,-380.204 -0.538583,-6.09213 -0.0153543,-11.1284 0.689764,-15.1075l-10.6488 -2.07756c3.45236,-17.7024 7.69607,-25.0441 14.1449,-23.7851l-0.0011811 0.00590552c7.37481,1.46811 8.65867,15.9484 10.7563,39.6744 7.54607,85.2993 27.6744,312.844 168.925,367.548 75.1737,29.1142 97.4257,-18.965 112.726,-52.0252 1.70433,-3.68504 3.32835,-7.19174 5.32559,-11.1862 16.9536,-33.9071 26.3481,-55.8048 26.374,-55.8674l3.77953 -3.86811c0.147638,-0.0673229 51.391,-23.4721 92.7733,-37.6488 3.16772,-1.08543 6.01654,-2.00079 8.57127,-2.7626 2.86654,-0.855119 5.37638,-1.53425 7.5626,-2.05512l3.45591 14.589zm-442.078 -238.484c0.322441,-1.9063 0.190158,-2.97874 -1.01221,-3.2126l-0.0283465 0c-2.0563,-0.401575 -0.594095,0.846851 1.04055,3.2126z"/>
  <rect class="fil40" width="2048" height="2048"/>
 </g>
</svg>
