<?xml version="1.0" encoding="UTF-8"?>
<!DOCTYPE svg PUBLIC "-//W3C//DTD SVG 1.1//EN" "http://www.w3.org/Graphics/SVG/1.1/DTD/svg11.dtd">
<!-- Creator: CorelDRAW -->
<svg xmlns="http://www.w3.org/2000/svg" xml:space="preserve" width="2048px" height="2048px" style="shape-rendering:geometricPrecision; text-rendering:geometricPrecision; image-rendering:optimizeQuality; fill-rule:evenodd; clip-rule:evenodd"
viewBox="0 0 2048 2048"
 xmlns:xlink="http://www.w3.org/1999/xlink">
 <defs>
  <style type="text/css">
   <![CDATA[
    .fil37 {fill:none}
    .fil13 {fill:#003C69}
    .fil21 {fill:#00406B}
    .fil6 {fill:#005187}
    .fil5 {fill:#00558E}
    .fil23 {fill:#005A96}
    .fil22 {fill:#0077C7}
    .fil28 {fill:#01579B}
    .fil31 {fill:#191919}
    .fil14 {fill:#212121}
    .fil16 {fill:#424242}
    .fil36 {fill:#4B4B4B}
    .fil15 {fill:#616161}
    .fil18 {fill:#636363}
    .fil24 {fill:#757575}
    .fil32 {fill:#AD0000}
    .fil25 {fill:#B09176}
    .fil9 {fill:#B5D7D9}
    .fil30 {fill:#B9DCDE}
    .fil12 {fill:#BDBDBD}
    .fil26 {fill:#BF9E83}
    .fil7 {fill:#BFE3E6}
    .fil19 {fill:#C3E8EA}
    .fil11 {fill:#CCA98B}
    .fil27 {fill:#D50000}
    .fil8 {fill:#D7B293}
    .fil34 {fill:#DCB696}
    .fil3 {fill:#DE0000}
    .fil2 {fill:#E3BC9B}
    .fil10 {fill:#E5BD9C}
    .fil29 {fill:#EAC2A0}
    .fil4 {fill:#F2C8A5}
    .fil33 {fill:#F7CCA9}
    .fil20 {fill:#F7F7F7}
    .fil1 {fill:#FFD3AE}
    .fil17 {fill:white}
    .fil35 {fill:black;fill-rule:nonzero}
    .fil0 {fill:#424242;fill-rule:nonzero}
   ]]>
  </style>
 </defs>
 <g id="Layer_x0020_1">
  <metadata id="CorelCorpID_0Corel-Layer"/>
  <g id="_414153992">
   <polygon id="_414162536" class="fil0" points="1267.63,736.16 1267.84,735.964 1267.83,735.958 "/>
   <path id="_414162680" class="fil0" d="M526.709 1562.91c-9.75473,-12.1335 -7.82717,-29.8784 4.30512,-39.6331 12.1335,-9.75355 29.8784,-7.82599 39.6331,4.3063 11.1638,13.8413 19.9547,22.0914 30.3886,27.202 11.0126,5.39292 26.0717,8.64568 48.8741,12.0614l681.447 0c22.8024,-3.41575 37.8603,-6.66851 48.8741,-12.0614 10.4339,-5.11063 19.2236,-13.3606 30.3886,-27.202 9.75473,-12.1323 27.4996,-14.0599 39.6319,-4.3063 12.1323,9.75473 14.0599,27.4996 4.3063,39.6331 -16.4469,20.3894 -30.6166,33.1406 -49.5993,42.4359 -17.7307,8.68111 -37.5485,13.2059 -66.1288,17.465 -1.82008,0.367323 -3.7004,0.561024 -5.62678,0.561024l-685.139 0 0 -0.034252c-1.34764,-0.0011811 -2.71299,-0.0980316 -4.08544,-0.297638 -29.413,-4.32756 -49.6229,-8.85709 -67.6713,-17.6941 -18.9815,-9.29528 -33.1512,-22.0465 -49.5981,-42.4359z"/>
   <path id="_414161672" class="fil1" d="M1530.87 782.916c1.00039,5.91142 6.60473,9.89646 12.5197,8.89489l45.2528 -8.28662c5.91142,-0.999213 9.89528,-6.60001 8.89253,-12.5126 -0.996851,-5.9126 -6.59882,-9.89292 -12.5162,-8.89843l-35.2677 5.96339c-5.91142,1.00039 -19.8768,8.92796 -18.8811,14.8394z"/>
   <path id="_414161600" class="fil1" d="M1533.62 852.048c1.02874,6.06969 6.77599,10.1528 12.8457,9.13111l46.1717 -8.44371c6.06615,-1.0252 10.1551,-6.77835 9.12875,-12.841 -1.02284,-6.06733 -6.77599,-10.1528 -12.8433,-9.12993l-46.1705 8.44135c-6.07087,1.02874 -10.1563,6.77481 -9.13229,12.8421z"/>
   <path id="_414161696" class="fil1" d="M1534.63 805.16c1.07953,6.36969 7.12087,10.6654 13.4929,9.58938l47.9965 -8.75198c6.37796,-1.07599 10.6642,-7.11497 9.58583,-13.4847 -1.07717,-6.3756 -7.1126,-10.6701 -13.4882,-9.5941l-47.9953 8.75316c-6.37441,1.07362 -10.6654,7.11733 -9.59174,13.4882z"/>
   <path id="_414161480" class="fil1" d="M1536.34 828.612c1.07362,6.37087 7.11497,10.6618 13.487,9.58702l47.9965 -8.74843c6.37205,-1.07835 10.6665,-7.11733 9.58702,-13.487 -1.0748,-6.37796 -7.11615,-10.6689 -13.4882,-9.59174l-47.9965 8.74607c-6.37323,1.08071 -10.6689,7.12205 -9.58583,13.4941z"/>
   <path id="_414161864" class="fil1" d="M1556.18 766.994c0,0 -23.8299,-7.89568 -29.9906,-8.1626 -32.9941,7.5567 -60.2823,43.5626 -56.1355,68.0634 6.20434,36.6933 41.9965,40.402 66.4973,36.2587l15.3532 -2.84528 4.27559 -93.3142z"/>
   <path id="_414161768" class="fil2" d="M1590.42 830.8c0,0 -0.69567,0.0354331 -1.89685,0.16063 -1.1941,0.187795 -2.93504,0.198425 -4.97481,0.422835 -1.01575,0.10748 -2.12008,0.22441 -3.28465,0.349607 -1.15512,0.162992 -2.3941,0.232677 -3.67205,0.346063 -2.55355,0.191339 -5.26418,0.498426 -7.97363,0.796064 -2.69764,0.421654 -5.41772,0.605906 -7.97127,0.843308 -2.54764,0.240945 -4.92638,0.52441 -6.96497,0.814961 -4.07835,0.590552 -6.8067,1.16693 -6.8067,1.16693 -0.0011811,0 2.74843,0.258662 6.88465,0.370866 2.06693,0.0519685 4.48111,0.0578741 7.06654,0.0011811 2.58898,-0.0129921 5.33977,-0.166536 8.07757,-0.532678 2.73662,-0.359055 5.47087,-0.708662 8.02205,-1.1315 2.55591,-0.341339 4.91339,-1.02284 6.9189,-1.52244 4.0252,-1.01339 6.5752,-2.08583 6.5752,-2.08583z"/>
   <path id="_414161960" class="fil2" d="M1595.15 805.972c0,0 -2.67992,-0.20315 -6.66497,-0.154725 -1.99134,0.0011811 -4.31103,0.126378 -6.79371,0.10748 -2.48386,0.00708662 -5.1189,0.115748 -7.75512,0.216142 -5.27008,0.265748 -10.5272,0.745276 -14.4709,1.27913 -3.9437,0.512599 -6.57756,1.0937 -6.57756,1.0937 0,-0.0011811 2.6563,0.320079 6.64134,0.445276 3.98504,0.145276 9.30237,0.105118 14.6079,-0.147638 2.64921,-0.157087 5.29961,-0.309449 7.77166,-0.544489 2.48268,-0.175984 4.7693,-0.581103 6.72993,-0.923623 3.92126,-0.683859 6.51142,-1.37008 6.51142,-1.37126z"/>
   <path id="_414161456" class="fil2" d="M1590.89 782.963c0,0 -2.6811,-0.201969 -6.66497,-0.153543 -1.9937,0 -4.31457,0.125197 -6.79725,0.106299 -2.48032,0.00944883 -5.11536,0.116929 -7.75394,0.216142 -5.26772,0.266929 -10.526,0.746457 -14.4697,1.28268 -3.94607,0.512599 -6.57638,1.09252 -6.57638,1.09252 0,0 2.65276,0.320079 6.63898,0.442914 3.98622,0.146457 9.30473,0.106299 14.6102,-0.146457 2.64803,-0.16063 5.29725,-0.309449 7.77284,-0.543308 2.4815,-0.175984 4.76575,-0.582284 6.72638,-0.928347 3.92126,-0.680315 6.51378,-1.3689 6.51378,-1.3689z"/>
   <path id="_414161432" class="fil2" d="M1556.18 766.994c0,0 -1.92166,-0.175984 -4.74095,-0.158268 -2.82402,-0.00472441 -6.55749,0.20315 -10.2697,0.458268 -1.85079,0.162992 -3.70394,0.328347 -5.4378,0.483071 -1.73268,0.17126 -3.35197,0.325985 -4.73741,0.462992 -1.40433,0.206693 -2.52992,0.159449 -3.36851,0.255118 -0.839764,0.0791339 -1.32047,0.126378 -1.32047,0.126378 0,-0.0011811 0.440552,0.16063 1.2437,0.402756 0.798426,0.201969 1.9878,0.644882 3.40158,0.752363 1.41496,0.16063 3.1004,0.390945 4.86851,0.360236 1.77756,0.0295276 3.67677,-0.0248032 5.55709,-0.173622 3.77008,-0.282284 7.48819,-0.937796 10.2473,-1.60748 2.76378,-0.651969 4.5567,-1.36181 4.5567,-1.36181z"/>
   <path id="_414161912" class="fil1" d="M1237.44 831.349c24.1571,22.5792 62.0469,21.3071 84.626,-2.85827 22.5803,-24.1477 -3.16418,-51.5965 -27.3236,-74.1863l-134.423 -158.762c-24.1583,-22.5732 -62.041,-21.3 -84.6249,2.85945 -22.5803,24.1595 -21.2941,62.0434 2.85709,84.6284l158.888 148.318z"/>
   <path id="_414160712" class="fil3" d="M1142.34 744.06l-64.8863 -60.5682c-24.6024,-23.0067 -25.911,-61.5981 -2.90906,-86.2087 23.0055,-24.6106 61.5957,-25.9075 86.2052,-2.91142l51.2315 60.5091c-20.2772,34.5874 -49.3666,54.5906 -69.6414,89.1792z"/>
   <path id="_414160904" class="fil1" d="M1477.51 853.6c43.624,-6.17008 27.1701,-11.1047 29.3622,-35.6292 2.18622,-24.5138 7.4693,-34.3937 -17.0528,-36.5847l-214.785 -28.3276c-32.9339,-2.9374 -56.1189,6.1193 -59.0575,39.0555 -2.93977,32.9292 13.7197,59.8052 54.3119,64.9607 50.3056,6.38386 207.221,-3.47362 207.221,-3.47481z"/>
   <path id="_414161288" class="fil4" d="M1247.37 850.883c9.18426,4.92166 19.7528,7.49882 30.8729,7.00276 -2.87835,-0.237402 -5.53701,-0.505512 -7.95119,-0.811418 -8.7378,-1.11142 -16.3595,-3.22323 -22.9217,-6.19134z"/>
   <path id="_414161168" class="fil5" d="M1235.24 829.299c-0.00826772,-0.00944883 -0.0165354,-0.0188977 -0.0248032,-0.0283465l-64.8296 -60.515 0 0.00354331 64.8544 60.5398z"/>
   <path id="_414161144" class="fil6" d="M1180.39 780.301l-0.0011811 -0.00354331 -28.1386 -26.2666c0,0 0,0 0,0l-63.6957 -59.4579c-8.58426,-8.02914 -14.2807,-17.9906 -17.0433,-28.5803 2.7626,10.5898 8.45906,20.5512 17.0445,28.5803l63.6945 59.4579 28.1398 26.2701z"/>
   <path id="_414160880" class="fil7" d="M1422.96 856.485c3.9437,-0.178347 7.76457,-0.359055 11.4177,-0.53504 -0.00236221,-0.0011811 -0.00236221,-0.0011811 -0.00236221,-0.0011811 -3.65906,0.179528 -7.46457,0.357874 -11.4142,0.536221l-0.0011811 0zm30.0709 9.73347l0 0c0.497244,0.0720473 0.993308,0.138189 1.4941,0.197244 -0.498426,-0.0578741 -0.99567,-0.124016 -1.4941,-0.197244l0 0zm1.49764 0.194882c0.0200788,0.00472441 0.0413386,0.00708662 0.0637796,0.00944883 -0.022441,-0.00236221 -0.0425197,-0.00590552 -0.0649607,-0.00826772l0.0011811 -0.0011811zm0.0826772 0.00944883c0.0177165,0.00354331 0.0330709,0.00590552 0.0507874,0.00944883 -0.0165354,-0.00472441 -0.0330709,-0.00590552 -0.0507874,-0.00826772l0 -0.0011811zm0.0826772 0.011811c0.011811,0.0011811 0.0248032,0.00472441 0.0366142,0.00472441 -0.0106299,-0.00354331 -0.0236221,-0.00354331 -0.0366142,-0.00472441l0 0zm0.0767717 0.00944883c0.0106299,-0.0011811 0.0188977,0.0011811 0.0283465,0.00236221 -0.00826772,-0.00236221 -0.0177165,-0.00354331 -0.0283465,-0.00236221l0 0zm0.0850394 0.00590552c0.00236221,0.0011811 0.00236221,0.00236221 0.00472441,0.00354331 -0.00236221,-0.00236221 -0.00236221,-0.0011811 -0.00472441,-0.00236221l0 -0.0011811zm76.9512 -2.61496c1.61811,-0.190158 3.20315,-0.421654 4.74449,-0.681497l15.3532 -2.84528 -15.3532 2.84528c-1.54134,0.258662 -3.12638,0.49252 -4.74449,0.681497z"/>
   <path id="_414161120" class="fil8" d="M1546.87 835.7c0,0 2.42126,0.227953 6.13937,0.350788 0.243307,0.00590552 0.491339,0.0129921 0.746457,0.0200788 2.06693,0.0519685 4.48111,0.0578741 7.06654,0.0011811 0.23504,-0.00354331 0.474804,-0.00472441 0.712205,-0.00708662 2.37756,-0.0354331 4.87559,-0.19252 7.36536,-0.525591 2.73662,-0.359055 5.47087,-0.708662 8.02205,-1.1315 2.55591,-0.341339 4.91339,-1.02284 6.9189,-1.52244 3.94016,-0.994489 6.46536,-2.04095 6.57048,-2.08465 0.00472441,-0.0011811 0.00472441,-0.0011811 0.00472441,-0.0011811 0,0 -0.69567,0.0354331 -1.89685,0.16063 -1.1941,0.187795 -2.93504,0.198425 -4.97481,0.422835 -1.01575,0.10748 -2.12008,0.22441 -3.28465,0.349607 -1.15512,0.162992 -2.3941,0.232677 -3.67205,0.346063 -2.55355,0.191339 -5.26418,0.498426 -7.97363,0.796064 -2.69764,0.421654 -5.41772,0.605906 -7.97127,0.843308 -2.54764,0.240945 -4.92638,0.52441 -6.96497,0.814961 -0.204331,0.0295276 -0.405118,0.0590552 -0.601182,0.0874016 -3.74292,0.558662 -6.20552,1.07953 -6.2067,1.07953z"/>
   <path id="_414161048" class="fil9" d="M1555.14 789.661l27.0378 -4.95118c-0.00236221,0 -0.00708662,0.0011811 -0.0129921,0.0011811l-26.7437 4.89685 -0.281103 0.0531496zm32.5429 -5.95985l0.961418 -0.177165 -0.961418 0.177165c0,0 0,0 0,0z"/>
   <path id="_414160832" class="fil10" d="M1555.42 789.608l26.7437 -4.89685c-0.88819,0.144095 -1.82599,0.282284 -2.79921,0.390945l-23.9445 4.50591zm32.2618 -5.9067l0.961418 -0.177165c0.488977,-0.0826772 0.961418,-0.205512 1.42087,-0.356693 -0.550394,0.133465 -1.36063,0.32126 -2.38229,0.533859z"/>
   <path id="_414160760" class="fil11" d="M1579.37 785.101c0.973229,-0.10748 1.91103,-0.245669 2.79921,-0.389764 0.00590552,0 0.0106299,-0.0011811 0.0129921,-0.0011811l5.50512 -1.00866c0,0 0,0 0,0 1.02165,-0.212599 1.83071,-0.399213 2.38229,-0.533859 0.162992,-0.0531496 0.324803,-0.108662 0.484252,-0.166536l0.341339 -0.0377953 -0.250394 0.0153543 -11.2748 2.12244z"/>
   <path id="_414161264" class="fil1" d="M1128.39 1431.69c-8.87835,27.6012 6.29882,35.537 34.5981,49.1965 28.2921,13.6453 48.8185,8.20631 62.4686,-20.0953l83.0883 -202.041c13.65,-28.3016 1.7811,-62.3138 -26.5158,-75.965 -28.2969,-13.6476 -45.7311,2.91733 -67.8969,25.1953 -42.2162,42.417 -85.7422,223.71 -85.7422,223.709z"/>
   <path id="_414160112" class="fil12" d="M1142.16 1379.88c6.2504,2.34921 12.4961,4.70552 18.7335,7.07717 27.417,10.4043 54.6815,21.8221 83.1249,28.7079l-18.5599 45.13c-13.6512,28.3016 -34.1764,33.7406 -62.4686,20.0953 -28.3004,-13.6595 -43.4752,-21.5941 -34.5981,-49.1953 0,-0.0011811 5.20867,-21.691 13.7681,-51.815z"/>
   <path id="_414160544" class="fil1" d="M1190.47 1241.65c30.215,29.4272 65.4934,53.6126 97.8993,33.2929 32.4118,-20.3126 36.313,-53.0422 15.9945,-85.4635l-160.401 -241.59c-25.7398,-41.0292 -69.2457,-27.9036 -110.288,-2.15788 -41.0457,25.7339 -51.3674,56.0741 -25.6299,97.1103l182.425 198.808z"/>
   <path id="_414159968" class="fil13" d="M959.15 938.985c2.33386,-1.9878 181.616,5.2441 184.048,8.09174l91.3194 126.559c-31.7032,31.715 -89.5383,98.6528 -121.244,130.351l-164.08 -141.341c-31.3949,-36.8941 -26.941,-92.2595 9.9567,-123.66z"/>
   <path id="_414159920" class="fil14" d="M1120.57 1429.46c0,0 -6.91182,21.7677 -24.261,47.3292 -5.91969,8.7189 -7.53898,23.8512 -11.2559,31.3914 -15.2728,3.31418 -20.1118,38.8571 -17.5004,45.0744 2.26417,10.4091 53.8831,20.7071 86.3989,9.26103 22.6252,-7.96064 41.0103,-0.408662 66.456,7.13977 24.2894,7.20827 55.0099,14.4177 101.995,8.13071 46.2307,-6.18544 36.7441,-50.2217 21.4358,-61.956 -21.4217,-9.45473 -45.0189,-10.2815 -63.0166,-13.0949 -56.0221,-8.72481 -24.1571,-38.9776 -56.5347,-58.2898 -27.6425,15.913 -51.7713,24.4418 -68.3091,19.7386 -25.1835,-7.15749 -22.2721,-34.2461 -35.4083,-34.7244z"/>
   <path id="_414160328" class="fil15" d="M1145.17 1539.42c-23.8099,8.38583 -56.5193,6.59764 -77.7721,1.11142 1.63819,-12.7217 7.20119,-30.0839 17.6516,-32.3528 3.71693,-7.54016 5.33622,-22.6725 11.2559,-31.3914 17.3492,-25.5614 24.2622,-47.3292 24.2622,-47.3292 13.135,0.478347 10.2236,27.567 35.4071,34.7244 16.5378,4.70315 40.6666,-3.82559 68.3091,-19.7386 32.3776,19.311 0.512599,49.565 56.5347,58.2898 17.9965,2.81339 41.5949,3.64016 63.0166,13.0949 8.33032,6.38741 14.9138,22.3299 11.7579,36.5433 -4.76457,2.09764 -10.4221,3.68859 -17.0988,4.58268 -53.9221,7.20827 -89.1804,-1.06417 -117.056,-9.33662 -29.2016,-8.66694 -50.2996,-17.3351 -76.2686,-8.19804z"/>
   <path id="_414160568" class="fil16" d="M1081.99 1509.37c0.975591,-0.533859 1.99016,-0.962599 3.06378,-1.19291 3.71693,-7.54016 5.33622,-22.6725 11.2559,-31.3914 17.3492,-25.5614 24.2622,-47.3292 24.2622,-47.3292 13.135,0.478347 10.2236,27.567 35.4071,34.7244 16.5378,4.70315 40.6666,-3.82559 68.3091,-19.7386 32.3776,19.311 16.5874,49.565 72.6095,58.2898 18.0036,2.81339 25.5201,3.64016 46.9418,13.0949 2.06693,1.60276 4.02402,3.77244 5.75434,6.34725 -4.86024,2.85355 -11.0256,4.98307 -18.7984,6.02363 -46.9843,6.28347 -77.7071,-0.922442 -101.997,-8.13071 -25.4492,-7.55197 -43.8319,-15.1039 -66.4583,-7.13977 -26.4071,9.28702 -65.413,4.24843 -80.3505,-3.55748z"/>
   <path id="_414160616" class="fil14" d="M1190.57 1492.85c-19.7362,3.70985 -45.3945,9.02245 -65.4308,4.22008 -11.7307,-2.81339 -21.828,-9.03308 -30.9047,-16.6571 0.63189,-1.29095 1.31811,-2.51339 2.06929,-3.62835 17.3492,-25.5614 24.2622,-47.3292 24.2622,-47.3292 13.135,0.478347 10.2236,27.567 35.4071,34.7244 16.2437,4.62048 39.8114,-3.5374 66.8363,-18.9059 -4.15985,17.4461 -12.528,43.8638 -32.2394,47.576z"/>
   <path id="_414160304" class="fil17" d="M1234.86 1500.94c1.40906,3.27166 5.19449,4.77284 8.45434,3.35788l21.7961 -9.41221c3.26339,-1.40906 4.76457,-5.18741 3.35906,-8.45552 -1.4126,-3.26103 -5.19567,-4.76457 -8.46024,-3.34725l-21.7996 9.40276c-3.25158,1.40906 -4.75867,5.20276 -3.34961,8.45434z"/>
   <path id="_414160280" class="fil17" d="M1223.3 1483.34c1.28858,2.98347 4.7504,4.36181 7.7315,3.07087l19.9453 -8.61024c2.98701,-1.29213 4.35827,-4.76221 3.07323,-7.73623 -1.29213,-2.9811 -4.7504,-4.35827 -7.73623,-3.07205l-19.9488 8.61497c-2.98347,1.28504 -4.35827,4.74449 -3.06496,7.73268z"/>
   <path id="_414160208" class="fil17" d="M1212.79 1467.13c1.29095,2.98937 4.75276,4.36063 7.73859,3.07559l19.9429 -8.61497c2.98583,-1.29685 4.36063,-4.75867 3.06969,-7.73623 -1.28858,-2.9811 -4.7504,-4.36418 -7.73268,-3.06378l-19.9441 8.60552c-2.99173,1.28032 -4.36063,4.74449 -3.07441,7.73386z"/>
   <path id="_414159368" class="fil18" d="M1285.56 1500.45c-0.0153543,-0.00590552 -0.0307087,-0.00826772 -0.0484252,-0.0141732 0.0141732,0.00236221 0.034252,0.00944883 0.0496063,0.0141732l-0.0011811 0zm-0.0838583 -0.0236221c-7.54489,-1.93583 -13.3854,-4.39252 -18.0744,-7.213 -0.00354331,0.00472441 -0.00944883,0.0106299 -0.011811,0.0141732 4.68662,2.81811 10.5413,5.2689 18.0862,7.20001l0 -0.0011811zm-28.6394 -15.9815l3.16772 -1.36417 -3.15236 1.35827c-1.41614,-1.61693 -2.68937,-3.2752 -3.86575,-4.97481 1.17047,1.70315 2.43898,3.36969 3.8504,4.98071z"/>
   <path id="_414159224" class="fil18" d="M1268.35 1486.17c-1.09843,-2.26536 -3.37205,-3.61418 -5.7626,-3.62008 2.39055,0.00590552 4.66418,1.35473 5.7626,3.62008l0 0zm-8.2819 -3.11339c0.0271654,-0.011811 0.0555119,-0.022441 0.0838583,-0.034252 -0.0295276,0.011811 -0.056693,0.022441 -0.0838583,0.0354331l0 -0.0011811zm2.48504 -0.507874c0.00590552,0 0.00944883,0.0011811 0.0153543,0.0011811l-0.0011811 -0.0011811c-0.00590552,0 -0.00826772,0.0011811 -0.0141732,0.0011811l0 -0.0011811zm-8.53229 -12.5433c-0.970867,-2.17677 -3.1063,-3.48189 -5.35512,-3.49016 2.24764,0.011811 4.38426,1.31339 5.3563,3.49016l-0.0011811 0zm-7.61693 -3.04607c0.00472441,-0.00236221 0.0106299,-0.00590552 0.0200788,-0.00944883 -0.00944883,0.00354331 -0.0153543,0.00708662 -0.0200788,0.00944883zm2.22402 -0.445276c0.00236221,0 0.00590552,0.0011811 0.00944883,0.0011811l-0.0011811 -0.0011811c-0.00236221,0 -0.00472441,0.0011811 -0.00826772,0z"/>
   <path id="_414159800" class="fil19" d="M1233.87 1451.63l1.93465 -0.836221 -1.93819 0.830316c0,0.00354331 0.00354331,0.00354331 0.00354331,0.00590552l0 0zm-3.42166 -2.95394l78.1016 -189.92 -78.1016 189.92zm83.9812 -237.138c-0.00236221,-0.00708662 -0.00236221,-0.00708662 -0.00236221,-0.0129921 0,0.00354331 0,0.00944883 0.00236221,0.0129921l0 0zm-0.0283465 -0.101575c-2.06693,-7.23544 -5.42835,-14.602 -10.037,-21.9555 4.6063,7.35355 7.97008,14.7201 10.037,21.9555zm-84.1028 -133.51c1.44449,-1.48701 2.8689,-2.92205 4.22008,-4.28504l0 -0.0011811c-1.36063,1.36417 -2.77205,2.79095 -4.22481,4.27796l0.00472441 0.00826772z"/>
   <path id="_414159728" class="fil16" d="M1219.34 1457.89l14.5335 -6.2693c0,-0.00236221 -0.00236221,-0.00236221 -0.00236221,-0.00472441l-0.0212599 0.00708662c-1.05473,-0.990946 -2.18977,-1.96536 -3.4063,-2.93622l0.00826772 -0.0200788c-1.84488,-1.4563 -3.88229,-2.86772 -6.16182,-4.22835l0 -0.0011811c-0.493701,0.285827 -0.986221,0.568111 -1.4752,0.848032 -0.925985,3.87638 -2.0563,8.19213 -3.47481,12.6047z"/>
   <path id="_414159608" class="fil20" d="M1240.76 1504.83c0.850394,0 1.71851,-0.17126 2.55118,-0.533859l21.7961 -9.41221c0.902363,-0.388583 1.67244,-0.961418 2.28307,-1.65591 0.00236221,-0.00354331 0.00826772,-0.00826772 0.011811,-0.0141732 -0.00708662,-0.00354331 -0.011811,-0.00708662 -0.0200788,-0.0129921 1.5815,-1.80591 2.09528,-4.40906 1.08425,-6.77245 -0.0425197,-0.0897638 -0.0791339,-0.175984 -0.121654,-0.259843 -1.09843,-2.26536 -3.37205,-3.61418 -5.7626,-3.62008 -0.00826772,-0.0011811 -0.0141732,0 -0.0188977,0 -0.00708662,-0.0011811 -0.00944883,0 -0.0153543,0 -0.800788,-0.0011811 -1.61457,0.152362 -2.40118,0.472441 -0.0295276,0.011811 -0.056693,0.022441 -0.0838583,0.0354331 -0.0200788,0.00826772 -0.0389764,0.0165354 -0.056693,0.0248032l-0.0011811 0 -3.16772 1.36417 -18.6307 8.03859c-3.25158,1.40906 -4.75867,5.20276 -3.34961,8.45434 1.05,2.43543 3.41575,3.89174 5.90315,3.89174z"/>
   <path id="_414159560" class="fil20" d="M1228.7 1486.9c0.778347,0 1.56851,-0.154725 2.32677,-0.483071l19.9453 -8.61024c0.236221,-0.103937 0.464174,-0.218504 0.680315,-0.348425 -0.00236221,-0.00590552 -0.00826772,-0.0141732 -0.0106299,-0.0212599 2.50394,-1.49528 3.58819,-4.61457 2.40355,-7.36654 -0.011811,-0.0200788 -0.0200788,-0.0425197 -0.0283465,-0.0637796 -0.972048,-2.17677 -3.10748,-3.47835 -5.3563,-3.49016 -0.00826772,-0.0011811 -0.0165354,0 -0.0283465,0 -0.00354331,-0.0011811 -0.00590552,0 -0.00944883,0 -0.734646,-0.0011811 -1.48347,0.141732 -2.20394,0.434646 -0.00944883,0.00354331 -0.0153543,0.00708662 -0.0200788,0.00944883 -0.0295276,0.0106299 -0.0614174,0.022441 -0.0897638,0.0377953l-0.640158 0.275197c0,0 0,0.0011811 0,0.0011811l-19.3087 8.33859c-2.98347,1.28504 -4.35827,4.74449 -3.06378,7.73268 0.959056,2.22284 3.12638,3.55394 5.40355,3.55394z"/>
   <path id="_414159104" class="fil19" d="M1243.54 1453.85c-0.956694,-2.20984 -3.1063,-3.54213 -5.37284,-3.5504 2.26536,0.00826772 4.41615,1.34055 5.37284,3.55158l0 -0.0011811zm-5.40709 -3.5504c0.00236221,0 0.00590552,0 0.00826772,0l0 0c-0.00354331,0 -0.00590552,0 -0.00826772,0z"/>
   <path id="_414159176" class="fil20" d="M1218.19 1470.69c0.778347,0 1.56851,-0.155906 2.32914,-0.48189l19.9429 -8.61497c0.440552,-0.193701 0.850394,-0.432284 1.22008,-0.712205 -0.00708662,-0.00590552 -0.00944883,-0.011811 -0.0153543,-0.0177165 2.1189,-1.59095 2.96339,-4.46693 1.86496,-7.0063l0 -0.0011811c-0.956694,-2.20984 -3.1063,-3.54213 -5.37284,-3.5504 -0.00826772,0 -0.0165354,0 -0.0259843,0 -0.00354331,0 -0.00590552,0 -0.00826772,0 -0.778347,0 -1.56732,0.159449 -2.32559,0.487796l0 -0.0011811 -1.93465 0.836221 -14.5335 6.2693 -3.47599 1.50118c-2.99173,1.28032 -4.36063,4.74449 -3.07441,7.73386 0.451181,1.04646 1.17284,1.89685 2.04331,2.50276 0.981497,0.682678 2.15906,1.05473 3.36614,1.05473z"/>
   <path id="_414159704" class="fil1" d="M703.392 1319.93c-24.952,14.7614 -18.8492,30.7713 -6.72993,59.7461 12.1264,28.9902 31.1008,38.5276 60.0851,26.4l191.498 -99.2351c28.9819,-12.1217 42.6544,-45.4583 30.5256,-74.4355 -12.1228,-28.9914 -36.1595,-28.1386 -67.5225,-26.1673 -59.7319,3.75945 -207.855,113.691 -207.856,113.692z"/>
   <path id="_414159824" class="fil12" d="M696.662 1379.68c-12.1193,-28.976 -18.2209,-44.9859 6.73111,-59.7485 -0.0011811,0.0011811 31.6311,-23.4862 71.5583,-49.1032 4.68662,8.89607 8.92914,17.9965 13.226,26.589 10.9417,21.8421 21.3225,44.0386 33.4134,65.2843 1.41969,2.51339 2.8878,5.01496 4.32874,7.52481l-69.1737 35.8524c-28.9831,12.1276 -47.9575,2.59016 -60.0839,-26.3988z"/>
   <path id="_414159776" class="fil1" d="M889.625 1201.26c-4.47874,41.9563 -1.69725,84.626 34.3122,97.5497 35.9965,12.9366 64.1457,-4.22481 77.0717,-40.2177l97.3383 -264.299c16.376,-45.6 -3.01063,-53.3103 -48.6059,-69.6804l-0.500788 5.87126c-45.6059,-16.376 -99.6343,-41.0752 -116.01,4.513l-43.6052 266.263z"/>
   <path id="_414158600" class="fil21" d="M723.439 1306.8c0,0 -22.3217,4.8189 -53.1213,2.47323 -10.5036,-0.80315 -24.4394,5.30906 -32.8299,5.83819 -10.4705,-11.6114 -43.7185,1.8626 -47.8087,7.21182 -7.90985,7.14567 8.80985,57.0497 34.9063,79.5733 35.4815,30.6484 11.4862,76.6843 70.4823,153.764 28.3441,37.0406 61.8402,6.90945 64.3997,-12.1937 -2.44016,-23.2925 -13.4386,-44.1815 -19.9477,-61.1953 -11.8075,-30.8197 -2.48032,-39.4252 7.51064,-48.6721 7.1693,-6.6378 14.6835,-13.6039 14.9599,-29.3575 -27.5481,-16.0784 -46.9418,-32.7673 -51.0768,-49.4611 -6.30119,-25.4055 18.6543,-36.3461 12.5256,-47.9811z"/>
   <path id="_414158768" class="fil22" d="M640.257 1382.8c-19.1079,-16.4953 -33.8162,-45.7678 -39.6166,-66.9272 11.8559,-4.91103 29.6835,-8.71654 36.8469,-0.768898 8.38938,-0.529134 22.3264,-6.64134 32.8299,-5.83819 30.7996,2.34567 53.1225,-2.47441 53.1225,-2.47441 6.12638,11.6362 -18.828,22.5756 -12.5268,47.9823 4.13386,16.6937 23.5299,33.3839 51.0768,49.4611 -0.276378,15.7547 -7.78938,22.7197 -14.9599,29.3575 -9.99213,9.24686 -19.3181,17.8524 -7.51064,48.6721 6.50906,17.0138 17.5087,37.9028 19.9477,61.1953 -1.38662,10.3949 -11.9469,24.0319 -25.8437,28.3595 -4.2,-3.0815 -8.38347,-7.21064 -12.4736,-12.5539 -67.7056,-88.4646 -40.1622,-141.298 -80.8926,-176.465z"/>
   <path id="_414158432" class="fil23" d="M634.923 1313.04c0.94252,0.578741 1.82126,1.25079 2.56418,2.06811 8.38938,-0.529134 22.3264,-6.64134 32.8299,-5.83819 30.7996,2.34567 53.1225,-2.47441 53.1225,-2.47441 6.12638,11.6362 -18.828,22.5756 -12.5268,47.9823 4.13386,16.6937 23.5299,33.3839 51.0768,49.4611 -0.664961,37.6937 -34.7611,39.0343 -14.4862,91.9749 6.51497,17.028 9.52442,23.9575 11.9634,47.25 -0.346063,2.57244 -1.25551,5.36103 -2.63858,8.14134 -4.88741,-2.80276 -9.79843,-7.09607 -14.5654,-13.3193 -58.9961,-77.0776 -34.9961,-123.121 -70.4823,-153.76 -21.1843,-18.2953 -36.1985,-54.6473 -36.8575,-71.4863z"/>
   <path id="_414159056" class="fil21" d="M703.234 1399.04c-13.0169,-15.2681 -30.391,-34.8945 -36.1796,-54.6685 -3.39213,-11.5689 -3.01536,-23.4295 -0.912993,-35.0906 1.4315,-0.0968505 2.84055,-0.106299 4.17638,-0.00944883 30.7996,2.34567 53.1225,-2.47441 53.1225,-2.47441 6.12638,11.6362 -18.828,22.5756 -12.5268,47.9823 4.06181,16.3866 22.8732,32.7874 49.6181,48.593 -17.204,5.06693 -44.2796,10.9358 -57.2977,-4.33229z"/>
   <path id="_414159032" class="fil17" d="M718.229 1441.5c-2.13189,2.84292 -1.55315,6.8752 1.28976,9.00355l18.9933 14.2323c2.85236,2.12953 6.87756,1.55197 9.00709,-1.29685 2.12953,-2.8311 1.55433,-6.86693 -1.28386,-8.9941l-19.0099 -14.2382c-2.84292,-2.13189 -6.86812,-1.55315 -8.99646,1.29331z"/>
   <path id="_414158912" class="fil17" d="M727.74 1422.72c-1.94055,2.59725 -1.41024,6.28819 1.19291,8.23465l17.3847 13.0288c2.60315,1.95 6.28583,1.42087 8.23701,-1.18583 1.94882,-2.59488 1.42677,-6.28701 -1.17165,-8.23347l-17.3941 -13.0335c-2.60433,-1.94882 -6.29056,-1.41496 -8.24883,1.18937z"/>
   <path id="_414158744" class="fil17" d="M736.594 1405.54c-1.95236,2.59725 -1.41732,6.28583 1.17992,8.23347l17.3965 13.0347c2.59488,1.94528 6.27756,1.40788 8.23347,-1.18701 1.94882,-2.59725 1.41851,-6.28701 -1.18701,-8.23938l-17.3894 -13.0252c-2.59252,-1.95236 -6.27638,-1.4126 -8.23347,1.18347z"/>
   <path id="_414158960" class="fil19" d="M757.713 1549.67l0.0590552 -0.12874 0.034252 -0.0968505c-0.0318898,0.0744095 -0.0614174,0.151181 -0.0933072,0.225591zm0.843308 -2.27599l0.0188977 -0.0496063c0.0153543,-0.0519685 0.0307087,-0.101575 0.046063,-0.152362 -0.0188977,0.0661418 -0.0437008,0.133465 -0.0637796,0.201969l-0.0011811 0zm0.718111 -2.77087c0.080315,-0.389764 0.145276,-0.775985 0.19252,-1.16339 -2.44016,-23.2925 -5.44843,-30.2221 -11.9634,-47.25l-0.0011811 0c6.51615,17.028 9.5256,23.9575 11.9646,47.25l0 0.0011811c-0.0519685,0.381496 -0.113386,0.770079 -0.19252,1.16102l0 0.0011811zm-64.0359 11.2488c-0.011811,-0.011811 -0.0177165,-0.022441 -0.0295276,-0.0354331 0.00944883,0.0106299 0.0200788,0.0259843 0.0295276,0.0354331zm-0.0791339 -0.102756c-0.0330709,-0.0377953 -0.0625985,-0.0767717 -0.0921261,-0.115748 0.0295276,0.0389764 0.0614174,0.0767717 0.0921261,0.115748zm50.55 -64.5142c-0.00236221,-0.00590552 -0.0011811,-0.00944883 -0.00236221,-0.0165354 0.0011811,0.00708662 0.0011811,0.0106299 0.00354331,0.0165354l-0.0011811 0zm-0.0366142 -0.108662c-3.45945,-10.239 -4.71496,-18.3957 -4.55788,-25.2567 -0.0106299,-0.00236221 -0.0200788,-0.00354331 -0.0307087,-0.00708662 -0.145276,6.86221 1.12913,15.0319 4.58977,25.2638l-0.0011811 0zm0.562205 -36.7087l-2.75433 -2.06103c0.966142,-2.82284 2.15669,-5.45788 3.47599,-7.98426 -0.00236221,-0.00236221 -0.00236221,-0.00236221 -0.00472441,0 -1.32402,2.5311 -2.52166,5.14843 -3.48898,7.9689l2.77205 2.07638zm7.14804 -19.8815l-0.559843 -0.422835 -0.00236221 0.00236221 0.562205 0.420473zm8.04568 -30.6496c-0.0755906,-0.0437008 -0.151181,-0.0897638 -0.230315,-0.13937l-0.00236221 0.00236221c0.0791339,0.0496063 0.155906,0.090945 0.232677,0.137008zm92.3753 -178.43l-21.6721 -65.0871c0,0 -0.00236221,0.0011811 -0.00236221,0.0011811l21.6685 65.0835c-25.1705,12.2197 -52.6867,28.6122 -77.2241,44.3115 24.5386,-15.6969 52.063,-32.0918 77.23,-44.3091zm-78.9001 45.3803c-0.392126,0.250394 -0.783071,0.494882 -1.16575,0.747638 0.389764,-0.248032 0.774804,-0.498426 1.16575,-0.747638zm-1.9878 1.27795c-0.292914,0.185433 -0.585827,0.372048 -0.876379,0.564567 -0.819686,0.529134 -1.63937,1.04882 -2.44961,1.57795 -0.376772,0.242126 -0.747638,0.49252 -1.1185,0.734646 1.46811,-0.956694 2.95158,-1.91339 4.44449,-2.87835l0 0.0011811zm-4.54961 2.94685c-0.0531496,0.0318898 -0.10748,0.0673229 -0.158268,0.100394 -0.114567,0.0744095 -0.227953,0.147638 -0.338977,0.223229 0.166536,-0.109843 0.329528,-0.21378 0.497244,-0.323622zm-0.842127 0.548032c-0.604725,0.389764 -1.20591,0.778347 -1.80354,1.16693 -0.390945,0.261024 -0.783071,0.514961 -1.16575,0.772442 0.983859,-0.643701 1.97362,-1.29095 2.97047,-1.93937l-0.0011811 0zm-3.47362 2.2689c-0.35315,0.229134 -0.702756,0.458268 -1.05118,0.690945 0.349607,-0.230315 0.701575,-0.46063 1.05236,-0.690945l-0.0011811 0zm-2.51811 1.65354c-0.276378,0.178347 -0.5563,0.361418 -0.830316,0.54567 -0.996851,0.656693 -1.9878,1.31102 -2.97166,1.96417 -0.0614174,0.0448819 -0.122835,0.0874016 -0.187795,0.129921 1.31575,-0.874016 2.64685,-1.75276 3.99095,-2.63977l-0.0011811 0zm-4.19646 2.77795c-0.102756,0.0673229 -0.207874,0.133465 -0.309449,0.198425 -0.959056,0.64252 -1.91811,1.27441 -2.86063,1.91221 1.0441,-0.698032 2.10473,-1.40551 3.17008,-2.11063zm-128.675 123.41c-1.26496,-1.31102 -2.62205,-2.5937 -4.07599,-3.8504 -0.034252,-0.0271654 -0.0637796,-0.0543308 -0.0933072,-0.0814961 0.0295276,0.0271654 0.0590552,0.0543308 0.0933072,0.0814961 1.45394,1.25669 2.81103,2.53819 4.07599,3.8504l0 0zm123.405 -119.894c-0.703938,0.47126 -1.40315,0.941339 -2.09882,1.39961 -0.367323,0.258662 -0.734646,0.500788 -1.09961,0.748819 -0.0814961,0.0543308 -0.159449,0.109843 -0.239764,0.162992 1.13032,-0.761812 2.28071,-1.53543 3.43819,-2.31142l0 0zm-4.63701 3.11929c-0.297638,0.20315 -0.594095,0.401575 -0.887009,0.595276 -0.411024,0.279921 -0.818505,0.558662 -1.22835,0.832678 -0.682678,0.462992 -1.36299,0.923623 -2.03622,1.3878 -0.472441,0.316536 -0.941339,0.640158 -1.40906,0.955513 -0.338977,0.23504 -0.676772,0.470079 -1.01339,0.698032 2.12717,-1.45158 4.32284,-2.94567 6.57402,-4.46929zm-7.51772 5.11418c-0.427559,0.288189 -0.848032,0.578741 -1.27087,0.870473 -0.549213,0.377953 -1.10551,0.754725 -1.64764,1.13268 -0.43937,0.296457 -0.868111,0.597638 -1.29331,0.891733 1.37008,-0.944883 2.77795,-1.91103 4.21181,-2.89488zm-4.45158 3.0626c-0.518504,0.355512 -1.02756,0.7063 -1.53543,1.05709 -0.121654,0.0850394 -0.243307,0.170079 -0.367323,0.257481 0.624804,-0.434646 1.26378,-0.874016 1.90276,-1.31457zm-2.7 1.8626c-0.0283465,0.0212599 -0.0578741,0.0401575 -0.0862205,0.0602363 -0.405118,0.282284 -0.811418,0.562205 -1.20709,0.840946 0.42874,-0.298819 0.858662,-0.596457 1.29331,-0.901182zm-2.1248 1.47756c-0.207874,0.145276 -0.415748,0.290551 -0.623623,0.435827 0.205512,-0.142913 0.415748,-0.290551 0.624804,-0.435827l-0.0011811 0zm-1.10197 0.766536c-0.368504,0.252756 -0.728741,0.511418 -1.08662,0.757087 -0.484252,0.338977 -0.962599,0.672048 -1.43504,1.00394 -0.448819,0.312992 -0.882284,0.618898 -1.31457,0.920079 -0.421654,0.298819 -0.846851,0.588189 -1.25315,0.881103 -0.411024,0.288189 -0.80315,0.563386 -1.1941,0.843308 1.97362,-1.39252 4.07363,-2.86536 6.28465,-4.40433l-0.0011811 -0.0011811zm-6.86103 4.81063c-0.233858,0.165354 -0.466536,0.325985 -0.698032,0.484252 -0.334252,0.243307 -0.66378,0.470079 -0.994489,0.713386 -1.38307,0.239764 -3.32244,0.549213 -5.7567,0.874016 2.43071,-0.322441 4.37126,-0.633071 5.75434,-0.872835 0.553937,-0.390945 1.1185,-0.791339 1.69488,-1.19882l0 0zm-98.8194 95.191c-0.0401575,-0.0377953 -0.0791339,-0.0755906 -0.121654,-0.111024 0.0413386,0.0366142 0.0814961,0.0732284 0.121654,0.111024l0 0zm52.8378 -91.5934c-0.00590552,0.00236221 -0.011811,0 -0.0200788,0 0.00354331,0 0.0165354,0 0.0200788,0zm-0.166536 -0.00708662c-0.00826772,0 -0.0188977,-0.00236221 -0.0307087,-0.0011811 0.011811,0 0.0212599,0 0.0307087,0.0011811zm-0.153543 -0.00826772c-0.0165354,0 -0.0318898,-0.0011811 -0.0484252,-0.0011811 0.0153543,0.0011811 0.0330709,0.0011811 0.0496063,0.0011811l-0.0011811 0zm-0.162992 -0.00708662c-0.0389764,-0.00236221 -0.0791339,-0.00354331 -0.116929,-0.00590552 0.0377953,0.00236221 0.0791339,0.00354331 0.116929,0.00590552l0 0zm-0.188977 -0.00944883c-0.0366142,0 -0.0744095,-0.00236221 -0.112205,-0.00354331 0.0366142,0 0.0755906,0.00354331 0.113386,0.00354331l-0.0011811 0zm-0.145276 -0.00826772c-0.0366142,-0.0011811 -0.0779528,-0.00354331 -0.114567,-0.00472441 0.0377953,0.00236221 0.0755906,0.00354331 0.115748,0.00472441l-0.0011811 0zm-0.146457 -0.00708662c-0.180709,-0.00944883 -0.361418,-0.0188977 -0.543308,-0.0283465 0.18189,0.00944883 0.362599,0.0188977 0.544489,0.0283465l-0.0011811 0zm-0.543308 -0.0283465c-1.40315,-0.0755906 -2.82992,-0.164173 -4.27323,-0.274016 1.44449,0.10748 2.86654,0.198425 4.27323,0.274016l0 0zm-4.28977 -0.274016c-0.0366142,-0.0011811 -0.0732284,-0.00590552 -0.109843,-0.00590552 0.0354331,0 0.0755906,0.00236221 0.109843,0.00590552zm-0.162992 -0.011811c-0.0307087,-0.00236221 -0.0649607,-0.00472441 -0.0956694,-0.00708662 0.0307087,0.00236221 0.0614174,0.00472441 0.0956694,0.00708662l0 0zm-0.173622 -0.0129921c-0.0283465,-0.0011811 -0.056693,-0.00472441 -0.0826772,-0.00708662 0.0259843,0.00236221 0.056693,0.00472441 0.0838583,0.00708662l-0.0011811 0zm-80.0764 35.8051c-3.22914,-11.0858 -3.7937,-19.8898 -0.887009,-22.6937l-0.0011811 0c-2.90551,2.80394 -2.33977,11.6102 0.889371,22.6937l-0.0011811 0zm30.3756 -34.4268l-0.0696851 0.00590552c-0.167717,0.0129921 -0.333071,0.0283465 -0.500788,0.046063 0.190158,-0.0188977 0.380315,-0.034252 0.571654,-0.0507874l-0.0011811 -0.0011811zm-28.5768 9.46182c-0.00236221,0.0011811 -0.00354331,0.00354331 -0.00590552,0.00590552 0.0011811,-0.00236221 0.00472441,-0.00354331 0.00708662,-0.00590552l-0.0011811 0zm-0.0106299 0.00590552c-0.849213,0.563386 -1.53898,1.09724 -2.04567,1.58622 -0.218504,0.210236 -0.400394,0.409843 -0.544489,0.601182 0.142913,-0.191339 0.327166,-0.390945 0.542126,-0.6 0.506693,-0.487796 1.19882,-1.02402 2.04921,-1.5874l-0.0011811 0zm-2.59134 2.1874c-0.0307087,0.0259843 -0.056693,0.0519685 -0.0838583,0.0779528 0.0271654,-0.0259843 0.0555119,-0.0543308 0.0838583,-0.0779528z"/>
   <path id="_414158864" class="fil14" d="M747.263 1563.94c-0.0200788,0.0200788 -0.0437008,0.0377953 -0.0625985,0.0555119 0.0188977,-0.0177165 0.0425197,-0.0354331 0.0625985,-0.0555119l0 0zm-0.0826772 0.0720473c-3.89174,3.43465 -8.50158,6.23977 -13.5567,7.813 -4.2,-3.0815 -8.38347,-7.21064 -12.4736,-12.5539 -67.7056,-88.4646 -40.1622,-141.298 -80.8926,-176.465 -19.1079,-16.4953 -33.8162,-45.7678 -39.6166,-66.9272 2.23229,-0.924804 4.67363,-1.81063 7.21772,-2.58662l-0.0661418 0.0200788c-1.65591,0.504331 -3.26103,1.05236 -4.79764,1.63583l-0.131102 0.0437008c-4.36418,1.65 -8.12835,3.5126 -10.5827,5.13662 -0.00354331,0.0011811 -0.00472441,0.00354331 -0.00708662,0.00590552 -0.0011811,0 -0.00236221,-0.00236221 -0.00354331,0 -0.850394,0.563386 -1.54252,1.09961 -2.04921,1.5874 -0.216142,0.209055 -0.398032,0.408662 -0.542126,0.6l-0.0011811 0c-0.0295276,0.0248032 -0.056693,0.0519685 -0.0838583,0.0779528l-0.0011811 0c-2.90551,2.80394 -2.34095,11.6079 0.889371,22.6937 5.23229,17.9811 17.4685,41.9599 33.2492,56.0516 0.0413386,0.0366142 0.0814961,0.0732284 0.121654,0.111024 0.212599,0.186614 0.424016,0.372048 0.638977,0.557481 0.0295276,0.0271654 0.0590552,0.0543308 0.0933072,0.0814961 1.45394,1.25669 2.81103,2.53819 4.07599,3.8504 29.5784,30.6272 9.83032,75.9945 66.4064,149.914l0 0c0.0295276,0.0389764 0.0590552,0.0779528 0.0921261,0.115748 0.0153543,0.0248032 0.0330709,0.0472441 0.0496063,0.0673229 0.011811,0.0129921 0.0177165,0.0236221 0.0295276,0.0354331 12.8752,16.6925 26.7862,19.5555 38.3847,15.9473l0.022441 -0.00590552c5.04449,-1.57441 9.65079,-4.37244 13.5343,-7.80709zm-123.463 -253.481c-0.00590552,-0.00236221 -0.011811,0 -0.0153543,0l-0.0129921 0c0.00826772,0 0.0212599,0.0011811 0.0295276,0.0011811l-0.0011811 -0.0011811zm-2.81693 0.135827l-0.0437008 0c-0.191339,0.0177165 -0.380315,0.0330709 -0.570473,0.0519685 -0.615355,0.0590552 -1.23543,0.129921 -1.85433,0.214961l-0.0330709 0.00354331c0.838583,-0.113386 1.6748,-0.201969 2.50276,-0.270473l-0.0011811 0zm-6.53859 0.960237c-1.2685,0.258662 -2.53229,0.563386 -3.79016,0.895276l-0.0956694 0.0271654c1.2874,-0.344882 2.5878,-0.65315 3.88583,-0.922442z"/>
   <path id="_414158456" class="fil24" d="M748.556 1562.74c0.923623,-0.890552 1.8,-1.81772 2.62441,-2.76851l0.168898 -0.194882c0.483071,-0.569292 0.951969,-1.13858 1.40079,-1.71496l0.294095 -0.401575c0.392126,-0.506693 0.766536,-1.0311 1.1185,-1.55551l0.368504 -0.539764c0.314173,-0.479528 0.612993,-0.959056 0.908268,-1.44095l0.382677 -0.641339c0.252756,-0.46063 0.501969,-0.912993 0.734646,-1.37362l0.269292 -0.507874c-4.88741,-2.80276 -9.79607,-7.09489 -14.563,-13.3181 -58.9961,-77.0776 -34.9961,-123.121 -70.4823,-153.76 -21.1843,-18.2953 -36.1985,-54.6473 -36.8575,-71.4875 0.56693,0.347244 1.10787,0.729922 1.61457,1.15512 -0.121654,-0.101575 -0.240945,-0.199606 -0.360236,-0.297638l-0.431103 -0.322441c-0.364961,-0.263386 -0.746457,-0.512599 -1.13858,-0.741733l-0.433465 -0.244488c-0.530315,-0.284646 -1.08189,-0.532678 -1.66772,-0.753544l-0.343701 -0.109843c-0.497244,-0.175984 -1.00394,-0.328347 -1.51772,-0.461811l-0.6 -0.144095c-0.506693,-0.106299 -1.02992,-0.200788 -1.56732,-0.287008l-0.448819 -0.0673229c-0.67441,-0.0862205 -1.36299,-0.147638 -2.07166,-0.187795l-0.550394 -0.0188977c-0.558662,-0.0212599 -1.1185,-0.0295276 -1.68898,-0.0271654 -0.00944883,-0.0011811 -0.0200788,-0.0011811 -0.0283465,-0.0011811l-0.635434 0.0188977c-0.688583,0.0212599 -1.3878,0.0555119 -2.0941,0.115748l-0.0602363 0.0011811c-0.826772,0.068504 -1.66181,0.157087 -2.50158,0.270473l-0.520867 0.0791339c-0.646063,0.0933072 -1.29213,0.196063 -1.94055,0.309449l-0.510237 0.0944883c-0.355512,0.0673229 -0.708662,0.137008 -1.06417,0.207874 -1.30039,0.26811 -2.59961,0.576378 -3.88583,0.920079l-0.320079 0.0885827c-0.747638,0.204331 -1.49646,0.407481 -2.23347,0.641339l-0.0661418 0.0153543c-2.54292,0.775985 -4.98426,1.66181 -7.21654,2.58544 5.79922,21.1595 20.5099,50.4331 39.6166,66.9272 40.7303,35.1673 13.187,88.0005 80.8926,176.465 4.08898,5.34331 8.27363,9.47245 12.4736,12.5539 5.05512,-1.57323 9.66497,-4.37835 13.5567,-7.813 0.00590552,-0.00590552 0.0141732,-0.0106299 0.0200788,-0.0165354 0.0188977,-0.0177165 0.0425197,-0.0354331 0.0625985,-0.0555119 0.43937,-0.392126 0.872835,-0.790158 1.29331,-1.19528zm9.1441 -13.0394l0.0129921 -0.0295276c0.0307087,-0.0744095 0.0614174,-0.151181 0.0933072,-0.225591l0.00826772 -0.0248032c-0.0389764,0.0933072 -0.0755906,0.185433 -0.114567,0.27874l0 0.0011811zm0.833859 -2.2441l0.022441 -0.0614174c0.0212599,-0.068504 0.046063,-0.135827 0.0649607,-0.201969 0.0129921,-0.0496063 0.0283465,-0.0956694 0.0413386,-0.145276 -0.0413386,0.137008 -0.0826772,0.272835 -0.127559,0.408662l-0.0011811 0zm0.707481 -2.67284c0.0129921,-0.0519685 0.0248032,-0.10748 0.0330709,-0.16063 0.0779528,-0.390945 0.140551,-0.779528 0.19252,-1.16221 -0.0590552,0.433465 -0.132284,0.876379 -0.225591,1.32284zm-121.755 -229.679l0 0c-0.0897638,-0.0980316 -0.180709,-0.197244 -0.275197,-0.290551 0.0933072,0.0933072 0.185433,0.19252 0.275197,0.290551z"/>
   <path id="_414158024" class="fil15" d="M756.829 1551.6l0 0 0.114567 -0.253937c0.206693,-0.416929 0.394488,-0.829134 0.572835,-1.25433l0.184252 -0.393307c0.0377953,-0.0933072 0.0767717,-0.187795 0.114567,-0.279921l0.0295276 -0.0850394c0.175984,-0.425197 0.315355,-0.844489 0.472441,-1.26732l0.217323 -0.611811c0.046063,-0.135827 0.0874016,-0.271654 0.12874,-0.408662 0.105118,-0.355512 0.193701,-0.702756 0.284646,-1.05l0.162992 -0.634252c0.0472441,-0.19252 0.0933072,-0.386221 0.131102,-0.579922 0.0933072,-0.446457 0.166536,-0.889371 0.225591,-1.32284l0 0.0011811c-2.44016,-23.2937 -5.44843,-30.2233 -11.9634,-47.2512l-0.0011811 0c-0.654331,-1.70315 -1.25079,-3.35551 -1.79173,-4.95473 -0.00354331,-0.00590552 -0.00236221,-0.00944883 -0.00354331,-0.0165354 -0.0153543,-0.0307087 -0.0236221,-0.0614174 -0.0330709,-0.0921261 -3.46063,-10.2319 -4.73504,-18.4028 -4.58977,-25.2638 -0.903544,-0.185433 -1.78347,-0.565748 -2.57244,-1.15394l-18.9945 -14.2323c-2.84173,-2.12835 -3.42048,-6.16063 -1.2874,-9.00237 0.210236,-0.284646 0.442914,-0.54567 0.689764,-0.783071 2.22992,-2.15197 5.74961,-2.43071 8.3067,-0.512599l16.2366 12.163c0.967324,-2.82047 2.16614,-5.4378 3.48898,-7.9689 -0.216142,-0.124016 -0.42874,-0.262205 -0.634252,-0.416929l-17.3858 -13.0288c-2.60197,-1.94646 -3.1311,-5.63741 -1.19055,-8.23465 0.191339,-0.257481 0.403937,-0.494882 0.628347,-0.711024 2.04685,-1.9748 5.27244,-2.23583 7.6193,-0.478347l16.8319 12.613 0.00236221 -0.00236221 -0.0011811 -0.00236221c1.23425,-2.12717 2.4437,-4.32402 3.54922,-6.63189 -0.416929,-0.178347 -0.820867,-0.414567 -1.20118,-0.696851l-17.3977 -13.0323c-1.68543,-1.26614 -2.50276,-3.26339 -2.33386,-5.22284 -12.3532,1.09252 -24.6461,-0.648426 -32.204,-9.51261 -13.0181,-15.2681 -30.3921,-34.8945 -36.1807,-54.6685 -3.39213,-11.5689 -3.01536,-23.4295 -0.912993,-35.0906 1.4315,-0.0968505 2.84055,-0.106299 4.17638,-0.00944883 -10.5036,-0.80315 -24.4394,5.30906 -32.8299,5.83819l-0.0011811 0c-0.0897638,-0.0980316 -0.180709,-0.197244 -0.275197,-0.290551 -0.217323,-0.219685 -0.442914,-0.426378 -0.673229,-0.623623 -0.506693,-0.425197 -1.04764,-0.807875 -1.61457,-1.15512 0.657875,16.8402 15.6744,53.1922 36.8575,71.4875 35.4862,30.639 11.4874,76.6808 70.4823,153.76 4.76575,6.22441 9.6756,10.5154 14.563,13.3181l-0.00236221 -0.00236221 0.00472441 0.00354331zm3.68386 -135.502c0.857481,-3.5563 1.39843,-7.4504 1.47756,-11.8642l-0.0011811 0c-0.186614,-0.102756 -0.369685,-0.214961 -0.559843,-0.328347 -0.304725,-0.178347 -0.607087,-0.355512 -0.90945,-0.536221 -3.82087,1.12677 -8.12599,2.28898 -12.6579,3.25394l12.6508 9.47481z"/>
   <path id="_414158192" class="fil16" d="M760.531 1403.37c-26.7449,-15.8079 -45.5552,-32.2075 -49.6181,-48.5941 -6.30119,-25.4055 18.6543,-36.3461 12.5268,-47.9823l-0.0011811 0.0011811c0,0 -2.96221,0.640158 -8.21575,1.33819 -8.14961,1.08662 -21.8209,2.31732 -38.5323,1.52599 -0.00354331,0.0011811 -0.0165354,0 -0.0200788,0 -0.0496063,0 -0.0956694,-0.00354331 -0.146457,-0.00708662 -0.0106299,-0.00236221 -0.0188977,-0.00236221 -0.0307087,-0.0011811 -0.0413386,-0.0011811 -0.080315,-0.00472441 -0.121654,-0.00708662 -0.0177165,0 -0.0330709,-0.0011811 -0.0496063,-0.0011811 -0.0389764,-0.00236221 -0.0755906,-0.00354331 -0.114567,-0.00590552 -0.0389764,-0.00236221 -0.0791339,-0.00354331 -0.116929,-0.00590552 -0.0259843,-0.0011811 -0.0472441,-0.00354331 -0.0708662,-0.00354331 -0.0377953,0 -0.0755906,-0.00236221 -0.113386,-0.00354331 -0.00944883,-0.00236221 -0.0212599,-0.00236221 -0.0318898,-0.00472441 -0.0413386,-0.0011811 -0.0779528,-0.00236221 -0.115748,-0.00472441 -0.011811,-0.00236221 -0.0188977,-0.00236221 -0.0307087,-0.00236221 -0.18189,-0.00944883 -0.362599,-0.0188977 -0.544489,-0.0283465l0 0c-1.40788,-0.0755906 -2.82756,-0.166536 -4.27323,-0.274016 -0.00708662,0.0011811 -0.0106299,0.00236221 -0.0165354,0 -0.0354331,-0.00236221 -0.0732284,-0.00590552 -0.109843,-0.00590552 -0.0188977,-0.00236221 -0.034252,-0.00236221 -0.0531496,-0.00590552 -0.0354331,-0.00236221 -0.0649607,-0.00472441 -0.0956694,-0.00708662 -0.0271654,-0.00236221 -0.0531496,-0.00590552 -0.0767717,-0.00590552 -0.0271654,-0.00236221 -0.0578741,-0.00472441 -0.0838583,-0.00708662 -0.0531496,-0.00236221 -0.103937,-0.00826772 -0.157087,-0.00944883l-0.0011811 0c-1.33465,-0.0968505 -2.74252,-0.0874016 -4.1752,0.00944883 -2.10354,11.6599 -2.47914,23.5217 0.912993,35.0906 5.78859,19.774 23.1626,39.3992 36.1807,54.6685 7.55788,8.86418 19.852,10.6051 32.204,9.51261 0.0921261,-1.05827 0.470079,-2.10236 1.15512,-3.01181 0.188977,-0.255118 0.399213,-0.490158 0.622441,-0.705119 2.04449,-1.97244 5.27244,-2.23819 7.61103,-0.478347l3.03425 2.27244c4.53189,-0.964961 8.83701,-2.12717 12.6579,-3.25394l-0.0011811 0c0.00472441,0 0.00708662,-0.00236221 0.0129921,-0.00236221z"/>
   <path id="_414157760" class="fil19" d="M747.081 1463.96c0.00708662,-0.00708662 0.0129921,-0.0129921 0.0188977,-0.0188977 -0.00590552,0.00708662 -0.011811,0.011811 -0.0188977,0.0188977zm0.0188977 -0.022441c0.147638,-0.158268 0.288189,-0.325985 0.419292,-0.504331 1.92047,-2.55355 1.64055,-6.09213 -0.517323,-8.31969 2.15669,2.22756 2.43898,5.76497 0.517323,8.31969 -0.131102,0.178347 -0.271654,0.346063 -0.419292,0.504331z"/>
   <path id="_414157976" class="fil20" d="M746.834 1464.21c0.0826772,-0.080315 0.166536,-0.165354 0.246851,-0.250394 0.00708662,-0.00708662 0.0129921,-0.0129921 0.0188977,-0.0188977 0,-0.00354331 0,-0.00472441 0,-0.00472441 0.147638,-0.157087 0.288189,-0.324803 0.419292,-0.50315 1.92047,-2.55355 1.64055,-6.09213 -0.517323,-8.31969 -0.237402,-0.240945 -0.491339,-0.467717 -0.766536,-0.67441l0 0 -2.77205 -2.07638 -16.2378 -12.1618c-2.55591,-1.91929 -6.0756,-1.64055 -8.30552,0.511418 -0.246851,0.237402 -0.479528,0.498426 -0.689764,0.783071 -2.13307,2.84173 -1.55433,6.87402 1.28858,9.00237l18.9933 14.2323c0.788977,0.588189 1.6689,0.968505 2.57244,1.15394 0.0106299,0.00354331 0.0200788,0.00472441 0.0307087,0.00708662 -0.00236221,-0.00590552 -0.00236221,-0.0106299 -0.00236221,-0.0141732 2.02914,0.401575 4.18229,-0.18189 5.72126,-1.66654z"/>
   <path id="_414158144" class="fil20" d="M753.93 1443.5c0.222047,-0.214961 0.432284,-0.453544 0.624804,-0.711024l-0.0011811 0c1.75866,-2.34095 1.50473,-5.57599 -0.47126,-7.61575 -0.21378,-0.222047 -0.447638,-0.427559 -0.699213,-0.617717l0 0 -0.562205 -0.420473 -16.8319 -12.613c-2.34685,-1.75748 -5.57245,-1.49646 -7.6193,0.478347 -0.225591,0.217323 -0.437008,0.452363 -0.628347,0.711024 -1.94173,2.59725 -1.41142,6.28819 1.19173,8.23465l17.3847 13.0288c0.205512,0.154725 0.419292,0.292914 0.634252,0.416929 0.00236221,-0.00236221 0.00236221,-0.00236221 0.00472441,0 0.0011811,-0.00590552 0.00590552,-0.0141732 0.0106299,-0.022441 2.26772,1.28032 5.10237,0.925985 6.9626,-0.869292z"/>
   <path id="_414158216" class="fil19" d="M762.782 1426.32c0.222047,-0.21378 0.429922,-0.446457 0.62126,-0.702756 1.75984,-2.34213 1.49764,-5.57835 -0.484252,-7.62048 1.98189,2.04213 2.2441,5.27835 0.484252,7.62048 -0.193701,0.253937 -0.398032,0.488977 -0.622441,0.705119 -0.0625985,0.0602363 -0.127559,0.11811 -0.188977,0.173622 0.0637796,-0.056693 0.12874,-0.115748 0.191339,-0.175984l-0.0011811 0zm-0.197244 0.18189c-0.00354331,0.00472441 -0.00826772,0.00826772 -0.011811,0.011811 0.00354331,-0.00354331 0.00826772,-0.00708662 0.011811,-0.011811z"/>
   <path id="_414158048" class="fil20" d="M762.78 1426.33c0.22441,-0.216142 0.431103,-0.451181 0.623623,-0.705119 1.75984,-2.34213 1.49764,-5.57835 -0.484252,-7.62048 -0.21378,-0.222047 -0.448819,-0.427559 -0.702756,-0.618898l-1.70433 -1.27795 -12.6508 -9.47481 -3.03425 -2.27244c-2.33977,-1.75984 -5.56654,-1.4941 -7.61103,0.478347 -0.223229,0.214961 -0.432284,0.45 -0.622441,0.705119 -0.68504,0.90945 -1.06299,1.95354 -1.15512,3.01181 -0.170079,1.95827 0.648426,3.9567 2.33504,5.22166l17.3965 13.0347c0.380315,0.281103 0.784253,0.516142 1.20118,0.69567 0.00354331,-0.00826772 0.00590552,-0.0141732 0.0106299,-0.0177165 2.0752,0.884646 4.48937,0.518504 6.19134,-0.968505 0.00354331,-0.00354331 0.00826772,-0.00708662 0.0129921,-0.011811 0.0011811,-0.00236221 0.00354331,-0.00472441 0.00590552,-0.00590552 0.0614174,-0.0555119 0.126378,-0.113386 0.187795,-0.173622z"/>
   <path id="_414158264" class="fil25" d="M986.906 573.388c-3.06614,31.5945 30.0449,38.8701 66.991,42.4583 36.9567,3.59174 45.9331,40.3099 48.9993,8.72127 0,0 10.4634,-96.9603 13.1067,-190.53 0.896457,-31.7303 -1.94291,-53.5004 -38.889,-57.0886 -36.9555,-3.58937 -80.0918,15.3284 -80.0918,47.0693 -0.0011811,107.489 -10.115,149.371 -10.1161,149.369z"/>
   <path id="_414157808" class="fil1" d="M997.143 450.043c-3.26693,30.6685 59.2961,88.8461 107.798,90.1064l10.7386 -0.377953c48.502,1.26024 88.8473,-37.0359 90.1064,-85.5402l2.54173 -97.6867c6.85158,-98.4024 -37.0288,-88.8461 -85.5343,-90.1087l-33.0083 0.382677c-48.4973,-1.26496 -88.8367,37.0311 -90.1064,85.5379l-2.53583 97.6867z"/>
   <path id="_414158288" class="fil14" d="M997.455 438.16c-86.8347,-176.842 39.4666,-223.491 99.932,-213.161 183.813,7.64528 104.342,82.6548 110.153,89.3705 -178.658,-36.6036 -142.947,71.0977 -175.988,73.7776 -33.052,2.67992 -11.0362,38.3965 -34.0973,50.0126z"/>
   <path id="_414157880" class="fil1" d="M986.039 403.291c0,16.2626 13.1752,29.4402 29.4319,29.4402 16.2591,0 29.4414,-13.1776 29.4414,-29.4402 -0.0011811,-16.2579 -13.1811,-29.4343 -29.4414,-29.4343 -16.2567,-0.0011811 -29.4319,13.1776 -29.4319,29.4343z"/>
   <path id="_414156848" class="fil7" d="M996.969 437.168l0 0c-1.55315,-3.18544 -3.0437,-6.3378 -4.4563,-9.43938 1.4126,3.10394 2.89961,6.25158 4.4563,9.43938l0 0zm-4.51654 -9.57048c-0.00354331,-0.00826772 -0.011811,-0.0271654 -0.0165354,-0.0366142 0.00472441,0.011811 0.0106299,0.0259843 0.0165354,0.0366142z"/>
   <path id="_414157280" class="fil26" d="M997.087 450.637c0,-0.00354331 0.0011811,-0.00590552 0.0011811,-0.011811 -0.0011811,0.00236221 0,0.00944883 0,0.011811l-0.0011811 0zm0.0141732 -0.18189c0,-0.011811 0,-0.0177165 0.00354331,-0.0283465 -0.00354331,0.0106299 -0.00354331,0.0165354 -0.00354331,0.0283465zm0.00590552 -0.0755906c0.00236221,-0.0106299 0.00354331,-0.022441 0.00354331,-0.034252 -0.0011811,0.011811 0,0.0236221 -0.00236221,0.0354331l-0.0011811 -0.0011811zm0.00944883 -0.0744095c0,-0.0236221 0.00354331,-0.0484252 0.00590552,-0.068504 -0.00354331,0.0188977 -0.00590552,0.046063 -0.00590552,0.068504zm0.00826772 -0.102756c0.00236221,-0.0188977 0.00236221,-0.0318898 0.00590552,-0.0496063 -0.00354331,0.0141732 -0.00354331,0.0318898 -0.00590552,0.0496063l0 0zm0.00826772 -0.0826772c0.00236221,-0.0248032 0.00590552,-0.0507874 0.00944883,-0.0767717 -0.00354331,0.0259843 -0.00590552,0.0519685 -0.00944883,0.0779528l0 -0.0011811zm0.317717 -11.9658l0 0c-0.161811,-0.329528 -0.320079,-0.651969 -0.48189,-0.986221l0 0c0.158268,0.328347 0.320079,0.657875 0.48189,0.986221z"/>
   <path id="_414157256" class="fil27" d="M946.822 900.34c-4.2626,-0.724016 -8.5252,-1.44803 -12.7949,-2.17087 6.65315,-48.0638 54.2256,-367.209 59.5583,-376.775 1.28268,-4.98307 18.652,31.5189 114.788,44.0115 26.7484,27.3673 43.9973,59.5867 55.5343,101.515 13.5614,49.2792 -11.6847,257.11 -12.8374,268.475 -75.2882,-10.2673 -126.488,-21.828 -204.248,-35.0551z"/>
   <path id="_414157016" class="fil28" d="M864.399 1098.24l55.2296 -154.189 0.0448819 -0.126378c6.5256,-18.2221 12.3945,-36.3721 15.8646,-56.4142 10.4622,2.75079 22.0406,6.013 32.5099,8.74725 41.5737,10.8555 83.2973,21.0591 124.938,31.6607 23.2441,5.92087 33.7937,10.6772 57.4146,14.9055 -1.41496,16.2343 -0.454725,14.9823 -0.454725,14.9823l-43.8981 66.2044c-1.65945,4.45158 -3.75355,8.96339 -6.30119,13.5201l-67.6938 159.853c-39.2622,-27.3933 -128.386,-71.7532 -167.654,-99.143z"/>
   <path id="_414157352" class="fil4" d="M956.349 1152.35l0 0c-0.940158,-0.530315 -1.88268,-1.05709 -2.8252,-1.58504 1.44095,0.806694 2.4437,1.37244 2.8252,1.58504z"/>
   <path id="_414156992" class="fil29" d="M894.934 1146.12c-2.14843,0.555119 -4.27914,1.10079 -6.39804,1.64055l-3.25985 0.836221 2.37638 -0.609449c2.07638,-0.525591 4.15985,-1.06536 6.27284,-1.6063l1.00866 -0.261024z"/>
   <path id="_414157520" class="fil7" d="M832.13 1160.39l0 0c-0.336614,0.0531496 -0.668504,0.108662 -1.00158,0.161811l0 -0.0011811c0.333071,-0.0519685 0.664961,-0.10748 1.00158,-0.16063z"/>
   <path id="_414157232" class="fil30" d="M832.132 1160.39l0 0 -0.00236221 0.0011811c0,0 0.00236221,-0.00236221 0.00236221,-0.0011811z"/>
   <path id="_414156944" class="fil29" d="M885.276 1148.6l-0.0011811 -0.00944883c-20.224,5.11181 -38.7863,9.44765 -53.1426,11.8039l0 0.0011811c14.3539,-2.35512 32.9292,-6.68623 53.1426,-11.8028l0.0011811 0.00708662z"/>
   <path id="_414156632" class="fil19" d="M1221.77 930.23c-0.256299,-2.14961 -0.687402,-4.56496 -1.02756,-6.33898 0.341339,1.7752 0.77126,4.19882 1.02756,6.33898l0 0z"/>
   <path id="_414156464" class="fil31" d="M1221.77 930.23c-0.257481,-2.14016 -0.686221,-4.5626 -1.02756,-6.33898 -0.0696851,-0.372048 -0.137008,-0.712205 -0.199606,-1.01693l1.22717 7.35591z"/>
   <path id="_414156392" class="fil16" d="M1149.82 950.376c0.542126,-3.95788 1.32638,-16.5602 1.32638,-16.5602l-213.708 -59.4993 -3.41693 23.8524c0,0 144.359,38.6752 215.798,52.2071z"/>
   <path id="_414156296" class="fil1" d="M798.629 654.088c-30.7996,13.1315 -45.1288,48.7382 -31.9961,79.539 13.1256,30.7973 44.8489,18.0579 75.6568,4.92874l206.276 -59.3693c30.7961,-13.1268 45.1205,-48.7406 31.989,-79.5379 -13.1291,-30.7984 -48.7441,-45.1205 -79.5331,-31.9949l-202.393 86.4343z"/>
   <path id="_414156536" class="fil32" d="M941.232 593.185l59.7898 -25.5319c30.789,-13.1268 66.404,1.19646 79.5331,31.9949 13.1315,30.7973 -1.19291,66.4123 -31.9878,79.539l-107.962 32.3918 0.627166 -118.394z"/>
   <path id="_414156032" class="fil1" d="M666.4 870.897c-11.5654,19.1339 -1.50709,30.9095 17.6291,42.4689 19.1209,11.5677 24.176,17.7225 35.7378,-1.40433l105.043 -161.893c15.5232,-25.6878 21.9532,-48.1441 -3.74528,-63.6697 -25.6961,-15.528 -54.254,-12.6508 -74.6339,18.4051 -25.2673,38.491 -80.0304,166.093 -80.0304,166.093z"/>
   <path id="_414156704" class="fil1" d="M705.89 941.682c-5.22284,-1.54134 -10.702,1.44095 -12.2421,6.66733l-10.7658 34.787c-1.53662,5.21457 1.45276,10.6996 6.66142,12.2421 5.22874,1.53307 10.7079,-1.44449 12.2539,-6.66378l10.761 -34.787c1.54134,-5.22638 -1.44449,-10.7008 -6.66851,-12.2457z"/>
   <path id="_414156344" class="fil1" d="M648.407 916.368c-5.35867,-1.58032 -10.989,1.4811 -12.5693,6.83504l-10.9973 35.602c-1.5815,5.35748 1.4811,10.9807 6.83268,12.5599 5.36221,1.58386 10.9949,-1.48228 12.5752,-6.84095l10.9949 -35.5866c1.57914,-5.36103 -1.47756,-10.989 -6.83623,-12.5693z"/>
   <path id="_414156152" class="fil1" d="M686.243 935.887c-5.62323,-1.66181 -11.5335,1.54606 -13.1941,7.17402l-11.4756 37.2118c-1.65945,5.62441 1.56496,11.5252 7.18229,13.1929 5.62914,1.66299 11.5299,-1.54725 13.2012,-7.17875l11.4732 -37.2059c1.66063,-5.62914 -1.54843,-11.5429 -7.18701,-13.1941z"/>
   <path id="_414156776" class="fil1" d="M666.439 927.926c-5.62559,-1.66417 -11.5382,1.54961 -13.1953,7.17993l-11.4732 37.2c-1.65945,5.62441 1.55551,11.5394 7.18229,13.1965 5.62559,1.66299 11.5358,-1.54488 13.1941,-7.17756l11.4803 -37.2059c1.65945,-5.62796 -1.55433,-11.5347 -7.18819,-13.1929z"/>
   <path id="_414156608" class="fil1" d="M707.409 966.223c0,0 11.8973,-12.0721 14.5689,-16.9961 16.402,-30.1512 -7.49764,-65.2146 -29.126,-71.602 -32.4047,-9.56103 -49.6926,18.1488 -56.0823,39.7937l-3.7689 15.476 74.4083 33.3284z"/>
   <path id="_414155432" class="fil2" d="M644.54 964.898c0,0 0.868111,-2.07047 2.17559,-5.17796 1.29685,-3.07087 2.97756,-7.1693 5.10237,-10.9169 0.510237,-0.956694 1.08189,-1.85669 1.66772,-2.71654 0.625985,-0.822048 1.19882,-1.67362 1.88268,-2.35158 1.31339,-1.42441 2.79449,-2.39292 4.25433,-2.74016 0.721654,-0.194882 1.4374,-0.245669 2.07284,-0.197244 0.650788,0 1.2,0.172441 1.67835,0.244488 0.938977,0.284646 1.47756,0.445276 1.47756,0.445276 -0.0011811,0 -0.425197,-0.364961 -1.27087,-0.937796 -0.453544,-0.219685 -0.980316,-0.587008 -1.69606,-0.760631 -0.687402,-0.236221 -1.54252,-0.392126 -2.47205,-0.32126 -1.89095,0.0437008 -4.01339,1.03819 -5.6752,2.56418 -1.72795,1.49055 -3.09331,3.44646 -4.24961,5.44961 -2.27244,4.05827 -3.56693,8.4626 -4.2378,11.7933 -0.687402,3.33307 -0.709843,5.62323 -0.709843,5.62323z"/>
   <path id="_414155336" class="fil2" d="M662.899 975.89c0,0 1.15276,-1.1752 2.47677,-3.18189 1.34173,-1.99843 2.87481,-4.81772 3.98504,-7.84134 0.520867,-1.52362 1.0252,-3.06142 1.29567,-4.56733 0.311811,-1.49173 0.464174,-2.9315 0.412205,-4.17638 0.0248032,-0.614174 -0.0448819,-1.18701 -0.140551,-1.68898 -0.0708662,-0.501969 -0.142913,-0.929528 -0.287008,-1.27441 -0.249213,-0.688583 -0.411024,-1.04882 -0.411024,-1.04882 0,0 -0.0437008,0.399213 -0.119291,1.10079 -0.0814961,0.679134 -0.252756,1.62874 -0.56693,2.73898 -0.590552,2.21339 -1.61929,5.0941 -2.69528,7.99253 -1.05118,2.90433 -2.13543,5.83583 -2.85236,8.10001 -0.735827,2.25118 -1.09724,3.84685 -1.09724,3.84685z"/>
   <path id="_414155480" class="fil2" d="M682.868 983.32c0,0 0.850394,-1.02992 1.77992,-2.70945 0.946064,-1.67362 1.99252,-3.98504 2.78622,-6.39213 0.778347,-2.41181 1.33937,-4.89331 1.47992,-6.85394 0.239764,-1.92756 -0.167717,-3.32008 -0.120473,-3.27047 0,0 -0.145276,0.297638 -0.399213,0.820867 -0.207874,0.509056 -0.561024,1.20236 -0.973229,2.07047 -0.38504,0.855119 -0.831497,1.85551 -1.26732,2.94803 -0.43937,1.0878 -0.848032,2.27008 -1.26378,3.45118 -0.766536,2.3811 -1.38189,4.82717 -1.68543,6.71575 -0.328347,1.88268 -0.336614,3.21969 -0.336614,3.21969z"/>
   <path id="_414155744" class="fil19" d="M628.933 970.09c0.00236221,0.00236221 0.00354331,0.00236221 0.00590552,0.00354331 -0.00354331,-0.0011811 -0.00236221,-0.0011811 -0.00472441,-0.00236221l-0.0011811 -0.0011811zm-0.0425197 -0.0283465c-3.56339,-2.39764 -5.33386,-6.91418 -4.04882,-11.2559l-0.0011811 0c-1.28386,4.34174 0.486615,8.85946 4.05,11.2559l0 0zm2.78268 1.30276l0 0c0.542126,0.16063 1.0878,0.274016 1.62756,0.34252 -0.543308,-0.0708662 -1.08425,-0.18189 -1.62756,-0.341339l0 -0.0011811zm1.65709 0.343701c0.00590552,0.0011811 0.0153543,0.00354331 0.0212599,0.00472441 -0.00708662,-0.0011811 -0.0141732,-0.00354331 -0.0212599,-0.00472441l0 0zm8.44016 0.597638l0 0 2.00551 -6.50434c0,0 0,0 -0.00236221,0.00236221l-2.00315 6.50197zm24.6295 -101.408l0 0c0,0 54.763,-127.6 80.0304,-166.093 0.034252,-0.0507874 0.0649607,-0.0980316 0.100394,-0.15 -0.034252,0.0519685 -0.0661418,0.100394 -0.100394,0.15 -25.2673,38.491 -80.0304,166.093 -80.0304,166.093l0 0zm80.1898 -166.332c0.011811,-0.0165354 0.0259843,-0.0377953 0.0366142,-0.0555119 -0.011811,0.0200788 -0.0236221,0.0366142 -0.0366142,0.0555119zm61.3855 -25.4114c0.219685,0.0389764 0.438189,0.0767717 0.655512,0.11811 -0.218504,-0.0413386 -0.438189,-0.080315 -0.655512,-0.11811z"/>
   <path id="_414155648" class="fil33" d="M628.933 970.09c0.00236221,0.00236221 0.00354331,0.00236221 0.00590552,0.00354331 0.822048,0.543308 1.73977,0.980316 2.73425,1.27205l0 -0.0011811c0.542126,0.16063 1.08543,0.272835 1.62756,0.34252 0.0106299,-0.0011811 0.0188977,0.00236221 0.0295276,0.0011811 0.00590552,0.0011811 0.0153543,0.00354331 0.0212599,0.00472441 4.53071,0.536221 8.89961,-2.08819 10.5791,-6.41339l-0.157087 0.504331c0.00236221,-0.00236221 0.00236221,-0.00236221 0.00236221,-0.00236221l0.911812 -2.94803c0.100394,-0.943702 0.270473,-2.16614 0.562205,-3.57874 0.656693,-3.26457 1.91221,-7.55552 4.10197,-11.5476l2.03386 -6.59882 -1.75748 -0.784253c0.0401575,1.46693 -0.356693,2.95866 -1.22953,4.27087 -2.25827,3.39685 -6.8315,4.31575 -10.2236,2.06103 -3.38977,-2.25473 -4.31811,-6.8315 -2.05984,-10.2284 0.392126,-0.590552 0.8563,-1.10551 1.37126,-1.54252l-2.02441 -0.907087c-0.755906,1.02165 -1.41732,2.04921 -1.97126,3.04843 -1.1315,2.05158 -1.95945,3.8752 -2.46142,5.17559 -0.496063,1.30748 -0.816142,2.05512 -0.816142,2.05512 0,0 0.0885827,-0.798426 0.312992,-2.19921 0.285827,-1.37835 0.659056,-3.39095 1.57441,-5.68937 0.393307,-1.02992 0.890552,-2.11417 1.53543,-3.20906l-0.635434 -0.284646 0.572835 -2.3504 -8.73308 28.2614c-1.28386,4.34174 0.486615,8.85946 4.05,11.2559 0.0153543,0.00944883 0.0295276,0.0188977 0.0425197,0.0283465z"/>
   <path id="_414155792" class="fil33" d="M641.77 972.305l14.2866 -29.0823 -0.12874 -0.0578741c-0.187795,0.179528 -0.376772,0.369685 -0.559843,0.569292 -0.683859,0.676772 -1.25669,1.52953 -1.88268,2.35158 -0.585827,0.859843 -1.15748,1.76102 -1.66772,2.71654 -2.12599,3.74764 -3.80551,7.84607 -5.10237,10.9169 -1.30866,3.1063 -2.17559,5.17796 -2.17559,5.17796 0,0 0.00708662,-0.760631 0.147638,-2.04449l-0.911812 2.94803 -2.00551 6.50434zm7.5815 -24.5788c0.0437008,-0.0826772 0.0897638,-0.165354 0.135827,-0.245669 0.538583,-0.936615 1.12677,-1.86024 1.77165,-2.73307 0.161811,-0.681497 0.322441,-1.41496 0.470079,-2.18977 0.0637796,-0.383859 0.132284,-0.78189 0.186614,-1.19173l-0.530315 -0.238583 -2.03386 6.59882zm4.063 -5.40827c0.068504,-0.0661418 0.137008,-0.127559 0.207874,-0.186614l-0.134646 -0.0590552c-0.022441,0.0814961 -0.0484252,0.161811 -0.0732284,0.245669z"/>
   <path id="_414155768" class="fil34" d="M644.54 964.898c0,0 0.868111,-2.07047 2.17559,-5.17796 1.29685,-3.07087 2.97756,-7.1693 5.10237,-10.9169 0.510237,-0.956694 1.08189,-1.85669 1.66772,-2.71654 0.625985,-0.822048 1.19882,-1.67362 1.88268,-2.35158 0.183071,-0.199606 0.372048,-0.389764 0.561024,-0.568111 0.0956694,-0.0933072 0.188977,-0.18189 0.287008,-0.266929l1.56142 -3.18071c-1.41378,0.393307 -2.84528,1.21299 -4.04055,2.3126 -0.0389764,0.0318898 -0.0779528,0.0649607 -0.114567,0.100394 -0.0708662,0.0590552 -0.13937,0.121654 -0.207874,0.186614 -0.791339,0.726379 -1.50473,1.55079 -2.15551,2.42953 -0.644882,0.871654 -1.23307,1.79646 -1.77165,2.73307 -0.0472441,0.0791339 -0.090945,0.164173 -0.135827,0.245669 -2.19095,3.99213 -3.4441,8.28426 -4.10197,11.5476 -0.291733,1.41142 -0.461811,2.63504 -0.562205,3.57874 -0.140551,1.28386 -0.147638,2.04449 -0.147638,2.04449z"/>
   <g>
    <g>
     <path id="_414155936" class="fil14" d="M704.351 1621.46l52.3347 0 -34.3914 73.9323c-4.68189,10.0642 -9.08387,20.1862 -20.1862,20.1862l0 0c-11.1047,0 -23.4106,-9.56221 -20.1874,-20.1862l22.4303 -73.9323z"/>
     <circle id="_414155456" class="fil12" cx="688.435" cy="1697.91" r="45.7043"/>
     <path id="_414154688" class="fil35" d="M688.434 1636.18c17.0457,0 32.4792,6.91064 43.65,18.0827 11.1721,11.1721 18.0827,26.6044 18.0827,43.65 0,17.0445 -6.91064,32.4792 -18.0827,43.6512 -11.1709,11.1721 -26.6044,18.0815 -43.65,18.0815 -17.0445,0 -32.4792,-6.90945 -43.6512,-18.0815 -11.1721,-11.1721 -18.0815,-26.6067 -18.0815,-43.6512 0,-17.0457 6.90945,-32.478 18.0815,-43.65 11.1721,-11.1721 26.6067,-18.0827 43.6512,-18.0827zm20.9847 40.7481c-5.36811,-5.3693 -12.7878,-8.69056 -20.9847,-8.69056 -8.19568,0 -15.6165,3.32126 -20.9858,8.69056 -5.36811,5.36811 -8.68938,12.789 -8.68938,20.9847 0,8.19568 3.32126,15.6165 8.68938,20.9858 5.3693,5.36811 12.7902,8.68938 20.9858,8.68938 8.19686,0 15.6165,-3.32126 20.9847,-8.68938 5.3693,-5.3693 8.69174,-12.7902 8.69174,-20.9858 0,-8.19568 -3.32244,-15.6165 -8.69174,-20.9847z"/>
    </g>
    <g>
     <path id="_414155144" class="fil36" d="M1272.3 1580.19c0.00590552,0 0.00826772,0 0.0141732,0 -0.00590552,0 -0.00826772,0 -0.0141732,0l0 0zm-0.0177165 0c-27.8764,-0.00472441 -48.7807,-5.05748 -66.306,-10.2177 17.5288,5.16024 38.4284,10.2154 66.306,10.2177zm33.724 -2.2878c0.00354331,0 0.00944883,-0.00354331 0.011811,-0.00354331 -0.00236221,0 -0.00826772,0.00354331 -0.011811,0.00354331zm0.884646 -0.119291l0 0c0.0413386,-0.00472441 0.0791339,-0.00708662 0.11811,-0.0141732 -0.0401575,0.00708662 -0.0767717,0.00944883 -0.11811,0.0141732l0 0zm0.164173 -0.0200788c0.0259843,-0.00590552 0.0472441,-0.00826772 0.0732284,-0.0106299 -0.0236221,0.00236221 -0.0496063,0.00472441 -0.0732284,0.0106299zm0.124016 -0.0165354c0.034252,-0.00590552 0.0720473,-0.011811 0.10748,-0.0141732 -0.0377953,0.00236221 -0.0696851,0.00826772 -0.10748,0.0141732zm0.166536 -0.0236221c0.0188977,-0.00236221 0.0330709,-0.00590552 0.0507874,-0.00826772 -0.0188977,0.00236221 -0.0318898,0.00590552 -0.0496063,0.00826772l-0.0011811 0zm0.121654 -0.0165354c0.011811,-0.00354331 0.0236221,-0.00590552 0.0354331,-0.00590552 -0.0153543,0.00236221 -0.0200788,0.00236221 -0.0354331,0.00590552zm0.3 -0.0437008c0.00236221,0 0.00590552,-0.00354331 0.00590552,-0.00354331 -0.00354331,0 -0.00354331,0.00354331 -0.00590552,0.00354331zm-103.394 -8.1626c-0.080315,-0.0259843 -0.155906,-0.046063 -0.232677,-0.0720473 0.0767717,0.0259843 0.152362,0.046063 0.232677,0.0720473l0 0zm-0.640158 -0.193701c-17.2075,-5.14489 -31.213,-10.1835 -45.5989,-10.1894 14.3858,0.00590552 28.3914,5.04449 45.6,10.1894l-0.0011811 0zm-65.2938 -6.79371c0.0779528,-0.0259843 0.152362,-0.0519685 0.230315,-0.080315 -0.0779528,0.0283465 -0.152362,0.0543308 -0.230315,0.080315l0 0zm19.6571 -3.39567c0.00236221,0 0.00944883,0 0.011811,0l0 0c-0.00236221,0 -0.00826772,0 -0.011811,0z"/>
     <g>
      <path id="_414154808" class="fil14" d="M1276.92 1621.46l-52.3359 0 34.3925 73.9323c4.68071,10.0642 9.08268,20.1862 20.1862,20.1862l0 0c11.1036,0 23.4106,-9.56221 20.1862,-20.1862l-22.4292 -73.9323z"/>
      <circle id="_414154976" class="fil12" cx="1292.83" cy="1697.91" r="45.7043"/>
      <path id="_414154928" class="fil35" d="M1292.83 1636.18c-17.0445,0 -32.478,6.91064 -43.65,18.0827 -11.1721,11.1721 -18.0827,26.6044 -18.0827,43.65 0,17.0445 6.91064,32.4792 18.0827,43.6512 11.1721,11.1721 26.6055,18.0815 43.65,18.0815 17.0457,0 32.4792,-6.90945 43.6512,-18.0815 11.1721,-11.1721 18.0815,-26.6067 18.0815,-43.6512 0,-17.0457 -6.90945,-32.478 -18.0815,-43.65 -11.1721,-11.1721 -26.6055,-18.0827 -43.6512,-18.0827zm-20.9847 40.7481c5.3693,-5.3693 12.789,-8.69056 20.9847,-8.69056 8.19686,0 15.6165,3.32126 20.9858,8.69056 5.3693,5.36811 8.69056,12.789 8.69056,20.9847 0,8.19568 -3.32126,15.6165 -8.69056,20.9858 -5.3693,5.36811 -12.789,8.68938 -20.9858,8.68938 -8.19568,0 -15.6154,-3.32126 -20.9847,-8.68938 -5.36811,-5.3693 -8.69056,-12.7902 -8.69056,-20.9858 0,-8.19568 3.32244,-15.6165 8.69056,-20.9847z"/>
     </g>
    </g>
   </g>
  </g>
  <rect class="fil37" width="2048" height="2048"/>
 </g>
</svg>
