<?xml version="1.0" encoding="UTF-8"?>
<!DOCTYPE svg PUBLIC "-//W3C//DTD SVG 1.1//EN" "http://www.w3.org/Graphics/SVG/1.1/DTD/svg11.dtd">
<!-- Creator: CorelDRAW -->
<svg xmlns="http://www.w3.org/2000/svg" xml:space="preserve" width="2048px" height="2048px" style="shape-rendering:geometricPrecision; text-rendering:geometricPrecision; image-rendering:optimizeQuality; fill-rule:evenodd; clip-rule:evenodd"
viewBox="0 0 2048 2048"
 xmlns:xlink="http://www.w3.org/1999/xlink">
 <defs>
  <style type="text/css">
   <![CDATA[
    .fil42 {fill:none}
    .fil12 {fill:#003C69}
    .fil20 {fill:#00406B}
    .fil35 {fill:#005187}
    .fil34 {fill:#00558E}
    .fil22 {fill:#005A96}
    .fil21 {fill:#0077C7}
    .fil28 {fill:#01579B}
    .fil32 {fill:#191919}
    .fil13 {fill:#212121}
    .fil15 {fill:#424242}
    .fil18 {fill:#4B4B4B}
    .fil14 {fill:#616161}
    .fil17 {fill:#636363}
    .fil23 {fill:#757575}
    .fil3 {fill:#AD0000}
    .fil24 {fill:#B09176}
    .fil37 {fill:#B5D7D9}
    .fil30 {fill:#B9DCDE}
    .fil11 {fill:#BDBDBD}
    .fil26 {fill:#BF9E83}
    .fil25 {fill:#BFE3E6}
    .fil31 {fill:#C20000}
    .fil6 {fill:#C3E8EA}
    .fil39 {fill:#CCA98B}
    .fil27 {fill:#D50000}
    .fil36 {fill:#D7B293}
    .fil8 {fill:#DCB696}
    .fil33 {fill:#DE0000}
    .fil5 {fill:#E3BC9B}
    .fil38 {fill:#E5BD9C}
    .fil29 {fill:#EAC2A0}
    .fil10 {fill:#F2C8A5}
    .fil7 {fill:#F7CCA9}
    .fil9 {fill:#F7D5B8}
    .fil19 {fill:#F7F7F7}
    .fil2 {fill:#FFD3AE}
    .fil4 {fill:#FFDCBE}
    .fil16 {fill:white}
    .fil40 {fill:#00B0FF;fill-rule:nonzero}
    .fil43 {fill:#039BE5;fill-rule:nonzero}
    .fil41 {fill:#40C4FF;fill-rule:nonzero}
    .fil0 {fill:#FB8B00;fill-rule:nonzero}
    .fil1 {fill:#FF9800;fill-rule:nonzero}
   ]]>
  </style>
 </defs>
 <g id="Layer_x0020_1">
  <metadata id="CorelCorpID_0Corel-Layer"/>
  <path class="fil0" d="M1483.35 1260.68c35.3528,13.2095 68.9859,28.663 94.3217,45.6874 18.5351,12.4595 30.7347,30.2799 37.1386,50.1544 5.23583,16.2567 6.48662,34.128 4.04882,51.4583 -2.42717,17.2488 -8.58072,34.0784 -18.1595,48.326 -11.7095,17.4165 -28.3347,31.2012 -49.4599,38.0091l-0.0401575 -0.12874c-13.2768,4.29095 -31.3264,8.68465 -55.4091,12.1134 -12.7028,1.80827 -27.7288,3.42756 -45.4843,4.71851l-0.413386 1.61575c-4.9878,19.5697 -10.8473,42.5492 -21.1973,61.5863 -18.724,34.4327 -45.8185,53.2335 -88.5438,30l-0.138189 0.00826772c-28.1894,-15.4512 -48.5221,-37.0122 -63.0839,-58.7646 -7.83898,-11.7083 -14.0303,-23.5973 -18.8728,-34.5803 -34.0559,-1.77638 -70.9784,-4.34646 -110.979,-7.89095 -49.1563,-4.35355 -105.243,-10.3748 -169.295,-18.4465 -89.0481,-11.1874 -171.636,-24.9874 -247.2,-41.2866 -76.102,-16.4126 -145.298,-35.374 -207.02,-56.7709 -70.8662,-24.5681 -122.712,-46.3441 -158.649,-65.6126 -27.1831,-14.5748 -46.1929,-28.3406 -58.1245,-41.3138 -19.2071,-20.8843 -24.0638,-41.8323 -16.8496,-62.6398 0.875198,-2.52992 2.08347,-5.2252 3.60945,-8.07048 18.1736,-33.9071 73.1646,-54.3792 149.087,-64.6831 238.004,-32.3044 775.25,17.3185 1040.71,116.511z"/>
  <path class="fil1" d="M1483.35 1260.68c35.3528,13.2095 68.9859,28.663 94.3217,45.6874 16.7138,11.2358 28.2756,26.8311 35.0823,44.3611 -24.0981,58.9713 -309.702,77.9942 -658.525,41.9729 -361.53,-37.3335 -655.134,-119.769 -660.091,-184.906 12.7335,-22.6075 42.0343,-39.1559 83.0705,-50.6433 112.8,-24.6402 328.907,-26.8736 577.021,-1.25079 156.429,16.1539 300.122,40.7563 413.25,68.7438 42.3591,11.1331 81.4182,23.1626 115.871,36.0355z"/>
  <g id="_406731248">
   <g>
    <path id="_406738760" class="fil2" d="M1036.93 732.169c-16.9417,17.8252 -45.1217,18.548 -62.9481,1.6063 -17.824,-16.937 -0.915355,-35.4981 16.0252,-53.3292l93.795 -126.716c16.937,-17.8228 45.1205,-18.541 62.9445,-1.60039 17.8252,16.9394 18.541,45.1241 1.6063,62.9434l-111.423 117.096z"/>
    <path id="_406738496" class="fil3" d="M1115.44 649.666l32.915 -34.5922c16.9347,-17.8193 16.2189,-46.004 -1.6063,-62.9434 -17.824,-16.9406 -46.0087,-16.2225 -62.9445,1.60039l-49.9996 65.9823 81.6355 29.9528z"/>
    <g>
     <path id="_406738472" class="fil2" d="M871.537 760.962c-16.0902,3.27166 -21.75,-6.5941 -25.0181,-22.6866 -3.27638,-16.0819 -6.28465,-21.1004 9.80079,-24.3709l137.927 -32.6575c21.6012,-4.39016 38.7225,-3.28937 43.1126,18.3213 4.39134,21.6095 -4.65473,40.65 -31.1693,47.0741 -32.8654,7.96654 -134.653,14.3197 -134.653,14.3197z"/>
     <path id="_406739072" class="fil2" d="M832.335 716.161c-0.223229,3.99213 -3.64016,7.04528 -7.63583,6.81969l-26.7201 -1.14803c-3.9874,-0.225591 -7.04174,-3.64843 -6.82205,-7.63229 0.231496,-3.99449 3.6437,-7.04882 7.63583,-6.82914l26.7201 1.15158c3.99567,0.225591 7.0441,3.64252 6.82205,7.63819z"/>
     <path id="_406738688" class="fil2" d="M835.642 762.173c-0.231496,4.09607 -3.73937,7.23544 -7.83308,7.00512l-27.3414 -1.18937c-4.09725,-0.230315 -7.22953,-3.73819 -6.99922,-7.82835 0.229134,-4.10079 3.74174,-7.23898 7.83898,-7.00867l27.3295 1.18701c4.09843,0.232677 7.23544,3.73701 7.00512,7.83426z"/>
     <path id="_406739048" class="fil2" d="M831.49 731.18c-0.239764,4.3004 -3.9189,7.59568 -8.22166,7.35473l-28.5733 -1.25669c-4.3004,-0.242126 -7.58505,-3.92953 -7.35119,-8.22638 0.240945,-4.30512 3.9189,-7.59331 8.22757,-7.35827l28.5685 1.25669c4.30276,0.242126 7.6004,3.92244 7.35001,8.22993z"/>
     <path id="_406738592" class="fil2" d="M832.104 746.846c-0.239764,4.30158 -3.92244,7.59686 -8.22638,7.35237l-28.5638 -1.25433c-4.30158,-0.242126 -7.59686,-3.92717 -7.35355,-8.22875 0.239764,-4.30158 3.91772,-7.59686 8.22402,-7.35237l28.5697 1.25197c4.30276,0.242126 7.59449,3.92481 7.35001,8.23111z"/>
     <path id="_406738088" class="fil2" d="M815.737 709.047c0,0 11.289,-5.24764 15.3543,-5.87835 24.9071,-3.89528 43.2532,21.2977 42.3284,37.8355 -1.3937,24.7748 -24.8292,29.8866 -41.38,28.9583l-11.635 -1.21654 -4.66772 -59.6989z"/>
     <path id="_406737920" class="fil4" d="M807.348 730.632c-0.622441,-2.5063 0.897638,-5.03504 3.39922,-5.65748 0.380315,-0.0933072 0.761812,-0.13937 1.13504,-0.135827 0.0472441,2.27717 0.360236,4.54252 0.90945,6.75473 0.19252,0.772442 0.414567,1.54134 0.66378,2.29961 -0.148819,0.0519685 -0.301181,0.0992127 -0.457087,0.138189 -2.50158,0.62126 -5.02914,-0.901182 -5.6504,-3.39922z"/>
     <path id="_406737944" class="fil4" d="M808.169 715.864c-0.177165,-0.708662 -0.190158,-1.47047 -0.00590552,-2.22992 0.608268,-2.50512 3.13465,-4.03819 5.63977,-3.42874 0.514961,0.122835 0.992127,0.330709 1.41378,0.605906 -0.571654,0.938977 -1.03819,1.94291 -1.41969,2.96811 -0.479528,1.21772 -0.82441,2.47559 -1.1185,3.74528 -0.12874,0.623623 -0.262205,1.24016 -0.376772,1.86496 -0.236221,-0.022441 -0.474804,-0.0590552 -0.711024,-0.113386 -1.74449,-0.425197 -3.01772,-1.77992 -3.42166,-3.41221z"/>
     <path id="_406737656" class="fil5" d="M818.486 707.809c-1.19291,0.512599 -1.94646,1.62874 -2.56181,2.7 -0.6,1.10906 -1.0441,2.29961 -1.37126,3.52205 -0.344882,1.21536 -0.576378,2.46142 -0.811418,3.70512 -0.183071,1.25197 -0.387402,2.51693 -0.426378,3.75709 -0.116929,2.49331 0.157087,5.00906 0.64252,7.46221 0.48189,2.45433 1.22362,4.86615 2.27717,7.1126 1.05709,2.21811 2.40945,4.38189 4.23544,5.80512 0.892914,0.725197 1.90394,1.21299 2.93858,1.28976 0.256299,-0.00708662 0.516142,0.0236221 0.773623,-0.0307087l0.344882 -0.0507874 0.465355 -0.12874c0.405118,-0.138189 0.903544,-0.411024 1.24134,-0.753544 0.724016,-0.696851 1.12087,-1.77402 1.25787,-2.92323 0.141732,-1.15158 0.0472441,-2.37284 -0.167717,-3.57166 -0.43937,-2.40118 -1.29213,-4.79292 -2.55591,-6.92953l-0.00826772 -0.0141732c-0.180709,-0.305906 -0.0814961,-0.701575 0.225591,-0.881103 0.251575,-0.146457 0.563386,-0.103937 0.767717,0.0874016 0.372048,0.351969 0.884646,0.711024 1.37599,1.01457 0.512599,0.292914 1.03701,0.572835 1.59567,0.783071 1.10906,0.433465 2.27717,0.729922 3.48189,0.870473 0.602363,0.0295276 1.21181,0.100394 1.82008,0.0543308 0.611811,-0.00236221 1.2189,-0.0791339 1.82717,-0.167717 1.2189,-0.18189 2.41536,-0.506693 3.60355,-0.895276 -1.12677,0.529134 -2.2878,1.02874 -3.51614,1.31457 -0.615355,0.146457 -1.23543,0.285827 -1.86851,0.347244 -0.629528,0.108662 -1.26969,0.0956694 -1.91221,0.120473 -0.638977,-0.0318898 -1.28504,-0.056693 -1.92284,-0.170079 -0.635434,-0.0956694 -1.26969,-0.258662 -1.88032,-0.468898 -0.622441,-0.196063 -1.21772,-0.467717 -1.80354,-0.761812 -0.583465,-0.318898 -1.12441,-0.638977 -1.68543,-1.11024l0.98504 -0.810237c1.45866,2.21339 2.57126,4.66418 3.12402,7.29922 0.261024,1.31811 0.400394,2.68347 0.261024,4.08662 -0.144095,1.38307 -0.597638,2.8878 -1.71732,4.02402 -0.568111,0.56693 -1.20354,0.967324 -2.01024,1.24843l-0.46063 0.133465c-0.264567,0.0637796 -0.399213,0.0791339 -0.603544,0.116929 -0.372048,0.0779528 -0.764174,0.0590552 -1.14685,0.0625985 -1.54725,-0.0838583 -2.94685,-0.762993 -4.04764,-1.64528 -2.20276,-1.80591 -3.57166,-4.18819 -4.67481,-6.58819 -2.1248,-4.85552 -3.08386,-10.1728 -2.56063,-15.437 0.11811,-1.32638 0.39567,-2.5878 0.661418,-3.86339 0.294095,-1.2685 0.637796,-2.52874 1.1185,-3.74528 0.455906,-1.22126 1.02638,-2.41063 1.7563,-3.49725 0.722835,-1.06299 1.67599,-2.11536 2.93268,-2.47323z"/>
     <path id="_406737824" class="fil5" d="M812.536 753.027c0,0 0.564567,-0.186614 1.58858,-0.375591 1.02402,-0.162992 2.5063,-0.420473 4.32638,-0.367323 0.905906,0.0106299 1.9004,0.116929 2.94449,0.341339 1.02992,0.263386 2.15669,0.592914 3.17835,1.30512 1.04882,0.638977 1.97126,1.68307 2.51575,2.90079l0.350788 0.94252c0.144095,0.437008 0.135827,0.616536 0.210236,0.935434 0.141732,0.530315 0.16063,1.2685 0.198425,1.94528 -0.0555119,1.3311 -0.42874,2.67992 -1.14921,3.81024 -0.690945,1.16693 -1.77992,1.94528 -2.80866,2.54764 -1.04764,0.618898 -2.15906,0.915355 -3.19016,1.1563 -1.03819,0.223229 -2.02795,0.316536 -2.93504,0.336614 -1.81536,0.0661418 -3.3,-0.173622 -4.32402,-0.316536 -1.02402,-0.190158 -1.59921,-0.325985 -1.59921,-0.325985 0,0 0.597638,-0.0377953 1.62402,-0.0578741 1.02402,-0.0248032 2.48977,-0.147638 4.18819,-0.424016 0.850394,-0.13937 1.7504,-0.351969 2.66929,-0.633071 0.907087,-0.308268 1.84961,-0.675591 2.67992,-1.2248 0.829134,-0.540945 1.59921,-1.21772 2.08583,-2.06693 0.505512,-0.836221 0.758268,-1.82008 0.790158,-2.84055 0.00354331,-0.905906 -0.159449,-2.21339 -0.531496,-3.02599 -0.393307,-0.879922 -0.949607,-1.6937 -1.76811,-2.24173 -1.55669,-1.18819 -3.56103,-1.65236 -5.23229,-1.94291 -1.69843,-0.266929 -3.16772,-0.368504 -4.18937,-0.37441 -1.02756,-0.0188977 -1.62284,-0.00472441 -1.62284,-0.00354331z"/>
     <path id="_406737632" class="fil5" d="M801.121 752.859c0,0 1.64646,-0.0897638 4.11851,-0.226772 2.44488,-0.138189 5.6941,-0.287008 8.81221,-0.831497 0.786615,-0.116929 1.55079,-0.28937 2.29016,-0.48189 0.724016,-0.230315 1.45394,-0.416929 2.09173,-0.721654 1.30984,-0.5563 2.34567,-1.34173 2.94685,-2.26654 0.312992,-0.45 0.52441,-0.933072 0.647245,-1.38425 0.161811,-0.45 0.178347,-0.872835 0.246851,-1.22126 0.034252,-0.720473 0.056693,-1.1315 0.056693,-1.1315 0,0 0.147638,0.383859 0.334252,1.11024 0.0401575,0.367323 0.164173,0.823229 0.10748,1.36063 -0.00590552,0.533859 -0.109843,1.16457 -0.388583,1.78937 -0.497244,1.29803 -1.71024,2.51929 -3.17599,3.29173 -1.45748,0.826772 -3.14764,1.28858 -4.8189,1.59331 -3.36851,0.569292 -6.73465,0.376772 -9.20434,0.0177165 -2.47441,-0.348425 -4.06418,-0.897638 -4.06418,-0.897638z"/>
     <path id="_406737752" class="fil5" d="M798.054 737.443c0,0 1.09724,-0.506693 2.81221,-0.925985 1.71378,-0.434646 4.04292,-0.798426 6.40867,-0.819686 1.18228,0.0165354 2.37047,0.0484252 3.47835,0.232677 1.10906,0.152362 2.14252,0.403937 2.99055,0.746457 0.431103,0.134646 0.810237,0.324803 1.13386,0.514961 0.329528,0.172441 0.608268,0.328347 0.810237,0.51378 0.415748,0.341339 0.623623,0.543308 0.623623,0.543308 0,0 -0.287008,-0.068504 -0.790158,-0.190158 -0.490158,-0.111024 -1.18937,-0.227953 -2.03386,-0.284646 -1.67717,-0.138189 -3.92481,-0.138189 -6.19489,-0.109843 -2.26772,0.00944883 -4.56378,0.0354331 -6.30709,-0.0283465 -1.73858,-0.0484252 -2.9315,-0.19252 -2.9315,-0.19252z"/>
     <path id="_406737776" class="fil5" d="M797.848 721.797c0,0 0.922442,-0.334252 2.31378,-0.562205 1.39134,-0.240945 3.24803,-0.393307 5.10945,-0.348425 1.86024,0.0578741 3.71575,0.282284 5.10591,0.670867 1.39252,0.309449 2.25473,0.935434 2.23229,0.890552 0,0 -0.240945,0.0271654 -0.666142,0.0732284 -0.403937,0.0188977 -0.970867,0.090945 -1.67244,0.161811 -0.686221,0.0543308 -1.48937,0.116929 -2.35158,0.147638 -0.862205,0.0354331 -1.7811,0.0259843 -2.7,0.0212599 -1.83543,-0.0578741 -3.68032,-0.236221 -5.06103,-0.49252 -1.38307,-0.238583 -2.31024,-0.562205 -2.31024,-0.562205z"/>
     <path id="_406738280" class="fil4" d="M809.01 746.037c-0.62126,-2.5004 0.907087,-5.04213 3.4063,-5.66339 2.49685,-0.62126 5.03032,0.910631 5.65158,3.41103 0.622441,2.49803 -0.901182,5.03386 -3.39685,5.65512 -2.5004,0.62126 -5.03977,-0.904725 -5.66103,-3.40276z"/>
     <path id="_406738352" class="fil6" d="M793.674 762.37c-0.0011811,-0.00236221 -0.0011811,-0.00354331 -0.0011811,-0.00472441 0,0.00236221 0,0.0011811 0.0011811,0.00354331l0 0.0011811zm0.00826772 0.0366142c0.778347,3.0567 3.46418,5.39646 6.78544,5.58071l0 0.0011811c-3.32008,-0.185433 -6.00709,-2.5252 -6.78544,-5.58308l0 0.0011811zm-0.212599 -2.24646l0 0c0.022441,-0.415748 0.0791339,-0.820867 0.164173,-1.21063 -0.0850394,0.392126 -0.141732,0.794883 -0.165354,1.21063l0.0011811 0zm0.17126 -1.23189c0.0011811,-0.00472441 0.0011811,-0.0106299 0.00236221,-0.0153543 -0.0011811,0.00472441 -0.0011811,0.0106299 -0.00236221,0.0153543l0 0zm1.67244 -5.98465l0 0 4.9937 0.219685c0,0 0,0 -0.00236221,0l-4.99134 -0.219685zm76.2237 8.01851l0 0c0,0 101.786,-6.35315 134.653,-14.3197 0.0437008,-0.011811 0.0838583,-0.0212599 0.12874,-0.0330709 -0.0448819,0.011811 -0.0862205,0.0212599 -0.12874,0.0330709 -32.8654,7.96654 -134.653,14.3197 -134.653,14.3197l0 0zm134.858 -14.3717c0.0141732,-0.00354331 0.0318898,-0.00826772 0.0472441,-0.011811 -0.0165354,0.00472441 -0.0318898,0.00826772 -0.0472441,0.011811zm32.7414 -36.1796c0.0271654,-0.161811 0.0543308,-0.32126 0.080315,-0.48189 -0.0248032,0.16063 -0.0531496,0.322441 -0.080315,0.48189z"/>
     <path id="_406737080" class="fil7" d="M793.674 762.37c-0.0011811,-0.00236221 -0.0011811,-0.00354331 -0.0011811,-0.00472441 -0.172441,-0.702756 -0.248032,-1.44567 -0.204331,-2.20512l0.0011811 0c0.022441,-0.415748 0.0791339,-0.818505 0.164173,-1.21063 0.00354331,-0.00708662 0.00354331,-0.0141732 0.00708662,-0.0212599 0.0011811,-0.00472441 0.0011811,-0.0106299 0.00236221,-0.0153543 0.747638,-3.26693 3.64252,-5.63977 7.04882,-5.73308l-0.387402 -0.0165354c0.00236221,0 0.00236221,0 0.00236221,0l2.26417 0.0980316c0.677953,0.162992 1.56496,0.347244 2.61378,0.494882 2.42008,0.351969 5.69882,0.544489 9.00119,0.0153543l5.06693 0.223229 0.10748 1.40906c-1.00512,-0.389764 -2.13425,-0.484252 -3.25748,-0.204331 -2.90788,0.722835 -4.67244,3.65906 -3.95079,6.56221 0.721654,2.90197 3.65788,4.67481 6.56457,3.95197 0.505512,-0.125197 0.976772,-0.318898 1.40551,-0.56693l0.127559 1.62402c-0.892914,0.270473 -1.76693,0.473622 -2.59488,0.609449 -1.69843,0.276378 -3.16418,0.399213 -4.18819,0.424016 -1.02638,0.0212599 -1.62402,0.0578741 -1.62402,0.0578741 0,0 0.575197,0.135827 1.59921,0.325985 1.02402,0.142913 2.50866,0.381496 4.32402,0.316536 0.810237,-0.0177165 1.68307,-0.0933072 2.59961,-0.269292l0.0389764 0.510237 1.76693 0.184252 -21.704 -0.941339c-3.32008,-0.185433 -6.00709,-2.5252 -6.78544,-5.58308 -0.00236221,-0.011811 -0.00590552,-0.0248032 -0.00826772,-0.0354331z"/>
     <path id="_406737464" class="fil7" d="M795.314 752.944l23.6445 -2.69646 0.00826772 0.102756c-0.17126,0.0850394 -0.349607,0.168898 -0.532678,0.246851 -0.636615,0.304725 -1.36772,0.491339 -2.09173,0.721654 -0.739371,0.19252 -1.50354,0.364961 -2.29016,0.48189 -3.11811,0.544489 -6.36733,0.693308 -8.81221,0.831497 -2.47205,0.138189 -4.11851,0.226772 -4.11851,0.226772 0,0 0.527953,0.18189 1.45039,0.402756l-2.26417 -0.0980316 -4.9937 -0.219685zm18.8728 0.827953c0.0673229,-0.00944883 0.135827,-0.0212599 0.20315,-0.0330709 0.780709,-0.141732 1.56496,-0.318898 2.32795,-0.550394 0.511418,0.056693 1.05945,0.126378 1.6311,0.216142 0.281103,0.0507874 0.572835,0.101575 0.870473,0.165354l0.034252 0.425197 -5.06693 -0.223229zm4.74449 -1.47402c0.0625985,-0.0307087 0.121654,-0.0625985 0.180709,-0.0980316l0.00708662 0.108662c-0.0625985,-0.00472441 -0.124016,-0.00708662 -0.187795,-0.0106299z"/>
     <path id="_406737560" class="fil8" d="M811.843 767.862c0,0 0.597638,-0.0377953 1.62402,-0.0578741 1.02402,-0.0248032 2.48977,-0.147638 4.18819,-0.424016 0.827953,-0.134646 1.70197,-0.340158 2.59488,-0.609449 0.0259843,-0.00944883 0.0496063,-0.0165354 0.0744095,-0.0236221 0.907087,-0.308268 1.84961,-0.675591 2.67992,-1.2248 0.829134,-0.540945 1.59921,-1.21772 2.08583,-2.06693 0.505512,-0.836221 0.758268,-1.82008 0.790158,-2.84055 0.00354331,-0.643701 -0.0779528,-1.48819 -0.258662,-2.21457 -0.0732284,-0.298819 -0.165354,-0.577559 -0.272835,-0.811418 -0.393307,-0.879922 -0.949607,-1.6937 -1.76811,-2.24173 -1.29331,-0.987402 -2.89725,-1.47402 -4.36181,-1.77756 -0.297638,-0.0637796 -0.590552,-0.115748 -0.870473,-0.165354 -0.571654,-0.0885827 -1.11969,-0.16063 -1.6311,-0.216142 0.768898,-0.232677 1.51417,-0.523229 2.21339,-0.890552 0.0649607,0.00354331 0.125197,0.00590552 0.187795,0.00944883 0.719292,0.0437008 1.48465,0.146457 2.27717,0.317717 1.02992,0.263386 2.15669,0.592914 3.17835,1.30512 1.04882,0.638977 1.97126,1.68307 2.51575,2.90079l0.350788 0.94252c0.0354331,0.108662 0.0614174,0.201969 0.0826772,0.287008 0.0614174,0.248032 0.0708662,0.409843 0.127559,0.648426 0.00472441,0.0141732 0.00708662,0.0259843 0.0106299,0.0389764 0.131102,0.527953 0.15,1.24606 0.187795,1.9063 -0.0555119,1.3311 -0.42874,2.67992 -1.14921,3.81024 -0.690945,1.16693 -1.77992,1.94528 -2.80866,2.54764 -1.04764,0.618898 -2.15906,0.915355 -3.19016,1.1563 -0.113386,0.0236221 -0.225591,0.0472441 -0.335433,0.0673229 -0.916536,0.175984 -1.79055,0.251575 -2.59961,0.269292 -1.81536,0.0661418 -3.3,-0.173622 -4.32402,-0.316536 -1.02402,-0.190158 -1.59921,-0.325985 -1.59921,-0.325985z"/>
     <path id="_406737440" class="fil8" d="M801.121 752.859c0,0 1.64646,-0.0897638 4.11851,-0.226772 2.44488,-0.138189 5.6941,-0.287008 8.81221,-0.831497 0.786615,-0.116929 1.55079,-0.28937 2.29016,-0.48189 0.724016,-0.230315 1.45394,-0.416929 2.09173,-0.721654 0.183071,-0.0779528 0.361418,-0.161811 0.531496,-0.248032 0.0885827,-0.0425197 0.172441,-0.0862205 0.255118,-0.132284l2.58544 -0.294095c-0.620079,0.881103 -1.54134,1.66772 -2.59725,2.22284 -0.0307087,0.0188977 -0.0637796,0.0377953 -0.0968505,0.0543308 -0.0590552,0.0354331 -0.119291,0.0673229 -0.180709,0.0980316 -0.698032,0.367323 -1.44449,0.657875 -2.21339,0.890552 -0.761812,0.230315 -1.54725,0.408662 -2.32795,0.550394 -0.0661418,0.0129921 -0.135827,0.022441 -0.20315,0.0330709 -3.30236,0.529134 -6.58111,0.335433 -9.00119,-0.0153543 -1.04764,-0.147638 -1.93583,-0.33189 -2.61378,-0.494882 -0.922442,-0.220866 -1.45039,-0.402756 -1.45039,-0.402756z"/>
     <path id="_406737488" class="fil9" d="M812.153 761.762c-0.721654,-2.90315 1.04291,-5.83937 3.95079,-6.56221 1.12323,-0.279921 2.25236,-0.185433 3.25748,0.204331l0.761812 9.74292c-0.42874,0.248032 -0.900001,0.441733 -1.40551,0.56693 -2.9067,0.722835 -5.8441,-1.05118 -6.56457,-3.95197z"/>
     <path id="_406737056" class="fil9" d="M820.123 765.147l-0.761812 -9.74292c1.58858,0.615355 2.86181,1.96654 3.30355,3.7441 0.596457,2.39528 -0.506693,4.82008 -2.54173,5.99882z"/>
     <path id="_406737008" class="fil10" d="M929.077 718.204c-7.52245,1.41142 -15.4937,0.872835 -23.1709,-1.93819 2.06811,0.47126 3.98859,0.872835 5.74725,1.1941 6.36497,1.15748 12.1701,1.36772 17.4236,0.744095z"/>
    </g>
   </g>
   <path id="_406737224" class="fil2" d="M962.918 1151c-10.2319,18.6756 -8.30788,26.2122 -29.8855,18.0225 -21.5669,-8.19213 -29.0351,-21.8823 -20.8406,-43.4563l65.7532 -146.358c8.19449,-21.574 32.3256,-32.426 53.8961,-24.2351 21.5705,8.19331 21.5457,25.8567 20.8642,48.9272 -1.29213,43.9359 -89.7887,147.099 -89.7875,147.099z"/>
   <path id="_406736912" class="fil11" d="M987.072 1121.13c-4.40906,-2.14606 -12.3036,-7.92757 -16.7185,-10.0559 -19.3973,-9.36142 -25.4351,-6.51142 -43.474,-18.1996l-14.687 32.6929c-8.19449,21.574 -0.726379,35.2642 20.8406,43.4563 21.5788,8.18977 19.6524,0.65315 29.8843,-18.0225 0.0011811,0 10.9382,-11.2323 24.1547,-29.8713z"/>
   <path id="_406736624" class="fil2" d="M1075.02 996.13c-24.274,19.2449 -51.8563,34.2827 -74.0174,17.0162 -22.1646,-17.2618 -22.5709,-41.4674 -5.30433,-63.6378l135.236 -164.543c21.8693,-28.0571 52.6772,-15.2185 80.7426,6.65788 28.0689,21.8669 33.3461,44.8052 11.4768,72.867l-148.134 131.64z"/>
   <path id="_406736408" class="fil12" d="M1232.19 781.387c-1.11614,-0.949607 -57.8339,-2.87244 -97.4103,-0.842127 -21.2386,1.09016 -37.1422,6.05434 -37.7658,6.78544l-67.0713 92.9516c23.2855,23.2949 65.7626,72.4571 89.0493,95.7379l120.509 -103.81c23.0587,-27.0969 19.7882,-67.7599 -7.31103,-90.8233z"/>
   <path id="_406736528" class="fil13" d="M978.636 1134.36c0,0 3.67087,16.3677 14.7366,36.176 3.77599,6.75709 3.99685,17.9327 6.23623,23.6858 10.9642,3.39803 12.241,29.713 9.93426,34.0961 -2.31969,7.47166 -40.7445,11.7189 -63.8079,1.27323 -16.0477,-7.26733 -29.9799,-2.9126 -49.0796,0.990946 -18.2315,3.72638 -41.1685,7.04528 -75.1477,-0.548032 -33.4323,-7.47048 -23.6858,-39.0874 -11.7378,-46.6985 16.2756,-5.55355 33.5953,-4.65473 46.9429,-5.56654 41.5465,-2.81693 20.1591,-26.9823 45.0792,-39.0496 19.2118,13.4043 36.3236,21.1819 48.7241,18.7937 18.8823,-3.63307 18.4772,-23.6398 28.1197,-23.1532z"/>
   <path id="_406736792" class="fil14" d="M953.63 1213.26c16.8874,7.65237 40.9347,8.42835 56.8335,5.76615 -0.387402,-9.41103 -3.35197,-22.4705 -10.8543,-24.7961 -2.23937,-5.75315 -2.46024,-16.9288 -6.23623,-23.6858 -11.0658,-19.8083 -14.7378,-36.1748 -14.7378,-36.1748 -9.64135,-0.487796 -9.23623,19.5189 -28.1185,23.152 -12.4004,2.38819 -29.5122,-5.38937 -48.7241,-18.7937 -24.9201,12.0673 -3.53268,36.2327 -45.0792,39.0496 -13.3476,0.911812 -30.6673,0.0129921 -46.9429,5.56654 -6.50197,4.14331 -12.3343,15.3886 -10.9311,25.989 3.35315,1.83898 7.39134,3.36378 12.2197,4.44331 38.9953,8.70946 65.3197,4.90158 86.243,0.623623 21.9189,-4.48111 37.9087,-9.47953 56.328,-1.13976z"/>
   <path id="_406736240" class="fil15" d="M1001.78 1195.29c-0.679134,-0.452363 -1.39488,-0.831497 -2.16614,-1.0689 -2.23937,-5.75315 -2.46024,-16.9288 -6.23623,-23.6858 -11.0658,-19.8083 -14.7378,-36.1748 -14.7378,-36.1748 -9.64135,-0.487796 -9.23623,19.5189 -28.1185,23.152 -12.4004,2.38819 -29.5122,-5.38937 -48.7241,-18.7937 -24.9201,12.0673 -15.2941,35.2099 -56.8406,38.0256 -13.3524,0.910631 -18.9059,1.03701 -35.1815,6.59056 -1.61457,1.04055 -3.18425,2.50394 -4.61457,4.27796 3.37441,2.39764 7.7504,4.34882 13.3713,5.60552 33.978,7.58977 56.9162,4.27441 75.1477,0.546851 19.102,-3.90473 33.0343,-8.25946 49.0819,-0.990946 18.7299,8.47678 47.5914,7.2756 59.0185,2.51575z"/>
   <path id="_406736096" class="fil13" d="M923.376 1176.29c14.2039,3.97205 32.6398,9.49371 47.6055,7.25552 8.76379,-1.31102 16.5473,-5.2193 23.674,-10.2189 -0.379134,-0.98504 -0.804331,-1.92284 -1.28268,-2.7874 -11.0658,-19.8083 -14.7378,-36.1748 -14.7378,-36.1748 -9.64135,-0.487796 -9.23623,19.5189 -28.1185,23.152 -12.1807,2.34567 -28.904,-5.12481 -47.6989,-18.091 1.93228,13.0299 6.37087,32.8925 20.5583,36.8646z"/>
   <path id="_406736600" class="fil16" d="M890.459 1179.39c-1.24016,2.30315 -4.10551,3.16181 -6.4004,1.91811l-15.3484 -8.27481c-2.29725,-1.23898 -3.15591,-4.09843 -1.91929,-6.40158 1.24134,-2.29488 4.10551,-3.15473 6.40394,-1.90984l15.352 8.2689c2.28898,1.2378 3.15,4.11024 1.91221,6.39922z"/>
   <path id="_406736120" class="fil16" d="M900.038 1167.25c-1.13268,2.1 -3.75355,2.8878 -5.85237,1.75394l-14.0457 -7.57087c-2.10236,-1.13504 -2.88544,-3.76181 -1.7563,-5.85591 1.13504,-2.09882 3.75355,-2.88662 5.85709,-1.75512l14.0469 7.57323c2.10236,1.1315 2.88662,3.75 1.7504,5.85473z"/>
   <path id="_406736432" class="fil16" d="M908.762 1156.05c-1.13504,2.10591 -3.75473,2.88898 -5.85827,1.75748l-14.0433 -7.57442c-2.10236,-1.13858 -2.8878,-3.75945 -1.75394,-5.85473 1.13268,-2.09882 3.75355,-2.89134 5.85355,-1.7504l14.0445 7.56733c2.10827,1.12795 2.88898,3.75 1.75748,5.85473z"/>
   <path id="_406736144" class="fil17" d="M853.39 1175.8c0.011811,-0.00472441 0.0236221,-0.00472441 0.0366142,-0.00826772 -0.0106299,0.0011811 -0.0259843,0.00472441 -0.0366142,0.00826772l0 0zm0.0625985 -0.0129921c5.64449,-0.935434 10.0736,-2.36103 13.6843,-4.12677 0.00236221,0.00472441 0.00590552,0.00944883 0.00826772,0.011811 -3.60827,1.76339 -8.04804,3.18307 -13.6925,4.11614l0 -0.0011811zm21.9732 -9.8693l-2.2311 -1.2 2.22047 1.19528c1.13976,-1.0937 2.17677,-2.2252 3.14528,-3.39449 -0.96378,1.17165 -1.99843,2.31024 -3.13465,3.39922z"/>
   <path id="_406736456" class="fil18" d="M846.666 1234c-0.00472441,0 -0.00708662,-0.0011811 -0.0106299,-0.0011811 0.00472441,0 0.00590552,0.0011811 0.0106299,0.0011811l0 0zm0.011811 0.0011811c20.3977,1.77165 36.0154,-0.594095 49.167,-3.25276 -13.1539,2.65866 -28.7681,5.02559 -49.167,3.25276zm-24.5292 -3.82323c-0.00236221,0 -0.00590552,-0.00236221 -0.00826772,-0.00236221 0.00236221,0 0.00590552,0.00236221 0.00826772,0.00236221zm-0.640158 -0.142913l0 0c-0.0295276,-0.00708662 -0.056693,-0.0106299 -0.0850394,-0.0177165 0.0295276,0.00708662 0.0555119,0.0106299 0.0850394,0.0177165l0 0zm-0.11811 -0.0248032c-0.0188977,-0.00590552 -0.034252,-0.00944883 -0.0531496,-0.0129921 0.0177165,0.00354331 0.0354331,0.00708662 0.0531496,0.0129921zm-0.0897638 -0.0212599c-0.0248032,-0.00590552 -0.0519685,-0.0129921 -0.0779528,-0.0165354 0.0271654,0.00472441 0.0507874,0.0106299 0.0779528,0.0165354zm-0.120473 -0.0271654c-0.0129921,-0.00236221 -0.0236221,-0.00590552 -0.0366142,-0.00944883 0.0129921,0.00354331 0.0236221,0.00708662 0.0354331,0.00944883l0.0011811 0zm-0.0885827 -0.0200788c-0.00826772,-0.00354331 -0.0165354,-0.00590552 -0.0248032,-0.00590552 0.0106299,0.00236221 0.0141732,0.00236221 0.0248032,0.00590552zm-0.216142 -0.0507874c-0.00236221,0 -0.00472441,-0.00236221 -0.00472441,-0.00236221 0.00236221,0 0.00236221,0.00236221 0.00472441,0.00236221zm76.1729 0.612993c0.0602363,-0.0129921 0.115748,-0.0236221 0.174803,-0.0377953 -0.0590552,0.0141732 -0.114567,0.0248032 -0.175984,0.0377953l0.0011811 0zm0.479528 -0.100394c12.9189,-2.66811 23.4874,-5.4626 34.0134,-4.55079 -10.526,-0.911812 -21.0945,1.88268 -34.0134,4.55079l0 0zm48.2079 -0.811418c-0.0543308,-0.0248032 -0.10748,-0.0484252 -0.162992,-0.0744095 0.0555119,0.0259843 0.108662,0.0496063 0.162992,0.0744095l0 0zm-14.1662 -3.73701c-0.00236221,0 -0.00708662,-0.0011811 -0.00826772,-0.0011811l0 0c0.0011811,0 0.00590552,0.0011811 0.00826772,0.0011811z"/>
   <path id="_406735856" class="fil17" d="M866.897 1166.45c0.947245,-1.5874 2.69764,-2.42953 4.44567,-2.28189 -1.74803,-0.147638 -3.49843,0.694489 -4.44567,2.28189l0 0zm6.25749 -1.7504c-0.0188977,-0.0106299 -0.0389764,-0.0200788 -0.0590552,-0.0307087 0.0200788,0.0106299 0.0401575,0.0200788 0.0590552,0.0307087l0 0zm-1.78583 -0.529134c-0.00472441,-0.0011811 -0.00708662,0 -0.0106299,-0.0011811l0 0c0.00472441,0 0.00590552,0.0011811 0.0106299,0.0011811l0 0zm7.04174 -8.63505c0.849213,-1.53071 2.49449,-2.3504 4.14095,-2.21221 -1.64528,-0.134646 -3.29173,0.681497 -4.14095,2.21221l0 0zm5.76733 -1.74331c-0.00354331,-0.00236221 -0.00708662,-0.00590552 -0.0141732,-0.00826772 0.00708662,0.00236221 0.0106299,0.00590552 0.0141732,0.00826772zm-1.59921 -0.467717c-0.0011811,0 -0.00472441,0 -0.00708662,0l0.0011811 0c0.00236221,0 0.00354331,0.0011811 0.00590552,0z"/>
   <path id="_406735808" class="fil6" d="M1027.64 1146.31l-1.35118 -0.755906 1.35473 0.751182c-0.0011811,0.00236221 -0.00354331,0.00236221 -0.00354331,0.00472441l0 0zm2.72126 -1.90276l-42.8859 -144.598 42.8859 144.598zm-43.6559 -179.537c0.00236221,-0.00472441 0.00236221,-0.00472441 0.00236221,-0.00826772 0,0.00236221 0,0.00590552 -0.00354331,0.00826772l0.0011811 0zm0.0283465 -0.0720473c2.0504,-5.13189 5.0563,-10.2638 8.97284,-15.2917 -3.91536,5.02796 -6.92245,10.1599 -8.97284,15.2917zm71.4178 -91.2698c-0.943702,-1.1941 -1.87795,-2.34921 -2.7626,-3.44646l0 0c0.891733,1.09724 1.81654,2.24528 2.76732,3.44055l-0.00472441 0.00590552z"/>
   <path id="_406735616" class="fil15" d="M904.557 1148.88l-10.2343 -5.51221c0,-0.00236221 0.0011811,-0.00236221 0.00236221,-0.00472441l0.0141732 0.00708662c0.83504,-0.657875 1.72795,-1.29803 2.67874,-1.9311l-0.00354331 -0.0153543c1.44213,-0.948426 3.02244,-1.85079 4.77756,-2.70118l0 -0.0011811c0.34252,0.240945 0.68504,0.478347 1.0252,0.714567 0.431103,2.89488 0.982678,6.1252 1.73977,9.4441z"/>
   <path id="_406735712" class="fil19" d="M885.891 1181.86c-0.622441,-0.0543308 -1.24606,-0.233858 -1.83307,-0.552756l-15.3484 -8.27481c-0.635434,-0.341339 -1.16221,-0.810237 -1.56496,-1.35709 -0.0011811,-0.00354331 -0.00590552,-0.00708662 -0.00826772,-0.011811 0.00590552,-0.0011811 0.00944883,-0.00354331 0.0165354,-0.00708662 -1.04291,-1.42323 -1.25315,-3.36024 -0.362599,-5.02559 0.0366142,-0.0625985 0.068504,-0.122835 0.106299,-0.18189 0.947245,-1.5874 2.69764,-2.42953 4.44567,-2.28189 0.00708662,0 0.0106299,0.0011811 0.0153543,0.0011811 0.00472441,0 0.00590552,0.0011811 0.0106299,0.0011811 0.585827,0.0507874 1.17165,0.214961 1.72677,0.498426 0.0200788,0.0106299 0.0401575,0.0200788 0.0590552,0.0307087 0.0141732,0.00826772 0.0283465,0.0153543 0.0401575,0.022441l0 0 2.2311 1.2 13.1209 7.0689c2.28898,1.2378 3.15,4.11024 1.91103,6.39922 -0.922442,1.71496 -2.74607,2.62914 -4.56615,2.47087z"/>
   <path id="_406735784" class="fil19" d="M895.857 1169.5c-0.569292,-0.0496063 -1.1374,-0.21378 -1.67126,-0.501969l-14.0457 -7.57087c-0.166536,-0.090945 -0.325985,-0.190158 -0.475985,-0.298819 0.00236221,-0.00354331 0.00708662,-0.00944883 0.00944883,-0.0141732 -1.73622,-1.25433 -2.3315,-3.60473 -1.28976,-5.54292 0.0106299,-0.0141732 0.0177165,-0.0307087 0.0259843,-0.0448819 0.849213,-1.53071 2.49449,-2.34803 4.14095,-2.21221 0.00590552,0 0.011811,0.0011811 0.0200788,0.0011811 0.00354331,0 0.00472441,0.0011811 0.00708662,0.0011811 0.538583,0.046063 1.07717,0.197244 1.58504,0.458268 0.00708662,0.00236221 0.0106299,0.00590552 0.0141732,0.00826772 0.0212599,0.00944883 0.0437008,0.0200788 0.0637796,0.0330709l0.45 0.242126c0,0 0,0.0011811 0,0.0011811l13.5969 7.32993c2.10236,1.1315 2.88662,3.75 1.74921,5.85473 -0.843308,1.56496 -2.51339,2.40118 -4.17992,2.25591z"/>
   <path id="_406736000" class="fil6" d="M887.108 1144.38c0.840946,-1.55669 2.49803,-2.3941 4.1563,-2.25591 -1.65709,-0.138189 -3.31654,0.699213 -4.15748,2.25709l0.0011811 -0.0011811zm4.18229 -2.25355c-0.00236221,0 -0.00472441,0 -0.00708662,-0.0011811l0 0c0.00236221,0.0011811 0.00472441,0.0011811 0.00708662,0.0011811z"/>
   <path id="_406735400" class="fil19" d="M904.577 1158.31c-0.569292,-0.0496063 -1.1374,-0.21378 -1.67362,-0.500788l-14.0433 -7.57442c-0.31063,-0.168898 -0.595276,-0.369685 -0.846851,-0.597638 0.00472441,-0.00354331 0.00708662,-0.00826772 0.011811,-0.011811 -1.44921,-1.29921 -1.88386,-3.45827 -0.918898,-5.24528l0.0011811 -0.0011811c0.840946,-1.55669 2.49803,-2.3941 4.1563,-2.25591 0.00708662,0 0.0129921,0.0011811 0.0188977,0.0011811 0.00236221,0.0011811 0.00472441,0.0011811 0.00590552,0.0011811 0.570473,0.0496063 1.1374,0.216142 1.67126,0.504331l0 0 1.36299 0.735827 10.2343 5.51221 2.44725 1.31929c2.10827,1.12795 2.88898,3.75 1.75748,5.85591 -0.396851,0.735827 -0.979135,1.31221 -1.65473,1.69961 -0.761812,0.437008 -1.64646,0.634252 -2.52992,0.557481z"/>
   <path id="_406736072" class="fil2" d="M1306.76 1200.1c0.138189,21.2929 -12.2504,23.5028 -35.0776,26.824 -22.839,3.32362 -36.0177,-5.01851 -39.3378,-27.854l-9.90709 -158.101c-3.32244,-22.8319 12.5008,-44.0445 35.3315,-47.3611 22.839,-3.32599 31.389,12.1323 42.0036,32.6256 20.2146,39.0343 6.98859,173.865 6.98741,173.867z"/>
   <path id="_406735520" class="fil11" d="M1271.68 1226.93c22.8272,-3.32244 35.2158,-5.53347 35.0788,-26.8264 -0.0011811,0.0011811 2.8311,-28.7965 3.86811,-63.6237 -7.37363,0.413386 -14.7083,1.18228 -21.7441,1.72441 -17.8902,1.36772 -35.791,3.22205 -53.7402,3.64016 -2.12008,0.0555119 -4.24961,0.0767717 -6.3756,0.11811l3.5752 57.1122c3.32008,22.8355 16.4988,31.1776 39.3378,27.8551z"/>
   <path id="_406735904" class="fil2" d="M1305.11 1033.31c4.32284,30.6874 3.33307,62.0776 -22.7811,72.4536 -26.1036,10.3831 -47.1898,-1.52008 -57.5658,-27.6213l-59.843 -239.78 8.20631 -24.1276c-13.1445,-33.0685 -38.9481,-22.7988 -5.88308,-35.9398l0.512599 4.29803c33.0733,-13.1469 72.1229,-32.6091 85.2674,0.451181l52.0867 250.266z"/>
   <path id="_406735016" class="fil20" d="M1311.72 1199.41c0,0 2.93977,16.513 13.1102,36.7914 3.47126,6.91536 3.19725,18.0886 5.17323,23.9386 10.8071,3.88229 10.9075,30.2303 8.41064,34.5012 -2.65394,7.36418 -41.2252,9.89646 -63.7997,-1.56732 -30.7087,-15.5811 -55.3158,13.5461 -124.128,-5.08819 -33.0673,-8.94922 -21.9154,-40.1032 -9.64489,-47.1626 16.5095,-4.82717 33.7689,-3.1689 47.1437,-3.48189 24.2339,-0.557481 27.4866,-9.29292 30.9886,-18.6579 2.51457,-6.72048 5.1567,-13.7669 15.7866,-18.3414 18.5977,14.2453 35.341,22.7799 47.8382,20.9421 19.0205,-2.79213 19.5071,-22.7988 29.1213,-21.874z"/>
   <path id="_406734944" class="fil21" d="M1283.23 1277.11c16.5307,8.39292 40.5213,10.239 56.5158,8.28898 0.0366142,-9.4252 -2.33977,-22.6016 -9.73702,-25.2567 -1.97599,-5.84882 -1.70197,-17.0232 -5.17323,-23.9386 -10.1705,-20.2784 -13.1102,-36.7914 -13.1102,-36.7914 -9.61418,-0.924804 -10.1008,19.0819 -29.1213,21.874 -12.4973,1.83898 -29.2406,-6.69686 -47.8382,-20.9421 -10.6299,4.57441 -13.2721,11.6209 -15.7866,18.3414 -3.50197,9.36615 -6.75473,18.1004 -30.9886,18.6579 -13.3748,0.312992 -30.6343,-1.34646 -47.1437,3.48189 -6.67796,3.8374 -13.0063,14.811 -12.078,25.461 3.26339,1.99606 7.23544,3.68977 12.0047,4.98189 78.9757,21.3827 107.213,-12.0484 142.456,5.84174z"/>
   <path id="_406734920" class="fil22" d="M1332.13 1261.31c-0.656693,-0.479528 -1.35709,-0.889371 -2.12008,-1.16693 -1.97599,-5.84882 -1.70197,-17.0232 -5.17323,-23.9386 -10.1705,-20.2784 -13.1102,-36.7914 -13.1102,-36.7914 -9.61418,-0.924804 -10.1008,19.0819 -29.1213,21.874 -12.4973,1.83898 -29.2406,-6.69686 -47.8382,-20.9421 -25.4327,10.9476 -16.8496,34.4941 -58.4752,35.4555 -13.3866,0.312992 -18.9343,0.197244 -35.4437,5.02559 -1.65236,0.951969 -3.2941,2.34685 -4.79882,4.06063 3.26575,2.54055 7.55079,4.68307 13.1079,6.19016 68.8123,18.6331 93.4217,-10.4976 124.126,5.08819 18.3331,9.30355 47.2193,9.38623 58.8473,5.14489z"/>
   <path id="_406734824" class="fil20" d="M1254.66 1238.83c14.002,4.59567 32.178,10.9382 47.2288,9.36615 8.80749,-0.915355 16.7634,-4.47402 24.1028,-9.15001 -0.333071,-1.00039 -0.718111,-1.96063 -1.1563,-2.84173 -10.1705,-20.2784 -13.1102,-36.7914 -13.1102,-36.7914 -9.61418,-0.924804 -10.1008,19.0819 -29.1213,21.874 -12.2693,1.80118 -28.6524,-6.41693 -46.8426,-20.1921 1.34646,13.1032 4.89685,33.1382 18.8988,37.7351z"/>
   <path id="_406734560" class="fil16" d="M1221.63 1240.46c-1.33819,2.24055 -4.23898,2.96929 -6.47717,1.62992l-14.961 -8.94568c-2.24173,-1.34528 -2.97047,-4.24134 -1.62638,-6.48189 1.3311,-2.23583 4.23307,-2.96811 6.47008,-1.63228l14.9693 8.95512c2.24055,1.33819 2.96693,4.23544 1.6252,6.47481z"/>
   <path id="_406734776" class="fil16" d="M1231.74 1228.77c-1.2248,2.04213 -3.87992,2.70945 -5.92796,1.48228l-13.6961 -8.18741c-2.0504,-1.22599 -2.71536,-3.87638 -1.48819,-5.92796 1.22126,-2.04803 3.87638,-2.72126 5.92323,-1.49646l13.7008 8.19213c2.04921,1.22835 2.71418,3.88111 1.48819,5.93741z"/>
   <path id="_406734728" class="fil16" d="M1240.95 1217.97c-1.22126,2.0504 -3.87756,2.71418 -5.92441,1.49055l-13.702 -8.19331c-2.04567,-1.22126 -2.70591,-3.8752 -1.48701,-5.9256 1.22362,-2.04921 3.87874,-2.71536 5.93032,-1.48937l13.6949 8.19213c2.04921,1.2189 2.70827,3.87284 1.48819,5.9256z"/>
   <path id="_406735256" class="fil6" d="M1141.56 1252.75l0.0590552 -0.0862205 0.0484252 -0.0578741c-0.0354331,0.0484252 -0.0720473,0.0956694 -0.10748,0.144095zm1.11496 -1.39134l0.0236221 -0.0307087c0.0271654,-0.0295276 0.0519685,-0.0578741 0.0791339,-0.0874016 -0.0354331,0.0377953 -0.068504,0.0779528 -0.103937,0.116929l0.0011811 0.0011811zm1.47284 -1.5c0.214961,-0.198425 0.434646,-0.38504 0.659056,-0.561024 15.5894,-7.26969 21.091,-7.99489 34.2768,-10.3287l0 0c-13.1858,2.33504 -18.6862,3.05906 -34.2768,10.3287l0 0c-0.220866,0.177165 -0.441733,0.362599 -0.659056,0.559843l0 0.0011811zm17.1248 44.576c0.0129921,0.00236221 0.0212599,0.00236221 0.0330709,0.00472441 -0.00944883,-0.00236221 -0.022441,-0.00236221 -0.0330709,-0.00472441zm0.0944883 0.0106299c0.0366142,0.00590552 0.0720473,0.0106299 0.108662,0.0141732 -0.0366142,-0.00354331 -0.0720473,-0.0106299 -0.108662,-0.0141732zm21.515 -56.2205c0.00354331,-0.0011811 0.00590552,-0.00236221 0.0106299,-0.00354331 -0.00472441,0.0011811 -0.00708662,0.00236221 -0.011811,0.00354331l0.0011811 0zm0.0814961 -0.0177165c7.75631,-1.69252 13.3665,-3.98504 17.628,-6.67796 0.00472441,0.00590552 0.00944883,0.011811 0.0153543,0.0165354 -4.26615,2.68583 -9.89174,4.97126 -17.6433,6.66142l0 0zm22.9028 -14.2311l2.33977 0.954331c1.41142,-1.6748 2.62087,-3.42048 3.71339,-5.2063 0.00236221,0 0.00236221,0 0.0011811,0.00236221 -1.09252,1.79055 -2.28898,3.53504 -3.69922,5.20985l-2.35512 -0.960237zm9.81733 -12.0177l0.477166 0.19252 0 0.00236221 -0.477166 -0.194882zm16.2579 -16.6536c0.056693,0.0307087 0.114567,0.0614174 0.174803,0.0933072l0 0.00236221c-0.0614174,-0.0318898 -0.115748,-0.0637796 -0.174803,-0.0956694zm77.4367 -125.622l49.1776 -10.9583c0,0 -0.0011811,0.0011811 -0.0011811,0.0011811l-49.1729 10.9606c1.82008,20.4685 1.9004,43.9926 1.28976,65.3788 0.608268,-21.3862 0.526772,-44.915 -1.29331,-65.3823zm1.25079 66.8386c-0.00944883,0.341339 -0.0165354,0.680315 -0.0295276,1.01693 0.00826772,-0.338977 0.0200788,-0.675591 0.0295276,-1.01693zm-0.0531496 1.73504c-0.00590552,0.255118 -0.0129921,0.509056 -0.0248032,0.765355 -0.0236221,0.71693 -0.0401575,1.42913 -0.0673229,2.13898 -0.0106299,0.328347 -0.0271654,0.656693 -0.0401575,0.982678 0.0472441,-1.28622 0.0897638,-2.58189 0.132284,-3.88701l0 0zm-0.135827 3.97914c0,0.046063 -0.00236221,0.0921261 -0.00354331,0.138189 -0.00354331,0.0992127 -0.00708662,0.198425 -0.011811,0.296457 0.00590552,-0.145276 0.00944883,-0.288189 0.0153543,-0.434646zm-0.0259843 0.737008c-0.0177165,0.527953 -0.0354331,1.05354 -0.0543308,1.57795 -0.0165354,0.343701 -0.0271654,0.686221 -0.0448819,1.0252 0.0330709,-0.862205 0.0673229,-1.73032 0.0980316,-2.60315l0.0011811 0zm-0.116929 3.04488c-0.0106299,0.309449 -0.022441,0.616536 -0.0366142,0.923623 0.011811,-0.307087 0.0248032,-0.615355 0.0366142,-0.923623l0 0zm-0.0885827 2.21103c-0.00826772,0.242126 -0.0165354,0.486615 -0.0295276,0.729922 -0.0366142,0.875198 -0.0744095,1.74685 -0.114567,2.61378 -0.00354331,0.0555119 -0.00826772,0.109843 -0.00944883,0.166536 0.0519685,-1.15866 0.102756,-2.32914 0.153543,-3.51024l0 0zm-0.162992 3.69331c-0.00354331,0.0897638 -0.00472441,0.180709 -0.00826772,0.269292 -0.0413386,0.846851 -0.0767717,1.68898 -0.121654,2.5252 0.0448819,-0.922442 0.0885827,-1.85669 0.129921,-2.79449zm-29.0658 127.681c1.30394,0.3 2.62441,0.669686 3.96496,1.11024 0.0307087,0.011811 0.0590552,0.0188977 0.0862205,0.0283465 -0.0271654,-0.00826772 -0.0555119,-0.0177165 -0.0862205,-0.0283465 -1.34055,-0.440552 -2.66103,-0.810237 -3.96496,-1.11142l0 0.0011811zm28.8449 -123.033c-0.0307087,0.62126 -0.0625985,1.23898 -0.0885827,1.85079 -0.0236221,0.328347 -0.0377953,0.650788 -0.0555119,0.975591 -0.00354331,0.0708662 -0.00944883,0.141732 -0.0129921,0.211417 0.0531496,-0.999213 0.105118,-2.01614 0.155906,-3.0378l0.0011811 0zm-0.212599 4.09843c-0.0153543,0.264567 -0.0271654,0.526772 -0.0389764,0.784253 -0.0212599,0.364961 -0.0425197,0.726379 -0.0602363,1.0878 -0.0330709,0.604725 -0.0661418,1.20827 -0.103937,1.80709 -0.0200788,0.416929 -0.0472441,0.83504 -0.068504,1.24843 -0.0200788,0.302362 -0.0401575,0.603544 -0.056693,0.902363 0.109843,-1.88858 0.220866,-3.83622 0.328347,-5.82993zm-0.377953 6.66851c-0.0200788,0.376772 -0.0437008,0.752363 -0.0673229,1.12913 -0.0307087,0.488977 -0.056693,0.981497 -0.090945,1.46457 -0.0200788,0.389764 -0.0472441,0.773623 -0.0720473,1.15276 0.0767717,-1.22126 0.152362,-2.47205 0.230315,-3.74646zm-0.245669 3.96024c-0.0283465,0.46063 -0.056693,0.914174 -0.0850394,1.36654 -0.00708662,0.108662 -0.0153543,0.217323 -0.0236221,0.329528 0.0377953,-0.558662 0.0732284,-1.12677 0.108662,-1.69606zm-0.152362 2.40473c-0.00236221,0.0259843 -0.00354331,0.0507874 -0.00472441,0.0767717 -0.0248032,0.361418 -0.0472441,0.724016 -0.0732284,1.07835 0.0259843,-0.382677 0.0507874,-0.766536 0.0779528,-1.15512zm-0.126378 1.89567c-0.0129921,0.185433 -0.0259843,0.372048 -0.0389764,0.558662 0.0129921,-0.184252 0.0259843,-0.373229 0.0377953,-0.558662l0.0011811 0zm-0.0661418 0.983859c-0.0200788,0.328347 -0.0472441,0.651969 -0.0661418,0.970867 -0.0307087,0.432284 -0.0590552,0.859843 -0.0897638,1.28268 -0.0271654,0.400394 -0.0555119,0.788977 -0.0826772,1.17638 -0.0283465,0.377953 -0.0507874,0.754725 -0.080315,1.12205 -0.0259843,0.367323 -0.0507874,0.718111 -0.080315,1.07008 0.131102,-1.76811 0.264567,-3.64725 0.398032,-5.62205l0.0011811 0zm-0.435827 6.13937c-0.0153543,0.209055 -0.0295276,0.416929 -0.0413386,0.622441 -0.0259843,0.302362 -0.0448819,0.596457 -0.0720473,0.896457 0.370866,0.961418 0.90945,2.29961 1.6252,3.95433 -0.715749,-1.65236 -1.25433,-2.99173 -1.62638,-3.95315 0.0377953,-0.497244 0.0755906,-1.00394 0.114567,-1.52008l0 0zm-22.5839 98.2123c0.0389764,0.0106299 0.0779528,0.0212599 0.115748,0.034252 -0.0377953,-0.011811 -0.0767717,-0.0236221 -0.115748,-0.034252l0 0zm37.7008 -67.8981c0.0011811,0.00472441 0.00472441,0.00708662 0.00826772,0.0129921 -0.0011811,-0.00236221 -0.00708662,-0.0106299 -0.00826772,-0.0129921zm0.0673229 0.102756c0.00354331,0.00472441 0.00944883,0.0106299 0.0129921,0.0177165 -0.00354331,-0.00708662 -0.00708662,-0.0129921 -0.0129921,-0.0177165zm0.0637796 0.0933072c0.00590552,0.0106299 0.0129921,0.0200788 0.0188977,0.0295276 -0.00590552,-0.00944883 -0.0129921,-0.0200788 -0.0188977,-0.0307087l0 0.0011811zm0.0661418 0.0992127c0.0165354,0.0236221 0.0318898,0.0496063 0.0484252,0.0720473 -0.0165354,-0.022441 -0.0330709,-0.0484252 -0.0484252,-0.0720473l0 0zm0.0779528 0.115748c0.0129921,0.0236221 0.0295276,0.046063 0.0437008,0.0696851 -0.0129921,-0.0236221 -0.0307087,-0.0472441 -0.0448819,-0.0696851l0.0011811 0zm0.0602363 0.0885827c0.0141732,0.022441 0.0307087,0.0472441 0.046063,0.0708662 -0.0165354,-0.0236221 -0.0307087,-0.046063 -0.0472441,-0.0720473l0.0011811 0.0011811zm0.0590552 0.0897638c0.0744095,0.109843 0.148819,0.220866 0.223229,0.330709 -0.0744095,-0.109843 -0.148819,-0.220866 -0.223229,-0.33189l0 0.0011811zm0.223229 0.330709c0.578741,0.855119 1.17402,1.72087 1.78819,2.5878 -0.612993,-0.869292 -1.20827,-1.73032 -1.78819,-2.5878l0 0zm1.79528 2.59843c0.0141732,0.022441 0.0307087,0.0437008 0.0448819,0.0661418 -0.0141732,-0.0212599 -0.0307087,-0.046063 -0.0448819,-0.0661418zm0.068504 0.0980316c0.0129921,0.0177165 0.0271654,0.0389764 0.0401575,0.056693 -0.0129921,-0.0177165 -0.0259843,-0.0366142 -0.0413386,-0.056693l0.0011811 0zm0.0732284 0.103937c0.011811,0.0177165 0.0248032,0.034252 0.0366142,0.0496063 -0.011811,-0.0153543 -0.0248032,-0.0330709 -0.0366142,-0.0496063l0 0zm7.7256 63.9603c8.20158,-2.15788 13.9595,-5.13071 14.6268,-8.02087l-0.0011811 0.0011811c-0.666142,2.88898 -6.42638,5.86182 -14.6256,8.01851l0 0.0011811zm10.1953 -32.1425l0.0236221 0.046063c0.0543308,0.111024 0.10748,0.220866 0.16063,0.33189 -0.0602363,-0.126378 -0.122835,-0.251575 -0.184252,-0.377953l0 0zm4.84607 21.5717c-0.0011811,0.00236221 -0.0011811,0.00354331 -0.00236221,0.00590552 0.0011811,-0.0011811 0.0011811,-0.00472441 0.0011811,-0.00708662l0.0011811 0.0011811zm0 0.00826772c-0.034252,0.748819 -0.109843,1.38543 -0.225591,1.88858 -0.0496063,0.217323 -0.10748,0.407481 -0.172441,0.570473 0.0661418,-0.162992 0.122835,-0.354331 0.172441,-0.569292 0.115748,-0.501969 0.191339,-1.14095 0.225591,-1.88977l0 0zm-0.398032 2.45906c-0.00472441,0.0295276 -0.0106299,0.0555119 -0.0165354,0.0826772 0.00590552,-0.0271654 0.011811,-0.0555119 0.0165354,-0.0826772z"/>
   <path id="_406734608" class="fil13" d="M1130.33 1254.82c-0.00708662,0.0188977 -0.0129921,0.0389764 -0.0200788,0.0578741 0.00708662,-0.0177165 0.0129921,-0.0389764 0.0212599,-0.0590552l-0.0011811 0.0011811zm-0.0248032 0.0755906c-1.25079,3.60118 -1.87441,7.51536 -1.53543,11.3894 3.26339,1.99606 7.23544,3.68977 12.0047,4.98189 78.9757,21.3827 107.213,-12.0484 142.456,5.84174 16.5307,8.39292 40.5213,10.239 56.5158,8.28898 0.00708662,-1.77402 -0.0708662,-3.6815 -0.251575,-5.62559l0.00590552 0.0507874c0.11811,1.26496 0.19252,2.50866 0.223229,3.71575l0.00708662 0.100394c0.0933072,3.4252 -0.124016,6.50315 -0.544489,8.62323 0,0.00236221 -0.0011811,0.00354331 -0.00236221,0.00590552 0,0.0011811 0.00236221,0.0011811 0.0011811,0.00354331 -0.146457,0.734646 -0.317717,1.35354 -0.509056,1.83425 -0.0814961,0.204331 -0.166536,0.38504 -0.256299,0.536221l0.0011811 0c-0.00944883,0.0259843 -0.0200788,0.0531496 -0.0295276,0.0791339l0 0c-1.09724,2.75551 -7.2378,4.82363 -15.6721,5.71536 -13.6772,1.45039 -33.3803,-0.188977 -47.3516,-6.98977 -0.0366142,-0.0188977 -0.0732284,-0.0354331 -0.109843,-0.0531496 -0.185433,-0.0921261 -0.370866,-0.183071 -0.5563,-0.277559 -0.0271654,-0.0129921 -0.0531496,-0.0259843 -0.0814961,-0.0413386 -1.25906,-0.638977 -2.50866,-1.20354 -3.75118,-1.69843 -29.0516,-11.5736 -54.3863,14.4791 -120.377,-3.38977l0 0.0011811c-0.0354331,-0.00944883 -0.0708662,-0.0188977 -0.105118,-0.0307087 -0.0200788,-0.00354331 -0.0413386,-0.00944883 -0.0590552,-0.0141732 -0.011811,-0.00472441 -0.0212599,-0.00590552 -0.0330709,-0.0106299 -14.9291,-4.10315 -20.7484,-12.7606 -21.5256,-21.6473l-0.00236221 -0.0165354c-0.334252,-3.86693 0.284646,-7.77757 1.5378,-11.3728zm206.651 13.3288c0.00354331,0.00354331 0.00354331,0.00826772 0.00472441,0.0106299l0.00472441 0.00944883c-0.00354331,-0.00590552 -0.00708662,-0.0141732 -0.00944883,-0.0200788l0 0zm0.693308 1.95354l0.011811 0.0283465c0.0413386,0.135827 0.0838583,0.26811 0.124016,0.402756 0.129921,0.434646 0.255118,0.876379 0.369685,1.32047l0.00708662 0.0236221c-0.157087,-0.602363 -0.329528,-1.19528 -0.51378,-1.77638l0.0011811 0.0011811zm1.16693 4.71024c0.177165,0.934253 0.323622,1.87795 0.447638,2.8252l0.00826772 0.0720473c-0.124016,-0.969686 -0.276378,-1.93937 -0.455906,-2.89725z"/>
   <path id="_406735136" class="fil23" d="M1130.78 1253.61c0.347244,-0.875198 0.733465,-1.72914 1.15039,-2.55473l0.0850394 -0.167717c0.252756,-0.486615 0.509056,-0.964961 0.775985,-1.43032l0.190158 -0.311811c0.23504,-0.407481 0.487796,-0.807875 0.746457,-1.19291l0.263386 -0.400394c0.238583,-0.347244 0.48189,-0.683859 0.726379,-1.01929l0.329528 -0.438189c0.243307,-0.3 0.48189,-0.595276 0.729922,-0.881103l0.269292 -0.325985c3.26575,2.54173 7.54961,4.68307 13.1067,6.19016 68.8123,18.6331 93.4217,-10.4976 124.126,5.08819 18.3331,9.30355 47.2193,9.38623 58.8473,5.14489 -0.393307,-0.288189 -0.804331,-0.550394 -1.23425,-0.775985 0.102756,0.0543308 0.20315,0.108662 0.302362,0.161811l0.338977 0.20315c0.281103,0.174803 0.5563,0.364961 0.822048,0.568111l0.285827 0.225591c0.34252,0.281103 0.66378,0.587008 0.976772,0.923623l0.17126 0.20315c0.257481,0.28937 0.501969,0.590552 0.735827,0.902363l0.265748 0.368504c0.212599,0.314173 0.422835,0.643701 0.630709,0.98504l0.17126 0.285827c0.245669,0.434646 0.479528,0.885827 0.705119,1.35591l0.165354 0.369685c0.170079,0.373229 0.33189,0.751182 0.488977,1.13976 0.00236221,0.00590552 0.00590552,0.0129921 0.00826772,0.0188977l0.164173 0.437008c0.177165,0.473622 0.349607,0.959056 0.504331,1.4563l0.0165354 0.0413386c0.183071,0.579922 0.355512,1.17284 0.512599,1.7752l0.090945 0.375591c0.115748,0.465355 0.225591,0.933072 0.330709,1.40433l0.0767717 0.373229c0.0531496,0.261024 0.105118,0.519685 0.155906,0.78189 0.179528,0.957875 0.33189,1.92756 0.455906,2.89725l0.0295276 0.242126c0.068504,0.564567 0.13937,1.13032 0.185433,1.69606l0.00826772 0.0484252c0.180709,1.94528 0.258662,3.8504 0.251575,5.62559 -15.9945,1.95 -39.9863,0.103937 -56.5158,-8.28898 -35.2429,-17.8902 -63.4808,15.5398 -142.456,-5.84174 -4.7693,-1.29213 -8.74135,-2.98583 -12.0047,-4.98189 -0.338977,-3.87402 0.284646,-7.78819 1.53543,-11.3894 0.00236221,-0.00590552 0.00236221,-0.0129921 0.00472441,-0.0177165 0.00708662,-0.0177165 0.0129921,-0.0389764 0.0212599,-0.0590552 0.142913,-0.407481 0.292914,-0.812599 0.452363,-1.21181zm6.31536 -9.8445l0.0165354 -0.0165354c0.0413386,-0.0425197 0.0850394,-0.0838583 0.127559,-0.127559l0.0141732 -0.011811c-0.0531496,0.0519685 -0.105118,0.102756 -0.158268,0.155906l0 0zm1.29331 -1.19173l0.034252 -0.0318898c0.0413386,-0.034252 0.080315,-0.0696851 0.120473,-0.101575 0.0295276,-0.022441 0.056693,-0.0448819 0.0862205,-0.0673229 -0.0814961,0.0649607 -0.161811,0.131102 -0.242126,0.199606l0.0011811 0.0011811zm1.61929 -1.2248c0.0318898,-0.0236221 0.0661418,-0.0472441 0.0992127,-0.0673229 0.244488,-0.161811 0.491339,-0.312992 0.737008,-0.454725 -0.27874,0.161811 -0.558662,0.334252 -0.836221,0.522048zm189.999 18.7949l0 0c0.090945,0.034252 0.184252,0.068504 0.274016,0.10748 -0.0897638,-0.0377953 -0.183071,-0.0732284 -0.274016,-0.10748z"/>
   <path id="_406735208" class="fil14" d="M1136.05 1244.89l0 0 0.141732 -0.148819c0.22441,-0.256299 0.453544,-0.498426 0.692127,-0.73819l0.216142 -0.23504c0.0531496,-0.0519685 0.106299,-0.105118 0.158268,-0.155906l0.0496063 -0.0448819c0.239764,-0.236221 0.486615,-0.448819 0.729922,-0.673229l0.355512 -0.317717c0.0791339,-0.0696851 0.159449,-0.135827 0.240945,-0.200788 0.212599,-0.17126 0.424016,-0.328347 0.635434,-0.486615l0.38504 -0.287008c0.11811,-0.0850394 0.236221,-0.17126 0.357874,-0.250394 0.277559,-0.187795 0.557481,-0.361418 0.836221,-0.522048l-0.0011811 0c16.5106,-4.82717 22.0571,-4.7126 35.4449,-5.02559l0 0.0011811c1.33937,-0.0295276 2.62795,-0.0850394 3.86575,-0.161811 0.00590552,0 0.00826772,-0.0011811 0.0129921,-0.00236221 0.0248032,0.0011811 0.0484252,-0.0011811 0.0720473,-0.00354331 7.91694,-0.496063 13.8248,-1.9063 18.4477,-3.91536 0.377953,0.562205 0.881103,1.05473 1.50118,1.42677l14.961 8.94686c2.23819,1.33819 5.13898,0.609449 6.47717,-1.6311 0.134646,-0.223229 0.246851,-0.453544 0.340158,-0.687402 0.840946,-2.11536 0.0507874,-4.58504 -1.96536,-5.78859l-12.7866 -7.64764c1.64646,-1.44331 3.09213,-2.98701 4.44449,-4.59095 0.144095,0.112205 0.297638,0.218504 0.459449,0.315355l13.6961 8.18859c2.04803,1.22599 4.70315,0.557481 5.92796,-1.48347 0.121654,-0.201969 0.223229,-0.413386 0.308268,-0.624804 0.772442,-1.94173 0.0507874,-4.20709 -1.79646,-5.3126l-13.2591 -7.92757 0 -0.00236221 0.00236221 0.0011811c1.10315,-1.4315 2.25945,-2.86536 3.51969,-4.25906 0.237402,0.233858 0.510237,0.441733 0.807875,0.62126l13.702 8.19568c1.32874,0.79252 2.91496,0.79252 4.19882,0.132284 2.69764,8.69883 7.30394,16.5685 15.4323,19.2378 14.002,4.59685 32.178,10.9394 47.2288,9.36733 8.80749,-0.915355 16.7634,-4.47402 24.1028,-9.15001 -0.333071,-1.00039 -0.718111,-1.96063 -1.1563,-2.84173 3.47126,6.91536 3.19725,18.0886 5.17323,23.9386l0.0011811 0c0.090945,0.034252 0.184252,0.068504 0.274016,0.10748 0.210236,0.0850394 0.412205,0.18189 0.61063,0.283465 0.429922,0.225591 0.840946,0.487796 1.23425,0.775985 -11.628,4.24134 -40.5142,4.15748 -58.8473,-5.14489 -30.704,-15.5858 -55.3134,13.5449 -124.126,-5.08819 -5.55709,-1.50591 -9.84095,-3.64843 -13.1067,-6.19016l0.00236221 0.0011811 -0.00354331 -0.0011811zm91.0666 -40.2331c2.17795,-1.57441 4.67363,-3.02599 7.65119,-4.30866l0 0.0011811c0.122835,0.0980316 0.249213,0.191339 0.379134,0.288189 0.206693,0.158268 0.411024,0.314173 0.617717,0.468898 0.298819,2.91024 0.707481,6.16063 1.31339,9.50906l-9.96142 -5.95867z"/>
   <path id="_406734128" class="fil15" d="M1235.76 1201.09c18.1902,13.7752 34.5733,21.9933 46.8426,20.1921 19.0205,-2.79213 19.5071,-22.7988 29.1213,-21.874l0 0c0,0 0.389764,2.19213 1.37717,5.9563 1.53189,5.84174 4.50237,15.4748 9.69213,26.6126 0.0011811,0.00354331 0.00472441,0.011811 0.00590552,0.0141732 0.0141732,0.034252 0.0295276,0.0637796 0.046063,0.0980316 0.00472441,0.00590552 0.00708662,0.011811 0.00944883,0.0200788 0.011811,0.0283465 0.0248032,0.0531496 0.0389764,0.0814961 0.00472441,0.0106299 0.00944883,0.0212599 0.0141732,0.0318898 0.011811,0.0271654 0.0236221,0.0507874 0.0354331,0.0767717 0.0129921,0.0259843 0.0248032,0.0531496 0.0377953,0.0779528 0.00708662,0.0177165 0.0141732,0.0307087 0.0212599,0.0472441 0.0106299,0.0259843 0.0236221,0.0507874 0.034252,0.0755906 0.00472441,0.00708662 0.00826772,0.0141732 0.011811,0.0200788 0.011811,0.0283465 0.0236221,0.0531496 0.0354331,0.0779528 0.00472441,0.00708662 0.00708662,0.011811 0.0106299,0.0200788 0.056693,0.121654 0.113386,0.242126 0.170079,0.362599l0 0c0.444095,0.935434 0.901182,1.87559 1.37717,2.82756 0,0.00472441 0.0011811,0.00826772 0.00472441,0.011811 0.0106299,0.022441 0.0236221,0.0472441 0.034252,0.0732284 0.00708662,0.011811 0.0106299,0.022441 0.0177165,0.034252 0.011811,0.022441 0.022441,0.0425197 0.0318898,0.0625985 0.00944883,0.0177165 0.0188977,0.034252 0.0259843,0.0507874 0.00944883,0.0177165 0.0188977,0.0377953 0.0283465,0.0543308 0.0153543,0.0366142 0.034252,0.068504 0.0496063,0.103937l0 0.0011811c0.438189,0.879922 0.823229,1.84016 1.1563,2.84055 -7.33819,4.67599 -15.2965,8.23465 -24.1028,9.15001 -15.0508,1.57205 -33.2268,-4.77166 -47.2288,-9.36733 -8.12835,-2.66929 -12.7347,-10.539 -15.4323,-19.2378 0.693308,-0.356693 1.29803,-0.904725 1.72559,-1.62402 0.120473,-0.199606 0.222047,-0.408662 0.305906,-0.618898 0.77126,-1.93819 0.0531496,-4.20709 -1.7941,-5.3067l-2.38937 -1.42913c-0.605906,-3.34843 -1.01457,-6.59882 -1.31339,-9.50906l0 0.0011811c-0.0011811,-0.00236221 0,-0.00472441 -0.0011811,-0.00944883z"/>
   <path id="_406734248" class="fil6" d="M1198.32 1227.11c0.00236221,-0.00708662 0.00472441,-0.0129921 0.00708662,-0.0188977 -0.00236221,0.00708662 -0.00472441,0.011811 -0.00708662,0.0188977zm0.00944883 -0.0188977c0.0661418,-0.145276 0.140551,-0.285827 0.226772,-0.425197 1.2,-2.01732 3.68268,-2.81103 5.79804,-1.96536 -2.11536,-0.84567 -4.59804,-0.0519685 -5.79804,1.96536 -0.0862205,0.13937 -0.16063,0.279921 -0.226772,0.425197z"/>
   <path id="_406733840" class="fil19" d="M1198.22 1227.34c0.0307087,-0.0779528 0.0649607,-0.159449 0.101575,-0.237402 0.00236221,-0.00708662 0.00472441,-0.0129921 0.00708662,-0.0188977 0.00236221,0 0.00236221,-0.0011811 0.00236221,-0.0011811 0.0661418,-0.144095 0.140551,-0.284646 0.226772,-0.424016 1.2,-2.01732 3.68268,-2.81103 5.79804,-1.96536 0.229134,0.0944883 0.454725,0.20315 0.672048,0.333071l0 0 2.18268 1.3063 12.7866 7.64882c2.01614,1.20236 2.8063,3.67205 1.96536,5.78741 -0.0933072,0.233858 -0.205512,0.464174 -0.340158,0.687402 -1.33819,2.24055 -4.23898,2.96929 -6.47717,1.62992l-14.961 -8.94568c-0.620079,-0.372048 -1.12323,-0.864568 -1.50118,-1.42677 -0.00472441,-0.00590552 -0.00826772,-0.011811 -0.0129921,-0.0188977 0.00472441,0 0.00708662,-0.0011811 0.00944883,-0.00236221 -0.837402,-1.26732 -1.04055,-2.8937 -0.459449,-4.35237z"/>
   <path id="_406734104" class="fil19" d="M1210.32 1216.75c0.0838583,-0.210236 0.187795,-0.420473 0.308268,-0.622441l0.0011811 0c1.10197,-1.84606 3.37087,-2.57481 5.3067,-1.8 0.210236,0.0838583 0.415748,0.185433 0.615355,0.303544l0 0 0.441733 0.264567 13.2591 7.92757c1.84725,1.10551 2.5689,3.37087 1.79646,5.3126 -0.0850394,0.212599 -0.186614,0.421654 -0.308268,0.624804 -1.2248,2.04213 -3.87992,2.70945 -5.92796,1.48228l-13.6961 -8.18741c-0.161811,-0.0956694 -0.315355,-0.20315 -0.459449,-0.315355 0,-0.0011811 0,-0.0011811 -0.00236221,-0.00236221 0.00472441,-0.00354331 0.00826772,-0.00826772 0.0129921,-0.0141732 -1.50118,-1.18465 -2.04921,-3.20906 -1.34764,-4.97363z"/>
   <path id="_406734008" class="fil6" d="M1219.53 1205.95c0.0838583,-0.210236 0.184252,-0.416929 0.304725,-0.617717 1.10197,-1.84843 3.37441,-2.57126 5.31378,-1.7941 -1.93937,-0.777166 -4.21181,-0.0543308 -5.31378,1.7941 -0.11811,0.201969 -0.220866,0.4063 -0.305906,0.618898 -0.022441,0.0590552 -0.0448819,0.119291 -0.0649607,0.177165 0.0212599,-0.0602363 0.0425197,-0.120473 0.0661418,-0.179528l0 0.0011811zm-0.068504 0.184252c-0.0011811,0.00354331 -0.00354331,0.00708662 -0.00472441,0.011811 0.0011811,-0.00472441 0.00354331,-0.00826772 0.00472441,-0.011811z"/>
   <path id="_406734200" class="fil19" d="M1219.53 1205.96c0.0838583,-0.211417 0.186614,-0.418111 0.304725,-0.618898 1.10197,-1.84843 3.37441,-2.57126 5.31378,-1.7941 0.211417,0.0838583 0.415748,0.186614 0.616536,0.304725l1.3441 0.804331 9.96142 5.95867 2.38937 1.42913c1.84725,1.10079 2.56536,3.36733 1.7941,5.3067 -0.0838583,0.210236 -0.185433,0.418111 -0.305906,0.618898 -0.427559,0.719292 -1.03228,1.26614 -1.72559,1.62402 -1.28386,0.660237 -2.87008,0.660237 -4.19882,-0.133465l-13.702 -8.19331c-0.297638,-0.180709 -0.570473,-0.389764 -0.807875,-0.622441 0.00472441,-0.00472441 0.00708662,-0.00826772 0.00944883,-0.011811 -1.17992,-1.16457 -1.60276,-2.90788 -1.06654,-4.47756 0.0011811,-0.00472441 0.00354331,-0.00826772 0.00472441,-0.0129921 0.0011811,-0.0011811 0.00236221,-0.00354331 0.00236221,-0.00472441 0.0200788,-0.0578741 0.0413386,-0.11811 0.0661418,-0.177165z"/>
   <path id="_406733984" class="fil24" d="M1211.8 512.87c2.25236,23.2051 -22.0654,28.5484 -49.2012,31.1835 -27.1441,2.63858 -33.7359,29.6067 -35.9882,6.4063 0,0 -7.68544,-71.2134 -9.62717,-139.937 -0.657875,-23.3043 1.42795,-39.2941 28.5626,-41.9292 27.1429,-2.63622 58.8248,11.2583 58.8248,34.5709 0.0011811,78.9461 7.42914,109.706 7.42914,109.706z"/>
   <path id="_406734176" class="fil2" d="M1204.28 422.279c2.39882,22.5248 -43.5508,65.2536 -79.1729,66.1796l-7.88741 -0.277559c-35.6233,0.924804 -65.2548,-27.202 -66.1796,-62.8264l-1.86732 -71.7473c-5.0315,-72.2729 27.1961,-65.2536 62.8217,-66.1808l24.2433 0.281103c35.6197,-0.929528 65.2477,27.1973 66.1796,62.8241l1.8626 71.7473z"/>
   <path id="_406734464" class="fil13" d="M1204.05 413.55c63.7772,-129.882 -28.9866,-164.145 -73.3961,-156.558 -135.004,5.61496 -76.6347,60.7063 -80.9032,65.6386 131.217,-26.8831 104.989,52.2189 129.256,54.1867 24.2752,1.9689 8.10591,28.2012 25.0429,36.7323z"/>
   <path id="_406733888" class="fil2" d="M1212.44 387.94c0,11.9445 -9.67678,21.6236 -21.6166,21.6236 -11.941,0 -21.6225,-9.67914 -21.6225,-21.6236 0,-11.9398 9.6815,-21.6177 21.6225,-21.6177 11.9398,-0.0011811 21.6166,9.67914 21.6166,21.6177z"/>
   <path id="_406733432" class="fil25" d="M1204.41 412.822l0 0c1.14095,-2.33858 2.23465,-4.65473 3.27284,-6.93308 -1.03819,2.28071 -2.12953,4.59213 -3.27284,6.93308l0 0zm3.31654 -7.02875c0.00236221,-0.00590552 0.00826772,-0.0200788 0.0129921,-0.0271654 -0.00472441,0.00826772 -0.00826772,0.0200788 -0.0129921,0.0271654z"/>
   <path id="_406733744" class="fil26" d="M1204.32 422.714c0,-0.00236221 -0.0011811,-0.00354331 -0.0011811,-0.00826772 0.0011811,0.0011811 0,0.00590552 0,0.00826772l0.0011811 0zm-0.011811 -0.133465c0,-0.00826772 0,-0.0129921 -0.00236221,-0.0212599 0.00236221,0.00826772 0.00236221,0.0129921 0.00236221,0.0212599zm-0.00354331 -0.0555119c-0.00236221,-0.00826772 -0.00236221,-0.0165354 -0.00236221,-0.0248032 0,0.00826772 0,0.0177165 0.0011811,0.0259843l0.0011811 -0.0011811zm-0.00708662 -0.0543308c0,-0.0177165 -0.00236221,-0.0354331 -0.00354331,-0.0507874 0.00236221,0.0141732 0.00354331,0.034252 0.00354331,0.0507874zm-0.00590552 -0.0755906c-0.00236221,-0.0141732 -0.00236221,-0.0236221 -0.00472441,-0.0366142 0.00236221,0.0106299 0.00236221,0.0236221 0.00472441,0.0366142l0 0zm-0.00590552 -0.0602363c-0.00236221,-0.0188977 -0.00472441,-0.0377953 -0.00708662,-0.056693 0.00236221,0.0188977 0.00472441,0.0377953 0.00708662,0.056693l0 0zm-0.233858 -8.78977l0 0c0.119291,-0.240945 0.23504,-0.478347 0.354331,-0.724016l0 0c-0.116929,0.240945 -0.23504,0.483071 -0.354331,0.724016z"/>
   <path id="_406733504" class="fil27" d="M1241.24 753.003c3.13229,-0.530315 6.26221,-1.06299 9.39804,-1.59331 -4.88622,-35.3008 -39.8268,-269.701 -43.7433,-276.728 -0.94252,-3.65906 -13.6996,23.1508 -84.3072,32.3256 -19.6453,20.1 -32.3138,43.7646 -40.7882,74.5583 -9.96024,36.1937 8.5819,188.837 9.42875,197.184 55.2969,-7.54016 92.9009,-16.0311 150.012,-25.7469z"/>
   <path id="_406733408" class="fil28" d="M1294.05 939.921c-33.1335,-7.8815 5.71063,-97.9394 -44.517,-196.341 -7.68426,2.01969 -16.1882,4.41615 -23.8772,6.42402 -30.5339,7.97363 -61.1788,15.4677 -91.7623,23.2547 -17.0717,4.34882 14.6823,8.24056 -2.66693,11.3457 0.670867,7.69371 7.97008,40.9654 16.5106,57.6674 1.22008,3.26929 2.7567,6.58347 4.62874,9.92954l26.2795 118.968c28.8378,-20.1189 86.5631,-11.1319 115.404,-31.2484z"/>
   <path id="_406733696" class="fil10" d="M1199.49 995.988l0 0c0.726379,-0.316536 1.45512,-0.63189 2.18268,-0.947245 -1.1126,0.483071 -1.88858,0.820867 -2.18268,0.947245z"/>
   <path id="_406733120" class="fil29" d="M1343.8 1013.78c0.462992,1.5626 0.924804,3.11103 1.38662,4.65l0.705119 2.36811 -0.51378 -1.72677c-0.454725,-1.50591 -0.902363,-3.02126 -1.36063,-4.5567l-0.217323 -0.734646z"/>
   <path id="_406733144" class="fil25" d="M1358.55 1058.72l0 0c0.0944883,0.232677 0.185433,0.461811 0.277559,0.692127l0 0c-0.0921261,-0.229134 -0.183071,-0.459449 -0.277559,-0.692127z"/>
   <path id="_406733624" class="fil30" d="M1358.56 1058.72l0 0 -0.0011811 0.0011811c0,0 0.0011811,-0.00236221 0.0011811,-0.0011811z"/>
   <path id="_406733480" class="fil29" d="M1345.89 1020.8l0.00708662 -0.00236221c4.42559,14.6669 8.713,27.9945 12.6567,37.9252l0 0.0011811c-3.94488,-9.92954 -8.23938,-23.2642 -12.6591,-37.9252l-0.00472441 0.0011811z"/>
   <path id="_406733528" class="fil31" d="M1185.84 751.231l-26.8618 -103.715 15.1276 -23.8866 34.2449 -54.0638c4.61221,-7.29686 6.81378,-15.4323 6.81378,-23.4709l0 0c-0.0011811,-14.576 -7.24134,-28.8331 -20.4732,-37.2024 -0.0779528,-0.0507874 -0.155906,-0.0980316 -0.236221,-0.147638 -0.00826772,-0.00590552 -0.0200788,-0.0129921 -0.0283465,-0.0188977 -7.22481,-4.49882 -15.2528,-6.64725 -23.191,-6.64961 -0.00236221,0 -0.00590552,0 -0.00826772,0l0 0c-0.00590552,0 -0.0129921,0 -0.0177165,0 -14.2843,0.00590552 -28.2614,6.96733 -36.6886,19.7008 -0.0295276,0.0437008 -0.0578741,0.0862205 -0.0874016,0.131102 -0.0212599,0.0318898 -0.0401575,0.0637796 -0.0614174,0.0956694 -0.00354331,0.00354331 -0.00708662,0.0106299 -0.0106299,0.0153543 -0.0354331,0.056693 -0.0744095,0.113386 -0.112205,0.170079 -0.0755906,0.120473 -0.152362,0.239764 -0.229134,0.360236l-4.81063 10.0287 -6.62481 -25.5721c66.1477,-8.59489 81.5233,-32.6646 83.9753,-32.6646 0.164173,0 0.272835,0.109843 0.33189,0.340158 3.49725,6.27756 31.7776,194.146 41.2347,259.21l-62.2867 17.3398zm63.6863 -7.65119c0,0 -0.0011811,0 -0.0011811,0l0.0011811 0zm-0.0496063 -0.346063l-1.30394 -9.02363c0.487796,3.35551 0.925985,6.37678 1.30394,9.02363z"/>
   <path id="_406732856" class="fil6" d="M1120.6 757.949c-1.06772,-1.17756 -2.2004,-2.57953 -3.02008,-3.62126 0.820867,1.04291 1.95709,2.44843 3.02008,3.62126l0 0z"/>
   <path id="_406732712" class="fil32" d="M1120.6 757.949c-1.06299,-1.17284 -2.19921,-2.57835 -3.02008,-3.62126 -0.172441,-0.218504 -0.328347,-0.419292 -0.468898,-0.601182l3.48898 4.22244z"/>
   <path id="_406732472" class="fil2" d="M1379.03 856.564c4.25197,-1.14331 8.62796,1.37717 9.77245,5.6315l8.3315 32.7461c1.14331,4.25315 -1.3748,8.62796 -5.62914,9.76891 -4.25197,1.14685 -8.6256,-1.37362 -9.77363,-5.62796l-6.82323 -25.3701c-1.14331,-4.25197 -0.129921,-16.0028 4.12205,-17.1484z"/>
   <path id="_406732424" class="fil2" d="M1426.02 837.219c4.36654,-1.17284 8.85237,1.4126 10.0299,5.77796l8.50867 33.4075c1.17402,4.363 -1.41378,8.85473 -5.77559,10.0264 -4.363,1.17638 -8.85237,-1.4126 -10.0287,-5.77559l-8.50985 -33.4063c-1.17284,-4.36772 1.41142,-8.85473 5.77559,-10.0299z"/>
   <path id="_406732328" class="fil2" d="M1395.03 852.26c4.58268,-1.23071 9.30001,1.48583 10.5343,6.06851l8.86064 34.7197c1.23662,4.58741 -1.48228,9.29883 -6.06497,10.5295 -4.58504,1.23425 -9.30119,-1.47874 -10.5354,-6.06378l-8.86064 -34.7197c-1.23543,-4.58386 1.48347,-9.30001 6.06615,-10.5343z"/>
   <path id="_406732304" class="fil2" d="M1411.2 846.212c4.58268,-1.23425 9.29764,1.48347 10.5319,6.06615l8.863 34.7185c1.23307,4.58504 -1.48228,9.30119 -6.06497,10.5319 -4.58741,1.23662 -9.30237,-1.4811 -10.5354,-6.06615l-8.86536 -34.7173c-1.23071,-4.58504 1.48701,-9.30355 6.07087,-10.5331z"/>
   <path id="_406732784" class="fil2" d="M1376.15 878.333c0,0 -12.5705,-13.4882 -14.6362,-17.5193 -5.06339,-24.3378 10.6134,-53.5843 28.2378,-58.3217 26.3941,-7.09961 39.8339,15.6567 44.5737,33.2799l2.80394 11.1213 -60.9792 31.4398z"/>
   <path id="_406732616" class="fil5" d="M1429.23 881.643c0,0 -0.188977,-0.474804 -0.473622,-1.31575 -0.240945,-0.853938 -0.766536,-2.01969 -1.24252,-3.45 -0.238583,-0.711024 -0.499607,-1.48347 -0.772442,-2.29961 -0.244488,-0.820867 -0.577559,-1.6689 -0.892914,-2.55709 -0.654331,-1.76221 -1.28032,-3.66733 -1.91221,-5.56654 -0.544489,-1.92992 -1.25551,-3.80197 -1.87795,-5.57835 -0.620079,-1.7752 -1.16102,-3.45 -1.58977,-4.89922 -0.855119,-2.90433 -1.30748,-4.90158 -1.30748,-4.90158 0,0 1.01575,1.75512 2.35748,4.48229 0.667323,1.36417 1.41024,2.97402 2.16496,4.71615 0.784253,1.73268 1.5248,3.61536 2.1189,5.55591 0.598819,1.93583 1.20354,3.86929 1.70197,5.70119 0.555119,1.81063 0.823229,3.59292 1.10315,5.08465 0.557481,2.99764 0.622441,5.02796 0.622441,5.02796z"/>
   <path id="_406732976" class="fil5" d="M1414.11 892.405c0,0 -0.957875,-1.72677 -2.14606,-4.40079 -0.609449,-1.3311 -1.23662,-2.91733 -2.00906,-4.56851 -0.755906,-1.66063 -1.49173,-3.45236 -2.23229,-5.24292 -1.43622,-3.6 -2.72717,-7.25552 -3.57874,-10.0512 -0.865749,-2.78977 -1.28504,-4.72559 -1.28504,-4.72559 0,0 1.02756,1.6748 2.33268,4.29685 1.31693,2.61496 2.91969,6.17717 4.37599,9.79607 0.7063,1.81654 1.41732,3.63189 2.01732,5.35512 0.643701,1.71024 1.07244,3.36024 1.44449,4.77402 0.745276,2.82756 1.08071,4.76575 1.08071,4.76693z"/>
   <path id="_406732352" class="fil5" d="M1397.45 896.614c0,0 -0.955513,-1.72795 -2.1437,-4.40197 -0.611811,-1.3311 -1.23898,-2.91969 -2.01142,-4.57087 -0.754725,-1.65827 -1.49055,-3.45 -2.2311,-5.24174 -1.43504,-3.59764 -2.72599,-7.25434 -3.57638,-10.0524 -0.868111,-2.79095 -1.28622,-4.72441 -1.28622,-4.72441 0,0 1.02638,1.67244 2.33032,4.29685 1.31929,2.61614 2.92087,6.17717 4.37717,9.79725 0.703938,1.81654 1.41614,3.63071 2.01851,5.35512 0.64252,1.71024 1.07126,3.35906 1.44095,4.77402 0.747638,2.82638 1.08189,4.76811 1.08189,4.76811z"/>
   <path id="_406732040" class="fil5" d="M1376.15 878.333c0,0 -0.7063,-1.22835 -1.55788,-3.11575 -0.868111,-1.88386 -1.87323,-4.43977 -2.84055,-6.99567 -0.457087,-1.28622 -0.914174,-2.57362 -1.34291,-3.77835 -0.416929,-1.20827 -0.809056,-2.3374 -1.14213,-3.30355 -0.292914,-1.00039 -0.668504,-1.7374 -0.862205,-2.32677 -0.204331,-0.584646 -0.320079,-0.920079 -0.320079,-0.920079 0,0 0.242126,0.244488 0.649607,0.7063 0.380315,0.47126 1.04055,1.12913 1.54488,2.03977 0.540945,0.895276 1.21063,1.95 1.7315,3.14055 0.564567,1.17756 1.11024,2.46142 1.5874,3.76181 0.966142,2.60315 1.66772,5.28544 2.06575,7.33347 0.412205,2.04449 0.486615,3.45827 0.486615,3.45827z"/>
   <path id="_406731968" class="fil2" d="M1318.06 632.497c19.8059,14.0528 24.4772,41.5028 10.4185,61.3111 -14.0469,19.8059 -37.591,5.32914 -57.4063,-8.72363l-134.047 -73.3146c-19.8036,-14.0551 -24.4725,-41.4992 -10.4185,-61.3099 14.0551,-19.8095 41.5028,-24.4677 61.3123,-10.4209l130.141 92.4579z"/>
   <path id="_406731896" class="fil33" d="M1241.24 576.943l-53.1449 -37.7575c-20.1803,-14.3102 -48.1406,-9.56221 -62.4567,10.6158 -14.3173,20.1803 -9.56103,48.1382 10.6122,62.4556l51.0898 27.9414c21.8965,-19.689 32.0008,-43.5674 53.8996,-63.2552z"/>
   <path id="_406731680" class="fil2" d="M1409.87 799.293c9.24568,31.0099 0.910631,21.5386 -14.7886,30.5138 -15.6933,8.9693 -20.6705,15.5221 -29.6445,-0.174803l-84.7075 -134.695c-12.0496,-21.0839 -13.1067,-39.3355 7.97835,-51.3874 21.0815,-12.0496 44.1248,-9.16182 60.0012,16.3547 19.6725,31.624 61.1611,139.389 61.1611,139.389z"/>
   <path id="_406732136" class="fil34" d="M1331.88 654.674c-0.00826772,-0.00472441 -0.0165354,-0.00944883 -0.0248032,-0.0129921l-53.0977 -37.7256 0.00236221 0 53.1201 37.7386z"/>
   <path id="_406731800" class="fil35" d="M1158.98 647.516l0 -0.00236221 15.1276 -23.8843c0,0 0,0 0,0l34.2449 -54.0638c4.61221,-7.29686 6.81378,-15.4323 6.81378,-23.4709 0,8.03859 -2.20158,16.174 -6.81378,23.4709l-34.2449 54.0638 -15.1276 23.8866z"/>
   <path id="_406732184" class="fil25" d="M1395.08 761.991c1.0878,2.68701 2.1378,5.29252 3.14055,7.78465 -0.00236221,-0.0011811 -0.00236221,-0.0011811 -0.00236221,-0.0011811 -1.00158,-2.49685 -2.04803,-5.09174 -3.13819,-7.78347l0 0zm15.7087 17.0906l0 0c0.200788,0.31063 0.396851,0.62126 0.589371,0.936615 -0.191339,-0.314173 -0.387402,-0.625985 -0.589371,-0.936615l0 0zm0.589371 0.940158c0.00944883,0.011811 0.0177165,0.0259843 0.0248032,0.0401575 -0.00826772,-0.0141732 -0.0165354,-0.0259843 -0.0248032,-0.0401575l0 0zm0.0318898 0.0531496c0.00708662,0.0106299 0.0129921,0.0200788 0.0212599,0.0307087 -0.00826772,-0.0106299 -0.0141732,-0.0200788 -0.0212599,-0.0318898l0 0.0011811zm0.0330709 0.0507874c0.00354331,0.00826772 0.00944883,0.0153543 0.0141732,0.0236221 -0.00590552,-0.00590552 -0.0106299,-0.0153543 -0.0141732,-0.0236221l0 0zm0.0295276 0.0484252c0.00236221,0.00708662 0.00590552,0.0129921 0.00944883,0.0177165 -0.00354331,-0.00472441 -0.00708662,-0.0106299 -0.00944883,-0.0177165l0 0zm0.0307087 0.0555119c0.0011811,0.0011811 0.0011811,0.0011811 0.00354331,0.0011811 -0.00236221,0 -0.00236221,0 -0.00354331,-0.00236221l0 0.0011811zm21.8268 52.167c0.368504,1.13858 0.700394,2.26772 0.998032,3.37559l2.80394 11.1213 -2.80394 -11.1213c-0.298819,-1.10787 -0.628347,-2.23701 -0.998032,-3.37559z"/>
   <path id="_406731728" class="fil36" d="M1419.16 851.075c0,0 0.894095,1.54606 2.11536,3.99095 0.0779528,0.159449 0.158268,0.322441 0.242126,0.491339 0.667323,1.36417 1.41024,2.97402 2.16496,4.71615 0.0696851,0.158268 0.142913,0.318898 0.21378,0.478347 0.703938,1.59803 1.36536,3.31299 1.90512,5.07756 0.598819,1.93583 1.20354,3.86929 1.70197,5.70119 0.555119,1.81063 0.823229,3.59292 1.10315,5.08465 0.543308,2.93504 0.618898,4.94055 0.622441,5.02559 0,0.00236221 0,0.00236221 0,0.00236221 0,0 -0.188977,-0.474804 -0.473622,-1.31575 -0.240945,-0.853938 -0.766536,-2.01969 -1.24252,-3.45 -0.238583,-0.711024 -0.499607,-1.48347 -0.772442,-2.29961 -0.244488,-0.820867 -0.577559,-1.6689 -0.892914,-2.55709 -0.654331,-1.76221 -1.28032,-3.66733 -1.91221,-5.56654 -0.544489,-1.92992 -1.25551,-3.80197 -1.87795,-5.57835 -0.620079,-1.7752 -1.16102,-3.45 -1.58977,-4.89922 -0.0437008,-0.146457 -0.0850394,-0.28937 -0.126378,-0.42874 -0.773623,-2.66929 -1.1811,-4.47284 -1.1811,-4.47284z"/>
   <path id="_406731608" class="fil37" d="M1390.97 870.698l4.97717 19.565c0,-0.00236221 -0.0011811,-0.00472441 -0.00354331,-0.00944883l-4.92402 -19.3512 -0.0496063 -0.204331zm5.99174 23.5488l0.175984 0.69567 -0.175984 -0.69567c0,0 0,0 0,0z"/>
   <path id="_406732088" class="fil38" d="M1391.01 870.902l4.92402 19.3512c-0.174803,-0.636615 -0.369685,-1.30512 -0.596457,-1.9878l-4.32756 -17.3634zm5.94213 23.3445l0.175984 0.69567c0.0944883,0.351969 0.157087,0.705119 0.197244,1.05827 -0.080315,-0.408662 -0.20315,-1.00748 -0.373229,-1.75394z"/>
   <path id="_406731560" class="fil39" d="M1395.34 888.265c0.226772,0.682678 0.421654,1.35118 0.596457,1.9878 0.00236221,0.00472441 0.00354331,0.00708662 0.00354331,0.00944883l1.01457 3.98386c0,0 0,0 0,0 0.170079,0.747638 0.292914,1.34528 0.373229,1.75394 0.0141732,0.125197 0.0259843,0.250394 0.0366142,0.37441l0.0791339 0.239764 -0.0673229 -0.172441 -2.03622 -8.17678z"/>
   <path id="_406731272" class="fil15" d="M1092.14 789.753c-0.398032,-2.9067 -0.97441,-12.163 -0.97441,-12.163l156.96 -43.6996 2.50984 17.5181c0,0 -106.026,28.4055 -158.496,38.3445z"/>
  </g>
  <path class="fil40" d="M495.552 1467.37l0.00472441 -0.0165354c0.144095,-0.434646 0.298819,-0.864568 0.461811,-1.29095l0.0531496 -0.144095 0.0200788 -0.0507874 0.0377953 -0.0968505c1.41969,-3.61536 3.47835,-6.81378 6.00119,-9.5067l0.164173 -0.173622 0.252756 -0.262205 0.304725 -0.308268 0.18189 -0.180709 0.37441 -0.360236 0.0885827 -0.0826772c2.81575,-2.64567 6.18426,-4.78583 10.0075,-6.21378l0.389764 -0.144095 0.0744095 -0.0271654 0.651969 -0.223229 0.0188977 -0.00708662 0.0543308 -0.0165354c0.466536,-0.152362 0.936615,-0.295276 1.41142,-0.425197l0.0318898 -0.00944883 0.693308 -0.180709 0.0590552 -0.0141732 0.694489 -0.161811 0.0283465 -0.00590552c0.452363,-0.100394 0.907087,-0.187795 1.36536,-0.266929l0.197244 -0.0330709 0.611811 -0.0933072 0.0590552 -0.00944883 0.660237 -0.0850394 0.100394 -0.011811 0.582284 -0.0614174 0.187795 -0.0177165 0.588189 -0.046063 0.122835 -0.00826772 0.533859 -0.0283465 0.271654 -0.0129921 0.405118 -0.0106299 0.324803 -0.00708662 0.386221 -0.00236221 0.386221 0.00236221 0.324803 0.00708662 0.403937 0.0106299 0.272835 0.0129921 0.532678 0.0283465 0.122835 0.00826772 0.588189 0.046063 0.187795 0.0177165 0.583465 0.0614174 0.0992127 0.011811c0.220866,0.0259843 0.43937,0.0531496 0.660237,0.0850394l0.0602363 0.00944883 0.611811 0.0933072 0.197244 0.0330709c0.457087,0.0791339 0.912993,0.166536 1.36536,0.266929l0.0271654 0.00590552 0.694489 0.161811 0.0590552 0.0141732 0.67441 0.177165 0.0637796 0.0165354 0.708662 0.204331 0.00826772 0.00236221 0.681497 0.214961 0.0543308 0.0165354 0.0200788 0.00708662 0.650788 0.223229 0.0744095 0.0271654 0.390945 0.144095c3.82323,1.42913 7.19292,3.56811 10.0075,6.21378l0.0885827 0.0826772 0.373229 0.360236 0.177165 0.174803 0.348425 0.35315 0.167717 0.174803 0.251575 0.26811 0.351969 0.381496 0.0413386 0.0484252c2.04213,2.27362 3.75709,4.89095 5.05158,7.80001l0.284646 0.660237 0.196063 0.486615 0.0732284 0.180709 0.0200788 0.0507874 0.0401575 0.109843c0.178347,0.461811 0.343701,0.928347 0.498426,1.39961 8.17323,24.6685 24.5256,45.463 45.789,60.1241 21.6177,14.9079 48.3945,23.5087 76.9961,23.5087 28.6181,0 55.4126,-8.61497 77.0422,-23.5441 21.2811,-14.6847 37.6418,-35.5264 45.7961,-60.2563l0.00708662 -0.0200788 0.223229 -0.650788 0.0271654 -0.0744095 0.144095 -0.389764c1.42913,-3.82441 3.56811,-7.19292 6.21378,-10.0087l0.0826772 -0.0885827 0.360236 -0.373229 0.174803 -0.177165 0.35315 -0.348425 0.174803 -0.167717 0.26811 -0.251575 0.381496 -0.351969 0.0484252 -0.0413386c2.27362,-2.04213 4.89095,-3.75827 7.80001,-5.05158l0.660237 -0.284646 0.486615 -0.196063 0.180709 -0.0732284 0.0507874 -0.0200788 0.109843 -0.0401575c1.39016,-0.53504 2.82284,-0.96378 4.28622,-1.28622l0.0295276 -0.00590552c0.227953,-0.0496063 0.457087,-0.0992127 0.686221,-0.142913l0.0732284 -0.0153543 0.692127 -0.124016 0.0295276 -0.00472441 0.650788 -0.101575 0.140551 -0.0200788 0.61063 -0.0779528 0.108662 -0.0129921 0.583465 -0.0614174 0.193701 -0.0177165 0.477166 -0.0389764 0.297638 -0.0200788 0.392126 -0.0212599 0.355512 -0.0165354 0.392126 -0.0106299 0.324803 -0.00708662 0.387402 -0.00236221 0.38504 0.00236221 0.324803 0.00708662 0.392126 0.0106299 0.355512 0.0165354 0.393307 0.0212599 0.297638 0.0200788 0.475985 0.0389764 0.194882 0.0177165 0.582284 0.0614174 0.109843 0.0129921 0.607087 0.0779528 0.15 0.0212599 0.636615 0.0992127 0.046063 0.00708662c0.226772,0.0389764 0.455906,0.0791339 0.683859,0.122835l0.0720473 0.0153543c0.230315,0.0437008 0.458268,0.0933072 0.686221,0.142913l0.0307087 0.00590552c1.45512,0.32126 2.88189,0.750001 4.26851,1.27913l0.127559 0.0472441 0.0507874 0.0200788 0.180709 0.0732284 0.485433 0.196063 0.661418 0.284646c2.91024,1.29331 5.52756,3.01181 7.80237,5.05276l0.0425197 0.0401575 0.419292 0.383859 0.186614 0.174803 0.258662 0.250394 0.309449 0.304725 0.191339 0.194882 0.31063 0.32126 0.167717 0.178347 0.383859 0.418111 0.0401575 0.0437008c2.30788,2.57008 4.19764,5.57835 5.53229,8.94922l0.0732284 0.180709 0.0200788 0.0507874 0.0732284 0.196063 0.191339 0.516142 0.0106299 0.0307087 0.255118 0.740552c8.15788,24.7169 24.5126,45.5469 45.7843,60.2256 21.6319,14.928 48.4264,23.5429 77.0481,23.5429 28.6028,0 55.3784,-8.60316 76.9961,-23.5099 21.2693,-14.6658 37.6264,-35.4674 45.7914,-60.1453 0.146457,-0.444095 0.303544,-0.884646 0.470079,-1.32165l0.0614174 -0.165354 0.0200788 -0.0507874 0.0732284 -0.180709c1.33347,-3.37205 3.22677,-6.37796 5.53111,-8.94686l0.0425197 -0.0484252 0.350788 -0.381496 0.240945 -0.256299 0.21378 -0.222047 0.285827 -0.28937 0.223229 -0.219685 0.355512 -0.343701 0.0885827 -0.0826772c2.81457,-2.64685 6.18426,-4.78465 10.0075,-6.21378l0.389764 -0.144095 0.0744095 -0.0271654 0.651969 -0.223229 0.0200788 -0.00708662 0.0543308 -0.0165354 0.681497 -0.214961 0.00708662 -0.00236221 0.709843 -0.204331 0.0625985 -0.0165354 0.67441 -0.177165 0.0590552 -0.0141732 0.694489 -0.161811 0.0283465 -0.00590552c0.452363,-0.100394 0.907087,-0.187795 1.36536,-0.266929l0.197244 -0.0330709 0.611811 -0.0933072 0.0590552 -0.00944883 0.661418 -0.0850394 0.0992127 -0.011811 0.582284 -0.0614174 0.187795 -0.0177165 0.588189 -0.046063 0.122835 -0.00826772 0.533859 -0.0283465 0.271654 -0.0129921 0.405118 -0.0106299 0.324803 -0.00708662 0.386221 -0.00236221 0.386221 0.00236221 0.324803 0.00708662 0.403937 0.0106299 0.272835 0.0129921 0.532678 0.0283465 0.122835 0.00826772 0.589371 0.046063 0.186614 0.0177165 0.583465 0.0614174 0.0992127 0.011811 0.664961 0.0862205 0.0472441 0.00708662 0.628347 0.0956694 0.183071 0.0318898c0.459449,0.0779528 0.916536,0.166536 1.37126,0.266929l0.0271654 0.00590552 0.694489 0.161811 0.0590552 0.0141732 0.693308 0.180709 0.034252 0.00944883c0.477166,0.131102 0.95315,0.274016 1.42205,0.42874l0.0413386 0.0129921 0.0165354 0.00590552c0.387402,0.12874 0.773623,0.264567 1.15512,0.408662 3.79134,1.42323 7.13623,3.54331 9.93426,6.16536l0.173622 0.162992 0.275197 0.265748 0.264567 0.261024 0.262205 0.264567 0.264567 0.275197 0.164173 0.173622c2.62087,2.79803 4.73977,6.1441 6.16418,9.93426 0.144095,0.381496 0.281103,0.767717 0.408662,1.15512l0.00590552 0.0165354c8.16497,24.6933 24.5292,45.5079 45.8079,60.1808 21.6189,14.9091 48.3945,23.5099 76.9973,23.5099 28.6205,0 55.4162,-8.61497 77.0469,-23.5429 21.2799,-14.6847 37.6406,-35.5264 45.7949,-60.2575l0.00708662 -0.0200788 0.223229 -0.650788 0.0259843 -0.0732284 0.199606 -0.53504 0.0637796 -0.172441 0.0200788 -0.0507874 0.0389764 -0.0968505c1.42559,-3.63307 3.49843,-6.84213 6.03662,-9.5445l0.0826772 -0.0885827 0.34252 -0.355512 0.219685 -0.222047 0.275197 -0.270473 0.272835 -0.263386 0.185433 -0.174803 0.419292 -0.383859 0.0448819 -0.0413386c2.2748,-2.03977 4.89213,-3.75709 7.80119,-5.05158l0.660237 -0.284646 0.486615 -0.196063 0.180709 -0.0732284 0.0507874 -0.0200788 0.127559 -0.0472441c1.38425,-0.530315 2.81221,-0.957875 4.26851,-1.27913l0.0295276 -0.00590552c0.227953,-0.0496063 0.457087,-0.0992127 0.686221,-0.142913l0.0732284 -0.0153543c0.226772,-0.0425197 0.454725,-0.0850394 0.683859,-0.122835l0.0448819 -0.00708662 0.637796 -0.0992127 0.148819 -0.0212599 0.607087 -0.0779528 0.109843 -0.0129921 0.583465 -0.0614174 0.193701 -0.0177165 0.475985 -0.0389764 0.298819 -0.0200788 0.392126 -0.0212599 0.355512 -0.0165354 0.392126 -0.0106299 0.324803 -0.00708662 0.387402 -0.00236221 0.38504 0.00236221 0.324803 0.00708662 0.392126 0.0106299 0.355512 0.0165354 0.392126 0.0212599 0.298819 0.0200788 0.475985 0.0389764 0.193701 0.0177165 0.583465 0.0614174 0.109843 0.0129921 0.607087 0.0779528 0.15 0.0212599 0.636615 0.0992127 0.046063 0.00708662c0.226772,0.0389764 0.455906,0.0791339 0.682678,0.122835l0.0732284 0.0153543c0.230315,0.0437008 0.458268,0.0933072 0.686221,0.142913l0.0295276 0.00590552c1.4563,0.32126 2.88307,0.750001 4.26851,1.27913l0.127559 0.0472441 0.0519685 0.0200788 0.179528 0.0732284 0.486615 0.196063 0.661418 0.284646c2.91024,1.29331 5.52638,3.01181 7.80237,5.05276l0.0425197 0.0401575 0.419292 0.383859 0.185433 0.174803 0.259843 0.250394 0.309449 0.304725 0.191339 0.194882 0.31063 0.32126 0.166536 0.178347 0.38504 0.418111 0.0401575 0.0437008c2.30788,2.5689 4.19764,5.57717 5.53229,8.94922l0.0732284 0.180709 0.0200788 0.0507874 0.0732284 0.196063 0.190158 0.516142 0.011811 0.0307087 0.255118 0.740552c8.15906,24.7146 24.5138,45.5457 45.7843,60.2245 21.6295,14.9291 48.4252,23.5441 77.0422,23.5441 12.2646,0 24.2492,-1.55315 35.6209,-4.56969 11.5654,-3.06851 22.5709,-7.56379 32.6729,-13.3961 14.2937,-8.21339 32.5382,-3.28583 40.7528,11.0079 8.21339,14.2925 3.28465,32.5394 -11.0079,40.7528 -14.8843,8.59253 -30.776,15.1311 -47.1957,19.4858 -16.6217,4.41024 -33.7299,6.67796 -50.843,6.67796 -40.8485,0 -79.4717,-12.5575 -111.002,-34.3181 -15.2988,-10.5579 -28.9099,-23.2748 -40.291,-37.7705 -11.3823,14.4969 -24.9933,27.2126 -40.2933,37.7717 -31.5319,21.7595 -70.1552,34.317 -111.007,34.317 -40.8237,0 -79.4292,-12.5433 -110.958,-34.2839 -15.3012,-10.5496 -28.917,-23.2618 -40.304,-37.7575 -11.3858,14.4957 -25.0004,27.2079 -40.3004,37.7575 -31.5272,21.7406 -70.1339,34.2839 -110.958,34.2839 -40.8532,0 -79.4764,-12.5575 -111.008,-34.317 -15.3,-10.5591 -28.911,-23.2748 -40.2922,-37.7717 -11.3823,14.4957 -24.9933,27.2126 -40.2922,37.7705 -31.5307,21.7606 -70.1528,34.3181 -111.004,34.3181 -40.8248,0 -79.4316,-12.5433 -110.956,-34.2827 -15.3024,-10.5508 -28.9181,-23.263 -40.3063,-37.7599 -11.387,14.4957 -25.0028,27.2091 -40.304,37.7587 -31.5284,21.7406 -70.1339,34.2839 -110.958,34.2839 -17.5654,0 -35.2311,-2.44134 -52.4658,-7.17284 -17.1331,-4.70433 -33.4784,-11.6457 -48.4996,-20.6729 -14.1638,-8.47205 -18.7772,-26.824 -10.3063,-40.9878 8.47087,-14.1626 26.8229,-18.7772 40.9878,-10.3051 10.513,6.3189 21.8067,11.1378 33.5103,14.3504 11.602,3.18544 23.9811,4.82953 36.7737,4.82953 28.6004,0 55.3784,-8.60198 76.9973,-23.5099 21.2788,-14.6728 37.6429,-35.4874 45.8079,-60.1808z"/>
  <path class="fil41" d="M495.552 1647.24l0.00590552 -0.0200788 0.22441 -0.651969 0.0248032 -0.0732284 0.199606 -0.53504 0.0649607 -0.17126 0.0200788 -0.0507874 0.0377953 -0.0968505c1.42677,-3.63307 3.49843,-6.84331 6.0378,-9.5445l0.0814961 -0.0885827 0.329528 -0.341339 0.266929 -0.269292 0.200788 -0.198425 0.32126 -0.309449 0.178347 -0.167717 0.419292 -0.38504 0.0448819 -0.0401575c2.5689,-2.30669 5.57599,-4.19764 8.94686,-5.53229l0.180709 -0.0732284 0.0507874 -0.0200788 0.196063 -0.0732284 0.517323 -0.190158 0.0295276 -0.011811c0.714567,-0.255118 1.43976,-0.484252 2.17441,-0.68504l0.0318898 -0.00944883 0.693308 -0.180709 0.0590552 -0.0141732 0.694489 -0.161811 0.0283465 -0.00708662c0.452363,-0.0992127 0.907087,-0.186614 1.36536,-0.265748l0.197244 -0.0330709 0.611811 -0.0944883 0.0590552 -0.00826772 0.660237 -0.0850394 0.100394 -0.0129921 0.582284 -0.0602363 0.187795 -0.0177165 0.588189 -0.046063 0.122835 -0.00826772 0.591733 -0.0318898 0.159449 -0.00708662 0.537402 -0.0153543 0.232677 -0.00472441 0.400394 -0.00236221 0.399213 0.00236221 0.232677 0.00472441 0.537402 0.0153543 0.159449 0.00708662 0.591733 0.0318898 0.122835 0.00826772 0.588189 0.046063 0.187795 0.0177165 0.583465 0.0602363 0.0992127 0.0129921 0.660237 0.0850394 0.0602363 0.00826772 0.611811 0.0944883 0.197244 0.0330709c0.457087,0.0791339 0.912993,0.166536 1.36536,0.265748l0.0271654 0.00708662 0.694489 0.161811 0.0590552 0.0141732 0.67441 0.175984 0.0637796 0.0177165 0.708662 0.204331 0.00826772 0.00236221c0.485433,0.146457 0.967324,0.304725 1.44449,0.474804l0.0307087 0.011811 0.516142 0.190158 0.196063 0.0732284 0.0507874 0.0200788 0.180709 0.0732284c3.37205,1.33583 6.37914,3.22677 8.94922,5.53347l0.0437008 0.0389764 0.418111 0.38504 0.178347 0.167717 0.322441 0.309449 0.193701 0.19252 0.304725 0.308268 0.250394 0.259843 0.174803 0.185433 0.38504 0.419292 0.0389764 0.0437008c2.04331,2.2748 3.75945,4.89213 5.05276,7.80237l0.284646 0.660237 0.196063 0.486615 0.0732284 0.180709 0.0200788 0.0507874 0.0472441 0.127559c0.173622,0.453544 0.336614,0.911812 0.487796,1.37362 8.17205,24.6721 24.528,45.4701 45.7926,60.1335 21.6177,14.9067 48.3945,23.5087 76.9961,23.5087 28.6193,0 55.4126,-8.61733 77.0422,-23.5429 21.2811,-14.6847 37.6418,-35.5276 45.7961,-60.2563l0.00590552 -0.0165354c0.12874,-0.387402 0.264567,-0.772442 0.408662,-1.15512 1.42323,-3.79134 3.54331,-7.13623 6.16418,-9.93426l0.164173 -0.173622 0.264567 -0.275197 0.262205 -0.264567 0.264567 -0.262205 0.275197 -0.264567 0.173622 -0.164173c2.79803,-2.62087 6.14292,-4.74095 9.93426,-6.16418 0.381496,-0.144095 0.767717,-0.281103 1.15512,-0.408662l0.0165354 -0.00590552 0.0413386 -0.0129921c0.470079,-0.155906 0.946064,-0.298819 1.42323,-0.42874l0.0330709 -0.00944883 0.693308 -0.180709 0.0590552 -0.0141732 0.694489 -0.161811 0.0271654 -0.00590552c0.454725,-0.100394 0.911812,-0.188977 1.37126,-0.26811l0.183071 -0.0307087 0.628347 -0.0956694 0.0472441 -0.00708662 0.664961 -0.0862205 0.0992127 -0.0129921 0.583465 -0.0602363 0.186614 -0.0177165 0.589371 -0.046063 0.122835 -0.00826772 0.532678 -0.0295276 0.272835 -0.011811 0.403937 -0.0106299 0.324803 -0.00708662 0.387402 -0.00236221 0.38504 0.00236221 0.324803 0.00708662 0.405118 0.0106299 0.271654 0.011811 0.533859 0.0295276 0.122835 0.00826772 0.588189 0.046063 0.187795 0.0177165 0.582284 0.0602363 0.0992127 0.0129921 0.661418 0.0850394 0.0590552 0.00826772 0.611811 0.0944883 0.197244 0.0330709c0.458268,0.0791339 0.912993,0.167717 1.36536,0.266929l0.0283465 0.00590552 0.694489 0.161811 0.0590552 0.0141732 0.67441 0.175984 0.0625985 0.0177165 0.709843 0.204331 0.00708662 0.00236221 0.681497 0.214961 0.0543308 0.0165354 0.0200788 0.00708662 0.651969 0.223229 0.0744095 0.0271654 0.389764 0.144095c3.82441,1.42913 7.19292,3.56811 10.0075,6.21378l0.0885827 0.0826772 0.355512 0.343701 0.223229 0.218504 0.285827 0.290551 0.21378 0.222047 0.240945 0.256299 0.350788 0.381496 0.0425197 0.0484252c2.30551,2.56654 4.19528,5.57481 5.53111,8.94686l0.0732284 0.180709 0.0200788 0.0507874 0.0614174 0.165354c0.167717,0.437008 0.324803,0.879922 0.47126,1.3252 8.15906,24.7122 24.5103,45.5398 45.7819,60.2174 21.6319,14.9268 48.4264,23.5429 77.0481,23.5429 28.6028,0 55.3784,-8.60434 76.9961,-23.5099 21.2705,-14.6669 37.6276,-35.4721 45.7937,-60.1536l0.253937 -0.737008 0.0106299 -0.0307087 0.191339 -0.516142 0.0732284 -0.196063 0.0200788 -0.0507874 0.0732284 -0.180709c1.33465,-3.37323 3.22677,-6.37914 5.53229,-8.94922l0.0401575 -0.0437008 0.383859 -0.419292 0.167717 -0.178347 0.292914 -0.302362 0.239764 -0.242126 0.243307 -0.240945 0.302362 -0.291733 0.178347 -0.167717 0.419292 -0.38504 0.0425197 -0.0389764c2.5689,-2.30788 5.57717,-4.19764 8.94922,-5.53347l0.180709 -0.0732284 0.0519685 -0.0200788 0.196063 -0.0732284 0.516142 -0.190158 0.0295276 -0.011811c0.477166,-0.170079 0.959056,-0.328347 1.44567,-0.474804l0.00708662 -0.00236221 0.709843 -0.204331 0.0625985 -0.0177165 0.67441 -0.175984 0.0590552 -0.0141732 0.694489 -0.161811 0.0283465 -0.00708662c0.452363,-0.0992127 0.907087,-0.186614 1.36536,-0.265748l0.197244 -0.0330709 0.611811 -0.0944883 0.0590552 -0.00826772 0.661418 -0.0850394 0.0992127 -0.0129921 0.582284 -0.0602363 0.187795 -0.0177165 0.588189 -0.046063 0.122835 -0.00826772 0.591733 -0.0318898 0.16063 -0.00708662 0.537402 -0.0153543 0.232677 -0.00472441 0.399213 -0.00236221 0.399213 0.00236221 0.232677 0.00472441 0.537402 0.0153543 0.159449 0.00708662 0.591733 0.0318898 0.122835 0.00826772 0.589371 0.046063 0.186614 0.0177165 0.583465 0.0602363 0.0992127 0.0129921 0.664961 0.0862205 0.0472441 0.00590552 0.628347 0.0968505 0.183071 0.0307087c0.459449,0.0791339 0.916536,0.167717 1.37126,0.266929l0.0271654 0.00708662 0.694489 0.161811 0.0590552 0.0141732 0.693308 0.180709 0.034252 0.00944883c0.93189,0.255118 1.84961,0.5563 2.74961,0.900001l0.165354 0.0602363 0.0507874 0.0200788 0.180709 0.0732284c3.37205,1.33465 6.37796,3.22677 8.94686,5.53229l0.0484252 0.0413386 0.381496 0.351969 0.256299 0.239764 0.222047 0.21378 0.290551 0.285827 0.218504 0.223229 0.343701 0.355512 0.0826772 0.0885827c2.64567,2.81457 4.78347,6.18426 6.21378,10.0075l0.144095 0.390945 0.0271654 0.0732284 0.223229 0.651969 0.00708662 0.0200788c8.16497,24.6921 24.5292,45.5091 45.8079,60.1819 21.6189,14.9079 48.3945,23.5099 76.9973,23.5099 28.6205,0 55.4162,-8.61615 77.0469,-23.5429 21.2823,-14.6847 37.6406,-35.5276 45.7949,-60.2563l0.00590552 -0.0165354c0.144095,-0.434646 0.297638,-0.864568 0.46063,-1.29095l0.0531496 -0.144095 0.0200788 -0.0507874 0.0389764 -0.0968505c1.41969,-3.61536 3.47717,-6.81378 6,-9.5067l0.164173 -0.173622 0.252756 -0.263386 0.304725 -0.307087 0.183071 -0.180709 0.373229 -0.360236 0.0885827 -0.0826772c2.81575,-2.64567 6.18426,-4.78583 10.0075,-6.21378l0.389764 -0.144095 0.0744095 -0.0271654 0.651969 -0.223229 0.0200788 -0.00708662 0.0543308 -0.0165354c0.466536,-0.152362 0.936615,-0.295276 1.41024,-0.425197l0.0318898 -0.00944883 0.694489 -0.180709 0.0578741 -0.0141732 0.69567 -0.161811 0.0271654 -0.00590552c0.452363,-0.100394 0.908268,-0.187795 1.36536,-0.266929l0.197244 -0.0330709 0.611811 -0.0944883 0.0602363 -0.00826772 0.660237 -0.0850394 0.0992127 -0.0129921 0.583465 -0.0602363 0.186614 -0.0177165 0.589371 -0.046063 0.122835 -0.00826772 0.532678 -0.0295276 0.272835 -0.011811 0.403937 -0.0106299 0.324803 -0.00708662 0.387402 -0.00236221 0.38504 0.00236221 0.324803 0.00708662 0.403937 0.0106299 0.272835 0.011811 0.532678 0.0295276 0.124016 0.00826772 0.588189 0.046063 0.186614 0.0177165 0.583465 0.0602363 0.0992127 0.0129921c0.220866,0.0259843 0.440552,0.0531496 0.661418,0.0850394l0.0590552 0.00826772 0.611811 0.0944883 0.197244 0.0330709c0.458268,0.0791339 0.912993,0.166536 1.36536,0.266929l0.0271654 0.00590552 0.69567 0.161811 0.0578741 0.0141732 0.675591 0.175984 0.0625985 0.0177165 0.709843 0.204331 0.00708662 0.00236221 0.681497 0.214961 0.0543308 0.0165354 0.0200788 0.00708662 0.651969 0.223229 0.0744095 0.0271654 0.389764 0.144095c3.82441,1.42913 7.19292,3.56811 10.0075,6.21378l0.0885827 0.0826772 0.355512 0.343701 0.223229 0.218504 0.285827 0.290551 0.21378 0.222047 0.240945 0.256299 0.350788 0.381496 0.0425197 0.0484252c2.30551,2.56654 4.19528,5.57481 5.53111,8.94686l0.0732284 0.180709 0.0200788 0.0507874 0.0614174 0.165354c0.166536,0.437008 0.323622,0.879922 0.470079,1.32638 8.16024,24.7122 24.515,45.5386 45.7831,60.2162 21.6295,14.9256 48.4241,23.5429 77.0422,23.5429 5.64095,0 11.0587,-0.304725 16.2213,-0.905906 5.12481,-0.597638 10.4008,-1.53898 15.7866,-2.81575 16.1043,-3.81496 32.2536,6.14528 36.0685,22.2508 3.81614,16.1032 -6.14646,32.2536 -22.2496,36.0685 -7.32875,1.7374 -14.9504,3.06969 -22.8142,3.98622 -7.83662,0.915355 -15.5244,1.3748 -23.0126,1.3748 -40.8473,0 -79.4717,-12.5599 -111.002,-34.3181 -15.2988,-10.5567 -28.9099,-23.2736 -40.291,-37.7681 -11.3823,14.4945 -24.9933,27.2114 -40.2933,37.7681 -31.5319,21.7595 -70.154,34.3181 -111.007,34.3181 -40.8237,0 -79.4292,-12.5445 -110.958,-34.2851 -15.3012,-10.5508 -28.917,-23.2606 -40.304,-37.7563 -11.3858,14.4945 -25.0004,27.2055 -40.3004,37.7563 -31.5272,21.7394 -70.1339,34.2851 -110.958,34.2851 -40.8532,0 -79.4764,-12.5587 -111.008,-34.3181 -15.3,-10.5567 -28.911,-23.2736 -40.2922,-37.7681 -11.3823,14.4945 -24.9933,27.2114 -40.2922,37.7681 -31.5307,21.7583 -70.154,34.3181 -111.004,34.3181 -40.8248,0 -79.4316,-12.5445 -110.956,-34.2839 -15.3024,-10.5508 -28.917,-23.263 -40.3051,-37.7599 -11.3882,14.4957 -25.004,27.2079 -40.3051,37.7587 -31.5284,21.7394 -70.1339,34.2851 -110.958,34.2851 -7.7126,0 -15.5622,-0.474804 -23.4945,-1.41969 -7.41379,-0.881103 -15.1559,-2.29606 -23.1685,-4.23426 -16.0394,-3.87992 -25.8969,-20.0291 -22.0169,-36.0685 3.88111,-16.0382 20.0315,-25.8969 36.0685,-22.0158 4.92756,1.19173 10.3228,2.13662 16.1445,2.82874 5.30906,0.630709 10.8106,0.950788 16.4669,0.950788 28.6004,0 55.3784,-8.60316 76.9973,-23.5099 21.2788,-14.6728 37.6429,-35.4898 45.8079,-60.1819z"/>
  <path class="fil42" d="M1788.71 1076.19c-9.83977,77.1733 -32.1248,214.371 -107.497,255.118"/>
  <path class="fil43" d="M1776.36 1074.63c0.862205,-6.82205 7.09371,-11.6528 13.9158,-10.7906 6.82205,0.862205 11.6528,7.09371 10.7906,13.9158 -4.99961,39.2185 -13.1646,93.6946 -29.661,143.562 -17.0977,51.6851 -43.2437,98.7969 -84.2812,120.98 -6.06733,3.26221 -13.6323,0.988583 -16.8945,-5.07874 -3.26221,-6.06733 -0.988583,-13.6323 5.07874,-16.8945 34.3335,-18.5599 57.0189,-60.4252 72.3662,-106.819 15.9473,-48.2079 23.8477,-100.923 28.6855,-138.875z"/>
  <path class="fil42" d="M1648.03 956.209c38.25,87.9142 31.2059,136.564 15.9673,227.79"/>
  <path class="fil43" d="M1636.61 961.19c-2.74961,-6.30945 0.135827,-13.6571 6.44528,-16.4067 6.30945,-2.74961 13.6571,0.135827 16.4067,6.44528 19.8118,45.5351 27.9012,81.0875 29.067,117.243 1.1563,35.8146 -4.4941,71.315 -12.2209,117.578 -1.1315,6.79489 -7.56024,11.3858 -14.3551,10.2543 -6.79489,-1.1315 -11.3858,-7.56024 -10.2543,-14.3551 7.50945,-44.9611 13.0028,-79.4032 11.928,-112.695 -1.06299,-32.954 -8.57953,-65.6882 -27.0166,-108.064z"/>
  <path class="fil42" d="M1778.94 1381.87c-28.0925,87.4595 -146.938,122.125 -146.938,122.125"/>
  <path class="fil43" d="M1767.07 1378.07c2.10354,-6.55276 9.12166,-10.1599 15.6744,-8.05631 6.55276,2.10354 10.1599,9.12166 8.05631,15.6744 -30.1288,93.7985 -154.88,130.173 -155.238,130.279 -6.60709,1.96772 -13.5602,-1.79173 -15.528,-8.39883 -1.96772,-6.60709 1.79173,-13.5602 8.39883,-15.528 0.322441,-0.0956694 112.582,-32.8536 138.637,-113.971z"/>
  <rect class="fil42" width="2048" height="2048"/>
 </g>
</svg>
