<?xml version="1.0" encoding="UTF-8"?>
<!DOCTYPE svg PUBLIC "-//W3C//DTD SVG 1.1//EN" "http://www.w3.org/Graphics/SVG/1.1/DTD/svg11.dtd">
<!-- Creator: CorelDRAW -->
<svg xmlns="http://www.w3.org/2000/svg" xml:space="preserve" width="2048px" height="2048px" style="shape-rendering:geometricPrecision; text-rendering:geometricPrecision; image-rendering:optimizeQuality; fill-rule:evenodd; clip-rule:evenodd"
viewBox="0 0 2048 2048"
 xmlns:xlink="http://www.w3.org/1999/xlink">
 <defs>
  <style type="text/css">
   <![CDATA[
    .fil38 {fill:none}
    .fil2 {fill:#003C69}
    .fil11 {fill:#00406B}
    .fil33 {fill:#005187}
    .fil32 {fill:#00558E}
    .fil13 {fill:#005A96}
    .fil12 {fill:#0077C7}
    .fil25 {fill:#01579B}
    .fil30 {fill:#191919}
    .fil3 {fill:#212121}
    .fil5 {fill:#424242}
    .fil8 {fill:#4B4B4B}
    .fil4 {fill:#616161}
    .fil7 {fill:#636363}
    .fil14 {fill:#757575}
    .fil18 {fill:#AD0000}
    .fil15 {fill:#B09176}
    .fil35 {fill:#B5D7D9}
    .fil28 {fill:#B9DCDE}
    .fil1 {fill:#BDBDBD}
    .fil17 {fill:#BF9E83}
    .fil16 {fill:#BFE3E6}
    .fil29 {fill:#C20000}
    .fil9 {fill:#C3E8EA}
    .fil37 {fill:#CCA98B}
    .fil24 {fill:#D50000}
    .fil34 {fill:#D7B293}
    .fil22 {fill:#DCB696}
    .fil31 {fill:#DE0000}
    .fil20 {fill:#E3BC9B}
    .fil36 {fill:#E5BD9C}
    .fil27 {fill:#EAC2A0}
    .fil26 {fill:#F2C8A5}
    .fil21 {fill:#F7CCA9}
    .fil23 {fill:#F7D5B8}
    .fil10 {fill:#F7F7F7}
    .fil0 {fill:#FFD3AE}
    .fil19 {fill:#FFDCBE}
    .fil6 {fill:white}
   ]]>
  </style>
 </defs>
 <g id="Layer_x0020_1">
  <metadata id="CorelCorpID_0Corel-Layer"/>
  <g id="_352788648">
   <path id="_352796208" class="fil0" d="M1192.47 1623.86c-10.0536,31.2532 7.1315,40.239 39.1748,55.7056 32.0351,15.45 55.2768,9.29056 70.7327,-22.7551l94.0796 -228.768c15.4559,-32.0457 2.01614,-70.5556 -30.0236,-86.0138 -32.0398,-15.4524 -51.7807,3.30355 -76.8792,28.5284 -47.8004,48.0284 -97.0843,253.304 -97.0843,253.303z"/>
   <path id="_352796136" class="fil1" d="M1208.06 1565.19c7.07717,2.65984 14.1496,5.32678 21.2126,8.0126 31.0429,11.7815 61.9146,24.7099 94.1198,32.5075l-21.0154 51.0981c-15.4559,32.0457 -38.6965,38.2051 -70.7316,22.7551 -32.0445,-15.4677 -49.2272,-24.4512 -39.1748,-55.7044 0,-0.0011811 5.89725,-24.5599 15.5894,-58.6689z"/>
   <path id="_352796736" class="fil0" d="M1262.76 1408.67c34.213,33.3201 74.1579,60.7052 110.851,37.6961 36.6992,-22.9996 41.1154,-60.0579 18.1099,-96.7678l-181.621 -273.549c-29.1437,-46.4575 -78.4064,-31.5945 -124.877,-2.4437 -46.4752,29.1378 -58.1634,63.4914 -29.0209,109.957l206.557 225.108z"/>
   <path id="_352795848" class="fil2" d="M1000.84 1065.97c2.64213,-2.25118 205.641,5.93741 208.395,9.16182l103.4 143.301c-35.8973,35.9114 -101.384,111.704 -137.283,147.594l-185.785 -160.038c-35.5477,-41.7744 -30.5055,-104.464 11.2736,-140.019z"/>
   <path id="_352795464" class="fil3" d="M1183.61 1621.33c0,0 -7.82481,24.6473 -27.4701,53.5902 -6.70276,9.87166 -8.53701,27.0059 -12.7441,35.5441 -17.2937,3.75237 -22.7729,43.9985 -19.8166,51.0378 2.56418,11.785 61.0111,23.4461 97.8284,10.4858 25.6193,-9.01418 46.4351,-0.462992 75.2469,8.08347 27.502,8.1626 62.2878,16.3252 115.488,9.20788 52.3465,-7.00512 41.6055,-56.8666 24.2717,-70.1528 -24.2551,-10.7055 -50.9741,-11.6421 -71.3528,-14.8264 -63.4323,-9.87993 -27.3532,-44.1355 -64.0134,-66.0012 -31.2992,18.0177 -58.6193,27.6756 -77.3457,22.3488 -28.5154,-8.10355 -25.2189,-38.7756 -40.0926,-39.3177z"/>
   <path id="_352795776" class="fil4" d="M1211.47 1745.84c-26.9599,9.49489 -63.9957,7.47048 -88.0595,1.25669 1.85433,-14.4036 8.15316,-34.063 19.9866,-36.6319 4.20709,-8.5382 6.04134,-25.6725 12.7441,-35.5441 19.6453,-28.9429 27.4713,-53.5902 27.4713,-53.5902 14.8725,0.542126 11.576,31.2142 40.0914,39.3177 18.7264,5.32678 46.0465,-4.33111 77.3457,-22.3488 36.6603,21.8658 0.581103,56.1213 64.0134,66.0012 20.3776,3.18425 47.0977,4.12087 71.3528,14.8264 9.43229,7.2319 16.8874,25.2839 13.3134,41.3776 -5.3941,2.3752 -11.8016,4.17638 -19.3606,5.18859 -61.056,8.1626 -100.977,-1.20473 -132.541,-10.5721 -33.0638,-9.81379 -56.954,-19.6276 -86.3575,-9.28111z"/>
   <path id="_352795368" class="fil5" d="M1139.92 1711.81c1.10315,-0.604725 2.25236,-1.09016 3.4689,-1.35118 4.20709,-8.5382 6.04134,-25.6725 12.7441,-35.5441 19.6453,-28.9429 27.4713,-53.5902 27.4713,-53.5902 14.8725,0.542126 11.576,31.2142 40.0914,39.3177 18.7264,5.32678 46.0465,-4.33111 77.3457,-22.3488 36.6603,21.8658 18.7819,56.1213 82.2154,66.0012 20.3835,3.18425 28.8957,4.12087 53.1508,14.8264 2.34095,1.81417 4.5567,4.27205 6.51497,7.18701 -5.50276,3.23032 -12.4831,5.64213 -21.2847,6.82087 -53.1993,7.11378 -87.9863,-1.0441 -115.489,-9.2067 -28.8154,-8.55119 -49.63,-17.1024 -75.2505,-8.08465 -29.8996,10.5154 -74.0658,4.81063 -90.978,-4.02756z"/>
   <path id="_352795488" class="fil3" d="M1262.87 1693.11c-22.3465,4.2 -51.3993,10.2154 -74.0859,4.77756 -13.2827,-3.18544 -24.7158,-10.2284 -34.9937,-18.861 0.715749,-1.46102 1.49291,-2.84528 2.34331,-4.10788 19.6453,-28.9429 27.4713,-53.5902 27.4713,-53.5902 14.8725,0.542126 11.576,31.2142 40.0914,39.3177 18.3933,5.23229 45.078,-4.00512 75.678,-21.4063 -4.71024,19.754 -14.1851,49.6666 -36.5044,53.8701z"/>
   <path id="_352795944" class="fil6" d="M1313.02 1702.26c1.59567,3.70394 5.88189,5.40473 9.57284,3.80197l24.6792 -10.6559c3.69449,-1.59685 5.39528,-5.87363 3.80315,-9.5752 -1.59921,-3.69213 -5.88189,-5.39528 -9.57875,-3.79016l-24.6839 10.6465c-3.6815,1.59567 -5.38819,5.89134 -3.79252,9.57284z"/>
   <path id="_352795344" class="fil6" d="M1299.92 1682.34c1.45984,3.37677 5.37874,4.93819 8.75434,3.47599l22.5839 -9.74883c3.3815,-1.46221 4.93465,-5.39174 3.47953,-8.76024 -1.46221,-3.37441 -5.37874,-4.93347 -8.75906,-3.47835l-22.5886 9.75473c-3.37796,1.4563 -4.93465,5.37166 -3.47008,8.7567z"/>
   <path id="_352795920" class="fil6" d="M1288.02 1663.98c1.46221,3.38504 5.38229,4.93819 8.76379,3.48307l22.5815 -9.75473c3.38032,-1.46811 4.93701,-5.38819 3.47599,-8.76024 -1.45984,-3.37441 -5.37874,-4.94055 -8.7567,-3.4689l-22.5815 9.7441c-3.38859,1.45039 -4.93819,5.37284 -3.48307,8.7567z"/>
   <path id="_352795320" class="fil7" d="M1370.43 1701.71c-0.0165354,-0.00708662 -0.0354331,-0.0106299 -0.0543308,-0.0165354 0.0153543,0.00236221 0.0389764,0.0106299 0.0555119,0.0165354l-0.0011811 0zm-0.0944883 -0.0271654c-8.5441,-2.19213 -15.1571,-4.97363 -20.4662,-8.16733 -0.00354331,0.00472441 -0.00944883,0.0129921 -0.0129921,0.0153543 5.30552,3.19134 11.935,5.96575 20.4791,8.15316l0 -0.0011811zm-32.4284 -18.0957l3.58701 -1.54488 -3.57048 1.5378c-1.60276,-1.83071 -3.0437,-3.70748 -4.37599,-5.63268 1.32402,1.92874 2.76142,3.81496 4.35945,5.63977z"/>
   <path id="_352796016" class="fil8" d="M1372.97 1792c0.00708662,0 0.0106299,0 0.0177165,0 -0.00826772,0 -0.00944883,0 -0.0177165,0l0 0zm-0.0188977 0c-31.5638,-0.00590552 -55.2343,-5.72717 -75.078,-11.5689 19.8473,5.84174 43.5118,11.5654 75.078,11.5689zm38.1851 -2.59134c0.00354331,0 0.0106299,-0.00354331 0.0129921,-0.00354331 -0.00236221,0 -0.00944883,0.00354331 -0.0129921,0.00354331zm1.00158 -0.133465l0 0c0.046063,-0.00708662 0.0885827,-0.00944883 0.134646,-0.0165354 -0.046063,0.00708662 -0.0885827,0.00944883 -0.134646,0.0165354l0 0zm0.186614 -0.0236221c0.0295276,-0.00590552 0.0519685,-0.00944883 0.0814961,-0.0129921 -0.0259843,0.00354331 -0.0555119,0.00708662 -0.0814961,0.0129921zm0.140551 -0.0188977c0.0389764,-0.00708662 0.0814961,-0.0129921 0.120473,-0.0165354 -0.0425197,0.00354331 -0.0779528,0.00944883 -0.120473,0.0165354zm0.188977 -0.0259843c0.0200788,-0.00354331 0.0366142,-0.00708662 0.0555119,-0.0106299 -0.0200788,0.00354331 -0.0354331,0.00708662 -0.0555119,0.0106299l0 0zm0.137008 -0.0200788c0.0129921,-0.00354331 0.0259843,-0.00590552 0.0389764,-0.00590552 -0.0165354,0.00236221 -0.022441,0.00236221 -0.0389764,0.00590552zm0.340158 -0.0484252c0.00236221,0 0.00590552,-0.00354331 0.00590552,-0.00354331 -0.00354331,0 -0.00354331,0.00354331 -0.00590552,0.00354331zm-117.072 -9.24331c-0.090945,-0.0283465 -0.175984,-0.0519685 -0.264567,-0.0814961 0.0885827,0.0295276 0.173622,0.0531496 0.264567,0.0814961l0 0zm-0.725197 -0.218504c-19.4835,-5.8252 -35.3422,-11.5311 -51.6307,-11.537 16.2886,0.00590552 32.1473,5.71182 51.6319,11.537l-0.0011811 0zm-73.9312 -7.69253c0.0874016,-0.0295276 0.173622,-0.0590552 0.261024,-0.090945 -0.0885827,0.0318898 -0.173622,0.0614174 -0.261024,0.090945l0 0zm22.2579 -3.84449c0.00236221,0 0.0106299,0 0.0129921,0l0 0c-0.00236221,0 -0.00944883,0 -0.0129921,0z"/>
   <path id="_352794504" class="fil7" d="M1350.93 1685.54c-1.24252,-2.56536 -3.81733,-4.09252 -6.52323,-4.09843 2.70591,0.00590552 5.28071,1.53307 6.52323,4.09843l0 0zm-9.3756 -3.52559c0.0295276,-0.0129921 0.0614174,-0.0248032 0.0944883,-0.0389764 -0.034252,0.0129921 -0.0649607,0.0259843 -0.0944883,0.0401575l0 -0.0011811zm2.81339 -0.574016c0.00590552,0 0.00944883,0.0011811 0.0165354,0.0011811l-0.0011811 -0.0011811c-0.00590552,0 -0.00944883,0.0011811 -0.0153543,0.0011811l0 -0.0011811zm-9.66142 -14.2028c-1.09961,-2.46496 -3.51733,-3.9437 -6.06378,-3.95197 2.54528,0.0129921 4.96418,1.48701 6.06497,3.95197l-0.0011811 0zm-8.6256 -3.45c0.00708662,-0.00236221 0.0129921,-0.00708662 0.0236221,-0.0106299 -0.0106299,0.00354331 -0.0165354,0.00826772 -0.0236221,0.0106299zm2.51929 -0.50315c0.00354331,0 0.00708662,0.0011811 0.0106299,0.0011811l-0.0011811 -0.0011811c-0.00236221,0 -0.00590552,0.0011811 -0.00944883,0z"/>
   <path id="_352795176" class="fil9" d="M1311.9 1646.43l2.19095 -0.947245 -2.19449 0.940158c0,0.00354331 0.00472441,0.00354331 0.00472441,0.00708662l-0.0011811 0zm-3.87402 -3.34488l88.4339 -215.045 -88.4339 215.045zm95.0906 -268.508c-0.00236221,-0.00826772 -0.00236221,-0.00826772 -0.00236221,-0.0141732 0,0.00354331 0,0.0106299 0.00354331,0.0141732l-0.0011811 0zm-0.0318898 -0.114567c-2.33977,-8.19213 -6.14646,-16.5343 -11.3646,-24.8599 5.21575,8.3256 9.02481,16.6677 11.3646,24.8599zm-95.2288 -151.172c1.63583,-1.68307 3.24803,-3.30827 4.77874,-4.85197l0 -0.0011811c-1.54016,1.5437 -3.13937,3.16063 -4.78347,4.8437l0.00472441 0.00944883z"/>
   <path id="_352795080" class="fil5" d="M1295.44 1653.53l16.4551 -7.09843c0,-0.00354331 -0.00236221,-0.00354331 -0.00236221,-0.00590552l-0.0236221 0.00944883c-1.1941,-1.12323 -2.48032,-2.22638 -3.8563,-3.32481l0.00826772 -0.0236221c-2.08819,-1.64882 -4.39607,-3.24685 -6.97678,-4.78701l0 -0.0011811c-0.558662,0.323622 -1.11732,0.64252 -1.67126,0.960237 -1.04764,4.38898 -2.32677,9.2752 -3.93307,14.2713z"/>
   <path id="_352794984" class="fil10" d="M1319.7 1706.67c0.962599,0 1.94528,-0.193701 2.88898,-0.604725l24.6792 -10.6559c1.02284,-0.440552 1.89331,-1.09016 2.58544,-1.87677 0.00236221,-0.00354331 0.00944883,-0.00944883 0.0129921,-0.0153543 -0.00708662,-0.00354331 -0.0129921,-0.00826772 -0.022441,-0.0141732 1.79055,-2.04567 2.37284,-4.99252 1.22717,-7.6689 -0.0472441,-0.101575 -0.0885827,-0.199606 -0.138189,-0.294095 -1.24252,-2.56536 -3.81733,-4.09252 -6.52323,-4.09843 -0.00944883,-0.0011811 -0.0165354,0 -0.022441,0 -0.00708662,-0.0011811 -0.0106299,0 -0.0165354,0 -0.908268,-0.0011811 -1.82835,0.172441 -2.7189,0.533859 -0.034252,0.0129921 -0.0649607,0.0259843 -0.0944883,0.0401575 -0.0236221,0.00944883 -0.046063,0.0188977 -0.0649607,0.0283465l-0.0011811 0 -3.58701 1.54488 -21.0957 9.10158c-3.6815,1.59567 -5.38819,5.89134 -3.79134,9.57284 1.18701,2.75788 3.86693,4.4067 6.68268,4.4067z"/>
   <path id="_352794792" class="fil10" d="M1306.05 1686.37c0.881103,0 1.77638,-0.175984 2.63386,-0.548032l22.5839 -9.74883c0.26811,-0.116929 0.525591,-0.248032 0.77126,-0.394488 -0.00354331,-0.00708662 -0.0106299,-0.0165354 -0.0129921,-0.0236221 2.83465,-1.6937 4.063,-5.2252 2.72126,-8.34213 -0.0129921,-0.022441 -0.022441,-0.0484252 -0.0318898,-0.0708662 -1.10079,-2.46496 -3.51851,-3.93898 -6.06497,-3.95197 -0.00944883,-0.0011811 -0.0188977,0 -0.0318898,0 -0.00354331,-0.0011811 -0.00708662,0 -0.0106299,0 -0.832678,-0.0011811 -1.67953,0.159449 -2.49567,0.491339 -0.0106299,0.00354331 -0.0165354,0.00826772 -0.0236221,0.0106299 -0.0330709,0.0129921 -0.068504,0.0259843 -0.100394,0.0425197l-0.725197 0.312992c0,0 0,0.0011811 0,0.0011811l-21.8634 9.44056c-3.37796,1.4563 -4.93465,5.37166 -3.4689,8.7567 1.08662,2.51575 3.54095,4.02402 6.1193,4.02402z"/>
   <path id="_352794744" class="fil9" d="M1322.84 1648.95c-1.08307,-2.50276 -3.51733,-4.01103 -6.08268,-4.02048 2.56418,0.00944883 4.99961,1.51772 6.08386,4.02048l-0.0011811 0zm-6.12284 -4.02048c0.00354331,0 0.00708662,0 0.0106299,0l0 0c-0.00354331,0 -0.00708662,0 -0.0106299,0z"/>
   <path id="_352794696" class="fil10" d="M1294.15 1668.01c0.881103,0 1.7752,-0.177165 2.6374,-0.54567l22.5815 -9.75473c0.498426,-0.218504 0.961418,-0.490158 1.37953,-0.806694 -0.00708662,-0.00590552 -0.00944883,-0.0129921 -0.0165354,-0.0188977 2.39882,-1.80236 3.35551,-5.05867 2.11299,-7.93465l-0.0011811 0c-1.08307,-2.50276 -3.51733,-4.01103 -6.08268,-4.02048 -0.0106299,0 -0.0200788,0 -0.0295276,0 -0.00354331,0 -0.00708662,0 -0.00944883,0 -0.882284,0 -1.7752,0.179528 -2.63386,0.551575l0 -0.0011811 -2.19095 0.947245 -16.4551 7.09843 -3.93544 1.69961c-3.38859,1.45039 -4.93819,5.37284 -3.48307,8.75788 0.512599,1.18465 1.32874,2.14725 2.31378,2.83229 1.1126,0.773623 2.44606,1.19528 3.8126,1.19528z"/>
   <path id="_352794840" class="fil0" d="M664.162 1275.74c-31.9394,-7.58859 -39.5528,10.2543 -52.4563,43.3937 -12.9118,33.1559 -4.94764,55.8449 28.2047,68.7497l234.06 69.6922c33.1453,12.9083 70.4953,-3.50788 83.393,-36.6544 12.9142,-33.1559 -7.34292,-51.3579 -34.4481,-74.4083 -51.6284,-43.8969 -258.754,-70.7729 -258.754,-70.7729z"/>
   <path id="_352794912" class="fil1" d="M611.704 1319.13c12.9047,-33.1394 20.5193,-50.9811 52.4575,-43.3937 0,0 44.2394,5.73071 96.9154,16.2461 -3.17599,10.9335 -6.87402,21.6851 -10.128,32.0658 -8.25709,26.4 -17.2477,52.6465 -24.0992,79.4646 -0.819686,3.16418 -1.58858,6.35788 -2.38819,9.53623l-84.5528 -25.1693c-33.1524,-12.9047 -41.1154,-35.5937 -28.2047,-68.7497z"/>
   <path id="_352794672" class="fil0" d="M855.184 1329.15c-18.1689,44.1874 -28.6701,91.4516 6.37441,116.915 35.0292,25.4729 71.067,15.7406 96.5268,-19.2851l189.59 -256.441c32.2559,-44.3764 13.6264,-58.9028 -30.7465,-91.1505l-2.40591 6.22441c-44.3823,-32.2595 -95.2831,-76.2331 -127.534,-31.8709l-131.804 275.608z"/>
   <path id="_352794624" class="fil11" d="M690.825 1280.79c0,0 -21.9768,-13.6228 -45.2303,-39.7477 -7.92757,-8.91379 -24.0886,-14.889 -31.3406,-21.0543 0.596457,-17.6929 -37.089,-32.8524 -44.628,-31.7103 -12.0626,-0.39567 -37.6725,53.413 -34.115,92.2831 4.81536,52.8697 -50.9304,71.517 -63.456,180.708 -6.02481,52.4658 44.9575,54.2481 62.0623,40.6949 16.324,-20.8984 23.7851,-46.5674 31.8567,-65.5477 14.6079,-34.3973 28.9748,-34.0772 44.3859,-33.7571 11.0599,0.229134 22.6606,0.46063 35.2701,-12.1595 -9.8067,-34.7587 -12.4902,-63.606 -2.73425,-80.4603 14.8394,-25.6559 43.7752,-14.9504 47.9292,-29.2488z"/>
   <path id="_352793736" class="fil12" d="M563.288 1277.33c-2.60197,-28.4622 8.42717,-63.88 20.3362,-85.6808 13.5201,5.31851 31.0394,16.2331 30.6296,28.3418 7.25079,6.16536 23.413,12.1406 31.3406,21.0543 23.2536,26.1248 45.2315,39.7477 45.2315,39.7477 -4.15512,14.2984 -33.0898,3.59292 -47.9304,29.2488 -9.75591,16.8532 -7.07245,45.7016 2.73425,80.4603 -12.6106,12.6201 -24.2091,12.3886 -35.2701,12.1595 -15.4122,-0.320079 -29.778,-0.640158 -44.3859,33.7571 -8.07166,18.9803 -15.5315,44.6492 -31.8567,65.5477 -9.30237,7.37835 -28.6288,10.1894 -43.3548,2.78977 -0.999213,-5.81221 -1.16221,-12.4665 -0.294095,-20.0351 14.3799,-125.315 78.3615,-146.712 72.8197,-207.391z"/>
   <path id="_352794480" class="fil13" d="M613.789 1216.29c0.314173,1.21417 0.500788,2.45197 0.465355,3.70158 7.25079,6.16536 23.413,12.1406 31.3406,21.0543 23.2536,26.1248 45.2315,39.7477 45.2315,39.7477 -4.15512,14.2984 -33.0898,3.59292 -47.9304,29.2488 -9.75591,16.8532 -7.07245,45.7016 2.73425,80.4603 -30.176,30.1914 -59.0126,4.47756 -84.1135,63.5563 -8.07875,18.9969 -11.074,27.0095 -27.3992,47.9079 -2.30433,1.82362 -5.23819,3.38032 -8.55119,4.55906 -1.77874,-6.12638 -2.40473,-13.4858 -1.39725,-22.304 12.5256,-109.189 68.2808,-127.838 63.4524,-180.704 -2.87835,-31.5626 13.4669,-72.9886 26.1673,-87.228z"/>
   <path id="_352794360" class="fil11" d="M601.841 1340.07c1.39725,-22.676 2.67047,-52.3264 13.4988,-72.9922 6.33189,-12.0933 15.9638,-21.4618 26.8453,-29.3103 1.24252,1.04646 2.39764,2.14725 3.40985,3.27638 23.2536,26.1248 45.2315,39.7477 45.2315,39.7477 -4.15512,14.2984 -33.0898,3.59292 -47.9304,29.2488 -9.57284,16.5473 -7.13859,44.7 2.22874,78.606 -18.0024,-9.39568 -44.68,-25.9004 -43.2839,-48.5764z"/>
   <path id="_352794192" class="fil6" d="M580.68 1386.46c-3.97205,0.641339 -6.67087,4.38071 -6.02717,8.3504l4.2874 26.5299c0.649607,3.97796 4.38307,6.67087 8.35867,6.02481 3.96142,-0.633071 6.66497,-4.37363 6.02481,-8.33859l-4.29567 -26.5465c-0.640158,-3.97323 -4.37599,-6.66497 -8.34804,-6.02008z"/>
   <path id="_352794264" class="fil6" d="M603.195 1378.63c-3.62244,0.589371 -6.09331,4.01339 -5.50158,7.64646l3.92244 24.2847c0.587008,3.63544 4.00512,6.1004 7.6441,5.50985 3.62835,-0.582284 6.1063,-4.00158 5.5193,-7.63111l-3.92717 -24.2941c-0.590552,-3.63662 -4.01339,-6.1004 -7.65709,-5.51575z"/>
   <path id="_352794408" class="fil6" d="M623.914 1371.6c-3.63307,0.581103 -6.09686,4.00748 -5.51221,7.63701l3.92835 24.2977c0.584646,3.62599 4.00866,6.08386 7.64174,5.5063 3.63071,-0.584646 6.09922,-4.00748 5.51103,-7.64646l-3.92953 -24.2847c-0.577559,-3.62953 -4.00394,-6.08741 -7.63938,-5.50985z"/>
   <path id="_352794240" class="fil9" d="M527.806 1505.65l0.15 -0.0590552 0.103937 -0.0519685c-0.0850394,0.0354331 -0.168898,0.0744095 -0.253937,0.111024zm2.47677 -1.19173l0.0555119 -0.0259843c0.0519685,-0.0295276 0.103937,-0.0578741 0.157087,-0.0885827 -0.068504,0.0389764 -0.140551,0.0755906 -0.212599,0.115748l0 -0.0011811zm2.76378 -1.6937c0.372048,-0.255118 0.72756,-0.518504 1.07126,-0.796064 16.324,-20.8984 19.3205,-28.9099 27.3992,-47.9079l-0.0011811 0c-8.07757,18.9969 -11.0728,27.0095 -27.3981,47.9079l-0.0011811 0c-0.34252,0.270473 -0.696851,0.538583 -1.0689,0.796064l-0.0011811 0zm-61.0241 -41.178c0,-0.0200788 0.00354331,-0.0330709 0.00354331,-0.0519685 0,0.0153543 -0.00354331,0.0354331 -0.00354331,0.0519685zm0.0165354 -0.146457c0.00354331,-0.0555119 0.00944883,-0.111024 0.0165354,-0.166536 -0.00708662,0.0555119 -0.00944883,0.111024 -0.0165354,0.166536zm91.9123 -12.8268c0.00236221,-0.00708662 0.00590552,-0.00944883 0.00944883,-0.0165354 -0.00354331,0.00708662 -0.00590552,0.0106299 -0.00944883,0.0177165l0 -0.0011811zm0.0555119 -0.11811c5.22993,-11.0634 10.6205,-18.6969 16.1421,-24.163 -0.00708662,-0.0106299 -0.0141732,-0.0200788 -0.0200788,-0.0295276 -5.51339,5.47678 -10.898,13.135 -16.1221,24.1937l0 -0.0011811zm29.3173 -29.4697l-0.623623 -3.84567c3.00591,-1.54016 6.04725,-2.75079 9.10867,-3.77244 0,-0.00354331 0,-0.00354331 -0.00236221,-0.00354331 -3.06969,1.02165 -6.10394,2.21339 -9.10985,3.75118l0.627166 3.87048zm21.4559 -10.5815l-0.124016 -0.783071 -0.00472441 0 0.12874 0.783071zm30.652 -18.6484c-0.0271654,-0.0956694 -0.0531496,-0.19252 -0.0791339,-0.294095l-0.00354331 0c0.0259843,0.101575 0.0555119,0.196063 0.0826772,0.294095zm215.553 -72.7701l33.5114 -70.0749c0,0 -0.00354331,0 -0.00354331,0l-33.5114 70.0678c-30.117,-9.83032 -65.4272,-18.1063 -97.7635,-24.6047 32.3362,6.50079 67.6536,14.7815 97.767,24.6118zm-99.9698 -25.0524c-0.516142,-0.103937 -1.02756,-0.211417 -1.5378,-0.307087 0.512599,0.105118 1.02284,0.20315 1.5378,0.307087zm-2.62441 -0.520867c-0.38504,-0.0791339 -0.770079,-0.158268 -1.15866,-0.229134 -1.08425,-0.212599 -2.16024,-0.434646 -3.23622,-0.640158 -0.497244,-0.0980316 -0.99567,-0.185433 -1.48937,-0.279921 1.94882,0.37441 3.90945,0.760631 5.88544,1.14921l-0.0011811 0zm-6.02481 -1.17638c-0.068504,-0.0153543 -0.13937,-0.0283465 -0.207874,-0.0413386 -0.151181,-0.0295276 -0.301181,-0.0590552 -0.45,-0.0850394 0.220866,0.0413386 0.435827,0.0850394 0.657875,0.126378zm-1.11614 -0.216142c-0.799607,-0.155906 -1.59567,-0.311811 -2.38819,-0.465355 -0.522048,-0.0944883 -1.04173,-0.196063 -1.55669,-0.287008 1.30748,0.248032 2.62323,0.498426 3.94607,0.753544l-0.0011811 -0.0011811zm-4.61457 -0.879922c-0.467717,-0.0921261 -0.933072,-0.179528 -1.39961,-0.264567 0.465355,0.0874016 0.933072,0.175984 1.40079,0.264567l-0.0011811 0zm-3.35197 -0.633071c-0.364961,-0.0720473 -0.737008,-0.142913 -1.10551,-0.209055 -1.32874,-0.248032 -2.6504,-0.49252 -3.96614,-0.734646 -0.0850394,-0.0129921 -0.168898,-0.0259843 -0.253937,-0.0425197 1.75866,0.322441 3.53504,0.65315 5.32678,0.986221l-0.0011811 0zm-5.60315 -1.03465c-0.137008,-0.0259843 -0.274016,-0.0555119 -0.408662,-0.0814961 -1.28622,-0.231496 -2.56418,-0.470079 -3.83504,-0.692127 1.40079,0.251575 2.82047,0.509056 4.2437,0.773623zm-201.875 -0.603544c0,-2.06339 -0.0968505,-4.17402 -0.292914,-6.34252 -0.00826772,-0.0484252 -0.00944883,-0.0933072 -0.0129921,-0.13937 0.00236221,0.046063 0.00590552,0.090945 0.0129921,0.13937 0.196063,2.16851 0.294095,4.27914 0.294095,6.34252l-0.0011811 0zm194.816 -0.676772c-0.943702,-0.168898 -1.88386,-0.335433 -2.80984,-0.509056 -0.50315,-0.0779528 -0.992127,-0.168898 -1.48583,-0.253937 -0.10748,-0.0188977 -0.214961,-0.0354331 -0.322441,-0.0555119 1.52008,0.266929 3.06496,0.542126 4.61811,0.819686l0 -0.0011811zm-6.23032 -1.10197c-0.401575,-0.068504 -0.799607,-0.140551 -1.19055,-0.212599 -0.555119,-0.0944883 -1.10669,-0.188977 -1.65591,-0.287008 -0.920079,-0.16063 -1.83662,-0.320079 -2.75079,-0.470079 -0.633071,-0.114567 -1.26969,-0.218504 -1.89921,-0.329528 -0.46063,-0.0755906 -0.921261,-0.15 -1.37362,-0.229134 2.87362,0.490158 5.83819,0.999213 8.87009,1.52835zm-10.1469 -1.74331c-0.575197,-0.100394 -1.14567,-0.194882 -1.71969,-0.290551 -0.745276,-0.124016 -1.4941,-0.253937 -2.23229,-0.372048 -0.591733,-0.103937 -1.17874,-0.196063 -1.7563,-0.290551 1.86024,0.307087 3.76654,0.627166 5.70827,0.95315zm-6.03544 -1.00512c-0.701575,-0.116929 -1.39252,-0.231496 -2.0811,-0.346063 -0.166536,-0.0259843 -0.333071,-0.0519685 -0.50315,-0.0779528 0.851575,0.137008 1.71732,0.281103 2.58425,0.424016zm-3.66378 -0.603544c-0.0401575,-0.00708662 -0.0791339,-0.0129921 -0.11811,-0.0200788 -0.551575,-0.0885827 -1.10315,-0.179528 -1.6441,-0.264567 0.583465,0.0944883 1.16811,0.190158 1.76221,0.284646zm-2.89252 -0.467717c-0.283465,-0.0448819 -0.568111,-0.090945 -0.851575,-0.135827 0.279921,0.0448819 0.568111,0.090945 0.851575,0.137008l0 -0.0011811zm-1.50118 -0.240945c-0.499607,-0.0850394 -0.99567,-0.157087 -1.4811,-0.238583 -0.660237,-0.103937 -1.31221,-0.209055 -1.95827,-0.309449 -0.61063,-0.0980316 -1.20473,-0.188977 -1.79528,-0.283465 -0.577559,-0.0885827 -1.15158,-0.186614 -1.7126,-0.26811 -0.562205,-0.0885827 -1.09724,-0.172441 -1.63583,-0.251575 2.70236,0.416929 5.57126,0.868111 8.58308,1.35236l0 -0.0011811zm-9.37324 -1.4752c-0.318898,-0.0484252 -0.635434,-0.100394 -0.949607,-0.153543 -0.462992,-0.0649607 -0.910631,-0.13937 -1.37126,-0.201969 -1.31457,-0.891733 -3.13819,-2.16378 -5.37756,-3.81142 2.23465,1.64764 4.05945,2.91969 5.3752,3.81142 0.759449,0.116929 1.53425,0.23504 2.32441,0.355512l-0.0011811 0zm-155.361 -0.124016c-0.00236221,-0.0614174 -0.00590552,-0.124016 -0.011811,-0.185433 0.00472441,0.0614174 0.00944883,0.124016 0.0129921,0.185433l-0.0011811 0zm115.064 -33.0933c-0.00590552,-0.00354331 -0.00826772,-0.00944883 -0.0153543,-0.0165354 0.00236221,0.00354331 0.0129921,0.0129921 0.0153543,0.0165354zm-0.129921 -0.137008c-0.00708662,-0.00708662 -0.0129921,-0.0165354 -0.0236221,-0.0259843 0.00944883,0.00944883 0.0165354,0.0165354 0.0236221,0.0259843zm-0.11811 -0.127559c-0.0129921,-0.0129921 -0.0248032,-0.0259843 -0.0377953,-0.0389764 0.011811,0.0129921 0.0259843,0.0259843 0.0377953,0.0389764l0 0zm-0.127559 -0.134646c-0.0295276,-0.0318898 -0.0614174,-0.0649607 -0.0897638,-0.0968505 0.0283465,0.0318898 0.0614174,0.0649607 0.0897638,0.0980316l0 -0.0011811zm-0.146457 -0.155906c-0.0295276,-0.0295276 -0.0578741,-0.0614174 -0.0885827,-0.090945 0.0307087,0.0283465 0.0602363,0.0614174 0.0897638,0.0921261l-0.0011811 -0.0011811zm-0.111024 -0.121654c-0.0295276,-0.0283465 -0.0614174,-0.0637796 -0.090945,-0.0933072 0.0295276,0.0318898 0.0590552,0.0614174 0.0921261,0.0944883l-0.0011811 -0.0011811zm-0.113386 -0.120473c-0.141732,-0.15 -0.281103,-0.298819 -0.421654,-0.448819 0.140551,0.15 0.281103,0.298819 0.421654,0.45l0 -0.0011811zm-0.421654 -0.45c-1.08307,-1.16457 -2.17677,-2.35984 -3.26693,-3.58347 1.09252,1.22362 2.1815,2.41536 3.26693,3.58465l0 -0.0011811zm-3.27992 -3.59646c-0.0295276,-0.0295276 -0.0555119,-0.0614174 -0.0850394,-0.090945 0.0295276,0.0283465 0.0590552,0.0614174 0.0850394,0.090945zm-0.124016 -0.137008c-0.022441,-0.0259843 -0.0484252,-0.0555119 -0.0720473,-0.0814961 0.022441,0.0259843 0.0472441,0.0519685 0.0720473,0.0814961l0 0zm-0.131102 -0.147638c-0.022441,-0.022441 -0.0413386,-0.0484252 -0.0602363,-0.0708662 0.0177165,0.022441 0.0413386,0.0484252 0.0614174,0.0720473l-0.0011811 -0.0011811zm-93.3993 -33.7784c6.08386,-11.5724 12.5457,-19.1906 17.1189,-19.1906l-0.0011811 0c-4.57205,0 -11.0339,7.62166 -17.1177,19.1917l0 -0.0011811zm51.8174 -4.17166l-0.0614174 -0.0507874c-0.147638,-0.121654 -0.294095,-0.238583 -0.444095,-0.356693 0.170079,0.134646 0.336614,0.271654 0.505512,0.408662l0 -0.0011811zm-30.7252 -14.7579c-0.00236221,0 -0.00472441,0.0011811 -0.00826772,0.0011811 0.00236221,-0.0011811 0.00590552,0 0.00944883,0l-0.0011811 -0.0011811zm-0.011811 -0.00236221c-1.13622,-0.209055 -2.11772,-0.316536 -2.91496,-0.316536 -0.34252,0 -0.649607,0.0188977 -0.916536,0.0614174 0.266929,-0.0437008 0.574016,-0.0614174 0.914174,-0.0614174 0.794883,0 1.7811,0.10748 2.91733,0.316536l0 0zm-3.8315 -0.256299c-0.046063,-0.00236221 -0.0874016,-0.00236221 -0.129921,-0.00236221 0.0425197,0 0.0874016,0 0.129921,0.00236221z"/>
   <path id="_352794120" class="fil3" d="M508.075 1509.06c-0.0318898,0 -0.0637796,-0.00354331 -0.0933072,-0.00354331 0.0283465,0 0.0614174,0.00354331 0.0944883,0.00354331l-0.0011811 0zm-0.124016 -0.00590552c-5.87008,-0.261024 -11.8323,-1.59921 -17.1886,-4.29213 -0.999213,-5.81221 -1.16221,-12.4665 -0.294095,-20.0351 14.3799,-125.315 78.3615,-146.712 72.8197,-207.391 -2.60197,-28.4622 8.42717,-63.88 20.3362,-85.6808 2.54528,1.00158 5.23111,2.19921 7.91457,3.56693l-0.0696851 -0.0366142c-1.74567,-0.890552 -3.48544,-1.70551 -5.19567,-2.4378l-0.140551 -0.068504c-4.85315,-2.08583 -9.38505,-3.52677 -12.6626,-4.13386 -0.00354331,-0.0011811 -0.00590552,0 -0.00944883,0 -0.0011811,-0.0011811 0,-0.00354331 -0.00354331,-0.00354331 -1.13622,-0.209055 -2.12126,-0.316536 -2.91733,-0.316536 -0.340158,0 -0.647245,0.0188977 -0.914174,0.0614174l0 -0.0011811c-0.0437008,-0.00236221 -0.0874016,-0.00236221 -0.129921,-0.00236221l-0.0011811 0c-4.57205,0 -11.0339,7.61812 -17.1177,19.1917 -9.87284,18.7654 -18.7524,47.9233 -16.9736,71.8134 0.00472441,0.0614174 0.00944883,0.124016 0.0129921,0.185433 0.0259843,0.318898 0.0519685,0.636615 0.0814961,0.956694 0.00236221,0.046063 0.00590552,0.090945 0.0129921,0.13937 0.196063,2.16851 0.294095,4.27914 0.294095,6.34252 0.022441,48.2103 -51.737,69.6532 -63.75,174.365l0 0c-0.00708662,0.0555119 -0.0129921,0.111024 -0.0165354,0.166536 -0.00590552,0.0318898 -0.00944883,0.0649607 -0.0129921,0.0944883 0,0.0188977 -0.00354331,0.0318898 -0.00354331,0.0519685 -2.63032,23.7236 6.45355,36.9945 18.7406,43.1717l0.022441 0.0129921c5.34922,2.68347 11.302,4.0252 17.1662,4.27914zm98.6812 -303.614c-0.00236221,-0.00590552 -0.00944883,-0.00944883 -0.0129921,-0.011811l-0.0106299 -0.0106299c0.00708662,0.00708662 0.0177165,0.0165354 0.0236221,0.0236221l0 -0.0011811zm-2.40236 -2.10473l-0.0354331 -0.0330709c-0.170079,-0.137008 -0.335433,-0.272835 -0.505512,-0.407481 -0.548032,-0.434646 -1.11024,-0.864568 -1.68071,-1.2815l-0.0295276 -0.0236221c0.772442,0.56693 1.52362,1.15158 2.25236,1.74685l-0.0011811 -0.0011811zm-6.08268 -4.35709c-1.2378,-0.786615 -2.5063,-1.53307 -3.79252,-2.25118l-0.0992127 -0.0519685c1.31929,0.729922 2.62205,1.50118 3.89174,2.30315z"/>
   <path id="_352794288" class="fil14" d="M510.07 1509.1c1.45158,0 2.89488,-0.0661418 4.31457,-0.19252l0.290551 -0.0271654c0.840946,-0.0838583 1.67126,-0.178347 2.48977,-0.296457l0.555119 -0.0944883c0.718111,-0.105118 1.43622,-0.238583 2.13425,-0.388583l0.724016 -0.15c0.634252,-0.144095 1.25433,-0.3 1.87441,-0.46063l0.814961 -0.222047c0.568111,-0.175984 1.12795,-0.349607 1.67835,-0.542126l0.620079 -0.200788c-1.77874,-6.12638 -2.40473,-13.4835 -1.39725,-22.3016 12.5256,-109.189 68.2808,-127.838 63.4524,-180.704 -2.87835,-31.5626 13.4669,-72.9886 26.1685,-87.228 0.188977,0.728741 0.329528,1.46575 0.408662,2.20984 -0.0200788,-0.177165 -0.0401575,-0.351969 -0.0590552,-0.52441l-0.0980316 -0.602363c-0.090945,-0.501969 -0.205512,-1.00394 -0.346063,-1.5l-0.16063 -0.539764c-0.207874,-0.649607 -0.462992,-1.28504 -0.765355,-1.9252l-0.193701 -0.359055c-0.26811,-0.53504 -0.561024,-1.05709 -0.874016,-1.56969l-0.375591 -0.590552c-0.329528,-0.483071 -0.682678,-0.972048 -1.05118,-1.46457l-0.312992 -0.408662c-0.483071,-0.6 -0.99567,-1.19173 -1.54016,-1.7811l-0.434646 -0.448819c-0.438189,-0.455906 -0.887009,-0.903544 -1.35473,-1.35 -0.00590552,-0.00708662 -0.0153543,-0.0165354 -0.022441,-0.0236221l-0.531496 -0.483071c-0.578741,-0.52441 -1.1752,-1.04646 -1.79882,-1.55315l-0.0496063 -0.046063c-0.72756,-0.594095 -1.47756,-1.17756 -2.25118,-1.74567l-0.486615 -0.346063c-0.6,-0.431103 -1.20709,-0.855119 -1.8248,-1.27323l-0.490158 -0.323622c-0.34252,-0.22441 -0.683859,-0.445276 -1.02992,-0.667323 -1.27087,-0.80315 -2.57244,-1.57441 -3.89055,-2.30433l-0.330709 -0.179528c-0.768898,-0.421654 -1.53898,-0.84567 -2.32205,-1.23425l-0.0661418 -0.0389764c-2.68347,-1.36772 -5.36811,-2.56418 -7.91339,-3.56693 -11.9102,21.8008 -22.9382,57.2185 -20.3362,85.6808 5.54174,60.6792 -58.4398,82.076 -72.8197,207.391 -0.868111,7.56851 -0.705119,14.2228 0.294095,20.0351 5.3563,2.69292 11.3185,4.03111 17.1886,4.29213 0.0106299,0 0.0212599,0.00236221 0.0307087,0.00236221 0.0283465,0 0.0614174,0.00354331 0.0944883,0.00354331 0.664961,0.0259843 1.3311,0.0437008 1.9937,0.0437008zm17.7024 -3.43701l0.0330709 -0.0129921c0.0838583,-0.0366142 0.168898,-0.0755906 0.253937,-0.111024l0.0259843 -0.0129921c-0.103937,0.0448819 -0.207874,0.090945 -0.312992,0.137008l0 0zm2.4437 -1.17284l0.0661418 -0.0318898c0.0720473,-0.0389764 0.144095,-0.0755906 0.212599,-0.114567 0.0484252,-0.0295276 0.0980316,-0.0555119 0.146457,-0.0850394 -0.140551,0.0791339 -0.281103,0.158268 -0.424016,0.232677l-0.0011811 -0.0011811zm2.67756 -1.62165c0.0519685,-0.0318898 0.103937,-0.068504 0.153543,-0.103937 0.370866,-0.257481 0.726379,-0.525591 1.07008,-0.796064 -0.389764,0.305906 -0.796064,0.609449 -1.22362,0.900001zm81.3591 -282.877l0 0c0.00354331,-0.15 0.00708662,-0.302362 0.00354331,-0.453544 0.00236221,0.15 0,0.303544 -0.00354331,0.453544z"/>
   <path id="_352793808" class="fil4" d="M525.566 1506.53l0 0 0.292914 -0.116929c0.496063,-0.177165 0.973229,-0.366142 1.45276,-0.571654l0.46063 -0.175984c0.103937,-0.046063 0.209055,-0.0921261 0.312992,-0.137008l0.0921261 -0.046063c0.475985,-0.209055 0.920079,-0.440552 1.37953,-0.662599l0.659056 -0.327166c0.144095,-0.0744095 0.284646,-0.152362 0.425197,-0.231496 0.366142,-0.207874 0.712205,-0.420473 1.05827,-0.63189l0.63189 -0.388583c0.188977,-0.120473 0.379134,-0.242126 0.562205,-0.369685 0.427559,-0.290551 0.83504,-0.594095 1.22362,-0.900001l-0.0011811 0c16.3252,-20.8984 19.3217,-28.9099 27.4004,-47.9079l-0.0011811 0c0.805512,-1.90276 1.61929,-3.71811 2.43543,-5.44607 0.00236221,-0.00826772 0.00590552,-0.0106299 0.00944883,-0.0177165 0.011811,-0.0354331 0.0295276,-0.068504 0.046063,-0.100394 5.22402,-11.0587 10.6099,-18.7169 16.1221,-24.1937 -0.590552,-0.862205 -1.00866,-1.86378 -1.18819,-2.96339l-4.28859 -26.5311c-0.64252,-3.96851 2.0563,-7.70788 6.02835,-8.34804 0.394488,-0.0649607 0.790158,-0.0944883 1.17756,-0.0944883 3.50906,0 6.59646,2.53937 7.17166,6.11339l3.66733 22.676c3.00591,-1.5378 6.04134,-2.72835 9.10985,-3.75118 -0.0791339,-0.270473 -0.144095,-0.551575 -0.190158,-0.838583l-3.92363 -24.2847c-0.590552,-3.63307 1.8815,-7.05591 5.50394,-7.64646 0.357874,-0.0590552 0.718111,-0.0850394 1.07008,-0.0850394 3.22205,0 6.05434,2.32323 6.58583,5.60079l3.79843 23.511 0.00472441 0 0 -0.00354331c2.67874,-0.762993 5.39174,-1.60276 8.10709,-2.61378 -0.200788,-0.473622 -0.343701,-0.982678 -0.431103,-1.51181l-3.93071 -24.2977c-0.377953,-2.3563 0.525591,-4.62756 2.20394,-6.08977 -10.924,-8.82284 -19.5721,-19.9051 -18.763,-33.0709 1.39606,-22.676 2.66929,-52.3264 13.4976,-72.9922 6.33189,-12.0933 15.9638,-21.4618 26.8453,-29.3103 1.24252,1.04646 2.39764,2.14725 3.40985,3.27638 -7.92757,-8.91379 -24.0886,-14.889 -31.3406,-21.0543l-0.0011811 -0.0011811c0.00354331,-0.15 0.00708662,-0.302362 0.00354331,-0.453544 -0.00354331,-0.349607 -0.0259843,-0.694489 -0.0578741,-1.03701 -0.0791339,-0.744095 -0.219685,-1.4811 -0.408662,-2.20984 -12.7028,14.2394 -29.0457,55.6654 -26.1685,87.228 4.82835,52.8662 -50.9256,71.5146 -63.4524,180.704 -1.00866,8.81812 -0.381496,16.1752 1.39725,22.3016l0 -0.00472441 0 0.00708662zm109.533 -107.518c3.49488,-2.22402 6.99686,-4.97126 10.5307,-8.50512l0 -0.0011811c-0.0720473,-0.231496 -0.133465,-0.466536 -0.198425,-0.707481 -0.108662,-0.386221 -0.214961,-0.766536 -0.320079,-1.15158 -3.99803,-2.08583 -8.42009,-4.52363 -12.8728,-7.30158l2.86063 17.6669z"/>
   <path id="_352793568" class="fil5" d="M645.123 1388.65c-9.36615,-33.9071 -11.8004,-62.0587 -2.22756,-78.606 14.8394,-25.6559 43.7752,-14.9504 47.9304,-29.2488l-0.0011811 0c0,0 -2.91614,-1.80827 -7.74686,-5.36811 -7.4941,-5.52284 -19.6016,-15.2681 -32.5985,-29.0504 -0.00354331,-0.00354331 -0.0129921,-0.0129921 -0.0153543,-0.0165354 -0.0401575,-0.0389764 -0.0755906,-0.0779528 -0.114567,-0.120473 -0.00708662,-0.0106299 -0.0129921,-0.0165354 -0.0236221,-0.0259843 -0.0330709,-0.0330709 -0.0614174,-0.0661418 -0.0944883,-0.101575 -0.0129921,-0.0129921 -0.0248032,-0.0259843 -0.0377953,-0.0389764 -0.0307087,-0.0330709 -0.0602363,-0.0625985 -0.0897638,-0.0944883 -0.0295276,-0.0330709 -0.0614174,-0.0661418 -0.0897638,-0.0980316 -0.0212599,-0.0200788 -0.0366142,-0.0389764 -0.0555119,-0.0578741 -0.0307087,-0.0307087 -0.0590552,-0.0625985 -0.0897638,-0.0921261 -0.00590552,-0.0106299 -0.0153543,-0.0188977 -0.0212599,-0.0295276 -0.034252,-0.0330709 -0.0625985,-0.0625985 -0.0921261,-0.0944883 -0.00590552,-0.0106299 -0.0129921,-0.0165354 -0.022441,-0.0259843 -0.141732,-0.151181 -0.281103,-0.3 -0.421654,-0.45l0 -0.0011811c-1.08662,-1.16811 -2.17323,-2.35984 -3.26693,-3.58347 -0.00590552,-0.00354331 -0.00944883,-0.00590552 -0.0129921,-0.0129921 -0.0259843,-0.0295276 -0.0555119,-0.0614174 -0.0850394,-0.090945 -0.0129921,-0.0165354 -0.0259843,-0.0295276 -0.0389764,-0.046063 -0.0259843,-0.0307087 -0.0484252,-0.0555119 -0.0720473,-0.0814961 -0.0200788,-0.022441 -0.0389764,-0.046063 -0.0578741,-0.0649607 -0.0200788,-0.0236221 -0.0425197,-0.0496063 -0.0614174,-0.0720473 -0.0437008,-0.0425197 -0.0791339,-0.0885827 -0.121654,-0.129921l-0.0011811 -0.0011811c-1.01102,-1.12795 -2.16614,-2.22874 -3.40866,-3.2752 -10.8815,7.84725 -20.5134,17.2181 -26.8453,29.3103 -10.8284,20.6658 -12.1004,50.3162 -13.4976,72.9922 -0.809056,13.1658 7.84016,24.2492 18.763,33.0709 0.907087,-0.790158 2.03622,-1.3441 3.30945,-1.54725 0.354331,-0.0590552 0.711024,-0.0850394 1.06063,-0.0850394 3.21733,0 6.0567,2.32087 6.57875,5.59489l0.68504 4.23544c4.45276,2.77795 8.87481,5.21575 12.8728,7.30158l-0.0011811 -0.0011811c0.00354331,0.00354331 0.00826772,0.00354331 0.0129921,0.00708662z"/>
   <path id="_352793424" class="fil9" d="M586.529 1427.45c0.00944883,0 0.0200788,0 0.0295276,0 -0.0106299,0 -0.0200788,0 -0.0295276,0zm0.0318898 -0.00472441c0.244488,-0.0129921 0.490158,-0.0377953 0.73819,-0.080315 3.57284,-0.571654 6.12638,-3.67559 6.1193,-7.18701 0.00590552,3.51142 -2.54528,6.61536 -6.1193,7.18701 -0.248032,0.0425197 -0.493701,0.0673229 -0.73819,0.080315z"/>
   <path id="_352793352" class="fil10" d="M586.13 1427.46c0.129921,0 0.265748,-0.00236221 0.399213,-0.00826772 0.00944883,0 0.0200788,0 0.0295276,0 0.00236221,-0.00472441 0.00354331,-0.00472441 0.00354331,-0.00472441 0.243307,-0.0129921 0.488977,-0.0377953 0.737008,-0.080315 3.57284,-0.571654 6.12638,-3.67559 6.1193,-7.18701 -0.00472441,-0.382677 -0.0330709,-0.766536 -0.0944883,-1.15158l0 0 -0.627166 -3.87048 -3.66851 -22.676c-0.574016,-3.57402 -3.66142,-6.11339 -7.17048,-6.11339 -0.387402,0 -0.783071,0.0295276 -1.17756,0.0944883 -3.97205,0.640158 -6.67087,4.37953 -6.02717,8.34922l4.2874 26.5299c0.179528,1.09961 0.597638,2.10118 1.18819,2.96339 0.00590552,0.00944883 0.0129921,0.0188977 0.0200788,0.0295276 0.00236221,-0.00708662 0.00590552,-0.0106299 0.00944883,-0.0129921 1.33701,1.92166 3.5504,3.13937 5.97166,3.13819z"/>
   <path id="_352793208" class="fil10" d="M608.193 1416.16c0.349607,0 0.708662,-0.0295276 1.06772,-0.0874016l0 -0.0011811c3.27284,-0.525591 5.60906,-3.36142 5.60315,-6.5752 0,-0.349607 -0.0283465,-0.701575 -0.0838583,-1.05473l0 0 -0.12874 -0.783071 -3.79843 -23.511c-0.531496,-3.27756 -3.36378,-5.60079 -6.58583,-5.60079 -0.35315,0 -0.711024,0.0259843 -1.07008,0.0850394 -3.62362,0.589371 -6.09449,4.01339 -5.50276,7.64646l3.92244 24.2847c0.0448819,0.287008 0.111024,0.568111 0.190158,0.838583 0.00236221,0 0.00236221,0 0.00236221,0.00354331 0.00590552,-0.00354331 0.0165354,-0.00590552 0.0271654,-0.00944883 0.840946,2.82638 3.42874,4.76457 6.3567,4.76457z"/>
   <path id="_352793712" class="fil9" d="M628.914 1409.12c0.348425,0 0.701575,-0.0259843 1.05827,-0.0850394 3.2752,-0.525591 5.60552,-3.36851 5.59607,-6.58938 0.00944883,3.22087 -2.32087,6.06378 -5.59607,6.58938 -0.357874,0.0543308 -0.708662,0.0850394 -1.06181,0.0850394 -0.0980316,0 -0.196063,-0.00354331 -0.290551,-0.00708662 0.0968505,0.00354331 0.196063,0.00708662 0.294095,0.00708662l0 0zm-0.303544 -0.00708662c-0.00708662,0 -0.0129921,0 -0.0200788,0 0.00708662,0 0.0129921,0 0.0200788,0z"/>
   <path id="_352793184" class="fil10" d="M628.909 1409.12c0.35315,0 0.7063,-0.0295276 1.06299,-0.0850394 3.2752,-0.525591 5.60552,-3.36851 5.59607,-6.58938 0,-0.349607 -0.0295276,-0.701575 -0.0850394,-1.05709l-0.383859 -2.38229 -2.86063 -17.6669 -0.68504 -4.23544c-0.523229,-3.2752 -3.36142,-5.59489 -6.57875,-5.59489 -0.349607,0 -0.705119,0.0271654 -1.06063,0.0850394 -1.27323,0.20315 -2.40236,0.757087 -3.30945,1.54725 -1.67835,1.46102 -2.58189,3.73347 -2.20276,6.08977l3.92835 24.2977c0.0885827,0.529134 0.232677,1.03819 0.432284,1.51181 0.00826772,-0.00354331 0.0153543,-0.00590552 0.0212599,-0.00590552 0.99567,2.35158 3.25158,3.95197 5.8063,4.07835 0.00708662,0 0.0129921,0 0.0200788,0 0.00354331,0 0.00708662,0 0.00944883,0 0.0944883,0.00354331 0.19252,0.00708662 0.28937,0.00708662z"/>
   <path id="_352793544" class="fil15" d="M1032.26 652.01c-3.47126,35.7733 34.0181,44.0115 75.8528,48.0744 41.8465,4.06654 52.0087,45.6426 55.4823,9.8752 0,0 11.8465,-109.786 14.8394,-215.734 1.01457,-35.9268 -2.2004,-60.5776 -44.0339,-64.6406 -41.8441,-4.06418 -90.6875,17.3563 -90.6875,53.2961 0,121.708 -11.452,169.129 -11.4532,169.129z"/>
   <path id="_352793040" class="fil0" d="M1043.85 512.347c-3.69803,34.7268 67.1398,100.6 122.059,102.027l12.1595 -0.42874c54.9178,1.42677 100.6,-41.9339 102.026,-96.8552l2.87835 -110.61c7.75749,-111.419 -41.928,-100.598 -96.8493,-102.028l-37.376 0.433465c-54.9119,-1.43268 -100.589,41.9292 -102.025,96.854l-2.87244 110.608z"/>
   <path id="_352793064" class="fil3" d="M1044.21 498.892c-98.3221,-200.235 44.687,-253.055 113.152,-241.357 208.129,8.65631 118.145,93.5883 124.726,101.192 -202.292,-41.4461 -161.858,80.5028 -199.27,83.5371 -37.4244,3.03544 -12.4961,43.4752 -38.6079,56.628z"/>
   <path id="_352793640" class="fil0" d="M1031.28 459.411c0,18.4134 14.9185,33.3355 33.326,33.3355 18.4087,0 33.3355,-14.9221 33.3355,-33.3355 -0.0011811,-18.4075 -14.9256,-33.3284 -33.3355,-33.3284 -18.4075,-0.0011811 -33.326,14.9221 -33.326,33.3284z"/>
   <path id="_352793112" class="fil16" d="M1043.66 497.769l0 0c-1.75866,-3.60591 -3.44528,-7.17638 -5.04449,-10.6878 1.59921,3.51496 3.28347,7.07953 5.04567,10.6878l-0.0011811 0zm-5.113 -10.8354c-0.00354331,-0.00944883 -0.0129921,-0.0318898 -0.0188977,-0.0425197 0.00590552,0.0129921 0.0129921,0.0307087 0.0188977,0.0425197z"/>
   <path id="_352792224" class="fil17" d="M1043.79 513.02c0,-0.00354331 0.0011811,-0.00590552 0.0011811,-0.0129921 -0.0011811,0.00236221 0,0.00944883 0,0.0141732l-0.0011811 -0.0011811zm0.0165354 -0.205512c0,-0.0129921 0,-0.0200788 0.00354331,-0.0330709 -0.00354331,0.0129921 -0.00354331,0.0200788 -0.00354331,0.0330709zm0.00708662 -0.0850394c0.00236221,-0.0129921 0.00354331,-0.0259843 0.00354331,-0.0389764 -0.0011811,0.0129921 0,0.0271654 -0.00354331,0.0401575l0 -0.0011811zm0.00944883 -0.0838583c0,-0.0271654 0.00354331,-0.0555119 0.00708662,-0.0791339 -0.00354331,0.022441 -0.00708662,0.0531496 -0.00708662,0.0791339zm0.00944883 -0.11811c0.00354331,-0.0200788 0.00354331,-0.0366142 0.00708662,-0.0555119 -0.00354331,0.0153543 -0.00354331,0.0366142 -0.00590552,0.0555119l-0.0011811 0zm0.0106299 -0.0921261c0.00236221,-0.0295276 0.00590552,-0.0578741 0.00944883,-0.0874016 -0.00354331,0.0283465 -0.00590552,0.0578741 -0.00944883,0.0874016l0 0zm0.359055 -13.5496l0 0c-0.184252,-0.373229 -0.362599,-0.73819 -0.54567,-1.11732l-0.0011811 0c0.180709,0.372048 0.36378,0.745276 0.546851,1.11732z"/>
   <path id="_352792872" class="fil0" d="M811.411 727.879c-34.8744,14.8689 -51.0981,55.1859 -36.2292,90.0615 14.863,34.8709 50.7827,20.4461 85.6654,5.58071l233.564 -67.2225c34.8697,-14.863 51.0898,-55.1882 36.2209,-90.0603 -14.8654,-34.8733 -55.193,-51.0898 -90.0544,-36.228l-229.167 97.8686z"/>
   <path id="_352792728" class="fil18" d="M972.879 658.92l67.6985 -28.9099c34.8614,-14.863 75.189,1.35473 90.0544,36.228 14.8689,34.8721 -1.35118,75.1973 -36.2197,90.0615l-122.245 36.6768 0.712205 -134.056z"/>
   <path id="_352792536" class="fil0" d="M797.44 997.729c1.09134,25.291 17.9575,30.0886 43.2473,28.9914 25.2803,-1.08071 33.9071,1.55315 32.817,-23.7295l-2.45197 -218.501c-1.46811,-33.952 -9.48308,-59.1567 -43.4492,-57.6851 -33.9626,1.46811 -59.0847,22.0855 -58.8308,64.1445 0.305906,52.1327 28.6677,206.779 28.6677,206.779z"/>
   <path id="_352792488" class="fil0" d="M879.05 1039.71c-5.89016,1.82126 -9.18662,8.06812 -7.36182,13.963l11.6575 39.5481c1.82126,5.88189 8.07875,9.17835 13.9571,7.36772 5.89016,-1.83189 9.19016,-8.0752 7.37481,-13.9654l-11.661 -39.5469c-1.8248,-5.89371 -8.07048,-9.18426 -13.9665,-7.36654z"/>
   <path id="_352792656" class="fil0" d="M808.981 1051.88c-6.04252,1.86969 -9.43347,8.28544 -7.56615,14.3244l11.9504 40.4622c1.86851,6.04371 8.2819,9.4252 14.3162,7.55906 6.05079,-1.86732 9.4382,-8.29016 7.56851,-14.3339l-11.9421 -40.4469c-1.87323,-6.04489 -8.28308,-9.43583 -14.3268,-7.56497z"/>
   <path id="_352792848" class="fil0" d="M856.895 1046.57c-6.34489,1.95827 -9.90591,8.68938 -7.9441,15.0366l12.5091 42.28c1.96181,6.34489 8.70119,9.88583 15.0425,7.9382 6.35197,-1.96181 9.90237,-8.6882 7.94764,-15.0461l-12.5067 -42.274c-1.96417,-6.34843 -8.69764,-9.91182 -15.0484,-7.93465z"/>
   <path id="_352792344" class="fil0" d="M833.229 1051.47c-6.34843,1.95827 -9.90828,8.6941 -7.94056,15.0425l12.5032 42.2681c1.96181,6.34489 8.70119,9.90473 15.0461,7.94056 6.34725,-1.95827 9.90828,-8.6882 7.94056,-15.039l-12.5008 -42.2776c-1.96417,-6.34843 -8.69646,-9.90237 -15.0484,-7.93465z"/>
   <path id="_352792800" class="fil0" d="M895.869 1061.9c0,0 3.64961,-18.841 3.0815,-25.1587 -3.43701,-38.7118 -47.954,-56.7886 -72.352,-49.2532 -36.5481,11.302 -35.4768,48.267 -27.9307,72.6816l6.14764 16.9559 91.0536 -15.2256z"/>
   <path id="_352792560" class="fil19" d="M866.696 1082.48c3.9815,0 7.19882,-3.21496 7.19882,-7.18938 -0.0011811,-0.603544 -0.0744095,-1.19173 -0.218504,-1.74921 -3.42402,0.775985 -6.92835,1.15158 -10.4433,1.15158 -1.22835,0 -2.46142,-0.0448819 -3.6874,-0.137008 -0.0236221,0.242126 -0.0366142,0.486615 -0.0366142,0.734646 0,3.97441 3.21733,7.18938 7.18701,7.18938z"/>
   <path id="_352791624" class="fil19" d="M888.484 1075.76c1.12559,0 2.27244,-0.263386 3.33898,-0.820867 3.52205,-1.84252 4.87559,-6.19252 3.03189,-9.71339 -0.376772,-0.724016 -0.864568,-1.36063 -1.43268,-1.88977 -1.19173,1.20354 -2.52047,2.2748 -3.913,3.22796 -1.64291,1.17047 -3.39803,2.15433 -5.18622,3.06733 -0.884646,0.424016 -1.75866,0.851575 -2.6504,1.25669 0.120473,0.346063 0.264567,0.688583 0.434646,1.02165 1.28504,2.45079 3.78544,3.85158 6.37678,3.8504z"/>
   <path id="_352791456" class="fil20" d="M896.698 1057.33c-0.323622,1.9748 -1.7126,3.51851 -3.08622,4.83662 -1.4374,1.31102 -3.05315,2.4189 -4.75985,3.3626 -1.69134,0.968505 -3.4689,1.77756 -5.24174,2.59134 -1.80473,0.739371 -3.62126,1.51654 -5.4626,2.03622 -3.68622,1.10197 -7.55197,1.62756 -11.4036,1.81417 -3.85158,0.191339 -7.73505,-0.0200788 -11.4886,-0.760631 -3.71103,-0.757087 -7.4504,-1.9748 -10.2602,-4.17756 -1.41732,-1.06417 -2.52284,-2.39646 -3.02244,-3.91654 -0.0850394,-0.38504 -0.227953,-0.762993 -0.240945,-1.16811l-0.0531496 -0.53504 0.0188977 -0.745276c0.0555119,-0.655512 0.27874,-1.50354 0.666142,-2.13662 0.773623,-1.34173 2.23701,-2.3374 3.90473,-2.97047 1.67008,-0.640158 3.53386,-0.951969 5.40709,-1.07599 3.75591,-0.236221 7.65001,0.15 11.3185,1.24606l0.022441 0.00590552c0.525591,0.157087 1.08071,-0.13937 1.23425,-0.664961 0.127559,-0.431103 -0.0519685,-0.881103 -0.414567,-1.11614 -0.666142,-0.425197 -1.3937,-1.05827 -2.03032,-1.68189 -0.629528,-0.656693 -1.2437,-1.33701 -1.76457,-2.09528 -1.06181,-1.49882 -1.93937,-3.13583 -2.59843,-4.88504 -0.26811,-0.890552 -0.6,-1.7752 -0.757087,-2.70236 -0.225591,-0.916536 -0.336614,-1.85315 -0.431103,-2.79685 -0.179528,-1.88977 -0.140551,-3.80197 0,-5.72481 -0.372048,1.88386 -0.688583,3.80551 -0.659056,5.75079 0.00944883,0.975591 0.0318898,1.95473 0.175984,2.92441 0.0720473,0.981497 0.329528,1.93583 0.531496,2.90433 0.284646,0.946064 0.562205,1.90394 0.969686,2.81339 0.377953,0.916536 0.858662,1.80591 1.40079,2.64095 0.52441,0.857481 1.15158,1.64764 1.81181,2.41418 0.693308,0.754725 1.37362,1.44331 2.2878,2.10827l0.844489 -1.77638c-3.85394,-1.35709 -7.93465,-2.10945 -12.0827,-1.95709 -2.06929,0.100394 -4.16339,0.399213 -6.21024,1.12913 -2.01732,0.731103 -4.09961,1.96772 -5.38111,4.06772 -0.636615,1.05945 -0.999213,2.16024 -1.11969,3.47126l-0.0295276 0.73819c0.00236221,0.420473 0.0295276,0.627166 0.0484252,0.947245 0.022441,0.585827 0.196063,1.16457 0.333071,1.73858 0.701575,2.28425 2.23937,4.12559 3.96851,5.4437 3.52205,2.62323 7.59449,3.78544 11.5961,4.5437 8.05394,1.37244 16.3665,0.829134 24.0461,-1.91221 1.94173,-0.669686 3.7252,-1.55433 5.53583,-2.42599 1.78819,-0.912993 3.54449,-1.89567 5.18622,-3.06733 1.65709,-1.13504 3.22441,-2.43189 4.57914,-3.92953 1.32047,-1.4752 2.54173,-3.29292 2.61024,-5.3067z"/>
   <path id="_352791960" class="fil20" d="M831.26 1083.05c0,0 0.0696851,-0.914174 -0.0283465,-2.51693 -0.137008,-1.59213 -0.303544,-3.90591 -1.05945,-6.60827 -0.354331,-1.35118 -0.882284,-2.8004 -1.6063,-4.27796 -0.777166,-1.44331 -1.69016,-3.00591 -3.13701,-4.26969 -1.3441,-1.3311 -3.2504,-2.32323 -5.27363,-2.68583l-1.54016 -0.172441c-0.708662,-0.0531496 -0.973229,0.0248032 -1.47874,0.0318898 -0.84567,-0.0141732 -1.95827,0.232677 -2.98347,0.427559 -1.97126,0.577559 -3.85158,1.63819 -5.27363,3.13701 -1.48937,1.46693 -2.24882,3.3874 -2.76732,5.14961 -0.536221,1.79764 -0.565748,3.57048 -0.542126,5.20276 0.0519685,1.63701 0.281103,3.15236 0.587008,4.51654 0.577559,2.74134 1.48819,4.87205 2.08229,6.35079 0.664961,1.46221 1.08425,2.27126 1.08425,2.27126 0,0 -0.166536,-0.907087 -0.519685,-2.45079 -0.343701,-1.54016 -0.705119,-3.77953 -0.923623,-6.42284 -0.10748,-1.3252 -0.124016,-2.75079 -0.046063,-4.22953 0.124016,-1.47284 0.323622,-3.0189 0.836221,-4.46457 0.501969,-1.44331 1.22717,-2.84646 2.31732,-3.89055 1.06299,-1.06654 2.44134,-1.81181 3.95551,-2.23937 1.35354,-0.34252 3.37087,-0.583465 4.72559,-0.329528 1.46221,0.261024 2.88544,0.790158 4.01103,1.81181 2.3563,1.88622 3.79607,4.7126 4.85315,7.10552 1.0311,2.44016 1.72914,4.60158 2.11772,6.12874 0.411024,1.53071 0.61063,2.42481 0.609449,2.42481z"/>
   <path id="_352791912" class="fil20" d="M835.759 1100.07c0,0 -0.479528,-2.49685 -1.1941,-6.24686 -0.702756,-3.70748 -1.6878,-8.6256 -2.03386,-13.4917 -0.11811,-1.22126 -0.142913,-2.42953 -0.131102,-3.60709 0.0755906,-1.16811 0.0814961,-2.33032 0.301181,-3.39803 0.344882,-2.16614 1.13504,-4.00748 2.29488,-5.25119 0.557481,-0.636615 1.2,-1.1315 1.83071,-1.48465 0.612993,-0.408662 1.23898,-0.590552 1.73504,-0.822048 1.06417,-0.320079 1.67244,-0.506693 1.67244,-0.506693 -0.0011811,0 -0.630709,-0.0767717 -1.78583,-0.0874016 -0.565748,0.0779528 -1.29213,0.0614174 -2.07638,0.346063 -0.796064,0.207874 -1.70079,0.597638 -2.53229,1.24725 -1.7563,1.22599 -3.13347,3.49488 -3.7441,5.9752 -0.694489,2.48977 -0.755906,5.18859 -0.589371,7.80355 0.401575,5.25 1.94173,10.2154 3.39685,13.7764 1.44213,3.57284 2.85591,5.74725 2.85591,5.74725z"/>
   <path id="_352792152" class="fil20" d="M859.962 1098.92c0,0 0.349607,-1.83071 0.338977,-4.55315 0.0129921,-2.72481 -0.309449,-6.34371 -1.15748,-9.89174 -0.464174,-1.76221 -0.95315,-3.52914 -1.64291,-5.11772 -0.640158,-1.60276 -1.39961,-3.05551 -2.22756,-4.19646 -0.362599,-0.595276 -0.787796,-1.09134 -1.19173,-1.50591 -0.382677,-0.427559 -0.718111,-0.786615 -1.07126,-1.02047 -0.666142,-0.493701 -1.0441,-0.731103 -1.0441,-0.731103 0,0 0.209055,0.403937 0.577559,1.1126 0.348425,0.690945 0.783071,1.6937 1.18228,2.9374 0.831497,2.45669 1.66654,5.8193 2.46969,9.22678 0.829134,3.39685 1.64528,6.83977 2.38937,9.4252 0.718111,2.58307 1.37717,4.31457 1.37717,4.31457z"/>
   <path id="_352791864" class="fil20" d="M883.448 1093.41c0,0 0.157087,-1.50354 -0.0188977,-3.67087 -0.157087,-2.17087 -0.620079,-5.0067 -1.38071,-7.77402 -0.777166,-2.76142 -1.80473,-5.45315 -2.90197,-7.38898 -0.982678,-1.9689 -2.23819,-3.02599 -2.16378,-3.00945 0,0 0.0496063,0.372048 0.138189,1.0252 0.122835,0.609449 0.22441,1.48465 0.380315,2.56181 0.173622,1.04764 0.380315,2.27126 0.65315,3.57402 0.26811,1.30158 0.623623,2.67284 0.973229,4.04646 0.768898,2.72599 1.72323,5.4189 2.62087,7.38898 0.870473,1.98071 1.69961,3.24685 1.69961,3.24685z"/>
   <path id="_352791816" class="fil19" d="M843.03 1085.72c3.97205,0 7.20591,-3.2315 7.20591,-7.20355 0,-3.96614 -3.23386,-7.18583 -7.20591,-7.18583 -3.96851,-0.0011811 -7.19646,3.22087 -7.19646,7.18583 0,3.97205 3.22796,7.20355 7.19646,7.20355z"/>
   <path id="_352791528" class="fil9" d="M824.299 1114.75c0.00354331,0 0.00472441,0 0.00826772,0 -0.00472441,0 -0.00354331,0 -0.00708662,0l-0.0011811 0zm-0.0578741 0c-4.8626,-0.0271654 -9.36379,-3.17481 -10.8744,-8.0752l-0.0011811 0c1.51181,4.89922 6.013,8.04922 10.8768,8.0752l-0.0011811 0zm3.44055 -0.516142l0 0c0.611811,-0.188977 1.19764,-0.424016 1.74921,-0.698032 -0.5563,0.274016 -1.13622,0.509056 -1.74921,0.698032l0 0zm1.77756 -0.715749c0.00708662,-0.00236221 0.0177165,-0.00472441 0.0236221,-0.00944883 -0.00708662,0.00472441 -0.0153543,0.00708662 -0.0236221,0.0106299l0 -0.0011811zm8.33268 -4.72796l0 0 -2.18622 -7.38898c0,0 0,0 0,0.00354331l2.18622 7.38544zm-40.3524 -111.057l0 0c0,0 -28.3607,-154.645 -28.6677,-206.779 0,-0.0696851 0,-0.133465 0,-0.205512 0,0.0708662 0,0.137008 0,0.205512 0.305906,52.1327 28.6677,206.779 28.6677,206.779l0 0zm-28.6677 -207.106c0,-0.0236221 0,-0.0519685 0,-0.0744095 0,0.0259843 0,0.0484252 0,0.0744095zm41.9481 -62.4437c0.231496,-0.101575 0.46063,-0.201969 0.692127,-0.3 -0.231496,0.0968505 -0.462992,0.198425 -0.692127,0.3z"/>
   <path id="_352791696" class="fil21" d="M824.299 1114.75c0.00354331,0 0.00472441,0 0.00826772,0 1.11496,-0.00354331 2.25473,-0.166536 3.37441,-0.516142l0 0c0.611811,-0.188977 1.1941,-0.424016 1.74921,-0.698032 0.00944883,-0.00708662 0.0200788,-0.0106299 0.0283465,-0.0165354 0.00708662,-0.00354331 0.0177165,-0.00590552 0.0236221,-0.0106299 4.60866,-2.33386 7.0819,-7.54725 5.95276,-12.6791l0.170079 0.575197c0,-0.00354331 0,-0.00354331 0,-0.00354331l-0.989765 -3.35197c-0.494882,-0.95315 -1.10197,-2.21221 -1.7126,-3.72638 -1.42677,-3.49016 -2.93386,-8.32323 -3.37087,-13.4599l-2.22047 -7.49764 -2.14725 0.362599c0.956694,1.35827 1.51772,3.01299 1.51772,4.79764 0,4.61811 -3.73701,8.35276 -8.34804,8.35276 -4.60985,-0.0011811 -8.35512,-3.73465 -8.35512,-8.35276 0,-0.80315 0.114567,-1.57914 0.325985,-2.31378l-2.47677 0.413386c-0.0720473,1.4374 -0.0519685,2.82166 0.0519685,4.11024 0.218504,2.64331 0.581103,4.88268 0.923623,6.42284 0.351969,1.5437 0.519685,2.45079 0.519685,2.45079 0,0 -0.418111,-0.809056 -1.08425,-2.27126 -0.594095,-1.47874 -1.50354,-3.60945 -2.08229,-6.35079 -0.275197,-1.21772 -0.485433,-2.55236 -0.564567,-3.98859l-0.777166 0.131102 -0.933072 -2.57599 9.48308 32.1213c1.51181,4.89922 6.013,8.04922 10.8768,8.0752 0.0188977,0 0.0389764,0 0.056693,0z"/>
   <path id="_352792008" class="fil21" d="M837.792 1108.79l-4.76221 -36.378 -0.155906 0.0259843c-0.0649607,0.288189 -0.124016,0.584646 -0.172441,0.88819 -0.219685,1.06654 -0.225591,2.22992 -0.301181,3.39803 -0.011811,1.17756 0.0129921,2.38583 0.131102,3.60709 0.344882,4.86615 1.3311,9.78426 2.03386,13.4917 0.713386,3.75 1.1941,6.24686 1.1941,6.24686 0,0 -0.470079,-0.721654 -1.14331,-2.02087l0.989765 3.35197 2.18622 7.38898zm-8.25946 -27.9284c-0.0106299,-0.103937 -0.0200788,-0.210236 -0.0259843,-0.315355 -0.0791339,-1.22126 -0.105118,-2.46142 -0.0425197,-3.68859 -0.275197,-0.744095 -0.584646,-1.53662 -0.930709,-2.35866 -0.179528,-0.401575 -0.364961,-0.819686 -0.571654,-1.24134l-0.649607 0.10748 2.22047 7.49646zm0.43937 -7.64646c0.0236221,-0.103937 0.0496063,-0.205512 0.0791339,-0.305906l-0.164173 0.0283465c0.0295276,0.0921261 0.056693,0.183071 0.0850394,0.277559z"/>
   <path id="_352791720" class="fil22" d="M809.324 1089.6c0,0 -0.166536,-0.907087 -0.519685,-2.45079 -0.343701,-1.54016 -0.705119,-3.77953 -0.923623,-6.42284 -0.105118,-1.28976 -0.124016,-2.67284 -0.0519685,-4.10906 0.00354331,-0.0425197 0.00590552,-0.0814961 0.00590552,-0.120473 0.124016,-1.47284 0.323622,-3.0189 0.836221,-4.46457 0.501969,-1.44331 1.22717,-2.84646 2.31732,-3.89055 1.06299,-1.06654 2.44134,-1.81181 3.95551,-2.23937 0.962599,-0.244488 2.25591,-0.435827 3.40985,-0.435827 0.473622,-0.0011811 0.924804,0.0318898 1.31575,0.106299 1.46221,0.261024 2.88544,0.790158 4.01103,1.81181 1.95827,1.56614 3.28347,3.78544 4.2815,5.86418 0.205512,0.421654 0.392126,0.839764 0.571654,1.24134 0.346063,0.822048 0.656693,1.61457 0.930709,2.35866 0.0614174,-1.23662 0.217323,-2.46024 0.507874,-3.64252 -0.0295276,-0.0944883 -0.0555119,-0.185433 -0.0838583,-0.276378 -0.333071,-1.06063 -0.770079,-2.16732 -1.32165,-3.28937 -0.777166,-1.44331 -1.69016,-3.00591 -3.13701,-4.26969 -1.3441,-1.3311 -3.2504,-2.32323 -5.27363,-2.68583l-1.54016 -0.172441c-0.177165,-0.0129921 -0.327166,-0.0177165 -0.46063,-0.0177165 -0.39567,0 -0.640158,0.0472441 -1.01811,0.0496063 -0.022441,0 -0.0425197,0 -0.0614174,0 -0.840946,0 -1.92047,0.238583 -2.92205,0.427559 -1.97126,0.577559 -3.85158,1.63819 -5.27363,3.13701 -1.48937,1.46693 -2.24882,3.3874 -2.76732,5.14961 -0.536221,1.79764 -0.565748,3.57048 -0.542126,5.20276 0.00590552,0.178347 0.0129921,0.355512 0.022441,0.527953 0.0779528,1.43622 0.290551,2.77087 0.564567,3.98859 0.577559,2.74134 1.48819,4.87205 2.08229,6.35079 0.664961,1.46221 1.08425,2.27126 1.08425,2.27126z"/>
   <path id="_352791360" class="fil22" d="M835.759 1100.07c0,0 -0.479528,-2.49685 -1.1941,-6.24686 -0.702756,-3.70748 -1.6878,-8.6256 -2.03386,-13.4917 -0.11811,-1.22126 -0.142913,-2.42953 -0.131102,-3.60709 0.0755906,-1.16811 0.0814961,-2.33032 0.301181,-3.39803 0.0484252,-0.303544 0.10748,-0.6 0.173622,-0.887009 0.0307087,-0.147638 0.0637796,-0.290551 0.102756,-0.431103l-0.522048 -3.97796c-1.08662,1.25669 -1.92166,2.92677 -2.35984,4.7126 -0.0165354,0.0543308 -0.0318898,0.111024 -0.0448819,0.166536 -0.0295276,0.100394 -0.0555119,0.20315 -0.0791339,0.305906 -0.290551,1.18228 -0.446457,2.40709 -0.507874,3.64252 -0.0625985,1.22717 -0.0366142,2.46732 0.0425197,3.68859 0.00472441,0.103937 0.0165354,0.211417 0.0259843,0.316536 0.435827,5.13662 1.94528,9.96969 3.37087,13.4599 0.61063,1.51299 1.21772,2.77323 1.7126,3.72638 0.673229,1.29921 1.14331,2.02087 1.14331,2.02087z"/>
   <path id="_352790712" class="fil23" d="M818.334 1086.87c4.61103,0 8.34804,-3.73347 8.34804,-8.35158 0,-1.78465 -0.561024,-3.43937 -1.51772,-4.79764l-14.8595 2.48386c-0.212599,0.734646 -0.325985,1.51063 -0.325985,2.31378 0,4.61811 3.74646,8.35276 8.35512,8.35158z"/>
   <path id="_352791144" class="fil23" d="M810.305 1076.21l14.8595 -2.48386c-1.51063,-2.14843 -4.00748,-3.5504 -6.83032,-3.5504 -3.80551,-0.0011811 -7.02284,2.55236 -8.02914,6.03426z"/>
   <path id="_352790904" class="fil24" d="M986.877 1022.21c-4.82717,-0.818505 -9.65316,-1.63819 -14.4874,-2.45788 7.53308,-54.4217 61.3997,-415.786 67.4375,-426.618 1.45276,-5.64213 21.1193,35.6894 129.973,49.8331 30.2859,30.9886 49.8166,67.4705 62.8808,114.944 15.3555,55.7989 -13.2307,291.123 -14.5358,303.992 -85.2473,-11.6256 -143.221,-24.7169 -231.268,-39.6933z"/>
   <path id="_352791240" class="fil25" d="M893.55 1246.29l62.5371 -174.586 0.0496063 -0.144095c7.38898,-20.6327 14.0339,-41.1839 17.9634,-63.8776 11.8465,3.11457 24.9567,6.80906 36.8103,9.90473 47.0741,12.2917 94.317,23.8453 141.467,35.8488 26.3185,6.70512 38.2642,12.0898 65.0103,16.8768 -1.60276,18.3827 -0.514961,16.9642 -0.514961,16.9642l-49.7056 74.9623c-1.87914,5.04095 -4.24961,10.1504 -7.13504,15.3095l-76.6477 180.999c-44.4579,-31.017 -145.37,-81.2446 -189.834,-112.258z"/>
   <path id="_352791048" class="fil26" d="M997.664 1307.57l0 0c-1.06417,-0.601182 -2.13189,-1.19764 -3.19843,-1.79528 1.6311,0.914174 2.76732,1.55433 3.19843,1.79528z"/>
   <path id="_352791000" class="fil27" d="M956.89 1284.69c-2.18622,-1.23662 -4.35237,-2.46732 -6.50315,-3.69331l-3.31418 -1.8815 2.41536 1.37126c2.10591,1.20473 4.22717,2.40236 6.37441,3.62244l1.02756 0.581103z"/>
   <path id="_352790664" class="fil16" d="M894.492 1246.95l0 0c-0.316536,-0.222047 -0.629528,-0.437008 -0.943702,-0.655512l0 -0.0011811c0.312992,0.219685 0.627166,0.434646 0.943702,0.656693z"/>
   <path id="_352791072" class="fil28" d="M894.496 1246.95l0 0 -0.00354331 0c0,0 0.00354331,0 0.00354331,0z"/>
   <path id="_352790088" class="fil27" d="M947.072 1279.12l0.00708662 -0.00944883c-20.4992,-11.7331 -39.0331,-22.7929 -52.5839,-32.1603l0 0c13.5473,9.36733 32.0882,20.4414 52.5815,32.1638l-0.00472441 0.00590552z"/>
   <path id="_352789920" class="fil29" d="M1072.28 1019.48l41.4118 -159.893 -23.3221 -36.8256 -52.793 -83.3469c-7.11142,-11.25 -10.5047,-23.7921 -10.5047,-36.1843l0 -0.0011811c0.00236221,-22.4693 11.1638,-44.4496 31.5626,-57.352 0.120473,-0.0779528 0.240945,-0.152362 0.364961,-0.227953 0.0129921,-0.00944883 0.0295276,-0.0200788 0.0425197,-0.0295276 11.139,-6.93544 23.5158,-10.2473 35.7544,-10.2508 0.00236221,-0.0011811 0.00826772,0 0.0129921,0l0 -0.0011811c0.00826772,0 0.0188977,0.0011811 0.0259843,0.0011811 22.0229,0.00944883 43.5697,10.741 56.5619,30.3709 0.046063,0.068504 0.0885827,0.134646 0.134646,0.20315 0.0318898,0.0472441 0.0614174,0.0980316 0.0944883,0.146457 0.00590552,0.00708662 0.00944883,0.0165354 0.0165354,0.0236221 0.0543308,0.0874016 0.113386,0.175984 0.172441,0.263386 0.116929,0.186614 0.23504,0.369685 0.35315,0.555119l7.41733 15.4595 10.213 -39.4229c-101.976,-13.2496 -125.681,-50.3575 -129.461,-50.3575 -0.255118,0 -0.421654,0.170079 -0.512599,0.525591 -5.39174,9.67678 -48.991,299.306 -63.5705,399.612l96.0249 26.7319zm-98.1816 -11.7945c0,0 0.0011811,0 0.0011811,0l-0.0011811 0zm0.0755906 -0.53504l2.01024 -13.9099c-0.751182,5.17205 -1.42677,9.83032 -2.01024,13.9099z"/>
   <path id="_352790520" class="fil9" d="M1217.39 1070.32c0.333071,-2.42835 0.551575,-5.19804 0.686221,-7.2378 -0.134646,2.04213 -0.355512,4.82008 -0.686221,7.2378l0 0z"/>
   <path id="_352790256" class="fil30" d="M1217.39 1070.32c0.329528,-2.41772 0.551575,-5.19567 0.686221,-7.2378 0.0295276,-0.42874 0.0519685,-0.819686 0.0720473,-1.17165l-0.758268 8.40946z"/>
   <path id="_352790424" class="fil0" d="M1472.43 758.145c4.18701,5.34213 11.9162,6.28229 17.263,2.09291l40.5626 -32.6835c5.34331,-4.18701 6.28347,-11.9126 2.09291,-17.2547 -4.18465,-5.34685 -11.9091,-6.28229 -17.2606,-2.09882l-31.8803 24.9803c-5.34331,4.18701 -14.961,19.6181 -10.7776,24.9638z"/>
   <path id="_352790640" class="fil0" d="M1512.5 825.465c4.3004,5.48622 12.2256,6.44646 17.7154,2.15197l41.3918 -33.3355c5.48386,-4.29567 6.44646,-12.2291 2.15079,-17.7095 -4.29449,-5.48504 -12.2256,-6.44528 -17.7118,-2.15079l-41.3929 33.3319c-5.48622,4.30158 -6.44882,12.2268 -2.15315,17.7118z"/>
   <path id="_352789968" class="fil0" d="M1488.19 778.254c4.513,5.7567 12.8457,6.7689 18.6059,2.25827l43.0418 -34.6288c5.76733,-4.513 6.77127,-12.8386 2.25827,-18.5953 -4.51418,-5.76378 -12.8398,-6.77953 -18.6036,-2.26536l-43.0406 34.6276c-5.76378,4.51063 -6.77245,12.8421 -2.26181,18.6036z"/>
   <path id="_352790352" class="fil0" d="M1502.55 800.673c4.50945,5.76142 12.8386,6.77008 18.5988,2.25945l43.0441 -34.624c5.76142,-4.51418 6.77363,-12.8421 2.25945,-18.6 -4.51418,-5.76733 -12.8433,-6.77599 -18.6036,-2.26181l-43.0453 34.6205c-5.75906,4.51772 -6.77127,12.8504 -2.25355,18.6059z"/>
   <path id="_352790160" class="fil0" d="M1489.02 728.636c0,0 -27.9792,5.00906 -34.2555,8.07048 -28.7551,25.3358 -36.4713,75.9071 -19.115,98.0505 25.9878,33.1689 63.613,17.5335 85.7599,0.179528l13.7433 -11.1224 -46.1327 -95.178z"/>
   <path id="_352790016" class="fil20" d="M1557.55 773.647c0,0 -0.672048,0.412205 -1.80118,1.18583 -1.08662,0.831497 -2.81339,1.7811 -4.72323,3.1063 -0.951969,0.655512 -1.9878,1.36772 -3.08032,2.12126 -1.06063,0.786615 -2.25591,1.5248 -3.46654,2.32795 -2.4378,1.56851 -4.97008,3.33898 -7.50591,5.09764 -2.45788,1.87559 -5.06575,3.52796 -7.47756,5.1437 -2.40473,1.61457 -4.62048,3.18189 -6.49134,4.57205 -3.74055,2.78977 -6.14528,4.83662 -6.14528,4.83662 -0.0011811,0 2.87599,-1.22717 7.05237,-3.34843 2.08583,-1.06417 4.49055,-2.36221 7.03347,-3.81496 2.5689,-1.41142 5.2252,-3.04843 7.75158,-4.89213 2.52874,-1.83425 5.06221,-3.65906 7.37245,-5.45788 2.35984,-1.71969 4.33819,-3.67087 6.06378,-5.25119 3.45945,-3.18189 5.41772,-5.62678 5.41772,-5.62678z"/>
   <path id="_352790304" class="fil20" d="M1548.85 746.386c0,0 -2.77677,1.2437 -6.71575,3.4441 -1.98189,1.07717 -4.22363,2.45315 -6.70394,3.77481 -2.46851,1.34882 -5.03268,2.87953 -7.60158,4.40315 -5.10119,3.10984 -10.0748,6.42638 -13.7102,9.08623 -3.64961,2.63977 -5.9563,4.64055 -5.9563,4.64055 0,0 2.81693,-1.11496 6.8504,-3.14173 4.0441,-2.00788 9.31418,-4.9193 14.4579,-8.03623 2.55118,-1.58622 5.10827,-3.1689 7.44095,-4.73859 2.37638,-1.51417 4.43268,-3.15236 6.19843,-4.55315 3.53386,-2.79685 5.74016,-4.87914 5.74016,-4.87914z"/>
   <path id="_352789128" class="fil20" d="M1532.19 725.783c0,0 -2.77795,1.24725 -6.71693,3.44646 -1.98425,1.07599 -4.22717,2.45433 -6.70749,3.77599 -2.46378,1.34764 -5.02914,2.87835 -7.6004,4.40315 -5.09764,3.10866 -10.0724,6.4252 -13.7079,9.08859 -3.65197,2.64095 -5.9563,4.63819 -5.9563,4.63819 0,0 2.81339,-1.1126 6.84804,-3.1441 4.04646,-2.00669 9.31654,-4.91693 14.4602,-8.03386 2.54882,-1.59095 5.10591,-3.1689 7.44213,-4.73859 2.37638,-1.51536 4.42914,-3.15355 6.19371,-4.5567 3.53504,-2.79449 5.74489,-4.87914 5.74489,-4.87914z"/>
   <path id="_352789344" class="fil20" d="M1489.02 728.636c0,0 -2.00669,0.862205 -4.80355,2.40236 -2.81339,1.52008 -6.41693,3.74292 -9.97324,6.00119 -1.75394,1.16221 -3.50906,2.32795 -5.15079,3.41811 -1.63228,1.10551 -3.15945,2.13425 -4.46457,3.01772 -1.28622,0.96378 -2.43189,1.5248 -3.21496,2.07284 -0.79252,0.531496 -1.24606,0.838583 -1.24606,0.838583 -0.0011811,0 0.525591,-0.0779528 1.45512,-0.270473 0.903544,-0.229134 2.32677,-0.431103 3.79252,-1.08662 1.49528,-0.604725 3.29646,-1.28622 5.03859,-2.27126 1.78583,-0.930709 3.64607,-2.01024 5.4378,-3.17244 3.59882,-2.31732 6.94607,-4.97717 9.33072,-7.13504 2.39882,-2.14016 3.79961,-3.81496 3.79843,-3.81496z"/>
   <path id="_352789728" class="fil0" d="M1169.27 947.328c20.0138,31.6418 61.8898,41.0776 93.5351,21.0543 31.6406,-20.0032 11.2795,-57.4347 -8.73426,-89.0883l-101.902 -212.362c-20.0162,-31.637 -61.8851,-41.0681 -93.5327,-21.0532 -31.6453,20.0162 -41.0634,61.8898 -21.0579,93.5375l131.692 207.912z"/>
   <path id="_352789272" class="fil31" d="M1090.03 824.512l-53.7792 -84.9036c-20.3799,-32.2382 -10.7847,-74.8938 21.4512,-95.2831 32.2382,-20.3906 74.8902,-10.7811 95.2796,21.4477l38.837 80.9363c-32.1012,32.1 -69.6898,45.7016 -101.789,77.8028z"/>
   <path id="_352789632" class="fil0" d="M1457.5 857.305c40.0843,-29.6953 21.0449,-25.7232 9.98387,-51.313 -11.061,-25.578 -11.139,-38.2642 -36.7264,-27.2032l-229.058 87.7855c-34.363,14.8606 -52.5473,36.3945 -37.6878,70.7599 14.8559,34.3607 45.9485,52.1126 89.1308,35.3233 53.5146,-20.8099 204.358,-115.351 204.358,-115.352z"/>
   <path id="_352789824" class="fil26" d="M1226.98 978.874c11.7992,-0.0602363 23.7083,-3.20315 34.5071,-9.70158 -2.99292,1.31811 -5.78268,2.48622 -8.35158,3.48544 -9.29528,3.61299 -18.0225,5.62678 -26.1555,6.21615z"/>
   <path id="_352789752" class="fil32" d="M1167.45 944.453c-0.00590552,-0.0129921 -0.0129921,-0.0259843 -0.0188977,-0.0389764l-53.7343 -84.8304 0 0.00472441 53.7532 84.8646z"/>
   <path id="_352789488" class="fil33" d="M1113.69 859.588l0 -0.00472441 -23.3221 -36.8209c0,0 0,0.0011811 0,0.0011811l-52.793 -83.3481c-7.11142,-11.25 -10.5047,-23.7921 -10.5047,-36.1843 0,12.3921 3.39331,24.9343 10.5047,36.1843l52.793 83.3469 23.3221 36.8256z"/>
   <path id="_352789656" class="fil16" d="M1404.76 889.637c3.82796,-2.30788 7.53308,-4.55079 11.074,-6.69804 -0.00354331,0 -0.00354331,0 -0.00354331,0 -3.54449,2.15433 -7.23544,4.38662 -11.0705,6.69804l0 0zm35.1827 -6.5504l0 0c0.53504,-0.197244 1.06417,-0.399213 1.59331,-0.61063 -0.526772,0.211417 -1.05827,0.414567 -1.59331,0.61063l0 0zm1.59567 -0.614174c0.0236221,-0.00708662 0.0448819,-0.0153543 0.068504,-0.0259843 -0.0236221,0.00944883 -0.0448819,0.0165354 -0.068504,0.0271654l0 -0.0011811zm0.0874016 -0.0366142c0.0200788,-0.00590552 0.0366142,-0.011811 0.0555119,-0.0177165 -0.0188977,0.00472441 -0.0354331,0.0129921 -0.0555119,0.0188977l0 -0.0011811zm0.0885827 -0.0318898c0.0129921,-0.00708662 0.0271654,-0.00944883 0.0401575,-0.0153543 -0.0129921,0.00236221 -0.0259843,0.00826772 -0.0389764,0.0153543l-0.0011811 0zm0.0814961 -0.0318898c0.00944883,-0.00708662 0.0200788,-0.00944883 0.0295276,-0.0129921 -0.00944883,0.00236221 -0.0200788,0.00590552 -0.0283465,0.0129921l-0.0011811 0zm0.0885827 -0.0401575c0.00236221,0 0.00354331,0.0011811 0.00590552,0.0011811 -0.00354331,-0.0011811 -0.00236221,0 -0.00590552,0l0 -0.0011811zm75.1725 -44.1544c1.50709,-1.06417 2.95984,-2.14961 4.35355,-3.24095l13.7433 -11.1224 -13.7433 11.1224c-1.3937,1.09016 -2.84646,2.17795 -4.35355,3.24095z"/>
   <path id="_352789440" class="fil34" d="M1516.86 802.039c0,0 2.53347,-1.07953 6.3,-2.96575 0.244488,-0.125197 0.496063,-0.251575 0.753544,-0.382677 2.08583,-1.06417 4.49055,-2.36221 7.03347,-3.81496 0.231496,-0.131102 0.470079,-0.261024 0.705119,-0.392126 2.34685,-1.31811 4.74804,-2.82284 7.04646,-4.5 2.52874,-1.83425 5.06221,-3.65906 7.37245,-5.45788 2.35984,-1.71969 4.33819,-3.67087 6.06378,-5.25119 3.38386,-3.11693 5.33268,-5.52166 5.41418,-5.62205 0.00354331,-0.00472441 0.00354331,-0.00472441 0.00354331,-0.00472441 0,0 -0.672048,0.412205 -1.80118,1.18583 -1.08662,0.831497 -2.81339,1.7811 -4.72323,3.1063 -0.951969,0.655512 -1.9878,1.36772 -3.08032,2.12126 -1.06063,0.786615 -2.25591,1.5248 -3.46654,2.32795 -2.4378,1.56851 -4.97008,3.33898 -7.50591,5.09764 -2.45788,1.87559 -5.06575,3.52796 -7.47756,5.1437 -2.40473,1.61457 -4.62048,3.18189 -6.49134,4.57205 -0.188977,0.13937 -0.372048,0.277559 -0.551575,0.411024 -3.42402,2.57835 -5.59371,4.42559 -5.59489,4.42559z"/>
   <path id="_352789008" class="fil35" d="M1500.23 751.755l24.2362 -19.5284c-0.00236221,0.00236221 -0.00590552,0.00590552 -0.0129921,0.00944883l-23.9717 19.3134 -0.251575 0.205512zm29.1709 -23.504l0.861024 -0.69567 -0.861024 0.69567c0,0 0,0 0,0z"/>
   <path id="_352788600" class="fil36" d="M1500.48 751.549l23.9717 -19.3134c-0.805512,0.622441 -1.66417,1.26614 -2.57481,1.89921l-21.3969 17.4142zm28.9193 -23.2984l0.861024 -0.69567c0.441733,-0.346063 0.84567,-0.724016 1.22126,-1.12205 -0.475985,0.429922 -1.1811,1.05473 -2.08229,1.81772z"/>
   <path id="_352788744" class="fil37" d="M1521.88 734.135c0.910631,-0.633071 1.76929,-1.27559 2.57481,-1.89921 0.00708662,-0.00354331 0.0106299,-0.00708662 0.0129921,-0.00944883l4.93465 -3.97559c0,0 0,0 0,0 0.901182,-0.764174 1.6063,-1.38662 2.08229,-1.81772 0.133465,-0.140551 0.264567,-0.284646 0.392126,-0.427559l0.320079 -0.222047 -0.242126 0.15 -10.0748 8.20158z"/>
   <path id="_352788816" class="fil5" d="M1216.73 1078.87c0.614174,-4.48111 1.50236,-18.7512 1.50236,-18.7512l-241.98 -67.3701 -3.86811 27.0071c0,0 163.455,43.7906 244.345,59.1142z"/>
  </g>
  <rect class="fil38" width="2048" height="2048"/>
 </g>
</svg>
