<?xml version="1.0" encoding="UTF-8"?>
<!DOCTYPE svg PUBLIC "-//W3C//DTD SVG 1.1//EN" "http://www.w3.org/Graphics/SVG/1.1/DTD/svg11.dtd">
<!-- Creator: CorelDRAW -->
<svg xmlns="http://www.w3.org/2000/svg" xml:space="preserve" width="2048px" height="2048px" style="shape-rendering:geometricPrecision; text-rendering:geometricPrecision; image-rendering:optimizeQuality; fill-rule:evenodd; clip-rule:evenodd"
viewBox="0 0 2048 2048"
 xmlns:xlink="http://www.w3.org/1999/xlink">
 <defs>
  <style type="text/css">
   <![CDATA[
    .fil8 {fill:none}
    .fil5 {fill:#DEE9E9}
    .fil4 {fill:#E98603}
    .fil1 {fill:#F3FFFF}
    .fil0 {fill:#FF9100}
    .fil6 {fill:#3F3F3F;fill-rule:nonzero}
    .fil2 {fill:#424242;fill-rule:nonzero}
    .fil7 {fill:#C30303;fill-rule:nonzero}
    .fil3 {fill:#D50000;fill-rule:nonzero}
   ]]>
  </style>
 </defs>
 <g id="Layer_x0020_1">
  <metadata id="CorelCorpID_0Corel-Layer"/>
  <g id="_357759056">
   <rect id="_357752696" class="fil0" x="256.001" y="255.998" width="1536" height="1184"/>
   <rect id="_357752168" class="fil1" x="336.001" y="335.998" width="1376" height="1024"/>
   <path id="_357760016" class="fil2" d="M507.071 1066.04c-20.3917,0 -36.9237,-16.5331 -36.9237,-36.9248 0,-20.3917 16.5319,-36.9248 36.9237,-36.9248l510.964 0c1.92284,-0.307087 3.8941,-0.47126 5.90197,-0.47126 2.00906,0 3.98032,0.164173 5.90315,0.47126l511.087 0c20.3929,0 36.9248,16.5331 36.9248,36.9248 0,20.3917 -16.5319,36.9248 -36.9248,36.9248l-82.539 0c-0.603544,0.862205 -1.24961,1.70669 -1.93819,2.52992 -77.6103,92.6871 -131.128,187.356 -160.551,284 -29.1685,95.8146 -34.8118,194.313 -16.9264,295.487 3.50315,20.0729 -9.92717,39.189 -30,42.6933 -20.0729,3.50315 -39.189,-9.92717 -42.6933,-30 -6.81024,-38.524 -10.5307,-76.7564 -11.1602,-114.696l-134.257 0 0 209.99c0,20.3917 -16.5319,36.9248 -36.9248,36.9248 -20.3917,0 -36.9237,-16.5331 -36.9237,-36.9248l0 -209.99 -130.632 0c-0.63189,37.9382 -4.35118,76.1717 -11.1626,114.696 -3.50433,20.0729 -22.6205,33.5032 -42.6933,30 -20.0729,-3.50433 -33.5044,-22.6205 -30,-42.6933 17.889,-101.174 12.2469,-199.67 -16.9217,-295.481 -29.4225,-96.6438 -82.9442,-191.315 -160.556,-284.006 -0.688583,-0.823229 -1.33465,-1.66772 -1.93819,-2.52992l-86.0386 0zm346.601 406.166l133.342 0 0 -74.0174 -144.116 0c4.93701,24.5445 8.52993,49.2178 10.774,74.0174zm-29.8229 -147.866l163.165 0 0 -73.3902 -190.598 0c10.5224,24.2918 19.6666,48.7548 27.4335,73.3902zm-63.9662 -147.239l227.131 0 0 -111.062 -299.814 0c27.5965,36.6012 51.8256,73.6205 72.6827,111.062zm604.415 -111.062l-303.436 0 0 111.062 230.755 0c20.8571,-37.441 45.0839,-74.4603 72.6816,-111.062zm-109.214 184.91l-194.222 0 0 73.3902 166.789 0c7.76694,-24.6331 16.9087,-49.0973 27.4323,-73.3902zm-46.4811 147.239l-147.741 0 0 74.0174 136.967 0c2.2441,-24.8008 5.83583,-49.4729 10.774,-74.0174z"/>
   <path id="_357759896" class="fil3" d="M496.946 1066.04c-20.791,0 -37.6477,-16.8567 -37.6477,-37.6477 0,-20.7921 16.8567,-37.6477 37.6477,-37.6477l1054.11 0c20.791,0 37.6477,16.8555 37.6477,37.6477 0,20.791 -16.8567,37.6477 -37.6477,37.6477l-1054.11 0z"/>
   <polygon id="_357759704" class="fil4" points="1024,255.998 1792,255.998 1792,1440 1024,1440 1024,1360 1070.25,1324.34 "/>
   <polygon id="_357759080" class="fil5" points="1024,335.998 1712,335.998 1712,1360 1024,1360 "/>
   <path id="_357758936" class="fil6" d="M1024 991.719c1.9878,0.00354331 3.93898,0.167717 5.84292,0.47126l511.087 0c20.3929,0 36.9248,16.5331 36.9248,36.9248 0,20.3917 -16.5319,36.9248 -36.9248,36.9248l-82.539 0c-0.603544,0.862205 -1.24961,1.70669 -1.93819,2.52992 -77.6103,92.6871 -131.128,187.356 -160.551,284 -29.1685,95.8146 -34.8118,194.313 -16.9264,295.487 3.50315,20.0729 -9.92717,39.189 -30,42.6933 -20.0729,3.50315 -39.189,-9.92717 -42.6933,-30 -6.81024,-38.524 -10.5307,-76.7564 -11.1602,-114.696l-134.257 0 0 209.99c0,20.3717 -16.4988,36.8906 -36.8646,36.9237l0 -801.249zm340.301 74.3209l-303.436 0 0 111.062 230.755 0c20.8571,-37.441 45.0839,-74.4603 72.6816,-111.062zm-109.214 184.91l-194.222 0 0 73.3902 166.789 0c7.76694,-24.6331 16.9087,-49.0973 27.4323,-73.3902zm-46.4811 147.239l-147.741 0 0 74.0174 136.967 0c2.2441,-24.8008 5.83583,-49.4729 10.774,-74.0174z"/>
   <path id="_357759536" class="fil7" d="M1024 990.744l527.058 0c20.791,0 37.6477,16.8567 37.6477,37.6477 0,20.7921 -16.8567,37.6488 -37.6477,37.6488l-527.058 0 0 -75.2965z"/>
  </g>
  <rect class="fil8" width="2048" height="2048"/>
 </g>
</svg>
