<?xml version="1.0" encoding="UTF-8"?>
<!DOCTYPE svg PUBLIC "-//W3C//DTD SVG 1.1//EN" "http://www.w3.org/Graphics/SVG/1.1/DTD/svg11.dtd">
<!-- Creator: CorelDRAW -->
<svg xmlns="http://www.w3.org/2000/svg" xml:space="preserve" width="2048px" height="2048px" style="shape-rendering:geometricPrecision; text-rendering:geometricPrecision; image-rendering:optimizeQuality; fill-rule:evenodd; clip-rule:evenodd"
viewBox="0 0 2048 2048"
 xmlns:xlink="http://www.w3.org/1999/xlink">
 <defs>
  <style type="text/css">
   <![CDATA[
    .fil7 {fill:none}
    .fil0 {fill:#0D47A1}
    .fil5 {fill:#B3E5FC}
    .fil6 {fill:black;fill-rule:nonzero}
    .fil4 {fill:#03A9F4;fill-rule:nonzero}
    .fil3 {fill:#212121;fill-rule:nonzero}
    .fil1 {fill:#424242;fill-rule:nonzero}
    .fil2 {fill:#FFD3AE;fill-rule:nonzero}
   ]]>
  </style>
 </defs>
 <g id="Layer_x0020_1">
  <metadata id="CorelCorpID_0Corel-Layer"/>
  <g id="_355801112">
   <path id="_355801256" class="fil0" d="M1586.28 945.84l1.92874 -1.27795c20.55,-17.5748 33.4725,-42.2552 35.8311,-69.2221 2.34095,-26.7673 -6.47953,-52.6418 -23.302,-73.441 -0.134646,-0.166536 -0.279921,-0.348425 -0.427559,-0.507874l-194.972 -179.118c-26.4744,-24.3213 -57.7146,-48.9095 -93.4607,-57.1536 -35.0114,-8.07402 -71.9812,-3.54567 -105.123,9.80316 -0.329528,0.133465 -0.661418,0.259843 -0.992127,0.389764 -69.1075,31.7918 -138.091,63.7796 -207.35,95.2583 -58.578,26.6244 -117.563,53.7142 -176.934,78.4938 -14.7591,6.15945 -28.5343,13.2225 -41.0528,23.2961 -15.0614,12.1205 -28.5343,28.0571 -40.5815,43.1055 -0.214961,0.269292 -0.453544,0.558662 -0.65315,0.844489 -23.3776,40.363 -50.967,80.165 -76.9205,118.986 -15.3543,22.9689 -30.7406,45.926 -45.802,69.0875 -11.6681,17.9421 -23.4839,36.228 -33.9886,54.8764 11.5902,18.4984 26.5795,34.0429 45.0189,45.7807 29.2689,18.6307 63.8339,25.6772 98.204,23.5819 34.4729,-2.10118 69.215,-13.4799 98.4627,-31.7953 10.9595,-6.86339 21.2894,-14.7851 30.6414,-23.7213l24.5835 -23.4886 21.9567 25.9618c14.2512,16.8496 31.6288,30.5799 51.2563,40.6548 24.554,12.6047 51.9886,19.0477 79.5709,19.0571 27.5835,0.00944883 55.0311,-6.37914 79.578,-19.024 18.3567,-9.45591 34.7032,-22.1882 48.3343,-37.702l23.9752 -27.2858 24.0461 27.2221c11.2429,12.7276 24.3473,23.7461 38.8394,32.6008 26.7343,16.3358 57.1619,24.9 88.4953,24.9 25.1315,0 49.7906,-5.53701 72.5127,-16.2721 22.4386,-10.6004 41.7815,-26.7024 58.2012,-45.1571 0.186614,-0.210236 0.38504,-0.426378 0.571654,-0.646063l-343.409 -242.635 140.323 -64.089 180.49 158.636c19.2768,16.9429 42.7158,32.9847 68.7815,36.2823 25.6099,3.23977 51.6059,-2.43071 73.3654,-16.2815z"/>
   <polygon id="_355801784" class="fil1" points="431.95,855.497 428.022,852.686 431.934,855.519 "/>
   <path id="_355801688" class="fil2" d="M695.906 717.93c8.14607,48.3567 -1.69725,100.121 -31.8095,143.734l-2.58544 3.75827c-30.2221,41.765 -74.4851,67.7587 -121.981,75.8859 -47.3705,8.10473 -98.0032,-1.6311 -141.112,-31.291l-3.7004 -2.54646 -0.0177165 0.0248032c-42.4618,-30.3921 -68.9481,-75.9331 -77.1816,-124.833 -8.14607,-48.3839 1.69606,-100.18 31.7492,-143.839 2.35158,-3.40512 0.38504,-0.72756 1.75276,-2.6374l0.0602363 0.0425197c30.463,-42.5327 75.8847,-68.2323 124.133,-76.0276 47.967,-7.74922 98.9292,2.2937 140.803,31.1918 1.17874,0.81378 2.03858,1.41378 2.52874,1.76457 42.5646,30.391 69.1312,75.9201 77.3611,124.773z"/>
   <path id="_355801424" class="fil3" d="M321.526 801.07c-1.62638,-6.06615 -2.96339,-12.2091 -4.00748,-18.4075 -8.14607,-48.3839 1.69606,-100.18 31.7492,-143.839 2.35158,-3.40512 0.38504,-0.72756 1.75276,-2.6374l0.0602363 0.0425197c30.463,-42.5327 75.8847,-68.2323 124.133,-76.0276 47.967,-7.74922 98.9292,2.2937 140.803,31.1918 1.17874,0.81378 2.03858,1.41378 2.52874,1.76457 42.5339,30.3685 69.091,75.8528 77.3422,124.665 -39.6189,30.4843 -111.339,43.2461 -188.849,29.1496 -22.5449,-4.10079 -43.8284,-10.1587 -63.3296,-17.7295 -24.7547,42.8315 -70.1823,71.602 -122.183,71.8276z"/>
   <path id="_355801928" class="fil4" d="M1724.96 1418.15c18.2917,-4.33347 36.6355,6.9815 40.9689,25.2744 4.33465,18.2917 -6.9815,36.6355 -25.2732,40.9689 -8.10237,1.91929 -16.5295,3.39095 -25.2284,4.40433 -8.66812,1.00984 -17.1626,1.52008 -25.4268,1.52008 -45.1571,0 -87.8564,-13.8862 -122.72,-37.9441 -16.5414,-11.4142 -31.2992,-25.1103 -43.715,-40.6985 -12.4146,15.5894 -27.1736,29.2843 -43.715,40.6996 -34.8614,24.0579 -77.5607,37.9429 -122.72,37.9429 -45.1264,0 -87.8079,-13.8709 -122.665,-37.9063 -16.5437,-11.4083 -31.3051,-25.0984 -43.7256,-40.6843 -12.4205,15.5858 -27.1819,29.276 -43.7244,40.6843 -34.8603,24.0366 -77.5406,37.9063 -122.667,37.9063 -45.1595,0 -87.8611,-13.8862 -122.725,-37.9441 -16.5402,-11.4142 -31.2981,-25.1091 -43.7115,-40.6973 -12.4134,15.5882 -27.1725,29.2831 -43.7126,40.6973 -34.8638,24.0579 -77.5642,37.9441 -122.719,37.9441 -45.1264,0 -87.8068,-13.8697 -122.667,-37.9063 -16.5437,-11.4083 -31.3075,-25.0996 -43.7256,-40.6855 -12.4217,15.587 -27.1855,29.2796 -43.7303,40.6866 -34.8591,24.0366 -77.5382,37.9051 -122.667,37.9051 -8.52166,0 -17.2028,-0.525591 -25.9784,-1.56732 -8.1815,-0.973229 -16.7339,-2.53701 -25.6028,-4.68189 -18.2185,-4.40788 -29.4154,-22.7516 -25.0087,-40.9701 4.40788,-18.2185 22.7528,-29.4154 40.9701,-25.0075 5.36221,1.29685 11.2512,2.32795 17.6232,3.08504 5.79095,0.687402 11.8039,1.03465 17.9965,1.03465 31.2449,0 60.489,-9.39095 84.091,-25.6654 23.2205,-16.0099 41.074,-38.7177 49.9831,-65.6552 3.26693,-9.89765 11.0232,-18.1736 21.6827,-21.6827 17.8512,-5.87717 37.0878,3.8315 42.965,21.6827 8.9067,26.9362 26.7591,49.6441 49.9772,65.654 23.6032,16.2756 52.8485,25.6666 84.091,25.6666 31.2614,0 60.5268,-9.40631 84.143,-25.7044 23.2193,-16.0228 41.0705,-38.7626 49.9678,-65.7402 3.26693,-9.89765 11.0221,-18.1725 21.6815,-21.6815 17.8512,-5.87717 37.089,3.83032 42.9662,21.6815 8.89371,26.9788 26.7437,49.7185 49.9607,65.7402 23.6173,16.298 52.8815,25.7044 84.1489,25.7044 31.2425,0 60.4878,-9.39095 84.091,-25.6666 23.2181,-16.0099 41.0705,-38.7177 49.9772,-65.654 3.26575,-9.89765 11.0221,-18.1736 21.6815,-21.6827 17.8512,-5.87717 37.089,3.8315 42.9662,21.6827 8.90552,26.9362 26.7579,49.6441 49.976,65.654 23.6032,16.2744 52.8461,25.6666 84.0898,25.6666 31.265,0 60.5292,-9.40513 84.1453,-25.7032 23.2181,-16.0228 41.0681,-38.7626 49.9654,-65.7414 3.26693,-9.89765 11.0232,-18.1725 21.6827,-21.6815 17.8512,-5.87717 37.089,3.83032 42.9662,21.6815 8.89725,26.9776 26.7473,49.7174 49.9654,65.7402 23.6185,16.298 52.8804,25.7044 84.1453,25.7044 6.1689,0 12.085,-0.33189 17.7118,-0.986221 5.59489,-0.65315 11.3563,-1.67953 17.2477,-3.07441z"/>
   <path id="_355801592" class="fil4" d="M248.103 1289.26c-16.0878,-9.62245 -21.3284,-30.4689 -11.7059,-46.5567 9.62245,-16.0878 30.4689,-21.3284 46.5567,-11.7059 11.4874,6.90473 23.8205,12.1701 36.5965,15.678 12.6626,3.47835 26.1839,5.27126 40.1705,5.27126 31.2461,0 60.4878,-9.39213 84.091,-25.6666 23.2217,-16.0122 41.074,-38.7201 49.9843,-65.6587 5.87599,-17.8512 25.1138,-27.5599 42.965,-21.6827 10.6595,3.50906 18.4158,11.7839 21.6827,21.6827 8.90552,26.9362 26.7591,49.6465 49.9784,65.6563 23.6043,16.278 52.8473,25.6689 84.0886,25.6689 31.2614,0 60.5245,-9.40631 84.1406,-25.7055 23.2205,-16.0228 41.0717,-38.7614 49.9701,-65.7378 5.87717,-17.8512 25.115,-27.5599 42.9662,-21.6827 10.6595,3.50906 18.4158,11.7839 21.6815,21.6827 8.89371,26.9764 26.7437,49.715 49.963,65.7378 23.6173,16.2992 52.8827,25.7055 84.1465,25.7055 31.2437,0 60.4867,-9.39095 84.0898,-25.6677 23.2205,-16.011 41.0729,-38.7213 49.9784,-65.6575 5.87717,-17.8512 25.115,-27.5599 42.9662,-21.6827 10.6595,3.50906 18.4158,11.7839 21.6815,21.6827 8.9067,26.9362 26.7591,49.6465 49.9784,65.6575 23.602,16.2768 52.8473,25.6677 84.0886,25.6677 31.2662,0 60.5268,-9.40631 84.1418,-25.7044 23.2205,-16.0228 41.0729,-38.7638 49.9689,-65.739 5.87717,-17.8512 25.115,-27.5599 42.9662,-21.6827 10.6595,3.50906 18.4146,11.7839 21.6815,21.6827 8.89607,26.974 26.7484,49.715 49.9689,65.7378 23.6162,16.2992 52.8804,25.7055 84.1418,25.7055 13.3996,0 26.4851,-1.69488 38.8973,-4.9878 12.639,-3.35433 24.6579,-8.26418 35.6894,-14.6303 16.2354,-9.32953 36.9603,-3.73229 46.291,12.5032 9.32953,16.2343 3.73111,36.9603 -12.5032,46.2898 -16.4658,9.50198 -34.0347,16.7327 -52.1859,21.548 -18.3721,4.87441 -37.2792,7.38426 -56.1886,7.38426 -45.1548,0 -87.854,-13.8851 -122.718,-37.9453 -16.5425,-11.4142 -31.3016,-25.1114 -43.715,-40.6996 -12.4169,15.5894 -27.176,29.2866 -43.7197,40.7008 -34.8614,24.0579 -77.5571,37.9441 -122.717,37.9441 -45.1264,0 -87.8056,-13.8697 -122.665,-37.9075 -16.5425,-11.4083 -31.3051,-25.0996 -43.7256,-40.6855 -12.4205,15.587 -27.1843,29.2772 -43.728,40.6855 -34.8591,24.0378 -77.5371,37.9075 -122.665,37.9075 -45.1583,0 -87.8587,-13.8862 -122.721,-37.9453 -16.5425,-11.4154 -31.3004,-25.1114 -43.7138,-40.6996 -12.4146,15.5894 -27.1748,29.2855 -43.7162,40.6996 -34.8626,24.0603 -77.5619,37.9453 -122.717,37.9453 -45.1252,0 -87.8044,-13.8697 -122.663,-37.9087 -16.5461,-11.4083 -31.3087,-25.0996 -43.7303,-40.6866 -12.4217,15.5882 -27.1843,29.2807 -43.7303,40.689 -34.8579,24.0355 -77.5371,37.9063 -122.666,37.9063 -19.4091,0 -38.9386,-2.7 -57.9945,-7.93347 -18.9473,-5.20394 -37.017,-12.8788 -53.6233,-22.8603z"/>
   <path id="_355801328" class="fil5" d="M399.74 791.244c58.0701,-38.6717 114.323,74.6505 56.2512,113.322 -24.3981,16.2473 -90.2375,2.45669 -105.771,-28.8366 -15.5327,-31.2933 25.1209,-68.2382 49.5201,-84.4855z"/>
   <path id="_355800752" class="fil6" d="M397.261 787.499c20.4366,-13.6087 40.663,-10.1492 56.641,2.25709l-0.00708662 0.00826772c6.81142,5.29016 12.8008,12.1996 17.6362,20.0646 4.80237,7.80945 8.50985,16.6288 10.7953,25.7941 6.62126,26.5524 1.25669,55.9619 -23.8571,72.6863 -1.16811,0.778347 -2.42835,1.50118 -3.76772,2.16496 -13.6075,6.75473 -35.2961,6.97205 -55.8473,1.89567 -20.5831,-5.08583 -40.3217,-15.5374 -50.0351,-30.124 -0.968505,-1.45394 -1.84843,-2.96811 -2.62323,-4.53071 -7.18229,-14.4709 -3.82441,-29.7555 4.48701,-43.9382 11.2618,-19.2142 31.8284,-36.4559 46.578,-46.278zm51.1205 9.35788c-13.0347,-10.1209 -29.524,-12.9508 -46.1646,-1.86969 -13.9547,9.29292 -33.352,25.5 -43.8,43.3252 -6.87638,11.7343 -9.77481,24.1382 -4.17048,35.4296 0.594095,1.19764 1.28622,2.38347 2.06103,3.54803 8.37757,12.5799 26.0563,21.7571 44.6918,26.361 18.6673,4.61103 38.0126,4.58859 49.7292,-1.22717 0.980316,-0.485433 1.91221,-1.02165 2.78504,-1.60276 21.4264,-14.2689 25.8851,-39.8327 20.0941,-63.0532 -2.0504,-8.22048 -5.39528,-16.1634 -9.73938,-23.2288 -4.3063,-7.00512 -9.56221,-13.0973 -15.4689,-17.6823l-0.0177165 0z"/>
   <path id="_355800632" class="fil6" d="M665.065 640.802c-0.0602363,0.185433 -19.741,61.0713 -68.7532,101.776 -48.2398,40.063 -123.24,79.376 -123.408,79.4753l-5.07874 -8.59371c0.166536,-0.0980316 74.6138,-39.0863 122.118,-78.5375 46.7304,-38.8099 68.5926,-102.899 68.6504,-103.077l6.47126 8.95749z"/>
  </g>
  <rect class="fil7" width="2048" height="2048"/>
 </g>
</svg>
