<?xml version="1.0" encoding="UTF-8"?>
<!DOCTYPE svg PUBLIC "-//W3C//DTD SVG 1.1//EN" "http://www.w3.org/Graphics/SVG/1.1/DTD/svg11.dtd">
<!-- Creator: CorelDRAW -->
<svg xmlns="http://www.w3.org/2000/svg" xml:space="preserve" width="2048px" height="2048px" style="shape-rendering:geometricPrecision; text-rendering:geometricPrecision; image-rendering:optimizeQuality; fill-rule:evenodd; clip-rule:evenodd"
viewBox="0 0 2048 2048"
 xmlns:xlink="http://www.w3.org/1999/xlink">
 <defs>
  <style type="text/css">
   <![CDATA[
    .fil43 {fill:none}
    .fil20 {fill:#003C69}
    .fil10 {fill:#00406B}
    .fil35 {fill:#005187}
    .fil34 {fill:#00558E}
    .fil12 {fill:#005A96}
    .fil11 {fill:#0077C7}
    .fil22 {fill:#01579B}
    .fil32 {fill:#191919}
    .fil14 {fill:#212121}
    .fil17 {fill:#424242}
    .fil16 {fill:#616161}
    .fil15 {fill:#757575}
    .fil27 {fill:#9F0303}
    .fil28 {fill:#B09176}
    .fil26 {fill:#B3D4D6}
    .fil38 {fill:#B5D7D9}
    .fil25 {fill:#B9DCDE}
    .fil9 {fill:#BDBDBD}
    .fil29 {fill:#BF9E83}
    .fil24 {fill:#BFE3E6}
    .fil31 {fill:#C20000}
    .fil18 {fill:#C3E8EA}
    .fil4 {fill:#C9A78A}
    .fil40 {fill:#CCA98B}
    .fil2 {fill:#D0AD8F}
    .fil30 {fill:#D50000}
    .fil37 {fill:#D7B293}
    .fil33 {fill:#DE0000}
    .fil3 {fill:#E2BB9B}
    .fil5 {fill:#E2C3A9}
    .fil36 {fill:#E3BC9B}
    .fil39 {fill:#E5BD9C}
    .fil0 {fill:#E9C1A0}
    .fil1 {fill:#E9C9AE}
    .fil23 {fill:#EAC2A0}
    .fil21 {fill:#F2C8A5}
    .fil19 {fill:#F7F7F7}
    .fil8 {fill:#FFD3AE}
    .fil13 {fill:white}
    .fil6 {fill:#424242;fill-rule:nonzero}
    .fil42 {fill:#6E6E6E;fill-rule:nonzero}
    .fil41 {fill:#757575;fill-rule:nonzero}
    .fil7 {fill:#EF6C00;fill-rule:nonzero}
   ]]>
  </style>
 </defs>
 <g id="Layer_x0020_1">
  <metadata id="CorelCorpID_0Corel-Layer"/>
  <g id="_357655768">
   <g>
    <path id="_357663928" class="fil0" d="M934.484 1112.45c-13.1835,23.5925 -30.704,21.9532 -52.9748,11.6291 -22.2709,-10.3051 -31.3181,-10.9736 -18.1382,-34.5591l107.621 -206.39c17.7024,-31.6701 37.089,-52.6406 67.0004,-38.7756 29.9103,13.8591 42.613,42.6414 22.0937,82.4481 -25.4268,49.3465 -125.602,185.647 -125.602,185.647z"/>
    <g>
     <path id="_357663880" class="fil0" d="M840.654 1122.32c4.43268,3.89055 4.39016,11.0268 -0.0980316,15.9484l-29.589 33.241c-4.47874,4.91103 -11.7106,5.74134 -16.1362,1.86496 -4.42678,-3.9 -4.39016,-11.0339 0.0874016,-15.9555l29.5925 -33.2374c4.48819,-4.92166 11.7059,-5.74961 16.1433,-1.86142z"/>
     <path id="_357663952" class="fil0" d="M897.955 1159.59c4.54489,3.99213 4.50591,11.3232 -0.0897638,16.3665l-30.2953 34.0004c-4.59922,5.04804 -12.013,5.90197 -16.5532,1.91575 -4.55315,-3.99213 -4.50945,-11.3291 0.0921261,-16.376l30.2799 -33.9886c4.60394,-5.04685 12.0189,-5.91024 16.5662,-1.91811z"/>
     <path id="_357662992" class="fil0" d="M857.323 1136.96c4.7752,4.18701 4.73859,11.8795 -0.0921261,17.1815l-31.6748 35.5193c-4.82953,5.29843 -12.6142,6.18426 -17.3917,2.00788 -4.77874,-4.19174 -4.73504,-11.8772 0.0944883,-17.191l31.6701 -35.5134c4.83307,-5.30197 12.6225,-6.21142 17.3941,-2.00433z"/>
     <path id="_357663568" class="fil0" d="M876.291 1150.3c4.77756,4.18819 4.73741,11.8854 -0.0992127,17.1851l-31.6642 35.5099c-4.82835,5.29961 -12.6225,6.20315 -17.3941,2.01024 -4.77756,-4.18819 -4.74213,-11.8795 0.0956694,-17.1827l31.6666 -35.5193c4.83307,-5.30079 12.6177,-6.20079 17.3953,-2.00315z"/>
     <path id="_357663136" class="fil0" d="M814.789 1137.2c0,0 5.79922,-19.2142 9.35906,-24.9992 21.7736,-35.4638 70.6288,-36.2717 88.989,-20.1662 27.4973,24.137 8.69883,58.8119 -9.88229,79.2048l-13.7221 13.8284 -74.7438 -47.8678z"/>
     <path id="_357663112" class="fil1" d="M831.161 1167.43c-3.58937,-1.46221 -4.93937,-5.69292 -3.02244,-9.463 0.291733,-0.572835 0.64252,-1.10315 1.04055,-1.57914 2.71299,1.99252 5.69174,3.63544 8.86064,4.92638 1.10669,0.45 2.24055,0.859843 3.38977,1.22362 -0.0956694,0.237402 -0.201969,0.474804 -0.32126,0.709843 -1.91693,3.77008 -6.36969,5.63859 -9.94725,4.18229z"/>
     <path id="_357663280" class="fil1" d="M814.76 1153.06c-1.01575,-0.413386 -1.92166,-1.08425 -2.61378,-2.00551 -2.28662,-3.04016 -1.40906,-7.66418 1.95118,-10.3276 0.689764,-0.549213 1.43622,-0.973229 2.20394,-1.26732 0.493701,1.57914 1.1752,3.08386 1.97126,4.49882 0.915355,1.71378 2.02323,3.29055 3.19607,4.81418 0.592914,0.726379 1.17402,1.45394 1.78228,2.16496 -0.275197,0.283465 -0.571654,0.5563 -0.884646,0.810237 -2.34095,1.85315 -5.27126,2.26417 -7.60631,1.31221z"/>
     <path id="_357663664" class="fil2" d="M816.247 1132.55c-0.661418,1.99134 -0.153543,3.96733 0.448819,5.72126 0.662599,1.77165 1.58504,3.41457 2.66811,4.93701 1.05709,1.53898 2.27008,2.95984 3.47599,4.38189 1.26969,1.36536 2.53347,2.76969 3.94252,3.9378 2.79095,2.39882 6.02245,4.31693 9.40513,5.9067 3.37914,1.59685 6.98268,2.82047 10.7244,3.49607 3.71103,0.643701 7.67008,0.862205 11.2654,-0.196063 1.79173,-0.490158 3.43111,-1.34764 4.61457,-2.60669 0.262205,-0.334252 0.574016,-0.640158 0.780709,-1.01929l0.305906 -0.488977 0.34252 -0.713386c0.265748,-0.64252 0.474804,-1.52953 0.429922,-2.27244 -0.0496063,-1.55669 -0.88819,-3.0378 -2.08701,-4.24961 -1.19646,-1.22126 -2.72599,-2.20158 -4.35473,-3.00709 -3.27284,-1.60276 -6.96969,-2.66575 -10.8059,-2.97284l-0.0236221 -0.00236221c-0.548032,-0.0437008 -0.907087,-0.529134 -0.791339,-1.08307 0.0933072,-0.455906 0.472441,-0.817323 0.912993,-0.907087 0.804331,-0.159449 1.76575,-0.49252 2.64095,-0.850394 0.884646,-0.390945 1.76575,-0.812599 2.60197,-1.33937 1.67953,-1.03228 3.26103,-2.26417 4.69961,-3.6815 0.670867,-0.746457 1.39725,-1.46339 1.98662,-2.28543 0.644882,-0.787796 1.19646,-1.63465 1.73622,-2.49567 1.0748,-1.72677 1.96181,-3.55512 2.7626,-5.43071 -0.572835,1.92402 -1.21536,3.86339 -2.18032,5.69764 -0.478347,0.921261 -0.972048,1.84252 -1.56851,2.70945 -0.538583,0.904725 -1.23189,1.71496 -1.8815,2.56063 -0.712205,0.79252 -1.42441,1.59921 -2.2311,2.31378 -0.783071,0.729922 -1.64528,1.39725 -2.53701,1.99016 -0.885827,0.62126 -1.83307,1.14095 -2.79803,1.62638 -0.988583,0.46063 -1.93465,0.864568 -3.07914,1.15984l0.0956694 -1.99488c4.12914,0.127559 8.17087,0.910631 11.837,2.57835 1.81654,0.855119 3.56103,1.9063 5.05394,3.35079 1.46575,1.43386 2.74607,3.37205 2.88898,5.83347 0.0625985,1.24016 -0.140551,2.41654 -0.664961,3.70512l-0.329528 0.709843c-0.205512,0.399213 -0.329528,0.584646 -0.500788,0.881103 -0.303544,0.548032 -0.739371,1.03347 -1.13976,1.52835 -1.73386,1.90866 -4.00866,3.09095 -6.20315,3.70748 -4.44095,1.19646 -8.67402,0.80315 -12.6473,0.0531496 -7.92284,-1.65354 -15.1547,-5.22166 -20.7555,-10.6406 -1.42795,-1.34882 -2.60788,-2.84173 -3.81969,-4.33347 -1.17165,-1.52244 -2.28189,-3.09921 -3.19607,-4.81418 -0.947245,-1.68543 -1.73504,-3.49016 -2.23347,-5.40827 -0.478347,-1.88504 -0.702756,-4.05827 0.207874,-5.99292z"/>
     <path id="_357663544" class="fil2" d="M862.833 1180.98c0,0 0.379134,-0.892914 1.24016,-2.37638 0.891733,-1.46102 2.15788,-3.5941 4.14449,-5.88071 0.969686,-1.15158 2.14488,-2.33268 3.51142,-3.4689 1.39725,-1.08425 2.97402,-2.2311 4.88741,-2.89961 1.85551,-0.768898 4.05118,-1.01102 6.05079,-0.611811l1.47165 0.401575c0.664961,0.210236 0.865749,0.381496 1.31693,0.572835 0.770079,0.297638 1.65473,0.938977 2.48386,1.50118 1.49882,1.27205 2.68229,2.96811 3.24213,4.91221 0.634252,1.93819 0.392126,4.03819 0.0106299,5.90079 -0.38504,1.90276 -1.21299,3.59528 -2.02205,5.13544 -0.836221,1.53425 -1.77402,2.88662 -2.70827,4.0689 -1.84252,2.38819 -3.69213,4.07599 -4.94174,5.26063 -1.30394,1.14213 -2.07166,1.7563 -2.07166,1.7563 0,0 0.587008,-0.798426 1.65,-2.13425 1.05236,-1.33465 2.45906,-3.32599 3.93071,-5.75434 0.737008,-1.21772 1.43858,-2.56418 2.08229,-3.99567 0.598819,-1.44213 1.16457,-2.98229 1.40079,-4.54252 0.243307,-1.55315 0.265748,-3.15 -0.212599,-4.54134 -0.444095,-1.40197 -1.32638,-2.61496 -2.48622,-3.57638 -1.05473,-0.820867 -2.75788,-1.79055 -4.10079,-2.04685 -1.44449,-0.28937 -2.98347,-0.309449 -4.49055,0.245669 -3.03425,0.924804 -5.69646,3.07796 -7.80355,4.95945 -2.10591,1.93701 -3.77835,3.73111 -4.86615,5.03741 -1.10787,1.30039 -1.71969,2.07638 -1.71969,2.07638z"/>
     <path id="_357663640" class="fil2" d="M850.568 1195.47c0,0 1.63701,-2.19331 4.09134,-5.48859 2.42126,-3.25985 5.68229,-7.56379 8.34213,-12.0532 0.69567,-1.11496 1.30039,-2.25118 1.85669,-3.37323 0.496063,-1.13622 1.05118,-2.24055 1.3689,-3.33425 0.733465,-2.1815 0.90945,-4.2189 0.464174,-5.82402 -0.196063,-0.807875 -0.536221,-1.51417 -0.934253,-2.07992 -0.355512,-0.612993 -0.832678,-1.01575 -1.16811,-1.41732 -0.804331,-0.694489 -1.2626,-1.0937 -1.2626,-1.0937 0.0011811,0 0.605906,0.157087 1.65236,0.571654 0.47126,0.281103 1.13504,0.532678 1.70433,1.09016 0.617717,0.490158 1.24488,1.19173 1.68071,2.11299 0.992127,1.80827 1.13976,4.46575 0.493701,7.04292 -0.575197,2.61732 -1.82126,5.2004 -3.23268,7.6193 -2.89488,4.83426 -6.67914,8.97875 -9.70867,11.8228 -3.02481,2.86063 -5.34804,4.40433 -5.34804,4.40433z"/>
     <path id="_357663424" class="fil2" d="M829.301 1185.5c0,0 0.56693,-1.86496 1.88977,-4.44331 1.30276,-2.59016 3.34016,-5.90552 5.81693,-8.95985 1.26732,-1.50118 2.56063,-2.99764 3.94843,-4.25197 1.35118,-1.28504 2.73662,-2.38465 4.03465,-3.16299 0.612993,-0.431103 1.23543,-0.746457 1.8,-0.990946 0.551575,-0.265748 1.02638,-0.48189 1.45748,-0.576378 0.838583,-0.223229 1.29449,-0.309449 1.29449,-0.309449 0,0 -0.383859,0.307087 -1.05709,0.843308 -0.648426,0.527953 -1.52362,1.32047 -2.48268,2.35276 -1.93583,2.02559 -4.31103,4.90867 -6.67796,7.84607 -2.38701,2.91851 -4.78347,5.88662 -6.70158,8.06575 -1.89331,2.1874 -3.32244,3.58701 -3.32244,3.58701z"/>
     <path id="_357663520" class="fil2" d="M810.787 1171.65c0,0 0.584646,-1.48465 1.78819,-3.47481 1.18937,-2.00315 2.97402,-4.52244 4.99489,-6.8693 2.03386,-2.33386 4.25788,-4.51063 6.18071,-5.94449 1.83543,-1.50709 3.47835,-2.04921 3.40276,-2.05984 0,0 -0.223229,0.334252 -0.618898,0.921261 -0.405118,0.532678 -0.918898,1.32638 -1.57914,2.29016 -0.661418,0.930709 -1.4374,2.01614 -2.31378,3.15118 -0.868111,1.13622 -1.85079,2.30669 -2.82874,3.48189 -2.00788,2.30315 -4.16693,4.50709 -5.92678,6.04725 -1.74095,1.56024 -3.09921,2.45669 -3.09921,2.45669z"/>
     <path id="_357662440" class="fil1" d="M850.931 1179.19c-3.57992,-1.45748 -4.93701,-5.71063 -3.02126,-9.47835 1.91339,-3.763 6.38268,-5.63032 9.96379,-4.17284 3.57874,1.4563 4.93347,5.69764 3.02126,9.45946 -1.91575,3.76772 -6.38504,5.64804 -9.96379,4.19174z"/>
     <path id="_357662368" class="fil3" d="M853.818 1213.6c-0.00354331,-0.0011811 -0.00472441,-0.0011811 -0.00708662,-0.00236221 -1.00394,-0.413386 -1.95354,-0.986221 -2.79449,-1.72795l0.0011811 0c-0.461811,-0.403937 -0.872835,-0.840946 -1.24134,-1.30394 -0.00472441,-0.0106299 -0.011811,-0.0177165 -0.0177165,-0.0271654 -0.00354331,-0.00590552 -0.011811,-0.011811 -0.0153543,-0.0177165 -3.02835,-3.90591 -2.7437,-9.76064 0.748819,-14.2134l-0.429922 0.483071c0.00236221,-0.00354331 0.00236221,-0.00354331 0.00236221,-0.00354331l2.50866 -2.81693c0.907087,-0.722835 2.06103,-1.6937 3.34252,-2.9067 2.96929,-2.7874 6.65906,-6.81851 9.53268,-11.5311l5.61733 -6.29882 1.76221 1.13268c-1.51772,0.937796 -2.82166,2.30079 -3.68386,3.99449 -2.22756,4.38189 -0.660237,9.29528 3.49725,10.9878 4.1563,1.69134 9.33426,-0.474804 11.5618,-4.8567 0.387402,-0.761812 0.659056,-1.54016 0.822048,-2.31496l2.03386 1.30276c-0.628347,1.38898 -1.31457,2.6941 -2.03032,3.87874 -1.47165,2.42835 -2.87953,4.41851 -3.93071,5.75434 -1.06181,1.33583 -1.65,2.13425 -1.65,2.13425 0,0 0.766536,-0.612993 2.07166,-1.7563 1.24961,-1.18465 3.09803,-2.87244 4.94174,-5.26063 0.83504,-1.05473 1.6689,-2.2441 2.43307,-3.57638l0.637796 0.408662 2.08347 -2.10118 -24.0461 26.9929c-3.72638,4.09252 -9.30355,5.42835 -13.7008,3.66733 -0.0165354,-0.00708662 -0.034252,-0.0141732 -0.0507874,-0.0212599z"/>
     <path id="_357662632" class="fil3" d="M844.528 1203l21.8433 -32.7626 0.12874 0.0814961c-0.080315,0.297638 -0.170079,0.601182 -0.272835,0.905906 -0.317717,1.09252 -0.872835,2.19803 -1.3689,3.33425 -0.5563,1.12205 -1.16221,2.25827 -1.85669,3.37323 -2.65866,4.49055 -5.92087,8.79331 -8.34213,12.0532 -2.45315,3.29528 -4.09134,5.48859 -4.09134,5.48859 0,0 0.772442,-0.512599 2.00551,-1.49764l-2.50866 2.81693 -5.53701 6.2067zm20.9209 -23.4626c0.0602363,-0.0956694 0.119291,-0.193701 0.175984,-0.290551 0.660237,-1.12913 1.2815,-2.29606 1.81772,-3.48307 0.605906,-0.604725 1.26732,-1.2437 1.97599,-1.89685 0.356693,-0.314173 0.725197,-0.643701 1.11378,-0.967324l0.533859 0.340158 -5.61733 6.29764zm3.29173 -7.41615c0.0295276,-0.10748 0.0555119,-0.212599 0.0767717,-0.318898l0.133465 0.0874016c-0.0708662,0.0755906 -0.138189,0.152362 -0.210236,0.231496z"/>
     <path id="_357662680" class="fil4" d="M879.448 1195.25c0,0 0.587008,-0.798426 1.65,-2.13425 1.05236,-1.33465 2.45906,-3.32599 3.93071,-5.75434 0.718111,-1.18465 1.40197,-2.48977 2.03032,-3.87874 0.0165354,-0.0413386 0.0330709,-0.0791339 0.0519685,-0.116929 0.598819,-1.44213 1.16457,-2.98229 1.40079,-4.54252 0.243307,-1.55315 0.265748,-3.15 -0.212599,-4.54134 -0.444095,-1.40197 -1.32638,-2.61496 -2.48622,-3.57638 -0.750001,-0.584646 -1.82244,-1.24134 -2.86299,-1.66536 -0.427559,-0.174803 -0.849213,-0.308268 -1.2378,-0.381496 -1.44449,-0.28937 -2.98347,-0.309449 -4.49055,0.245669 -2.52047,0.767717 -4.78701,2.38701 -6.68977,3.99213 -0.387402,0.324803 -0.758268,0.651969 -1.11378,0.967324 -0.707481,0.65315 -1.37008,1.29213 -1.97599,1.89685 0.540945,-1.19646 0.989765,-2.41418 1.29803,-3.64252 0.0732284,-0.0791339 0.13937,-0.155906 0.209055,-0.231496 0.812599,-0.884646 1.74095,-1.77284 2.77914,-2.63504 1.39725,-1.08425 2.97402,-2.2311 4.88741,-2.89961 1.85551,-0.768898 4.05118,-1.01102 6.05079,-0.611811l1.47165 0.401575c0.165354,0.0519685 0.302362,0.103937 0.424016,0.153543 0.355512,0.144095 0.553937,0.277559 0.892914,0.419292 0.0212599,0.00826772 0.0389764,0.0153543 0.056693,0.0236221 0.757087,0.308268 1.61575,0.930709 2.42717,1.47756 1.49882,1.27205 2.68229,2.96811 3.24213,4.91221 0.634252,1.93819 0.392126,4.03819 0.0106299,5.90079 -0.38504,1.90276 -1.21299,3.59528 -2.02205,5.13544 -0.0921261,0.166536 -0.183071,0.33189 -0.275197,0.49252 -0.762993,1.33347 -1.59921,2.52166 -2.43307,3.57638 -1.84252,2.38819 -3.69213,4.07599 -4.94174,5.26063 -1.30394,1.14213 -2.07166,1.7563 -2.07166,1.7563z"/>
     <path id="_357662272" class="fil4" d="M850.568 1195.47c0,0 1.63701,-2.19331 4.09134,-5.48859 2.42126,-3.25985 5.68229,-7.56379 8.34213,-12.0532 0.69567,-1.11496 1.30039,-2.25118 1.85669,-3.37323 0.496063,-1.13622 1.05118,-2.24055 1.3689,-3.33425 0.102756,-0.304725 0.19252,-0.608268 0.271654,-0.904725 0.0425197,-0.152362 0.0814961,-0.3 0.114567,-0.447638l2.38937 -3.58229c0.37441,1.59095 0.32126,3.48307 -0.145276,5.33741 -0.011811,0.0578741 -0.0248032,0.116929 -0.0401575,0.174803 -0.0212599,0.106299 -0.0472441,0.212599 -0.0767717,0.318898 -0.308268,1.22717 -0.758268,2.44725 -1.29803,3.64252 -0.536221,1.18701 -1.15748,2.35394 -1.81772,3.48307 -0.0555119,0.0968505 -0.11811,0.194882 -0.175984,0.291733 -2.87244,4.7126 -6.56457,8.74371 -9.53268,11.5311 -1.2815,1.21181 -2.43543,2.18386 -3.34252,2.9067 -1.23307,0.98504 -2.00551,1.49764 -2.00551,1.49764z"/>
     <path id="_357662488" class="fil5" d="M872.643 1189.35c-4.15866,-1.6937 -5.72599,-6.60591 -3.49843,-10.9878 0.862205,-1.6937 2.16614,-3.0567 3.68268,-3.99449l12.1996 7.81182c-0.164173,0.773623 -0.435827,1.55197 -0.823229,2.31378 -2.22756,4.38189 -7.4067,6.54804 -11.5606,4.8567z"/>
     <path id="_357662968" class="fil5" d="M885.027 1182.18l-12.1984 -7.81182c2.39764,-1.48347 5.32441,-1.89803 7.87087,-0.861024 3.42992,1.39606 5.1,4.99961 4.32756,8.67284z"/>
    </g>
   </g>
   <path id="_357662728" class="fil6" d="M636.075 1500.14l242.838 -437.841 5.14961 -9.04016 9.27402 4.69134 21.9319 11.0929 9.90001 5.00788 -5.18032 9.81969c-0.147638,0.281103 -138.872,250.459 -236.195,435.066l-47.7189 -18.7973z"/>
   <path id="_357661840" class="fil7" d="M606.043 1544.45l27.6095 -48.4666 53.7981 22.6181 -13.2768 25.1823c-3.67914,6.97914 -7.32993,14.791 -11.3327,23.3575 -17.941,38.3977 -42.2729,90.4737 -76.7989,99.3166 -7.4504,1.90984 -13.9595,2.65866 -20.4284,2.66103 -6.46654,0.0011811 -12.3378,-0.688583 -18.8232,-1.68898l-82.9323 -12.7902 -0.506693 -0.0779528 0.00590552 -0.0425197c-9.54804,-1.47165 -14.2087,-2.18977 -19.2331,-6.34607 -4.47166,-3.69803 -6.52323,-8.10946 -10.5295,-16.7244l-0.944883 -2.03032c-3.41339,-7.31339 -6.39331,-15.7299 -7.3252,-23.3835 -0.726379,-5.97284 -0.240945,-11.7165 2.05984,-16.6961l-0.0366142 -0.0177165c2.78622,-6.02363 7.69371,-10.3784 15.4181,-12.1252 3.94607,-0.891733 8.58072,-1.01339 13.9984,-0.177165l98.7107 15.2221c6.30355,0.972048 13.5921,-3.05079 20.6799,-9.15827 12.5457,-10.8118 23.641,-27.6638 29.8878,-38.6327z"/>
   <path id="_357661768" class="fil8" d="M1096.47 1271.06c-33.711,30.7347 -72.4973,55.6937 -105.82,33.0662 -33.326,-22.6087 -35.6835,-57.7725 -12.3366,-91.9347l147.826 -195.561c29.5784,-43.2827 48.1725,-31.5827 90.3709,-2.93504l-4.79528 4.19292c42.2103,28.6536 118.948,1.81536 89.38,45.0898l-204.625 208.082z"/>
   <g>
    <path id="_357661504" class="fil8" d="M1065.3 1488.04c-2.68583,30.9036 -20.9079,32.9221 -54.3839,35.5559 -33.4925,2.63622 -51.4276,-10.7291 -53.1378,-44.1744l7.09253 -230.306c-1.71378,-33.4406 24.052,-62.6977 57.5327,-65.3245 33.4925,-2.63858 43.767,20.6055 56.3481,51.352 23.954,58.5615 -13.4516,252.895 -13.4516,252.897z"/>
    <g>
     <path id="_357661720" class="fil9" d="M1010.91 1523.59c33.476,-2.63504 51.6969,-4.65473 54.3839,-35.5583 0,0.0011811 7.99843,-41.504 14.2181,-91.9276 -10.7232,-0.10748 -21.4382,0.305906 -31.6914,0.418111 -26.0669,0.271654 -52.2154,1.24843 -78.2398,0.137008 -3.07559,-0.121654 -6.15945,-0.295276 -9.24095,-0.438189l-2.56772 83.1946c1.71024,33.4453 19.6453,46.8095 53.1378,44.1744z"/>
     <path id="_357662200" class="fil10" d="M1068.68 1462.59c0,0 5.66693,23.5512 22.141,51.6556 5.62205,9.58347 6.17363,25.8024 9.53741,34.0288 16.0051,4.27559 18.3874,42.4276 15.1288,48.9237 -3.22441,10.9996 -58.9619,19.4823 -92.6812,5.69292 -45.8693,-18.7358 -79.0902,26.5252 -180.491,8.12245 -48.7252,-8.83583 -35.1933,-55.3548 -17.9941,-67.1115 23.5394,-9.05316 48.717,-8.80512 68.0918,-10.9276 35.1059,-3.83032 39.0827,-16.8898 43.3677,-30.8918 3.07677,-10.0488 6.31182,-20.5854 21.3425,-28.539 28.187,18.3142 53.1981,28.5862 71.1709,24.3638 27.3555,-6.41693 26.3634,-35.4579 40.3866,-35.3173z"/>
     <path id="_357662176" class="fil11" d="M1033.94 1578.69c24.6921,10.0937 59.6493,9.77363 82.6855,4.95237 -0.746457,-13.6559 -5.31378,-32.4449 -16.2673,-35.3681 -3.36496,-8.2252 -3.91536,-24.4453 -9.53741,-34.0288 -16.474,-28.1044 -22.141,-51.6567 -22.141,-51.6567 -14.0244,-0.138189 -13.0311,28.9004 -40.3866,35.3185 -17.9717,4.22363 -42.9839,-6.04961 -71.1709,-24.3638 -15.0307,7.95355 -18.2658,18.489 -21.3425,28.539 -4.28622,14.0032 -8.26182,27.0614 -43.3677,30.8918 -19.3748,2.12244 -44.5524,1.87441 -68.0918,10.9276 -9.36142,6.39213 -17.6091,23.0776 -15.3591,38.387 4.90394,2.48386 10.8095,4.44213 17.8382,5.71772 116.376,21.1169 154.5,-30.8327 207.141,-9.31654z"/>
     <path id="_357661600" class="fil12" d="M1103.54 1549.7c-0.993308,-0.612993 -2.04449,-1.1185 -3.17362,-1.42559 -3.36496,-8.2252 -3.91536,-24.4453 -9.53741,-34.0288 -16.474,-28.1044 -22.141,-51.6567 -22.141,-51.6567 -14.0244,-0.138189 -13.0311,28.9004 -40.3866,35.3185 -17.9717,4.22363 -42.9839,-6.04961 -71.1709,-24.3638 -35.9622,19.0323 -21.5138,52.0678 -81.8138,58.656 -19.3925,2.1248 -27.4488,2.64921 -50.9882,11.7024 -2.31496,1.58504 -4.57796,3.81024 -6.61536,6.48071 4.95237,3.27284 11.3504,5.84174 19.539,7.32993 101.4,18.4028 134.625,-26.8654 180.488,-8.12127 27.3827,11.1886 69.293,7.70316 85.8001,0.108662z"/>
     <path id="_357661624" class="fil10" d="M989.253 1526.8c20.7012,4.90867 47.6055,11.8276 69.3048,7.67363 12.698,-2.42717 23.9374,-8.57363 34.187,-16.2638 -0.568111,-1.40669 -1.20945,-2.74961 -1.91929,-3.97087 -16.474,-28.1044 -22.141,-51.6567 -22.141,-51.6567 -14.0244,-0.138189 -13.0311,28.9004 -40.3866,35.3185 -17.6433,4.14213 -42.1075,-5.71772 -69.6615,-23.4024 3.06496,18.8126 9.91536,47.3906 30.6166,52.3016z"/>
     <path id="_357661864" class="fil13" d="M941.476 1533.29c-1.7504,3.41221 -5.89725,4.83071 -9.25749,3.17008l-22.4622 -11.0906c-3.36614,-1.6689 -4.66772,-5.77323 -2.91024,-9.18662 1.74095,-3.40512 5.89016,-4.82717 9.24686,-3.17126l22.4752 11.1024c3.36378,1.65945 4.66418,5.76497 2.90788,9.17599z"/>
     <path id="_357661456" class="fil13" d="M955.157 1515.09c-1.60276,3.11103 -5.39882,4.40906 -8.47323,2.88662l-20.5618 -10.1492c-3.07796,-1.52008 -4.26851,-5.27599 -2.66103,-8.40119 1.59685,-3.11811 5.39174,-4.42559 8.46379,-2.9067l20.5701 10.1563c3.07796,1.52244 4.26615,5.28426 2.66221,8.41418z"/>
     <path id="_357660856" class="fil13" d="M967.6 1498.29c-1.59803,3.12284 -5.3941,4.41496 -8.46851,2.89961l-20.5713 -10.1587c-3.07087,-1.51417 -4.25433,-5.27481 -2.65984,-8.39883 1.60039,-3.11929 5.39528,-4.41615 8.47678,-2.89607l20.5606 10.1575c3.07559,1.50827 4.2567,5.27126 2.66221,8.39646z"/>
     <path id="_357660832" class="fil14" d="M810.258 1565.48c-0.0106299,0.0295276 -0.0165354,0.0602363 -0.0248032,0.0862205 0.00826772,-0.0248032 0.0141732,-0.056693 0.0248032,-0.0862205l0 0zm-0.0318898 0.114567c-1.50827,5.37166 -2.07874,11.1201 -1.26024,16.6878 4.90394,2.48386 10.8095,4.44213 17.8382,5.71772 116.376,21.1169 154.5,-30.8327 207.141,-9.31654 24.6921,10.0937 59.6493,9.77363 82.6855,4.95237 -0.13937,-2.57008 -0.414567,-5.32205 -0.842127,-8.11654l0.011811 0.0720473c0.27874,1.8189 0.49252,3.61063 0.638977,5.35512l0.0200788 0.145276c0.426378,4.95 0.370866,9.43465 -0.0578741,12.5587 0,0.00354331 -0.00236221,0.00472441 -0.00354331,0.00826772 0.0011811,0.0011811 0.00354331,0.0011811 0.00354331,0.00354331 -0.15,1.08307 -0.347244,2.00197 -0.583465,2.72126 -0.100394,0.307087 -0.209055,0.578741 -0.325985,0.807875l0 0.0011811c-0.00944883,0.0389764 -0.0236221,0.0791339 -0.0354331,0.11811l0 0.0011811c-1.35709,4.12796 -10.089,7.88977 -22.2473,10.2331 -19.7173,3.80788 -48.4382,3.89174 -69.2823,-4.21536 -0.0543308,-0.0212599 -0.108662,-0.0413386 -0.162992,-0.0625985 -0.277559,-0.109843 -0.553937,-0.219685 -0.831497,-0.333071 -0.0401575,-0.0153543 -0.0791339,-0.0307087 -0.121654,-0.0496063 -1.88032,-0.767717 -3.74055,-1.43032 -5.58544,-1.99134 -43.1244,-13.1386 -77.6634,27.7607 -174.906,10.1138l0 0.0011811c-0.0519685,-0.00944883 -0.102756,-0.0188977 -0.153543,-0.0318898 -0.0307087,-0.00236221 -0.0614174,-0.00826772 -0.0885827,-0.0129921 -0.0165354,-0.00590552 -0.0295276,-0.00590552 -0.0472441,-0.011811 -22.0051,-4.07953 -31.1811,-15.8929 -33.0638,-28.6689l-0.00472441 -0.0236221c-0.812599,-5.55945 -0.246851,-11.2996 1.26496,-16.6642zm300.899 -6.48426c0.00472441,0.00354331 0.00472441,0.0106299 0.00708662,0.0141732l0.00590552 0.0129921c-0.00472441,-0.00826772 -0.0106299,-0.0200788 -0.0141732,-0.0283465l0.0011811 0.0011811zm1.16929 2.74134l0.0200788 0.0413386c0.0720473,0.191339 0.144095,0.376772 0.21378,0.56693 0.226772,0.612993 0.445276,1.2378 0.648426,1.86614l0.011811 0.0330709c-0.277559,-0.851575 -0.577559,-1.68898 -0.894095,-2.50866l0 0.0011811zm2.0941 6.67796c0.336614,1.3311 0.628347,2.6811 0.88819,4.03701l0.0177165 0.103937c-0.262205,-1.39016 -0.564567,-2.77559 -0.905906,-4.14095z"/>
     <path id="_357661432" class="fil15" d="M810.811 1563.67c0.431103,-1.31102 0.917717,-2.59606 1.45276,-3.84331l0.109843 -0.255118c0.324803,-0.737008 0.655512,-1.46102 1.00394,-2.16732l0.249213 -0.475985c0.307087,-0.620079 0.638977,-1.23189 0.981497,-1.82126l0.348425 -0.612993c0.316536,-0.533859 0.640158,-1.05 0.967324,-1.56614l0.440552 -0.676772c0.327166,-0.465355 0.647245,-0.922442 0.982678,-1.36772l0.364961 -0.504331c4.95237,3.27284 11.348,5.84056 19.5366,7.32875 101.4,18.4028 134.625,-26.8654 180.488,-8.12127 27.3827,11.1886 69.293,7.70316 85.8001,0.108662 -0.595276,-0.368504 -1.21299,-0.696851 -1.85669,-0.969686 0.153543,0.0649607 0.303544,0.131102 0.453544,0.196063l0.507874 0.251575c0.422835,0.218504 0.838583,0.459449 1.24016,0.720473l0.434646 0.291733c0.519685,0.364961 1.01339,0.767717 1.49528,1.21536l0.264567 0.272835c0.399213,0.387402 0.779528,0.793701 1.14449,1.21654l0.416929 0.499607c0.335433,0.42874 0.667323,0.879922 0.999213,1.34764l0.271654 0.393307c0.394488,0.6 0.77126,1.22362 1.1374,1.87559l0.271654 0.514961c0.27874,0.519685 0.54567,1.04646 0.806694,1.58977 0.00472441,0.00826772 0.0106299,0.0188977 0.0141732,0.0271654l0.275197 0.611811c0.297638,0.664961 0.587008,1.34528 0.855119,2.04567l0.0259843 0.0578741c0.316536,0.818505 0.615355,1.65473 0.894095,2.50748l0.165354 0.533859c0.207874,0.659056 0.4063,1.32284 0.597638,1.9937l0.144095 0.530315c0.0992127,0.370866 0.196063,0.740552 0.291733,1.1126 0.341339,1.36536 0.644882,2.75079 0.908268,4.13977l0.0625985 0.347244c0.147638,0.809056 0.298819,1.61929 0.413386,2.43307l0.0165354 0.0696851c0.427559,2.79449 0.701575,5.54528 0.842127,8.11654 -23.0362,4.82126 -57.9945,5.14134 -82.6855,-4.95237 -52.6406,-21.5162 -90.7642,30.4323 -207.141,9.31654 -7.02875,-1.27441 -12.9343,-3.23386 -17.8382,-5.71772 -0.818505,-5.56772 -0.248032,-11.3162 1.26024,-16.6878 0.00354331,-0.00944883 0.00354331,-0.0188977 0.00708662,-0.0283465 0.00826772,-0.0248032 0.0141732,-0.056693 0.0248032,-0.0862205 0.173622,-0.608268 0.356693,-1.21417 0.552756,-1.81181zm8.32678 -15.0484l0.0212599 -0.0259843c0.0578741,-0.0661418 0.116929,-0.133465 0.174803,-0.199606l0.0188977 -0.0200788c-0.0708662,0.0814961 -0.142913,0.162992 -0.214961,0.244488l0 0.0011811zm1.77402 -1.8874l0.0484252 -0.0507874c0.0555119,-0.0543308 0.109843,-0.109843 0.164173,-0.161811 0.0413386,-0.0354331 0.0791339,-0.0732284 0.120473,-0.108662 -0.112205,0.105118 -0.22441,0.210236 -0.334252,0.320079l0.0011811 0.0011811zm2.24528 -1.97717c0.0437008,-0.0377953 0.0921261,-0.0755906 0.138189,-0.109843 0.340158,-0.264567 0.68504,-0.51378 1.02992,-0.750001 -0.389764,0.26811 -0.78189,0.553937 -1.16811,0.859843zm277.206 3.5126l0 0c0.135827,0.0377953 0.272835,0.0767717 0.407481,0.120473 -0.133465,-0.0437008 -0.271654,-0.0826772 -0.407481,-0.120473z"/>
     <path id="_357661408" class="fil16" d="M817.71 1550.38l0 0 0.191339 -0.232677c0.305906,-0.400394 0.616536,-0.779528 0.94252,-1.1563l0.294095 -0.367323c0.0720473,-0.0814961 0.144095,-0.164173 0.214961,-0.245669l0.0696851 -0.0696851c0.327166,-0.37441 0.666142,-0.712205 1.00039,-1.06654l0.488977 -0.505512c0.109843,-0.109843 0.220866,-0.216142 0.333071,-0.32126 0.294095,-0.274016 0.587008,-0.527953 0.879922,-0.783071l0.53504 -0.465355c0.164173,-0.138189 0.328347,-0.276378 0.497244,-0.407481 0.386221,-0.305906 0.778347,-0.591733 1.16811,-0.859843l0 0.0011811c23.5394,-9.05434 31.5957,-9.57993 50.9882,-11.7036l0 0c1.94055,-0.209055 3.80551,-0.45 5.59489,-0.715749 0.00708662,-0.0011811 0.0106299,-0.00354331 0.0177165,-0.00472441 0.0366142,-0.0011811 0.0708662,-0.00826772 0.103937,-0.0141732 11.4425,-1.70788 19.8933,-4.48701 26.4284,-7.97363 0.595276,0.767717 1.36772,1.41732 2.29843,1.87914l22.4622 11.0917c3.36024,1.65945 7.50709,0.240945 9.25631,-3.17126 0.175984,-0.338977 0.320079,-0.687402 0.435827,-1.03819 1.04055,-3.16772 -0.315355,-6.64725 -3.34252,-8.1378l-19.1977 -9.48308c2.26654,-2.29606 4.23307,-4.7126 6.05788,-7.20355 0.218504,0.144095 0.45,0.27874 0.693308,0.399213l20.563 10.1504c3.07323,1.52126 6.8693,0.222047 8.47323,-2.88898 0.159449,-0.307087 0.28937,-0.624804 0.393307,-0.94252 0.955513,-2.90906 -0.283465,-6.09922 -3.0567,-7.47166l-19.9075 -9.82678 0.0011811 -0.00354331 0.00354331 0.0011811c1.47756,-2.21221 3.03307,-4.43268 4.74331,-6.60945 0.364961,0.309449 0.777166,0.577559 1.2248,0.800788l20.5713 10.1599c1.99606,0.983859 4.29567,0.785434 6.10276,-0.33189 4.65118,12.2646 12.0012,23.0882 24.0189,25.9406 20.7012,4.90985 47.6055,11.8287 69.3048,7.67481 12.698,-2.42717 23.9374,-8.57363 34.187,-16.2638 -0.568111,-1.40669 -1.20945,-2.74961 -1.91929,-3.97087 5.62205,9.58347 6.17363,25.8024 9.53741,34.0288l0 0c0.135827,0.0377953 0.272835,0.0767717 0.407481,0.120473 0.31063,0.0992127 0.612993,0.212599 0.90945,0.335433 0.643701,0.272835 1.26142,0.601182 1.85669,0.969686 -16.5083,7.59449 -58.4174,11.0787 -85.8001,-0.108662 -45.8634,-18.7441 -79.0879,26.5229 -180.488,8.12127 -8.18859,-1.48819 -14.5843,-4.05591 -19.5366,-7.32875l0.00354331 0 -0.00590552 -0.0011811zm128.685 -69.6438c3.02599,-2.55 6.52323,-4.96418 10.7327,-7.19528l0.0011811 0.0011811c0.185433,0.127559 0.377953,0.248032 0.574016,0.372048 0.312992,0.201969 0.622441,0.402756 0.935434,0.602363 0.680315,4.17756 1.54961,8.83465 2.71299,13.6099l-14.9563 -7.39016z"/>
     <path id="_357661288" class="fil17" d="M958.635 1474.5c27.5563,17.6835 52.0193,27.5421 69.6627,23.4012 27.3555,-6.41693 26.3634,-35.4579 40.3866,-35.3185l0 0.0011811c0,0 0.752363,3.1252 2.50512,8.45552 2.71654,8.27009 7.84253,21.854 16.3169,37.3394 0.00236221,0.00354331 0.00826772,0.0153543 0.00944883,0.0177165 0.0236221,0.0484252 0.0484252,0.0897638 0.0744095,0.137008 0.00708662,0.00826772 0.011811,0.0165354 0.0165354,0.0283465 0.0200788,0.0389764 0.0401575,0.0732284 0.0625985,0.112205 0.00826772,0.0165354 0.0165354,0.0307087 0.0236221,0.046063 0.0200788,0.0366142 0.0377953,0.0696851 0.0578741,0.105118 0.0212599,0.0366142 0.0413386,0.0744095 0.0614174,0.108662 0.011811,0.0248032 0.0236221,0.0437008 0.0354331,0.0661418 0.0177165,0.0354331 0.0377953,0.0708662 0.0555119,0.105118 0.00708662,0.00944883 0.0129921,0.0200788 0.0200788,0.0283465 0.0188977,0.0389764 0.0366142,0.0732284 0.0578741,0.108662 0.00708662,0.00826772 0.0106299,0.0165354 0.0153543,0.0271654 0.0933072,0.168898 0.186614,0.335433 0.27874,0.50315l0.0011811 0c0.722835,1.29921 1.46575,2.60433 2.23583,3.92481 0.0011811,0.00708662 0.00236221,0.0106299 0.00826772,0.0153543 0.0177165,0.0318898 0.0389764,0.0673229 0.056693,0.101575 0.0106299,0.0177165 0.0177165,0.0307087 0.0283465,0.0472441 0.0200788,0.0330709 0.0354331,0.0602363 0.0519685,0.0874016 0.0141732,0.0248032 0.0295276,0.0484252 0.0413386,0.0708662 0.0141732,0.0248032 0.0307087,0.0519685 0.0448819,0.0755906 0.0259843,0.0496063 0.056693,0.0944883 0.0814961,0.144095l0 0.0011811c0.709843,1.22008 1.35118,2.56181 1.91929,3.96969 -10.2496,7.69016 -21.4902,13.8366 -34.187,16.2638 -21.6992,4.15394 -48.6036,-2.76614 -69.3048,-7.67481 -12.0177,-2.85236 -19.3677,-13.6772 -24.0189,-25.9406 0.975591,-0.603544 1.80591,-1.47284 2.36575,-2.56772 0.158268,-0.304725 0.287008,-0.618898 0.390945,-0.934253 0.954331,-2.90433 -0.279921,-6.1004 -3.05315,-7.46221l-3.58701 -1.77165c-1.16339,-4.7752 -2.03268,-9.43229 -2.71299,-13.6099l0.0011811 0.0011811c-0.00236221,-0.00472441 -0.0011811,-0.00826772 -0.00354331,-0.0141732z"/>
     <path id="_357660688" class="fil18" d="M906.542 1516.85c0.00354331,-0.00944883 0.00590552,-0.0188977 0.00826772,-0.0271654 -0.00236221,0.00944883 -0.00472441,0.0177165 -0.00826772,0.0271654zm0.0129921 -0.0283465c0.0838583,-0.218504 0.180709,-0.432284 0.291733,-0.644882 1.57087,-3.07087 5.10473,-4.53189 8.2441,-3.56929 -3.13937,-0.961418 -6.67323,0.497244 -8.2441,3.56929 -0.111024,0.212599 -0.207874,0.426378 -0.291733,0.644882z"/>
     <path id="_357660928" class="fil19" d="M906.415 1517.21c0.0389764,-0.116929 0.0814961,-0.238583 0.126378,-0.356693 0.00354331,-0.00944883 0.00590552,-0.0188977 0.00826772,-0.0271654 0.00472441,-0.0011811 0.00472441,-0.00236221 0.00472441,-0.00236221 0.0838583,-0.217323 0.180709,-0.431103 0.291733,-0.643701 1.57087,-3.07087 5.10473,-4.53189 8.2441,-3.56929 0.341339,0.10748 0.676772,0.237402 1.00276,0.398032l0 0 3.27756 1.61929 19.1977 9.48308c3.02717,1.49055 4.38307,4.97008 3.34252,8.1378 -0.115748,0.350788 -0.259843,0.699213 -0.435827,1.03819 -1.74921,3.41221 -5.89607,4.83071 -9.25631,3.17008l-22.4622 -11.0906c-0.930709,-0.461811 -1.70315,-1.11142 -2.29843,-1.87914 -0.00708662,-0.00826772 -0.0141732,-0.0165354 -0.0212599,-0.0259843 0.00708662,0 0.011811,-0.00354331 0.0141732,-0.00472441 -1.32165,-1.7315 -1.75512,-4.06063 -1.03583,-6.24686z"/>
     <path id="_357661192" class="fil19" d="M923.065 1500.36c0.103937,-0.314173 0.237402,-0.630709 0.39567,-0.938977l0.0011811 0c1.44095,-2.81221 4.67126,-4.1504 7.54489,-3.27047 0.311811,0.0956694 0.618898,0.217323 0.917717,0.36378l0 0 0.662599 0.328347 19.9075 9.82796c2.77323,1.37126 4.01221,4.56142 3.0567,7.47048 -0.105118,0.318898 -0.233858,0.635434 -0.393307,0.94252 -1.60394,3.11221 -5.4,4.41024 -8.47442,2.8878l-20.5618 -10.1492c-0.243307,-0.119291 -0.475985,-0.255118 -0.693308,-0.399213 0,-0.00354331 0,-0.00354331 -0.00236221,-0.00354331 0.00472441,-0.00590552 0.0106299,-0.0141732 0.0165354,-0.022441 -2.27835,-1.52835 -3.24567,-4.39252 -2.37756,-7.03701z"/>
     <path id="_357660784" class="fil18" d="M935.512 1483.57c0.102756,-0.315355 0.231496,-0.627166 0.388583,-0.933072 1.44213,-2.81457 4.67717,-4.14567 7.5567,-3.25985 -2.87953,-0.885827 -6.11457,0.445276 -7.5567,3.25985 -0.154725,0.308268 -0.285827,0.616536 -0.390945,0.935434 -0.0283465,0.0885827 -0.0543308,0.178347 -0.0791339,0.264567 0.0248032,-0.0885827 0.0519685,-0.179528 0.080315,-0.26811l0.0011811 0.0011811zm-0.0850394 0.275197c-0.0011811,0.00590552 -0.00354331,0.011811 -0.00590552,0.0177165 0.00236221,-0.00590552 0.00472441,-0.011811 0.00590552,-0.0177165z"/>
     <path id="_357661024" class="fil19" d="M935.511 1483.57c0.103937,-0.318898 0.23504,-0.629528 0.389764,-0.936615 1.44213,-2.81457 4.67717,-4.14567 7.5567,-3.25985 0.311811,0.0944883 0.617717,0.217323 0.920079,0.36378l2.01732 0.99567 14.9563 7.39016 3.58701 1.77165c2.77323,1.36299 4.00748,4.5567 3.05315,7.46221 -0.103937,0.315355 -0.233858,0.629528 -0.390945,0.934253 -0.559843,1.09488 -1.39016,1.96299 -2.36575,2.56772 -1.80591,1.11732 -4.1067,1.31575 -6.10276,0.33189l-20.5713 -10.1587c-0.447638,-0.22441 -0.859843,-0.493701 -1.2248,-0.801969 0.00590552,-0.00708662 0.0106299,-0.011811 0.0129921,-0.0177165 -1.80945,-1.53898 -2.57126,-4.01103 -1.92756,-6.35315 0.00236221,-0.00590552 0.00472441,-0.011811 0.00708662,-0.0177165 0,-0.00236221 0.0011811,-0.00590552 0.00236221,-0.00826772 0.0248032,-0.0862205 0.0507874,-0.175984 0.080315,-0.263386z"/>
    </g>
   </g>
   <path id="_357660592" class="fil0" d="M1066.53 903.827c-13.1917,33.7441 -51.2327,50.4107 -84.978,37.2177 -33.7406,-13.1858 -21.0024,-47.9162 -7.813,-81.6674l57.4418 -225.055c13.187,-33.7394 51.2363,-50.4024 84.978,-37.2107 33.7418,13.1894 50.4012,51.241 37.2154,84.9721l-86.8442 221.743z"/>
   <path id="_357660352" class="fil20" d="M1400.94 920.787c-2.37166,-2.32087 -196.447,-7.90394 -199.285,-5.01142l-108.032 129.8c31.8544,36.6059 86.6268,99.4702 118.486,136.055l190.343 -126.607c36.6461,-37.4823 35.974,-97.5816 -1.51181,-134.236z"/>
   <path id="_357660616" class="fil21" d="M1432.55 1103.81l0 0c0.881103,-0.766536 1.76457,-1.53071 2.64803,-2.29606 -1.35,1.16929 -2.29016,1.9878 -2.64803,2.29606z"/>
   <path id="_357660280" class="fil8" d="M1368.81 1277.62c-13.9547,50.6126 -36.3945,98.719 -82.7233,97.1434 -46.3229,-1.55551 -70.2001,-34.3418 -68.4402,-81.9308l23.8784 -281.12c2.22874,-60.2918 27.5126,-60.3142 86.178,-58.3264l-2.0941 7.02638c58.6808,1.98543 85.3949,-41.5784 83.1709,18.6992l-39.9697 298.508z"/>
   <g>
    <path id="_357660040" class="fil8" d="M1379.05 1615.61c1.92756,35.6481 -18.5103,40.891 -56.2311,49.2957 -37.7386,8.41064 -60.3343,-3.92363 -67.6808,-41.7591l-29.0988 -263.576c-7.35119,-37.8296 17.2866,-75.3272 55.0146,-83.726 37.7386,-8.413 53.1981,16.415 72.4973,49.4197 36.75,62.8642 25.4988,290.345 25.4988,290.346z"/>
    <g>
     <path id="_357660256" class="fil9" d="M1322.82 1664.91c37.7209,-8.40591 58.1575,-13.65 56.2311,-49.2981 0,0.0011811 2.41299,-48.5847 1.36063,-107.047 -12.2362,1.60866 -24.3803,3.80906 -36.0437,5.59371 -29.661,4.51772 -59.2997,9.85158 -89.1343,12.7854 -3.52205,0.359055 -7.06536,0.659056 -10.5992,0.992127l10.5047 95.2146c7.34646,37.8355 29.9421,50.1685 67.6808,41.7591z"/>
     <path id="_357659968" class="fil10" d="M1378.81 1586.06c0,0 10.2591,25.9217 33.5681,55.2886 7.95355,10.0122 11.2004,28.4044 16.3606,37.2343 18.9295,2.28898 27.802,45.3792 25.1374,53.3079 -1.89921,13.0547 -64.0418,31.7162 -104.691,21.4477 -55.2922,-13.9441 -85.8414,42.9933 -204.358,38.3929 -56.9493,-2.20276 -49.0394,-57.3957 -31.3382,-73.5686 25.3606,-14.1154 54.091,-17.8973 75.8256,-23.4437 39.3851,-10.0335 41.8075,-25.5555 44.4307,-42.2032 1.88386,-11.9469 3.86929,-24.476 19.7138,-35.9646 35.0752,16.3181 65.2335,23.9858 85.0312,16.2732 30.1347,-11.7284 24.3166,-44.6599 40.3193,-46.7646z"/>
     <path id="_357659944" class="fil11" d="M1357.96 1723.97c29.765,7.51536 69.5469,1.50709 95.0186,-7.70552 -3.05551,-15.4394 -11.2925,-36.1122 -24.2469,-37.676 -5.16142,-8.82875 -8.40709,-27.2221 -16.3606,-37.2343 -23.3091,-29.367 -33.5681,-55.2898 -33.5681,-55.2898 -16.0028,2.10709 -10.1847,35.0362 -40.3193,46.7658 -19.7977,7.71379 -49.9571,0.0448819 -85.0312,-16.2732 -15.8457,11.4898 -17.8299,24.0166 -19.7138,35.9646 -2.62323,16.6488 -5.04567,32.1697 -44.4307,42.2032 -21.7347,5.54646 -50.465,9.32717 -75.8256,23.4437 -9.63544,8.79449 -16.3406,29.1402 -11.3043,46.2213 5.98819,2.03858 13.0335,3.31654 21.248,3.63544 136.021,5.27599 171.076,-60.0745 234.534,-44.0552z"/>
     <path id="_357660232" class="fil12" d="M1432.58 1679.7c-1.23071,-0.538583 -2.51103,-0.944883 -3.84685,-1.11378 -5.16142,-8.82875 -8.40709,-27.2221 -16.3606,-37.2343 -23.3091,-29.367 -33.5681,-55.2898 -33.5681,-55.2898 -16.0028,2.10709 -10.1847,35.0362 -40.3193,46.7658 -19.7977,7.71379 -49.9571,0.0448819 -85.0312,-16.2732 -37.9087,27.4914 -16.1102,62.8028 -83.7579,80.0445 -21.7547,5.55237 -30.8516,7.4504 -56.2122,21.5669 -2.38229,2.17914 -4.60276,5.07993 -6.49252,8.45198 6.17245,2.93032 13.8768,4.82481 23.4484,5.19922 118.515,4.6004 149.067,-52.3453 204.353,-38.3906 33.0095,8.32914 80.2028,-2.40945 97.7871,-13.7268z"/>
     <path id="_357660088" class="fil10" d="M1298.66 1672.06c24.3815,2.25236 56.1556,5.79331 80.2123,-2.4437 14.0776,-4.81536 25.8921,-13.6335 36.3307,-24.0508 -0.875198,-1.51181 -1.82244,-2.9374 -2.82874,-4.21418 -23.3091,-29.367 -33.5681,-55.2898 -33.5681,-55.2898 -16.0028,2.10709 -10.1847,35.0362 -40.3193,46.7658 -19.4362,7.56733 -48.9048,0.282284 -83.1579,-15.4217 6.53032,20.9421 18.9508,52.4008 43.3311,54.6544z"/>
     <path id="_357659752" class="fil13" d="M1245.27 1687.16c-1.44449,4.17048 -5.94095,6.45591 -10.037,5.10709l-27.3862 -9.013c-4.10551,-1.35827 -6.25158,-5.82402 -4.79882,-9.99804 1.43386,-4.16103 5.9315,-6.45237 10.024,-5.10591l27.4028 9.02245c4.10197,1.34764 6.24567,5.81693 4.79528,9.98741z"/>
     <path id="_357659608" class="fil13" d="M1257.92 1664.21c-1.3252,3.80315 -5.44016,5.89607 -9.19016,4.65709l-25.0689 -8.24646c-3.75237,-1.23425 -5.71654,-5.32205 -4.38898,-9.14292 1.31693,-3.81142 5.42953,-5.9126 9.17599,-4.67953l25.0784 8.25355c3.75355,1.2378 5.71418,5.3315 4.3937,9.15827z"/>
     <path id="_357659320" class="fil13" d="M1269.38 1643.07c-1.31693,3.81614 -5.43426,5.90079 -9.18072,4.67008l-25.0819 -8.25473c-3.74292,-1.22953 -5.69882,-5.32323 -4.38544,-9.14056 1.31929,-3.8126 5.43426,-5.90315 9.19135,-4.66772l25.0677 8.25473c3.74764,1.22244 5.70237,5.31969 4.38898,9.1382z"/>
     <path id="_357659272" class="fil14" d="M1100.94 1745.03c-0.00590552,0.0354331 -0.00826772,0.0708662 -0.0141732,0.102756 0.00472441,-0.0307087 0.00826772,-0.0673229 0.0141732,-0.102756l0 0zm-0.0177165 0.134646c-0.850394,6.36497 -0.574016,13.0075 1.25906,19.2201 5.98819,2.03858 13.0335,3.31654 21.248,3.63544 136.021,5.27599 171.076,-60.0745 234.534,-44.0552 29.765,7.51536 69.5469,1.50709 95.0186,-7.70552 -0.574016,-2.90551 -1.33228,-5.99764 -2.27008,-9.11221l0.0248032 0.080315c0.611811,2.02677 1.14449,4.03465 1.59331,5.99764l0.046063 0.162992c1.28504,5.57126 1.94646,10.6913 1.96181,14.3197 0,0.00472441 -0.0011811,0.00708662 -0.00236221,0.0106299 0.0011811,0.0011811 0.00354331,0.0011811 0.00354331,0.00354331 0.00354331,1.25787 -0.0720473,2.3374 -0.22441,3.19488 -0.0661418,0.366142 -0.145276,0.693308 -0.242126,0.97441l0.0011811 0c-0.00590552,0.0472441 -0.0141732,0.0944883 -0.022441,0.140551l0 0.0011811c-0.878741,4.92284 -10.2224,10.6193 -23.6988,15.2516 -21.8528,7.52245 -54.5658,12.2551 -79.6276,6.3815 -0.0649607,-0.0153543 -0.129921,-0.0295276 -0.194882,-0.0437008 -0.334252,-0.0814961 -0.667323,-0.161811 -1.00158,-0.246851 -0.0484252,-0.0106299 -0.0956694,-0.0212599 -0.146457,-0.0366142 -2.26654,-0.570473 -4.49292,-1.02638 -6.68741,-1.36772 -51.2599,-8.01024 -84.0154,44.1709 -197.671,39.7607l0 0.0011811c-0.0602363,-0.00236221 -0.120473,-0.00472441 -0.180709,-0.0106299 -0.0354331,0.0011811 -0.0708662,0 -0.102756,-0.00236221 -0.0200788,-0.00236221 -0.0354331,-0.0011811 -0.0555119,-0.00472441 -25.7327,-1.09606 -38.0977,-13.076 -42.3036,-27.3307l-0.00944883 -0.0259843c-1.8248,-6.20434 -2.10591,-12.8374 -1.24961,-19.1941zm341.827 -55.963c0.00708662,0.00354331 0.00826772,0.011811 0.0106299,0.0153543l0.00944883 0.0129921c-0.00590552,-0.00826772 -0.0153543,-0.0200788 -0.0212599,-0.0283465l0.0011811 0zm1.77638 2.93622l0.0283465 0.0425197c0.113386,0.206693 0.225591,0.407481 0.335433,0.611811 0.357874,0.662599 0.7063,1.33819 1.04055,2.02205l0.0188977 0.0354331c-0.454725,-0.924804 -0.93189,-1.83071 -1.42441,-2.71299l0.0011811 0.0011811zm3.46418 7.27087c0.597638,1.46221 1.14803,2.95276 1.66417,4.4563l0.0366142 0.115748c-0.523229,-1.54252 -1.09252,-3.07205 -1.70079,-4.57205z"/>
     <path id="_357659896" class="fil15" d="M1101.28 1742.88c0.279921,-1.5626 0.627166,-3.1063 1.03465,-4.61457l0.0838583 -0.308268c0.251575,-0.891733 0.511418,-1.76929 0.793701,-2.6315l0.209055 -0.582284c0.249213,-0.754725 0.527953,-1.50591 0.823229,-2.23347l0.298819 -0.754725c0.274016,-0.659056 0.559843,-1.30039 0.849213,-1.94173l0.392126 -0.842127c0.297638,-0.582284 0.589371,-1.15512 0.900001,-1.71614l0.333071 -0.634252c6.17245,2.93032 13.8744,4.82363 23.4461,5.19804 118.515,4.6004 149.067,-52.3453 204.353,-38.3906 33.0095,8.32914 80.2028,-2.40945 97.7871,-13.728 -0.73819,-0.323622 -1.4941,-0.597638 -2.27126,-0.805512 0.185433,0.0507874 0.367323,0.101575 0.546851,0.151181l0.62126 0.204331c0.516142,0.180709 1.02874,0.388583 1.52953,0.620079l0.542126 0.263386c0.650788,0.33189 1.27795,0.711024 1.89921,1.14331l0.346063 0.26811c0.517323,0.376772 1.01575,0.778347 1.5,1.20118l0.555119 0.501969c0.451181,0.434646 0.903544,0.895276 1.35709,1.3748l0.373229 0.403937c0.54567,0.620079 1.07599,1.26969 1.59921,1.95354l0.392126 0.543308c0.401575,0.546851 0.790158,1.10433 1.1752,1.68189 0.00708662,0.00826772 0.0153543,0.0200788 0.0212599,0.0271654l0.412205 0.65315c0.446457,0.709843 0.885827,1.43858 1.30394,2.19449l0.0401575 0.0614174c0.491339,0.881103 0.968505,1.78583 1.42323,2.71181l0.274016 0.582284c0.343701,0.71693 0.676772,1.44095 1.00276,2.17441l0.250394 0.582284c0.173622,0.405118 0.34252,0.810237 0.512599,1.22008 0.609449,1.50118 1.17874,3.02953 1.70197,4.57087l0.127559 0.38504c0.3,0.89882 0.602363,1.79764 0.864568,2.70591l0.0295276 0.0767717c0.937796,3.11575 1.69488,6.20552 2.27008,9.11221 -25.4717,9.21379 -65.2548,15.2209 -95.0186,7.70552 -63.4583,-16.0193 -98.5135,49.33 -234.534,44.0552 -8.21457,-0.317717 -15.2599,-1.59685 -21.248,-3.63544 -1.83307,-6.2126 -2.10945,-12.8551 -1.25906,-19.2201 0.00236221,-0.0106299 0.0011811,-0.022441 0.00354331,-0.0318898 0.00472441,-0.0307087 0.00826772,-0.0673229 0.0141732,-0.102756 0.100394,-0.720473 0.210236,-1.44095 0.337796,-2.15433zm7.05945 -18.4914l0.0200788 -0.034252c0.0543308,-0.0838583 0.112205,-0.168898 0.166536,-0.255118l0.0188977 -0.0259843c-0.068504,0.105118 -0.137008,0.209055 -0.205512,0.314173l0 0.0011811zm1.71614 -2.4378l0.0472441 -0.0649607c0.0543308,-0.0720473 0.10748,-0.142913 0.161811,-0.210236 0.0401575,-0.0484252 0.0779528,-0.0968505 0.11811,-0.145276 -0.109843,0.13937 -0.220866,0.277559 -0.328347,0.419292l0.0011811 0.0011811zm2.23937 -2.61378c0.0437008,-0.0507874 0.0933072,-0.101575 0.140551,-0.148819 0.344882,-0.356693 0.698032,-0.69567 1.05236,-1.02047 -0.401575,0.368504 -0.801969,0.757087 -1.19291,1.16929zm316.444 -40.7481l0 0c0.159449,0.0212599 0.322441,0.0425197 0.483071,0.0708662 -0.159449,-0.0271654 -0.323622,-0.0496063 -0.483071,-0.0708662z"/>
     <path id="_357659464" class="fil16" d="M1106.99 1726.62l0 0 0.180709 -0.296457c0.283465,-0.504331 0.576378,-0.987402 0.887009,-1.46929l0.276378 -0.465355c0.0673229,-0.105118 0.137008,-0.211417 0.205512,-0.315355l0.0661418 -0.090945c0.312992,-0.478347 0.646063,-0.917717 0.969686,-1.37599l0.474804 -0.655512c0.10748,-0.142913 0.217323,-0.281103 0.327166,-0.420473 0.291733,-0.357874 0.584646,-0.69567 0.876379,-1.03347l0.53504 -0.615355c0.164173,-0.184252 0.329528,-0.368504 0.500788,-0.544489 0.390945,-0.412205 0.79252,-0.801969 1.19291,-1.16929l-0.0011811 0.0011811c25.3618,-14.1165 34.4575,-16.0158 56.2134,-21.5681l-0.0011811 0.0011811c2.17795,-0.552756 4.26496,-1.12677 6.25985,-1.71969 0.00826772,-0.0011811 0.011811,-0.00472441 0.0200788,-0.00826772 0.0401575,-0.00708662 0.0779528,-0.0200788 0.115748,-0.0318898 12.763,-3.7937 21.9437,-8.32442 28.8272,-13.3524 0.80315,0.778347 1.78701,1.39488 2.92323,1.76929l27.3862 9.01418c4.09607,1.34764 8.59253,-0.937796 10.0358,-5.10827 0.146457,-0.414567 0.253937,-0.83504 0.328347,-1.25433 0.67441,-3.77717 -1.4315,-7.52245 -5.12126,-8.73308l-23.4083 -7.7067c2.21339,-2.98229 4.063,-6.05315 5.74016,-9.18662 0.272835,0.12874 0.558662,0.245669 0.855119,0.34252l25.0701 8.24764c3.74882,1.2378 7.86379,-0.8563 9.18898,-4.65945 0.131102,-0.375591 0.227953,-0.758268 0.296457,-1.13858 0.618898,-3.4689 -1.30748,-6.90355 -4.69016,-8.01969l-24.2705 -7.98426 0.0011811 -0.00472441 0.00354331 0.0011811c1.32756,-2.75906 2.74134,-5.54056 4.33819,-8.29607 0.465355,0.292914 0.979135,0.531496 1.5248,0.714567l25.0819 8.25591c2.43189,0.798426 5.02087,0.200788 6.89882,-1.36417 7.28032,13.2248 17.4036,24.3732 31.5591,25.6819 24.3803,2.25355 56.1544,5.79449 80.2111,-2.44252 14.0776,-4.81536 25.8921,-13.6335 36.3307,-24.0508 -0.875198,-1.51181 -1.82244,-2.9374 -2.82874,-4.21418 7.95355,10.0122 11.2004,28.4044 16.3606,37.2343l0.0011811 0.0011811c0.159449,0.0212599 0.322441,0.0425197 0.483071,0.0708662 0.370866,0.0625985 0.733465,0.142913 1.09134,0.23504 0.777166,0.207874 1.53307,0.48189 2.27126,0.805512 -17.5843,11.3197 -64.7776,22.0559 -97.7871,13.728 -55.2863,-13.9547 -85.8379,42.9898 -204.353,38.3906 -9.57166,-0.37441 -17.2736,-2.26772 -23.4461,-5.19804l0.00472441 0 -0.00708662 -0.0011811zm135.393 -100.132c3.03544,-3.39567 6.63071,-6.71103 11.0693,-9.9319l0 0.0011811c0.232677,0.114567 0.470079,0.220866 0.714567,0.330709 0.389764,0.180709 0.774804,0.359055 1.16339,0.53504 1.44921,4.65118 3.19134,9.81733 5.2878,15.0709l-18.2351 -6.00591z"/>
     <path id="_357659224" class="fil17" d="M1255.33 1617.41c34.2544,15.7028 63.7217,22.9866 83.1579,15.4205 30.1347,-11.7284 24.3166,-44.6599 40.3193,-46.7658l0 0.0011811c0,0 1.36063,3.44055 4.2189,9.2315 4.43032,8.98465 12.4654,23.6362 24.6225,39.913 0.0011811,0.00472441 0.0106299,0.0165354 0.0129921,0.0200788 0.034252,0.0496063 0.0696851,0.0944883 0.10748,0.142913 0.00944883,0.00944883 0.0141732,0.0165354 0.022441,0.0295276 0.0295276,0.0413386 0.0578741,0.0779528 0.0897638,0.11811 0.011811,0.0177165 0.0236221,0.0318898 0.034252,0.0484252 0.0283465,0.0377953 0.0543308,0.0744095 0.0838583,0.111024 0.0295276,0.0377953 0.0578741,0.0779528 0.0862205,0.114567 0.0177165,0.0248032 0.034252,0.0448819 0.0519685,0.068504 0.0248032,0.0377953 0.0543308,0.0744095 0.080315,0.111024 0.00944883,0.00944883 0.0165354,0.0200788 0.0271654,0.0295276 0.0271654,0.0413386 0.0531496,0.0767717 0.0826772,0.113386 0.0106299,0.00944883 0.0153543,0.0177165 0.022441,0.0295276 0.133465,0.175984 0.265748,0.351969 0.398032,0.527953l0.0011811 0c1.03347,1.36417 2.09055,2.73071 3.18189,4.11142 0.00236221,0.00708662 0.00472441,0.011811 0.011811,0.0165354 0.0259843,0.0330709 0.0543308,0.0696851 0.080315,0.106299 0.0153543,0.0177165 0.0259843,0.0330709 0.0413386,0.0496063 0.0271654,0.0330709 0.0496063,0.0614174 0.0720473,0.090945 0.0212599,0.0259843 0.0425197,0.0496063 0.0590552,0.0732284 0.0200788,0.0259843 0.0437008,0.0543308 0.0637796,0.0791339 0.0377953,0.0531496 0.0791339,0.0992127 0.115748,0.152362l0 0.0011811c1.0063,1.27559 1.95354,2.70118 2.82874,4.213 -10.4386,10.4173 -22.2543,19.2354 -36.3307,24.0508 -24.0567,8.23701 -55.8308,4.69489 -80.2111,2.44252 -14.1555,-1.30866 -24.2788,-12.4583 -31.5591,-25.6819 1.01457,-0.844489 1.82126,-1.9689 2.28189,-3.30709 0.131102,-0.372048 0.226772,-0.751182 0.294095,-1.12795 0.618898,-3.46418 -1.30276,-6.90709 -4.68307,-8.01024l-4.37363 -1.43976c-2.09646,-5.25355 -3.83859,-10.4197 -5.2878,-15.0709l0.0011811 0.0011811c-0.00354331,-0.00472441 -0.00236221,-0.00826772 -0.00590552,-0.0153543z"/>
     <path id="_357659152" class="fil18" d="M1202.8 1674.07c0.00236221,-0.0106299 0.00472441,-0.022441 0.00590552,-0.0318898 -0.0011811,0.0106299 -0.00354331,0.0212599 -0.00590552,0.0318898zm0.0106299 -0.034252c0.0614174,-0.262205 0.135827,-0.522048 0.229134,-0.78189 1.29331,-3.75237 5.08465,-5.98819 8.81812,-5.39764 -3.73347,-0.589371 -7.52481,1.6441 -8.81812,5.39764 -0.0933072,0.259843 -0.167717,0.519685 -0.229134,0.78189z"/>
     <path id="_357659392" class="fil19" d="M1202.72 1674.5c0.0248032,-0.140551 0.0543308,-0.285827 0.0862205,-0.427559 0.00236221,-0.0106299 0.00472441,-0.022441 0.00590552,-0.0318898 0.00472441,-0.00236221 0.00472441,-0.00354331 0.00472441,-0.00354331 0.0614174,-0.261024 0.135827,-0.520867 0.229134,-0.780709 1.29331,-3.75237 5.08465,-5.98819 8.81812,-5.39764 0.405118,0.0673229 0.809056,0.161811 1.20591,0.291733l0 0 3.99567 1.31575 23.4071 7.7067c3.69095,1.21063 5.79685,4.95591 5.12244,8.73308 -0.0744095,0.419292 -0.18189,0.839764 -0.328347,1.25433 -1.44331,4.17048 -5.93977,6.45591 -10.0358,5.10709l-27.3862 -9.013c-1.13622,-0.37441 -2.12008,-0.990946 -2.92323,-1.76929 -0.00944883,-0.00826772 -0.0177165,-0.0177165 -0.0271654,-0.0271654 0.00708662,-0.0011811 0.011811,-0.00472441 0.0153543,-0.00708662 -1.78583,-1.75984 -2.6563,-4.3441 -2.18977,-6.95079z"/>
     <path id="_357659200" class="fil19" d="M1218.97 1652.62c0.0673229,-0.375591 0.167717,-0.757087 0.298819,-1.13386l0.0011811 0c1.18819,-3.43701 4.65237,-5.48386 8.07048,-4.9441 0.370866,0.0578741 0.739371,0.146457 1.10433,0.264567l0 0 0.807875 0.26811 24.2705 7.98544c3.38268,1.11496 5.30906,4.54961 4.69016,8.01851 -0.068504,0.380315 -0.165354,0.761812 -0.296457,1.13858 -1.3252,3.80433 -5.44016,5.89725 -9.19016,4.65827l-25.0689 -8.24646c-0.296457,-0.0956694 -0.583465,-0.21378 -0.855119,-0.34252 0,-0.00354331 0,-0.00354331 -0.00354331,-0.00354331 0.00590552,-0.00708662 0.0106299,-0.0177165 0.0165354,-0.0271654 -2.8441,-1.3748 -4.40788,-4.48229 -3.84567,-7.63583z"/>
     <path id="_357658672" class="fil18" d="M1230.44 1631.47c0.0673229,-0.375591 0.162992,-0.752363 0.294095,-1.12677 1.18819,-3.43937 4.65945,-5.47796 8.08347,-4.93465 -3.42402,-0.543308 -6.89528,1.49528 -8.08347,4.93465 -0.127559,0.375591 -0.226772,0.750001 -0.295276,1.12913 -0.0177165,0.105118 -0.0330709,0.211417 -0.0472441,0.314173 0.0141732,-0.105118 0.0295276,-0.212599 0.0484252,-0.317717l0 0.0011811zm-0.0507874 0.327166c-0.0011811,0.00708662 -0.00236221,0.0141732 -0.00354331,0.0212599 0.0011811,-0.00708662 0.00236221,-0.0141732 0.00354331,-0.0212599z"/>
     <path id="_357659056" class="fil19" d="M1230.44 1631.47c0.0673229,-0.379134 0.166536,-0.755906 0.294095,-1.13032 1.18819,-3.43937 4.65945,-5.47796 8.08347,-4.93465 0.370866,0.0578741 0.739371,0.147638 1.10787,0.266929l2.45906 0.809056 18.2351 6.00591 4.37363 1.43976c3.38032,1.10433 5.30197,4.54607 4.68307,8.01024 -0.0673229,0.376772 -0.164173,0.754725 -0.294095,1.12795 -0.46063,1.33819 -1.26614,2.46142 -2.28189,3.30709 -1.87677,1.56496 -4.46693,2.1626 -6.89882,1.36299l-25.0819 -8.25473c-0.54567,-0.183071 -1.05945,-0.422835 -1.5248,-0.714567 0.00590552,-0.00944883 0.0106299,-0.0165354 0.011811,-0.0236221 -2.31024,-1.46102 -3.57756,-4.15512 -3.22087,-6.92717 0.0011811,-0.00708662 0.00236221,-0.0141732 0.00354331,-0.022441 0,-0.00236221 0.0011811,-0.00708662 0.00236221,-0.00944883 0.0141732,-0.102756 0.0283465,-0.209055 0.0484252,-0.312992z"/>
    </g>
   </g>
   <path id="_357658600" class="fil22" d="M1414.57 1185.48c-27.1807,-133.204 74.8879,-191.423 -18.6839,-354.93 -24.2008,2.83583 -135.639,92.7414 -203.255,123.658 4.9878,10.4504 24.4477,211.941 33.287,250.576 56.315,-13.9063 118.498,-15.3059 188.652,-19.304z"/>
   <path id="_357658768" class="fil23" d="M1352.39 1150.27c2.3752,-0.350788 4.73032,-0.702756 7.07008,-1.05709l3.60118 -0.537402 -2.62559 0.392126c-2.29134,0.349607 -4.59449,0.688583 -6.92953,1.03819l-1.11614 0.164173z"/>
   <path id="_357658984" class="fil24" d="M1421.01 1138.07l0 0c0.359055,-0.0897638 0.712205,-0.173622 1.06654,-0.261024l0.0011811 0c-0.354331,0.0874016 -0.708662,0.17126 -1.06772,0.261024z"/>
   <path id="_357658576" class="fil25" d="M1421.01 1138.07l0 0 0.00236221 0.0011811c0,0 -0.00354331,-0.0011811 -0.00236221,-0.0011811z"/>
   <path id="_357658648" class="fil23" d="M1362.69 1277.45l0 -0.0106299c22.5414,1.18701 43.1563,1.8874 58.8898,1.34055l0.0011811 0.0011811c-15.7311,0.548032 -36.3591,-0.145276 -58.891,-1.33937l0 0.00826772z"/>
   <path id="_357658696" class="fil26" d="M1012.19 1164.15c-0.00354331,-0.0011811 -0.00354331,-0.00236221 -0.00590552,-0.00354331 0.00236221,0.00236221 0.00236221,0.0011811 0.00472441,0.00354331l0.0011811 0zm0.0496063 0.0259843c4.11614,2.15551 9.32599,1.51417 12.7961,-1.94528l0.0011811 0c-3.47126,3.45827 -8.68111,4.10197 -12.7984,1.94528l0.0011811 0zm-2.67402 -1.97717l0 0c-0.432284,-0.433465 -0.820867,-0.894095 -1.16457,-1.37244 0.347244,0.480709 0.731103,0.938977 1.16457,1.37362l0 -0.0011811zm-1.17992 -1.39961c-0.00472441,-0.00590552 -0.011811,-0.0129921 -0.0153543,-0.0188977 0.00354331,0.00708662 0.00944883,0.0129921 0.0141732,0.0188977l0.0011811 0zm-4.91693 -7.72442l0 0 5.1567 -5.25827c0,0 0,0 -0.0011811,0.00354331l-5.15552 5.25473zm83.8135 -75.6745l0 0c0,0 93.2174,-117.842 116.831,-161.715 0.0307087,-0.0578741 0.0590552,-0.112205 0.0921261,-0.172441 -0.0318898,0.0602363 -0.0614174,0.114567 -0.0921261,0.172441 -23.6126,43.8733 -116.831,161.715 -116.831,161.715l0 0zm116.978 -161.991c0.0106299,-0.0200788 0.022441,-0.0437008 0.0330709,-0.0637796 -0.011811,0.022441 -0.0212599,0.0425197 -0.0330709,0.0637796zm-7.43977 -71.5052c-0.15,-0.187795 -0.297638,-0.375591 -0.448819,-0.562205 0.152362,0.185433 0.301181,0.375591 0.448819,0.562205z"/>
   <path id="_357658936" class="fil27" d="M1096.86 795.387l66.6756 -132.636c6.23859,-35.6764 -17.6327,-69.6697 -53.3209,-75.9095 -35.687,-6.24213 -75.2564,16.1705 -81.4949,51.8528l-37.1339 111.628 105.274 45.0638z"/>
   <path id="_357658312" class="fil28" d="M1173.49 553.691c19.7953,28.0713 -7.44686,52.6359 -40.2709,75.7879 -32.8323,23.1614 -21.6177,62.4957 -41.4107,34.4327 0,0 -61.7422,-85.5816 -114.317,-172.161 -17.8276,-29.3587 -26.811,-51.352 6.013,-74.504 32.8311,-23.1567 83.5241,-28.4575 100.515,1.39134 57.5398,101.084 89.4686,135.054 89.4698,135.053z"/>
   <g>
    <path id="_357658048" class="fil8" d="M1100.67 424.274c22.8425,24.3331 6.83859,115.382 -34.1929,148.136l-9.51379 6.68504c-41.0315,32.7532 -100.849,26.0469 -133.603,-14.987l-65.9717 -82.6371c-70.1587,-80.4414 -26.0528,-100.844 14.9788,-133.602l28.7351 -21.2209c41.0233,-32.7544 100.837,-26.0457 133.602,14.9847l65.9658 82.6406z"/>
    <path id="_357657928" class="fil14" d="M1092.64 414.222c-40.5248,-209.295 -179.971,-167.089 -225.404,-118.697 -153.626,126.606 -36.0756,139.448 -36.7063,149.038 130.272,-148.23 169.772,-31.976 200.034,-51.2351 30.2717,-19.2662 34.5922,25.9276 62.0764,20.8949z"/>
    <path id="_357658168" class="fil8" d="M1079.72 376.681c10.6169,14.0339 7.85197,34.0075 -6.17599,44.6209 -14.0303,10.6158 -34.0099,7.84961 -44.6268,-6.18308 -10.6134,-14.0291 -7.84253,-34.0063 6.1878,-44.6221 14.028,-10.6146 34.0016,-7.84371 44.615,6.18426z"/>
    <path id="_357657736" class="fil24" d="M1092.41 413.05l0 0c-0.739371,-3.76181 -1.51181,-7.45512 -2.31851,-11.0539 0.807875,3.60118 1.58032,7.28859 2.31851,11.0551l0 -0.0011811zm-2.35158 -11.2063c-0.00236221,-0.00944883 -0.00826772,-0.0318898 -0.00826772,-0.0425197 0.00236221,0.0129921 0.00708662,0.0295276 0.00826772,0.0425197z"/>
    <path id="_357657712" class="fil29" d="M1101.1 424.75c-0.00236221,-0.00236221 -0.00354331,-0.00354331 -0.00826772,-0.00826772 0.00236221,0.0011811 0.00590552,0.00708662 0.00826772,0.00944883l0 -0.0011811zm-0.131102 -0.146457c-0.00708662,-0.00944883 -0.011811,-0.0141732 -0.0212599,-0.022441 0.00944883,0.00708662 0.0141732,0.0129921 0.0212599,0.022441zm-0.0543308 -0.0614174c-0.00944883,-0.00826772 -0.0177165,-0.0177165 -0.0248032,-0.0271654 0.00826772,0.00944883 0.0153543,0.0200788 0.0248032,0.0283465l0 -0.0011811zm-0.0555119 -0.0578741c-0.0165354,-0.0200788 -0.0354331,-0.0401575 -0.0507874,-0.056693 0.0153543,0.0153543 0.0354331,0.0366142 0.0507874,0.056693zm-0.0755906 -0.0838583c-0.0141732,-0.0141732 -0.0236221,-0.0259843 -0.0377953,-0.0389764 0.011811,0.0106299 0.0236221,0.0259843 0.0377953,0.0389764l0 0zm-0.0602363 -0.0649607c-0.0188977,-0.0200788 -0.0389764,-0.0401575 -0.0590552,-0.0602363 0.0200788,0.0188977 0.0389764,0.0401575 0.0590552,0.0614174l0 -0.0011811zm-8.08701 -10.1197l0 0c-0.0755906,-0.389764 -0.15,-0.77126 -0.227953,-1.16457l0 -0.0011811c0.0767717,0.387402 0.152362,0.777166 0.227953,1.16575z"/>
   </g>
   <path id="_357657904" class="fil30" d="M1386.21 839.701c3.62244,-2.96103 7.24371,-5.92441 10.8709,-8.88898 -31.9843,-41.6386 -247.562,-316.299 -257.697,-322.442 -3.87402,-3.99922 -0.668504,39.626 -84.3886,102.835 -10.5036,40.0548 -9.47717,79.5875 2.11654,125.192 13.6252,53.602 148.619,235.534 155.786,245.605 65.3056,-49.9559 107.265,-88.2355 173.312,-142.301z"/>
   <path id="_357657664" class="fil31" d="M1313.98 877.808l-109.984 -113.219 1.95945 -41.6103 4.44449 -94.1824c0.587008,-12.7051 -2.52284,-24.7264 -8.38111,-35.0185l-0.0011811 0c-12.0354,-21.1394 -30.3508,-30.3154 -53.7874,-32.7331 -12.5303,-0.493701 -24.3756,2.60669 -34.5414,8.38938 -0.00354331,0 -0.00826772,0.00472441 -0.0106299,0.00590552l-0.0011811 -0.0011811c-0.00708662,0.00472441 -0.0153543,0.0106299 -0.0212599,0.0129921 -18.2858,10.4197 -31.1079,29.5193 -32.6185,51.9662 -0.00590552,0.0779528 -0.00944883,0.152362 -0.0153543,0.231496 -0.00472441,0.0555119 -0.00590552,0.109843 -0.00944883,0.166536 -0.0011811,0.00826772 0,0.0188977 -0.00236221,0.0271654 -0.00472441,0.0980316 -0.011811,0.199606 -0.0200788,0.301181 -0.00826772,0.209055 -0.0200788,0.416929 -0.0295276,0.627166l1.14803 16.3465 -27.1193 -27.9142c78.4312,-59.2146 80.5749,-101.241 83.7142,-103.028 0.211417,-0.120473 0.429922,-0.0578741 0.67441,0.193701 9.05316,5.48859 182.188,225.424 241.718,301.84l-67.115 67.5981zm75.9686 -56.2122c0,0 -0.0011811,0 -0.0011811,0l0.0011811 0zm-0.316536 -0.408662l-8.24528 -10.6028c3.06969,3.94134 5.83229,7.49056 8.24528,10.6028z"/>
   <path id="_357658336" class="fil18" d="M1266.42 931.795c-2.13425,-0.964961 -4.48701,-2.19685 -6.20552,-3.1252 1.71969,0.929528 4.08071,2.1626 6.20552,3.1252l0 0z"/>
   <path id="_357657880" class="fil32" d="M1266.42 931.795c-2.1248,-0.962599 -4.48465,-2.19567 -6.20552,-3.1252 -0.361418,-0.193701 -0.689764,-0.37441 -0.98504,-0.537402l7.19056 3.6626z"/>
   <g>
    <path id="_357656992" class="fil8" d="M1169.6 898.025c-3.77244,37.552 -38.1296,68.628 -76.7505,69.3945 -38.6079,0.779528 -37.213,-41.8099 -33.4465,-79.3737l-4.68898 -234.086c3.77717,-37.5508 38.1284,-68.6197 76.7493,-69.3934 38.6174,-0.77126 66.854,29.0504 63.091,66.6036l-24.9543 246.855z"/>
    <path id="_357657016" class="fil33" d="M1185.69 751.403l10.1929 -100.807c3.8315,-38.2559 -24.9331,-68.6315 -64.2709,-67.8461 -39.3414,0.786615 -74.3351,32.4378 -78.1819,70.6902l1.78701 89.2158c44.6729,9.08623 85.8012,-0.341339 130.473,8.74725z"/>
    <path id="_357657328" class="fil34" d="M1169.95 894.609c0,-0.0141732 0,-0.0283465 0,-0.0425197l10.1847 -100.721 0.00236221 0.00354331 -10.187 100.76z"/>
    <path id="_357657424" class="fil35" d="M1180.14 793.849l-0.00236221 -0.00354331 4.41969 -43.7174c0,0 0,0.0011811 0,0.0011811l10.0051 -98.9611c1.33701,-13.3488 -1.3689,-25.7209 -7.14567,-36.0886 5.77678,10.3677 8.48268,22.7398 7.14449,36.0898l-10.0039 98.9587 -4.41733 43.7209z"/>
    <g>
     <path id="_357657256" class="fil8" d="M854.19 1132.77c3.58937,5.40709 1.59567,13.1504 -4.45866,17.2925l-46.7941 31.2012c-6.04961,4.13977 -13.8638,3.11575 -17.4508,-2.29606 -3.5941,-5.40591 -1.59803,-13.1433 4.45276,-17.2925l36.0933 -24.7004c6.04961,-4.13859 24.5646,-9.60946 28.1575,-4.20473z"/>
     <path id="_357657280" class="fil8" d="M904.175 1188.57c3.68386,5.55355 1.63701,13.4929 -4.57087,17.7473l-47.7355 31.8437c-6.20788,4.24843 -14.2323,3.1937 -17.9126,-2.35394 -3.6874,-5.54764 -1.63583,-13.4917 4.57087,-17.7437l47.7319 -31.8449c6.21497,-4.24961 14.2311,-3.19725 17.9162,2.35158z"/>
     <path id="_357657208" class="fil8" d="M867.699 1153.12c3.86693,5.82993 1.71614,14.1768 -4.80355,18.6402l-49.6016 33.1205c-6.5256,4.46929 -14.9433,3.3567 -18.8103,-2.47087 -3.87166,-5.83111 -1.72795,-14.1721 4.79528,-18.639l49.6028 -33.1205c6.51969,-4.46693 14.9457,-3.35551 18.8173,2.46969z"/>
     <path id="_357657568" class="fil8" d="M883.965 1172.69c3.87166,5.82638 1.71851,14.1697 -4.8,18.6343l-49.5993 33.124c-6.52205,4.46339 -14.9469,3.3567 -18.8138,-2.47205 -3.87638,-5.83111 -1.72323,-14.1744 4.79882,-18.6378l49.5969 -33.1264c6.5256,-4.46103 14.9539,-3.35315 18.8173,2.47795z"/>
     <path id="_357657400" class="fil8" d="M819.461 1141.48c0,0 15.3414,-25.9205 20.654,-31.2484 35.2654,-21.5764 87.0072,-16.3831 101.881,6.03071 22.2815,33.5658 -6.94371,66.189 -32.0185,83.3481l-15.9024 10.5591 -74.6138 -68.6894z"/>
     <path id="_357657592" class="fil36" d="M837.213 1219.34c0,0 0.650788,-0.550394 1.82126,-1.45276 1.21181,-0.846851 2.77677,-2.28543 4.77284,-3.80788 0.992127,-0.760631 2.06693,-1.5874 3.20551,-2.46024 1.15866,-0.832678 2.31969,-1.80827 3.54922,-2.78268 2.43071,-1.9748 5.09174,-3.99095 7.74213,-6.013 2.73425,-1.91575 5.30906,-4.03465 7.77402,-5.97166 2.46378,-1.9311 4.80827,-3.69095 6.85394,-5.15906 4.09843,-2.93268 6.97796,-4.75512 6.97796,-4.75512 0,-0.0011811 -2.26417,2.48504 -5.88189,6.00945 -1.81063,1.75866 -3.96733,3.77008 -6.32481,5.87481 -2.32677,2.14134 -4.90512,4.31103 -7.63465,6.30237 -2.72126,1.99606 -5.43426,3.99922 -8.03859,5.79213 -2.54764,1.86024 -5.17441,3.29292 -7.34882,4.57323 -4.37126,2.56181 -7.46812,3.8504 -7.46812,3.8504z"/>
     <path id="_357656704" class="fil36" d="M814.147 1204.05c0,0 2.24528,-2.38583 5.84882,-5.66103 1.78347,-1.65354 3.95433,-3.48662 6.163,-5.56418 2.22756,-2.05866 4.67008,-4.16575 7.10552,-6.27874 4.9193,-4.1752 9.98859,-8.17442 13.9228,-11.0386 3.9189,-2.88189 6.71812,-4.62048 6.71812,-4.62048 -0.0011811,-0.0011811 -2.13543,2.45551 -5.6067,5.86536 -3.45709,3.42402 -8.24764,7.813 -13.1882,12.0284 -2.49095,2.07992 -4.97835,4.16575 -7.37008,6.03898 -2.35512,1.92756 -4.70906,3.51378 -6.72402,4.87796 -4.02874,2.73071 -6.86812,4.35237 -6.8693,4.35237z"/>
     <path id="_357656584" class="fil36" d="M800.501 1182.7c0,0 2.24764,-2.38583 5.85,-5.65985 1.78465,-1.65709 3.9567,-3.49016 6.16536,-5.56772 2.22638,-2.05512 4.66772,-4.16339 7.10552,-6.27874 4.91693,-4.17166 9.98741,-8.17087 13.9252,-11.035 3.92008,-2.88425 6.71457,-4.62166 6.71457,-4.62166 0,0 -2.13071,2.45433 -5.6067,5.863 -3.45709,3.42756 -8.24764,7.81654 -13.1894,12.0307 -2.49213,2.07756 -4.97599,4.16339 -7.37008,6.04016 -2.35512,1.92756 -4.70788,3.51024 -6.7252,4.87323 -4.0252,2.73307 -6.8693,4.35591 -6.8693,4.35591z"/>
     <path id="_357656224" class="fil36" d="M819.461 1141.48c0,0 1.58622,-1.73268 4.12441,-4.063 2.52402,-2.35158 6.02363,-5.2937 9.53977,-8.18268 1.7811,-1.41142 3.56575,-2.82402 5.23465,-4.14567 1.68071,-1.30748 3.24685,-2.53229 4.59095,-3.57874 1.41378,-1.00748 2.38583,-1.97953 3.20906,-2.60315 0.811418,-0.636615 1.27795,-0.999213 1.27795,-0.999213 0,-0.0011811 -0.272835,0.490158 -0.807875,1.34528 -0.561024,0.819686 -1.28976,2.15197 -2.47323,3.41103 -1.14449,1.30039 -2.47914,2.87835 -4.08544,4.32402 -1.56969,1.50118 -3.31063,3.0378 -5.10473,4.48583 -3.58937,2.91496 -7.41497,5.49804 -10.3937,7.27323 -2.96811,1.7941 -5.11181,2.73425 -5.11181,2.73307z"/>
     <path id="_357656560" class="fil8" d="M955.574 1143.14c-43.7292,31.4859 -32.7449,13.9878 -53.3103,-3.17599 -20.5536,-17.1614 -32.7768,-20.4189 -12.489,-42.4985l170.772 -200.472c27.2528,-29.6504 54.8776,-41.9126 82.493,-18.8563 27.6107,23.0504 33.0851,57.7063 0.660237,95.4402 -40.187,46.7587 -188.125,169.563 -188.126,169.563z"/>
     <path id="_357656464" class="fil21" d="M1159.52 949.726c-4.48701,11.4449 -11.9929,22.2248 -22.324,31.0843 2.39764,-2.57599 4.57323,-4.9937 6.50197,-7.23662 6.97914,-8.12363 12.1996,-16.0949 15.8221,-23.8477z"/>
     <path id="_357656128" class="fil24" d="M1006.6 1100.02c-3.66496,3.13937 -7.22245,6.17599 -10.6252,9.07678 0.0011811,-0.00236221 0.0011811,-0.00236221 0.0011811,-0.00236221 3.41103,-2.90315 6.95197,-5.92796 10.624,-9.07324l0 -0.0011811zm-19.5331 32.5323l0 0c-0.390945,0.470079 -0.784253,0.933072 -1.18701,1.3937 0.401575,-0.458268 0.797245,-0.922442 1.18701,-1.3937l0 0zm-1.19173 1.39606c-0.0153543,0.0200788 -0.0330709,0.0401575 -0.0507874,0.0590552 0.0177165,-0.0200788 0.0330709,-0.0389764 0.0507874,-0.0590552l0 0zm-0.068504 0.0755906c-0.0129921,0.0177165 -0.0248032,0.0318898 -0.0389764,0.0496063 0.0129921,-0.0177165 0.0259843,-0.0318898 0.0401575,-0.0496063l-0.0011811 0zm-0.0637796 0.0779528c-0.011811,0.0106299 -0.0188977,0.0236221 -0.0307087,0.034252 0.00826772,-0.011811 0.0188977,-0.022441 0.0295276,-0.034252l0.0011811 0zm-0.0625985 0.0708662c-0.00944883,0.00826772 -0.0165354,0.0177165 -0.0236221,0.0248032 0.00708662,-0.00826772 0.0141732,-0.0165354 0.0236221,-0.0236221l0 -0.0011811zm-0.0708662 0.0755906c-0.0011811,0.00354331 -0.0011811,0.00472441 -0.00236221,0.00708662 0.0011811,-0.00354331 0.0011811,-0.00236221 0.00236221,-0.00590552l0 -0.0011811zm-70.865 61.9418c-1.59331,1.19764 -3.1878,2.33622 -4.76457,3.41575l-15.9024 10.5591 15.9024 -10.5591c1.57559,-1.08071 3.17126,-2.21811 4.76457,-3.41575z"/>
     <path id="_357656536" class="fil37" d="M879.91 1186.93c0,0 -1.9937,2.18977 -5.22993,5.3752 -0.212599,0.206693 -0.42874,0.418111 -0.651969,0.635434 -1.81063,1.75866 -3.96733,3.77008 -6.32481,5.87481 -0.212599,0.19252 -0.42874,0.392126 -0.64252,0.587008 -2.15551,1.94882 -4.50945,3.90355 -6.99213,5.71536 -2.72126,1.99606 -5.43426,3.99922 -8.03859,5.79213 -2.54764,1.86024 -5.17441,3.29292 -7.34882,4.57323 -4.28032,2.50512 -7.33465,3.7937 -7.46221,3.84803 -0.00590552,0.00236221 -0.00590552,0.00236221 -0.00590552,0.00236221 0,0 0.650788,-0.550394 1.82126,-1.45276 1.21181,-0.846851 2.77677,-2.28543 4.77284,-3.80788 0.992127,-0.760631 2.06693,-1.5874 3.20551,-2.46024 1.15866,-0.832678 2.31969,-1.80827 3.54922,-2.78268 2.43071,-1.9748 5.09174,-3.99095 7.74213,-6.013 2.73425,-1.91575 5.30906,-4.03465 7.77402,-5.97166 2.46378,-1.9311 4.80827,-3.69095 6.85394,-5.15906 0.205512,-0.148819 0.407481,-0.291733 0.603544,-0.432284 3.77481,-2.67874 6.37441,-4.32284 6.37441,-4.32402z"/>
     <path id="_357656152" class="fil38" d="M837.585 1158.16l-27.9603 18.6425c0.00354331,-0.00236221 0.00826772,-0.00472441 0.0141732,-0.0106299l27.6532 -18.4394 0.292914 -0.19252zm-33.652 22.4386l-0.99567 0.661418 0.99567 -0.661418c0,0 0,0 0,0z"/>
     <path id="_357656344" class="fil39" d="M837.292 1158.36l-27.6532 18.4394c0.903544,-0.625985 1.84725,-1.29803 2.80158,-2.02323l24.8516 -16.4162zm-33.3591 22.2461l-0.99567 0.661418c-0.499607,0.34252 -1.01693,0.640158 -1.54252,0.904725 0.595276,-0.354331 1.46221,-0.882284 2.53819,-1.56614z"/>
     <path id="_357656752" class="fil40" d="M812.44 1174.77c-0.95315,0.726379 -1.89567,1.39843 -2.8004,2.02441 -0.00590552,0.00590552 -0.0106299,0.00826772 -0.0141732,0.0106299l-5.69174 3.79607c0,0 0,0 0,0 -1.07599,0.683859 -1.94291,1.21181 -2.53819,1.56614 -0.185433,0.0944883 -0.373229,0.186614 -0.559843,0.272835l-0.334252 0.256299 0.23504 -0.197244 11.7036 -7.72914z"/>
    </g>
   </g>
   <polygon id="_357655792" class="fil17" points="1199.01,994.841 1192.38,957.657 1381.1,810.208 1397.08,830.809 "/>
   <g>
    <path id="_357655648" class="fil41" d="M827.878 1704.94c0,23.9374 -9.75355,45.665 -25.5095,61.4245l0 0.125197c-15.7536,15.7559 -37.5189,25.5118 -61.5414,25.5118 -23.9362,0 -45.6709,-9.75709 -61.4374,-25.5166 -15.8374,-15.8315 -25.6465,-37.6028 -25.6465,-61.5449 0,-24.0803 9.74883,-45.8292 25.4929,-61.5709 15.7725,-15.7701 37.5638,-25.5059 61.591,-25.5059 23.9469,0 45.7311,9.78072 61.5697,25.6264 15.7417,15.7465 25.4811,37.4587 25.4811,61.4504z"/>
    <path id="_357655888" class="fil42" d="M742.251 1791.99c-0.473622,0.00826772 -0.948426,0.0129921 -1.42441,0.0129921 -23.9362,0 -45.6709,-9.75709 -61.4374,-25.5166 -15.8374,-15.8315 -25.6465,-37.6028 -25.6465,-61.5449 0,-24.0803 9.74883,-45.8292 25.4929,-61.5709 15.7725,-15.7701 37.5638,-25.5059 61.591,-25.5059 0.475985,0 0.950788,0.00472441 1.42441,0.0129921l0 174.112z"/>
   </g>
  </g>
  <rect class="fil43" width="2048" height="2048"/>
 </g>
</svg>
