<?xml version="1.0" encoding="UTF-8"?>
<!DOCTYPE svg PUBLIC "-//W3C//DTD SVG 1.1//EN" "http://www.w3.org/Graphics/SVG/1.1/DTD/svg11.dtd">
<!-- Creator: CorelDRAW -->
<svg xmlns="http://www.w3.org/2000/svg" xml:space="preserve" width="2048px" height="2048px" style="shape-rendering:geometricPrecision; text-rendering:geometricPrecision; image-rendering:optimizeQuality; fill-rule:evenodd; clip-rule:evenodd"
viewBox="0 0 2048 2048"
 xmlns:xlink="http://www.w3.org/1999/xlink">
 <defs>
  <style type="text/css">
   <![CDATA[
    .fil27 {fill:none}
    .fil21 {fill:#005187}
    .fil20 {fill:#00558E}
    .fil9 {fill:#01579B}
    .fil18 {fill:#0277BD}
    .fil19 {fill:#0284CB}
    .fil16 {fill:#0288D1}
    .fil0 {fill:#212121}
    .fil5 {fill:#B09176}
    .fil23 {fill:#B5D7D9}
    .fil8 {fill:#BF9E83}
    .fil7 {fill:#BFE3E6}
    .fil10 {fill:#C3E8EA}
    .fil25 {fill:#CCA98B}
    .fil22 {fill:#D7B293}
    .fil14 {fill:#DCB696}
    .fil12 {fill:#E3BC9B}
    .fil24 {fill:#E5BD9C}
    .fil26 {fill:#E65100}
    .fil17 {fill:#EAC2A0}
    .fil13 {fill:#F7CCA9}
    .fil15 {fill:#F7D5B8}
    .fil6 {fill:#FFD3AE}
    .fil11 {fill:#FFDCBE}
    .fil4 {fill:#656565;fill-rule:nonzero}
    .fil3 {fill:#757575;fill-rule:nonzero}
    .fil2 {fill:#A81D1D;fill-rule:nonzero}
    .fil1 {fill:#B71C1C;fill-rule:nonzero}
   ]]>
  </style>
 </defs>
 <g id="Layer_x0020_1">
  <metadata id="CorelCorpID_0Corel-Layer"/>
  <g id="_357667672">
   <g>
    <polygon id="_357671896" class="fil0" points="1197.25,410.869 1184.26,398.64 590.771,1022.11 1186.31,1651.3 1199.23,1639 610.023,1024.59 "/>
    <polygon id="_357671872" class="fil1" points="562.613,1003.78 1720.64,1003.78 1720.64,1044.22 562.613,1044.22 "/>
    <polygon id="_357672040" class="fil2" points="541.891,944.143 622.548,1024.79 543.493,1103.85 465.278,1103.55 548.307,1024.8 465.278,946.015 "/>
    <polygon id="_357671488" class="fil2" points="1685.1,936.171 1759.79,1010.86 1772.93,1024 1759.79,1037.13 1685.1,1111.82 "/>
    <path id="_357671440" class="fil3" d="M1251.47 1750.38c5.31496,16.8437 -4.03111,34.8095 -20.8748,40.1244 -16.8437,5.31496 -34.8095,-4.03111 -40.1244,-20.8748 -72.528,-228.766 257.348,-487.526 248.218,-747.984 -8.82875,-251.881 -318.926,-520.243 -248.218,-743.267 5.31496,-16.8437 23.2807,-26.1898 40.1244,-20.8748 16.8437,5.31496 26.1898,23.2807 20.8748,40.1244 -28.037,88.4339 57.5682,202.806 148.373,324.125 95.6705,127.819 196.616,262.697 193.456,402.251 3.15945,139.553 -97.7859,274.432 -193.456,402.251 -90.8044,121.319 -176.41,235.692 -148.373,324.125z"/>
    <path id="_357671992" class="fil4" d="M1216.25 1791.64c-11.7047,-1.75512 -21.978,-9.96615 -25.7788,-22.0122 -72.528,-228.766 257.348,-487.526 248.218,-747.984 -8.82875,-251.881 -318.926,-520.243 -248.218,-743.267 3.80079,-12.0461 14.074,-20.2571 25.7788,-22.0122 1.30394,0.245669 2.60669,0.622441 3.90355,1.1374 13.3677,5.31496 20.7851,23.2807 16.5673,40.1244 -22.2508,88.4339 45.6874,202.806 117.754,324.125 75.9272,127.819 156.041,262.697 153.534,402.251 2.50748,139.553 -77.6068,274.432 -153.534,402.251 -72.0662,121.319 -140.004,235.692 -117.754,324.125 4.21772,16.8437 -3.19961,34.8095 -16.5673,40.1244 -1.29685,0.514961 -2.59961,0.891733 -3.90355,1.1374z"/>
   </g>
   <path id="_357672112" class="fil5" d="M628.544 937.06c-4.65709,47.9918 45.6355,59.0422 101.756,64.493 56.1367,5.45552 69.7701,61.2284 74.4284,13.2473 0,0 15.8929,-147.278 19.9087,-289.407 1.36063,-48.1949 -2.95158,-81.2634 -59.0717,-86.7142 -56.1331,-5.45197 -121.656,23.2843 -121.656,71.4969 -0.0011811,163.27 -15.3638,226.886 -15.365,226.884z"/>
   <path id="_357671608" class="fil6" d="M644.092 749.705c-4.96181,46.5839 90.0686,134.954 163.74,136.867l16.3122 -0.574016c73.6725,1.91339 134.955,-56.2548 136.867,-129.931l3.86103 -148.383c10.4079,-149.469 -56.2453,-134.952 -129.923,-136.87l-50.1378 0.581103c-73.6654,-1.92166 -134.94,56.2477 -136.867,129.928l-3.85276 148.381z"/>
   <path id="_357671776" class="fil0" d="M644.566 731.654c-131.897,-268.612 59.9481,-339.472 151.793,-323.779 279.203,11.6126 158.49,125.549 167.317,135.749 -271.374,-55.5981 -217.13,107.993 -267.318,112.064 -50.204,4.07126 -16.7634,58.3229 -51.7926,75.9662z"/>
   <path id="_357671056" class="fil6" d="M627.228 678.691c0,24.7016 20.0114,44.7189 44.7048,44.7189 24.6957,0 44.7189,-20.0173 44.7189,-44.7189 -0.0011811,-24.6933 -20.0221,-44.7095 -44.7189,-44.7095 -24.6933,-0.0011811 -44.7048,20.0173 -44.7048,44.7095z"/>
   <path id="_357670912" class="fil7" d="M643.829 730.149l0 0c-2.35984,-4.8378 -4.62166,-9.62717 -6.76772,-14.3386 2.14606,4.71496 4.40433,9.49725 6.7689,14.3386l-0.0011811 0zm-6.85985 -14.537c-0.00472441,-0.011811 -0.0177165,-0.0425197 -0.0259843,-0.0555119 0.00826772,0.0165354 0.0177165,0.0389764 0.0259843,0.0555119z"/>
   <path id="_357671128" class="fil8" d="M644.008 750.608c0,-0.00590552 0.0011811,-0.00826772 0.0011811,-0.0177165 -0.0011811,0.00354331 0,0.0129921 0,0.0188977l-0.0011811 -0.0011811zm0.022441 -0.276378c0,-0.0165354 0,-0.0259843 0.00472441,-0.0425197 -0.00472441,0.0153543 -0.00472441,0.0259843 -0.00472441,0.0425197zm0.00826772 -0.113386c0.00354331,-0.0177165 0.00472441,-0.0354331 0.00472441,-0.0531496 -0.0011811,0.0177165 0,0.0366142 -0.00354331,0.0543308l-0.0011811 -0.0011811zm0.0141732 -0.113386c0,-0.0354331 0.00472441,-0.0744095 0.00826772,-0.105118 -0.00472441,0.0295276 -0.00826772,0.0708662 -0.00826772,0.105118zm0.011811 -0.157087c0.00590552,-0.0283465 0.00590552,-0.0484252 0.0106299,-0.0755906 -0.00472441,0.0212599 -0.00472441,0.0484252 -0.00944883,0.0755906l-0.0011811 0zm0.0141732 -0.125197c0.00354331,-0.0377953 0.00826772,-0.0767717 0.0129921,-0.115748 -0.00472441,0.0377953 -0.00826772,0.0779528 -0.0129921,0.11811l0 -0.00236221zm0.48189 -18.176l0 0c-0.245669,-0.500788 -0.485433,-0.990946 -0.731103,-1.49764l-0.0011811 0c0.242126,0.498426 0.487796,0.999213 0.732284,1.49764z"/>
   <path id="_357670864" class="fil6" d="M332.272 1038.84c-46.7835,19.9465 -68.5489,74.0304 -48.6012,120.816 19.9382,46.7788 68.1249,27.4288 114.919,7.48583l313.325 -90.1784c46.7764,-19.9382 68.5359,-74.0339 48.5894,-120.815 -19.9429,-46.7811 -74.0398,-68.5359 -120.807,-48.5989l-307.426 131.29z"/>
   <path id="_357670744" class="fil9" d="M548.88 946.331l90.8174 -38.7827c46.767,-19.9382 100.864,1.81772 120.807,48.5989 19.9465,46.7811 -1.81299,100.878 -48.5882,120.816l-163.99 49.2024 0.954331 -179.835z"/>
   <path id="_357671224" class="fil6" d="M606.453 1274.59c32.2075,10.7658 46.3087,-8.06221 57.0662,-40.2721 10.774,-32.1886 18.2114,-41.7319 -13.9854,-52.4953l-274.91 -101.747c-43.239,-14.4484 -78.6603,-16.4977 -93.1099,26.7591 -14.4532,43.252 -0.676772,84.6166 52.1363,104.474 65.4579,24.626 272.803,63.2812 272.803,63.2812z"/>
   <path id="_357671344" class="fil10" d="M349.562 1557.82c0.00472441,0 0.00590552,0 0.00944883,0 -0.00472441,0 -0.00354331,0 -0.00826772,0l-0.0011811 0zm-0.0791339 0c-6.52205,-0.0366142 -12.5599,-4.26024 -14.5866,-10.8319l-0.0011811 0c2.02795,6.57048 8.06575,10.7965 14.5902,10.8319l-0.00236221 0zm4.61575 -0.693308l0 0c0.822048,-0.252756 1.60748,-0.568111 2.34685,-0.935434 -0.745276,0.367323 -1.52362,0.682678 -2.34685,0.936615l0 -0.0011811zm2.38583 -0.959056c0.00826772,-0.00354331 0.022441,-0.00708662 0.0307087,-0.011811 -0.00944883,0.00472441 -0.0212599,0.00826772 -0.0307087,0.0129921l0 -0.0011811zm11.178 -6.34252l0 0 -2.93386 -9.913c0,0 0,0 0,0.00472441l2.93386 9.90828zm-54.1323 -148.981l0 0c0,0 -38.0457,-207.457 -38.4579,-277.394 0,-0.0933072 0,-0.179528 0,-0.276378 0,0.0956694 0,0.184252 0,0.276378 0.409843,69.9355 38.4579,277.394 38.4579,277.394l0 0zm-38.4579 -277.832c0,-0.0318898 0,-0.0696851 0,-0.100394 0,0.034252 0,0.0649607 0,0.100394zm56.2737 -83.7686c0.309449,-0.134646 0.617717,-0.270473 0.928347,-0.401575 -0.311811,0.129921 -0.622441,0.266929 -0.928347,0.401575z"/>
   <g>
    <path id="_357671320" class="fil6" d="M698.2 1192.49c-0.544489,8.25237 5.70119,15.3791 13.9595,15.9213l55.1386 4.36772c8.24174,0.539764 15.3744,-5.71772 15.9248,-13.9512 0.530315,-8.25827 -5.70709,-15.3874 -13.9571,-15.939l-55.1374 -4.36181c-8.25946,-0.542126 -15.378,5.70473 -15.9284,13.963z"/>
    <path id="_357670792" class="fil6" d="M679.832 1286.11c-0.5563,8.46615 5.85591,15.7925 14.3173,16.35l56.4237 4.43859c8.46733,0.559843 15.7807,-5.85237 16.337,-14.3079 0.563386,-8.4756 -5.85709,-15.8008 -14.3268,-16.3583l-56.4 -4.44095c-8.47087,-0.553937 -15.7937,5.85 -16.3512,14.3185z"/>
    <path id="_357671272" class="fil6" d="M696.158 1223.53c-0.590552,8.8878 6.13347,16.578 15.026,17.165l58.9689 4.61103c8.89016,0.587008 16.5591,-6.15709 17.1614,-15.0366 0.589371,-8.89843 -6.13465,-16.5732 -15.0366,-17.1744l-58.9607 -4.61103c-8.89489,-0.584646 -16.5898,6.14056 -17.1591,15.0461z"/>
    <path id="_357670648" class="fil6" d="M690.954 1255.53c-0.591733,8.89135 6.13937,16.5827 15.0366,17.1626l58.95 4.61339c8.88898,0.585827 16.5839,-6.14882 17.165,-15.0402 0.591733,-8.89135 -6.12993,-16.5803 -15.0307,-17.1626l-58.9619 -4.62048c-8.89371,-0.584646 -16.5768,6.14528 -17.1591,15.0473z"/>
    <path id="_357670336" class="fil6" d="M734.063 1182.06c0,0 -21.8528,-13.611 -30.0402,-15.9295 -50.1461,-14.2654 -94.1481,32.8323 -96.4111,67.0146 -3.37441,51.2067 43.4481,67.5981 77.6552,69.8575l24.1902 0.431103 24.6059 -121.374z"/>
    <path id="_357670576" class="fil11" d="M745.851 1228.48c1.90984,-4.9878 -0.574016,-10.5614 -5.55355,-12.4677 -0.757087,-0.28937 -1.52835,-0.478347 -2.29606,-0.565748 -0.670867,4.663 -1.8815,9.23268 -3.56693,13.6358 -0.589371,1.5378 -1.2378,3.06142 -1.94055,4.55433 0.291733,0.145276 0.591733,0.27874 0.902363,0.398032 4.97953,1.9063 10.5508,-0.582284 12.4547,-5.55473z"/>
    <path id="_357669952" class="fil11" d="M747.884 1197.96c0.539764,-1.41024 0.759449,-2.97284 0.572835,-4.57678 -0.617717,-5.29607 -5.41772,-9.07914 -10.7138,-8.45788 -1.0878,0.124016 -2.12008,0.429922 -3.05551,0.88819 0.936615,2.07047 1.64173,4.24843 2.16732,6.45119 0.679134,2.61851 1.0689,5.28898 1.35473,7.9689 0.106299,1.31102 0.223229,2.61142 0.303544,3.92244 0.490158,0.0141732 0.989765,-0.0011811 1.48819,-0.0543308 3.68622,-0.433465 6.64134,-2.89488 7.88268,-6.14174z"/>
    <path id="_357670288" class="fil12" d="M728.732 1178.83c2.31851,1.35118 3.58701,3.83268 4.57914,6.18662 0.95315,2.42835 1.56496,4.98307 1.92874,7.57442 0.402756,2.58307 0.563386,5.19922 0.732284,7.81064 0.0614174,2.61614 0.162992,5.26536 -0.0696851,7.82008 -0.387402,5.14725 -1.58386,10.2425 -3.19843,15.1559 -1.6063,4.91811 -3.73465,9.6815 -6.463,14.028 -2.72953,4.2874 -6.04843,8.38701 -10.1551,10.8508 -2.01496,1.26496 -4.213,2.01142 -6.35788,1.90748 -0.523229,-0.0779528 -1.06536,-0.080315 -1.57795,-0.257481l-0.696851 -0.191339 -0.923623 -0.381496c-0.794883,-0.383859 -1.7504,-1.07008 -2.35748,-1.86024 -1.30984,-1.61221 -1.85551,-3.92126 -1.84725,-6.31536 -0.0011811,-2.39882 0.500788,-4.88386 1.24488,-7.29095 1.50591,-4.8189 3.85748,-9.51142 6.99095,-13.5815l0.0188977 -0.0248032c0.447638,-0.582284 0.343701,-1.42087 -0.240945,-1.86614 -0.479528,-0.364961 -1.13032,-0.356693 -1.59921,-0.0153543 -0.850394,0.629528 -1.99252,1.23898 -3.07914,1.7374 -1.12559,0.473622 -2.27244,0.915355 -3.47244,1.20591 -2.38583,0.61063 -4.85906,0.924804 -7.36654,0.910631 -1.24488,-0.090945 -2.51221,-0.0992127 -3.74882,-0.347244 -1.25669,-0.158268 -2.48268,-0.467717 -3.70985,-0.80315 -2.45433,-0.680315 -4.83071,-1.64764 -7.17166,-2.74607 2.18032,1.37126 4.4374,2.68937 6.88819,3.58583 1.22599,0.455906 2.46378,0.896457 3.74764,1.18228 1.26378,0.380315 2.58307,0.514961 3.8941,0.726379 1.32047,0.0980316 2.65394,0.210236 3.98977,0.135827 1.32874,-0.0354331 2.67284,-0.210236 3.97914,-0.488977 1.32638,-0.245669 2.61732,-0.651969 3.8941,-1.11024 1.27795,-0.507874 2.46732,-1.02874 3.73937,-1.85433l-1.82008 -1.91103c-3.54922,4.17756 -6.45,8.92796 -8.24883,14.198 -0.865749,2.64095 -1.49764,5.40709 -1.56378,8.32205 -0.0519685,2.87717 0.498426,6.07914 2.51339,8.69292 1.02284,1.30512 2.22638,2.2878 3.8126,3.06733l0.90945 0.390945c0.529134,0.198425 0.799607,0.263386 1.21063,0.393307 0.745276,0.253937 1.55315,0.312992 2.33858,0.416929 3.19725,0.217323 6.24213,-0.825591 8.72245,-2.35984 4.97717,-3.15355 8.38701,-7.69843 11.2547,-12.3484 5.58426,-9.43111 8.89016,-20.1059 9.14056,-31.0418 0.0921261,-2.75433 -0.16063,-5.41182 -0.383859,-8.09764 -0.285827,-2.67874 -0.67441,-5.3504 -1.35473,-7.9689 -0.627166,-2.62205 -1.49882,-5.20748 -2.72599,-7.62166 -1.21536,-2.36339 -2.9067,-4.76575 -5.39646,-5.81575z"/>
    <path id="_357670144" class="fil12" d="M729.564 1273.14c0,0 -1.11142,-0.525591 -3.16654,-1.17165 -2.05984,-0.591733 -5.03859,-1.49291 -8.78741,-1.84134 -1.8626,-0.205512 -3.93071,-0.239764 -6.12993,-0.0413386 -2.1815,0.281103 -4.57678,0.675591 -6.85394,1.8815 -2.3126,1.04646 -4.46929,2.95866 -5.89489,5.31851l-0.955513 1.84725c-0.4063,0.862205 -0.434646,1.23189 -0.668504,1.86732 -0.422835,1.05236 -0.648426,2.56536 -0.895276,3.94252 -0.222047,2.74725 0.204331,5.61142 1.39961,8.113 1.12441,2.5689 3.16418,4.44095 5.12363,5.93623 1.99606,1.53425 4.20237,2.42126 6.25867,3.17599 2.0752,0.720473 4.08307,1.15866 5.93977,1.43032 3.71103,0.591733 6.81851,0.472441 8.95512,0.438189 2.15079,-0.132284 3.36496,-0.26811 3.36496,-0.26811 0,0 -1.21536,-0.226772 -3.3189,-0.525591 -2.0941,-0.308268 -5.07284,-0.929528 -8.48977,-1.92402 -1.71142,-0.500788 -3.50551,-1.16457 -5.32087,-1.97126 -1.78465,-0.862205 -3.62717,-1.85433 -5.19213,-3.19016 -1.56614,-1.31929 -2.97756,-2.90197 -3.763,-4.76811 -0.825591,-1.84488 -1.09724,-3.92717 -0.907087,-6.02953 0.220866,-1.86024 0.885827,-4.50355 1.85433,-6.07796 1.02874,-1.70669 2.37402,-3.23622 4.1941,-4.15748 3.4937,-2.04685 7.72442,-2.49449 11.2287,-2.67166 3.55276,-0.119291 6.59528,0.0413386 8.69528,0.288189 2.11299,0.218504 3.32953,0.398032 3.32953,0.399213z"/>
    <path id="_357670096" class="fil12" d="M753.041 1275.67c0,0 -3.35788,-0.597638 -8.39883,-1.50118 -4.98189,-0.89882 -11.6162,-2.02323 -17.8784,-3.92481 -1.58622,-0.437008 -3.11103,-0.98504 -4.58032,-1.56614 -1.42795,-0.654331 -2.88071,-1.22008 -4.1126,-2.00669 -2.54882,-1.47165 -4.47638,-3.34488 -5.47796,-5.3941 -0.530315,-1.00394 -0.842127,-2.04685 -0.981497,-3.00591 -0.218504,-0.96378 -0.145276,-1.83543 -0.198425,-2.5689 0.109843,-1.48583 0.167717,-2.33622 0.167717,-2.33622 0,0.0011811 -0.399213,0.751182 -0.966142,2.19449 -0.173622,0.745276 -0.542126,1.64882 -0.562205,2.76614 -0.121654,1.09843 -0.0673229,2.41772 0.347244,3.77126 0.694489,2.78858 2.87599,5.60197 5.69056,7.5567 2.78504,2.06457 6.13701,3.43701 9.49253,4.48229 6.77008,2.01614 13.7291,2.46851 18.8882,2.35394 5.16851,-0.0933072 8.57009,-0.820867 8.57009,-0.820867z"/>
    <path id="_357670120" class="fil12" d="M763.216 1244.8c0,0 -2.12599,-1.31693 -5.54056,-2.60906 -3.40748,-1.32402 -8.09646,-2.65512 -12.9484,-3.29528 -2.42953,-0.264567 -4.87796,-0.498426 -7.19882,-0.398032 -2.31496,0.034252 -4.49882,0.288189 -6.32717,0.779528 -0.918898,0.168898 -1.74331,0.462992 -2.45669,0.77126 -0.720473,0.272835 -1.32992,0.522048 -1.79291,0.850394 -0.937796,0.597638 -1.41732,0.957875 -1.41732,0.957875 0,0 0.607087,-0.068504 1.67126,-0.188977 1.03347,-0.106299 2.49803,-0.168898 4.24725,-0.0720473 3.47717,0.137008 8.08938,0.702756 12.7441,1.3311 4.65355,0.591733 9.35788,1.22126 12.9532,1.52953 3.58229,0.340158 6.06615,0.343701 6.06615,0.343701z"/>
    <path id="_357669976" class="fil12" d="M767.577 1212.73c0,0 -1.80945,-0.917717 -4.60866,-1.73622 -2.79567,-0.844489 -6.5693,-1.6252 -10.4008,-2.00079 -3.83268,-0.349607 -7.69843,-0.354331 -10.6488,0.090945 -2.93858,0.287008 -4.86496,1.35354 -4.80827,1.26732 0,0 0.488977,0.116929 1.35,0.318898 0.823229,0.138189 1.96772,0.431103 3.39213,0.752363 1.39488,0.284646 3.02717,0.614174 4.79055,0.895276 1.75866,0.28937 3.64725,0.500788 5.53583,0.724016 3.78307,0.34252 7.61457,0.43937 10.5142,0.261024 2.89843,-0.140551 4.88386,-0.572835 4.88386,-0.572835z"/>
    <path id="_357670312" class="fil11" d="M738.563 1259.68c1.90512,-4.97599 -0.591733,-10.578 -5.56654,-12.4831 -4.9689,-1.90276 -10.5543,0.604725 -12.4606,5.58071 -1.90512,4.97126 0.583465,10.5602 5.55119,12.463 4.97599,1.90512 10.5721,-0.588189 12.476,-5.56063z"/>
    <path id="_357670360" class="fil13" d="M765.934 1297.07c0.00236221,-0.00472441 0.00236221,-0.00590552 0.00354331,-0.00944883 0.530315,-1.39961 0.874016,-2.90551 0.973229,-4.4752l-0.0011811 0c0.0578741,-0.857481 0.0425197,-1.69961 -0.034252,-2.52638 -0.00472441,-0.0153543 -0.00354331,-0.0295276 -0.00708662,-0.0437008 -0.0011811,-0.0106299 0,-0.0236221 -0.0011811,-0.034252 -0.713386,-6.89292 -6.05906,-12.4925 -13.0288,-13.5402l0.800788 0.0637796c-0.00472441,-0.00236221 -0.00472441,-0.00236221 -0.00472441,-0.00236221l-4.67244 -0.368504c-1.43268,0.164173 -3.30118,0.320079 -5.49095,0.359055 -5.0563,0.112205 -11.8335,-0.317717 -18.4795,-2.23465l-10.4575 -0.816142 -0.576378 2.86536c2.16142,-0.546851 4.50237,-0.457087 6.73938,0.400394 5.78622,2.21457 8.67048,8.68701 6.45827,14.465 -2.21221,5.77323 -8.68583,8.6752 -14.4709,6.46063 -1.0063,-0.38504 -1.92402,-0.901182 -2.74252,-1.5189l-0.669686 3.30118c1.76457,0.779528 3.50788,1.41851 5.17323,1.9063 3.41693,0.994489 6.39567,1.61457 8.48977,1.92402 2.10236,0.3 3.3189,0.525591 3.3189,0.525591 0,0 -1.21299,0.134646 -3.36496,0.26811 -2.1378,0.0354331 -5.2441,0.152362 -8.95512,-0.438189 -1.65709,-0.239764 -3.43111,-0.616536 -5.26772,-1.20591l-0.209055 1.03583 -3.67441 -0.0661418 44.791 3.52796c6.86221,0.457087 12.9673,-3.67087 15.3331,-9.75119 0.00944883,-0.0248032 0.0188977,-0.0484252 0.0271654,-0.0720473z"/>
    <path id="_357669592" class="fil13" d="M764.94 1277.31l-47.8571 -11.485 -0.0425197 0.207874c0.329528,0.219685 0.673229,0.435827 1.02992,0.64252 1.23071,0.785434 2.68465,1.35236 4.1126,2.00669 1.46929,0.581103 2.99528,1.12795 4.58032,1.56614 6.26221,1.90276 12.8965,3.02599 17.8784,3.92481 5.03977,0.904725 8.39883,1.50118 8.39883,1.50118 0,0 -1.13032,0.242126 -3.07914,0.461811l4.67244 0.368504 10.3063 0.805512zm-38.9504 -3.04961c-0.135827,-0.0377953 -0.274016,-0.0767717 -0.407481,-0.119291 -1.56732,-0.486615 -3.13347,-1.04882 -4.64174,-1.71614 -1.06299,-0.011811 -2.20512,-0.00590552 -3.40158,0.0330709 -0.589371,0.034252 -1.20118,0.0649607 -1.82835,0.121654l-0.177165 0.864568 10.4563 0.816142zm-9.36733 -4.22008c-0.120473,-0.0791339 -0.233858,-0.159449 -0.346063,-0.244488l-0.0425197 0.218504c0.12874,0.00708662 0.256299,0.0165354 0.388583,0.0259843z"/>
    <path id="_357669544" class="fil14" d="M727.254 1303.77c0,0 -1.21536,-0.226772 -3.3189,-0.525591 -2.0941,-0.308268 -5.07284,-0.929528 -8.48977,-1.92402 -1.66654,-0.486615 -3.40748,-1.12677 -5.17205,-1.90512 -0.0519685,-0.0248032 -0.0992127,-0.0472441 -0.148819,-0.0661418 -1.78465,-0.862205 -3.62717,-1.85433 -5.19213,-3.19016 -1.56614,-1.31929 -2.97756,-2.90197 -3.763,-4.76811 -0.825591,-1.84488 -1.09724,-3.92717 -0.907087,-6.02953 0.155906,-1.32284 0.53504,-3.03544 1.08898,-4.48229 0.226772,-0.592914 0.484252,-1.14213 0.765355,-1.59567 1.02874,-1.70669 2.37402,-3.23622 4.1941,-4.15748 2.90079,-1.70079 6.31772,-2.29725 9.4004,-2.55 0.625985,-0.0555119 1.24016,-0.0885827 1.82835,-0.121654 1.19646,-0.0377953 2.33858,-0.046063 3.40158,-0.0330709 -1.5189,-0.670867 -2.97638,-1.45276 -4.31811,-2.38465 -0.133465,-0.00826772 -0.259843,-0.0188977 -0.387402,-0.0271654 -1.48937,-0.090945 -3.08504,-0.0744095 -4.75512,0.0779528 -2.1815,0.281103 -4.57678,0.675591 -6.85394,1.8815 -2.3126,1.04646 -4.46929,2.95866 -5.89489,5.31851l-0.955513 1.84725c-0.100394,0.214961 -0.177165,0.400394 -0.242126,0.569292 -0.188977,0.494882 -0.248032,0.823229 -0.426378,1.29803 -0.0106299,0.0295276 -0.0200788,0.0531496 -0.0295276,0.0779528 -0.402756,1.05236 -0.622441,2.51929 -0.865749,3.86457 -0.222047,2.74725 0.204331,5.61142 1.39961,8.113 1.12441,2.5689 3.16418,4.44095 5.12363,5.93623 1.99606,1.53425 4.20237,2.42126 6.25867,3.17599 0.226772,0.0767717 0.451181,0.153543 0.672048,0.22441 1.83662,0.590552 3.61063,0.964961 5.26772,1.20591 3.71103,0.591733 6.81851,0.472441 8.95512,0.438189 2.15079,-0.132284 3.36496,-0.26811 3.36496,-0.26811z"/>
    <path id="_357669448" class="fil14" d="M753.041 1275.67c0,0 -3.35788,-0.597638 -8.39883,-1.50118 -4.98189,-0.89882 -11.6162,-2.02323 -17.8784,-3.92481 -1.58622,-0.437008 -3.11103,-0.98504 -4.58032,-1.56614 -1.42795,-0.654331 -2.88071,-1.22008 -4.1126,-2.00669 -0.356693,-0.206693 -0.700394,-0.422835 -1.02874,-0.64252 -0.170079,-0.111024 -0.333071,-0.220866 -0.490158,-0.336614l-5.23465 -1.25433c1.05354,1.96417 2.74488,3.8126 4.77284,5.21693 0.0602363,0.0472441 0.122835,0.0933072 0.186614,0.137008 0.112205,0.0850394 0.226772,0.166536 0.346063,0.244488 1.34055,0.930709 2.79921,1.71496 4.31811,2.38465 1.50709,0.666142 3.07441,1.22953 4.64174,1.71614 0.132284,0.0437008 0.272835,0.0814961 0.408662,0.119291 6.64607,1.91811 13.4244,2.34567 18.4795,2.23465 2.18858,-0.0389764 4.05827,-0.194882 5.49095,-0.359055 1.94882,-0.219685 3.07914,-0.461811 3.07914,-0.461811z"/>
    <path id="_357669352" class="fil15" d="M728.154 1291.17c2.21221,-5.77796 -0.670867,-12.2504 -6.45709,-14.465 -2.23701,-0.857481 -4.57796,-0.947245 -6.73819,-0.401575l-4.01693 19.8095c0.818505,0.617717 1.73622,1.13268 2.74252,1.51772 5.78504,2.21457 12.261,-0.687402 14.4697,-6.46063z"/>
    <path id="_357669208" class="fil15" d="M710.941 1296.12l4.01575 -19.8083c-3.41575,0.862205 -6.36969,3.31654 -7.72442,6.85394 -1.82599,4.76693 -0.17126,10.0228 3.70866,12.9543z"/>
   </g>
   <path id="_357669880" class="fil16" d="M567.658 1433.68c-6.47599,-1.09843 -12.9508,-2.19803 -19.4351,-3.29646 10.1043,-73.0064 82.3666,-557.774 90.4654,-572.305 1.94882,-7.56969 28.3323,47.876 174.358,66.8504 40.6288,41.5713 66.8292,90.5115 84.3544,154.197 20.5996,74.8536 -17.7484,390.539 -19.5,407.802 -114.359,-15.5953 -192.129,-33.1559 -310.243,-53.2477z"/>
   <path id="_357669496" class="fil17" d="M966.144 1240.68l0.00708662 -0.00944883c-20.4992,-11.7331 -39.0331,-22.7929 -52.5839,-32.1603l0 0c13.5473,9.36733 32.0882,20.4414 52.5815,32.1638l-0.00472441 0.00590552z"/>
   <path id="_357669136" class="fil18" d="M682.609 1454.33l55.1717 -238.807 -31.2862 -49.4008 -70.8225 -111.809c-9.53859,-15.0921 -14.0917,-31.917 -14.0917,-48.541l0 -0.0011811c0.00354331,-30.1429 14.9764,-59.6292 42.3402,-76.9371 0.161811,-0.105118 0.324803,-0.204331 0.491339,-0.307087 0.0165354,-0.011811 0.0389764,-0.0259843 0.056693,-0.0377953 14.9421,-9.30473 31.5449,-13.7469 47.9634,-13.7528 0.00354331,-0.0011811 0.011811,0 0.0177165,0l0 -0.0011811c0.011811,0 0.0259843,0.0011811 0.034252,0.0011811 29.5429,0.0129921 58.4493,14.4095 75.8788,40.7433 0.0602363,0.0921261 0.11811,0.179528 0.179528,0.271654 0.0437008,0.0649607 0.0838583,0.131102 0.126378,0.197244 0.00826772,0.00944883 0.0141732,0.022441 0.022441,0.0307087 0.0732284,0.11811 0.152362,0.236221 0.232677,0.354331 0.155906,0.249213 0.315355,0.494882 0.472441,0.744095l9.9508 20.7402 13.6996 -52.8863c-136.8,-17.7744 -168.599,-67.5544 -173.669,-67.5544 -0.341339,0 -0.565748,0.227953 -0.688583,0.705119l-90.4666 572.305 134.387 23.9433z"/>
   <path id="_357669400" class="fil6" d="M910.92 1285.35c40.1599,30.1618 97.1729,22.0677 127.336,-18.1051 30.1642,-40.1469 -13.187,-77.4048 -53.3528,-107.583l-228.872 -217.857c-40.1611,-30.1547 -97.1635,-22.0583 -127.332,18.1063 -30.1654,40.1658 -22.05,97.167 18.1028,127.339l264.118 198.099z"/>
   <path id="_357669856" class="fil19" d="M753.086 1169.02l-107.858 -80.8961c-40.9028,-30.737 -49.167,-88.8024 -18.4406,-129.717 30.7323,-40.9158 88.8001,-49.1622 129.712,-18.4441l87.228 83.0327c-24.9862,55.5378 -65.6575,90.4855 -90.6414,146.025z"/>
   <path id="_357668464" class="fil6" d="M1270.02 1363.88c66.7312,5.03268 43.924,-7.64174 55.1516,-43.3146 11.2169,-35.6622 22.2673,-48.6036 -13.4032,-59.8276l-309.469 -111.882c-47.9103,-15.0685 -85.2568,-9.17127 -100.329,38.7414 -15.0709,47.9032 0.908268,93.1973 59.4591,114.047 72.5646,25.8319 308.589,62.2359 308.59,62.2359z"/>
   <path id="_357668776" class="fil20" d="M809.89 1329.37c-0.00826772,-0.0177165 -0.0165354,-0.034252 -0.0259843,-0.0519685l-72.0827 -113.798 0 0.00472441 72.1087 113.845z"/>
   <path id="_357668848" class="fil21" d="M737.781 1215.52l0 -0.00472441 -31.2862 -49.3961c0,0 0,0.0011811 0,0.0011811l-70.8225 -111.81c-9.53859,-15.0921 -14.0917,-31.917 -14.0917,-48.541 0,16.624 4.55315,33.4488 14.0929,48.541l70.8213 111.809 31.2862 49.4008z"/>
   <g>
    <path id="_357668824" class="fil6" d="M1372.17 1276.35c-0.438189,9.09568 6.57993,16.8307 15.6815,17.2689l69.8398 2.42244c9.09568,0.438189 16.8272,-6.57638 17.2618,-15.6744 0.445276,-9.09686 -6.57284,-16.8248 -15.6756,-17.2736l-54.2682 -2.62087c-9.09568,-0.43937 -32.3941,6.78308 -32.8394,15.8776z"/>
    <path id="_357668728" class="fil6" d="M1353.76 1379.82c-0.447638,9.34016 6.75119,17.2677 16.0902,17.726l71.2524 2.4874c9.33308,0.452363 17.2713,-6.75473 17.7201,-16.0843 0.455906,-9.33544 -6.75119,-17.2665 -16.0866,-17.7225l-71.2501 -2.49095c-9.34135,-0.448819 -17.2725,6.74882 -17.726,16.0843z"/>
    <path id="_357668488" class="fil6" d="M1370.52 1310.58c-0.470079,9.80198 7.09725,18.1394 16.9016,18.6154l74.0587 2.62205c9.81261,0.479528 18.137,-7.0878 18.6083,-16.8886 0.475985,-9.81024 -7.08308,-18.1441 -16.8921,-18.6213l-74.0587 -2.62205c-9.8067,-0.479528 -18.1394,7.09134 -18.6177,16.8945z"/>
    <path id="_357668800" class="fil6" d="M1365.42 1345.93c-0.477166,9.80316 7.09016,18.1347 16.8933,18.6118l74.0587 2.62795c9.8067,0.474804 18.1417,-7.09016 18.6118,-16.8921 0.479528,-9.81379 -7.0878,-18.1441 -16.8945,-18.6177l-74.0564 -2.63268c-9.80906,-0.470079 -18.1465,7.09843 -18.613,16.9028z"/>
    <path id="_357669016" class="fil6" d="M1414.9 1260.96c0,0 -32.7886,-19.4646 -41.8429,-21.8646 -51.4111,0.48189 -103.61,45.0319 -105.425,82.7316 -2.72835,56.4615 49.1717,73.604 86.8725,75.4241l23.7059 0.77126 36.6898 -137.062z"/>
    <path id="_357669112" class="fil12" d="M1444.95 1366.76c0,0 -1.04291,-0.172441 -2.86772,-0.377953 -1.83307,-0.109843 -4.41851,-0.660237 -7.51772,-0.990946 -1.54252,-0.170079 -3.21733,-0.356693 -4.9878,-0.550394 -1.76693,-0.132284 -3.62599,-0.431103 -5.55945,-0.679134 -3.85158,-0.546851 -7.97481,-0.973229 -12.091,-1.4126 -4.13977,-0.251575 -8.23583,-0.863386 -12.1004,-1.34055 -3.85748,-0.47126 -7.48111,-0.825591 -10.5992,-1.05591 -6.24331,-0.45 -10.4787,-0.483071 -10.4787,-0.483071 -0.0011811,0 3.99449,1.27795 10.0937,2.78977 3.05079,0.748819 6.63071,1.54252 10.4847,2.29961 3.84449,0.822048 7.97717,1.49055 12.1583,1.83543 4.17638,0.357874 8.34804,0.728741 12.2705,0.930709 3.90355,0.324803 7.62284,0.080315 10.761,-0.00826772 6.30237,-0.194882 10.4339,-0.956694 10.4339,-0.956694z"/>
    <path id="_357668368" class="fil12" d="M1460.04 1331.46c0,0 -3.91063,-1.17402 -9.83859,-2.39764 -2.95512,-0.646063 -6.43819,-1.21536 -10.115,-2.0504 -3.6874,-0.797245 -7.63347,-1.49291 -11.5772,-2.20158 -7.90631,-1.31929 -15.8622,-2.31732 -21.8858,-2.80748 -6.0189,-0.523229 -10.1161,-0.516142 -10.1161,-0.516142 0.0011811,-0.0011811 3.83859,1.33937 9.70985,2.82047 5.86536,1.51063 13.7681,3.18071 21.7229,4.53071 3.98032,0.628347 7.963,1.26614 11.7083,1.71969 3.73937,0.548032 7.26379,0.689764 10.2839,0.818505 6.04134,0.261024 10.1067,0.0850394 10.1079,0.0838583z"/>
    <path id="_357668032" class="fil12" d="M1461.21 1295.94c0,0 -3.91181,-1.17165 -9.83859,-2.39528 -2.95866,-0.648426 -6.44292,-1.21772 -10.1197,-2.05276 -3.68386,-0.793701 -7.62875,-1.49173 -11.5772,-2.2004 -7.9004,-1.31693 -15.8587,-2.31614 -21.8847,-2.80276 -6.02245,-0.52441 -10.1138,-0.519685 -10.1138,-0.519685 0,0 3.8315,1.33937 9.70749,2.81811 5.86654,1.51417 13.7705,3.18307 21.724,4.53307 3.98268,0.622441 7.96064,1.26378 11.7095,1.72087 3.74055,0.546851 7.26024,0.686221 10.2839,0.810237 6.0378,0.265748 10.1091,0.0885827 10.1091,0.0885827z"/>
    <path id="_357667912" class="fil12" d="M1414.9 1260.96c0,0 -2.79331,-0.885827 -6.98268,-1.77638 -4.18819,-0.925985 -9.79607,-1.83189 -15.3862,-2.66103 -2.79921,-0.359055 -5.60315,-0.715749 -8.2252,-1.05 -2.62677,-0.31063 -5.07874,-0.605906 -7.17993,-0.853938 -2.14961,-0.151181 -3.80433,-0.585827 -5.07993,-0.718111 -1.27205,-0.155906 -2.00079,-0.240945 -2.00079,-0.240945 0,-0.00236221 0.602363,0.380315 1.71378,1.00158 1.1185,0.559843 2.74016,1.60394 4.80237,2.22402 2.04685,0.698032 4.47402,1.58622 7.1067,2.11654 2.62795,0.62126 5.46378,1.15866 8.30079,1.55079 5.68583,0.806694 11.4154,1.04291 15.7288,0.946064 4.31221,-0.0673229 7.20355,-0.538583 7.20237,-0.538583z"/>
    <path id="_357667840" class="fil7" d="M1188.13 1350.41c5.91024,1.01811 11.6374,1.99252 17.1142,2.91969 -0.00236221,-0.00236221 -0.00236221,-0.00236221 -0.00236221,-0.00236221 -5.48741,-0.924804 -11.191,-1.89685 -17.1106,-2.91614l-0.0011811 -0.0011811zm41.4508 24.2221l0 0c0.715749,0.269292 1.43032,0.527953 2.15315,0.778347 -0.720473,-0.246851 -1.4374,-0.507874 -2.15315,-0.778347l0 0zm2.15906 0.775985c0.0283465,0.0141732 0.0590552,0.0248032 0.0921261,0.034252 -0.0318898,-0.0106299 -0.0614174,-0.022441 -0.0933072,-0.0330709l0.0011811 -0.0011811zm0.120473 0.0413386c0.0259843,0.0106299 0.0472441,0.0188977 0.0732284,0.0295276 -0.0248032,-0.011811 -0.0484252,-0.0188977 -0.0744095,-0.0295276l0.0011811 0zm0.11811 0.0437008c0.0188977,0.00472441 0.0354331,0.0141732 0.0531496,0.0188977 -0.0153543,-0.00826772 -0.034252,-0.0129921 -0.0531496,-0.0177165l0 -0.0011811zm0.111024 0.0389764c0.0153543,0.00236221 0.0283465,0.00826772 0.0413386,0.0129921 -0.011811,-0.00590552 -0.0259843,-0.0106299 -0.0413386,-0.0129921l0 0zm0.124016 0.0377953c0.00354331,0.00236221 0.00354331,0.00354331 0.00590552,0.00590552 -0.00236221,-0.00354331 -0.00236221,-0.00236221 -0.00590552,-0.00590552l0 0zm115.024 21.1453c2.46378,0.243307 4.89095,0.415748 7.2626,0.530315l23.7059 0.77126 -23.7059 -0.77126c-2.37047,-0.115748 -4.79882,-0.285827 -7.2626,-0.530315z"/>
    <path id="_357667768" class="fil22" d="M1378.75 1359.87c0,0 3.51733,1.12677 8.99528,2.51693 0.357874,0.0874016 0.724016,0.179528 1.09961,0.272835 3.05079,0.748819 6.63071,1.54252 10.4847,2.29961 0.349607,0.0708662 0.7063,0.147638 1.05827,0.220866 3.53977,0.720473 7.29686,1.30158 11.1,1.61457 4.17638,0.357874 8.34804,0.728741 12.2705,0.930709 3.90355,0.324803 7.62284,0.080315 10.761,-0.00826772 6.1689,-0.193701 10.2555,-0.925985 10.4268,-0.956694 0.00708662,0 0.00708662,0 0.00708662,0 0,0 -1.04291,-0.172441 -2.86772,-0.377953 -1.83307,-0.109843 -4.41851,-0.660237 -7.51772,-0.990946 -1.54252,-0.170079 -3.21733,-0.356693 -4.9878,-0.550394 -1.76693,-0.132284 -3.62599,-0.431103 -5.55945,-0.679134 -3.85158,-0.546851 -7.97481,-0.973229 -12.091,-1.4126 -4.13977,-0.251575 -8.23583,-0.863386 -12.1004,-1.34055 -3.85748,-0.47126 -7.48111,-0.825591 -10.5992,-1.05591 -0.314173,-0.0236221 -0.62126,-0.0448819 -0.920079,-0.0661418 -5.73662,-0.388583 -9.55867,-0.416929 -9.55985,-0.416929z"/>
    <path id="_357668152" class="fil23" d="M1405.99 1294.25l41.7284 1.44567c-0.00472441,0.0011811 -0.011811,0.0011811 -0.0212599,-0.0011811l-41.2725 -1.43268 -0.434646 -0.011811zm50.2241 1.74095l1.48465 0.0507874 -1.48465 -0.0507874c0,0 0,0 0,0z"/>
    <path id="_357667816" class="fil24" d="M1406.42 1294.26l41.2725 1.43268c-1.36417,-0.0755906 -2.8004,-0.174803 -4.28032,-0.330709l-36.9922 -1.10197zm49.7894 1.72914l1.48465 0.0507874c0.751182,0.0354331 1.49291,0.00590552 2.22402,-0.068504 -0.861024,0.0188977 -2.1248,0.034252 -3.70866,0.0177165z"/>
    <path id="_357667696" class="fil25" d="M1443.41 1295.36c1.47874,0.157087 2.91496,0.257481 4.27914,0.33189 0.00944883,0.00236221 0.0165354,0.00236221 0.0212599,0.0011811l8.49568 0.295276c0,0 0,0 0,0 1.58504,0.0153543 2.84646,0.00236221 3.70866,-0.0177165 0.258662,-0.0248032 0.517323,-0.0555119 0.77126,-0.0897638l0.519685 0.0555119 -0.375591 -0.0602363 -17.4201 -0.516142z"/>
   </g>
  </g>
  <polygon class="fil26" points="548.222,1430.39 877.902,1486.93 905.965,1792 680.965,1792 672.001,1728 643.465,1792 435.964,1792 "/>
  <rect class="fil27" width="2048" height="2048"/>
 </g>
</svg>
