<?xml version="1.0" encoding="UTF-8"?>
<!DOCTYPE svg PUBLIC "-//W3C//DTD SVG 1.1//EN" "http://www.w3.org/Graphics/SVG/1.1/DTD/svg11.dtd">
<!-- Creator: CorelDRAW -->
<svg xmlns="http://www.w3.org/2000/svg" xml:space="preserve" width="2048px" height="2048px" style="shape-rendering:geometricPrecision; text-rendering:geometricPrecision; image-rendering:optimizeQuality; fill-rule:evenodd; clip-rule:evenodd"
viewBox="0 0 2048 2048"
 xmlns:xlink="http://www.w3.org/1999/xlink">
 <defs>
  <style type="text/css">
   <![CDATA[
    .str0 {stroke:black;stroke-width:2.08347}
    .fil38 {fill:none}
    .fil2 {fill:#003C69}
    .fil11 {fill:#00406B}
    .fil33 {fill:#005187}
    .fil32 {fill:#00558E}
    .fil13 {fill:#005A96}
    .fil12 {fill:#0077C7}
    .fil25 {fill:#01579B}
    .fil30 {fill:#191919}
    .fil3 {fill:#212121}
    .fil5 {fill:#424242}
    .fil8 {fill:#4B4B4B}
    .fil4 {fill:#616161}
    .fil7 {fill:#636363}
    .fil14 {fill:#757575}
    .fil18 {fill:#AD0000}
    .fil15 {fill:#B09176}
    .fil35 {fill:#B5D7D9}
    .fil28 {fill:#B9DCDE}
    .fil1 {fill:#BDBDBD}
    .fil17 {fill:#BF9E83}
    .fil16 {fill:#BFE3E6}
    .fil29 {fill:#C20000}
    .fil9 {fill:#C3E8EA}
    .fil37 {fill:#CCA98B}
    .fil24 {fill:#D50000}
    .fil34 {fill:#D7B293}
    .fil22 {fill:#DCB696}
    .fil31 {fill:#DE0000}
    .fil20 {fill:#E3BC9B}
    .fil36 {fill:#E5BD9C}
    .fil27 {fill:#EAC2A0}
    .fil26 {fill:#F2C8A5}
    .fil21 {fill:#F7CCA9}
    .fil23 {fill:#F7D5B8}
    .fil10 {fill:#F7F7F7}
    .fil0 {fill:#FFD3AE}
    .fil19 {fill:#FFDCBE}
    .fil6 {fill:white}
   ]]>
  </style>
 </defs>
 <g id="Layer_x0020_1">
  <metadata id="CorelCorpID_0Corel-Layer"/>
  <g id="_357679192">
   <g>
    <path id="_406745696" class="fil0" d="M1228.26 1433.14c7.86024,24.4394 -5.57717,31.4658 -30.6343,43.5615 -25.0512,12.0815 -43.226,7.26497 -55.3122,-17.7945l-73.5686 -178.893c-12.0874,-25.0595 -1.57795,-55.1741 23.4768,-67.2615 25.0547,-12.085 40.4929,2.58189 60.1193,22.3075 37.3784,37.5579 75.9178,198.082 75.919,198.08z"/>
    <path id="_406745408" class="fil1" d="M1216.07 1387.26c-5.53347,2.07992 -11.0646,4.16575 -16.5874,6.26575 -24.2752,9.21379 -48.417,19.3228 -73.6016,25.4197l16.4339 39.9591c12.0874,25.0595 30.261,29.876 55.3122,17.7945 25.0583,-12.0957 38.4945,-19.1209 30.6331,-43.5603 0.0011811,-0.0011811 -4.61103,-19.2059 -12.1902,-45.8788z"/>
    <path id="_406745384" class="fil0" d="M1173.3 1264.87c-26.7544,26.0563 -57.9898,47.4709 -86.6835,29.4792 -28.6984,-17.9858 -32.1532,-46.9654 -14.1614,-75.6721l142.024 -213.912c22.7906,-36.3296 61.3123,-24.7075 97.6524,-1.91103 36.3437,22.7847 45.4831,49.65 22.6937,85.9843l-161.525 176.032z"/>
    <path id="_406745360" class="fil2" d="M1378.12 996.882c-2.06693,-1.76102 -160.81,4.64292 -162.963,7.16457l-80.8583 112.06c28.0713,28.0819 79.2804,87.3509 107.354,115.417l145.282 -125.149c27.7984,-32.667 23.8547,-81.6898 -8.81457,-109.493z"/>
    <path id="_406745456" class="fil3" d="M1235.19 1431.16c0,0 6.1193,19.2744 21.4807,41.9079 5.24174,7.71969 6.6756,21.1181 9.96615,27.7949 13.5236,2.93504 17.8087,34.4055 15.4961,39.9107 -2.00551,9.21615 -47.7095,18.3354 -76.5001,8.2004 -20.0339,-7.05001 -36.313,-0.362599 -58.8426,6.32126 -21.5067,6.38268 -48.7087,12.7654 -90.3107,7.20001 -40.9335,-5.47796 -32.5347,-44.4685 -18.9803,-54.8587 18.9673,-8.37166 39.8622,-9.10394 55.7977,-11.5949 49.6028,-7.7256 21.3898,-34.5118 50.0575,-51.6119 24.476,14.0906 45.8398,21.6425 60.4831,17.4768 22.298,-6.33662 19.7209,-30.3225 31.3524,-30.7465z"/>
    <path id="_406745432" class="fil4" d="M1213.41 1528.53c21.0827,7.42442 50.0445,5.84174 68.8619,0.982678 -1.45039,-11.263 -6.3756,-26.6362 -15.6295,-28.6453 -3.29055,-6.67678 -4.72441,-20.0752 -9.96615,-27.7949 -15.3614,-22.6335 -21.4819,-41.9067 -21.4819,-41.9067 -11.6303,0.422835 -9.05316,24.4087 -31.3512,30.7453 -14.6433,4.16575 -36.0071,-3.38622 -60.4831,-17.4768 -28.6677,17.0988 -0.454725,43.8863 -50.0575,51.6119 -15.9354,2.49095 -36.8303,3.22323 -55.7977,11.5949 -7.37599,5.65512 -13.2047,19.7717 -10.4102,32.3563 4.21772,1.85788 9.22796,3.26693 15.1394,4.05827 47.7449,6.38268 78.9638,-0.94252 103.645,-8.26772 25.8555,-7.67363 44.537,-15.3484 67.5308,-7.25788z"/>
    <path id="_357679816" class="fil5" d="M1269.35 1501.92c-0.863386,-0.472441 -1.76221,-0.851575 -2.71299,-1.05591 -3.29055,-6.67678 -4.72441,-20.0752 -9.96615,-27.7949 -15.3614,-22.6335 -21.4819,-41.9067 -21.4819,-41.9067 -11.6303,0.422835 -9.05316,24.4087 -31.3512,30.7453 -14.6433,4.16575 -36.0071,-3.38622 -60.4831,-17.4768 -28.6677,17.0988 -14.687,43.8863 -64.291,51.6119 -15.9402,2.49095 -22.5969,3.22323 -41.5642,11.5949 -1.83071,1.41851 -3.56339,3.34016 -5.0941,5.61969 4.30276,2.52638 9.76182,4.4126 16.6441,5.33386 41.602,5.56418 68.804,-0.816142 90.3107,-7.19882 22.5343,-6.68741 38.8111,-13.3736 58.8449,-6.32245 23.3811,8.22284 57.9201,3.76181 71.1449,-3.15z"/>
    <path id="_357652720" class="fil3" d="M1173.21 1487.29c17.4744,3.28465 40.1941,7.98898 57.9343,3.73583 10.3878,-2.49095 19.3276,-7.99843 27.3638,-14.7484 -0.558662,-1.14331 -1.16693,-2.2252 -1.83189,-3.2126 -15.3614,-22.6335 -21.4819,-41.9067 -21.4819,-41.9067 -11.6303,0.422835 -9.05316,24.4087 -31.3512,30.7453 -14.3835,4.09134 -35.25,-3.1311 -59.1792,-16.7398 3.68386,15.4476 11.0929,38.8394 28.5461,42.1264z"/>
    <path id="_357678328" class="fil6" d="M1133.99 1494.45c-1.24843,2.89725 -4.6004,4.22599 -7.48701,2.97402l-19.298 -8.33386c-2.89016,-1.24843 -4.2189,-4.59331 -2.97402,-7.48819 1.25079,-2.88662 4.59922,-4.21772 7.49056,-2.96339l19.3016 8.3256c2.87953,1.24843 4.21418,4.60748 2.96693,7.48583z"/>
    <path id="_357670024" class="fil6" d="M1144.23 1478.87c-1.14095,2.64095 -4.20591,3.86221 -6.84567,2.7189l-17.661 -7.62402c-2.64331,-1.14331 -3.85866,-4.21536 -2.72008,-6.8504 1.14331,-2.63858 4.20591,-3.85748 6.84922,-2.72008l17.6634 7.62875c2.64213,1.13858 3.85866,4.20118 2.71418,6.84686z"/>
    <path id="_357656728" class="fil6" d="M1153.54 1464.52c-1.14331,2.64803 -4.20827,3.86221 -6.85276,2.72362l-17.6587 -7.62875c-2.64331,-1.14803 -3.86103,-4.213 -2.71772,-6.84922 1.14095,-2.63858 4.20591,-3.86339 6.84686,-2.71299l17.6587 7.62048c2.64921,1.13386 3.86103,4.20118 2.72362,6.84686z"/>
    <path id="_357654256" class="fil7" d="M1089.1 1494.02c0.0129921,-0.00590552 0.0271654,-0.00826772 0.0425197,-0.0129921 -0.0129921,0.00236221 -0.0307087,0.00826772 -0.0437008,0.0129921l0.0011811 0zm0.0732284 -0.0212599c6.6815,-1.71378 11.8524,-3.88937 16.0039,-6.38741 0.00354331,0.00472441 0.00826772,0.0106299 0.0106299,0.0129921 -4.14922,2.49567 -9.33308,4.66536 -16.0146,6.3756l0 -0.0011811zm25.3583 -14.1508l-2.80512 -1.20827 2.79213 1.20354c1.25433,-1.43268 2.3811,-2.89961 3.42284,-4.40552 -1.03583,1.50827 -2.15906,2.98347 -3.40985,4.41024z"/>
    <path id="_357654088" class="fil8" d="M1087.11 1564.63c-0.00472441,0 -0.00826772,0 -0.0129921,0 0.00590552,0 0.00708662,0 0.0129921,0l0 0zm0.0153543 0c24.6827,-0.00472441 43.1929,-4.47874 58.7103,-9.04725 -15.5209,4.56851 -34.0264,9.04489 -58.7103,9.04725zm-29.8607 -2.02559c-0.00236221,0 -0.00708662,-0.00354331 -0.00944883,-0.00354331 0.00236221,0 0.00708662,0.00354331 0.00944883,0.00354331zm-0.783071 -0.105118l0 0c-0.0366142,-0.00590552 -0.0696851,-0.00708662 -0.105118,-0.0129921 0.0366142,0.00590552 0.068504,0.00708662 0.105118,0.0129921l0 0zm-0.145276 -0.0188977c-0.0236221,-0.00472441 -0.0413386,-0.00708662 -0.0649607,-0.00944883 0.0212599,0.00236221 0.0437008,0.00472441 0.0649607,0.00944883zm-0.109843 -0.0141732c-0.0307087,-0.00590552 -0.0637796,-0.0106299 -0.0944883,-0.0129921 0.0330709,0.00236221 0.0614174,0.00708662 0.0944883,0.0129921zm-0.147638 -0.0212599c-0.0165354,-0.0011811 -0.0295276,-0.00472441 -0.0448819,-0.00708662 0.0165354,0.00236221 0.0283465,0.00590552 0.0437008,0.00708662l0.0011811 0zm-0.10748 -0.0141732c-0.0106299,-0.00354331 -0.0212599,-0.00590552 -0.0307087,-0.00590552 0.0129921,0.00236221 0.0177165,0.00236221 0.0307087,0.00590552zm-0.265748 -0.0389764c-0.00236221,0 -0.00590552,-0.00236221 -0.00590552,-0.00236221 0.00354331,0 0.00354331,0.00236221 0.00590552,0.00236221zm91.5485 -7.22835c0.0708662,-0.022441 0.138189,-0.0401575 0.206693,-0.0625985 -0.068504,0.022441 -0.135827,0.0401575 -0.206693,0.0625985l0 0zm0.56693 -0.170079c15.2362,-4.55552 27.6366,-9.01772 40.3748,-9.02245 -12.7382,0.00472441 -25.1398,4.46693 -40.376,9.02245l0.0011811 0zm57.8138 -6.01536c-0.0696851,-0.0236221 -0.135827,-0.046063 -0.204331,-0.0720473 0.0696851,0.0259843 0.134646,0.0484252 0.204331,0.0720473l0 0zm-17.4059 -3.00709c-0.00236221,0 -0.00826772,0 -0.0106299,0l0 0c0.00236221,0 0.00826772,0 0.0106299,0z"/>
    <path id="_357653824" class="fil7" d="M1104.34 1481.38c0.972048,-2.00551 2.98583,-3.20079 5.10237,-3.20551 -2.11654,0.00472441 -4.13032,1.2 -5.10237,3.20551l0 0zm7.33229 -2.7567c-0.0236221,-0.0106299 -0.0484252,-0.0200788 -0.0744095,-0.0307087 0.0271654,0.0106299 0.0507874,0.0200788 0.0744095,0.0318898l0 -0.0011811zm-2.2004 -0.448819c-0.00472441,0 -0.00708662,0 -0.0129921,0l0.0011811 0c0.00472441,0 0.00708662,0 0.011811,0l0 0zm7.55552 -11.1071c0.858662,-1.92756 2.75079,-3.08268 4.74095,-3.09095 -1.99016,0.0106299 -3.88229,1.16339 -4.74213,3.09095l0.0011811 0zm6.7441 -2.69764c-0.00472441,-0.00236221 -0.00944883,-0.00472441 -0.0177165,-0.00826772 0.00826772,0.00354331 0.0129921,0.00590552 0.0177165,0.00826772zm-1.97008 -0.393307c-0.0011811,0 -0.00472441,0 -0.00708662,0l0 0c0.00236221,0 0.00472441,0 0.00708662,0z"/>
    <path id="_357653968" class="fil9" d="M1134.87 1450.79l-1.71378 -0.740552 1.71614 0.734646c0,0.00236221 -0.00354331,0.00236221 -0.00354331,0.00590552l0.0011811 0zm3.02953 -2.61614l-69.1536 -168.162 69.1536 168.162zm-74.3599 -209.971c0.00236221,-0.00590552 0.00236221,-0.00590552 0.00236221,-0.0106299 0,0.00236221 0,0.00708662 -0.00354331,0.0106299l0.0011811 0zm0.0248032 -0.0897638c1.82953,-6.4063 4.80591,-12.9295 8.8878,-19.4398 -4.07953,6.51024 -7.05827,13.0335 -8.8878,19.4398zm74.4674 -118.214c-1.27913,-1.31693 -2.53937,-2.58662 -3.73701,-3.7937l0 -0.0011811c1.20473,1.20709 2.45551,2.47087 3.74174,3.7878l-0.00472441 0.00708662z"/>
    <path id="_357653776" class="fil5" d="M1147.74 1456.34l-12.8681 -5.55c0,-0.00354331 0.00236221,-0.00354331 0.00236221,-0.00472441l0.0177165 0.00708662c0.934253,-0.878741 1.93937,-1.74095 3.01654,-2.60079l-0.00708662 -0.0177165c1.63347,-1.28976 3.43701,-2.53937 5.45552,-3.7441l0 0c0.437008,0.252756 0.872835,0.501969 1.3063,0.750001 0.819686,3.43229 1.82008,7.25316 3.07677,11.1602z"/>
    <path id="_357654184" class="fil10" d="M1128.77 1497.9c-0.752363,0 -1.52126,-0.151181 -2.25945,-0.47126l-19.298 -8.33386c-0.799607,-0.344882 -1.4811,-0.852757 -2.02205,-1.46693 -0.0011811,-0.00354331 -0.00708662,-0.00708662 -0.0106299,-0.0129921 0.00590552,-0.00236221 0.0106299,-0.00590552 0.0188977,-0.0106299 -1.40079,-1.59921 -1.85551,-3.90473 -0.960237,-5.99764 0.0366142,-0.0779528 0.0696851,-0.154725 0.10748,-0.229134 0.972048,-2.00551 2.98583,-3.20079 5.10237,-3.20551 0.00708662,0 0.011811,0 0.0165354,0 0.00590552,0 0.00826772,0 0.0129921,0 0.709843,0 1.43032,0.135827 2.12599,0.418111 0.0271654,0.0106299 0.0507874,0.0200788 0.0744095,0.0318898 0.0177165,0.00708662 0.0354331,0.0141732 0.0507874,0.0212599l0 0 2.80512 1.20827 16.4965 7.11733c2.87953,1.24843 4.21418,4.60748 2.96575,7.48583 -0.928347,2.15669 -3.02362,3.44528 -5.22638,3.44528z"/>
    <path id="_357654448" class="fil10" d="M1139.45 1482.02c-0.689764,0 -1.38898,-0.138189 -2.05984,-0.42874l-17.661 -7.62402c-0.209055,-0.0921261 -0.409843,-0.193701 -0.602363,-0.308268 0.00354331,-0.00590552 0.00826772,-0.0129921 0.0106299,-0.0188977 -2.21811,-1.32402 -3.17717,-4.08544 -2.12835,-6.52323 0.00944883,-0.0165354 0.0177165,-0.0377953 0.0248032,-0.0555119 0.859843,-1.92756 2.75197,-3.08032 4.74213,-3.09095 0.00826772,0 0.0153543,0 0.0259843,0 0.00236221,0 0.00472441,0 0.00708662,0 0.651969,0 1.31457,0.125197 1.95236,0.38504 0.00826772,0.00354331 0.0129921,0.00590552 0.0177165,0.00826772 0.0259843,0.0106299 0.0543308,0.0200788 0.0791339,0.0330709l0.56693 0.244488c0,0 0,0.0011811 0,0.0011811l17.0965 7.38308c2.64213,1.13858 3.85866,4.20118 2.71299,6.84686 -0.849213,1.96772 -2.76851,3.14764 -4.78465,3.14764z"/>
    <path id="_357654016" class="fil9" d="M1126.31 1452.76c0.846851,-1.95709 2.74961,-3.13701 4.7563,-3.1441 -2.00551,0.00708662 -3.91063,1.18701 -4.75748,3.1441l0.0011811 0zm4.78701 -3.1441c-0.00236221,0 -0.00590552,0 -0.00826772,0l0 0c0.00354331,0 0.00590552,0 0.00826772,0z"/>
    <path id="_357654304" class="fil10" d="M1148.75 1467.67c-0.688583,0 -1.38898,-0.138189 -2.06221,-0.426378l-17.6587 -7.62875c-0.389764,-0.170079 -0.752363,-0.382677 -1.07953,-0.629528 0.00590552,-0.00472441 0.00826772,-0.0106299 0.0129921,-0.0153543 -1.87559,-1.40906 -2.62323,-3.95551 -1.65118,-6.20434l0.0011811 0c0.846851,-1.95709 2.74961,-3.13701 4.7563,-3.1441 0.00826772,0 0.0153543,0 0.022441,0 0.00354331,0 0.00590552,0 0.00826772,0 0.688583,0 1.3878,0.140551 2.05866,0.431103l0 0 1.71378 0.740552 12.8681 5.55 3.07677 1.32992c2.64921,1.13386 3.86103,4.20118 2.72362,6.84804 -0.400394,0.925985 -1.03937,1.67953 -1.80945,2.21457 -0.869292,0.605906 -1.91221,0.934253 -2.9811,0.934253z"/>
    <path id="_357654328" class="fil0" d="M1641.39 1160.92c24.9756,-5.93386 30.9296,8.01969 41.0197,33.9343 10.0973,25.9276 3.86929,43.6701 -22.0559,53.7615l-183.032 54.4985c-25.9193,10.0925 -55.1268,-2.7437 -65.2123,-28.6642 -10.0984,-25.9264 5.74134,-40.1611 26.9374,-58.1859 40.3725,-34.3264 202.342,-55.3441 202.343,-55.3441z"/>
    <path id="_357654376" class="fil1" d="M1682.41 1194.85c-10.0913,-25.9146 -16.0465,-39.867 -41.0221,-33.9343 0.0011811,0 -34.5945,4.48111 -75.7855,12.7051 2.48386,8.55001 5.3752,16.9571 7.9193,25.0748 6.45709,20.6433 13.4882,41.1685 18.8457,62.1402 0.640158,2.47441 1.24252,4.97126 1.86732,7.45749l66.1193 -19.6819c25.9252,-10.0913 32.152,-27.8339 22.0559,-53.7615z"/>
    <path id="_357653464" class="fil0" d="M1492.01 1202.69c14.2075,34.5544 22.4197,71.5146 -4.98426,91.4268 -27.3921,19.9193 -55.5745,12.3095 -75.4831,-15.0815l-148.257 -200.534c-25.2236,-34.7008 -10.6547,-46.0607 24.0437,-71.2784l1.8815 4.86733c34.7067,-25.226 74.5099,-59.6138 99.73,-24.9225l103.069 215.522z"/>
    <path id="_357653320" class="fil11" d="M1620.54 1164.87c0,0 17.1862,-10.6524 35.3705,-31.0819 6.19843,-6.97087 18.8362,-11.6433 24.5079,-16.4646 -0.466536,-13.8354 29.0032,-25.6902 34.8981,-24.7961 9.43347,-0.309449 29.4591,41.7674 26.6776,72.1642 -3.76654,41.3422 39.8268,55.9252 49.6217,141.311 4.71142,41.028 -35.1567,42.4217 -48.5315,31.8225 -12.7654,-16.3417 -18.6,-36.4146 -24.9118,-51.2575 -11.4236,-26.8973 -22.6583,-26.6469 -34.7091,-26.3965 -8.64922,0.178347 -17.7201,0.359055 -27.5811,-9.50906 7.6689,-27.1819 9.76654,-49.7398 2.1378,-62.9186 -11.6043,-20.0634 -34.2319,-11.6917 -37.48,-22.8732z"/>
    <path id="_357653440" class="fil12" d="M1720.27 1162.16c2.03504,-22.2579 -6.58938,-49.9536 -15.9024,-67.0016 -10.5732,4.15866 -24.2729,12.6945 -23.9516,22.1622 -5.67048,4.82126 -18.3095,9.49371 -24.5079,16.4646 -18.1843,20.4295 -35.3717,31.0819 -35.3717,31.0819 3.2504,11.1815 25.8768,2.80984 37.4811,22.8732 7.62993,13.1788 5.53111,35.7378 -2.1378,62.9186 9.86103,9.86812 18.9319,9.68741 27.5811,9.50906 12.052,-0.250394 23.2855,-0.500788 34.7091,26.3965 6.31182,14.8429 12.1453,34.9158 24.9118,51.2575 7.27323,5.77087 22.3878,7.9689 33.9024,2.18268 0.780709,-4.54607 0.908268,-9.75001 0.230315,-15.6685 -11.2453,-97.995 -61.278,-114.726 -56.9445,-162.176z"/>
    <path id="_357653008" class="fil13" d="M1680.78 1114.43c-0.244488,0.948426 -0.390945,1.91693 -0.362599,2.8937 -5.67048,4.82126 -18.3095,9.49371 -24.5079,16.4646 -18.1843,20.4295 -35.3717,31.0819 -35.3717,31.0819 3.2504,11.1815 25.8768,2.80984 37.4811,22.8732 7.62993,13.1788 5.53111,35.7378 -2.1378,62.9186 23.5973,23.6091 46.1469,3.50079 65.7756,49.6996 6.31772,14.8559 8.65985,21.1217 21.4264,37.4634 1.80118,1.42677 4.09607,2.64331 6.68623,3.56575 1.39134,-4.79055 1.8815,-10.5461 1.09252,-17.4414 -9.79489,-85.3855 -53.3941,-99.9686 -49.6193,-141.308 2.25118,-24.6815 -10.5295,-57.0756 -20.4626,-68.2111z"/>
    <path id="_357653368" class="fil11" d="M1690.12 1211.22c-1.09252,-17.7319 -2.08819,-40.9181 -10.5555,-57.078 -4.95118,-9.45709 -12.4831,-16.7835 -20.9929,-22.9205 -0.970867,0.818505 -1.87441,1.67835 -2.66575,2.56181 -18.1843,20.4295 -35.3717,31.0819 -35.3717,31.0819 3.2504,11.1815 25.8768,2.80984 37.4811,22.8732 7.48701,12.939 5.58189,34.9548 -1.74213,61.4682 14.0776,-7.34764 34.9382,-20.2536 33.8469,-37.9866z"/>
    <path id="_357653680" class="fil6" d="M1706.67 1247.5c3.10512,0.500788 5.21575,3.4252 4.7126,6.52914l-3.35315 20.7461c-0.507874,3.11103 -3.42756,5.21693 -6.53623,4.71142 -3.09803,-0.494882 -5.21221,-3.42048 -4.71142,-6.52087l3.35906 -20.7591c0.500788,-3.1063 3.42166,-5.21221 6.52914,-4.7067z"/>
    <path id="_357653128" class="fil6" d="M1689.07 1241.38c2.83347,0.46063 4.76457,3.13819 4.30276,5.97993l-3.06733 18.9898c-0.459449,2.84292 -3.13229,4.77048 -5.97756,4.30866 -2.83819,-0.455906 -4.7752,-3.12874 -4.31575,-5.96693l3.07087 -18.9992c0.461811,-2.84292 3.13819,-4.7693 5.98701,-4.31221z"/>
    <path id="_357653272" class="fil6" d="M1672.86 1235.88c2.84055,0.453544 4.76693,3.13347 4.30985,5.97166l-3.07087 19.0004c-0.458268,2.83583 -3.13583,4.75748 -5.97638,4.3063 -2.83937,-0.457087 -4.7693,-3.13347 -4.30985,-5.97993l3.07323 -18.991c0.451181,-2.83819 3.1311,-4.75867 5.97402,-4.30748z"/>
    <path id="_357653512" class="fil9" d="M1748.02 1340.7l-0.116929 -0.046063 -0.0826772 -0.0401575c0.0673229,0.0283465 0.132284,0.0590552 0.199606,0.0862205zm-1.93701 -0.930709l-0.0437008 -0.0212599c-0.0413386,-0.022441 -0.0814961,-0.0448819 -0.122835,-0.068504 0.0543308,0.0307087 0.109843,0.0590552 0.165354,0.0897638l0.0011811 0zm-2.16142 -1.3252c-0.290551,-0.198425 -0.569292,-0.405118 -0.837402,-0.622441 -12.7654,-16.3417 -15.1087,-22.6063 -21.4264,-37.4634l0.0011811 0c6.31654,14.8559 8.65867,21.1217 21.4252,37.4634l0 0c0.26811,0.211417 0.54567,0.421654 0.836221,0.622441l0.0011811 0zm47.7201 -32.2004c0,-0.0153543 -0.00354331,-0.0259843 -0.00354331,-0.0401575 0,0.011811 0.00354331,0.0283465 0.00354331,0.0401575zm-0.0129921 -0.114567c-0.00236221,-0.0437008 -0.00708662,-0.0862205 -0.0129921,-0.129921 0.00590552,0.0437008 0.00708662,0.0862205 0.0129921,0.129921zm-71.8737 -10.0299c-0.00236221,-0.00590552 -0.00590552,-0.00826772 -0.00826772,-0.0129921 0.00236221,0.00472441 0.00472441,0.00826772 0.00826772,0.0129921l0 0zm-0.0437008 -0.0921261c-4.09016,-8.65158 -8.30552,-14.6209 -12.6236,-18.8965 0.00590552,-0.00708662 0.0106299,-0.0141732 0.0165354,-0.022441 4.31103,4.28268 8.52166,10.2721 12.6071,18.9189l0 0zm-22.9264 -23.0457l0.487796 -3.00709c-2.3504,-1.20354 -4.72914,-2.15079 -7.12323,-2.94921 0,-0.00354331 0,-0.00354331 0.00236221,-0.00354331 2.4,0.798426 4.77284,1.73032 7.12323,2.93268l-0.490158 3.02717zm-16.7776 -8.27363l0.0968505 -0.612993 0.00236221 0 -0.0992127 0.612993zm-23.9705 -14.5831c0.0212599,-0.0744095 0.0413386,-0.151181 0.0614174,-0.230315l0.00354331 0c-0.0200788,0.0791339 -0.0437008,0.153543 -0.0649607,0.230315zm-168.559 -56.9056l-26.2051 -54.7973c0,0 0.00236221,0 0.00236221,0l26.2051 54.7914c23.5512,-7.68662 51.163,-14.1591 76.4505,-19.2402 -25.2874,5.08347 -52.9052,11.5583 -76.4528,19.2461zm78.1749 -19.591c0.403937,-0.0814961 0.80315,-0.165354 1.20236,-0.239764 -0.400394,0.0814961 -0.799607,0.158268 -1.20236,0.239764zm2.05276 -0.407481c0.3,-0.0614174 0.601182,-0.122835 0.905906,-0.178347 0.846851,-0.166536 1.68898,-0.340158 2.5311,-0.500788 0.388583,-0.0767717 0.778347,-0.145276 1.16339,-0.219685 -1.52362,0.292914 -3.0567,0.595276 -4.60158,0.89882l0.0011811 0zm4.71024 -0.920079c0.0543308,-0.011811 0.109843,-0.022441 0.162992,-0.0318898 0.11811,-0.0236221 0.23504,-0.046063 0.35315,-0.0673229 -0.173622,0.0330709 -0.34252,0.0673229 -0.516142,0.0992127zm0.874016 -0.167717c0.624804,-0.122835 1.24725,-0.244488 1.86732,-0.364961 0.408662,-0.0744095 0.81378,-0.153543 1.21654,-0.22441 -1.02284,0.193701 -2.05158,0.389764 -3.08504,0.589371l0.0011811 0zm3.60827 -0.689764c0.364961,-0.0708662 0.728741,-0.13937 1.09488,-0.206693 -0.364961,0.068504 -0.729922,0.138189 -1.09606,0.206693l0.0011811 0zm2.62087 -0.493701c0.285827,-0.056693 0.576378,-0.112205 0.864568,-0.164173 1.03937,-0.193701 2.07284,-0.38504 3.10158,-0.574016 0.0661418,-0.0106299 0.132284,-0.0200788 0.198425,-0.0330709 -1.3748,0.251575 -2.76378,0.510237 -4.16575,0.77126l0.0011811 0zm4.38189 -0.810237c0.10748,-0.0200788 0.21378,-0.0437008 0.318898,-0.0637796 1.0063,-0.180709 2.00551,-0.367323 2.99882,-0.540945 -1.09488,0.197244 -2.20512,0.399213 -3.31772,0.604725zm157.864 -0.47126c0,-1.61339 0.0755906,-3.26457 0.229134,-4.95945 0.00590552,-0.0389764 0.00708662,-0.0744095 0.0106299,-0.109843 -0.00236221,0.0354331 -0.00590552,0.0708662 -0.0106299,0.109843 -0.153543,1.69488 -0.230315,3.34607 -0.230315,4.95945l0.0011811 0zm-152.343 -0.529134c0.737008,-0.132284 1.47284,-0.262205 2.19685,-0.398032 0.393307,-0.0614174 0.775985,-0.132284 1.16221,-0.198425 0.0838583,-0.0153543 0.167717,-0.0283465 0.251575,-0.0437008 -1.18819,0.209055 -2.39646,0.424016 -3.61063,0.641339l0 -0.0011811zm4.87205 -0.862205c0.314173,-0.0531496 0.624804,-0.109843 0.930709,-0.165354 0.434646,-0.0744095 0.865749,-0.148819 1.29449,-0.225591 0.719292,-0.125197 1.43622,-0.249213 2.15197,-0.367323 0.494882,-0.0885827 0.992127,-0.17126 1.48465,-0.257481 0.360236,-0.0590552 0.720473,-0.116929 1.0748,-0.178347 -2.24764,0.382677 -4.56615,0.780709 -6.93662,1.1941zm7.93465 -1.36299c0.448819,-0.0791339 0.895276,-0.152362 1.34528,-0.226772 0.582284,-0.0980316 1.16811,-0.199606 1.74567,-0.291733 0.461811,-0.0814961 0.920079,-0.153543 1.37244,-0.226772 -1.45512,0.239764 -2.94449,0.490158 -4.46339,0.745276zm4.71851 -0.785434c0.549213,-0.0921261 1.09016,-0.18189 1.62874,-0.270473 0.129921,-0.0212599 0.259843,-0.0413386 0.393307,-0.0614174 -0.666142,0.106299 -1.34291,0.219685 -2.02205,0.33189zm2.86654 -0.472441c0.0307087,-0.00590552 0.0614174,-0.0106299 0.090945,-0.0153543 0.432284,-0.0696851 0.863386,-0.140551 1.28622,-0.206693 -0.455906,0.0732284 -0.912993,0.147638 -1.37717,0.222047zm2.26181 -0.366142c0.220866,-0.0354331 0.442914,-0.0708662 0.664961,-0.106299 -0.218504,0.0354331 -0.444095,0.0708662 -0.666142,0.10748l0.0011811 -0.0011811zm1.17284 -0.187795c0.390945,-0.0661418 0.779528,-0.122835 1.15866,-0.186614 0.516142,-0.0814961 1.02638,-0.162992 1.53189,-0.242126 0.477166,-0.0767717 0.941339,-0.148819 1.40315,-0.222047 0.452363,-0.068504 0.901182,-0.145276 1.33937,-0.209055 0.43937,-0.0696851 0.858662,-0.135827 1.27913,-0.197244 -2.11299,0.327166 -4.35591,0.679134 -6.71221,1.05709l0 0zm7.32993 -1.15394c0.250394,-0.0377953 0.497244,-0.0791339 0.742914,-0.119291 0.362599,-0.0519685 0.712205,-0.109843 1.07244,-0.158268 1.02874,-0.696851 2.45433,-1.69252 4.20473,-2.9811 -1.74685,1.28858 -3.17481,2.28425 -4.20355,2.9811 -0.592914,0.090945 -1.19882,0.183071 -1.81654,0.277559l0 0zm121.491 -0.0968505c0.00236221,-0.0484252 0.00472441,-0.0968505 0.00944883,-0.145276 -0.00354331,0.0484252 -0.00708662,0.0968505 -0.00944883,0.145276l0 0zm-89.9788 -25.8792c0.00472441,-0.00236221 0.00708662,-0.00708662 0.011811,-0.011811 -0.00236221,0.00236221 -0.00944883,0.00944883 -0.011811,0.011811zm0.101575 -0.10748c0.00590552,-0.00472441 0.0106299,-0.0129921 0.0188977,-0.0200788 -0.00826772,0.00708662 -0.0129921,0.0129921 -0.0188977,0.0200788zm0.0921261 -0.0992127c0.0106299,-0.0106299 0.0200788,-0.0200788 0.0307087,-0.0307087 -0.00944883,0.0106299 -0.0200788,0.0212599 -0.0307087,0.0318898l0 -0.0011811zm0.100394 -0.105118c0.022441,-0.0248032 0.0484252,-0.0507874 0.0708662,-0.0755906 -0.022441,0.0248032 -0.0484252,0.0507874 -0.0708662,0.0767717l0 -0.0011811zm0.114567 -0.121654c0.0236221,-0.022441 0.046063,-0.0484252 0.068504,-0.0708662 -0.022441,0.022441 -0.046063,0.0484252 -0.0696851,0.0708662l0.0011811 0zm0.0862205 -0.0956694c0.0236221,-0.022441 0.0484252,-0.0496063 0.0708662,-0.0720473 -0.022441,0.0248032 -0.046063,0.0484252 -0.0708662,0.0732284l0 -0.0011811zm0.0897638 -0.0933072c0.109843,-0.116929 0.218504,-0.23504 0.328347,-0.351969 -0.109843,0.116929 -0.219685,0.23504 -0.328347,0.351969l0 0zm0.328347 -0.35315c0.848032,-0.910631 1.70315,-1.8437 2.55473,-2.80158 -0.853938,0.956694 -1.70433,1.88858 -2.55473,2.80276l0 -0.0011811zm2.56536 -2.81103c0.022441,-0.0236221 0.0437008,-0.0484252 0.0661418,-0.0720473 -0.022441,0.022441 -0.046063,0.0484252 -0.0661418,0.0720473zm0.0968505 -0.108662c0.0177165,-0.0200788 0.0377953,-0.0425197 0.056693,-0.0625985 -0.0177165,0.0200788 -0.0366142,0.0401575 -0.056693,0.0637796l0 -0.0011811zm0.102756 -0.114567c0.0177165,-0.0177165 0.0318898,-0.0377953 0.0472441,-0.0555119 -0.0141732,0.0177165 -0.0318898,0.0377953 -0.0484252,0.056693l0.0011811 -0.0011811zm73.0371 -26.4142c-4.75748,-9.04961 -9.81024,-15.0071 -13.3866,-15.0071l0.0011811 0c3.5752,0 8.62796,5.95985 13.3854,15.0071l0 0zm-40.5201 -3.26221l0.0484252 -0.0401575c0.114567,-0.0944883 0.229134,-0.186614 0.346063,-0.27874 -0.132284,0.105118 -0.262205,0.212599 -0.394488,0.320079l0 -0.0011811zm24.026 -11.5406c0.00236221,0 0.00472441,0.0011811 0.00708662,0.0011811 -0.00236221,-0.0011811 -0.00472441,0 -0.00826772,0l0.0011811 -0.0011811zm0.0106299 -0.00236221c0.887009,-0.162992 1.65591,-0.246851 2.27835,-0.246851 0.26811,0 0.507874,0.0153543 0.71693,0.0484252 -0.209055,-0.034252 -0.448819,-0.0484252 -0.714567,-0.0484252 -0.622441,0 -1.3937,0.0838583 -2.28189,0.246851l0.0011811 0zm2.99528 -0.199606c0.0366142,-0.00236221 0.068504,-0.00236221 0.101575,-0.00236221 -0.0330709,0 -0.068504,0 -0.101575,0.00236221z"/>
    <path id="_357653560" class="fil3" d="M1763.45 1343.37c0.0259843,0 0.0507874,-0.00236221 0.0744095,-0.00236221 -0.022441,0 -0.0484252,0.00236221 -0.0744095,0.00236221l0 0zm0.0968505 -0.00472441c4.59095,-0.204331 9.25394,-1.25079 13.4421,-3.35551 0.780709,-4.54607 0.908268,-9.75001 0.230315,-15.6685 -11.2453,-97.995 -61.278,-114.726 -56.9445,-162.176 2.03504,-22.2579 -6.58938,-49.9536 -15.9024,-67.0016 -1.99016,0.783071 -4.09134,1.71969 -6.18898,2.78858l0.0543308 -0.0283465c1.36536,-0.696851 2.72481,-1.33347 4.063,-1.9063l0.109843 -0.0531496c3.79488,-1.6311 7.33938,-2.75906 9.90119,-3.23268 0.00354331,-0.0011811 0.00590552,0 0.00826772,0 0.0011811,-0.0011811 0,-0.00354331 0.00236221,-0.00354331 0.88819,-0.162992 1.65827,-0.246851 2.28189,-0.246851 0.265748,0 0.505512,0.0153543 0.714567,0.0484252l0 -0.0011811c0.034252,-0.00236221 0.068504,-0.00236221 0.101575,-0.00236221l0.0011811 0c3.5752,0 8.62796,5.95748 13.3854,15.0071 7.72087,14.6752 14.6646,37.4764 13.2732,56.1579 -0.00354331,0.0484252 -0.00708662,0.0968505 -0.00944883,0.145276 -0.0212599,0.249213 -0.0413386,0.498426 -0.0637796,0.747638 -0.00236221,0.0354331 -0.00590552,0.0708662 -0.0106299,0.109843 -0.153543,1.69488 -0.230315,3.34607 -0.230315,4.95945 -0.0165354,37.6996 40.4575,54.4678 49.852,136.351l0 0c0.00590552,0.0437008 0.0106299,0.0862205 0.0129921,0.129921 0.00472441,0.0259843 0.00708662,0.0507874 0.00944883,0.0744095 0,0.0141732 0.00354331,0.0248032 0.00354331,0.0401575 2.05748,18.5516 -5.04685,28.9288 -14.6551,33.7607l-0.0177165 0.00944883c-4.18229,2.09882 -8.8382,3.14764 -13.4244,3.34607zm-77.1662 -237.423c0.00236221,-0.00472441 0.00708662,-0.00708662 0.00944883,-0.00944883l0.00826772 -0.00826772c-0.00472441,0.00590552 -0.0129921,0.0141732 -0.0177165,0.0188977l0 -0.0011811zm1.87795 -1.64528l0.0283465 -0.0259843c0.132284,-0.10748 0.262205,-0.21378 0.394488,-0.318898 0.42874,-0.338977 0.868111,-0.675591 1.31457,-1.00276l0.0236221 -0.0177165c-0.604725,0.444095 -1.19173,0.901182 -1.76102,1.36654l0 -0.0011811zm4.75748 -3.40748c0.967324,-0.615355 1.95945,-1.19882 2.96457,-1.75984l0.0779528 -0.0413386c-1.03228,0.571654 -2.0504,1.17402 -3.04252,1.80118z"/>
    <path id="_357652504" class="fil14" d="M1761.89 1343.4c-1.13504,0 -2.26417,-0.0519685 -3.37441,-0.151181l-0.226772 -0.0212599c-0.657875,-0.0649607 -1.30748,-0.13937 -1.94764,-0.231496l-0.433465 -0.0744095c-0.561024,-0.0814961 -1.12323,-0.185433 -1.6689,-0.303544l-0.56693 -0.116929c-0.494882,-0.112205 -0.980316,-0.23504 -1.46457,-0.360236l-0.637796 -0.173622c-0.445276,-0.138189 -0.881103,-0.272835 -1.31339,-0.424016l-0.484252 -0.157087c1.39134,-4.79055 1.8815,-10.5437 1.09252,-17.439 -9.79489,-85.3855 -53.3941,-99.9686 -49.6193,-141.308 2.25118,-24.6815 -10.5295,-57.0756 -20.4626,-68.2111 -0.147638,0.569292 -0.257481,1.14567 -0.318898,1.72795 0.0141732,-0.13937 0.0307087,-0.275197 0.046063,-0.411024l0.0767717 -0.470079c0.0708662,-0.393307 0.16063,-0.785434 0.269292,-1.17402l0.126378 -0.421654c0.162992,-0.507874 0.361418,-1.00394 0.598819,-1.50473l0.151181 -0.282284c0.209055,-0.418111 0.438189,-0.825591 0.683859,-1.22599l0.292914 -0.461811c0.257481,-0.379134 0.533859,-0.760631 0.822048,-1.14567l0.244488 -0.320079c0.377953,-0.468898 0.778347,-0.930709 1.20473,-1.39252l0.340158 -0.350788c0.34252,-0.356693 0.693308,-0.7063 1.05945,-1.05591 0.00472441,-0.00590552 0.011811,-0.0129921 0.0165354,-0.0177165l0.416929 -0.379134c0.451181,-0.409843 0.917717,-0.817323 1.40551,-1.21299l0.0389764 -0.0366142c0.569292,-0.464174 1.1563,-0.921261 1.76102,-1.36536l0.380315 -0.270473c0.468898,-0.336614 0.943702,-0.668504 1.42677,-0.99567l0.382677 -0.252756c0.26811,-0.175984 0.536221,-0.348425 0.806694,-0.522048 0.993308,-0.628347 2.01024,-1.23071 3.04134,-1.80236l0.258662 -0.140551c0.602363,-0.329528 1.20354,-0.660237 1.81654,-0.96378l0.0519685 -0.0318898c2.09764,-1.0689 4.19764,-2.00551 6.1878,-2.78858 9.31418,17.048 17.9374,44.7437 15.9024,67.0016 -4.33347,47.4496 45.6992,64.1812 56.9445,162.176 0.679134,5.91851 0.550394,11.1224 -0.230315,15.6685 -4.18819,2.10473 -8.85119,3.15118 -13.4421,3.35551 -0.00708662,0 -0.0153543,0.00236221 -0.022441,0.00236221 -0.022441,0 -0.0484252,0.00236221 -0.0744095,0.00236221 -0.520867,0.0212599 -1.04173,0.034252 -1.55906,0.034252zm-13.8425 -2.68819l-0.0259843 -0.0106299c-0.0661418,-0.0271654 -0.132284,-0.0578741 -0.199606,-0.0862205l-0.0200788 -0.0106299c0.0814961,0.0354331 0.162992,0.0720473 0.244488,0.10748l0.0011811 0zm-1.91103 -0.916536l-0.0519685 -0.0248032c-0.056693,-0.0307087 -0.112205,-0.0590552 -0.166536,-0.0897638 -0.0377953,-0.022441 -0.0767717,-0.0437008 -0.114567,-0.0661418 0.109843,0.0614174 0.219685,0.122835 0.33189,0.18189l0.0011811 -0.0011811zm-2.0941 -1.2685c-0.0401575,-0.0248032 -0.0814961,-0.0531496 -0.120473,-0.0814961 -0.28937,-0.200788 -0.568111,-0.409843 -0.836221,-0.622441 0.303544,0.239764 0.622441,0.477166 0.956694,0.703938zm-63.6225 -221.205l0 0c-0.00236221,-0.116929 -0.00590552,-0.237402 -0.00236221,-0.354331 -0.00236221,0.116929 0,0.237402 0.00236221,0.354331z"/>
    <path id="_357652696" class="fil4" d="M1749.77 1341.39l0 0 -0.229134 -0.0921261c-0.387402,-0.138189 -0.760631,-0.285827 -1.13622,-0.446457l-0.359055 -0.138189c-0.0814961,-0.0354331 -0.164173,-0.0720473 -0.245669,-0.10748l-0.0708662 -0.0354331c-0.373229,-0.162992 -0.720473,-0.344882 -1.07953,-0.517323l-0.514961 -0.256299c-0.113386,-0.0590552 -0.223229,-0.119291 -0.333071,-0.180709 -0.285827,-0.162992 -0.5563,-0.329528 -0.826772,-0.494882l-0.494882 -0.303544c-0.147638,-0.0944883 -0.296457,-0.188977 -0.43937,-0.28937 -0.334252,-0.226772 -0.65315,-0.464174 -0.956694,-0.703938l0 0c-12.7654,-16.3417 -15.1087,-22.6063 -21.4264,-37.4634l0.0011811 0c-0.630709,-1.48701 -1.26614,-2.9067 -1.90394,-4.25906 -0.00236221,-0.00590552 -0.00590552,-0.00826772 -0.00826772,-0.0129921 -0.00944883,-0.0283465 -0.0236221,-0.0531496 -0.0354331,-0.0791339 -4.08544,-8.64686 -8.29725,-14.6362 -12.6071,-18.9189 0.46063,-0.673229 0.787796,-1.45748 0.928347,-2.31732l3.35433 -20.7473c0.501969,-3.10276 -1.60866,-6.02717 -4.71378,-6.52796 -0.309449,-0.0507874 -0.617717,-0.0744095 -0.922442,-0.0744095 -2.74252,0 -5.15788,1.98662 -5.6067,4.78111l-2.8689 17.7319c-2.3504,-1.20236 -4.72441,-2.13307 -7.12323,-2.93268 0.0614174,-0.211417 0.112205,-0.431103 0.148819,-0.655512l3.06733 -18.991c0.461811,-2.84055 -1.47047,-5.51693 -4.30276,-5.97874 -0.279921,-0.0472441 -0.562205,-0.0673229 -0.837402,-0.0673229 -2.51929,0 -4.73386,1.81772 -5.15079,4.37953l-2.97047 18.3862 -0.00236221 0 0 -0.00354331c-2.09528,-0.596457 -4.21654,-1.25197 -6.34016,-2.04331 0.157087,-0.370866 0.269292,-0.767717 0.337796,-1.18228l3.07323 -19.0004c0.295276,-1.84252 -0.411024,-3.6189 -1.72323,-4.76221 8.54174,-6.89882 15.3047,-15.5658 14.6717,-25.8614 -1.09134,-17.7319 -2.08701,-40.9181 -10.5543,-57.078 -4.95118,-9.45709 -12.4831,-16.7835 -20.9929,-22.9205 -0.970867,0.818505 -1.87441,1.67835 -2.66575,2.56181 6.19843,-6.97087 18.8362,-11.6433 24.5079,-16.4646l0 0c-0.00236221,-0.116929 -0.00590552,-0.237402 -0.00236221,-0.354331 0.00236221,-0.274016 0.0200788,-0.543308 0.046063,-0.811418 0.0614174,-0.582284 0.17126,-1.15866 0.318898,-1.72795 9.93308,11.1354 22.7138,43.5296 20.4626,68.2111 -3.77481,41.3398 39.8233,55.9229 49.6193,141.308 0.788977,6.89528 0.298819,12.6484 -1.09252,17.439l0 -0.00354331 0 0.00590552zm-85.6524 -84.078c-2.73425,-1.73858 -5.47205,-3.88701 -8.23583,-6.65079l0 -0.0011811c0.0555119,-0.180709 0.103937,-0.364961 0.154725,-0.552756 0.0850394,-0.302362 0.168898,-0.6 0.250394,-0.901182 3.12756,-1.6311 6.58465,-3.5374 10.0665,-5.70945l-2.23583 13.8154z"/>
    <path id="_357652888" class="fil5" d="M1656.28 1249.21c7.32402,-26.5146 9.22796,-48.5292 1.74213,-61.4682 -11.6043,-20.0634 -34.2319,-11.6917 -37.4811,-22.8732l0.0011811 0c0,0 2.28071,-1.41378 6.05788,-4.19764 5.86063,-4.31811 15.3284,-11.9398 25.4918,-22.7173 0.00236221,-0.00236221 0.00944883,-0.00944883 0.011811,-0.011811 0.0318898,-0.0318898 0.0590552,-0.0614174 0.0897638,-0.0956694 0.00590552,-0.00708662 0.0106299,-0.0129921 0.0188977,-0.0200788 0.0259843,-0.0259843 0.0484252,-0.0507874 0.0732284,-0.0779528 0.0106299,-0.011811 0.0200788,-0.0212599 0.0307087,-0.0318898 0.0236221,-0.0248032 0.046063,-0.0484252 0.0696851,-0.0732284 0.022441,-0.0259843 0.0484252,-0.0519685 0.0708662,-0.0767717 0.0153543,-0.0165354 0.0271654,-0.0307087 0.0425197,-0.046063 0.0248032,-0.022441 0.0472441,-0.0484252 0.0696851,-0.0708662 0.00472441,-0.00826772 0.0129921,-0.0153543 0.0177165,-0.0236221 0.0259843,-0.0248032 0.0484252,-0.0484252 0.0708662,-0.0732284 0.00590552,-0.00944883 0.0106299,-0.0129921 0.0188977,-0.0212599 0.109843,-0.116929 0.218504,-0.23504 0.328347,-0.351969l0 -0.0011811c0.850394,-0.912993 1.69961,-1.8437 2.55473,-2.80158 0.00590552,-0.00236221 0.00826772,-0.00472441 0.0106299,-0.00944883 0.0212599,-0.0236221 0.0437008,-0.0484252 0.0661418,-0.0720473 0.0106299,-0.0129921 0.0200788,-0.022441 0.0307087,-0.0354331 0.0212599,-0.0236221 0.0377953,-0.0437008 0.056693,-0.0637796 0.0153543,-0.0177165 0.0295276,-0.0366142 0.0448819,-0.0507874 0.0165354,-0.0188977 0.0330709,-0.0389764 0.0484252,-0.056693 0.0330709,-0.0330709 0.0614174,-0.068504 0.0956694,-0.101575l0 -0.0011811c0.791339,-0.882284 1.6937,-1.74213 2.66575,-2.56063 8.50985,6.13583 16.0417,13.4646 20.9929,22.9205 8.46733,16.1599 9.46182,39.3461 10.5543,57.078 0.633071,10.2957 -6.12993,18.9638 -14.6717,25.8614 -0.708662,-0.617717 -1.59213,-1.05118 -2.5878,-1.20945 -0.277559,-0.046063 -0.5563,-0.0673229 -0.830316,-0.0673229 -2.51457,0 -4.73622,1.81536 -5.1437,4.37481l-0.536221 3.31299c-3.48189,2.17205 -6.93898,4.07835 -10.0665,5.70945l0.0011811 -0.0011811c-0.00354331,0.00354331 -0.00590552,0.00354331 -0.0106299,0.00590552z"/>
    <path id="_357652288" class="fil9" d="M1702.1 1279.55c-0.00708662,0 -0.0153543,0 -0.022441,0 0.00708662,0 0.0153543,0 0.022441,0zm-0.0248032 -0.00236221c-0.191339,-0.0106299 -0.383859,-0.0307087 -0.577559,-0.0637796 -2.79331,-0.446457 -4.79055,-2.87362 -4.78465,-5.61969 -0.00472441,2.74607 1.99016,5.17323 4.78465,5.61969 0.193701,0.0330709 0.386221,0.0531496 0.577559,0.0637796z"/>
    <path id="_357652936" class="fil10" d="M1702.41 1279.56c-0.101575,0 -0.207874,-0.00236221 -0.311811,-0.00708662 -0.00708662,0 -0.0153543,0 -0.022441,0 -0.00236221,-0.00236221 -0.00354331,-0.00236221 -0.00354331,-0.00236221 -0.190158,-0.0106299 -0.382677,-0.0307087 -0.576378,-0.0637796 -2.79331,-0.446457 -4.79055,-2.87362 -4.78465,-5.61969 0.00236221,-0.298819 0.0248032,-0.6 0.0732284,-0.901182l0 0 0.490158 -3.02717 2.8689 -17.7319c0.448819,-2.79449 2.86418,-4.78111 5.6067,-4.78111 0.304725,0 0.612993,0.0236221 0.922442,0.0744095 3.10512,0.500788 5.21575,3.4252 4.7126,6.52914l-3.35315 20.7461c-0.140551,0.859843 -0.467717,1.6441 -0.928347,2.31732 -0.00590552,0.00826772 -0.0106299,0.0153543 -0.0165354,0.022441 -0.0011811,-0.00472441 -0.00472441,-0.00708662 -0.00708662,-0.00944883 -1.04646,1.50236 -2.77677,2.45551 -4.67008,2.45433z"/>
    <path id="_357652456" class="fil10" d="M1685.16 1270.73c-0.272835,0 -0.552756,-0.0236221 -0.833859,-0.068504l0 -0.0011811c-2.55945,-0.411024 -4.38662,-2.62795 -4.38189,-5.14252 0,-0.272835 0.022441,-0.548032 0.0661418,-0.823229l0 0 0.0992127 -0.612993 2.97166 -18.3862c0.415748,-2.56181 2.63032,-4.37953 5.14961,-4.37953 0.276378,0 0.5563,0.0200788 0.837402,0.0673229 2.83347,0.46063 4.76457,3.13819 4.30276,5.97993l-3.06733 18.9898c-0.0354331,0.22441 -0.0874016,0.444095 -0.148819,0.655512 -0.00236221,0 -0.00236221,0 -0.00236221,0.00354331 -0.00472441,-0.00354331 -0.0129921,-0.00590552 -0.0200788,-0.00826772 -0.659056,2.20984 -2.68229,3.72638 -4.97244,3.72638z"/>
    <path id="_357652528" class="fil9" d="M1668.95 1265.22c-0.272835,0 -0.549213,-0.0200788 -0.827953,-0.0661418 -2.56181,-0.411024 -4.38426,-2.63386 -4.37717,-5.15315 -0.00708662,2.51929 1.81536,4.74213 4.37717,5.15315 0.279921,0.0425197 0.553937,0.0661418 0.830316,0.0661418 0.0767717,0 0.153543,-0.00236221 0.226772,-0.00590552 -0.0755906,0.00354331 -0.153543,0.00590552 -0.230315,0.00590552l0.0011811 0zm0.237402 -0.00590552c0.00472441,0 0.00944883,0 0.0153543,0 -0.00590552,0 -0.0106299,0 -0.0153543,0z"/>
    <path id="_357652912" class="fil10" d="M1668.96 1265.22c-0.275197,0 -0.551575,-0.022441 -0.830316,-0.0661418 -2.56181,-0.411024 -4.38426,-2.63386 -4.37717,-5.15315 0,-0.274016 0.0236221,-0.548032 0.0673229,-0.826772l0.301181 -1.8626 2.23583 -13.8154 0.536221 -3.31299c0.408662,-2.55945 2.62795,-4.37481 5.1437,-4.37481 0.274016,0 0.551575,0.0212599 0.830316,0.0673229 0.99567,0.158268 1.87795,0.591733 2.5878,1.20945 1.31221,1.14331 2.01851,2.91969 1.72205,4.76221l-3.07087 19.0004c-0.0696851,0.414567 -0.183071,0.811418 -0.338977,1.18228 -0.00708662,-0.00236221 -0.011811,-0.00472441 -0.0165354,-0.00472441 -0.778347,1.83898 -2.54292,3.08977 -4.54016,3.18898 -0.00590552,0 -0.0106299,0 -0.0165354,0 -0.00236221,0 -0.00472441,0 -0.00708662,0 -0.0732284,0.00354331 -0.15,0.00590552 -0.226772,0.00590552z"/>
    <path id="_357652864" class="fil15" d="M1353.54 673.169c2.71536,27.9756 -26.602,34.4173 -59.315,37.5945 -32.7236,3.17953 -40.6713,35.6918 -43.3866,7.72205 0,0 -9.26457,-85.852 -11.6043,-168.702 -0.793701,-28.0949 1.71969,-47.3705 34.4339,-50.5489 32.7213,-3.17717 70.9158,13.5732 70.9158,41.6776 0.0011811,95.1745 8.95512,132.258 8.95631,132.256z"/>
    <path id="_357652984" class="fil0" d="M1344.47 563.954c2.89252,27.1559 -52.5024,78.6686 -95.4473,79.7835l-9.50906 -0.334252c-42.9449,1.11496 -78.6674,-32.7922 -79.7823,-75.7394l-2.25118 -86.4969c-6.06615,-87.1288 32.7862,-78.6662 75.7347,-79.7847l29.2276 0.338977c42.9402,-1.12087 78.6591,32.7886 79.7823,75.7382l2.24528 86.4946z"/>
    <path id="_357652960" class="fil3" d="M1344.2 553.433c76.8863,-156.581 -34.9453,-197.887 -88.4835,-188.739 -162.755,6.7689 -92.3883,73.1847 -97.5331,79.1316 158.19,-32.4107 126.569,62.9516 155.825,65.3245 29.2654,2.37402 9.77245,33.9981 30.1914,44.2831z"/>
    <path id="_357651736" class="fil0" d="M1354.31 522.559c0,14.4 -11.6658,26.0681 -26.0599,26.0681 -14.3965,0 -26.0681,-11.6681 -26.0681,-26.0681 0.0011811,-14.3941 11.6717,-26.0622 26.0681,-26.0622 14.3941,-0.0011811 26.0599,11.6681 26.0599,26.0622z"/>
    <path id="_357651592" class="fil16" d="M1344.63 552.554l0 0c1.3748,-2.81929 2.6941,-5.61142 3.94488,-8.35749 -1.25079,2.74843 -2.56772,5.53583 -3.94607,8.35749l0.0011811 0zm3.99803 -8.47323c0.00354331,-0.00708662 0.0106299,-0.0248032 0.0153543,-0.0330709 -0.00472441,0.0106299 -0.00944883,0.0236221 -0.0153543,0.0330709z"/>
    <path id="_357651688" class="fil17" d="M1344.52 564.481c0,-0.00354331 0,-0.00472441 0,-0.0106299 0,0.00236221 0,0.00826772 0,0.0106299l0 0zm-0.0129921 -0.16063c0,-0.0106299 0,-0.0153543 -0.00236221,-0.0259843 0.00236221,0.00944883 0.00236221,0.0153543 0.00236221,0.0259843zm-0.00472441 -0.0673229c-0.00236221,-0.00944883 -0.00354331,-0.0200788 -0.00354331,-0.0307087 0.0011811,0.0106299 0,0.0212599 0.00236221,0.0318898l0.0011811 -0.0011811zm-0.00826772 -0.0661418c0,-0.0200788 -0.00236221,-0.0425197 -0.00472441,-0.0614174 0.00236221,0.0177165 0.00472441,0.0413386 0.00472441,0.0614174zm-0.00708662 -0.090945c-0.00236221,-0.0165354 -0.00236221,-0.0283465 -0.00590552,-0.0437008 0.00354331,0.011811 0.00354331,0.0283465 0.00472441,0.0437008l0.0011811 0zm-0.00826772 -0.0732284c-0.00236221,-0.022441 -0.00472441,-0.0448819 -0.00826772,-0.0673229 0.00354331,0.022441 0.00590552,0.0448819 0.00826772,0.068504l0 -0.0011811zm-0.279921 -10.5957l0 0c0.142913,-0.290551 0.282284,-0.576378 0.425197,-0.872835l0.0011811 0c-0.140551,0.290551 -0.284646,0.582284 -0.426378,0.872835z"/>
    <path id="_357651568" class="fil0" d="M1526.24 732.498c27.2717,11.6268 39.9591,43.154 28.3311,70.4256 -11.6221,27.2693 -39.7111,15.9898 -66.9886,4.36418l-182.645 -52.5674c-27.2681,-11.6221 -39.952,-43.1563 -28.3252,-70.4256 11.6256,-27.2705 43.1611,-39.9508 70.4221,-28.3288l179.205 76.5319z"/>
    <path id="_357651496" class="fil18" d="M1399.98 678.572l-52.9394 -22.6063c-27.261,-11.6232 -58.7965,1.05827 -70.4221,28.3288 -11.6268,27.2693 1.05709,58.8036 28.324,70.4268l95.5938 28.6807 -0.5563 -104.83z"/>
    <path id="_357651904" class="fil0" d="M1537.17 943.517c-0.852757,19.7764 -14.0421,23.5288 -33.8185,22.6701 -19.7693,-0.844489 -26.5146,1.21536 -25.6618,-18.5563l1.91693 -170.864c1.14803,-26.55 7.41615,-46.2603 33.9768,-45.1099 26.5583,1.14803 46.2036,17.2713 46.0052,50.1603 -0.239764,40.7681 -22.4185,161.7 -22.4185,161.7z"/>
    <path id="_357651880" class="fil0" d="M1473.35 976.347c4.6063,1.42441 7.18347,6.30945 5.75788,10.9193l-9.11694 30.926c-1.42323,4.59922 -6.31654,7.17756 -10.9134,5.76024 -4.6063,-1.4315 -7.18701,-6.31418 -5.76733,-10.9193l9.1193 -30.926c1.42677,-4.60866 6.31063,-7.18111 10.9205,-5.76024z"/>
    <path id="_357652000" class="fil0" d="M1528.14 985.865c4.72559,1.46221 7.37599,6.47953 5.91615,11.2016l-9.34489 31.6418c-1.46102,4.72678 -6.47599,7.37008 -11.1945,5.91142 -4.7315,-1.46102 -7.38071,-6.48308 -5.91851,-11.2099l9.33898 -31.6288c1.46457,-4.72678 6.47717,-7.37835 11.2028,-5.91615z"/>
    <path id="_357652192" class="fil0" d="M1490.68 981.707c4.96181,1.53189 7.74686,6.79489 6.2126,11.7579l-9.7819 33.0626c-1.53425,4.96181 -6.80434,7.7315 -11.7638,6.20788 -4.96654,-1.53425 -7.74331,-6.79371 -6.21378,-11.7662l9.77954 -33.0567c1.53662,-4.96536 6.80079,-7.75158 11.7673,-6.20552z"/>
    <path id="_357651640" class="fil0" d="M1509.18 985.546c4.96418,1.53189 7.74804,6.79843 6.20906,11.7626l-9.77717 33.0532c-1.53425,4.96181 -6.80434,7.74568 -11.7662,6.20906 -4.963,-1.53071 -7.74804,-6.79371 -6.20906,-11.7602l9.77481 -33.0603c1.53662,-4.96418 6.80197,-7.74331 11.7685,-6.20434z"/>
    <path id="_357650752" class="fil0" d="M1460.2 993.698c0,0 -2.85355,-14.7343 -2.40945,-19.6748 2.68701,-30.2717 37.4988,-44.4071 56.5784,-38.5146 28.5803,8.8382 27.7418,37.7433 21.8421,56.8359l-4.80827 13.2591 -71.2028 -11.9055z"/>
    <path id="_357651136" class="fil19" d="M1483.01 1009.79c-3.11339,0 -5.62914,-2.51457 -5.62914,-5.62205 0,-0.472441 0.0578741,-0.93189 0.170079,-1.36772 2.67874,0.607087 5.4189,0.900001 8.16733,0.900001 0.960237,0 1.92402,-0.0354331 2.88425,-0.106299 0.0177165,0.188977 0.0271654,0.380315 0.0271654,0.574016 0,3.10748 -2.51575,5.62205 -5.61969,5.62205z"/>
    <path id="_357651040" class="fil19" d="M1465.97 1004.54c-0.879922,0 -1.77638,-0.206693 -2.61142,-0.64252 -2.75315,-1.44095 -3.8126,-4.84252 -2.37047,-7.59568 0.294095,-0.56693 0.675591,-1.06417 1.11969,-1.47874 0.93189,0.941339 1.97126,1.77992 3.06024,2.5252 1.28504,0.915355 2.6563,1.68425 4.05591,2.39882 0.692127,0.330709 1.3748,0.666142 2.07166,0.982678 -0.0933072,0.269292 -0.206693,0.538583 -0.338977,0.798426 -1.00512,1.91693 -2.95984,3.01181 -4.98662,3.01181z"/>
    <path id="_357651352" class="fil20" d="M1459.55 990.122c0.252756,1.5437 1.33937,2.75079 2.41418,3.78189 1.12323,1.0252 2.38701,1.89095 3.72166,2.62914 1.32165,0.757087 2.71299,1.39016 4.09843,2.02677 1.41142,0.578741 2.83229,1.18583 4.27205,1.59213 2.88189,0.862205 5.90552,1.27323 8.91733,1.41851 3.01181,0.15 6.04843,-0.0153543 8.98347,-0.595276 2.90315,-0.591733 5.82638,-1.5437 8.02442,-3.26575 1.10787,-0.832678 1.97244,-1.87441 2.36339,-3.06378 0.0661418,-0.3 0.178347,-0.596457 0.188977,-0.912993l0.0401575 -0.418111 -0.0141732 -0.582284c-0.0437008,-0.51378 -0.218504,-1.17638 -0.520867,-1.67126 -0.605906,-1.04882 -1.74921,-1.82717 -3.05315,-2.32205 -1.3063,-0.500788 -2.76378,-0.745276 -4.22835,-0.842127 -2.9374,-0.185433 -5.98229,0.116929 -8.85119,0.97441l-0.0177165 0.00472441c-0.411024,0.122835 -0.84567,-0.108662 -0.964961,-0.519685 -0.0992127,-0.337796 0.0413386,-0.689764 0.324803,-0.874016 0.519685,-0.33189 1.08898,-0.826772 1.5874,-1.31457 0.49252,-0.51378 0.972048,-1.04528 1.37953,-1.63819 0.830316,-1.17165 1.51654,-2.45197 2.0315,-3.82087 0.210236,-0.696851 0.470079,-1.3878 0.592914,-2.11299 0.175984,-0.71693 0.262205,-1.44921 0.336614,-2.1874 0.140551,-1.47756 0.109843,-2.97284 0,-4.47638 0.290551,1.47284 0.538583,2.97638 0.514961,4.49764 -0.00708662,0.761812 -0.0248032,1.52835 -0.137008,2.28662 -0.056693,0.767717 -0.258662,1.51299 -0.415748,2.27126 -0.222047,0.739371 -0.43937,1.48819 -0.758268,2.2004 -0.296457,0.715749 -0.672048,1.41142 -1.09488,2.06457 -0.411024,0.670867 -0.901182,1.28858 -1.41732,1.88858 -0.542126,0.589371 -1.07362,1.12795 -1.78937,1.64764l-0.660237 -1.38898c3.01418,-1.06063 6.20434,-1.65 9.44883,-1.53071 1.61811,0.0791339 3.2563,0.311811 4.8567,0.883465 1.57677,0.571654 3.20551,1.53898 4.20827,3.18071 0.497244,0.829134 0.780709,1.68898 0.875198,2.71536l0.022441 0.576378c-0.00236221,0.329528 -0.022441,0.490158 -0.0377953,0.740552 -0.0177165,0.458268 -0.153543,0.910631 -0.261024,1.36063 -0.548032,1.78583 -1.7504,3.22559 -3.10276,4.2567 -2.75433,2.05158 -5.93977,2.95984 -9.06851,3.55276 -6.29764,1.07362 -12.7984,0.648426 -18.8032,-1.49528 -1.5189,-0.52441 -2.9126,-1.21536 -4.32874,-1.89685 -1.39843,-0.714567 -2.77205,-1.48228 -4.05591,-2.39882 -1.29567,-0.88819 -2.52166,-1.90158 -3.58111,-3.07323 -1.03228,-1.15394 -1.9878,-2.57481 -2.04095,-4.14922z"/>
    <path id="_357651328" class="fil20" d="M1510.72 1010.24c0,0 -0.0543308,-0.714567 0.022441,-1.96772 0.10748,-1.24488 0.237402,-3.05433 0.829134,-5.16733 0.276378,-1.05709 0.689764,-2.18977 1.25551,-3.34607 0.608268,-1.12913 1.32165,-2.3504 2.45315,-3.33898 1.05118,-1.04055 2.54173,-1.81654 4.12441,-2.1l1.20354 -0.135827c0.555119,-0.0413386 0.761812,0.0212599 1.1563,0.0259843 0.661418,-0.0106299 1.53189,0.18189 2.33386,0.334252 1.54134,0.452363 3.01181,1.2815 4.12441,2.45315 1.16339,1.14685 1.75748,2.64803 2.16378,4.02638 0.418111,1.40669 0.441733,2.79213 0.424016,4.0689 -0.0413386,1.28032 -0.220866,2.46496 -0.459449,3.5315 -0.452363,2.1437 -1.16457,3.81024 -1.62874,4.96654 -0.520867,1.14331 -0.846851,1.77638 -0.846851,1.77638 0,0 0.129921,-0.708662 0.405118,-1.91693 0.26811,-1.20473 0.551575,-2.95512 0.722835,-5.02205 0.0838583,-1.03701 0.0968505,-2.15079 0.0354331,-3.30827 -0.0968505,-1.15039 -0.252756,-2.35984 -0.654331,-3.49134 -0.392126,-1.12795 -0.959056,-2.2252 -1.81063,-3.04134 -0.832678,-0.83504 -1.90984,-1.41732 -3.09331,-1.75158 -1.05945,-0.266929 -2.63622,-0.455906 -3.69567,-0.257481 -1.14331,0.204331 -2.25709,0.617717 -3.13701,1.41614 -1.84252,1.4752 -2.96811,3.68622 -3.79488,5.55709 -0.806694,1.90748 -1.35236,3.59764 -1.65591,4.79292 -0.32126,1.19646 -0.478347,1.89567 -0.477166,1.89567z"/>
    <path id="_357651304" class="fil20" d="M1507.2 1023.54c0,0 0.37441,-1.95354 0.934253,-4.88504 0.549213,-2.89961 1.31929,-6.74528 1.58977,-10.5508 0.0921261,-0.955513 0.112205,-1.89921 0.101575,-2.82047 -0.0578741,-0.912993 -0.0637796,-1.82244 -0.23504,-2.6563 -0.269292,-1.69488 -0.887009,-3.13465 -1.7941,-4.1067 -0.435827,-0.498426 -0.938977,-0.885827 -1.4315,-1.16102 -0.479528,-0.320079 -0.969686,-0.461811 -1.35709,-0.643701 -0.831497,-0.250394 -1.30748,-0.39567 -1.30748,-0.39567 0.0011811,0 0.49252,-0.0602363 1.39606,-0.068504 0.442914,0.0614174 1.01102,0.0484252 1.62402,0.270473 0.622441,0.162992 1.32992,0.467717 1.97953,0.975591 1.37362,0.959056 2.45079,2.73307 2.92796,4.67244 0.543308,1.94646 0.591733,4.05827 0.461811,6.10276 -0.314173,4.10551 -1.5189,7.9878 -2.6563,10.7728 -1.12795,2.79331 -2.23347,4.4941 -2.23347,4.4941z"/>
    <path id="_357650728" class="fil20" d="M1488.28 1022.65c0,0 -0.272835,-1.4315 -0.265748,-3.55985 -0.00944883,-2.13071 0.243307,-4.96181 0.905906,-7.73623 0.362599,-1.37717 0.745276,-2.75906 1.28504,-4.00158 0.499607,-1.25315 1.0937,-2.38937 1.74213,-3.2811 0.283465,-0.465355 0.615355,-0.853938 0.93189,-1.17756 0.298819,-0.335433 0.561024,-0.615355 0.837402,-0.798426 0.520867,-0.386221 0.816142,-0.571654 0.816142,-0.571654 0,0 -0.162992,0.316536 -0.451181,0.870473 -0.272835,0.539764 -0.612993,1.32402 -0.924804,2.29725 -0.649607,1.92047 -1.30394,4.54961 -1.9311,7.21418 -0.648426,2.6563 -1.28622,5.34922 -1.86851,7.37127 -0.561024,2.01969 -1.07717,3.37323 -1.07717,3.37323z"/>
    <path id="_357650872" class="fil20" d="M1469.91 1018.34c0,0 -0.122835,-1.17638 0.0153543,-2.87008 0.122835,-1.69843 0.484252,-3.91536 1.07953,-6.07914 0.608268,-2.16024 1.41142,-4.26496 2.2689,-5.77796 0.768898,-1.54016 1.7504,-2.36693 1.69252,-2.35394 0,0 -0.0389764,0.290551 -0.10748,0.801969 -0.0968505,0.475985 -0.175984,1.16102 -0.298819,2.00315 -0.134646,0.818505 -0.296457,1.77638 -0.510237,2.79449 -0.209055,1.01811 -0.487796,2.09055 -0.760631,3.16418 -0.602363,2.13189 -1.34764,4.2378 -2.04921,5.77796 -0.681497,1.54961 -1.32992,2.53937 -1.32992,2.53937z"/>
    <path id="_357651256" class="fil19" d="M1501.52 1012.33c-3.1063,0 -5.63504,-2.52756 -5.63504,-5.63268 0,-3.10158 2.52874,-5.61969 5.63504,-5.61969 3.10276,-0.0011811 5.62678,2.51929 5.62678,5.61969 0,3.10512 -2.52402,5.63268 -5.62678,5.63268z"/>
    <path id="_357651064" class="fil9" d="M1516.16 1035.02c-0.00236221,0 -0.00354331,0 -0.00590552,0 0.00354331,0 0.00236221,0 0.00590552,0l0 0zm0.046063 0c3.80197,-0.0212599 7.32166,-2.48268 8.50276,-6.31418l0.0011811 0c-1.18228,3.83032 -4.70197,6.2941 -8.50512,6.31418l0.0011811 0zm-2.69055 -0.403937l0 0c-0.479528,-0.147638 -0.936615,-0.330709 -1.36772,-0.54567 0.434646,0.214961 0.88819,0.398032 1.36772,0.546851l0 -0.0011811zm-1.39016 -0.558662c-0.00590552,-0.00236221 -0.0129921,-0.00472441 -0.0188977,-0.00708662 0.00590552,0.00236221 0.0129921,0.00472441 0.0188977,0.00708662l0 0zm-6.51615 -3.69803l0 0 1.71024 -5.77796c0,0 0,0 0,0.00236221l-1.71024 5.77559zm31.5544 -86.8442l0 0c0,0 22.1788,-120.932 22.4185,-161.7 0,-0.0543308 0,-0.103937 0,-0.16063 0,0.0555119 0,0.10748 0,0.16063 -0.239764,40.7681 -22.4185,161.7 -22.4185,161.7l0 0zm22.4185 -161.955c0,-0.0177165 0,-0.0401575 0,-0.0590552 0,0.0212599 0,0.0389764 0,0.0590552zm-32.8028 -48.8304c-0.180709,-0.0791339 -0.360236,-0.158268 -0.540945,-0.233858 0.180709,0.0755906 0.361418,0.154725 0.540945,0.233858z"/>
    <path id="_357651088" class="fil21" d="M1516.16 1035.02c-0.00236221,0 -0.00354331,0 -0.00590552,0 -0.871654,-0.00236221 -1.76339,-0.129921 -2.63858,-0.402756l0 -0.0011811c-0.479528,-0.147638 -0.934253,-0.330709 -1.36772,-0.54567 -0.00826772,-0.00590552 -0.0153543,-0.00708662 -0.022441,-0.0129921 -0.00590552,-0.00236221 -0.0129921,-0.00472441 -0.0188977,-0.00708662 -3.60355,-1.82599 -5.53819,-5.90315 -4.65473,-9.91536l-0.132284 0.448819c0,-0.00236221 0,-0.00236221 0,-0.00236221l0.772442 -2.62087c0.388583,-0.745276 0.863386,-1.73032 1.34055,-2.91378 1.11496,-2.72953 2.2937,-6.50906 2.63622,-10.526l1.73504 -5.863 1.67953 0.283465c-0.747638,1.06299 -1.18701,2.3563 -1.18701,3.75237 0,3.61181 2.92205,6.5315 6.52914,6.5315 3.60355,-0.0011811 6.53268,-2.91969 6.53268,-6.5315 0,-0.628347 -0.0897638,-1.23543 -0.255118,-1.80945l1.93701 0.323622c0.056693,1.12323 0.0413386,2.20512 -0.0401575,3.21378 -0.17126,2.06693 -0.454725,3.81733 -0.722835,5.02205 -0.275197,1.20827 -0.405118,1.91693 -0.405118,1.91693 0,0 0.325985,-0.63189 0.846851,-1.77638 0.465355,-1.1563 1.17638,-2.82284 1.62874,-4.96654 0.214961,-0.951969 0.379134,-1.99606 0.440552,-3.11811l0.608268 0.101575 0.729922 -2.01378 -7.41615 25.1185c-1.18228,3.83032 -4.70197,6.2941 -8.50512,6.31418 -0.0153543,0 -0.0307087,0 -0.0448819,0z"/>
    <path id="_357650152" class="fil21" d="M1505.61 1030.36l3.72402 -28.4469 0.121654 0.0212599c0.0507874,0.22441 0.0968505,0.457087 0.134646,0.694489 0.17126,0.833859 0.177165,1.74331 0.23504,2.6563 0.0106299,0.921261 -0.00944883,1.86614 -0.101575,2.82047 -0.269292,3.80551 -1.04055,7.65119 -1.58977,10.5508 -0.558662,2.9315 -0.934253,4.88504 -0.934253,4.88504 0,0 0.367323,-0.564567 0.892914,-1.58032l-0.772442 2.62087 -1.71024 5.77796zm6.45945 -21.8386c0.00826772,-0.0826772 0.0153543,-0.165354 0.0200788,-0.246851 0.0614174,-0.955513 0.0814961,-1.9252 0.0330709,-2.88425 0.214961,-0.582284 0.457087,-1.20236 0.72756,-1.84488 0.140551,-0.314173 0.285827,-0.641339 0.446457,-0.970867l0.507874 0.0838583 -1.73504 5.863zm-0.344882 -5.97993c-0.0177165,-0.0814961 -0.0377953,-0.16063 -0.0614174,-0.239764l0.12874 0.022441c-0.0236221,0.0720473 -0.0448819,0.144095 -0.0673229,0.217323z"/>
    <path id="_357650128" class="fil22" d="M1527.88 1015.36c0,0 0.129921,-0.708662 0.405118,-1.91693 0.26811,-1.20473 0.551575,-2.95512 0.722835,-5.02205 0.0814961,-1.00866 0.0968505,-2.09055 0.0401575,-3.21378 -0.00236221,-0.0330709 -0.00472441,-0.0625985 -0.00472441,-0.0944883 -0.0968505,-1.15039 -0.252756,-2.35984 -0.654331,-3.49134 -0.392126,-1.12795 -0.959056,-2.2252 -1.81063,-3.04134 -0.832678,-0.83504 -1.90984,-1.41732 -3.09331,-1.75158 -0.752363,-0.190158 -1.76457,-0.341339 -2.66693,-0.341339 -0.370866,0 -0.722835,0.0259843 -1.02874,0.0838583 -1.14331,0.204331 -2.25709,0.617717 -3.13701,1.41614 -1.53071,1.2248 -2.56772,2.96103 -3.34843,4.58622 -0.16063,0.329528 -0.305906,0.656693 -0.446457,0.970867 -0.270473,0.64252 -0.51378,1.2626 -0.72756,1.84488 -0.0484252,-0.967324 -0.170079,-1.92402 -0.398032,-2.84882 0.0236221,-0.0744095 0.0437008,-0.145276 0.0661418,-0.216142 0.259843,-0.830316 0.602363,-1.69488 1.03347,-2.57244 0.608268,-1.12913 1.32165,-2.3504 2.45315,-3.33898 1.05118,-1.04055 2.54173,-1.81654 4.12441,-2.1l1.20354 -0.135827c0.138189,-0.00944883 0.256299,-0.0129921 0.361418,-0.0129921 0.308268,0 0.499607,0.0366142 0.794883,0.0389764 0.0188977,0 0.0330709,0 0.0484252,0 0.656693,0 1.50118,0.186614 2.28543,0.334252 1.54134,0.452363 3.01181,1.2815 4.12441,2.45315 1.16339,1.14685 1.75748,2.64803 2.16378,4.02638 0.418111,1.40669 0.441733,2.79213 0.424016,4.0689 -0.00590552,0.13937 -0.0106299,0.277559 -0.0188977,0.413386 -0.0602363,1.12205 -0.226772,2.16614 -0.440552,3.11811 -0.452363,2.1437 -1.16457,3.81024 -1.62874,4.96654 -0.520867,1.14331 -0.846851,1.77638 -0.846851,1.77638z"/>
    <path id="_357650368" class="fil22" d="M1507.2 1023.54c0,0 0.37441,-1.95354 0.934253,-4.88504 0.549213,-2.89961 1.31929,-6.74528 1.58977,-10.5508 0.0921261,-0.955513 0.112205,-1.89921 0.101575,-2.82047 -0.0578741,-0.912993 -0.0637796,-1.82244 -0.23504,-2.6563 -0.0377953,-0.237402 -0.0838583,-0.470079 -0.134646,-0.694489 -0.0248032,-0.115748 -0.0507874,-0.226772 -0.0814961,-0.336614l0.408662 -3.11103c0.849213,0.982678 1.50236,2.28898 1.84488,3.68504 0.0129921,0.0425197 0.0259843,0.0874016 0.0354331,0.129921 0.0236221,0.0791339 0.0437008,0.158268 0.0614174,0.239764 0.227953,0.923623 0.349607,1.8815 0.398032,2.84882 0.0484252,0.959056 0.0283465,1.92874 -0.0330709,2.88425 -0.00472441,0.080315 -0.0129921,0.165354 -0.0200788,0.246851 -0.341339,4.01693 -1.52126,7.79646 -2.63622,10.526 -0.477166,1.18347 -0.951969,2.16851 -1.34055,2.91378 -0.525591,1.01575 -0.892914,1.58032 -0.892914,1.58032z"/>
    <path id="_357650584" class="fil23" d="M1520.83 1013.23c-3.60709,0 -6.52914,-2.91851 -6.52914,-6.53032 0,-1.39606 0.43937,-2.68937 1.18701,-3.75237l11.6209 1.94291c0.165354,0.574016 0.253937,1.1811 0.253937,1.80945 0,3.61181 -2.92914,6.5315 -6.53268,6.53032z"/>
    <path id="_357650512" class="fil23" d="M1527.11 1004.89l-11.6209 -1.94291c1.18228,-1.67953 3.13347,-2.77559 5.34213,-2.77559 2.9752,-0.0011811 5.49095,1.99488 6.27874,4.71851z"/>
    <path id="_357650008" class="fil24" d="M1389.03 962.663c3.77481,-0.640158 7.54961,-1.2815 11.3291,-1.92166 -5.89016,-42.5575 -48.013,-325.14 -52.7351,-333.611 -1.13504,-4.41142 -16.5154,27.9095 -101.637,38.9693 -23.6835,24.2327 -38.9551,52.7611 -49.1717,89.8855 -12.0071,43.6335 10.3465,227.654 11.3669,237.717 66.6626,-9.09095 111.997,-19.3276 180.848,-31.0394z"/>
    <path id="_357650320" class="fil25" d="M1462.01 1137.89l-48.9036 -136.525 -0.0389764 -0.112205c-5.77796,-16.1351 -10.9736,-32.2051 -14.0469,-49.9512 -9.26339,2.43543 -19.5154,5.32441 -28.7858,7.74449 -36.8103,9.613 -73.754,18.6473 -110.624,28.0347 -20.5807,5.24292 -29.9221,9.45355 -50.837,13.1965 1.25315,14.3752 0.402756,13.2662 0.402756,13.2662l38.8689 58.6193c1.46929,3.94252 3.32362,7.93701 5.57953,11.9717l59.9374 141.54c34.7658,-24.2551 113.678,-63.5327 148.448,-87.7843z"/>
    <path id="_357650464" class="fil26" d="M1380.6 1185.81l0 0c0.831497,-0.468898 1.66654,-0.935434 2.5004,-1.40315 -1.27559,0.714567 -2.16378,1.21536 -2.5004,1.40315z"/>
    <path id="_357649960" class="fil27" d="M1412.48 1167.92c1.71024,-0.967324 3.40394,-1.92992 5.08583,-2.88898l2.59134 -1.47047 -1.88858 1.07126c-1.64646,0.94252 -3.30591,1.87914 -4.98426,2.83347l-0.804331 0.454725z"/>
    <path id="_357649672" class="fil16" d="M1461.28 1138.41l0 0c0.246851,-0.173622 0.49252,-0.34252 0.737008,-0.51378l0 0c-0.244488,0.17126 -0.490158,0.340158 -0.737008,0.51378z"/>
    <path id="_357649768" class="fil28" d="M1461.27 1138.41l0 0 0.00236221 0c0,0 -0.00354331,0 -0.00236221,0z"/>
    <path id="_357649408" class="fil27" d="M1420.16 1163.56l-0.00472441 -0.00826772c16.0299,-9.17481 30.5233,-17.824 41.1189,-25.1481l0.0011811 0c-10.5945,7.32402 -25.0937,15.9839 -41.1189,25.1504l0.00354331 0.00590552z"/>
    <path id="_357649912" class="fil29" d="M1322.25 960.526l-32.3835 -125.034 18.2374 -28.7965 41.2831 -65.1768c5.56063,-8.79804 8.21575,-18.6047 8.21575,-28.2957l0 -0.0011811c-0.00236221,-17.5713 -8.73072,-34.7587 -24.6827,-44.8489 -0.0933072,-0.0614174 -0.188977,-0.119291 -0.285827,-0.178347 -0.00944883,-0.00708662 -0.022441,-0.0153543 -0.0330709,-0.022441 -8.70946,-5.42363 -18.3886,-8.01379 -27.9591,-8.01615 -0.00236221,-0.0011811 -0.00708662,0 -0.00944883,0l0 -0.0011811c-0.00708662,0 -0.0153543,0.0011811 -0.0200788,0.0011811 -17.2217,0.00708662 -34.0725,8.39883 -44.2323,23.7496 -0.0354331,0.0543308 -0.068504,0.105118 -0.105118,0.158268 -0.0248032,0.0377953 -0.0484252,0.0767717 -0.0732284,0.115748 -0.00472441,0.00472441 -0.00826772,0.0129921 -0.0129921,0.0177165 -0.0425197,0.068504 -0.0885827,0.137008 -0.135827,0.206693 -0.090945,0.145276 -0.183071,0.288189 -0.275197,0.433465l-5.8004 12.0898 -7.98662 -30.828c79.7445,-10.3618 98.2808,-39.3792 101.237,-39.3792 0.199606,0 0.329528,0.132284 0.400394,0.409843 4.21654,7.56733 38.3103,234.055 49.7115,312.493l-75.0898 20.9032zm76.7764 -9.22324c0,0 0,0 0,0l0 0zm-0.0590552 -0.418111l-1.57205 -10.878c0.587008,4.04528 1.11614,7.6878 1.57205,10.878z"/>
    <path id="_357649360" class="fil9" d="M1208.78 1000.28c-0.261024,-1.89803 -0.431103,-4.06418 -0.536221,-5.65985 0.105118,1.59685 0.277559,3.7689 0.536221,5.65985l0 0z"/>
    <path id="_357649288" class="fil30" d="M1208.78 1000.28c-0.257481,-1.89095 -0.431103,-4.06181 -0.536221,-5.65985 -0.0236221,-0.334252 -0.0413386,-0.641339 -0.056693,-0.916536l0.592914 6.57638z"/>
    <path id="_357649864" class="fil0" d="M1009.33 756.166c-3.27402,4.17756 -9.31772,4.91221 -13.4988,1.63583l-31.7197 -25.5579c-4.17874,-3.27402 -4.91457,-9.31536 -1.63701,-13.4929 3.27284,-4.18111 9.313,-4.91339 13.4988,-1.64055l24.9295 19.5331c4.17756,3.2752 11.6988,15.3425 8.42717,19.5225z"/>
    <path id="_357649480" class="fil0" d="M978.004 808.809c-3.36378,4.28977 -9.56103,5.04095 -13.8532,1.68189l-32.3693 -26.0669c-4.2874,-3.35906 -5.04095,-9.56339 -1.68189,-13.8484 3.35906,-4.28977 9.56103,-5.04095 13.8508,-1.68189l32.3693 26.0646c4.28977,3.36378 5.04331,9.56103 1.68425,13.8508z"/>
    <path id="_357649744" class="fil0" d="M997.013 771.89c-3.53032,4.50118 -10.0453,5.29252 -14.55,1.76575l-33.6579 -27.0792c-4.51063,-3.52914 -5.29607,-10.0394 -1.76693,-14.5417 3.53032,-4.50709 10.0406,-5.30079 14.5476,-1.77047l33.6579 27.078c4.50709,3.52677 5.29607,10.0429 1.76929,14.5476z"/>
    <path id="_357649624" class="fil0" d="M985.785 789.422c-3.52677,4.50473 -10.0406,5.2937 -14.5453,1.76693l-33.6591 -27.0756c-4.50473,-3.53032 -5.29725,-10.0429 -1.76693,-14.5453 3.52914,-4.50945 10.0429,-5.29843 14.5476,-1.76929l33.6603 27.0732c4.50473,3.53268 5.29607,10.0488 1.76339,14.55z"/>
    <path id="_357649264" class="fil0" d="M996.362 733.09c0,0 21.8788,3.91654 26.7874,6.31063 22.4858,19.813 28.5201,59.3587 14.9469,76.6749 -20.3221,25.937 -49.7433,13.7102 -67.0619,0.140551l-10.748 -8.69883 36.0756 -74.4272z"/>
    <path id="_357649072" class="fil20" d="M942.771 768.289c0,0 0.526772,0.32126 1.40906,0.925985 0.850394,0.650788 2.2004,1.3937 3.69331,2.42953 0.745276,0.512599 1.55433,1.0689 2.40945,1.65945 0.829134,0.614174 1.76339,1.19173 2.71063,1.82008 1.9063,1.22599 3.88701,2.61024 5.87008,3.98622 1.92166,1.46693 3.96024,2.75906 5.84646,4.02166 1.8815,1.26378 3.61418,2.48858 5.07638,3.5752 2.92441,2.18268 4.80473,3.78307 4.80473,3.78307 0.0011811,0 -2.24764,-0.960237 -5.51457,-2.61851 -1.62992,-0.832678 -3.51142,-1.84843 -5.49922,-2.98347 -2.00906,-1.10315 -4.08662,-2.38347 -6.06142,-3.82559 -1.97835,-1.43504 -3.95906,-2.86181 -5.76615,-4.26733 -1.84488,-1.34528 -3.39213,-2.87126 -4.74213,-4.1067 -2.70473,-2.48858 -4.23662,-4.39961 -4.23662,-4.39961z"/>
    <path id="_357648784" class="fil20" d="M949.575 746.97c0,0 2.17205,0.973229 5.25237,2.69292 1.54961,0.842127 3.30236,1.91929 5.24174,2.95276 1.9311,1.05354 3.93544,2.25118 5.94449,3.44292 3.98977,2.43189 7.87914,5.02559 10.7221,7.10552 2.85355,2.06457 4.65709,3.62953 4.65709,3.62953 0,-0.0011811 -2.20276,-0.872835 -5.3563,-2.45788 -3.16299,-1.56969 -7.28386,-3.84685 -11.3067,-6.28465 -1.99488,-1.24016 -3.99449,-2.47677 -5.81811,-3.70512 -1.85788,-1.18465 -3.46654,-2.46496 -4.84725,-3.55985 -2.76378,-2.1874 -4.48937,-3.81496 -4.48937,-3.81614z"/>
    <path id="_357648832" class="fil20" d="M962.602 730.858c0,0 2.17205,0.975591 5.25237,2.69528 1.55197,0.842127 3.30591,1.91929 5.24528,2.95276 1.92638,1.05473 3.93189,2.25118 5.94331,3.44292 3.98622,2.43189 7.87678,5.02559 10.7197,7.10788 2.85473,2.06457 4.65709,3.62717 4.65709,3.62717 0,0 -2.19921,-0.870473 -5.35512,-2.45906 -3.16418,-1.56851 -7.28504,-3.84567 -11.3079,-6.28229 -1.99252,-1.2437 -3.99213,-2.47795 -5.8193,-3.7063 -1.85788,-1.18465 -3.46299,-2.46496 -4.8437,-3.56221 -2.76378,-2.18504 -4.49174,-3.81614 -4.49174,-3.81614z"/>
    <path id="_357648616" class="fil20" d="M996.362 733.09c0,0 1.56851,0.673229 3.75591,1.87795 2.2004,1.18937 5.01733,2.92796 7.80001,4.6937 1.37008,0.908268 2.74252,1.82008 4.02638,2.67166 1.27677,0.864568 2.47087,1.6689 3.49134,2.36103 1.0063,0.753544 1.90158,1.19173 2.51457,1.62047 0.620079,0.415748 0.97441,0.656693 0.97441,0.656693 0.0011811,-0.0011811 -0.411024,-0.0625985 -1.1374,-0.212599 -0.707481,-0.179528 -1.82008,-0.336614 -2.96575,-0.850394 -1.16929,-0.472441 -2.57835,-1.00512 -3.94134,-1.7752 -1.39606,-0.728741 -2.85,-1.57205 -4.25079,-2.4815 -2.81575,-1.81181 -5.43189,-3.89174 -7.29686,-5.57835 -1.87559,-1.6748 -2.97166,-2.98347 -2.97047,-2.98347z"/>
    <path id="_357648760" class="fil0" d="M1246.4 904.104c-15.6496,24.7429 -48.3969,32.1213 -73.1434,16.4646 -24.7418,-15.6425 -8.8193,-44.9138 6.83032,-69.6674l79.6867 -166.063c15.652,-24.7406 48.3933,-32.1154 73.141,-16.4646 24.7465,15.6532 32.1107,48.3981 16.4669,73.1457l-102.982 162.585z"/>
    <path id="_357648904" class="fil31" d="M1308.37 808.064l42.0544 -66.3934c15.9378,-25.2106 8.43308,-58.5662 -16.774,-74.5111 -25.2106,-15.9449 -58.5638,-8.43072 -74.5087,16.7717l-30.3697 63.2918c25.1032,25.102 54.4961,35.7378 79.5981,60.841z"/>
    <path id="_357648712" class="fil0" d="M1021.01 833.708c-31.3453,-23.2229 -16.4563,-20.1154 -7.80709,-40.1268 8.64922,-20.002 8.71064,-29.9221 28.7197,-21.2729l179.12 68.6469c26.8725,11.6209 41.0918,28.4599 29.4721,55.3335 -11.6173,26.8701 -35.9315,40.7516 -69.6993,27.6236 -41.8477,-16.2732 -159.806,-90.2044 -159.806,-90.2044z"/>
    <path id="_357648880" class="fil26" d="M1201.27 928.772c-9.22678,-0.0472441 -18.5398,-2.50512 -26.9847,-7.58623 2.34095,1.02992 4.52244,1.9441 6.5315,2.72599 7.26851,2.82402 14.0929,4.39961 20.4532,4.86024z"/>
    <path id="_357648472" class="fil32" d="M1247.83 901.855c0.00472441,-0.00944883 0.00944883,-0.0200788 0.0141732,-0.0307087l42.0201 -66.3355 0 0.00354331 -42.0343 66.3626z"/>
    <path id="_357648640" class="fil33" d="M1289.86 835.492l0 -0.00354331 18.2374 -28.7929c0,0 0,0 0,0l41.2831 -65.1768c5.56063,-8.79804 8.21575,-18.6047 8.21575,-28.2957 0,9.69095 -2.65512,19.4977 -8.21575,28.2957l-41.2831 65.1768 -18.2374 28.7965z"/>
    <path id="_357647704" class="fil16" d="M1062.25 858.989c-2.9941,-1.80354 -5.89134,-3.55748 -8.65985,-5.23701 0.00236221,0 0.00236221,0 0.00236221,0 2.77205,1.68425 5.65748,3.42992 8.65631,5.23701l0.0011811 0zm-27.5126 -5.12126l0 0c-0.418111,-0.154725 -0.832678,-0.311811 -1.24606,-0.478347 0.412205,0.166536 0.826772,0.324803 1.24606,0.478347l0 0zm-1.24843 -0.480709c-0.0177165,-0.00472441 -0.0354331,-0.011811 -0.0531496,-0.0200788 0.0177165,0.00708662 0.0354331,0.0129921 0.0531496,0.0212599l0 -0.0011811zm-0.068504 -0.0283465c-0.0153543,-0.00472441 -0.0283465,-0.00944883 -0.0437008,-0.0141732 0.0153543,0.00472441 0.0283465,0.00944883 0.0437008,0.0153543l0 -0.0011811zm-0.068504 -0.0248032c-0.0106299,-0.00590552 -0.0212599,-0.00708662 -0.0307087,-0.0129921 0.00944883,0.00236221 0.0200788,0.00708662 0.0295276,0.0129921l0.0011811 0zm-0.0637796 -0.0259843c-0.00826772,-0.00472441 -0.0153543,-0.00708662 -0.0236221,-0.00944883 0.00826772,0.0011811 0.0153543,0.00472441 0.022441,0.00944883l0.0011811 0zm-0.0696851 -0.0307087c-0.00236221,0 -0.00236221,0 -0.00472441,0 0.00236221,0 0.00236221,0 0.00472441,0l0 0zm-58.7835 -34.5284c-1.17874,-0.831497 -2.31496,-1.68071 -3.40394,-2.53347l-10.748 -8.69883 10.748 8.69883c1.08898,0.851575 2.2252,1.70197 3.40394,2.53347z"/>
    <path id="_357648184" class="fil34" d="M974.592 790.49c0,0 -1.98071,-0.844489 -4.92638,-2.31969 -0.191339,-0.0980316 -0.387402,-0.197244 -0.589371,-0.298819 -1.62992,-0.832678 -3.51142,-1.84843 -5.49922,-2.98347 -0.18189,-0.102756 -0.368504,-0.204331 -0.551575,-0.305906 -1.83543,-1.03228 -3.71339,-2.20866 -5.50985,-3.51969 -1.97835,-1.43504 -3.95906,-2.86181 -5.76615,-4.26733 -1.84488,-1.34528 -3.39213,-2.87126 -4.74213,-4.1067 -2.64567,-2.4378 -4.16929,-4.31811 -4.23307,-4.39725 -0.00354331,-0.00236221 -0.00354331,-0.00236221 -0.00354331,-0.00236221 0,0 0.526772,0.32126 1.40906,0.925985 0.850394,0.650788 2.2004,1.3937 3.69331,2.42953 0.745276,0.512599 1.55433,1.0689 2.40945,1.65945 0.829134,0.614174 1.76339,1.19173 2.71063,1.82008 1.9063,1.22599 3.88701,2.61024 5.87008,3.98622 1.92166,1.46693 3.96024,2.75906 5.84646,4.02166 1.8815,1.26378 3.61418,2.48858 5.07638,3.5752 0.147638,0.109843 0.290551,0.217323 0.431103,0.322441 2.67756,2.01496 4.37363,3.46063 4.37481,3.46063z"/>
    <path id="_357648280" class="fil35" d="M987.597 751.168l-18.952 -15.2705c0.00236221,0.00236221 0.00472441,0.00472441 0.0106299,0.00708662l18.7453 15.1028 0.196063 0.16063zm-22.8106 -18.3791l-0.673229 -0.544489 0.673229 0.544489c0,0 0,0 0,0z"/>
    <path id="_357648064" class="fil36" d="M987.401 751.007l-18.7453 -15.1028c0.629528,0.486615 1.30158,0.989765 2.0126,1.48583l16.7327 13.6169zm-22.6146 -18.2185l-0.673229 -0.544489c-0.344882,-0.270473 -0.661418,-0.565748 -0.955513,-0.87756 0.373229,0.336614 0.923623,0.82441 1.62874,1.42205z"/>
    <path id="_357647848" class="fil37" d="M970.668 737.389c-0.711024,-0.494882 -1.38307,-0.996851 -2.0126,-1.48465 -0.00590552,-0.00236221 -0.00826772,-0.00472441 -0.0106299,-0.00708662l-3.85866 -3.10866c0,0 0,0 0,0 -0.705119,-0.597638 -1.25551,-1.08425 -1.62874,-1.42205 -0.103937,-0.109843 -0.206693,-0.222047 -0.305906,-0.334252l-0.250394 -0.173622 0.188977 0.116929 7.87796 6.41339z"/>
    <path id="_357648016" class="fil5" d="M1209.29 1006.97c-0.479528,-3.50433 -1.17402,-14.6634 -1.17402,-14.6634l189.225 -52.6819 3.02481 21.1193c0,0 -127.82,34.2437 -191.075,46.226z"/>
   </g>
   <g>
    <rect id="_357648304" class="fil3 str0" transform="matrix(1.07301 0.0728027 -0.0728027 1.07301 352.119 1520.23)" width="1344" height="64.0004" rx="34.4162" ry="34.4162"/>
    <path id="_357647752" class="fil5" d="M424.314 1604.69l177.74 12.1701c24.0378,1.64528 33.0544,2.61614 33.0544,27.8209 0,18.1772 -14.876,33.0532 -33.0544,33.0532l-312.998 0c-18.1795,0 -33.0544,-14.8736 -33.0544,-33.0532l0 -18.3366c0,-36.6591 32.4166,-72.456 63.5918,-72.456 44.4,0 88.8107,32.1402 104.721,50.8016z"/>
    <rect id="_357680032" class="fil5" transform="matrix(1.54459 0.446182 -0.446182 1.54459 576.577 798.383)" width="32.0008" height="512.001"/>
    <path id="_357679984" class="fil3" d="M475.517 668.858l0 105.917c212.626,200.473 126.574,192.305 414.599,192.305l0.00236221 -69.065 -189.103 -71.3256 -225.499 -157.831z"/>
    <rect id="_357679744" class="fil5" x="840.074" y="918.226" width="230.781" height="31.3765" rx="15.6886" ry="15.6886"/>
   </g>
  </g>
  <rect class="fil38" width="2048" height="2048"/>
 </g>
</svg>
