<?xml version="1.0" encoding="UTF-8"?>
<!DOCTYPE svg PUBLIC "-//W3C//DTD SVG 1.1//EN" "http://www.w3.org/Graphics/SVG/1.1/DTD/svg11.dtd">
<!-- Creator: CorelDRAW -->
<svg xmlns="http://www.w3.org/2000/svg" xml:space="preserve" width="2048px" height="2048px" style="shape-rendering:geometricPrecision; text-rendering:geometricPrecision; image-rendering:optimizeQuality; fill-rule:evenodd; clip-rule:evenodd"
viewBox="0 0 2048 2048"
 xmlns:xlink="http://www.w3.org/1999/xlink">
 <defs>
  <style type="text/css">
   <![CDATA[
    .fil13 {fill:none}
    .fil9 {fill:#0288D1}
    .fil7 {fill:#40C4FF}
    .fil11 {fill:#4E342E}
    .fil12 {fill:#5A3D35}
    .fil3 {fill:#C99D5C}
    .fil5 {fill:#E9BB77}
    .fil6 {fill:#FF5252}
    .fil8 {fill:black;fill-rule:nonzero}
    .fil0 {fill:#00B0FF;fill-rule:nonzero}
    .fil4 {fill:#0288D1;fill-rule:nonzero}
    .fil1 {fill:#40C4FF;fill-rule:nonzero}
    .fil2 {fill:#78909C;fill-rule:nonzero}
    .fil10 {fill:#C99D5C;fill-rule:nonzero}
   ]]>
  </style>
 </defs>
 <g id="Layer_x0020_1">
  <metadata id="CorelCorpID_0Corel-Layer"/>
  <path class="fil0" d="M511.243 1446.06l0.00590552 -0.0177165c0.153543,-0.462992 0.317717,-0.921261 0.491339,-1.37599l0.056693 -0.153543 0.0212599 -0.0543308 0.0413386 -0.102756c1.51299,-3.85394 3.7063,-7.2626 6.39567,-10.1327l0.174803 -0.185433 0.269292 -0.279921 0.324803 -0.328347 0.194882 -0.19252 0.398032 -0.383859 0.0944883 -0.0874016c3.00118,-2.82047 6.59174,-5.10119 10.6665,-6.62363l0.415748 -0.153543 0.0791339 -0.0283465 0.694489 -0.238583 0.0212599 -0.00708662 0.0578741 -0.0177165c0.497244,-0.162992 0.998032,-0.315355 1.50354,-0.453544l0.034252 -0.00944883 0.739371 -0.19252 0.0625985 -0.0153543 0.740552 -0.172441 0.0295276 -0.00708662c0.48189,-0.106299 0.967324,-0.199606 1.45512,-0.283465l0.210236 -0.0354331 0.651969 -0.100394 0.0637796 -0.00944883 0.703938 -0.090945 0.106299 -0.0129921 0.62126 -0.0649607 0.199606 -0.0188977 0.627166 -0.0484252 0.131102 -0.00944883 0.568111 -0.0307087 0.290551 -0.0129921 0.431103 -0.011811 0.346063 -0.00708662 0.412205 -0.00236221 0.411024 0.00236221 0.346063 0.00708662 0.431103 0.011811 0.290551 0.0129921 0.568111 0.0307087 0.131102 0.00944883 0.627166 0.0484252 0.199606 0.0188977 0.62126 0.0649607 0.106299 0.0129921c0.23504,0.0283465 0.468898,0.056693 0.703938,0.090945l0.0637796 0.00944883 0.651969 0.100394 0.210236 0.0354331c0.487796,0.0838583 0.973229,0.177165 1.45512,0.283465l0.0295276 0.00708662 0.740552 0.172441 0.0625985 0.0153543 0.719292 0.187795 0.0673229 0.0177165 0.755906 0.218504 0.00826772 0.00236221 0.726379 0.229134 0.0578741 0.0177165 0.0212599 0.00708662 0.694489 0.238583 0.0791339 0.0283465 0.415748 0.153543c4.07599,1.52362 7.66654,3.80315 10.6665,6.62363l0.0944883 0.0874016 0.398032 0.383859 0.188977 0.186614 0.370866 0.376772 0.179528 0.185433 0.26811 0.285827 0.37441 0.407481 0.0448819 0.0507874c2.17559,2.42362 4.00394,5.21339 5.38347,8.31379l0.303544 0.703938 0.209055 0.518504 0.0779528 0.19252 0.0212599 0.0543308 0.0437008 0.116929c0.188977,0.49252 0.366142,0.989765 0.530315,1.49173 8.71182,26.2925 26.1414,48.4559 48.8044,64.0831 23.041,15.8894 51.5811,25.0559 82.0654,25.0559 30.502,0 59.0611,-9.1819 82.115,-25.0937 22.6819,-15.652 40.1197,-37.8662 48.8115,-64.2237l0.00708662 -0.0212599 0.238583 -0.694489 0.0283465 -0.0791339 0.153543 -0.415748c1.52362,-4.07599 3.80315,-7.66654 6.62363,-10.6665l0.0874016 -0.0944883 0.383859 -0.398032 0.186614 -0.188977 0.376772 -0.370866 0.185433 -0.179528 0.285827 -0.26811 0.407481 -0.37441 0.0507874 -0.0448819c2.42362,-2.17677 5.21339,-4.00512 8.31379,-5.38347l0.703938 -0.303544 0.518504 -0.209055 0.19252 -0.0779528 0.0543308 -0.0212599 0.116929 -0.0437008c1.48228,-0.569292 3.00945,-1.02638 4.56851,-1.37008l0.0318898 -0.00708662c0.243307,-0.0531496 0.486615,-0.105118 0.731103,-0.152362l0.0779528 -0.0153543 0.73819 -0.132284 0.0307087 -0.00590552 0.694489 -0.10748 0.148819 -0.0212599 0.650788 -0.0838583 0.116929 -0.0141732 0.62126 -0.0649607 0.206693 -0.0188977 0.507874 -0.0413386 0.317717 -0.0212599 0.418111 -0.022441 0.379134 -0.0177165 0.418111 -0.011811 0.346063 -0.00708662 0.412205 -0.00236221 0.411024 0.00236221 0.346063 0.00708662 0.418111 0.011811 0.379134 0.0177165 0.418111 0.022441 0.317717 0.0212599 0.507874 0.0413386 0.206693 0.0188977 0.62126 0.0649607 0.116929 0.0141732 0.647245 0.0826772 0.159449 0.0236221 0.679134 0.105118 0.0484252 0.00826772c0.242126,0.0413386 0.486615,0.0838583 0.728741,0.131102l0.0779528 0.0153543c0.244488,0.0472441 0.487796,0.0992127 0.731103,0.152362l0.0318898 0.00708662c1.55197,0.34252 3.07205,0.798426 4.54961,1.36299l0.135827 0.0507874 0.0543308 0.0212599 0.19252 0.0779528 0.518504 0.209055 0.703938 0.303544c3.10276,1.37835 5.89134,3.20906 8.31615,5.38465l0.046063 0.0425197 0.446457 0.409843 0.198425 0.186614 0.276378 0.266929 0.329528 0.324803 0.204331 0.206693 0.330709 0.34252 0.178347 0.190158 0.409843 0.446457 0.0425197 0.046063c2.46024,2.73898 4.47402,5.94567 5.89725,9.53859l0.0779528 0.19252 0.0212599 0.0543308 0.0779528 0.209055 0.20315 0.550394 0.011811 0.0318898 0.271654 0.790158c8.69528,26.3433 26.1272,48.5457 48.7996,64.1906 23.0551,15.9106 51.6142,25.0925 82.1209,25.0925 30.4855,0 59.0245,-9.1689 82.0654,-25.0571 22.6701,-15.6319 40.1032,-37.8024 48.8067,-64.1056 0.155906,-0.473622 0.323622,-0.943702 0.500788,-1.40906l0.0649607 -0.175984 0.0212599 -0.0543308 0.0779528 -0.19252c1.42205,-3.5941 3.43937,-6.79725 5.89607,-9.53623l0.0448819 -0.0507874 0.37441 -0.407481 0.256299 -0.272835 0.227953 -0.236221 0.304725 -0.309449 0.237402 -0.233858 0.379134 -0.366142 0.0944883 -0.0874016c3,-2.82166 6.59174,-5.1 10.6665,-6.62363l0.415748 -0.153543 0.0791339 -0.0283465 0.694489 -0.238583 0.0212599 -0.00708662 0.0578741 -0.0177165 0.726379 -0.229134 0.00826772 -0.00236221 0.755906 -0.218504 0.0673229 -0.0177165 0.719292 -0.187795 0.0625985 -0.0153543 0.740552 -0.172441 0.0295276 -0.00708662c0.48189,-0.106299 0.967324,-0.199606 1.45512,-0.283465l0.210236 -0.0354331 0.651969 -0.100394 0.0637796 -0.00944883 0.703938 -0.090945 0.106299 -0.0129921 0.62126 -0.0649607 0.199606 -0.0188977 0.627166 -0.0484252 0.131102 -0.00944883 0.568111 -0.0307087 0.290551 -0.0129921 0.431103 -0.011811 0.346063 -0.00708662 0.412205 -0.00236221 0.411024 0.00236221 0.346063 0.00708662 0.431103 0.011811 0.290551 0.0129921 0.568111 0.0307087 0.131102 0.00944883 0.627166 0.0484252 0.199606 0.0188977 0.62126 0.0649607 0.106299 0.0129921 0.708662 0.0921261 0.0507874 0.00708662 0.669686 0.102756 0.194882 0.0330709c0.490158,0.0838583 0.976772,0.178347 1.46102,0.284646l0.0295276 0.00708662 0.740552 0.172441 0.0625985 0.0153543 0.739371 0.19252 0.0354331 0.00944883c0.509056,0.13937 1.01575,0.291733 1.51654,0.457087l0.0437008 0.0141732 0.0177165 0.00590552c0.413386,0.137008 0.82441,0.282284 1.23071,0.435827 4.04174,1.51654 7.60631,3.77599 10.5886,6.57048l0.185433 0.174803 0.292914 0.282284 0.282284 0.27874 0.27874 0.282284 0.282284 0.292914 0.174803 0.185433c2.79449,2.98229 5.05276,6.54804 6.57048,10.5886 0.153543,0.4063 0.3,0.817323 0.435827,1.23071l0.00590552 0.0177165c8.70237,26.3185 26.1437,48.5044 48.8244,64.1434 23.0421,15.8906 51.5811,25.0571 82.0666,25.0571 30.5044,0 59.0646,-9.1819 82.1197,-25.0925 22.6807,-15.652 40.1185,-37.8662 48.8103,-64.2249l0.00708662 -0.0212599 0.238583 -0.694489 0.0271654 -0.0779528 0.212599 -0.570473 0.068504 -0.183071 0.0212599 -0.0543308 0.0413386 -0.102756c1.52008,-3.87284 3.72874,-7.29331 6.43465,-10.1728l0.0874016 -0.0944883 0.366142 -0.379134 0.233858 -0.237402 0.292914 -0.288189 0.290551 -0.279921 0.198425 -0.186614 0.446457 -0.409843 0.0484252 -0.0437008c2.42362,-2.17441 5.21339,-4.00394 8.31379,-5.38347l0.703938 -0.303544 0.518504 -0.209055 0.19252 -0.0779528 0.0543308 -0.0212599 0.135827 -0.0507874c1.47638,-0.565748 2.99764,-1.02047 4.54961,-1.36299l0.0318898 -0.00708662c0.243307,-0.0531496 0.486615,-0.105118 0.731103,-0.152362l0.0779528 -0.0153543c0.242126,-0.046063 0.485433,-0.090945 0.728741,-0.131102l0.0484252 -0.00826772 0.679134 -0.105118 0.159449 -0.0236221 0.647245 -0.0826772 0.116929 -0.0141732 0.62126 -0.0649607 0.206693 -0.0188977 0.507874 -0.0413386 0.317717 -0.0212599 0.418111 -0.022441 0.379134 -0.0177165 0.418111 -0.011811 0.346063 -0.00708662 0.412205 -0.00236221 0.411024 0.00236221 0.346063 0.00708662 0.418111 0.011811 0.379134 0.0177165 0.418111 0.022441 0.317717 0.0212599 0.507874 0.0413386 0.206693 0.0188977 0.62126 0.0649607 0.116929 0.0141732 0.647245 0.0826772 0.159449 0.0236221 0.679134 0.105118 0.0484252 0.00826772c0.242126,0.0413386 0.486615,0.0838583 0.728741,0.131102l0.0779528 0.0153543c0.244488,0.0472441 0.487796,0.0992127 0.731103,0.152362l0.0318898 0.00708662c1.55197,0.34252 3.07205,0.798426 4.54961,1.36299l0.135827 0.0507874 0.0543308 0.0212599 0.19252 0.0779528 0.518504 0.209055 0.703938 0.303544c3.10276,1.37835 5.89134,3.20906 8.31615,5.38465l0.046063 0.0425197 0.446457 0.409843 0.198425 0.186614 0.276378 0.266929 0.329528 0.324803 0.204331 0.206693 0.330709 0.34252 0.178347 0.190158 0.409843 0.446457 0.0425197 0.046063c2.46024,2.7378 4.47402,5.94449 5.89725,9.53859l0.0779528 0.19252 0.0212599 0.0543308 0.0779528 0.209055 0.20315 0.550394 0.011811 0.0318898 0.271654 0.788977c8.69646,26.3421 26.1284,48.5457 48.7996,64.1906 23.054,15.9118 51.613,25.0937 82.115,25.0937 13.0713,0 25.8449,-1.65473 37.9654,-4.86969 12.3272,-3.27047 24.0567,-8.06221 34.8248,-14.2784 15.2339,-8.75434 34.6807,-3.50197 43.4351,11.7319 8.75434,15.2339 3.50197,34.6819 -11.7319,43.4363 -15.8646,9.15827 -32.8028,16.128 -50.3032,20.7697 -17.7165,4.69961 -35.9516,7.11733 -54.1902,7.11733 -43.539,0 -84.7052,-13.3843 -118.311,-36.5776 -16.3063,-11.2536 -30.8138,-24.8079 -42.9449,-40.2579 -12.1311,15.4512 -26.6386,29.0044 -42.9461,40.2591 -33.6083,23.1921 -74.7745,36.5764 -118.316,36.5764 -43.5118,0 -84.6591,-13.3689 -118.263,-36.541 -16.3087,-11.2453 -30.8209,-24.7937 -42.9579,-40.2437 -12.1358,15.45 -26.6469,28.9984 -42.9544,40.2437 -33.6024,23.1709 -74.7508,36.541 -118.263,36.541 -43.5437,0 -84.7099,-13.3843 -118.318,-36.5764 -16.3063,-11.2547 -30.8138,-24.8079 -42.9449,-40.2591 -12.1311,15.45 -26.6386,29.0044 -42.9449,40.2579 -33.6071,23.1933 -74.7721,36.5776 -118.312,36.5776 -43.513,0 -84.6615,-13.3689 -118.262,-36.5398 -16.3099,-11.2465 -30.8221,-24.7949 -42.9603,-40.2461 -12.137,15.45 -26.6492,28.9996 -42.9579,40.2449 -33.6048,23.1709 -74.752,36.541 -118.263,36.541 -18.7228,0 -37.552,-2.60197 -55.9205,-7.64528 -18.261,-5.01378 -35.6835,-12.4122 -51.6933,-22.0347 -15.0969,-9.02953 -20.0138,-28.5898 -10.9854,-43.6855 9.02953,-15.0957 28.5898,-20.0138 43.6866,-10.9843 11.2063,6.73465 23.2429,11.8713 35.7177,15.2953 12.365,3.39567 25.5591,5.14725 39.1949,5.14725 30.4831,0 59.0245,-9.16772 82.0666,-25.0571 22.6795,-15.639 40.1209,-37.8248 48.8233,-64.1434z"/>
  <path class="fil1" d="M511.243 1637.78l0.00708662 -0.0212599 0.238583 -0.694489 0.0271654 -0.0779528 0.212599 -0.570473 0.068504 -0.183071 0.0212599 -0.0543308 0.0413386 -0.102756c1.52008,-3.87284 3.72874,-7.29449 6.43465,-10.1728l0.0874016 -0.0944883 0.350788 -0.36378 0.284646 -0.287008 0.21378 -0.211417 0.34252 -0.330709 0.190158 -0.178347 0.446457 -0.409843 0.0484252 -0.0437008c2.7378,-2.45788 5.94331,-4.47402 9.53623,-5.89607l0.19252 -0.0779528 0.0543308 -0.0212599 0.209055 -0.0779528 0.550394 -0.20315 0.0318898 -0.011811c0.761812,-0.272835 1.53425,-0.516142 2.31732,-0.731103l0.034252 -0.00944883 0.739371 -0.19252 0.0625985 -0.0153543 0.740552 -0.172441 0.0295276 -0.00708662c0.48189,-0.106299 0.967324,-0.199606 1.45512,-0.283465l0.210236 -0.0354331 0.651969 -0.100394 0.0637796 -0.00944883 0.703938 -0.090945 0.106299 -0.0129921 0.62126 -0.0649607 0.199606 -0.0188977 0.627166 -0.0484252 0.131102 -0.00944883 0.630709 -0.034252 0.170079 -0.00708662 0.572835 -0.0165354 0.248032 -0.00472441 0.426378 -0.00236221 0.425197 0.00236221 0.248032 0.00472441 0.572835 0.0165354 0.170079 0.00708662 0.630709 0.034252 0.131102 0.00944883 0.627166 0.0484252 0.199606 0.0188977 0.62126 0.0649607 0.106299 0.0129921 0.703938 0.090945 0.0637796 0.00944883 0.651969 0.100394 0.210236 0.0354331c0.487796,0.0838583 0.973229,0.177165 1.45512,0.283465l0.0295276 0.00708662 0.740552 0.172441 0.0625985 0.0153543 0.719292 0.187795 0.0673229 0.0177165 0.755906 0.218504 0.00826772 0.00236221c0.517323,0.155906 1.0311,0.324803 1.54016,0.506693l0.0318898 0.011811 0.550394 0.20315 0.209055 0.0779528 0.0543308 0.0212599 0.19252 0.0779528c3.5941,1.42323 6.79961,3.43937 9.53859,5.89725l0.046063 0.0425197 0.446457 0.409843 0.190158 0.178347 0.34252 0.330709 0.206693 0.204331 0.324803 0.329528 0.266929 0.276378 0.186614 0.198425 0.409843 0.446457 0.0425197 0.046063c2.17677,2.42481 4.0063,5.21457 5.38465,8.31615l0.303544 0.703938 0.209055 0.518504 0.0779528 0.19252 0.0212599 0.0543308 0.0507874 0.135827c0.185433,0.484252 0.359055,0.972048 0.519685,1.46457 8.71064,26.2961 26.1425,48.4642 48.8079,64.0926 23.041,15.8882 51.5811,25.0559 82.0654,25.0559 30.5032,0 59.0611,-9.18426 82.115,-25.0925 22.6819,-15.652 40.1197,-37.8662 48.8115,-64.2237l0.00590552 -0.0177165c0.137008,-0.413386 0.282284,-0.823229 0.435827,-1.23071 1.51654,-4.04174 3.77599,-7.60631 6.57048,-10.5886l0.174803 -0.185433 0.282284 -0.292914 0.27874 -0.282284 0.282284 -0.27874 0.292914 -0.282284 0.185433 -0.174803c2.98229,-2.79449 6.54686,-5.05394 10.5886,-6.57048 0.4063,-0.153543 0.817323,-0.3 1.23071,-0.435827l0.0177165 -0.00590552 0.0437008 -0.0141732c0.500788,-0.165354 1.00866,-0.317717 1.51772,-0.457087l0.034252 -0.00944883 0.739371 -0.19252 0.0625985 -0.0153543 0.740552 -0.172441 0.0295276 -0.00708662c0.484252,-0.106299 0.970867,-0.200788 1.46102,-0.284646l0.194882 -0.0330709 0.669686 -0.102756 0.0507874 -0.00708662 0.708662 -0.0921261 0.106299 -0.0129921 0.62126 -0.0649607 0.199606 -0.0188977 0.627166 -0.0484252 0.131102 -0.00944883 0.568111 -0.0307087 0.290551 -0.0129921 0.431103 -0.011811 0.346063 -0.00708662 0.412205 -0.00236221 0.411024 0.00236221 0.346063 0.00708662 0.431103 0.011811 0.290551 0.0129921 0.568111 0.0307087 0.131102 0.00944883 0.627166 0.0484252 0.199606 0.0188977 0.62126 0.0649607 0.106299 0.0129921 0.703938 0.090945 0.0637796 0.00944883 0.651969 0.100394 0.210236 0.0354331c0.487796,0.0838583 0.973229,0.178347 1.45512,0.283465l0.0295276 0.00708662 0.740552 0.172441 0.0625985 0.0153543 0.719292 0.187795 0.0673229 0.0177165 0.755906 0.218504 0.00826772 0.00236221 0.726379 0.229134 0.0578741 0.0177165 0.0212599 0.00708662 0.694489 0.238583 0.0791339 0.0283465 0.415748 0.153543c4.07599,1.52362 7.66654,3.80315 10.6665,6.62363l0.0944883 0.0874016 0.379134 0.366142 0.237402 0.233858 0.304725 0.309449 0.227953 0.236221 0.256299 0.272835 0.37441 0.407481 0.0448819 0.0507874c2.45788,2.73662 4.47166,5.94213 5.89607,9.53623l0.0779528 0.19252 0.0212599 0.0543308 0.0649607 0.175984c0.178347,0.466536 0.346063,0.937796 0.501969,1.4126 8.69646,26.3398 26.1248,48.5386 48.7973,64.1823 23.0551,15.9095 51.6142,25.0925 82.1209,25.0925 30.4855,0 59.0245,-9.17009 82.0654,-25.0571 22.6713,-15.6331 40.1055,-37.8071 48.8091,-64.1138l0.270473 -0.786615 0.011811 -0.0318898 0.20315 -0.550394 0.0779528 -0.209055 0.0212599 -0.0543308 0.0779528 -0.19252c1.42323,-3.59528 3.43937,-6.79843 5.89725,-9.53859l0.0425197 -0.046063 0.409843 -0.446457 0.178347 -0.190158 0.311811 -0.322441 0.256299 -0.258662 0.258662 -0.256299 0.322441 -0.311811 0.190158 -0.178347 0.446457 -0.409843 0.046063 -0.0425197c2.7378,-2.45906 5.94449,-4.47402 9.53859,-5.89725l0.19252 -0.0779528 0.0543308 -0.0212599 0.209055 -0.0779528 0.550394 -0.20315 0.0318898 -0.011811c0.509056,-0.18189 1.02165,-0.350788 1.54016,-0.506693l0.00826772 -0.00236221 0.755906 -0.218504 0.0673229 -0.0177165 0.719292 -0.187795 0.0625985 -0.0153543 0.740552 -0.172441 0.0295276 -0.00708662c0.48189,-0.106299 0.967324,-0.199606 1.45512,-0.283465l0.210236 -0.0354331 0.651969 -0.100394 0.0637796 -0.00944883 0.703938 -0.090945 0.106299 -0.0129921 0.62126 -0.0649607 0.199606 -0.0188977 0.627166 -0.0484252 0.131102 -0.00944883 0.630709 -0.034252 0.170079 -0.00708662 0.572835 -0.0165354 0.248032 -0.00472441 0.426378 -0.00236221 0.425197 0.00236221 0.248032 0.00472441 0.572835 0.0165354 0.170079 0.00708662 0.630709 0.034252 0.131102 0.00944883 0.627166 0.0484252 0.199606 0.0188977 0.62126 0.0649607 0.106299 0.0129921 0.708662 0.0921261 0.0507874 0.00708662 0.669686 0.102756 0.194882 0.0330709c0.490158,0.0838583 0.976772,0.178347 1.46102,0.284646l0.0295276 0.00708662 0.740552 0.172441 0.0625985 0.0153543 0.739371 0.19252 0.0354331 0.00944883c0.993308,0.272835 1.97244,0.592914 2.9315,0.959056l0.175984 0.0649607 0.0543308 0.0212599 0.19252 0.0779528c3.5941,1.42205 6.79725,3.43937 9.53623,5.89607l0.0507874 0.0448819 0.407481 0.37441 0.272835 0.256299 0.236221 0.227953 0.309449 0.304725 0.233858 0.237402 0.366142 0.379134 0.0874016 0.0944883c2.82047,3 5.09882,6.59174 6.62363,10.6665l0.153543 0.415748 0.0283465 0.0791339 0.238583 0.694489 0.00708662 0.0212599c8.70237,26.3185 26.1437,48.5055 48.8244,64.1445 23.0421,15.8894 51.5811,25.0571 82.0666,25.0571 30.5044,0 59.0646,-9.18308 82.1197,-25.0925 22.6831,-15.652 40.1185,-37.8662 48.8103,-64.2237l0.00590552 -0.0177165c0.153543,-0.462992 0.317717,-0.921261 0.491339,-1.37599l0.056693 -0.153543 0.0212599 -0.0543308 0.0413386 -0.102756c1.51299,-3.85394 3.7063,-7.2626 6.39567,-10.1327l0.174803 -0.185433 0.269292 -0.279921 0.324803 -0.328347 0.194882 -0.19252 0.398032 -0.383859 0.0944883 -0.0874016c3.00118,-2.82047 6.59174,-5.10119 10.6665,-6.62363l0.415748 -0.153543 0.0791339 -0.0283465 0.694489 -0.238583 0.0212599 -0.00708662 0.0578741 -0.0177165c0.497244,-0.162992 0.998032,-0.315355 1.50354,-0.453544l0.034252 -0.00944883 0.739371 -0.19252 0.0625985 -0.0153543 0.740552 -0.172441 0.0295276 -0.00708662c0.48189,-0.106299 0.967324,-0.199606 1.45512,-0.283465l0.210236 -0.0354331 0.651969 -0.100394 0.0637796 -0.00944883 0.703938 -0.090945 0.106299 -0.0129921 0.62126 -0.0649607 0.199606 -0.0188977 0.627166 -0.0484252 0.131102 -0.00944883 0.568111 -0.0307087 0.290551 -0.0129921 0.431103 -0.011811 0.346063 -0.00708662 0.412205 -0.00236221 0.411024 0.00236221 0.346063 0.00708662 0.431103 0.011811 0.290551 0.0129921 0.568111 0.0307087 0.131102 0.00944883 0.627166 0.0484252 0.199606 0.0188977 0.62126 0.0649607 0.106299 0.0129921c0.23504,0.0283465 0.468898,0.056693 0.703938,0.090945l0.0637796 0.00944883 0.651969 0.100394 0.210236 0.0354331c0.487796,0.0838583 0.973229,0.177165 1.45512,0.283465l0.0295276 0.00708662 0.740552 0.172441 0.0625985 0.0153543 0.719292 0.187795 0.0673229 0.0177165 0.755906 0.218504 0.00826772 0.00236221 0.726379 0.229134 0.0578741 0.0177165 0.0212599 0.00708662 0.694489 0.238583 0.0791339 0.0283465 0.415748 0.153543c4.07599,1.52362 7.66654,3.80315 10.6665,6.62363l0.0944883 0.0874016 0.379134 0.366142 0.237402 0.233858 0.304725 0.309449 0.227953 0.236221 0.256299 0.272835 0.37441 0.407481 0.0448819 0.0507874c2.45788,2.73662 4.47166,5.94213 5.89607,9.53623l0.0779528 0.19252 0.0212599 0.0543308 0.0649607 0.175984c0.178347,0.466536 0.344882,0.937796 0.501969,1.41378 8.69646,26.3398 26.1284,48.5374 48.7973,64.1812 23.054,15.9083 51.6119,25.0925 82.115,25.0925 6.01182,0 11.7862,-0.323622 17.289,-0.964961 5.4626,-0.636615 11.0858,-1.64055 16.826,-3.00118 17.165,-4.06654 34.3772,6.5504 38.4437,23.7154 4.06654,17.1638 -6.55158,34.3772 -23.7154,38.4437 -7.81064,1.85197 -15.9343,3.27166 -24.3166,4.24843 -8.35158,0.975591 -16.5461,1.46575 -24.5268,1.46575 -43.5378,0 -84.7052,-13.3866 -118.311,-36.5776 -16.3063,-11.2524 -30.8138,-24.8055 -42.9449,-40.2555 -12.1311,15.45 -26.6386,29.0032 -42.9461,40.2555 -33.6083,23.1921 -74.7733,36.5776 -118.316,36.5776 -43.5118,0 -84.6591,-13.3701 -118.263,-36.5422 -16.3087,-11.2453 -30.8209,-24.7925 -42.9579,-40.2426 -12.1358,15.4488 -26.6469,28.9973 -42.9544,40.2426 -33.6024,23.1709 -74.7508,36.5422 -118.263,36.5422 -43.5437,0 -84.7099,-13.3854 -118.318,-36.5776 -16.3063,-11.2524 -30.8138,-24.8055 -42.9449,-40.2555 -12.1311,15.45 -26.6386,29.0032 -42.9449,40.2555 -33.6071,23.191 -74.7733,36.5776 -118.312,36.5776 -43.513,0 -84.6615,-13.3701 -118.262,-36.541 -16.3099,-11.2453 -30.8209,-24.7949 -42.9591,-40.2461 -12.1382,15.45 -26.6504,28.9996 -42.9591,40.2449 -33.6048,23.1709 -74.752,36.5422 -118.263,36.5422 -8.22048,0 -16.5874,-0.506693 -25.0418,-1.51299 -7.90276,-0.938977 -16.1539,-2.44725 -24.6945,-4.513 -17.0953,-4.13622 -27.6012,-21.3484 -23.4662,-38.4437 4.13622,-17.0941 21.3496,-27.6012 38.4437,-23.465 5.25119,1.26969 11.002,2.27717 17.2063,3.01536 5.65867,0.672048 11.5228,1.01221 17.5524,1.01221 30.4831,0 59.0245,-9.1689 82.0666,-25.0571 22.6795,-15.639 40.1209,-37.826 48.8233,-64.1445z"/>
 </g>
 <g id="Layer_x0020_1_0">
  <metadata id="CorelCorpID_1Corel-Layer"/>
  <path class="fil2" d="M1321.05 822.159c-12.3024,-12.5976 -12.0602,-32.7862 0.539764,-45.0874 12.5976,-12.3024 32.7851,-12.0602 45.0874,0.538583l196.49 200.698c2.72362,0.318898 5.6563,0.654331 8.57717,0.987402 37.487,4.27796 73.4764,8.39056 103.789,42.9662l0.0188977 -0.0177165 108.228 121.994c5.43189,6.1193 10.0075,13.8354 13.2,22.0193 3.02481,7.75394 4.93937,16.3748 5.2689,24.8563 0.0141732,0.343701 0.0200788,0.686221 0.022441,1.02756l0.0248032 0 0.0153543 2.30551c0,0.34252 -0.00472441,0.68504 -0.0129921,1.0252l0.0602363 0.0011811c-0.080315,3.12874 -0.486615,6.60119 -1.25433,10.4032l0.122835 0.0248032c-0.680315,3.38504 -1.78347,6.91418 -3.34607,10.5579l-0.0992127 0.22441 0.0496063 0.0212599c-7.79292,17.8689 -18.9213,31.904 -31.1374,42.8859 -15.6921,14.1071 -32.8996,22.8213 -46.8154,28.0866 -0.664961,0.252756 -1.33465,0.480709 -2.00669,0.68504 -10.578,3.54567 -23.654,4.62284 -35.6823,3.16418 -12.7004,-1.54016 -25.5969,-6.04371 -35.25,-13.6406 -0.532678,-0.419292 -1.04646,-0.853938 -1.54606,-1.29685 -20.6894,-16.5992 -44.354,-43.8284 -65.9599,-71.5406 -21.4689,-27.5362 -41.2512,-55.8827 -53.5713,-74.0197l-0.0980316 -0.146457 -0.0437008 -0.0673229c-0.161811,-0.243307 -0.32126,-0.490158 -0.477166,-0.73819 -17.9835,-28.0004 -13.8378,-77.8016 -10.9973,-110.582l-193.197 -197.335z"/>
  <path class="fil2" d="M726.912 822.159c12.3024,-12.5976 12.0602,-32.7862 -0.539764,-45.0874 -12.5976,-12.3024 -32.7851,-12.0602 -45.0874,0.538583l-196.49 200.698c-2.72362,0.318898 -5.6563,0.654331 -8.57717,0.987402 -37.487,4.27796 -73.4764,8.39056 -103.789,42.9662l-0.0188977 -0.0177165 -108.228 121.994c-5.43189,6.1193 -10.0075,13.8354 -13.2,22.0193 -3.02481,7.75394 -4.93937,16.3748 -5.2689,24.8563 -0.0141732,0.343701 -0.0200788,0.686221 -0.022441,1.02756l-0.0248032 0 -0.0153543 2.30551c0,0.34252 0.00472441,0.68504 0.0129921,1.0252l-0.0602363 0.0011811c0.080315,3.12874 0.486615,6.60119 1.25433,10.4032l-0.122835 0.0248032c0.680315,3.38504 1.78347,6.91418 3.34607,10.5579l0.0992127 0.22441 -0.0496063 0.0212599c7.79292,17.8689 18.9213,31.904 31.1374,42.8859 15.6921,14.1071 32.8996,22.8213 46.8154,28.0866 0.664961,0.252756 1.33465,0.480709 2.00669,0.68504 10.578,3.54567 23.654,4.62284 35.6823,3.16418 12.7004,-1.54016 25.5969,-6.04371 35.25,-13.6406 0.532678,-0.419292 1.04646,-0.853938 1.54606,-1.29685 20.6894,-16.5992 44.354,-43.8284 65.9599,-71.5406 21.4689,-27.5362 41.2512,-55.8827 53.5713,-74.0197l0.0980316 -0.146457 0.0437008 -0.0673229c0.161811,-0.243307 0.32126,-0.490158 0.477166,-0.73819 17.9835,-28.0004 13.8378,-77.8016 10.9973,-110.582l193.197 -197.335z"/>
  <g id="_406747496">
   <rect id="_406749104" class="fil3" x="965.121" y="588.858" width="120.949" height="88.8396"/>
   <path id="_406748264" class="fil4" d="M655.043 792.757c-19.2933,14.4709 -23.204,41.8453 -8.73308,61.1386 14.4709,19.2933 41.8453,23.204 61.1386,8.73308 236.025,-177.02 400.266,-177.024 636.291,0 19.2933,14.4709 46.6678,10.5602 61.1386,-8.73308 14.4709,-19.2933 10.5602,-46.6678 -8.73308,-61.1386 -285.506,-214.138 -471.209,-202.419 -741.102,0z"/>
   <g>
    <path id="_406748240" class="fil5" d="M1020.9 255.998c87.4973,0 163.127,59.7626 163.127,155.11 0,95.3481 -70.9312,219.138 -158.428,219.138 -87.4973,0 -158.428,-123.79 -158.428,-219.138 0,-95.3469 66.2339,-155.11 153.73,-155.11z"/>
    <path id="_406748360" class="fil6" d="M1020.9 255.998c87.0131,0 162.275,59.1083 163.108,153.534 -41.2559,-27.1122 -98.4036,-43.9016 -161.562,-43.9016 -59.9705,0 -114.519,15.1429 -155.19,39.8811 2.5441,-92.08 67.8745,-149.514 153.644,-149.514z"/>
    <path id="_406747880" class="fil7" d="M929.312 368.264c35.6386,0 96.2824,5.42835 96.2824,41.067 0,35.6386 -60.6437,87.9969 -96.2824,87.9969 -35.6386,0 -64.5319,-28.8933 -64.5319,-64.5319 0,-35.6386 28.8933,-64.5319 64.5319,-64.5319z"/>
    <path id="_406748144" class="fil8" d="M929.311 363.711c21.4571,0 51.88,1.96063 73.4457,11.1591 16.0807,6.85749 27.3921,17.6622 27.3921,34.4611 0,18.7654 -15.137,41.4036 -34.9559,59.5182 -20.5996,18.8268 -46.5343,33.0319 -65.8819,33.0319 -19.0772,0 -36.3485,-7.73386 -48.8504,-20.2347 -12.5008,-12.5008 -20.2347,-29.7733 -20.2347,-48.8504 0,-19.076 7.73386,-36.3485 20.2347,-48.8504 12.502,-12.5008 29.7733,-20.2347 48.8504,-20.2347zm69.8882 19.5225c-20.1248,-8.58426 -49.252,-10.4126 -69.8882,-10.4126 -16.5614,0 -31.5555,6.71339 -42.4099,17.5654 -10.8508,10.852 -17.5654,25.8496 -17.5654,42.4099 0,16.5614 6.71339,31.5555 17.5654,42.4099 10.8543,10.852 25.8484,17.5654 42.4099,17.5654 17.0894,0 40.6701,-13.1646 59.7603,-30.6107 18.1252,-16.565 31.9689,-36.7583 31.9689,-52.8296 0,-12.378 -9.02009,-20.6303 -21.841,-26.0977z"/>
    <path id="_406747736" class="fil7" d="M1121.88 368.264c-35.6386,0 -96.2824,5.42835 -96.2824,41.067 0,35.6386 60.6437,87.9969 96.2824,87.9969 35.6386,0 64.5319,-28.8933 64.5319,-64.5319 0,-35.6386 -28.8933,-64.5319 -64.5319,-64.5319z"/>
    <path id="_406747016" class="fil8" d="M1121.88 372.821c-20.6362,0 -49.7634,1.82835 -69.8882,10.4126 -12.8209,5.46733 -21.841,13.7197 -21.841,26.0977 0,16.0713 13.8437,36.2646 31.9689,52.8296 19.0902,17.4461 42.6709,30.6107 59.7603,30.6107 16.5602,0 31.5579,-6.71457 42.4099,-17.5654 10.852,-10.8543 17.5654,-25.8484 17.5654,-42.4099 0,-16.5602 -6.71457,-31.5579 -17.5654,-42.4099 -10.852,-10.8508 -25.8496,-17.5654 -42.4099,-17.5654zm-73.4457 2.04921c21.5658,-9.19843 51.9886,-11.1591 73.4457,-11.1591 19.076,0 36.3485,7.73386 48.8504,20.2347 12.5008,12.502 20.2347,29.7744 20.2347,48.8504 0,19.0772 -7.73386,36.3496 -20.2347,48.8504 -12.502,12.5008 -29.7744,20.2347 -48.8504,20.2347 -19.3477,0 -45.2823,-14.2051 -65.8819,-33.0319 -19.8189,-18.1146 -34.9559,-40.7528 -34.9559,-59.5182 0,-16.7988 11.3114,-27.6036 27.3921,-34.4611z"/>
   </g>
   <polygon id="_406747544" class="fil9" points="852.152,696.001 1199.04,696.001 1173.35,1046.73 869.278,1046.73 "/>
  </g>
  <g id="_406746728">
   <path id="_406747400" class="fil3" d="M1086.07 614.907l0 40.8071c-13.5225,10.1008 -36.7914,16.7693 -63.2339,16.7693 -23.1343,0 -43.839,-5.10591 -57.7146,-13.1469l0 -48.052c13.8756,-8.04095 34.5803,-13.1469 57.7146,-13.1469 26.4425,0 49.7115,6.66851 63.2339,16.7693z"/>
   <path id="_406746176" class="fil10" d="M1096.77 643.202c-49.8579,-9.1689 -98.4603,-8.81103 -147.549,0.679134 7.87442,16.3973 37.8449,28.6028 73.6193,28.6028 36.267,0 66.567,-12.5421 73.93,-29.2819z"/>
   <path id="_406746752" class="fil5" d="M1082.57 612.504c-17.6811,11.2051 -36.8882,17.7425 -56.9741,17.7425 -21.0874,0 -41.2075,-7.20591 -59.6091,-19.4551 13.8638,-7.75631 34.1918,-12.6532 56.85,-12.6532 24.2847,0 45.8918,5.62441 59.7331,14.3658z"/>
  </g>
  <path class="fil11" d="M670.367 1115.51c-10.3323,7.95355 -18.561,19.5059 -23.354,31.3642 -5.33504,13.2012 -7.20001,28.604 -2.54882,42.2859 25.3583,74.6103 74.2654,138.821 140.609,181.703 71.6741,46.3288 156.103,63.7016 240.53,64.5579 84.267,0.855119 168.921,-15.2599 240.546,-61.5119 67.1894,-43.3878 115.374,-109.094 140.543,-184.598l0.638977 -1.91339c3.82914,-13.2662 1.91693,-27.8965 -3.21851,-40.5426 -5.54292,-13.6488 -15.6567,-27.3083 -28.4658,-34.8319l-1.25551 -0.73819 -304.376 -204.161c-12.8835,-7.7752 -29.5866,-11.1224 -44.4992,-11.1224 -14.9575,0 -31.5851,3.36851 -44.5181,11.1331 -0.151181,0.0956694 -0.255118,0.170079 -0.403937,0.270473l-310.227 208.104z"/>
  <path class="fil12" d="M1023.98 1435.4l1.62165 0.0212599c84.267,0.855119 168.921,-15.2599 240.546,-61.5119 67.1894,-43.3878 115.374,-109.094 140.543,-184.598l0.638977 -1.91339c3.82914,-13.2662 1.91693,-27.8965 -3.21851,-40.5426 -5.54292,-13.6488 -15.6567,-27.3083 -28.4658,-34.8319l-1.25551 -0.73819 -304.376 -204.161c-12.8835,-7.7752 -29.5866,-11.1224 -44.4992,-11.1224 -0.509056,0 -1.02047,0.00354331 -1.53425,0.011811l0 539.386z"/>
  <rect class="fil13" width="2048" height="2048"/>
 </g>
</svg>
