<?xml version="1.0" encoding="UTF-8"?>
<!DOCTYPE svg PUBLIC "-//W3C//DTD SVG 1.1//EN" "http://www.w3.org/Graphics/SVG/1.1/DTD/svg11.dtd">
<!-- Creator: CorelDRAW -->
<svg xmlns="http://www.w3.org/2000/svg" xml:space="preserve" width="2048px" height="2048px" style="shape-rendering:geometricPrecision; text-rendering:geometricPrecision; image-rendering:optimizeQuality; fill-rule:evenodd; clip-rule:evenodd"
viewBox="0 0 2048 2048"
 xmlns:xlink="http://www.w3.org/1999/xlink">
 <defs>
  <style type="text/css">
   <![CDATA[
    .fil48 {fill:none}
    .fil18 {fill:#00406B}
    .fil32 {fill:#005187}
    .fil31 {fill:#00558E}
    .fil20 {fill:#005A96}
    .fil19 {fill:#0077C7}
    .fil2 {fill:#00796B}
    .fil25 {fill:#00897B}
    .fil30 {fill:#191919}
    .fil10 {fill:#212121}
    .fil12 {fill:#424242}
    .fil15 {fill:#4B4B4B}
    .fil11 {fill:#616161}
    .fil14 {fill:#636363}
    .fil21 {fill:#757575}
    .fil22 {fill:#B09176}
    .fil34 {fill:#B5D7D9}
    .fil29 {fill:#B9DCDE}
    .fil8 {fill:#BDBDBD}
    .fil24 {fill:#BF9E83}
    .fil23 {fill:#BFE3E6}
    .fil17 {fill:#C3E8EA}
    .fil36 {fill:#CCA98B}
    .fil46 {fill:#CD2C04}
    .fil9 {fill:#D50000}
    .fil33 {fill:#D7B293}
    .fil6 {fill:#DCB696}
    .fil45 {fill:#DD2C00}
    .fil42 {fill:#DEE9E9}
    .fil4 {fill:#E3BC9B}
    .fil35 {fill:#E5BD9C}
    .fil41 {fill:#E98603}
    .fil28 {fill:#EAC2A0}
    .fil47 {fill:#ECE9E9}
    .fil27 {fill:#F2C8A5}
    .fil38 {fill:#F3FFFF}
    .fil5 {fill:#F7CCA9}
    .fil7 {fill:#F7D5B8}
    .fil16 {fill:#F7F7F7}
    .fil26 {fill:#FF1744}
    .fil37 {fill:#FF9100}
    .fil1 {fill:#FFD3AE}
    .fil3 {fill:#FFDCBE}
    .fil13 {fill:white}
    .fil43 {fill:#3F3F3F;fill-rule:nonzero}
    .fil39 {fill:#424242;fill-rule:nonzero}
    .fil0 {fill:#B6B6B6;fill-rule:nonzero}
    .fil44 {fill:#C30303;fill-rule:nonzero}
    .fil40 {fill:#D50000;fill-rule:nonzero}
   ]]>
  </style>
 </defs>
 <g id="Layer_x0020_1">
  <metadata id="CorelCorpID_0Corel-Layer"/>
  <g id="_406742696">
   <polygon id="_414154112" class="fil0" points="1325.08,811.958 1325.14,1792 1259.06,1792 1259,811.958 "/>
   <g>
    <path id="_414154208" class="fil1" d="M704.167 1143.29c12.75,22.6677 41.4567,30.7122 64.1256,17.961 22.6654,-12.7453 10.1398,-36.1595 -2.60906,-58.8319l-63.3272 -154.234c-12.7465,-22.6642 -41.4579,-30.7051 -64.1245,-17.9551 -22.6666,12.7476 -30.7051,41.4614 -17.9599,64.1209l83.8949 148.939z"/>
    <path id="_414153752" class="fil2" d="M645.054 1038.35l-24.7819 -43.9985c-12.7453,-22.6595 -4.7067,-51.3733 17.9599,-64.1209 22.6666,-12.75 51.3792,-4.70906 64.1245,17.9551l34.1634 80.6115 -91.4658 9.55276z"/>
    <path id="_414153224" class="fil1" d="M889.223 1132.61c17.1638,-2.6374 19.1728,-14.4969 16.5307,-31.6607 -2.62914,-17.1579 -1.47874,-23.237 -18.6378,-20.6008l-148.812 18.0319c-23.0421,3.54331 -39.6284,10.8969 -36.0815,33.9473 3.54331,23.0492 19.4835,38.6363 48.1441,35.3138 35.5264,-4.1126 138.856,-35.0315 138.856,-35.0315z"/>
    <path id="_414153608" class="fil1" d="M911.741 1073.82c1.68307,3.88111 6.19016,5.66103 10.0724,3.97559l26.0953 -10.911c3.87402,-1.68189 5.65394,-6.19607 3.97796,-10.0677 -1.69016,-3.87992 -6.19371,-5.66339 -10.0748,-3.98386l-26.0929 10.9122c-3.88347,1.68543 -5.65867,6.19134 -3.97796,10.0748z"/>
    <path id="_414153560" class="fil1" d="M925.287 1120.69c1.72677,3.98032 6.3567,5.81221 10.3347,4.08662l26.6965 -11.1791c3.9815,-1.72559 5.8063,-6.35197 4.08189,-10.3276 -1.72559,-3.98622 -6.35906,-5.81575 -10.3406,-4.0878l-26.687 11.1721c-3.9815,1.72914 -5.81339,6.35434 -4.08544,10.3358z"/>
    <path id="_414153536" class="fil1" d="M918.074 1088.41c1.81063,4.17874 6.66615,6.10394 10.8473,4.29095l27.8941 -11.6965c4.17992,-1.81181 6.08977,-6.67323 4.2874,-10.852 -1.81299,-4.18347 -6.66615,-6.10158 -10.8555,-4.29213l-27.8894 11.6941c-4.18229,1.81417 -6.10749,6.67205 -4.28386,10.8555z"/>
    <path id="_414153344" class="fil1" d="M923.193 1104.18c1.81063,4.18111 6.67087,6.10394 10.852,4.2874l27.8858 -11.6906c4.17992,-1.81299 6.10276,-6.6756 4.28859,-10.8543 -1.81063,-4.18229 -6.66615,-6.1063 -10.8496,-4.28859l-27.8929 11.6894c-4.18229,1.81417 -6.10158,6.67205 -4.28386,10.8567z"/>
    <path id="_414153296" class="fil1" d="M925.611 1060.69c0,0 -13.1209,-1.07717 -17.3858,-0.217323 -26.1402,5.24174 -35.1343,36.952 -28.1681,53.0245 10.4433,24.0756 35.5689,20.5772 51.6532,13.6039l11.1012 -5.4626 -17.2004 -60.9485z"/>
    <path id="_414153032" class="fil3" d="M941.829 1079.04c-0.298819,-2.71418 -2.73189,-4.66772 -5.44134,-4.37008 -0.412205,0.0448819 -0.806694,0.13937 -1.17638,0.279921 0.785434,2.27717 1.30394,4.63819 1.56732,7.03465 0.090945,0.837402 0.152362,1.68189 0.18189,2.5252 0.166536,-0.00236221 0.335433,-0.011811 0.504331,-0.0307087 2.70945,-0.297638 4.66063,-2.73189 4.36418,-5.43898z"/>
    <path id="_414152984" class="fil3" d="M935.616 1064.69c-0.0850394,-0.767717 -0.350788,-1.52953 -0.810237,-2.21457 -1.52008,-2.26417 -4.58741,-2.86181 -6.8504,-1.34055 -0.466536,0.31063 -0.863386,0.690945 -1.18228,1.1185 0.910631,0.722835 1.74095,1.54843 2.49449,2.42717 0.921261,1.0311 1.72323,2.15433 2.48032,3.30591 0.355512,0.571654 0.712205,1.13622 1.05591,1.7126 0.225591,-0.10748 0.448819,-0.231496 0.66378,-0.372048 1.57441,-1.05945 2.34331,-2.87008 2.14843,-4.63701z"/>
    <path id="_414153440" class="fil4" d="M922.431 1060.47c1.37008,0.0732284 2.52756,0.904725 3.52914,1.74331 1.00158,0.881103 1.87795,1.89921 2.64921,2.99292 0.786615,1.08071 1.47165,2.23229 2.15906,3.38032 0.640158,1.1752 1.3063,2.3563 1.79764,3.57284 1.02756,2.43071 1.67599,5.02796 2.09055,7.63938 0.420473,2.6126 0.56693,5.27599 0.34252,7.89095 -0.238583,2.5878 -0.788977,5.22874 -2.07992,7.30985 -0.620079,1.04646 -1.44567,1.9004 -2.44488,2.35394 -0.256299,0.0874016 -0.50315,0.21378 -0.778347,0.252756l-0.361418 0.0755906 -0.509056 0.0425197c-0.451181,0.011811 -1.04646,-0.0767717 -1.50709,-0.294095 -0.973229,-0.426378 -1.76102,-1.35 -2.31732,-2.44016 -0.562205,-1.09016 -0.914174,-2.33858 -1.13976,-3.60591 -0.441733,-2.5441 -0.470079,-5.22756 0.00236221,-7.81182l0.00354331 -0.0153543c0.0673229,-0.369685 -0.177165,-0.726379 -0.546851,-0.79252 -0.303544,-0.0543308 -0.596457,0.102756 -0.729922,0.367323 -0.239764,0.485433 -0.616536,1.02874 -0.994489,1.50945 -0.400394,0.479528 -0.818505,0.948426 -1.29685,1.36063 -0.94252,0.836221 -1.99252,1.55788 -3.13701,2.1378 -0.587008,0.249213 -1.16575,0.542126 -1.78583,0.718111 -0.608268,0.222047 -1.2378,0.368504 -1.87441,0.50315 -1.27559,0.264567 -2.58307,0.380315 -3.90355,0.42874 1.31221,0.113386 2.64685,0.185433 3.97087,0.0188977 0.66378,-0.0791339 1.32992,-0.167717 1.98071,-0.338977 0.66378,-0.121654 1.29449,-0.369685 1.94055,-0.579922 0.623623,-0.264567 1.25551,-0.525591 1.84606,-0.871654 0.596457,-0.325985 1.16693,-0.720473 1.69606,-1.15276 0.544489,-0.421654 1.03701,-0.908268 1.51063,-1.41614 0.461811,-0.529134 0.881103,-1.04528 1.26614,-1.71732l-1.27441 -0.442914c-0.636615,2.72953 -0.844489,5.56772 -0.429922,8.38465 0.223229,1.40433 0.583465,2.80984 1.23543,4.1504 0.648426,1.32047 1.64882,2.64803 3.17599,3.36496 0.770079,0.355512 1.54725,0.519685 2.45079,0.50315l0.505512 -0.034252c0.287008,-0.0330709 0.425197,-0.0673229 0.64252,-0.105118 0.398032,-0.0590552 0.779528,-0.220866 1.16102,-0.356693 1.50473,-0.649607 2.64449,-1.83543 3.41457,-3.11339 1.5248,-2.59843 2.0126,-5.4626 2.22992,-8.24764 0.333071,-5.59489 -0.660237,-11.2228 -3.10512,-16.2543 -0.601182,-1.27323 -1.33819,-2.42362 -2.06811,-3.59292 -0.757087,-1.15039 -1.55788,-2.2748 -2.48032,-3.30591 -0.897638,-1.04646 -1.89921,-2.01732 -3.02244,-2.82874 -1.10433,-0.790158 -2.43543,-1.48701 -3.81378,-1.38307z"/>
    <path id="_414153152" class="fil4" d="M944.87 1103.16c0,0 -0.628347,0.0212599 -1.71378,0.207874 -1.0748,0.212599 -2.64095,0.499607 -4.42678,1.21772 -0.895276,0.34252 -1.8437,0.811418 -2.79685,1.41614 -0.925985,0.637796 -1.92402,1.37717 -2.67756,2.45788 -0.806694,1.01693 -1.34055,2.39055 -1.43622,3.79725l-0.00236221 1.06417c0.0177165,0.486615 0.090945,0.661418 0.132284,1.00512 0.0543308,0.577559 0.305906,1.31811 0.514961,2.00197 0.542126,1.30158 1.40551,2.50394 2.53465,3.3626 1.11142,0.904725 2.47795,1.27913 3.71811,1.50118 1.26732,0.230315 2.47795,0.11811 3.58937,-0.0200788 1.1126,-0.158268 2.12717,-0.427559 3.03544,-0.739371 1.82599,-0.598819 3.21142,-1.37953 4.1752,-1.89567 0.946064,-0.562205 1.46693,-0.908268 1.46693,-0.908268 0,0 -0.605906,0.18189 -1.63228,0.537402 -1.02402,0.349607 -2.52402,0.764174 -4.31103,1.11024 -0.895276,0.173622 -1.86614,0.290551 -2.88071,0.348425 -1.01221,0.0259843 -2.08229,0.00590552 -3.1063,-0.236221 -1.02165,-0.233858 -2.03268,-0.623623 -2.82638,-1.2874 -0.807875,-0.646063 -1.41851,-1.52953 -1.82362,-2.52992 -0.334252,-0.897638 -0.649607,-2.25591 -0.577559,-3.19843 0.068504,-1.01575 0.322441,-2.02677 0.934253,-2.87126 1.11024,-1.74803 2.92914,-2.94095 4.48229,-3.84095 1.58622,-0.885827 3.00827,-1.52362 4.02048,-1.90276 1.01221,-0.394488 1.60748,-0.597638 1.60748,-0.597638z"/>
    <path id="_414152456" class="fil4" d="M956.137 1098.82c0,0 -1.66772,0.51378 -4.17048,1.28268 -2.47559,0.755906 -5.75552,1.79646 -9.04843,2.39646 -0.823229,0.172441 -1.64528,0.279921 -2.44961,0.359055 -0.801969,0.0366142 -1.59449,0.119291 -2.33858,0.0496063 -1.50354,-0.0732284 -2.81811,-0.473622 -3.75355,-1.17165 -0.474804,-0.33189 -0.861024,-0.733465 -1.14921,-1.1374 -0.324803,-0.387402 -0.494882,-0.800788 -0.690945,-1.12087 -0.297638,-0.701575 -0.470079,-1.10197 -0.470079,-1.10197 0,0 -0.00590552,0.434646 0.0744095,1.22362 0.0944883,0.379134 0.138189,0.876379 0.390945,1.39016 0.201969,0.526772 0.53504,1.11378 1.03937,1.63228 0.968505,1.10669 2.61851,1.87559 4.35591,2.10591 1.74921,0.287008 3.59528,0.127559 5.36457,-0.18189 3.5504,-0.666142 6.82087,-2.08819 9.14056,-3.34725 2.32795,-1.25197 3.70512,-2.37874 3.70512,-2.37874z"/>
    <path id="_414152936" class="fil4" d="M953.544 1082.4c0,0 -1.27441,-0.100394 -3.12992,0.109843 -1.85906,0.194882 -4.30276,0.686221 -6.65906,1.53071 -1.16693,0.447638 -2.33504,0.914174 -3.36733,1.50236 -1.0441,0.557481 -1.97717,1.18347 -2.6941,1.83425 -0.377953,0.291733 -0.68504,0.618898 -0.937796,0.925985 -0.263386,0.291733 -0.48189,0.548032 -0.615355,0.805512 -0.287008,0.491339 -0.420473,0.767717 -0.420473,0.767717 0,0 0.259843,-0.173622 0.715749,-0.477166 0.445276,-0.28937 1.09606,-0.661418 1.91457,-1.02638 1.61339,-0.751182 3.84331,-1.57205 6.1063,-2.3752 2.25473,-0.819686 4.54134,-1.63347 6.24804,-2.33504 1.70788,-0.682678 2.83937,-1.2626 2.83937,-1.2626z"/>
    <path id="_414152264" class="fil4" d="M948.026 1066.8c0,0 -1.03701,0.00590552 -2.50158,0.288189 -1.46929,0.269292 -3.36733,0.797245 -5.19804,1.52362 -1.8248,0.737008 -3.58347,1.63819 -4.82126,2.5311 -1.2685,0.818505 -1.89567,1.75394 -1.88977,1.70197 0,0 0.250394,-0.0614174 0.688583,-0.17126 0.4063,-0.129921 0.99567,-0.264567 1.71851,-0.451181 0.701575,-0.197244 1.52008,-0.42874 2.38819,-0.713386 0.86693,-0.279921 1.7752,-0.625985 2.68583,-0.966142 1.80118,-0.728741 3.56575,-1.5815 4.84252,-2.34095 1.28622,-0.741733 2.08701,-1.40197 2.08701,-1.40197z"/>
    <path id="_414152408" class="fil3" d="M945.813 1094.93c-0.297638,-2.70827 -2.74252,-4.67126 -5.45079,-4.37363 -2.70473,0.296457 -4.65827,2.7437 -4.36181,5.45197 0.297638,2.70591 2.73662,4.66536 5.44016,4.3689 2.70827,-0.297638 4.67008,-2.74016 4.37244,-5.44725z"/>
    <path id="_414152360" class="fil5" d="M967.005 1105.54c0,-0.00236221 0,-0.00354331 0,-0.00472441 -0.0862205,-0.760631 -0.282284,-1.52599 -0.604725,-2.26299l0 0c-0.174803,-0.403937 -0.377953,-0.783071 -0.607087,-1.14095 -0.00590552,-0.00590552 -0.00826772,-0.011811 -0.0129921,-0.0177165 -0.00354331,-0.00472441 -0.00590552,-0.011811 -0.00826772,-0.0153543 -1.93701,-2.96811 -5.67756,-4.26378 -9.09213,-3.10984l0.379134 -0.158268c-0.00236221,0 -0.00236221,0 -0.00236221,0l-2.21221 0.924804c-0.611811,0.409843 -1.42559,0.917717 -2.41181,1.44803 -2.27362,1.23307 -5.45552,2.62323 -8.92678,3.30591l-4.94528 2.0752 0.407481 1.4374c0.855119,-0.753544 1.94055,-1.26024 3.15827,-1.39488 3.14882,-0.344882 5.9752,1.92284 6.32008,5.06811 0.344882,3.14292 -1.92047,5.97638 -5.0693,6.32245 -0.548032,0.0602363 -1.08543,0.0401575 -1.60276,-0.0496063l0.467717 1.65827c0.98504,-0.0578741 1.92756,-0.175984 2.79803,-0.343701 1.78701,-0.346063 3.28701,-0.761812 4.31103,-1.11024 1.02638,-0.355512 1.63228,-0.537402 1.63228,-0.537402 0,0 -0.519685,0.344882 -1.46693,0.908268 -0.96378,0.517323 -2.34921,1.29685 -4.1752,1.89567 -0.810237,0.27874 -1.70433,0.523229 -2.67756,0.683859l0.147638 0.519685 -1.68662 0.830316 21.1937 -8.87245c3.22677,-1.39725 5.03741,-4.70197 4.69134,-8.02087 -0.0011811,-0.0129921 -0.00236221,-0.0259843 -0.00472441,-0.0389764z"/>
    <path id="_414152840" class="fil5" d="M961.931 1096.78l-24.4488 5.97048 0.0295276 0.105118c0.200788,0.022441 0.407481,0.0413386 0.618898,0.0507874 0.742914,0.0696851 1.53662,-0.0129921 2.33858,-0.0496063 0.804331,-0.0791339 1.62638,-0.186614 2.44961,-0.359055 3.29292,-0.598819 6.57284,-1.64055 9.04843,-2.39646 2.50276,-0.767717 4.17048,-1.28268 4.17048,-1.28268 0,0 -0.457087,0.375591 -1.29331,0.930709l2.21221 -0.924804 4.87441 -2.04449zm-18.4252 7.72323c-0.0708662,0.0153543 -0.142913,0.0295276 -0.21378,0.0413386 -0.826772,0.145276 -1.67008,0.256299 -2.51103,0.305906 -0.486615,0.242126 -1.00512,0.512599 -1.53898,0.810237 -0.261024,0.153543 -0.532678,0.31063 -0.80315,0.483071l0.121654 0.434646 4.94528 -2.0752zm-5.24646 0.272835c-0.0732284,-0.00826772 -0.144095,-0.0188977 -0.214961,-0.0307087l0.0318898 0.109843c0.0602363,-0.0271654 0.120473,-0.0531496 0.183071,-0.0791339z"/>
    <path id="_414152792" class="fil6" d="M950.983 1117.63c0,0 -0.605906,0.18189 -1.63228,0.537402 -1.02402,0.349607 -2.52402,0.764174 -4.31103,1.11024 -0.871654,0.168898 -1.81299,0.284646 -2.79685,0.343701 -0.0295276,0.0011811 -0.056693,0.00236221 -0.0838583,0.00472441 -1.01221,0.0259843 -2.08229,0.00590552 -3.1063,-0.236221 -1.02165,-0.233858 -2.03268,-0.623623 -2.82638,-1.2874 -0.807875,-0.646063 -1.41851,-1.52953 -1.82362,-2.52992 -0.238583,-0.637796 -0.466536,-1.50591 -0.552756,-2.2937 -0.0354331,-0.322441 -0.0472441,-0.63189 -0.0248032,-0.904725 0.068504,-1.01575 0.322441,-2.02677 0.934253,-2.87126 0.921261,-1.45158 2.33622,-2.52166 3.67914,-3.35788 0.271654,-0.172441 0.542126,-0.330709 0.80315,-0.483071 0.533859,-0.296457 1.05236,-0.568111 1.53898,-0.810237 -0.848032,0.0496063 -1.6937,0.0354331 -2.52166,-0.0744095 -0.0637796,0.0271654 -0.122835,0.0519685 -0.183071,0.0779528 -0.698032,0.305906 -1.41969,0.687402 -2.1437,1.14803 -0.925985,0.637796 -1.92402,1.37717 -2.67756,2.45788 -0.806694,1.01693 -1.34055,2.39055 -1.43622,3.79725l-0.00236221 1.06417c0.00472441,0.120473 0.0129921,0.223229 0.0236221,0.315355 0.0295276,0.269292 0.0791339,0.432284 0.108662,0.689764 0.00236221,0.0153543 0.00354331,0.0295276 0.00472441,0.0425197 0.0637796,0.572835 0.307087,1.29095 0.510237,1.95945 0.542126,1.30158 1.40551,2.50394 2.53465,3.3626 1.11142,0.904725 2.47795,1.27913 3.71811,1.50118 1.26732,0.230315 2.47795,0.11811 3.58937,-0.0200788 0.120473,-0.0177165 0.240945,-0.0354331 0.357874,-0.0555119 0.973229,-0.16063 1.86732,-0.405118 2.67756,-0.683859 1.82599,-0.598819 3.21142,-1.37953 4.1752,-1.89567 0.946064,-0.562205 1.46693,-0.908268 1.46693,-0.908268z"/>
    <path id="_414152552" class="fil6" d="M956.137 1098.82c0,0 -1.66772,0.51378 -4.17048,1.28268 -2.47559,0.755906 -5.75552,1.79646 -9.04843,2.39646 -0.823229,0.172441 -1.64528,0.279921 -2.44961,0.359055 -0.801969,0.0366142 -1.59449,0.119291 -2.33858,0.0496063 -0.211417,-0.00944883 -0.418111,-0.0283465 -0.618898,-0.0519685 -0.102756,-0.00944883 -0.201969,-0.022441 -0.301181,-0.0377953l-2.67402 0.65315c0.938977,0.647245 2.14016,1.09252 3.39095,1.25669 0.0377953,0.00708662 0.0779528,0.0141732 0.116929,0.0188977 0.0708662,0.011811 0.141732,0.022441 0.214961,0.0307087 0.826772,0.109843 1.67362,0.124016 2.52166,0.0744095 0.840946,-0.0496063 1.68425,-0.16063 2.51103,-0.305906 0.0708662,-0.011811 0.144095,-0.0271654 0.21378,-0.0413386 3.47126,-0.682678 6.65315,-2.07284 8.92678,-3.30591 0.986221,-0.530315 1.8,-1.03819 2.41181,-1.44803 0.836221,-0.555119 1.29331,-0.930709 1.29331,-0.930709z"/>
    <path id="_414152432" class="fil7" d="M948.446 1111.69c-0.346063,-3.14528 -3.17126,-5.413 -6.32008,-5.06811 -1.21772,0.134646 -2.30315,0.641339 -3.15827,1.39488l2.8063 9.94725c0.517323,0.0885827 1.05473,0.108662 1.60276,0.0484252 3.14882,-0.346063 5.41418,-3.18071 5.0693,-6.32245z"/>
    <path id="_414152600" class="fil7" d="M941.774 1117.96l-2.8063 -9.94725c-1.35118,1.19055 -2.12126,2.99764 -1.90984,4.92402 0.284646,2.5937 2.26654,4.59685 4.71615,5.02323z"/>
    <path id="_414152744" class="fil1" d="M743.809 1440.98c23.4697,22.8567 50.8725,41.6422 76.0442,25.8591 25.1752,-15.7772 28.2047,-41.2004 12.4228,-66.3827l-124.591 -187.654c-19.9925,-31.8697 -53.7863,-21.6744 -85.6654,-1.67717 -31.8815,19.989 -39.8988,43.5555 -19.9075,75.4312l141.697 154.423z"/>
    <path id="_414152144" class="fil1" d="M695.593 1588.59c-6.89646,21.4394 4.89213,27.6036 26.8736,38.2134 21.9768,10.598 37.9193,6.37323 48.5233,-15.6095l64.5378 -156.934c10.6028,-21.9827 1.38307,-48.4016 -20.5961,-59.0056 -21.9792,-10.6004 -35.5217,2.26654 -52.7386,19.5709 -32.791,32.9469 -66.6001,173.765 -66.6001,173.765z"/>
    <path id="_414152120" class="fil8" d="M706.288 1548.35c4.85433,1.8248 9.70631,3.65433 14.5512,5.49685 21.2953,8.08229 42.4725,16.95 64.5662,22.2992l-14.4165 35.054c-10.6028,21.9827 -26.5453,26.2075 -48.5221,15.6095 -21.9815,-10.611 -33.7689,-16.774 -26.8736,-38.2134 0,0 4.04528,-16.8473 10.6949,-40.2461z"/>
    <path id="_414151640" class="fil9" d="M564.134 1205.89c1.81299,-1.5437 141.069,4.07363 142.958,6.28583l70.9312 98.3032c-24.6248,24.6355 -69.5481,76.6288 -94.1753,101.25l-127.448 -109.786c-24.3851,-28.6571 -20.9256,-71.6623 7.73386,-96.0532z"/>
    <path id="_414151616" class="fil10" d="M689.514 1586.86c0,0 -5.36811,16.9075 -18.8445,36.7618 -4.59804,6.77245 -5.85591,18.5268 -8.74253,24.3839 -11.863,2.57362 -15.6225,30.1819 -13.5933,35.0114 1.75866,8.08465 41.8524,16.0843 67.1091,7.19292 17.5748,-6.18308 31.8555,-0.317717 51.6201,5.54646 18.8658,5.59961 42.7288,11.198 79.2237,6.31536 35.9091,-4.80473 28.5414,-39.0095 16.6512,-48.1241 -16.6394,-7.3441 -34.9689,-7.98662 -48.9485,-10.1717 -43.5142,-6.77717 -18.7642,-30.2752 -43.9134,-45.2764 -21.4713,12.3602 -40.2118,18.9851 -53.0587,15.3319 -19.5614,-5.55945 -17.2996,-26.6008 -27.5032,-26.9717z"/>
    <path id="_414151880" class="fil11" d="M708.625 1672.27c-18.4949,6.5126 -43.9016,5.12481 -60.4087,0.862205 1.27205,-9.88111 5.59252,-23.3669 13.7102,-25.1292 2.88662,-5.85709 4.14449,-17.6114 8.74253,-24.3839 13.4764,-19.8543 18.8457,-36.7618 18.8457,-36.7618 10.2024,0.370866 7.94056,21.4122 27.502,26.9717 12.8469,3.65315 31.5874,-2.97166 53.0587,-15.3319 25.1492,15 0.399213,38.4992 43.9134,45.2764 13.9784,2.18504 32.3091,2.82756 48.9485,10.1717 6.47008,4.96063 11.5843,17.3445 9.13229,28.3843 -3.7004,1.62992 -8.09528,2.86536 -13.2815,3.55985 -41.8843,5.59961 -69.2705,-0.826772 -90.9225,-7.25197 -22.6819,-6.73229 -39.0697,-13.4646 -59.2406,-6.36733z"/>
    <path id="_414151952" class="fil12" d="M659.547 1648.93c0.757087,-0.414567 1.54606,-0.747638 2.37992,-0.927166 2.88662,-5.85709 4.14449,-17.6114 8.74253,-24.3839 13.4764,-19.8543 18.8457,-36.7618 18.8457,-36.7618 10.2024,0.370866 7.94056,21.4122 27.502,26.9717 12.8469,3.65315 31.5874,-2.97166 53.0587,-15.3319 25.1492,15 12.8847,38.4992 56.4,45.2764 13.9831,2.18504 19.8225,2.82756 36.4618,10.1717 1.60512,1.24488 3.1252,2.93032 4.46929,4.92993 -3.77481,2.21575 -8.56418,3.87048 -14.602,4.67953 -36.4949,4.88032 -60.3579,-0.71693 -79.2249,-6.31654 -19.7681,-5.86536 -34.0465,-11.7319 -51.6213,-5.54528 -20.511,7.213 -50.8099,3.3 -62.4119,-2.7626z"/>
    <path id="_414151592" class="fil10" d="M743.891 1636.1c-15.3307,2.88189 -35.2607,7.00867 -50.8229,3.27756 -9.11221,-2.18504 -16.9547,-7.01693 -24.0059,-12.9378 0.491339,-1.00276 1.02402,-1.95236 1.60748,-2.81929 13.4764,-19.8543 18.8457,-36.7618 18.8457,-36.7618 10.2024,0.370866 7.94056,21.4122 27.502,26.9717 12.6177,3.58937 30.9236,-2.74725 51.9154,-14.6847 -3.2315,13.5508 -9.73111,34.0713 -25.0418,36.9544z"/>
    <path id="_414151856" class="fil13" d="M778.288 1642.38c1.09488,2.54173 4.03465,3.70748 6.56693,2.60906l16.9299 -7.31103c2.53465,-1.09488 3.70158,-4.02874 2.60906,-6.56812 -1.09724,-2.53229 -4.03583,-3.7004 -6.57166,-2.59961l-16.9323 7.30394c-2.52638,1.0937 -3.69685,4.04055 -2.60197,6.56575z"/>
    <path id="_414152096" class="fil13" d="M769.308 1628.71c1.00039,2.31732 3.68977,3.38859 6.00473,2.38583l15.4925 -6.68859c2.31969,-1.00276 3.38504,-3.69803 2.38701,-6.00945 -1.00394,-2.31496 -3.68977,-3.38386 -6.00827,-2.38583l-15.4961 6.69213c-2.31732,0.998032 -3.38504,3.68504 -2.37992,6.00591z"/>
    <path id="_414151496" class="fil13" d="M761.143 1616.12c1.00276,2.32205 3.69213,3.3874 6.01063,2.38937l15.4914 -6.69213c2.31851,-1.00748 3.3874,-3.69685 2.38465,-6.00945 -1.00158,-2.31496 -3.68977,-3.38977 -6.00709,-2.37992l-15.4914 6.68504c-2.32323,0.994489 -3.38622,3.68504 -2.38819,6.00709z"/>
    <path id="_414151088" class="fil14" d="M817.672 1642c-0.011811,-0.00472441 -0.0248032,-0.00708662 -0.0377953,-0.011811 0.0106299,0.00236221 0.0271654,0.00708662 0.0377953,0.011811l0 0zm-0.0649607 -0.0188977c-5.86063,-1.50354 -10.3973,-3.41103 -14.0398,-5.60315 -0.00236221,0.00472441 -0.00708662,0.00944883 -0.00826772,0.0106299 3.63898,2.18977 8.18741,4.0937 14.048,5.59371l0 -0.0011811zm-22.2449 -12.4134l2.46024 -1.05945 -2.44961 1.05473c-1.09961,-1.25551 -2.08819,-2.5441 -3.00236,-3.86457 0.90945,1.32402 1.89449,2.61732 2.99173,3.86929z"/>
    <path id="_414150728" class="fil15" d="M819.419 1703.94c0.00354331,0 0.00590552,0 0.0106299,0 -0.00472441,0 -0.00590552,0 -0.0106299,0l0 0zm-0.0141732 0c-21.652,-0.00472441 -37.8898,-3.92835 -51.5032,-7.93701 13.6158,4.00866 29.85,7.93465 51.5032,7.93701zm26.1945 -1.77756c0.00354331,0 0.00708662,-0.00236221 0.00944883,-0.00236221 -0.00236221,0 -0.00590552,0.00236221 -0.00944883,0.00236221zm0.687402 -0.0921261l0 0c0.0318898,-0.00472441 0.0614174,-0.00590552 0.0921261,-0.011811 -0.0318898,0.00590552 -0.0602363,0.00708662 -0.0921261,0.011811l0 0zm0.127559 -0.0153543c0.0212599,-0.00472441 0.0366142,-0.00708662 0.056693,-0.00944883 -0.0177165,0.00236221 -0.0377953,0.00472441 -0.056693,0.00944883zm0.0968505 -0.0141732c0.0271654,-0.00354331 0.0555119,-0.00826772 0.0826772,-0.0106299 -0.0283465,0.00236221 -0.0531496,0.00708662 -0.0826772,0.0106299zm0.129921 -0.0177165c0.0129921,-0.0011811 0.0248032,-0.00354331 0.0377953,-0.00708662 -0.0129921,0.00354331 -0.0248032,0.00590552 -0.0377953,0.00708662l0 0zm0.0944883 -0.0129921c0.00826772,-0.00236221 0.0177165,-0.00472441 0.0259843,-0.00472441 -0.0106299,0.00236221 -0.0153543,0.00236221 -0.0259843,0.00472441zm0.232677 -0.0330709c0.00236221,0 0.00472441,-0.00354331 0.00472441,-0.00354331 -0.00236221,0 -0.00236221,0.00354331 -0.00472441,0.00354331zm-80.3115 -6.34134c-0.0614174,-0.0188977 -0.120473,-0.0354331 -0.180709,-0.0555119 0.0602363,0.0200788 0.119291,0.0366142 0.18189,0.0555119l-0.0011811 0zm-0.497244 -0.15c-13.3654,-3.99567 -24.2445,-7.90985 -35.4177,-7.91457 11.1732,0.00472441 22.0524,3.9189 35.4189,7.91457l-0.0011811 0zm-50.7166 -5.27717c0.0602363,-0.0200788 0.119291,-0.0401575 0.179528,-0.0625985 -0.0614174,0.022441 -0.119291,0.0425197 -0.179528,0.0625985l0 0zm15.2693 -2.6374c0.00236221,0 0.00708662,0 0.00944883,0l0 0c-0.00236221,0 -0.00708662,0 -0.00944883,0z"/>
    <path id="_414151256" class="fil14" d="M804.299 1630.91c-0.852757,-1.75984 -2.61969,-2.80748 -4.47638,-2.81103 1.85669,0.00354331 3.62362,1.05118 4.47638,2.81221l0 -0.0011811zm-6.43229 -2.41772c0.0200788,-0.00944883 0.0425197,-0.0177165 0.0649607,-0.0271654 -0.0236221,0.00944883 -0.0448819,0.0177165 -0.0649607,0.0271654l0 0zm1.92992 -0.394488c0.00472441,0 0.00708662,0.0011811 0.011811,0.0011811l-0.0011811 -0.0011811c-0.00472441,0 -0.00590552,0.0011811 -0.0106299,0.0011811l0 -0.0011811zm-6.62717 -9.74292c-0.754725,-1.69016 -2.41299,-2.70473 -4.15985,-2.71063 1.74567,0.00826772 3.40512,1.02047 4.15985,2.71063l0 0zm-5.91733 -2.36693c0.00472441,-0.0011811 0.00944883,-0.00354331 0.0165354,-0.00708662 -0.00826772,0.00354331 -0.011811,0.00590552 -0.0165354,0.00708662zm1.72795 -0.344882c0.00236221,0 0.00472441,0.0011811 0.00708662,0.0011811l0 -0.0011811c-0.00236221,0 -0.00472441,0.0011811 -0.00708662,0z"/>
    <path id="_414151400" class="fil12" d="M766.231 1608.95l11.289 -4.86851c0,-0.00236221 -0.00236221,-0.00236221 -0.00236221,-0.00472441l-0.0153543 0.00590552c-0.819686,-0.770079 -1.70197,-1.52599 -2.64685,-2.28071l0.00590552 -0.0153543c-1.4315,-1.1315 -3.01536,-2.22756 -4.78583,-3.28465l0 0c-0.382677,0.222047 -0.765355,0.440552 -1.14567,0.657875 -0.719292,3.01181 -1.59685,6.36378 -2.69882,9.79017z"/>
    <path id="_414150968" class="fil16" d="M782.873 1645.4c0.660237,0 1.33465,-0.133465 1.98189,-0.414567l16.9299 -7.31103c0.701575,-0.302362 1.29921,-0.747638 1.77402,-1.2874 0.0011811,-0.00236221 0.00590552,-0.00590552 0.00826772,-0.0106299 -0.00472441,-0.00236221 -0.00826772,-0.00472441 -0.0153543,-0.00944883 1.22835,-1.40315 1.62756,-3.4252 0.842127,-5.26063 -0.0330709,-0.0696851 -0.0614174,-0.137008 -0.0944883,-0.200788 -0.852757,-1.76102 -2.61969,-2.80866 -4.47638,-2.81221 -0.00590552,-0.0011811 -0.0106299,0 -0.0141732,0 -0.00590552,-0.0011811 -0.00708662,0 -0.011811,0 -0.622441,-0.0011811 -1.25433,0.11811 -1.86496,0.366142 -0.0236221,0.00944883 -0.0448819,0.0177165 -0.0649607,0.0271654 -0.0165354,0.00708662 -0.0307087,0.0141732 -0.0448819,0.0200788l0 0 -2.46024 1.05945 -14.4721 6.24449c-2.52638,1.0937 -3.69685,4.04055 -2.60197,6.56575 0.814961,1.89213 2.65276,3.02362 4.58504,3.02362z"/>
    <path id="_414151304" class="fil16" d="M773.506 1631.47c0.604725,0 1.2189,-0.120473 1.80709,-0.375591l15.4925 -6.68859c0.183071,-0.080315 0.360236,-0.170079 0.529134,-0.270473 -0.00236221,-0.00472441 -0.00708662,-0.0106299 -0.00944883,-0.0165354 1.94528,-1.16102 2.7874,-3.58347 1.86732,-5.72245 -0.00944883,-0.0153543 -0.0153543,-0.0330709 -0.022441,-0.0484252 -0.754725,-1.69016 -2.41299,-2.70236 -4.15985,-2.71063 -0.00708662,-0.0011811 -0.0129921,0 -0.022441,0 -0.00236221,-0.0011811 -0.00472441,0 -0.00708662,0 -0.570473,-0.0011811 -1.15276,0.108662 -1.71142,0.336614 -0.00826772,0.00354331 -0.011811,0.00590552 -0.0165354,0.00708662 -0.022441,0.00944883 -0.0472441,0.0177165 -0.068504,0.0295276l-0.498426 0.214961c0,0 0,0 0,0l-14.9976 6.47717c-2.31732,0.998032 -3.38504,3.68504 -2.37992,6.00591 0.745276,1.72677 2.42953,2.76142 4.19764,2.76142z"/>
    <path id="_414150848" class="fil17" d="M785.029 1605.81c-0.742914,-1.71732 -2.41299,-2.75197 -4.17284,-2.75906 1.75984,0.00708662 3.43111,1.04173 4.17402,2.75906l-0.0011811 0zm-4.2 -2.75906c0.00236221,0 0.00590552,0 0.00708662,0l0 0c-0.00236221,0 -0.00472441,0 -0.00708662,0z"/>
    <path id="_414151328" class="fil16" d="M765.345 1618.88c0.604725,0 1.21772,-0.120473 1.80827,-0.373229l15.4914 -6.69213c0.34252,-0.15 0.660237,-0.336614 0.947245,-0.552756 -0.00590552,-0.00472441 -0.00708662,-0.00944883 -0.011811,-0.0141732 1.64528,-1.23543 2.30197,-3.47008 1.44921,-5.44252l-0.0011811 0c-0.742914,-1.71732 -2.41299,-2.75197 -4.17284,-2.75906 -0.00708662,0 -0.0129921,0 -0.0200788,0 -0.00236221,0 -0.00472441,0 -0.00590552,0 -0.604725,0 -1.21772,0.124016 -1.80709,0.379134l0 0 -1.50236 0.649607 -11.289 4.86851 -2.7 1.16693c-2.32323,0.994489 -3.38622,3.68504 -2.38819,6.00709 0.350788,0.812599 0.910631,1.47284 1.5874,1.9441 0.762993,0.530315 1.67717,0.818505 2.61496,0.818505z"/>
    <path id="_414150752" class="fil17" d="M777.52 1604.08l1.50236 -0.649607 -1.50591 0.644882c0,0.00236221 0.00354331,0.00236221 0.00354331,0.00472441l0 0zm-2.65866 -2.29488l60.6662 -147.52 -60.6662 147.52zm65.2323 -184.197c-0.0011811,-0.00472441 -0.0011811,-0.00472441 -0.0011811,-0.00944883 0,0.00236221 0,0.00708662 0.00236221,0.00944883l-0.0011811 0zm-0.022441 -0.0779528c-1.60512,-5.61969 -4.21536,-11.3421 -7.79528,-17.054 3.57756,5.71182 6.19016,11.4343 7.79528,17.054zm-65.3256 -103.703c1.12205,-1.15512 2.22874,-2.2689 3.27756,-3.32835l0 -0.0011811c-1.05591,1.05945 -2.15315,2.16851 -3.2811,3.32362l0.00354331 0.00590552z"/>
    <path id="_414150920" class="fil1" d="M481.678 1635.51c-9.42166,20.4543 1.54843,27.9874 22.0914,41.1461 20.5524,13.1669 36.8894,10.8791 50.0504,-9.67324l78.5186 -147.991c13.1634,-20.5465 7.17284,-47.8843 -13.376,-61.0418 -20.5512,-13.1681 -35.5323,-2.00551 -54.6993,13.1079 -36.5032,28.7858 -82.5851,164.452 -82.5851,164.452z"/>
    <path id="_414151352" class="fil8" d="M503.769 1676.66c-20.5429,-13.1599 -31.513,-20.6941 -22.0914,-41.1473 0,0 9.83623,-28.9784 24.0307,-62.9823 6.92363,3.61418 13.6547,7.55434 20.1957,11.1461 16.6382,9.12284 33.0744,18.7193 50.1851,26.9528 2.01732,0.979135 4.06063,1.92874 6.08977,2.89607l-28.3595 53.4615c-13.1622,20.5512 -29.4981,22.839 -50.0504,9.67324z"/>
    <path id="_414150008" class="fil1" d="M549.385 1440.06c3.73819,32.5607 13.1008,64.428 42.5894,68.1012 29.4815,3.68504 47.8985,-14.1071 51.5764,-43.5839l28.8414 -216.864c4.65945,-37.3441 -11.3445,-39.8929 -48.6839,-44.5489l0.617717 4.53544c-37.3488,-4.65827 -82.4965,-14.1933 -87.1572,23.1425l12.2162 209.217z"/>
    <path id="_414149960" class="fil18" d="M488.683 1618.26c0,0 -12.1335,12.939 -32.8477,25.0453 -7.06654,4.12559 -13.2709,14.1862 -18.3969,18.2303 -11.8193,-2.79331 -27.1099,20.5016 -27.3614,25.7268 -1.89685,8.05867 30.8292,32.5583 57.4512,35.4213 36.2079,3.90945 41.2122,43.9229 112.952,67.1103 34.4717,11.1461 42.5634,-22.9004 35.7614,-36.2362 -11.8476,-13.8047 -28.102,-22.2933 -39.776,-30.2882 -21.1583,-14.4756 -19.0004,-24.0945 -16.7008,-34.415 1.64882,-7.40788 3.37323,-15.1784 -3.40985,-25.3654 -24.7028,1.89567 -44.4662,-0.200788 -54.4819,-9.04016 -15.248,-13.4492 -4.13622,-31.4622 -13.1906,-36.189z"/>
    <path id="_414149912" class="fil19" d="M469.109 1703.57c-19.4941,-2.09882 -41.8229,-14.3043 -54.8741,-25.2626 5.40473,-8.37402 15.1146,-18.6803 23.2028,-16.7669 5.12599,-4.04292 11.3303,-14.1047 18.3969,-18.2303 20.7142,-12.1063 32.8477,-25.0465 32.8477,-25.0465 9.05434,4.72796 -2.05748,22.741 13.1906,36.1902 10.0158,8.84056 29.7803,10.9358 54.4819,9.04016 6.78189,10.1882 5.05867,17.9575 3.40985,25.3654 -2.29961,10.3217 -4.45748,19.9394 16.7008,34.415 11.674,7.99489 27.9284,16.4835 39.776,30.2882 3.70394,7.25316 2.9811,20.6315 -3.98622,29.5347 -4.0441,-0.114567 -8.54174,-0.904725 -13.5142,-2.51103 -82.3347,-26.615 -88.0737,-72.5386 -129.632,-77.0162z"/>
    <path id="_414150584" class="fil20" d="M434.886 1661.35c0.858662,-0.0472441 1.71614,-0.00472441 2.55236,0.187795 5.12599,-4.04292 11.3303,-14.1047 18.3969,-18.2303 20.7142,-12.1063 32.8477,-25.0465 32.8477,-25.0465 9.05434,4.72796 -2.05748,22.741 13.1906,36.1902 10.0158,8.84056 29.7803,10.9358 54.4819,9.04016 16.2248,24.3768 -4.96772,40.2945 31.3713,65.1638 11.6835,8.00197 16.6677,11.1 28.5154,24.9047 0.914174,1.79646 1.56496,3.97914 1.90984,6.36733 -4.36063,0.367323 -9.39568,-0.205512 -15.189,-2.07638 -71.7414,-23.1874 -76.7445,-63.2067 -112.951,-67.1079 -21.6166,-2.3315 -47.2666,-18.926 -55.1256,-29.3929z"/>
    <path id="_414150440" class="fil18" d="M516.518 1686.12c-15.0614,-4.00512 -34.8307,-8.87127 -47.2642,-18.9484 -7.27678,-5.89252 -12.2764,-13.637 -16.0831,-22.0169 0.871654,-0.693308 1.76811,-1.32165 2.66457,-1.84961 20.7142,-12.1063 32.8477,-25.0465 32.8477,-25.0465 9.05434,4.72796 -2.05748,22.741 13.1906,36.1902 9.83387,8.6752 29.0977,10.8449 53.1674,9.12993 -8.75434,10.8366 -23.4614,26.5465 -38.5229,22.5414z"/>
    <path id="_414150536" class="fil13" d="M544.854 1706.62c-0.10748,2.75788 2.04331,5.07874 4.8,5.18268l18.4217 0.702756c2.76378,0.101575 5.07993,-2.04567 5.18268,-4.80591 0.109843,-2.75079 -2.03977,-5.07402 -4.7941,-5.17914l-18.4335 -0.701575c-2.75906,-0.106299 -5.07402,2.04213 -5.17678,4.80118z"/>
    <path id="_414150224" class="fil13" d="M542.634 1690.42c-0.0933072,2.51693 1.87559,4.64055 4.39961,4.73386l16.8626 0.646063c2.52402,0.0968505 4.6441,-1.86851 4.73859,-4.39607 0.0992127,-2.51929 -1.86496,-4.64764 -4.38544,-4.74331l-16.8709 -0.643701c-2.5252,-0.0944883 -4.6441,1.87441 -4.74449,4.40315z"/>
    <path id="_414150176" class="fil13" d="M540.703 1675.54c-0.100394,2.52166 1.87087,4.64292 4.39134,4.73977l16.8721 0.643701c2.51811,0.0968505 4.63347,-1.87323 4.73622,-4.39489 0.0980316,-2.52047 -1.86969,-4.6441 -4.39725,-4.74095l-16.8638 -0.640158c-2.51929,-0.102756 -4.63465,1.86969 -4.73859,4.39252z"/>
    <path id="_414150392" class="fil17" d="M617.863 1758.3l-0.0188977 -0.108662 -0.0212599 -0.0767717c0.0129921,0.0614174 0.0271654,0.124016 0.0401575,0.185433zm-0.466536 -1.82599l-0.00944883 -0.0413386c-0.0129921,-0.0389764 -0.0248032,-0.0779528 -0.0377953,-0.116929 0.0165354,0.0507874 0.0307087,0.103937 0.0484252,0.157087l-0.0011811 0.0011811zm-0.765355 -2.08819c-0.120473,-0.284646 -0.250394,-0.559843 -0.389764,-0.827953 -11.8476,-13.8047 -16.8307,-16.9028 -28.5154,-24.9047l0 0c11.6835,8.00197 16.6677,11.1 28.5154,24.9047l0 0c0.134646,0.266929 0.266929,0.542126 0.389764,0.826772l0 0.0011811zm-35.9445 35.4733c-0.0129921,-0.00354331 -0.0212599,-0.00708662 -0.034252,-0.00944883 0.0106299,0.0011811 0.0236221,0.00708662 0.034252,0.00944883zm-0.0968505 -0.0318898c-0.0366142,-0.00826772 -0.0732284,-0.0212599 -0.109843,-0.0330709 0.0366142,0.011811 0.0744095,0.0212599 0.109843,0.0330709zm3.80197 -63.5481c-0.00472441,-0.00236221 -0.00590552,-0.00472441 -0.00944883,-0.00826772 0.00354331,0.00354331 0.00590552,0.00590552 0.00944883,0.00826772l0 0zm-0.0720473 -0.0531496c-6.73347,-5.01378 -11.139,-9.67087 -14.0681,-14.1236 -0.00826772,0.00354331 -0.0153543,0.00708662 -0.022441,0.00944883 2.9374,4.44803 7.36064,9.10513 14.0917,14.1142l-0.0011811 0zm-15.8563 -23.7012l-2.66929 -0.101575c-0.629528,-2.22874 -1.03347,-4.43859 -1.3063,-6.63544 -0.00236221,-0.0011811 -0.00236221,-0.0011811 -0.00236221,0.0011811 0.271654,2.20158 0.662599,4.40315 1.29095,6.63308l2.68701 0.102756zm-4.21418 -15.861l-0.543308 -0.022441 -0.0011811 0.00236221 0.544489 0.0200788zm-8.39764 -23.1366c-0.0673229,0.00472441 -0.137008,0.00944883 -0.207874,0.0129921l-0.0011811 0.00236221c0.0720473,-0.00354331 0.13937,-0.0106299 0.209055,-0.0153543zm-19.7953 -154.807l-42.5965 -32.0114c0,0 0,0.0011811 0,0.0011811l42.5918 32.0126c-10.6843,18.9248 -21.0236,41.5536 -29.7662,62.4225 8.74371,-20.8689 19.0878,-43.5012 29.7709,-62.4249zm-30.365 63.8469c-0.140551,0.333071 -0.282284,0.662599 -0.414567,0.992127 0.13937,-0.330709 0.274016,-0.660237 0.414567,-0.992127zm-0.7063 1.6937c-0.105118,0.249213 -0.210236,0.497244 -0.31063,0.748819 -0.28937,0.700394 -0.584646,1.3937 -0.868111,2.09055 -0.133465,0.320079 -0.259843,0.643701 -0.389764,0.962599 0.516142,-1.25906 1.04055,-2.52638 1.56851,-3.80197l0 0zm-1.60512 3.89292c-0.0200788,0.0437008 -0.0389764,0.0897638 -0.056693,0.134646 -0.0401575,0.0968505 -0.080315,0.193701 -0.11811,0.291733 0.0578741,-0.142913 0.116929,-0.282284 0.174803,-0.426378zm-0.296457 0.721654c-0.212599,0.517323 -0.425197,1.0311 -0.636615,1.5437 -0.133465,0.337796 -0.272835,0.673229 -0.402756,1.00748 0.343701,-0.84567 0.689764,-1.69725 1.04055,-2.55118l-0.0011811 0zm-1.21654 2.98465c-0.124016,0.302362 -0.246851,0.603544 -0.366142,0.905906 0.121654,-0.302362 0.244488,-0.603544 0.367323,-0.905906l-0.0011811 0zm-0.878741 2.16851c-0.0980316,0.236221 -0.196063,0.477166 -0.28937,0.715749 -0.346063,0.859843 -0.689764,1.71614 -1.0311,2.56772 -0.0200788,0.0555119 -0.0401575,0.111024 -0.0625985,0.165354 0.454725,-1.13858 0.917717,-2.28898 1.38425,-3.44882l-0.0011811 0zm-1.45394 3.62835c-0.0354331,0.0885827 -0.0744095,0.177165 -0.109843,0.263386 -0.329528,0.833859 -0.662599,1.66181 -0.983859,2.48622 0.359055,-0.907087 0.724016,-1.82717 1.0937,-2.74961zm-27.7016 135.688c-1.3878,-0.27874 -2.82047,-0.498426 -4.30512,-0.660237 -0.0330709,-0.0011811 -0.0637796,-0.00590552 -0.0956694,-0.00944883 0.0318898,0.00354331 0.0625985,0.00708662 0.0956694,0.00944883 1.48465,0.161811 2.91851,0.380315 4.30512,0.660237l0 0zm25.8874 -131.113c-0.242126,0.611811 -0.480709,1.22126 -0.722835,1.82244 -0.120473,0.327166 -0.248032,0.643701 -0.372048,0.96378 -0.0271654,0.0696851 -0.0531496,0.140551 -0.080315,0.209055 0.38504,-0.986221 0.778347,-1.9878 1.1752,-2.9941l0 -0.0011811zm-1.58386 4.04174c-0.100394,0.261024 -0.20315,0.518504 -0.303544,0.772442 -0.13937,0.360236 -0.277559,0.718111 -0.418111,1.07362 -0.231496,0.597638 -0.462992,1.19291 -0.687402,1.78701 -0.162992,0.409843 -0.318898,0.82441 -0.478347,1.23307 -0.113386,0.3 -0.225591,0.598819 -0.340158,0.892914 0.718111,-1.86732 1.46221,-3.79134 2.22756,-5.75906zm-2.54528 6.58819c-0.145276,0.373229 -0.285827,0.744095 -0.427559,1.11732 -0.184252,0.484252 -0.373229,0.970867 -0.551575,1.45158 -0.15,0.383859 -0.291733,0.765355 -0.433465,1.14213 0.458268,-1.21063 0.93189,-2.44843 1.4126,-3.71103zm-1.49055 3.92363c-0.174803,0.455906 -0.344882,0.904725 -0.514961,1.35236 -0.0401575,0.108662 -0.080315,0.217323 -0.120473,0.328347 0.206693,-0.555119 0.421654,-1.11732 0.635434,-1.68071zm-0.902363 2.38229c-0.00944883,0.0259843 -0.0188977,0.0507874 -0.0295276,0.0767717 -0.133465,0.359055 -0.269292,0.718111 -0.399213,1.07008 0.141732,-0.380315 0.284646,-0.760631 0.42874,-1.14685zm-0.705119 1.88268c-0.068504,0.184252 -0.138189,0.368504 -0.206693,0.553937 0.068504,-0.183071 0.138189,-0.369685 0.206693,-0.555119l0 0.0011811zm-0.364961 0.976772c-0.125197,0.323622 -0.239764,0.647245 -0.360236,0.96378 -0.16063,0.429922 -0.318898,0.853938 -0.473622,1.27441 -0.148819,0.398032 -0.290551,0.785434 -0.433465,1.16929 -0.138189,0.376772 -0.281103,0.748819 -0.412205,1.11614 -0.135827,0.366142 -0.264567,0.714567 -0.389764,1.06536 0.646063,-1.76102 1.33701,-3.62835 2.06929,-5.58898l0 0zm-2.25945 6.10394c-0.0767717,0.207874 -0.153543,0.414567 -0.231496,0.617717 -0.10748,0.302362 -0.217323,0.592914 -0.32126,0.895276 -0.778347,0.764174 -1.88032,1.81772 -3.29173,3.1004 1.41024,-1.27913 2.51339,-2.33504 3.29173,-3.09921 0.180709,-0.494882 0.36378,-0.999213 0.552756,-1.51417l0 0zm-21.091 104.47c-0.0413386,-0.00708662 -0.0838583,-0.0129921 -0.126378,-0.0177165 0.0425197,0.00472441 0.0850394,0.0106299 0.126378,0.0165354l0 0.0011811zm-6.69804 -81.8599c-0.00354331,0.00354331 -0.00826772,0.00472441 -0.0129921,0.00826772 0.00236221,-0.00236221 0.0106299,-0.00708662 0.0129921,-0.00826772zm-0.109843 0.068504c-0.00590552,0.00354331 -0.0129921,0.00708662 -0.0212599,0.011811 0.00826772,-0.00472441 0.0141732,-0.00826772 0.0212599,-0.011811zm-0.101575 0.0614174c-0.0106299,0.00826772 -0.0212599,0.0141732 -0.0318898,0.0212599 0.0106299,-0.00590552 0.0212599,-0.0141732 0.0318898,-0.0200788l0 -0.0011811zm-0.10748 0.068504c-0.0259843,0.0153543 -0.0519685,0.0330709 -0.0779528,0.0472441 0.0259843,-0.0141732 0.0531496,-0.0318898 0.0779528,-0.0472441l0 0zm-0.125197 0.0779528c-0.0236221,0.0153543 -0.0496063,0.0307087 -0.0732284,0.046063 0.0236221,-0.0153543 0.0496063,-0.0307087 0.0744095,-0.0472441l-0.0011811 0.0011811zm-0.0968505 0.0578741c-0.0236221,0.0165354 -0.0507874,0.0318898 -0.0744095,0.0484252 0.0248032,-0.0153543 0.0496063,-0.0318898 0.0755906,-0.0484252l-0.0011811 0zm-0.0956694 0.0602363c-0.120473,0.0744095 -0.239764,0.147638 -0.360236,0.222047 0.120473,-0.0744095 0.239764,-0.148819 0.360236,-0.222047l0 0zm-0.360236 0.222047c-0.929528,0.571654 -1.8815,1.14567 -2.85118,1.7126 0.969686,-0.569292 1.91929,-1.13976 2.85118,-1.7126l0 0zm-2.86181 1.71969c-0.0236221,0.0153543 -0.0496063,0.0283465 -0.0732284,0.0448819 0.0236221,-0.0153543 0.0496063,-0.0318898 0.0732284,-0.0448819zm-0.109843 0.0649607c-0.0200788,0.011811 -0.0437008,0.0248032 -0.0637796,0.0377953 0.0200788,-0.011811 0.0413386,-0.0248032 0.0649607,-0.0377953l-0.0011811 0zm-0.116929 0.068504c-0.0177165,0.011811 -0.0377953,0.0212599 -0.0555119,0.0307087 0.0177165,-0.00944883 0.0377953,-0.0212599 0.056693,-0.0318898l-0.0011811 0.0011811zm-35.3457 58.2473c-6.96024,-5.6563 -11.2099,-11.0327 -10.5921,-14.1071l0 0c-0.617717,3.07441 3.63425,8.45198 10.5921,14.1071l0 0zm4.20118 -35.413l-0.0425197 0.034252c-0.101575,0.0826772 -0.200788,0.165354 -0.3,0.250394 0.113386,-0.0956694 0.227953,-0.188977 0.34252,-0.284646l0 0zm-14.0799 18.6673c0,0.00236221 0,0.00472441 -0.0011811,0.00708662 0,-0.00236221 0.0011811,-0.00472441 0.00236221,-0.00708662l-0.0011811 0zm-0.00354331 0.00826772c-0.294095,0.735827 -0.499607,1.38189 -0.607087,1.91811 -0.046063,0.230315 -0.0744095,0.43937 -0.0826772,0.624804 0.00708662,-0.186614 0.0366142,-0.39567 0.0826772,-0.623623 0.10748,-0.53504 0.312992,-1.18347 0.607087,-1.91929l0 0zm-0.689764 2.54292c-0.00826772,0.0307087 -0.0141732,0.0578741 -0.0200788,0.0874016 0.00590552,-0.0295276 0.011811,-0.0602363 0.0200788,-0.0874016z"/>
    <path id="_414150248" class="fil10" d="M617.488 1772.03c-0.00472441,0.0212599 -0.011811,0.0425197 -0.0153543,0.0625985 0.00354331,-0.0188977 0.0106299,-0.0413386 0.0153543,-0.0637796l0 0.0011811zm-0.0212599 0.0826772c-0.969686,3.913 -2.67638,7.74213 -5.21103,10.9795 -4.0441,-0.114567 -8.54174,-0.904725 -13.5142,-2.51103 -82.3347,-26.615 -88.0737,-72.5386 -129.632,-77.0162 -19.4941,-2.09882 -41.8229,-14.3043 -54.8741,-25.2626 1.01693,-1.57559 2.18622,-3.22087 3.4689,-4.84016l-0.034252 0.0413386c-0.83504,1.05473 -1.61811,2.11417 -2.34213,3.16536l-0.0649607 0.0850394c-2.05866,2.98229 -3.64134,5.83583 -4.49174,7.95709 -0.0011811,0.00236221 -0.0011811,0.00472441 -0.00236221,0.00708662 0,0 -0.00236221,-0.0011811 -0.00236221,0.0011811 -0.294095,0.735827 -0.499607,1.38425 -0.607087,1.91929 -0.046063,0.229134 -0.0744095,0.438189 -0.0826772,0.623623l0 0c-0.00826772,0.0283465 -0.0141732,0.0578741 -0.0200788,0.0874016l0 0c-0.617717,3.07441 3.63189,8.45079 10.5921,14.1071 11.2866,9.17717 29.6953,19.0925 46.0028,21.1252 0.0425197,0.00472441 0.0850394,0.0106299 0.126378,0.0165354 0.218504,0.0259843 0.435827,0.0519685 0.654331,0.0755906 0.0318898,0.00354331 0.0625985,0.00708662 0.0956694,0.00944883 1.48465,0.161811 2.91851,0.380315 4.30512,0.660237 32.4272,6.50315 39.8492,44.2122 108.647,66.4501l0 0c0.0366142,0.011811 0.0732284,0.0248032 0.109843,0.0330709 0.0212599,0.00944883 0.0425197,0.0165354 0.0625985,0.022441 0.0129921,0.00236221 0.0212599,0.00590552 0.034252,0.00944883 15.5988,4.97717 25.7528,0.661418 31.5685,-6.76654l0.011811 -0.0129921c2.52756,-3.23504 4.23544,-7.05709 5.19922,-10.9665zm-190.85 -107.42c-0.00472441,0.0011811 -0.00708662,0.00590552 -0.00944883,0.00708662l-0.00944883 0.00590552c0.00590552,-0.00354331 0.0141732,-0.00944883 0.0200788,-0.0129921l-0.0011811 0zm-1.73977 1.3311l-0.0271654 0.0200788c-0.115748,0.0956694 -0.229134,0.188977 -0.34252,0.284646 -0.366142,0.309449 -0.732284,0.629528 -1.09016,0.956694l-0.0188977 0.0165354c0.485433,-0.442914 0.980316,-0.868111 1.47874,-1.27795l0 0zm-3.75355 3.50197c-0.69567,0.726379 -1.37008,1.47874 -2.02677,2.24646l-0.0484252 0.0590552c0.669686,-0.787796 1.36417,-1.56024 2.0752,-2.30551z"/>
    <path id="_414149264" class="fil21" d="M617.786 1770.69c0.196063,-0.976772 0.347244,-1.95591 0.454725,-2.92796l0.0212599 -0.199606c0.056693,-0.576378 0.105118,-1.14685 0.137008,-1.71378l0.0106299 -0.386221c0.0271654,-0.497244 0.034252,-0.998032 0.0271654,-1.48819l-0.00236221 -0.506693c-0.0106299,-0.446457 -0.0318898,-0.884646 -0.0555119,-1.32284l-0.0389764 -0.578741c-0.0425197,-0.4063 -0.0826772,-0.805512 -0.138189,-1.20236l-0.0519685 -0.444095c-4.36063,0.368504 -9.39331,-0.204331 -15.1866,-2.0752 -71.7414,-23.1874 -76.7445,-63.2067 -112.951,-67.1079 -21.6166,-2.3315 -47.2666,-18.926 -55.1256,-29.3941 0.514961,-0.0283465 1.02992,-0.022441 1.54134,0.0248032 -0.121654,-0.0106299 -0.242126,-0.0212599 -0.361418,-0.0307087l-0.418111 -0.0153543c-0.349607,-0.00708662 -0.702756,0.00236221 -1.05473,0.0283465l-0.38504 0.0354331c-0.465355,0.0519685 -0.927166,0.138189 -1.39843,0.255118l-0.26811 0.0814961c-0.39567,0.10748 -0.786615,0.233858 -1.17402,0.375591l-0.447638 0.172441c-0.369685,0.157087 -0.745276,0.327166 -1.12677,0.509056l-0.316536 0.154725c-0.470079,0.244488 -0.936615,0.509056 -1.40669,0.796064l-0.360236 0.231496c-0.366142,0.232677 -0.72756,0.474804 -1.09134,0.72756 -0.00590552,0.00354331 -0.0141732,0.00944883 -0.0188977,0.011811l-0.396851 0.292914c-0.431103,0.317717 -0.863386,0.648426 -1.2874,0.999213l-0.0377953 0.0271654c-0.498426,0.409843 -0.992127,0.83504 -1.47874,1.27795l-0.298819 0.281103c-0.370866,0.344882 -0.73819,0.69567 -1.10315,1.05473l-0.283465 0.285827c-0.197244,0.199606 -0.392126,0.400394 -0.588189,0.602363 -0.712205,0.746457 -1.40669,1.51772 -2.07638,2.30551l-0.165354 0.197244c-0.387402,0.46063 -0.775985,0.921261 -1.14331,1.39606l-0.0354331 0.0389764c-1.28268,1.61929 -2.45079,3.26339 -3.4689,4.83898 13.0512,10.9583 35.3799,23.1638 54.8741,25.2626 41.5583,4.47756 47.2973,50.4 129.632,77.0162 4.97244,1.60748 9.47009,2.39646 13.5142,2.51103 2.53465,-3.2374 4.24134,-7.06654 5.21103,-10.9795 0.0011811,-0.00708662 0.00472441,-0.0141732 0.00590552,-0.0200788 0.00354331,-0.0188977 0.0106299,-0.0413386 0.0153543,-0.0637796 0.10748,-0.444095 0.207874,-0.889371 0.297638,-1.33465zm0.0826772 -12.3697l-0.00472441 -0.0248032c-0.0129921,-0.0614174 -0.0271654,-0.124016 -0.0401575,-0.185433l-0.00472441 -0.0188977c0.0153543,0.0755906 0.0330709,0.152362 0.0496063,0.227953l0 0.0011811zm-0.458268 -1.80236l-0.0129921 -0.0484252c-0.0165354,-0.0543308 -0.0307087,-0.10748 -0.0472441,-0.158268 -0.0141732,-0.0377953 -0.0248032,-0.0744095 -0.0377953,-0.111024 0.034252,0.105118 0.0673229,0.210236 0.0992127,0.316536l-0.0011811 0.0011811zm-0.728741 -2.01969c-0.0141732,-0.0401575 -0.0318898,-0.080315 -0.0496063,-0.11811 -0.122835,-0.283465 -0.253937,-0.559843 -0.389764,-0.826772 0.152362,0.303544 0.302362,0.617717 0.43937,0.944883zm-179.244 -92.9658l0 0c-0.100394,-0.0236221 -0.201969,-0.046063 -0.304725,-0.0637796 0.101575,0.0177165 0.204331,0.0401575 0.304725,0.0637796z"/>
    <path id="_414149696" class="fil11" d="M618.152 1759.93l0 0 -0.0401575 -0.21378c-0.0507874,-0.356693 -0.113386,-0.703938 -0.186614,-1.05354l-0.056693 -0.333071c-0.0165354,-0.0767717 -0.0330709,-0.153543 -0.0496063,-0.229134l-0.0188977 -0.068504c-0.0755906,-0.348425 -0.172441,-0.677953 -0.258662,-1.01811l-0.131102 -0.486615c-0.0307087,-0.10748 -0.0637796,-0.212599 -0.0980316,-0.317717 -0.090945,-0.274016 -0.186614,-0.53504 -0.282284,-0.796064l-0.175984 -0.478347c-0.0555119,-0.144095 -0.111024,-0.287008 -0.172441,-0.427559 -0.137008,-0.327166 -0.285827,-0.64252 -0.43937,-0.944883l0 0c-11.8476,-13.8047 -16.8307,-16.9028 -28.5154,-24.9047l0 0c-1.17047,-0.798426 -2.28189,-1.59095 -3.33425,-2.37402 -0.00472441,-0.00236221 -0.00590552,-0.00472441 -0.00944883,-0.00826772 -0.022441,-0.0129921 -0.0425197,-0.0295276 -0.0614174,-0.0448819 -6.73111,-5.00788 -11.1543,-9.66615 -14.0917,-14.1142 -0.659056,0.281103 -1.39016,0.426378 -2.15433,0.398032l-18.4228 -0.702756c-2.75551,-0.103937 -4.9063,-2.42481 -4.79882,-5.18268 0.00944883,-0.274016 0.0425197,-0.544489 0.0956694,-0.805512 0.473622,-2.35984 2.59961,-4.09252 5.08111,-3.99567l15.7465 0.598819c-0.628347,-2.22992 -1.01811,-4.4315 -1.29095,-6.63308 -0.19252,0.0165354 -0.389764,0.0212599 -0.589371,0.0141732l-16.8638 -0.644882c-2.52284,-0.0944883 -4.49055,-2.21929 -4.39843,-4.73504 0.00944883,-0.249213 0.0401575,-0.494882 0.0874016,-0.732284 0.435827,-2.16614 2.38229,-3.75709 4.65709,-3.67205l16.3264 0.624804 0.0011811 -0.00236221 -0.00354331 -0.0011811c-0.15,-1.90394 -0.348425,-3.84213 -0.661418,-5.80512 -0.344882,0.0708662 -0.7063,0.0980316 -1.0748,0.0850394l-16.8721 -0.641339c-1.63583,-0.0649607 -3.04134,-0.979135 -3.79843,-2.30551 -7.41024,6.15355 -16.0335,10.4717 -24.7784,8.14607 -15.0614,-4.00394 -34.8307,-8.87009 -47.2642,-18.9473 -7.27678,-5.89252 -12.2764,-13.637 -16.0831,-22.0169 0.871654,-0.693308 1.76811,-1.32165 2.66457,-1.84961 -7.06654,4.12559 -13.2709,14.1862 -18.3969,18.2303l-0.0011811 0.0011811c-0.100394,-0.0236221 -0.201969,-0.046063 -0.304725,-0.0637796 -0.23504,-0.0448819 -0.470079,-0.0767717 -0.705119,-0.101575 -0.511418,-0.0472441 -1.02638,-0.0531496 -1.54134,-0.0248032 7.85906,10.4693 33.5091,27.0626 55.1256,29.3941 36.2067,3.90118 41.2099,43.9193 112.951,67.1079 5.79331,1.87087 10.826,2.4437 15.1866,2.0752l-0.00236221 0 0.00472441 0.0011811zm-57.5008 -88.2036c-1.02165,-2.6504 -2.39646,-5.37756 -4.29567,-8.23229l0 0c-0.165354,0.0165354 -0.33189,0.0271654 -0.50315,0.0377953 -0.274016,0.0200788 -0.544489,0.0413386 -0.817323,0.0590552 -1.9441,2.40709 -4.18111,5.05158 -6.65079,7.67008l12.2669 0.465355z"/>
    <path id="_414149600" class="fil12" d="M555.041 1663.58c-24.0709,1.71496 -43.3335,-0.454725 -53.1674,-9.12993 -15.248,-13.4492 -4.13622,-31.4622 -13.1906,-36.1902l0 0.0011811c0,0 -1.60984,1.71732 -4.65827,4.48347 -4.72678,4.29449 -12.9177,11.1189 -23.9445,17.9965 -0.00236221,0.0011811 -0.0106299,0.00590552 -0.0129921,0.00826772 -0.0318898,0.0212599 -0.0625985,0.0401575 -0.0968505,0.0602363 -0.00826772,0.00354331 -0.0129921,0.00708662 -0.0212599,0.011811 -0.0259843,0.0188977 -0.0519685,0.0330709 -0.080315,0.0507874 -0.0106299,0.00708662 -0.0212599,0.0129921 -0.0318898,0.0200788 -0.0259843,0.0165354 -0.0496063,0.0318898 -0.0755906,0.0472441 -0.0259843,0.0153543 -0.0519685,0.0330709 -0.0779528,0.0472441 -0.0165354,0.011811 -0.0307087,0.0188977 -0.046063,0.0295276 -0.0248032,0.0165354 -0.0507874,0.0318898 -0.0744095,0.0472441 -0.00708662,0.00354331 -0.0153543,0.00826772 -0.022441,0.011811 -0.0259843,0.0177165 -0.0507874,0.0330709 -0.0755906,0.0484252 -0.00826772,0.00236221 -0.0129921,0.00590552 -0.0212599,0.011811 -0.120473,0.0744095 -0.239764,0.147638 -0.360236,0.222047l0 0c-0.933072,0.572835 -1.88032,1.14331 -2.85118,1.7126 -0.00354331,0.00354331 -0.00590552,0.00590552 -0.0106299,0.00708662 -0.0236221,0.0141732 -0.0496063,0.0283465 -0.0732284,0.0448819 -0.0129921,0.00708662 -0.022441,0.0129921 -0.0354331,0.0200788 -0.0248032,0.0141732 -0.0448819,0.0248032 -0.0649607,0.0377953 -0.0177165,0.0106299 -0.0366142,0.0188977 -0.0519685,0.0295276 -0.0188977,0.0106299 -0.0389764,0.022441 -0.056693,0.0318898 -0.034252,0.0236221 -0.0696851,0.0413386 -0.103937,0.0649607l0 0c-0.896457,0.527953 -1.79173,1.15512 -2.66457,1.84961 3.8067,8.37993 8.80631,16.1244 16.0831,22.0169 12.4335,10.0772 32.2028,14.9421 47.2642,18.9473 8.74489,2.32559 17.3693,-1.99252 24.7784,-8.14607 -0.408662,-0.71693 -0.628347,-1.55197 -0.592914,-2.43543 0.00826772,-0.246851 0.0389764,-0.490158 0.0862205,-0.725197 0.435827,-2.1626 2.37992,-3.75945 4.65237,-3.66733l2.94213 0.111024c2.46969,-2.61851 4.7067,-5.263 6.65079,-7.67008l-0.0011811 0.0011811c0.00236221,-0.00236221 0.00354331,-0.00472441 0.00708662,-0.00826772z"/>
    <path id="_414149816" class="fil17" d="M573.211 1708.23c0.0011811,-0.00708662 0.00236221,-0.0129921 0.00354331,-0.0200788 -0.0011811,0.00708662 -0.00236221,0.0129921 -0.00354331,0.0200788zm0.00236221 -0.022441c0.0236221,-0.166536 0.0401575,-0.334252 0.0448819,-0.506693 0.0992127,-2.48032 -1.64291,-4.61811 -4.0063,-5.08701 2.36339,0.470079 4.10551,2.60551 4.0063,5.08701 -0.00472441,0.172441 -0.0212599,0.340158 -0.0448819,0.506693z"/>
    <path id="_414149864" class="fil16" d="M573.163 1708.5c0.0177165,-0.0874016 0.0330709,-0.178347 0.0472441,-0.269292 0.0011811,-0.00708662 0.00236221,-0.0129921 0.00354331,-0.0200788 -0.0011811,-0.00236221 -0.0011811,-0.00236221 -0.0011811,-0.00236221 0.0236221,-0.166536 0.0401575,-0.334252 0.0448819,-0.506693 0.0992127,-2.48032 -1.64291,-4.61811 -4.0063,-5.08701 -0.257481,-0.0496063 -0.519685,-0.0826772 -0.787796,-0.0921261l0 0 -2.68701 -0.102756 -15.7465 -0.598819c-2.4815,-0.0968505 -4.60748,1.63583 -5.08111,3.99567 -0.0531496,0.261024 -0.0862205,0.531496 -0.0956694,0.805512 -0.10748,2.75788 2.04331,5.07874 4.8,5.18268l18.4217 0.702756c0.764174,0.0283465 1.49528,-0.116929 2.15433,-0.398032 0.00708662,-0.00236221 0.0141732,-0.00590552 0.022441,-0.00944883 -0.00472441,-0.00236221 -0.00590552,-0.00590552 -0.00708662,-0.00826772 1.47284,-0.638977 2.59134,-1.96299 2.91851,-3.59174z"/>
    <path id="_414149360" class="fil16" d="M568.55 1692.14c0.0472441,-0.23504 0.0755906,-0.480709 0.0850394,-0.729922l-0.0011811 0c0.0897638,-2.27244 -1.50118,-4.22717 -3.66378,-4.65709 -0.23504,-0.0472441 -0.475985,-0.0755906 -0.720473,-0.0862205l0 0 -0.544489 -0.0200788 -16.3264 -0.623623c-2.2748,-0.0862205 -4.22126,1.50473 -4.65709,3.67087 -0.0472441,0.238583 -0.0779528,0.48189 -0.0874016,0.732284 -0.0933072,2.51693 1.87559,4.64055 4.39961,4.73386l16.8626 0.646063c0.198425,0.00826772 0.396851,0.00236221 0.589371,-0.0141732 0,-0.00236221 0,-0.00236221 0.00236221,-0.0011811 -0.0011811,-0.00472441 -0.0011811,-0.011811 -0.00236221,-0.0200788 2.01378,-0.183071 3.66851,-1.66181 4.06418,-3.63071z"/>
    <path id="_414149120" class="fil17" d="M566.617 1677.25c0.0472441,-0.233858 0.0779528,-0.474804 0.0862205,-0.722835 0.0897638,-2.27362 -1.50709,-4.22599 -3.67441,-4.65473 2.16732,0.42874 3.76418,2.3811 3.67441,4.65473 -0.0106299,0.248032 -0.0377953,0.487796 -0.0862205,0.725197 -0.0129921,0.0661418 -0.0283465,0.131102 -0.0437008,0.194882 0.0153543,-0.0649607 0.0318898,-0.131102 0.0448819,-0.197244l-0.0011811 0zm-0.0448819 0.20315c-0.0011811,0.00472441 -0.00236221,0.00944883 -0.00354331,0.0129921 0.0011811,-0.00354331 0.00236221,-0.00826772 0.00354331,-0.0129921z"/>
    <path id="_414149168" class="fil16" d="M566.617 1677.25c0.0472441,-0.236221 0.0755906,-0.478347 0.0862205,-0.725197 0.0897638,-2.27362 -1.50709,-4.22599 -3.67441,-4.65473 -0.23504,-0.0472441 -0.475985,-0.0755906 -0.722835,-0.0862205l-1.65473 -0.0637796 -12.2669 -0.465355 -2.94213 -0.111024c-2.27244,-0.090945 -4.21654,1.50354 -4.65237,3.66733 -0.0472441,0.23504 -0.0767717,0.478347 -0.0862205,0.725197 -0.0354331,0.883465 0.184252,1.71732 0.592914,2.43543 0.755906,1.32638 2.1626,2.24055 3.79843,2.30433l16.8721 0.643701c0.368504,0.011811 0.729922,-0.0165354 1.0748,-0.0862205 -0.0011811,-0.00708662 -0.00236221,-0.011811 -0.0011811,-0.0153543 1.71732,-0.351969 3.09803,-1.65236 3.52796,-3.35433 0.0011811,-0.00354331 0.00236221,-0.00826772 0.00354331,-0.0129921 0,-0.00236221 0.0011811,-0.00472441 0.0011811,-0.00590552 0.0153543,-0.0637796 0.0307087,-0.12874 0.0437008,-0.194882z"/>
    <path id="_414149720" class="fil22" d="M585.694 921.91c-2.38229,24.541 23.3362,30.1925 52.0335,32.9799 28.7067,2.78977 35.6788,31.3099 38.0611,6.77481 0,0 8.12717,-75.3142 10.1799,-147.995 0.696851,-24.6449 -1.50827,-41.5548 -30.2067,-44.3422 -28.7044,-2.78858 -62.2111,11.9067 -62.2111,36.5611 -0.0011811,83.491 -7.8567,116.022 -7.8567,116.021z"/>
    <path id="_414149576" class="fil1" d="M593.644 826.103c-2.53701,23.8217 46.0583,69.0119 83.732,69.9898l8.34213 -0.292914c37.6725,0.977954 69.0107,-28.767 69.9886,-66.443l1.9748 -75.8776c5.32205,-76.4339 -28.7622,-69.0107 -66.4382,-69.9922l-25.6394 0.297638c-37.6701,-0.982678 -69.0036,28.7634 -69.9898,66.4418l-1.97008 75.8764z"/>
    <path id="_414149432" class="fil10" d="M593.886 816.872c-67.4481,-137.36 30.6555,-173.595 77.6221,-165.571 142.776,5.93859 81.0473,64.2012 85.5615,69.4182 -138.771,-28.4315 -111.033,55.2237 -136.697,57.3059 -25.6736,2.08229 -8.57363,29.824 -26.4862,38.8465z"/>
    <path id="_414148448" class="fil1" d="M585.021 789.788c0,12.6319 10.2331,22.8685 22.8603,22.8685 12.6295,0 22.8685,-10.2366 22.8685,-22.8685 -0.0011811,-12.6272 -10.239,-22.8626 -22.8685,-22.8626 -12.6272,-0.0011811 -22.8603,10.2366 -22.8603,22.8626z"/>
    <path id="_414148424" class="fil23" d="M593.509 816.102l0 0c-1.20591,-2.47441 -2.36339,-4.92284 -3.46063,-7.33229 1.09724,2.41181 2.25236,4.8567 3.46181,7.33229l-0.0011811 0zm-3.50788 -7.43386c-0.00236221,-0.00590552 -0.00826772,-0.0212599 -0.0129921,-0.0283465 0.00472441,0.00944883 0.00826772,0.0200788 0.0129921,0.0283465z"/>
    <path id="_414148496" class="fil24" d="M593.601 826.564c0,-0.00236221 0,-0.00354331 0,-0.00944883 0,0.00236221 0,0.00708662 0,0.00944883l0 0zm0.011811 -0.140551c0,-0.00944883 0,-0.0141732 0.00236221,-0.022441 -0.00236221,0.00826772 -0.00236221,0.0129921 -0.00236221,0.022441zm0.00354331 -0.0590552c0.00236221,-0.00826772 0.00354331,-0.0177165 0.00354331,-0.0259843 -0.0011811,0.00826772 0,0.0177165 -0.00236221,0.0271654l-0.0011811 -0.0011811zm0.00708662 -0.0578741c0,-0.0177165 0.00236221,-0.0377953 0.00472441,-0.0531496 -0.00236221,0.0141732 -0.00472441,0.0354331 -0.00472441,0.0531496zm0.00708662 -0.080315c0.00236221,-0.0141732 0.00236221,-0.0248032 0.00472441,-0.0377953 -0.00236221,0.0106299 -0.00236221,0.0248032 -0.00472441,0.0377953l0 0zm0.00708662 -0.0637796c0.0011811,-0.0188977 0.00354331,-0.0389764 0.00590552,-0.0590552 -0.00236221,0.0188977 -0.00354331,0.0401575 -0.00590552,0.0602363l0 -0.0011811zm0.245669 -9.2941l0 0c-0.125197,-0.256299 -0.248032,-0.506693 -0.373229,-0.766536l-0.0011811 0c0.124016,0.255118 0.249213,0.511418 0.37441,0.766536z"/>
    <path id="_414148976" class="fil17" d="M443.031 1239.34c0.00236221,0 0.00236221,0 0.00472441,0 -0.00236221,0 -0.00236221,0 -0.00472441,0l0 0zm-0.0401575 0c-3.33544,-0.0177165 -6.42284,-2.17795 -7.45985,-5.53819l0 0c1.03701,3.36024 4.12441,5.52048 7.45985,5.53819l0 0zm2.35984 -0.35315l0 0c0.420473,-0.129921 0.822048,-0.291733 1.2,-0.479528 -0.381496,0.187795 -0.779528,0.349607 -1.2,0.479528l0 0zm1.22008 -0.491339c0.00472441,-0.0011811 0.011811,-0.00354331 0.0153543,-0.00590552 -0.00472441,0.00236221 -0.0106299,0.00472441 -0.0153543,0.00708662l0 -0.0011811zm5.71654 -3.24331l0 0 -1.50118 -5.0693c0,0 0,0 0,0.00236221l1.50118 5.06693zm-27.6827 -76.1847l0 0c0,0 -19.4551,-106.086 -19.6654,-141.849 0,-0.0484252 0,-0.0921261 0,-0.141732 0,0.0496063 0,0.0944883 0,0.141732 0.210236,35.7626 19.6654,141.849 19.6654,141.849l0 0zm-19.6654 -142.074c0,-0.0165354 0,-0.0354331 0,-0.0519685 0,0.0177165 0,0.034252 0,0.0519685zm28.7764 -42.8363c0.158268,-0.0696851 0.315355,-0.138189 0.474804,-0.205512 -0.159449,0.0661418 -0.317717,0.135827 -0.474804,0.205512z"/>
    <path id="_414148736" class="fil25" d="M554.559 1175.87c-3.31181,-0.562205 -6.62245,-1.12441 -9.93898,-1.68543 5.16733,-37.3335 42.1193,-285.228 46.2615,-292.66 0.996851,-3.87048 14.4886,24.4831 89.1615,34.1859 20.7756,21.2587 34.174,46.2851 43.1351,78.8516 10.5343,38.2772 -9.0756,199.709 -9.97087,208.537 -58.48,-7.97481 -98.2489,-16.9547 -158.648,-27.2292z"/>
    <path id="_414149024" class="fil26" d="M532.294 1362.56c-6.63189,-74.9091 -21.8421,-108.288 13.4988,-196.661 8.12717,2.13662 17.1201,4.67126 25.252,6.79489 32.2925,8.4319 64.7008,16.3571 97.0454,24.5929 18.0543,4.59922 26.2488,8.29253 44.5961,11.5772 -1.09843,12.6095 -0.35315,11.6374 -0.35315,11.6374l-34.0973 51.4229c-1.28976,3.45827 -2.91496,6.9626 -4.89449,10.5024l-7.81772 113.509c-30.4984,-21.2776 -102.729,-12.1016 -133.23,-33.3756z"/>
    <path id="_414148544" class="fil27" d="M561.957 1371.62l0 0c-0.729922,-0.412205 -1.46221,-0.822048 -2.19331,-1.23189 1.1185,0.627166 1.89803,1.06654 2.19331,1.23189z"/>
    <path id="_414148832" class="fil28" d="M527.281 1439.85c-1.12677,1.30394 -2.24764,2.5937 -3.36378,3.87402l-1.7126 1.9748 1.24843 -1.43976c1.09488,-1.25315 2.1874,-2.51693 3.29882,-3.79607l0.529134 -0.612993z"/>
    <path id="_414148568" class="fil23" d="M493.46 1476.71l0 0c-0.19252,0.183071 -0.380315,0.364961 -0.569292,0.54567l0 0c0.188977,-0.180709 0.376772,-0.362599 0.569292,-0.54567z"/>
    <path id="_414148184" class="fil29" d="M493.46 1476.71l0 0 0 0.0011811c0,0 0,-0.00236221 0,-0.0011811z"/>
    <path id="_414147968" class="fil28" d="M522.205 1445.7l-0.00590552 -0.00590552c-10.6618,12.1996 -20.6067,23.1685 -28.7386,31.0158l0 0.0011811c8.1319,-7.84489 18.0862,-18.8185 28.741,-31.0146l0.00354331 0.00354331z"/>
    <path id="_414148112" class="fil2" d="M613.145 1173.99l28.4079 -109.686 -15.998 -25.2626 -36.2162 -57.176c-4.87796,-7.71733 -7.20709,-16.3205 -7.20709,-24.8221l0 0c0.00236221,-15.4146 7.65945,-30.4925 21.652,-39.3437 0.0826772,-0.0543308 0.166536,-0.105118 0.251575,-0.157087 0.00826772,-0.00590552 0.0200788,-0.0129921 0.0283465,-0.0188977 7.64174,-4.75867 16.1315,-7.02993 24.5268,-7.03229 0.00236221,-0.0011811 0.00708662,0 0.00944883,0l0 -0.0011811c0.00590552,0 0.0129921,0.0011811 0.0177165,0.0011811 15.1075,0.00590552 29.889,7.36772 38.8016,20.8335 0.0318898,0.0472441 0.0602363,0.0921261 0.0921261,0.13937 0.022441,0.0330709 0.0425197,0.0673229 0.0649607,0.101575 0.00354331,0.00354331 0.00708662,0.0106299 0.011811,0.0153543 0.0366142,0.0602363 0.0779528,0.120473 0.11811,0.180709 0.080315,0.127559 0.161811,0.253937 0.242126,0.381496l5.08819 10.6051 7.0063 -27.0437c-69.9556,-9.08977 -86.217,-34.5461 -88.8095,-34.5461 -0.174803,0 -0.28937,0.116929 -0.351969,0.360236 -3.69922,6.63898 -33.6071,205.323 -43.6087,274.133l65.8725 18.3378zm-67.3524 -8.09056c0,0 0,0 0,0l0 0zm0.0519685 -0.367323l1.37953 -9.54213c-0.516142,3.54803 -0.979135,6.74292 -1.37953,9.54213z"/>
    <path id="_414147872" class="fil17" d="M712.687 1208.87c0.227953,-1.66654 0.377953,-3.56693 0.470079,-4.96536 -0.0921261,1.40079 -0.243307,3.30591 -0.470079,4.96536l0 0z"/>
    <path id="_414147800" class="fil30" d="M712.687 1208.87c0.225591,-1.65945 0.377953,-3.56457 0.470079,-4.96536 0.0200788,-0.294095 0.0366142,-0.562205 0.0496063,-0.804331l-0.519685 5.76969z"/>
    <path id="_414148040" class="fil1" d="M887.648 994.719c2.87244,3.66496 8.17442,4.30985 11.8417,1.43504l27.8268 -22.4197c3.66496,-2.87244 4.30985,-8.17205 1.43504,-11.837 -2.87008,-3.66733 -8.16969,-4.30985 -11.8406,-1.43976l-21.8705 17.1366c-3.66496,2.87244 -10.2626,13.4575 -7.39253,17.1248z"/>
    <path id="_414148280" class="fil1" d="M915.131 1040.9c2.9504,3.763 8.38583,4.42205 12.1524,1.47638l28.3949 -22.8685c3.76181,-2.94685 4.42205,-8.38938 1.4752,-12.1488 -2.94567,-3.763 -8.38701,-4.42087 -12.15,-1.4752l-28.3961 22.8662c-3.763,2.9504 -4.42323,8.38701 -1.47638,12.15z"/>
    <path id="_414147752" class="fil1" d="M898.455 1008.51c3.09685,3.94961 8.81221,4.64292 12.7642,1.54843l29.5264 -23.7543c3.95551,-3.09567 4.64528,-8.80749 1.54961,-12.7571 -3.09685,-3.95315 -8.80867,-4.65 -12.7618,-1.55315l-29.5264 23.7543c-3.95433,3.09449 -4.64528,8.80985 -1.55197,12.7618z"/>
    <path id="_414147824" class="fil1" d="M908.304 1023.89c3.09449,3.95197 8.80749,4.6441 12.7595,1.54961l29.5276 -23.752c3.95197,-3.09685 4.64646,-8.80985 1.54961,-12.7595 -3.09567,-3.9567 -8.80985,-4.64764 -12.7618,-1.55197l-29.5276 23.7496c-3.95197,3.09921 -4.64646,8.81575 -1.54725,12.7642z"/>
    <path id="_414148232" class="fil1" d="M899.025 974.475c0,0 -19.1929,3.43701 -23.498,5.53701 -19.7268,17.3799 -25.0193,52.0713 -13.1138,67.2627 17.8276,22.7528 43.6382,12.0272 58.8308,0.122835l9.42875 -7.62993 -31.6477 -65.2926z"/>
    <path id="_414148136" class="fil4" d="M946.038 1005.35c0,0 -0.461811,0.282284 -1.23543,0.812599 -0.746457,0.570473 -1.92992,1.22244 -3.23977,2.13189 -0.654331,0.45 -1.36417,0.937796 -2.11417,1.45512 -0.72756,0.538583 -1.54725,1.04528 -2.37756,1.59685 -1.67244,1.07599 -3.40985,2.29016 -5.14961,3.49607 -1.68543,1.2874 -3.47481,2.42126 -5.12835,3.52914 -1.65118,1.10787 -3.17008,2.18268 -4.45394,3.13583 -2.56536,1.91457 -4.21536,3.31772 -4.21536,3.31772 0,0 1.97244,-0.840946 4.8378,-2.29606 1.43032,-0.731103 3.08032,-1.62047 4.82481,-2.61732 1.76221,-0.967324 3.58465,-2.09173 5.31733,-3.35551 1.73504,-1.25906 3.47244,-2.51103 5.05748,-3.7441 1.61929,-1.17992 2.97638,-2.51811 4.15985,-3.60236 2.37284,-2.18268 3.71693,-3.85985 3.71693,-3.85985z"/>
    <path id="_406741232" class="fil4" d="M940.068 986.652c0,0 -1.90512,0.853938 -4.60748,2.36221 -1.35945,0.739371 -2.89607,1.68307 -4.59804,2.59016 -1.6937,0.924804 -3.45236,1.9748 -5.21457,3.02008 -3.49961,2.13425 -6.91182,4.40906 -9.40631,6.23386 -2.50276,1.81063 -4.08544,3.18307 -4.08544,3.18307 0,0 1.93228,-0.765355 4.69961,-2.15551 2.77441,-1.37717 6.38977,-3.37441 9.91772,-5.51221 1.7504,-1.08898 3.50433,-2.17441 5.10473,-3.2504 1.62992,-1.03937 3.04134,-2.16378 4.25197,-3.12402 2.42481,-1.91929 3.9378,-3.34725 3.9378,-3.34725z"/>
    <path id="_406746056" class="fil4" d="M928.641 972.519c0,0 -1.90512,0.855119 -4.60748,2.36339 -1.36063,0.739371 -2.89961,1.68425 -4.6004,2.59134 -1.69016,0.923623 -3.45,1.97362 -5.21457,3.02008 -3.49725,2.13307 -6.90945,4.40788 -9.40394,6.23504 -2.50394,1.81063 -4.08544,3.18189 -4.08544,3.18189 0,0 1.92992,-0.764174 4.69725,-2.15669 2.77677,-1.37717 6.39213,-3.37441 9.92009,-5.51221 1.74921,-1.09134 3.50197,-2.17323 5.10591,-3.2504 1.62874,-1.03937 3.0378,-2.1626 4.24843,-3.12638 2.42481,-1.91575 3.94016,-3.34607 3.94016,-3.34607z"/>
    <path id="_406737128" class="fil4" d="M899.025 974.475c0,0 -1.37599,0.591733 -3.2941,1.64882 -1.92992,1.04173 -4.40197,2.56772 -6.84213,4.11614 -1.20354,0.797245 -2.40709,1.59685 -3.53386,2.34449 -1.11969,0.758268 -2.16732,1.46457 -3.0626,2.07047 -0.882284,0.661418 -1.66772,1.04646 -2.20512,1.42205 -0.544489,0.364961 -0.855119,0.575197 -0.855119,0.575197 0,0 0.360236,-0.0531496 0.998032,-0.185433 0.620079,-0.157087 1.59685,-0.295276 2.60197,-0.745276 1.0252,-0.414567 2.26063,-0.882284 3.45709,-1.55788 1.2248,-0.638977 2.5004,-1.37953 3.72992,-2.17677 2.46851,-1.58977 4.76457,-3.41457 6.4004,-4.89449 1.64528,-1.46811 2.60669,-2.61732 2.60551,-2.61732z"/>
    <path id="_406732064" class="fil1" d="M679.679 1124.5c13.7291,21.7051 42.4559,28.1788 64.1646,14.4425 21.7051,-13.7221 7.73741,-39.3992 -5.99174,-61.1138l-69.9048 -145.68c-13.7303,-21.7028 -42.4524,-28.1729 -64.1634,-14.4425 -21.7075,13.7315 -28.1681,42.4559 -14.4449,64.1658l90.3402 142.628z"/>
    <path id="_406726160" class="fil2" d="M625.32 1040.25l-36.8918 -58.2437c-13.9807,-22.115 -7.39843,-51.3756 14.7154,-65.3634 22.115,-13.9878 51.3744,-7.39607 65.3623,14.713l26.641 55.5225c-22.0205,22.0193 -47.8063,31.3512 -69.8268,53.3717z"/>
    <path id="_406719896" class="fil1" d="M877.4 1062.74c27.4984,-20.3717 14.4366,-17.6457 6.84922,-35.2016 -7.58859,-17.5465 -7.64174,-26.2477 -25.1941,-18.6603l-157.133 60.2197c-23.5736,10.1953 -36.0485,24.9662 -25.8544,48.5422 10.1906,23.5701 31.5201,35.7485 61.1434,24.2315 36.7111,-14.276 140.189,-79.1316 140.189,-79.1316z"/>
    <path id="_406744808" class="fil27" d="M719.268 1146.14c8.09528,-0.0413386 16.265,-2.19803 23.6729,-6.65552 -2.05276,0.904725 -3.96733,1.70551 -5.72953,2.39173 -6.37678,2.47795 -12.3626,3.85985 -17.9433,4.26378z"/>
    <path id="_406744736" class="fil31" d="M678.428 1122.53c-0.00472441,-0.00944883 -0.00944883,-0.0177165 -0.0141732,-0.0271654l-36.8611 -58.193 0 0.00354331 36.8752 58.2166z"/>
    <path id="_406744952" class="fil32" d="M641.553 1064.31l0 -0.00354331 -15.998 -25.2591c0,0 0,0.0011811 0,0.0011811l-36.2162 -57.1772c-4.87796,-7.71733 -7.20709,-16.3205 -7.20709,-24.8221 0,8.50158 2.32914,17.1047 7.20709,24.8221l36.2162 57.176 15.998 25.2626z"/>
    <path id="_406744904" class="fil23" d="M841.222 1084.92c2.62677,-1.58268 5.16851,-3.12166 7.59686,-4.59449 -0.0011811,0 -0.0011811,0 -0.0011811,0 -2.43189,1.47756 -4.96418,3.00945 -7.59449,4.59449l-0.0011811 0zm24.1358 -4.49292l0 0c0.367323,-0.135827 0.729922,-0.274016 1.09252,-0.419292 -0.360236,0.145276 -0.725197,0.284646 -1.09252,0.419292l0 0zm1.09488 -0.421654c0.0153543,-0.00472441 0.0307087,-0.0106299 0.0472441,-0.0177165 -0.0165354,0.00590552 -0.0318898,0.011811 -0.0472441,0.0177165l0 0zm0.0602363 -0.0248032c0.0129921,-0.00472441 0.0248032,-0.00826772 0.0377953,-0.0129921 -0.0129921,0.00354331 -0.0248032,0.00944883 -0.0377953,0.0129921l0 0zm0.0602363 -0.022441c0.00944883,-0.00472441 0.0188977,-0.00590552 0.0271654,-0.0106299 -0.00826772,0.00236221 -0.0177165,0.00590552 -0.0259843,0.0106299l-0.0011811 0zm0.0555119 -0.022441c0.00708662,-0.00354331 0.0141732,-0.00590552 0.0212599,-0.00826772 -0.00708662,0.0011811 -0.0141732,0.00472441 -0.0200788,0.00826772l-0.0011811 0zm0.0614174 -0.0271654c0.00236221,0 0.00236221,0.0011811 0.00472441,0.0011811 -0.00236221,-0.0011811 -0.00236221,0 -0.00472441,0l0 -0.0011811zm51.5681 -30.2894c1.03347,-0.729922 2.03032,-1.4752 2.98583,-2.22284l9.42875 -7.62993 -9.42875 7.62993c-0.955513,0.747638 -1.95236,1.4941 -2.98583,2.22284z"/>
    <path id="_406744880" class="fil33" d="M918.124 1024.83c0,0 1.7374,-0.740552 4.32048,-2.03386 0.168898,-0.0862205 0.340158,-0.172441 0.517323,-0.262205 1.43032,-0.731103 3.08032,-1.62047 4.82481,-2.61732 0.159449,-0.0897638 0.322441,-0.179528 0.483071,-0.26811 1.61102,-0.905906 3.25866,-1.93701 4.83426,-3.0874 1.73504,-1.25906 3.47244,-2.51103 5.05748,-3.7441 1.61929,-1.17992 2.97638,-2.51811 4.15985,-3.60236 2.32205,-2.1378 3.65906,-3.7878 3.71457,-3.85748 0.00236221,-0.00236221 0.00236221,-0.00236221 0.00236221,-0.00236221 0,0 -0.461811,0.282284 -1.23543,0.812599 -0.746457,0.570473 -1.92992,1.22244 -3.23977,2.13189 -0.654331,0.45 -1.36417,0.937796 -2.11417,1.45512 -0.72756,0.538583 -1.54725,1.04528 -2.37756,1.59685 -1.67244,1.07599 -3.40985,2.29016 -5.14961,3.49607 -1.68543,1.2874 -3.47481,2.42126 -5.12835,3.52914 -1.65118,1.10787 -3.17008,2.18268 -4.45394,3.13583 -0.129921,0.0956694 -0.255118,0.191339 -0.377953,0.282284 -2.34921,1.76811 -3.8374,3.03544 -3.8374,3.03544z"/>
    <path id="_406745120" class="fil34" d="M906.714 990.335l16.6252 -13.3961c-0.0011811,0.0011811 -0.00354331,0.00354331 -0.00826772,0.00590552l-16.4445 13.2496 -0.172441 0.140551zm20.0114 -16.1232l0.590552 -0.477166 -0.590552 0.477166c0,0 0,0 0,0z"/>
    <path id="_406745168" class="fil35" d="M906.887 990.194l16.4445 -13.2496c-0.552756,0.427559 -1.14213,0.869292 -1.76575,1.30394l-14.6788 11.9457zm19.839 -15.9827l0.590552 -0.477166c0.302362,-0.237402 0.579922,-0.497244 0.837402,-0.770079 -0.327166,0.295276 -0.810237,0.722835 -1.42795,1.24725z"/>
    <path id="_406744928" class="fil36" d="M921.565 978.248c0.623623,-0.433465 1.21299,-0.875198 1.76575,-1.30276 0.00472441,-0.00236221 0.00708662,-0.00472441 0.00826772,-0.00590552l3.38622 -2.72717c0,0 0,0 0,0 0.617717,-0.52441 1.10079,-0.951969 1.42795,-1.24725 0.090945,-0.0968505 0.18189,-0.194882 0.26811,-0.292914l0.219685 -0.152362 -0.165354 0.102756 -6.91064 5.62559z"/>
    <path id="_406745048" class="fil12" d="M712.238 1214.73c0.421654,-3.07323 1.0311,-12.8634 1.0311,-12.8634l-165.997 -46.2154 -2.65394 18.5268c0,0 112.13,30.0414 167.62,40.552z"/>
   </g>
   <g>
    <rect id="_406744472" class="fil37" x="941.074" y="255.998" width="701.987" height="541.116"/>
    <rect id="_406744496" class="fil38" x="977.637" y="292.559" width="628.863" height="467.993"/>
    <path id="_406743992" class="fil39" d="M1055.82 626.206c-9.32009,0 -16.8756,-7.55552 -16.8756,-16.8756 0,-9.3189 7.55552,-16.8744 16.8756,-16.8744l233.522 0c0.878741,-0.141732 1.77992,-0.216142 2.69764,-0.216142 0.917717,0 1.8189,0.0744095 2.69764,0.216142l233.579 0c9.32009,0 16.8756,7.55552 16.8756,16.8744 0,9.32009 -7.55552,16.8756 -16.8756,16.8756l-37.7221 0c-0.276378,0.394488 -0.571654,0.780709 -0.885827,1.1563 -35.4697,42.3603 -59.928,85.6264 -73.376,129.795 -13.3299,43.7894 -15.9095,88.8048 -7.73505,135.044 1.60158,9.17481 -4.53662,17.9114 -13.7114,19.5118 -9.17363,1.60158 -17.9102,-4.53662 -19.5118,-13.7102 -3.11221,-17.6067 -4.81181,-35.0788 -5.1,-52.4185l-61.3583 0 0 95.9705c0,9.3189 -7.55552,16.8744 -16.8756,16.8744 -9.32009,0 -16.8756,-7.55552 -16.8756,-16.8744l0 -95.9705 -59.7012 0c-0.28937,17.3386 -1.98898,34.8118 -5.10237,52.4185 -1.60158,9.17363 -10.3382,15.3118 -19.5118,13.7102 -9.17363,-1.60039 -15.3118,-10.337 -13.7102,-19.5118 8.1756,-46.239 5.59725,-91.2532 -7.73386,-135.041 -13.4469,-44.1685 -37.9075,-87.4359 -73.3772,-129.797 -0.315355,-0.375591 -0.61063,-0.761812 -0.885827,-1.1563l-39.3213 0zm158.404 185.628l60.9402 0 0 -33.828 -65.8642 0c2.25709,11.2169 3.89882,22.4941 4.92402,33.828zm-13.6288 -67.5792l74.569 0 0 -33.541 -87.1075 0c4.80945,11.1024 8.9882,22.2827 12.5386,33.541zm-29.2347 -67.291l103.804 0 0 -50.7579 -137.021 0c12.6118,16.728 23.6847,33.6461 33.2173,50.7579zm276.232 -50.7579l-138.677 0 0 50.7579 105.46 0c9.53268,-17.1118 20.6043,-34.0299 33.2173,-50.7579zm-49.9134 84.5079l-88.7635 0 0 33.541 76.226 0c3.54922,-11.2571 7.72796,-22.4386 12.5374,-33.541zm-21.2421 67.2922l-67.5213 0 0 33.828 62.5961 0c1.02638,-11.335 2.66693,-22.611 4.9252,-33.828z"/>
    <path id="_406743968" class="fil40" d="M1051.19 626.206c-9.50198,0 -17.2051,-7.70316 -17.2051,-17.2063 0,-9.50198 7.70316,-17.2051 17.2051,-17.2051l481.753 0c9.50198,0 17.2063,7.70316 17.2063,17.2051 0,9.50316 -7.70434,17.2063 -17.2063,17.2063l-481.753 0z"/>
    <polygon id="_406744352" class="fil41" points="1292.07,255.998 1643.06,255.998 1643.06,797.114 1292.07,797.114 1292.07,760.553 1313.2,744.255 "/>
    <polygon id="_406744328" class="fil42" points="1292.07,292.559 1606.5,292.559 1606.5,760.553 1292.07,760.553 "/>
    <path id="_406743560" class="fil43" d="M1292.07 592.239c0.908268,0.0011811 1.8,0.0767717 2.67047,0.214961l233.579 0c9.32009,0 16.8756,7.5567 16.8756,16.8756 0,9.32009 -7.55552,16.8756 -16.8756,16.8756l-37.7221 0c-0.276378,0.394488 -0.571654,0.780709 -0.885827,1.1563 -35.4697,42.3603 -59.9292,85.6264 -73.376,129.795 -13.3299,43.7894 -15.9095,88.8048 -7.73505,135.044 1.60039,9.17481 -4.53662,17.9102 -13.7114,19.5118 -9.17363,1.60158 -17.9102,-4.53662 -19.5118,-13.7102 -3.11221,-17.6067 -4.81181,-35.0799 -5.1,-52.4185l-61.3583 0 0 95.9705c0,9.30946 -7.54016,16.8591 -16.8484,16.8744l0 -366.189zm155.525 33.9662l-138.677 0 0 50.7579 105.46 0c9.53268,-17.1118 20.6043,-34.0299 33.2173,-50.7579zm-49.9134 84.5079l-88.7635 0 0 33.541 76.226 0c3.5504,-11.2571 7.72796,-22.4386 12.5374,-33.541zm-21.2433 67.2922l-67.5201 0 0 33.828 62.5961 0c1.02638,-11.335 2.66811,-22.611 4.92402,-33.828z"/>
    <path id="_406743344" class="fil44" d="M1292.07 591.793l240.878 0c9.50198,0 17.2063,7.70434 17.2063,17.2063 0,9.50316 -7.70434,17.2063 -17.2063,17.2063l-240.878 0 0 -34.4126z"/>
   </g>
   <g>
    <g>
     <path id="_406743080" class="fil45" d="M1083.44 403.096c40.8189,49.2555 33.9803,122.276 -15.2764,163.096 -49.2555,40.8189 -122.276,33.9803 -163.096,-15.2764 -40.8189,-49.2555 -33.9803,-122.276 15.2764,-163.096 49.2555,-40.8189 122.276,-33.9803 163.096,15.2764z"/>
     <path id="_406743488" class="fil13" d="M1068.16 566.193c-0.853938,0.707481 -1.71732,1.39843 -2.58662,2.07756l-71.7615 -86.5914 -28.3453 23.491 0.836221 1.14449c7.44922,10.213 12.1512,21.9614 14.4921,34.3441 2.40827,12.7417 2.29252,25.9925 0.244488,38.7957 -0.0602363,0.377953 -1.37835,9.19961 -1.86024,12.391 -2.18268,-0.285827 -4.35945,-0.628347 -6.52441,-1.03819 0.493701,-3.24803 1.86024,-12.3827 1.94055,-12.9059 1.84843,-11.8831 1.93465,-24.1689 -0.298819,-35.9847 -2.12126,-11.2158 -6.33308,-21.8906 -12.998,-31.1953l-0.94252 -1.31575 -53.1355 44.0339c-0.72756,-0.829134 -1.44803,-1.66772 -2.15669,-2.52284 -0.707481,-0.853938 -1.39843,-1.71732 -2.07756,-2.58662l53.1355 -44.0351 -1.1185 -1.17047c-7.90512,-8.27717 -17.6114,-14.3976 -28.2402,-18.5634 -11.3445,-4.44213 -23.3587,-6.38032 -35.7886,-6.96378 -0.347244,-0.0165354 -8.33386,0.154725 -12.5504,0.23504 -0.0153543,-2.20512 0.0330709,-4.40906 0.144095,-6.61064 4.22835,-0.0862205 12.3154,-0.264567 12.691,-0.253937 12.9177,0.376772 25.9146,2.72362 37.9465,7.44095 11.7343,4.59922 22.4043,11.4012 31.0559,20.6173l0.970867 1.03347 28.3453 -23.491 -71.7603 -86.5914c0.829134,-0.72756 1.66772,-1.44803 2.52284,-2.15669 0.853938,-0.707481 1.71732,-1.39843 2.58662,-2.07756l71.7615 86.5914 28.3453 -23.491 -0.836221 -1.14449c-7.44922,-10.213 -12.1512,-21.9614 -14.4921,-34.3441 -2.40118,-12.7004 -2.29252,-25.9063 -0.264567,-38.6693 0.0590552,-0.372048 1.73622,-8.28426 2.60669,-12.4228 2.18268,0.3 4.35827,0.661418 6.52205,1.08543 -0.862205,4.12914 -2.51339,11.9445 -2.56181,12.2882 -1.73504,12.3225 -2.06103,24.4878 0.196063,36.4607 2.12126,11.2158 6.33308,21.8906 12.998,31.1953l0.94252 1.31575 53.1355 -44.0339c0.72756,0.829134 1.44803,1.66772 2.15669,2.52284 0.707481,0.853938 1.39843,1.71732 2.07756,2.58662l-53.1355 44.0351 1.1185 1.17047c7.90512,8.27717 17.6114,14.3976 28.2402,18.5634 11.1945,4.38898 23.2831,6.58701 35.3032,6.97678 0.527953,0.0177165 9.75709,0.372048 13.0417,0.490158 0,2.20276 -0.0673229,4.40433 -0.19252,6.60237 -3.22441,-0.11811 -12.1382,-0.461811 -12.5209,-0.472441 -12.9602,-0.364961 -26.002,-2.71181 -38.074,-7.44449 -11.7343,-4.59922 -22.4043,-11.4012 -31.0559,-20.6173l-0.970867 -1.03347 -28.3453 23.491 71.7603 86.5914c-0.829134,0.72756 -1.66772,1.44803 -2.52284,2.15669z"/>
    </g>
    <g>
     <path id="_406742600" class="fil46" d="M1083.44 403.096c40.8189,49.2555 33.9803,122.276 -15.2764,163.096 -49.2555,40.8189 -122.276,33.9803 -163.096,-15.2764l0 0 178.371 -147.821 0.0011811 0.0011811z"/>
     <path id="_406742888" class="fil47" d="M1068.16 566.193c-0.853938,0.707481 -1.71732,1.39843 -2.58662,2.07756l-71.7615 -86.5914 -28.3453 23.491 0.836221 1.14449c7.44922,10.213 12.1512,21.9614 14.4921,34.3441 2.40827,12.7417 2.29252,25.9925 0.244488,38.7957 -0.0602363,0.377953 -1.37835,9.19961 -1.86024,12.391 -2.18268,-0.285827 -4.35945,-0.628347 -6.52441,-1.03819 0.493701,-3.24803 1.86024,-12.3827 1.94055,-12.9059 1.84843,-11.8831 1.93465,-24.1689 -0.298819,-35.9847 -2.12126,-11.2158 -6.33308,-21.8906 -12.998,-31.1953l-0.94252 -1.31575 -53.1355 44.0339c-0.72756,-0.829134 -1.44803,-1.66772 -2.15669,-2.52284l0 0 178.371 -147.821 0.0011811 0.0011811c0.707481,0.853938 1.39843,1.71732 2.07756,2.58662l-53.1355 44.0351 1.1185 1.17047c7.90512,8.27717 17.6114,14.3976 28.2402,18.5634 11.1945,4.38898 23.2831,6.58701 35.3032,6.97678 0.527953,0.0177165 9.75709,0.372048 13.0417,0.490158 0,2.20276 -0.0673229,4.40433 -0.19252,6.60237 -3.22441,-0.11811 -12.1382,-0.461811 -12.5209,-0.472441 -12.9602,-0.364961 -26.002,-2.71181 -38.074,-7.44449 -11.7343,-4.59922 -22.4043,-11.4012 -31.0559,-20.6173l-0.970867 -1.03347 -28.3453 23.491 71.7603 86.5914c-0.829134,0.72756 -1.66772,1.44803 -2.52284,2.15669z"/>
    </g>
   </g>
  </g>
  <rect class="fil48" width="2048" height="2048"/>
 </g>
</svg>
