<?xml version="1.0" encoding="UTF-8"?>
<!DOCTYPE svg PUBLIC "-//W3C//DTD SVG 1.1//EN" "http://www.w3.org/Graphics/SVG/1.1/DTD/svg11.dtd">
<!-- Creator: CorelDRAW -->
<svg xmlns="http://www.w3.org/2000/svg" xml:space="preserve" width="2048px" height="2048px" style="shape-rendering:geometricPrecision; text-rendering:geometricPrecision; image-rendering:optimizeQuality; fill-rule:evenodd; clip-rule:evenodd"
viewBox="0 0 2048 2048"
 xmlns:xlink="http://www.w3.org/1999/xlink">
 <defs>
  <style type="text/css">
   <![CDATA[
    .fil1 {fill:none}
    .fil5 {fill:none;fill-rule:nonzero}
    .fil8 {fill:#161616}
    .fil6 {fill:#1A1A1A}
    .fil9 {fill:#1B1B1B}
    .fil7 {fill:#212121}
    .fil11 {fill:#4FC3F7}
    .fil10 {fill:#81D4FA}
    .fil4 {fill:#CC4F29}
    .fil2 {fill:#212121;fill-rule:nonzero}
    .fil0 {fill:#B32C04;fill-rule:nonzero}
    .fil3 {fill:#BF360C;fill-rule:nonzero}
   ]]>
  </style>
 </defs>
 <g id="Layer_x0020_1">
  <metadata id="CorelCorpID_0Corel-Layer"/>
  <polygon class="fil0" points="950.186,922.194 1346.45,1332.53 1327.13,1358.16 930.865,947.828 "/>
  <line class="fil1" x1="448.001" y1="319.999" x2="386.474" y2= "811.809" />
  <polygon class="fil2" points="455.939,320.967 394.412,812.777 378.535,810.84 440.063,319.03 "/>
  <line class="fil1" x1="576" y1="298.19" x2="496.974" y2= "960" />
  <polygon class="fil2" points="583.939,299.127 504.912,960.937 489.036,959.062 568.062,297.252 "/>
  <line class="fil1" x1="702.97" y1="328.627" x2="618.943" y2= "1035.44" />
  <polygon class="fil2" points="710.908,329.564 626.881,1036.37 611.005,1034.5 695.032,327.689 "/>
  <line class="fil1" x1="325.229" y1="666.618" x2="1034.05" y2= "731.509" />
  <polygon class="fil2" points="325.948,658.68 1034.77,723.571 1033.33,739.447 324.509,674.556 "/>
  <line class="fil1" x1="832.001" y1="351.998" x2="747.975" y2= "1033.81" />
  <polygon class="fil2" points="839.939,352.967 755.913,1034.78 740.037,1032.84 824.063,351.03 "/>
  <line class="fil1" x1="949.394" y1="451.017" x2="885.496" y2= "986.142" />
  <polygon class="fil2" points="957.333,451.955 893.434,987.08 877.557,985.204 941.456,450.079 "/>
  <line class="fil1" x1="326.359" y1="538.721" x2="1035.18" y2= "603.612" />
  <polygon class="fil2" points="327.078,530.783 1035.9,595.674 1034.46,611.55 325.64,546.659 "/>
  <line class="fil1" x1="352.001" y1="415.999" x2="960.862" y2= "478.94" />
  <polygon class="fil2" points="352.813,408.061 961.674,471.002 960.049,486.878 351.188,423.937 "/>
  <line class="fil1" x1="462.234" y1="323.447" x2="831.356" y2= "357.24" />
  <polygon class="fil2" points="462.954,315.509 832.075,349.302 830.637,365.178 461.515,331.386 "/>
  <line class="fil1" x1="367.656" y1="806.788" x2="992.631" y2= "871.68" />
  <polygon class="fil2" points="368.469,798.85 993.444,863.742 991.818,879.618 366.844,814.726 "/>
  <line class="fil1" x1="468.005" y1="942.176" x2="879.07" y2= "984.859" />
  <polygon class="fil2" points="468.818,934.237 879.883,976.921 878.258,992.798 467.192,950.114 "/>
  <path class="fil3" d="M796.686 368.962c-130.773,-64.6252 -284.863,-72.7193 -380.911,20.1732 -96.8434,93.6615 -95.1213,246.405 -36.0981,378.138 21.7264,48.4926 51.28,94.0926 86.6658,132.95 34.904,38.328 75.2942,69.8292 119.169,90.6804 100.774,47.8949 222.217,39.1807 340.14,-73.9501 117.587,-112.808 131.209,-232.44 87.6072,-333.868 -19.2071,-44.68 -49.2107,-86.1556 -86.2182,-122.33 -37.6158,-36.7701 -82.3524,-68.0729 -130.355,-91.793zm-425.162 -25.826c117.744,-113.877 300.532,-106.975 453.411,-31.4244 53.9103,26.6398 104.222,61.8626 146.604,103.292 42.991,42.0237 77.9445,90.4347 100.469,142.832 53.6091,124.708 38.4402,270.282 -102.106,405.117 -140.812,135.091 -288.169,144.384 -411.642,85.702 -51.7477,-24.5929 -98.8867,-61.1977 -139.169,-105.432 -39.802,-43.7067 -73.1079,-95.139 -97.6642,-149.948 -69.0768,-154.172 -68.543,-335.397 50.0965,-450.139z"/>
  <path class="fil4" d="M385.428 357.513c-116.558,112.729 -107.725,289.258 -45.7489,427.584 23.5323,52.5237 55.441,102.099 94.2001,144.66 37.5638,41.25 82.4375,76.8201 132.966,100.834 22.7646,10.8189 46.6122,19.3016 71.2099,24.8504 122.071,27.5362 230.706,-23.1721 318.001,-106.921 86.3883,-82.8768 141.881,-188.438 119.662,-310.429 -4.53189,-24.887 -12.098,-49.128 -22.0831,-72.3579 -22.0866,-51.3756 -56.2087,-97.4576 -96.0757,-136.428 -41.2583,-40.33 -89.7698,-74.1083 -141.486,-99.6639 -135.144,-66.7843 -314.087,-84.8611 -430.647,27.8705zm420.118 -6.48071c49.5402,24.4807 95.9493,56.7863 135.474,95.4213 37.6347,36.7878 69.7654,80.2383 90.6131,128.734 7.83308,18.2221 13.989,37.1445 18.1524,56.5418 25.1091,116.995 -27.0933,219.842 -110.288,299.657 -44.2193,42.4217 -96.1749,77.6127 -155.354,95.1438 -49.715,14.7272 -100.832,15.7878 -151.058,2.89607 -19.3394,-4.96418 -38.1296,-11.8902 -56.1579,-20.4579 -47.6729,-22.6571 -89.9387,-56.3693 -125.372,-95.2784 -37.0607,-40.6961 -67.6264,-88.0123 -90.13,-138.238 -43.9819,-98.1662 -61.8863,-219.513 -16.089,-320.361 13.715,-30.2008 32.6847,-57.2646 56.5347,-80.3316 109.176,-105.589 277.709,-85.9737 403.675,-23.7272z"/>
  <line class="fil5" x1="1700.5" y1="1674.16" x2="1700.5" y2= "1674.16" />
  <g id="_357591600">
   <path id="_357591360" class="fil6" d="M1380.41 1475l90.5091 -90.5103 294.157 294.157c24.8906,24.8906 24.8906,65.6186 0,90.5091l-0.0011811 0c-24.8906,24.8906 -65.6186,24.8906 -90.5091,0l-294.156 -294.156z"/>
   <polygon id="_357591504" class="fil7" points="1372.36,1483.98 1256.31,1288.78 1284.06,1263.69 1479.9,1376.44 1508.63,1405.17 1401.09,1512.71 "/>
  </g>
  <g id="_357590448">
   <path id="_357591192" class="fil8" d="M1380.41 1475l44.4319 -44.4319 339.399 339.399c-24.9579,24.0709 -65.0599,23.804 -89.6753,-0.811418l-294.156 -294.156z"/>
   <polygon id="_357590736" class="fil9" points="1372.36,1483.98 1256.31,1288.78 1270.35,1276.08 1454.03,1459.76 1401.09,1512.71 "/>
  </g>
  <g id="_357756728">
   <path id="_357590520" class="fil7" d="M687.035 1612.83l162.5 0 0 81.2505c0,44.6882 -36.5611,81.2493 -81.2493,81.2493l-0.0011811 0c-44.6882,0 -81.2493,-36.5611 -81.2493,-81.2493l0 -81.2505z"/>
   <path id="_357590640" class="fil10" d="M623.54 1312c0,0 0,0 0.0767717,0 26.2276,0 53.5937,33.5988 59.9327,69.6449 6.16182,35.0315 11.5264,65.3776 16.1811,91.7977 4.10551,23.3032 7.76457,44.0516 11.0362,62.5371 2.93977,16.6075 5.59252,31.6181 7.99961,45.2622 2.19213,12.4287 4.2189,23.8087 6.07205,34.2969 1.52008,8.60316 -6.47245,15.1394 -17.5713,15.0638 -0.0318898,0 -0.0330709,0 -0.0330709,0 -11.1473,-0.0767717 -22.5083,-6.73111 -25.5071,-15.3295 -3.65315,-10.4764 -7.62875,-21.8811 -11.9681,-34.3299 -4.74095,-13.6004 -9.98505,-28.6323 -15.776,-45.254 -6.43465,-18.4725 -13.6665,-39.2044 -21.7843,-62.4827 -9.20552,-26.4012 -19.7728,-56.7213 -31.9772,-91.7186 -12.5374,-35.9551 -2.87008,-69.4878 23.3185,-69.4878z"/>
   <path id="_357590424" class="fil11" d="M719.233 1312c-0.0767717,0 -0.0767717,0 -0.0767717,0 -26.2654,0 -41.9457,33.5988 -35.6067,69.6449 6.16182,35.0315 11.5264,65.3776 16.1811,91.7977 4.10551,23.3032 7.76457,44.0516 11.0362,62.5371 2.93977,16.6075 5.59252,31.6181 7.99961,45.2622 2.19213,12.4287 4.2189,23.8087 6.07205,34.2969 1.52008,8.60316 11.7921,15.2658 22.9394,15.3425 0,0 0.0011811,0 0.0330709,0 11.1473,0.0755906 20.2949,-6.43111 20.2595,-15.0768 -0.0437008,-10.4622 -0.0708662,-21.8858 -0.119291,-34.3264 -0.0519685,-13.5898 -0.0992127,-28.617 -0.147638,-45.2374 -0.0543308,-18.5032 -0.13937,-39.2398 -0.21378,-62.5607 -0.0850394,-26.4461 -0.146457,-56.85 -0.242126,-91.9099 -0.0992127,-36.1122 -21.8492,-69.7701 -48.1146,-69.7701z"/>
   <path id="_357590400" class="fil10" d="M815.079 1312c0,0 0,0 0.0767717,0 26.4579,0 42.3863,33.7158 36.1807,69.9591 -6.013,35.1189 -11.2004,65.4863 -15.7264,91.9583 -3.99095,23.3374 -7.53308,44.0977 -10.6807,62.6162 -2.82166,16.6028 -5.38819,31.6134 -7.7126,45.2445 -2.11772,12.4228 -4.06063,23.8547 -5.8441,34.3252 -1.46811,8.62205 -11.7591,15.1347 -22.9217,15.0591 -0.0318898,0 -0.0318898,-0.0011811 -0.0318898,-0.0011811 -11.1803,-0.0767717 -20.3138,-6.71103 -20.3492,-15.3567 -0.0437008,-10.4622 -0.0708662,-21.8858 -0.119291,-34.3264 -0.0519685,-13.5898 -0.0992127,-28.617 -0.147638,-45.2374 -0.0543308,-18.5032 -0.13937,-39.2398 -0.21378,-62.5607 -0.0850394,-26.4461 -0.146457,-56.85 -0.242126,-91.9099 -0.0992127,-36.1122 21.3508,-69.7701 47.7319,-69.7701z"/>
   <path id="_357590376" class="fil11" d="M911.54 1312c-0.0767717,0 -0.0767717,0 -0.0767717,0 -26.4957,0 -53.9209,33.7158 -60.1264,69.9591 -6.013,35.1189 -11.2004,65.4863 -15.7264,91.9583 -3.99095,23.3374 -7.53308,44.0977 -10.6807,62.6162 -2.82166,16.6028 -5.38819,31.6134 -7.7126,45.2445 -2.11772,12.4228 -4.06063,23.8547 -5.8441,34.3252 -1.46811,8.62205 6.5563,15.261 17.752,15.339 0,0 0,0.0011811 0.0330709,0.0011811 11.1626,0.0755906 22.6677,-6.44174 25.6406,-15.0402 3.62244,-10.4799 7.55906,-21.8941 11.8618,-34.3559 4.70197,-13.6158 9.89765,-28.6051 15.6473,-45.2528 6.38977,-18.5043 13.5626,-39.2469 21.6366,-62.6067 9.15709,-26.4945 19.6996,-56.9469 31.8508,-92.1036 12.5469,-36.3012 2.31851,-70.0843 -24.2551,-70.0843z"/>
   <rect id="_412080496" class="fil7" x="682.753" y="1618.29" width="171.063" height="26.8335"/>
  </g>
  <rect class="fil1" width="2048" height="2048"/>
 </g>
</svg>
