<?xml version="1.0" encoding="UTF-8"?>
<!DOCTYPE svg PUBLIC "-//W3C//DTD SVG 1.1//EN" "http://www.w3.org/Graphics/SVG/1.1/DTD/svg11.dtd">
<!-- Creator: CorelDRAW -->
<svg xmlns="http://www.w3.org/2000/svg" xml:space="preserve" width="2048px" height="2048px" style="shape-rendering:geometricPrecision; text-rendering:geometricPrecision; image-rendering:optimizeQuality; fill-rule:evenodd; clip-rule:evenodd"
viewBox="0 0 2048 2048"
 xmlns:xlink="http://www.w3.org/1999/xlink">
 <defs>
  <style type="text/css">
   <![CDATA[
    .fil0 {fill:#212121}
    .fil4 {fill:#656565;fill-rule:nonzero}
    .fil3 {fill:#757575;fill-rule:nonzero}
    .fil2 {fill:#A81D1D;fill-rule:nonzero}
    .fil1 {fill:#B71C1C;fill-rule:nonzero}
   ]]>
  </style>
 </defs>
 <g id="Layer_x0020_1">
  <metadata id="CorelCorpID_0Corel-Layer"/>
  <polygon class="fil0" points="1079.89,410.869 1066.89,398.64 473.41,1022.11 1068.95,1651.3 1081.87,1639 492.662,1024.59 "/>
  <polygon class="fil1" points="445.251,1003.78 1603.28,1003.78 1603.28,1044.22 445.251,1044.22 "/>
  <polygon class="fil2" points="424.53,944.143 505.186,1024.79 426.131,1103.85 347.916,1103.55 430.946,1024.8 347.916,946.015 "/>
  <polygon class="fil2" points="1567.74,936.171 1642.43,1010.86 1655.57,1024 1642.43,1037.13 1567.74,1111.82 "/>
  <path class="fil3" d="M1134.11 1750.38c5.31496,16.8437 -4.03111,34.8095 -20.8748,40.1244 -16.8437,5.31496 -34.8095,-4.03111 -40.1244,-20.8748 -72.528,-228.766 257.348,-487.526 248.218,-747.984 -8.82875,-251.881 -318.926,-520.243 -248.218,-743.267 5.31496,-16.8437 23.2807,-26.1898 40.1244,-20.8748 16.8437,5.31496 26.1898,23.2807 20.8748,40.1244 -28.037,88.4339 57.5682,202.806 148.373,324.125 95.6705,127.819 196.616,262.697 193.456,402.251 3.15945,139.553 -97.7859,274.432 -193.456,402.251 -90.8044,121.319 -176.41,235.692 -148.373,324.125z"/>
  <path class="fil4" d="M1098.89 1791.64c-11.7047,-1.75512 -21.978,-9.96615 -25.7788,-22.0122 -72.528,-228.766 257.348,-487.526 248.218,-747.984 -8.82875,-251.881 -318.926,-520.243 -248.218,-743.267 3.80079,-12.0461 14.074,-20.2571 25.7788,-22.0122 1.30394,0.245669 2.60669,0.622441 3.90355,1.1374 13.3677,5.31496 20.7851,23.2807 16.5673,40.1244 -22.2508,88.4339 45.6874,202.806 117.754,324.125 75.9272,127.819 156.041,262.697 153.534,402.251 2.50748,139.553 -77.6068,274.432 -153.534,402.251 -72.0662,121.319 -140.004,235.692 -117.754,324.125 4.21772,16.8437 -3.19961,34.8095 -16.5673,40.1244 -1.29685,0.514961 -2.59961,0.891733 -3.90355,1.1374z"/>
 </g>
</svg>
