<?xml version="1.0" encoding="UTF-8"?>
<!DOCTYPE svg PUBLIC "-//W3C//DTD SVG 1.1//EN" "http://www.w3.org/Graphics/SVG/1.1/DTD/svg11.dtd">
<!-- Creator: CorelDRAW -->
<svg xmlns="http://www.w3.org/2000/svg" xml:space="preserve" width="2048px" height="2048px" style="shape-rendering:geometricPrecision; text-rendering:geometricPrecision; image-rendering:optimizeQuality; fill-rule:evenodd; clip-rule:evenodd"
viewBox="0 0 2048 2048"
 xmlns:xlink="http://www.w3.org/1999/xlink">
 <defs>
  <style type="text/css">
   <![CDATA[
    .fil1 {fill:#1F988C;fill-rule:nonzero}
    .fil3 {fill:#212121;fill-rule:nonzero}
    .fil0 {fill:#26A69A;fill-rule:nonzero}
    .fil5 {fill:#B80606;fill-rule:nonzero}
    .fil4 {fill:#D50000;fill-rule:nonzero}
    .fil2 {fill:#EF6C00;fill-rule:nonzero}
   ]]>
  </style>
 </defs>
 <g id="Layer_x0020_1">
  <metadata id="CorelCorpID_0Corel-Layer"/>
  <path class="fil0" d="M1071.94 1268.71l365.86 -992.083 10.8555 -28.4233 28.8945 9.42284 68.3315 22.2862 30.8445 10.0606 -10.5945 30.6898c-0.303544,0.881103 -148.893,404.175 -347.894,981.106l-146.297 -33.0591z"/>
  <path class="fil1" d="M1518.55 270.996l1.00866 0.328347 26.3221 8.58544 30.8445 10.0606 -10.5945 30.6898c-0.303544,0.881103 -148.893,404.175 -347.894,981.106l-76.0949 -17.1957 -0.0578741 -0.0129921 376.466 -1013.56z"/>
  <path class="fil2" d="M1004.89 1410.15l58.1965 -152.382 165.567 41.3918 -27.1465 78.6981c-7.52481,21.8114 -14.5937,46.017 -22.3441,72.5623 -34.7374,118.973 -81.8528,280.329 -177.697,321.274 -20.6835,8.83938 -39.1618,13.9063 -57.8563,16.7941 -18.6898,2.88662 -35.9658,3.50906 -55.1552,3.50906l-245.392 0 -1.50118 0 0 -0.125197c-28.252,0.00236221 -42.0437,0.00354331 -58.415,-9.76891 -14.5736,-8.69764 -22.4693,-20.5323 -37.8874,-43.6453l-3.6378 -5.44725c-13.1232,-19.6158 -25.4894,-42.6118 -31.591,-64.317 -4.76457,-16.9406 -5.92205,-33.7571 -1.48937,-49.1741l-0.115748 -0.0330709c5.37048,-18.6532 17.6114,-33.424 39.1571,-41.9162 11.0079,-4.33819 24.3496,-6.75355 40.3819,-6.75355l292.077 0c18.6532,0 37.9252,-14.876 55.6878,-35.6882 31.4398,-36.8386 55.9949,-90.4902 69.1607,-124.978z"/>
  <polygon class="fil3" points="704,1792 672.95,1792 672.95,1570.82 704,1570.82 "/>
  <polygon class="fil3" points="767.125,1792 736.075,1792 736.075,1570.82 767.125,1570.82 "/>
  <g id="_357594264">
   <path id="_357594384" class="fil4" d="M895.313 1413.53c0,4.25315 -0.612993,8.47323 -1.80945,12.6378 -1.08662,3.77953 -2.69292,7.48819 -4.7941,11.1024 -12.489,21.4701 -47.4981,38.491 -95.895,48.7347 -41.3823,8.75906 -94.8426,14.061 -152.811,14.061 -63.9331,0 -122.46,-6.4878 -165.402,-16.9736 -55.5544,-13.5673 -89.9162,-37.8296 -89.9162,-69.5623l0.125197 0 0.0011811 -3.06969c0.0011811,-1.25079 0.0011811,-2.11299 -0.00590552,-2.78622 -0.106299,-0.543308 -0.212599,-1.1185 -0.307087,-1.69134l-0.500788 -5.12481 0 -70.5213c23.2382,19.2154 55.2544,30.8882 82.526,37.5485 55.1079,13.4575 116.876,17.9362 173.476,17.9362 56.6008,0 118.369,-4.47992 173.477,-17.9362 27.261,-6.65788 59.2642,-18.326 82.5012,-37.5284 -0.0637796,11.8134 -0.256299,25.0217 -0.446457,38.1839 -0.108662,7.49646 -0.218504,15.0449 -0.218504,44.9894z"/>
   <path id="_357594696" class="fil5" d="M640 1267.17c64.1233,0 122.822,4.68189 165.886,12.2492 55.6772,9.7819 90.1146,27.2705 90.1146,50.1378 0,22.8673 -34.4374,40.3548 -90.1146,50.1367 -43.0642,7.56733 -101.763,12.2492 -165.886,12.2492 -64.1221,0 -122.821,-4.68307 -165.885,-12.2492 -55.6772,-9.78308 -90.1158,-27.2693 -90.1158,-50.1367 0,-22.8685 34.4386,-40.3548 90.1158,-50.1378 43.0642,-7.56615 101.763,-12.2492 165.885,-12.2492z"/>
  </g>
 </g>
</svg>
