<?xml version="1.0" encoding="UTF-8"?>
<!DOCTYPE svg PUBLIC "-//W3C//DTD SVG 1.1//EN" "http://www.w3.org/Graphics/SVG/1.1/DTD/svg11.dtd">
<!-- Creator: CorelDRAW -->
<svg xmlns="http://www.w3.org/2000/svg" xml:space="preserve" width="6.82666in" height="6.82666in" style="shape-rendering:geometricPrecision; text-rendering:geometricPrecision; image-rendering:optimizeQuality; fill-rule:evenodd; clip-rule:evenodd"
viewBox="0 0 6.82666 6.82666"
 xmlns:xlink="http://www.w3.org/1999/xlink">
 <defs>
  <style type="text/css">
   <![CDATA[
    .fil0 {fill:none}
    .fil6 {fill:#BF360C}
    .fil2 {fill:#F28D01}
    .fil1 {fill:#F78201}
    .fil3 {fill:#F79A17}
    .fil4 {fill:#FFA600}
    .fil5 {fill:#FFAF19}
   ]]>
  </style>
 </defs>
 <g id="Layer_x0020_1">
  <metadata id="CorelCorpID_0Corel-Layer"/>
  <g id="_438950616">
   <path id="_438950880" class="fil0" d="M3.41333 2.28289c0.264673,0 0.509937,0.0947638 0.711303,0.256118 0.165138,-0.0735315 0.348693,-0.114543 0.542087,-0.114543 0.721618,0 1.30661,0.570457 1.30661,1.27415 0,0.703697 -0.584992,1.27416 -1.30661,1.27416 -0.193394,0 -0.376949,-0.0410118 -0.542087,-0.114543 -0.201366,0.16135 -0.44663,0.256114 -0.711303,0.256114 -0.264673,0 -0.509937,-0.0947638 -0.711303,-0.256114 -0.165138,0.0735315 -0.348693,0.114543 -0.542087,0.114543 -0.721618,0 -1.30661,-0.570461 -1.30661,-1.27416 0,-0.703697 0.584992,-1.27415 1.30661,-1.27415 0.193394,0 0.376949,0.0410118 0.542087,0.114543 0.201366,-0.161354 0.44663,-0.256118 0.711303,-0.256118z"/>
   <path id="_438951216" class="fil1" d="M3.41333 2.28289c0.264673,0 0.509937,0.0947638 0.711303,0.256118 0.165138,-0.0735315 0.348693,-0.114543 0.542087,-0.114543 0.325756,0 0.623638,0.116276 0.852465,0.308551 0.0395591,0.0345236 0.0771063,0.0700236 0.112425,0.106496 0.212244,0.226543 0.34172,0.528075 0.34172,0.859106 0,0.331071 -0.129516,0.632634 -0.341799,0.859189 -0.0352756,0.0364291 -0.0727913,0.0718898 -0.112303,0.106378 -0.228823,0.192303 -0.526732,0.308591 -0.852508,0.308591 -0.193394,0 -0.376949,-0.0410118 -0.542087,-0.114543 -0.201366,0.16135 -0.44663,0.256118 -0.711303,0.256118 -0.264673,0 -0.509937,-0.0947677 -0.711303,-0.256118 -0.165138,0.0735315 -0.348693,0.114543 -0.542087,0.114543 -0.325776,0 -0.623677,-0.116287 -0.852508,-0.308591 -0.0395157,-0.0344843 -0.0770197,-0.0699528 -0.112303,-0.106378 -0.212287,-0.226551 -0.341799,-0.528114 -0.341799,-0.859189 0,-0.331031 0.129484,-0.632559 0.34172,-0.859106 0.035315,-0.0364724 0.0728661,-0.0719724 0.112425,-0.106496 0.228819,-0.192283 0.526709,-0.308551 0.852465,-0.308551 0.193394,0 0.376949,0.0410118 0.542087,0.114543 0.201366,-0.161354 0.44663,-0.256118 0.711303,-0.256118z"/>
   <path id="_438951336" class="fil2" d="M3.41333 2.28289c0.264673,0 0.509937,0.0947638 0.711303,0.256118 0.165028,-0.0734843 0.348445,-0.114488 0.541693,-0.114543 0.443102,0.301894 0.725925,0.760531 0.725925,1.27415 0,0.513626 -0.282823,0.97226 -0.725921,1.27416 -0.193252,-5.90551e-005 -0.376669,-0.041063 -0.541697,-0.114543 -0.201366,0.16135 -0.44663,0.256118 -0.711303,0.256118 -0.264673,0 -0.509937,-0.0947677 -0.711303,-0.256118 -0.165028,0.0734803 -0.348445,0.114484 -0.541697,0.114543 -0.443098,-0.301898 -0.725921,-0.760531 -0.725921,-1.27416 0,-0.513622 0.282823,-0.97226 0.725925,-1.27415 0.193248,5.51181e-005 0.376665,0.0410591 0.541693,0.114543 0.201366,-0.161354 0.44663,-0.256118 0.711303,-0.256118z"/>
   <path id="_438951240" class="fil3" d="M3.41333 2.28289c0.264673,0 0.509937,0.0947638 0.711303,0.256118 0.061815,-0.0275236 0.126213,-0.0504921 0.192736,-0.0684567 0.278366,0.301465 0.453669,0.739913 0.453669,1.22807 0,0.488157 -0.175303,0.926606 -0.453669,1.22807 -0.0665236,-0.0179685 -0.130921,-0.0409331 -0.192736,-0.0684567 -0.201366,0.16135 -0.44663,0.256118 -0.711303,0.256118 -0.264673,0 -0.509937,-0.0947677 -0.711303,-0.256118 -0.061815,0.0275236 -0.126213,0.0504882 -0.192736,0.0684567 -0.278366,-0.301465 -0.453669,-0.739913 -0.453669,-1.22807 0,-0.488154 0.175303,-0.926602 0.453669,-1.22807 0.0665236,0.0179646 0.130921,0.0409331 0.192736,0.0684567 0.201366,-0.161354 0.44663,-0.256118 0.711303,-0.256118z"/>
   <path id="_438950424" class="fil4" d="M3.41333 2.28289c0.153791,0 0.301031,0.0320079 0.436909,0.0904724 0.181709,0.299783 0.299587,0.78172 0.299587,1.32526 0,0.543535 -0.117878,1.02547 -0.299583,1.32526 -0.135882,0.0584646 -0.283118,0.0904724 -0.436913,0.0904724 -0.153795,0 -0.301031,-0.0320079 -0.436913,-0.0904724 -0.181705,-0.299787 -0.299583,-0.781724 -0.299583,-1.32526 0,-0.543535 0.117878,-1.02547 0.299587,-1.32526 0.135878,-0.0584646 0.283118,-0.0904724 0.436909,-0.0904724z"/>
   <path id="_438950160" class="fil5" d="M3.41333 5.11435c-0.153795,0 -0.301031,-0.0320079 -0.436913,-0.0904724 -0.181705,-0.299787 -0.299583,-0.781724 -0.299583,-1.32526 0,-0.543535 0.117878,-1.02547 0.299587,-1.32526 0.135878,-0.0584646 0.283118,-0.0904724 0.436909,-0.0904724l0 2.83146z"/>
   <path id="_438950688" class="fil6" d="M3.86226 2.31908c0,0.12763 -0.221705,0.00617717 -0.470823,0.00617717 -0.249114,0 -0.431311,0.121453 -0.431311,-0.00617717 0,-0.264102 0.262299,0.0444606 0.262299,-0.500496l0.377535 -0.10628c0,0.684193 0.262299,0.345413 0.262299,0.606776z"/>
  </g>
  <rect class="fil0" width="6.82666" height="6.82666"/>
 </g>
</svg>
