<?xml version="1.0" encoding="UTF-8"?>
<!DOCTYPE svg PUBLIC "-//W3C//DTD SVG 1.1//EN" "http://www.w3.org/Graphics/SVG/1.1/DTD/svg11.dtd">
<!-- Creator: CorelDRAW -->
<svg xmlns="http://www.w3.org/2000/svg" xml:space="preserve" width="6.82666in" height="6.82666in" style="shape-rendering:geometricPrecision; text-rendering:geometricPrecision; image-rendering:optimizeQuality; fill-rule:evenodd; clip-rule:evenodd"
viewBox="0 0 6.82666 6.82666"
 xmlns:xlink="http://www.w3.org/1999/xlink">
 <defs>
  <style type="text/css">
   <![CDATA[
    .fil8 {fill:none}
    .fil2 {fill:#424242}
    .fil5 {fill:#455A64}
    .fil4 {fill:#799A60}
    .fil3 {fill:#81B548}
    .fil1 {fill:#97C06E}
    .fil0 {fill:#AED581}
    .fil6 {fill:#DD2C00}
    .fil7 {fill:#263238;fill-rule:nonzero}
   ]]>
  </style>
 </defs>
 <g id="Layer_x0020_1">
  <metadata id="CorelCorpID_0Corel-Layer"/>
  <g id="_275239800">
   <path id="_275240424" class="fil0" d="M4.8648 5.44153c0.00567717,-0.00983465 0.0107323,-0.0200157 0.0151339,-0.0304843 0.0139331,-0.0331181 0.0214291,-0.068437 0.0214291,-0.104402l0 -3.50686 0.226709 0c0.051378,0 0.100496,0.0204331 0.136803,0.0567362 0.0363031,0.0363071 0.0567362,0.0854252 0.0567362,0.136799l0 2.35677c0,0.0676339 0.0266339,0.131559 0.0744331,0.179366 0.0477913,0.0477992 0.111713,0.0744331 0.179335,0.0744331 0.0675315,0 0.131299,-0.0267441 0.179012,-0.0744449 0.047815,-0.0478031 0.074878,-0.111622 0.074878,-0.179354l0 -2.82846c0,-0.368535 -0.300059,-0.668591 -0.668594,-0.668591l-4.10869 0c-0.0094252,0 -0.0186181,0.00256299 -0.0268228,0.00716142 -0.0082126,0.00460236 -0.0150197,0.011315 -0.0199252,0.0193465 -0.00256693,0.00420866 -0.00472047,0.00877165 -0.00607874,0.0135236 -0.00130709,0.00455906 -0.00170472,0.00998031 -0.00175197,0.0146969l0 0.00061811c4.33071e-005,0.00420079 0.000397638,0.00867323 0.00140945,0.0127638 0.000988189,0.00400787 0.00266535,0.00799213 0.00454724,0.0116535l0.0153701 0.0299409 0 0.000401575 0.535909 1.04259c0.000283465,0.000555118 0.000570866,0.00111024 0.000870079,0.00165748l0.0172717 0.0313583 0 3.26789c0,0.0359646 0.00749606,0.0712874 0.0214173,0.104406 0.00440157,0.0104685 0.00945669,0.0206496 0.0151299,0.0304803l3.25547 0z"/>
   <path id="_275240544" class="fil1" d="M1.57067 0.853035l-0.518689 0c-0.0094252,0 -0.0186181,0.00256299 -0.0268228,0.00716142 -0.0082126,0.00460236 -0.0150197,0.011315 -0.0199252,0.0193465 -0.00256693,0.00420866 -0.00472047,0.00877165 -0.00607874,0.0135236 -0.00130709,0.00455906 -0.00170472,0.00998031 -0.00175197,0.0146969l0 0.00061811c4.33071e-005,0.00420079 0.000397638,0.00867323 0.00140945,0.0127638 0.000988189,0.00400787 0.00266535,0.00799213 0.00454724,0.0116535l0.0153701 0.0299409 0 0.000401575 0.535909 1.04259c0.000283465,0.000555118 0.000570866,0.00111024 0.000870079,0.00165748l0.0151614 0.0275315 0 -1.18189z"/>
   <path id="_275240640" class="fil2" d="M2.0487 4.60423l0.250598 0 0 0.111386 -0.250598 0 0 0.202835c0,0.00753937 0.00316929,0.0144843 0.00826378,0.0195787 0.00509843,0.00509843 0.0120354,0.00826378 0.0195748,0.00826378l0.306299 0c0.00753543,0 0.0144764,-0.00316929 0.0195748,-0.00826772 0.00509843,-0.00509843 0.00826772,-0.0120394 0.00826772,-0.0195748l0 -2.3947c0,-0.00753937 -0.00316535,-0.0144803 -0.00826378,-0.0195748 -0.00509449,-0.00509449 -0.0120394,-0.00826378 -0.0195787,-0.00826378l-0.306299 0c-0.00753937,0 -0.0144803,0.00316929 -0.0195748,0.00826378 -0.00509449,0.00509055 -0.00826378,0.0120354 -0.00826378,0.0195748l0 0.361992 0.250598 0 0 0.111386 -0.250598 0 0 0.175028 0.250598 0 0 0.111386 -0.250598 0 0 0.175031 0.250598 0 0 0.111382 -0.250598 0 0 0.175031 0.250598 0 0 0.111386 -0.250598 0 0 0.175028 0.250598 0 0 0.111386 -0.250598 0 0 0.175031 0.250598 0 0 0.111382 -0.250598 0 0 0.175031z"/>
   <path id="_275240808" class="fil3" d="M2.07654 2.27315l0.306299 0c0.0690315,0 0.131713,0.0281654 0.177079,0.0735276 0.0453661,0.045374 0.0735315,0.108051 0.0735315,0.177079l0 2.3947c0,0.0690354 -0.0281654,0.131717 -0.0735354,0.177075 -0.0453622,0.0453701 -0.108051,0.0735354 -0.177075,0.0735354l-0.306299 0c-0.0690276,0 -0.131705,-0.0281654 -0.177079,-0.0735315 -0.0453622,-0.0453622 -0.0735276,-0.108047 -0.0735276,-0.177079l0 -2.3947c0,-0.0690354 0.0281654,-0.131713 0.0735276,-0.177079 0.0453661,-0.0453622 0.108043,-0.0735276 0.177079,-0.0735276z"/>
   <path id="_275240496" class="fil4" d="M4.76471 5.9623l0.0037126 -0.00372047c0.00966929,-0.00969291 0.0152913,-0.022315 0.0152913,-0.0360709l0 -0.337665c0,-0.0323543 -0.00685039,-0.0640827 -0.019752,-0.0937283 -0.00456299,-0.0105 -0.00990551,-0.0206575 -0.0159488,-0.0303819l-0.0155276 -0.0249724 -2.99071 0 -0.0157756 0.0252559c-0.00600394,0.00962205 -0.011315,0.0196772 -0.0158386,0.0300787 -0.0128937,0.0296496 -0.0197441,0.0613937 -0.0197441,0.093748l0 0.337665c0,0.0137283 0.00526378,0.0264488 0.0149724,0.0361575 0.00970079,0.00970472 0.0224331,0.0149606 0.0361535,0.0149606l2.99105 0c0.0118937,0 0.0230433,-0.00395276 0.032122,-0.0113268z"/>
   <path id="_275240952" class="fil1" d="M4.90367 0.853035l0 0.946744 0.224402 0c0.051378,0 0.100496,0.0204331 0.136803,0.0567362 0.0363031,0.0363071 0.0567362,0.0854252 0.0567362,0.136799l0 2.35677c0,0.0676339 0.0266339,0.131559 0.0744331,0.179366 0.0477913,0.0477992 0.111713,0.0744331 0.179335,0.0744331 0.0675315,0 0.131299,-0.0267441 0.179012,-0.0744449 0.047815,-0.0478031 0.074878,-0.111622 0.074878,-0.179354l0 -2.82846c0,-0.368535 -0.300059,-0.668591 -0.668594,-0.668591l-0.257004 0z"/>
   <path id="_275239560" class="fil5" d="M5.82698 1.46661c-0.0209685,-0.255902 -0.186803,-0.471524 -0.415067,-0.564496 0.00314961,0.114531 0.0518465,0.244992 0.143728,0.359996 0.0786969,0.0984961 0.175445,0.168587 0.271339,0.2045z"/>
   <path id="_275239896" class="fil6" d="M5.80621 1.34956c0.060374,-0.187319 -0.0433898,-0.194571 -0.102496,-0.270157 -0.0524488,-0.0670748 -0.090685,-0.210185 -0.227622,-0.141512l0.330118 0.411669z"/>
   <path id="_275240112" class="fil7" d="M1.82594 2.49982l0.222165 0 0 0.0519331 -0.222165 0 0 -0.0519331zm0 2.39063l0.222165 0 0 0.051937 -0.222165 0 0 -0.051937zm0 -0.199217l0.370874 0 0 0.0519331 -0.370874 0 0 -0.0519331zm0 -0.19922l0.222165 0 0 0.0519331 -0.222165 0 0 -0.0519331zm0 -0.19922l0.370874 0 0 0.051937 -0.370874 0 0 -0.051937zm0 -0.199217l0.222165 0 0 0.0519331 -0.222165 0 0 -0.0519331zm0 -0.19922l0.370874 0 0 0.051937 -0.370874 0 0 -0.051937zm0 -0.199217l0.222165 0 0 0.0519331 -0.222165 0 0 -0.0519331zm0 -0.19922l0.370874 0 0 0.0519331 -0.370874 0 0 -0.0519331zm0 -0.19922l0.222165 0 0 0.051937 -0.222165 0 0 -0.051937zm0 -0.199217l0.370874 0 0 0.0519331 -0.370874 0 0 -0.0519331zm0 -0.19922l0.222165 0 0 0.0519331 -0.222165 0 0 -0.0519331zm0 -0.19922l0.370874 0 0 0.051937 -0.370874 0 0 -0.051937z"/>
  </g>
  <rect class="fil8" width="6.82666" height="6.82666"/>
 </g>
</svg>
