<?xml version="1.0" encoding="UTF-8"?>
<!DOCTYPE svg PUBLIC "-//W3C//DTD SVG 1.1//EN" "http://www.w3.org/Graphics/SVG/1.1/DTD/svg11.dtd">
<!-- Creator: CorelDRAW -->
<svg xmlns="http://www.w3.org/2000/svg" xml:space="preserve" width="6.82666in" height="6.82666in" style="shape-rendering:geometricPrecision; text-rendering:geometricPrecision; image-rendering:optimizeQuality; fill-rule:evenodd; clip-rule:evenodd"
viewBox="0 0 6.82666 6.82666"
 xmlns:xlink="http://www.w3.org/1999/xlink">
 <defs>
  <style type="text/css">
   <![CDATA[
    .str0 {stroke:#9CA913;stroke-width:0.166665}
    .fil5 {fill:none}
    .fil3 {fill:#242424}
    .fil0 {fill:#83571C}
    .fil1 {fill:#BAB93D}
    .fil2 {fill:#CDCC72}
    .fil4 {fill:#DCDEA4}
   ]]>
  </style>
 </defs>
 <g id="Layer_x0020_1">
  <metadata id="CorelCorpID_0Corel-Layer"/>
  <g id="_435137608">
   <path id="_435141136" class="fil0" d="M3.99824 0.985264c1.32816,0.217681 2.29642,1.91901 1.81771,3.34083 -0.478713,1.42183 -1.80378,1.75894 -3.13194,1.54126 -1.32815,-0.217673 -2.00695,-1.55369 -1.68093,-2.87813 0.326028,-1.32444 1.667,-2.22165 2.99516,-2.00397z"/>
   <ellipse id="_435141208" class="fil1 str0" transform="matrix(1.17651 0.212415 -0.317425 1.27978 3.15617 3.33639)" rx="1.86086" ry="1.87922"/>
   <path id="_435140752" class="fil2" d="M3.51553 2.06461c0.331886,-0.12689 0.627276,0.099311 0.719106,0.515181 0.262512,0.207094 0.321472,0.603858 0.114902,0.951059 0.0040748,0.469224 -0.238217,0.811598 -0.556614,0.829819 -0.301354,0.428874 -0.678823,0.533594 -0.902067,0.222484 -0.519969,0.176929 -0.815362,-0.0492756 -0.719106,-0.515181 -0.450594,-0.157055 -0.509555,-0.553823 -0.114902,-0.951055 -0.192154,-0.419189 0.0501378,-0.761567 0.556614,-0.829819 0.113272,-0.378835 0.49074,-0.483567 0.902067,-0.222488z"/>
   <ellipse id="_435140992" class="fil3" cx="3.38037" cy="2.17018" rx="0.104403" ry="0.363312"/>
   <ellipse id="_435140944" class="fil3" transform="matrix(0.878754 0.428939 -0.703416 1.44107 3.90061 2.29037)" rx="0.106768" ry="0.226563"/>
   <ellipse id="_435141064" class="fil3" transform="matrix(0.601542 0.770937 -1.26426 0.986468 4.2218 2.65653)" rx="0.106768" ry="0.226563"/>
   <ellipse id="_435140080" class="fil3" transform="matrix(0.202405 0.956676 -1.56885 0.331924 4.40008 3.12232)" rx="0.106768" ry="0.226563"/>
   <ellipse id="_435139792" class="fil3" transform="matrix(-0.237757 0.948509 -1.55546 -0.389897 4.35598 3.6191)" rx="0.106768" ry="0.226563"/>
   <ellipse id="_435139984" class="fil3" transform="matrix(-0.629728 0.748091 -1.22679 -1.03269 4.09843 4.04619)" rx="0.106768" ry="0.226563"/>
   <ellipse id="_435139768" class="fil3" transform="matrix(-0.894062 0.396044 -0.649472 -1.46617 3.67963 4.31704)" rx="0.106768" ry="0.226563"/>
   <ellipse id="_435140488" class="fil3" transform="matrix(-0.894062 0.396044 -0.649472 -1.46617 2.71896 2.14833)" rx="0.106768" ry="0.226563"/>
   <g>
    <ellipse id="_435140320" class="fil4" transform="matrix(0.218066 0.111756 -0.731365 1.42709 3.84826 2.23347)" rx="0.106768" ry="0.226563"/>
    <ellipse id="_435139912" class="fil4" transform="matrix(0.168722 0.177695 -1.16288 1.10416 4.13375 2.47265)" rx="0.106768" ry="0.226563"/>
    <ellipse id="_435139864" class="fil4" transform="matrix(0.100317 0.223559 -1.46303 0.656505 4.34072 2.7956)" rx="0.106768" ry="0.226563"/>
    <ellipse id="_435139240" class="fil4" transform="matrix(0.0205807 0.24417 -1.59791 0.134686 4.42901 3.16888)" rx="0.106768" ry="0.226563"/>
    <ellipse id="_435139024" class="fil4" transform="matrix(-0.0614809 0.237197 -1.55228 -0.402348 4.38863 3.55033)" rx="0.106768" ry="0.226563"/>
    <ellipse id="_435139696" class="fil4" transform="matrix(-0.136597 0.203429 -1.3313 -0.893931 4.22414 3.89686)" rx="0.106768" ry="0.226563"/>
    <ellipse id="_435139360" class="fil4" transform="matrix(-0.196283 0.146681 -0.959923 -1.28453 3.95413 4.16931)" rx="0.106768" ry="0.226563"/>
    <ellipse id="_435139336" class="fil4" transform="matrix(-0.233795 0.0733632 -0.480109 -1.53002 3.6091 4.33692)" rx="0.106768" ry="0.226563"/>
    <ellipse id="_435139600" class="fil4" transform="matrix(-0.244897 -0.00824247 0.053941 -1.60267 3.22802 4.38074)" rx="0.106768" ry="0.226563"/>
    <ellipse id="_435139624" class="fil4" transform="matrix(0.242777 0.0331936 -0.217228 1.5888 3.1467 4.46397)" rx="0.106768" ry="0.226563"/>
    <ellipse id="_435139288" class="fil4" transform="matrix(0.218066 0.111756 -0.731365 1.42709 2.76645 4.34437)" rx="0.106768" ry="0.226563"/>
    <ellipse id="_435138376" class="fil4" transform="matrix(0.168722 0.177695 -1.16288 1.10416 2.41365 4.10589)" rx="0.106768" ry="0.226563"/>
    <ellipse id="_435138712" class="fil4" transform="matrix(0.100317 0.223559 -1.46303 0.656505 2.17665 3.76668)" rx="0.106768" ry="0.226563"/>
    <ellipse id="_435138328" class="fil4" transform="matrix(0.0205807 0.24417 -1.59791 0.134686 2.06543 3.3681)" rx="0.106768" ry="0.226563"/>
    <ellipse id="_435138280" class="fil4" transform="matrix(-0.0614809 0.237197 -1.55228 -0.402348 2.09254 2.95519)" rx="0.106768" ry="0.226563"/>
    <ellipse id="_435138808" class="fil4" transform="matrix(-0.136597 0.203429 -1.3313 -0.893931 2.25493 2.57459)" rx="0.106768" ry="0.226563"/>
    <ellipse id="_435138592" class="fil4" transform="matrix(-0.196283 0.146681 -0.959923 -1.28453 2.53425 2.26928)" rx="0.106768" ry="0.226563"/>
    <ellipse id="_435138760" class="fil4" transform="matrix(-0.233795 0.0733632 -0.480109 -1.53002 2.89894 2.07377)" rx="0.106768" ry="0.226563"/>
    <ellipse id="_435138256" class="fil4" transform="matrix(-0.244897 -0.00824247 0.053941 -1.60267 3.30781 2.01012)" rx="0.106768" ry="0.226563"/>
   </g>
   <ellipse id="_435137848" class="fil3" cx="3.38037" cy="4.54214" rx="0.104403" ry="0.363312"/>
   <ellipse id="_435137824" class="fil3" transform="matrix(0.878754 0.428939 -0.703416 1.44107 2.86014 4.42195)" rx="0.106768" ry="0.226563"/>
   <ellipse id="_435137728" class="fil3" transform="matrix(0.601542 0.770937 -1.26426 0.986468 2.35175 4.11568)" rx="0.106768" ry="0.226563"/>
   <ellipse id="_435137632" class="fil3" transform="matrix(0.202405 0.956676 -1.56885 0.331924 2.07949 3.61329)" rx="0.106768" ry="0.226563"/>
   <ellipse id="_435137968" class="fil3" transform="matrix(-0.629728 0.748091 -1.22679 -1.03269 2.2838 2.51867)" rx="0.106768" ry="0.226563"/>
   <ellipse id="_435138064" class="fil3" transform="matrix(-0.237757 0.948509 -1.55546 -0.389897 2.0552 3.04238)" rx="0.106768" ry="0.226563"/>
  </g>
  <rect class="fil5" width="6.82666" height="6.82666"/>
 </g>
</svg>
