<?xml version="1.0" encoding="UTF-8"?>
<!DOCTYPE svg PUBLIC "-//W3C//DTD SVG 1.1//EN" "http://www.w3.org/Graphics/SVG/1.1/DTD/svg11.dtd">
<!-- Creator: CorelDRAW -->
<svg xmlns="http://www.w3.org/2000/svg" xml:space="preserve" width="6.82666in" height="6.82666in" style="shape-rendering:geometricPrecision; text-rendering:geometricPrecision; image-rendering:optimizeQuality; fill-rule:evenodd; clip-rule:evenodd"
viewBox="0 0 6.82666 6.82666"
 xmlns:xlink="http://www.w3.org/1999/xlink">
 <defs>
  <style type="text/css">
   <![CDATA[
    .fil10 {fill:none}
    .fil5 {fill:#5E9533}
    .fil6 {fill:#689F38}
    .fil2 {fill:#7CB342}
    .fil0 {fill:#8BC34A}
    .fil4 {fill:#92C45D}
    .fil3 {fill:#9CCC65}
    .fil1 {fill:#AED581}
    .fil9 {fill:#AF4B19}
    .fil8 {fill:#F89D42}
    .fil7 {fill:#FCB251}
   ]]>
  </style>
    <clipPath id="id0">
     <path d="M3.41333 3.28518c0.482031,0 1.06121,0.631827 1.06121,1.41122 0,0.445402 -0.121902,0.784067 -0.307268,1.01598 -0.243894,0.30513 -1.29896,0.269539 -1.51819,-0.0130945 -0.179567,-0.231492 -0.296961,-0.565791 -0.296961,-1.00288 0,-0.779394 0.579181,-1.41122 1.06121,-1.41122z"/>
    </clipPath>
 </defs>
 <g id="Layer_x0020_1">
  <metadata id="CorelCorpID_0Corel-Layer"/>
  <g id="_273789160">
   <g>
    <path id="_273791416" class="fil0" d="M3.45119 2.73991c-0.0944016,-0.238106 -0.164035,-0.566327 -0.186118,-0.926559 -0.0220866,-0.360232 0.0076063,-0.683386 0.073311,-0.913319 0.0944055,0.238106 0.164039,0.566331 0.186126,0.926563 0.0220827,0.360232 -0.00761417,0.683386 -0.0733189,0.913315z"/>
    <path id="_273792088" class="fil1" d="M3.38944 2.93582c-0.149516,-0.210724 -0.265724,-0.501197 -0.312535,-0.82 -0.046811,-0.318803 -0.0152402,-0.604791 0.0734567,-0.80828 0.149516,0.210724 0.265732,0.501197 0.312539,0.82 0.046811,0.318803 0.0152402,0.604791 -0.0734606,0.80828z"/>
    <path id="_273791152" class="fil2" d="M3.40765 2.93582c0.143039,-0.238106 0.250327,-0.566331 0.287339,-0.926563 0.0370157,-0.360232 -0.00334252,-0.683386 -0.0982913,-0.913315 -0.143043,0.238106 -0.250331,0.566331 -0.287346,0.926563 -0.0370118,0.360232 0.00334646,0.683382 0.0982992,0.913315z"/>
    <path id="_273790696" class="fil3" d="M3.44061 3.14853c-0.229626,-0.125626 -0.429937,-0.33922 -0.545402,-0.609941 -0.115465,-0.27072 -0.123941,-0.54665 -0.0443307,-0.772764 0.229626,0.12563 0.429941,0.33922 0.545406,0.609941 0.115465,0.27072 0.123933,0.54665 0.0443268,0.772764z"/>
    <path id="_273790672" class="fil4" d="M3.42494 3.14853c0.229626,-0.125626 0.429937,-0.33922 0.545402,-0.609941 0.115465,-0.27072 0.123937,-0.54665 0.0443307,-0.772764 -0.229626,0.12563 -0.429941,0.33922 -0.545406,0.609941 -0.115465,0.27072 -0.123933,0.54665 -0.0443268,0.772764z"/>
    <g>
     <path id="_273791056" class="fil2" d="M3.33015 3.40461c0.229079,-0.0486417 0.469102,-0.218744 0.664504,-0.497969 0.195402,-0.279228 0.308701,-0.614031 0.333496,-0.928181 -0.229079,0.0486417 -0.46911,0.218736 -0.664508,0.497965 -0.195402,0.279228 -0.308697,0.614035 -0.333492,0.928185z"/>
     <path id="_273791248" class="fil2" d="M3.49651 3.40461c-0.229079,-0.0486417 -0.469102,-0.218744 -0.664504,-0.497969 -0.195402,-0.279228 -0.308701,-0.614031 -0.333496,-0.928181 0.229079,0.0486417 0.46911,0.218736 0.664508,0.497965 0.195402,0.279228 0.308697,0.614035 0.333492,0.928185z"/>
    </g>
    <g>
     <path id="_273790288" class="fil5" d="M3.31179 3.42954c0.136693,0.0722205 0.296079,0.0952717 0.444921,0.0518622 0.148843,-0.0434094 0.258598,-0.144953 0.315295,-0.273571 -0.136693,-0.0722205 -0.296075,-0.0952756 -0.444921,-0.0518661 -0.148843,0.0434094 -0.258598,0.144957 -0.315295,0.273575z"/>
     <path id="_273790048" class="fil6" d="M3.55809 3.42954c-0.136693,0.0722205 -0.296075,0.0952717 -0.444917,0.0518622 -0.148846,-0.0434094 -0.258602,-0.144953 -0.315299,-0.273571 0.136693,-0.0722205 0.296079,-0.0952756 0.444921,-0.0518661 0.148843,0.0434094 0.258598,0.144957 0.315295,0.273575z"/>
    </g>
   </g>
   <path id="_273790408" class="fil7" d="M3.41333 3.28518c0.482031,0 1.06121,0.631827 1.06121,1.41122 0,0.445402 -0.121902,0.784067 -0.307268,1.01598 -0.243894,0.30513 -1.29896,0.269539 -1.51819,-0.0130945 -0.179567,-0.231492 -0.296961,-0.565791 -0.296961,-1.00288 0,-0.779394 0.579181,-1.41122 1.06121,-1.41122z"/>
   <g style="clip-path:url(#id0)">
    <g>
     <g>
      <path id="_4389453121" class="fil8" d="M3.77625 3.45803c0.0144961,-0.0245 0.032311,-0.0472126 0.0531732,-0.0674803l0.0266575 -0.0259016 0.0303268 0.0214921c0.00847244,0.00600394 0.0168583,0.012122 0.0251693,0.0183425l0.0490984 0.0367638 -0.0500394 0.0354724c-0.0445787,0.0315984 -0.076437,0.0776339 -0.0865236,0.130614 0.0545394,0.0283071 0.0990906,0.0711693 0.12952,0.122685 0.0300315,-0.0508386 0.073937,-0.0933976 0.128118,-0.121913l0.0318307 -0.016752c0.0296969,0.0352559 0.00627953,0.101429 0.0350472,0.137465 -0.0930827,0.034815 -0.125827,0.0381142 -0.147157,0.15048 0.0545512,0.028311 0.0991063,0.0711772 0.129535,0.122693 0.0310118,-0.0525 0.0768031,-0.0961496 0.133339,-0.124602l0.0389803 -0.019622 0.0205433 0.0385079c0.00609055,0.0114173 0.0120276,0.0229173 0.0178504,0.0344724l0.0221969 0.0440472 -0.0460118 0.0177598c-0.0700236,0.0270276 -0.125169,0.0855512 -0.139059,0.158717 0.0545394,0.0283031 0.0990906,0.0711654 0.12952,0.122673 0.0188858,-0.0319331 0.0433583,-0.060748 0.0727205,-0.0849921l0.0522283 -0.0431299 0.0191063 0.0649843c0.00317717,0.010811 0.00625591,0.0216496 0.00920866,0.0325236l0.00825197 0.0303543 -0.0257874 0.0180118c-0.0447874,0.0312835 -0.077,0.0770591 -0.0875394,0.129882 0.0800236,0.0431299 0.139209,0.118654 0.161012,0.208138l0.00116142 0.00476772 9.84252e-005 0.00490551c0.000181102,0.00888976 0.000279528,0.0177795 0.000318898,0.0266732l0.00107087 -0.000464567 -0.000929134 0.035685 1.9685e-005 0.00570866 -0.000169291 2.3622e-005 -0.000755906 0.0288386c-0.000370079,0.0142874 -0.000877953,0.0285709 -0.00151575,0.0428504l-0.00126772 0.0285748 -0.0264882 0.010815c-0.0708504,0.0289213 -0.1255,0.0903031 -0.136161,0.166051 0.0445512,0.0221063 0.0835827,0.0543228 0.11385,0.0940394l0.0124488 0.0163346 -0.00429134 0.0200906c-0.00200394,0.00937402 -0.0040748,0.0187402 -0.00622441,0.0280827l-0.0194134 0.0842874 -0.0575197 -0.0645984c-0.0226378,-0.0254252 -0.0509331,-0.0452992 -0.082122,-0.0587244 -0.068622,0.0295787 -0.121465,0.0898504 -0.131933,0.164276 0.0801339,0.039752 0.141063,0.111516 0.166673,0.198087l0.00505118 0.0170748 -0.00807874 0.0158701c-0.00197244,0.00388189 -0.00397244,0.00775197 -0.00598425,0.0116102l-0.0448819 0.0861535 -0.0362244 -0.0901378c-0.0218543,-0.0543937 -0.0665394,-0.0961811 -0.119827,-0.119138 -0.0675315,0.0291102 -0.119776,0.0879449 -0.131394,0.160744 2.75591e-005,0.000937008 5.11811e-005,0.00187402 7.08661e-005,0.00281496 0.070878,0.0347205 0.127213,0.0945827 0.157335,0.168122l0.0125787 0.0307047 -0.025752 0.0209213c-0.00388976,0.00316535 -0.00781102,0.00628346 -0.0118071,0.00931102l-0.0407283 0.0308346 -0.0251496 -0.0444646c-0.0242953,-0.0429567 -0.0632598,-0.0757992 -0.108291,-0.0951969 -0.0730669,0.0314961 -0.12824,0.0977874 -0.133421,0.178909 -3.54331e-005,0.00138583 -7.87402e-005,0.00277559 -0.000133858,0.00416142l-0.00164567 0.0429016 -0.000232283 0 -7.87402e-006 0.000145669 -0.042815 -7.08661e-005 -0.0428189 7.48031e-005 -7.87402e-006 -0.000145669 -0.000232283 0 -0.00164567 -0.0429055c-5.51181e-005,-0.00138189 -9.84252e-005,-0.00275984 -0.000133858,-0.00414173 -0.00517323,-0.0811339 -0.0603504,-0.147429 -0.133421,-0.178925 -0.0730669,0.0314961 -0.12824,0.0977874 -0.133421,0.178909 -3.54331e-005,0.00138583 -7.87402e-005,0.00277165 -0.000133858,0.00415748l-0.00164173 0.0429055 -0.00023622 0 -7.87402e-006 0.000145669 -0.0428189 -7.48031e-005 -0.042815 7.08661e-005 -7.87402e-006 -0.000145669 -0.000232283 0 -0.00164567 -0.0429016c-5.11811e-005,-0.00138189 -9.44882e-005,-0.00276772 -0.000129921,-0.00414567 -0.00517717,-0.0811299 -0.0603504,-0.147425 -0.133421,-0.178921 -0.0730669,0.0314961 -0.12824,0.0977874 -0.133421,0.178909 -3.54331e-005,0.00138583 -7.87402e-005,0.00277165 -0.000133858,0.00415748l-0.00164567 0.0429055 -0.000232283 0 -7.87402e-006 0.000145669 -0.0428189 -7.48031e-005 -0.042815 7.08661e-005 -7.87402e-006 -0.000145669 -0.000232283 0 -0.00164567 -0.0429016c-5.51181e-005,-0.00138583 -9.84252e-005,-0.00277559 -0.000133858,-0.00416142 -0.0051811,-0.081122 -0.0603543,-0.147413 -0.133421,-0.178909 -0.0476024,0.0205039 -0.0883976,0.0560394 -0.112232,0.102512l-0.0221693 0.0432402 -0.0412402 -0.0257047c-0.00366142,-0.00228346 -0.00733071,-0.00455118 -0.010937,-0.0069252l-0.0294449 -0.0193661 0.0119646 -0.0331457c0.0276772,-0.0766614 0.0834606,-0.139902 0.155059,-0.177213 -0.00948031,-0.0757638 -0.0627992,-0.137224 -0.132311,-0.167189 -0.0588819,0.025374 -0.107122,0.0737244 -0.125744,0.136075l-0.0307402 0.102913 -0.0513386 -0.0943425c-0.00154331,-0.00283465 -0.00306693,-0.00567717 -0.00458661,-0.00852756l-0.00757087 -0.0141575 0.00317323 -0.0157441c0.0194173,-0.0962677 0.0818307,-0.178035 0.167807,-0.222827 -0.00948031,-0.0757638 -0.0628031,-0.137224 -0.132319,-0.167189 -0.0349724,0.0150551 -0.0663031,0.0382205 -0.0900472,0.0681535l-0.0572165 0.0721181 -0.0212795 -0.089563c-0.00208268,-0.00876378 -0.0041063,-0.0175472 -0.00605512,-0.0263425l-0.00415748 -0.018748 0.0107441 -0.0159173c0.0302677,-0.0448583 0.0712874,-0.0814173 0.119016,-0.106299 -0.00989764,-0.0790669 -0.0676063,-0.14272 -0.141819,-0.171043l-0.0274449 -0.0104764 -0.00126772 -0.0293465c-0.000622047,-0.0143307 -0.00111024,-0.0286654 -0.0014685,-0.0430039l-0.000653543 -0.0261614 -0.000208661 -2.3622e-005 2.75591e-005 -0.00705906 -0.000877953 -0.0350906 0.00101575 0.000413386c4.33071e-005,-0.00862598 0.000141732,-0.017252 0.000314961,-0.025874l0.000102362 -0.00490551 0.00116142 -0.00476772c0.0225866,-0.0926969 0.0852835,-0.170409 0.169709,-0.212657 -0.0120512,-0.0536457 -0.0465118,-0.0995906 -0.0934291,-0.129972l-0.0275039 -0.0178071 0.00870866 -0.0315827c0.00306693,-0.0111299 0.00624803,-0.0222244 0.00954331,-0.0332835l0.0185512 -0.0622008 0.0514882 0.0395197c0.033374,0.0256142 0.0609646,0.0569961 0.0817874,0.0922126 0.0307244,-0.0520197 0.0758543,-0.0952126 0.131134,-0.123504 -0.0136024,-0.0700118 -0.0649567,-0.126374 -0.130724,-0.154563l-0.0938268 0.0346102 0.0512441 -0.101409c0.0063189,-0.0125039 0.012748,-0.0249606 0.0193819,-0.0373071l0.0198543 -0.0369528 0.0381378 0.0174843c0.0613031,0.0280984 0.110945,0.0738661 0.143925,0.129697 0.0307283,-0.0520276 0.0758622,-0.0952323 0.13115,-0.123531 -0.0135787,-0.0698898 -0.0647795,-0.126177 -0.130386,-0.154417l-0.149681 0.0595787 0.104496 -0.131433c0.0102402,-0.012878 0.0206929,-0.0255827 0.0313425,-0.0381181l0.0223189 -0.0262677 0.0310748 0.0149094c0.0583819,0.0280039 0.105772,0.0721142 0.137799,0.125571 0.0307008,-0.051248 0.0754409,-0.0938071 0.130106,-0.121787 -0.0107087,-0.0549291 -0.0448228,-0.102232 -0.0920236,-0.133665l-0.0530236 -0.035311 0.051248 -0.0378386c0.00872441,-0.00644488 0.0175157,-0.0127913 0.0264134,-0.0189921l0.0294252 -0.0204961 0.0263858 0.0242795c0.023626,0.0217402 0.043622,0.0465472 0.0595945,0.0735512 0.0362953,-0.0614409 0.0926772,-0.110571 0.162146,-0.137378l0.0160906 -0.00620866 0.0160906 0.00620866c0.0694803,0.026815 0.12587,0.0759567 0.162165,0.137409 0.0362953,-0.0614528 0.092685,-0.110594 0.162165,-0.137409l0.0160906 -0.00620866 0.0160906 0.00620866c0.0694685,0.026811 0.12585,0.0759409 0.162146,0.137378zm-0.308665 0.149299c0.0545551,0.028311 0.0991142,0.0711811 0.129543,0.122705 0.0307323,-0.0520315 0.0758661,-0.0952362 0.131154,-0.123539 -0.0135669,-0.0698504 -0.0647165,-0.126106 -0.130268,-0.154366 -0.065811,0.0283701 -0.117102,0.0849646 -0.130429,0.155201zm-0.356512 0c0.0545551,0.0283071 0.0991102,0.0711811 0.129543,0.122709 0.0307283,-0.0520354 0.0758661,-0.0952402 0.131154,-0.123543 -0.0135709,-0.0698465 -0.0647165,-0.12611 -0.130268,-0.154366 -0.065811,0.0283701 -0.117106,0.0849606 -0.130429,0.155201zm0.533882 0.271969c0.0545591,0.028315 0.0991142,0.071185 0.129547,0.122709 0.0307283,-0.0520315 0.0758622,-0.0952362 0.131154,-0.123539 -0.0135709,-0.0698504 -0.0647205,-0.12611 -0.130272,-0.154366 -0.065811,0.0283701 -0.117102,0.0849606 -0.130429,0.155197zm-0.356512 0c0.0545551,0.028315 0.0991142,0.071185 0.129543,0.122709 0.0307283,-0.0520315 0.0758661,-0.0952362 0.131154,-0.123539 -0.0135709,-0.0698504 -0.0647165,-0.12611 -0.130268,-0.154366 -0.065811,0.0283701 -0.117102,0.0849606 -0.130429,0.155197zm-0.356327 -0.000964567c0.0547953,0.0279843 0.0996339,0.0705984 0.130386,0.121941 0.0307087,-0.0512598 0.0754488,-0.0938228 0.130126,-0.121807 -0.0135709,-0.0698504 -0.0647205,-0.12611 -0.130272,-0.154366 -0.0655039,0.0282362 -0.11663,0.0844449 -0.13024,0.154232zm-0.177268 0.272937c0.0545591,0.028311 0.0991142,0.0711811 0.129547,0.122705 0.0307283,-0.0520276 0.0758622,-0.0952362 0.13115,-0.123535 -0.0135669,-0.0698543 -0.0647165,-0.12611 -0.130268,-0.154366 -0.065811,0.0283661 -0.117106,0.0849606 -0.130429,0.155197zm1.06748 0c0.0545551,0.028311 0.0991142,0.0711811 0.129543,0.122705 0.0307283,-0.0520276 0.0758661,-0.0952362 0.131154,-0.123535 -0.0135669,-0.0698543 -0.0647205,-0.12611 -0.130268,-0.154366 -0.065811,0.0283661 -0.117106,0.0849606 -0.130429,0.155197zm-0.356512 0c0.0545551,0.028311 0.0991102,0.0711811 0.129539,0.122709 0.0307323,-0.0520315 0.0758661,-0.0952402 0.131157,-0.123539 -0.0135709,-0.0698504 -0.0647205,-0.126114 -0.130268,-0.154366 -0.065811,0.0283661 -0.117106,0.0849606 -0.130429,0.155197zm-0.356331 -0.000964567c0.0547953,0.0279843 0.0996339,0.0705945 0.13039,0.121937 0.0307047,-0.0512598 0.0754488,-0.0938189 0.130126,-0.121803 -0.0135709,-0.0698543 -0.0647244,-0.126114 -0.130272,-0.154366 -0.0655079,0.0282362 -0.116634,0.0844409 -0.130244,0.154232zm-0.176937 0.271244c0.0526142,0.028311 0.0956417,0.0702795 0.125272,0.120453 0.031252,-0.0529094 0.0773976,-0.0966969 0.133972,-0.124965 -0.0150866,-0.0673583 -0.0652835,-0.121469 -0.129146,-0.148996 -0.0652835,0.0281417 -0.11628,0.0840551 -0.130098,0.153508zm-0.356516 0c0.0526142,0.028311 0.0956417,0.0702795 0.125276,0.120453 0.031252,-0.0529134 0.0773976,-0.0967008 0.133972,-0.124965 -0.0150945,-0.0673622 -0.0652835,-0.121469 -0.12915,-0.148996 -0.0652756,0.0281417 -0.116276,0.0840551 -0.130098,0.153508zm1.424 0c0.0526102,0.028311 0.0956417,0.0702795 0.125272,0.120453 0.031252,-0.0529134 0.0773976,-0.0966969 0.133972,-0.124965 -0.0150906,-0.0673583 -0.0652835,-0.121469 -0.129146,-0.148996 -0.0652835,0.0281417 -0.11628,0.0840551 -0.130098,0.153508zm-0.356516 3.93701e-006c0.0526142,0.0283071 0.0956417,0.0702756 0.125272,0.120453 0.031252,-0.0529134 0.0774016,-0.0967008 0.133976,-0.124969 -0.0150906,-0.0673583 -0.0652874,-0.121469 -0.129146,-0.148996 -0.0652835,0.0281417 -0.11628,0.0840551 -0.130102,0.153512zm-0.356311 -0.000992126c0.0528504,0.0279921 0.0961535,0.0697165 0.126102,0.119709 0.0312283,-0.0521339 0.0769843,-0.0952756 0.132941,-0.123232 -0.0150906,-0.0673622 -0.0652835,-0.121469 -0.129146,-0.148996 -0.0649685,0.0280079 -0.115791,0.0835236 -0.129898,0.15252zm0.495874 1.25662c0.0301811,-0.0511024 0.0742559,-0.0936929 0.128201,-0.122008 1.9685e-005,-0.00233465 6.69291e-005,-0.00466535 0.000133858,-0.00699213 -0.0116181,-0.0727874 -0.0638661,-0.131618 -0.131394,-0.160728 -0.0686181,0.0295787 -0.121457,0.0898465 -0.131925,0.164264 0.0570354,0.0282441 0.103547,0.0722402 0.134984,0.125465zm-0.22726 -0.122559c-0.00948819,-0.0757559 -0.0628031,-0.137205 -0.132315,-0.167169 -0.0686142,0.0295787 -0.121453,0.0898465 -0.131921,0.164264 0.0570354,0.0282441 0.103543,0.0722362 0.13498,0.125465 0.030378,-0.051437 0.0748307,-0.094248 0.129256,-0.122559zm-0.485768 0.122559c0.030374,-0.0514331 0.0748268,-0.0942441 0.129256,-0.122555 -0.00948819,-0.0757598 -0.0628031,-0.137209 -0.132311,-0.167173 -0.0686181,0.0295787 -0.121457,0.0898425 -0.131929,0.164264 0.0570354,0.0282441 0.103547,0.0722402 0.134984,0.125465zm0.531713 -0.283795c0.0301811,-0.0511024 0.0742559,-0.0936929 0.128205,-0.122008 1.9685e-005,-0.00233465 6.29921e-005,-0.00466535 0.000133858,-0.00698819 -0.011622,-0.0727913 -0.0638701,-0.131622 -0.131398,-0.160728 -0.0686181,0.0295748 -0.121453,0.0898425 -0.131921,0.16426 0.0570354,0.028248 0.103547,0.0722402 0.13498,0.125465zm0.35548 -0.00173228c0.0303504,-0.0506654 0.0744134,-0.0928307 0.128228,-0.120827 -0.00948819,-0.0757559 -0.0628031,-0.137205 -0.132315,-0.167165 -0.0675315,0.0291102 -0.11978,0.0879449 -0.131394,0.16074 2.75591e-005,0.000933071 5.11811e-005,0.00186614 7.08661e-005,0.00280315 0.0570787,0.0279094 0.103724,0.0715472 0.135409,0.124449zm-0.582736 -0.120827c-0.00948819,-0.0757559 -0.0628071,-0.137205 -0.132315,-0.167165 -0.0686181,0.0295748 -0.121453,0.0898425 -0.131925,0.16426 0.0570354,0.0282441 0.103547,0.0722362 0.134984,0.125465 0.030378,-0.0514331 0.0748307,-0.0942441 0.129256,-0.122559zm-0.485772 0.122559c0.030378,-0.0514331 0.0748307,-0.0942441 0.129256,-0.122555 -0.00948425,-0.0757598 -0.0628031,-0.137209 -0.132311,-0.167169 -0.0686181,0.0295748 -0.121453,0.0898386 -0.131925,0.16426 0.0570315,0.028248 0.103543,0.0722402 0.13498,0.125465zm0.531713 -0.283791c0.030185,-0.0511063 0.0742598,-0.0936929 0.128205,-0.122012 1.9685e-005,-0.00233071 6.69291e-005,-0.00466142 0.000133858,-0.00698819 -0.0116181,-0.0727913 -0.0638661,-0.131622 -0.131394,-0.160728 -0.068622,0.0295748 -0.121457,0.0898425 -0.131925,0.164264 0.0570354,0.0282441 0.103547,0.0722362 0.13498,0.125465zm0.355484 -0.00173228c0.0303465,-0.0506654 0.0744134,-0.0928346 0.128224,-0.120827 -0.00948425,-0.0757559 -0.0628031,-0.137205 -0.132311,-0.167169 -0.0675315,0.0291102 -0.11978,0.0879449 -0.131394,0.16074 2.3622e-005,0.000933071 5.11811e-005,0.00187008 7.08661e-005,0.00280315 0.0570787,0.0279134 0.10372,0.0715512 0.135409,0.124453zm-0.58274 -0.120827c-0.00948819,-0.0757559 -0.0628031,-0.137209 -0.132315,-0.167169 -0.0686142,0.0295748 -0.121453,0.0898425 -0.131925,0.16426 0.0570394,0.0282441 0.103547,0.0722402 0.134984,0.125469 0.030378,-0.051437 0.0748307,-0.094248 0.129256,-0.122559zm-0.485772 0.122559c0.030378,-0.051437 0.0748307,-0.094248 0.129256,-0.122559 -0.00948425,-0.0757559 -0.0627992,-0.137209 -0.132307,-0.167169 -0.0686181,0.0295748 -0.121457,0.0898425 -0.131929,0.164264 0.0570354,0.0282441 0.103547,0.0722362 0.13498,0.125465zm1.42399 0c0.0303819,-0.051437 0.0748346,-0.094248 0.129256,-0.122559 -0.00948425,-0.0757559 -0.0628031,-0.137209 -0.132307,-0.167169 -0.0686181,0.0295748 -0.121461,0.0898425 -0.131929,0.164264 0.0570354,0.0282441 0.103547,0.0722362 0.13498,0.125465zm-0.892276 -0.283795c0.0301811,-0.0511024 0.0742559,-0.0936929 0.128205,-0.122012 1.9685e-005,-0.00233071 6.29921e-005,-0.00466142 0.000133858,-0.00698819 -0.011622,-0.0727913 -0.0638701,-0.131618 -0.131398,-0.160728 -0.0686181,0.0295787 -0.121453,0.0898465 -0.131921,0.164264 0.0570354,0.0282441 0.103547,0.0722362 0.13498,0.125465zm0.35548 -0.00173228c0.0303504,-0.0506654 0.0744134,-0.0928307 0.128228,-0.120827 -0.00948819,-0.0757559 -0.0628031,-0.137205 -0.132315,-0.167169 -0.0675315,0.0291102 -0.11978,0.0879449 -0.131394,0.16074 2.75591e-005,0.000937008 5.11811e-005,0.00187008 7.08661e-005,0.00280315 0.0570787,0.0279134 0.10372,0.0715512 0.135409,0.124453zm-0.582736 -0.120827c-0.00948819,-0.0757559 -0.0628071,-0.137209 -0.132315,-0.167169 -0.0686181,0.0295787 -0.121453,0.0898465 -0.131925,0.16426 0.0570354,0.028248 0.103547,0.0722402 0.134984,0.125469 0.030374,-0.051437 0.0748268,-0.094248 0.129256,-0.122559zm-0.485772 0.122555c0.030378,-0.0514331 0.0748307,-0.0942402 0.129256,-0.122555 -0.00948819,-0.0757559 -0.0628031,-0.137209 -0.132311,-0.167169 -0.0611496,0.0263583 -0.110677,0.0774488 -0.127642,0.142886l-0.00540157 0.0208307c0.0575945,0.0282559 0.104484,0.0724764 0.136098,0.126008zm1.9112 -0.123276l-0.00611024 -0.0235669c-0.0169646,-0.0654331 -0.0664961,-0.116524 -0.127642,-0.142882 -0.0686181,0.0295787 -0.121453,0.0898425 -0.131925,0.164264 0.0570354,0.0282441 0.103543,0.0722362 0.13498,0.125461 0.0305984,-0.0517953 0.0755157,-0.0949055 0.130697,-0.123276zm-0.487209 0.12328c0.030378,-0.0514331 0.0748307,-0.0942441 0.129256,-0.122559 -0.00948425,-0.075752 -0.0628031,-0.137209 -0.132311,-0.167169 -0.0686181,0.0295787 -0.121457,0.0898425 -0.131925,0.164264 0.0570354,0.0282441 0.103543,0.0722362 0.13498,0.125465z"/>
      <path id="_438945408" class="fil9" d="M3.41223 4.71742c-0.000137795,-0.00361024 -0.000212598,-0.00724016 -0.000212598,-0.0108858 0,-0.118634 0.0740866,-0.219949 0.178512,-0.260244 0.104425,0.0402953 0.178512,0.14161 0.178512,0.260244 0,0.00364567 -7.08661e-005,0.00727559 -0.000208661,0.0108858 -0.00437402,-0.104764 -0.0770866,-0.193413 -0.178303,-0.229335 -0.101213,0.0359213 -0.173925,0.124571 -0.178299,0.229335z"/>
      <path id="_438945096" class="fil9" d="M3.76874 4.71742c-0.000137795,-0.00361024 -0.000208661,-0.00724016 -0.000208661,-0.0108858 0,-0.118634 0.0740866,-0.219949 0.178512,-0.260244 0.104421,0.0402953 0.178512,0.14161 0.178512,0.260244 0,0.00364567 -7.08661e-005,0.00727559 -0.000212598,0.0108858 -0.00437402,-0.104764 -0.0770866,-0.193413 -0.178299,-0.229335 -0.101217,0.0359213 -0.173929,0.124571 -0.178303,0.229335z"/>
      <path id="_438944064" class="fil9" d="M4.47414 4.6403c0.000185039,0.00912205 0.000279528,0.0182717 0.000314961,0.027437 -0.0213937,-0.0825197 -0.0861496,-0.149571 -0.170902,-0.17965 -0.101217,0.0359213 -0.173925,0.124571 -0.178299,0.229335 -0.000137795,-0.00361024 -0.000212598,-0.00724016 -0.000212598,-0.0108858 0,-0.118634 0.0740906,-0.219949 0.178512,-0.260244 0.0843346,0.0325394 0.14887,0.104882 0.170587,0.194008z"/>
      <path id="_438943944" class="fil9" d="M2.35215 4.66774c3.54331e-005,-0.00916535 0.000133858,-0.018315 0.000318898,-0.0274409 0.0217165,-0.089126 0.086252,-0.161469 0.170587,-0.194008 0.104421,0.0402953 0.178508,0.14161 0.178508,0.260244 0,0.00364567 -7.08661e-005,0.00727559 -0.000208661,0.0108858 -0.00437402,-0.104764 -0.0770866,-0.193413 -0.178299,-0.229335 -0.0847559,0.0300787 -0.149508,0.0971299 -0.170906,0.179654z"/>
      <path id="_438944112" class="fil9" d="M2.70126 4.71742c-0.000137795,-0.00361024 -0.000208661,-0.00724016 -0.000208661,-0.0108858 0,-0.118634 0.0740866,-0.219949 0.178512,-0.260244 0.104425,0.0402953 0.178512,0.14161 0.178512,0.260244 0,0.00364567 -7.08661e-005,0.00727559 -0.000208661,0.0108858 -0.00437795,-0.104764 -0.0770866,-0.193413 -0.178303,-0.229335 -0.101217,0.0359213 -0.173929,0.124571 -0.178303,0.229335z"/>
      <path id="_438944424" class="fil9" d="M3.05778 4.71742c-0.000137795,-0.00361024 -0.000208661,-0.00724016 -0.000208661,-0.0108858 0,-0.118634 0.0740866,-0.219949 0.178508,-0.260244 0.104425,0.0402953 0.178512,0.14161 0.178512,0.260244 0,0.00364567 -6.69291e-005,0.00727559 -0.000208661,0.0108858 -0.00437402,-0.104764 -0.0770866,-0.193413 -0.178303,-0.229335 -0.101217,0.0359213 -0.173925,0.124571 -0.178299,0.229335z"/>
      <path id="_438943320" class="fil9" d="M3.59354 5.00121c-0.000141732,-0.00361024 -0.000212598,-0.00724016 -0.000212598,-0.0108858 0,-0.118638 0.0740866,-0.219949 0.178512,-0.260248 0.104425,0.0402992 0.178512,0.14161 0.178512,0.260248 0,0.00364567 -7.08661e-005,0.00727559 -0.000208661,0.0108858 -0.00437795,-0.104768 -0.0770866,-0.193413 -0.178303,-0.229339 -0.101217,0.0359252 -0.173925,0.124571 -0.178299,0.229339z"/>
      <path id="_438943920" class="fil9" d="M3.95006 5.00121c-0.000137795,-0.00361024 -0.000208661,-0.00724016 -0.000208661,-0.0108858 0,-0.118638 0.0740866,-0.219949 0.178512,-0.260248 0.104421,0.0402992 0.178508,0.14161 0.178508,0.260248 0,0.00364567 -7.08661e-005,0.00727559 -0.000208661,0.0108858 -0.00437402,-0.104768 -0.0770866,-0.193413 -0.178299,-0.229339 -0.101217,0.0359252 -0.173929,0.124571 -0.178303,0.229339z"/>
      <path id="_438943536" class="fil9" d="M4.4737 4.73469c-0.000370079,0.014122 -0.000870079,0.028126 -0.00148819,0.0420276 -0.0945748,0.0386063 -0.161461,0.124154 -0.16565,0.2245 -0.000137795,-0.00361024 -0.000208661,-0.00724016 -0.000208661,-0.0108858 0,-0.114358 0.0688465,-0.212614 0.167346,-0.255642z"/>
      <path id="_438943368" class="fil9" d="M2.35428 4.77425c-0.000606299,-0.0139488 -0.00108661,-0.0280118 -0.00144094,-0.042189 0.101787,0.0415591 0.173524,0.141528 0.173524,0.258264 0,0.00364567 -7.48031e-005,0.00727559 -0.000212598,0.0108858 -0.00427953,-0.102531 -0.0740197,-0.189618 -0.17187,-0.226961z"/>
      <path id="_438943752" class="fil9" d="M2.52606 5.00121c-0.000141732,-0.00361024 -0.000212598,-0.00724016 -0.000212598,-0.0108858 0,-0.118638 0.0740866,-0.219949 0.178516,-0.260248 0.104421,0.0402992 0.178508,0.14161 0.178508,0.260248 0,0.00364567 -7.08661e-005,0.00727559 -0.000212598,0.0108858 -0.00437008,-0.104768 -0.0770827,-0.193413 -0.178295,-0.229339 -0.101217,0.0359252 -0.173929,0.124571 -0.178303,0.229339z"/>
      <path id="_438942648" class="fil9" d="M2.88257 5.00121c-0.000137795,-0.00361024 -0.000208661,-0.00724016 -0.000208661,-0.0108858 0,-0.118638 0.0740866,-0.219949 0.178508,-0.260248 0.104429,0.0402992 0.178516,0.14161 0.178516,0.260248 0,0.00364567 -7.48031e-005,0.00727559 -0.000212598,0.0108858 -0.00437402,-0.104768 -0.0770866,-0.193413 -0.178303,-0.229339 -0.101213,0.0359252 -0.173925,0.124571 -0.178299,0.229339z"/>
      <path id="_438942744" class="fil9" d="M3.23909 5.00121c-0.000137795,-0.00361024 -0.000204724,-0.00724016 -0.000204724,-0.0108858 0,-0.118638 0.0740866,-0.219949 0.178508,-0.260248 0.104425,0.0402992 0.178512,0.14161 0.178512,0.260248 0,0.00364567 -7.08661e-005,0.00727559 -0.000212598,0.0108858 -0.00437008,-0.104768 -0.0770866,-0.193413 -0.178299,-0.229339 -0.101217,0.0359252 -0.173929,0.124571 -0.178303,0.229339z"/>
      <path id="_438943152" class="fil9" d="M3.77485 5.28501c-0.000137795,-0.00361024 -0.000208661,-0.00724016 -0.000208661,-0.0108898 0,-0.118634 0.0740827,-0.219949 0.178508,-0.260244 0.104425,0.0402953 0.178512,0.14161 0.178512,0.260244 0,0.00364961 -6.69291e-005,0.00727953 -0.000208661,0.0108898 -0.00437402,-0.104768 -0.0770866,-0.193413 -0.178303,-0.229339 -0.101213,0.0359252 -0.173925,0.124571 -0.178299,0.229339z"/>
      <path id="_438943080" class="fil9" d="M4.43125 5.10527c-0.00196457,0.00919685 -0.00398819,0.0183268 -0.0060748,0.0273898 -0.0303504,-0.0340827 -0.0700512,-0.0608543 -0.115504,-0.0769882 -0.101217,0.0359252 -0.173929,0.124571 -0.178303,0.229339 -0.000137795,-0.00361024 -0.000208661,-0.00724016 -0.000208661,-0.0108898 0,-0.118634 0.0740866,-0.219949 0.178512,-0.260244 0.0485551,0.0187362 0.0905394,0.0506693 0.121579,0.0913937z"/>
      <path id="_438942360" class="fil9" d="M2.4041 5.14403c-0.00202362,-0.00850394 -0.00399606,-0.0170591 -0.00590945,-0.0256811 0.0317008,-0.0469724 0.0773346,-0.0837717 0.130972,-0.104472 0.104425,0.0402953 0.178512,0.14161 0.178512,0.260244 0,0.00364961 -7.08661e-005,0.00727953 -0.000208661,0.0108898 -0.00437402,-0.104768 -0.0770866,-0.193413 -0.178303,-0.229339 -0.0503937,0.0178858 -0.0937205,0.0488465 -0.125063,0.0883583z"/>
      <path id="_438942168" class="fil9" d="M2.70737 5.28501c-0.000137795,-0.00361024 -0.000208661,-0.00724016 -0.000208661,-0.0108898 0,-0.118634 0.0740866,-0.219949 0.178512,-0.260244 0.104421,0.0402953 0.178508,0.14161 0.178508,0.260244 0,0.00364961 -7.08661e-005,0.00727953 -0.000208661,0.0108898 -0.00437402,-0.104768 -0.0770866,-0.193413 -0.178299,-0.229339 -0.101217,0.0359252 -0.173929,0.124571 -0.178303,0.229339z"/>
      <path id="_438942096" class="fil9" d="M3.06389 5.28501c-0.000137795,-0.00361024 -0.000208661,-0.00724016 -0.000208661,-0.0108898 0,-0.118634 0.0740866,-0.219949 0.178512,-0.260244 0.104425,0.0402953 0.178512,0.14161 0.178512,0.260244 0,0.00364961 -7.08661e-005,0.00727953 -0.000208661,0.0108898 -0.00437795,-0.104768 -0.0770866,-0.193413 -0.178303,-0.229339 -0.101217,0.0359252 -0.173925,0.124571 -0.178303,0.229339z"/>
      <path id="_438941784" class="fil9" d="M3.4204 5.28501c-0.000137795,-0.00361024 -0.000208661,-0.00724016 -0.000208661,-0.0108898 0,-0.118634 0.0740866,-0.219949 0.178508,-0.260244 0.104425,0.0402953 0.178512,0.14161 0.178512,0.260244 0,0.00364961 -6.69291e-005,0.00727953 -0.000208661,0.0108898 -0.00437402,-0.104768 -0.0770866,-0.193413 -0.178303,-0.229339 -0.101213,0.0359252 -0.173925,0.124571 -0.178299,0.229339z"/>
      <path id="_438941952" class="fil9" d="M4.30156 5.47869c-0.00191339,0.00375984 -0.00384646,0.0075 -0.0057874,0.0112283 -0.0277244,-0.0689921 -0.0867874,-0.124012 -0.161299,-0.150457 -0.101213,0.0359213 -0.173925,0.124571 -0.178299,0.229339 -0.000141732,-0.00361417 -0.000212598,-0.00724016 -0.000212598,-0.0108898 0,-0.118634 0.0740866,-0.219949 0.178512,-0.260244 0.0802008,0.0309449 0.142496,0.0978898 0.167087,0.181024z"/>
      <path id="_438974088" class="fil9" d="M2.54191 5.51073c-0.00148819,-0.00272835 -0.00296063,-0.00548031 -0.00442913,-0.00823228 0.0189685,-0.0940669 0.0852717,-0.17098 0.172996,-0.204831 0.104421,0.0402953 0.178512,0.14161 0.178512,0.260244 0,0.00364961 -7.08661e-005,0.00727559 -0.000212598,0.0108898 -0.00437008,-0.104768 -0.0770827,-0.193417 -0.178299,-0.229339 -0.0818622,0.0290551 -0.145071,0.0926024 -0.168567,0.171268z"/>
      <path id="_438974016" class="fil9" d="M2.88869 5.5688c-0.000141732,-0.00361417 -0.000212598,-0.00724016 -0.000212598,-0.0108898 0,-0.118634 0.0740866,-0.219949 0.178516,-0.260244 0.104421,0.0402953 0.178508,0.14161 0.178508,0.260244 0,0.00364961 -7.08661e-005,0.00727559 -0.000208661,0.0108898 -0.00437402,-0.104768 -0.0770866,-0.193417 -0.178299,-0.229339 -0.101217,0.0359213 -0.173929,0.124571 -0.178303,0.229339z"/>
      <path id="_438973632" class="fil9" d="M3.2452 5.5688c-0.000137795,-0.00361417 -0.000208661,-0.00724016 -0.000208661,-0.0108898 0,-0.118634 0.0740866,-0.219949 0.178508,-0.260244 0.104429,0.0402953 0.178516,0.14161 0.178516,0.260244 0,0.00364961 -7.48031e-005,0.00727559 -0.000212598,0.0108898 -0.00437402,-0.104768 -0.0770866,-0.193417 -0.178303,-0.229339 -0.101213,0.0359213 -0.173925,0.124571 -0.178299,0.229339z"/>
      <path id="_438973152" class="fil9" d="M3.60172 5.5688c-0.000141732,-0.00361417 -0.000208661,-0.00724016 -0.000208661,-0.0108898 0,-0.118634 0.0740866,-0.219949 0.178508,-0.260244 0.104425,0.0402953 0.178512,0.14161 0.178512,0.260244 0,0.00364961 -7.08661e-005,0.00727559 -0.000212598,0.0108898 -0.00437008,-0.104768 -0.0770866,-0.193417 -0.178299,-0.229339 -0.101217,0.0359213 -0.173929,0.124571 -0.178299,0.229339z"/>
      <path id="_438973368" class="fil9" d="M2.73979 5.75336c-0.00337008,-0.00209843 -0.00676772,-0.00419291 -0.0100236,-0.00633465 0.0274134,-0.075937 0.0868543,-0.136555 0.16202,-0.165563 0.104425,0.0402992 0.178512,0.141614 0.178512,0.260248 0,0.00364567 -7.08661e-005,0.00727559 -0.000208661,0.0108858 -0.00437402,-0.104768 -0.0770866,-0.193413 -0.178303,-0.229335 -0.0670236,0.0237874 -0.121539,0.0707008 -0.151996,0.130098z"/>
      <path id="_438973248" class="fil9" d="M3.07 5.85259c-0.000137795,-0.00361024 -0.000208661,-0.00724016 -0.000208661,-0.0108858 0,-0.118634 0.0740866,-0.219949 0.178512,-0.260248 0.104425,0.0402992 0.178508,0.141614 0.178508,0.260248 0,0.00364567 -7.08661e-005,0.00727559 -0.000208661,0.0108858 -0.00437402,-0.104768 -0.0770827,-0.193413 -0.178299,-0.229335 -0.101217,0.0359213 -0.173925,0.124567 -0.178303,0.229335z"/>
      <path id="_438972456" class="fil9" d="M3.42651 5.85259c-0.000137795,-0.00361024 -0.000204724,-0.00724016 -0.000204724,-0.0108858 0,-0.118634 0.0740827,-0.219949 0.178508,-0.260248 0.104425,0.0402992 0.178512,0.141614 0.178512,0.260248 0,0.00364567 -7.08661e-005,0.00727559 -0.000208661,0.0108858 -0.00437402,-0.104768 -0.0770866,-0.193413 -0.178303,-0.229335 -0.101217,0.0359213 -0.173925,0.124567 -0.178303,0.229335z"/>
      <path id="_438972840" class="fil9" d="M4.11913 5.73607c-0.0034685,0.0028189 -0.00698031,0.00561811 -0.0106024,0.0083622 -0.0312047,-0.0551654 -0.083563,-0.0985906 -0.147193,-0.121173 -0.101217,0.0359213 -0.173929,0.124567 -0.178303,0.229335 -0.000137795,-0.00361024 -0.000208661,-0.00724016 -0.000208661,-0.0108858 0,-0.118634 0.0740866,-0.219949 0.178512,-0.260248 0.0715118,0.0275984 0.128791,0.083815 0.157795,0.15461z"/>
      <path id="_438972696" class="fil9" d="M3.2388 4.44939c-0.000141732,-0.00361024 -0.000212598,-0.00723622 -0.000212598,-0.0108858 0,-0.118634 0.0740866,-0.219949 0.178512,-0.260244 0.104425,0.0402953 0.178512,0.14161 0.178512,0.260244 0,0.00364961 -7.08661e-005,0.00727559 -0.000208661,0.0108858 -0.00437402,-0.104764 -0.0770866,-0.193413 -0.178303,-0.229335 -0.101213,0.0359213 -0.173925,0.124571 -0.178299,0.229335z"/>
      <path id="_438973080" class="fil9" d="M3.59531 4.44939c-0.000137795,-0.00361024 -0.000208661,-0.00723622 -0.000208661,-0.0108858 0,-0.118634 0.0740866,-0.219949 0.178512,-0.260244 0.104421,0.0402953 0.178512,0.14161 0.178512,0.260244 0,0.00364961 -7.08661e-005,0.00727559 -0.000212598,0.0108858 -0.00437402,-0.104764 -0.0770866,-0.193413 -0.178299,-0.229335 -0.101217,0.0359213 -0.173929,0.124571 -0.178303,0.229335z"/>
      <path id="_438972648" class="fil9" d="M3.95183 4.44939c-0.000141732,-0.00361024 -0.000212598,-0.00723622 -0.000212598,-0.0108858 0,-0.118634 0.0740906,-0.219949 0.178512,-0.260244 0.104425,0.0402953 0.178512,0.14161 0.178512,0.260244 0,0.00364961 -7.08661e-005,0.00727559 -0.000208661,0.0108858 -0.00437402,-0.104764 -0.0770906,-0.193413 -0.178303,-0.229335 -0.101217,0.0359213 -0.173929,0.124571 -0.178299,0.229335z"/>
      <path id="_438972216" class="fil9" d="M4.40954 4.22341c0.00308661,0.0104961 0.00607874,0.0210394 0.00896063,0.0316417 -0.0643622,0.0449567 -0.10685,0.115024 -0.110161,0.194339 -0.000137795,-0.00361024 -0.000212598,-0.00723622 -0.000212598,-0.0108858 0,-0.0865906 0.0394803,-0.163953 0.101413,-0.215094z"/>
      <path id="_438971688" class="fil9" d="M2.40961 4.24957c0.00299213,-0.0108543 0.00608661,-0.0216535 0.00929134,-0.0323898 0.0664055,0.0509685 0.109228,0.131138 0.109228,0.221323 0,0.00364961 -7.08661e-005,0.00727559 -0.000208661,0.0108858 -0.00344882,-0.0826142 -0.0494016,-0.155201 -0.118311,-0.199819z"/>
      <path id="_438972072" class="fil9" d="M2.52783 4.44939c-0.000137795,-0.00361024 -0.000208661,-0.00723622 -0.000208661,-0.0108858 0,-0.118634 0.0740866,-0.219949 0.178508,-0.260244 0.104429,0.0402953 0.178516,0.14161 0.178516,0.260244 0,0.00364961 -7.08661e-005,0.00727559 -0.000208661,0.0108858 -0.00437795,-0.104764 -0.0770906,-0.193413 -0.178307,-0.229335 -0.101213,0.0359213 -0.173925,0.124571 -0.178299,0.229335z"/>
      <path id="_438971808" class="fil9" d="M2.88435 4.44939c-0.000137795,-0.00361024 -0.000208661,-0.00723622 -0.000208661,-0.0108858 0,-0.118634 0.0740866,-0.219949 0.178508,-0.260244 0.104425,0.0402953 0.178512,0.14161 0.178512,0.260244 0,0.00364961 -7.08661e-005,0.00727559 -0.000208661,0.0108858 -0.00437402,-0.104764 -0.0770866,-0.193413 -0.178303,-0.229335 -0.101217,0.0359213 -0.173925,0.124571 -0.178299,0.229335z"/>
      <path id="_438970872" class="fil9" d="M3.06143 4.17742c-0.000141732,-0.00361024 -0.000212598,-0.00724016 -0.000212598,-0.0108858 0,-0.118638 0.0740866,-0.219953 0.178512,-0.260248 0.104425,0.0402953 0.178512,0.14161 0.178512,0.260248 0,0.00364567 -7.08661e-005,0.00727559 -0.000208661,0.0108858 -0.00437795,-0.104768 -0.0770866,-0.193413 -0.178303,-0.229339 -0.101217,0.0359252 -0.173925,0.124571 -0.178299,0.229339z"/>
      <path id="_438971376" class="fil9" d="M3.41794 4.17742c-0.000137795,-0.00361024 -0.000208661,-0.00724016 -0.000208661,-0.0108858 0,-0.118638 0.0740866,-0.219953 0.178512,-0.260248 0.104421,0.0402953 0.178508,0.14161 0.178508,0.260248 0,0.00364567 -7.08661e-005,0.00727559 -0.000208661,0.0108858 -0.00437402,-0.104768 -0.0770866,-0.193413 -0.178299,-0.229339 -0.101217,0.0359252 -0.173929,0.124571 -0.178303,0.229339z"/>
      <path id="_438971208" class="fil9" d="M3.77445 4.17742c-0.000137795,-0.00361024 -0.000208661,-0.00724016 -0.000208661,-0.0108858 0,-0.118638 0.0740866,-0.219953 0.178512,-0.260248 0.104425,0.0402953 0.178512,0.14161 0.178512,0.260248 0,0.00364567 -7.48031e-005,0.00727559 -0.000212598,0.0108858 -0.00437402,-0.104768 -0.0770866,-0.193413 -0.178299,-0.229339 -0.101217,0.0359252 -0.173929,0.124571 -0.178303,0.229339z"/>
      <path id="_438971352" class="fil9" d="M4.28443 3.91731c0.00590945,0.0110748 0.011689,0.0222717 0.017374,0.0335512 -0.0973071,0.0375591 -0.166575,0.12439 -0.170839,0.226563 -0.000141732,-0.00361024 -0.000212598,-0.00724016 -0.000212598,-0.0108858 0,-0.108996 0.0625394,-0.203358 0.153677,-0.249228z"/>
      <path id="_438971280" class="fil9" d="M2.52561 3.94923c0.00617323,-0.0122087 0.0124331,-0.0243386 0.0188622,-0.0363071 0.0960669,0.0440354 0.162803,0.14102 0.162803,0.25361 0,0.00364567 -7.48031e-005,0.00727559 -0.000212598,0.0108858 -0.00437402,-0.104768 -0.0770866,-0.193413 -0.178303,-0.229339 -0.00105512,0.000374016 -0.00209843,0.00076378 -0.00314961,0.00114961z"/>
      <path id="_438970320" class="fil9" d="M2.70697 4.17742c-0.000137795,-0.00361024 -0.000204724,-0.00724016 -0.000204724,-0.0108858 0,-0.118638 0.0740866,-0.219953 0.178508,-0.260248 0.104425,0.0402953 0.178512,0.14161 0.178512,0.260248 0,0.00364567 -7.08661e-005,0.00727559 -0.000212598,0.0108858 -0.00437008,-0.104768 -0.0770866,-0.193413 -0.178299,-0.229339 -0.101217,0.0359252 -0.173929,0.124571 -0.178303,0.229339z"/>
      <path id="_438970056" class="fil9" d="M2.88406 3.90545c-0.000141732,-0.00361024 -0.000212598,-0.00724016 -0.000212598,-0.0108858 0,-0.118634 0.0740827,-0.219949 0.178508,-0.260248 0.104425,0.0402992 0.178512,0.141614 0.178512,0.260248 0,0.00364567 -6.69291e-005,0.00727559 -0.000208661,0.0108858 -0.00437402,-0.104768 -0.0770866,-0.193413 -0.178303,-0.229335 -0.101213,0.0359213 -0.173925,0.124567 -0.178295,0.229335z"/>
      <path id="_438970800" class="fil9" d="M3.24057 3.90545c-0.000133858,-0.00361024 -0.000208661,-0.00724016 -0.000208661,-0.0108858 0,-0.118634 0.0740866,-0.219949 0.178512,-0.260248 0.104425,0.0402992 0.178512,0.141614 0.178512,0.260248 0,0.00364567 -7.08661e-005,0.00727559 -0.000208661,0.0108858 -0.00437795,-0.104768 -0.0770866,-0.193413 -0.178303,-0.229335 -0.101217,0.0359213 -0.173925,0.124567 -0.178303,0.229335z"/>
      <path id="_438970344" class="fil9" d="M3.59708 3.90545c-0.000137795,-0.00361024 -0.000208661,-0.00724016 -0.000208661,-0.0108858 0,-0.118634 0.0740866,-0.219949 0.178508,-0.260248 0.104425,0.0402992 0.178512,0.141614 0.178512,0.260248 0,0.00364567 -7.08661e-005,0.00727559 -0.000208661,0.0108858 -0.00437402,-0.104768 -0.0770866,-0.193413 -0.178303,-0.229335 -0.101213,0.0359213 -0.173925,0.124567 -0.178299,0.229335z"/>
      <path id="_438970224" class="fil9" d="M4.10256 3.64765c0.00833465,0.0098937 0.0165748,0.0199409 0.0247205,0.0301457 -0.0988031,0.0369528 -0.169382,0.124488 -0.173689,0.227654 -0.000137795,-0.00361024 -0.000208661,-0.00724016 -0.000208661,-0.0108858 0,-0.107189 0.0604843,-0.200232 0.149177,-0.246913z"/>
      <path id="_438969528" class="fil9" d="M2.69758 3.68c0.00999606,-0.0125709 0.0201457,-0.0248937 0.0304252,-0.0369961 0.0937008,0.0449488 0.158406,0.140689 0.158406,0.251555 0,0.00364567 -6.69291e-005,0.00727559 -0.000208661,0.0108858 -0.00437402,-0.104768 -0.0770866,-0.193413 -0.178299,-0.229335 -0.00347638,0.00123228 -0.00691339,0.00253543 -0.0103228,0.00388976z"/>
      <path id="_438969624" class="fil9" d="M2.94799 3.43564c0.00844094,-0.00623228 0.0169055,-0.0123465 0.0254173,-0.0182756 0.055378,0.0509606 0.0900866,0.124035 0.0900866,0.205228 0,0.00364961 -7.08661e-005,0.00727559 -0.000208661,0.0108898 -0.00339764,-0.0814094 -0.0480669,-0.153075 -0.115295,-0.197843z"/>
      <path id="_438969672" class="fil9" d="M3.0632 3.63348c-0.000137795,-0.00361417 -0.000208661,-0.00724016 -0.000208661,-0.0108898 0,-0.118634 0.0740866,-0.219949 0.178512,-0.260244 0.104421,0.0402953 0.178512,0.14161 0.178512,0.260244 0,0.00364961 -7.08661e-005,0.00727559 -0.000212598,0.0108898 -0.00437402,-0.104768 -0.0770866,-0.193413 -0.178299,-0.229339 -0.101217,0.0359252 -0.173929,0.124571 -0.178303,0.229339z"/>
      <path id="_438969456" class="fil9" d="M3.41971 3.63348c-0.000141732,-0.00361417 -0.000212598,-0.00724016 -0.000212598,-0.0108898 0,-0.118634 0.0740906,-0.219949 0.178512,-0.260244 0.104425,0.0402953 0.178512,0.14161 0.178512,0.260244 0,0.00364961 -7.08661e-005,0.00727559 -0.000208661,0.0108898 -0.00437402,-0.104768 -0.0770906,-0.193413 -0.178303,-0.229339 -0.101217,0.0359252 -0.173929,0.124571 -0.178299,0.229339z"/>
      <path id="_438969216" class="fil9" d="M3.86057 3.4226c0.0081063,0.00574409 0.0161811,0.0116339 0.0242205,0.0176535 -0.0634724,0.0449921 -0.10528,0.114563 -0.108563,0.193224 -0.000137795,-0.00361417 -0.000212598,-0.00724016 -0.000212598,-0.0108898 0,-0.0784528 0.0324094,-0.149323 0.0845551,-0.199988z"/>
     </g>
    </g>
   </g>
   <path class="fil10" d="M3.41333 3.28518c0.482031,0 1.06121,0.631827 1.06121,1.41122 0,0.445402 -0.121902,0.784067 -0.307268,1.01598 -0.243894,0.30513 -1.29896,0.269539 -1.51819,-0.0130945 -0.179567,-0.231492 -0.296961,-0.565791 -0.296961,-1.00288 0,-0.779394 0.579181,-1.41122 1.06121,-1.41122z"/>
   <path id="_273789400" class="fil0" d="M3.07011 3.30812c0.104559,0.0925315 0.239516,0.146748 0.379398,0.140394 0.139882,-0.00635039 0.257858,-0.0720591 0.335043,-0.172843 -0.104559,-0.0925315 -0.23952,-0.146752 -0.379398,-0.140398 -0.139882,0.00635039 -0.257858,0.0720591 -0.335043,0.172846z"/>
  </g>
  <rect class="fil10" width="6.82666" height="6.82666"/>
 </g>
</svg>
