<?xml version="1.0" encoding="UTF-8"?>
<!DOCTYPE svg PUBLIC "-//W3C//DTD SVG 1.1//EN" "http://www.w3.org/Graphics/SVG/1.1/DTD/svg11.dtd">
<!-- Creator: CorelDRAW -->
<svg xmlns="http://www.w3.org/2000/svg" xml:space="preserve" width="6.82666in" height="6.82666in" style="shape-rendering:geometricPrecision; text-rendering:geometricPrecision; image-rendering:optimizeQuality; fill-rule:evenodd; clip-rule:evenodd"
viewBox="0 0 6.82666 6.82666"
 xmlns:xlink="http://www.w3.org/1999/xlink">
 <defs>
  <style type="text/css">
   <![CDATA[
    .fil13 {fill:none}
    .fil3 {fill:#242424}
    .fil9 {fill:#7CB342}
    .fil7 {fill:#8BC34A}
    .fil0 {fill:#BAB93D}
    .fil2 {fill:#CDCC72}
    .fil4 {fill:#DCDEA4}
    .fil12 {fill:#00ACC1;fill-rule:nonzero}
    .fil8 {fill:#33691E;fill-rule:nonzero}
    .fil11 {fill:#4DD0E1;fill-rule:nonzero}
    .fil1 {fill:#9CA913;fill-rule:nonzero}
    .fil10 {fill:#AB1D1D;fill-rule:nonzero}
    .fil5 {fill:#D50000;fill-rule:nonzero}
    .fil6 {fill:#FFB300;fill-rule:nonzero}
   ]]>
  </style>
 </defs>
 <g id="Layer_x0020_1">
  <metadata id="CorelCorpID_0Corel-Layer"/>
  <g id="_436968240">
   <ellipse id="_437039536" class="fil0" transform="matrix(0.211947 0.0382664 -0.0571839 0.230551 3.1696 2.80632)" rx="1.86086" ry="1.87922"/>
   <path id="_437039152" class="fil1" d="M3.28292 2.34038c0.00901969,0.00162598 0.0173701,0.00340157 0.0250433,0.00530315 0.106409,0.0263858 0.191217,0.0943976 0.243945,0.185622 0.0521181,0.0901693 0.072752,0.203047 0.0515591,0.320429 -0.00211811,0.011752 -0.00451181,0.0230197 -0.00716929,0.0337362 -0.0316299,0.127524 -0.107425,0.234563 -0.204398,0.304512 -0.0978622,0.0705984 -0.217476,0.103602 -0.335618,0.0822717 -0.00901969,-0.00162598 -0.017378,-0.00340157 -0.0250433,-0.00530315 -0.106409,-0.0263858 -0.19122,-0.0944016 -0.243945,-0.185622 -0.0521181,-0.0901693 -0.072752,-0.203043 -0.0515591,-0.320425 0.00211811,-0.011752 0.00451181,-0.0230197 0.00716929,-0.0337362 0.031626,-0.127524 0.107425,-0.234563 0.204394,-0.304512 0.0978661,-0.0706024 0.217476,-0.103606 0.335622,-0.0822756zm0.00916142 0.0698858c-0.00740157,-0.00183465 -0.014374,-0.00335039 -0.020878,-0.00452362 -0.0996732,-0.0179961 -0.201331,0.0103858 -0.285102,0.0708189 -0.0846654,0.0610748 -0.150902,0.154736 -0.178614,0.266488 -0.00259055,0.0104409 -0.00472047,0.0203031 -0.00638976,0.0295709 -0.0182992,0.101374 -0.000775591,0.19835 0.043748,0.275378 0.0439134,0.0759724 0.114248,0.132539 0.202276,0.15437 0.0073937,0.00183465 0.0143701,0.00335039 0.020878,0.00452362 0.0996732,0.0179961 0.201335,-0.0103858 0.285098,-0.070815 0.0846693,-0.0610748 0.150902,-0.15474 0.178618,-0.266488 0.00259055,-0.0104409 0.00472047,-0.0203031 0.00638976,-0.0295709 0.0182992,-0.10137 0.000775591,-0.198354 -0.043748,-0.275382 -0.0439134,-0.0759724 -0.114248,-0.132539 -0.202276,-0.15437z"/>
   <path id="_437039464" class="fil2" d="M3.23434 2.57721c0.0597874,-0.0228583 0.113,0.0178898 0.129543,0.092811 0.0472913,0.0373071 0.0579134,0.108783 0.0207008,0.171331 0.00073622,0.0845315 -0.0429134,0.146209 -0.100272,0.149492 -0.0542913,0.0772598 -0.122291,0.096126 -0.162508,0.0400787 -0.0936732,0.031874 -0.14689,-0.00887402 -0.129547,-0.0928071 -0.0811732,-0.0282953 -0.0917953,-0.0997717 -0.0207008,-0.171331 -0.0346142,-0.0755197 0.0090315,-0.137197 0.100276,-0.149492 0.0204055,-0.068248 0.0884055,-0.0871142 0.162508,-0.0400827z"/>
   <ellipse id="_437039320" class="fil3" cx="3.20999" cy="2.59623" rx="0.0188082" ry="0.0654505"/>
   <ellipse id="_437039296" class="fil3" transform="matrix(0.158307 0.0772731 -0.12672 0.259608 3.30371 2.61788)" rx="0.106768" ry="0.226563"/>
   <ellipse id="_437039080" class="fil3" transform="matrix(0.108368 0.138884 -0.227756 0.177712 3.36157 2.68384)" rx="0.106768" ry="0.226563"/>
   <ellipse id="_437039584" class="fil3" transform="matrix(0.0364632 0.172345 -0.282628 0.059796 3.39369 2.76775)" rx="0.106768" ry="0.226563"/>
   <ellipse id="_271398960" class="fil3" transform="matrix(-0.0428317 0.170873 -0.280215 -0.0702397 3.38575 2.85725)" rx="0.106768" ry="0.226563"/>
   <ellipse id="_436967088" class="fil3" transform="matrix(-0.113445 0.134768 -0.221006 -0.186039 3.33935 2.93419)" rx="0.106768" ry="0.226563"/>
   <ellipse id="_436963728" class="fil3" transform="matrix(-0.161065 0.0713471 -0.117002 -0.26413 3.2639 2.98298)" rx="0.106768" ry="0.226563"/>
   <ellipse id="_436970352" class="fil3" transform="matrix(-0.161065 0.0713471 -0.117002 -0.26413 3.09084 2.59229)" rx="0.106768" ry="0.226563"/>
   <ellipse id="_436970040" class="fil4" transform="matrix(0.0392845 0.0201329 -0.131755 0.257089 3.29428 2.60763)" rx="0.106768" ry="0.226563"/>
   <ellipse id="_436969896" class="fil4" transform="matrix(0.0303951 0.0320116 -0.209493 0.198914 3.34571 2.65072)" rx="0.106768" ry="0.226563"/>
   <ellipse id="_436970544" class="fil4" transform="matrix(0.0180721 0.0402741 -0.263565 0.118269 3.383 2.70889)" rx="0.106768" ry="0.226563"/>
   <ellipse id="_436969944" class="fil4" transform="matrix(0.00370761 0.043987 -0.287863 0.0242636 3.3989 2.77614)" rx="0.106768" ry="0.226563"/>
   <ellipse id="_436970184" class="fil4" transform="matrix(-0.0110758 0.0427309 -0.279643 -0.0724828 3.39163 2.84486)" rx="0.106768" ry="0.226563"/>
   <ellipse id="_436969968" class="fil4" transform="matrix(-0.0246079 0.0366477 -0.239833 -0.161041 3.362 2.90729)" rx="0.106768" ry="0.226563"/>
   <ellipse id="_436970424" class="fil4" transform="matrix(-0.0353603 0.0264246 -0.17293 -0.231407 3.31335 2.95637)" rx="0.106768" ry="0.226563"/>
   <ellipse id="_436969800" class="fil4" transform="matrix(-0.0421181 0.0132163 -0.0864914 -0.275633 3.2512 2.98656)" rx="0.106768" ry="0.226563"/>
   <ellipse id="_436969752" class="fil4" transform="matrix(-0.044118 -0.00148488 0.00971745 -0.288721 3.18255 2.99446)" rx="0.106768" ry="0.226563"/>
   <ellipse id="_436969080" class="fil4" transform="matrix(0.0437361 0.00597981 -0.0391335 0.286221 3.1679 3.00945)" rx="0.106768" ry="0.226563"/>
   <ellipse id="_436969464" class="fil4" transform="matrix(0.0392845 0.0201329 -0.131755 0.257089 3.09939 2.98791)" rx="0.106768" ry="0.226563"/>
   <ellipse id="_436969704" class="fil4" transform="matrix(0.0303951 0.0320116 -0.209493 0.198914 3.03584 2.94494)" rx="0.106768" ry="0.226563"/>
   <ellipse id="_436969104" class="fil4" transform="matrix(0.0180721 0.0402741 -0.263565 0.118269 2.99314 2.88383)" rx="0.106768" ry="0.226563"/>
   <ellipse id="_436969728" class="fil4" transform="matrix(0.00370761 0.043987 -0.287863 0.0242636 2.97311 2.81203)" rx="0.106768" ry="0.226563"/>
   <ellipse id="_436969176" class="fil4" transform="matrix(-0.0110758 0.0427309 -0.279643 -0.0724828 2.97799 2.73765)" rx="0.106768" ry="0.226563"/>
   <ellipse id="_436968480" class="fil4" transform="matrix(-0.0246079 0.0366477 -0.239833 -0.161041 3.00724 2.66908)" rx="0.106768" ry="0.226563"/>
   <ellipse id="_436968960" class="fil4" transform="matrix(-0.0353603 0.0264246 -0.17293 -0.231407 3.05756 2.61408)" rx="0.106768" ry="0.226563"/>
   <ellipse id="_436968912" class="fil4" transform="matrix(-0.0421181 0.0132163 -0.0864914 -0.275633 3.12326 2.57886)" rx="0.106768" ry="0.226563"/>
   <ellipse id="_436968720" class="fil4" transform="matrix(-0.044118 -0.00148488 0.00971745 -0.288721 3.19692 2.56739)" rx="0.106768" ry="0.226563"/>
   <ellipse id="_436968744" class="fil3" cx="3.20999" cy="3.02353" rx="0.0188082" ry="0.0654505"/>
   <ellipse id="_436968600" class="fil3" transform="matrix(0.158307 0.0772731 -0.12672 0.259608 3.11627 3.00188)" rx="0.106768" ry="0.226563"/>
   <ellipse id="_436968528" class="fil3" transform="matrix(0.108368 0.138884 -0.227756 0.177712 3.02469 2.94671)" rx="0.106768" ry="0.226563"/>
   <ellipse id="_436968504" class="fil3" transform="matrix(0.0364632 0.172345 -0.282628 0.059796 2.97564 2.8562)" rx="0.106768" ry="0.226563"/>
   <ellipse id="_436967688" class="fil3" transform="matrix(-0.113445 0.134768 -0.221006 -0.186039 3.01244 2.65901)" rx="0.106768" ry="0.226563"/>
   <ellipse id="_436968024" class="fil3" transform="matrix(-0.0428317 0.170873 -0.280215 -0.0702397 2.97126 2.75335)" rx="0.106768" ry="0.226563"/>
  </g>
  <path class="fil5" d="M2.03262 2.90706c0.00896457,-0.0329331 0.0191299,-0.0645157 0.030311,-0.0944291 0.0379252,-0.101476 0.0876535,-0.18378 0.141476,-0.234382 0.0572953,-0.0538701 0.119843,-0.0731142 0.179567,-0.0442874 0.0269803,0.0130197 0.0532283,0.0360472 0.0779882,0.070315 0.0330787,0.0457717 0.0607283,0.11811 0.0888425,0.191673 0.0152598,0.0399173 0.0306969,0.080315 0.0448228,0.11111 -0.201909,0 -0.351535,0 -0.563008,0z"/>
  <path class="fil6" d="M3.47254 3.02796c0.0163386,-0.0312008 0.034878,-0.061122 0.0552598,-0.0894606 0.0691417,-0.0961417 0.159811,-0.174114 0.257937,-0.222055 0.104457,-0.0510354 0.218492,-0.0692677 0.327378,-0.0419567 0.0491929,0.0123346 0.0970472,0.0341496 0.142189,0.0666142 0.0603031,0.0433661 0.110717,0.111898 0.161976,0.181591 0.027815,0.0378189 0.0559646,0.0760906 0.0817165,0.105268 -0.368114,0 -0.640909,0 -1.02646,0z"/>
  <path class="fil7" d="M5.56381 2.80697c0.0264094,-0.106736 -0.0199291,-0.112575 0.103638,-0.180016 0.00298819,-0.00272441 0.237252,-0.0821535 0.0866969,-0.14876 -0.000452756,-0.00019685 -0.189339,0.069126 -0.214252,0.0798937 -0.124067,0.0545984 0.0181457,0.0586811 -0.193823,0.0944173 -0.0865079,0.0145827 -0.0715984,0.0984803 -0.168909,0.0789843 -0.0975118,-0.0195394 -0.0632638,-0.00811024 -0.166417,-0.036315 -0.0149291,-0.00408268 -0.0552638,0.0105748 -0.141008,-0.010248 -0.0781772,-0.0189882 -0.194319,0.0394291 -0.208272,0.0994764 -0.0313898,0.00726378 -0.26898,-0.158165 -0.479323,0.117764 -0.00290945,0.0038189 -0.00598031,0.00751969 -0.00847244,0.0110236 -0.146984,0.189094 -0.192957,0.0342008 -0.474343,0.0581024 -0.219661,0.0186575 -0.0427717,-0.104051 -0.297957,0.029311 -0.0667244,0.0348701 -0.173343,-0.195339 -0.276035,-0.120874 -0.0717008,0.0519882 -0.181638,0.0762953 -0.266571,0.0221772 -0.0730157,-0.0465236 -0.154957,0.0267165 -0.206776,0.0712008 -0.157949,-0.0280118 -0.279138,-0.172685 -0.422524,-0.0894882 -0.0544213,0.0315787 -0.179953,-0.208035 -0.362236,-0.184945 -0.0613661,0.00777165 -0.0939291,-0.153366 -0.24813,-0.173791 -0.15324,-0.0202992 -0.0840394,0.0350827 -0.251122,0.0145276 -0.0700984,-0.00862205 -0.102154,0.0364449 -0.108622,0.0922126 -0.00648031,0.0558937 0.0109449,0.124134 0.0388661,0.166528 0.00197244,0.00299606 0.0189331,0.0430591 0.0199291,0.048248 0.115594,0.0783346 0.970114,0.214677 1.19333,0.287012 0.419606,0.135976 0.733146,0.0604488 1.16393,0.0470787 0.200689,-0.00622835 0.433567,-0.0564764 0.663681,-0.105441 0.231303,-0.0492205 0.459295,-0.103717 0.650728,-0.134882 0.0586929,-0.00955512 0.489819,-0.0235866 0.525161,-0.0701654 0.00401575,-0.00529528 0.00348819,-0.0055748 0.00498425,-0.0116732 0.0144488,-0.00466929 0.0189213,-0.0158307 0.0269055,-0.0308661 0.00696063,-0.0131024 0.0144488,-0.0111535 0.0169409,-0.0204921z"/>
  <path class="fil8" d="M4.28994 2.99192c0.0237913,-0.0389606 0.0481457,-0.0766575 0.0727244,-0.112693 0.0292559,-0.0429016 -0.108996,-0.0465197 -0.0796339,-0.0840472 0.0543228,-0.0694291 0.275717,-0.165472 0.324839,-0.209917 0.0805551,-0.0728898 0.150429,-0.107972 0.195591,-0.0883937 0.0204094,0.00883858 0.0355276,0.0290866 0.0440591,0.0622953 0.0113976,0.0443622 0.00537008,0.119756 -0.00076378,0.196429 -0.00333071,0.0416063 -0.00670079,0.0837126 -0.0069685,0.115307 -0.197189,0.0434016 -0.343319,0.075563 -0.549846,0.12102z"/>
  <path class="fil9" d="M1.26234 2.79932c-0.0264055,-0.104795 0.0199331,-0.11063 -0.103638,-0.176646 -0.00298819,-0.00272441 -0.236654,-0.0806378 -0.0866969,-0.146035 0.000515748,-0.000224409 0.189339,0.0674409 0.214252,0.0780748 0.124067,0.0530472 -0.0182087,0.0579961 0.193823,0.0920827 0.086437,0.0138937 0.0716614,0.0961969 0.168909,0.0762598 0.0975709,-0.0200039 0.063252,-0.00879921 0.166417,-0.0373504 0.0149173,-0.00412598 0.055315,0.00974409 0.141008,-0.0115433 0.0782323,-0.0194331 0.194323,0.0365748 0.208272,0.0955866 0.0313937,0.00674409 0.269197,-0.157551 0.479327,0.11426 0.00262598,0.00339764 0.00548031,0.00726378 0.0084685,0.0107638 0.146988,0.18702 0.19289,0.0346417 0.474343,0.0644567 0.219543,0.0232559 0.0427165,-0.101437 0.297961,0.0376142 0.0666693,0.0363189 0.17376,-0.186839 0.276035,-0.111539 0.0721142,0.0530945 0.181638,0.0785118 0.266567,0.0260709 0.0730157,-0.0450866 0.154961,0.0271063 0.20678,0.0705512 0.157945,-0.0282717 0.279075,-0.171673 0.422524,-0.0918228 0.0543543,0.0302559 0.179925,-0.207496 0.362232,-0.188185 0.0613425,0.00649606 0.0938701,-0.152701 0.248134,-0.175087 0.153181,-0.0222283 0.0839882,0.0327205 0.251122,0.0111535 0.0700551,-0.00903937 0.101654,0.0352756 0.108122,0.0901378 0.00648031,0.0549843 -0.0105276,0.12213 -0.0383661,0.163803 -0.00205118,0.00307087 -0.0189331,0.0425394 -0.0199291,0.0477283 -0.115598,0.0780748 -0.969677,0.227272 -1.19333,0.299205 -0.419209,0.134831 -0.733504,0.052374 -1.16393,0.0269764 -0.200965,-0.0118543 -0.433906,-0.0644843 -0.664177,-0.112445 -0.23113,-0.0481417 -0.459335,-0.0986102 -0.650228,-0.126972 -0.0587323,-0.00872441 -0.489748,-0.0194882 -0.525165,-0.0652362 -0.00394094,-0.00509055 -0.00348819,-0.00544882 -0.00498425,-0.0115433 -0.0144488,-0.00440945 -0.0189685,-0.0154173 -0.0269055,-0.0300866 -0.00700394,-0.0129528 -0.0144488,-0.0111575 -0.0169409,-0.0202323z"/>
  <path class="fil10" d="M1.17166 2.91151c0.0134528,0.00583465 0.0269055,0.0117992 0.0403583,0.0176378 0.0388661,0.0178976 0.071252,0.0356654 0.102642,0.0529134 0.157949,0.0891024 0.300949,0.174311 0.482811,0.103496 0.11211,-0.0418898 0.201299,-0.0699055 0.288992,-0.0674409 0.0822126,0.00233465 0.169906,0.0329449 0.286,0.10752 0.508224,0.313083 0.750874,0.235654 0.967618,0.153169 0.159941,-0.0697756 0.302445,-0.139425 0.573992,-0.0185472 0.521677,0.187409 0.888894,-0.0970118 1.14301,-0.291425 0.0498268,-0.0376102 0.0946693,-0.0712008 0.134528,-0.0948071 0.0468386,-0.0278819 0.0812165,-0.0319016 0.104138,0.0203622 0.0966614,0.0442283 0.11161,-0.0629016 0.167913,-0.0936378 -0.0777283,-0.179886 -0.188839,-0.171976 -0.340311,-0.0819685 -0.0458386,0.0282756 -0.0966614,0.0665354 -0.152965,0.109335 -0.218736,0.168732 -0.534634,0.413335 -0.97011,0.260035 -0.350276,-0.15161 -0.531642,-0.0631614 -0.734433,0.0215315 -0.182862,0.0661417 -0.387146,0.130992 -0.822626,-0.135921 -0.152465,-0.0974016 -0.272047,-0.137346 -0.390138,-0.140846 -0.113102,-0.00285433 -0.21724,0.0296969 -0.345291,0.0783346 -0.103638,0.0411142 -0.207276,-0.0204921 -0.321378,-0.0868976 -0.0383661,-0.020878 -0.0772283,-0.0421496 -0.112106,-0.0591378 -0.0134528,-0.00648425 -0.0269055,-0.0128425 -0.0403583,-0.0193268 -0.0209291,0.055252 -0.0418543,0.11037 -0.0622835,0.165622z"/>
  <path class="fil7" d="M1.26284 3.16519c-0.0264094,-0.109075 0.0199291,-0.115299 -0.103638,-0.183906 -0.00298819,-0.00285433 -0.237118,-0.0835472 -0.0866969,-0.152264 0.00011811,-5.11811e-005 0.189339,0.0699055 0.214252,0.0807992 0.124563,0.0548622 -0.0182047,0.060811 0.194319,0.0951969 0.0864449,0.0139843 0.0716457,0.0998937 0.168909,0.0783346 0.0975512,-0.021626 0.0637874,-0.00918898 0.166421,-0.0402047 0.0149488,-0.00451575 0.055811,0.00975591 0.141504,-0.0132283 0.0782323,-0.0209803 0.194819,0.0365748 0.208272,0.0977913 0.0318898,0.00687402 0.27026,-0.166677 0.480323,0.114909 0.00269291,0.00361024 0.00548031,0.00751969 0.0084685,0.0114134 0.147484,0.19389 0.193398,0.0342441 0.474843,0.0638071 0.220047,0.0231142 0.0425827,-0.105941 0.298457,0.0382598 0.0670394,0.0377795 0.17424,-0.194862 0.276531,-0.116205 0.0720984,0.0554409 0.182114,0.0824803 0.267067,0.0281417 0.0729961,-0.046689 0.155457,0.0291811 0.207276,0.0748346 0.157949,-0.0282717 0.279071,-0.176717 0.423024,-0.0920827 0.0543504,0.0319567 0.180469,-0.215461 0.362732,-0.193244 0.0613858,0.00748031 0.0938701,-0.158181 0.24863,-0.180146 0.153189,-0.0217402 0.0845039,0.0351693 0.251622,0.013878 0.0700709,-0.0089252 0.101646,0.0373504 0.108122,0.0946772 0.00647638,0.0573189 -0.0105236,0.127193 -0.0383661,0.170677 -0.00205118,0.00320472 -0.018937,0.0442244 -0.0199331,0.0496732 -0.116094,0.0805394 -0.97115,0.228138 -1.19482,0.301409 -0.420181,0.137646 -0.734988,0.0505551 -1.16643,0.0254213 -0.201433,-0.0117323 -0.434413,-0.0641654 -0.664677,-0.112189 -0.231142,-0.0482087 -0.459811,-0.0988504 -0.65122,-0.126839 -0.0587165,-0.00858268 -0.490768,-0.0168819 -0.526161,-0.0644606 -0.00396457,-0.00533071 -0.00348819,-0.00570472 -0.00448425,-0.0119291 -0.0149488,-0.00466929 -0.0194567,-0.0160748 -0.0274055,-0.0313858 -0.00699606,-0.0134764 -0.0144488,-0.0115433 -0.0169409,-0.0211417z"/>
  <path class="fil9" d="M5.52345 3.16804c0.0259094,-0.11115 -0.0189331,-0.117764 0.101146,-0.189094 0.00298819,-0.00285433 0.231142,-0.0870512 0.0847047,-0.155244 -0.000114173,-5.11811e-005 -0.184854,0.0731457 -0.209268,0.0841693 -0.121079,0.0571969 0.0175709,0.0611969 -0.188843,0.0981811 -0.0846024,0.0151575 -0.0695591,0.10289 -0.164921,0.0814488 -0.0949764,-0.0213543 -0.0617283,-0.00861811 -0.161937,-0.039689 -0.0143898,-0.00446063 -0.0542717,0.0106299 -0.138016,-0.0123189 -0.0761929,-0.0208819 -0.189339,0.0381299 -0.202791,0.100642 -0.0308937,0.00713386 -0.262961,-0.169291 -0.467866,0.115559 -0.0028622,0.00398031 -0.00597638,0.00764961 -0.0084685,0.0114134 -0.1435,0.195449 -0.188008,0.0323976 -0.462882,0.0560276 -0.214197,0.0184134 -0.041685,-0.108831 -0.290484,0.0308661 -0.0651457,0.0365787 -0.169295,-0.202453 -0.269559,-0.123469 -0.0696457,0.0548622 -0.177504,0.0816299 -0.260591,0.0261969 -0.0708701,-0.0472835 -0.150972,0.0306102 -0.201295,0.0779488 -0.153961,-0.0265906 -0.272012,-0.175539 -0.412059,-0.086378 -0.0532717,0.0339134 -0.175949,-0.214543 -0.353764,-0.188445 -0.0598543,0.00878346 -0.0914724,-0.158913 -0.242154,-0.17976 -0.149283,-0.0206535 -0.082063,0.037437 -0.245146,0.015437 -0.068622,-0.00925591 -0.0996535,0.0376102 -0.10613,0.0959724 -0.00647638,0.0583583 0.0109291,0.129591 0.0383661,0.173531 0.00195669,0.00313386 0.018437,0.0447441 0.018937,0.0503228 0.113102,0.0827441 0.946681,0.217106 1.16443,0.288957 0.409626,0.135161 0.71574,0.0515276 1.13603,0.0373543 0.195677,-0.00659843 0.423079,-0.0553071 0.647736,-0.10311 0.225799,-0.0480433 0.448358,-0.100724 0.634783,-0.130732 0.0577244,-0.00929134 0.478323,-0.0221811 0.512709,-0.0704213 0.00397638,-0.00557874 0.00348819,-0.00570866 0.00448425,-0.012063 0.0144488,-0.00479921 0.0184921,-0.016315 0.0264055,-0.0319055 0.00702756,-0.0138504 0.0139528,-0.0116732 0.0164449,-0.0213976z"/>
  <path class="fil8" d="M1.22532 3.16228c0.0316102,-0.0329331 0.0635,-0.0645157 0.095248,-0.0944291 0.0377953,-0.0356063 -0.0964488,-0.0688543 -0.0597047,-0.0991969 0.0679764,-0.0561299 0.304843,-0.102339 0.362366,-0.135185 0.0943425,-0.0538701 0.170122,-0.0731142 0.210024,-0.0442874 0.0180276,0.0130197 0.0284409,0.0360472 0.0296339,0.070315 0.00159843,0.0457717 -0.0204961,0.11811 -0.0429685,0.191673 -0.0121969,0.0399173 -0.0245354,0.080315 -0.0315906,0.11111 -0.201909,0 -0.351535,0 -0.563008,0z"/>
  <path class="fil11" d="M3.41333 3.09058l2.56 0c0,1.05769 -0.912453,1.66885 -1.96696,1.83353l-1.18608 0c-1.05451,-0.164673 -1.96696,-0.775839 -1.96696,-1.83353l2.56 0z"/>
  <path class="fil5" d="M2.67324 3.27165c0.0316102,-0.0329331 0.0635,-0.0645157 0.095248,-0.0944291 0.107713,-0.101476 0.214043,-0.18378 0.302661,-0.234382 0.0943425,-0.0538701 0.170122,-0.0731142 0.210024,-0.0442874 0.0180276,0.0130197 0.0284409,0.0360472 0.0296339,0.070315 0.00159843,0.0457717 -0.0204961,0.11811 -0.0429685,0.191673 -0.0121969,0.0399173 -0.0245354,0.080315 -0.0315906,0.11111 -0.201909,0 -0.351535,0 -0.563008,0z"/>
  <path class="fil12" d="M3.41333 3.09058l2.56 0 0.0883268 0c0.0432559,0.122827 -0.0793898,0.139004 -0.0998425,0.197236l-0.00124409 0.010622 -0.00125591 0 -5.09323 0 -0.00125591 0 -0.00124409 -0.010622c-0.0204528,-0.0582323 -0.143098,-0.0744094 -0.0998425,-0.197236l0.0883268 0 2.56 0 0.00125984 0z"/>
  <path class="fil12" d="M2.76509 4.89744c-0.0182638,0.00208268 -0.031378,0.0185827 -0.0292953,0.0368465 0.00208268,0.0182638 0.0185827,0.031378 0.0368465,0.0292953 0.0965197,-0.0110472 0.201449,-0.0195079 0.311043,-0.0251772 0.109031,-0.0056378 0.224307,-0.00855906 0.342122,-0.00855906 0.11289,0 0.223283,0.00266929 0.327929,0.00783465 0.10552,0.0052126 0.206811,0.0129803 0.300579,0.023126 0.0182638,0.00194094 0.0346457,-0.0112913 0.0365866,-0.0295551 0.00194094,-0.0182638 -0.0112913,-0.0346457 -0.0295551,-0.0365866 -0.0945236,-0.0102283 -0.197138,-0.0180827 -0.304484,-0.0233858 -0.10822,-0.00534252 -0.219697,-0.00810236 -0.331055,-0.00810236 -0.116618,0 -0.233067,0.00301181 -0.345508,0.00882677 -0.111874,0.0057874 -0.218217,0.0143386 -0.315209,0.025437z"/>
  <path class="fil13" d="M3.96806 5.13273c0.0219803,0 0.0201496,0 0.0219803,0"/>
  <rect class="fil13" width="6.82666" height="6.82666"/>
 </g>
</svg>
