<?xml version="1.0" encoding="UTF-8"?>
<!DOCTYPE svg PUBLIC "-//W3C//DTD SVG 1.1//EN" "http://www.w3.org/Graphics/SVG/1.1/DTD/svg11.dtd">
<!-- Creator: CorelDRAW -->
<svg xmlns="http://www.w3.org/2000/svg" xml:space="preserve" width="6.82666in" height="6.82666in" style="shape-rendering:geometricPrecision; text-rendering:geometricPrecision; image-rendering:optimizeQuality; fill-rule:evenodd; clip-rule:evenodd"
viewBox="0 0 6.82666 6.82666"
 xmlns:xlink="http://www.w3.org/1999/xlink">
 <defs>
  <style type="text/css">
   <![CDATA[
    .fil8 {fill:none}
    .fil7 {fill:#EC407A}
    .fil3 {fill:#424242;fill-rule:nonzero}
    .fil6 {fill:#5D4037;fill-rule:nonzero}
    .fil5 {fill:#6D4C41;fill-rule:nonzero}
    .fil0 {fill:#880E4F;fill-rule:nonzero}
    .fil1 {fill:#C2185B;fill-rule:nonzero}
    .fil2 {fill:#D81B60;fill-rule:nonzero}
    .fil4 {fill:#EC407A;fill-rule:nonzero}
   ]]>
  </style>
 </defs>
 <g id="Layer_x0020_1">
  <metadata id="CorelCorpID_0Corel-Layer"/>
  <g id="_437060392">
   <path id="_437062624" class="fil0" d="M3.7362 1.57761c-0.0826063,-0.0826102 -0.196768,-0.13372 -0.322866,-0.13372 -0.126102,0 -0.24026,0.0511102 -0.322874,0.13372 -0.0826102,0.0826142 -0.13372,0.196772 -0.13372,0.322874 0,0.0895236 0.0257717,0.173024 0.0702795,0.243496l0.00440551 0.00255906c0.0271811,-0.0159646 0.0553622,-0.0302244 0.0843583,-0.0426496 0.0947047,-0.0405866 0.196413,-0.0614764 0.299457,-0.0614764 0.10263,0 0.203929,0.020748 0.298335,0.0609843 0.0288976,0.0123189 0.0570039,0.026437 0.0841299,0.0422362l0.00142126 -0.000822835c0.0448268,-0.0706457 0.0707992,-0.154453 0.0707992,-0.244327 0,-0.126102 -0.0511102,-0.24026 -0.133724,-0.322874z"/>
   <path id="_437061520" class="fil1" d="M3.65484 1.66303c-0.0617874,-0.0617913 -0.147181,-0.100024 -0.241504,-0.100024 -0.0943268,0 -0.179717,0.0382323 -0.241512,0.100024 -0.0519094,0.0519094 -0.0871811,0.120469 -0.0971417,0.196988 0.0186142,-0.0387795 0.044811,-0.0737638 0.0768701,-0.103339 0.0669843,-0.0617913 0.159539,-0.100024 0.261783,-0.100024 0.10224,0 0.194799,0.0382323 0.261776,0.100024 0.0320591,0.0295787 0.0582638,0.0645669 0.076878,0.10335 -0.00996063,-0.0765236 -0.0452362,-0.145087 -0.0971496,-0.197z"/>
   <path id="_437061664" class="fil2" d="M5.42826 4.78924l-4.02986 0c-0.0242323,0 -0.0481535,-0.00559843 -0.0700354,-0.0159528 -0.0217559,-0.0102913 -0.0412756,-0.0254488 -0.0568425,-0.0446457l-0.000425197 -0.000425197c-0.0156142,-0.019315 -0.0263425,-0.041685 -0.0317441,-0.0653189 -0.00551575,-0.0240866 -0.0056063,-0.0490984 9.84252e-005,-0.073189l0.480177 -2.01841 0.000181102 -0.00127559c0.000661417,-0.00337008 0.0015,-0.00697244 0.00252756,-0.010815l0.000212598 5.51181e-005c0.0493701,-0.187894 0.126193,-0.314063 0.213602,-0.397602 0.12226,-0.116839 0.261587,-0.149606 0.379217,-0.149606 0.0400433,0 0.079689,0.00391732 0.118728,0.011685 0.0244173,0.00485827 0.0485,0.0112402 0.0721811,0.019122 0.0224961,-0.00749213 0.0460748,-0.0137362 0.0706732,-0.0186772 0.0398465,-0.008 0.079752,-0.0121299 0.119366,-0.0121299 0.0829567,0 0.163992,0.0171457 0.238516,0.049063 0.0428622,0.0183543 0.0834685,0.0416102 0.120953,0.0693228 0.037248,-0.0276496 0.077752,-0.0510551 0.120795,-0.0695039 0.0733386,-0.0314291 0.153902,-0.0488819 0.238102,-0.0488819 0.0837953,0 0.164059,0.017311 0.237244,0.0485079 0.0429843,0.0183189 0.0833819,0.0414764 0.120472,0.0687559 0.0373228,-0.0274213 0.0777165,-0.0504331 0.120327,-0.0685827 0.0743543,-0.0316772 0.155079,-0.0486811 0.237618,-0.0486811 0.0396102,0 0.0795157,0.00412992 0.11937,0.0121299 0.0245984,0.00494094 0.0481654,0.011185 0.0706693,0.0186772 0.0236929,-0.00788189 0.0477717,-0.0142677 0.0721969,-0.019126 0.0390354,-0.00776378 0.0786772,-0.0116811 0.118713,-0.0116811 0.11765,0 0.256992,0.0327717 0.37926,0.149717 0.0875591,0.0837441 0.164516,0.21028 0.213937,0.398823 0.000775591,0.00300394 0.00142126,0.00585827 0.0019685,0.0086063l0.000110236 -2.3622e-005 0.480646 2.02059c0.00571654,0.0240354 0.00562598,0.0490551 0.000106299,0.0731772 -0.0053937,0.0235748 -0.0162441,0.0460866 -0.0321772,0.0656969 -0.015563,0.019189 -0.0350591,0.0343543 -0.0568425,0.0446535 -0.0218701,0.0103583 -0.0457795,0.0159449 -0.0700394,0.0159449z"/>
   <polygon id="_437061616" class="fil3" points="4.61966,2.57161 4.61936,2.56846 4.61928,2.56848 4.61954,2.57163 "/>
   <polygon id="_437062000" class="fil3" points="4.61974,2.57272 4.61962,2.57274 4.61985,2.57567 "/>
   <path id="_437061592" class="fil4" d="M4.47843 2.23124c0.0187874,0.0221378 0.0360197,0.0462638 0.0515827,0.072189 0.0444173,0.0740039 0.0750827,0.162874 0.0889961,0.261598l0.000275591 0.00345276 8.26772e-005 -1.5748e-005c0,-3.54331e-005 -3.93701e-006,-3.93701e-005 3.93701e-006,0l0.000311024 0.00314961 1.9685e-005 -3.93701e-006 0 0.000185039 1.1811e-005 0.00011811 -1.1811e-005 -0.00030315 -1.9685e-005 3.93701e-006 1.9685e-005 0.000181102 0 0.000169291 -3.54331e-005 -0.000350394 -0.000125984 1.5748e-005 3.14961e-005 0.000417323 0.000129921 -1.5748e-005 3.14961e-005 0.00026378 -3.93701e-006 -9.84252e-005 -2.75591e-005 -0.000232283 0 6.69291e-005 -0.000129921 1.5748e-005 5.51181e-005 0.00069685 0.000122047 -1.5748e-005 -1.5748e-005 -0.000433071 4.72441e-005 0.000429134 -5.11811e-005 -0.000527559 -1.5748e-005 -0.000283465 8.26772e-005 0.000807087 0.275201 1.99864 0.463972 0 -0.464323 -1.95197 -0.00147244 -0.00846457c-0.037874,-0.142307 -0.0921929,-0.234118 -0.152413,-0.291709 -0.0729134,-0.0697362 -0.157567,-0.0892835 -0.229469,-0.0892835 -0.0110945,0 -0.0220512,0.000440945 -0.0328622,0.00130709z"/>
   <path id="_437061472" class="fil4" d="M4.12136 4.56515l0.553472 0 -0.26978 -1.95926 -0.00015748 2.75591e-005c-0.000326772,-0.0018622 -0.000775591,-0.00538189 -0.00132677,-0.0104803l-4.33071e-005 3.93701e-006c-0.00011811,-0.00104331 -0.000228346,-0.00238189 -0.000330709,-0.00400394 -0.00998819,-0.0681378 -0.0304843,-0.128039 -0.0595748,-0.176516 -0.0268661,-0.044752 -0.061063,-0.0793543 -0.100776,-0.100776l-0.00212598 -0.00127953 -0.00198031 -0.00112598 -0.000153543 -0.00011811c-0.0153898,-0.00775984 -0.0318976,-0.0137598 -0.0494055,-0.0178937 -0.0182283,-0.00430315 -0.037878,-0.00651969 -0.0588425,-0.00651969 -0.0400079,0 -0.0786614,0.00914961 -0.113531,0.0260945 -0.0167323,0.00813386 -0.0326811,0.0180748 -0.0475827,0.0296693 0.00926378,0.0236693 0.0171929,0.0481339 0.0236772,0.0732953 0.013374,0.0518858 0.0205039,0.105252 0.0205039,0.159063l-0.000122047 0 0.108079 1.98982z"/>
   <polygon id="_437061016" class="fil3" points="2.20696,2.57265 2.20696,2.57265 2.20696,2.5727 "/>
   <polygon id="_437060848" class="fil3" points="2.20685,2.57452 2.20693,2.57372 2.20689,2.57372 "/>
   <path id="_437060872" class="fil4" d="M1.93246 4.57136l0.27439 -1.99765 0.000102362 -0.00101181 -6.29921e-005 0.00101575 3.54331e-005 7.87402e-006 0.000106299 -0.00106693 -7.08661e-005 -7.87402e-006 3.93701e-005 -0.000425197 7.48031e-005 7.87402e-006 0.000279528 -0.00276378 -7.87402e-005 -1.1811e-005 -0.000318898 0.00276378 4.33071e-005 3.93701e-006 0.000275591 -0.00276772 7.87402e-005 1.1811e-005 0.000346457 -0.00346063c0.0138307,-0.0988307 0.0444724,-0.187886 0.0889094,-0.262114 0.0156181,-0.0260906 0.0329331,-0.0503701 0.0518307,-0.0726417 -0.0108819,-0.00088189 -0.0219134,-0.00132283 -0.0330827,-0.00132283 -0.0719055,0 -0.156555,0.0195354 -0.229429,0.0891732 -0.0603425,0.0576732 -0.114752,0.149665 -0.152571,0.292346 0.000145669,-0.00170866 0.000716535,-0.00640157 0.000311024,-0.00324409l-0.000515748 0.00346457 0.000137795 2.75591e-005 -0.000318898 0.00119685 -0.000208661 0.00141732 0.000562992 -0.00231102 1.1811e-005 -0.000295276 5.90551e-005 1.1811e-005c3.54331e-005,-0.000125984 4.33071e-005,-0.000141732 1.5748e-005,3.93701e-006 -5.51181e-005,0.000291339 -8.26772e-005,0.000358268 -8.66142e-005,0.000279528l7.08661e-005 -0.000283465 -5.90551e-005 -1.1811e-005 1.9685e-005 -0.000255906 -6.69291e-005 0.000248031 -0.000137795 -2.75591e-005 -0.000181102 0.00122441 -0.000429134 0.00162598 0 0.000751969 0.000220472 -0.00096063 -0.000795276 0.00538189 -0.464299 1.95167 0.464791 0z"/>
   <path id="_437060512" class="fil4" d="M2.15178 4.57124l0.561264 0 0.103055 -1.99489 -0.000141732 0 0 -0.00188976 0 -0.00084252 0.000299213 -0.000299213 0.000125984 -0.0025 1.5748e-005 0c0.000472441,-0.0525433 0.00728346,-0.104295 0.0201299,-0.15424 0.0063189,-0.0245748 0.0139882,-0.0485669 0.0229764,-0.0718543 -0.0153504,-0.0123228 -0.0317638,-0.0227835 -0.0489567,-0.0312323 -0.034748,-0.0170709 -0.0736457,-0.0262874 -0.114232,-0.0262874 -0.0209134,0 -0.0405433,0.00222047 -0.0587717,0.0065315 -0.0166614,0.00393701 -0.0324252,0.0095748 -0.047189,0.016811l-0.000692913 0.00042126 -3.93701e-005 -5.90551e-005 -0.000846457 0.00042126c-0.00212598,0.00126378 -0.00375984,0.00220472 -0.00498031,0.00287795l1.5748e-005 2.75591e-005c-0.0396772,0.0214488 -0.0738898,0.056185 -0.100807,0.10115 -0.0290512,0.0485315 -0.0495118,0.108575 -0.0594724,0.176917 -0.000129921,0.00158661 -0.00026378,0.00298031 -0.000397638,0.00417717l0 0.000425197c-0.000488189,0.00423228 -0.000956693,0.0076063 -0.00138189,0.0100039l-0.00015748 -2.75591e-005 -0.269815 1.96436z"/>
   <path id="_437060680" class="fil5" d="M0.962268 4.72914c-0.0601614,0 -0.108937,0.0487756 -0.108937,0.108937 0,0.0601654 0.0487756,0.108941 0.108937,0.108941l0.314528 0 0.188035 0.375323 0.0302756 0.0604291 0.0667441 0 3.70296 0 0.0667441 0 0.0302756 -0.0604291 0.188035 -0.375323 0.314531 0c0.0601614,0 0.108937,-0.0487756 0.108937,-0.108941 0,-0.0601614 -0.0487756,-0.108937 -0.108937,-0.108937l-4.90213 0z"/>
   <polygon id="_437059840" class="fil6" points="1.27765,4.94874 1.46483,5.32234 1.49511,5.38277 1.56185,5.38277 5.26481,5.38277 5.33155,5.38277 5.36183,5.32234 5.549,4.94874 "/>
   <rect id="_437060440" class="fil7" x="3.24244" y="2.40557" width="0.341776" height="2.1128" rx="0.17089" ry="0.17089"/>
  </g>
  <rect class="fil8" width="6.82666" height="6.82666"/>
 </g>
</svg>
