<?xml version="1.0" encoding="UTF-8"?>
<!DOCTYPE svg PUBLIC "-//W3C//DTD SVG 1.1//EN" "http://www.w3.org/Graphics/SVG/1.1/DTD/svg11.dtd">
<!-- Creator: CorelDRAW -->
<svg xmlns="http://www.w3.org/2000/svg" xml:space="preserve" width="6.82666in" height="6.82666in" style="shape-rendering:geometricPrecision; text-rendering:geometricPrecision; image-rendering:optimizeQuality; fill-rule:evenodd; clip-rule:evenodd"
viewBox="0 0 6.82666 6.82666"
 xmlns:xlink="http://www.w3.org/1999/xlink">
 <defs>
  <style type="text/css">
   <![CDATA[
    .fil0 {fill:none}
    .fil2 {fill:#A5D6A7}
    .fil4 {fill:#A72626}
    .fil1 {fill:#C62828}
    .fil5 {fill:#F57F17}
    .fil6 {fill:#FF9100}
    .fil8 {fill:#3E2711;fill-rule:nonzero}
    .fil3 {fill:#8BC34A;fill-rule:nonzero}
    .fil7 {fill:#BF360C;fill-rule:nonzero}
   ]]>
  </style>
 </defs>
 <g id="Layer_x0020_1">
  <metadata id="CorelCorpID_0Corel-Layer"/>
  <rect class="fil0" width="6.82666" height="6.82666"/>
  <path class="fil1" d="M2.53101 1.27666l1.5513 0c0.0254173,0.652677 0.50435,0.311571 0.50435,0.856283l0 3.06705c0,0.366654 -0.300012,0.666665 -0.666665,0.666665l-1.22667 0c-0.366654,0 -0.666665,-0.299996 -0.666665,-0.666665l0 -3.06185c0,-0.553476 0.478768,-0.207732 0.504343,-0.86139l3.93701e-006 -9.84252e-005z"/>
  <path class="fil2" d="M4.58667 3.2133l0 0.850063 -0.750406 0c-0.114976,0.169591 -0.309268,0.281039 -0.529594,0.281039 -0.220327,0 -0.414622,-0.111449 -0.529602,-0.281039l-0.750398 0 0 -0.850063 0.750406 0c0.114984,-0.169587 0.309264,-0.281031 0.529594,-0.281031 0.220327,0 0.41461,0.111445 0.529591,0.281031l0.750409 0z"/>
  <path class="fil3" d="M4.58917 3.3087l-0.794661 0 -0.00874803 0 -0.00498819 -0.00735827 -0.0234291 -0.0345512c-0.0507677,-0.0748819 -0.118232,-0.134693 -0.195681,-0.175799 -0.0772756,-0.0410079 -0.1645,-0.0633228 -0.255,-0.0633228 -0.0905039,0 -0.177724,0.022311 -0.255,0.0633189 -0.0774488,0.0411063 -0.144917,0.100921 -0.195685,0.175803l-0.0234291 0.0345512 -0.00498819 0.00735827 -0.00874803 0 -0.795134 0 0 -0.0333386 0.786386 0 0.0184409 -0.0271929c0.0539567,-0.0795787 0.125504,-0.143067 0.207535,-0.186606 0.0820512,-0.0435394 0.174614,-0.0672323 0.270622,-0.0672323 0.0960039,0 0.188571,0.023689 0.270622,0.0672362 0.0820354,0.0435354 0.153575,0.107024 0.207531,0.186602l0.0184409 0.0271929 0.785913 0 0 0.0333386z"/>
  <path class="fil3" d="M2.02368 3.96795l0.79513 0 0.00874803 0 0.00498819 0.00735827 0.0234252 0.0345551c0.0507677,0.0748819 0.118236,0.134701 0.195689,0.175803 0.0772756,0.0410079 0.1645,0.0633228 0.255004,0.0633228 0.0905,0 0.177728,-0.022315 0.255004,-0.0633228 0.0774488,-0.0411063 0.144913,-0.100921 0.195681,-0.175803l0.0234252 -0.0345551 0.00498819 -0.00735827 0.00874803 0 0.794661 0 0 0.0333386 -0.785913 0 -0.018437 0.0271969c-0.0539528,0.0795827 -0.1255,0.143067 -0.207531,0.186606 -0.0820512,0.0435472 -0.174622,0.0672362 -0.270626,0.0672362 -0.0960079,0 -0.188575,-0.023689 -0.270626,-0.0672362 -0.0820354,-0.0435354 -0.153583,-0.107028 -0.207539,-0.186606l-0.018437 -0.0271969 -0.786382 0 0 -0.0333386z"/>
  <path class="fil4" d="M4.08544 1.32763c0.048063,0.583665 0.501224,0.275417 0.501224,0.805311l0 0.0934094c-0.176709,0.0174764 -0.181764,0.304854 -0.482272,0.0525315 -0.108602,-0.091185 -0.309366,-0.151783 -0.369165,0.0192126 -0.108315,0.309736 -0.79848,-0.254689 -0.927429,-0.0598937 -0.221516,0.334642 -0.294984,-0.0100866 -0.781134,0.103504l0 -0.203559c0,-0.0966772 0.0146417,-0.165862 0.0388898,-0.217783 0.0149685,-0.0105591 0.0306535,-0.0193583 0.047185,-0.0260669 0.105811,-0.042937 0.148839,-0.0952638 0.155626,-0.148819 0.114248,-0.0599213 0.231461,-0.130252 0.258055,-0.401654l0.0534803 0.0313622c0.307157,0.180118 1.10262,-0.082189 1.50554,-0.0475551z"/>
  <path class="fil5" d="M1.7291 2.35017c0.762602,-0.364382 0.818244,0.181504 1.0787,-0.211961 0.128949,-0.194795 0.819114,0.36963 0.927429,0.0598937 0.0597992,-0.170996 0.260563,-0.110398 0.369165,-0.0192126 0.337831,0.283661 0.302244,-0.11478 0.556945,-0.0450157 0.0803858,0.0220197 0.214197,0.123559 0.276307,0.123559 -0.0223701,0.00335433 -0.179276,-0.435795 -0.364728,-0.487972 -0.185453,-0.0521772 -0.163488,-0.239941 0.0173465,-0.456579l-0.403563 -0.0674449c-0.352488,-0.104909 -1.27119,0.226563 -1.6068,0.0297559l-0.540563 -0.316988c-0.00380315,0.0206693 -0.0238583,0.136961 -0.014689,0.24972 0.00409449,0.0503622 -0.00820472,0.0958622 0.0276457,0.138996 0.0231378,0.025815 0.435008,0.295386 0.0604449,0.447382 -0.178681,0.0725039 -0.259606,0.388197 -0.383638,0.555866z"/>
  <rect class="fil6" x="2.01417" y="0.857547" width="2.585" height="0.520835" rx="0.119496" ry="0.119496"/>
  <path class="fil7" d="M2.19231 1.52213c-0.0365276,-0.00359449 -0.069063,0.0231063 -0.0726575,0.0596339 -0.00359449,0.0365276 0.0231063,0.069063 0.0596339,0.0726575 0.381205,0.0380591 0.765705,0.0552874 1.15304,0.0543898 0.38887,-0.000905512 0.778075,-0.0198504 1.16754,-0.0541299 0.0366732,-0.00316142 0.0638386,-0.0354606 0.0606772,-0.0721339 -0.00316142,-0.0366732 -0.0354606,-0.0638386 -0.0721339,-0.0606772 -0.389665,0.0342992 -0.775272,0.0532441 -1.15608,0.0541299 -0.382358,0.000885827 -0.762484,-0.0161772 -1.14002,-0.0538701z"/>
  <rect class="fil0" width="6.82666" height="6.82666"/>
  <path class="fil8" d="M2.8167 3.50778l0.0539173 0 0 -0.0615 0.0320827 0.0322953 0 0.0610787 -0.0539173 0 0 0.102433c0,0.0249213 -0.00266929,0.0450709 -0.00800394,0.0604449 -0.00533465,0.0153819 -0.0140394,0.0289291 -0.0261142,0.0407244 -0.0137638,0.0132677 -0.0316654,0.0238701 -0.0537795,0.0316614 -0.022189,0.00779134 -0.0456378,0.0117244 -0.0704882,0.0117244 -0.0160079,0 -0.0317323,-0.00245276 -0.0470433,-0.00737008 -0.015374,-0.00498425 -0.029622,-0.0120748 -0.0428228,-0.0214134l-0.0378386 -0.0269606c0.0122126,0.00772047 0.0270236,0.0132677 0.0445079,0.0167795 0.0174843,0.00350787 0.0397362,0.00526378 0.0667677,0.00526378 0.0268858,0 0.0498465,-0.00280315 0.068874,-0.00835039 0.0190945,-0.00554724 0.0343268,-0.0138346 0.0457008,-0.0249961 0.00997244,-0.0099685 0.0172047,-0.0213386 0.0215551,-0.034122 0.00442126,-0.0127756 0.00660236,-0.0306772 0.00660236,-0.0538465l0 -0.0245039 0 -0.0993425zm-0.157969 0l0.043811 0 0 0.031874 -0.043811 -0.031874zm-0.0252717 0.087622l0.0325039 0.0248504 0 0.056374c-0.0120748,0 -0.0205,-0.00252756 -0.0252756,-0.00751181 -0.00484252,-0.00498031 -0.00722835,-0.0141811 -0.00722835,-0.0274488l0 -0.0462638zm-0.0993465 0l0.0851614 0 0 0.0446457c0,0.019874 0.00372047,0.0337047 0.0110945,0.0416339 0.00744094,0.00786614 0.0197953,0.0117953 0.0372087,0.0117953 0.0181102,0 0.0309606,-0.00357874 0.0384764,-0.0106693 0.00751181,-0.00716142 0.0113031,-0.0208543 0.0113031,-0.0411417l0 -0.148701 -0.058626 0 0 -0.046685 0.197071 0 0 0.046685 -0.0539213 0 0 0.136555c0,0.0245748 -0.00196457,0.0423346 -0.00582677,0.0532874 -0.00392913,0.0109488 -0.0105276,0.0205709 -0.0198661,0.0287874 -0.0101772,0.00919291 -0.0238701,0.0159331 -0.0412126,0.0201496 -0.0174094,0.00427953 -0.0398071,0.00638583 -0.0673976,0.00638583 -0.0312441,0 -0.0556024,-0.00287795 -0.0730157,-0.00863386 -0.0174094,-0.00575984 -0.0313858,-0.0152362 -0.0419134,-0.0283661 -0.00674016,-0.00849213 -0.0115118,-0.0179724 -0.0143228,-0.0282953 -0.00280709,-0.0103858 -0.0042126,-0.0265354 -0.0042126,-0.048437l0 -0.00842913 0 -0.0205669zm0.787795 0.0719606l-0.0997638 -0.221083 0.064378 0.0626969 0.0695079 0.158386 -0.034122 0zm-0.150807 0.076311l0.20676 0 0 -0.0615 0.0320866 0.0265394 0 0.0668386 -0.195457 0 -0.0433898 -0.031878zm-0.253591 0l0.192094 0 0 -0.0615 0.0322913 0.023874 0 0.0695039 -0.17215 0 -0.0522362 -0.031878zm0 -0.014811l0 -0.046689 0.0502008 0 0.102996 -0.235894 0.136622 0 0.105732 0.235894 0.0501969 0 0 0.046689 -0.192157 0 0 -0.046689 0.0491457 0 -0.0248543 -0.0535 -0.127146 0 -0.0232362 0.0535 0.0502008 0 0 0.046689 -0.177701 0zm0.149543 -0.0615l0.0104646 -0.0245039 0.107764 0 0.0101102 0.0245039 -0.128339 0zm0.0394606 -0.0897244l0.0240787 -0.0589764 0.0188858 0.0437362 -0.00611024 0.0152402 -0.0368543 0zm-0.022185 0.0146024l0.0951969 0 -0.0485079 -0.109803 -0.046689 0.109803zm0.686972 0.151433l0.197701 0 0 -0.0615 0.031878 0.0345433 0 0.0588346 -0.189071 0 -0.0405079 -0.031878zm0.139079 -0.076311l0 -0.159583 0.058622 0 0 -0.0615 0.031878 0.0571457 0 0.0362283 -0.0579921 0 0 0.127709 -0.0325079 0zm-0.278929 -0.221083l0.0594646 0.0510394 0.0155866 0.0326457 -0.017622 0.0384764 -0.0574291 -0.122161zm-0.206693 0.297394l0.183661 0 0 -0.0615 0.0150236 0.0113031 0.0152362 0.0345433 0 0.0475315 -0.165972 0 -0.0479488 -0.031878zm0.240043 0l0.0560906 0 0.0753346 -0.173547 0 0.0863504 -0.00681102 0.0108858 -0.0331417 0 0 0.076311 -0.0143858 0.031878 -0.034122 0 -0.0429646 -0.031878zm-0.240043 -0.014811l0 -0.046689 0.0584134 0 0 -0.189209 -0.0584134 0 0 -0.046685 0.189843 0 0.0750512 0.161689 0.0703465 -0.161689 0.194193 0 0 0.046685 -0.058622 0 0 0.189209 0.058622 0 0 0.046689 -0.182469 0 0 -0.046689 0.039315 0 0 -0.183661 -0.0999724 0.23035 -0.0551102 0 -0.102854 -0.229087 0 0.182398 0.0405079 0 0 0.046689 -0.16885 0zm0.142728 -0.0615l0 -0.0980827 0.0325118 0.0699291 0 0.0281535 -0.0325118 0zm-0.142728 -0.159583l0.043811 0 0 0.031874 -0.043811 -0.031874z"/>
 </g>
</svg>
