<?xml version="1.0" encoding="UTF-8"?>
<!DOCTYPE svg PUBLIC "-//W3C//DTD SVG 1.1//EN" "http://www.w3.org/Graphics/SVG/1.1/DTD/svg11.dtd">
<!-- Creator: CorelDRAW -->
<svg xmlns="http://www.w3.org/2000/svg" xml:space="preserve" width="6.82666in" height="6.82666in" style="shape-rendering:geometricPrecision; text-rendering:geometricPrecision; image-rendering:optimizeQuality; fill-rule:evenodd; clip-rule:evenodd"
viewBox="0 0 6.82666 6.82666"
 xmlns:xlink="http://www.w3.org/1999/xlink">
 <defs>
  <style type="text/css">
   <![CDATA[
    .fil4 {fill:none}
    .fil2 {fill:#263238;fill-rule:nonzero}
    .fil1 {fill:#546E7A;fill-rule:nonzero}
    .fil3 {fill:#757575;fill-rule:nonzero}
    .fil0 {fill:#78909C;fill-rule:nonzero}
   ]]>
  </style>
 </defs>
 <g id="Layer_x0020_1">
  <metadata id="CorelCorpID_0Corel-Layer"/>
  <g id="_275212416">
   <path id="_275215512" class="fil0" d="M1.30481 2.46803l2.10852 0 2.10852 0 0.10448 0 0 0.104476c0,0.611091 -0.247705,1.16434 -0.648185,1.56482 -0.400469,0.400476 -0.953724,0.648181 -1.56481,0.648181 -0.611091,0 -1.16434,-0.247705 -1.56482,-0.648181 -0.40048,-0.40048 -0.648185,-0.953732 -0.648185,-1.56482l0 -0.104476 0.10448 0z"/>
   <polygon id="_275215248" class="fil1" points="0.905898,2.37221 5.92076,2.37221 5.92076,2.58117 0.905898,2.58117 "/>
   <path id="_275215536" class="fil2" d="M1.18756 5.69712c0.00046063,-0.00440945 0.155996,-1.53734 0.631594,-1.65324 0.250035,-0.0609291 0.53711,-0.00348031 0.851343,0.0593976 0.242287,0.0484843 0.501465,0.100354 0.763236,0.100354 0.267394,0 0.523598,-0.0512126 0.761173,-0.0986929 0.309346,-0.0618307 0.588575,-0.11763 0.840547,-0.0542992 0.481953,0.121146 0.543252,1.64688 0.543441,1.65127l-0.162606 0.00701181c-0.000173228,-0.00403543 -0.0575669,-1.40894 -0.420366,-1.50014 -0.216106,-0.0543189 -0.478469,-0.00188189 -0.769134,0.0562126 -0.245264,0.0490197 -0.509752,0.101882 -0.793055,0.101882 -0.277693,0 -0.545122,-0.0535157 -0.795122,-0.103543 -0.296354,-0.0593031 -0.567098,-0.113484 -0.781197,-0.061311 -0.362736,0.0884016 -0.507465,1.5076 -0.507886,1.51169l-0.161969 -0.0165827z"/>
   <polygon id="_275214960" class="fil2" points="3.46704,4.30846 3.46704,5.97333 3.30379,5.97333 3.30379,4.30846 "/>
   <g>
    <path id="_275215200" class="fil3" d="M3.05033 1.9507c0.00774803,-0.0432953 0.0309213,-0.10011 0.0550669,-0.159303 0.0773661,-0.189677 0.103213,-0.453583 -0.0866732,-0.645689 0.0897638,0.407689 -0.114051,0.43726 -0.173264,0.76826 -0.0310276,0.173394 0.0243465,0.309126 0.329768,0.363768 -0.164083,-0.134665 -0.157492,-0.144835 -0.124898,-0.327035z"/>
    <path id="_275215608" class="fil3" d="M3.45711 1.65832c0.00774803,-0.0432953 0.0309213,-0.10011 0.0550669,-0.159303 0.0773661,-0.189677 0.103213,-0.453583 -0.0866732,-0.645689 0.0897638,0.407689 -0.114055,0.43726 -0.173264,0.76826 -0.0310276,0.173394 0.0243465,0.309126 0.329768,0.363768 -0.164083,-0.134665 -0.157496,-0.144835 -0.124898,-0.327035z"/>
    <path id="_275213016" class="fil3" d="M3.8639 1.9507c0.00774409,-0.0432953 0.0309213,-0.10011 0.0550669,-0.159303 0.0773661,-0.189677 0.103213,-0.453583 -0.0866732,-0.645689 0.0897638,0.407689 -0.114055,0.43726 -0.173264,0.76826 -0.0310276,0.173394 0.0243465,0.309126 0.329768,0.363768 -0.164087,-0.134665 -0.157496,-0.144835 -0.124898,-0.327035z"/>
   </g>
  </g>
  <polygon class="fil4" points="-0,0 6.82666,0 6.82666,6.82666 -0,6.82666 "/>
 </g>
</svg>
