<?xml version="1.0" encoding="UTF-8"?>
<!DOCTYPE svg PUBLIC "-//W3C//DTD SVG 1.1//EN" "http://www.w3.org/Graphics/SVG/1.1/DTD/svg11.dtd">
<!-- Creator: CorelDRAW -->
<svg xmlns="http://www.w3.org/2000/svg" xml:space="preserve" width="6.82666in" height="6.82666in" style="shape-rendering:geometricPrecision; text-rendering:geometricPrecision; image-rendering:optimizeQuality; fill-rule:evenodd; clip-rule:evenodd"
viewBox="0 0 6.82666 6.82666"
 xmlns:xlink="http://www.w3.org/1999/xlink">
 <defs>
  <style type="text/css">
   <![CDATA[
    .fil2 {fill:none}
    .fil0 {fill:#949899;fill-rule:nonzero}
    .fil1 {fill:#606365;fill-rule:nonzero;fill-opacity:0.301961}
   ]]>
  </style>
 </defs>
 <g id="Layer_x0020_1">
  <metadata id="CorelCorpID_0Corel-Layer"/>
  <g id="_275241648">
   <g>
    <path id="_275241840" class="fil0" d="M4.9332 3.43343c0.0110197,1.21907 -0.222264,1.96251 -0.0804882,2.39164 0.067563,0.204496 0.348449,0.177783 0.395307,-0.00357087 0.107925,-0.417933 -0.106661,-1.03656 -0.118748,-2.37338 -0.00179921,-0.198606 0.23335,-0.0801575 0.226705,-0.815098 -0.00677953,-0.749224 -0.107827,-1.78817 -0.479661,-1.78481 0.00501969,0.555197 -0.0329016,1.33461 -0.0264055,2.0527 0.00279134,0.308433 0.0819843,0.387996 0.0832913,0.532508z"/>
    <path id="_275241792" class="fil1" d="M5.3177 2.73979c-0.0300197,0.440528 -0.213031,0.530205 -0.306409,0.443909 -0.093378,-0.0862874 -0.095248,-0.293228 -0.0983031,-0.630862 -0.00305118,-0.337646 0.0157165,-1.37619 0.0131929,-1.65577 0.229764,-0.00207874 0.452858,0.942661 0.39152,1.84272z"/>
   </g>
   <path id="_275242320" class="fil0" d="M3.61564 2.87857c0,1.51819 -0.293264,2.29807 -0.127138,2.91804 0.0694016,0.259043 0.431917,0.225291 0.492268,0 0.153307,-0.572126 -0.121142,-1.44399 -0.121142,-2.93159 0,-0.203646 0.195665,-0.132181 0.301563,-0.394937 0.0945315,-0.234606 -0.0389331,-1.5748 -0.0819409,-1.5748 -0.0490748,0 -0.0250472,1.09415 -0.118071,1.09415 -0.0938543,0 -0.0464016,-1.07931 -0.105744,-1.09415 -0.0593661,-0.0148583 -0.0158307,1.09415 -0.125638,1.09415 -0.110921,0 -0.0388425,-1.09415 -0.0981772,-1.09415 -0.0593661,0 -0.0426693,1.09415 -0.133205,1.09415 -0.0996732,0 -0.0461102,-1.09415 -0.0906299,-1.09415 -0.0756575,0 -0.164291,1.265 -0.117209,1.51598 0.0470433,0.250988 0.325063,0.221827 0.325063,0.467315z"/>
   <g>
    <path id="_275241888" class="fil0" d="M1.97716 2.79933c0,1.50579 -0.296402,2.44149 -0.126091,2.97311 0.0811496,0.253315 0.428358,0.223465 0.488244,0 0.137988,-0.514988 -0.120161,-1.49767 -0.120161,-2.97309 0,-0.171732 0.525953,-0.161244 0.525953,-0.748224 0,-0.734634 -0.334701,-1.18305 -0.653693,-1.18305 -0.297685,0 -0.620874,0.495248 -0.620874,1.18305 0,0.551197 0.506622,0.606681 0.506622,0.748224l0 -2.3622e-005z"/>
    <path id="_275241000" class="fil1" d="M2.10912 0.904819c-0.363654,0 -0.73148,0.841669 -0.529146,1.39718 0.146441,0.402142 0.845957,0.390343 1.03119,0.0495748 0.265098,-0.487665 -0.118461,-1.44675 -0.502039,-1.44675z"/>
   </g>
  </g>
  <rect class="fil2" width="6.82666" height="6.82666"/>
 </g>
</svg>
