<?xml version="1.0" encoding="UTF-8"?>
<!DOCTYPE svg PUBLIC "-//W3C//DTD SVG 1.1//EN" "http://www.w3.org/Graphics/SVG/1.1/DTD/svg11.dtd">
<!-- Creator: CorelDRAW -->
<svg xmlns="http://www.w3.org/2000/svg" xml:space="preserve" width="6.82666in" height="6.82666in" style="shape-rendering:geometricPrecision; text-rendering:geometricPrecision; image-rendering:optimizeQuality; fill-rule:evenodd; clip-rule:evenodd"
viewBox="0 0 6.82666 6.82666"
 xmlns:xlink="http://www.w3.org/1999/xlink">
 <defs>
  <style type="text/css">
   <![CDATA[
    .fil12 {fill:none}
    .fil7 {fill:#33691E}
    .fil0 {fill:#487928}
    .fil4 {fill:#52882D}
    .fil6 {fill:#558B2F}
    .fil5 {fill:#5E9533}
    .fil10 {fill:#7CB342}
    .fil11 {fill:#8ABE54}
    .fil3 {fill:#424242;fill-rule:nonzero}
    .fil1 {fill:#4A802A;fill-rule:nonzero}
    .fil2 {fill:#598F31;fill-rule:nonzero}
    .fil8 {fill:#689F38;fill-rule:nonzero}
    .fil9 {fill:#72A93D;fill-rule:nonzero}
   ]]>
  </style>
 </defs>
 <g id="Layer_x0020_1">
  <metadata id="CorelCorpID_0Corel-Layer"/>
  <g id="_435146056">
   <path id="_435148072" class="fil0" d="M3.02355 5.342c0.0532047,-0.0187874 0.0899843,-0.0496654 0.101165,-0.0908268 0.028185,-0.103768 -0.116862,-0.233492 -0.323976,-0.289748 -0.207114,-0.0562598 -0.399827,-0.0105 -0.426047,0.0860157 -0.0262165,0.0965197 0.0316772,0.175291 0.193075,0.239681 -0.056689,0.281126 -0.189398,0.575094 -0.188287,0.574941l0.437705 0.111268c-0.0631378,-0.00061811 -0.0586535,-0.387598 0.0549843,-0.575157 0.0295827,-0.0488386 0.115157,-0.0358622 0.151382,-0.0561732z"/>
   <path id="_435147544" class="fil1" d="M5.77952 2.73067c-0.00799606,0.187969 -0.0484567,0.396839 -0.121283,0.625575 0.0311732,0.0255433 0.0557126,0.0511535 0.0736417,0.0785354 0.0371811,0.0567677 0.0460787,0.11461 0.0254094,0.181283 -0.0933268,0.300075 -0.2225,0.566874 -0.383031,0.794063 -0.162193,0.229535 -0.356118,0.418776 -0.577272,0.561335 -0.262512,0.169268 -0.556169,0.270748 -0.878693,0.304205 -0.319528,0.0331457 -0.665941,-0.000562992 -1.03698,-0.10135 -0.226024,-0.0613937 -0.500732,-0.149579 -0.768276,-0.294437 -0.271087,-0.14678 -0.533307,-0.351205 -0.728453,-0.643724 -0.19972,-0.299406 -0.311055,-0.656815 -0.334319,-1.07813 -0.0228937,-0.414748 0.0395118,-0.890496 0.186894,-1.43308 0.0105236,-0.038748 0.0320591,-0.0728189 0.0609803,-0.0989567 0.0286496,-0.025874 0.0647598,-0.0437283 0.104756,-0.0503425 0.0787756,-0.0129921 0.168717,-0.0284882 0.253043,-0.0436299 0.0471575,-0.00846457 0.0897362,-0.0163661 0.123906,-0.0230315l0.098185 -0.207933 0.000468504 -0.000267717c0.00387008,-0.00814961 0.00711417,-0.0143819 0.00970079,-0.0186535 0.00323228,-0.00534252 0.00729134,-0.0112283 0.0121654,-0.0176614 0.0989921,-0.130665 0.261437,-0.194736 0.415398,-0.225236 0.129492,-0.0256457 0.253323,-0.0275787 0.321839,-0.0259961 0.220335,-0.0889094 0.449091,-0.140917 0.680406,-0.155575 0.238402,-0.0151024 0.479177,0.00926378 0.715933,0.0735748 0.247496,0.0672283 0.474965,0.172193 0.677075,0.311177 0.194217,0.133555 0.364362,0.298413 0.505717,0.49126 0.101823,0.0419094 0.190811,0.0975551 0.266524,0.166539 0.0832677,0.0758661 0.149768,0.166882 0.198925,0.272504 0.0739803,0.158748 0.106398,0.345189 0.0973425,0.557953z"/>
   <path id="_435148024" class="fil2" d="M5.04076 3.2495c0.0779134,-0.239063 0.125051,-0.451827 0.14128,-0.637067 0.0156614,-0.178756 0.00242913,-0.331335 -0.039815,-0.456583 -0.0268386,-0.0797047 -0.0645748,-0.146618 -0.112882,-0.200374 -0.048878,-0.0543858 -0.109118,-0.0962874 -0.180386,-0.125323l-0.0344449 -0.0317795c-0.0963543,-0.174654 -0.217236,-0.320937 -0.35889,-0.435756 -0.141555,-0.114732 -0.304433,-0.19815 -0.484894,-0.247169 -0.172047,-0.0467323 -0.348311,-0.0573189 -0.524083,-0.0324764 -0.17613,0.0248937 -0.352067,0.0852008 -0.523079,0.180193l-0.0334567 0.00939764c-0.0432835,0.00076378 -0.139972,0.00622441 -0.242004,0.0370827 -0.0941496,0.0284764 -0.192276,0.0782244 -0.248579,0.165142 -0.000248031,0.00038189 5.51181e-005,1.1811e-005 -0.000547244,0.00114961 -0.000370079,0.000700787 -0.000543307,0.000964567 -0.000625984,0.00104331l8.66142e-005 4.72441e-005 -0.109291 0.254657 -0.0188583 0.0439409 -0.0385945 0.0124252c-0.0326339,0.0105079 -0.0847756,0.025752 -0.145087,0.0426614 -0.0592835,0.0166299 -0.133587,0.0367323 -0.208642,0.0564685 -0.0017874,0.000472441 -0.00358661,0.00170079 -0.0051811,0.00345669 -0.00133465,0.00147244 -0.00243701,0.00358268 -0.00312598,0.00611811 -0.142366,0.524118 -0.21502,0.976217 -0.217992,1.3617 -0.00292126,0.379024 0.0614449,0.694476 0.193075,0.951669 0.127445,0.249004 0.309866,0.418591 0.502283,0.537445 0.195181,0.120571 0.401811,0.18939 0.572972,0.235882 0.276906,0.0752165 0.535925,0.0899291 0.775378,0.0444567 0.237,-0.0450079 0.456035,-0.149165 0.655433,-0.31215 0.168697,-0.137854 0.319862,-0.316461 0.44987,-0.529866 0.131488,-0.215839 0.241587,-0.467181 0.326634,-0.748024 0.00202756,-0.00669685 0.00168898,-0.0122126 -0.000854331,-0.0172913 -0.00906299,-0.0180787 -0.0297835,-0.0383937 -0.0607874,-0.0628307l-0.0478937 -0.037748 0.0229803 -0.0704961z"/>
   <path id="_435147880" class="fil3" d="M5.45238 3.36131c0.0629843,-0.185102 0.119142,-0.399669 0.132114,-0.610437 0.011689,-0.189874 -0.0117047,-0.377047 -0.0978583,-0.535654 -0.208618,-0.0554882 -0.420224,-0.077378 -0.629732,-0.0656063 -0.220882,0.0124016 -0.440051,0.0624094 -0.651524,0.150051l-0.0409409 0.00737008c-0.0370394,-0.0014252 -0.106087,-0.00220079 -0.188004,0.00590551 -0.0429961,0.00425197 -0.0889921,0.0109016 -0.13463,0.0210984 0.00949213,0.0173189 0.0184252,0.0349843 0.0268031,0.0529843 0.0739803,0.158748 0.106398,0.345193 0.0973425,0.557949 -0.008,0.187969 -0.0484567,0.396835 -0.121287,0.625575 0.0311811,0.0255512 0.0557205,0.0511575 0.0736496,0.0785394 0.0371732,0.0567638 0.0460748,0.114614 0.0254055,0.181283 -0.0918386,0.295256 -0.218571,0.55852 -0.375937,0.783732 -0.114835,0.164346 -0.245862,0.308303 -0.391437,0.429567 0.54574,0.103709 1.0293,0.038937 1.42462,-0.180122 0.443213,-0.245591 0.779217,-0.687213 0.971315,-1.30482 0.0020748,-0.0066811 0.00129134,-0.0123189 -0.00220079,-0.0176535 -0.0124409,-0.0189961 -0.0395157,-0.0410354 -0.0796299,-0.0679528l-0.0619685 -0.0415709 0.0239016 -0.0702402z"/>
   <path id="_435147304" class="fil3" d="M2.05367 1.38333c-3.93701e-006,-5.90551e-005 7.87402e-006,-0.000125984 -5.90551e-005,-2.3622e-005l5.90551e-005 2.3622e-005z"/>
   <path id="_435147400" class="fil4" d="M3.12597 1.64543c-0.101823,-0.560224 -0.0502244,-0.456079 -0.0502244,-0.456079 0,0 -0.120362,-0.212945 -0.247823,-0.0755118 -0.127461,0.137433 -0.171606,0.199528 -0.123031,0.226717 0.0485709,0.0271929 0.450413,0.316898 0.421079,0.304874z"/>
   <path id="_435146968" class="fil4" d="M4.43783 2.03865c0.371264,-0.43172 0.274067,-0.367992 0.274067,-0.367992 0,0 0.211559,-0.122787 0.251969,0.060248 0.0404134,0.183035 0.0470748,0.258929 -0.00857874,0.257807 -0.0556535,-0.00111811 -0.548846,0.0454685 -0.517457,0.049937z"/>
   <path id="_435147352" class="fil5" d="M3.77534 1.70412c0.176949,0.0702559 0.378917,0.100283 0.452181,0.200004 0.0627165,0.0853622 0.143311,0.105736 0.129035,0.158295 -0.0313465,0.115406 -0.341177,0.131713 -0.692028,0.0364094 -0.35085,-0.0953031 -0.609854,-0.266118 -0.578504,-0.381528 0.0176063,-0.064815 0.142854,-0.159283 0.283417,-0.098685 0.111795,0.0481929 0.263461,0.0289488 0.405898,0.0855039z"/>
   <path id="_435146728" class="fil6" d="M3.74828 1.79048c0.246976,0.0670866 0.27578,0.148055 0.386409,0.212866 0.110634,0.064811 -0.203118,0.0886811 -0.450098,0.0215945 -0.246976,-0.0670866 -0.487406,-0.269059 -0.4105,-0.256559 0.0769055,0.0124961 0.227209,-0.0449882 0.474189,0.0220984z"/>
   <path id="_435146248" class="fil7" d="M3.73087 1.85902c0.0940984,0.0690866 0.251047,0.0626496 0.241185,0.0989488 -0.00985827,0.0363031 -0.138406,0.0701417 -0.276898,0.0325236 -0.138496,-0.0376181 -0.234488,-0.132453 -0.22463,-0.168752 0.00452756,-0.0166654 0.0484094,0.000610236 0.0944921,0.00344094 0.0542953,0.00334252 0.114949,-0.00353543 0.16585,0.0338386z"/>
   <path id="_435145960" class="fil8" d="M5.77778 2.76325c-0.0126496,0.205504 -0.0615433,0.410894 -0.119535,0.593 0.0311732,0.0255433 0.0557087,0.0511496 0.0736378,0.0785276 0.0371811,0.0567677 0.0460787,0.11461 0.0254094,0.181283 -0.207559,0.667315 -0.575122,1.14698 -1.06235,1.41696 -0.487272,0.270012 -1.09057,0.328217 -1.76951,0.152567l-0.00244094 -0.000637795 -9.44882e-005 0.000358268 -3.54331e-005 -7.87402e-006 9.84252e-005 -0.000354331 -0.207945 -0.0538031 0.181075 -0.119898c0.196122,-0.129858 0.368429,-0.301016 0.512996,-0.507913 0.145823,-0.208689 0.263681,-0.453996 0.349622,-0.730311 0.0020748,-0.00668504 0.00129134,-0.0123189 -0.00220472,-0.0176575 -0.012437,-0.0189961 -0.0395118,-0.0410354 -0.079626,-0.0679488l-0.0619685 -0.0415748 0.0239016 -0.0702362c0.0810551,-0.238217 0.125614,-0.451677 0.133591,-0.639161 0.00770079,-0.180913 -0.0187677,-0.337094 -0.0794724,-0.467354 -0.0112047,-0.0240748 -0.0233425,-0.0468898 -0.0363937,-0.0684213 -0.0128425,-0.0211811 -0.0270472,-0.0418307 -0.0426024,-0.0619213l-0.0782756 -0.101094 0.118772 -0.0479843c0.100752,-0.0406969 0.20911,-0.0606417 0.302902,-0.0699252 0.0784094,-0.00775984 0.148047,-0.00819685 0.193602,-0.00712992 0.22522,-0.0908701 0.459083,-0.142929 0.695524,-0.156209 0.243661,-0.013689 0.489469,0.0139921 0.73078,0.0829843l0.0561339 0.0423858c0.124787,0.203409 0.15915,0.442161 0.144417,0.681472z"/>
   <path id="_435146176" class="fil9" d="M5.66105 3.35856c0.0298465,0.0247795 0.0534488,0.0496654 0.0708346,0.0762165 0.0371811,0.0567677 0.0460787,0.11461 0.0254094,0.181283 -0.207559,0.667315 -0.575122,1.14698 -1.06235,1.41696 -0.471024,0.261008 -1.05047,0.324075 -1.70185,0.169339 0.026315,-0.0330039 0.0440945,-0.0595512 0.0308031,-0.060937 -0.00775984,-0.000811024 -0.0144528,-0.0015315 -0.0205157,-0.00219685l-0.038626 -0.00425197 -0.00775197 -0.0325315c-0.00961024,-0.0402795 -0.0157559,-0.0803268 -0.0186339,-0.120098 0.178681,-0.125972 0.336634,-0.287114 0.47072,-0.479012 0.125433,-0.179508 0.230169,-0.386102 0.311705,-0.616224 0.253657,-0.151791 0.54965,-0.276642 0.854272,-0.366803 0.367394,-0.10874 0.749508,-0.167272 1.08599,-0.161748z"/>
   <path id="_435145936" class="fil10" d="M2.22037 1.14554c0.247496,0.0672283 0.474965,0.172193 0.677075,0.311177 0.194213,0.133555 0.364362,0.298413 0.505713,0.49126 0.101827,0.0419055 0.190815,0.0975512 0.266531,0.166539 0.0832638,0.0758661 0.149764,0.166878 0.198921,0.272504 0.0739803,0.158748 0.106398,0.345193 0.0973425,0.557949 -0.008,0.187969 -0.0484567,0.396835 -0.121287,0.625575 0.0311811,0.0255512 0.0557205,0.0511575 0.0736496,0.0785394 0.0371732,0.0567638 0.0460748,0.114614 0.0254055,0.181283 -0.0918386,0.295256 -0.218571,0.55852 -0.375937,0.783732 -0.158685,0.227106 -0.348283,0.415276 -0.564472,0.558429l-0.036063 0.023878 -0.0418189 -0.010811 -0.0221575 -0.00579921c-0.0387165,-0.0102165 0.00662992,0.00228346 -0.0219528,-0.00548031 -0.226024,-0.0613937 -0.500732,-0.149579 -0.768276,-0.294437 -0.271087,-0.14678 -0.533307,-0.351205 -0.728453,-0.643724 -0.19972,-0.299406 -0.311055,-0.656815 -0.334319,-1.07813 -0.0228937,-0.414748 0.0395118,-0.890496 0.186894,-1.43308 0.0409567,-0.15078 0.294039,-0.184283 0.477657,-0.208591 0.0235039,-0.00311417 0.0456299,-0.00603937 0.065,-0.00888583 0.00569685,-0.0129134 0.0109291,-0.0251024 0.0160945,-0.0371378 0.0571299,-0.133043 0.108067,-0.251661 0.257787,-0.337969l0.0697283 -0.0105591c0.0139921,0.00314567 0.0301811,0.00699213 0.0486457,0.0115748 0.0263976,0.00653543 0.0425,0.0105906 0.0482913,0.0121614z"/>
   <path id="_435146080" class="fil11" d="M1.56649 4.37701c-0.281476,-0.371346 -0.39922,-0.856433 -0.346717,-1.48194l0.00694094 -0.0826693 0.0830827 0.00181102c0.507791,0.011063 1.07309,0.265461 1.48578,0.613492 0.214858,0.181189 0.389717,0.388496 0.495531,0.601228 0.110276,0.221701 0.146724,0.450193 0.0786102,0.664201 -0.0547362,0.171969 -0.175839,0.331177 -0.378917,0.465638l-0.0328465 0.021752 -0.0380827 -0.00985039c-0.00597638,-0.00154724 -0.012563,-0.00326378 -0.0201772,-0.00527953 -0.0352677,-0.00930315 0.0060315,0.00207874 -0.0199961,-0.00499213 -0.59278,-0.161016 -1.03254,-0.413106 -1.31321,-0.783386z"/>
  </g>
  <rect class="fil12" width="6.82666" height="6.82666"/>
 </g>
</svg>
