<?xml version="1.0" encoding="UTF-8"?>
<!DOCTYPE svg PUBLIC "-//W3C//DTD SVG 1.1//EN" "http://www.w3.org/Graphics/SVG/1.1/DTD/svg11.dtd">
<!-- Creator: CorelDRAW -->
<svg xmlns="http://www.w3.org/2000/svg" xml:space="preserve" width="6.82666in" height="6.82666in" style="shape-rendering:geometricPrecision; text-rendering:geometricPrecision; image-rendering:optimizeQuality; fill-rule:evenodd; clip-rule:evenodd"
viewBox="0 0 6.82666 6.82666"
 xmlns:xlink="http://www.w3.org/1999/xlink">
 <defs>
  <style type="text/css">
   <![CDATA[
    .fil8 {fill:none}
    .fil2 {fill:#C69E6B}
    .fil3 {fill:#D5AB73}
    .fil1 {fill:#E6BA7C}
    .fil5 {fill:#E7B270}
    .fil6 {fill:#F9CA86}
    .fil4 {fill:#FAC479}
    .fil0 {fill:#FACD8B}
    .fil7 {fill:#C69E6B;fill-rule:nonzero}
   ]]>
  </style>
 </defs>
 <g id="Layer_x0020_1">
  <metadata id="CorelCorpID_0Corel-Layer"/>
  <g id="_435148912">
   <g>
    <path id="_435151456" class="fil0" d="M4.06852 2.53099c0.24661,-0.163256 0.988315,-0.965811 1.48671,-0.834291 -0.516724,-0.178657 -1.29282,0.641961 -1.51252,0.807142l0.025815 0.0271496z"/>
    <path id="_435151288" class="fil1" d="M4.13256 2.84426c0.24661,-0.163256 0.988319,-0.965811 1.48671,-0.834291 -0.516728,-0.178657 -1.29282,0.641961 -1.51252,0.807142l0.025811 0.0271496z"/>
    <path id="_435152008" class="fil2" d="M3.93231 3.35034c0.251402,-0.169126 1.04924,-1.04042 1.49551,-0.845063 -0.457012,-0.251776 -1.28928,0.637626 -1.51589,0.811268l0.0203858 0.0337953z"/>
    <path id="_435151360" class="fil3" d="M3.57593 3.95998c0.247685,-0.164575 1.0427,-1.0324 1.46909,-0.81272 -0.43528,-0.278382 -1.26408,0.606764 -1.48791,0.777l0.018815 0.0357205z"/>
    <path id="_435151672" class="fil1" d="M4.27488 2.30879c0.197689,-0.230661 0.727673,-1.22912 1.22285,-1.24392 -0.522165,-0.0260315 -1.08069,0.999992 -1.25272,1.22479l0.0298622 0.0191299z"/>
    <path id="_435150688" class="fil4" d="M3.9557 2.49778c0.12063,-0.278807 0.78563,-1.19291 0.581815,-1.64444 0.252343,0.457886 -0.424917,1.40973 -0.551531,1.6629l-0.0302835 -0.0184528z"/>
    <path id="_435151048" class="fil3" d="M2.90983 2.93594c0.111776,-0.275571 0.803287,-1.22793 0.50285,-1.60184 0.359732,0.37089 -0.342004,1.35981 -0.464091,1.61314l-0.0387598 -0.0112992z"/>
    <path id="_435151000" class="fil1" d="M4.36401 1.94115c0.0800984,-0.169016 0.218906,-0.277909 0.358858,-0.314776 0.0452087,0.150433 0.0264882,0.332957 -0.0541378,0.501673 -0.156693,0.327902 -0.453244,0.126508 -0.30472,-0.186898z"/>
    <path id="_435150880" class="fil4" d="M4.39407 2.39333c0.088,-0.210445 0.0653228,-0.416878 -0.0269646,-0.56228 -0.184358,0.0926693 -0.341075,0.264882 -0.428307,0.475504 -0.169535,0.409343 0.292098,0.477016 0.455272,0.0867756z"/>
    <path id="_435151024" class="fil0" d="M4.40469 2.06194c0.132394,-0.132106 0.299791,-0.187823 0.443976,-0.175339 -0.00816142,0.156866 -0.0873307,0.322386 -0.220122,0.454039 -0.258079,0.255862 -0.469354,-0.0337244 -0.223854,-0.278701z"/>
    <path id="_435150256" class="fil5" d="M4.01457 2.4239c0.247138,-0.145165 0.5115,-0.160232 0.713071,-0.081689 -0.0795197,0.234024 -0.264697,0.451772 -0.512209,0.596075 -0.481035,0.280461 -0.659134,-0.245205 -0.200862,-0.514386z"/>
    <path id="_435150472" class="fil1" d="M4.13462 2.66435c0.0978307,-0.273291 0.0613031,-0.538213 -0.0571929,-0.722602 -0.220079,0.124563 -0.403106,0.350654 -0.499996,0.62415 -0.188311,0.531535 0.375783,0.605228 0.557189,0.0984528z"/>
    <path id="_435150040" class="fil3" d="M3.54403 2.98257c0.323689,-0.179138 0.666772,-0.194142 0.926335,-0.0921732 -0.108374,0.293591 -0.35337,0.565091 -0.677524,0.743142 -0.629988,0.346039 -0.849035,-0.318791 -0.248811,-0.650969z"/>
    <path id="_435149776" class="fil2" d="M3.68518 3.27985c0.126815,-0.347835 0.081315,-0.685453 -0.069689,-0.920756 -0.282811,0.157949 -0.518626,0.445358 -0.644244,0.793453 -0.24413,0.67652 0.478776,0.772299 0.713933,0.127303z"/>
    <path id="_435149056" class="fil3" d="M3.16464 3.67615c0.119295,-0.383839 0.0602008,-0.752441 -0.10474,-1.00653 -0.287819,0.179591 -0.522315,0.499831 -0.640358,0.883925 -0.229413,0.74648 0.523882,0.834362 0.745098,0.122606z"/>
    <path id="_435149200" class="fil2" d="M2.87383 3.79107c0.338299,-0.196547 0.699551,-0.21624 0.974594,-0.108906 -0.109681,0.317803 -0.36365,0.613169 -0.702457,0.808547 -0.658461,0.379713 -0.899453,-0.335189 -0.272138,-0.699642z"/>
    <path id="_435149608" class="fil6" d="M2.50887 4.42336c0.323157,-0.171531 0.663579,-0.183362 0.91976,-0.0821614 -0.111008,0.28452 -0.35724,0.546461 -0.680846,0.716937 -0.628925,0.331311 -0.838157,-0.316697 -0.238913,-0.634776z"/>
    <path id="_435149488" class="fil6" d="M2.58218 4.34788c0.0936654,-0.365567 0.0147756,-0.686134 -0.160362,-0.885307 -0.269382,0.211776 -0.478752,0.540465 -0.571181,0.906047 -0.179638,0.710492 0.557858,0.657142 0.731543,-0.0207402z"/>
    <path id="_435149656" class="fil6" d="M2.31735 3.65724c0.125669,-0.378165 0.99261,-1.7134 0.522283,-2.18461 0.554016,0.461677 -0.323067,1.84666 -0.466,2.1961l-0.0562835 -0.0114882z"/>
    <path id="_435148240" class="fil2" d="M3.32021 2.85044c0.115492,-0.280118 0.809835,-1.23594 0.529268,-1.63418 0.337996,0.3975 -0.367213,1.39067 -0.492083,1.64741l-0.037185 -0.0132244z"/>
    <path id="_435148840" class="fil1" d="M3.73394 2.51871c0.110701,-0.274256 0.748906,-1.16134 0.520472,-1.62341 0.27828,0.470622 -0.370752,1.39501 -0.488713,1.64328l-0.0317598 -0.0198661z"/>
    <path id="_435148648" class="fil6" d="M3.0086 4.70183c0.345441,-0.198685 1.48057,-1.31489 2.03624,-0.948181 -0.563051,-0.450618 -1.7449,0.685469 -2.05874,0.895327l0.0225 0.0528543z"/>
   </g>
   <path id="_435148408" class="fil7" d="M2.20946 5.00231l-0.793028 0.971024 -0.209047 -0.170724 0.790315 -0.967705c0.0154134,-0.173748 0.0652165,-0.0812874 0.156701,-0.0138425 0.098815,0.0728425 0.23313,0.130362 0.0550591,0.181248z"/>
  </g>
  <rect class="fil8" width="6.82666" height="6.82666"/>
 </g>
</svg>
