<?xml version="1.0" encoding="UTF-8"?>
<!DOCTYPE svg PUBLIC "-//W3C//DTD SVG 1.1//EN" "http://www.w3.org/Graphics/SVG/1.1/DTD/svg11.dtd">
<!-- Creator: CorelDRAW -->
<svg xmlns="http://www.w3.org/2000/svg" xml:space="preserve" width="6.82666in" height="6.82666in" style="shape-rendering:geometricPrecision; text-rendering:geometricPrecision; image-rendering:optimizeQuality; fill-rule:evenodd; clip-rule:evenodd"
viewBox="0 0 6.82666 6.82666"
 xmlns:xlink="http://www.w3.org/1999/xlink">
 <defs>
  <style type="text/css">
   <![CDATA[
    .fil9 {fill:none}
    .fil6 {fill:#171515}
    .fil5 {fill:#212121}
    .fil7 {fill:#321B09}
    .fil1 {fill:#362B2B}
    .fil8 {fill:#382623}
    .fil0 {fill:#4E342E}
    .fil3 {fill:#DD2C00}
    .fil4 {fill:#FF3D00}
    .fil2 {fill:#FFA000}
   ]]>
  </style>
 </defs>
 <g id="Layer_x0020_1">
  <metadata id="CorelCorpID_0Corel-Layer"/>
  <g id="_437031448">
   <path id="_437034304" class="fil0" d="M4.71747 1.93136c-0.0852283,0.529016 0.136173,0.786028 0.259386,1.53386 0.0532205,0.323016 0.0928622,0.596524 0.0729291,0.872512 -0.0320709,0.443941 -0.254902,1.07657 -0.626146,1.60977 -1.18358,-0.228004 -1.03122,-0.228012 -2.2148,0 -0.371244,-0.533201 -0.594075,-1.16583 -0.626146,-1.60977 -0.0199331,-0.275988 0.0197087,-0.549496 0.0729291,-0.872512 0.123213,-0.747835 0.344614,-1.00485 0.259386,-1.53386l2.80246 0z"/>
   <path id="_437033752" class="fil1" d="M4.71926 1.91935c-0.00438976,0.0281378 -0.00877953,0.0547205 -0.0128819,0.0795039 -0.000452756,0.00275197 -0.000862205,0.00547638 -0.00129528,0.00820866l-0.000212598 0.00133071c-0.92576,0.0607953 -1.85151,0.0726614 -2.77726,0l-0.000472441 -0.003c-0.000334646,-0.00217323 -0.000669291,-0.00434646 -0.0010315,-0.00653937 -0.00416929,-0.0251732 -0.00867717,-0.0517283 -0.0132283,-0.0795039l2.80639 0z"/>
   <path id="_437034184" class="fil2" d="M4.73798 3.84692c-0.890307,0.059122 -1.92446,-0.567965 -2.42929,-1.51948 -0.0160512,-0.030252 -0.0313937,-0.0605079 -0.0460354,-0.090748 0.026378,0.0836693 0.0572402,0.168803 0.0927008,0.255126 0.442886,1.07813 1.45112,1.97138 2.3538,2.13023 0.024311,-0.10439 0.0409567,-0.207035 0.0480669,-0.305445 0.0111614,-0.154524 0.000287402,-0.312819 -0.0192402,-0.469681z"/>
   <path id="_437034208" class="fil3" d="M4.70915 4.62205c-0.902673,-0.15885 -1.91091,-1.0521 -2.3538,-2.13023 -0.0354606,-0.0863228 -0.0663228,-0.171457 -0.0927008,-0.255126 -0.00193307,-0.00399606 -0.00385827,-0.00799606 -0.00577165,-0.0119961l-0.0309843 0c-0.0026378,0.0666496 -0.00935433,0.133559 -0.0202283,0.201492 -0.0270157,0.168748 -0.0772441,0.332413 -0.124004,0.496425 -0.055937,0.196181 -0.103406,0.388709 -0.136618,0.590299 -0.0430748,0.261425 -0.0889724,0.53813 -0.0697913,0.803693 0.0305236,0.422551 0.236866,0.923106 0.471118,1.30519 0.164118,-0.0322244 0.328543,-0.0643819 0.493087,-0.0918622 0.158374,-0.0264528 0.315913,-0.0467598 0.476776,-0.0467559 0.160866,0 0.318402,0.0203071 0.476776,0.0467598 0.164543,0.0274803 0.328969,0.0596378 0.493087,0.0918583 0.179697,-0.293094 0.342969,-0.655902 0.423051,-0.99974z"/>
   <path id="_437033848" class="fil4" d="M2.30869 2.32744c0.504823,0.95152 1.53898,1.57861 2.42929,1.51948 -0.00529134,-0.0424764 -0.0112126,-0.0848504 -0.0175079,-0.127016 -0.882209,0.0856693 -1.91626,-0.512394 -2.43798,-1.44309 0.00851181,0.0168701 0.0172441,0.0337441 0.0261969,0.0506181z"/>
   <path id="_437034160" class="fil5" d="M4.67967 0.962803c0.139969,0.351835 0.0773937,0.731146 0.0393228,0.95902 -0.000456693,0.00275197 -0.000870079,0.00547638 -0.00130709,0.00820866l-0.000212598 0.00133071c-0.934161,0.0607953 -1.86831,0.0726614 -2.80246,0l-0.000476378 -0.003c-0.000338583,-0.00217323 -0.000677165,-0.00434646 -0.00104331,-0.00653937 -0.0396378,-0.237268 -0.110303,-0.596043 0.0529488,-0.961811 0.0855039,-0.191571 2.6289,-0.209185 2.71323,0.00279134z"/>
   <path id="_437033440" class="fil6" d="M2.04721 0.912142c0.402382,-0.130512 2.15111,-0.141134 2.5522,-0.00138583 -0.25239,0.0217283 -0.732941,0.0364055 -1.28436,0.0364055 -0.539618,0 -1.01136,-0.0140551 -1.26784,-0.0350197z"/>
   <path id="_437033392" class="fil7" d="M4.15876 4.93323c-0.000625984,-0.0246339 -0.00690945,-0.0432913 -0.0189685,-0.0560748 -0.0120591,-0.0127795 -0.0267992,-0.0191693 -0.0441181,-0.0191693 -0.0185512,0 -0.0338071,0.00680315 -0.0458661,0.0203031 -0.012063,0.0133976 -0.0180394,0.031748 -0.0178346,0.0549409l0.126787 0zm-0.00484646 0.0857598l0.084622 0.014122c-0.0109252,0.0310276 -0.0280315,0.054626 -0.0515315,0.0708071 -0.0234016,0.0162874 -0.0527756,0.0243268 -0.0880276,0.0243268 -0.0557638,0 -0.0969961,-0.0181417 -0.123799,-0.0546299 -0.021126,-0.0291693 -0.0317441,-0.0660709 -0.0317441,-0.110496 0,-0.053185 0.0139173,-0.0948228 0.041748,-0.124925 0.0277244,-0.0300984 0.062874,-0.0451535 0.105343,-0.0451535 0.0477244,0 0.0853425,0.0157756 0.112969,0.0473189 0.0275236,0.0315354 0.0407126,0.0797795 0.0395787,0.144819l-0.212642 0c0.00061811,0.0251457 0.00742126,0.0447323 0.0205118,0.0586535 0.0130906,0.0140157 0.0294803,0.0210236 0.0489606,0.0210236 0.0132953,0 0.0244291,-0.00361024 0.0334961,-0.0108228 0.0090748,-0.0073189 0.0159803,-0.0189646 0.0205157,-0.0350433zm-0.339118 -0.0857598c-0.00061811,-0.0246339 -0.00690551,-0.0432913 -0.0189685,-0.0560748 -0.0120551,-0.0127795 -0.0267953,-0.0191693 -0.0441181,-0.0191693 -0.0185472,0 -0.0338031,0.00680315 -0.0458661,0.0203031 -0.0120591,0.0133976 -0.0180394,0.031748 -0.0178307,0.0549409l0.126783 0zm-0.00484252 0.0857598l0.084622 0.014122c-0.0109291,0.0310276 -0.0280315,0.054626 -0.0515354,0.0708071 -0.0234016,0.0162874 -0.0527756,0.0243268 -0.0880236,0.0243268 -0.0557677,0 -0.0969961,-0.0181417 -0.123799,-0.0546299 -0.021126,-0.0291693 -0.0317441,-0.0660709 -0.0317441,-0.110496 0,-0.053185 0.0139134,-0.0948228 0.041748,-0.124925 0.0277205,-0.0300984 0.062874,-0.0451535 0.105339,-0.0451535 0.0477244,0 0.0853465,0.0157756 0.112965,0.0473189 0.0275276,0.0315354 0.0407205,0.0797795 0.0395866,0.144819l-0.212642 0c0.00061811,0.0251457 0.00741732,0.0447323 0.0205079,0.0586535 0.0130945,0.0140157 0.0294803,0.0210236 0.0489646,0.0210236 0.0132953,0 0.0244291,-0.00361024 0.0334961,-0.0108228 0.0090748,-0.0073189 0.0159803,-0.0189646 0.0205157,-0.0350433zm-0.428799 -0.218626l0.0471063 0 0 -0.0242205c0,-0.0269055 0.00288976,-0.0471102 0.00866142,-0.0604016 0.00577165,-0.0132992 0.0162835,-0.024122 0.0316457,-0.0324685 0.0154606,-0.00835039 0.0349409,-0.0124724 0.0584409,-0.0124724 0.0242205,0 0.0478307,0.00360236 0.0710197,0.0108268l-0.0114409 0.0592638c-0.0135039,-0.00329921 -0.0264882,-0.00484646 -0.0389646,-0.00484646 -0.0123661,0 -0.021126,0.0027874 -0.0264882,0.00855906 -0.0053622,0.00577165 -0.00793701,0.0167992 -0.00793701,0.0330866l0 0.0226732 0.0633858 0 0 0.066685 -0.0633858 0 0 0.253984 -0.084937 0 0 -0.253984 -0.0471063 0 0 -0.066685zm-0.205945 0l0.0471063 0 0 -0.0242205c0,-0.0269055 0.00288976,-0.0471102 0.00866142,-0.0604016 0.00577165,-0.0132992 0.0162835,-0.024122 0.0316457,-0.0324685 0.0154606,-0.00835039 0.034937,-0.0124724 0.0584409,-0.0124724 0.0242205,0 0.0478268,0.00360236 0.0710236,0.0108268l-0.0114449 0.0592638c-0.0135039,-0.00329921 -0.0264882,-0.00484646 -0.0389646,-0.00484646 -0.0123661,0 -0.0211299,0.0027874 -0.0264921,0.00855906 -0.00535827,0.00577165 -0.00793307,0.0167992 -0.00793307,0.0330866l0 0.0226732 0.0633898 0 0 0.066685 -0.0633898 0 0 0.253984 -0.084937 0 0 -0.253984 -0.0471063 0 0 -0.066685zm-0.273252 0.160283c0,0.0318504 0.00752756,0.0561732 0.0226811,0.0730787 0.0150472,0.0169055 0.0337008,0.0253583 0.0558661,0.0253583 0.0221575,0 0.0407126,-0.00845276 0.0556614,-0.0253583 0.0150472,-0.0169055 0.0225709,-0.041437 0.0225709,-0.0736969 0,-0.0313386 -0.00752362,-0.0555591 -0.0225709,-0.0724606 -0.0149488,-0.0169055 -0.0335039,-0.0253622 -0.0556614,-0.0253622 -0.0221654,0 -0.0408189,0.00845669 -0.0558661,0.0253622 -0.0151535,0.0169016 -0.0226811,0.0413307 -0.0226811,0.0730787zm-0.0869921 -0.0045315c0,-0.0281457 0.00700787,-0.0554606 0.0208189,-0.0818465 0.0139173,-0.0262835 0.0336024,-0.0464882 0.059063,-0.0602992 0.0254606,-0.0139094 0.0539094,-0.0209291 0.0853465,-0.0209291 0.0484449,0 0.0882362,0.0157756 0.11926,0.0473189 0.0310236,0.0315354 0.0464843,0.0713228 0.0464843,0.119461 0,0.0484488 -0.0156654,0.0886457 -0.0468976,0.120598 -0.0313307,0.0319528 -0.0707087,0.0478268 -0.118224,0.0478268 -0.0294803,0 -0.0574213,-0.00659449 -0.0841102,-0.0198898 -0.0266969,-0.0132992 -0.0470039,-0.0327835 -0.0609213,-0.0584449 -0.013811,-0.0256654 -0.0208189,-0.0569016 -0.0208189,-0.0937953zm-0.143071 0.00215748l0.0865866 0.0274173c-0.0132992,0.0483465 -0.0353583,0.0842205 -0.0662835,0.10772 -0.0308189,0.0233937 -0.0700906,0.0351457 -0.117602,0.0351457 -0.0587559,0 -0.107098,-0.0201024 -0.144929,-0.0601929 -0.0378268,-0.0402008 -0.0567953,-0.0951457 -0.0567953,-0.16472 0,-0.0736969 0.0190709,-0.130906 0.0571063,-0.171717 0.0380315,-0.0407205 0.0880276,-0.061126 0.150075,-0.061126 0.0541181,0 0.0981299,0.0159724 0.131937,0.0480354 0.0202047,0.0188622 0.0352559,0.0460709 0.0453583,0.0815276l-0.0885472 0.0211339c-0.00514961,-0.0229882 -0.0160748,-0.0411339 -0.0327756,-0.0544291 -0.0165945,-0.0132913 -0.0367992,-0.0198898 -0.0605,-0.0198898 -0.0327874,0 -0.0594803,0.011748 -0.0798898,0.0353583 -0.0204055,0.0235 -0.0306142,0.0616378 -0.0306142,0.114406 0,0.0559724 0.01,0.0958622 0.0302008,0.119567 0.0201024,0.023811 0.0462835,0.0356693 0.0784409,0.0356693 0.023811,0 0.0442165,-0.00752362 0.0613307,-0.0226811 0.0171142,-0.0150472 0.029378,-0.0388543 0.0369016,-0.0712244z"/>
   <g>
    <ellipse id="_437033080" class="fil8" transform="matrix(1.0203 -3.75308 -2.2559 -1.69746 2.34038 3.83695)" rx="0.0262205" ry="0.0555276"/>
    <ellipse id="_437033032" class="fil0" transform="matrix(-1.08015 -2.65325 -1.20408 -0.815322 2.31985 3.80227)" rx="0.0262205" ry="0.0555276"/>
   </g>
   <g>
    <ellipse id="_437033008" class="fil8" transform="matrix(3.76698 -0.967754 0.360835 -2.80004 2.53139 4.06285)" rx="0.0262205" ry="0.0555276"/>
    <ellipse id="_437033224" class="fil0" transform="matrix(1.7728 -2.25026 0.113752 -1.44969 2.55138 4.02787)" rx="0.0262205" ry="0.0555276"/>
   </g>
   <g>
    <ellipse id="_437032456" class="fil8" transform="matrix(-0.984184 -3.76272 -2.80159 -0.348612 2.58673 4.32245)" rx="0.0262205" ry="0.0555276"/>
    <ellipse id="_437032192" class="fil0" transform="matrix(-2.25797 -1.76296 -1.45018 -0.107424 2.55166 4.30261)" rx="0.0262205" ry="0.0555276"/>
   </g>
   <g>
    <ellipse id="_437032144" class="fil8" transform="matrix(-3.42315 -1.84626 -2.16557 1.81128 2.87164 4.26071)" rx="0.0262205" ry="0.0555276"/>
    <ellipse id="_437032072" class="fil0" transform="matrix(-2.82926 0.44914 -1.06755 0.987367 2.83321 4.27283)" rx="0.0262205" ry="0.0555276"/>
   </g>
   <g>
    <ellipse id="_437032672" class="fil8" transform="matrix(-3.88493 -0.184365 -1.16933 2.56965 2.73726 4.10116)" rx="0.0262205" ry="0.0555276"/>
    <ellipse id="_437032624" class="fil0" transform="matrix(-2.3568 1.62848 -0.535581 1.35193 2.70785 4.12871)" rx="0.0262205" ry="0.0555276"/>
   </g>
   <g>
    <ellipse id="_437032120" class="fil8" transform="matrix(1.02614 -3.75149 -2.25325 -1.70097 2.31039 4.30246)" rx="0.0262205" ry="0.0555276"/>
    <ellipse id="_437031904" class="fil0" transform="matrix(-1.07603 -2.65493 -1.20281 -0.817194 2.28991 4.26775)" rx="0.0262205" ry="0.0555276"/>
   </g>
   <g>
    <ellipse id="_437031736" class="fil8" transform="matrix(-2.60401 -2.8889 -2.64819 0.978539 2.24327 4.07566)" rx="0.0262205" ry="0.0555276"/>
    <ellipse id="_437031496" class="fil0" transform="matrix(-2.81573 -0.527393 -1.33719 0.571368 2.203 4.07416)" rx="0.0262205" ry="0.0555276"/>
   </g>
  </g>
  <rect class="fil9" width="6.82666" height="6.82666"/>
 </g>
</svg>
