<?xml version="1.0" encoding="UTF-8"?>
<!DOCTYPE svg PUBLIC "-//W3C//DTD SVG 1.1//EN" "http://www.w3.org/Graphics/SVG/1.1/DTD/svg11.dtd">
<!-- Creator: CorelDRAW -->
<svg xmlns="http://www.w3.org/2000/svg" xml:space="preserve" width="6.82666in" height="6.82666in" style="shape-rendering:geometricPrecision; text-rendering:geometricPrecision; image-rendering:optimizeQuality; fill-rule:evenodd; clip-rule:evenodd"
viewBox="0 0 6.82666 6.82666"
 xmlns:xlink="http://www.w3.org/1999/xlink">
 <defs>
  <style type="text/css">
   <![CDATA[
    .fil4 {fill:none}
    .fil2 {fill:#78909C}
    .fil0 {fill:#9BAAAA}
    .fil1 {fill:#FFD54F}
    .fil3 {fill:#FFD54F;fill-rule:nonzero}
   ]]>
  </style>
 </defs>
 <g id="Layer_x0020_1">
  <metadata id="CorelCorpID_0Corel-Layer"/>
  <path class="fil0" d="M1.70593 0.967531l0 0.466732 -0.00264567 0.0119134c-0.150988,0.680358 -0.234264,1.37663 -0.226508,2.07403 0.00677953,0.609201 0.0827677,1.21046 0.226031,1.80252l0.00312205 0.0129016 0 0.421217 0.00261024 0c0.034122,0 0.0698622,-0.00255512 0.104028,-0.00413386 0.0343346,-0.00159055 0.0686654,-0.00317323 0.103016,-0.00448031 0.0633071,-0.00240945 0.186661,-0.00981102 0.245382,0.00812992 0.416236,0.127177 0.838969,0.215598 1.27581,0.216953 0.428941,0.00133465 0.835909,-0.0821969 1.24186,-0.217024 0.0942638,-0.0313071 0.199087,-0.0202126 0.296091,-0.0101969 0.0499291,0.00515748 0.100815,0.010752 0.151035,0.010752l0.00216535 0 -3.93701e-006 -0.401854 0.00241732 -0.0114055c0.135657,-0.640236 0.214197,-1.29041 0.219744,-1.94519 0.00571654,-0.674661 -0.067063,-1.34773 -0.219295,-2.00509l-0.00286614 -0.0123898 3.93701e-006 -0.413386 -0.448327 0 -0.0100906 -0.00187795c-0.411193,-0.0764528 -0.828701,-0.112165 -1.24683,-0.112319 -0.217693,-8.26772e-005 -0.436173,0.028815 -0.651831,0.0561535 -0.23274,0.0295039 -0.465268,0.0580433 -0.700307,0.0580433l-0.364606 0z"/>
  <polygon class="fil1" points="1.98918,4.00108 4.83748,4.00108 4.83748,4.19246 1.98918,4.19246 "/>
  <polygon class="fil1" points="1.98918,2.63419 4.83748,2.63419 4.83748,2.82557 1.98918,2.82557 "/>
  <path class="fil2" d="M3.41333 1.08111c0.517972,0 0.981287,0.0847677 1.29046,0.218106 -0.347343,-0.0911457 -0.797953,-0.146197 -1.29046,-0.146197 -0.492504,0 -0.943114,0.0550512 -1.29046,0.146197 0.309169,-0.133339 0.772484,-0.218106 1.29046,-0.218106z"/>
  <path class="fil2" d="M3.41333 5.74861c0.517972,0 0.981287,-0.0847677 1.29046,-0.218106 -0.347343,0.0911457 -0.797953,0.146197 -1.29046,0.146197 -0.492504,0 -0.943114,-0.0550512 -1.29046,-0.146197 0.309169,0.133339 0.772484,0.218106 1.29046,0.218106z"/>
  <path class="fil3" d="M4.36735 3.36623l0.0792598 0c0.051437,0 0.0835906,-0.00240157 0.0964488,-0.00735039 0.0127323,-0.00494488 0.022748,-0.0135827 0.0300433,-0.0257441 0.00717323,-0.0121575 0.0108898,-0.0272913 0.0108898,-0.0455315 0,-0.0205079 -0.00483071,-0.0369094 -0.0143465,-0.0495 -0.00952362,-0.0125866 -0.023,-0.0205079 -0.040437,-0.0239055 -0.00865748,-0.00127165 -0.0347441,-0.00198031 -0.0782717,-0.00198031l-0.0835866 0 0 0.154012zm-0.107327 0.350598l0 -0.607421 0.225787 0c0.056752,0 0.0979252,0.00551181 0.12365,0.0164016 0.0257165,0.0108898 0.0463661,0.0302677 0.0618228,0.0581299 0.0154528,0.0279961 0.023126,0.0598189 0.023126,0.0957441 0,0.0455394 -0.011752,0.0832992 -0.0351181,0.113 -0.023374,0.0295591 -0.0584882,0.0483622 -0.105102,0.056 0.0232441,0.0155591 0.0424094,0.0325315 0.0574961,0.0510551 0.0150827,0.0185315 0.0353622,0.0513346 0.0609606,0.0985748l0.0649094 0.118516 -0.128224 0 -0.0775276 -0.132232c-0.0275748,-0.0472402 -0.0463661,-0.0769331 -0.0565039,-0.0892402 -0.0101417,-0.0123031 -0.0209016,-0.0206496 -0.0322756,-0.025315 -0.011374,-0.00452756 -0.0293071,-0.0067874 -0.0540354,-0.0067874l-0.0216378 0 0 0.253575 -0.107327 0zm-0.254591 -0.240283l-0.0732008 -0.225437 -0.0717165 0.225437 0.144917 0zm0.197465 0.240283l-0.11672 0 -0.046374 -0.138031 -0.212303 0 -0.0437756 0.138031 -0.113756 0 0.206866 -0.607421 0.113386 0 0.212677 0.607421zm-0.808909 -0.223315l0 -0.10239 0.231098 0 0 0.241976c-0.0225079,0.0248976 -0.0550236,0.0468189 -0.097685,0.0657638 -0.0426575,0.018811 -0.085811,0.0282874 -0.129461,0.0282874 -0.0555197,0 -0.103988,-0.0132953 -0.145283,-0.0398819 -0.0412992,-0.0267323 -0.0723386,-0.0647717 -0.0931102,-0.114409 -0.0207717,-0.0496457 -0.0311614,-0.103524 -0.0311614,-0.161795 0,-0.0632165 0.011622,-0.119504 0.034748,-0.168717 0.0232441,-0.0490787 0.057122,-0.0868386 0.101886,-0.113004 0.0340039,-0.0202205 0.0764134,-0.0302638 0.127114,-0.0302638 0.0659016,0 0.117461,0.0158386 0.154433,0.047378 0.0370945,0.0316772 0.0609646,0.0753819 0.0715945,0.131244l-0.106465 0.0227677c-0.00753937,-0.0298386 -0.0216378,-0.0534606 -0.0422835,-0.0707126 -0.0206535,-0.0172559 -0.0463661,-0.0258819 -0.0772795,-0.0258819 -0.0468701,0 -0.0840827,0.0169724 -0.111783,0.0509134 -0.0276929,0.0340866 -0.0414173,0.0844331 -0.0414173,0.151323 0,0.0719843 0.0139685,0.126154 0.0420354,0.16222 0.0279449,0.036063 0.0646732,0.0540197 0.110051,0.0540197 0.0225039,0 0.0450079,-0.00508661 0.0676339,-0.0151299 0.0225039,-0.0100394 0.0419173,-0.0223465 0.0581142,-0.0366299l0 -0.0770787 -0.12278 0zm-0.783575 -0.384106l0.107209 0 0 0.328953c0,0.052189 0.00135827,0.086126 0.00395669,0.101543 0.0045748,0.0248898 0.0155787,0.0448346 0.0327638,0.0598228 0.017315,0.0151299 0.0409331,0.022626 0.0708543,0.022626 0.0304173,0 0.0534173,-0.00706693 0.068874,-0.0213543 0.0154567,-0.0141417 0.0247283,-0.0316772 0.0278189,-0.0523228 0.00321654,-0.0207913 0.00470079,-0.0551614 0.00470079,-0.103244l0 -0.336024 0.107205 0 0 0.319055c0,0.0729724 -0.00284252,0.124453 -0.00865354,0.154575 -0.00581102,0.030126 -0.0164449,0.0554409 -0.0320276,0.0762283 -0.0155787,0.0206535 -0.0364764,0.0371969 -0.0624449,0.0495 -0.0260866,0.0123031 -0.0602165,0.0183858 -0.102256,0.0183858 -0.0506969,0 -0.0891496,-0.00664173 -0.11537,-0.0200827 -0.0262047,-0.0134331 -0.0468543,-0.0308307 -0.0620669,-0.0521811 -0.0152126,-0.0213583 -0.0252244,-0.0438504 -0.0300472,-0.0673189 -0.00705118,-0.0347953 -0.0105157,-0.0861339 -0.0105157,-0.154157l0 -0.324004zm-0.521299 0.40985l0.104358 -0.0117402c0.00617717,0.0401654 0.0189173,0.0695827 0.0382047,0.0883937 0.0191693,0.0186654 0.0450079,0.0281417 0.0776535,0.0281417 0.0345,0 0.0605945,-0.00834646 0.0780236,-0.0251772 0.0175551,-0.0166811 0.0263386,-0.0362047 0.0263386,-0.0585472 0,-0.0144252 -0.00370866,-0.0265866 -0.011126,-0.0366299 -0.00729921,-0.010185 -0.0201575,-0.0189488 -0.0385787,-0.0263071 -0.0124921,-0.00509055 -0.0411811,-0.0138583 -0.0858189,-0.0265866 -0.0574921,-0.0162638 -0.0978031,-0.0363504 -0.120929,-0.0601063 -0.0326417,-0.033378 -0.0489646,-0.0741063 -0.0489646,-0.122189 0,-0.0309724 0.00766929,-0.0598268 0.0230039,-0.0868386 0.0153307,-0.0268661 0.0374606,-0.047374 0.0662756,-0.0615197 0.0289331,-0.0140039 0.0636732,-0.0210709 0.104476,-0.0210709 0.0667795,0 0.116854,0.016685 0.15061,0.050063 0.0336339,0.0335197 0.051315,0.0780669 0.0530472,0.133933l-0.107209 0.00537402c-0.0045748,-0.0312559 -0.0144646,-0.0537441 -0.0295472,-0.067315 -0.0150866,-0.0137244 -0.0377165,-0.0205118 -0.0678819,-0.0205118 -0.0311614,0 -0.0556457,0.0072126 -0.0732047,0.0219173 -0.0113701,0.00933858 -0.017063,0.0219213 -0.017063,0.037622 0,0.0144252 0.00531496,0.0267323 0.0159528,0.0369094 0.0134724,0.0130157 0.0463661,0.0265906 0.0985433,0.0405945 0.052185,0.0141378 0.0907638,0.0287087 0.11574,0.0436969 0.0249764,0.0151339 0.0445079,0.0356378 0.0587323,0.0618031 0.0140984,0.0261693 0.0211417,0.0584094 0.0211417,0.0967362 0,0.0347953 -0.00840551,0.0674567 -0.0253465,0.0977244 -0.0169409,0.0304055 -0.0408031,0.0530315 -0.0717165,0.0677441 -0.0309134,0.0148465 -0.0694882,0.0222047 -0.115614,0.0222047 -0.0671378,0 -0.118705,-0.0176772 -0.154685,-0.0531772 -0.0359803,-0.0355 -0.0574921,-0.0872598 -0.0644173,-0.155142z"/>
  <rect class="fil4" width="6.82666" height="6.82666"/>
 </g>
</svg>
