<?xml version="1.0" encoding="UTF-8"?>
<!DOCTYPE svg PUBLIC "-//W3C//DTD SVG 1.1//EN" "http://www.w3.org/Graphics/SVG/1.1/DTD/svg11.dtd">
<!-- Creator: CorelDRAW -->
<svg xmlns="http://www.w3.org/2000/svg" xml:space="preserve" width="6.82666in" height="6.82666in" style="shape-rendering:geometricPrecision; text-rendering:geometricPrecision; image-rendering:optimizeQuality; fill-rule:evenodd; clip-rule:evenodd"
viewBox="0 0 6.82666 6.82666"
 xmlns:xlink="http://www.w3.org/1999/xlink">
 <defs>
  <style type="text/css">
   <![CDATA[
    .fil10 {fill:none}
    .fil7 {fill:#754529}
    .fil6 {fill:#7CB342}
    .fil5 {fill:#8BC34A}
    .fil9 {fill:#FF8F00}
    .fil2 {fill:#A60E10;fill-rule:nonzero}
    .fil4 {fill:#C58A3D;fill-rule:nonzero}
    .fil3 {fill:#D50000;fill-rule:nonzero}
    .fil8 {fill:#FF8F00;fill-rule:nonzero}
    .fil1 {fill:#FF9B00;fill-rule:nonzero}
    .fil0 {fill:#FFA000;fill-rule:nonzero}
   ]]>
  </style>
 </defs>
 <g id="Layer_x0020_1">
  <metadata id="CorelCorpID_0Corel-Layer"/>
  <path class="fil0" d="M3.38305 1.94809l0.199689 0 0.0581142 0 0.00682677 0.0577795 0.0795433 0.673256c-0.466906,0 0.0739685,0 -0.612772,0l-0.156445 -0.483606 -0.0256024 -0.0791339 0.0831732 0 0.199693 0 0.0439331 0 0.0136417 0.0421772 0.112913 0.349028 -0.0586181 -0.496126 -0.00748425 -0.063374 0.0633937 0z"/>
  <path class="fil1" d="M4.69963 2.89818l0.154417 -1.03765 0.00731496 -0.0491535 0.0503228 0 0.199693 0 0.0730354 0 -0.010689 0.071815 -0.118445 0.795925c-0.260583,0 0.133055,0 -0.237772,0l-0.0191929 0.0536496c-0.0220709,0.0616969 -0.0551654,0.119587 -0.098685,0.165409z"/>
  <path class="fil1" d="M4.42636 2.99358c-0.135382,-0.022 -0.345197,-0.11498 -0.391228,-0.24361l-0.0192008 -0.0536417c-0.392122,0 -0.00737008,-0.0172087 -0.108425,-0.0172087l-0.173469 -0.53622 -0.0255984 -0.0791339 0.0831732 0 0.199681 0 0.0439331 0 0.0136417 0.0421772 0.272598 0.842646 -0.0375157 -0.840441 -0.00182677 -0.0408976 0.0433189 0 0.199689 0 0.0849331 0 0.00359055 0.0804567 0.0354646 0.794524c-0.031811,0.0226142 -0.0676102,0.0393622 -0.107256,0.0482165 -0.00612598,0.00137008 -0.107146,0.00448819 -0.115504,0.00313386z"/>
  <path class="fil0" d="M5.15456 2.67912l0.0670157 -0.672791 0.00577559 -0.0580118 0.0581732 0 0.199693 0 0.0624094 0 -0.00624016 0.0626772 -0.0444724 0.44648 0.131106 -0.299004 0.0183701 -0.0418976 0.0442205 0 0.199681 0 0.0830354 0 -0.0346496 0.0790276 -0.212016 0.48352c-0.561724,0 -0.176122,0 -0.572102,0z"/>
  <path class="fil2" d="M4.81425 2.62807l1.1226 0 -0.306811 1.8545c-0.812705,-9.84252e-005 -1.62541,-9.84252e-005 -2.43811,0l-0.306811 -1.8545 1.12261 0c0.152091,0.452744 0.654433,0.452744 0.806528,0z"/>
  <path class="fil3" d="M4.8639 2.62807l0.277012 0 -0.131134 1.85444 -0.277012 -1.5748e-005 0.131134 -1.85443zm0.59185 0l0.277012 0 -0.192819 1.85449 -0.277008 -2.75591e-005 0.192815 -1.85446zm-0.911193 1.85442l-0.277008 0 0.00962992 -1.54085c0.0898937,0.0358307 0.187713,0.0345039 0.277035,-0.00394882l-0.00965748 1.5448zm-0.446492 3.93701e-006l-0.277012 1.1811e-005 -0.131134 -1.85444 0.277012 0 0.131134 1.85443zm-0.530169 3.54331e-005l-0.277008 2.3622e-005 -0.192819 -1.85448 0.277012 0 0.192815 1.85446z"/>
  <path class="fil4" d="M3.90433 5.01528l-2.53685 -0.0105236c-0.097189,-0.000397638 -0.18539,-0.044937 -0.249209,-0.116378 -0.0637598,-0.071374 -0.103157,-0.169815 -0.102799,-0.278075l0 -1.9685e-005c0.000220472,-0.0641575 0.0240394,-0.122394 0.0622402,-0.164524 0.0381417,-0.0420669 0.0908189,-0.0680669 0.148811,-0.0678268l1.9685e-005 0 2.82366 0.0117008c0.0577559,0.000244094 0.110173,0.0267047 0.148094,0.0691575 0.0378701,0.0423898 0.0612638,0.100925 0.0610472,0.165366 -0.000366142,0.107992 -0.0404528,0.205996 -0.104748,0.276902 -0.0642362,0.0708465 -0.152831,0.114618 -0.250268,0.11422zm-2.67781 -0.637346l7.87402e-006 0m-0.211059 0.23237l0 -7.87402e-006"/>
  <path class="fil5" d="M4.18534 4.38941c0.0196142,0.0694961 -0.0144764,0.0772047 0.0769134,0.114713 0.00236614,0.00168504 0.175984,0.0480866 0.0644409,0.0956654 -0.000200787,8.26772e-005 -0.140504,-0.0359173 -0.159055,-0.0411654 -0.0920787,-0.0260551 0.0136378,-0.0421102 -0.143732,-0.0455591 -0.0638898,-0.00140157 -0.0531181,-0.058811 -0.125441,-0.0330984 -0.0722913,0.0257047 -0.0470315,0.0135906 -0.123299,0.0470906 -0.0110039,0.00483465 -0.0411181,0.00076378 -0.10465,0.0276811 -0.0580787,0.0246102 -0.144276,0.00343701 -0.154543,-0.0348307 -0.0233543,0 -0.199921,0.147272 -0.355768,-0.0095l-0.00629528 -0.00633465c-0.109126,-0.109776 -0.143783,0.00511024 -0.351965,0.00511024 -0.163504,0 -0.0324803,0.0735551 -0.221063,-0.013689 -0.0504488,-0.0233386 -0.129307,0.12602 -0.204787,0.0696654 -0.0536496,-0.0400551 -0.134906,-0.0662402 -0.198138,-0.0387165 -0.053815,0.0234291 -0.114933,-0.0359646 -0.153354,-0.0722165 -0.117106,-0.00224803 -0.206843,0.077752 -0.313358,0.00101969 -0.0405827,-0.0292323 -0.133783,0.113307 -0.268815,0.0724213 -0.0456654,-0.0138228 -0.0700354,0.0894016 -0.184358,0.0851969 -0.113654,-0.0041811 -0.0626063,-0.0341732 -0.186378,-0.0357559 -0.104303,-0.00133071 -0.0931299,-0.126819 -0.0516732,-0.17937 0.00147244,-0.00186614 0.0139843,-0.0275236 0.0146102,-0.0309528 0.0861299,-0.0427283 0.721134,-0.0190236 0.885555,-0.0390197 0.312567,-0.0380039 0.544031,0.0419843 0.864059,0.0419843 0.296594,0 0.691764,0.0102717 0.975244,-0.00449606 0.0437047,-0.00227559 0.363555,-0.0428307 0.389854,-0.0143031 0.00294094,0.00319291 0.0024685,0.00339764 0.00344488,0.00746063 0.0108701,0.00193307 0.0141614,0.00905118 0.0200787,0.0184882 0.00520079,0.00829921 0.0107559,0.00643307 0.0124724,0.0125118z"/>
  <path class="fil6" d="M1.02594 4.40013c-0.0189449,0.0694961 0.0139803,0.0772047 -0.0742874,0.114713 -0.00228346,0.00168504 -0.169976,0.0480827 -0.0622402,0.0956614 0.000192913,8.66142e-005 0.135709,-0.0359173 0.153626,-0.0411654 0.088937,-0.0260512 -0.0131772,-0.0421063 0.138823,-0.0455591 0.0617087,-0.00140157 0.0513071,-0.058811 0.121157,-0.0330945 0.0698228,0.0257047 0.0454291,0.0135866 0.119091,0.0470866 0.0106299,0.00483465 0.0397165,0.00076378 0.101079,0.027685 0.0560945,0.0246063 0.13935,0.00343307 0.149268,-0.0348307 0.0225591,0 0.193094,0.147272 0.343622,-0.0095l0.00607874 -0.00633465c0.105402,-0.10978 0.138874,0.0051063 0.339949,0.0051063 0.157925,0 0.031374,0.0735591 0.213516,-0.013689 0.0487283,-0.0233386 0.124894,0.12602 0.197795,0.0696654 0.0518189,-0.0400512 0.130303,-0.0662402 0.191374,-0.0387126 0.0519764,0.0234252 0.111008,-0.0359646 0.148122,-0.0722205 0.113106,-0.00224803 0.19978,0.0777559 0.302661,0.00102362 0.0391929,-0.0292323 0.129213,0.113303 0.259638,0.0724213 0.0441024,-0.0138228 0.0676417,0.0893976 0.178059,0.0851929 0.109776,-0.00417717 0.0604724,-0.0341693 0.180016,-0.035752 0.100744,-0.00133465 0.0899488,-0.126823 0.0499094,-0.179374 -0.00142126,-0.00186614 -0.0135039,-0.0275236 -0.0141102,-0.0309488 -0.083189,-0.0427283 -0.696516,-0.0190276 -0.855323,-0.0390197 -0.301894,-0.0380079 -0.525457,0.0419803 -0.834563,0.0419803 -0.286469,0 -0.668146,0.0102717 -0.941945,-0.00449606 -0.0422165,-0.00227559 -0.351146,-0.0428307 -0.376547,-0.0142992 -0.00283858,0.00318898 -0.00238583,0.00339764 -0.00332677,0.00745669 -0.0105,0.00193307 -0.0136772,0.00905118 -0.0193937,0.0184921 -0.00502362,0.00829921 -0.0103898,0.00643307 -0.0120472,0.0125118z"/>
  <rect class="fil7" x="0.8964" y="3.90302" width="3.48203" height="0.543056" rx="0.271528" ry="0.271528"/>
  <path class="fil8" d="M1.00757 4.26961c-0.0310748,0.0227244 -0.0347362,0.0627008 -0.00817717,0.0892874 0.0265591,0.0265866 0.0732913,0.0297205 0.104366,0.007l2.3622e-005 -1.9685e-005 0.000114173 0.00011811c0.00163386,-0.00119291 0.00318898,-0.00242913 0.00467323,-0.0037126 0.0767165,-0.0554094 0.153075,-0.109614 0.212543,-0.107654 0.0286929,0.000944882 0.0655787,0.0157323 0.102425,0.0305039 0.0533071,0.0213661 0.106571,0.0427165 0.169323,0.042122 0.0606299,-0.00057874 0.112339,-0.0217638 0.164035,-0.0429449 0.0369882,-0.0151535 0.0739803,-0.030311 0.102102,-0.0303976 0.0281102,-9.05512e-005 0.0655551,0.0149803 0.103071,0.0300748 0.051878,0.020874 0.103858,0.0417913 0.164181,0.0423622 0.0606102,0.000574803 0.113039,-0.0194921 0.165457,-0.0395591 0.0375866,-0.0143898 0.0751811,-0.0287795 0.103571,-0.0283307 0.0281614,0.000444882 0.0653898,0.0157244 0.102823,0.0310866 0.0529921,0.0217402 0.106291,0.0436181 0.168748,0.0442008 0.0631142,0.000582677 0.118386,-0.0207835 0.173205,-0.0419764 0.0380079,-0.014689 0.0757205,-0.0292717 0.10422,-0.0297165 0.0290197,-0.000468504 0.065563,0.0140945 0.101972,0.0286024 0.0487953,0.019437 0.0974252,0.0388189 0.155189,0.0401142 0.0586575,0.0013189 0.110083,-0.0163543 0.161902,-0.0341693 0.0382677,-0.0131535 0.0768504,-0.0264134 0.106996,-0.0255669 0.0300984,0.000854331 0.0675197,0.0156181 0.104717,0.0302953 0.0527756,0.0208228 0.10524,0.0415276 0.166394,0.0413307 0.0635748,-0.000200787 0.117606,-0.0229488 0.170213,-0.0450984 0.0334724,-0.0140906 0.0661457,-0.0278504 0.0891457,-0.0289173 0.0511614,-0.00237402 0.133748,0.0725118 0.168925,0.102772 0.0935984,0.0500236 0.148854,-0.0583386 0.104638,-0.0893386 -0.0843189,-0.0725945 -0.168622,-0.145173 -0.281433,-0.139933 -0.0527835,0.00244882 -0.0991929,0.0219843 -0.146744,0.0420039 -0.0373386,0.0157244 -0.0756929,0.0318701 -0.105083,0.0319646 -0.0285,9.05512e-005 -0.0662756,-0.014815 -0.104268,-0.0298031 -0.0509173,-0.0200945 -0.102138,-0.0403071 -0.161134,-0.0419764 -0.0613346,-0.00172835 -0.11478,0.0166417 -0.167787,0.0348661 -0.0373583,0.0128425 -0.0744331,0.0255827 -0.102402,0.0249528 -0.0273622,-0.000610236 -0.0620984,-0.0144528 -0.0969409,-0.0283307 -0.0521142,-0.0207677 -0.104429,-0.0416102 -0.167,-0.0406063 -0.0584094,0.00092126 -0.110118,0.0209094 -0.162232,0.0410551 -0.039748,0.0153661 -0.0798228,0.0308543 -0.11078,0.0305709 -0.0302835,-0.000283465 -0.0685157,-0.0159724 -0.10652,-0.0315669 -0.0517835,-0.0212559 -0.103287,-0.0423858 -0.16398,-0.0433465 -0.0617047,-0.000972441 -0.114394,0.0191969 -0.167071,0.0393622 -0.037126,0.0142126 -0.0742598,0.0284291 -0.103028,0.0281535 -0.0288976,-0.000275591 -0.0660039,-0.0152047 -0.103031,-0.0301063 -0.0524528,-0.0211024 -0.104803,-0.0421693 -0.166268,-0.0419724 -0.0612638,0.000188976 -0.113492,0.0215906 -0.165724,0.0429882 -0.036811,0.0150827 -0.0736299,0.0301693 -0.101709,0.030437 -0.0286181,0.000271654 -0.0669764,-0.0151024 -0.105366,-0.0304921 -0.050185,-0.0201181 -0.100429,-0.0402598 -0.158846,-0.042185 -0.116028,-0.0038189 -0.215051,0.0662323 -0.313787,0.137547 -0.00188976,0.00113386 -0.00374016,0.00235039 -0.00553543,0.00365748l0.0480984 0.0483386 -0.0480906 -0.0481417 -0.000133858 9.44882e-005zm0.0961063 0.0962047l-0.0268071 -0.0268346 0.0266417 0.0269567 0.000165354 -0.000122047z"/>
  <path class="fil5" d="M1.03204 3.89184c-0.0196102,0.0694961 0.0144764,0.0772047 -0.0769094,0.114713 -0.00237008,0.00168504 -0.175988,0.0480866 -0.0644449,0.0956614 0.000204724,8.66142e-005 0.140504,-0.0359173 0.159055,-0.0411614 0.0920827,-0.0260551 -0.0136378,-0.0421102 0.143732,-0.045563 0.0638898,-0.00139764 0.053122,-0.058811 0.125441,-0.0330945 0.0722913,0.0257047 0.0470315,0.0135906 0.123299,0.0470906 0.0110039,0.00483465 0.0411181,0.000759843 0.104654,0.0276811 0.0580748,0.0246102 0.144272,0.00343701 0.154539,-0.0348307 0.0233583,0 0.199921,0.147272 0.355768,-0.0095l0.00629528 -0.00633465c0.109126,-0.109776 0.143783,0.00511024 0.351965,0.00511024 0.163508,0 0.0324803,0.0735551 0.221063,-0.0136929 0.0504488,-0.0233386 0.129307,0.12602 0.204787,0.0696693 0.0536496,-0.0400551 0.134909,-0.0662402 0.198138,-0.0387165 0.053815,0.0234291 0.114933,-0.0359646 0.153358,-0.0722205 0.117102,-0.00224409 0.206839,0.0777559 0.313358,0.00102362 0.0405787,-0.0292323 0.13378,0.113307 0.268815,0.0724213 0.0456614,-0.0138228 0.0700315,0.0893976 0.184354,0.0851969 0.113657,-0.0041811 0.0626063,-0.0341732 0.186378,-0.0357559 0.104307,-0.00133071 0.0931299,-0.126819 0.0516732,-0.179374 -0.00147244,-0.00186614 -0.0139803,-0.0275197 -0.0146102,-0.0309488 -0.0861299,-0.0427283 -0.721134,-0.0190236 -0.885555,-0.0390197 -0.312563,-0.0380039 -0.544031,0.0419843 -0.864059,0.0419843 -0.296594,0 -0.691764,0.0102717 -0.97524,-0.00449606 -0.0437087,-0.00227559 -0.363559,-0.0428307 -0.389858,-0.0143031 -0.00294094,0.00318898 -0.0024685,0.00339764 -0.00344488,0.00746063 -0.0108701,0.00193307 -0.0141575,0.00904724 -0.0200748,0.0184882 -0.00520472,0.00829921 -0.0107598,0.00643307 -0.0124764,0.0125118z"/>
  <path class="fil6" d="M4.19144 3.90257c0.0189449,0.0695 -0.0139803,0.0772047 0.0742874,0.114713 0.00228346,0.00168504 0.169976,0.0480866 0.0622402,0.0956654 -0.000192913,8.66142e-005 -0.135705,-0.0359173 -0.153626,-0.0411654 -0.0889331,-0.0260512 0.0131772,-0.0421063 -0.138823,-0.0455591 -0.0617087,-0.00140157 -0.0513071,-0.058811 -0.121157,-0.0330984 -0.0698228,0.0257047 -0.0454291,0.0135906 -0.119091,0.0470906 -0.0106299,0.00483465 -0.0397126,0.00076378 -0.101079,0.027685 -0.0560945,0.0246063 -0.13935,0.00343307 -0.149268,-0.0348346 -0.0225551,0 -0.193094,0.147276 -0.343618,-0.0095l-0.00608268 -0.00633071c-0.105402,-0.10978 -0.138874,0.0051063 -0.339949,0.0051063 -0.157925,0 -0.0313701,0.0735551 -0.213516,-0.013689 -0.0487244,-0.0233386 -0.124894,0.12602 -0.197795,0.0696654 -0.0518189,-0.0400512 -0.130303,-0.0662402 -0.191374,-0.0387126 -0.0519764,0.0234252 -0.111008,-0.0359685 -0.148122,-0.0722205 -0.113106,-0.00224803 -0.19978,0.0777559 -0.302657,0.00102362 -0.0391969,-0.0292362 -0.129217,0.113303 -0.259638,0.0724213 -0.0441024,-0.0138268 -0.0676417,0.0893976 -0.178063,0.0851929 -0.109776,-0.0041811 -0.0604685,-0.0341732 -0.180016,-0.035752 -0.100744,-0.00133465 -0.0899488,-0.126823 -0.0499094,-0.179374 0.00142126,-0.00186614 0.0135039,-0.0275236 0.0141142,-0.0309528 0.083185,-0.0427283 0.696512,-0.0190236 0.855323,-0.0390157 0.30189,-0.0380079 0.525457,0.0419803 0.834559,0.0419803 0.286469,0 0.668146,0.0102717 0.941949,-0.00449606 0.0422126,-0.00227559 0.351146,-0.0428307 0.376547,-0.0142992 0.00283858,0.00318898 0.00238189,0.00339764 0.00332283,0.00745669 0.0105,0.00193307 0.0136772,0.00905118 0.0193937,0.0184882 0.00502362,0.00829921 0.0103898,0.00643701 0.0120472,0.0125118z"/>
  <path class="fil4" d="M3.90433 3.32876l-2.53685 0.0105197c-0.097189,0.000401575 -0.18539,0.0449409 -0.249209,0.116378 -0.0637598,0.071374 -0.103157,0.169819 -0.102799,0.278079l0 1.5748e-005c0.000220472,0.0641614 0.0240394,0.122398 0.0622402,0.164528 0.0381417,0.0420669 0.0908189,0.068063 0.148811,0.0678268l1.9685e-005 0 2.82366 -0.0117008c0.0577559,-0.000244094 0.110173,-0.0267047 0.148094,-0.0691575 0.0378701,-0.0423898 0.0612638,-0.100925 0.0610472,-0.165366 -0.000366142,-0.107992 -0.0404528,-0.206 -0.104748,-0.276902 -0.0642362,-0.0708465 -0.152831,-0.114622 -0.250268,-0.11422zm-2.67781 0.637346l7.87402e-006 0m-0.211059 -0.23237l0 3.93701e-006"/>
  <ellipse class="fil9" cx="1.2362" cy="3.52105" rx="0.0278975" ry="0.059079"/>
  <ellipse class="fil9" transform="matrix(1.01675 0.313419 -0.313419 1.01675 1.39059 3.48809)" rx="0.0262205" ry="0.0555276"/>
  <ellipse class="fil9" transform="matrix(0.879305 0.599024 -0.599023 0.879306 1.52857 3.58643)" rx="0.0262205" ry="0.0555276"/>
  <ellipse class="fil9" transform="matrix(0.663829 0.831468 -0.831467 0.663829 1.69281 3.47143)" rx="0.0262205" ry="0.0555276"/>
  <ellipse class="fil9" transform="matrix(0.389441 0.990123 -0.990122 0.389441 1.87017 3.56648)" rx="0.0262205" ry="0.0555276"/>
  <ellipse class="fil9" transform="matrix(0.0804915 1.06091 -1.06091 0.0804915 2.00815 3.48758)" rx="0.0262205" ry="0.0555276"/>
  <ellipse class="fil9" transform="matrix(-0.235601 1.03755 -1.03754 -0.235601 2.19208 3.57279)" rx="0.0262205" ry="0.0555276"/>
  <ellipse class="fil9" transform="matrix(-0.530785 0.922104 -0.922103 -0.530785 2.26442 3.46107)" rx="0.0262205" ry="0.0555276"/>
  <ellipse class="fil9" transform="matrix(-0.778864 0.72483 -0.724829 -0.778864 2.46148 3.52986)" rx="0.0262205" ry="0.0555276"/>
  <ellipse class="fil9" transform="matrix(-0.957823 0.46323 -0.46323 -0.957823 2.57649 3.47065)" rx="0.0262205" ry="0.0555276"/>
  <ellipse class="fil9" transform="matrix(-1.05178 0.160522 -0.160522 -1.05178 2.80638 3.56899)" rx="0.0262205" ry="0.0555276"/>
  <ellipse class="fil9" transform="matrix(-1.0524 -0.156433 0.156433 -1.0524 2.89841 3.46712)" rx="0.0262205" ry="0.0555276"/>
  <ellipse class="fil9" transform="matrix(-0.959616 -0.459504 0.459504 -0.959616 3.01999 3.58515)" rx="0.0262205" ry="0.0555276"/>
  <ellipse class="fil9" transform="matrix(-0.781675 -0.721797 0.721797 -0.781676 3.16126 3.47342)" rx="0.0262205" ry="0.0555276"/>
  <ellipse class="fil9" transform="matrix(-0.534365 -0.920034 0.920033 -0.534365 3.23031 3.57176)" rx="0.0262205" ry="0.0555276"/>
  <ellipse class="fil9" transform="matrix(-0.239632 -1.03662 1.03662 -0.239632 3.29937 3.4666)" rx="0.0262205" ry="0.0555276"/>
  <ellipse class="fil9" transform="matrix(0.0763675 -1.06121 1.06121 0.0763676 3.42422 3.55509)" rx="0.0262205" ry="0.0555276"/>
  <ellipse class="fil9" transform="matrix(0.385589 -0.991629 0.991629 0.38559 3.53266 3.47947)" rx="0.0262205" ry="0.0555276"/>
  <ellipse class="fil9" transform="matrix(0.660592 -0.834042 0.834041 0.660592 3.71987 3.56468)" rx="0.0262205" ry="0.0555276"/>
  <ellipse class="fil9" transform="matrix(0.87697 -0.602437 0.602436 0.876971 3.76595 3.45952)" rx="0.0262205" ry="0.0555276"/>
  <ellipse class="fil9" transform="matrix(1.01552 -0.317368 0.317368 1.01552 3.90721 3.52831)" rx="0.0262205" ry="0.0555276"/>
  <ellipse class="fil9" transform="matrix(1.06395 -0.00413519 0.00413519 1.06395 4.03863 3.45926)" rx="0.0262205" ry="0.0555276"/>
  <rect class="fil10" width="6.82666" height="6.82666"/>
 </g>
</svg>
