<?xml version="1.0" encoding="UTF-8"?>
<!DOCTYPE svg PUBLIC "-//W3C//DTD SVG 1.1//EN" "http://www.w3.org/Graphics/SVG/1.1/DTD/svg11.dtd">
<!-- Creator: CorelDRAW -->
<svg xmlns="http://www.w3.org/2000/svg" xml:space="preserve" width="6.82666in" height="6.82666in" style="shape-rendering:geometricPrecision; text-rendering:geometricPrecision; image-rendering:optimizeQuality; fill-rule:evenodd; clip-rule:evenodd"
viewBox="0 0 6.82666 6.82666"
 xmlns:xlink="http://www.w3.org/1999/xlink">
 <defs>
  <style type="text/css">
   <![CDATA[
    .fil8 {fill:none}
    .fil7 {fill:#9E8068}
    .fil6 {fill:#AC8C71}
    .fil5 {fill:#B5987D}
    .fil1 {fill:#BB9E8B}
    .fil2 {fill:#C2A690}
    .fil0 {fill:#D0AF9A}
    .fil3 {fill:#DEC1AB}
    .fil4 {fill:#C2A690;fill-rule:nonzero}
   ]]>
  </style>
 </defs>
 <g id="Layer_x0020_1">
  <metadata id="CorelCorpID_0Corel-Layer"/>
  <g id="_437048416">
   <path id="_437059576" class="fil0" d="M5.42294 5.57612l0 -0.00738583 0.408976 -2.36855 -4.75441 0 0.402992 2.32944c0.0111063,0.0642165 0.0482323,0.129402 0.0947756,0.168831 0.0523622,0.0443583 0.114142,0.0615394 0.179276,0.0615394l3.43453 0c0.0535984,0 0.106039,-0.0149331 0.15028,-0.0493898 0.0316457,-0.0246417 0.0742283,-0.0663425 0.0803976,-0.111311l0.0031811 -0.0231772z"/>
   <polygon id="_437059000" class="fil1" points="5.79507,3.41352 5.83191,3.20018 1.07751,3.20018 1.11441,3.41352 "/>
   <polygon id="_437059336" class="fil2" points="5.68457,4.05352 5.7214,3.84019 1.18822,3.84019 1.22513,4.05352 "/>
   <polygon id="_437059216" class="fil0" points="5.64773,4.26685 5.68457,4.05352 1.22513,4.05352 1.26204,4.26685 "/>
   <polygon id="_437059072" class="fil2" points="5.6109,4.48019 5.64773,4.26685 1.26204,4.26685 1.29895,4.48019 "/>
   <polygon id="_437058352" class="fil0" points="5.57406,4.69352 5.6109,4.48019 1.29895,4.48019 1.33585,4.69352 "/>
   <polygon id="_437058328" class="fil2" points="5.53722,4.90686 5.57406,4.69352 1.33585,4.69352 1.37276,4.90686 "/>
   <polygon id="_437058280" class="fil0" points="5.50039,5.12019 5.53722,4.90686 1.37276,4.90686 1.40967,5.12019 "/>
   <polygon id="_437058784" class="fil2" points="5.46355,5.33353 5.50039,5.12019 1.40967,5.12019 1.44657,5.33353 "/>
   <polygon id="_437058544" class="fil3" points="5.46378,5.3322 5.50016,5.12152 5.32689,5.12152 5.32689,5.3322 "/>
   <polygon id="_437058736" class="fil3" points="1.4099,5.12152 1.44635,5.3322 1.6111,5.3322 1.6111,5.12152 "/>
   <path id="_437057824" class="fil0" d="M5.42671 5.54686l0.0368386 -0.213335 -4.01698 0 0.0339252 0.196094c0.000992126,0.00574409 0.00219685,0.0115 0.00359449,0.0172402l3.94262 0z"/>
   <path id="_437058040" class="fil2" d="M5.42294 5.57612l0 -0.00738583 0.00377559 -0.0218701 -3.94262 0c0.0142323,0.058437 0.0487992,0.115693 0.0911811,0.151594 0.0523622,0.0443622 0.114142,0.0615394 0.179276,0.0615394l3.43453 0c0.0535984,0 0.106039,-0.0149331 0.15028,-0.0493898 0.0316457,-0.0246378 0.0742283,-0.0663425 0.0803976,-0.111311l0.0031811 -0.0231772z"/>
   <path id="_437057920" class="fil3" d="M5.42294 5.57612l0 -0.00738583 0.00356299 -0.0206417 -0.0996142 0 0 0.171571c0.00422441,-0.00285433 0.00838189,-0.00587008 0.0124724,-0.00905512 0.0316457,-0.0246378 0.0742283,-0.0663425 0.0803976,-0.111311l0.0031811 -0.0231772z"/>
   <path id="_437057632" class="fil4" d="M3.45528 1.06667c0.402669,0 0.767232,0.16052 1.03113,0.420043 0.263894,0.259524 0.427118,0.618051 0.427118,1.01406l0 0.110315 -0.112173 0 -2.69214 0 -0.112173 0 0 -0.110315c0,-0.396004 0.163224,-0.754531 0.427118,-1.01406 0.26389,-0.259524 0.628453,-0.420043 1.03112,-0.420043zm0.872508 0.576039c-0.223283,-0.219587 -0.531764,-0.355406 -0.872508,-0.355406 -0.340744,0 -0.64922,0.135819 -0.872504,0.355406 -0.198504,0.195217 -0.329677,0.456657 -0.35635,0.74774l2.45771 0c-0.0266693,-0.291083 -0.157843,-0.552524 -0.356346,-0.74774z"/>
   <g>
    <path id="_437058064" class="fil5" d="M5.89225 3.20323c0.0723307,-0.245114 0.17535,-0.840693 -0.0945512,-0.819591l-4.70466 0c-0.355752,0 -0.254921,0.700421 -0.0852913,0.819591l4.8845 0z"/>
    <path id="_437056912" class="fil5" d="M5.94448 2.48703c-0.0261496,-0.0679213 -0.0722126,-0.10922 -0.146783,-0.10339l-4.70466 0c-0.0853858,0 -0.144406,0.0404134 -0.182551,0.10339l5.03399 0z"/>
    <path id="_437057248" class="fil6" d="M5.94448 2.48703c-0.0261496,-0.0679213 -0.0722126,-0.10922 -0.146783,-0.10339l-4.70466 0c-0.0853858,0 -0.144406,0.0404134 -0.182551,0.10339l5.03399 0z"/>
    <path id="_437057080" class="fil7" d="M5.96802 2.58946c-0.00460236,-0.038748 -0.0123976,-0.0739724 -0.0241378,-0.103937l-5.03249 0c-0.0184685,0.0300551 -0.0320945,0.0653543 -0.0414882,0.103937l5.09812 0z"/>
    <path id="_437057032" class="fil6" d="M5.97331 2.69189c0.00015748,-0.0364409 -0.00152362,-0.0714213 -0.00546063,-0.103937l-5.09757 0c-0.00806299,0.0326693 -0.0130906,0.0676969 -0.0154016,0.103937l5.11843 0z"/>
    <path id="_437056864" class="fil7" d="M5.96865 2.79431c0.0028937,-0.0353268 0.00455906,-0.070248 0.00465748,-0.103937l-5.11832 0c-0.00222835,0.0339252 -0.00209055,0.0688858 0.000122047,0.103937l5.11354 0z"/>
    <path id="_437056840" class="fil6" d="M5.95721 2.89674c0.00480315,-0.0345197 0.00875984,-0.0694173 0.0115551,-0.103937l-5.11375 0c0.00214567,0.0348898 0.00634252,0.0698465 0.0123071,0.103937l5.08989 0z"/>
    <path id="_437056240" class="fil7" d="M5.94045 2.99917c0.00630709,-0.033689 0.0120827,-0.0686102 0.0169685,-0.103937l-5.09037 0c0.00624409,0.0360039 0.0144685,0.0710157 0.024311,0.103937l5.04909 0z"/>
    <path id="_437056504" class="fil6" d="M5.91889 3.1016c0.00761811,-0.0325157 0.0150433,-0.0675 0.0218465,-0.103937l-5.04983 0c0.0112874,0.0380236 0.0247441,0.0732244 0.0398386,0.103937l4.98814 0z"/>
    <path id="_437055928" class="fil7" d="M5.89225 3.20323c0.0087874,-0.0297756 0.0180236,-0.064752 0.0269921,-0.103134l-4.98925 0c0.0227638,0.0466969 0.0492835,0.0831299 0.0777559,0.103134l4.8845 0z"/>
   </g>
   <rect id="_437056528" class="fil3" x="1.39601" y="3.84151" width="0.215089" height="0.210681"/>
   <rect id="_437056216" class="fil3" x="1.39601" y="4.26818" width="0.215089" height="0.210681"/>
   <rect id="_437055136" class="fil3" x="1.39601" y="4.69485" width="0.215089" height="0.210681"/>
   <rect id="_437055448" class="fil3" x="1.84369" y="3.84151" width="0.215089" height="0.210681"/>
   <rect id="_437055256" class="fil3" x="1.84369" y="3.84151" width="0.215089" height="0.210681"/>
   <rect id="_437055376" class="fil3" x="1.84369" y="4.26818" width="0.215089" height="0.210681"/>
   <rect id="_437055112" class="fil3" x="1.84369" y="4.26818" width="0.215089" height="0.210681"/>
   <rect id="_437055784" class="fil3" x="1.84369" y="4.69485" width="0.215089" height="0.210681"/>
   <rect id="_437054776" class="fil3" x="1.84369" y="4.69485" width="0.215089" height="0.210681"/>
   <rect id="_437054728" class="fil3" x="1.84369" y="5.12152" width="0.215089" height="0.210681"/>
   <rect id="_437055088" class="fil3" x="1.84369" y="5.12152" width="0.215089" height="0.210681"/>
   <rect id="_437054752" class="fil3" x="1.84369" y="5.54809" width="0.215089" height="0.210681"/>
   <rect id="_437054536" class="fil3" x="1.84369" y="5.54809" width="0.215089" height="0.210681"/>
   <g>
    <polygon id="_437055016" class="fil2" points="5.75824,3.62685 5.79507,3.41352 1.11441,3.41352 1.15132,3.62685 "/>
    <polygon id="_437054320" class="fil0" points="5.7214,3.84019 5.75824,3.62685 1.15132,3.62685 1.18822,3.84019 "/>
    <rect id="_437054104" class="fil3" x="1.39601" y="3.41484" width="0.215089" height="0.210681"/>
    <rect id="_437053840" class="fil3" x="1.84369" y="3.41484" width="0.215089" height="0.210681"/>
    <rect id="_437053816" class="fil3" x="1.84369" y="3.41484" width="0.215089" height="0.210681"/>
    <rect id="_437053984" class="fil3" x="2.28991" y="3.41484" width="0.215089" height="0.210681"/>
    <rect id="_437053936" class="fil3" x="2.72377" y="3.41484" width="0.215089" height="0.210681"/>
    <rect id="_437053696" class="fil3" x="3.15762" y="3.41484" width="0.215089" height="0.210681"/>
    <rect id="_437053240" class="fil3" x="3.59147" y="3.41484" width="0.215089" height="0.210681"/>
    <rect id="_437052880" class="fil3" x="4.02533" y="3.41484" width="0.215089" height="0.210681"/>
    <rect id="_437052928" class="fil3" x="4.45918" y="3.41484" width="0.215089" height="0.210681"/>
    <rect id="_437053552" class="fil3" x="4.89303" y="3.41484" width="0.215089" height="0.210681"/>
    <rect id="_437053504" class="fil3" x="5.32689" y="3.41484" width="0.215089" height="0.210681"/>
   </g>
   <rect id="_437053480" class="fil3" x="2.28991" y="3.84151" width="0.215089" height="0.210681"/>
   <rect id="_437052784" class="fil3" x="2.72377" y="3.84151" width="0.215089" height="0.210681"/>
   <rect id="_437052640" class="fil3" x="3.15762" y="3.84151" width="0.215089" height="0.210681"/>
   <rect id="_437052520" class="fil3" x="3.59147" y="3.84151" width="0.215089" height="0.210681"/>
   <rect id="_437052280" class="fil3" x="4.02533" y="3.84151" width="0.215089" height="0.210681"/>
   <rect id="_437052664" class="fil3" x="4.45918" y="3.84151" width="0.215089" height="0.210681"/>
   <rect id="_437052712" class="fil3" x="4.89303" y="3.84151" width="0.215089" height="0.210681"/>
   <rect id="_437051416" class="fil3" x="5.32689" y="3.84151" width="0.215089" height="0.210681"/>
   <rect id="_437051776" class="fil3" x="2.28991" y="4.26818" width="0.215089" height="0.210681"/>
   <rect id="_437051272" class="fil3" x="2.72377" y="4.26818" width="0.215089" height="0.210681"/>
   <rect id="_437052016" class="fil3" x="3.15762" y="4.26818" width="0.215089" height="0.210681"/>
   <rect id="_437051584" class="fil3" x="3.59147" y="4.26818" width="0.215089" height="0.210681"/>
   <rect id="_437051800" class="fil3" x="4.02533" y="4.26818" width="0.215089" height="0.210681"/>
   <rect id="_437051056" class="fil3" x="4.45918" y="4.26818" width="0.215089" height="0.210681"/>
   <rect id="_437050768" class="fil3" x="4.89303" y="4.26818" width="0.215089" height="0.210681"/>
   <rect id="_437050528" class="fil3" x="5.32689" y="4.26818" width="0.215089" height="0.210681"/>
   <rect id="_437050504" class="fil3" x="2.28991" y="4.69485" width="0.215089" height="0.210681"/>
   <rect id="_437050648" class="fil3" x="2.72377" y="4.69485" width="0.215089" height="0.210681"/>
   <rect id="_437050600" class="fil3" x="3.15762" y="4.69485" width="0.215089" height="0.210681"/>
   <rect id="_437051248" class="fil3" x="3.59147" y="4.69485" width="0.215089" height="0.210681"/>
   <rect id="_437049832" class="fil3" x="4.02533" y="4.69485" width="0.215089" height="0.210681"/>
   <rect id="_437050120" class="fil3" x="4.45918" y="4.69485" width="0.215089" height="0.210681"/>
   <rect id="_437049976" class="fil3" x="4.89303" y="4.69485" width="0.215089" height="0.210681"/>
   <rect id="_437049856" class="fil3" x="5.32689" y="4.69485" width="0.215089" height="0.210681"/>
   <rect id="_437050192" class="fil3" x="2.28991" y="5.12152" width="0.215089" height="0.210681"/>
   <rect id="_437050408" class="fil3" x="2.72377" y="5.12152" width="0.215089" height="0.210681"/>
   <rect id="_437049544" class="fil3" x="3.15762" y="5.12152" width="0.215089" height="0.210681"/>
   <rect id="_437049040" class="fil3" x="3.59147" y="5.12152" width="0.215089" height="0.210681"/>
   <rect id="_437049016" class="fil3" x="4.02533" y="5.12152" width="0.215089" height="0.210681"/>
   <rect id="_437049208" class="fil3" x="4.45918" y="5.12152" width="0.215089" height="0.210681"/>
   <rect id="_437049064" class="fil3" x="4.89303" y="5.12152" width="0.215089" height="0.210681"/>
   <rect id="_437049664" class="fil3" x="2.28991" y="5.54809" width="0.215089" height="0.210681"/>
   <rect id="_437048656" class="fil3" x="2.72377" y="5.54809" width="0.215089" height="0.210681"/>
   <rect id="_437048512" class="fil3" x="3.15762" y="5.54809" width="0.215089" height="0.210681"/>
   <rect id="_437048872" class="fil3" x="3.59147" y="5.54809" width="0.215089" height="0.210681"/>
   <rect id="_437048944" class="fil3" x="4.02533" y="5.54809" width="0.215089" height="0.210681"/>
   <rect id="_437048464" class="fil3" x="4.45918" y="5.54809" width="0.215089" height="0.210681"/>
   <rect id="_437048704" class="fil3" x="4.89303" y="5.54809" width="0.215089" height="0.210681"/>
  </g>
  <rect class="fil8" width="6.82666" height="6.82666"/>
 </g>
</svg>
