<?xml version="1.0" encoding="UTF-8"?>
<!DOCTYPE svg PUBLIC "-//W3C//DTD SVG 1.1//EN" "http://www.w3.org/Graphics/SVG/1.1/DTD/svg11.dtd">
<!-- Creator: CorelDRAW -->
<svg xmlns="http://www.w3.org/2000/svg" xml:space="preserve" width="6.82666in" height="6.82666in" style="shape-rendering:geometricPrecision; text-rendering:geometricPrecision; image-rendering:optimizeQuality; fill-rule:evenodd; clip-rule:evenodd"
viewBox="0 0 6.82666 6.82666"
 xmlns:xlink="http://www.w3.org/1999/xlink">
 <defs>
  <style type="text/css">
   <![CDATA[
    .fil7 {fill:none}
    .fil0 {fill:#245005}
    .fil5 {fill:#316E07}
    .fil4 {fill:#467D20}
    .fil6 {fill:#689F38}
    .fil3 {fill:#212121;fill-rule:nonzero}
    .fil1 {fill:#2C6306;fill-rule:nonzero}
    .fil2 {fill:#316E07;fill-rule:nonzero}
   ]]>
  </style>
 </defs>
 <g id="Layer_x0020_1">
  <metadata id="CorelCorpID_0Corel-Layer"/>
  <g id="_438952536">
   <path id="_438954480" class="fil0" d="M3.80469 1.75455c0,0.12763 -0.221705,0.00617717 -0.470823,0.00617717 -0.249114,0 -0.431311,0.121453 -0.431311,-0.00617717 0,-0.199862 0.0719488,-0.170717 0.223291,-0.233799 0.206638,-0.086122 0.00982677,-0.490315 -0.0334055,-0.615622l0.242362 -0.143744c0.0548031,0.158843 0.21122,0.421665 0.222972,0.715535 0.00904331,0.226295 0.246913,0.0804528 0.246913,0.27763z"/>
   <path id="_438954600" class="fil1" d="M5.48778 1.7741c0.114791,0.138354 0.190244,0.311213 0.226154,0.517126 0.0346693,0.198803 0.032189,0.428571 -0.00762205,0.687921 -0.0520591,0.338252 -0.121236,0.683752 -0.190354,0.994157 -0.128079,0.575209 -0.255539,1.02379 -0.271413,1.07911l0.000153543 3.54331e-005c-0.0033937,0.0138071 -0.0187008,0.0733031 -0.0493031,0.154157 -0.0304646,0.0804921 -0.0765709,0.183669 -0.142398,0.28774 -0.0972677,0.153709 -0.214028,0.271941 -0.346571,0.352457 -0.135291,0.082185 -0.285157,0.124425 -0.445811,0.124425 -0.00756693,0 -0.0151024,-0.000511811 -0.0226693,-0.000661417 -0.0875354,0 -0.189646,-0.00977953 -0.276094,-0.0246496l-0.312618 -0.034189c-0.0150945,0.00412205 -0.0303819,0.00783071 -0.0458543,0.0111299 -0.0623386,0.0132992 -0.127102,0.0200079 -0.194228,0.0200079 -0.0672008,0 -0.130319,-0.00659449 -0.189665,-0.019185l-0.0319213 -0.00745276c-0.103173,0.00809449 -0.179874,0.0137835 -0.280843,0.0344331 -0.075315,0.0154134 -0.153795,0.0226732 -0.239724,0.0226732 -0.00715354,0 -0.0224094,-0.000330709 -0.0469055,-0.0010315 -0.0180433,-0.000511811 -0.0337362,-0.0011378 -0.0467126,-0.00187795 -0.16065,-0.00889764 -0.310327,-0.0560827 -0.445291,-0.139209 -0.133004,-0.0819173 -0.250535,-0.198193 -0.348913,-0.34652 -0.0477795,-0.0720827 -0.0857992,-0.144181 -0.115248,-0.208307 -0.0533189,-0.116094 -0.0779843,-0.205622 -0.0822677,-0.222181l-7.87402e-006 0c-0.00412205,-0.0153583 -0.076374,-0.28537 -0.167949,-0.670685 -0.0922402,-0.38811 -0.205433,-0.898016 -0.29328,-1.40028 -0.0393583,-0.225028 -0.0421929,-0.433701 -0.00941732,-0.620827 0.0334764,-0.191114 0.104386,-0.360134 0.211783,-0.501756 0.087126,-0.114807 0.196441,-0.207843 0.321886,-0.275823 0.161902,-0.0877323 0.349795,-0.131673 0.533791,-0.131673 0.166547,0 0.309575,0.0362362 0.425213,0.0834291 0.867563,0.353996 0.94202,0.194933 1.73189,-0.055878 0.110776,-0.0351772 0.240173,-0.0577362 0.38626,-0.053 0.295591,0.00981496 0.573894,0.114748 0.765949,0.346386z"/>
   <path id="_438954624" class="fil2" d="M4.51926 1.7741c0.0611969,0.138354 0.101421,0.311213 0.120567,0.517126 0.0184803,0.198803 0.0171575,0.428571 -0.00406693,0.687921 -0.027752,0.338252 -0.0646299,0.683752 -0.10148,0.994157 -0.0682795,0.575209 -0.136232,1.02379 -0.144697,1.07911l8.26772e-005 3.54331e-005c-0.00180709,0.0138071 -0.0099685,0.0733031 -0.0262835,0.154157 -0.0162402,0.0804921 -0.0408228,0.183669 -0.0759134,0.28774 -0.0518583,0.153709 -0.114102,0.271941 -0.184764,0.352457 -0.072126,0.082185 -0.152024,0.124425 -0.237669,0.124425 -0.00403543,0 -0.00805512,-0.000511811 -0.0120866,-0.000661417 -0.0466693,0 -0.101102,-0.00977953 -0.147193,-0.0246496l-0.166661 -0.034189c-0.00804724,0.00412205 -0.0161969,0.00783071 -0.0244449,0.0111299 -0.0332362,0.0132992 -0.0677598,0.0200079 -0.103547,0.0200079 -0.0358268,0 -0.0694764,-0.00659449 -0.101114,-0.019185l-0.0170197 -0.00745276c-0.0550039,0.00809449 -0.0958937,0.0137835 -0.14972,0.0344331 -0.0401535,0.0154134 -0.0819921,0.0226732 -0.127803,0.0226732 -0.00381102,0 -0.0119449,-0.000330709 -0.0250039,-0.0010315 -0.00962205,-0.000511811 -0.0179882,-0.0011378 -0.0249055,-0.00187795 -0.0856457,-0.00889764 -0.165441,-0.0560827 -0.237394,-0.139209 -0.0709055,-0.0819173 -0.133563,-0.198193 -0.186012,-0.34652 -0.0254724,-0.0720827 -0.0457402,-0.144181 -0.0614409,-0.208307 -0.0284252,-0.116094 -0.0415748,-0.205622 -0.0438583,-0.222181l-3.93701e-006 0c-0.00219685,-0.0153583 -0.0407165,-0.28537 -0.0895354,-0.670685 -0.0491772,-0.38811 -0.10952,-0.898016 -0.156354,-1.40028 -0.0209803,-0.225028 -0.0224921,-0.433701 -0.00501969,-0.620827 0.0178465,-0.191114 0.0556496,-0.360134 0.112906,-0.501756 0.0464488,-0.114807 0.104728,-0.207843 0.171602,-0.275823 0.086315,-0.0877323 0.186484,-0.131673 0.284575,-0.131673 0.0887913,0 0.165039,0.0362362 0.226689,0.0834291 0.462516,0.353996 0.502209,0.194933 0.923307,-0.055878 0.0590551,-0.0351772 0.128039,-0.0577362 0.205921,-0.053 0.157583,0.00981496 0.305953,0.114748 0.408343,0.346386z"/>
   <polygon id="_438954120" class="fil3" points="3.80536,5.69269 3.80579,5.69307 3.80589,5.6929 "/>
   <path id="_438953712" class="fil3" d="M3.0343 5.69483l0.00123228 -0.000574803 0.000799213 -0.000397638c0.00169291,-0.000775591 -0.00170866,0.000751969 -0.00209449,0.000877953l6.29921e-005 9.44882e-005z"/>
   <path id="_438953688" class="fil3" d="M3.03378 5.69507l0.000523622 -0.000240157 -6.29921e-005 -9.44882e-005c-3.54331e-005,7.87402e-006 -4.33071e-005,7.87402e-006 -7.87402e-006,-1.5748e-005 0.00046063,-0.000287402 -0.000354331,0.000208661 -0.000503937,0.000283465l5.11811e-005 6.69291e-005z"/>
   <path id="_438953856" class="fil4" d="M2.18592 2.36241c-0.0174724,0.187126 -0.0159606,0.395799 0.00501969,0.620827 0.0468346,0.502264 0.107177,1.01217 0.156354,1.40028 0.0488189,0.385315 0.0873386,0.655327 0.0895394,0.670685 0.00228346,0.0165591 0.0154331,0.106087 0.0438583,0.222181 0.0157008,0.064126 0.0359685,0.136224 0.0614409,0.208307 0.0524488,0.148327 0.115106,0.264602 0.186012,0.34652 0.0512795,0.0592441 0.106547,0.100232 0.165075,0.122114 0.0235906,0.00882283 0.0477126,0.0145394 0.0723189,0.0170945 0.00691732,0.000740157 0.0152835,0.00136614 0.0249055,0.00187795 0.0130591,0.000700787 0.0211929,0.0010315 0.0250039,0.0010315 0.045811,0 0.0876496,-0.00725984 0.127803,-0.0226732 0.0319646,-0.0122638 0.0593701,-0.019252 0.087878,-0.0245984 0.0194921,-0.00365748 0.0395039,-0.00654724 0.0618425,-0.00983465l0.0170197 0.00745276c0.031063,0.0123622 0.0640669,0.0189449 0.0991654,0.019185 0.000649606,-3.93701e-006 0.00129921,0 0.00194882,0 0.000740157,-3.93701e-006 0.00148425,-3.93701e-006 0.00222441,-7.87402e-006 0.0232244,-0.000181102 0.0459134,-0.00319291 0.068063,-0.00900787 -0.203689,-0.998933 -0.257898,-3.10892 -0.0877402,-4.17093 0.00110236,-0.00690157 0.00222047,-0.0137559 0.00334252,-0.0205709 -0.00150787,0 -0.00301969,-1.5748e-005 -0.0045315,-3.93701e-005 -0.0969961,-0.00170079 -0.207933,-0.0542205 -0.379185,-0.181846 -0.0103071,-0.0076811 -0.0208307,-0.0156339 -0.0315866,-0.0238661 -0.0616496,-0.0471929 -0.137898,-0.0834291 -0.226689,-0.0834291 -0.0683307,0 -0.137669,0.0213228 -0.20263,0.0639173 -0.0282953,0.0185512 -0.0557559,0.0411378 -0.0819449,0.0677559 -0.066874,0.0679803 -0.125154,0.161016 -0.171602,0.275823 -0.0572559,0.141622 -0.0950591,0.310642 -0.112906,0.501756zm0.848319 3.33232c0.000385827,-0.000125984 0.0037874,-0.00165354 0.00209449,-0.000877953l-0.000799213 0.000397638 -0.00123228 0.000574803 -0.000523622 0.000240157 -5.11811e-005 -6.69291e-005 0.000511811 -0.000267717z"/>
   <path id="_438953616" class="fil5" d="M2.12529 1.51708l-0.0370866 0.0365157 -0.0373622 0.0386142c-0.104551,0.14613 -0.0470551,0.036189 -0.159437,0.276402l0 -3.93701e-006c-0.212917,0.651138 -0.055563,1.35726 0.0153268,2.02843 0.0497441,0.471 0.095811,1.13384 0.227417,1.58091l3.93701e-006 3.93701e-006c0.0566339,0.157409 0.0818583,0.211323 0.166909,0.353268 -0.157815,-0.166268 -0.20989,-0.335157 -0.271945,-0.548831l0 0c-0.0434016,-0.185469 -0.0286732,-0.114984 -0.0486024,-0.224146l2.3622e-005 0.000161417c-0.0354252,-0.223205 -0.0679724,-0.446142 -0.0996732,-0.669894l0 0c-0.0659961,-0.477287 -0.116957,-0.920728 -0.157213,-1.40152l0 0c-0.0144528,-0.24139 -0.015815,-0.386476 0.00393307,-0.627492l0 0c0.040374,-0.287756 0.115209,-0.689165 0.397705,-0.842417z"/>
   <path id="_438953760" class="fil5" d="M4.8573 1.55925l0.0370866 0.0358031 0.0373622 0.0378583c0.104551,0.143272 0.0470551,0.0354803 0.159437,0.270996l0 -3.93701e-006c0.212917,0.638409 0.055563,1.33073 -0.0153268,1.98878 -0.0497441,0.461791 -0.095811,1.11168 -0.227417,1.55l-3.93701e-006 3.93701e-006c-0.0566339,0.154335 -0.0818583,0.207193 -0.166909,0.346362 0.157815,-0.163016 0.20989,-0.328606 0.271945,-0.538102l0 0c0.0434016,-0.181843 0.0286732,-0.112736 0.0486024,-0.219764l-2.3622e-005 0.00015748c0.0354252,-0.218839 0.0679724,-0.437417 0.0996732,-0.656795l0 0c0.0659961,-0.467957 0.116957,-0.902728 0.157213,-1.37412l0 0c0.0144528,-0.236669 0.015815,-0.378921 -0.00393307,-0.615224l0 0c-0.040374,-0.28213 -0.115209,-0.675693 -0.397705,-0.825949z"/>
   <path id="_438953280" class="fil6" d="M3.36086 1.85471c0.00559055,0.545882 -0.0093937,1.0825 -0.00100787,1.64561 0.00994488,0.667665 0.0115079,1.33559 0.0385472,2.00117l0.00922441 0.217256 0.00299606 0.201626c-0.163949,-0.952059 -0.183571,-3.08993 -0.0497598,-4.06566z"/>
  </g>
  <rect class="fil7" width="6.82666" height="6.82666"/>
 </g>
</svg>
