<?xml version="1.0" encoding="UTF-8"?>
<!DOCTYPE svg PUBLIC "-//W3C//DTD SVG 1.1//EN" "http://www.w3.org/Graphics/SVG/1.1/DTD/svg11.dtd">
<!-- Creator: CorelDRAW -->
<svg xmlns="http://www.w3.org/2000/svg" xml:space="preserve" width="6.82666in" height="6.82666in" style="shape-rendering:geometricPrecision; text-rendering:geometricPrecision; image-rendering:optimizeQuality; fill-rule:evenodd; clip-rule:evenodd"
viewBox="0 0 6.82666 6.82666"
 xmlns:xlink="http://www.w3.org/1999/xlink">
 <defs>
  <style type="text/css">
   <![CDATA[
    .fil5 {fill:none}
    .fil2 {fill:#006064}
    .fil4 {fill:#02A698}
    .fil3 {fill:#02BBAD}
    .fil1 {fill:#546E7A;fill-rule:nonzero}
    .fil0 {fill:#607D8B;fill-rule:nonzero}
   ]]>
  </style>
 </defs>
 <g id="Layer_x0020_1">
  <metadata id="CorelCorpID_0Corel-Layer"/>
  <g id="_275208864">
   <polygon id="_275210904" class="fil0" points="1.88224,3.33711 1.88224,4.75581 1.77004,4.75581 1.77004,3.33711 "/>
   <path id="_275210832" class="fil0" d="M1.45335 4.61225c0.121299,0.0298819 0.24402,0.0441378 0.368012,0.0437913 0.124276,-0.000338583 0.250394,-0.0153583 0.378177,-0.0440079l0.000220472 0c0.0203189,-0.00455118 0.040689,-0.0046378 0.0602992,-0.00103543 0.0352165,0.0064685 0.0679409,0.0248819 0.0934843,0.0502047 0.0251142,0.0248858 0.0438583,0.0571299 0.0516181,0.0917165l0 0.000216535c0.00460236,0.0205669 0.00538976,0.0420079 0.0014685,0.0633583l-0.176756 0.962177c-0.00520866,0.0283701 -0.0151929,0.0589803 -0.0288346,0.0863543 -0.0144213,0.0289252 -0.0336535,0.0556969 -0.0568386,0.0750079 -0.0289409,0.0241063 -0.0630709,0.0364764 -0.101413,0.0294488 -0.0112441,-0.00207087 -0.0221969,-0.00564567 -0.0327126,-0.0108898 -0.0704646,-0.035122 -0.138701,-0.0530512 -0.204575,-0.0532244 -0.0653504,-0.000173228 -0.12989,0.0170354 -0.193531,0.052126 -0.013126,0.00723622 -0.0263898,0.011689 -0.0396378,0.0136811 -0.0345866,0.00520866 -0.0660433,-0.00583071 -0.0932441,-0.0271457 -0.0218307,-0.0171063 -0.0404764,-0.0409055 -0.0549724,-0.067185 -0.0172638,-0.0313071 -0.0294685,-0.0674173 -0.0343583,-0.0999252l-0.145024 -0.962177c-0.00324803,-0.0215512 -0.00184252,-0.0433661 0.00333071,-0.0643543 0.00849606,-0.0345157 0.0275512,-0.066748 0.0527638,-0.0914449 0.0262165,-0.0256929 0.0594921,-0.0439488 0.0952835,-0.0493346 0.0185197,-0.00279134 0.0377953,-0.00214173 0.0572402,0.00264173zm0.368012 0.155543c-0.133315,0.000362205 -0.264953,-0.0148819 -0.39474,-0.0468504 -0.00438583,-0.00108268 -0.00908268,-0.00117323 -0.0138543,-0.00046063 -0.0118543,0.00178346 -0.0236181,0.00855118 -0.0334921,0.0182244 -0.0108858,0.0106614 -0.0190315,0.0242165 -0.0225197,0.0384094 -0.00170472,0.00692126 -0.00218898,0.0140512 -0.00114961,0.0209685l0.145028 0.962177c0.00304331,0.0202362 0.0107323,0.0428819 0.0216457,0.0626772 0.00777165,0.0140827 0.0165866,0.0259252 0.0256102,0.0329961 0.00364961,0.0028622 0.00648819,0.00455906 0.00778346,0.00436614 0.000551181,-7.87402e-005 0.00134646,-0.000405512 0.00238583,-0.000976378 0.0802402,-0.0442441 0.162764,-0.0659252 0.247441,-0.0657087 0.0841496,0.000220472 0.169012,0.0219843 0.254531,0.0646102 0.00154724,0.000767717 0.00251181,0.0011811 0.00290945,0.00125197 0.00197638,0.000358268 0.00552756,-0.00176378 0.0098189,-0.00533858 0.0100512,-0.00837795 0.0196654,-0.0225354 0.0279094,-0.0390748 0.00926378,-0.0185906 0.0159094,-0.0386063 0.0192008,-0.0565512l0.17676 -0.962177c0.00111811,-0.00611024 0.000846457,-0.0125236 -0.000551181,-0.0188898l-4.72441e-005 1.1811e-005c-0.00300787,-0.0134213 -0.0107874,-0.0264409 -0.021374,-0.0369331 -0.0101575,-0.0100709 -0.0223819,-0.017252 -0.034752,-0.0195236 -0.00532283,-0.000976378 -0.010689,-0.00100787 -0.0158346,0.000110236l1.1811e-005 4.72441e-005c-0.135378,0.0303543 -0.269665,0.0462756 -0.40272,0.0466339z"/>
   <path id="_275210376" class="fil0" d="M1.45335 4.61225c0.121299,0.0298819 0.24402,0.0441378 0.368012,0.0437913 0.124276,-0.000338583 0.250394,-0.0153583 0.378177,-0.0440079l0.000220472 0c0.0203189,-0.00455118 0.040689,-0.0046378 0.0602992,-0.00103543 0.0352165,0.0064685 0.0679409,0.0248819 0.0934843,0.0502047 0.0251142,0.0248858 0.0438583,0.0571299 0.0516181,0.0917165l0 0.000216535c0.00460236,0.0205669 0.00538976,0.0420079 0.0014685,0.0633583l-0.176756 0.962177c-0.00520866,0.0283701 -0.0151929,0.0589803 -0.0288346,0.0863543 -0.0144213,0.0289252 -0.0336535,0.0556969 -0.0568386,0.0750079 -0.0289409,0.0241063 -0.0630709,0.0364764 -0.101413,0.0294488 -0.0112441,-0.00207087 -0.0221969,-0.00564567 -0.0327126,-0.0108898 -0.0704646,-0.035122 -0.138701,-0.0530512 -0.204575,-0.0532244 -0.0653504,-0.000173228 -0.12989,0.0170354 -0.193531,0.052126 -0.013126,0.00723622 -0.0263898,0.011689 -0.0396378,0.0136811 -0.0345866,0.00520866 -0.0660433,-0.00583071 -0.0932441,-0.0271457 -0.0218307,-0.0171063 -0.0404764,-0.0409055 -0.0549724,-0.067185 -0.0172638,-0.0313071 -0.0294685,-0.0674173 -0.0343583,-0.0999252l-0.145024 -0.962177c-0.00324803,-0.0215512 -0.00184252,-0.0433661 0.00333071,-0.0643543 0.00849606,-0.0345157 0.0275512,-0.066748 0.0527638,-0.0914449 0.0262165,-0.0256929 0.0594921,-0.0439488 0.0952835,-0.0493346 0.0185197,-0.00279134 0.0377953,-0.00214173 0.0572402,0.00264173zm0.368012 0.155543c-0.133315,0.000362205 -0.264953,-0.0148819 -0.39474,-0.0468504 -0.00438583,-0.00108268 -0.00908268,-0.00117323 -0.0138543,-0.00046063 -0.0118543,0.00178346 -0.0236181,0.00855118 -0.0334921,0.0182244 -0.0108858,0.0106614 -0.0190315,0.0242165 -0.0225197,0.0384094 -0.00170472,0.00692126 -0.00218898,0.0140512 -0.00114961,0.0209685l0.145028 0.962177c0.00304331,0.0202362 0.0107323,0.0428819 0.0216457,0.0626772 0.00777165,0.0140827 0.0165866,0.0259252 0.0256102,0.0329961 0.00364961,0.0028622 0.00648819,0.00455906 0.00778346,0.00436614 0.000551181,-7.87402e-005 0.00134646,-0.000405512 0.00238583,-0.000976378 0.0802402,-0.0442441 0.162764,-0.0659252 0.247441,-0.0657087 0.0841496,0.000220472 0.169012,0.0219843 0.254531,0.0646102 0.00154724,0.000767717 0.00251181,0.0011811 0.00290945,0.00125197 0.00197638,0.000358268 0.00552756,-0.00176378 0.0098189,-0.00533858 0.0100512,-0.00837795 0.0196654,-0.0225354 0.0279094,-0.0390748 0.00926378,-0.0185906 0.0159094,-0.0386063 0.0192008,-0.0565512l0.17676 -0.962177c0.00111811,-0.00611024 0.000846457,-0.0125236 -0.000551181,-0.0188898l-4.72441e-005 1.1811e-005c-0.00300787,-0.0134213 -0.0107874,-0.0264409 -0.021374,-0.0369331 -0.0101575,-0.0100709 -0.0223819,-0.017252 -0.034752,-0.0195236 -0.00532283,-0.000976378 -0.010689,-0.00100787 -0.0158346,0.000110236l1.1811e-005 4.72441e-005c-0.135378,0.0303543 -0.269665,0.0462756 -0.40272,0.0466339z"/>
   <path id="_275209560" class="fil0" d="M1.71466 4.62014c0.0367087,0.0244882 0.0732165,0.0361693 0.1095,0.0358976 0.0369646,-0.000271654 0.0754488,-0.0129488 0.115315,-0.0371181l-5.90551e-005 -9.84252e-005c0.00923622,-0.00561811 0.0188976,-0.00890551 0.0288425,-0.0100472l0.000220472 0c0.0278189,-0.00315354 0.0511693,0.00920472 0.0692598,0.0330118 0.00975197,0.0128346 0.0180984,0.0298701 0.0243465,0.0491772 0.0107362,0.0331535 0.0168386,0.0770827 0.0139843,0.119173l-0.0652717 0.962177c-0.00317323,0.0468583 -0.0122402,0.102579 -0.0248898,0.136823 -0.00554331,0.0150276 -0.0125354,0.0280079 -0.0210472,0.0378346 -0.0208071,0.0239724 -0.0459173,0.0319882 -0.0758465,0.0195 -0.011622,-0.00484646 -0.0218976,-0.0129764 -0.0306457,-0.0247559 -0.017811,-0.0240394 -0.0312205,-0.0362913 -0.0400669,-0.0363504 -0.00782283,-5.11811e-005 -0.0193858,0.0112244 -0.0347441,0.0341575 -0.00877165,0.0131102 -0.0193661,0.0220984 -0.0314016,0.0273858 -0.0299016,0.0131969 -0.0551457,0.0055315 -0.0762087,-0.0183504l-0.000220472 0c-0.00829921,-0.00942126 -0.0152913,-0.0222402 -0.0209567,-0.0373071 -0.0130472,-0.0346417 -0.0225276,-0.0920157 -0.0251772,-0.139594l-0.0535591 -0.962177c-0.00242913,-0.0437441 0.00428346,-0.0896417 0.0156339,-0.123173 0.0062874,-0.0185945 0.0144409,-0.0347992 0.0239291,-0.0468937 0.018122,-0.0230709 0.0414016,-0.0346378 0.0693819,-0.030748l-7.87402e-006 3.14961e-005c0.0104213,0.00145669 0.0203898,0.00522047 0.029689,0.0114449zm0.109937 0.14765c-0.0444409,0.000330709 -0.0881378,-0.00979528 -0.131039,-0.0309291 -0.00465748,0.0195512 -0.00705512,0.0432441 -0.00577165,0.0664843l0.0535591 0.962177c0.000933071,0.0167638 0.00279528,0.034685 0.00537402,0.0515748 0.022626,-0.0158701 0.0466378,-0.0236614 0.0720197,-0.0234843 0.0257677,0.000188976 0.0505039,0.00869291 0.0741969,0.0253504 0.00281496,-0.0175748 0.00491732,-0.0364409 0.00611024,-0.0540984l0.0652717 -0.962177c0.00160236,-0.0236693 -0.00088189,-0.0477008 -0.00579921,-0.0672598 -0.0444173,0.0210433 -0.0890591,0.0320315 -0.133921,0.0323622z"/>
   <path id="_275210184" class="fil1" d="M5.25548 2.26612c-0.014378,-0.00559449 -0.0215039,-0.0217953 -0.0159134,-0.0361732 0.00559055,-0.014378 0.0217913,-0.0215079 0.0361693,-0.0159055 0.386843,0.151165 0.44637,0.249091 0.412539,0.335669 -0.0126378,0.0323425 -0.0378465,0.0597441 -0.0636024,0.0877323 -0.0445472,0.0483976 -0.0911929,0.0990906 -0.034685,0.169118l0.0432795 0.0536417c0.257638,0.319339 0.178472,0.440102 0.0930118,0.570465 -0.0771181,0.11763 -0.160091,0.244217 0.0768543,0.59161 0.216646,0.317634 0.0526811,0.514039 -0.0884291,0.683055 -0.117906,0.141213 -0.217673,0.260728 -0.00129921,0.42335 0.0863504,0.0649016 0.142925,0.11537 0.178528,0.157996l-0.013126 0.00280709c-0.0121457,0.00259055 -0.0248465,0.00659843 -0.0368976,0.00988583l-0.0132717 0.00166535c-0.0318701,-0.0344291 -0.0795394,-0.0755079 -0.148937,-0.127669 -0.263358,-0.197937 -0.146303,-0.338142 -0.00798425,-0.503815 0.128587,-0.154012 0.278,-0.332988 0.0851772,-0.615697 -0.25802,-0.378276 -0.164402,-0.521091 -0.0773898,-0.653807 0.0738346,-0.112626 0.142236,-0.216969 -0.0898819,-0.504673l-0.0432795 -0.0536457c-0.0867205,-0.107488 -0.023311,-0.176398 0.037252,-0.242193 0.0221417,-0.0240591 0.0438268,-0.047626 0.0525945,-0.0700827 0.0222165,-0.0568543 -0.036622,-0.12887 -0.380709,-0.263335z"/>
   <circle id="_275209848" class="fil2" cx="5.16872" cy="2.24982" r="0.154266"/>
   <path id="_275210088" class="fil2" d="M1.97388 1.48722c-0.15215,0.100713 -0.21661,0.272228 -0.143587,0.383283l0.552768 -0.363689c-0.0731732,-0.111035 -0.256421,-0.119815 -0.409181,-0.0195945z"/>
   <path id="_275209464" class="fil3" d="M4.40313 0.866976c-0.746728,0.043311 -1.81846,0.13272 -2.9246,1.28472 -0.305319,0.317972 -0.289831,0.878874 -0.558209,1.34609 -0.000822835,0.00103543 -0.00125591,0.00207874 -0.00168898,0.00309055 0.000984252,-5.51181e-005 0.00235433,-0.000133858 0.00383071,-0.000220472l3.78434 -0.248193c0.290783,-0.0168661 0.506409,-0.441232 0.495024,-0.637543 -0.245067,-1.67398 0.152047,-1.81781 -0.798701,-1.74794zm0.170941 1.17031c0.0191732,0.37163 -1.55942,0.445512 -1.75843,0.446984 -0.338862,0.00232283 -0.590551,-0.0638189 -0.495925,-0.247783 0.188386,-0.365799 0.536744,-0.60535 1.0998,-0.748449 1.1107,-0.281748 1.1107,-0.281748 1.15456,0.549248z"/>
   <path id="_275209248" class="fil4" d="M1.03978 3.24195c-0.0331378,0.0869764 -0.071811,0.17289 -0.119457,0.255839 -0.000822835,0.0010315 -0.00125984,0.0020748 -0.00169291,0.00308661 0.000980315,-5.11811e-005 0.00235433,-0.000133858 0.00383071,-0.000220472l3.78434 -0.248197c0.158,-0.00916142 0.293795,-0.138638 0.383051,-0.286461l-3.99483 0.262551c-0.0178346,0.0010315 -0.0367402,0.00581102 -0.0552362,0.0134016z"/>
  </g>
  <rect class="fil5" width="6.82666" height="6.82666"/>
 </g>
</svg>
