<?xml version="1.0" encoding="UTF-8"?>
<!DOCTYPE svg PUBLIC "-//W3C//DTD SVG 1.1//EN" "http://www.w3.org/Graphics/SVG/1.1/DTD/svg11.dtd">
<!-- Creator: CorelDRAW -->
<svg xmlns="http://www.w3.org/2000/svg" xml:space="preserve" width="6.82666in" height="6.82666in" style="shape-rendering:geometricPrecision; text-rendering:geometricPrecision; image-rendering:optimizeQuality; fill-rule:evenodd; clip-rule:evenodd"
viewBox="0 0 6.82666 6.82666"
 xmlns:xlink="http://www.w3.org/1999/xlink">
 <defs>
  <style type="text/css">
   <![CDATA[
    .fil4 {fill:none}
    .fil1 {fill:#A0300D}
    .fil0 {fill:#BF360C;fill-rule:nonzero}
    .fil2 {fill:#D84315;fill-rule:nonzero}
    .fil3 {fill:#FF8F00;fill-rule:nonzero}
   ]]>
  </style>
 </defs>
 <g id="Layer_x0020_1">
  <metadata id="CorelCorpID_0Corel-Layer"/>
  <g id="_275238744">
   <path id="_275239032" class="fil0" d="M1.7468 2.995l-0.520004 -0.213335c-0.180559,-0.0740748 -0.262319,-0.0246811 -0.301311,0.0703622 0.244413,0.479047 0.30422,0.703331 3.93701e-006,1.11845 0.0389882,0.0950472 0.120744,0.148602 0.301307,0.0745276l0.520004 -0.213335c0.0154646,-0.00634252 0.0355433,-0.0132205 0.0543228,-0.0196457 0.0136417,-0.00466929 0.0266024,-0.0091063 0.0441102,-0.0159094l0.163453 -0.0635157c-0.336795,-0.295555 -0.336787,-0.342972 -1.1811e-005,-0.638535l-0.163445 -0.0635118c-0.0175236,-0.00680709 -0.0304685,-0.0112402 -0.0441142,-0.0159094 -0.0187717,-0.0064252 -0.0388701,-0.0133031 -0.054315,-0.0196417z"/>
   <path id="_275238888" class="fil1" d="M0.938957 2.87856c0.103484,0.0288858 0.28785,0.105445 0.452398,0.303972 0.0773268,0.0932953 0.139142,0.196122 0.187539,0.293189 0.000417323,-0.123287 0.0382087,-0.239807 0.107524,-0.346638 0.0271299,-0.0418937 0.059126,-0.0822835 0.0956339,-0.121004 -0.0126378,-0.00440157 -0.0249764,-0.00885827 -0.0352559,-0.0130787l-0.520004 -0.213335c-0.180559,-0.0740748 -0.262319,-0.0246811 -0.301311,0.0703622 0.00455512,0.00893307 0.00905118,0.0177756 0.0134764,0.0265315z"/>
  </g>
  <g id="_275239344">
   <path id="_275239416" class="fil0" d="M5.13881 2.99553l0.520004 -0.213335c0.180559,-0.0740748 0.262319,-0.0246811 0.301311,0.0703622 -0.244413,0.479047 -0.30422,0.703331 -3.93701e-006,1.11845 -0.0389882,0.0950472 -0.120744,0.148602 -0.301307,0.0745276l-0.520004 -0.213335c-0.0154646,-0.00634252 -0.0355433,-0.0132205 -0.0543228,-0.0196457 -0.0136417,-0.00466929 -0.0266024,-0.0091063 -0.0441102,-0.0159094l-0.163453 -0.0635157c0.336795,-0.295555 0.336787,-0.342972 1.1811e-005,-0.638535l0.163445 -0.0635118c0.0175236,-0.00680709 0.0304685,-0.0112402 0.0441142,-0.0159094 0.0187717,-0.0064252 0.0388701,-0.0133031 0.054315,-0.0196417z"/>
   <path id="_275238720" class="fil1" d="M5.94665 2.87909c-0.103484,0.0288858 -0.28785,0.105445 -0.452398,0.303972 -0.0773268,0.0932953 -0.139142,0.196122 -0.187539,0.293189 -0.000417323,-0.123287 -0.0382087,-0.239807 -0.107524,-0.346638 -0.0271299,-0.0418937 -0.059126,-0.0822835 -0.0956339,-0.121004 0.0126378,-0.00440157 0.0249764,-0.00885827 0.0352559,-0.0130787l0.520004 -0.213335c0.180559,-0.0740748 0.262319,-0.0246811 0.301311,0.0703622 -0.00455512,0.00893307 -0.00905118,0.0177756 -0.0134764,0.0265315z"/>
  </g>
  <path class="fil2" d="M3.44556 2.47269c0.499146,0 0.953004,0.101102 1.28326,0.264559 0.360453,0.178398 0.583409,0.439346 0.583409,0.740539 0,0.301193 -0.222957,0.562142 -0.583409,0.740539 -0.33026,0.163457 -0.784118,0.264559 -1.28326,0.264559 -0.499146,0 -0.953004,-0.101102 -1.28326,-0.264559 -0.360453,-0.178398 -0.583409,-0.439346 -0.583409,-0.740539 0,-0.301193 0.222957,-0.562142 0.583409,-0.740539 0.33026,-0.163457 0.784118,-0.264559 1.28326,-0.264559z"/>
  <g id="_275238456">
   <path id="_275238072" class="fil3" d="M3.00287 4.45565c-0.089311,-0.0111929 -0.176063,-0.025689 -0.259693,-0.0432165l-1.05676 -1.28336c0.0324646,-0.0500551 0.0718307,-0.0979843 0.117512,-0.143496l1.20472 1.46305 -0.00577953 0.00701969z"/>
   <path id="_275238576" class="fil3" d="M3.59116 4.47999c-0.0480512,0.00191339 -0.0966024,0.00290157 -0.145598,0.00290157 -0.0120984,0 -0.0241614,-7.87402e-005 -0.0362047,-0.00019685l-1.37788 -1.67335c0.0412638,-0.0253071 0.0849213,-0.049374 0.130823,-0.0720906 0.0107165,-0.00530315 0.0215709,-0.0105433 0.0325472,-0.0157126l1.42213 1.72709 -0.0258189 0.0313543z"/>
   <path id="_275237928" class="fil3" d="M4.26494 4.38544c-0.0646102,0.0163189 -0.131402,0.0307756 -0.200079,0.0432244l-1.51381 -1.83842c0.0631811,-0.0178543 0.128677,-0.0338858 0.196197,-0.0479409l1.51769 1.84314z"/>
   <path id="_275238288" class="fil3" d="M4.79768 4.18231c-0.0223543,0.0123504 -0.0453031,0.0243661 -0.0688543,0.0360236 -0.0320197,0.0158465 -0.0652126,0.0310984 -0.0994882,0.0457402l-1.44686 -1.75712 0.021626 -0.0262638c0.0611811,-0.00407087 0.123295,-0.00662205 0.186189,-0.00756693l1.40739 1.70919z"/>
   <path id="_275238480" class="fil3" d="M3.88826 2.49993c0.0893071,0.0111969 0.176059,0.025689 0.259685,0.0432165l1.05676 1.28336c-0.0324606,0.0500551 -0.0718346,0.0979843 -0.117512,0.143496l-1.20471 -1.46305 0.00578346 -0.00702362z"/>
  </g>
  <path class="fil0" d="M3.55265 2.47427c0.356634,0.0104055 0.686535,0.0723976 0.959909,0.171283l-1.17408 1.83576c-0.35663,-0.0104055 -0.686531,-0.0724055 -0.959909,-0.171283l1.17408 -1.83576z"/>
  <rect class="fil4" width="6.82666" height="6.82666"/>
 </g>
</svg>
