<?xml version="1.0" encoding="UTF-8"?>
<!DOCTYPE svg PUBLIC "-//W3C//DTD SVG 1.1//EN" "http://www.w3.org/Graphics/SVG/1.1/DTD/svg11.dtd">
<!-- Creator: CorelDRAW -->
<svg xmlns="http://www.w3.org/2000/svg" xml:space="preserve" width="6.82666in" height="6.82666in" style="shape-rendering:geometricPrecision; text-rendering:geometricPrecision; image-rendering:optimizeQuality; fill-rule:evenodd; clip-rule:evenodd"
viewBox="0 0 6.82666 6.82666"
 xmlns:xlink="http://www.w3.org/1999/xlink">
 <defs>
  <style type="text/css">
   <![CDATA[
    .fil1 {fill:none}
    .fil10 {fill:#424242}
    .fil9 {fill:#FFD180}
    .fil8 {fill:#212D03;fill-rule:nonzero}
    .fil5 {fill:#283A05;fill-rule:nonzero}
    .fil4 {fill:#364B08;fill-rule:nonzero}
    .fil2 {fill:#3B560A;fill-rule:nonzero}
    .fil6 {fill:#445601;fill-rule:nonzero}
    .fil3 {fill:#507211;fill-rule:nonzero}
    .fil7 {fill:#709721;fill-rule:nonzero}
    .fil0 {fill:#DDC187;fill-rule:nonzero}
   ]]>
  </style>
 </defs>
 <g id="Layer_x0020_1">
  <metadata id="CorelCorpID_0Corel-Layer"/>
  <path class="fil0" d="M5.67672 2.09844c0,0 0.0957283,0.145854 0.0683661,0.186906 -0.0273543,0.0410118 -0.134736,-0.0409409 -0.134736,-0.0409409l0.0663701 -0.145965z"/>
  <path class="fil0" d="M5.54454 2.29681c0,0 0.0911654,0.11615 0.0409961,0.148071 -0.050126,0.0318898 -0.145854,-0.0740433 -0.145854,-0.0740433l0.104858 -0.0740276z"/>
  <path class="fil0" d="M5.37587 2.45086c0,0 0.0319213,0.149012 0,0.190031 -0.0319173,0.0410118 -0.126311,-0.0465276 -0.126311,-0.0465276l0.126311 -0.143504z"/>
  <path class="fil0" d="M5.13427 2.65183c0,0 0.0455748,0.134917 0,0.185059 -0.045563,0.0501535 -0.115563,-0.0492008 -0.115563,-0.0492008l0.115563 -0.135858z"/>
  <path class="fil0" d="M4.91092 2.85102c0,0 0.0866063,0.159106 0.0319173,0.204685 -0.0547244,0.0455591 -0.13678,-0.0455787 -0.13678,-0.0455787l0.104862 -0.159106z"/>
  <path class="fil0" d="M4.70122 3.14231c0,0 0.0455748,0.145854 0,0.186894 -0.045563,0.0410236 -0.127614,-0.0934488 -0.127614,-0.0934488l0.127614 -0.0934449z"/>
  <path class="fil0" d="M4.45051 3.35656c0,0 0.0228071,0.164102 -0.0319291,0.182339 -0.0546811,0.0182205 -0.118492,-0.118528 -0.118492,-0.118528l0.150421 -0.063811z"/>
  <path class="fil0" d="M5.87275 3.14231c0,0 -0.0904882,-0.14587 -0.122724,-0.127618 -0.0322717,0.0182047 -0.0231496,0.186866 -0.0231496,0.186866l0.145874 -0.059248z"/>
  <path class="fil0" d="M5.63115 3.26083c0,0 -0.0487598,-0.145854 -0.11098,-0.1185 -0.0622559,0.0273268 -0.0394567,0.194657 -0.0394567,0.194657l0.150437 -0.0761575z"/>
  <path class="fil0" d="M5.39005 3.38846c0,0 -0.0460866,-0.141299 -0.100803,-0.127622 -0.054689,0.0136496 -0.0397087,0.187709 -0.0397087,0.187709l0.140512 -0.0600866z"/>
  <path class="fil0" d="M5.1206 3.52066c0,0 -0.0442598,-0.182354 -0.101913,-0.164102 -0.057626,0.0182323 -0.0804252,0.218795 -0.0804252,0.218795l0.182339 -0.0546929z"/>
  <path class="fil0" d="M4.80607 3.59816c0,0 -0.0415276,-0.142583 -0.0845827,-0.132819 -0.0430394,0.00975984 -0.0739449,0.151051 -0.0739449,0.151051l0.158528 -0.0182323z"/>
  <rect class="fil1" width="6.82666" height="6.82666"/>
  <path class="fil2" d="M4.00379 4.24545c0,0 0.246157,-0.0364843 0.332768,0.109398 0,0 -0.145874,0.0173937 -0.186906,0.0269291 0,0 0.100295,0.0642283 0.0911732,0.169087 0,0 -0.168669,-0.106043 -0.237035,-0.107744 0,0 0.0911654,0.130543 0.0273543,0.198909 0,0 -0.223386,-0.183531 -0.291752,-0.198909 0,0 -0.168669,-0.0457323 -0.214228,-0.114866 -0.0455787,-0.0691339 0.191303,-0.197858 0.478626,-0.0828031z"/>
  <path class="fil3" d="M5.69496 1.97537c0,0 0.0729291,-0.164122 -0.063811,-0.191476 -0.13678,-0.0273268 -0.191469,0.0638583 -0.164106,0.145902 0,0 -0.118528,-0.118547 -0.218795,-0.00912992 -0.100291,0.109386 0,0.200559 0,0.200559 0,0 -0.519665,0.58348 -0.911685,0.72935 0,0 0.0273622,-0.255268 -0.182358,-0.218791 -0.209661,0.036437 -0.164102,0.218791 -0.164102,0.218791 0,0 -0.118492,-0.164102 -0.273476,-0.118508 -0.154992,0.0455787 -0.154992,0.300846 -0.154992,0.300846 0,0 -0.0820433,-0.063811 -0.173217,-0.0273622 -0.0911811,0.0364921 -0.127665,0.139815 -0.127665,0.139815 0,0 -0.115457,-0.0425394 -0.212705,0.0850827 -0.0851063,-0.0729331 -0.212728,-0.115472 -0.291752,-0.0607913 0,0 -0.182311,-0.145854 -0.316031,-0.0790157 0,0 -0.200591,-0.164106 -0.334295,-0.0668386 0,0 -0.145854,-0.158012 -0.279587,-0.0607835 0,0 0.0121614,-0.188402 -0.127618,-0.206646 0,0 0.11548,-0.145862 0,-0.218795 0,0 0.103331,-0.127646 0.0607638,-0.182346 0,0 -0.267437,0.0364488 -0.486232,0.200555 -0.218783,0.164102 -0.571303,0.72935 -0.212701,1.17912 0.358563,0.449768 1.38574,0.747587 2.29743,0.662476 0,0 0.522709,0.0729331 0.917748,-0.316024 0,0 1.4891,-0.510555 1.69574,-0.753685 0,0 0.0182323,-0.215287 -0.0607913,-0.232244 -0.0790236,-0.0169409 -0.717193,0.408524 -1.01502,0.463224 -0.297807,0.054689 -0.765787,0.0121496 -0.765787,0.0121496 0,0 0.328209,-0.133717 0.48622,-0.291728 0.158004,-0.158047 0.382898,-0.504461 0.492315,-0.577394 0.109406,-0.0729331 0.510547,-0.395083 0.626028,-0.644272l-0.0395197 -0.0820433z"/>
  <path class="fil4" d="M5.9715 3.32769c0,0 -1.36198,0.575476 -1.69898,0.630583 -0.337004,0.0551063 -0.684134,-0.115697 -0.684134,-0.115697 0,0 0.19626,0.18578 0.47889,0.199374 0,0 -0.456138,0.215614 -0.627138,0.217169 -0.204008,0.00849606 -0.311752,-0.122846 -0.311752,-0.122846 0,0 0.0384291,0.130756 0.086811,0.178902 0,0 -0.395476,0.0798189 -1.11681,-0.136382 -0.72135,-0.216209 -1.36377,-0.551957 -1.03151,-1.38665 0,0 -0.42215,0.557858 0.0648307,1.02144 0.486992,0.463614 1.48699,0.644488 2.16948,0.583803 0,0 0.590142,0.112744 0.974579,-0.316059 0,0 1.54754,-0.538803 1.69573,-0.753638z"/>
  <path class="fil2" d="M1.56047 3.44855c0,0 0.51513,0.318276 0.360098,0.587185 -0.15498,0.268965 -0.446701,0.164102 -0.446701,0.164102 0,0 0.211421,0.0866299 0.237898,0.177791 0,0 -0.215106,-0.0182323 -0.237898,-0.0182323 0,0 0.11398,0.127657 0.100287,0.209701 0,0 -0.177791,-0.0820433 -0.237035,-0.0911732 0,0 0.0318898,0.1185 0,0.195996 0,0 -0.173228,-0.206299 -0.196024,-0.23078 0,0 -0.332776,-0.242425 -0.282606,-0.381878 0.050126,-0.139453 0.419382,-0.157705 0.433031,-0.148583 0.0136772,0.00912992 -0.191441,-0.200591 -0.0820512,-0.428504 0.109417,-0.227909 0.351,-0.035626 0.351,-0.035626z"/>
  <path class="fil5" d="M1.29152 3.91268c0,0 0.0687008,0.0592441 0.180224,0.0774961 0,0 -0.157406,0.054689 -0.180224,-0.0774961z"/>
  <path class="fil5" d="M1.4578 4.18619c0,0 -0.148031,0 -0.211843,-0.0455591 0,0 0.118878,0.135449 0.211843,0.0455591z"/>
  <path class="fil2" d="M2.93256 3.86255c0.0779488,0.0448701 0.22337,0.232469 0.136752,0.332764 -0.0866102,0.100295 -0.268937,0.216598 -0.268937,0.216598 0,0 0.213795,0.0568937 0.28922,0.143504 0,0 0.315646,-0.0729409 0.35052,0.0820591 0,0 -0.170224,0.0364685 -0.211264,0.0455866 0,0 0.132213,0.136744 0.109413,0.209685 0,0 -0.167094,-0.068378 -0.218024,-0.063811 0,0 0.0265669,0.150417 -0.032689,0.218783 0,0 -0.205118,-0.209673 -0.259835,-0.259831 -1.43617,-0.3925 -0.234713,-1.12089 0.104843,-0.925339z"/>
  <path class="fil5" d="M2.80037 4.41191c0,0 -0.168661,0.042378 -0.234776,-0.0301299 0,0 0.0885669,0.134465 0.234776,0.0301299z"/>
  <path class="fil3" d="M2.97921 3.83975c0.0567244,0.0437874 0.174945,0.197327 0.0490748,0.35972 -0.125874,0.162378 -0.345303,0.123543 -0.462665,0.0915433 -0.190028,-0.0517126 -0.265346,-0.241591 -0.104181,-0.378331 0.161142,-0.136744 0.333799,-0.215008 0.517772,-0.0729331z"/>
  <path class="fil3" d="M1.53892 3.43329c0,0 0.376591,0.267327 0.368075,0.452024 -0.00851575,0.184744 -0.19635,0.150437 -0.449197,0.0501811 -0.252866,-0.100295 -0.327642,-0.281122 -0.299256,-0.372287 0.0283583,-0.0911732 0.0581969,-0.410071 0.380378,-0.129917z"/>
  <path class="fil6" d="M1.75953 2.35523c0,0 0.0260236,-0.0288543 0.0798819,-0.0288543 0,0 0.103965,-0.150437 0.199705,-0.0638189 0,0 0.16865,-0.167736 0.29628,-0.0268819 0,0 0.0911732,-0.210181 0.230213,-0.0825315 -0.00627165,-0.107996 0.283547,-0.0826575 0.246346,0.0164961 0,0 0.170118,-0.0313583 0.237961,0.0822165 0,0 0.198067,-0.0467638 0.229705,0.0294764 0,0 0.129276,-0.133732 0.165713,-0.0393307 0,0 0.099374,-0.0651929 0.135972,-0.0177087 0,0 0.113539,-0.12452 0.214004,-0.0839055 0,0 -0.426488,0.450713 -0.887,0.465224 -0.460504,0.0145157 -0.88165,0.0524803 -0.93087,0.360858 -0.740161,0.095748 -0.297783,-0.582394 -0.217909,-0.61124z"/>
  <path class="fil3" d="M1.88441 2.50846c0,0 -0.0199567,-0.124114 0.0757717,-0.142323 0.0957283,-0.0182323 0.11387,0.063811 0.11387,0.063811 0,0 -0.0693858,0.0932283 -0.189642,0.0785118z"/>
  <path class="fil3" d="M2.13334 2.4417c0,0 0.0136772,-0.187201 0.200543,-0.108232 0,0 -0.063811,0.132945 -0.200543,0.108232z"/>
  <path class="fil3" d="M2.35199 2.35051c0,0 0.0347835,-0.182358 0.208008,-0.0957323 0,0 -0.0422402,0.150421 -0.208008,0.0957323z"/>
  <path class="fil3" d="M2.60951 2.32561c0,0 -0.0212717,-0.167587 0.142835,-0.0992087 0,0 -0.0349567,0.0981142 -0.142835,0.0992087z"/>
  <path class="fil3" d="M2.74828 2.29278c0,0 0.0712362,-0.12439 0.160547,-0.0420787 0,0 -0.0461535,0.0925591 -0.160547,0.0420787z"/>
  <path class="fil7" d="M3.48413 3.33698c0,0 -0.059248,-0.0852717 -0.132185,-0.053378 -0.0729331,0.0319252 -0.0547165,0.123091 -0.0547165,0.123091 0,0 0.104839,0.0429291 0.186902,-0.0697126z"/>
  <path class="fil7" d="M3.21519 3.44855c0,0 -0.100295,-0.0915079 -0.177791,-0.0757992 -0.0774803,0.0157205 -0.118492,0.167811 -0.118492,0.167811 0,0 0.192705,0.048437 0.296283,-0.0920118z"/>
  <path class="fil7" d="M2.68641 3.54865c0,0 -0.00340551,-0.217846 -0.241598,-0.0833465 0,0 0.0455748,0.220713 0.241598,0.0833465z"/>
  <path class="fil7" d="M2.31262 3.44223c0,0 0.0182362,-0.117579 -0.0546969,-0.135811 -0.0729213,-0.018252 -0.159539,0.0679134 -0.159539,0.0679134 0,0 0.0182126,0.091626 0.0866181,0.109858 0.068374,0.018252 0.127618,-0.0419606 0.127618,-0.0419606z"/>
  <path class="fil7" d="M1.94967 3.30388c0,0 -0.0153937,-0.15702 -0.0700906,-0.161555 -0.0547283,-0.00455906 -0.150421,0.059252 -0.150421,0.059252 0,0 0.008,0.200039 0.220512,0.102303z"/>
  <path class="fil7" d="M1.58783 3.10732c0,0 0.0774961,-0.106783 0.0455787,-0.147579 -0.0318937,-0.0407795 -0.159559,-0.0225827 -0.159559,-0.0225827 0,0 -0.0273268,0.144319 0.11398,0.170161z"/>
  <path class="fil7" d="M1.47174 2.85102c0,0 0.102717,-0.183713 0,-0.199197 -0.102709,-0.0155118 -0.0933071,0.199685 0,0.199197z"/>
  <path class="fil7" d="M1.49229 2.60948c0,0 0.112693,-0.0814409 0.100705,-0.135787 -0.0119803,-0.0542953 -0.136106,0.0164488 -0.100705,0.135787z"/>
  <path class="fil2" d="M3.05459 3.23359c0,0 -0.190402,0.138972 -0.217764,0.254028 0,0 0.0582244,-0.259516 0.217764,-0.254028z"/>
  <path class="fil8" d="M5.4397 2.04873c0,0 -0.0102795,-0.144894 -0.119886,-0.0665118 0,0 0.0479921,-0.0321732 0.119886,0.0665118z"/>
  <path class="fil8" d="M5.55389 2.00386c0,0 -0.0955748,-0.134709 0.0564803,-0.132386 0,0 -0.0977756,0.0192008 -0.0564803,0.132386z"/>
  <ellipse class="fil9" transform="matrix(2.19722 -1.0147 1.08246 2.05967 3.85643 3.05532)" rx="0.0581575" ry="0.0911457"/>
  <ellipse class="fil10" transform="matrix(0.840995 -0.388382 0.414318 0.78835 3.94013 3.04336)" rx="0.0581575" ry="0.0911457"/>
  <path class="fil2" d="M3.26127 3.14902c0,0 -0.133528,0.111642 -0.139433,0.204067 0,0 0.0105079,-0.208472 0.139433,-0.204067z"/>
  <path class="fil2" d="M3.56001 3.0363c0,0 -0.114323,0.111638 -0.104323,0.204063 0,0 -0.0253622,-0.208472 0.104323,-0.204063z"/>
  <path class="fil2" d="M2.75585 3.16783c0,0 -0.217996,0.138976 -0.268209,0.254031 0,0 0.10976,-0.259516 0.268209,-0.254031z"/>
  <path class="fil2" d="M2.44159 3.09104c0,0 -0.243307,0.0874016 -0.317685,0.188528 0,0 0.164358,-0.22887 0.317685,-0.188528z"/>
  <path class="fil2" d="M2.10515 3.02393c0,0 -0.254614,0.044815 -0.345087,0.131843 0,0 0.200839,-0.197638 0.345087,-0.131843z"/>
  <path class="fil3" d="M2.89679 2.29876c0,0 0.0989921,-0.103673 0.165953,-0.00234646 0,0 -0.0670039,0.0787874 -0.165953,0.00234646z"/>
  <path class="fil3" d="M3.05023 2.3043c0,0 0.120965,-0.0769016 0.161669,0.0375276 0,0 -0.0839449,0.0604173 -0.161669,-0.0375276z"/>
  <path class="fil3" d="M3.24574 2.31207c0,0 0.0926063,-0.0311063 0.100831,0.0512559 0,0 -0.0654134,0.026252 -0.100831,-0.0512559z"/>
  <path class="fil3" d="M3.36767 2.31455c0,0 0.0550827,-0.0806772 0.111339,-0.0199606 0,0 -0.0363307,0.0604055 -0.111339,0.0199606z"/>
  <path class="fil3" d="M3.505 2.28141c0,0 0.0411614,-0.0602874 0.0831929,-0.0149173 0,0 -0.0271457,0.0451378 -0.0831929,0.0149173z"/>
 </g>
</svg>
