<?xml version="1.0" encoding="UTF-8"?>
<!DOCTYPE svg PUBLIC "-//W3C//DTD SVG 1.1//EN" "http://www.w3.org/Graphics/SVG/1.1/DTD/svg11.dtd">
<!-- Creator: CorelDRAW -->
<svg xmlns="http://www.w3.org/2000/svg" xml:space="preserve" width="6.82666in" height="6.82666in" style="shape-rendering:geometricPrecision; text-rendering:geometricPrecision; image-rendering:optimizeQuality; fill-rule:evenodd; clip-rule:evenodd"
viewBox="0 0 6.82666 6.82666"
 xmlns:xlink="http://www.w3.org/1999/xlink">
 <defs>
  <style type="text/css">
   <![CDATA[
    .fil10 {fill:none}
    .fil8 {fill:#666666}
    .fil1 {fill:#805E51}
    .fil6 {fill:#AA6021}
    .fil5 {fill:#CD7C3A}
    .fil4 {fill:#E8BA31}
    .fil0 {fill:#F2C84B}
    .fil3 {fill:#FFD452}
    .fil9 {fill:#FFE8A3}
    .fil7 {fill:white}
    .fil2 {fill:#795548;fill-rule:nonzero}
   ]]>
  </style>
 </defs>
 <g id="Layer_x0020_1">
  <metadata id="CorelCorpID_0Corel-Layer"/>
  <g id="_215568144">
   <g>
    <path id="_215570760" class="fil0" d="M3.38793 4.73364c0.0840315,0.0412874 0.212079,0.042748 0.29611,0.00400394l-0.0300118 0.212079c-0.00970866,0.0686378 -0.0567205,0.126043 -0.126047,0.126043l0 0c-0.0693268,0 -0.121567,-0.0568622 -0.126043,-0.126043l-0.0140079 -0.216083z"/>
    <g>
     <path id="_215570736" class="fil1" d="M3.72601 5.4509c0,0 -0.0340118,0.0190079 -0.0360118,0.0490197 -0.00199606,0.0300118 -0.00199606,0.0300118 -0.00199606,0.0300118 0,0 -0.0440157,0.007 -0.0560236,0.0330118 -0.0120039,0.0260079 -0.0180039,0.0570197 -0.0180039,0.0570197l-0.0760315 -0.0860354 0.00100394 -0.0840276 0.109035 -0.0200079 0.0780276 0.0210079z"/>
     <path id="_215570328" class="fil2" d="M3.54181 5.04805c-0.00314961,-0.0137559 -0.0168543,-0.0223543 -0.0306102,-0.0192087 -0.0137559,0.00314961 -0.0223543,0.0168543 -0.0192047,0.0306102 0.00730709,0.0315354 0.00459843,0.086815 0.00172047,0.145516 -0.00430315,0.087811 -0.00895669,0.182799 0.0183858,0.236524 0.00640551,0.0125945 0.021815,0.0176102 0.0344094,0.0112047 0.0125945,-0.00640945 0.0176102,-0.021815 0.0112047,-0.0344094 -0.0212756,-0.0417913 -0.0169646,-0.129677 -0.0129843,-0.210913 0.00305512,-0.062378 0.00593701,-0.121118 -0.00292126,-0.159323z"/>
     <path id="_215570184" class="fil2" d="M3.57986 5.63686c0.00933465,0.0105512 0.0254606,0.0115394 0.0360118,0.00220472 0.0105512,-0.00933465 0.0115354,-0.0254646 0.00220079,-0.0360118 -0.0278465,-0.031563 -0.0462087,-0.0620157 -0.0568465,-0.0911496 -0.00764961,-0.0209252 -0.0113031,-0.0412441 -0.0116535,-0.0608504 0.0130394,0.00187795 0.0282598,0.00344094 0.0442874,0.00472047 0.0489488,0.00391732 0.107177,0.00572835 0.130154,0.00572835l0.0130039 0c0.0141457,0 0.0256102,-0.0114685 0.0256102,-0.0256102 0,-0.0141457 -0.0114646,-0.0256102 -0.0256102,-0.0256102l-0.0130039 0c-0.0224173,0 -0.0789606,-0.00174803 -0.126154,-0.00551969 -0.027626,-0.00220472 -0.0513465,-0.00490551 -0.0611339,-0.00793701 -0.00224409,-0.00104331 -0.00467323,-0.00177165 -0.00724409,-0.00212992 -0.0140079,-0.00195669 -0.0269528,0.00781496 -0.0289055,0.0218189l0.0253622 0.00354331 -0.0253071 -0.00350394c-0.00500394,0.0358228 -0.00174409,0.0735512 0.0125787,0.112752 0.012752,0.0349094 0.0342992,0.0708898 0.0666496,0.107555z"/>
     <path id="_215570304" class="fil2" d="M3.55055 5.41479c-0.00834252,-0.0113819 -0.0243346,-0.0138465 -0.0357126,-0.00550394 -0.0113819,0.00834252 -0.0138465,0.0243346 -0.00550394,0.0357126 0.00752756,0.010248 0.0405039,0.0330512 0.0745591,0.053815 0.0344409,0.0209921 0.0718661,0.0412283 0.0857992,0.0448228 0.0136457,0.00347638 0.0275354,-0.00475984 0.0310118,-0.0184055 0.00348031,-0.0136457 -0.00475984,-0.0275354 -0.0184055,-0.0310118 -0.00883858,-0.00227953 -0.0406732,-0.0200551 -0.0717953,-0.0390236 -0.0294252,-0.0179409 -0.0564843,-0.0356811 -0.0599528,-0.0404055z"/>
    </g>
   </g>
   <g>
    <path id="_215569800" class="fil3" d="M4.59994 2.55301c0.827661,0.824209 0.307594,2.48919 -1.31209,2.42353 -1.30195,0 -1.84969,-0.967205 -1.84969,-1.62817 0,-0.660906 0.0489094,-0.749976 0.150236,-0.727567 0.101299,0.0223898 0.00664961,0.322705 0.298705,0.388791 0.29315,0.0663622 1.12945,-0.196217 1.31095,-0.467209 0.0564252,-0.0842402 0.106579,-0.161724 0.052685,-0.301394 -0.0539134,-0.139665 1.39742,-0.443398 1.34921,0.312012z"/>
    <path id="_215569632" class="fil0" d="M4.06454 2.71161c0.492067,0 0.893413,-0.36028 0.893413,-0.801996 0,-0.441689 -0.401346,-0.801976 -0.893413,-0.801976 -0.492067,0 -0.893409,0.360287 -0.893409,0.801976 0,0.441717 0.401343,0.801996 0.893409,0.801996z"/>
    <path id="_215569608" class="fil4" d="M4.22954 3.66924c0.00015748,0.282957 -0.241134,0.754209 -0.968228,0.754209 -0.727102,0 -1.21257,-0.538843 -1.21257,-1.0313 0,-0.492457 0.168209,0.0969803 0.600862,0.0969803 0.432677,0 0.521016,-0.336382 0.929665,-0.336382 0.408646,0 0.650075,0.194988 0.650276,0.516488z"/>
    <path id="_215569536" class="fil5" d="M4.93636 1.91563c-0.0611102,-0.0603701 -0.218445,0.0157126 -0.25039,0.243602 -0.0294449,0.210394 0.049437,0.235244 0.187709,0.250791 0.137898,-0.00167323 0.556756,0.0340906 0.497846,-0.113717 0.105776,-0.14948 -0.312346,-0.0457205 -0.435165,-0.380677z"/>
    <path id="_215569392" class="fil6" d="M4.68257 2.18763c0.173232,0.21778 0.634012,0.136406 0.685866,0.109705 -0.0371024,-0.00790945 -0.49074,0.0566614 -0.685866,-0.109705z"/>
    <path id="_215569656" class="fil6" d="M4.8472 2.02319c0.0134213,0.0112402 -0.0122165,0.0276378 -0.0338189,0.0575472 -0.0215866,0.0298858 -0.0309528,0.0619882 -0.0443465,0.050752 -0.0134055,-0.0112598 -0.0114331,-0.0569646 0.0101654,-0.086874 0.0215787,-0.0299173 0.0545787,-0.0326772 0.068,-0.0214252z"/>
    <path id="_215569848" class="fil7" d="M4.52128 1.97811c0.0876535,0 0.159142,-0.0714685 0.159142,-0.159142 0,-0.0876457 -0.0714882,-0.159146 -0.159142,-0.159146 -0.0876417,0 -0.159134,0.0715 -0.159134,0.159146 0,0.0876732 0.0714921,0.159142 0.159134,0.159142z"/>
    <path id="_215569512" class="fil8" d="M4.58083 1.87048c0.0398583,0 0.0723543,-0.0325 0.0723543,-0.0723543 0,-0.0398465 -0.0324961,-0.0723425 -0.0723543,-0.0723425 -0.0398465,0 -0.0723425,0.0324961 -0.0723425,0.0723425 0,0.0398543 0.0324961,0.0723543 0.0723425,0.0723543z"/>
    <path id="_215569896" class="fil3" d="M4.21899 3.68641c0.00015748,0.25313 -0.282035,0.622744 -0.96452,0.622744 -0.682441,0 -1.17316,-0.455669 -1.17316,-0.896122 0,-0.440516 0.157906,0.0911024 0.563996,0.0911024 0.406118,0 0.53585,-0.318969 0.919394,-0.318969 0.383543,0 0.654063,0.213665 0.654287,0.501244z"/>
    <path id="_215568672" class="fil4" d="M4.51783 1.23314c-0.282717,-0.132531 -0.287909,-0.268161 -0.29313,-0.356984 -0.00519291,-0.0887992 -0.202126,0.167984 -0.0593819,0.345831 0.142744,0.177846 0.882339,0.589303 0.352512,0.0111535z"/>
    <path id="_215568600" class="fil3" d="M4.31468 1.22846c-0.282713,-0.13252 -0.287902,-0.268154 -0.293126,-0.356984 -0.00518898,-0.0888228 -0.202122,0.167992 -0.0593819,0.345831 0.142744,0.177846 0.882339,0.58928 0.352508,0.0111535z"/>
    <path id="_215569176" class="fil4" d="M2.13143 3.69767c0.0828898,0.226441 0.481181,0.463094 0.86226,0.289362 -0.168677,0.132339 -0.709846,0.201197 -0.86226,-0.289362z"/>
    <path id="_215568984" class="fil9" d="M3.96179 3.35653c-0.401972,-0.0662205 -0.727102,0.087374 -0.936728,0.182138 0.165736,-0.154201 0.50685,-0.395524 0.936728,-0.182138z"/>
    <path id="_215568960" class="fil4" d="M4.59913 2.55038c-0.245173,0.297602 -1.16756,0.301063 -1.33351,-0.275354 0.352531,0.546075 1.06952,0.466272 1.33351,0.275354z"/>
    <path id="_215569344" class="fil4" d="M4.7463 4.3063c-0.212488,0.344764 -0.647177,0.67024 -1.45845,0.67024 -0.678957,0 -1.1527,-0.263075 -1.45071,-0.608524 0.772386,0.660276 2.26086,0.723945 2.90917,-0.0617165z"/>
    <path id="_215568864" class="fil4" d="M2.31404 3.93684c0.104925,0.21711 0.524709,0.41313 0.886693,0.202484 -0.154732,0.148406 -0.686413,0.270555 -0.886693,-0.202484z"/>
    <path id="_215568816" class="fil4" d="M2.05987 3.33169c0.0177835,0.202976 0.29063,0.483705 0.639756,0.425846 -0.16674,0.0708386 -0.623386,0.00790551 -0.639756,-0.425846z"/>
   </g>
   <g>
    <path id="_215568096" class="fil0" d="M2.95117 4.72382c0.11515,0.0565748 0.290618,0.0585748 0.405768,0.00548425l-0.041126 0.290618c-0.0133071,0.0940591 -0.0777244,0.172724 -0.172724,0.172724l0 0c-0.095,0 -0.166587,-0.0779252 -0.172724,-0.172724l-0.0191929 -0.296102z"/>
    <g>
     <path id="_215568120" class="fil1" d="M3.41445 5.7067c0,0 -0.0466063,0.0260433 -0.0493465,0.0671693 -0.00274016,0.041126 -0.00274016,0.041126 -0.00274016,0.041126 0,0 -0.0603189,0.00959449 -0.0767677,0.0452362 -0.0164528,0.0356417 -0.0246732,0.0781378 -0.0246732,0.0781378l-0.104185 -0.117894 0.00137008 -0.11515 0.149417 -0.0274173 0.106925 0.0287913z"/>
     <path id="_215568432" class="fil2" d="M3.16203 5.15467c-0.00431496,-0.0188504 -0.0230945,-0.0306339 -0.0419449,-0.0263189 -0.0188504,0.00431496 -0.0306378,0.0230945 -0.0263228,0.0419449 0.0100197,0.0432087 0.00630709,0.118961 0.00236614,0.199406 -0.00590157,0.120327 -0.0122795,0.250496 0.025189,0.32411 0.00877953,0.0172598 0.0298937,0.0241339 0.0471535,0.0153543 0.0172598,-0.00877953 0.0241299,-0.0298937 0.0153543,-0.0471535 -0.0291535,-0.0572638 -0.0232441,-0.177697 -0.0177913,-0.28902 0.00418504,-0.0854764 0.00813386,-0.165969 -0.00400394,-0.218323z"/>
     <path id="_215568000" class="fil2" d="M3.21417 5.96154c0.0127913,0.0144567 0.0348937,0.0158071 0.0493504,0.00301575 0.0144567,-0.0127913 0.0158071,-0.0348898 0.00301575,-0.0493465 -0.0381614,-0.043252 -0.0633189,-0.0849843 -0.0779016,-0.124906 -0.0104803,-0.0286772 -0.0154843,-0.0565157 -0.0159646,-0.0833858 0.0178661,0.0025748 0.0387244,0.00471654 0.060689,0.00647244 0.0670748,0.0053622 0.146862,0.00784646 0.178346,0.00784646l0.0178228 0c0.0193819,0 0.0350945,-0.0157126 0.0350945,-0.0350945 0,-0.0193819 -0.0157126,-0.0350945 -0.0350945,-0.0350945l-0.0178228 0c-0.0307165,0 -0.108201,-0.00239764 -0.17287,-0.00756693 -0.0378583,-0.00301969 -0.0703622,-0.00671654 -0.0837756,-0.010874 -0.00307087,-0.0014252 -0.00639764,-0.0024252 -0.0099252,-0.00291732 -0.0191929,-0.00267717 -0.0369331,0.0107087 -0.0396102,0.0299016l0.0347559 0.00485039 -0.0346811 -0.00479921c-0.00685433,0.0490866 -0.00238583,0.100791 0.0172402,0.154508 0.0174724,0.0478386 0.0470039,0.0971417 0.0913307,0.14739z"/>
     <path id="_215567904" class="fil2" d="M3.17401 5.65721c-0.0114331,-0.0155906 -0.0333465,-0.0189685 -0.0489409,-0.00753937 -0.0155906,0.0114331 -0.0189685,0.0333465 -0.00753937,0.0489409 0.010311,0.0140433 0.0555039,0.0452913 0.102173,0.0737402 0.0471929,0.0287677 0.0984764,0.0565 0.117571,0.0614213 0.0186969,0.00476772 0.0377323,-0.00652362 0.0425,-0.0252205 0.00476378,-0.0186969 -0.00652756,-0.0377323 -0.0252244,-0.0424961 -0.0121102,-0.00312205 -0.0557402,-0.0274803 -0.0983819,-0.0534724 -0.0403268,-0.0245866 -0.0774055,-0.0488976 -0.0821575,-0.055374z"/>
    </g>
   </g>
  </g>
  <rect class="fil10" width="6.82666" height="6.82666"/>
 </g>
</svg>
