<?xml version="1.0" encoding="UTF-8"?>
<!DOCTYPE svg PUBLIC "-//W3C//DTD SVG 1.1//EN" "http://www.w3.org/Graphics/SVG/1.1/DTD/svg11.dtd">
<!-- Creator: CorelDRAW -->
<svg xmlns="http://www.w3.org/2000/svg" xml:space="preserve" width="6.82666in" height="6.82666in" style="shape-rendering:geometricPrecision; text-rendering:geometricPrecision; image-rendering:optimizeQuality; fill-rule:evenodd; clip-rule:evenodd"
viewBox="0 0 6.82666 6.82666"
 xmlns:xlink="http://www.w3.org/1999/xlink">
 <defs>
  <style type="text/css">
   <![CDATA[
    .str0 {stroke:#424242;stroke-width:0.0333346;stroke-linecap:round;stroke-linejoin:round}
    .fil9 {fill:none}
    .fil7 {fill:#424242}
    .fil4 {fill:#466016}
    .fil5 {fill:#7CA72A}
    .fil6 {fill:#AED581}
    .fil8 {fill:#E8F5E9}
    .fil2 {fill:#2D440A;fill-rule:nonzero}
    .fil1 {fill:#33691E;fill-rule:nonzero}
    .fil0 {fill:#5D8016;fill-rule:nonzero}
    .fil3 {fill:#7CA72A;fill-rule:nonzero}
   ]]>
  </style>
 </defs>
 <g id="Layer_x0020_1">
  <metadata id="CorelCorpID_0Corel-Layer"/>
  <path class="fil0" d="M3.41014 0.934248c0.165335,0 0.313346,0.114547 0.425732,0.269083 0.134205,0.184524 0.219378,0.42985 0.219378,0.597941 0,0.158957 -0.073248,0.302531 -0.191661,0.406142 -0.116504,0.101941 -0.27687,0.164996 -0.453449,0.164996 -0.176587,0 -0.336949,-0.0630551 -0.453453,-0.164996 -0.118413,-0.10361 -0.191661,-0.247181 -0.191661,-0.406142 0,-0.168091 0.0851772,-0.413413 0.219382,-0.597941 0.112386,-0.154535 0.260398,-0.269083 0.425732,-0.269083z"/>
  <g id="_215544768">
   <path id="_215544024" class="fil1" d="M3.11563 1.05819c0.0241811,-0.0209449 0.0492913,-0.0397835 0.0752323,-0.056063 0.014378,0.00901575 0.0239646,0.025185 0.0239646,0.0436299 0,0.0282874 -0.0225394,0.0512165 -0.0503465,0.0512165 -0.0235906,0 -0.0433858,-0.0165039 -0.0488504,-0.0387835z"/>
   <path id="_215544336" class="fil1" d="M3.62942 1.00213c0.0259409,0.0162795 0.0510512,0.0351181 0.0752323,0.056063 -0.00546457,0.0222795 -0.0252598,0.0387835 -0.0488504,0.0387835 -0.0278071,0 -0.0503465,-0.0229291 -0.0503465,-0.0512165 0,-0.0184449 0.00958661,-0.0346142 0.0239646,-0.0436299z"/>
  </g>
  <path class="fil2" d="M3.41014 2.28904c0.406232,0 0.773335,0.203335 1.03845,0.532079 0.262488,0.325484 0.424846,0.774413 0.424846,1.26961 0,0.495197 -0.162358,0.944126 -0.424846,1.26961 -0.265114,0.328744 -0.632217,0.532079 -1.03845,0.532079 -0.406232,0 -0.773339,-0.203335 -1.03845,-0.532079 -0.262488,-0.325484 -0.424846,-0.774413 -0.424846,-1.26961 0,-0.495197 0.162358,-0.944126 0.424846,-1.26961 0.265114,-0.328744 0.63222,-0.532079 1.03845,-0.532079z"/>
  <path class="fil3" d="M2.33277 2.8713c0.0127165,-0.0170276 0.0256811,-0.0337717 0.0389173,-0.0501811 0.145681,-0.180646 0.322169,-0.323409 0.519016,-0.41539l0 0.253827 -0.229114 0.135315 -0.229114 0.135319 -0.0997047 -0.0588898z"/>
  <path class="fil3" d="M3.8857 2.38622c0.214524,0.0906417 0.406457,0.240933 0.562882,0.434898 0.00762598,0.00945669 0.0151614,0.0190236 0.0226142,0.028689l-0.127268 0.0751693 -0.229114 -0.135319 -0.229114 -0.135315 0 -0.268122z"/>
  <path class="fil3" d="M3.41014 2.28904c0.152488,0 0.299465,0.0286535 0.437598,0.0818346l0 0.0102323 0 0.270634 -0.229114 0.135315 -0.229114 0.135319 -0.229114 -0.135319 -0.229114 -0.135315 0 -0.264114c0.149996,-0.063878 0.311087,-0.0985866 0.478858,-0.0985866z"/>
  <path class="fil3" d="M2.88028 5.77079c-0.192654,-0.0921142 -0.365492,-0.233 -0.508598,-0.410453 -0.00847638,-0.0105079 -0.0168425,-0.0211496 -0.0251063,-0.0319134l0.0754764 -0.0445787 0.229114 0.135319 0.229114 0.135315 0 0.216311z"/>
  <path class="fil3" d="M4.45532 5.35189c-0.00224409,0.0028189 -0.00447638,0.00564961 -0.00673228,0.00844882 -0.15198,0.188457 -0.337484,0.335669 -0.544654,0.42702l0 -0.219854 0.229114 -0.135315 0.229114 -0.135319 0.0931575 0.0550197z"/>
  <path class="fil3" d="M3.84643 5.81108c-0.137756,0.0528583 -0.284283,0.0813346 -0.436291,0.0813346 -0.16826,0 -0.329795,-0.0349173 -0.480165,-0.0991457l0 -0.236185 0.229114 -0.135315 0.229114 -0.135319 0.229114 0.135319 0.229114 0.135315 0 0.253996z"/>
  <path class="fil3" d="M2.32206 5.29567c-0.17035,-0.23311 -0.292059,-0.521535 -0.345276,-0.840646l0.197906 0.112563 0.237921 0.135315 0 0.270634 0 0.270634 -0.0905512 0.0515z"/>
  <path class="fil3" d="M1.96585 4.38176c-0.0125,-0.094752 -0.0190157,-0.191965 -0.0190157,-0.291039 0,-0.0990748 0.00651575,-0.196287 0.0190157,-0.291039l0.470921 -0.250228 0.237917 0.135319 0.237921 0.135315 0 0.270634 0 0.270634 -0.237921 0.135315 -0.237917 0.135319 -0.237921 -0.135319 -0.233 -0.114909z"/>
  <path class="fil3" d="M1.97683 3.72615c0.0517323,-0.309996 0.168122,-0.591012 0.330925,-0.820488l0.0995276 0.052437 0 0.270634 0 0.281051 -0.256846 0.124898 -0.173606 0.0914685z"/>
  <path class="fil3" d="M4.49735 2.88459c0.17135,0.234063 0.293622,0.524024 0.346657,0.844898l-0.204646 -0.107819 -0.256846 -0.135315 0 -0.270634 0 -0.270634 0.114835 -0.0604961z"/>
  <path class="fil3" d="M4.8417 4.46552c-0.0535157,0.311425 -0.172327,0.593228 -0.337866,0.822398l-0.097874 -0.051563 0 -0.270634 0 -0.270634 0.256846 -0.135315 0.178894 -0.094252z"/>
  <path class="fil3" d="M4.85453 3.80052c0.0124252,0.0944882 0.0189055,0.191421 0.0189055,0.290201 0,0.0987795 -0.00648031,0.195713 -0.0189055,0.290201l-0.219709 0.115748 -0.256839 0.135319 -0.256843 -0.135319 -0.256846 -0.135315 0 -0.270634 0 -0.270634 0.256846 -0.135315 0.256843 -0.135319 0.256839 0.135319 0.219709 0.115748z"/>
  <path class="fil4" d="M2.07039 3.36492c0.070815,-0.197976 0.169693,-0.377272 0.290382,-0.530134 -0.0711811,-0.0306063 -0.180598,-0.0853346 -0.253264,-0.158 -0.0519724,-0.0519724 -0.0969685,-0.115051 -0.1375,-0.182272 -0.0384488,-0.063752 -0.0738425,-0.133555 -0.107449,-0.200756 -0.017126,-0.0342402 -0.0324685,-0.0527835 -0.0458622,-0.0593976 -0.00375197,-0.00185433 -0.00770079,-0.00158268 -0.0115866,0.00026378 -0.00977953,0.00464567 -0.0202835,0.0153071 -0.0306969,0.0299882 -0.0331063,0.0466654 -0.056122,0.121772 -0.0582165,0.187846 -0.00788583,0.248394 0.248524,0.726516 0.354193,0.912461z"/>
  <path class="fil4" d="M2.32879 5.30484c-0.113028,-0.152563 -0.205075,-0.32926 -0.270465,-0.523051 -0.11185,0.198965 -0.34972,0.651713 -0.342122,0.891098 0.00209449,0.0660748 0.0251102,0.141181 0.0582165,0.187846 0.0104134,0.0146811 0.0209173,0.0253425 0.0306969,0.0299882 0.00388583,0.00184646 0.00783465,0.00211811 0.0115866,0.00026378 0.0133937,-0.00661417 0.0287362,-0.0251575 0.0458622,-0.0593976 0.0336063,-0.0672008 0.069,-0.137004 0.107449,-0.200756 0.0405315,-0.0672205 0.0855276,-0.130299 0.1375,-0.182272 0.0624803,-0.0624803 0.152122,-0.111697 0.221276,-0.14372z"/>
  <path class="fil4" d="M4.49311 5.30265c0.0697559,0.0319488 0.162118,0.0819921 0.226043,0.145917 0.0519724,0.0519724 0.0969685,0.115051 0.1375,0.182272 0.0384488,0.063752 0.0738425,0.133555 0.107449,0.200756 0.017126,0.0342402 0.0324685,0.0527835 0.0458622,0.0593976 0.00375197,0.00185433 0.00770079,0.00158268 0.0115866,-0.00026378 0.00977953,-0.00464567 0.0202835,-0.0153071 0.0306969,-0.0299882 0.0331063,-0.0466654 0.056122,-0.121772 0.0582165,-0.187846 0.00769291,-0.242283 -0.236067,-0.703126 -0.346126,-0.898209 -0.0652205,0.19565 -0.157563,0.374035 -0.271228,0.527965z"/>
  <path class="fil4" d="M4.75233 3.37182c0.103079,-0.180728 0.36611,-0.667831 0.358126,-0.919366 -0.00209449,-0.0660748 -0.0251102,-0.141181 -0.0582165,-0.187846 -0.0104134,-0.0146811 -0.0209173,-0.0253425 -0.0306969,-0.0299882 -0.00388583,-0.00184646 -0.00783465,-0.00211811 -0.0115866,-0.00026378 -0.0133937,0.00661417 -0.0287362,0.0251575 -0.0458622,0.0593976 -0.0336063,0.0672008 -0.069,0.137004 -0.107449,0.200756 -0.0405315,0.0672205 -0.0855276,0.130299 -0.1375,0.182272 -0.074315,0.074315 -0.187063,0.129866 -0.258043,0.160043 0.121358,0.154193 0.220563,0.335165 0.291228,0.534996z"/>
  <polygon class="fil5" points="2.91164,2.6953 3.14075,2.83061 3.36987,2.96593 3.36987,3.23656 3.36987,3.5072 2.93507,3.7583 2.45341,3.5072 2.45341,3.23656 2.45341,2.96593 2.68252,2.83061 "/>
  <polygon class="fil5" points="3.86877,2.6953 3.64247,2.83061 3.41618,2.96593 3.41618,3.23656 3.41618,3.5072 3.64247,3.64251 3.84533,3.7622 4.09507,3.64251 4.32136,3.5072 4.32136,3.23656 4.32136,2.96593 4.09507,2.83061 "/>
  <polygon class="fil5" points="2.91164,4.42446 3.14075,4.55978 3.36987,4.6951 3.36987,4.96573 3.36987,5.23637 3.14075,5.37168 2.91164,5.507 2.68252,5.37168 2.45341,5.23637 2.45341,4.96573 2.45341,4.6951 2.68252,4.55978 "/>
  <polygon class="fil5" points="3.87996,4.42446 3.64807,4.55978 3.41618,4.6951 3.41618,4.96573 3.41618,5.23637 3.64807,5.37168 3.87996,5.507 4.11185,5.37168 4.34374,5.23637 4.34374,4.96573 4.34374,4.6951 4.11185,4.55978 "/>
  <path class="fil3" d="M2.98183 4.38176c-0.0109488,-0.094752 -0.0166535,-0.191965 -0.0166535,-0.291039 0,-0.0990748 0.00570472,-0.196287 0.0166535,-0.291039l0.412409 -0.250228 0.208354 0.135319 0.208358 0.135315 0 0.270634 0 0.270634 -0.208358 0.135315 -0.208354 0.135319 -0.208362 -0.135319 -0.204047 -0.114909z"/>
  <ellipse class="fil6 str0" cx="3.01076" cy="1.46413" rx="0.180555" ry="0.243055"/>
  <ellipse class="fil6 str0" cx="3.79201" cy="1.46413" rx="0.180555" ry="0.243055"/>
  <ellipse class="fil7" cx="3.07587" cy="1.41552" rx="0.0972283" ry="0.130884"/>
  <ellipse class="fil7" cx="3.72691" cy="1.41552" rx="0.0972283" ry="0.130884"/>
  <ellipse class="fil8" cx="3.0967" cy="1.46066" rx="0.0354461" ry="0.0477159"/>
  <ellipse class="fil8" cx="3.70607" cy="1.46066" rx="0.0354461" ry="0.0477159"/>
  <rect class="fil9" width="6.82666" height="6.82666"/>
 </g>
</svg>
