<?xml version="1.0" encoding="UTF-8"?>
<!DOCTYPE svg PUBLIC "-//W3C//DTD SVG 1.1//EN" "http://www.w3.org/Graphics/SVG/1.1/DTD/svg11.dtd">
<!-- Creator: CorelDRAW -->
<svg xmlns="http://www.w3.org/2000/svg" xml:space="preserve" width="6.82666in" height="6.82666in" style="shape-rendering:geometricPrecision; text-rendering:geometricPrecision; image-rendering:optimizeQuality; fill-rule:evenodd; clip-rule:evenodd"
viewBox="0 0 6.82666 6.82666"
 xmlns:xlink="http://www.w3.org/1999/xlink">
 <defs>
  <style type="text/css">
   <![CDATA[
    .fil7 {fill:none}
    .fil5 {fill:#4D4D4D}
    .fil0 {fill:#6B5B50}
    .fil3 {fill:#897769}
    .fil1 {fill:#AA978A}
    .fil6 {fill:#BDBDBD}
    .fil4 {fill:white}
    .fil2 {fill:#6B5B50;fill-rule:nonzero}
   ]]>
  </style>
 </defs>
 <g id="Layer_x0020_1">
  <metadata id="CorelCorpID_0Corel-Layer"/>
  <path class="fil0" d="M1.9111 3.17128c0.00602362,0.0515591 0.0138386,0.103185 0.0234213,0.154583 0.0413858,0.221988 0.189618,0.364646 0.208213,0.628744 0.00701969,0.385528 -0.127421,0.268445 -0.10285,0.504713 0.029626,0.284866 0.0164606,0.55811 0.0611811,0.743287l0 0.0533346 0.0533346 0 0.536028 0 0.0511181 0 0.00200787 -0.051252c0.0324173,-0.224567 -0.112315,-0.220713 -0.19415,-0.321004 0.0486142,-0.240035 0.20139,-0.534236 0.154169,-0.965941 0.0513465,0.0520945 0.0993701,0.0977244 0.147752,0.136469l0 -0.882933 -0.940224 0z"/>
  <path class="fil0" d="M4.55951 3.56856c-0.0307913,0.214051 -0.0172323,1.18261 0.0187795,1.34849 0.0360118,0.165878 0.155594,0.200205 0.171748,0.278248 0.0161535,0.0780512 0.00983465,0.144488 -0.212016,0.139138 -0.221858,-0.00535039 -0.314858,-0.00535039 -0.257902,-0.203346 0.0569606,-0.197992 -0.0550669,-0.813374 -0.186965,-0.963197 -0.131913,-0.149835 0.0552165,-0.973902 0.466354,-0.599331z"/>
  <path class="fil1" d="M4.76443 3.39402c-0.193957,0.0210787 -0.346079,-0.109957 -0.449961,-0.253571 -0.201028,-0.277925 -0.300197,-0.585138 -0.222496,-0.921839 0.0341063,-0.147799 0.103858,-0.218185 0.219945,-0.322343 0.0649567,-0.0582874 0.141941,-0.111969 0.218945,-0.154394 0.0595591,-0.032811 0.14102,-0.0610787 0.207134,-0.0773228 0.317547,-0.0780276 0.527433,0.0724724 0.552992,0.361583 0.0312598,0.353476 -0.0352638,0.670555 -0.165701,1.01798 -0.0557087,0.148382 -0.173244,0.349902 -0.360339,0.349902l-0.000519685 0z"/>
  <path class="fil2" d="M0.821965 3.38672c-0.0232402,-0.0179488 -0.0275315,-0.0513425 -0.00958268,-0.0745827 0.0179488,-0.0232402 0.0513425,-0.0275315 0.0745827,-0.00958268 0.0662126,0.0510315 0.149472,0.0826102 0.232358,0.0826102 0.0435118,0 0.0865906,-0.00866142 0.126524,-0.027752 0.0404173,-0.0193228 0.0784882,-0.0495748 0.111661,-0.092622 0.0479843,-0.0622598 0.154217,-0.404854 0.154217,-0.481677 0,-0.0294528 0.0238819,-0.0533346 0.0533346,-0.0533346 0.0294528,0 0.0533346,0.0238819 0.0533346,0.0533346 0,0.258925 -0.090626,0.434969 -0.17672,0.546677 -0.043752,0.0567717 -0.0949528,0.0971417 -0.149992,0.123457 -0.0555236,0.0265472 -0.11413,0.0385866 -0.172358,0.0385866 -0.106598,0 -0.21311,-0.040185 -0.297358,-0.105114z"/>
  <path class="fil3" d="M5.68004 2.75052c0.0768898,0.749154 0.172449,0.579555 0.288224,1.17247 0.10889,0.557587 0.0408189,1.02062 -0.269472,1.1676 -0.310268,0.14698 -0.646965,-0.0557795 -0.66628,-0.357709 -0.0163346,-0.255276 0.249882,-0.409791 0.437665,-0.352642 0.0698701,0.0212441 0.13426,-0.00556299 0.145386,0.0477008 0.0283346,0.135583 -0.104327,0.316055 -0.137213,0.205402 -0.0489882,-0.164819 -0.30702,-0.0407756 -0.217933,0.15598 0.0707992,0.15637 0.421724,0.0644961 0.474004,-0.29102 0.0408228,-0.27761 -0.0437835,-0.76311 -0.305059,-0.738622 -0.26128,0.0245039 -0.306953,-0.020626 -0.43061,-0.183917 -0.153984,-0.203346 -1.01461,-0.0528583 -1.01461,-0.861197 0.0108583,-1.06403 0.812752,-1.04512 1.35216,-0.75822 0.249917,0.132929 0.334697,0.521701 0.343736,0.794173z"/>
  <path class="fil0" d="M5.00148 2.62601c0.0938189,-0.00735827 0.17587,0.0627362 0.183228,0.156579 0.00737402,0.0938228 -0.0627402,0.175866 -0.156567,0.18324 -0.0938386,0.00735827 -0.175882,-0.0627323 -0.18324,-0.156575 -0.00735827,-0.0938465 0.0627362,-0.17587 0.156579,-0.183244z"/>
  <path class="fil4" d="M5.01333 2.65899c0.0839803,-0.00659843 0.157398,0.0561417 0.163984,0.140102 0.00659843,0.0839606 -0.0561457,0.157382 -0.140102,0.163984 -0.0839803,0.00658268 -0.157398,-0.0561457 -0.16398,-0.140122 -0.00658268,-0.0839606 0.0561417,-0.157378 0.140098,-0.163965z"/>
  <path class="fil5" d="M5.09704 2.73957c0.0296654,-0.00232283 0.0555945,0.0198307 0.0579291,0.0494961 0.00232283,0.0296654 -0.0198425,0.0555906 -0.0494961,0.0579291 -0.0296693,0.0023189 -0.0555945,-0.0198425 -0.0579291,-0.0494961 -0.00232283,-0.0296693 0.0198307,-0.0556102 0.0494961,-0.0579291z"/>
  <path class="fil0" d="M5.25514 3.76361c-0.113232,-0.0642244 -0.206012,-0.173197 -0.265772,-0.284528 -0.0707992,-0.131937 -0.100969,-0.271213 -0.0838425,-0.359638 0.00205118,-0.0108189 -0.00503543,-0.0212638 -0.0158425,-0.0233346 -0.0108189,-0.00205118 -0.0212638,0.00503937 -0.0233307,0.0158386 -0.0187047,0.0966142 0.0128701,0.246189 0.0879291,0.386008 0.0369331,0.0688346 0.0845039,0.135583 0.141843,0.192783 0.0700866,0.0629685 0.131748,0.0673937 0.159016,0.0728701z"/>
  <path class="fil3" d="M4.47359 3.29522c-0.151902,0.385067 -0.478409,0.562291 -0.713713,0.224445 -0.245268,-0.352154 -0.0928268,-0.896583 0.255567,-1.22122 0.00431102,-0.00401575 0.00865748,-0.00798425 0.0130394,-0.0118976l-0.00659843 -0.00106299 0.0170197 -0.105335c0.0162441,-0.100528 0.0450276,-0.198457 0.0855276,-0.291028 -0.552484,0.197224 -1.02163,0.477776 -1.69079,0.2 -0.903354,0 -1.09868,0.757346 -0.965795,1.47006 0.0413858,0.221988 0.189618,0.364646 0.208213,0.628744 0.00701969,0.385528 -0.127421,0.268445 -0.10285,0.504713 0.029626,0.284866 0.0164606,0.55811 0.0611811,0.743287l0 0.0533346 0.0533346 0 0.536028 0 0.0511181 0 0.00200787 -0.051252c0.0324173,-0.224567 -0.112315,-0.220713 -0.19415,-0.321004 0.0486142,-0.240035 0.20139,-0.534236 0.154169,-0.965941 0.322835,0.327524 0.514071,0.400689 1.49144,0.0999764 0.0354291,0.468823 0.197638,0.747768 0.15,1.17087l0 0.0533346 0.0533346 0 0.507512 0 0.0674803 0c0.0402717,-0.208642 -0.039374,-0.335642 -0.185154,-0.35524 -0.0359921,-0.364209 0.0797362,-0.628933 0.0570512,-1.01123 -0.0163819,-0.276126 0.206016,-0.56122 0.205453,-0.773929 -0.037748,-0.0118268 -0.0758465,-0.0266339 -0.110429,-0.0396299z"/>
  <path class="fil1" d="M4.2311 3.92723c-0.193957,0.0255945 -0.346079,-0.133512 -0.449961,-0.30789 -0.201028,-0.337465 -0.300197,-0.710492 -0.222496,-1.11932 0.0341063,-0.179461 0.103858,-0.264925 0.219945,-0.391398 0.0649567,-0.0707717 0.141941,-0.135953 0.218945,-0.187465 0.0595591,-0.0398425 0.14102,-0.0741654 0.207134,-0.0938898 0.317547,-0.0947402 0.527433,0.0879961 0.552992,0.439043 0.0312598,0.429201 -0.0352638,0.814205 -0.165701,1.23606 -0.0557087,0.180169 -0.173244,0.424858 -0.360339,0.424858l-0.000519685 0z"/>
  <path class="fil6" d="M5.02689 3.41741c0.505811,0.34578 0.742193,0.406402 1.34464,0.443004 -0.507835,0.133154 -0.993528,-0.069811 -1.42002,-0.333031 -0.00310236,-0.0653504 0.0249803,-0.0989961 0.0753858,-0.109972z"/>
  <rect class="fil7" width="6.82666" height="6.82666"/>
 </g>
</svg>
