<?xml version="1.0" encoding="UTF-8"?>
<!DOCTYPE svg PUBLIC "-//W3C//DTD SVG 1.1//EN" "http://www.w3.org/Graphics/SVG/1.1/DTD/svg11.dtd">
<!-- Creator: CorelDRAW -->
<svg xmlns="http://www.w3.org/2000/svg" xml:space="preserve" width="6.82666in" height="6.82666in" style="shape-rendering:geometricPrecision; text-rendering:geometricPrecision; image-rendering:optimizeQuality; fill-rule:evenodd; clip-rule:evenodd"
viewBox="0 0 6.82666 6.82666"
 xmlns:xlink="http://www.w3.org/1999/xlink">
 <defs>
  <style type="text/css">
   <![CDATA[
    .fil16 {fill:none}
    .fil3 {fill:none;fill-rule:nonzero}
    .fil11 {fill:#373435;fill-rule:nonzero}
    .fil2 {fill:#B83209;fill-rule:nonzero}
    .fil4 {fill:#BF360C;fill-rule:nonzero}
    .fil0 {fill:#D13D10;fill-rule:nonzero}
    .fil1 {fill:#D84315;fill-rule:nonzero}
    .fil5 {fill:#E64A19;fill-rule:nonzero}
    .fil8 {fill:#F4511E;fill-rule:nonzero}
    .fil12 {fill:#FEFEFE;fill-rule:nonzero}
    .fil6 {fill:#FF8A65;fill-rule:nonzero}
    .fil7 {fill:#FFAB91;fill-rule:nonzero}
    .fil15 {fill:url(#id0);fill-rule:nonzero}
    .fil10 {fill:url(#id1);fill-rule:nonzero}
    .fil14 {fill:url(#id2);fill-rule:nonzero}
    .fil9 {fill:url(#id3);fill-rule:nonzero}
    .fil13 {fill:url(#id4);fill-rule:nonzero}
   ]]>
  </style>
  <linearGradient id="id0" gradientUnits="userSpaceOnUse" x1="1.57861" y1="3.16829" x2="1.74588" y2="3.16829">
   <stop offset="0" style="stop-color:#A45E3C"/>
   <stop offset="0.160784" style="stop-color:#754733"/>
   <stop offset="1" style="stop-color:#462F2A"/>
  </linearGradient>
  <linearGradient id="id1" gradientUnits="userSpaceOnUse" x1="1.87353" y1="2.90044" x2="1.95696" y2="2.90044">
   <stop offset="0" style="stop-color:#462F2A"/>
   <stop offset="0.870588" style="stop-color:#3F312F"/>
   <stop offset="1" style="stop-color:#373435"/>
  </linearGradient>
  <linearGradient id="id2" gradientUnits="userSpaceOnUse" xlink:href="#id1" x1="1.43211" y1="2.90617" x2="1.34867" y2="2.90617">
  </linearGradient>
  <linearGradient id="id3" gradientUnits="userSpaceOnUse" x1="1.7737" y1="2.91035" x2="1.83864" y2="2.91035">
   <stop offset="0" style="stop-color:#373435"/>
   <stop offset="0.2" style="stop-color:#3E3230"/>
   <stop offset="1" style="stop-color:#462F2A"/>
  </linearGradient>
  <linearGradient id="id4" gradientUnits="userSpaceOnUse" xlink:href="#id3" x1="1.53127" y1="2.91607" x2="1.46765" y2="2.91607">
  </linearGradient>
 </defs>
 <g id="Layer_x0020_1">
  <metadata id="CorelCorpID_0Corel-Layer"/>
  <g id="_215551320">
   <path id="_214715872" class="fil0" d="M1.78166 4.50339c0.0197913,-0.0599173 0.0385787,-0.120028 0.0686142,-0.175815 0.0107008,-0.019874 0.0284094,-0.0358189 0.0365354,-0.056622 0.00993701,-0.0254685 0.0058937,-0.0541929 0.00469291,-0.0807598 -0.00322835,-0.0715866 -0.026185,-0.125618 -0.0622205,-0.187622 -0.0274606,-0.0472441 -0.0372677,-0.101898 -0.0864843,-0.137516 -0.0416339,-0.030126 -0.0981181,-0.0445906 -0.144531,-0.0676063 -0.0339213,-0.0168228 -0.0582362,-0.0375394 -0.0960945,-0.0448819 -0.0164291,-0.0031811 -0.0322756,-0.00261024 -0.0482008,-0.00808268 -0.0129882,-0.00446063 -0.0228189,-0.0140118 -0.037063,-0.0140551 -0.00030315,0.0334961 0.017752,0.0563307 0.0337677,0.084 0.0136732,0.0236063 0.0245945,0.0507992 0.0406693,0.0724567 0.000216535,-0.00405906 0.00287008,-0.0103425 0.00222047,-0.0163346 0.00495276,0.00767717 0.00879921,0.0156339 0.0131772,0.0241496 -0.00100394,-0.00682283 -0.000988189,-0.0126811 -0.00303543,-0.0194331 0.0187008,0.043626 0.045437,0.0814961 0.0595984,0.126965 0.0122598,0.0393071 0.0195512,0.081689 0.0249094,0.122268 0.0100591,0.0762047 -0.000748031,0.152209 -0.00788976,0.228531 -0.00883071,0.0942638 -0.049311,0.175941 -0.0559331,0.270531 -0.00281496,0.0401457 -0.0108504,0.104496 -0.0303071,0.140362 -0.015248,0.0280433 -0.0509606,0.0396575 -0.0734921,0.0590669 -0.0242874,0.0209252 -0.0366496,0.0265709 -0.0690276,0.029874 -0.0227598,0.00233071 -0.0493583,0.00370079 -0.0687047,0.0179528 -0.0337795,0.0248504 -0.0313898,0.0974488 -0.00424016,0.125181 0.0233425,-0.0251299 0.0361772,0.00707087 0.0541693,0.0205669 0.0205039,0.0153701 0.0496063,0.0183622 0.0744409,0.0198189 0.0286102,0.00169291 0.0588228,0.0105984 0.0815748,-0.00268504 0.0279449,-0.0162913 0.0478661,-0.0203307 0.0811142,-0.0250787 0.0041378,0.0132559 0.0552717,-0.00340157 0.0691654,-0.0104409 0.0218898,-0.011126 0.0310945,-0.0311654 0.0357992,-0.0539134 0.0123228,-0.0595551 0.0241575,-0.122028 0.0334803,-0.182957 0.0132205,-0.0864409 0.0460118,-0.175299 0.0732953,-0.257921z"/>
   <path id="_214715800" class="fil1" d="M1.63733 4.22307c-0.00314173,-0.0704803 0.00287795,-0.147941 -0.0161339,-0.216413 -0.000704724,0.00710236 -0.00302756,0.0141535 -0.00362992,0.0213425 -0.0132677,-0.0170787 -0.0121693,-0.0421457 -0.0153661,-0.0629803 -0.000673228,0.00928346 -0.00433465,0.0190394 -0.00459843,0.0288543 -0.0293346,-0.0545551 -0.0604055,-0.116579 -0.0845827,-0.178165 -0.00481496,-0.000854331 -0.00932677,-0.00154331 -0.0133504,-0.00208268 0.00204331,0.00109055 0.00433071,0.00177953 0.00633465,0.0029685 -0.0142874,-0.00444488 -0.0296102,-0.0171339 -0.0410039,-0.028811 -0.0130315,-0.000338583 -0.0275669,-0.00814173 -0.0411614,-0.0187087 0.00795669,0.0158346 0.0184724,0.0309055 0.0268386,0.0453622 0.0136732,0.0236063 0.0245945,0.0507992 0.0406693,0.0724567 0.000216535,-0.00405906 0.00287008,-0.0103425 0.00222047,-0.0163346 0.00495276,0.00767717 0.00879921,0.0156339 0.0131772,0.0241496 -0.00100394,-0.00682283 -0.000988189,-0.0126811 -0.00303543,-0.0194331 0.0187008,0.043626 0.045437,0.0814961 0.0595984,0.126965 0.0122598,0.0393071 0.0195512,0.081689 0.0249094,0.122268 0.0100591,0.0762047 -0.000748031,0.152209 -0.00788976,0.228531 -0.00883071,0.0942638 -0.049311,0.175941 -0.0559331,0.270531 -0.000917323,0.0130394 -0.00246063,0.0287795 -0.00470079,0.0451339 0.0418858,-0.0717559 0.0907087,-0.143516 0.105417,-0.226205 0.0132677,-0.0745984 0.0155748,-0.143992 0.0122205,-0.219429z"/>
   <path id="_214715992" class="fil2" d="M1.29914 4.98814c-0.00114961,-0.00244488 -0.00194094,-0.00526772 -0.00247244,-0.00812598l-3.93701e-006 0c-0.000519685,-0.00276378 -0.00080315,-0.0055748 -0.000944882,-0.00807874 -0.000110236,-0.00184252 -0.000251969,-0.00337402 -0.000389764,-0.00490157 -0.000547244,-0.00603937 -0.00109843,-0.0121575 0.000523622,-0.0182126 0.00244094,-0.00912205 0.00593701,-0.0184843 0.0108661,-0.0269094 0.00419685,-0.0071811 0.00944488,-0.0136811 0.0159685,-0.0187677 0.00552756,-0.00432283 0.0117559,-0.00690551 0.018,-0.00948819 0.00223622,-0.000925197 0.00448425,-0.0018622 0.00661417,-0.00283465 0.00382677,-0.00175197 0.00780315,-0.00367323 0.0117756,-0.00559055 0.0053937,-0.0026063 0.0107913,-0.00521654 0.0164921,-0.00768898l0 -3.93701e-006c0.00749213,-0.00327165 0.0149055,-0.00583465 0.0226102,-0.0085l0.000822835 -0.000283465 0 -1.5748e-005c0.0015748,-0.000535433 0.00322441,-0.00119685 0.00495669,-0.00188976 0.00551969,-0.0022126 0.0118661,-0.00474803 0.017185,-0.0044252l0.0043622 0.000267717 -0.0021063 0.00381496c-0.000409449,0.000740157 -0.000980315,0.00133465 -0.00170079,0.00175197l-7.87402e-006 0c-0.000673228,0.000385827 -0.00144094,0.000602362 -0.0022874,0.000622047l-2.3622e-005 -0.000940945c-0.00393701,0.000255906 -0.00894488,0.00225591 -0.013374,0.00402756 -0.0018937,0.000759843 -0.00370079,0.00148425 -0.00520866,0.002l-3.93701e-006 -1.1811e-005 -0.000822835 0.000283465c-0.00754724,0.00261024 -0.0148189,0.00512598 -0.0222008,0.00835039l-1.1811e-005 0c-0.0053937,0.00234252 -0.0108465,0.00497638 -0.0162874,0.0076063 -0.00387795,0.00187008 -0.00775984,0.00374803 -0.0118819,0.00562992 -0.00229134,0.00105118 -0.00455906,0.00199606 -0.00681102,0.0029252 -0.00588189,0.00243701 -0.0117559,0.00487402 -0.0167008,0.00873622 -0.00593701,0.00462992 -0.0107402,0.0105945 -0.0146102,0.0172047 -0.00463386,0.00792126 -0.00794488,0.0168307 -0.0102795,0.0255512 -0.00138189,0.00514961 -0.000874016,0.0107638 -0.000374016,0.0162953l0 1.1811e-005c0.000161417,0.00179921 0.000326772,0.0036063 0.000413386,0.00505906l0 1.1811e-005c0.000133858,0.00231102 0.000389764,0.00487795 0.000858268,0.00738189l0 1.1811e-005c0.000444882,0.00240945 0.0011063,0.00477559 0.00204331,0.00677165l-0.00498819 0.00235433zm0.12015 -0.124043l-0.00034252 -0.000586614c-5.90551e-005,8.26772e-005 -0.000291339,0.000299213 -0.000366142,0.000346457l0.000712598 0.000393701 -3.93701e-006 -0.000153543zm-0.000334646 -0.000594488l-3.93701e-006 0 0.000334646 0.000582677 -1.5748e-005 -0.000704724c-3.54331e-005,3.14961e-005 -0.000240157,0.000102362 -0.000314961,0.000122047z"/>
   <path id="_214716208" class="fil2" d="M1.44221 5.0403c-0.00281102,-0.00338976 -0.00572441,-0.00659055 -0.0086063,-0.00975591 -0.00927953,-0.010185 -0.0183543,-0.0201575 -0.0227362,-0.0344409 -0.00229921,-0.00748031 -0.00186614,-0.0183228 0.00073622,-0.0283937 0.00244488,-0.00947638 0.0068622,-0.0184252 0.0127638,-0.0234646 0.00785827,-0.00673228 0.0181339,-0.0113268 0.0288661,-0.0145394 0.0105591,-0.00315748 0.021622,-0.005 0.031248,-0.00622441 0.00677165,-0.000870079 0.014689,-0.00356693 0.0219724,-0.00604331 0.00456299,-0.00155512 0.00889764,-0.0030315 0.012752,-0.00398425l0.00131496 0.00535433c-0.0035315,0.000874016 -0.00779921,0.00232283 -0.0122913,0.00385433 -0.00750787,0.00255512 -0.0156654,0.00533465 -0.0230591,0.00628346 -0.00934252,0.00119291 -0.0200906,0.00297638 -0.0303583,0.00604724 -0.0100827,0.00301969 -0.0196732,0.00727953 -0.0268622,0.013437 -0.00499606,0.00426772 -0.0088189,0.0121732 -0.0110118,0.0206654 -0.00236614,0.00915354 -0.00281102,0.0188583 -0.000799213,0.0253898 0.00401575,0.0130906 0.0126811,0.0226142 0.0215433,0.0323425 0.00296457,0.00325591 0.00595669,0.00654331 0.00878346,0.00994882l-0.00425591 0.00352362z"/>
   <path id="_214716280" class="fil1" d="M3.60052 4.35739c-0.0631772,-0.0404685 -0.132882,-0.084311 -0.195941,-0.126197 -0.0515118,-0.0342087 -0.0871969,-0.089248 -0.122858,-0.139472 -0.033248,-0.046878 -0.0530709,-0.118925 -0.0880079,-0.16272 -0.0490394,0.0116693 -0.119945,0.0354843 -0.171299,0.0336693 0.000248031,0.00140551 0.000515748,0.00277559 0.000807087,0.00417717 -0.00717717,-0.000389764 -0.0143701,0.0037874 -0.0215118,0.00348819 0.00441339,0.00340945 0.0078189,0.00964961 0.0139567,0.0123937 -0.00873622,-0.00155512 -0.0159528,0.00161811 -0.0233858,0.0030748 0.00255512,0.00202756 0.00469291,0.00465354 0.00669685,0.00651181 -0.0246535,0.00175984 -0.0494409,0.00244094 -0.074252,0.00309843 0.00609055,0.0181457 0.0171969,0.0537717 0.0256181,0.0706102 0.0132126,0.0264055 0.0321969,0.0484803 0.0515,0.0713346 0.0413268,0.048937 0.0897677,0.108602 0.152138,0.132307 0.0670039,0.0254882 0.128315,0.0324961 0.182138,0.0840236 0.0559409,0.0535433 0.0663031,0.0887126 0.0450039,0.163161 -0.00929134,0.0324488 -0.012189,0.0674252 -0.0354291,0.0942087 -0.0247953,0.0285984 -0.051437,0.053122 -0.0713543,0.0859961 -0.0355394,0.0586299 -0.0845079,0.0935433 -0.146343,0.122205 -0.0562677,0.0260591 -0.122063,-0.0113465 -0.161311,0.0516693 -0.0224764,0.0361181 -0.0213583,0.0984843 0.0223543,0.116984 0.0471378,0.0199724 0.0985236,0.0264528 0.147882,0.0357244 0.0203898,0.00385433 0.041252,0.0132244 0.0635354,0.00523622 0.0224331,-0.0080315 0.0269685,-0.031315 0.0452913,-0.0434764 0.0185827,-0.0123268 0.0461535,-0.00975591 0.0668583,-0.0248071 0.0265118,-0.0192441 0.0368504,-0.051126 0.0507362,-0.0795709 0.017315,-0.0354606 0.0370709,-0.0725118 0.0612638,-0.103819 0.0215394,-0.0278504 0.0493661,-0.042685 0.0757717,-0.0650236 0.0239094,-0.0201732 0.0419843,-0.0459843 0.066878,-0.0649409 0.0215472,-0.0164213 0.0461929,-0.026685 0.0694803,-0.0408386 0.0207598,-0.0126024 0.0707835,-0.0712598 0.0833268,-0.109531 -0.0371811,-0.0514606 -0.0658937,-0.105122 -0.119543,-0.139476z"/>
   <path id="_214715704" class="fil3" d="M3.04126 5.00453c-0.00256693,-0.00844094 -0.012622,-0.0110984 -0.0188976,-0.0168268 -0.00642126,-0.00585039 -0.0134173,-0.0142953 -0.0171102,-0.0222717 -0.0082126,-0.0176732 -0.00552362,-0.0375157 0.00637402,-0.0515827 0.0169213,-0.0200551 0.0386181,-0.0295906 0.0625394,-0.0317717 0.0187323,-0.00169291 0.0214291,-0.000291339 0.0398504,-0.00331102"/>
   <path id="_214716304" class="fil4" d="M3.03862 5.00533c-0.00138189,-0.00455512 -0.00587795,-0.00733465 -0.0103976,-0.0101299 -0.00269685,-0.00166535 -0.00540945,-0.00335039 -0.00772047,-0.00545669 -0.00349213,-0.0031811 -0.00716929,-0.00712992 -0.0104173,-0.0113583l-7.87402e-006 -1.1811e-005c-0.00291732,-0.00379528 -0.0055,-0.00783465 -0.00733071,-0.0117835 -0.00430709,-0.00926772 -0.00576772,-0.0191063 -0.00461024,-0.0284803 0.00117323,-0.00950394 0.00504724,-0.0185472 0.0113858,-0.0260394 0.00841339,-0.00997244 0.0179882,-0.0174291 0.0284173,-0.0227283 0.0111378,-0.00565748 0.0232559,-0.00884252 0.0359764,-0.0100039 0.00751181,-0.000677165 0.0124213,-0.000866142 0.0167717,-0.00103543 0.00657874,-0.000244094 0.0118898,-0.000452756 0.0228858,-0.00225591l0.00088189 0.00544094c-0.0113307,0.00185433 -0.0167992,0.00206693 -0.0235748,0.00232677 -0.00433071,0.000161417 -0.00922047,0.000354331 -0.0164685,0.00100787 -0.0120236,0.00109449 -0.0234764,0.0041063 -0.0339921,0.00944882 -0.00977559,0.00496063 -0.0187677,0.0119724 -0.026689,0.0213583 -0.00562598,0.00665748 -0.00906693,0.0146929 -0.0101102,0.0231535 -0.00103937,0.00838189 0.000275591,0.0171929 0.00413386,0.0254921 0.00164961,0.00356693 0.00401575,0.00725984 0.00670079,0.010752 0.00302756,0.00394094 0.00647244,0.0076378 0.00976378,0.0106339 0.00197638,0.00179921 0.00444488,0.00333465 0.00690157,0.00485433 0.00540157,0.00333858 0.0107835,0.00666535 0.0127717,0.0132165l-0.00527165 0.00159843z"/>
   <path id="_214715608" class="fil3" d="M3.12149 5.01982c-0.011748,-0.0130591 -0.0162165,-0.0280472 -0.0166102,-0.045815 -0.0005,-0.0210157 0.0124449,-0.0298819 0.030563,-0.0369291 0.0149409,-0.0057874 0.0297953,-0.0100512 0.0448504,-0.0149173"/>
   <path id="_215562528" class="fil4" d="M3.11944 5.02167c-0.00612205,-0.00680315 -0.0103583,-0.0141378 -0.0131142,-0.0220906 -0.00273228,-0.00788976 -0.004,-0.0163543 -0.00420079,-0.0255039 -0.000267717,-0.0113228 0.00312992,-0.0194252 0.00905906,-0.0256693 0.00577165,-0.0060748 0.0138661,-0.0102402 0.0232638,-0.0138976 0.0111378,-0.00431102 0.0220866,-0.00774803 0.0330866,-0.0112008 0.00424016,-0.00132677 0.00846457,-0.00265354 0.0119173,-0.00377165l0.00168504 0.00524803c-0.00452362,0.00146063 -0.00825591,0.00263386 -0.0119567,0.00379528 -0.0109921,0.00344882 -0.0219252,0.00688189 -0.0327441,0.0110709 -0.0087126,0.00338976 -0.0161575,0.00718504 -0.0212598,0.0125551 -0.00494094,0.00520079 -0.00776772,0.0120512 -0.00753937,0.0217362l0 1.1811e-005c0.000188976,0.00861024 0.0013622,0.0165276 0.00388976,0.0238307 0.00250787,0.00724016 0.00638976,0.0139409 0.0120197,0.0201929l-0.0041063 0.00369291z"/>
   <path id="_215551440" class="fil5" d="M4.17635 3.13842c-0.0552165,0.0934173 -0.0543543,0.208638 -0.0552835,0.318146 -0.000992126,0.116598 -0.030248,0.231634 -0.0346299,0.348028 -0.00275197,0.0729252 -0.010374,0.14589 -0.0102874,0.218425 3.14961e-005,0.0292559 -0.00820472,0.0765197 0.0219764,0.0935079 0.0226181,0.0127283 0.0326378,-0.0036378 0.0530827,0.0235 0.0140906,0.0187008 0.0190315,0.0440906 0.0278543,0.0654016 0.021063,0.0508346 0.0452008,0.0976024 0.0689803,0.147606 0.000984252,-0.00220472 0.00148031,-0.00433071 0.00237402,-0.00675197 0.00322835,0.00435433 0.0111181,0.0114134 0.0145433,0.0172638 0.000409449,-0.0124803 -0.00023622,-0.0254134 0.000787402,-0.0377913 0.00562598,0.0131575 0.0058937,0.0287362 0.0116063,0.0424449 0.0122402,0.0294606 0.0316063,0.0642874 0.0507047,0.0901969 -0.000413386,-0.0028622 -0.000314961,-0.0100748 -0.000787402,-0.0127638 0.00515748,0.00704331 0.00990945,0.0145866 0.0139882,0.0221654 -0.00272047,-0.0105236 -0.00293701,-0.0217205 -0.00177953,-0.0325276 0.0116811,0.0162047 0.0217638,0.0449213 0.0302835,0.0640276 0.00749213,0.0168307 0.0100709,0.0357008 0.0227087,0.0503268 0.00887795,0.0102717 0.0224803,0.0168976 0.0309961,0.0303228 -0.000649606,-0.00456299 8.66142e-005,-0.00924803 -0.000606299,-0.013815 0.00348819,0.0072874 0.00773228,0.014122 0.010689,0.0215827 0.000625984,-0.0184724 -0.00735433,-0.0362756 -0.00495669,-0.0544449 0.0118543,0.0121772 0.0231772,0.0254331 0.0301181,0.0400827 0.012622,0.0267717 0.0265906,0.047815 0.0455906,0.0729252 -0.000440945,-0.00351969 0.000248031,-0.0079685 -1.9685e-005,-0.0116693 0.00737402,0.0057874 0.0139134,0.0130709 0.0185118,0.021252 -0.00192126,-0.0089252 -0.00466142,-0.018122 -0.00788976,-0.0264685 0.00865748,0.0028622 0.0162559,0.0110669 0.0227992,0.0187087 -0.0186024,-0.0343268 -0.0345118,-0.0741417 -0.0326378,-0.113579 0.0153976,0.0236654 0.0197047,0.0530512 0.0332874,0.0790118 0.0167638,0.0320315 0.0443346,0.0506496 0.0675787,0.0736339 -0.00307874,-0.00601969 -0.00413386,-0.0138189 -0.00706299,-0.0197283 0.00446063,0.0046811 0.0107756,0.0075315 0.0152756,0.0117953 -0.008,-0.0220669 -0.0212874,-0.0454921 -0.0173661,-0.0697913 0.0194291,0.0180906 0.0332598,0.0510709 0.050563,0.0728346 0.0245354,0.0307677 0.0537913,0.0737244 0.0908425,0.0910157 -0.00143307,-0.00516929 -0.000893701,-0.0149843 -0.00416535,-0.0210512 0.0087874,0.00400787 0.0161496,0.0102362 0.0205945,0.0187756 -0.0104291,-0.0300787 -0.0229055,-0.0530709 -0.0203583,-0.0860197 0.0157165,0.0111654 0.0231339,0.0360591 0.0409016,0.0508898 0.0245315,0.0205 0.0468228,0.0423937 0.0737441,0.0604764 -0.00215748,-0.00901575 -0.00616142,-0.017185 -0.010622,-0.0249921 0.0114016,0.00514173 0.0187598,0.0161299 0.0255,0.0273465 -0.00615748,-0.0173701 -0.0353465,-0.0620197 -0.0235354,-0.0754173 0.0229291,0.0185039 0.0330433,0.0506496 0.050122,0.0732795 0.0148976,0.0197205 0.0524882,0.0566102 0.0770472,0.0586181 -0.00409055,-0.00469685 -0.00781496,-0.0126299 -0.0117677,-0.0167638 0.00485039,0.00490945 0.0104094,0.00849606 0.0149094,0.0139567 -0.00366929,-0.0192244 -0.0179528,-0.0357008 -0.0270315,-0.0528622 0.0271378,0.012 0.0499843,0.0348898 0.0734724,0.0533386 0.0301417,0.0236732 0.0702126,0.0424449 0.106724,0.0537362 -0.00391732,-0.00570866 -0.00492126,-0.015315 -0.00764173,-0.0203898 0.00767323,0.00375591 0.0169882,0.00844094 0.0256378,0.00999606 -0.00700394,-0.00718898 -0.013937,-0.0148346 -0.0154803,-0.0248937 0.00618504,0.0044252 0.0130827,0.0139134 0.0196969,0.0210079 -0.00452756,-0.0211929 -0.0265118,-0.0355197 -0.0347992,-0.0545276 0.0245118,0.0119724 0.0362795,0.0443898 0.0602362,0.0612008 0.0332362,0.023252 0.0806417,0.0377283 0.119622,0.0459331 -0.0054685,-0.0085748 -0.0114291,-0.0177913 -0.0190079,-0.0249252 0.00575197,0.00211417 0.0117874,0.00238189 0.0169685,0.00379921 -0.00766535,-0.0056811 -0.0179724,-0.0122559 -0.0199921,-0.0223346 0.00481496,0.00360236 0.0157283,0.00655906 0.0196614,0.00931496 -0.0173819,-0.0211181 -0.0281772,-0.0457087 -0.0425709,-0.0676969 0.0535039,0.0141417 0.106197,0.0454134 0.162579,0.0562323 -0.00752362,-0.0050748 -0.0150787,-0.0103346 -0.0224291,-0.0156142 0.0100394,0.00244094 0.0210591,0.00661811 0.0305709,0.00854331 -0.0167441,-0.0085748 -0.0374291,-0.0242165 -0.0464016,-0.0408937 0.0582756,0.0321378 0.120469,0.0615669 0.186591,0.0727953 -0.00535827,-0.00605906 -0.0127913,-0.011437 -0.0204921,-0.0149882 0.00825984,0.00311024 0.0175118,0.00630709 0.0263858,0.00744094 -0.00627165,-0.00427559 -0.0130669,-0.0114646 -0.0192913,-0.0150157 0.0118504,0.00282677 0.0244724,0.00770472 0.0363031,0.0083622 -0.0164291,-0.00777165 -0.0321339,-0.0185984 -0.0471339,-0.0288228 0.0428937,0.0139173 0.0819606,0.018937 0.125445,0.0281339 -0.00764567,-0.00188976 -0.0129331,-0.00728346 -0.0174567,-0.0100315 0.0127913,-0.000688976 0.0253031,0.00459055 0.0382047,0.00635039 -0.00759055,-0.00303543 -0.0149409,-0.00761024 -0.0222283,-0.0109252 0.0123307,0.0021811 0.0243898,0.006 0.0368425,0.00689764 -0.0153465,-0.00975591 -0.037315,-0.015748 -0.0450039,-0.0329449 0.0195197,-0.00338189 0.0452953,0.011311 0.0636496,0.0174882 0.0214291,0.00725197 0.0419843,0.0115827 0.0637047,0.0162126 -0.0065,-0.00340945 -0.0122638,-0.00779528 -0.0190118,-0.0108504 0.00391732,0.00111417 0.00816142,0.00150394 0.0120354,0.00261417 -0.0127441,-0.00925984 -0.0266181,-0.0189646 -0.0430945,-0.020811 0.0402047,0.000484252 0.069189,-0.0112598 0.10639,-0.0207717 0.0425315,-0.0108386 0.0820354,-0.00818504 0.126209,-0.00692913 -0.0152638,-0.010689 -0.0367795,-0.00961024 -0.0542677,-0.0149843 0.023315,-0.00332677 0.045122,8.26772e-005 0.069185,-0.00030315 -0.0146496,-0.0195512 -0.0545669,-0.0197992 -0.0756181,-0.0356693 0.0159449,0.00677165 0.0362283,0.00701575 0.0527205,0.00238583 -0.0245709,-0.0114961 -0.0401024,-0.0319331 -0.0601378,-0.049126 -0.0235984,-0.0202441 -0.0493465,-0.0328622 -0.0711772,-0.0558583 -0.0431024,-0.045374 -0.068248,-0.101575 -0.107878,-0.149181 -0.0974252,-0.117087 -0.233555,-0.217496 -0.378213,-0.268059 -0.0508268,-0.0177677 -0.0990157,-0.0422953 -0.148437,-0.0636732 -0.0486339,-0.0210079 -0.089937,-0.0276772 -0.142118,-0.0350394 -0.0444921,-0.00629528 -0.0971299,-0.0176181 -0.13813,-0.0368701 -0.0372638,-0.0174843 -0.0703071,-0.0476614 -0.104799,-0.0701772 -0.0498425,-0.0324724 -0.0978307,-0.0718228 -0.144713,-0.108106 -0.0404173,-0.0313071 -0.065874,-0.075437 -0.0946299,-0.116709 -0.0266457,-0.0382008 -0.0555118,-0.0693819 -0.0716299,-0.114205 -0.0171654,-0.0477362 -0.0424882,-0.0904291 -0.0564409,-0.139516 -0.0177441,-0.0623543 -0.0263465,-0.124492 -0.0493937,-0.185618 -0.0114055,-0.0302795 -0.024315,-0.0589528 -0.0424921,-0.0860472 -0.0164724,-0.0245709 -0.0417598,-0.0387795 -0.0592362,-0.0600551 0.0123937,0.00405906 0.0232008,0.0121535 0.033122,0.0202283 -0.011315,-0.0578268 -0.088815,-0.104665 -0.137134,-0.13572l-0.000649606 -0.00483858z"/>
   <path id="_215576472" class="fil6" d="M5.97333 4.83028c-0.0146496,-0.0195512 -0.0545669,-0.0197992 -0.0756181,-0.0356693 0.0159449,0.00677165 0.0362283,0.00701575 0.0527205,0.00238583 -0.0245709,-0.0114961 -0.0401024,-0.0319331 -0.0601378,-0.049126 -0.0235984,-0.0202441 -0.0493465,-0.0328622 -0.0711772,-0.0558583 -0.0381693,-0.0402126 -0.0622874,-0.0888583 -0.0948583,-0.132535 -0.0426496,-0.0113031 -0.0838346,-0.0285315 -0.128862,-0.0401457 0.0356772,0.0225709 0.0728583,0.0387205 0.112142,0.0540945 -0.0540512,-0.0105709 -0.108827,-0.0274646 -0.1625,-0.0354646 0.0114724,0.0124803 0.0257205,0.0209882 0.0347362,0.0357638 -0.0206102,0.0020315 -0.0432559,-0.00988583 -0.0652244,-0.0144528 0.0160551,0.0102992 0.0307205,0.0228307 0.0455236,0.0348583 -0.0350512,0.00508268 -0.0647047,-0.0188268 -0.0978819,-0.0241732 0.0318228,0.0414685 0.0916969,0.0488425 0.128878,0.0847244 -0.0807835,-0.0125748 -0.155457,-0.0355591 -0.232449,-0.0630433 0.00206299,0.0340118 0.0534173,0.0446181 0.0571654,0.0764094 -0.0210354,0.00238583 -0.0394488,-0.0063937 -0.0603465,-0.00794488 0.0139685,0.0244803 0.0482756,0.0344449 0.0700197,0.0517953 -0.0263976,0.00235039 -0.0516378,-0.00914567 -0.0779016,-0.00967323 0.0409252,0.0371024 0.102933,0.0416496 0.14698,0.075311 -0.125921,0.00370079 -0.24074,-0.0116063 -0.361937,-0.0457874 0.00826772,0.0128898 0.020563,0.023815 0.0303425,0.0344173 -0.0263386,0.0029252 -0.0510827,-0.012189 -0.0758465,-0.0188386 0.00864567,0.00737402 0.015437,0.0177913 0.0241811,0.0249803 -0.0229291,-0.0058189 -0.0397165,-0.0230157 -0.0622992,-0.0295551 0.026748,0.0186929 0.0558622,0.0494921 0.0735669,0.076685 -0.0431772,-0.0315748 -0.107346,-0.0555709 -0.157264,-0.0759961 0.0146378,0.0250787 0.0377598,0.0711614 0.0447598,0.0885315 -0.00448425,-0.00321654 -0.0113937,-0.00551575 -0.0150827,-0.0081063 0.00376772,0.00686614 0.00780315,0.0138189 0.0119173,0.0208031 0.00334646,0.00277559 0.00672441,0.00554724 0.0101142,0.00820472 0.0301417,0.0236732 0.0702126,0.0424449 0.106724,0.0537362 -0.00391732,-0.00570866 -0.00492126,-0.015315 -0.00764173,-0.0203898 0.00767323,0.00375591 0.0169882,0.00844094 0.0256378,0.00999606 -0.00700394,-0.00718898 -0.013937,-0.0148346 -0.0154803,-0.0248937 0.00618504,0.0044252 0.0130827,0.0139134 0.0196969,0.0210079 -0.00452756,-0.0211929 -0.0265118,-0.0355197 -0.0347992,-0.0545276 0.0245118,0.0119724 0.0362795,0.0443898 0.0602362,0.0612008 0.0332362,0.023252 0.0806417,0.0377283 0.119622,0.0459331 -0.0054685,-0.0085748 -0.0114291,-0.0177913 -0.0190079,-0.0249252 0.00575197,0.00211417 0.0117874,0.00238189 0.0169685,0.00379921 -0.00766535,-0.0056811 -0.0179724,-0.0122559 -0.0199921,-0.0223346 0.00481496,0.00360236 0.0157283,0.00655906 0.0196614,0.00931496 -0.0173819,-0.0211181 -0.0281772,-0.0457087 -0.0425709,-0.0676969 0.0535039,0.0141417 0.106197,0.0454134 0.162579,0.0562323 -0.00752362,-0.0050748 -0.0150787,-0.0103346 -0.0224291,-0.0156142 0.0100394,0.00244094 0.0210591,0.00661811 0.0305709,0.00854331 -0.0167441,-0.0085748 -0.0374291,-0.0242165 -0.0464016,-0.0408937 0.0582756,0.0321378 0.120469,0.0615669 0.186591,0.0727953 -0.00535827,-0.00605906 -0.0127913,-0.011437 -0.0204921,-0.0149882 0.00825984,0.00311024 0.0175118,0.00630709 0.0263858,0.00744094 -0.00627165,-0.00427559 -0.0130669,-0.0114646 -0.0192913,-0.0150157 0.0118504,0.00282677 0.0244724,0.00770472 0.0363031,0.0083622 -0.0164291,-0.00777165 -0.0321339,-0.0185984 -0.0471339,-0.0288228 0.0428937,0.0139173 0.0819606,0.018937 0.125445,0.0281339 -0.00764567,-0.00188976 -0.0129331,-0.00728346 -0.0174567,-0.0100315 0.0127913,-0.000688976 0.0253031,0.00459055 0.0382047,0.00635039 -0.00759055,-0.00303543 -0.0149409,-0.00761024 -0.0222283,-0.0109252 0.0123307,0.0021811 0.0243898,0.006 0.0368425,0.00689764 -0.0153465,-0.00975591 -0.037315,-0.015748 -0.0450039,-0.0329449 0.0195197,-0.00338189 0.0452953,0.011311 0.0636496,0.0174882 0.0214291,0.00725197 0.0419843,0.0115827 0.0637047,0.0162126 -0.0065,-0.00340945 -0.0122638,-0.00779528 -0.0190118,-0.0108504 0.00391732,0.00111417 0.00816142,0.00150394 0.0120354,0.00261417 -0.0127441,-0.00925984 -0.0266181,-0.0189646 -0.0430945,-0.020811 0.0402047,0.000484252 0.069189,-0.0112598 0.10639,-0.0207717 0.0425315,-0.0108386 0.0820354,-0.00818504 0.126209,-0.00692913 -0.0152638,-0.010689 -0.0367795,-0.00961024 -0.0542677,-0.0149843 0.023315,-0.00332677 0.045122,8.26772e-005 0.069185,-0.00030315z"/>
   <path id="_215570088" class="fil7" d="M4.14997 4.04941c-0.000141732,-0.0119213 -0.00574409,-0.0229567 -0.00688583,-0.0346693 0.00800787,0.00520472 0.0138701,0.0138543 0.0206929,0.0210197 0.00327165,-0.0104134 -0.00614567,-0.0225945 -0.0102008,-0.033315 0.00909843,0.00570079 0.0162441,0.014752 0.0247402,0.0202205 -0.00179134,-0.00529921 -0.00203937,-0.012185 -0.00461811,-0.0177992 0.00919685,0.00600394 0.0173268,0.0190748 0.0250551,0.0249567 -0.00418898,-0.0343937 -0.0369764,-0.0624685 -0.0463898,-0.0958504 -0.00566535,-0.020122 -0.00391732,-0.0404488 -0.0045748,-0.0610354 0.00899213,0.0179213 0.0242126,0.0367559 0.0432362,0.0427598 0.00130315,-0.00785827 -0.000811024,-0.0154724 -0.00495669,-0.0219921 -0.0021063,-0.00276378 -0.00422835,-0.00548425 -0.00645276,-0.0079252 0.00255512,0.00236614 0.00461811,0.00506299 0.00645276,0.0079252 0.00788976,0.0104055 0.0155984,0.0218071 0.0282165,0.0242126 -0.00109843,-0.0155315 -0.00920472,-0.0300748 -0.0125945,-0.0452205 0.00475984,0.00601575 0.0123701,0.00926378 0.0175079,0.0145984 0.0012126,-0.0277441 -0.0180394,-0.0563976 -0.0302795,-0.0770945 0.0254882,0.0149764 0.0381929,0.0481378 0.0640827,0.0639843 -0.0136575,-0.0289094 -0.0306181,-0.0646732 -0.0489803,-0.0904724 0.00647638,0.00565354 0.0132913,0.0113661 0.0198189,0.0166339 -0.000433071,-0.0191063 -0.0161378,-0.0351693 -0.0215472,-0.052185 0.00238583,0.00215748 0.00630709,0.00443701 0.00907874,0.0064685 0.00184646,-0.0101457 -0.000311024,-0.0203583 -0.00604331,-0.0289409 0.00506299,0.0058937 0.011811,0.011378 0.0162244,0.016752 -0.00273228,-0.008 -0.00531102,-0.0168858 -0.00726772,-0.0251969 0.0183858,0.0101378 0.0541535,0.051378 0.074374,0.0605079 -0.0230906,-0.0190118 -0.0758701,-0.0645906 -0.0715197,-0.0961654 0.0153268,0.00383071 0.0236417,0.0272717 0.0376969,0.0349882 -0.00235433,-0.0198858 -0.0192087,-0.0354291 -0.0225748,-0.0544055 0.00674803,0.00575197 0.0129961,0.0119921 0.0187402,0.018748 -0.000688976,-0.0170669 -0.00188976,-0.0285433 -0.00401575,-0.0458346 -0.00104724,-0.00845669 -0.00864567,-0.024689 -0.00694094,-0.0345236 0.0204567,0.014315 0.0486142,0.0793583 0.0762244,0.102913 -0.0160748,-0.0301732 -0.0628701,-0.0993425 -0.0765354,-0.131665 0.014063,0.0042126 0.0194488,0.0228976 0.0308307,0.0324961 -0.00023622,-0.0176732 -0.0131929,-0.0311732 -0.0102441,-0.0497559 0.00659449,0.00562205 0.0117441,0.0131693 0.0147795,0.0215276 -7.48031e-005,-0.0138386 -0.0100394,-0.0259094 -0.00914567,-0.0396732 0.0219803,0.0139134 0.0358307,0.0705906 0.0661969,0.0823583 -0.032622,-0.0307992 -0.0471732,-0.082378 -0.0611772,-0.115772 -0.00659449,-0.0157598 -0.00916535,-0.0286811 -0.0140118,-0.0457165 -0.00407874,-0.014252 -0.0158701,-0.0482126 -0.0172283,-0.0622559 0.00499606,0.0148071 0.0594055,0.101484 0.0661299,0.121846 -0.00181496,-0.0158701 -0.0229724,-0.0751063 -0.0291575,-0.0880827 0.00257874,0.00362992 0.00599213,0.00674016 0.00861417,0.0101181 -0.000582677,-0.0283583 -0.0233819,-0.0701614 -0.0233819,-0.0701614l-0.0122441 -0.0394134c0,0 -0.0108898,-0.0631496 -0.0300315,-0.0832795 0.00816142,0.00774409 0.0186535,0.0175827 0.0297992,0.0197283 0.00185433,-0.0327008 -0.0530512,-0.0527244 -0.0529252,-0.0865591 -0.00214567,-0.00701969 -0.0104055,-0.0221929 -0.0195354,-0.0359488 -0.00260236,-0.00167323 -0.00516142,-0.00333071 -0.00758268,-0.00490157 -0.0220748,-0.0144134 -0.030815,-0.034189 -0.0451417,-0.0553819 -0.0392205,-0.0580276 -0.10585,-0.094 -0.175449,-0.102079 0.00370472,-0.000295276 0.0127205,-0.00240157 0.0184291,-0.00235827 -0.0166457,-0.0134646 -0.0377205,-0.0201772 -0.056437,-0.0309606 0.00428346,0.000385827 0.00916535,-0.000598425 0.0131142,-0.000314961 -0.00459449,-0.00194882 -0.00880709,-0.00558661 -0.0136772,-0.00744882 0.00572047,-0.00128346 0.0160748,-0.00198425 0.0234488,-0.00164173 -0.0234488,-0.0185866 -0.0675236,-0.0195709 -0.101409,-0.0225866 -0.00457874,0.00173622 -0.00998031,0.00120472 -0.0154331,-0.00168504 0.00477559,0.000669291 0.01,0.00120472 0.0154331,0.00168504 0.00216535,-0.000826772 0.00420866,-0.002 0.0058937,-0.00398031 -0.00836614,-0.00383858 -0.0177165,-0.00530315 -0.0267441,-0.00774409 0.0157323,-0.0110354 0.0411339,0.000814961 0.0579094,-0.00350394 -0.019937,-0.0131102 -0.0514528,-0.0129331 -0.0745,-0.0169606 -0.0289764,-0.00506693 -0.0574016,-0.00887402 -0.0863307,-0.00582677 0.00782677,-0.00101575 0.0171969,-0.00485827 0.0207598,-0.00877559 -0.00717717,-0.000314961 -0.0152205,-0.00147244 -0.0224213,-0.000417323 0.00625984,-0.000799213 0.00966142,-0.00293701 0.0133622,-0.0043937 -0.0102244,0.00015748 -0.0214055,0.000299213 -0.0310354,-0.00348819 0.0181693,-0.00335039 0.0378701,-0.00735827 0.0553583,-0.0131535 -0.0195472,-0.00799606 -0.0466024,-0.00258661 -0.0675984,-0.00355118 -0.0292008,-0.00135433 -0.0593543,-0.00330315 -0.0881772,0.00438583 0.00282677,-0.00109055 0.00567717,-0.00233465 0.00851969,-0.00337008 -0.0134213,-0.00165354 -0.0270039,0.00197244 -0.0402047,0.00408661 0.00452362,-0.00335827 0.00754724,-0.00894094 0.016063,-0.0112874 -0.0152323,-0.000988189 -0.0308858,-0.000102362 -0.0462362,-0.000858268 0.0150157,-0.00733071 0.0407756,-0.00804724 0.0511496,-0.0183307 -0.0439488,-0.0197008 -0.110559,-0.000275591 -0.157161,-0.000976378 0.00231102,-0.00123622 0.00690945,-0.00494488 0.00974016,-0.0063622 -0.0148031,-0.00151575 -0.0290394,0.00307087 -0.0437126,0.00461811 0.00782677,-0.00420472 0.0160433,-0.00805906 0.024063,-0.0118937 -0.0132559,-0.00153543 -0.026252,0.00168898 -0.0392598,0.00166535 0.0153819,-0.010315 0.0358386,-0.0149331 0.0540827,-0.0165079 -0.0616339,0.000417323 -0.118154,0.0125984 -0.178677,0.0219685 0.0084252,-0.00329134 0.0171693,-0.0066811 0.0237047,-0.0119803 -0.0177559,-0.000649606 -0.036374,0.00502362 -0.053189,0.0109016 0.0143661,-0.00681102 0.0285394,-0.0165906 0.0423031,-0.025563 -0.0152756,0.00386614 -0.0323819,0.00695276 -0.0486299,0.00700394 0.0165472,-0.0122835 0.0371772,-0.015937 0.0559843,-0.0236181 -0.073063,-0.0102598 -0.145791,0.0484291 -0.217642,0.0503661 0.0111969,-0.00608268 0.0238543,-0.0120709 0.0335787,-0.0190906 -0.0162205,-0.000547244 -0.032311,0.00591339 -0.0483583,0.00289764 0.0147244,-0.0120354 0.0318543,-0.0214291 0.047378,-0.0324291 -0.0210433,0.00948031 -0.0472402,0.00804724 -0.0692953,0.0151063 -0.0228976,0.00732677 -0.0430118,0.0217953 -0.0678898,0.011815 0.00777559,-0.00716142 0.0193583,-0.0138543 0.0195118,-0.0256654 -0.00845669,0.00208268 -0.0130039,-0.00312992 -0.0188701,-0.00293701 -0.00862598,0.000283465 -0.0167559,0.00752362 -0.026315,0.00904724 0.000744094,-0.00327165 -0.000228346,-0.00898819 0.000444882,-0.0117559 -0.0113386,0.00149606 -0.0215118,0.00766535 -0.032,0.0119331 0.00459843,-0.00904331 0.0121063,-0.0161063 0.0117283,-0.0261772 -0.0418386,0.0131417 -0.0855157,0.0148976 -0.127929,0.0164606 -0.0122598,0.000452756 -0.0212323,0.00420472 -0.0321535,-0.000366142 -0.00445276,-0.00186614 -0.0060315,-0.0113189 -0.0126457,-0.0145276 -0.0149606,-0.00727165 -0.0428622,0.000208661 -0.0595118,0.000811024 0.00895276,-0.00970472 0.0198346,-0.0198504 0.0256339,-0.031185 -0.00762205,0.000775591 -0.016248,-0.00129528 -0.0238937,-0.000555118 0.00366929,-0.00304724 0.0074252,-0.0102441 0.0117087,-0.0133976 -0.0063937,0.00119291 -0.0154409,0.000846457 -0.0224094,0.00389764 0.00264961,-0.00386614 0.00344882,-0.0106417 0.00551181,-0.0140945 -0.0140039,0.00026378 -0.0262992,0.00971654 -0.0384331,0.0160433 0.0114055,-0.00961811 0.0264252,-0.020622 0.034748,-0.0311457 -0.0371929,0.0143622 -0.0710591,0.0322638 -0.112579,0.0294882 0.0104134,-0.00741339 0.024122,-0.0123071 0.0273622,-0.0239055 -0.00783071,0.00224803 -0.0168071,0.00664567 -0.0251496,0.0088189 0.00316142,-0.00640945 0.00516929,-0.0135827 0.0108976,-0.0184213 -0.00973228,0.00247244 -0.0205866,0.010563 -0.0305906,0.0110118 0.00768898,-0.0120551 0.0212008,-0.0198346 0.0257835,-0.0326614 -0.0214646,-0.0109488 -0.0866102,0.0297165 -0.112378,0.0329606 0.00806693,-0.00584252 0.0166575,-0.0119449 0.0236339,-0.0185394 -0.0137835,0.00046063 -0.0263622,0.00814961 -0.0404488,0.00969291 0.00680709,-0.011 0.0215866,-0.0166299 0.0257559,-0.0265197 -0.0106811,0.00144882 -0.0216929,0.0059252 -0.032937,0.00706299 0.014311,-0.00440551 0.029248,-0.0179764 0.0326693,-0.0312008 -0.0872244,0.024752 -0.194618,0.0614449 -0.283,0.0275079 -0.00364961,0.0047874 -0.00709055,0.00977165 -0.0100709,0.0151102 -0.019378,0.0346732 -0.0305827,0.0844016 -0.0339685,0.125421 -0.00224016,0.0270827 -0.000913386,0.0530827 -0.00994094,0.0793504 -0.00902362,0.0262362 -0.0206535,0.0364409 -0.0422402,0.054878 -0.0532953,0.0455236 -0.116217,0.0731732 -0.159654,0.130236 -0.0182953,0.0240433 -0.0379488,0.0451969 -0.0530748,0.0714331 -0.00875591,0.015185 -0.0194764,0.027126 -0.0259882,0.0434685 -0.00506693,0.0127402 -0.00748031,0.0242362 -0.016378,0.0347205 -0.0187953,0.0221378 -0.0441063,0.0397323 -0.0685866,0.0551063 -0.0202008,0.012685 -0.0430039,0.0131575 -0.0658425,0.0166142 -0.0264685,0.00399606 -0.0515827,0.0109685 -0.0767047,-0.00195669 -0.0186102,-0.0095748 -0.0309134,-0.025248 -0.0503228,-0.0345551 -0.0170394,-0.00816929 -0.0358701,-0.0190394 -0.0471969,-0.0348937 -0.0130709,-0.0182874 -0.0218268,-0.0394764 -0.0356417,-0.0572992 -0.0241339,-0.031126 -0.0457126,-0.0538583 -0.0797362,-0.0748189 -0.0160984,-0.00990945 -0.0275906,-0.0232638 -0.0458386,-0.0295945 -0.000374016,-0.000129921 -0.000751969,-0.000200787 -0.00112205,-0.000318898 0.016315,0.0179843 0.00874016,0.0412362 0.00922835,0.0698268 0.000767717,0.0445551 0.0021811,0.0688622 -0.0244882,0.107551 0.0122677,-0.00491732 0.024248,-0.0114764 0.0273425,-0.0253701 -0.000437008,0.0194213 0.00293307,0.038752 -0.00720472,0.055563 -0.00793701,0.0131929 -0.027374,0.0187835 -0.0316063,0.0326457 -0.00112205,0.0015315 -0.00359449,0.000582677 -0.00512205,0.00278346 0.0151772,0.015689 -0.00462992,0.0147047 -0.00488976,0.0256614 -0.000275591,0.0119055 0.00176378,0.00885039 0.00783858,0.0203701 0.0108071,0.0205236 0.0228465,0.0321063 0.027437,0.0566772 0.0100039,0.0535551 -0.00206693,0.112618 -0.0323898,0.158528 0.00135039,-0.00140157 0.00274016,-0.00271654 0.00423622,-0.00382283 -0.00310236,0.00465354 -0.00543307,0.0104213 -0.00878346,0.015311 0.0142047,-0.0071378 0.028622,-0.0262638 0.044815,-0.0250551 0.00408268,0.0250669 -0.0139094,0.0518031 -0.0216732,0.0752756 0.00951969,-0.00451181 0.018248,-0.0117795 0.0267717,-0.0168976 0.00132283,0.020063 -0.0115551,0.0450394 -0.0299055,0.0553819 0.0217559,-0.00349606 0.0441535,0.055811 0.0513622,0.0666969 0.00869685,0.0130512 0.025437,0.032622 0.0439488,0.0470236 0.0135945,0.0105669 0.0281299,0.0183701 0.0411614,0.0187087 -0.000791339,-0.000799213 -0.00156693,-0.00159843 -0.0023189,-0.00238583 0.000779528,0.00076378 0.00155118,0.00151969 0.00248819,0.00240551 -5.90551e-005,0 -0.00011811,-1.9685e-005 -0.000169291,-1.9685e-005 0.0113937,0.0116772 0.0267165,0.0243661 0.0410039,0.028811 -0.00200394,-0.00118898 -0.00429134,-0.00187795 -0.00633465,-0.0029685 0.0308228,0.00409055 0.0891063,0.0178346 0.111362,0.0354409 -0.00354331,-0.000259843 -0.00638189,-0.00107874 -0.00999213,-0.00183465 0.0087874,0.00638976 0.0225157,0.00817323 0.0326614,0.0151575 -0.00642126,0.00250394 -0.0181614,0.0023189 -0.0271378,0.00285827 0.0457126,0.00940551 0.126205,0.0212913 0.150264,0.0650315 0.0282047,0.0512677 0.0432441,0.105634 0.0675748,0.160465 0.0133819,0.0301496 0.0270236,0.0537047 0.0260354,0.0870945 -0.000834646,0.0280039 -0.00275591,0.0542126 0,0.082189 0.0019252,0.0196102 0.00401969,0.0389567 0.00597244,0.0582047 0.00473622,0.0465276 0.00859055,0.0925079 0.00675197,0.140437 -0.00143307,0.037689 -0.00253543,0.0755039 -0.00252756,0.1135 7.87402e-006,0.0520591 -0.0019685,0.104382 0.00259843,0.156083 0.00222441,0.0251299 -0.00533071,0.0464528 -0.0132992,0.0681535 -0.00754724,0.0205591 -0.00954724,0.0399921 -0.0141575,0.0617047 -0.0107638,0.0507047 -0.028748,0.0778976 -0.0744803,0.0999016 -0.0307717,0.0147992 -0.103181,0.0404803 -0.109539,0.0758465 -0.00775197,0.0430394 0.0460433,0.0957323 0.0866654,0.0698465 0.0315512,0.0288661 0.0606378,0.0354606 0.101764,0.0449606 0.0115315,0.00268898 0.0378268,0.0105669 0.0510118,0.01 0.0163976,-0.000724409 0.026752,-0.0137677 0.0427283,-0.0147165 0.0175827,-0.00107874 0.0345472,0.00951181 0.054063,0.00402756 0.0177047,-0.00498819 0.0357913,-0.0169173 0.0510039,-0.0275197 0.0324213,-0.0225709 0.0450276,-0.0394528 0.0432441,-0.0796142 -0.00243701,-0.0549173 -0.00803543,-0.10448 -0.00509449,-0.159933 0.00346063,-0.065311 0.0100236,-0.122154 0.0311299,-0.183047 0.0279882,-0.080752 0.0403543,-0.16602 0.0708819,-0.24498 0.0102087,-0.0264134 0.00694882,-0.0513307 0.0100079,-0.0787598 0.00301575,-0.0271102 0.0229173,-0.0451496 0.0285866,-0.0706575 0.00477559,0.00930709 0.00959843,0.0208583 0.0162835,0.0298701 -0.00596457,-0.0263858 -0.00701969,-0.0649528 0.00103543,-0.0904528 0.00241732,0.00798031 0.00351575,0.0205748 0.00452362,0.0269331 0.00146457,-0.0135157 0.000933071,-0.0276693 -0.00158268,-0.0410748 0.0137559,0.0199488 0.0137559,0.0500354 0.0346772,0.0666811 -0.016374,-0.0272441 -0.00492126,-0.0520551 -0.0149567,-0.0785236 0.000314961,0.00116535 0.00106693,0.00172835 0.00225591,0.00175984 0.00142126,-0.0224882 0.000346457,-0.0455236 -0.00159843,-0.0676969 0.0150709,0.0199055 0.0115748,0.0510276 0.0272441,0.0704606 0.0071811,-0.0382913 -0.0164646,-0.11426 0.0278346,-0.137059 -0.00450394,-0.00236614 -0.00935827,-0.00880709 -0.0122047,-0.0104606 0.00918898,-0.000409449 0.0184764,-0.00166142 0.0275827,-0.00282677 -0.0107913,-0.00340157 -0.0216339,-0.00686614 -0.0314803,-0.0124488 0.0492165,-0.00419685 0.0925315,0.0339764 0.14135,0.0350748 -0.014811,-0.0122087 -0.0332795,-0.0195866 -0.0471457,-0.0322362 0.0144685,0.000748031 0.028252,0.00757874 0.0420079,0.012685 -0.00670866,-0.0051378 -0.0134094,-0.0104173 -0.0199606,-0.0157913 0.0155709,0.00427165 0.0297559,0.0137087 0.0451142,0.019378 -0.0101457,-0.0152008 -0.0272402,-0.0252638 -0.0376811,-0.0391457 0.0565827,0.0328701 0.0857717,0.104272 0.0920276,0.166776 0.0108031,-0.0122638 0.0177402,-0.0614055 0.0126969,-0.0782874 0.00292126,0.00438583 0.00912992,0.0071811 0.0120945,0.0102677 0.000448819,-0.00451575 0.000625984,-0.00901575 0.000492126,-0.0135276 -0.00776772,-0.0152835 -0.00294882,-0.0473071 -0.0223898,-0.0529843 0.0324843,0.00970472 0.0616102,0.0307992 0.0825197,0.0574331 -0.0133346,-0.0232205 -0.0155,-0.0551654 -0.0468622,-0.0702677 0.0141811,0.00307874 0.0318622,0.00776378 0.0450906,0.0128031 0.0171969,0.0065748 0.0314528,0.0228976 0.0477323,0.0274646 -0.00377559,-0.00355118 -0.0067874,-0.00845276 -0.0111732,-0.0121457 0.00351969,0.00122047 0.0082126,0.00118898 0.0116929,0.00244882 -0.0016811,-0.0145709 -0.013063,-0.0252598 -0.0172953,-0.0375551 0.0210315,-0.000929134 0.0382717,0.0028622 0.0580039,0.00716929 0.0210866,0.00461811 0.0556811,0.0234567 0.0759016,0.0161142 -0.00329134,-0.00303937 -0.00459843,-0.0074685 -0.00809055,-0.0105669 0.00976378,0.000744094 0.0126378,-0.00372441 0.0195157,-0.0080315 -0.0049252,-0.00480315 -0.00886614,-0.0131063 -0.0149921,-0.0174252 0.0363819,-0.00681102 0.0677992,0.00379134 0.103382,0.0043189 -0.00118898,-0.0021811 -0.00199606,-0.00629528 -0.00397244,-0.00940157 0.00497638,0.00023622 0.0154646,-0.00304331 0.0174646,-0.00294488 -0.00682283,-0.0034685 -0.0164488,-0.00843307 -0.0225551,-0.014748 0.025752,-0.00174016 0.0516654,-0.00236614 0.0775787,-0.00302362 0.024811,-0.00065748 0.0496024,-0.00133858 0.0742559,-0.00309843 -0.00200787,-0.00185433 -0.00414567,-0.00448031 -0.00669685,-0.00650787 0.00742913,-0.00146063 0.0146496,-0.00463386 0.0233858,-0.00307874 -0.00614173,-0.00274016 -0.00954724,-0.00898031 -0.0139606,-0.0123937 0.00714173,0.00030315 0.0143346,-0.00387402 0.0215157,-0.00348819 -0.000291339,-0.00140157 -0.000562992,-0.00277165 -0.000811024,-0.00417717 0.0513543,0.00181496 0.103689,-0.0195039 0.152728,-0.0311732 0.034937,0.0437913 0.0460236,0.103646 0.0792756,0.15052 0.0356457,0.0502283 0.0834449,0.11348 0.134961,0.147689 0.0630551,0.0418858 0.125992,0.086752 0.189165,0.127224 0.0536535,0.0343504 0.0934685,0.0865354 0.130646,0.137996 0.00549606,0.00762205 0.0109606,0.0152323 0.0163661,0.022748 0.0267638,0.0371654 0.0629055,0.0788031 0.0789134,0.122114 0.021689,0.058815 0.00462992,0.129016 -0.00799606,0.190354 -0.0129685,0.0629921 -0.0351929,0.114571 -0.0950118,0.145252 -0.054689,0.0280591 -0.127417,0.0175197 -0.175114,0.0591063 -0.0334409,0.0291693 -0.0413425,0.131992 0.0175787,0.132945 0.00393701,0.028811 0.063063,0.0514291 0.0893307,0.0556496 0.0165827,0.00268504 0.0312835,-0.00618504 0.044,-0.00567717 0.0151496,0.000559055 0.0313937,0.011378 0.0471969,0.012748 0.0358661,0.00312992 0.0603583,-0.0154921 0.0923228,-0.0249055 0.0283465,-0.00831102 0.0621181,-0.0211575 0.0912638,-0.025811 0.0269134,-0.0619685 0.0584252,-0.119319 0.0686496,-0.188209 0.0058937,-0.0397559 0.0140669,-0.0744724 0.0285748,-0.112713 0.0143701,-0.037815 0.0256614,-0.0720906 0.0345118,-0.111224 0.0110472,-0.0489567 0.0426969,-0.0893622 0.0669646,-0.132232 0.026252,-0.0463543 0.0678701,-0.0845079 0.064752,-0.141657 -0.00537795,-0.0977402 -0.0715866,-0.176902 -0.0588504,-0.278594 0.00770866,0.000799213 0.0131299,-0.00486614 0.0189173,-0.00594882 -0.00422047,-0.0275394 -0.0171417,-0.0664331 -0.0119094,-0.0961654 -0.0081811,-0.036811 -0.00606693,-0.0792913 -0.00701575,-0.109681 0.0112598,0.00872441 0.0215512,0.0195945 0.0321496,0.0293228z"/>
   <path id="_215562048" class="fil8" d="M4.146 3.3582c0.0296732,0.0197244 0.0654488,0.0453228 0.0905276,0.0702362 -0.0336457,-0.0453504 -0.0562087,-0.111331 -0.0846535,-0.162299 0.00955118,0.00900394 0.0247205,0.0167126 0.0337323,0.0255 -0.00574409,-0.0320827 -0.0437087,-0.0563386 -0.0590591,-0.086748 0.00551575,0.00285433 0.0149724,0.00664961 0.0188701,0.0088189 -0.0159567,-0.0285315 -0.0518819,-0.0537992 -0.0761732,-0.0740197 0.0144528,0.00241339 0.0291811,0.00490157 0.0434724,0.012626 -0.017563,-0.0104173 -0.0325157,-0.0267992 -0.0433622,-0.0431969 0.00902362,0.00192913 0.0210394,0.000913386 0.0296969,0.00349606 -0.00941339,-0.010748 -0.0215394,-0.0267795 -0.0298071,-0.0395669 0.0168504,0.00118504 0.0367913,0.00468898 0.0556929,0.0109567 -0.000228346,-0.000346457 -0.000433071,-0.000677165 -0.00065748,-0.00102362 -0.0392205,-0.0580276 -0.10585,-0.094 -0.175449,-0.102079 0.00370472,-0.000295276 0.0127205,-0.00240157 0.0184291,-0.00235827 -0.0166457,-0.0134646 -0.0377205,-0.0201772 -0.056437,-0.0309606 0.00428346,0.000385827 0.00916535,-0.000598425 0.0131142,-0.000314961 -0.00459449,-0.00194882 -0.00880709,-0.00558661 -0.0136772,-0.00744882 0.00572047,-0.00128346 0.0160748,-0.00198425 0.0234488,-0.00164173 -0.0234488,-0.0185866 -0.0675236,-0.0195709 -0.101409,-0.0225866 -0.00457874,0.00173622 -0.00998031,0.00120472 -0.0154331,-0.00168504 0.00477559,0.000669291 0.01,0.00120472 0.0154331,0.00168504 0.00216535,-0.000826772 0.00420866,-0.002 0.0058937,-0.00398031 -0.00836614,-0.00383858 -0.0177165,-0.00530315 -0.0267441,-0.00774409 0.0157323,-0.0110354 0.0411339,0.000814961 0.0579094,-0.00350394 -0.019937,-0.0131102 -0.0514528,-0.0129331 -0.0745,-0.0169606 -0.0289764,-0.00506693 -0.0574016,-0.00887402 -0.0863307,-0.00582677 0.00782677,-0.00101575 0.0171969,-0.00485827 0.0207598,-0.00877559 -0.00717717,-0.000314961 -0.0152205,-0.00147244 -0.0224213,-0.000417323 0.00625984,-0.000799213 0.00966142,-0.00293701 0.0133622,-0.0043937 -0.0102244,0.00015748 -0.0214055,0.000299213 -0.0310354,-0.00348819 0.0181693,-0.00335039 0.0378701,-0.00735827 0.0553583,-0.0131535 -0.0195472,-0.00799606 -0.0466024,-0.00258661 -0.0675984,-0.00355118 -0.0292008,-0.00135433 -0.0593543,-0.00330315 -0.0881772,0.00438583 0.00282677,-0.00109055 0.00567717,-0.00233465 0.00851969,-0.00337008 -0.0134213,-0.00165354 -0.0270039,0.00197244 -0.0402047,0.00408661 0.00452362,-0.00335827 0.00754724,-0.00894094 0.016063,-0.0112874 -0.0152323,-0.000988189 -0.0308858,-0.000102362 -0.0462362,-0.000858268 0.0150157,-0.00733071 0.0407756,-0.00804724 0.0511496,-0.0183307 -0.0439488,-0.0197008 -0.110559,-0.000275591 -0.157161,-0.000976378 0.00231102,-0.00123622 0.00690945,-0.00494488 0.00974016,-0.0063622 -0.0148031,-0.00151575 -0.0290394,0.00307087 -0.0437126,0.00461811 0.00782677,-0.00420472 0.0160433,-0.00805906 0.024063,-0.0118937 -0.0132559,-0.00153543 -0.026252,0.00168898 -0.0392598,0.00166535 0.0153819,-0.010315 0.0358386,-0.0149331 0.0540827,-0.0165079 -0.0616339,0.000417323 -0.118154,0.0125984 -0.178677,0.0219685 0.0084252,-0.00329134 0.0171693,-0.0066811 0.0237047,-0.0119803 -0.0177559,-0.000649606 -0.036374,0.00502362 -0.053189,0.0109016 0.0143661,-0.00681102 0.0285394,-0.0165906 0.0423031,-0.025563 -0.0152756,0.00386614 -0.0323819,0.00695276 -0.0486299,0.00700394 0.0165472,-0.0122835 0.0371772,-0.015937 0.0559843,-0.0236181 -0.073063,-0.0102598 -0.145791,0.0484291 -0.217642,0.0503661 0.0111969,-0.00608268 0.0238543,-0.0120709 0.0335787,-0.0190906 -0.0162205,-0.000547244 -0.032311,0.00591339 -0.0483583,0.00289764 0.0147244,-0.0120354 0.0318543,-0.0214291 0.047378,-0.0324291 -0.0210433,0.00948031 -0.0472402,0.00804724 -0.0692953,0.0151063 -0.0228976,0.00732677 -0.0430118,0.0217953 -0.0678898,0.011815 0.00777559,-0.00716142 0.0193583,-0.0138543 0.0195118,-0.0256654 -0.00845669,0.00208268 -0.0130039,-0.00312992 -0.0188701,-0.00293701 -0.00862598,0.000283465 -0.0167559,0.00752362 -0.026315,0.00904724 0.000744094,-0.00327165 -0.000228346,-0.00898819 0.000444882,-0.0117559 -0.0113386,0.00149606 -0.0215118,0.00766535 -0.032,0.0119331 0.00459843,-0.00904331 0.0121063,-0.0161063 0.0117283,-0.0261772 -0.0418386,0.0131417 -0.0855157,0.0148976 -0.127929,0.0164606 -0.0122598,0.000452756 -0.0212323,0.00420472 -0.0321535,-0.000366142 -0.00445276,-0.00186614 -0.0060315,-0.0113189 -0.0126457,-0.0145276 -0.0149606,-0.00727165 -0.0428622,0.000208661 -0.0595118,0.000811024 0.00895276,-0.00970472 0.0198346,-0.0198504 0.0256339,-0.031185 -0.00762205,0.000775591 -0.016248,-0.00129528 -0.0238937,-0.000555118 0.00366929,-0.00304724 0.0074252,-0.0102441 0.0117087,-0.0133976 -0.0063937,0.00119291 -0.0154409,0.000846457 -0.0224094,0.00389764 0.00264961,-0.00386614 0.00344882,-0.0106417 0.00551181,-0.0140945 -0.0140039,0.00026378 -0.0262992,0.00971654 -0.0384331,0.0160433 0.0114055,-0.00961811 0.0264252,-0.020622 0.034748,-0.0311457 -0.0371929,0.0143622 -0.0710591,0.0322638 -0.112579,0.0294882 0.0104134,-0.00741339 0.024122,-0.0123071 0.0273622,-0.0239055 -0.00783071,0.00224803 -0.0168071,0.00664567 -0.0251496,0.0088189 0.00316142,-0.00640945 0.00516929,-0.0135827 0.0108976,-0.0184213 -0.00973228,0.00247244 -0.0205866,0.010563 -0.0305906,0.0110118 0.00768898,-0.0120551 0.0212008,-0.0198346 0.0257835,-0.0326614 -0.0214646,-0.0109488 -0.0866102,0.0297165 -0.112378,0.0329606 0.00806693,-0.00584252 0.0166575,-0.0119449 0.0236339,-0.0185394 -0.0137835,0.00046063 -0.0263622,0.00814961 -0.0404488,0.00969291 0.00680709,-0.011 0.0215866,-0.0166299 0.0257559,-0.0265197 -0.0106811,0.00144882 -0.0216929,0.0059252 -0.032937,0.00706299 0.014311,-0.00440551 0.029248,-0.0179764 0.0326693,-0.0312008 -0.0872244,0.024752 -0.194618,0.0614449 -0.283,0.0275079 -0.00364961,0.0047874 -0.00709055,0.00977165 -0.0100709,0.0151102 -0.019378,0.0346732 -0.0305827,0.0844016 -0.0339685,0.125421 -0.00224016,0.0270827 -0.000913386,0.0530827 -0.00994094,0.0793504 -0.00902362,0.0262362 -0.0206535,0.0364409 -0.0422402,0.054878 -0.0532953,0.0455236 -0.116217,0.0731732 -0.159654,0.130236 -0.0182953,0.0240433 -0.0379488,0.0451969 -0.0530748,0.0714331 -0.00875591,0.015185 -0.0194764,0.027126 -0.0259882,0.0434685 -0.00506693,0.0127402 -0.00748031,0.0242362 -0.016378,0.0347205 -0.00638976,0.00751575 -0.0136969,0.0143661 -0.0212992,0.0209291 0.00719685,0.0312205 0.00808268,0.0669409 0.011685,0.0923937 0.00948425,0.0667283 0.025311,0.146516 0.0266614,0.212953 -0.0124685,-0.00273228 -0.0235472,-0.0122323 -0.0300591,-0.0248543 0.00770079,0.0144764 0.0124606,0.0313504 0.0107559,0.0479882 -0.00537402,-0.00701575 -0.0168386,-0.0130512 -0.0219331,-0.0203937 -0.000346457,0.0133661 -0.000433071,0.0284685 -0.00316535,0.0399961 -0.00316929,-0.00181496 -0.00605118,-0.00426378 -0.00926772,-0.00608661 -0.00057874,0.0610472 0.0320512,0.122539 0.0540354,0.177441 -0.0128583,-0.00522047 -0.0252362,-0.0114724 -0.0370039,-0.0187717 0.00696457,0.0102126 0.0129134,0.0216772 0.0173504,0.0335866 -0.00419291,-0.00230315 -0.0103031,-0.00377953 -0.0135591,-0.00512992 0.00924803,0.0253386 0.00718504,0.0513307 0.0177598,0.0763661 0.00870472,0.0205866 0.0231496,0.0378386 0.0345,0.057126 0.0296772,0.0505039 0.0547441,0.108291 0.0717323,0.164232 0.0485039,0.159728 0.015126,0.331075 -0.00715748,0.490886 0.00289764,-0.00179134 0.0040315,-0.00415354 0.00726772,-0.00547244 8.26772e-005,0.0254488 0.00948031,0.0493898 0.00913386,0.0752992 0.00270472,-0.00216142 0.00116929,-0.00427559 0.00277559,-0.00643307 0.0277677,0.0384213 -0.0145394,0.153075 -0.0454567,0.186843 -0.0166614,0.0182047 -0.0371063,0.0325276 -0.0553819,0.0488307 -0.000496063,0.00256693 -0.000944882,0.0050748 -0.00151181,0.00774016 -0.0107638,0.0507047 -0.028748,0.0778976 -0.0744803,0.0999016 -0.0307717,0.0147992 -0.103181,0.0404803 -0.109539,0.0758465 -0.00775197,0.0430394 0.0460433,0.0957323 0.0866654,0.0698465 0.0315512,0.0288661 0.0606378,0.0354606 0.101764,0.0449606 0.0115315,0.00268898 0.0378268,0.0105669 0.0510118,0.01 0.0163976,-0.000724409 0.026752,-0.0137677 0.0427283,-0.0147165 0.0175827,-0.00107874 0.0345472,0.00951181 0.054063,0.00402756 0.0177047,-0.00498819 0.0357913,-0.0169173 0.0510039,-0.0275197 0.0324213,-0.0225709 0.0450276,-0.0394528 0.0432441,-0.0796142 -0.00243701,-0.0549173 -0.00803543,-0.10448 -0.00509449,-0.159933 0.00346063,-0.065311 0.0100236,-0.122154 0.0311299,-0.183047 0.0279882,-0.080752 0.0403543,-0.16602 0.0708819,-0.24498 0.0102087,-0.0264134 0.00694882,-0.0513307 0.0100079,-0.0787598 0.00144094,-0.0129016 0.00670472,-0.0237087 0.0124291,-0.0342756 -0.0134921,-0.0453189 -0.0197756,-0.0996969 -0.0218701,-0.142598 -0.00384646,-0.0787087 0.0305394,-0.151878 0.0334173,-0.228311 0.00630315,0.0127402 0.0155276,0.0237835 0.0267244,0.0325827 -0.00429921,-0.0113031 -0.00407087,-0.0249173 -0.00700787,-0.0365 0.0153346,0.000185039 0.0299685,0.0131378 0.0456654,0.0183189 -0.00742126,-0.0166024 -0.0132441,-0.0342717 -0.0224921,-0.050122 0.0155118,0.00670472 0.0294331,0.0161575 0.045248,0.0191181 -0.00716535,-0.0108819 -0.0132913,-0.0227362 -0.0180669,-0.035063 0.0931181,0.0525315 0.227232,0.0502205 0.330917,0.0463346 -0.0199882,-0.0120512 -0.0387992,-0.0272165 -0.0591457,-0.0375551 0.027874,0.00859055 0.0661142,0.0220945 0.0942205,0.0115709 -0.00553937,-0.00877559 -0.00683858,-0.0166575 -0.0180984,-0.0237283 0.0352953,0.00740551 0.0710984,0.00451181 0.106366,-0.000830709 -0.00574409,-0.0064685 -0.00382677,-0.0152008 -0.0183701,-0.0202756 0.0579173,0.0259961 0.14211,0.0141535 0.204685,0.0139291 0.0283307,-0.000110236 0.0700354,0.0108701 0.0946575,7.48031e-005 -0.00959843,-0.00879921 -0.0209724,-0.0169606 -0.0327126,-0.0234606 0.015689,0.00450394 0.0320551,0.00575197 0.0482559,0.00370472 -0.00439764,-0.00337795 -0.00823228,-0.0103543 -0.0177008,-0.0140236 0.0747008,0.00544094 0.145173,0.0171535 0.203051,0.0680984 0.065811,0.0579055 0.0755669,0.156972 0.131528,0.221811 -0.00999606,-0.0177362 -0.0178307,-0.0449213 -0.0105354,-0.0616614 0.0234685,0.0373386 0.0407756,0.0780472 0.0801457,0.102197 -0.00926378,-0.0119409 -0.0231024,-0.0242677 -0.025252,-0.0399449 0.0387008,0.03 0.0697047,0.0737874 0.109055,0.105472 0.0359803,0.0289724 0.073248,0.0576063 0.110339,0.0849488 0.061252,0.0452008 0.121677,0.081374 0.15978,0.148835 0.0350984,0.0621181 0.0438228,0.116591 0.0403228,0.17115 0.013311,0.0550157 -0.0016378,0.117768 -0.0130591,0.173287 -0.0129685,0.0629921 -0.0351929,0.114571 -0.0950118,0.145252 -0.054689,0.0280591 -0.127417,0.0175197 -0.175114,0.0591063 -0.0334409,0.0291693 -0.0413425,0.131992 0.0175787,0.132945 0.00393701,0.028811 0.063063,0.0514291 0.0893307,0.0556496 0.0165827,0.00268504 0.0312835,-0.00618504 0.044,-0.00567717 0.0151496,0.000559055 0.0313937,0.011378 0.0471969,0.012748 0.0358661,0.00312992 0.0603583,-0.0154921 0.0923228,-0.0249055 0.0283465,-0.00831102 0.0621181,-0.0211575 0.0912638,-0.025811 0.0269134,-0.0619685 0.0584252,-0.119319 0.0686496,-0.188209 0.0058937,-0.0397559 0.0140669,-0.0744724 0.0285748,-0.112713 0.0143701,-0.037815 0.0256614,-0.0720906 0.0345118,-0.111224 0.0110472,-0.0489567 0.0426969,-0.0893622 0.0669646,-0.132232 0.0107205,-0.0188937 0.0239449,-0.0364449 0.035689,-0.0544764 -0.00836614,-0.109992 -0.0369409,-0.203724 -0.112811,-0.298142 0.00924016,0.00841732 0.0228661,0.0153465 0.032815,0.0245118 -0.00726378,-0.0225472 -0.0166299,-0.0471614 -0.0224921,-0.0684173 0.00629134,0.00624016 0.0162244,0.011248 0.023122,0.0180906 0.00248425,-0.0255827 -0.00739764,-0.0504567 -0.0139409,-0.0749843 0.00618898,0.0043622 0.0130197,0.00644882 0.018311,0.0125984 -0.0791614,-0.076811 -0.0849685,-0.311335 -0.0587126,-0.410374 0.00602362,0.00694094 0.0249764,0.0185236 0.0288071,0.0248189 -0.000645669,-0.0315236 -0.00279528,-0.0889449 0.0409724,-0.0635945 0.00836614,-0.0240236 -0.00181496,-0.0962756 0.0443583,-0.0735394 0.0452323,-0.0846811 0.0275039,-0.184579 -0.0249724,-0.263425 0.0258031,0.0114528 0.0445433,0.0344764 0.0682047,0.0467717 -0.00801969,-0.0238346 -0.0214488,-0.0456102 -0.0294488,-0.0698898 0.0117913,0.0120512 0.025685,0.0235787 0.0391102,0.0324291 -0.00266142,-0.0271181 -0.0263819,-0.0497441 -0.0349409,-0.076311z"/>
   <path id="_215552664" class="fil6" d="M1.39388 3.08083c0.0340236,0.0209606 0.0556024,0.0436929 0.0797362,0.0748189 0.013815,0.0178228 0.0225709,0.0390118 0.0356417,0.0572992 0.0113268,0.0158543 0.0301575,0.0267244 0.0471969,0.0348937 0.0194094,0.00930709 0.0317126,0.0249803 0.0503228,0.0345551 0.025122,0.0129252 0.0502362,0.00595276 0.0767047,0.00195669 0.0228386,-0.00345669 0.0456417,-0.00392913 0.0658425,-0.0166142 0.0244803,-0.015374 0.0497913,-0.0329685 0.0685866,-0.0551063 0.00889764,-0.0104843 0.011311,-0.0219803 0.016378,-0.0347205 0.00651181,-0.0163425 0.0172323,-0.0282835 0.0259882,-0.0434685 0.015126,-0.0262362 0.0347795,-0.0473898 0.0530748,-0.0714331 0.043437,-0.057063 0.106358,-0.0847126 0.159654,-0.130236 0.0215866,-0.018437 0.0332165,-0.0286417 0.0422402,-0.054878 0.00902756,-0.0262677 0.00770079,-0.0522677 0.00994094,-0.0793504 0.00338583,-0.0410197 0.0145906,-0.090748 0.0339685,-0.125421 0.00298031,-0.00533858 0.00642126,-0.0103228 0.0100709,-0.0151102 -0.000625984,-0.000240157 -0.00125591,-0.000393701 -0.00187795,-0.000641732 0.00026378,-0.000374016 0.000531496,-0.000755906 0.000791339,-0.00112992 -0.0750827,-0.0172441 -0.0429331,-0.0323307 -0.0338976,-0.0404055 0.0196969,-0.0176142 0.0364055,-0.0380512 0.0536575,-0.057815 0.0363071,-0.0416142 0.0635748,-0.0756969 0.0612638,-0.132886 -0.00237402,-0.0590591 0.0472205,-0.0862913 0.0712323,-0.138681 0.0254016,-0.0554291 0.0300197,-0.119315 0.0522992,-0.174461 0.0185945,-0.0460472 0.0306969,-0.106504 0.0284449,-0.157232 -0.00109843,-0.0244528 -0.00464567,-0.0476142 -0.00220472,-0.0729016 0.00239764,-0.0247795 0.0095315,-0.0522756 0.00472441,-0.0770157 -0.0087126,-0.0447992 -0.0175157,-0.0919016 -0.0274173,-0.136484 -0.00750787,-0.0337992 -0.035748,-0.0789646 -0.0732717,-0.0884567 -0.0206929,-0.00524016 -0.0511102,0.0161614 -0.0688031,0.0272008 -0.0264134,0.0165039 -0.0506811,0.0370866 -0.0749646,0.0559291 -0.0657835,0.0509961 -0.136205,0.11324 -0.184386,0.181709 -0.0493228,0.0700945 -0.100134,0.139705 -0.143177,0.214094 -0.0174488,0.0301614 -0.032378,0.0620039 -0.049315,0.0924331 -0.0150591,0.0270591 -0.0415157,0.0507008 -0.0525984,0.0796575 -0.0085315,0.0222598 -0.0056811,0.0482087 -0.0244016,0.00547244 -0.0222362,0.0220827 -0.0512835,-0.00777559 -0.130882,-0.00114173 -0.0366969,0.112898 -0.12526,-0.0223701 -0.149661,0.00138583 -0.0082126,-0.0460472 -0.0276378,-0.0905591 -0.0453189,-0.133953 -0.0195197,-0.0479331 -0.0409173,-0.105102 -0.0688701,-0.148138 -0.0351417,-0.0540945 -0.0734291,-0.106626 -0.112878,-0.157626 -0.0531811,-0.0687598 -0.22374,-0.279886 -0.293264,-0.123386 -0.0135236,0.030437 -0.0137874,0.0702323 -0.0171969,0.102921 -0.0043622,0.0419134 -0.0234882,0.0816024 -0.0257087,0.123551 -0.00175591,0.0331811 0.00434252,0.064311 0.00611811,0.0962323 0.000996063,0.0179252 -0.0072126,0.0336378 -0.010878,0.0507047 -0.00346457,0.0160984 -0.0016063,0.0304843 -0.00110236,0.046811 0.00111417,0.0360551 -0.00247638,0.0720709 -0.00234646,0.10813 0.000188976,0.0535787 -0.00191339,0.107126 0.0137795,0.15961 0.00775591,0.0259094 0.0152677,0.0474961 0.0304252,0.0700709 0.0113228,0.016874 0.0358661,0.0292598 0.0444803,0.0457087 0.00663386,0.0126811 0.00333858,0.0370472 0.00585433,0.0512638 0.00399213,0.0224882 0.0117677,0.038563 0.025563,0.057122 0.00968898,0.0130315 0.0503504,0.0368583 0.103618,0.105594 -9.05512e-005,0.0265984 0.0552756,0.158449 0.0656969,0.182492 0.0114449,0.0264016 0.0266339,0.0592008 0.0480118,0.0791417 0.00659055,0.00614567 0.0155394,0.0129134 0.023437,0.0171378 0.0509921,0.0269055 0.0632205,0.037378 0.112925,0.0684803 0.00455118,0.00284252 0.0169173,0.00922047 0.0197913,0.0124016 0.000370079,0.00011811 0.000748031,0.000188976 0.00112205,0.000318898 0.018248,0.00633071 0.0297402,0.019685 0.0458386,0.0295945z"/>
   <path id="_215552976" class="fil1" d="M0.99163 1.80408c-0.00102362,0.00125984 -0.00198425,0.00258661 -0.00284646,0.00403937 -0.00611811,0.0103228 -0.0075,0.023378 -0.012,0.0345433 -0.00396457,0.00983071 -0.00885433,0.0189449 -0.0105276,0.0295157 -0.00160236,0.0101496 0.00096063,0.0209961 -0.00602362,0.0298425 -0.000401575,-0.000877953 -0.000862205,-0.00190945 -0.00132283,-0.00299213 -0.00261024,0.0208701 -0.00981102,0.042374 -0.0113071,0.0628346 -0.00250394,0.0342441 -0.00329528,0.0686378 -0.00546457,0.10287 -0.00364961,0.0573307 0.00517323,0.116941 -0.000574803,0.173043 -0.00168504,-0.00764961 -0.00357087,-0.0169252 -0.00581496,-0.0250394 -0.00333858,0.0351811 -0.0090748,0.0814606 0.00485433,0.115445 0.0151772,0.0370157 0.017874,0.0685669 0.0479843,0.0976732 0.0134567,0.0130039 0.0307638,0.0337677 0.0360945,0.0512598 0.0062874,0.0205787 0.0167047,0.032189 0.029378,0.0495118 0.0137559,0.0188071 0.0393268,0.058874 0.0687992,0.0558858 -0.00818504,-0.00732677 -0.0200866,-0.0123661 -0.0259961,-0.0217323 0.0246181,0.012378 0.0483307,0.0202165 0.075374,0.0109882 0.000854331,-0.000295276 0.00168504,-0.000452756 0.00255512,-0.000779528 0.0254882,-0.00967323 0.0435906,-0.0367008 0.0548307,-0.0589961 0.0146102,-0.0290039 0.0785472,-0.123783 0.0678543,-0.149819 0.00179528,0.00223228 0.00422835,0.00400394 0.00597638,0.00622047 -0.00259843,-0.00380709 -0.00439764,-0.00783465 -0.00436614,-0.0122008 0.00666535,2.75591e-005 0.00982283,0.00582283 0.0133268,0.0110906 0.00162205,-0.0171654 0.00109055,-0.0362205 0,-0.0533701 -0.000846457,-0.0133465 -0.00414567,-0.0265512 -0.005,-0.0403228 -0.000858268,-0.0139567 -0.00698819,-0.0253268 -0.0107244,-0.0386732 -0.00358661,-0.0128425 -0.00447638,-0.0206299 -0.0125748,-0.0322283 -0.00415748,-0.00595669 -0.083685,-0.100902 -0.062811,-0.0886457 -0.0173976,-0.0159291 -8.26772e-005,-0.0091063 0.00947638,0.00138976 -0.0129567,-0.0147047 -0.0189488,-0.0402677 -0.0258425,-0.0581417 -0.0080748,-0.0209606 -0.0163858,-0.0410315 -0.0257598,-0.0616496 -0.0159094,-0.0350197 -0.0372677,-0.0695906 -0.0587087,-0.10187 -0.0306339,-0.046126 -0.0594646,-0.0889528 -0.116945,-0.0998543 -0.00443701,0.00285827 -0.00854331,0.00604724 -0.0118937,0.0101614z"/>
   <path id="_215553216" class="fil5" d="M2.16867 1.79717c-0.000744094,0.000311024 -0.00148425,0.000590551 -0.00224016,0.000917323 -0.0538819,0.0231378 -0.0970079,0.0613465 -0.131343,0.108276 -0.0399961,0.0546693 -0.0812126,0.109728 -0.111276,0.170772 0.00149213,-0.00384646 0.00192913,-0.00759449 0.00308661,-0.0114252 -0.0064685,0.0058937 -0.0073189,0.0134921 -0.0113976,0.0208898 -0.0126693,0.0229646 -0.0313976,0.0434173 -0.0457205,0.0652874 -0.0271417,0.0414331 -0.0669921,0.0949882 -0.0748583,0.144961l0.00707087 -0.00530315c-0.00453543,0.00961417 -0.0105236,0.0206575 -0.00975984,0.0319961 0.000397638,-0.0092126 0.00793701,-0.0152717 0.0107362,-0.0234016 -0.000389764,0.0114331 -0.00482677,0.0256654 -0.00642126,0.0360039 0.00329134,-0.00927559 0.00793307,-0.0176142 0.0127323,-0.0264094 -0.0102205,0.0280394 0.00818504,0.0904449 0.0328937,0.105331 -0.000622047,-0.00209055 -0.000125984,-0.00690945 -0.0011378,-0.00983465 0.00633071,0.00319291 0.0125118,0.00696457 0.0187677,0.01 -0.00320079,-0.00652756 -0.00583465,-0.0134488 -0.00633465,-0.0207008 0.0300354,0.0105276 0.0571339,0.0326299 0.0898701,0.0403189 0.0418031,0.00980315 0.0830906,0.0064685 0.119917,-0.0159646 0.00465354,-0.00283858 0.00900394,-0.00554724 0.0132362,-0.00824016 0.0217559,-0.0138031 0.0385591,-0.0266457 0.0557717,-0.0487992 0.0105197,-0.0135394 0.019563,-0.0286378 0.0283425,-0.043374 0.0108189,-0.0181575 0.0306063,-0.0406654 0.0357795,-0.060189 -0.00753543,0.00339764 -0.0137717,0.0114134 -0.0226142,0.0117441 0.000814961,-0.0128661 0.0125748,-0.0214961 0.0203228,-0.0314606 -0.00759843,0.00439764 -0.0143071,0.0110591 -0.0207283,0.0172244 0.0289685,-0.047374 0.0642323,-0.087626 0.0707913,-0.145024 0.00584646,-0.0511693 0.00537008,-0.105272 0.00329528,-0.156815 -0.000641732,0.000594488 -0.00108268,0.0012874 -0.00161024,0.00194094 0.00435433,-0.0273504 0.00169685,-0.0606024 -0.0014252,-0.0857283 -0.00256693,-0.0207165 -0.00512992,-0.0400669 -0.0162087,-0.058374 -0.0157598,-0.0260512 -0.0345118,-0.0249843 -0.0595394,-0.0146181z"/>
   <path id="_215553120" class="fil8" d="M1.45825 2.26958c-0.00227559,0.0370866 -0.0264961,0.0677283 -0.0383465,0.101874 -0.0141299,0.0407087 -0.0308701,0.0830551 -0.0477559,0.123091 -0.0162874,0.038622 -0.0371417,0.0633937 -0.0590315,0.096126 0.00803937,-0.0015 0.0163622,-0.00209843 0.0251378,-0.00175984 -0.00178346,0.00224016 -0.00340157,0.0088937 -0.00639764,0.0120472 0.00859449,-0.00262205 0.0194646,-0.00376378 0.0289921,-0.00444488 -0.0185669,0.0215236 -0.0373465,0.0327953 -0.0581535,0.0502244 0.00728346,0.000523622 0.0145,0.00400787 0.0207165,0.00490945 -0.00653937,0.000877953 -0.0117598,0.00440945 -0.0173976,0.00572835 0.00617717,0.000649606 0.0124567,0.00484646 0.0185079,0.00566142 -0.00185039,0.00135433 -0.00387402,0.00248031 -0.00582283,0.00395276 0.00753937,-0.00111417 0.0151024,0.00277165 0.0222835,0.00343701 -0.00325197,0.00351575 -0.00524016,0.0110748 -0.0100906,0.0145 0.015752,0.000429134 0.0329646,-0.0106614 0.0461063,-0.0189252 -0.00876378,0.0103386 -0.0161575,0.0230906 -0.0231181,0.0344685 0.0202795,-0.00432283 0.0412165,-0.00725984 0.0634803,-0.0075 0.0373189,-0.000397638 0.0579606,-0.0133858 0.0910315,0.00527559 -0.00286614,0 -0.00576772,-0.000330709 -0.00862992,-0.000374016 0.000653543,0.00233071 0.00658268,0.00429528 0.00712205,0.0078937 -0.0012126,0.00115354 -0.00509449,0.003 -0.00526772,0.00445669 0.0405197,0.00342913 0.0893346,-0.000661417 0.124472,0.0206772 -0.0039685,-0.00595669 -0.00749606,-0.0147047 -0.0123346,-0.0197756 0.0443583,0.00425197 0.0654252,0.0441811 0.0633504,0.0853543 0.0104409,-0.0232756 0.0126535,-0.051748 0.0275709,-0.0727441 -0.000259843,0.00807874 0.00080315,0.014622 -0.00159055,0.0225315 0.0181811,-0.0188622 0.0272717,-0.0431732 0.0504528,-0.0583976 0.0349646,-0.0229567 0.0731417,-0.0152717 0.109575,-0.0247717 -0.00894882,-0.0043189 -0.0177795,-0.00768504 -0.0273622,-0.0110157 0.0292913,-0.000629921 0.0587402,0.00276772 0.0858189,0.0143937 -0.00372047,-0.00884646 -0.0066811,-0.0186378 -0.00659055,-0.0283976 0.00455906,0.00294488 0.0121417,0.00482283 0.0163228,0.00825984 -0.00254724,-0.00397244 -0.00535433,-0.0122756 -0.00868504,-0.0170276 0.00800787,0.0067126 0.0159567,0.0150787 0.0242795,0.0202559 -0.00124803,-0.00666535 -0.00026378,-0.0153858 -0.00237795,-0.0221299 0.000641732,0.00116535 0.00116535,0.00211024 0.00162992,0.00297244 -0.0343346,-0.0735709 -0.112701,-0.112063 -0.157476,-0.177571 -0.0285,-0.0416969 -0.0561339,-0.0846732 -0.0752795,-0.131768 -0.00861811,-0.021189 -0.0175394,-0.0474252 -0.0234488,-0.074122 -0.0316654,-0.00643307 -0.0722008,-0.0138031 -0.106744,-0.0119606 -0.0487244,0.00259449 -0.042378,0 -0.113646,0.0129961 -0.018811,0.00343307 -0.00807874,0.0179213 -0.010874,0.00697638 0.0018937,0.0161024 0.000330709,0.00222047 -0.000429134,0.014622z"/>
   <path id="_215552472" class="fil8" d="M2.07374 2.91296c-0.00301575,-0.0198465 -0.011252,-0.0396929 -0.022374,-0.0570709 -0.000137795,0.0010315 -0.00162205,0.00400394 -0.00173622,0.00566929 -0.00265748,-0.00504724 -0.00526772,-0.0105748 -0.0108228,-0.0124685 0.00084252,0.00179134 0.00104724,0.0040315 0.0021378,0.00590945 -0.013874,-0.00713386 -0.0211378,-0.0153189 -0.0379803,-0.015685 0.000948819,-0.00141339 0.000929134,-0.00327165 0.00190551,-0.00475197 -0.00144488,0.00034252 -0.00391339,0.000137795 -0.00532677,0.000515748 0.000799213,-0.00458661 0.00587402,-0.0103189 0.00822047,-0.0145827 -0.0146496,0.0150157 -0.0397047,0.0207165 -0.0593228,0.0256457 -0.0195512,0.00489764 -0.0390709,0.00224016 -0.0587165,-0.000523622 -0.0368622,-0.00519291 -0.0795315,-0.00700787 -0.107465,0.0179921 0.00311024,-0.0150118 0.00590945,-0.031185 0.00977953,-0.045752 -0.000874016,0.00112992 -0.00356299,0.00329528 -0.00449213,0.00457874 0.00911024,-0.0196535 0.00620079,-0.0482205 0.00723622,-0.0683819 -0.000744094,0.00208268 -0.00242913,0.00410236 -0.00320079,0.00617323 -0.00151575,-0.00904724 0.00656299,-0.016685 0.00383465,-0.0253858 -0.00335827,0.00740551 -0.00938189,0.0173661 -0.0149055,0.0232323 -8.66142e-005,-0.00138583 -0.000586614,-0.00276378 -0.000877953,-0.0040748 -0.000161417,0.00294488 -0.00204331,0.00474409 -0.00302362,0.00733071 -0.00096063,-0.000464567 -0.00175197,-0.000885827 -0.00277559,-0.0015315 0.00042126,0.0104449 -0.00136614,0.0213425 -0.00244882,0.0323465 -0.00185433,0.0188543 -0.00895276,0.0403307 -0.0105591,0.0592874 -0.00160236,0.0189055 -0.00470079,0.0393858 -0.0043937,0.0589843 -0.00206693,0.0116457 -0.00125197,0.0235039 0.00215354,0.0370748 0.00620866,0.0247992 0.0014685,0.0541535 0.0167598,0.0758937 0.0126969,0.0180512 0.0267717,0.0349213 0.0363425,0.0547559 0.00538583,0.0111496 0.00431496,0.0205472 0.00708661,0.0320394 0.00128346,0.00531102 0.0031378,0.0170197 0.0064252,0.0213937 0.00483071,0.00643701 0.0128504,0.00472047 0.0191693,0.00872047 0.00375984,0.00237402 0.00581496,0.00505512 0.0071378,0.00795276 0.00299213,-0.00444488 0.00598819,-0.00894882 0.00877559,-0.0137953 0.015126,-0.0262362 0.0347795,-0.0473898 0.0530748,-0.0714331l0.061122 -0.0597283c0.00724409,-0.00707874 0.0596378,-0.0363071 0.0891811,-0.060752 0.000224409,0.000566929 0.00254724,-0.00508661 0.00282283,-0.00453543 0.00215748,-0.00175591 0.0043937,-0.00339764 0.00652756,-0.00522047 0.000551181,-0.000464567 0.00101969,-0.00088189 0.00155512,-0.00133858 -5.11811e-005,-0.00658268 7.87402e-006,-0.0130039 -0.000826772,-0.0184843z"/>
   <path id="_215552616" class="fil8" d="M1.53425 2.84193c0.000598425,-0.0139094 -0.00710236,-0.0299173 -0.00831102,-0.043685 -0.000771654,-0.00872835 -0.00451575,-0.0174764 -0.00479134,-0.0259134 0.00176378,0.00205906 0.0041378,0.00363386 0.00565354,0.00585039 -0.000811024,-0.0107638 -0.0179803,-0.0273937 -0.0215945,-0.0377913 -0.00245669,0.00309449 0.00324803,0.0140197 0.00367717,0.0179449 -0.00133858,-0.00188189 -0.00317717,-0.00295669 -0.00445276,-0.00496063 0.000543307,0.00198031 3.14961e-005,0.00414961 0.000401575,0.00593701 -0.00179921,-0.00209055 -0.00464567,-0.00359055 -0.00640551,-0.0053622 0.00164173,0.00837008 0.00620866,0.0169134 0.00251181,0.0254213 -0.000834646,-0.00198425 -0.00309449,-0.00557874 -0.00344094,-0.00734252 0.00477953,0.0136614 -0.00602756,0.0337283 -0.00589764,0.0484606 0.000106299,-0.00303937 0.000889764,-0.00525984 0.0017126,-0.00740945 0.00015748,0.0158937 0.00975591,0.0318898 0.0137756,0.0462047 -0.0287835,-0.016937 -0.0677441,-0.0149213 -0.101902,-0.0103346 -0.0205748,0.00276772 -0.0410039,0.0054252 -0.0614764,0.000531496 -0.0205394,-0.00493701 -0.0467835,-0.0106299 -0.0621181,-0.0256457 0.00246063,0.00425984 0.00776772,0.00999606 0.00860236,0.0145748 -0.00148031,-0.000377953 -0.00405906,-0.000169291 -0.00557087,-0.000507874 0.00101575,0.00148425 0.001,0.00333071 0.00199213,0.00475197 -0.0176299,0.000366142 -0.0252402,0.00855118 -0.0397717,0.015685 0.00114961,-0.00188189 0.00135039,-0.00412205 0.00224016,-0.00591339 -0.00581102,0.00189764 -0.00855118,0.00742913 -0.0113307,0.0124764 -0.000114173,-0.00167323 -0.00166929,-0.00464173 -0.00181496,-0.00567323 -0.0116496,0.0173701 -0.0202795,0.0372205 -0.0234291,0.0570669 -0.00229134,0.0143819 0.00175197,0.0351024 -0.00670866,0.0485315 0.00243701,0.00166142 0.00484252,0.00318504 0.00720866,0.00450787 0.000393701,0.000224409 0.000807087,0.0005 0.00119685,0.000708661 0.0509921,0.0269055 0.0632205,0.037378 0.112925,0.0684803 0.00181102,0.00112598 0.00486614,0.00282677 0.00805906,0.00464961 0.00483071,0.00276378 0.01,0.00583071 0.0117323,0.00775197 0.000370079,0.00011811 0.000748031,0.000188976 0.00112205,0.000318898 0.018248,0.00633071 0.0297402,0.019685 0.0458386,0.0295945 0.0282638,0.0174094 0.047937,0.036126 0.067622,0.0597756 0.00420079,-0.000956693 0.00829134,-0.00195669 0.0112402,-0.0057126 0.00344488,-0.00437008 0.00538189,-0.0160709 0.00672441,-0.0213819 0.00290945,-0.0114882 0.00177953,-0.0208937 0.0074252,-0.0320472 0.0100197,-0.0198268 0.0247559,-0.0367008 0.0380512,-0.054748 0.0160118,-0.021748 0.0110512,-0.0511024 0.0175512,-0.0758937 0.00495276,-0.0188543 0.00486614,-0.0344016 -0.00162992,-0.0506575 -0.00225984,-0.0195472 -0.0075,-0.0374921 -0.00661811,-0.0582441z"/>
   <path id="_215552520" class="fil8" d="M1.77878 2.45539c0.00585827,0.00446457 0.0107205,0.00940157 0.0166457,0.0133937 -0.0176299,-0.0303268 -0.0371378,-0.0560433 -0.0465591,-0.0915276 -0.0082874,-0.0312008 -0.013374,-0.0640354 -0.0145984,-0.0910945 -0.00121654,-0.0270591 0.0137677,-0.0570157 0.0285039,-0.0800315 0.0306299,-0.0478386 0.0730039,-0.0924961 0.107992,-0.139768 0.023,-0.0310709 0.0404764,-0.0674449 0.0624252,-0.0997953 0.0134567,-0.0198307 0.0186811,-0.0410709 0.0290039,-0.0629921 0.0164646,-0.0349882 0.039189,-0.0829055 0.0721339,-0.104134 -0.00441339,0.00511024 -0.0090315,0.0103898 -0.0087126,0.0171772 0.0338898,-0.0200472 0.0522323,-0.0662874 0.0784409,-0.0951614 0.016878,-0.0185945 0.0354803,-0.0360039 0.0529567,-0.0537953 0.000476378,-0.000488189 0.000897638,-0.000929134 0.00137008,-0.00140945 -0.00517323,0.00409449 -0.0103346,0.00818898 -0.0154764,0.0121811 -0.0638031,0.0494646 -0.132106,0.109839 -0.178839,0.176248 -0.0478346,0.0679843 -0.097122,0.1355 -0.138866,0.20765 -0.0169291,0.029252 -0.0314055,0.0601378 -0.0478346,0.0896496 -0.0146063,0.026248 -0.0402638,0.0491772 -0.0510157,0.0772598 -0.00827165,0.0215906 -0.00550787,0.0467598 -0.0236693,0.0647992 -0.00352362,0.0035 -0.00795669,0.00626772 -0.0127362,0.00873228 0.0048937,0.0221102 0.0122835,0.0438386 0.0194213,0.0613858 0.0158583,0.0390039 0.0387441,0.0745984 0.0623465,0.109134 0.0259291,0.0379331 0.0654291,0.0649567 0.0965827,0.0985906 -0.00920079,-0.0189134 -0.0298583,-0.0406102 -0.0379016,-0.0510866 -0.0161496,-0.0210276 -0.0379921,-0.0440512 -0.0516142,-0.0654055z"/>
   <path id="_215551968" class="fil8" d="M1.18989 1.80419c0.00798425,0.012874 0.0117402,0.0286496 0.0204528,0.0408583 -0.0012126,-0.00368898 -0.00118504,-0.00806693 -0.00280709,-0.011752 0.0136181,0.0128701 0.0171417,0.037878 0.0270197,0.0536575 0.0119803,0.0191417 0.0248543,0.0389882 0.0313858,0.0610787 -2.3622e-005,-0.00587402 -0.000897638,-0.011689 -0.00162205,-0.0174449 0.0138228,0.0173268 0.0159843,0.0439449 0.0285827,0.0631654 0.0170197,0.0259724 0.0352559,0.0503661 0.050252,0.0776378 0.025937,0.0471693 0.0228937,0.0996496 0.0225354,0.153791 0.000799213,-0.00495669 0.0028622,-0.00979134 0.00573622,-0.014126 0.0021378,0.008 0.0091063,0.0150748 0.0131063,0.0227874 0.00948425,0.018248 0.00962992,0.0371496 0.00962992,0.0578898 7.87402e-006,0.0383189 -0.000665354,0.0763858 -0.00755906,0.114315 0.000795276,-0.00297244 0.0017126,-0.00592913 0.00307087,-0.00870079 0.00102756,0.0188543 0.00245669,0.0379724 0.00132283,0.0571142 -0.000350394,0.00594094 -0.00156693,0.0126496 -0.00259843,0.0194449 0.00080315,-0.00180709 0.00162205,-0.00353937 0.00239764,-0.0054252 0.0126024,-0.0307638 0.0250945,-0.0632402 0.0356417,-0.0943622 0.00884252,-0.0261024 0.0269173,-0.0502402 0.0286181,-0.0780354 0.000562992,-0.00929528 6.29921e-005,-0.0209409 -0.00135039,-0.0328622 -0.00249606,-0.00107874 -0.00492913,-0.00222835 -0.00759449,-0.00309843 -0.0108819,-0.00355906 -0.00902756,0.000444882 -0.0173425,-0.00729528 -0.00553543,-0.00515748 -0.0104213,-0.0168071 -0.0126496,-0.0240669 -0.00479528,-0.0156535 -0.00779528,-0.0308031 -0.0107283,-0.0470118 -0.00748031,-0.0414331 -0.025189,-0.080752 -0.0412953,-0.119169 -0.0177874,-0.0424291 -0.0372835,-0.0931614 -0.0627598,-0.130591 -0.0320236,-0.0470472 -0.0669134,-0.0924724 -0.102858,-0.136425 -0.0119803,-0.0146378 -0.0304921,-0.0367441 -0.0525157,-0.0595118 0.00444882,0.0115866 0.0104803,0.0217323 0.0200827,0.0345197 0.00829921,0.0110669 0.0165394,0.0218386 0.0238465,0.0336181z"/>
   <path id="_215551920" class="fil9" d="M1.80399 2.90054c0,-0.0151299 0.00150787,-0.0256299 0.0111457,-0.0355276 -0.0227165,0.0129449 -0.0375236,0.0408858 -0.0375236,0.0408858 -0.00456693,0.00811024 0.000496063,0.0076063 0.00625591,0.0124055 0.00976772,0.00811417 0.0113228,0.0120472 0.0126299,0.0239449 0.0014685,0.0134213 0.00716929,0.0126772 0.0202598,0.0118898 0.00753937,-0.000448819 0.0150472,-0.00135433 0.0225433,-0.00229134 -0.0205276,-0.00755118 -0.035311,-0.027563 -0.035311,-0.0513071z"/>
   <path id="_215552448" class="fil10" d="M1.93151 2.88819c0.0032874,-0.00397638 0.0206535,-0.0153386 0.0253976,-0.0360827 5.90551e-005,-0.000283465 -0.024248,0.00646457 -0.0293425,0.0071063 -0.00756693,0.00096063 -0.0134409,0.00123622 -0.0233386,0.000464567 0.00876378,0.00976378 0.00596457,0.0265236 0.00596457,0.0408661 0,0.0196024 -0.0216063,0.0388622 -0.0366614,0.0485118 0.00472835,-0.00121654 0.0289685,-0.0101063 0.0389213,-0.0187165 0.00719685,-0.00622441 0.0336496,-0.0450039 0.0190591,-0.0421496z"/>
   <path id="_215552232" class="fil11" d="M1.91019 2.90054c0.00149213,-0.0142717 0.00279921,-0.0311024 -0.00596457,-0.0408661 -0.0110472,-0.00211024 -0.0281339,-0.00440157 -0.0399606,-0.00527559 -0.0238504,-0.00175197 -0.0396063,0.00446063 -0.0491299,0.0106142 -0.0096378,0.00989764 -0.0111457,0.0203976 -0.0111457,0.0355276 0,0.0237441 0.0147835,0.0437559 0.035311,0.0513071 0.00582283,-0.000708661 0.0101142,-0.000248031 0.0159409,-0.000724409 0.00912205,-0.00076378 0.00883071,-0.000503937 0.0182874,-0.00207087 0.0150551,-0.00964961 0.0326811,-0.0105394 0.0366614,-0.0485118z"/>
   <path id="_215551944" class="fil12" d="M1.87513 2.88408c0,0.0117362 -0.0095,0.0212402 -0.0212362,0.0212402 -0.0117323,0 -0.0212362,-0.00950394 -0.0212362,-0.0212402 0,-0.0117283 0.00950394,-0.0212323 0.0212362,-0.0212323 0.0117362,0 0.0212362,0.00950394 0.0212362,0.0212323z"/>
   <path id="_215552160" class="fil13" d="M1.50164 2.90627c0,-0.015122 -0.00150787,-0.025622 -0.0111417,-0.0355197 0.0227165,0.0129449 0.0375197,0.0408819 0.0375197,0.0408819 0.0045748,0.00811417 -0.000496063,0.00761024 -0.00625197,0.0124016 -0.00976772,0.00812598 -0.0113228,0.0120551 -0.0126299,0.0239488 -0.00148031,0.0134252 -0.00716535,0.0126811 -0.0202598,0.0118937 -0.00754331,-0.000448819 -0.0150512,-0.00135827 -0.0225512,-0.0022874 0.0205354,-0.00755118 0.035315,-0.0275709 0.035315,-0.0513189z"/>
   <path id="_215552088" class="fil14" d="M1.37412 2.89392c-0.0032874,-0.00397638 -0.0206496,-0.0153346 -0.0254016,-0.0360827 -5.11811e-005,-0.000275591 0.024252,0.0064685 0.0293465,0.00711024 0.00756693,0.000952756 0.0134409,0.00123622 0.0233346,0.000464567 -0.00875984,0.00975984 -0.00596457,0.0265236 -0.00596457,0.0408583 0,0.0196063 0.0216102,0.0388661 0.0366693,0.0485236 -0.00473622,-0.00122047 -0.0289724,-0.0101063 -0.0389291,-0.0187205 -0.00719291,-0.00622441 -0.0336457,-0.0450079 -0.0190551,-0.0421535z"/>
   <path id="_215552112" class="fil11" d="M1.39544 2.90627c-0.00148819,-0.0142638 -0.00279528,-0.0310984 0.00596457,-0.0408583 0.0110433,-0.00211811 0.0281339,-0.00440551 0.0399646,-0.00527953 0.0238465,-0.00174803 0.0396063,0.00446063 0.0491299,0.0106181 0.00963386,0.00989764 0.0111417,0.0203976 0.0111417,0.0355197 0,0.023748 -0.0147795,0.0437677 -0.035315,0.0513189 -0.00581496,-0.000716535 -0.0101063,-0.000251969 -0.015937,-0.000732283 -0.00911811,-0.000767717 -0.00882283,-0.0005 -0.0182795,-0.00206299 -0.0150591,-0.00965748 -0.032689,-0.0105433 -0.0366693,-0.0485236z"/>
   <path id="_215552136" class="fil12" d="M1.43049 2.8898c0,0.0117441 0.00950787,0.021248 0.0212362,0.021248 0.0117362,0 0.0212402,-0.00950394 0.0212402,-0.021248 0,-0.0117205 -0.00950394,-0.0212244 -0.0212402,-0.0212244 -0.0117283,0 -0.0212362,0.00950394 -0.0212362,0.0212244z"/>
   <path id="_215551824" class="fil11" d="M1.6162 3.17787c-0.0115315,-0.00743701 -0.0249921,-0.00585827 -0.0371417,-0.00195276 0.00207874,0.0226299 0.0281929,0.0291654 0.0528976,0.0353031 0.00105906,-0.0114409 -0.00804331,-0.0283701 -0.0157559,-0.0333504z"/>
   <path id="_215551272" class="fil11" d="M1.7123 3.17557c-0.0168386,0.00640945 -0.0134882,0.024 -0.00434646,0.0358543 0.0107559,-0.00170079 0.0216732,-0.00417323 0.0266102,-0.0115433 0.00458661,-0.00682677 0.00786614,-0.0146181 0.00920472,-0.0223858 -0.012248,-0.00345276 -0.0251299,-0.00433465 -0.0314685,-0.0019252z"/>
   <path id="_215551152" class="fil15" d="M1.73238 3.14502c-0.0195748,-0.014815 -0.050437,-0.0222677 -0.0742559,-0.0251063 -0.019626,-0.00234646 -0.0363858,0.0032874 -0.0543858,0.00891339 -0.0161811,0.00504724 -0.0180236,0.015315 -0.0226929,0.030626 -0.0019252,0.00632283 -0.00243307,0.0117008 -0.00199213,0.0164606 0.0121496,-0.00390551 0.0256102,-0.00548425 0.0371417,0.00195276 0.0077126,0.00498031 0.016815,0.0219094 0.0157559,0.0333504 0.00749213,0.00290157 0.0102402,0.00342913 0.0166417,0.00551181 0.000570866,0.00073622 0.0304449,0.00226772 0.0336496,0.00131102 0.00514961,-0.00154724 0.0182953,-0.0022874 0.0257126,-0.00661417 -0.00914173,-0.0118543 -0.0124921,-0.0294449 0.00434646,-0.0358543 0.00633858,-0.00240945 0.0192205,-0.00152756 0.0314685,0.0019252 0.0021063,-0.0122165 -0.000669291,-0.0243543 -0.0113898,-0.0324764z"/>
   <path id="_215551128" class="fil3" d="M1.66558 3.18243c0,0 -0.00227953,0.0624016 0.0016378,0.0702441"/>
   <path id="_215551656" class="fil3" d="M1.58292 3.26542c0,0 0.0637087,0.0065315 0.0839646,-0.0140512 0.0179724,0.0156811 0.0666614,0.020252 0.0849567,0.0153465"/>
   <path id="_215551632" class="fil1" d="M1.7313 5.10214c-0.00114961,-0.00244488 -0.00194488,-0.00526772 -0.00247638,-0.00812598l-3.93701e-006 0c-0.000515748,-0.00276772 -0.00080315,-0.0055748 -0.000940945,-0.00808268 -0.000110236,-0.00184252 -0.000251969,-0.00337008 -0.000389764,-0.00490157 -0.000547244,-0.00603543 -0.00109843,-0.0121575 0.000523622,-0.0182126 0.00244094,-0.00912205 0.00593307,-0.0184843 0.0108622,-0.0269094 0.00420079,-0.00717717 0.00944488,-0.0136772 0.0159685,-0.0187677 0.00552756,-0.0043189 0.0117598,-0.00690157 0.018,-0.00948819 0.00223622,-0.000925197 0.00448819,-0.0018622 0.00661417,-0.00283465 0.00383071,-0.00174803 0.00780709,-0.00367323 0.0117756,-0.00558661 0.0053937,-0.0026063 0.0107953,-0.00521654 0.0164921,-0.00768898l0 -3.93701e-006c0.00749213,-0.00327559 0.0149094,-0.00583858 0.0226142,-0.00850394l0.000822835 -0.000283465 0 -1.1811e-005c0.0015748,-0.00053937 0.00322441,-0.00120079 0.00495276,-0.0018937 0.00552362,-0.0022126 0.0118701,-0.00474803 0.017185,-0.0044252l0.00436614 0.000267717 -0.00211024 0.00381496c-0.000405512,0.000740157 -0.000976378,0.00133465 -0.00169685,0.00175197l-1.1811e-005 0c-0.000673228,0.000385827 -0.00144094,0.000606299 -0.0022874,0.000625984l-1.9685e-005 -0.000940945c-0.00394094,0.000251969 -0.00894488,0.00225197 -0.013374,0.00402756 -0.00189764,0.000755906 -0.00370079,0.00148031 -0.0052126,0.00199606l-3.93701e-006 -1.1811e-005 -0.000818898 0.000287402c-0.00754724,0.00261024 -0.0148189,0.00512205 -0.0222047,0.00835039l-7.87402e-006 0c-0.0053937,0.00233858 -0.0108465,0.00497638 -0.0162913,0.00760236 -0.00387402,0.00187402 -0.00775591,0.00374803 -0.0118819,0.00563386 -0.0022874,0.00104724 -0.00455906,0.00199213 -0.00680709,0.00292126 -0.00588583,0.00244094 -0.0117559,0.00487402 -0.0167008,0.00873622 -0.00594094,0.00463386 -0.0107441,0.0105945 -0.0146102,0.0172087 -0.00463386,0.00792126 -0.00794488,0.0168307 -0.0102795,0.0255512 -0.00138189,0.00514567 -0.000877953,0.0107598 -0.000374016,0.0162953l0 7.87402e-006c0.00015748,0.00180315 0.000326772,0.0036063 0.000413386,0.00505906l0 1.1811e-005c0.000129921,0.00231102 0.000389764,0.00488189 0.000854331,0.00738189l0 1.1811e-005c0.000448819,0.00240945 0.0011063,0.00477559 0.00204724,0.00677165l-0.00498819 0.00235827zm0.12015 -0.124047l-0.00034252 -0.000586614c-6.29921e-005,8.26772e-005 -0.000295276,0.000299213 -0.000370079,0.000350394l0.000716535 0.000389764 -3.93701e-006 -0.000153543zm-0.000334646 -0.000594488l-3.93701e-006 0 0.000334646 0.000582677 -1.5748e-005 -0.000700787c-3.93701e-005,2.75591e-005 -0.000240157,9.84252e-005 -0.000314961,0.00011811z"/>
   <path id="_215551080" class="fil1" d="M3.5528 5.18339c-0.00114961,-0.00244488 -0.00194094,-0.00526772 -0.00247638,-0.00812598l0 0c-0.000519685,-0.00276772 -0.00080315,-0.0055748 -0.000944882,-0.00808268 -0.000110236,-0.00184252 -0.000251969,-0.00337008 -0.000389764,-0.00489764 -0.000547244,-0.00603937 -0.00109843,-0.0121575 0.000523622,-0.0182126 0.00244094,-0.00912205 0.00593701,-0.0184843 0.0108661,-0.0269134 0.00419685,-0.00717717 0.00944488,-0.0136772 0.0159685,-0.0187638 0.00552756,-0.00432283 0.0117559,-0.00690551 0.0179961,-0.00948819 0.00224016,-0.000925197 0.00448819,-0.0018622 0.00661811,-0.00283858 0.00382677,-0.00174803 0.00780315,-0.00367323 0.0117756,-0.00558661 0.00538976,-0.0026063 0.0107913,-0.00521654 0.0164921,-0.00768898l0 -3.93701e-006c0.00749213,-0.00327559 0.0149055,-0.00583858 0.0226102,-0.0085l0.000822835 -0.000287402 0 -1.1811e-005c0.0015748,-0.00053937 0.00322441,-0.00120079 0.00495669,-0.00188976 0.00551969,-0.0022126 0.0118661,-0.00474803 0.0171811,-0.0044252l0.00436614 0.00026378 -0.0021063 0.0038189c-0.000409449,0.000740157 -0.000980315,0.00133465 -0.00170079,0.00175197l-7.87402e-006 0c-0.000673228,0.000385827 -0.00144094,0.000602362 -0.0022874,0.000622047l-2.3622e-005 -0.000940945c-0.00393701,0.000255906 -0.00894488,0.00225591 -0.013374,0.00402756 -0.0018937,0.000759843 -0.00370079,0.00148425 -0.00520866,0.002l-3.93701e-006 -1.1811e-005 -0.000822835 0.000283465c-0.00754724,0.00261024 -0.0148189,0.00512205 -0.0222047,0.00835039l-7.87402e-006 0c-0.0053937,0.00234252 -0.0108465,0.00497638 -0.0162874,0.0076063 -0.00387795,0.00187008 -0.00775984,0.00374803 -0.0118819,0.00562992 -0.00229134,0.00105118 -0.00455906,0.00199213 -0.00681102,0.0029252 -0.00588583,0.00243701 -0.0117559,0.00487008 -0.0167008,0.00873622 -0.00593701,0.00462992 -0.0107441,0.0105945 -0.0146102,0.0172047 -0.00463386,0.00792126 -0.00794488,0.0168307 -0.0102795,0.0255512 -0.00138189,0.00514961 -0.000874016,0.0107598 -0.000374016,0.0162953l0 7.87402e-006c0.000161417,0.00180315 0.000326772,0.0036063 0.000413386,0.00506299l0 1.1811e-005c0.000133858,0.00230709 0.000389764,0.00487795 0.000854331,0.00737795l0 1.1811e-005c0.000448819,0.00241339 0.0011063,0.00477559 0.00204724,0.00677165l-0.00498819 0.00235827zm0.12015 -0.124043l-0.00034252 -0.000586614c-6.29921e-005,8.26772e-005 -0.000295276,0.000295276 -0.000370079,0.000346457l0.000716535 0.000393701 -3.93701e-006 -0.000153543zm-0.000334646 -0.000598425l-3.93701e-006 0 0.000334646 0.000586614 -1.5748e-005 -0.000704724c-3.54331e-005,2.75591e-005 -0.000240157,0.000102362 -0.000314961,0.00011811z"/>
   <path id="_215551512" class="fil1" d="M1.87437 5.1543c-0.00281102,-0.00338976 -0.00572441,-0.00658661 -0.0086063,-0.00975591 -0.00927953,-0.010185 -0.0183543,-0.0201535 -0.0227402,-0.0344409 -0.00229921,-0.00748031 -0.0018622,-0.0183228 0.00073622,-0.0283937 0.00244882,-0.00947638 0.0068622,-0.0184252 0.0127638,-0.0234646 0.00785827,-0.00672835 0.0181339,-0.0113268 0.0288661,-0.0145394 0.0105591,-0.00315748 0.021626,-0.00499606 0.031252,-0.00622047 0.00677165,-0.000874016 0.014685,-0.00356693 0.0219724,-0.00604724 0.00456299,-0.00155512 0.00889764,-0.00302756 0.012752,-0.00398031l0.00131496 0.00535039c-0.0035315,0.000874016 -0.00779921,0.00232677 -0.0122953,0.00385827 -0.00750787,0.00255118 -0.0156614,0.00533071 -0.0230551,0.00628346 -0.00934252,0.00118898 -0.0200906,0.00297244 -0.0303622,0.00604724 -0.0100827,0.00301575 -0.0196693,0.00727953 -0.0268583,0.013437 -0.005,0.00426772 -0.00882283,0.0121693 -0.0110157,0.0206614 -0.00236614,0.00915748 -0.00280709,0.0188622 -0.000799213,0.0253898 0.00401575,0.0130945 0.012685,0.0226142 0.0215472,0.0323425 0.00296457,0.00325591 0.00595669,0.00654331 0.00878346,0.00995276l-0.00425591 0.00351969z"/>
   <path id="_215550984" class="fil1" d="M3.69587 5.23555c-0.00281102,-0.00338976 -0.00572441,-0.00659055 -0.0086063,-0.00975984 -0.00927953,-0.0101811 -0.0183543,-0.0201535 -0.0227362,-0.0344409 -0.00230315,-0.00747638 -0.00186614,-0.0183189 0.00073622,-0.0283898 0.00244488,-0.00947638 0.0068622,-0.0184252 0.0127598,-0.0234646 0.0078622,-0.00673228 0.0181339,-0.0113307 0.0288661,-0.0145394 0.010563,-0.00316142 0.021626,-0.005 0.031252,-0.00622441 0.00677165,-0.000870079 0.014689,-0.00356693 0.0219724,-0.00604331 0.00456299,-0.00155512 0.00889764,-0.0030315 0.012752,-0.00398425l0.00131496 0.00535039c-0.0035315,0.000877953 -0.00779921,0.00232677 -0.0122913,0.00385827 -0.00750787,0.00255512 -0.0156654,0.00533465 -0.0230591,0.00628346 -0.00934252,0.00119291 -0.0200906,0.00297244 -0.0303583,0.00604724 -0.0100866,0.00301969 -0.0196732,0.00727953 -0.0268622,0.013437 -0.005,0.00426772 -0.00882283,0.0121693 -0.0110157,0.0206614 -0.00236614,0.00915748 -0.00280709,0.0188622 -0.000799213,0.0253937 0.00401969,0.0130906 0.012685,0.0226142 0.0215472,0.0323386 0.00296457,0.00325591 0.00595669,0.00654331 0.00878346,0.00995276l-0.00425591 0.00352362z"/>
  </g>
  <rect class="fil16" width="6.82666" height="6.82666"/>
 </g>
</svg>
