<?xml version="1.0" encoding="UTF-8"?>
<!DOCTYPE svg PUBLIC "-//W3C//DTD SVG 1.1//EN" "http://www.w3.org/Graphics/SVG/1.1/DTD/svg11.dtd">
<!-- Creator: CorelDRAW -->
<svg xmlns="http://www.w3.org/2000/svg" xml:space="preserve" width="6.82666in" height="6.82666in" style="shape-rendering:geometricPrecision; text-rendering:geometricPrecision; image-rendering:optimizeQuality; fill-rule:evenodd; clip-rule:evenodd"
viewBox="0 0 6.82666 6.82666"
 xmlns:xlink="http://www.w3.org/1999/xlink">
 <defs>
  <style type="text/css">
   <![CDATA[
    .fil13 {fill:none}
    .fil1 {fill:#4E342E;fill-rule:nonzero}
    .fil0 {fill:#795548;fill-rule:nonzero}
    .fil7 {fill:#880E4F;fill-rule:nonzero}
    .fil8 {fill:#AD1457;fill-rule:nonzero}
    .fil12 {fill:#CCB7AE;fill-rule:nonzero}
    .fil3 {fill:#D4C1B9;fill-rule:nonzero}
    .fil11 {fill:#D96877;fill-rule:nonzero}
    .fil2 {fill:#E1D1CA;fill-rule:nonzero}
    .fil5 {fill:#E88DAB;fill-rule:nonzero}
    .fil10 {fill:#EF7E8D;fill-rule:nonzero}
    .fil4 {fill:#EF94B1;fill-rule:nonzero}
    .fil6 {fill:#FBF3EB;fill-rule:nonzero}
    .fil9 {fill:#FEFEFE;fill-rule:nonzero}
   ]]>
  </style>
 </defs>
 <g id="Layer_x0020_1">
  <metadata id="CorelCorpID_0Corel-Layer"/>
  <g id="_215548128">
   <path id="_215550672" class="fil0" d="M3.92635 5.96813c0,0 -0.0505551,-0.0852874 0.0261575,-0.0899724 0,0 -0.0652913,-0.0609094 0.0337756,-0.0451654l-0.241362 -0.144913 -0.0426811 0.0629173 0.142012 0.141921 0.0820984 0.0752126z"/>
   <path id="_215550720" class="fil1" d="M3.76961 5.72961c0.255083,0.199996 0.258181,0.21026 -0.0284291,0.0221614 0.252059,0.27724 0.303661,0.302299 -0.0822362,0.0297638l-0.0911929 -0.0568346c-0.00557874,-0.00116142 -0.00933858,-0.00617323 -0.00933858,-0.0115394 0,-0.00147244 0.000283465,-0.00298031 0.000897638,-0.00444488 0.0152244,-0.0369449 0.019315,-0.0775157 0.011752,-0.116673l-0.0234803 -0.122622c-0.0122283,-0.0638622 -0.018874,-0.128528 -0.0198583,-0.193535l-0.0137165 -0.900004 -0.0474331 -0.107213c-0.00364173,-0.00820079 -0.00538976,-0.0167402 -0.00538976,-0.025248 0,-0.0202913 0.00988189,-0.039937 0.027563,-0.0518268 0.148307,-0.328031 0.0764528,-0.790886 0.0764528,-0.790886 0,0 0.132437,-0.397335 0.127992,-0.118594 -0.000220472,0.016185 -0.001,0.0346457 -0.00217717,0.0556496 -0.0225197,0.381984 -0.132602,0.847102 -0.132602,0.847102l0.0472126 1.32343 0.0314291 0.083185c0.0419921,0.0286102 0.0800118,0.0544331 0.114134,0.0777008 0.343638,0.233988 0.295354,0.203012 0.0184213,0.0604331z"/>
   <path id="_215550648" class="fil0" d="M3.75119 5.66918l-0.0274488 0.00503543c-0.044,0.00808661 -0.0876811,-0.0156102 -0.10489,-0.0568622l-0.00232283 -0.00553543 -0.0193228 -0.0759724c-0.00477165,-0.0188189 -0.0076063,-0.0380906 -0.00838976,-0.0575079l-0.0429921 -1.0297 -0.0242244 -0.129217c-0.00835039,-0.0445551 -0.00135433,-0.0905827 0.0197913,-0.13061l0.00264567 -0.0049685c0.00730315,-0.0138386 0.0123858,-0.0286654 0.0149921,-0.0441024 0.0391811,-0.230193 0.0749528,-0.790657 0.0749528,-0.790657l0.0592126 -0.0669646c-0.000220472,0.016185 -0.001,0.0346457 -0.00217717,0.0556496 -0.0225197,0.381984 -0.132602,0.847102 -0.132602,0.847102l0.0472126 1.32343 0.0194173 0.051311c0.00780315,0.0207598 0.0218701,0.0385906 0.0401772,0.0510551 0.0310236,0.0211102 0.0596496,0.0405748 0.0859685,0.0585197z"/>
   <path id="_215550360" class="fil2" d="M4.61334 1.69447c-0.0493543,-0.132933 -0.0965512,-0.297114 -0.185783,-0.362114 -0.000547244,-0.000543307 -0.00135039,-0.000807087 -0.00189764,-0.00135039 -0.0191457,-0.0137362 -0.0404488,-0.0226535 -0.0639016,-0.0261496 -0.0474606,-0.00674803 -0.123476,-0.0188701 -0.231346,-0.0388386 -0.0426063,-0.00080315 -0.0827835,-0.00889764 -0.118106,-0.0231732 -0.0185866,-0.00755512 -0.0358543,-0.0167244 -0.0512244,-0.0275197 -0.556976,0.401732 0.724862,0.663331 0.747142,1.19448 0.0037874,0.0946378 -0.0288465,0.198984 -0.114063,0.315449l-0.000259843 0c-0.00456299,0.00676378 -0.00968898,0.0134882 -0.0148268,0.0202283 -0.000259843,0.000283465 -0.000259843,0.000543307 -0.000543307,0.000826772 0,0.00026378 -0.000259843,0.00026378 -0.000543307,0.000523622 -0.00862205,0.0110512 -0.0177756,0.0223937 -0.0274961,0.0337047 -0.0139961,0.0164449 -0.0291063,0.0334331 -0.0452795,0.0507087 -0.0952008,0.0846575 -0.182543,0.0914016 -0.272886,0.132374 -0.0272244,0.0124173 -0.0544567,0.0277638 -0.0824961,0.0493386 -0.0294016,0.0226496 -0.0593346,0.0520394 -0.090311,0.0916811 -0.0148504,0.0191339 -0.0304803,0.0374685 -0.0466772,0.0547402 -0.0361063,0.0393543 -0.0752126,0.0741496 -0.116469,0.104343 -0.000523622,0.00026378 -0.000807087,0.000807087 -0.00135039,0.00108661 -0.0183504,0.0137559 -0.0372165,0.0264173 -0.0563504,0.0382717 -0.00917323,0.00566929 -0.0186024,0.0113425 -0.0280394,0.0164488 -0.136429,0.0776772 -0.289843,0.113791 -0.441098,0.113791 -0.251039,0 -0.496689,-0.0995118 -0.651992,-0.277177 -0.00917717,0.00160236 -0.0185866,0.00429921 -0.0280433,0.00755118 -0.162583,0.0558071 -0.342146,0.317882 -0.342146,0.317882 -0.0202205,-0.0606575 0.101102,-0.26961 0.101102,-0.26961 -0.047189,-0.00675984 -0.229189,0.26961 -0.229189,0.26961 -0.0606732,-0.121323 0.0876535,-0.289843 0.0876535,-0.289843 -0.0404606,-0.0134843 -0.18878,0.242677 -0.18878,0.242677 0.0337126,-0.249421 0.174472,-0.495594 0.307122,-0.67948 0.00891339,-0.0121417 0.0175236,-0.0242598 0.0264094,-0.0358583 0.3485,-0.46802 0.882906,-0.855638 1.47407,-0.423866 0.0461339,0.0334213 0.0873661,0.0711693 0.12298,0.112165 0.0024252,0.00269291 0.00484252,0.00538583 0.00756693,0.00807874 0.0668425,0.0709173 0.170378,0.097874 0.259646,0.0563661 0.256949,-0.119732 -0.219756,-0.41713 -0.483453,-0.658453 -0.20739,-0.18952 -0.30637,-0.607295 -0.0199528,-0.77976 0.0560787,-0.0342598 0.0366496,-0.0221063 0.118079,-0.0736181 -0.000543307,-0.00537795 -0.000543307,-0.0064685 -0.00108661,-0.0118543 -0.0207598,-0.00755512 -0.0466299,-0.0132087 -0.0768504,-0.0124055 0,0 0.0827953,-0.0382913 0.159378,-0.0450157 -0.0323465,-0.0142992 -0.0609331,-0.0253622 -0.0717165,-0.0245591 0.0690197,-0.0148346 0.203272,-0.0269567 0.261799,0.0245591 0.0749528,0.0145433 0.136169,0.0533898 0.16826,0.104602 0.0237165,0.0191535 0.0463701,0.0366654 0.0676732,0.0528465l0.17528 0.646307z"/>
   <path id="_215550840" class="fil3" d="M4.45263 1.27276l-0.0269646 0.058252c-0.0191457,-0.0137362 -0.0404488,-0.0226535 -0.0639016,-0.0261496 -0.0474606,-0.00674803 -0.123476,-0.0188701 -0.231346,-0.0388386 -0.0426063,-0.00080315 -0.0827835,-0.00889764 -0.118106,-0.0231732 -0.0185866,-0.00755512 -0.0358543,-0.0167244 -0.0512244,-0.0275197 -0.0628228,0.045315 -0.102988,0.0884409 -0.124551,0.12998 0.11361,-0.260976 0.106701,-0.164138 0.616094,-0.0725512z"/>
   <path id="_215550864" class="fil4" d="M4.68882 1.35419c-0.0126732,0.176866 -0.0582362,0.297398 -0.0733228,0.340539 -0.000259843,0.00108661 -0.00165354,0.000826772 -0.00215354,-0.000259843 -0.0248307,-0.0668543 -0.0491142,-0.141555 -0.0787441,-0.207602 -0.00621654,-0.0145827 -0.0129528,-0.028874 -0.0199724,-0.0423346 -0.0245236,-0.0471772 -0.052563,-0.0871142 -0.0870669,-0.112177 -0.0116024,-0.0630984 -0.0596063,-0.140748 -0.084937,-0.178496 -0.00675984,-0.0102559 -0.000283465,-0.0240118 0.0121142,-0.0250669l0.00674016 -0.000547244c0.017,-0.00162598 0.0326299,-0.00945276 0.0442126,-0.021311 0.00512598,-0.00513386 0.00946063,-0.011315 0.0126929,-0.0180394l0.0196811 -0.0407323c0.127252,0.0968031 0.210839,0.149118 0.239681,0.224591 0.00946457,0.0240039 0.013252,0.050437 0.0110748,0.081437z"/>
   <path id="_215549640" class="fil5" d="M4.5346 1.48687c-0.00621654,-0.0145827 -0.0129528,-0.028874 -0.0199724,-0.0423346 -0.0245236,-0.0471772 -0.052563,-0.0871142 -0.0870669,-0.112177 -0.0116024,-0.0630984 -0.0596063,-0.140748 -0.084937,-0.178496 -0.00675984,-0.0102559 -0.000283465,-0.0240118 0.0121142,-0.0250669l0.00674016 -0.000547244c0.017,-0.00162598 0.0326299,-0.00945276 0.0442126,-0.021311 0.149748,0.109819 0.296228,0.340902 0.188213,0.338142 -0.0185591,-0.0005 -0.0231969,0.0317874 -0.0593031,0.0417913z"/>
   <path id="_215549808" class="fil6" d="M4.36391 1.05347c0,0.031815 -0.0258031,0.0576181 -0.0576339,0.0576181 -0.0317953,0 -0.0575945,-0.0258031 -0.0575945,-0.0576181 0,-0.0318228 0.0257992,-0.0576102 0.0575945,-0.0576102 0.0318307,0 0.0576339,0.0257874 0.0576339,0.0576102z"/>
   <path id="_215549760" class="fil7" d="M4.33896 1.05347c0,0.0180394 -0.0146102,0.0326811 -0.0326811,0.0326811 -0.0180354,0 -0.0326535,-0.0146417 -0.0326535,-0.0326811 0,-0.0180512 0.0146181,-0.0326732 0.0326535,-0.0326732 0.0180709,0 0.0326811,0.014622 0.0326811,0.0326732z"/>
   <path id="_215550072" class="fil8" d="M4.33911 1.05355c0,0.0180748 -0.0148268,0.032626 -0.0328937,0.032626 -0.00243701,0 -0.00486614,-0.000259843 -0.00701969,-0.000799213 0.014563,-0.00324409 0.0253701,-0.016185 0.0253701,-0.0318268 0,-0.0156417 -0.0108071,-0.0288504 -0.0253701,-0.0320787 0.00215354,-0.000543307 0.00458268,-0.000799213 0.00701969,-0.000799213 0.0180669,0 0.0328937,0.0148346 0.0328937,0.032878z"/>
   <path id="_215549400" class="fil9" d="M4.32577 1.03426c0,0.00302756 -0.0053189,0.00548425 -0.0118425,0.00548425 -0.00655906,0 -0.0118504,-0.00245669 -0.0118504,-0.00548425 0,-0.00303937 0.00529134,-0.00546063 0.0118504,-0.00546063 0.00652362,0 0.0118425,0.00242126 0.0118425,0.00546063z"/>
   <path id="_215549928" class="fil7" d="M4.68881 1.35419c-0.00269685,0.0393819 -0.00727953,0.0760394 -0.0126693,0.109748 -0.000547244,0.00404331 -0.00135039,0.00783465 -0.0018937,0.0118583 -0.00026378,0.00080315 -0.00026378,0.00161024 -0.00026378,0.00244882 -0.0191575,0.109181 -0.0471929,0.184394 -0.0584921,0.21648 -0.000259843,0.00109449 -0.00165354,0.000830709 -0.00215354,-0.000255906 -0.0302165,-0.0816929 -0.0598661,-0.174988 -0.0987165,-0.249937 0,0 0.0941339,0.070374 0.150732,-0.121083 -0.000259843,-0.000255906 -0.000259843,-0.000255906 -0.000259843,-0.000255906l0.00861024 -0.0318268 0.00108661 -0.0045748c0.00080315,-0.00459055 0.00189764,-0.00917717 0.00294882,-0.0140394 0.000283465,0.000543307 0.000283465,0.00109055 0.000543307,0.0016378 0.00433071,0.011311 0.0072874,0.0231693 0.00917717,0.0358583 0.0018937,0.0137441 0.00243701,0.0282992 0.00135039,0.0439409z"/>
   <path id="_215549616" class="fil10" d="M4.5939 2.72526c-0.00456299,0.00676378 -0.00968898,0.0134882 -0.0148268,0.0202283 0.00782677,-0.0134646 0.0129646,-0.019685 0.0148268,-0.0202283z"/>
   <path id="_215550144" class="fil11" d="M3.81063 3.31954c0.00512992,-0.00430315 0.0142835,-0.00998031 0.0280394,-0.0164488 -0.00917323,0.00566929 -0.0186024,0.0113425 -0.0280394,0.0164488z"/>
   <path id="_215549736" class="fil3" d="M4.55049 2.78054c-0.367961,0.352303 -0.446587,-0.0697717 -0.670673,-0.0404803 0,0 0.151783,0.0143504 0.172213,0.193972l-7.87402e-005 -7.08661e-005c0,0 -0.00191732,0.011315 -0.00621654,0.0301102 -0.0299094,0.130087 -0.119008,0.238913 -0.239764,0.295803 -0.615831,0.290193 -1.08843,-0.103728 -1.08843,-0.103728 0.155303,0.177665 0.400953,0.277177 0.651992,0.277177 0.124181,0 0.25289,-0.0268858 0.370169,-0.0786024 0.10374,-0.045752 0.198547,-0.110949 0.273366,-0.194161 0.0449252,-0.0499646 0.0852283,-0.102992 0.13676,-0.147598l-3.54331e-005 0c0.120811,-0.0930669 0.231563,-0.0717795 0.355417,-0.181713 0.0161732,-0.0172756 0.0312835,-0.0342638 0.0452795,-0.0507087z"/>
   <path id="_215549568" class="fil3" d="M4.70822 2.40981c0.0037874,0.0946378 -0.0288465,0.198984 -0.114063,0.315449l-0.000259843 0c-0.00456299,0.00676378 -0.00968898,0.0134882 -0.0148268,0.0202283 -0.000259843,0.000283465 -0.000259843,0.000543307 -0.000543307,0.000826772 0,0.00026378 -0.000259843,0.00026378 -0.000543307,0.000523622 -0.00862205,0.0110512 -0.0177756,0.0223937 -0.0274961,0.0337047 -0.0139961,0.0164449 -0.0291063,0.0334331 -0.0452795,0.0507087 -0.0952008,0.0846575 -0.182543,0.0914016 -0.272886,0.132374l-0.0301969 -0.0603976c0,0 0.441406,-0.0773701 0.506094,-0.493417z"/>
   <path id="_215548896" class="fil3" d="M4.33991 2.18959c-0.474323,-0.414181 -0.639067,-0.493071 -0.691063,-0.699232 0.027248,0.122138 0.0930472,0.240232 0.18363,0.323012 0.263697,0.241323 0.740402,0.53872 0.483453,0.658453 -0.0925,0.0431339 -0.20063,0.0124134 -0.267213,-0.0644449 -0.0356142,-0.0409961 -0.0768465,-0.0787441 -0.12298,-0.112165 -0.10298,-0.0752126 -0.239087,-0.146087 -0.380091,-0.170354 0.0214724,0.00717717 0.357075,0.184492 0.473465,0.321492 0.00220079,0.00268898 0.00449213,0.00529921 0.00671654,0.0079685 0.017685,0.0219094 0.0279921,0.0330354 0.0335315,0.0356339 0.0259606,0.0243071 0.0546378,0.0437835 0.0850709,0.0525039 0.297051,0.0853031 0.419465,-0.157236 0.19548,-0.352866z"/>
   <path id="_215549040" class="fil12" d="M3.86159 2.75844c-0.178492,0.383961 -0.451366,0.374256 -0.451366,0.374256l0.0269606 -0.0811535c-0.20224,0.181996 -0.559472,0.161783 -0.559472,0.161783l0.0504173 -0.0911417 -0.235933 0.0237165 -0.00269685 0.0178071c-0.162583,0.0558031 -0.34215,0.317874 -0.34215,0.317874 -0.0202165,-0.0606535 0.10111,-0.269602 0.10111,-0.269602 -0.0471929,-0.00676378 -0.229193,0.269602 -0.229193,0.269602 -0.0606732,-0.121319 0.0876575,-0.289839 0.0876575,-0.289839 -0.0404646,-0.0134843 -0.188783,0.242673 -0.188783,0.242673 0.0337126,-0.249417 0.174472,-0.495591 0.307118,-0.679472 0.00892126,-0.0121457 0.0175315,-0.0242638 0.0264173,-0.0358622 0.419362,0.141827 0.86602,0.363602 1.40991,0.0393583z"/>
   <g>
    <path id="_215549112" class="fil1" d="M4.51805 4.39935c0,0 -0.0058622,-0.0797402 0.0250433,-0.0676339 0,0 -0.0124528,-0.0615 0.0556772,-0.0500039l-0.278429 -0.16165 -0.0381929 0.081689 0.235902 0.197598z"/>
    <path id="_215548752" class="fil1" d="M4.34909 4.11174c-0.00585827,0.0137953 -0.0164843,0.0255276 -0.0310827,0.0324961 -0.0317205,0.0151417 -0.0697165,0.0016811 -0.0848543,-0.0300354 -0.0071811,-0.0150433 -0.0079252,-0.0315315 -0.00329134,-0.0462756l0.0111535 7.87402e-005c0.0289843,0.000106299 0.0574173,0.00901969 0.0813268,0.0253976 0.00911024,0.00632283 0.018063,0.0123898 0.026748,0.0183386z"/>
    <path id="_215548776" class="fil0" d="M4.37303 4.17828c0.239673,0.208429 0.250469,0.197555 -0.00500394,0.0522205 0.16778,0.188854 0.264563,0.279319 -0.0259921,0.047315 -0.0245984,-0.0196929 -0.0559921,-0.043811 -0.0864921,-0.0669685 -0.0133858,0.0535197 -0.00466929,0.0502756 -0.0503031,-0.0379331 -0.00626378,-0.00477559 -0.0123346,-0.00925591 -0.0179488,-0.0134528 -0.0274961,-0.0205039 -0.0608346,-0.0314528 -0.0951654,-0.0313031l-0.910213 0.00498819c-0.0178701,9.84252e-005 -0.0265709,-0.0217402 -0.0135709,-0.0340276l0.0287441 -0.0267913c0.0632992,-0.0590906 0.0907598,-0.682953 0.0924646,-0.723161l0.108524 0 -0.127319 0.697244c-0.00170079,0.00893701 0.00520866,0.0171654 0.0143228,0.0172087l0.944787 0.00430709 0.0111575 8.26772e-005c0.0289843,0.000102362 0.0574173,0.00901575 0.0813268,0.0253937 0.00911024,0.00632283 0.0180669,0.0123898 0.026748,0.0183425 0.0151693,0.0104173 0.0296693,0.0202362 0.0434528,0.0296299 0.0867244,0.0590669 0.147008,0.0993346 0.182232,0.123492 0.090374,0.0620039 0.0154803,0.0178425 -0.201752,-0.0865866z"/>
    <path id="_215548704" class="fil1" d="M4.32235 4.09341l-0.0802165 0.00761024 -0.999406 -0.0140236 0.126917 -0.737823 0.0284291 0 -0.127319 0.697244c-0.00170079,0.00893701 0.00520866,0.0171654 0.0143228,0.0172087l0.955945 0.00438976c0.0289843,0.000102362 0.0574173,0.00901575 0.0813268,0.0253937z"/>
   </g>
   <path id="_215548272" class="fil12" d="M3.78151 2.79935c-0.129768,0.403047 -0.401752,0.427075 -0.401752,0.427075l0.0167441 -0.0838583c-0.178248,0.205551 -0.535244,0.229559 -0.535244,0.229559l0.0387874 -0.0966654 -0.231205 0.0526378 -0.000480315 0.0180039c-0.154457,0.0754291 -0.300327,0.35765 -0.300327,0.35765 -0.0275433,-0.0576969 0.0670827,-0.280016 0.0670827,-0.280016 -0.0476654,-0.000889764 -0.194185,0.295815 -0.194185,0.295815 -0.0751772,-0.112909 0.0512362,-0.298437 0.0512362,-0.298437 -0.0418189,-0.00838976 -0.157409,0.264106 -0.157409,0.264106 0.00268898,-0.251673 0.112008,-0.513327 0.220961,-0.712165 0.00735433,-0.0131535 0.0144055,-0.0262441 0.0217913,-0.0388504 0.433654,0.0890157 0.904256,0.254004 1.404,-0.134854z"/>
  </g>
  <rect class="fil13" width="6.82666" height="6.82666"/>
 </g>
</svg>
