<?xml version="1.0" encoding="UTF-8"?>
<!DOCTYPE svg PUBLIC "-//W3C//DTD SVG 1.1//EN" "http://www.w3.org/Graphics/SVG/1.1/DTD/svg11.dtd">
<!-- Creator: CorelDRAW -->
<svg xmlns="http://www.w3.org/2000/svg" xml:space="preserve" width="6.82666in" height="6.82666in" style="shape-rendering:geometricPrecision; text-rendering:geometricPrecision; image-rendering:optimizeQuality; fill-rule:evenodd; clip-rule:evenodd"
viewBox="0 0 6.82666 6.82666"
 xmlns:xlink="http://www.w3.org/1999/xlink">
 <defs>
  <style type="text/css">
   <![CDATA[
    .fil4 {fill:none}
    .fil3 {fill:#212121}
    .fil1 {fill:#33691E}
    .fil0 {fill:#558B2F}
    .fil2 {fill:#A5D6A7}
   ]]>
  </style>
 </defs>
 <g id="Layer_x0020_1">
  <metadata id="CorelCorpID_0Corel-Layer"/>
  <g id="_214716376">
   <path id="_214717384" class="fil0" d="M5.11375 4.12859c-0.0440472,0.235756 -0.212441,0.337602 -0.452646,0.36211 -0.458736,0.796079 -0.497756,0.939681 -1.53899,1.10898 -0.26172,0.0782874 -0.505894,0.195181 -0.729886,0.356457 -0.0362559,0.021437 -0.0735906,-0.0256772 -0.0339449,-0.0565787 0.15876,-0.156437 0.346685,-0.279232 0.554488,-0.379087 -0.347335,-0.0124055 -0.710591,0.0532756 -1.13727,0.430008 -0.0585669,0.0517559 -0.0992047,-0.0302165 -0.0565827,-0.0792126 0.209012,-0.258772 0.493303,-0.429878 0.883378,-0.477413 -0.131854,-0.138157 -0.305213,-0.0938465 -0.487315,-0.0714173 -0.0579961,0.00283071 -0.0848701,-0.0615315 -0.0169764,-0.0848661 0.128248,-0.0392362 0.256504,-0.0588504 0.384752,-0.0452677 -0.0965827,-0.33398 0.128642,-0.663717 0.605409,-0.990154 -0.279634,-0.0175472 -0.448374,-0.167291 -0.531854,-0.418697 -0.0907598,0.184535 -0.194035,0.352976 -0.311197,0.503563 0.043378,0.0132008 0.117878,-0.000472441 0.130134,0.0396102 0.00452362,0.0121654 -0.066689,0.0187559 -0.142937,0.0490591 -0.0892165,0.0354528 -0.190579,0.0934606 -0.264441,0.0810748 -0.249748,-0.0341299 -0.181764,-0.243299 -0.555193,-0.14711 -0.0516299,0.00400787 -0.0876969,-0.0492717 -0.0275827,-0.0792126 0.124476,-0.0704764 0.248953,-0.0454843 0.373429,-0.0169764 -0.0143031,-0.070563 -0.0408622,-0.0949291 -0.134382,-0.0862835 -0.034122,0.0105551 -0.0413622,-0.0463504 0.00424803,-0.0608228 0.117768,-0.0507165 0.172846,0.0239606 0.215004,0.124476 0.113161,-0.19237 0.226323,-0.384748 0.339484,-0.577122 -0.0680118,-0.583228 -0.187728,-1.1614 -0.565807,-1.71439 -0.202181,-0.32615 -0.242913,-0.605555 -0.158421,-0.848705 0.238744,-0.0906339 0.496732,-0.0850866 0.758177,-0.0622402 0.25889,-0.275642 0.564921,-0.0747205 0.520539,0.282902 0.47622,0.207465 0.584661,0.584665 0.876992,0.876996 0.182945,0.136736 0.583728,0.147579 0.753937,0.257441 0.0971299,0.0844016 0.124949,0.236697 0.179642,0.359287 0.0201575,-0.679697 0.513598,-0.57176 0.718571,-0.00565748 0.225913,0.310366 0.238205,0.719331 0.169744,1.16556 -0.057874,0.226024 -0.196358,0.223551 -0.322508,0.203689z"/>
   <path id="_214717528" class="fil1" d="M2.59117 3.69475c0.0403937,-0.0857717 0.0553937,-0.141138 0.072622,-0.235815 0.0914843,0.293835 0.357976,0.530339 0.703185,0.630819 -0.0798189,0.027311 -0.123248,0.0425 -0.201272,0.0746063 -0.362575,-0.0217323 -0.536378,-0.214 -0.574535,-0.46961z"/>
   <path id="_214717792" class="fil1" d="M2.95756 4.84641c0.450181,-0.54172 0.632303,-0.647902 1.35793,-0.75252 -0.748756,0.194398 -0.795843,0.263957 -1.35793,0.75252z"/>
   <path id="_214717168" class="fil1" d="M2.60959 5.26855c0.760315,0.287496 1.56421,-0.353394 1.98931,-0.950697 -0.515508,0.576783 -1.26372,1.08189 -1.98931,0.950697z"/>
   <path id="_214717672" class="fil1" d="M4.61589 4.10185c-0.530004,0.47561 -0.912709,0.841685 -1.64953,0.991878 0.719661,-0.170591 1.05238,-0.564461 1.64953,-0.991878z"/>
   <path id="_214717192" class="fil1" d="M2.16968 3.17304c-0.0534173,-0.979094 -0.628169,-1.22617 -0.67276,-1.67031 0.0929843,0.233677 0.504051,0.647866 0.65013,1.05925 -0.165181,-0.62472 -0.647028,-0.876839 -0.661992,-1.36359 0.105339,0.245622 0.259161,0.430201 0.396067,0.611067 0.294787,0.389453 0.424035,0.844705 0.288555,1.36358z"/>
   <path id="_214717504" class="fil1" d="M1.67746 1.03998c0.883173,-0.0183071 1.21025,0.567531 1.73843,1.21506 0.438134,0.537134 0.801457,0.0229567 1.45411,1.51069 -0.897488,-1.48417 -1.15864,-0.999331 -1.50504,-1.39187 -0.485118,-0.549748 -0.822118,-1.21487 -1.68751,-1.33388z"/>
   <path id="_214717336" class="fil1" d="M2.5085 1.86094c0.0264055,0.0867598 0.023626,0.188626 0.0792126,0.260276 0.0384291,0.0495315 0.126835,0.028252 0.175398,0.0678976 0.0486299,0.0396969 0.054185,0.117571 0.101846,0.158421 0.0614882,0.0527047 0.127579,0.0465748 0.182189,0.10637 0.168417,0.18439 0.282646,0.451913 0.474142,0.612201 0.246669,0.206461 0.57798,0.287382 0.843051,0.469618 0.190374,0.130882 0.343252,0.309303 0.514882,0.463957 -0.186713,-0.139563 -0.359921,-0.299331 -0.560146,-0.418693 -0.291965,-0.174051 -0.623177,-0.259791 -0.886047,-0.475276 -0.191756,-0.157193 -0.275756,-0.41311 -0.432276,-0.605409 -0.0453307,-0.055689 -0.13487,-0.057815 -0.186717,-0.1075 -0.0420551,-0.0402992 -0.0290472,-0.120004 -0.0707244,-0.160689 -0.0410433,-0.040063 -0.16465,-0.0522402 -0.18728,-0.085437 -0.00753937,0.0829843 -0.0861929,0.186953 -0.0984528,0.281768 -0.00938976,0.072622 0.0382717,0.142028 0.0192402,0.212744 -0.0242165,0.0899685 -0.0720512,0.151445 -0.126744,0.226886 0.0358346,-0.0754409 0.0939488,-0.143913 0.107504,-0.226323 0.0120827,-0.0734291 -0.0438937,-0.146909 -0.0339488,-0.220661 0.0133898,-0.0993307 0.0868346,-0.183811 0.101846,-0.282906 0.0138701,-0.0915433 -0.011315,-0.184827 -0.0169764,-0.277244z"/>
   <path id="_214717624" class="fil1" d="M4.77529 2.42442c0.0725472,0.558382 0.157484,0.899307 0.333823,1.43149 -0.11374,-0.480087 -0.224492,-0.953902 -0.333823,-1.43149z"/>
   <path id="_214717312" class="fil1" d="M5.29524 2.91259c0.164264,0.359937 0.0926339,0.711508 -0.00352756,1.13369 0.0518937,-0.3775 0.0933622,-0.810004 0.00352756,-1.13369z"/>
   <path id="_214716880" class="fil1" d="M5.22372 3.8223c0.063248,-0.581012 -0.0443268,-0.927598 -0.257441,-1.39188 0.183815,0.464638 0.258941,0.898709 0.257441,1.39188z"/>
   <path id="_214716616" class="fil1" d="M1.86845 1.24054c-0.0330039,0 -0.0660118,0 -0.0990157,0 -0.0792598,-0.0744409 -0.173469,-0.130185 -0.282906,-0.166913 0.137067,0.00684252 0.260047,0.0841417 0.381921,0.166913z"/>
   <ellipse id="_214716472" class="fil2" cx="1.95359" cy="1.45455" rx="0.142396" ry="0.15654"/>
   <path id="_214717048" class="fil3" d="M1.95686 1.38339c0.0472638,0 0.0855787,0.038311 0.0855787,0.0855748 0,0.0472638 -0.038315,0.0855787 -0.0855787,0.0855787 -0.0472638,0 -0.0855787,-0.038315 -0.0855787,-0.0855787 0,-0.0472638 0.038315,-0.0855748 0.0855787,-0.0855748zm0.0201575 0.0372677c0.00291732,0.00480709 0.00459449,0.0104488 0.00459449,0.0164803 0,0.0175787 -0.014248,0.0318228 -0.0318268,0.0318228 -0.0175787,0 -0.0318228,-0.0142441 -0.0318228,-0.0318228 0,-0.00114173 5.90551e-005,-0.00227165 0.000177165,-0.00338583 -0.00846063,0.00929921 -0.0136181,0.0216496 -0.0136181,0.0352126 0,0.0289094 0.0234291,0.0523386 0.0523386,0.0523386 0.0289055,0 0.0523346,-0.0234291 0.0523346,-0.0523386 0,-0.0217598 -0.0132835,-0.0404173 -0.0321772,-0.0483071zm-0.0129764 -0.133335c0.0849567,0 0.153827,0.0761575 0.153827,0.170094 0,0.0939409 -0.0688701,0.170094 -0.153827,0.170094 -0.0849567,0 -0.153831,-0.0761535 -0.153831,-0.170094 0,-0.093937 0.068874,-0.170094 0.153831,-0.170094zm-0.00970079 0.0314291c0.0693346,0 0.125535,0.0621496 0.125535,0.138811 0,0.0766614 -0.0562008,0.138811 -0.125535,0.138811 -0.0693346,0 -0.125535,-0.0621496 -0.125535,-0.138811 0,-0.0766614 0.0562008,-0.138811 0.125535,-0.138811z"/>
  </g>
  <rect class="fil4" width="6.82666" height="6.82666"/>
 </g>
</svg>
