<?xml version="1.0" encoding="UTF-8"?>
<!DOCTYPE svg PUBLIC "-//W3C//DTD SVG 1.1//EN" "http://www.w3.org/Graphics/SVG/1.1/DTD/svg11.dtd">
<!-- Creator: CorelDRAW -->
<svg xmlns="http://www.w3.org/2000/svg" xml:space="preserve" width="6.82666in" height="6.82666in" style="shape-rendering:geometricPrecision; text-rendering:geometricPrecision; image-rendering:optimizeQuality; fill-rule:evenodd; clip-rule:evenodd"
viewBox="0 0 6.82666 6.82666"
 xmlns:xlink="http://www.w3.org/1999/xlink">
 <defs>
  <style type="text/css">
   <![CDATA[
    .fil1 {fill:none}
    .fil4 {fill:none;fill-rule:nonzero}
    .fil6 {fill:#263238}
    .fil3 {fill:#424242}
    .fil7 {fill:#4E342E}
    .fil2 {fill:#5D4037}
    .fil0 {fill:#795548}
    .fil5 {fill:#CFD8DC}
   ]]>
  </style>
 </defs>
 <g id="Layer_x0020_1">
  <metadata id="CorelCorpID_0Corel-Layer"/>
  <g id="_214722184">
   <path id="_214723720" class="fil0" d="M3.12646 2.48871c0.314587,0.0615748 0.599154,-0.0345709 0.849315,-0.119094 0.0363346,-0.0122795 0.0719724,-0.0243228 0.106902,-0.0356299 0.218764,-0.0708228 0.241638,-0.143181 0.28315,-0.274484 0.0317441,-0.100421 0.072878,-0.230543 0.195205,-0.41098 0.427594,-0.630748 0.848091,-0.486303 0.982677,-0.416083l0.153453 -0.202201c0.0105512,-0.0157717 0.0292323,-0.025374 0.049437,-0.0233858 0.0292244,0.00287402 0.0505827,0.0289016 0.0477087,0.058126l-0.00972835 0.0979646 0.0925748 -0.0964252c0.0122874,-0.0139961 0.0315669,-0.021122 0.0510827,-0.0169843 0.0287638,0.00609843 0.0471378,0.0343622 0.0410394,0.063126l-0.069811 0.327783c0.0974094,0.148087 0.0967441,0.538276 0.0961614,0.592984 0.115339,0.58302 -0.129559,0.645236 -0.1735,0.652417 -0.00182283,0.00042126 -0.00368898,0.000751969 -0.00559055,0.000984252 -0.000594488,7.48031e-005 -0.0011378,9.44882e-005 -0.00164961,8.26772e-005 -0.00130315,0.000141732 -0.00262205,0.000240157 -0.00395276,0.000287402 -0.23215,0.0082126 -0.277984,-0.208094 -0.287039,-0.294504 -0.089189,-0.0431339 -0.13576,-0.0902795 -0.173248,-0.152189 -0.00982677,0.0606535 -0.0237559,0.117165 -0.0419646,0.172831 -0.0355079,0.108547 -0.0867717,0.212547 -0.155406,0.337236 -0.0750079,0.164661 0.011874,0.248004 0.0253937,0.259626 0.0070748,0.00514567 0.0129843,0.0121024 0.016937,0.0205945 0.146701,0.314693 -0.0403543,0.648079 -0.117504,0.764409 0.100154,0.0923819 0.231685,0.291008 0.259484,0.333713 0.242878,0.18165 0.170394,0.474189 0.163146,0.500961 -0.0810236,0.4145 -0.41848,0.681874 -0.479866,0.727551 -0.246539,0.42352 -0.285677,-0.0302362 -0.285795,-0.0315315 -0.00019685,-0.00212205 -0.000271654,-0.00427559 -0.000212598,-0.00645669 0.00713386,-0.251894 0.132472,-0.296012 0.206606,-0.299929 0.0295984,-0.0613465 0.10661,-0.102969 0.138925,-0.118252 0.144295,-0.198752 0.0869921,-0.415378 0.071315,-0.464134 -0.141346,-0.143531 -0.362819,-0.270343 -0.475319,-0.329886 -0.0354449,0.262268 -0.222173,0.762508 -0.231433,0.78722 -0.000850394,0.00239764 -0.00187795,0.00477165 -0.00309843,0.00709055 -0.127673,0.241965 -0.0702992,0.457524 -0.0523268,0.51172 0.0756181,0.0636102 0.136358,0.206583 0.145043,0.227665 0.00237402,0.00511024 0.0039685,0.010689 0.00461811,0.0165984 0.0229567,0.207476 -0.247252,0.160772 -0.292079,0.151642 -0.200287,-0.00387402 -0.184224,-0.23022 -0.167736,-0.328543 -0.162102,-0.0895984 -0.0248228,-0.305043 0.00659055,-0.35037 0.103484,-0.350256 0.108512,-0.895209 0.10637,-1.0995 -0.353291,0.125984 -1.0173,-0.0615079 -1.22951,-0.12774 -0.0202126,0.24061 -0.124815,0.626736 -0.139472,0.68002 -0.0292953,0.877055 0.423,0.944394 0.424295,0.944646 0.011,0.00182283 0.0215197,0.00710236 0.0297953,0.0158031 0.201008,0.212157 -0.0986102,0.237858 -0.140008,0.24037 -0.00228346,0.000299213 -0.0046063,0.000452756 -0.0069685,0.000452756 -0.219228,0 -0.271417,-0.133496 -0.283685,-0.204291 -0.16552,-0.078748 -0.285921,-0.527346 -0.308394,-0.616449 -0.198437,-0.200295 -0.128524,-0.600469 -0.115386,-0.666299 -0.0286614,-0.189776 -0.13763,-0.247299 -0.193291,-0.264437 -0.116972,0.196606 -0.590693,0.707673 -0.645126,0.766165 -0.186587,0.370795 -0.0449016,0.788185 -0.0445039,0.789402l-8.66142e-005 2.75591e-005 0.000917323 0.00309449c0.0741732,0.279961 -0.21635,0.17037 -0.252547,0.155764 -0.00475591,-0.00159843 -0.00937008,-0.00390157 -0.013685,-0.00693701 -0.226433,-0.15978 -0.103287,-0.265787 -0.0526969,-0.298268 0.00272835,-0.0258268 -0.0301693,-0.0829016 -0.0362165,-0.0931496 -0.00101969,-0.00157874 -0.00196457,-0.00322047 -0.00282677,-0.00493307 -0.103996,-0.206803 0.114969,-0.620646 0.154429,-0.692102 0.0305709,-0.416642 0.168465,-0.496283 0.228563,-0.511039 0.178012,-0.169563 0.121346,-0.39013 0.115512,-0.410878l-4.72441e-005 -0.000137795c-0.113154,-0.346441 -0.0775984,-0.61361 -0.0390945,-0.757752 -0.15185,0.111929 -0.141354,0.378591 -0.141346,0.379492 9.84252e-005,0.00322047 -9.44882e-005,0.00649213 -0.000606299,0.00979134 -0.160957,1.04158 -0.616295,0.920224 -0.661024,0.905677 -0.0157402,-0.00442126 -0.0292402,-0.0160118 -0.0354409,-0.0324843 -0.0103504,-0.0274961 0.00354724,-0.058189 0.0310433,-0.0685394 0.267043,-0.101122 0.151075,-0.649744 0.150756,-0.651323 -0.000779528,-0.00382677 -0.00114173,-0.00780315 -0.00104724,-0.011874 0.0233898,-0.948283 0.673724,-0.883646 0.834445,-0.853114 0.281047,-0.353677 0.978618,-0.249752 1.0083,-0.245165 0.00306693,0.000401575 0.00614173,0.0010748 0.00919685,0.00203937l0.0299134 0.00944094c0.0951969,0.0300787 0.181654,0.0573937 0.259976,0.0726772z"/>
   <path id="_214723600" class="fil1" d="M5.51787 1.21984c-0.0142441,0.0249646 -0.0375433,0.0600236 -0.0375472,0.0600315 -0.0252559,0.00433071 -0.0130906,0.020063 -0.0659213,0.00565354 -0.015874,0.0219213 -0.0907677,0.117929 -0.0853465,0.0340787 -0.0770197,0.125673 -0.0348819,0.0233465 -0.13698,0.118303 -0.0141535,0.0131654 -0.0655394,0.0611732 -0.0867559,0.0529016 -0.0107402,-0.108929 -0.0948071,0.0845906 -0.0963504,0.0854921 -0.00654724,-0.0127559 0.00127165,-0.0489961 -0.00476378,-0.0616102 -0.018378,0.00662205 -0.113634,0.119303 -0.118528,0.14539 -0.0153976,-0.00355118 -0.0179331,-0.0498071 -0.0208346,-0.0620551 -0.0476811,-0.0110039 -0.141433,0.18924 -0.160339,0.210272 -0.00512205,-0.00520866 -0.0253543,-0.0652165 -0.0262677,-0.0700906 -0.0125866,0.0053937 -0.147311,0.169106 -0.15863,0.247618 -0.0192283,-0.0208071 0.00572835,-0.0290906 -0.0184528,-0.0458307 -0.000456693,0.000377953 -0.107835,0.323283 -0.124555,0.368524 -0.00406299,0.0462638 -0.0108622,0.0551969 -0.0108622,0.11198 -0.0218819,0.0100984 -0.0364567,-0.148264 -0.0364567,-0.171429 5.90551e-005,0.00449213 -0.0188976,0.130614 -0.0217283,0.139736 -0.0753858,0 0.0115315,-0.111055 0.0291417,-0.245362"/>
   <path id="_214723816" class="fil2" d="M5.84184 2.68125c-0.00832677,0.00248031 -0.0151299,0.00384646 -0.0197165,0.00459449 -0.00182283,0.00042126 -0.00368898,0.000751969 -0.00559055,0.000984252 -0.000594488,7.48031e-005 -0.0011378,9.44882e-005 -0.00164961,8.26772e-005 -0.00130315,0.000141732 -0.00262205,0.000240157 -0.00395276,0.000287402 -0.0139291,0.000492126 -0.0271693,0.00015748 -0.0397874,-0.000889764 -0.0459213,-0.0697677 -0.0258189,-0.182024 -0.0115118,-0.256835 0.0123858,0.0647756 0.0114252,0.227252 0.0822165,0.251752l-7.87402e-006 2.3622e-005z"/>
   <path id="_214724032" class="fil2" d="M6.01748 2.42897c-0.0113976,0.0716575 -0.0328622,0.123346 -0.057685,0.160665 -0.00118504,7.08661e-005 -0.00237008,0.000110236 -0.00356693,0.000110236 -0.0424291,0 -0.0768228,-0.0448898 -0.0768228,-0.10026 0,-0.0553701 0.0343937,-0.10026 0.0768228,-0.10026 0.0250079,0 0.0472244,0.0155984 0.061252,0.0397441z"/>
   <line id="_214723768" class="fil3" x1="3.24764" y1="5.52769" x2="3.24764" y2= "5.52769" />
   <path id="_214722856" class="fil4" d="M1.58597 4.24394c-0.0131693,-0.00107874 -0.0259606,-0.00702756 -0.035437,-0.0176732"/>
   <path id="_214723000" class="fil5" d="M5.62507 1.61483c0.0443465,0.033374 0.0614606,0.0854646 0.0382244,0.116339 -0.0232402,0.030874 -0.0780276,0.0288425 -0.122374,-0.00453543 -0.0443465,-0.033374 -0.0614606,-0.0854646 -0.0382244,-0.116339 0.0232402,-0.030874 0.0780276,-0.0288425 0.122374,0.00453543z"/>
   <path id="_214723168" class="fil6" d="M5.61569 1.6273c0.0239843,0.0180512 0.0287953,0.0521299 0.0107441,0.0761142 -0.0180512,0.0239843 -0.0521299,0.0287953 -0.0761142,0.0107441 -0.0239843,-0.0180512 -0.0287953,-0.0521299 -0.0107441,-0.0761142 0.0180512,-0.0239843 0.0521299,-0.0287953 0.0761142,-0.0107441z"/>
   <path id="_214722688" class="fil2" d="M1.81907 2.64972c-0.16072,-0.0305315 -0.811055,-0.0951693 -0.834445,0.853114 -9.44882e-005,0.00407087 0.000267717,0.00804724 0.00104724,0.011874 0.000318898,0.00157874 0.116287,0.550201 -0.150756,0.651323 -0.0274961,0.0103504 -0.0413937,0.0410433 -0.0310433,0.0685394 0.00620079,0.0164724 0.0197008,0.028063 0.0354409,0.0324843 0.0447283,0.0145472 0.500067,0.135906 0.661024,-0.905677 0.000511811,-0.00329921 0.000704724,-0.00657087 0.000606299,-0.00979134 -7.87402e-006,-0.000901575 -0.0105039,-0.267563 0.141346,-0.379492 -0.000397638,0.00148031 -0.000791339,0.00297638 -0.00118504,0.00448425 0.0358386,-0.104728 0.0930984,-0.232528 0.178866,-0.327988 -0.00030315,0.000374016 -0.000602362,0.000751969 -0.000901575,0.00112992z"/>
   <path id="_214723096" class="fil7" d="M5.51527 1.18859c-0.156846,-0.0716024 -0.553689,-0.166012 -0.956843,0.428681 -0.122327,0.180437 -0.163461,0.310559 -0.195205,0.41098 -0.00980709,0.0310197 -0.0185709,0.058748 -0.0291299,0.0839409 -0.0854252,0.367681 0.00619685,0.34526 0.0602953,0.0171299 1.9685e-005,0.0233189 -0.0270787,0.243972 -0.00520866,0.233882 0,-0.084378 0.088378,-0.437087 0.109374,-0.454461 0.0241811,0.0167402 -0.000775591,0.0250236 0.0184528,0.0458307 0.0113189,-0.0785118 0.146043,-0.242224 0.15863,-0.247618 0.000913386,0.00487402 0.0211457,0.0648819 0.0262677,0.0700906 0.0189055,-0.0210315 0.112657,-0.221276 0.160339,-0.210272 0.00290157,0.012248 0.00543701,0.0585039 0.0208346,0.0620551 0.0048937,-0.0260866 0.10015,-0.138768 0.118528,-0.14539 0.00603543,0.0126142 -0.00178346,0.0488543 0.00476378,0.0616102 0.00154331,-0.000901575 0.0856102,-0.194421 0.0963504,-0.0854921 0.0212165,0.00827165 0.0843189,-0.085315 0.0984724,-0.0984764 0.102094,-0.0949567 0.0482441,0.0529449 0.125264,-0.0727283 -0.00542126,0.0838504 0.0694724,-0.0121575 0.0853465,-0.0340787 0.0528307,0.0144094 0.0406654,-0.00132283 0.0659213,-0.00565354 3.93701e-006,-7.87402e-006 0.0233031,-0.0350669 0.0375472,-0.0600315z"/>
   <path id="_214722976" class="fil2" d="M2.23474 4.03445c0.0569567,0.0190157 0.160437,0.0786181 0.188256,0.262823 -0.0131378,0.0658307 -0.0830512,0.466004 0.115386,0.666299 0.0224724,0.0891024 0.142874,0.537701 0.308394,0.616449 0.0122677,0.0707953 0.0644567,0.204291 0.283685,0.204291 0.0023622,0 0.00468504,-0.000153543 0.0069685,-0.000452756 0.0413976,-0.00251181 0.341016,-0.0282126 0.140008,-0.24037 -0.00827559,-0.00870079 -0.0187953,-0.0139803 -0.0297953,-0.0158031 -0.00129528,-0.000251969 -0.453591,-0.0675906 -0.424295,-0.944646 0.0146496,-0.053248 0.119122,-0.438898 0.139433,-0.679543 -0.255028,-0.0747953 -0.361004,-0.0569134 -0.610559,-0.250984 -0.0226614,0.125421 -0.0534764,0.266803 -0.11748,0.381937z"/>
   <path id="_214721872" class="fil2" d="M4.67782 4.108c0.112941,0.0598583 0.333134,0.186205 0.473882,0.329126 0.0156772,0.0487559 0.0729803,0.265382 -0.071315,0.464134 -0.032315,0.0152835 -0.109327,0.0569055 -0.138925,0.118252 -0.0741339,0.00391732 -0.199472,0.0480354 -0.206606,0.299929 -5.90551e-005,0.0021811 1.5748e-005,0.00433465 0.000212598,0.00645669 0.00011811,0.00129528 0.0392559,0.455051 0.285795,0.0315315 0.0613858,-0.0456772 0.398843,-0.313051 0.479866,-0.727551 0.00724803,-0.0267717 0.0797323,-0.319311 -0.163146,-0.500961 -0.0277992,-0.0427047 -0.159331,-0.241331 -0.259484,-0.333713 0.0771496,-0.116331 0.264205,-0.449717 0.117504,-0.764409 -0.00367323,-0.00788976 -0.0090315,-0.0144528 -0.0154449,-0.0194685 0.0564252,0.217752 -0.0562795,0.476846 -0.18374,0.651571 -0.150283,0.206012 -0.0647441,0.053315 -0.255606,0.249764 -0.0289252,0.0297717 -0.0476535,0.118291 -0.0629921,0.195339z"/>
   <path id="_214722160" class="fil2" d="M5.33859 2.30707c-0.0463031,-0.046689 -0.273563,-0.258516 -0.181594,-0.354909l0.00327559 -0.00253937 0.000732283 0.00408268 -0.000440945 0.00362598c-0.0191969,0.143917 0.0839961,0.189496 0.191343,0.286004l-0.013315 0.0637362z"/>
   <path id="_214722376" class="fil7" d="M5.69919 1.77015c-0.0235118,-0.166386 -0.162382,-0.235177 -0.3125,-0.168402 0.189654,-0.122575 0.314008,-0.0567283 0.3125,0.168402z"/>
  </g>
  <rect class="fil1" width="6.82666" height="6.82666"/>
 </g>
</svg>
