<?xml version="1.0" encoding="UTF-8"?>
<!DOCTYPE svg PUBLIC "-//W3C//DTD SVG 1.1//EN" "http://www.w3.org/Graphics/SVG/1.1/DTD/svg11.dtd">
<!-- Creator: CorelDRAW -->
<svg xmlns="http://www.w3.org/2000/svg" xml:space="preserve" width="6.82666in" height="6.82666in" style="shape-rendering:geometricPrecision; text-rendering:geometricPrecision; image-rendering:optimizeQuality; fill-rule:evenodd; clip-rule:evenodd"
viewBox="0 0 6.82666 6.82666"
 xmlns:xlink="http://www.w3.org/1999/xlink">
 <defs>
  <style type="text/css">
   <![CDATA[
    .fil5 {fill:none}
    .fil3 {fill:#212121}
    .fil2 {fill:#4FC3F7}
    .fil1 {fill:#272727;fill-rule:nonzero}
    .fil4 {fill:#424242;fill-rule:nonzero}
    .fil0 {fill:#4FC3F7;fill-rule:nonzero}
   ]]>
  </style>
 </defs>
 <g id="Layer_x0020_1">
  <metadata id="CorelCorpID_0Corel-Layer"/>
  <g id="_213842528">
   <path id="_213842960" class="fil0" d="M3.31995 3.4973c0.0152087,0.0085748 0.0344961,0.00319291 0.0430709,-0.0120197 0.00859449,-0.0152362 0.00321654,-0.0345197 -0.0120039,-0.0430984 -0.0152323,-0.00859055 -0.0345157,-0.00320866 -0.0431102,0.0120315 -0.0085748,0.0152087 -0.00319685,0.0344961 0.0120433,0.0430866z"/>
   <path id="_213842912" class="fil0" d="M3.46404 3.37049c0.0152323,0.00859055 0.0345157,0.0032126 0.0430984,-0.0120118 0.00858661,-0.0152244 0.00320472,-0.0345118 -0.0120315,-0.0430945 -0.0152126,-0.00858268 -0.0345,-0.00320472 -0.0430787,0.0120197 -0.00858661,0.0152244 -0.00320472,0.0345118 0.0120118,0.0430866z"/>
   <path id="_213843248" class="fil1" d="M1.83239 3.93628c-0.0936378,-0.173906 -0.287909,-0.115567 -0.287909,-0.115567 0,0 0.221232,-0.133839 0.545661,0.0389094 0.241461,0.128386 1.18156,-0.173524 1.18156,-0.173524l-0.0715118 -0.176331 -0.103602 -0.109945 -0.0597441 -0.0861496 0.0909409 0.0176339 0.184819 -0.0462717 0.0380236 -0.146606 -0.0223661 -0.123398 0.0614449 0.0632165 0.138331 0.136685 0.171339 0.0740118c0,0 0.311866,-0.946252 0.188209,-1.19194 -0.166358,-0.330413 -0.0308937,-0.552193 -0.0308937,-0.552193 0,0 -0.0602835,0.195555 0.110307,0.29265 0.170583,0.0970433 2.00632,-0.961736 2.00632,-0.961736 0,0 -0.548142,0.363953 -0.616343,0.535311 -0.133937,0.336028 0.234835,0.333394 0.234835,0.333394 0,0 -0.421917,-0.00290945 -0.568665,0.316571 -0.16487,0.359024 0.309614,0.617539 0.309614,0.617539 0,0 -0.427091,-0.0857992 -0.522343,0.037248 -0.284114,0.367102 0.426039,0.860079 -0.0225433,0.681906 -0.448492,-0.178185 -0.542791,0.319201 -0.542791,0.319201l0.447165 0.764661 -0.272398 -0.215043 0.32772 0.508579 -0.50215 -0.347819 0.192024 0.279055 -0.750114 -0.462732c0,0 -0.493189,0.0884252 -0.323319,0.54422 0.169992,0.455976 -0.307642,-0.26878 -0.67465,0.0133543 -0.12302,0.0945315 -0.0440984,0.527406 -0.0440984,0.527406 0,0 -0.249079,-0.483181 -0.606492,-0.321508 -0.318031,0.143862 -0.321028,0.570421 -0.321028,0.570421 0,0 0.00773622,-0.372657 -0.326417,-0.242177 -0.170567,0.0667126 -0.538004,0.615618 -0.538004,0.615618 0,0 1.07263,-1.84087 0.979063,-2.01465z"/>
   <path id="_213843512" class="fil2" d="M3.45202 3.3274c-0.00858661,0.0152244 -0.00320472,0.0345118 0.0120118,0.0430866 0.0152323,0.00859055 0.0345157,0.0032126 0.0430984,-0.0120118 0.00858661,-0.0152244 0.00320472,-0.0345118 -0.0120315,-0.0430945 -0.0152126,-0.00858268 -0.0345,-0.00320472 -0.0430787,0.0120197z"/>
   <path id="_213842840" class="fil2" d="M3.36302 3.48528c0.00859449,-0.0152362 0.00321654,-0.0345197 -0.0120039,-0.0430984 -0.0152323,-0.00859055 -0.0345157,-0.00320866 -0.0431102,0.0120315 -0.0085748,0.0152087 -0.00319685,0.0344961 0.0120433,0.0430866 0.0152087,0.0085748 0.0344961,0.00319291 0.0430709,-0.0120197z"/>
   <path id="_213842624" class="fil3" d="M1.83239 3.93628c0.0935709,0.173787 -0.979063,2.01465 -0.979063,2.01465 0,0 0.367437,-0.548906 0.538004,-0.615618 0.325594,-0.127138 0.326591,0.223421 0.326425,0.241461 0.000314961,-0.0194449 0.010563,-0.429268 0.32102,-0.569705 0.357413,-0.161673 0.606492,0.321508 0.606492,0.321508 0,0 -0.0789213,-0.432874 0.0440984,-0.527406 0.367008,-0.282134 0.844642,0.442622 0.67465,-0.0133543 -0.16987,-0.455795 0.323319,-0.54422 0.323319,-0.54422l0.0118583 0.00731496c-0.280965,-0.255713 -0.394894,-0.48139 -0.430063,-0.563992 -0.0541024,0.017189 -0.94489,0.297173 -1.17899,0.172701 -0.324429,-0.172748 -0.545661,-0.0389094 -0.545661,-0.0389094 0,0 0.194272,-0.0583386 0.287909,0.115567z"/>
   <path id="_213842456" class="fil3" d="M3.88759 2.09701c0.118661,0.23576 -0.16372,1.11662 -0.186732,1.18741 0.321709,0.155201 0.499854,0.373043 0.544276,0.432244 0.00237402,-0.012126 0.099874,-0.494921 0.542748,-0.318969 0.448583,0.178173 -0.261571,-0.314803 0.0225433,-0.681906 0.095252,-0.123047 0.522343,-0.037248 0.522343,-0.037248 0,0 -0.474484,-0.258516 -0.309614,-0.617539 0.143248,-0.311858 0.548689,-0.316528 0.567953,-0.316571 -0.0178661,-8.66142e-005 -0.364626,-0.00598031 -0.234122,-0.333394 0.0682008,-0.171358 0.616343,-0.535311 0.616343,-0.535311 0,0 -1.83574,1.05878 -2.00632,0.961736 -0.170591,-0.0970945 -0.110307,-0.29265 -0.110307,-0.29265 0,0 -0.135465,0.22178 0.0308937,0.552193z"/>
   <path id="_213842360" class="fil4" d="M5.47627 1.75276c0.00730315,-0.00065748 0.012689,-0.00712205 0.0120315,-0.0144252 -0.00065748,-0.00730315 -0.00712205,-0.012689 -0.0144252,-0.0120315 -0.545902,0.0499449 -0.900311,0.26374 -1.17543,0.556114 -0.274622,0.291846 -0.445756,0.660591 -0.57761,1.01966 -0.00252756,0.00690157 0.00101575,0.0145551 0.00791732,0.0170827 0.00690157,0.00252756 0.0145551,-0.00101575 0.0170827,-0.00791732 0.13085,-0.356339 0.300465,-0.722047 0.571988,-1.0106 0.27102,-0.288012 0.620016,-0.498622 1.15845,-0.547886z"/>
   <path id="_213842120" class="fil4" d="M1.72759 5.46112c-0.000685039,0.00734252 -0.00709449,0.0127283 -0.0142992,0.0120276 -0.00720472,-0.00069685 -0.0124882,-0.00722441 -0.0118031,-0.0145669 0.0519764,-0.548839 0.264736,-0.904248 0.554669,-1.17952 0.289409,-0.274764 0.654213,-0.445055 1.00927,-0.575882 0.00682677,-0.00250787 0.0143622,0.00109449 0.0168228,0.00805118 0.00246063,0.00695276 -0.0010748,0.0146339 -0.00789764,0.0171417 -0.352358,0.129831 -0.714157,0.298606 -1.0003,0.570272 -0.285606,0.271161 -0.495197,0.621142 -0.546465,1.16247z"/>
   <path id="_213842720" class="fil4" d="M5.26742 2.66968c0.00670079,0.00301969 0.0145827,3.54331e-005 0.0176024,-0.00666535 0.00301969,-0.00670079 3.54331e-005,-0.0145827 -0.00666535,-0.0176024 -0.348051,-0.157681 -0.637654,-0.0975945 -0.882118,0.0601496 -0.242783,0.156657 -0.440173,0.409583 -0.605976,0.640213 -0.00428346,0.00595276 -0.00293307,0.0142559 0.00301969,0.0185394 0.00595276,0.00428346 0.0142559,0.00293307 0.0185394,-0.00301969 0.164315,-0.228559 0.359744,-0.479087 0.598795,-0.633339 0.237366,-0.153165 0.518638,-0.21148 0.856803,-0.0582756z"/>
   <path id="_213842600" class="fil4" d="M2.62449 5.23391c0.00294488,0.00662205 -3.54331e-005,0.0143819 -0.00665748,0.0173268 -0.00662205,0.00294488 -0.0143819,-3.93701e-005 -0.0173268,-0.00666142 -0.153783,-0.343984 -0.0931102,-0.629268 0.0636378,-0.869559 0.155673,-0.238642 0.406047,-0.432047 0.634287,-0.594413 0.00588976,-0.00419291 0.0140709,-0.00282283 0.0182638,0.00307087 0.00419685,0.00588976 0.00282283,0.0140709 -0.00306693,0.0182638 -0.226189,0.160909 -0.474189,0.352394 -0.627472,0.587366 -0.152197,0.233315 -0.211083,0.51039 -0.0616654,0.844606z"/>
   <path id="_213842288" class="fil4" d="M4.89828 3.42364c0.00569291,0.00462992 0.0140669,0.00376772 0.0186969,-0.0019252 0.00462992,-0.00569291 0.00376772,-0.0140669 -0.0019252,-0.0186969 -0.169075,-0.136949 -0.333839,-0.23561 -0.496425,-0.250811 -0.163933,-0.0153228 -0.324268,0.0537323 -0.482378,0.252843 -0.00457087,0.00575197 -0.00361417,0.014126 0.0021378,0.0186969 0.00575197,0.00457087 0.014126,0.00361417 0.0186969,-0.0021378 0.151705,-0.191043 0.304161,-0.257429 0.45915,-0.242945 0.156343,0.0146142 0.316689,0.111035 0.482047,0.244976z"/>
   <path id="_213842216" class="fil4" d="M3.38583 4.91643c0.00461811,0.00606299 0.00370866,0.0149409 -0.00202756,0.0198228 -0.00573622,0.00488189 -0.0141378,0.00392126 -0.0187559,-0.00214173 -0.136618,-0.180071 -0.234823,-0.35537 -0.249272,-0.527917 -0.0145591,-0.173976 0.0555512,-0.343689 0.256197,-0.510358 0.00579528,-0.0048189 0.0141969,-0.00375984 0.0187559,0.00236614 0.00455906,0.00612598 0.00355512,0.0150039 -0.00224016,0.0198228 -0.192516,0.159917 -0.259909,0.321287 -0.246146,0.485772 0.0138898,0.165921 0.10987,0.33652 0.243488,0.512634z"/>
  </g>
  <rect class="fil5" width="6.82666" height="6.82666"/>
  <rect class="fil5" width="6.82666" height="6.82666"/>
 </g>
</svg>
