<?xml version="1.0" encoding="UTF-8"?>
<!DOCTYPE svg PUBLIC "-//W3C//DTD SVG 1.1//EN" "http://www.w3.org/Graphics/SVG/1.1/DTD/svg11.dtd">
<!-- Creator: CorelDRAW -->
<svg xmlns="http://www.w3.org/2000/svg" xml:space="preserve" width="6.82666in" height="6.82666in" style="shape-rendering:geometricPrecision; text-rendering:geometricPrecision; image-rendering:optimizeQuality; fill-rule:evenodd; clip-rule:evenodd"
viewBox="0 0 6.82666 6.82666"
 xmlns:xlink="http://www.w3.org/1999/xlink">
 <defs>
  <style type="text/css">
   <![CDATA[
    .fil8 {fill:none}
    .fil2 {fill:#212121}
    .fil6 {fill:#381B04}
    .fil3 {fill:#421F03}
    .fil5 {fill:#BA5D17}
    .fil7 {fill:#D67E3A}
    .fil0 {fill:#EB761D}
    .fil1 {fill:#F2934B}
    .fil4 {fill:#FAFAFA}
   ]]>
  </style>
 </defs>
 <g id="Layer_x0020_1">
  <metadata id="CorelCorpID_0Corel-Layer"/>
  <g id="_352807272">
   <g>
    <path id="_352783680" class="fil0" d="M3.7588 2.21514c0.449705,-0.0336457 0.939252,-0.0702677 1.24732,0.354512 0.126315,0.174181 0.209106,0.430913 0.278937,0.647457 0.0295787,0.0917323 0.0567559,0.175996 0.0840945,0.243185 0.0367283,0.0902559 0.0873819,0.166008 0.142094,0.224449 0.0498898,0.0532874 0.102925,0.0920276 0.151406,0.113945 0.0410039,0.0185394 0.0759055,0.024248 0.0983701,0.0151063 0.00429921,-0.00175197 0.00785827,-0.0038937 0.0105512,-0.00641339 0.00827559,-0.00774803 0.0139016,-0.0215236 0.0159213,-0.0419724 0.00243307,-0.0246654 -0.000846457,-0.0565551 -0.0111378,-0.0962992 -0.00109055,-0.00329921 -0.00187008,-0.00674803 -0.00230709,-0.0103268 -0.0287638,-0.231098 0.156953,-0.0824449 0.157465,-0.0820118l0.00126378 0.00101969c0.047189,0.0395709 0.0773346,0.0942087 0.0901339,0.152677 0.0114134,0.0521732 0.00895276,0.107902 -0.00762992,0.158803 -0.0169646,0.0520827 -0.0487638,0.0992717 -0.095689,0.132992 -0.0439882,0.0316102 -0.100496,0.0508268 -0.169445,0.0502874 -0.0946654,-0.000744094 -0.197917,-0.0387244 -0.293874,-0.10235 -0.0947126,-0.0627953 -0.183445,-0.151035 -0.25011,-0.253 -0.0769843,-0.117744 -0.115752,-0.242327 -0.155913,-0.371425 -0.0365472,-0.117457 -0.0743425,-0.238894 -0.14415,-0.358516 -0.0145315,0.052378 -0.0355591,0.110709 -0.0574567,0.171441 -0.0487087,0.135091 -0.102335,0.283831 -0.0927756,0.369917 0.00984252,0.0885276 0.0906378,0.251272 0.114106,0.297071 0.12687,0.0879685 0.0520079,0.238791 0.0368583,0.266299l-0.137776 0.329988c-0.0542323,0.154583 -0.3005,0.134295 -0.340969,0.129866 -0.165272,0.00855906 -0.173705,-0.121957 -0.173949,-0.144028 -5.11811e-005,-0.00146063 -4.72441e-005,-0.00292913 2.3622e-005,-0.00441339 0.00590551,-0.124906 0.197764,-0.128138 0.246756,-0.126925 0.0403543,-0.0196339 0.0616378,-0.126724 0.069622,-0.177858 -0.0125827,-0.0113504 -0.0285472,-0.0261102 -0.0465118,-0.0429291 -0.0482008,0.0760906 -0.128913,0.180571 -0.212618,0.252075 -0.0830591,0.0709567 -0.172661,0.112413 -0.250449,0.0779252l3.54331e-005 -7.48031e-005c-0.0267717,-0.0117362 -0.0471299,-0.025315 -0.0620787,-0.0402126 -0.0291181,-0.0290197 -0.0386693,-0.0614409 -0.0345,-0.0951063l0.000232283 -0.00197638c0.00394882,-0.0285984 0.0184921,-0.0558268 0.0389803,-0.080811 0.0269173,-0.0328189 0.0651535,-0.0627598 0.100343,-0.0856299 0.0389646,-0.0253622 0.0882087,-0.0846063 0.122819,-0.149693 0.0225709,-0.0424409 0.0380787,-0.0854961 0.0384921,-0.11948 -0.0460827,-0.0336969 -0.125197,-0.100677 -0.199654,-0.163717 -0.057689,-0.0488465 -0.110654,-0.0947756 -0.136071,-0.116504 -0.144882,0.0950748 -0.55063,0.111331 -0.721669,0.113886l0.00246063 0.00971654c0.0137402,0.0559803 0.0245787,0.124626 0.0298228,0.161303 0.00156299,0.0109843 0.00311024,0.0259921 0.00491732,0.043563 0.00696457,0.0676969 0.018311,0.17798 0.0634685,0.294185 0.0600157,0.154276 -0.000232283,0.234839 -0.0249764,0.259661 -0.0986417,0.153008 -0.401583,0.0547717 -0.402465,0.0544921l1.9685e-005 -6.29921e-005c-0.00678346,-0.00211024 -0.0132598,-0.00561811 -0.0189764,-0.010563 -0.109937,-0.0952874 0.12135,-0.2395 0.162433,-0.263878 0.00128346,-0.00507874 -0.010878,-0.0372874 -0.0280118,-0.0787244 -0.0471339,-0.113996 -0.145701,-0.259626 -0.164161,-0.286028 -0.0109331,-0.015626 -0.0206693,-0.0345866 -0.0312874,-0.0552756 -0.0190945,-0.037189 -0.0418976,-0.0816142 -0.0692795,-0.097248 -0.0385827,-0.0220276 -0.064252,-0.044378 -0.0795354,-0.0600236 -0.0762126,-0.00555512 -0.143409,-0.0106142 -0.185358,-0.0138071 -0.0873031,0.251831 -0.635453,0.922724 -0.675854,0.97198 -0.00222835,0.00312992 -0.00482283,0.00606299 -0.00779528,0.00873622 -0.0981378,0.0884134 -0.425472,0.0394724 -0.458067,0.0343465 -0.00796457,-0.000850394 -0.0158583,-0.00351181 -0.0230591,-0.00813386 -0.0641811,-0.0414803 -0.0699409,-0.0874567 -0.0398701,-0.133992 0.0506063,-0.078311 0.271657,-0.132358 0.324102,-0.145177 0.00353543,-0.000862205 0.00580709,-0.00142126 0.00664173,-0.0016811 0.0792835,-0.0247835 0.110291,-0.124004 0.135366,-0.204244 0.00784646,-0.025122 0.0152047,-0.0486496 0.0248228,-0.072189 0.0307795,-0.0753583 0.0935394,-0.374965 0.110583,-0.457728 -0.0523386,-0.0947638 -0.0923858,-0.33126 -0.102886,-0.397787 -0.0160354,-0.00934646 -0.0552205,-0.0190748 -0.107657,-0.0320906l-0.0172913 -0.00430315 -0.00225197 -0.000507874 -0.000173228 -4.33071e-005c-0.0859646,-0.0215039 -0.137634,-0.0344331 -0.2045,-0.0611929 -0.026248,-0.0104921 -0.0502126,-0.0165827 -0.0726378,-0.0178189 -0.0210512,-0.00116142 -0.0412165,0.0019252 -0.0612402,0.00962598 -0.0426142,0.0163976 -0.139122,0.0940827 -0.155449,0.107354 -0.0017126,0.00157874 -0.00354724,0.00306693 -0.00550394,0.00444488 -0.0895197,0.0632087 -0.163843,0.00207874 -0.191866,-0.0273976 -0.0394055,-0.0185669 -0.0767913,-0.0651732 -0.0887244,-0.0809961 -0.117874,-0.109106 -0.0228622,-0.258744 0.0194173,-0.325307 0.00506299,-0.00797244 0.00906693,-0.0142717 0.010248,-0.0166417 0.00447244,-0.0089685 0.007,-0.0412756 0.00937795,-0.0716929 0.00272441,-0.0348701 0.00530709,-0.0679094 0.014622,-0.0896142 0.0114528,-0.0267283 0.054878,-0.0596102 0.102563,-0.0957165 0.0445787,-0.033748 0.0938307,-0.0710394 0.101835,-0.0856732 0.00622835,-0.0114094 -0.0795197,-0.108504 -0.0970787,-0.128193 -0.118921,-0.154559 0.296878,0.0424331 0.278882,0.0558268 0.112512,-0.035185 0.264413,-0.0165118 0.417425,0.00231496 0.13576,0.0167087 0.272472,0.0335197 0.367098,0.0106063l0.000952756 -0.000271654c0.213059,-0.0578307 0.30889,-0.0261378 0.407673,0.0065315 0.106866,0.0353425 0.217803,0.0720276 0.552402,-0.0473583 0.0587008,-0.0209488 0.135961,-0.0388819 0.21539,-0.0523701 0.0862283,-0.0146457 0.175957,-0.0240591 0.247134,-0.0263386 0.0796339,-0.00255906 0.167614,-0.00914173 0.257205,-0.0158465z"/>
    <path id="_352783632" class="fil1" d="M4.81604 3.25039c-0.0369016,0.106705 -0.0675984,0.211366 -0.0601732,0.278232 0.00984252,0.0885276 0.0906378,0.251272 0.114106,0.297071 0.12687,0.0879685 0.0520079,0.238791 0.0368583,0.266299l-0.137776 0.329988c-0.0542323,0.154583 -0.3005,0.134295 -0.340969,0.129866 -0.165272,0.00855906 -0.173705,-0.121957 -0.173949,-0.144028 -5.11811e-005,-0.00146063 -4.72441e-005,-0.00292913 2.3622e-005,-0.00441339 0.00590551,-0.124906 0.197764,-0.128138 0.246756,-0.126925 0.0403543,-0.0196339 0.0616378,-0.126724 0.069622,-0.177858 -0.0125827,-0.0113504 -0.0285472,-0.0261102 -0.0465118,-0.0429291 -0.0482008,0.0760906 -0.128913,0.180571 -0.212618,0.252075 -0.0830591,0.0709567 -0.172661,0.112413 -0.250449,0.0779252l3.54331e-005 -7.48031e-005c-0.0267717,-0.0117362 -0.0471299,-0.025315 -0.0620787,-0.0402126 -0.0291181,-0.0290197 -0.0386693,-0.0614409 -0.0345,-0.0951063l0.000232283 -0.00197638c0.00394882,-0.0285984 0.0184921,-0.0558268 0.0389803,-0.080811 0.0269173,-0.0328189 0.0651535,-0.0627598 0.100343,-0.0856299 0.0389646,-0.0253622 0.0882087,-0.0846063 0.122819,-0.149693 0.0225709,-0.0424409 0.0380787,-0.0854961 0.0384921,-0.11948 -0.0222441,-0.0162638 -0.052185,-0.0402835 -0.0855787,-0.0678701 -0.0357913,-0.029563 -0.0755551,-0.0632362 -0.114075,-0.0958465 -0.057689,-0.0488465 -0.110654,-0.0947756 -0.136071,-0.116504 -0.144882,0.0950748 -0.55063,0.111331 -0.721669,0.113886l0.00246063 0.00971654c0.0137402,0.0559803 0.0245787,0.124626 0.0298228,0.161303 0.00156299,0.0109843 0.00311024,0.0259921 0.00491732,0.043563 0.00696457,0.0676969 0.018311,0.17798 0.0634685,0.294185 0.0600157,0.154276 -0.000232283,0.234839 -0.0249764,0.259661 -0.0986417,0.153008 -0.401583,0.0547717 -0.402465,0.0544921l1.9685e-005 -6.29921e-005c-0.00678346,-0.00211024 -0.0132598,-0.00561811 -0.0189764,-0.010563 -0.109937,-0.0952874 0.12135,-0.2395 0.162433,-0.263878 0.00128346,-0.00507874 -0.010878,-0.0372874 -0.0280118,-0.0787244 -0.0471339,-0.113996 -0.145701,-0.259626 -0.164161,-0.286028 -0.0109331,-0.015626 -0.0206693,-0.0345866 -0.0312874,-0.0552756 -0.0190945,-0.037189 -0.0418976,-0.0816142 -0.0692795,-0.097248 -0.0385827,-0.0220276 -0.064252,-0.044378 -0.0795354,-0.0600236 -0.0762126,-0.00555512 -0.143409,-0.0106142 -0.185358,-0.0138071 -0.0873031,0.251831 -0.635453,0.922724 -0.675854,0.97198 -0.00222835,0.00312992 -0.00482283,0.00606299 -0.00779528,0.00873622 -0.0981378,0.0884134 -0.425472,0.0394724 -0.458067,0.0343465 -0.00796457,-0.000850394 -0.0158583,-0.00351181 -0.0230591,-0.00813386 -0.0641811,-0.0414803 -0.0699409,-0.0874567 -0.0398701,-0.133992 0.0506063,-0.078311 0.271657,-0.132358 0.324102,-0.145177 0.00353543,-0.000862205 0.00580709,-0.00142126 0.00664173,-0.0016811 0.0792835,-0.0247835 0.110291,-0.124004 0.135366,-0.204244 0.00784646,-0.025122 0.0152047,-0.0486496 0.0248228,-0.072189 0.0307795,-0.0753583 0.0935394,-0.374965 0.110583,-0.457728 -0.0523386,-0.0947638 -0.0923858,-0.33126 -0.102886,-0.397787 -0.0160354,-0.00934646 -0.0552205,-0.0190748 -0.107657,-0.0320906l-0.0172913 -0.00430315 -0.00225197 -0.000507874 -0.000173228 -4.33071e-005c-0.0859646,-0.0215039 -0.137634,-0.0344331 -0.2045,-0.0611929 -0.026248,-0.0104921 -0.0502126,-0.0165827 -0.0726378,-0.0178189 -0.0210512,-0.00116142 -0.0412165,0.0019252 -0.0612402,0.00962598 -0.0426142,0.0163976 -0.139122,0.0940827 -0.155449,0.107354 -0.0017126,0.00157874 -0.00354724,0.00306693 -0.00550394,0.00444488 -0.0895197,0.0632087 -0.163843,0.00207874 -0.191866,-0.0273976 -0.0281142,-0.013248 -0.0551969,-0.0407677 -0.072748,-0.0611969 0.0217323,-0.0332717 0.048189,-0.0661142 0.0785945,-0.0895 0.0902795,-0.0694449 0.1875,-0.104165 0.375,-0.0972205 0.1875,0.00694488 0.333331,0.0694488 0.444445,0.145835 0.111114,0.0763858 0.32639,0.284724 0.395835,0.3125 0.0694449,0.0277756 0.131949,0.125004 0.347224,0.131945 0.215276,0.00694094 0.368055,0 0.541665,-0.0277795 0.17361,-0.0277795 0.388894,-0.0416693 0.534724,-0.0763898 0.145831,-0.0347205 0.312504,-0.0694449 0.444445,-0.11111 0.131941,-0.0416654 0.180555,-0.0694449 0.36111,-0.0763898 0.180555,-0.00694488 0.40972,0.00694488 0.40972,0.00694488 0,0 0.00503543,0.00618898 0.0136496,0.0168661z"/>
    <path id="_352782336" class="fil2" d="M0.95472 3.18787c-0.00477165,-0.00427953 -0.00890551,-0.00837008 -0.0123425,-0.0119843 -0.0188583,-0.00888583 -0.0372559,-0.0241929 -0.0526181,-0.0394764 0.00281496,-0.000456693 0.00580315,0.000287402 0.00812598,0.00229921 0.0469724,0.0404803 0.0742323,0.0315787 0.0958504,0.00648819 0.0108543,-0.0125945 0.0208307,-0.0292756 0.0309685,-0.0462323 0.0197756,-0.0330748 0.0401732,-0.0671929 0.0719134,-0.0808228 0.00506693,-0.00217717 0.0109488,0.000169291 0.013126,0.00523622 0.00217717,0.00506693 -0.000169291,0.0109488 -0.00523622,0.013126 -0.0258701,0.0111102 -0.0445669,0.042378 -0.0626929,0.0726969 -0.0105866,0.0177047 -0.0209961,0.0351181 -0.033,0.0490433 -0.0153543,0.0178228 -0.032563,0.0297953 -0.0540945,0.029626z"/>
    <path id="_352782936" class="fil2" d="M0.827748 3.0658c-0.0210906,-0.0292402 -0.0299685,-0.0604016 -0.0309252,-0.0914646 0.0050748,0.0101614 0.0121693,0.0190906 0.020311,0.0150197 0.015811,-0.00790551 0.0134409,-0.040315 0.0205551,-0.0482205 0.0325236,-0.0361417 0.0480394,0.103728 -0.00994094,0.124665z"/>
    <line id="_352782408" class="fil0" x1="5.93152" y1="3.57677" x2="5.93152" y2= "3.57677" />
    <path id="_352782768" class="fil3" d="M0.890799 2.72035c0.00411024,0.0424134 0.0622677,0.0965197 0.0904567,0.169079 -0.0385787,-0.0246181 -0.0888819,-0.0566102 -0.122669,-0.0967165 0.00519291,-0.0085 0.010122,-0.0162638 0.0144843,-0.0231339 0.00506299,-0.00797244 0.00906693,-0.0142717 0.010248,-0.0166417 0.00273228,-0.00548031 0.00474409,-0.0196772 0.00643307,-0.0368307 0.000433071,0.00137008 0.000787402,0.0027874 0.00104724,0.00424409zm0.190283 -0.279846c0.101417,0.0637402 0.0981732,0.152906 0.0685748,0.278787 -0.0115079,-0.115531 0.00346063,-0.198409 -0.108618,-0.247075 0.0145315,-0.0111535 0.0284213,-0.0220315 0.0400433,-0.0317126zm-0.102476 0.0793031c0.0113898,0.180902 0.142657,0.183059 0.142118,0.314941 -0.000125984,0.0302638 0.00351181,0.0879213 -0.0196772,0.115445 0.0250906,-0.178669 -0.0539961,-0.18465 -0.0834331,-0.222862 -0.0380709,-0.0476654 -0.0752441,-0.100248 -0.0942638,-0.15898 0.0134646,-0.0149606 0.0330433,-0.0312638 0.0552559,-0.0485433z"/>
    <path id="_352782552" class="fil3" d="M3.23167 2.71106c-0.0595394,0.165106 0.0246024,0.693248 0.0799685,0.809717 0.0553465,0.116461 0.0861024,0.155291 0.0799528,0.00554724 -0.00614567,-0.149748 -0.125449,-0.458236 -0.0639567,-0.63572 0.0615079,-0.177461 0.0472047,0.106268 0.0841102,0.206094 0.0369016,0.0998189 0.133606,0.163417 0.0905551,0.0691339 -0.0430512,-0.0942756 -0.0984134,-0.410402 -0.0430709,-0.565689 0.0275945,-0.077378 0.0729921,-0.225346 0.111594,-0.372197 -0.0236378,0.00127559 -0.0467638,0.0023189 -0.0692244,0.00303937 -0.0211654,0.000677165 -0.0439685,0.00198425 -0.0678346,0.00387402 0.000972441,0.018622 0.00208268,0.036685 0.00335827,0.0540512 0.00853937,0.116303 -0.145917,0.257035 -0.205453,0.42215z"/>
    <path id="_352781952" class="fil3" d="M3.11896 2.28569c-0.0154094,0.166465 -0.0405827,0.192815 -0.0796496,0.36422 -0.0341339,0.149594 -0.0682638,0.343969 -0.026315,0.504307 0.0700433,0.267677 0.0559488,0.036874 0.0594409,-0.0222008 0.00349213,-0.0590709 0.00673622,-0.224772 0.0342441,-0.134591 0.0275118,0.0901772 0.0931969,0.151421 0.0724409,0.0394803 -0.0501654,-0.27074 0.0519528,-0.386516 0.145657,-0.639543 0.0165748,-0.044752 0.0263228,-0.0975433 0.0297441,-0.154535 -0.0308189,0.0037126 -0.0622874,0.00820079 -0.093374,0.013374 -0.00765354,0.0634606 -0.0272598,0.136016 -0.0623898,0.245213 -0.0390866,0.121488 -0.030063,-0.0616102 -0.0200748,-0.229665 -0.0205551,0.00437008 -0.0405709,0.00902362 -0.0597244,0.0139409z"/>
    <path id="_352781904" class="fil3" d="M2.98852 3.34226c-0.0779567,-0.105087 -0.0550157,-0.491114 0.00557874,-0.731173 0.0272283,-0.107866 0.0373307,-0.210201 0.0369173,-0.298539 -0.0435157,0.0153622 -0.0832244,0.0280709 -0.119567,0.0384409 -0.00597244,0.0259016 -0.0143307,0.0527323 -0.0257795,0.0801772 -0.0605827,0.145248 0.0498976,0.21948 -0.0424252,0.42963 -0.0584409,0.133031 -0.107543,-0.184866 -0.0470315,-0.446583 0.0029252,-0.0126535 0.00533465,-0.025 0.0072874,-0.0370433 -0.0315,0.00608661 -0.0598504,0.0100039 -0.0856496,0.0121693 -0.0475157,0.151122 -0.0247598,0.329764 -0.0525945,0.428606 -0.0540748,0.191969 0.0791772,0.236173 0.0791772,0.509996 0,0.155827 -0.0395945,0.230528 -0.0666378,0.291071 0.027563,0.00163386 0.0577205,0.00340945 0.0893346,0.00525197 0.0289606,-0.072689 0.0714921,-0.15787 0.0835709,-0.226134 0.0297283,-0.168189 -0.0379882,-0.416031 0.0567638,-0.00180315 0.0198346,0.0866969 0.012311,0.167559 0.00498425,0.236291 0.0251929,0.00142126 0.0502047,0.00282283 0.0745709,0.00416142 0.0144724,-0.103685 0.0554528,-0.221776 0.0015,-0.29452z"/>
    <path id="_352782168" class="fil3" d="M2.50574 3.47946c0.0281063,-0.0924016 -0.0810551,-0.439752 -0.137524,-0.542846 -0.0471024,-0.195087 -0.0454921,-0.132008 0,0.163654 0.0358465,0.116783 0.0901654,0.307 0.0927677,0.335091 0.00614173,0.0667165 0.019874,0.125937 0.0447559,0.0441024z"/>
    <path id="_352781808" class="fil3" d="M2.42775 2.54942c0.0160748,-0.0743661 0.0429055,-0.122 0.0425748,-0.197744 -0.0250472,-0.00818504 -0.0503307,-0.0159882 -0.0778071,-0.0219764l0 0.437476c0.0147283,0.0497874 0.0345354,0.0985787 0.0565984,0.138917 0.0588189,0.107421 -0.042748,-0.257846 -0.0213661,-0.356673z"/>
    <path id="_352782264" class="fil3" d="M2.51076 2.36492c-0.00427165,0.086126 -0.0177047,0.202272 -0.031126,0.286189 -0.0181772,0.113626 0.031815,0.222705 0.0272795,0.313602 -0.00455118,0.0909016 -0.0295984,0.185551 0.0158425,0.249173 0.0454567,0.0636378 0.0725906,0.158413 0.0589685,0.253858 -0.0136417,0.0954449 0.0590827,-0.00455118 0.081815,-0.131795 0.0227126,-0.127268 -0.0521024,-0.307598 -0.0702756,-0.462134 -0.0181772,-0.154531 0.00908661,-0.32724 0.0409016,-0.481772l0.000354331 -0.00174803c-0.0489606,-0.00340551 -0.0875039,-0.013811 -0.12376,-0.025374z"/>
    <path id="_352814016" class="fil3" d="M3.42581 3.2134c-0.0585354,-0.0785748 -0.103122,-0.0860512 -0.0469961,0.030311 0.0327559,0.0679291 0.0410472,0.225921 0.0458189,0.394075 0.0269488,-0.00176772 0.0546811,-0.00388189 0.0826929,-0.0063937 -0.00172835,-0.140197 -0.0274961,-0.345496 -0.0815157,-0.417992z"/>
    <path id="_352813176" class="fil3" d="M3.57406 3.55059c0,0.0218543 -0.00273622,0.0474685 -0.00758661,0.0748976 0.0236496,-0.00261811 0.047252,-0.00555906 0.0705236,-0.00885433 0.00305906,-0.0234803 0.00473622,-0.0439409 0.00473622,-0.0605079 0.00612598,-0.260661 -0.0676732,-0.232921 -0.0676732,-0.00553543z"/>
    <path id="_352813080" class="fil3" d="M3.12262 3.56071c-0.0404094,-0.0450236 -0.0697795,-0.0136614 -0.0278661,0.0810039l0.000374016 0.000838583c0.0294803,0.00151575 0.0560236,0.00281102 0.0783543,0.00380315 -0.0114528,-0.0364213 -0.0289843,-0.0612559 -0.0508622,-0.0856457z"/>
    <path id="_352813536" class="fil3" d="M3.24402 3.44413c-0.0676575,-0.11952 -0.0706772,-0.138602 -0.0845118,-0.245957 -0.0206181,-0.159976 -0.0572559,-0.100965 -0.0593071,-0.00762598 -0.00537402,0.241945 0.0650079,0.33002 0.115811,0.455689 0.0299961,-0.000503937 0.0664488,-0.0014252 0.106945,-0.0030748 -0.0188228,-0.0713307 -0.0453858,-0.139776 -0.078937,-0.199031z"/>
    <path id="_352813440" class="fil3" d="M2.49758 3.606c0.0086378,-0.0678307 -0.0469803,-0.0409882 -0.0812244,0.0480512l0.0297598 0c0.0085,-0.0181772 0.0155394,-0.035063 0.0208465,-0.050374l0.0306181 0.00232283z"/>
    <path id="_352813128" class="fil3" d="M2.60615 3.61411c-0.00443701,-0.0157165 -0.00906299,-0.0296929 -0.0137874,-0.0414882 -0.0113268,-0.0282992 -0.0151142,-0.00712598 -0.015185,0.0393425l0.0289724 0.00214567z"/>
    <polygon id="_352812936" class="fil3" points="5.13901,2.81102 5.13945,2.81534 5.13945,2.81202 "/>
    <path id="_352812720" class="fil3" d="M5.01565 2.58308c-0.00459843,0.114146 -0.0163937,0.265421 -0.0163937,0.324539 0,0.114898 0.064374,0.274453 0.140197,0.344228 0.0468465,0.0207677 0.045748,-0.0184016 0,-0.113386l-0.00374016 -0.00842126c-0.0419921,-0.0946496 -0.0997047,-0.231882 -0.0734685,-0.388047 0.00364567,-0.021689 0.00757087,-0.0432638 0.0115472,-0.0646339 -0.0183071,-0.0332283 -0.0376417,-0.0648346 -0.0581417,-0.0942795z"/>
    <path id="_352812768" class="fil3" d="M5.09374 3.40926c-0.00525591,-0.132504 -0.157453,-0.459043 -0.167969,-0.563169 -0.00952756,-0.0947008 0.0026378,-0.169854 0.048374,-0.318035 -0.0192598,-0.023689 -0.0391181,-0.0458268 -0.0595866,-0.0664016 -0.0182795,0.0423268 -0.036252,0.082248 -0.0517402,0.124161 -0.0401535,0.108591 -0.0227126,0.317177 0.018315,0.481126 0.00942126,-0.027685 0.0179528,-0.054378 0.0249724,-0.0796811 0.0698071,0.119622 0.107602,0.241059 0.14415,0.358516 0.0144921,0.0465827 0.0288071,0.0925787 0.0447953,0.137878 1.5748e-005,-0.0268071 -0.00042126,-0.0519606 -0.00131102,-0.0743937z"/>
    <path id="_352812816" class="fil3" d="M4.57194 2.71106c-0.0595394,0.165106 0.0246024,0.693248 0.0799685,0.809717 0.0553465,0.116461 0.0861024,0.155291 0.0799528,0.00554724 -0.00614567,-0.149748 -0.125449,-0.458236 -0.0639567,-0.63572 0.0615079,-0.177461 0.0472047,0.106268 0.0841102,0.206094 0.0195591,0.0529094 0.0559173,0.0956339 0.0793622,0.110075 0.00437008,-0.012252 0.00875984,-0.0244685 0.0131299,-0.0365945 -0.000610236,-0.00141339 -0.00125591,-0.00285827 -0.00193701,-0.00434646 -0.0430512,-0.0942756 -0.0984134,-0.410402 -0.0430709,-0.565689 0.0157953,-0.0442913 0.0374213,-0.11172 0.0602717,-0.188819 -0.0289094,-0.0242953 -0.0588071,-0.0459921 -0.0895512,-0.065378 -0.0307913,0.104409 -0.148161,0.226122 -0.19828,0.365114z"/>
    <path id="_352811952" class="fil3" d="M4.46038 2.27294c-0.0152953,0.178016 -0.0407441,0.201272 -0.0807913,0.376972 -0.0341339,0.149594 -0.0682638,0.343969 -0.026315,0.504307 0.0700433,0.267677 0.0559488,0.036874 0.0594409,-0.0222008 0.00349213,-0.0590709 0.00673622,-0.224772 0.0342441,-0.134591 0.0275118,0.0901772 0.0931969,0.151421 0.0724409,0.0394803 -0.0501654,-0.27074 0.0519528,-0.386516 0.145657,-0.639543 0.0107835,-0.0291142 0.0186811,-0.0616339 0.0238228,-0.0964961 -0.0288937,-0.0139488 -0.0584134,-0.0261417 -0.0884488,-0.0368386 -0.00827953,0.061626 -0.0276969,0.13265 -0.0613937,0.237386 -0.0416102,0.129331 -0.0287008,-0.0865236 -0.0181417,-0.261933 -0.0187165,-0.00494094 -0.0375945,-0.00936614 -0.056626,-0.0133346 -0.00115748,0.0146024 -0.00246457,0.0301535 -0.00388976,0.0467913z"/>
    <path id="_352812048" class="fil3" d="M4.3288 3.34226c-0.0779567,-0.105087 -0.0550157,-0.491114 0.00557874,-0.731173 0.0381929,-0.151315 0.0427008,-0.291752 0.0317323,-0.397921l-0.10161 0c0.0021063,0.0618937 -0.0048937,0.137311 -0.0385512,0.218 -0.0605827,0.145248 0.0498976,0.21948 -0.0424252,0.42963 -0.0584409,0.133031 -0.107543,-0.184866 -0.0470315,-0.446583 0.0183307,-0.0792756 0.016563,-0.146606 0.00660236,-0.201047l-0.077185 0c0.0134567,0.0475472 0.018126,0.102307 -0.00214567,0.159299 -0.0549409,0.154488 -0.0293504,0.342933 -0.0582283,0.44548 -0.0540748,0.191969 0.0791772,0.236173 0.0791772,0.509996 0,0.149382 -0.0363937,0.224213 -0.0632244,0.283484 0.0141102,0.0120591 0.0289646,0.0247126 0.0441457,0.0375669l0.00598425 0.00506693 0.0245157 0c0.0276969,-0.0782362 0.0810709,-0.178083 0.0948465,-0.255929 0.0297283,-0.168189 -0.0379882,-0.416031 0.0567638,-0.00180315 0.021937,0.0958858 0.0104016,0.184634 0.00269291,0.257732 0.145555,0 0.113366,-0.264602 0.0783622,-0.311799z"/>
    <path id="_352811640" class="fil3" d="M3.91327 2.36526c-0.0210079,-0.034378 -0.0268386,-0.0966772 -0.0297087,-0.152094l-0.042126 0c0.00350394,0.0211496 0.00854331,0.044689 0.0102835,0.0743504 0.00455512,0.0772638 -0.0136417,0.249976 -0.031815,0.363598 -0.0181772,0.113626 0.031815,0.222705 0.0272795,0.313602 -0.00455118,0.0909016 -0.0295984,0.185551 0.0158425,0.249173 0.0454567,0.0636378 0.0725906,0.158413 0.0589685,0.253858 -0.0136417,0.0954449 0.0590827,-0.00455118 0.081815,-0.131795 0.0227126,-0.127268 -0.0521024,-0.307598 -0.0702756,-0.462134 -0.0181772,-0.154531 0.00908661,-0.32724 0.0409016,-0.481772 0.0105669,-0.0512913 0.0139528,-0.11413 0.0122874,-0.178882l-0.0574843 0c0.00381496,0.10398 0.003,0.183154 -0.0159685,0.152094z"/>
    <path id="_352811568" class="fil3" d="M4.76251 3.56437c0.011878,0.309484 0.0533819,0.483205 0.0293858,0.0896811 -0.0120748,-0.0310827 -0.0226614,-0.0621575 -0.0293858,-0.0896811z"/>
    <path id="_352811544" class="fil3" d="M4.76609 3.2134c-0.0585354,-0.0785748 -0.103122,-0.0860512 -0.0469961,0.030311 0.0211693,0.0438976 0.0321142,0.125406 0.0385039,0.222965 0.00652362,-0.0507717 0.0236299,-0.111638 0.0444528,-0.174909 -0.010189,-0.0325906 -0.0221496,-0.0598307 -0.0359606,-0.0783661z"/>
    <path id="_352810992" class="fil3" d="M4.4629 3.56071c-0.0651417,-0.0725787 -0.0256102,0.144287 -0.027752,0.211402 0.0676299,-0.0986929 0.117945,-0.110854 0.027752,-0.211402z"/>
    <path id="_352811448" class="fil3" d="M4.58429 3.44413c-0.0676575,-0.11952 -0.0706772,-0.138602 -0.0845118,-0.245957 -0.0206181,-0.159976 -0.0572559,-0.100965 -0.0593071,-0.00762598 -0.00780709,0.351354 0.129677,0.476181 0.332417,0.71524 -0.0431102,-0.101563 -0.139587,-0.375098 -0.188598,-0.461657z"/>
    <path id="_352810896" class="fil3" d="M2.28123 3.40926c-0.00525591,-0.132504 -0.157453,-0.459043 -0.167969,-0.563169 -0.0104724,-0.104098 0.00525591,-0.184563 0.0629882,-0.364386 0.0577362,-0.179843 0.0104961,0.307602 0.0104961,0.425913 0,0.114898 0.064374,0.274453 0.140197,0.344228 0.0468465,0.0207677 0.045748,-0.0184016 0,-0.113386l-0.00374016 -0.00842126c-0.0419921,-0.0946496 -0.0997047,-0.231882 -0.0734685,-0.388047 0.0262402,-0.156185 0.0671102,-0.306244 0.0356378,-0.419827 -0.000330709,-0.00119685 -0.000661417,-0.00243701 -0.000988189,-0.00371654 -0.0380079,0.000224409 -0.0812165,0.00451969 -0.132079,0.014685 -0.0327795,0.0979803 -0.0720354,0.171602 -0.101996,0.252681 -0.0629882,0.17035 0.0157323,0.586815 0.104961,0.690929 0.129228,0.150811 -0.0217913,0.301043 0.126343,0.440681 -0.00725984,-0.103236 0.00374409,-0.203961 -0.00038189,-0.308165z"/>
    <path id="_352810704" class="fil3" d="M1.75944 2.71106c-0.0595394,0.165106 0.0246024,0.693248 0.0799685,0.809717 0.0553465,0.116461 0.0861024,0.155291 0.0799528,0.00554724 -0.00614567,-0.149748 -0.125449,-0.458236 -0.0639567,-0.63572 0.0615079,-0.177461 0.0472047,0.106268 0.0841102,0.206094 0.0369016,0.0998189 0.133606,0.163417 0.0905551,0.0691339 -0.0430512,-0.0942756 -0.0984134,-0.410402 -0.0430709,-0.565689 0.0196181,-0.0550118 0.0482323,-0.145701 0.0770079,-0.246299 -0.0332047,0.00645276 -0.0709528,0.00861417 -0.111587,0.00801575 -0.0371535,0.100803 -0.14539,0.217213 -0.19298,0.349201z"/>
    <path id="_352811184" class="fil3" d="M1.6418 2.33185c-0.0156614,0.127059 -0.0395669,0.163843 -0.0747165,0.318059 -0.0328307,0.143882 -0.0656457,0.329181 -0.0307795,0.485783 0.0195354,0.00546063 0.0402008,0.010811 0.0633071,0.0166496 0.000102362,-0.0078937 0.000275591,-0.0148504 0.000598425,-0.0203268 0.00349213,-0.0590709 0.00673622,-0.224772 0.0342441,-0.134591 0.0275118,0.0901772 0.0931969,0.151421 0.0724409,0.0394803 -0.0501654,-0.27074 0.0519528,-0.386516 0.145657,-0.639543 0.00472835,-0.0127598 0.0088937,-0.0261772 0.0125236,-0.0401575 -0.0304921,-0.00256299 -0.0618386,-0.00595276 -0.0934843,-0.00966535 -0.0105669,0.0430197 -0.025378,0.0926929 -0.0450591,0.153874 -0.0338622,0.105252 -0.0316142,-0.0181181 -0.0239134,-0.162248 -0.0203386,-0.0025 -0.0406339,-0.00498031 -0.0608189,-0.00731496z"/>
    <path id="_352810080" class="fil3" d="M1.4673 3.11408c-0.00511024,-0.157799 0.0177913,-0.357283 0.0545709,-0.503 0.026126,-0.103504 0.0364843,-0.201921 0.0369173,-0.28776 -0.0389055,-0.00333465 -0.0768465,-0.00540551 -0.113126,-0.00525197 -0.00577559,0.0358189 -0.0158425,0.0738268 -0.0322205,0.113091 0.00745276,0.178094 0.10615,0.246685 -0.0524094,0.424854 0.0287913,-0.0512047 0.0245039,-0.0737913 0.0251772,-0.246177 0.000173228,-0.0460157 0.00616929,-0.0598071 -0.0169449,-0.102311 -0.0169055,-0.0310748 -0.0391811,-0.0738307 -0.032311,-0.180327 -0.0150315,0.00280315 -0.0295354,0.00632677 -0.043437,0.0106732 -0.00825984,-0.00614961 -0.0183504,-0.0136063 -0.0296693,-0.0218583 -0.00179528,0.018437 -0.0057874,0.037315 -0.0125906,0.0564449 -0.0086378,0.0242953 0.0445157,0.109709 0.0343937,0.165366 -0.0139882,0.0768937 -0.0864646,0.124626 -0.0484449,0.124626 0.0246732,0 0.0446772,0.0200039 0.0446772,0.0446772 0,0.0246732 -0.0200039,0.0446772 -0.0446772,0.0446772 -0.0456181,0 -0.0423425,0.00457087 -0.0273386,0.0141063 0.118972,0.0755984 0.0641535,0.248685 0.0316181,0.356449 0.0205157,-0.0138661 0.0399291,-0.0255787 0.0537087,-0.0308819 0.0200236,-0.00770079 0.040189,-0.0107874 0.0612402,-0.00962598 0.0224252,0.00123622 0.0463898,0.00732677 0.0726378,0.0178189 0.0132087,0.0052874 0.0258228,0.0100315 0.0382283,0.0144094z"/>
    <path id="_352810392" class="fil3" d="M1.95359 3.2134c-0.0585354,-0.0785748 -0.103122,-0.0860512 -0.0469961,0.030311 0.0701929,0.145555 -0.0101378,0.335075 0.0859567,0.463295 0.0815866,-0.101354 0.0353346,-0.393906 -0.0389606,-0.493606z"/>
    <path id="_352810632" class="fil3" d="M2.10183 3.55059c0,0.0292953 -0.00492126,0.0653465 -0.013252,0.103469 -0.0366102,0.14076 -0.00160236,0.113906 0.0706024,0 0.00654331,-0.0394449 0.0103228,-0.0730748 0.0103228,-0.0979331 0.00612598,-0.260661 -0.0676732,-0.232921 -0.0676732,-0.00553543z"/>
    <polygon id="_352810560" class="fil3" points="1.85164,3.65406 1.85353,3.65406 1.85273,3.65088 1.8525,3.64999 "/>
    <path id="_352809840" class="fil3" d="M1.68366 3.1733c-0.0184449,-0.112673 -0.0459331,-0.0820984 -0.0536772,-0.0133346l0.00359449 0.000897638 0.000173228 4.33071e-005 0.00225197 0.000507874 0.0172913 0.00430315c0.0107008,0.00265748 0.0208504,0.00517717 0.0303661,0.00758268z"/>
    <path id="_352809696" class="fil3" d="M3.75346 3.40926c-0.00525591,-0.132508 -0.157457,-0.459043 -0.167969,-0.563165 -0.0104724,-0.104106 0.00525591,-0.184571 0.0629921,-0.364394 0.0577323,-0.179839 0.0104921,0.307606 0.0104921,0.425913 0,0.114902 0.064374,0.274457 0.140197,0.344232 0.0291339,0.0340512 0.0278819,-0.0716575 -0.00374409,-0.121807 -0.0419843,-0.0946496 -0.0997047,-0.231882 -0.0734646,-0.388051 0.0262402,-0.156185 0.0671102,-0.306244 0.0356339,-0.419827 -0.00654724,-0.0235827 -0.0120945,-0.0632323 -0.0157244,-0.105752 -0.0291575,0.00217717 -0.0580945,0.00431496 -0.0865827,0.00627559 -0.0355866,0.158902 -0.0925354,0.254299 -0.132752,0.36313 -0.0629882,0.170354 0.0157283,0.586815 0.104961,0.690929 0.0589685,0.0688189 0.0652047,0.212055 0.0611378,0.331862 0.0218425,-0.00372047 0.0431535,-0.00779921 0.0637008,-0.0122717 0.00280709,-0.0681732 0.00318504,-0.134949 0.00112205,-0.187075z"/>
    <path id="_352809600" class="fil4" d="M1.22207 2.67196c0.0255984,-0.0110157 0.053126,-0.00419685 0.0614843,0.0152283 0.00835827,0.0194252 -0.00561811,0.0441024 -0.0312165,0.0551181 -0.0255984,0.0110157 -0.053126,0.00419685 -0.0614843,-0.0152283 -0.00835827,-0.0194252 0.00561811,-0.0441024 0.0312165,-0.0551181z"/>
    <path id="_352809360" class="fil2" d="M1.22905 2.68817c0.0103819,-0.0044685 0.0224528,0.000401575 0.0269606,0.010874 0.00450787,0.0104764 -0.000255906,0.0225906 -0.0106378,0.0270551 -0.0103819,0.0044685 -0.0224528,-0.000401575 -0.0269606,-0.010874 -0.00450787,-0.0104764 0.000255906,-0.0225906 0.0106378,-0.0270551z"/>
    <path id="_352809336" class="fil5" d="M1.10403 2.29297c0,0 0.0815945,0.0381969 0.131945,0.102433 0.0503504,0.0642362 0.0121535,0.147567 0.0121535,0.147567 0,0 -0.0260433,-0.0503465 -0.0694449,-0.114583 -0.0434016,-0.0642362 -0.0746535,-0.135417 -0.0746535,-0.135417z"/>
    <path id="_352809144" class="fil3" d="M1.27026 2.63852c-0.118866,-0.0105118 -0.121213,0.122114 -0.159264,0.194256 0.0595984,-0.0520197 0.054689,-0.182665 0.167504,-0.162394 -0.0031063,-0.00920472 -0.00600394,-0.0241693 -0.00824016,-0.0318622z"/>
    <path id="_352808712" class="fil6" d="M1.21603 2.77052c0.0680669,0.00330709 0.0758031,-0.0395236 0.103276,-0.102673 -0.0432047,0.0462362 -0.0434291,0.0894843 -0.111516,0.0764606 0.0031063,0.00920472 0.00600394,0.0185236 0.00824016,0.0262126z"/>
    <path id="_352808832" class="fil3" d="M0.802799 2.93101c0.00564173,0.00303937 0.015622,0.0160591 0.0190945,0.031252 0.00381496,0.016689 -0.00830315,0.0824173 -0.00867717,0.0820315 -0.0288898,-0.0296929 -0.0262913,-0.116406 -0.0104173,-0.113283z"/>
    <path id="_352808856" class="fil7" d="M4.00363 4.16751c-0.0204882,0.0249843 -0.0350315,0.0522126 -0.0389803,0.080811l-0.000232283 0.00197638c-0.00416929,0.0336654 0.00538189,0.0660866 0.0345,0.0951063 0.0149488,0.0148976 0.0353071,0.0284764 0.0620787,0.0402126l-3.54331e-005 7.48031e-005c0.0777874,0.0344882 0.16739,-0.0069685 0.250449,-0.0779252 0.082185,-0.0702047 0.161488,-0.172205 0.209965,-0.247906 -0.0577756,-0.0945512 -0.158224,-0.16902 -0.256146,-0.244669 -0.00111417,0.0335827 -0.0164134,0.0755827 -0.038437,0.116996 -0.0346102,0.0650866 -0.0838543,0.124331 -0.122819,0.149693 -0.035189,0.0228701 -0.0734252,0.052811 -0.100343,0.0856299z"/>
    <path id="_352808952" class="fil7" d="M2.83243 3.83004c0.0184606,0.0264016 0.117028,0.172031 0.164161,0.286028 0.0171339,0.041437 0.0292953,0.0736457 0.0280118,0.0787244 -0.0410827,0.024378 -0.27237,0.168591 -0.162433,0.263878 0.00571654,0.00494488 0.0121929,0.00845276 0.0189764,0.010563l-1.9685e-005 6.29921e-005c0.00088189,0.000279528 0.303823,0.0985157 0.402465,-0.0544921 0.0247441,-0.0248228 0.0849921,-0.105386 0.0249764,-0.259661 -0.0451575,-0.116205 -0.0565039,-0.226488 -0.0634685,-0.294185 -0.00180709,-0.0175709 -0.00335433,-0.0325787 -0.00491732,-0.043563 -0.00524409,-0.0366772 -0.0160827,-0.105323 -0.0298228,-0.161303l-0.00210236 -0.00830709c-0.00991339,-0.000354331 -0.0215984,-0.000834646 -0.0347677,-0.0014252 -0.0223307,-0.000992126 -0.048874,-0.0022874 -0.0783543,-0.00380315 -0.0330709,-0.00169685 -0.0697638,-0.00366535 -0.108106,-0.00577559 -0.0243583,-0.00134252 -0.0493858,-0.00274016 -0.0745709,-0.00416142 -0.0490748,-0.00277165 -0.0987598,-0.0056378 -0.145319,-0.00835433 -0.0316063,-0.00184646 -0.0617756,-0.00362205 -0.0893346,-0.00525197 -0.00876772,-0.000519685 -0.0172756,-0.00102362 -0.0254764,-0.00151969 0.0152835,0.0156457 0.0409528,0.0379961 0.0795354,0.0600236 0.0273819,0.0156339 0.050185,0.0600591 0.0692795,0.097248 0.0106181,0.020689 0.0203543,0.0396496 0.0312874,0.0552756z"/>
   </g>
   <path id="_352808256" class="fil3" d="M4.39441 3.91817c0.000523622,-0.00784646 0.000791339,-0.0151102 0.000791339,-0.0217638 0.00587402,-0.249886 -0.0616929,-0.234685 -0.0672913,-0.0326732 0.022752,0.0178701 0.0451142,0.0359252 0.0665,0.054437z"/>
   <path id="_352807800" class="fil3" d="M4.59737 3.88198c0.0104803,0.0459252 0.0209606,0.105598 0.00807874,0.154827 -0.0215039,0.0821772 -0.0171732,0.0113189 -0.018248,-0.0068189 -0.00107087,-0.0181339 -0.00206693,-0.0690039 -0.0105118,-0.0413189 -0.00844882,0.027685 -0.0286142,0.0464882 -0.0222402,0.012122 0.0154016,-0.083122 -0.0159488,-0.118665 -0.0447205,-0.196346 -0.00508661,-0.0137402 -0.00807874,-0.0299488 -0.00912992,-0.0474449 0.00946063,-0.0413346 0.019122,-0.0522559 0.0286654,0.0041063 0.00235039,0.0194843 0.00837008,0.0417598 0.0191575,0.0752835 0.0215945,0.0671299 -0.0126299,-0.224591 0.0489488,0.0455906z"/>
   <path id="_352808064" class="fil3" d="M4.61707 4.11708c-0.0104803,0.0761772 -0.0209606,0.175157 -0.00807874,0.256807 0.0215039,0.136311 0.0171732,0.0187795 0.018248,-0.0113031 0.00107087,-0.0300827 0.00206693,-0.114461 0.0105118,-0.0685394 0.00844882,0.0459213 0.0286142,0.0771102 0.0222402,0.0201063 -0.0154016,-0.13787 0.0159488,-0.196827 0.0447205,-0.325677 0.0257559,-0.115362 -0.00527953,-0.11928 -0.0386929,0.0529843 -0.0203543,0.104953 0.0123661,-0.37063 -0.0489488,0.075622z"/>
   <path id="_352807872" class="fil3" d="M4.77733 4.07157c0,-0.0196732 -0.00275591,-0.0438819 -0.00741732,-0.0694803 -0.0204843,-0.0945236 -0.000893701,-0.0764921 0.0395039,0 0.00366142,0.0264882 0.00577953,0.0490709 0.00577953,0.0657638 0.0034252,0.175043 -0.0378661,0.156413 -0.0378661,0.00371654z"/>
   <path id="_352807248" class="fil3" d="M4.85025 3.94893c0,-0.0108268 -0.00275591,-0.0241535 -0.00741732,-0.038248 -0.0204843,-0.0520354 -0.000893701,-0.0421063 0.0395039,0 0.00366142,0.0145827 0.00577953,0.0270118 0.00577953,0.0362008 0.0034252,0.0963583 -0.0378661,0.0861063 -0.0378661,0.00204724z"/>
   <path id="_352806936" class="fil3" d="M1.98278 3.81948c0.0104803,0.0459252 0.0209606,0.105598 0.00807874,0.154827 -0.0215039,0.0821772 -0.0171732,0.0113189 -0.018248,-0.0068189 -0.00107087,-0.0181339 -0.00206693,-0.0690039 -0.0105118,-0.0413189 -0.00844882,0.027685 -0.0286142,0.0464882 -0.0222402,0.012122 0.0154016,-0.083122 -0.0159488,-0.118665 -0.0447205,-0.196346 -0.00508661,-0.0137402 -0.00807874,-0.0299488 -0.00912992,-0.0474449 0.00946063,-0.0413346 0.019122,-0.0522559 0.0286654,0.0041063 0.00235039,0.0194843 0.00837008,0.0417598 0.0191575,0.0752835 0.0215945,0.0671299 -0.0126299,-0.224591 0.0489488,0.0455906z"/>
   <path id="_352807080" class="fil3" d="M2.05113 3.92055c-0.00712598,0.0215197 0.000192913,0.0695748 -0.0141811,0.0958898 -0.0566457,0.0959843 -0.028685,0.0833504 0.0432165,0.014311 0.0135984,-0.0276496 0.0240906,-0.0515906 0.0301378,-0.0698504 0.0201299,-0.0570197 0.0208976,-0.0637795 0.0203425,-0.0893898 -0.000622047,-0.0288661 0.0384764,-0.0838819 0.0244606,-0.0804488 -0.0150512,0.00368504 -0.0839213,0.0689213 -0.103976,0.129488z"/>
   <path id="_352807008" class="fil3" d="M2.23566 3.88643c0,-0.0108268 -0.00275591,-0.0241535 -0.00741732,-0.038248 -0.0204843,-0.0520354 -0.000893701,-0.0421063 0.0395039,0 0.00366142,0.0145827 0.00577953,0.0270118 0.00577953,0.0362008 0.0034252,0.0963583 -0.0378661,0.0861063 -0.0378661,0.00204724z"/>
  </g>
  <rect class="fil8" width="6.82666" height="6.82666"/>
 </g>
</svg>
