<?xml version="1.0" encoding="UTF-8"?>
<!DOCTYPE svg PUBLIC "-//W3C//DTD SVG 1.1//EN" "http://www.w3.org/Graphics/SVG/1.1/DTD/svg11.dtd">
<!-- Creator: CorelDRAW -->
<svg xmlns="http://www.w3.org/2000/svg" xml:space="preserve" width="6.82666in" height="6.82666in" style="shape-rendering:geometricPrecision; text-rendering:geometricPrecision; image-rendering:optimizeQuality; fill-rule:evenodd; clip-rule:evenodd"
viewBox="0 0 6.82666 6.82666"
 xmlns:xlink="http://www.w3.org/1999/xlink">
 <defs>
  <style type="text/css">
   <![CDATA[
    .fil9 {fill:none}
    .fil2 {fill:#664C42}
    .fil1 {fill:#82665C}
    .fil3 {fill:#ADA895}
    .fil4 {fill:#ADADAD}
    .fil6 {fill:#B7B0A2}
    .fil7 {fill:#C8C0B0}
    .fil5 {fill:#C8C2AD}
    .fil8 {fill:#E3E1D7}
    .fil0 {fill:#424242;fill-rule:nonzero}
   ]]>
  </style>
 </defs>
 <g id="Layer_x0020_1">
  <metadata id="CorelCorpID_0Corel-Layer"/>
  <path class="fil0" d="M2.31504 5.60152c-0.00517323,-0.0026378 -0.00785433,-0.0040315 -0.00233465,-0.000822835 0.000598425,0.000350394 0.00138583,0.00061811 0.00233465,0.000822835z"/>
  <path class="fil0" d="M3.16265 3.89543l-0.000208661 -0.00011811 -0.000271654 0.000326772c0.00026378,9.84252e-005 0.00138189,0.000708661 0.000480315,0.000177165l0.000169291 -0.000287402 -0.000169291 -9.84252e-005z"/>
  <path class="fil1" d="M1.34584 1.79427c0.00034252,-0.00179134 -0.00053937,-0.00385827 -0.00227165,-0.00461024 -0.0883268,-0.0386102 -0.161689,-0.104232 -0.251874,-0.139075 -0.0815315,-0.0315197 -0.158083,-0.00198425 -0.235563,0.0257126 -0.00339764,0.00120472 -0.00385827,0.00617323 -0.0005,0.00780315 0.0551496,0.0265984 0.0852677,0.0892362 0.127748,0.131846 0.0317362,0.0318386 0.0703031,0.0512992 0.112587,0.065063 0.0716142,0.0233071 0.175472,0.0479016 0.248425,0.0175827 0.0005,-0.000192913 0.000858268,-0.000492126 0.00123228,-0.000818898 0.000574803,-0.000358268 0.00084252,-0.000858268 0.00111024,-0.00152362 5.90551e-005,-0.000125984 5.90551e-005,-0.000267717 0.000106299,-0.000374016 0.000141732,-0.000531496 0.000519685,-0.000893701 0.000393701,-0.00159055 -0.00606693,-0.0342047 -0.00820866,-0.0654921 -0.0013937,-0.100016z"/>
  <path class="fil1" d="M1.28216 1.7459c-0.0581654,0.185102 -0.152516,0.358535 -0.254996,0.528882 -0.0906457,0.150705 0.098315,0.320803 0.290783,0.264437 -7.87402e-006,-7.87402e-006 0.679972,-0.0706378 0.626287,-0.680988l-0.599457 -0.200472 -0.0626181 0.0881417z"/>
  <path class="fil2" d="M1.0217 2.28463c-0.0107638,0.0207362 -0.0164291,0.0417165 -0.0176457,0.0623465 0.00976378,0.0284055 0.0335709,0.041311 0.0611339,0.0433465 0.0337165,0.00249606 0.0730591,-0.0112598 0.0991142,-0.0327638 0.13298,-0.109724 0.0715039,-0.172846 0.0162717,-0.113524 -0.0254213,0.0273031 -0.0274291,0.0720709 -0.0786772,0.0813228 -0.0333346,0.00601575 -0.0703031,-0.00215748 -0.0799213,-0.0399528 -7.48031e-005,-0.000307087 -0.000173228,-0.000559055 -0.000275591,-0.000775591z"/>
  <path class="fil2" d="M1.76248 2.01748c-0.00343701,-0.00319291 -0.00700394,-0.00620866 -0.0106693,-0.00904724 0.00116929,0.00390551 0.00180315,0.00805118 0.00180315,0.0123386 0,0.0237047 -0.0192165,0.0429213 -0.0429213,0.0429213 -0.0237126,0 -0.0429291,-0.0192165 -0.0429291,-0.0429213 0,-0.018063 0.0111496,-0.0335157 0.0269409,-0.0398543 -0.0357362,-0.00845276 -0.0739409,-0.00284646 -0.106272,0.0200827 -0.00945669,0.00668898 -0.0183858,-0.00883465 -0.00903937,-0.0154567 0.0470276,-0.0333622 0.105858,-0.0333268 0.154823,-0.00900787 0.0480787,-0.001 0.0956929,-0.0130315 0.139437,-0.0327205 -0.0122402,0.0367795 -0.0606496,0.0687795 -0.100217,0.0746142 -0.00315748,0.0020315 -0.0074252,0.00233071 -0.0109488,-0.000948819l-7.87402e-006 0z"/>
  <path class="fil3" d="M5.35059 4.00334c0.0893898,-0.220575 0.277252,-0.415173 0.465772,-0.556693 0.0055748,-0.00419685 0.0135315,0.0015 0.0134567,0.00770866 -0.00272835,0.23122 -0.139528,0.45889 -0.0851024,0.690461 0.0249843,0.106315 0.116295,0.179094 0.140709,0.285209 0.0211299,0.091811 -0.0340551,0.185756 -0.0697717,0.266374 -0.0269646,0.060874 -0.0525748,0.125594 -0.0511024,0.193268 0.00112598,0.0519488 0.0116811,0.097811 -0.000665354,0.149492 -0.0184134,0.077063 -0.106583,0.0679449 -0.167547,0.0591063 -0.0772874,-0.0112244 -0.0981063,-0.0789528 -0.100307,-0.146933 -0.00359055,-0.110657 -0.0122717,-0.21863 -0.0229882,-0.328823 -0.0441614,-0.0943898 -0.0883031,-0.188799 -0.132453,-0.283224 -0.0174291,-0.0372717 -0.0308307,-0.0633583 -0.033878,-0.104768 -0.00579134,-0.0790551 0.0144409,-0.158472 0.043878,-0.231177z"/>
  <path class="fil2" d="M5.52621 5.0439c-0.0298346,0.219724 -0.121803,0.152657 -0.127787,0.379012 0.0357874,0.013315 0.127673,0.0303031 0.163465,0.0169646 0.0775315,-0.0199724 0.0715787,-0.0435906 0.101386,-0.136803 0.0357913,-0.126504 0.0138189,-0.0587638 0.0555906,-0.217587l-0.192654 -0.0415866z"/>
  <path class="fil2" d="M5.1293 4.94205c-0.0298268,0.196827 -0.196835,0.280346 -0.202815,0.483138 0.0357874,0.0119252 0.127677,0.0271457 0.163465,0.0152126 0.0775354,-0.0179016 0.0715787,-0.0390669 0.10139,-0.122579 0.0357874,-0.113323 0.067189,-0.155874 0.128815,-0.284244l-0.190854 -0.0915276z"/>
  <path class="fil2" d="M2.95387 4.39723c0.029811,0.143197 0.0178976,0.21339 0.0477087,0.362492 0.0357835,0.149126 0.16702,0.368228 0.0596575,0.483138l-0.0174646 0.0749606c-0.029811,0.0835118 -0.0238543,0.104677 -0.101386,0.122579 -0.0357913,0.0119252 -0.127669,-0.00327953 -0.163461,-0.0152126 0.0025748,-0.0874449 0.0350669,-0.152685 0.0736102,-0.214421 0,-7.87402e-006 0.0655315,-0.0941102 -0.0120039,-0.329232l-0.1555 -0.466236 0.268839 -0.0180669z"/>
  <path class="fil2" d="M2.58354 4.38628c0.0172638,0.125004 0.0382008,0.244626 0.0639488,0.373445 0.0357913,0.149126 0.167028,0.368228 0.0596575,0.483138l-0.0174567 0.0749606c-0.0298189,0.0835118 -0.0238622,0.104677 -0.101386,0.122579 -0.0357913,0.0119252 -0.127677,-0.00327953 -0.163465,-0.0152126 0.0025748,-0.0874449 0.0350709,-0.152685 0.0736142,-0.214421 0,-7.87402e-006 0.0655236,-0.0941102 -0.0120079,-0.329232l-0.207106 -0.537811 0.304201 0.0425551z"/>
  <path class="fil3" d="M2.06632 3.9621c2.3622e-005,-0.000165354 6.69291e-005,-0.000283465 0.000106299,-0.000425197 0.000141732,-0.000326772 0.000232283,-0.000649606 0.000417323,-0.000956693 0.00061811,-0.00169291 0.00170079,-0.00326772 0.00370079,-0.00440945 0.0886654,-0.0506142 0.17735,-0.101193 0.266028,-0.151783 0.0039252,-0.00225591 0.010185,-0.00125591 0.0122402,0.00320866 0.088685,0.190858 0.17737,0.381728 0.266055,0.572606 0.00278346,0.00600787 -0.000464567,0.0134134 -0.00773228,0.0134528 -0.120594,0.000586614 -0.295268,0.0214409 -0.378819,-0.0897913 -0.0738858,-0.0983425 -0.0636811,-0.251209 -0.159583,-0.333654 -0.00291339,-0.0025 -0.00332283,-0.00554724 -0.00241339,-0.00824803z"/>
  <path class="fil4" d="M2.01243 3.6333c0.00276772,0.154264 0.103157,0.276303 0.243945,0.331362 0.0106299,0.00414961 0.00600394,0.0214764 -0.00475984,0.017252 -0.148398,-0.0580315 -0.25415,-0.185886 -0.257075,-0.348614 -0.000224409,-0.0115472 0.0176732,-0.0115236 0.0178898,0l0 0z"/>
  <path class="fil4" d="M4.58885 3.54621c-0.0685945,0.177772 -0.0511417,0.369614 0.0527835,0.529929 0.00629921,0.00970866 -0.00919685,0.0186654 -0.0154567,0.00903937 -0.106256,-0.16389 -0.124744,-0.361866 -0.0545787,-0.543732 0.00411417,-0.0106417 0.0214134,-0.00601575 0.017252,0.00476378l0 0z"/>
  <path class="fil5" d="M1.86915 1.83382c-0.0220984,-0.00740945 -0.0468425,-0.00835827 -0.0695984,-0.0130591 -0.0443071,-0.00916535 -0.086378,0.0182244 -0.130685,0.0074252 -0.0858425,-0.0209803 -0.103717,-0.131528 -0.209165,-0.0983858 -0.0585315,0.0183976 -0.195386,0.0798071 -0.228661,-0.0108228 -0.0279449,-0.0760787 0.0192638,-0.194201 0.0824291,-0.240157 0.142776,-0.103843 0.364862,-0.13089 0.517996,-0.0483504 0.0537559,0.0289685 0.10189,0.0618386 0.160713,0.0803622 0.0490945,0.0154606 0.0975039,0.029811 0.138213,0.0625039 0.0678701,0.0544843 0.116988,0.201236 0.161929,0.273406 0.0637835,0.102492 0.144071,0.167307 0.266366,0.183126 0.122965,0.0159016 0.247709,-0.00905512 0.371138,-0.00162992 0.121374,0.00729134 0.240929,0.057315 0.358382,0.0861772 0.13711,0.0337283 0.272205,0.0390827 0.412689,0.0335197 0.0679409,-0.00268504 0.135854,-0.00685039 0.203783,-0.0101142 0.0596181,-0.00286614 0.122681,-0.00987402 0.18211,-0.00309449 0.119201,0.0135984 0.241004,0.00667717 0.360591,0.0015 0.263157,-0.0113819 0.52872,-0.0413504 0.787197,0.0263228 0.194299,0.0508583 0.384079,0.164465 0.518114,0.314421 0.117354,0.131303 0.183701,0.299634 0.206713,0.472921 0.010874,0.0819646 0.0197913,0.170205 0.00914173,0.25265 -0.00788976,0.0609409 -0.0491732,0.0672913 -0.0951772,0.0445276 -0.0265118,0.117457 -0.0424488,0.235154 -0.099815,0.343035 -0.0619409,0.116528 -0.136236,0.224012 -0.202693,0.337858 -0.0349449,0.0598898 -0.0668976,0.122555 -0.0734528,0.192484 -0.00588976,0.0627677 0.0131496,0.12615 0.0278543,0.186472 0.0130472,0.0535157 0.0237638,0.105205 0.0187953,0.160512 -0.00413386,0.0460197 -0.0217795,0.0894528 -0.0400945,0.131323 -0.0159528,0.0364449 -0.0499331,0.0845118 -0.0514213,0.12411 -0.000716535,0.019063 -0.00217717,0.0381024 -0.00393307,0.0571024 -0.00561811,0.0611969 -0.0151339,0.123402 -0.0369291,0.181102 -0.0150394,0.0398346 -0.0417677,0.0843189 -0.0893346,0.0846024 -0.0281614,0.000165354 -0.0638898,-0.0090315 -0.0906102,-0.0171732 -0.0467992,-0.014248 -0.0912598,-0.0410157 -0.114937,-0.0850866 -0.0362638,-0.0675709 0.00838976,-0.132543 0.0231614,-0.198106 0.0160315,-0.0711299 0.0332953,-0.173197 -0.021689,-0.231457 -0.0303858,-0.0321772 -0.0785039,-0.0464173 -0.118315,-0.062437 -0.0418583,-0.0168386 -0.0820512,-0.037126 -0.117563,-0.065315 -0.0902323,-0.0715709 -0.144823,-0.176736 -0.220445,-0.262055 -0.0108583,-0.0122402 -0.00971654,-0.0202165 -0.0249055,-0.0188976 -0.020437,0.00176772 -0.0407441,0.00880709 -0.060122,0.0150197 -0.0653661,0.0209488 -0.128854,0.0487756 -0.193594,0.0716969 -0.231996,0.0821142 -0.472996,0.130213 -0.719323,0.0965433 -0.111161,-0.0152126 -0.212406,-0.0452913 -0.314488,-0.0918858 -0.101374,-0.0462835 -0.190217,-0.12213 -0.300465,-0.146732 -0.00976772,0.074878 0.0138189,0.14924 -0.00117717,0.225571 -0.0106969,0.0545394 -0.0437323,0.0993071 -0.0940669,0.122878 -0.0490906,0.0229724 -0.106791,0.0238543 -0.159906,0.0233819 -0.0802323,-0.000708661 -0.147319,-0.00531496 -0.220256,-0.0435512 -0.0386535,-0.0202795 -0.0805276,-0.0443937 -0.111,-0.0761732 -0.0296102,-0.030874 -0.0484921,-0.072311 -0.0666142,-0.110445 -0.0192362,-0.0404528 -0.0365591,-0.0817559 -0.0583543,-0.120957 -0.0280394,-0.0504173 -0.0675551,-0.077878 -0.123449,-0.0919252 -0.105165,-0.0264528 -0.215965,-0.000251969 -0.320839,-0.0333543 -0.0855512,-0.0269882 -0.164346,-0.100957 -0.217055,-0.171303 -0.135567,-0.18089 -0.0842874,-0.409327 -0.0978268,-0.617756 -0.00420472,-0.0648425 -0.0199134,-0.127815 -0.0537205,-0.183661 -0.0349803,-0.0578228 -0.0944449,-0.0890197 -0.146154,-0.129181 -0.0394488,-0.0306181 -0.0760709,-0.0652874 -0.0843031,-0.116539 -0.00905512,-0.056189 0.0252717,-0.102441 -0.0086811,-0.155787 -0.0090315,-0.00135827 -0.0121142,-0.0155079 -0.00180709,-0.017126 0.216232,-0.0339685 0.40715,-0.167736 0.530339,-0.345906 0.0535787,-0.0774724 0.211689,-0.32163 0.0549724,-0.37413z"/>
  <path class="fil1" d="M2.04626 1.92533c0,-0.00191732 0.00134646,-0.00389764 0.00327953,-0.00433071 0.0993346,-0.0218307 0.188697,-0.0747047 0.289193,-0.0922953 0.0908189,-0.0158976 0.164008,0.0303701 0.238504,0.0749055 0.00327559,0.00194882 0.00274016,0.00718898 -0.0010748,0.00817323 -0.0625394,0.0162126 -0.106547,0.074878 -0.159217,0.110272 -0.0394094,0.0264409 -0.0832953,0.0386614 -0.129862,0.044252 -0.078878,0.00943307 -0.191433,0.0136142 -0.260713,-0.0327126 -0.000468504,-0.000330709 -0.000807087,-0.000704724 -0.00109055,-0.00111417 -0.000527559,-0.000492126 -0.000724409,-0.00106693 -0.000866142,-0.00180709 -1.9685e-005,-0.000141732 0,-0.000267717 -1.1811e-005,-0.000409449 -5.51181e-005,-0.000574803 -0.000338583,-0.00103937 -9.05512e-005,-0.00171654 0.0132835,-0.0341614 0.0219213,-0.0660827 0.0219488,-0.103217z"/>
  <path class="fil3" d="M2.20031 2.32702c-0.0190984,0.0851614 -0.0524488,0.164138 -0.100567,0.232437 -0.0243701,0.0338661 -0.0510669,0.0659213 -0.0814843,0.0943071 -0.0299803,0.0287362 -0.0624331,0.0549843 -0.0973425,0.0777283 -0.0343858,0.0235236 -0.0710906,0.0437283 -0.109106,0.0612677 -0.0377559,0.0181969 -0.0774291,0.0322835 -0.117634,0.0450079 -0.0808504,0.0243307 -0.165323,0.0378425 -0.252531,0.0396181 0.0850433,0.0205866 0.175819,0.0189055 0.262783,0.001 0.0437559,-0.00847244 0.0862835,-0.0224961 0.127819,-0.0391024 0.0412598,-0.0172717 0.0809173,-0.0385827 0.118512,-0.0632205 0.0370276,-0.0254055 0.0721142,-0.0539843 0.103343,-0.0864724 0.0307953,-0.0328425 0.0589409,-0.0684882 0.0809016,-0.10778 0.0450354,-0.077811 0.0684921,-0.167457 0.0653071,-0.254791z"/>
  <path class="fil6" d="M2.04427 1.82156c0.00808661,0.0299488 0.010878,0.0574685 0.010878,0.085185 7.87402e-005,0.0275669 -0.00247244,0.0548543 -0.0069685,0.0819291 -0.00455512,0.0270512 -0.0108071,0.0538622 -0.0193189,0.0803189 -0.00852362,0.0265945 -0.0190551,0.0523189 -0.0347126,0.0791102 0.0292126,-0.0119055 0.0519882,-0.0365669 0.0685709,-0.0631929 0.0165315,-0.0270591 0.0272913,-0.0573583 0.0324016,-0.0885276 0.00511024,-0.0311811 0.00456299,-0.0635197 -0.003,-0.0945197 -0.00775984,-0.0306575 -0.0228307,-0.0611024 -0.0478504,-0.0803031z"/>
  <path class="fil7" d="M5.74224 2.96522c-0.00853937,0.0281142 -0.00774016,0.0585157 -0.00282677,0.0873031 0.005,0.0289528 0.0142835,0.0570315 0.0269567,0.0834094 0.0126142,0.0264134 0.0287677,0.0511535 0.0482402,0.073189 0.0193898,0.021748 0.0428937,0.0417283 0.0707874,0.0513583 -0.0191772,-0.021878 -0.0340748,-0.0445669 -0.0483307,-0.0679646 -0.0140591,-0.0234449 -0.0265551,-0.0476339 -0.0384528,-0.0720787 -0.0117165,-0.0245472 -0.0227795,-0.0494173 -0.0323189,-0.0750709 -0.00943307,-0.0257283 -0.0177126,-0.0517323 -0.0240551,-0.0801457z"/>
  <path class="fil7" d="M4.52067 3.53798c-0.0185827,0.0500079 -0.0287638,0.103232 -0.0321457,0.156925 -0.00361811,0.0537717 0.000425197,0.108173 0.0111811,0.161323 0.0113976,0.0529803 0.0296457,0.104858 0.056622,0.151972 0.0265984,0.0471457 0.0614173,0.0898386 0.103642,0.122591 -0.0314094,-0.0430866 -0.0578583,-0.0879528 -0.0787205,-0.135154 -0.0206142,-0.0472323 -0.0363031,-0.0963583 -0.0465433,-0.146732 -0.0108622,-0.0502835 -0.016252,-0.101744 -0.018378,-0.153602 -0.00188189,-0.0519252 0.000248031,-0.104181 0.00434252,-0.157323z"/>
  <path class="fil7" d="M3.26839 3.69321c-0.00305906,0.0196063 -0.00670866,0.0383937 -0.0126142,0.0563819 -0.00552756,0.0179961 -0.0128268,0.0351969 -0.0212559,0.0516417 -0.0169134,0.0329055 -0.0392795,0.0625551 -0.0642165,0.0901339l0.00116929 -0.00114567c-0.0247244,0.0220118 -0.0550906,0.043 -0.0807874,0.069626 -0.0130079,0.013185 -0.0249724,0.0281299 -0.0337126,0.0452008 -0.0085,0.0169764 -0.0129213,0.037248 -0.00777953,0.0549843 0.0026063,-0.0181457 0.0110236,-0.033126 0.0219882,-0.0457677 0.0107874,-0.0128386 0.0240512,-0.0235472 0.0375748,-0.0340866 0.0138386,-0.0102283 0.0280394,-0.0202795 0.0427008,-0.0303189 0.0146654,-0.0100551 0.029378,-0.020437 0.043878,-0.0331378l0.000456693 -0.000433071 0.000700787 -0.000732283c0.0276969,-0.0294882 0.0504646,-0.0644882 0.0642559,-0.103067 0.0069252,-0.0192559 0.0112402,-0.0394016 0.0127992,-0.0596063 0.00119685,-0.0202441 6.69291e-005,-0.0404764 -0.00515748,-0.0596732z"/>
  <path class="fil8" d="M2.0445 1.8175c0.0628346,0.0925787 0.0285591,0.266744 -0.0513622,0.334654l0.0513622 -0.334654z"/>
  <rect class="fil9" width="6.82666" height="6.82666"/>
 </g>
</svg>
