<?xml version="1.0" encoding="UTF-8"?>
<!DOCTYPE svg PUBLIC "-//W3C//DTD SVG 1.1//EN" "http://www.w3.org/Graphics/SVG/1.1/DTD/svg11.dtd">
<!-- Creator: CorelDRAW -->
<svg xmlns="http://www.w3.org/2000/svg" xml:space="preserve" width="6.82666in" height="6.82666in" style="shape-rendering:geometricPrecision; text-rendering:geometricPrecision; image-rendering:optimizeQuality; fill-rule:evenodd; clip-rule:evenodd"
viewBox="0 0 6.82666 6.82666"
 xmlns:xlink="http://www.w3.org/1999/xlink">
 <defs>
  <style type="text/css">
   <![CDATA[
    .fil3 {fill:none}
    .fil1 {fill:#4D3C2E}
    .fil0 {fill:#926A4C}
    .fil2 {fill:#C49A70}
   ]]>
  </style>
 </defs>
 <g id="Layer_x0020_1">
  <metadata id="CorelCorpID_0Corel-Layer"/>
  <g id="_214725160">
   <path id="_214726336" class="fil0" d="M5.34472 1.90442c-0.629067,-0.091689 -0.913079,0.108197 -1.01291,0.208945 0.0813661,0.0603898 0.157228,0.127394 0.226835,0.200173 0.12222,-0.0968386 0.408941,-0.246303 0.80048,0.0464921 0.18628,0.139287 0.24652,0.360268 0.161059,0.591083 -0.0733701,0.198339 -0.259504,0.391256 -0.48735,0.412437 0.00354331,0.0446024 0.00590157,0.0895 0.00590157,0.134984 0,0.0251969 -0.000866142,0.050189 -0.00195669,0.0751299 0.193437,0.0734685 0.345839,0.0800354 0.452437,0.0177165 0.132528,-0.0774961 0.155402,-0.242909 0.155555,-0.244551 0.00347638,-0.0303543 0.0252441,-0.0554528 0.0545866,-0.0633583 0.0818898,-0.0219291 0.135835,-0.0612756 0.164862,-0.120185 0.0629567,-0.127398 -0.00867323,-0.308571 -0.00946063,-0.310354 -0.0123071,-0.0299449 -0.00394488,-0.0644291 0.0208228,-0.0853189 0.0937205,-0.0792953 0.165339,-0.26061 0.113906,-0.440587 -0.0634134,-0.221201 -0.292339,-0.371299 -0.644768,-0.422606z"/>
   <path id="_214725712" class="fil0" d="M1.48194 1.90442c0.629067,-0.091689 0.913079,0.108197 1.01291,0.208945 -0.0813661,0.0603898 -0.157228,0.127394 -0.226835,0.200173 -0.12222,-0.0968386 -0.408941,-0.246303 -0.80048,0.0464921 -0.18628,0.139287 -0.24652,0.360268 -0.161059,0.591083 0.0733701,0.198339 0.259504,0.391256 0.48735,0.412437 -0.00354331,0.0446024 -0.00590157,0.0895 -0.00590157,0.134984 0,0.0251969 0.000866142,0.050189 0.00195669,0.0751299 -0.193437,0.0734685 -0.345839,0.0800354 -0.452437,0.0177165 -0.132528,-0.0774961 -0.155402,-0.242909 -0.155555,-0.244551 -0.00347638,-0.0303543 -0.0252441,-0.0554528 -0.0545866,-0.0633583 -0.0818898,-0.0219291 -0.135835,-0.0612756 -0.164862,-0.120185 -0.0629567,-0.127398 0.00867323,-0.308571 0.00946063,-0.310354 0.0123071,-0.0299449 0.00394488,-0.0644291 -0.0208228,-0.0853189 -0.0937205,-0.0792953 -0.165339,-0.26061 -0.113906,-0.440587 0.0634134,-0.221201 0.292339,-0.371299 0.644768,-0.422606z"/>
   <path id="_214725976" class="fil1" d="M5.52514 2.95907c0.0848386,-0.240087 0.0260984,-0.469122 -0.157055,-0.612598 -0.401799,-0.314839 -0.686303,-0.171335 -0.816748,-0.0625748 0.258906,0.308276 0.432063,0.692917 0.482146,1.11583 0.202874,-0.0215709 0.406531,-0.199693 0.491657,-0.440657z"/>
   <path id="_214725832" class="fil1" d="M1.30152 2.95907c-0.0848386,-0.240087 -0.0260984,-0.469122 0.157055,-0.612598 0.401799,-0.314839 0.686303,-0.171335 0.816748,-0.0625748 -0.258906,0.308276 -0.432063,0.692917 -0.482146,1.11583 -0.202874,-0.0215709 -0.406531,-0.199693 -0.491657,-0.440657z"/>
   <path id="_214725928" class="fil2" d="M4.28678 3.76369c-0.0775748,0 -0.140453,-0.0628819 -0.140453,-0.140453 3.93701e-006,-0.0775591 0.0628701,-0.140445 0.140445,-0.140445 0.0775748,0 0.140441,0.0628858 0.140441,0.140445 3.93701e-006,0.0775669 -0.0628701,0.140453 -0.140433,0.140453zm-1.74267 0c-0.077563,0 -0.140449,-0.0628819 -0.140449,-0.140453 3.93701e-006,-0.0775591 0.0628858,-0.140445 0.140441,-0.140445 0.0775748,0 0.140457,0.0628858 0.140457,0.140445 3.93701e-006,0.0775669 -0.0628858,0.140453 -0.140449,0.140453zm0.862744 -1.94369c-0.906386,0 -1.64378,0.714752 -1.64378,1.59334 3.93701e-006,0.878571 0.737386,1.59332 1.64378,1.59332 0.906374,0 1.64376,-0.714748 1.64376,-1.59332 1.1811e-005,-0.878591 -0.73739,-1.59334 -1.64376,-1.59334z"/>
   <path id="_214725688" class="fil1" d="M2.54411 3.48279c-0.077563,0 -0.140449,0.0628858 -0.140449,0.140445 3.93701e-006,0.0775669 0.0628858,0.140453 0.140441,0.140453 0.0775748,0 0.140457,-0.0628819 0.140457,-0.140453 3.93701e-006,-0.0775591 -0.0628858,-0.140445 -0.140449,-0.140445z"/>
   <path id="_214725952" class="fil1" d="M4.28678 3.48279c-0.0775748,0 -0.140453,0.0628858 -0.140453,0.140445 3.93701e-006,0.0775669 0.0628701,0.140453 0.140445,0.140453 0.0775748,0 0.140441,-0.0628819 0.140441,-0.140453 3.93701e-006,-0.0775591 -0.0628701,-0.140445 -0.140433,-0.140445z"/>
   <path id="_214725376" class="fil1" d="M3.04684 4.17452c-0.033811,-0.142016 -0.0384606,-0.490689 0.102465,-0.691732 0.0641496,-0.0915039 0.152201,-0.144303 0.261795,-0.156894 0.0102402,-0.00117323 0.0202402,-0.00175197 0.0300276,-0.00175197 0.134165,0 0.216402,0.110071 0.261744,0.202425 0.114902,0.234043 0.108933,0.56972 0.0234606,0.680378 -0.0555984,0.071937 -0.176728,0.114862 -0.324098,0.114862 -0.179614,0 -0.33572,-0.0646772 -0.355394,-0.147287zm0.855878 0.254051c-0.235213,0.104945 -0.345728,0.0861417 -0.397118,0.0519685 -0.0357598,-0.0238583 -0.0499921,-0.0595709 -0.0558465,-0.0860276 0.15061,-0.00882283 0.271543,-0.0591969 0.335531,-0.142008 0.112224,-0.14522 0.104681,-0.513976 -0.0155394,-0.758752 -0.0784213,-0.159705 -0.192059,-0.244126 -0.328618,-0.244126 -0.0125433,0 -0.0254016,0.000732283 -0.0385276,0.00225984 -0.13165,0.0150984 -0.237437,0.0784094 -0.314315,0.188118 -0.163598,0.233398 -0.146756,0.614004 -0.113941,0.75176 0.0312913,0.131484 0.218713,0.195996 0.392299,0.203752 -0.00599213,0.0263661 -0.0202717,0.0614685 -0.0555945,0.0850236 -0.0513504,0.0342047 -0.161961,0.0529764 -0.397063,-0.0519685 -0.0187323,-0.0084252 -0.0408307,4.72441e-005 -0.0492047,0.0188543 -0.00838976,0.0187874 4.33071e-005,0.0408307 0.0188543,0.0492047 0.127256,0.0568268 0.234657,0.0852874 0.321299,0.0852559 0.0592795,0 0.10887,-0.0133307 0.148394,-0.0399921 0.024063,-0.0162362 0.0418386,-0.0357008 0.0549961,-0.0558031 0.0131614,0.0201024 0.030937,0.0395669 0.0549961,0.0558031 0.0395591,0.0266614 0.089122,0.0399921 0.148429,0.0399921 0.0866496,0 0.194063,-0.0284606 0.321299,-0.0852559 0.0188228,-0.00837402 0.0272598,-0.0304173 0.0188543,-0.0492047 -0.00837402,-0.0188071 -0.0304646,-0.0272795 -0.049185,-0.0188543z"/>
   <path id="_214725280" class="fil0" d="M3.73292 4.21491c0.087252,-0.112953 0.0933386,-0.455591 -0.0239449,-0.694488 -0.0462835,-0.0942717 -0.130228,-0.206626 -0.267173,-0.206626 -0.00998425,0 -0.0201969,0.000594488 -0.0306496,0.0017874 -0.11187,0.0128504 -0.201748,0.066748 -0.267224,0.16015 -0.14385,0.205213 -0.139102,0.561114 -0.104594,0.706079 0.0200866,0.0843228 0.179429,0.150343 0.362768,0.150343 0.150429,0 0.274071,-0.043811 0.330819,-0.117244z"/>
  </g>
  <rect class="fil3" width="6.82666" height="6.82666"/>
 </g>
</svg>
