<?xml version="1.0" encoding="UTF-8"?>
<!DOCTYPE svg PUBLIC "-//W3C//DTD SVG 1.1//EN" "http://www.w3.org/Graphics/SVG/1.1/DTD/svg11.dtd">
<!-- Creator: CorelDRAW -->
<svg xmlns="http://www.w3.org/2000/svg" xml:space="preserve" width="6.82666in" height="6.82666in" style="shape-rendering:geometricPrecision; text-rendering:geometricPrecision; image-rendering:optimizeQuality; fill-rule:evenodd; clip-rule:evenodd"
viewBox="0 0 6.82666 6.82666"
 xmlns:xlink="http://www.w3.org/1999/xlink">
 <defs>
  <style type="text/css">
   <![CDATA[
    .fil7 {fill:none}
    .fil2 {fill:#3E2723}
    .fil6 {fill:#424242}
    .fil0 {fill:#4E342E}
    .fil1 {fill:#5D4037}
    .fil3 {fill:#6B4C42}
    .fil4 {fill:#8F6A5E}
    .fil5 {fill:#BCAAA4}
   ]]>
  </style>
 </defs>
 <g id="Layer_x0020_1">
  <metadata id="CorelCorpID_0Corel-Layer"/>
  <path class="fil0" d="M4.53285 3.58369c0.408539,-0.196681 0.860728,0.625591 1.35498,0.0830039l0.121626 -0.149224 6.69291e-005 3.54331e-005 -0.0755276 0.182394c-0.36039,0.613484 -1.07911,-0.0652047 -1.3201,0.029378 -0.0392598,0.0208228 -0.0883071,0.00713386 -0.110941,-0.0315906 -0.0232244,-0.0397323 -0.00984252,-0.0907717 0.0298898,-0.113996z"/>
  <path class="fil1" d="M4.40581 3.98803c-0.408484,0.263496 -0.808382,0.502449 -1.16991,0.491484l-0.0235551 -0.000712598 -0.0177756 -0.102551c0.0925079,-0.0365118 0.210075,-0.111937 0.316693,-0.196638 -0.0488819,0.0152323 -0.100693,0.0285079 -0.154441,0.0400394 -0.348819,0.0748425 -0.784154,0.0798268 -1.00639,0.0709685 -0.0472126,0.0241496 -0.0877323,0.0466811 -0.123484,0.0665669 -0.108535,0.0603465 -0.175539,0.0976102 -0.300669,0.109646 -0.0481417,0.00462992 -0.119276,0.00677165 -0.204343,0.00436614 -0.0712441,-0.00202362 -0.151469,-0.00714567 -0.234933,-0.0165591l-0.0202165 -0.0993268c0.055063,-0.0310472 0.123425,-0.0643504 0.191768,-0.0976378l0.00578346 -0.0028189 -0.643433 -0.024248c-0.000590551,-0.00015748 -0.207504,-0.0531299 -0.20372,-0.237098 0.000814961,-0.0393031 0.0116024,-0.0836457 0.0367756,-0.133256 0.0244331,-0.0481496 0.0612323,-0.098626 0.0974921,-0.138449 0.000669291,-0.000716535 0.163917,-0.242185 0.227272,-0.351563 -0.0163189,-0.055248 0.109185,0.0208858 0.103252,-0.0504882 -0.00596063,-0.0716772 -0.00209055,-0.14439 0.0202047,-0.205295 0.0349016,-0.095315 0.10637,-0.146697 0.205413,-0.154949 0.0332717,-0.00283465 0.0633189,-0.00276772 0.0904094,-0.000240157 0.0898701,0.00840157 -0.0384331,-0.0407795 0.00143701,0.00599606 0.0349409,0.0409843 0.068252,-0.00726772 0.0751181,0.0411575 0.042685,0.0487205 0.255492,0.0523622 0.333854,-0.0356811 0.271378,-0.205492 0.620835,-0.690701 1.30105,-0.670437l0.0214488 0.000740157 -7.87402e-006 0.000208661c0.316055,0.0142992 0.592327,0.13435 0.831819,0.339051 0.201106,0.169469 0.36611,0.382217 0.422917,0.63078 0.0364409,0.159449 0.170787,0.490772 -0.179831,0.716945z"/>
  <path class="fil2" d="M0.955618 4.20425c-0.020811,-0.0108937 -0.0439685,-0.0256102 -0.0652992,-0.0449055 0.00612598,-0.00950394 0.0181693,-0.0139331 0.0293031,-0.0100157 0.136626,0.0408661 0.195969,-0.0110827 0.305201,-0.0736693 -0.0585276,0.0975433 -0.162898,0.136618 -0.269205,0.128591z"/>
  <path class="fil3" d="M2.33558 4.29828c-0.040937,0.0212638 -0.076689,0.0411457 -0.108634,0.0589134 -0.108535,0.0603465 -0.175539,0.0976102 -0.300669,0.109646 -0.0481417,0.00462992 -0.119276,0.00677165 -0.204343,0.00436614 -0.0712441,-0.00202362 -0.151469,-0.00714567 -0.234933,-0.0165591l-0.0202165 -0.0993268c0.055063,-0.0310472 0.123425,-0.0643504 0.191768,-0.0976378l0.00578346 -0.0028189 -0.000814961 -3.14961e-005 0.392398 -0.187677c0.13885,-0.0387874 0.219579,-0.0131732 0.32524,0.0426024 0.151685,0.0800512 0.0968976,0.0679094 -0.0405079,0.181303l-0.00507087 0.00722047z"/>
  <path class="fil3" d="M1.17774 3.33058l0.00127953 -0.00187795c-0.00774409,-0.038252 -0.0284646,-0.100594 -0.0401024,-0.158933 -0.00216142,-0.0286142 -0.00469291,-0.0633701 -0.00727559,-0.101673 0.00320472,-0.0615394 0.0145787,-0.122535 0.0388622,-0.174795 0.0316654,-0.0681378 0.083437,-0.121354 0.163965,-0.144287 0.0171378,-0.00487795 0.0361102,-0.00826378 0.0570354,-0.00997244 0.0336811,-0.0028189 0.0638465,-0.00274803 0.090811,-0.000220472 0.0894528,0.00837795 0.147059,0.0429803 0.182654,0.0895669 0.0311929,0.0408228 0.044248,0.0898937 0.0465394,0.138118 0.0010315,0.00130709 0.00220866,0.00257087 0.00348819,0.00381102 -0.00375197,0.0326299 -0.00721654,0.0697638 -0.00923622,0.108323 -0.00627953,0.11963 -0.0791654,0.322339 -0.0791654,0.322339 0,0 -0.108969,-0.0256693 -0.182413,0.0127874 -0.0734488,0.0384567 -0.176772,0.140764 -0.176772,0.140764l-0.0896693 -0.223949z"/>
  <path class="fil4" d="M1.27292 3.32827l0.000779528 -0.00114173c-0.00471654,-0.0233031 -0.0173425,-0.0612795 -0.0244291,-0.0968189 -0.0013189,-0.0174331 -0.0028622,-0.0386063 -0.00443307,-0.061937 0.00195276,-0.0374882 0.00888189,-0.0746457 0.0236732,-0.106484 0.0192874,-0.0415079 0.0508268,-0.0739252 0.0998858,-0.0878976 0.010437,-0.0029685 0.0219961,-0.0050315 0.0347441,-0.0060748 0.0205157,-0.00171654 0.0388937,-0.00167323 0.0553189,-0.000133858 0.0544921,0.0051063 0.0895866,0.026185 0.111268,0.054563 0.0190039,0.0248661 0.0269567,0.0547638 0.0283543,0.0841378 0.000625984,0.000799213 0.00134646,0.00156693 0.00212598,0.00232283 -0.0022874,0.019878 -0.00439764,0.0425 -0.00562992,0.0659882 -0.00382283,0.072878 -0.0482244,0.196362 -0.0482244,0.196362 0,0 -0.0663819,-0.0156378 -0.111126,0.00779134 -0.0447402,0.0234291 -0.107685,0.085752 -0.107685,0.085752l-0.054622 -0.136429z"/>
  <path class="fil2" d="M1.4415 3.57098c0.0624173,0.00275984 0.110783,0.0555984 0.108024,0.118024 -0.00276378,0.0624252 -0.0556024,0.110791 -0.11802,0.108031 -0.0624173,-0.00275984 -0.11078,-0.0556024 -0.10802,-0.118028 0.00275984,-0.0624252 0.0555984,-0.110787 0.118016,-0.108028z"/>
  <path class="fil5" d="M1.43886 3.63073c0.0294252,0.00130315 0.0522244,0.0262126 0.0509213,0.0556378 -0.00129921,0.0294291 -0.0262087,0.0522283 -0.0556339,0.0509291 -0.0294252,-0.00130315 -0.0522244,-0.0262126 -0.0509213,-0.0556417 0.00129921,-0.0294252 0.0262087,-0.0522244 0.0556339,-0.0509252z"/>
  <line class="fil6" x1="4.1627" y1="2.64033" x2="4.1627" y2= "2.64033" />
  <path class="fil3" d="M3.96983 4.29041c-0.0387323,0.0250512 -0.072437,0.0482362 -0.102555,0.0689528 -0.102323,0.0703701 -0.165488,0.113823 -0.288913,0.137673 -0.0474843,0.00917717 -0.118091,0.0180591 -0.203004,0.0237323 -0.0711142,0.00474409 -0.151465,0.00725591 -0.235445,0.00579921l-0.0295472 -0.0969567c0.0518701,-0.0361299 0.116764,-0.0757677 0.181642,-0.11539l0.00549213 -0.00335433 -0.000818898 4.33071e-005 0.241346 -0.145043c-0.139764,-0.0663701 -0.257335,-0.0743031 -0.28174,-0.159083 -0.0245827,-0.0854488 0.0203661,-0.116886 0.0896575,-0.148323 0.104937,-0.0476142 0.937,0.115799 0.628252,0.424283l-0.00436614 0.00766535z"/>
  <rect class="fil7" width="6.82666" height="6.82666"/>
 </g>
</svg>
