<?xml version="1.0" encoding="UTF-8"?>
<!DOCTYPE svg PUBLIC "-//W3C//DTD SVG 1.1//EN" "http://www.w3.org/Graphics/SVG/1.1/DTD/svg11.dtd">
<!-- Creator: CorelDRAW -->
<svg xmlns="http://www.w3.org/2000/svg" xml:space="preserve" width="6.82666in" height="6.82666in" style="shape-rendering:geometricPrecision; text-rendering:geometricPrecision; image-rendering:optimizeQuality; fill-rule:evenodd; clip-rule:evenodd"
viewBox="0 0 6.82666 6.82666"
 xmlns:xlink="http://www.w3.org/1999/xlink">
 <defs>
  <style type="text/css">
   <![CDATA[
    .fil3 {fill:none}
    .fil1 {fill:#202020}
    .fil2 {fill:#D6D6D6}
    .fil0 {fill:#E1E1E2}
    .fil4 {fill:#FBFBFC}
    .fil5 {fill:#202020;fill-rule:nonzero}
   ]]>
  </style>
 </defs>
 <g id="Layer_x0020_1">
  <metadata id="CorelCorpID_0Corel-Layer"/>
  <g id="_376094208">
   <path id="_376096320" class="fil0" d="M2.42955 2.46193c0.0484252,0.214768 -0.0210236,0.529984 -0.0891024,0.737083 -0.0482717,-0.00901969 -0.267346,-0.0846732 -0.30876,-0.108272 -0.0554016,-0.0328661 -0.102799,-0.0716772 -0.142142,-0.116409 -0.0393189,-0.0447047 -0.0706732,-0.0956299 -0.0940394,-0.152783l-7.48031e-005 3.14961e-005c-0.011622,-0.0283583 -0.023563,-0.0702835 -0.0357992,-0.125752 -0.0108622,-0.0492638 -0.0220787,-0.109457 -0.0336417,-0.180555 -0.0134134,-0.0131181 -0.0241063,-0.0283937 -0.0320945,-0.0458268 -0.0106732,-0.0232953 -0.0159921,-0.0493465 -0.0159921,-0.0781693 0,-0.0454094 0.0103268,-0.0824449 0.0310118,-0.111098 0.0174685,-0.0242008 0.0407598,-0.0410236 0.0698819,-0.0504646 0.0223504,-0.0397008 0.0528071,-0.0822165 0.0913504,-0.127524 0.0329055,-0.0386811 0.0741614,-0.0761102 0.115051,-0.12076 0.0385276,-0.0420709 0.0455354,-0.0718189 0.0466732,-0.0709724 0.181937,0.0875197 0.354327,0.359201 0.397677,0.551472z"/>
   <path id="_376096632" class="fil1" d="M1.79889 2.82964c-0.00114567,-0.00268504 -0.00227165,-0.00538189 -0.00338189,-0.00809449l-7.48031e-005 3.14961e-005c-0.0104016,-0.025378 -0.0210551,-0.061622 -0.0319488,-0.108709 0.00642126,0.0195394 0.0137362,0.033811 0.0222323,0.0396142 0.0481496,0.0328937 0.202087,0.0483071 0.202524,0.0483465 0.0183583,0.00177559 0.0325669,0.0180236 0.0317441,0.0362874 -0.000826772,0.0182638 -0.0163819,0.031626 -0.0347362,0.0298543 -0.000389764,-3.93701e-005 -0.110252,-0.0110472 -0.186358,-0.0373307z"/>
   <path id="_376095672" class="fil1" d="M1.71813 2.50698c-0.00979921,-0.0111457 -0.017874,-0.0236614 -0.0242362,-0.0375433 -0.0106732,-0.0232953 -0.0159921,-0.0493465 -0.0159921,-0.0781693 0,-0.0454094 0.0103268,-0.0824449 0.0310118,-0.111098 0.0134764,-0.0186732 0.0304213,-0.0329528 0.0508346,-0.0428386 0.0168346,-0.00652756 0.0350827,-0.0101063 0.0541496,-0.0101063 0.0846142,0 0.153213,0.0703465 0.153213,0.157118 0,0.0867756 -0.0685984,0.157122 -0.153213,0.157122 -0.0362402,0 -0.0695354,-0.0129134 -0.0957677,-0.0344843z"/>
   <path id="_376095552" class="fil1" d="M3.33883 1.41911c-0.018752,0.0225512 -0.0522402,0.0256299 -0.0747913,0.00687795 -0.0225512,-0.018752 -0.0256299,-0.0522402 -0.00687795,-0.0747913 0.0320315,-0.0384409 0.0696772,-0.0673307 0.112921,-0.0866732 0.0429331,-0.0192047 0.0904843,-0.0287992 0.14263,-0.0287992 0.061248,0 0.118315,0.0127638 0.171181,0.0382717 0.0520787,0.025126 0.0992835,0.0624252 0.141591,0.111874 0.0411732,0.0483228 0.0722874,0.0997756 0.0932677,0.154323 0.0211772,0.055063 0.0317953,0.112346 0.0317953,0.171823 0,0.0507992 -0.00799606,0.0986181 -0.0239685,0.143429 -0.0160787,0.0451142 -0.0400512,0.0866575 -0.0718898,0.124602 -0.0326693,0.039 -0.0702992,0.0684961 -0.112823,0.0884882 -0.0426496,0.0200433 -0.0891457,0.030063 -0.139441,0.030063 -0.0294528,0 -0.0533346,-0.0238819 -0.0533346,-0.0533346 0,-0.0294528 0.0238819,-0.0533346 0.0533346,-0.0533346 0.0350748,0 0.0665709,-0.00654724 0.0944409,-0.0196457 0.0279291,-0.0131299 0.0533307,-0.0333189 0.0761535,-0.0605669 0.0237087,-0.0282559 0.0414291,-0.0588268 0.0531417,-0.091689 0.0118031,-0.033122 0.0177165,-0.0691339 0.0177165,-0.108012 0,-0.0472008 -0.00811417,-0.0918465 -0.0242913,-0.133909 -0.0164252,-0.0427087 -0.0414252,-0.0837402 -0.074937,-0.123071 -0.0326102,-0.0381142 -0.0682835,-0.0665236 -0.107008,-0.0852047 -0.0379016,-0.0182835 -0.0795512,-0.027437 -0.124929,-0.027437 -0.0375591,0 -0.0706654,0.00640157 -0.0992992,0.0192087 -0.0283268,0.0126693 -0.0531969,0.0318386 -0.0745827,0.0575079z"/>
   <line id="_376096128" class="fil1" x1="2.03171" y1="3.0907" x2="2.03171" y2= "3.0907" />
   <path id="_376095528" class="fil1" d="M4.02671 6.00045c-0.0509646,0.00594882 -0.109673,0.010878 -0.176126,0.0147874 -0.129449,0.00761811 -0.286941,0.0114291 -0.472453,0.0114291 -0.483772,0 -0.865681,-0.0452165 -1.14574,-0.135654 -0.290362,-0.0937638 -0.473862,-0.237071 -0.550528,-0.429913l-9.44882e-005 -0.000251969 -0.000114173 4.33071e-005c-0.0295079,-0.0747598 -0.0514606,-0.178685 -0.0658622,-0.311717 -0.0141535,-0.13074 -0.0212205,-0.28963 -0.0212205,-0.476626 0,-0.145878 0.0280472,-0.257224 0.0841181,-0.33402 0.059878,-0.0820118 0.147882,-0.123028 0.263976,-0.123028 0.0647441,0 0.126862,0.0167087 0.186311,0.0501496 0.0570118,0.0320709 0.111213,0.079626 0.162555,0.142685 0.000771654,0.000948819 0.00150394,0.00191339 0.00219685,0.00289764 0.0439921,0.0549843 0.082937,0.10161 0.116815,0.139882 0.00214961,0.003 0.00464173,0.00582283 0.00748031,0.00840551 0.0757087,0.0689055 0.198594,0.283106 0.287339,0.289134 0.130709,0.00887795 0.274071,-0.0337677 0.425665,-0.078874 0.29235,-0.0869764 0.618913,-0.184138 0.910457,0.119094 0.0731969,0.0761929 0.128055,0.157807 0.164563,0.244819 0.0361929,0.0862717 0.0542992,0.178185 0.0542992,0.275717 0,0.0803465 -0.014622,0.19648 -0.0463819,0.297559 -0.022878,0.0728189 -0.128449,0.223862 -0.167508,0.255413 -0.0121102,0.00973622 -0.0188307,0.023689 -0.019752,0.0380669z"/>
   <path id="_376095432" class="fil2" d="M5.08126 3.86174c0.100539,0.263957 0.150819,0.525685 0.150819,0.785177 0,0.72478 -0.351551,1.16735 -1.05453,1.32788 0.0142638,-0.0183228 0.0289921,-0.0386299 0.0433425,-0.0597598 -0.0136772,0.0173976 -0.0272165,0.0344724 -0.0397283,0.050748 -0.064189,0.0232283 -0.0830354,0.0292047 -0.154406,0.0295827 0.00110236,-0.0141181 0.00779921,-0.0277598 0.0197008,-0.0373307 0.0390591,-0.0315512 0.14463,-0.182594 0.167508,-0.255413 0.0317598,-0.101079 0.0463819,-0.217213 0.0463819,-0.297559 0,-0.0975315 -0.0181063,-0.189445 -0.0542992,-0.275717 -0.0365079,-0.0870118 -0.0913661,-0.168626 -0.164563,-0.244819 -0.291543,-0.303232 -0.618106,-0.206071 -0.910457,-0.119094 -0.151594,0.0451063 -0.294957,0.087752 -0.425665,0.078874 -0.0887441,-0.00602756 -0.21163,-0.220228 -0.287339,-0.289134 -0.00283858,-0.00258268 -0.00533071,-0.00540551 -0.00748031,-0.00840551 -0.0029252,-0.00330315 -0.00588583,-0.00666929 -0.00888583,-0.0100945 0.00794488,-0.0176614 0.0144055,-0.0373661 0.0161181,-0.0556811 -0.00102362,0.000944882 -0.00201969,0.00193701 -0.00298031,0.00297638 0.000244094,-0.0346457 0.00186614,-0.0679803 0.00487008,-0.100016 0.0028622,0.000732283 0.00582677,0.00123622 0.00887402,0.00148819 0.433744,0.0373504 0.829504,0.049311 1.2344,-0.0141614 0.39426,-0.0618031 0.960394,-0.255681 1.41832,-0.509543z"/>
   <path id="_376095360" class="fil2" d="M4.41548 1.20669c0.135398,0.135465 0.237008,0.286583 0.304807,0.453331 0.0677795,0.166693 0.101669,0.3485 0.101669,0.545421 0,0.148331 -0.0222638,0.291524 -0.0667795,0.429551 -0.0405709,0.125799 -0.0995276,0.246748 -0.176843,0.362831 0.200311,0.256823 0.354567,0.511685 0.462756,0.764567 0.0151614,0.0307874 0.0226496,0.0638543 0.0375984,0.100783 -0.457472,0.253165 -1.02222,0.446429 -1.41574,0.508118 -0.404898,0.0634724 -0.800657,0.0515118 -1.2344,0.0141614 -0.00261024,-0.000216535 -0.00516535,-0.00061811 -0.00764173,-0.00118898 0.0144055,-0.0262087 0.0148189,-0.0735827 0.0142874,-0.106122 -0.125319,-0.0435945 -0.222118,-0.100571 -0.290335,-0.170854 -0.0806299,-0.083063 -0.120941,-0.183004 -0.120941,-0.299799 0,-0.062252 0.0103307,-0.119547 0.0309961,-0.171831 0.0159331,-0.0403071 0.037874,-0.0773346 0.0658189,-0.111059 -0.00152362,-0.00368898 -0.00291732,-0.00745276 -0.00419291,-0.0112874 -0.00620866,-0.0186693 -0.00929134,-0.0381102 -0.00929134,-0.058311 0,-0.046189 0.015748,-0.0857283 0.0472677,-0.118587 0.0279882,-0.0291654 0.0680669,-0.0515197 0.120252,-0.0670354l0.000440945 -0.000122047 -2.3622e-005 -8.66142e-005 0.103205 -0.0296417 -0.00255118 -0.00273622c-0.0115748,-0.0123189 -0.0247402,-0.0252087 -0.0394843,-0.0386732 0.00189764,-0.00237795 0.00341732,-0.00512992 0.00442913,-0.00818898 0.0572756,-0.172874 0.104614,-0.469118 0.095,-0.672776 0.0833583,-0.016811 0.165642,-0.0562126 0.225539,-0.116457 0.0580433,-0.058378 0.0896063,-0.132028 0.0896063,-0.214752 0,-0.095685 -0.0363228,-0.182291 -0.111169,-0.243173 -0.0325669,-0.0264961 -0.070185,-0.0463543 -0.109953,-0.0596417 -0.0406693,-0.0135866 -0.0837323,-0.0201929 -0.126587,-0.0201929 -0.103969,0 -0.206618,0.0396417 -0.274248,0.120165l0.00262598 0.00243307c-0.0137165,-0.0113819 -0.0700709,-0.0595748 -0.0840197,-0.0699291 -0.0048937,-0.00363386 -0.0106378,-0.00532677 -0.0162953,-0.00520866 0.0041811,-0.0165433 0.00886614,-0.0341654 0.014063,-0.0528661 0.0105394,-0.0379331 0.0235197,-0.0811102 0.0389606,-0.129488l-0.000188976 -5.90551e-005c0.0445512,-0.140362 0.109543,-0.266906 0.194957,-0.379661 0.085189,-0.112457 0.190681,-0.210984 0.316465,-0.295614 0.124972,-0.0841024 0.255906,-0.147205 0.392744,-0.189315 0.137343,-0.0422638 0.280094,-0.0633898 0.428209,-0.0633898 0.196953,0 0.378776,0.0338898 0.545472,0.101669 0.166756,0.0677992 0.317866,0.169406 0.453311,0.304807l0.000208661 0.000208661zm-2.28387 0.778858l-1.1811e-005 -1.1811e-005"/>
   <path id="_376095264" class="fil3" d="M4.20372 5.96197c-0.0859213,0.0309843 -0.0987244,0.0377638 -0.184677,0.0377638"/>
   <path id="_376094712" class="fil1" d="M2.12073 3.52459c-0.0279449,0.0337244 -0.0498858,0.070752 -0.0658189,0.111059 -0.0206654,0.0522835 -0.0309961,0.109579 -0.0309961,0.171831 0,0.116795 0.040311,0.216736 0.120941,0.299799 0.0682165,0.0702835 0.165016,0.12726 0.290335,0.170854 1.1811e-005,0.000720472 2.3622e-005,0.00145276 3.54331e-005,0.00218898 0.386331,0.0200591 1.11935,-0.145169 1.46513,-0.301421 0.204776,-0.0925354 0.394547,-0.214083 0.479909,-0.363189 0.140673,-0.245744 -0.0683976,-0.581941 -0.341902,-0.598933 -0.216232,-0.0134331 -0.474413,0.116961 -0.699949,0.187165 -0.396307,0.12337 -0.806705,0.0771457 -0.971094,0.038752l-0.0921378 0.0264646 2.3622e-005 8.66142e-005 -0.000440945 0.000122047c-0.052185,0.0155157 -0.0922638,0.0378701 -0.120252,0.0670354 -0.0315197,0.0328583 -0.0472677,0.0723976 -0.0472677,0.118587 0,0.0202008 0.00308268,0.0396417 0.00929134,0.058311 0.00127559,0.00383465 0.00266929,0.00759843 0.00419291,0.0112874z"/>
   <path id="_376095144" class="fil1" d="M2.75093 2.18594c0,0.178138 -0.150051,0.300866 -0.314913,0.331232 -0.0235669,-0.186067 -0.172228,-0.410043 -0.307043,-0.534075 0.0676299,-0.0805236 0.17028,-0.120165 0.274248,-0.120165 0.0428543,0 0.0859173,0.0066063 0.126587,0.0201929 0.0397677,0.0132874 0.0773858,0.0331457 0.109953,0.0596417 0.0748465,0.0608819 0.111169,0.147488 0.111169,0.243173z"/>
   <path id="_376095096" class="fil4" d="M2.48845 2.00063c0.0512992,0 0.0928819,0.0415827 0.0928819,0.0928819 0,0.0512992 -0.0415827,0.0928819 -0.0928819,0.0928819 -0.0512992,0 -0.0928819,-0.0415827 -0.0928819,-0.0928819 0,-0.0512992 0.0415827,-0.0928819 0.0928819,-0.0928819z"/>
   <path id="_376094496" class="fil5" d="M2.00885 1.95208c0.104579,0.0787598 0.303803,0.262339 0.36472,0.554752 0.0757165,0.363457 -0.0307717,0.580642 -0.0822953,0.679331 0.0158189,0.00487008 0.0518071,0.0183858 0.0606693,0.027248 0.0555354,-0.106669 0.166398,-0.337697 0.0867283,-0.720122 -0.0672717,-0.322921 -0.292807,-0.523272 -0.402079,-0.603547 -0.00316535,0.0124291 -0.0155787,0.0453858 -0.0277441,0.0623386z"/>
   <path id="_376094016" class="fil1" d="M3.74995 0.722882c0.222929,0 0.372394,0.377378 0.372394,0.596354 0,0.218976 -0.168138,0.390752 -0.380106,0.402945 -0.0832323,-0.147551 -0.221358,-0.244083 -0.377709,-0.244083 -0.00562992,0 -0.0112283,0.000169291 -0.016811,0.000417323 -0.0210079,-0.0488661 -0.0326654,-0.0195315 -0.0326654,-0.15928 0,-0.139748 0.211969,-0.596354 0.434898,-0.596354z"/>
  </g>
  <rect class="fil3" width="6.82666" height="6.82666"/>
 </g>
</svg>
