<?xml version="1.0" encoding="UTF-8"?>
<!DOCTYPE svg PUBLIC "-//W3C//DTD SVG 1.1//EN" "http://www.w3.org/Graphics/SVG/1.1/DTD/svg11.dtd">
<!-- Creator: CorelDRAW -->
<svg xmlns="http://www.w3.org/2000/svg" xml:space="preserve" width="6.82666in" height="6.82666in" style="shape-rendering:geometricPrecision; text-rendering:geometricPrecision; image-rendering:optimizeQuality; fill-rule:evenodd; clip-rule:evenodd"
viewBox="0 0 6.82666 6.82666"
 xmlns:xlink="http://www.w3.org/1999/xlink">
 <defs>
  <style type="text/css">
   <![CDATA[
    .fil5 {fill:none}
    .fil4 {fill:#5D4037}
    .fil3 {fill:#3E2723;fill-rule:nonzero}
    .fil1 {fill:#5D4037;fill-rule:nonzero}
    .fil0 {fill:#795548;fill-rule:nonzero}
    .fil2 {fill:#A1887F;fill-rule:nonzero}
   ]]>
  </style>
 </defs>
 <g id="Layer_x0020_1">
  <metadata id="CorelCorpID_0Corel-Layer"/>
  <path class="fil0" d="M3.95783 1.56076c-0.17474,-0.0325236 -0.356925,-0.049685 -0.544504,-0.049685 -0.187563,0 -0.369732,0.0171614 -0.544453,0.049685 -0.179898,0.0334803 -0.352835,0.0833622 -0.5165,0.14765l-0.0594843 0.0233701 -0.0121811 -0.0629528c-0.031185,-0.161189 -0.118154,-0.302457 -0.239996,-0.402858 -0.119661,-0.0986063 -0.273181,-0.157835 -0.440717,-0.157835 -0.191465,0 -0.364803,0.0776063 -0.490268,0.203067 -0.125461,0.125465 -0.203067,0.298803 -0.203067,0.490268 0,0.130689 0.036,0.252772 0.0985866,0.356854 0.0647441,0.107669 0.158146,0.19639 0.269744,0.255728l0.0549488 0.0292165 -0.0374488 0.0497402c-0.124177,0.164949 -0.22187,0.345693 -0.287976,0.537949 -0.0637008,0.18528 -0.0978543,0.381185 -0.0978543,0.583843 0,0.579339 0.279217,1.10428 0.730638,1.48465 0.453945,0.382496 1.08183,0.619079 1.77603,0.619079 0.694201,0 1.32208,-0.236583 1.77603,-0.619079 0.451421,-0.380366 0.730638,-0.905307 0.730638,-1.48465 0,-0.202642 -0.0341535,-0.398531 -0.0978543,-0.583795 -0.0661063,-0.192268 -0.163803,-0.373024 -0.287976,-0.537996l-0.0374449 -0.0497402 0.0549449 -0.0292165c0.111598,-0.0593386 0.205,-0.148059 0.269744,-0.255728 0.0625866,-0.104083 0.0985866,-0.226165 0.0985866,-0.356854 0,-0.191465 -0.0776063,-0.364803 -0.203067,-0.490268 -0.125465,-0.125461 -0.298803,-0.203067 -0.490268,-0.203067 -0.167535,0 -0.321055,0.0592283 -0.440717,0.157835 -0.121843,0.100402 -0.208811,0.241669 -0.239996,0.402858l-0.0121811 0.0629567 -0.0594843 -0.023374c-0.163646,-0.0642953 -0.336567,-0.114169 -0.516449,-0.14765z"/>
  <path class="fil1" d="M1.63897 5.10083c0.453815,0.381673 1.081,0.617689 1.77436,0.617689 0.693358,0 1.32055,-0.236016 1.77436,-0.617693 -0.136008,-0.975181 -0.878583,-1.7207 -1.77436,-1.7207 -0.89578,0 -1.63835,0.74552 -1.77436,1.7207z"/>
  <path class="fil2" d="M4.37333 2.39999c0.0736339,0 0.140303,0.0298543 0.188559,0.0781102 0.0482559,0.0482559 0.0781102,0.114925 0.0781102,0.188559 0,0.0736299 -0.0298543,0.140303 -0.0781102,0.188559 -0.0482559,0.0482559 -0.114925,0.0781102 -0.188559,0.0781102 -0.0736299,0 -0.140303,-0.0298543 -0.188559,-0.0781102 -0.0482559,-0.0482559 -0.0781102,-0.114929 -0.0781102,-0.188559 0,-0.0736339 0.0298543,-0.140303 0.0781102,-0.188559 0.0482559,-0.0482559 0.114929,-0.0781102 0.188559,-0.0781102z"/>
  <path class="fil2" d="M2.45333 2.39999c0.0736299,0 0.140303,0.0298543 0.188559,0.0781102 0.0482559,0.0482559 0.0781102,0.114925 0.0781102,0.188559 0,0.0736299 -0.0298543,0.140303 -0.0781102,0.188559 -0.0482559,0.0482559 -0.114929,0.0781102 -0.188559,0.0781102 -0.0736339,0 -0.140303,-0.0298543 -0.188559,-0.0781102 -0.0482559,-0.0482559 -0.0781102,-0.114929 -0.0781102,-0.188559 0,-0.0736339 0.0298543,-0.140303 0.0781102,-0.188559 0.0482559,-0.0482559 0.114925,-0.0781102 0.188559,-0.0781102z"/>
  <path class="fil3" d="M3.37708 4.325l-0.564024 -0.448677 -0.040622 -0.032315 0.0444291 -0.0267835c0.204315,-0.123161 0.406079,-0.182866 0.605386,-0.181925 0.199484,0.000944882 0.395327,0.0626181 0.587685,0.182209l0.0434016 0.0269803 -0.0400157 0.0318346 -0.564024 0.448677 0 0.343744c0,0.0474921 -0.0722165,0.0474921 -0.0722165,0l0 -0.343744z"/>
  <path class="fil3" d="M2.56647 2.55352c-0.0289488,-0.0289488 -0.0689567,-0.0468583 -0.113142,-0.0468583 -0.044189,0 -0.0841929,0.0179094 -0.113142,0.0468583 -0.0289488,0.0289488 -0.0468583,0.0689528 -0.0468583,0.113142 0,0.044185 0.0179094,0.0841929 0.0468583,0.113142 0.0289488,0.0289488 0.0689528,0.0468583 0.113142,0.0468583 0.044185,0 0.0841929,-0.0179094 0.113142,-0.0468583 0.0289488,-0.0289488 0.0468583,-0.0689567 0.0468583,-0.113142 0,-0.044189 -0.0179094,-0.0841929 -0.0468583,-0.113142z"/>
  <path class="fil3" d="M4.48647 2.55352c-0.0289488,-0.0289488 -0.0689528,-0.0468583 -0.113142,-0.0468583 -0.044185,0 -0.0841929,0.0179094 -0.113142,0.0468583 -0.0289488,0.0289488 -0.0468583,0.0689528 -0.0468583,0.113142 0,0.044185 0.0179094,0.0841929 0.0468583,0.113142 0.0289488,0.0289488 0.0689567,0.0468583 0.113142,0.0468583 0.044189,0 0.0841929,-0.0179094 0.113142,-0.0468583 0.0289488,-0.0289488 0.0468583,-0.0689567 0.0468583,-0.113142 0,-0.044189 -0.0179094,-0.0841929 -0.0468583,-0.113142z"/>
  <path class="fil4" d="M4.78594 1.26597c-0.121843,0.100402 -0.208811,0.241669 -0.239996,0.402858l-0.0121811 0.0629567 -0.0201417 -0.00791339c2.3622e-005,7.87402e-006 4.72441e-005,1.5748e-005 6.69291e-005,2.75591e-005 0.406154,0.166748 0.750646,0.422937 0.997039,0.73798l-4.72441e-005 -6.29921e-005 -0.0139646 -0.0185472 0.0549449 -0.0292165c0.111598,-0.0593386 0.205,-0.148059 0.269744,-0.255728 0.0625866,-0.104083 0.0985866,-0.226165 0.0985866,-0.356854 0,-0.191465 -0.0776063,-0.364803 -0.203067,-0.490268 -0.125465,-0.125461 -0.298803,-0.203067 -0.490268,-0.203067 -0.167535,0 -0.321055,0.0592283 -0.440717,0.157835z"/>
  <path class="fil4" d="M1.10973 1.3112c-0.125461,0.125465 -0.203067,0.298803 -0.203067,0.490268 0,0.130689 0.036,0.252772 0.0985866,0.356854 0.0647441,0.107669 0.158146,0.19639 0.269744,0.255728l0.0549488 0.0292165 -0.0139488 0.0185276c0.246433,-0.315063 0.590976,-0.571252 0.997185,-0.737988l-0.000110236 4.72441e-005 -0.0201772 0.0079252 -0.0121811 -0.0629528c-0.031185,-0.161189 -0.118154,-0.302457 -0.239996,-0.402858 -0.119661,-0.0986063 -0.273181,-0.157835 -0.440717,-0.157835 -0.191465,0 -0.364803,0.0776063 -0.490268,0.203067z"/>
  <path class="fil3" d="M3.45318 4.69536c0.00111811,-0.0220039 -0.0158071,-0.0407559 -0.037811,-0.041874 -0.0220039,-0.00111811 -0.0407559,0.0158071 -0.041874,0.037811 -0.00216929,0.0421417 -0.0154606,0.0837992 -0.0372205,0.120728 -0.0229567,0.0389646 -0.0552638,0.0724961 -0.0937835,0.0956024 -0.0377992,0.0226772 -0.0816654,0.0352362 -0.128504,0.0328268 -0.0380945,-0.00195669 -0.0785079,-0.0138031 -0.11972,-0.0380827 -0.0189803,-0.0111299 -0.0434016,-0.00476378 -0.0545315,0.0142165 -0.0111299,0.0189803 -0.00476378,0.0434016 0.0142165,0.0545315 0.0529213,0.0311772 0.105646,0.046437 0.155972,0.0490197 0.0635079,0.00327165 0.122705,-0.0135984 0.173504,-0.0440709 0.0500787,-0.0300433 0.0919606,-0.0734291 0.121594,-0.123728 0.028126,-0.0477323 0.0453228,-0.101886 0.0481575,-0.15698z"/>
  <path class="fil3" d="M3.36976 4.69536c-0.00111811,-0.0220039 0.0158071,-0.0407559 0.037811,-0.041874 0.0220039,-0.00111811 0.0407559,0.0158071 0.041874,0.037811 0.00216929,0.0421417 0.0154606,0.0837992 0.0372205,0.120728 0.0229567,0.0389646 0.0552638,0.0724961 0.0937835,0.0956024 0.0377992,0.0226772 0.0816654,0.0352362 0.128504,0.0328268 0.0380945,-0.00195669 0.0785079,-0.0138031 0.11972,-0.0380827 0.0189803,-0.0111299 0.0434016,-0.00476378 0.0545315,0.0142165 0.0111299,0.0189803 0.00476378,0.0434016 -0.0142165,0.0545315 -0.0529213,0.0311772 -0.105646,0.046437 -0.155972,0.0490197 -0.0635079,0.00327165 -0.122705,-0.0135984 -0.173504,-0.0440709 -0.0500787,-0.0300433 -0.0919606,-0.0734291 -0.121594,-0.123728 -0.028126,-0.0477323 -0.0453228,-0.101886 -0.0481575,-0.15698z"/>
  <rect class="fil5" width="6.82666" height="6.82666"/>
 </g>
</svg>
