<?xml version="1.0" encoding="UTF-8"?>
<!DOCTYPE svg PUBLIC "-//W3C//DTD SVG 1.1//EN" "http://www.w3.org/Graphics/SVG/1.1/DTD/svg11.dtd">
<!-- Creator: CorelDRAW -->
<svg xmlns="http://www.w3.org/2000/svg" xml:space="preserve" width="6.82666in" height="6.82666in" style="shape-rendering:geometricPrecision; text-rendering:geometricPrecision; image-rendering:optimizeQuality; fill-rule:evenodd; clip-rule:evenodd"
viewBox="0 0 6.82666 6.82666"
 xmlns:xlink="http://www.w3.org/1999/xlink">
 <defs>
  <style type="text/css">
   <![CDATA[
    .fil10 {fill:none}
    .fil4 {fill:#212121}
    .fil7 {fill:#703112}
    .fil8 {fill:#B87654}
    .fil0 {fill:#CCAB6E}
    .fil3 {fill:#D50000}
    .fil6 {fill:#E0B496}
    .fil9 {fill:#E0BF82}
    .fil5 {fill:#FFEBEE}
    .fil1 {fill:#212121;fill-rule:nonzero}
    .fil2 {fill:#88421E;fill-rule:nonzero}
   ]]>
  </style>
 </defs>
 <g id="Layer_x0020_1">
  <metadata id="CorelCorpID_0Corel-Layer"/>
  <g id="_356635784">
   <path id="_356638832" class="fil0" d="M3.79108 5.49047c-0.0753228,-0.113031 -0.0289016,-0.380547 -0.00398819,-0.495913 -0.0788031,0.000228346 -0.158697,0.00222835 -0.237776,0.00244094l0.038622 0.305571c-0.0411142,0.026874 -0.158433,0.126657 -0.215665,0.166457 -0.00975591,0.00677953 -0.0286181,-0.000220472 -0.0334488,0.00326378 -0.0271535,0.0196024 -0.0451024,0.114783 -0.0360984,0.142626 0.0079252,0.0245039 0.0236535,-0.0688346 0.0497087,-0.0688346 0.00944882,0 0.0227835,0.0102953 0.0322441,0.00616929 0.00873622,-0.00379921 0.019811,-0.00855118 0.0305157,-0.0137205 0.0249921,-0.0120866 0.0542677,-0.0262362 0.083689,-0.034685 -0.000492126,0.0479567 0.0154567,0.0921614 0.0476969,0.131894 0.12248,0.150941 0.433685,0.181799 0.510335,0.181799 0.0322559,0 0.0445472,-0.00349213 0.0531063,-0.00874016 0.0217992,-0.0134331 0.0907402,0.0510551 0.0874488,0.0326496 -0.00567323,-0.0315787 -0.100681,-0.119307 -0.149744,-0.129102 -0.0281575,-0.0056378 -0.0639488,-0.0200472 -0.0884134,-0.0332835 0.0245472,-0.00240551 0.0653425,-0.00450787 0.132961,-0.00450787 0.030874,0 0.0600512,0.000429134 0.0824055,0.00073622 0.0141969,0.000204724 0.0257087,0.000366142 0.0332835,0.000366142 0.0767835,-0.0248031 0.144024,0.0563425 0.144024,0.0157953 0,-0.0162953 -0.0501811,-0.129969 -0.0641142,-0.138874 -0.0107795,-0.00687795 -0.0243976,-0.0102283 -0.0416496,-0.0102283 -0.0105945,0 -0.0269528,0.000716535 -0.0474134,0.00161417 -0.032437,0.00144882 -0.0768465,0.00340551 -0.124217,0.00340551 -0.184248,0 -0.255976,-0.0305197 -0.283512,-0.0568976z"/>
   <polygon id="_356639408" class="fil1" points="1.01915,4.9215 1.0187,4.92129 1.01865,4.92139 "/>
   <path id="_356638424" class="fil2" d="M3.78964 5.9672c-0.0804567,0 -0.407118,-0.0323898 -0.535685,-0.190831 -0.0338425,-0.0417047 -0.0505827,-0.0881063 -0.0500669,-0.138445 -0.0308819,0.00887008 -0.0616102,0.0237205 -0.0878465,0.0364094 -0.0112362,0.0054252 -0.0228622,0.0104134 -0.0320315,0.0144016 -0.00992913,0.00433071 -0.0239252,-0.00647638 -0.0338465,-0.00647638 -0.0273465,0 -0.0438583,0.0979764 -0.0521772,0.0722559 -0.00944882,-0.0292283 0.00938976,-0.129138 0.0378937,-0.149713 0.00507087,-0.00365748 0.0248701,0.00368898 0.0351102,-0.0034252 0.0600748,-0.0417756 0.18322,-0.146516 0.226378,-0.174728l-0.0408465 -0.323173c-0.0013937,2.75591e-005 -0.00277953,2.75591e-005 -0.00417323,2.75591e-005 -0.528709,0 -1.23328,-0.784354 -1.1161,-1.33439 -0.103157,-0.138665 -0.25628,-0.48178 -0.159949,-0.652843 -0.202185,-0.129177 -0.267724,-0.359303 -0.269957,-0.580823 -0.00217717,-0.21598 0.015185,-0.555878 0.298917,-0.555878 0.218858,0 0.54076,0.17913 0.679169,0.46848 0.138165,0.288917 0.44074,0.391425 0.657846,0.391409 0.0584882,0 0.109965,-0.00797638 0.144921,-0.0224409 0.0793622,-0.0328346 0.126449,-0.093874 0.167976,-0.147752 0.0339488,-0.0440394 0.066378,-0.0860945 0.111063,-0.101563 0.00925591,-0.440492 0.11122,-0.989433 0.425657,-1.29483 -0.132232,-0.138157 -0.118736,-0.15613 -0.10448,-0.175094 0.00544094,-0.00729134 0.0160984,-0.0160079 0.0356378,-0.0160079 0.0189488,0 0.0443858,0.00765748 0.0840394,0.0202677 0.0079685,0.0025315 0.0176063,0.0056063 0.0267756,0.00834646 -0.00364173,-0.0144488 -0.00827559,-0.0308583 -0.0117047,-0.0430394 -0.0201102,-0.0713504 -0.0284449,-0.100882 -0.00416535,-0.119311 0.00635827,-0.00479134 0.0139409,-0.00729921 0.0220472,-0.00729921 0.020311,0 0.0387874,0.0143386 0.0906063,0.0587244 0.00321654,0.00274409 0.00673228,0.00575591 0.010378,0.0088622 -0.0055748,-0.0632441 -0.00883465,-0.112795 0.0260157,-0.129311 0.00544094,-0.00256299 0.0111457,-0.00384252 0.0171024,-0.00384252 0.0347598,0 0.0521654,0.038122 0.0785669,0.0958386 0.00291339,0.00638976 0.00634646,0.013878 0.0098189,0.0212323 0.00488189,-0.0108189 0.00985827,-0.0224764 0.0139291,-0.032063 0.0276457,-0.0649409 0.0428622,-0.100713 0.0760394,-0.100713 0.0533228,0.0015 0.055122,0.0671693 0.0566654,0.125098 0.000129921,0.00469685 0.000299213,0.0100827 0.000472441,0.0155394 0.00638189,-0.00455118 0.012815,-0.00931102 0.0182598,-0.0133189 0.0409764,-0.030189 0.0652795,-0.0472717 0.0883858,-0.0472717 0.00655512,0 0.0127283,0.00140551 0.0183465,0.00416142 0.00951181,0.00468504 0.0165394,0.0130197 0.0197559,0.0234646 0.003,0.00968504 0.0107205,0.0346024 -0.0504528,0.14715 0.0270079,0.0352244 0.081185,0.112551 0.0835433,0.168315l0.0300039 0.206346c0.0132874,0.062122 0.023874,0.165528 -0.0308189,0.230961 -0.035063,0.0404173 -0.070248,0.0607165 -0.104929,0.0607165 -0.00844094,0 -0.0166732,-0.0012874 -0.0244724,-0.00377559 0.0154685,0.330996 0.244406,0.853024 0.246976,0.858854l0.0266614 0.0667835c0.0070315,0.0195433 0.163524,0.456815 0.178528,0.712197 0.0236417,0.401469 -0.39822,0.824764 -0.723567,1.08933 -0.224516,0.182559 -0.631551,0.600252 -0.888642,0.59563 -0.025937,0.118988 -0.0764921,0.404374 0.00338583,0.52424 0.0289055,0.027689 0.104197,0.0597244 0.297594,0.0597244 0.0497244,0 0.0963386,-0.00205118 0.13039,-0.0035748 0.0214764,-0.000940945 0.0386457,-0.00169291 0.0497677,-0.00169291 0.0181102,0 0.0324055,0.00351575 0.0437205,0.0107362 0.014622,0.00934646 0.0672953,0.128669 0.0672953,0.145772 0,0.042563 -0.0705787,-0.0426142 -0.151177,-0.0165787 -0.00794882,0 -0.0200354,-0.000169291 -0.034937,-0.000385827 -0.0234646,-0.000318898 -0.0540906,-0.000771654 -0.0864961,-0.000771654 -0.0709803,0 -0.113799,0.00220866 -0.139567,0.00473228 0.0256811,0.0138937 0.063248,0.0290197 0.0928031,0.034937 0.0515,0.0102835 0.151228,0.102366 0.157185,0.135516 0.00345276,0.0193189 -0.0689094,-0.048374 -0.0917953,-0.0342717 -0.00898425,0.00550787 -0.0218858,0.00917323 -0.0557441,0.00917323z"/>
   <path id="_356638112" class="fil3" d="M4.1918 1.27278c0.0505748,-0.0441299 0.182299,-0.147327 0.339787,-0.178709 0.118764,-0.0236417 0.168134,0.00751969 0.184614,0.0231929 -0.000775591,-0.00102362 -0.00153543,-0.00201575 -0.00227165,-0.00297638 0.0611732,-0.112547 0.0534528,-0.137465 0.0504528,-0.14715 -0.00321654,-0.0104449 -0.0102441,-0.0187795 -0.0197559,-0.0234646 -0.00561811,-0.00275591 -0.0117913,-0.00416142 -0.0183465,-0.00416142 -0.0231063,0 -0.0474094,0.0170827 -0.0883858,0.0472717 -0.00544488,0.00400787 -0.011878,0.00876772 -0.0182598,0.0133189l-0.000472441 -0.0155394c-0.00154331,-0.0579291 -0.00334252,-0.123598 -0.0566654,-0.125098 -0.0331772,0 -0.0483937,0.0357717 -0.0760394,0.100713 -0.00407087,0.00958661 -0.00904724,0.0212441 -0.0139291,0.032063 -0.00347244,-0.00735433 -0.00690551,-0.0148425 -0.0098189,-0.0212323 -0.0264016,-0.0577165 -0.0438071,-0.0958386 -0.0785669,-0.0958386 -0.00595669,0 -0.0116614,0.00127953 -0.0171024,0.00384252 -0.0348504,0.0165157 -0.0315906,0.0660669 -0.0260157,0.129311l-0.010378 -0.0088622c-0.0518189,-0.0443858 -0.0702953,-0.0587244 -0.0906063,-0.0587244 -0.0081063,0 -0.015689,0.00250787 -0.0220472,0.00729921 -0.0242795,0.0184291 -0.0159449,0.0479606 0.00416535,0.119311 0.00342913,0.0121811 0.00806299,0.0285906 0.0117047,0.0430394 -0.00916929,-0.00274016 -0.0188071,-0.00581496 -0.0267756,-0.00834646 -0.0396535,-0.0126102 -0.0650906,-0.0202677 -0.0840394,-0.0202677 -0.0195394,0 -0.0301969,0.00871654 -0.0356378,0.0160079 -0.014252,0.0189606 -0.0277441,0.0369291 0.10439,0.175z"/>
   <circle id="_356638544" class="fil4" cx="4.50307" cy="1.34544" r="0.0585748"/>
   <circle id="_356638136" class="fil5" cx="4.50307" cy="1.34544" r="0.0275551"/>
   <path id="_356638520" class="fil6" d="M5.08557 1.4953c-0.0337087,-0.055311 -0.111886,-0.111437 -0.181157,-0.146197 -0.0327441,-0.0164291 -0.100894,-0.0506142 -0.106941,-0.0664961 -0.000161417,-0.00383465 -0.000570866,-0.00777165 -0.00119685,-0.0117913 -0.00873622,0.0191063 -0.0300118,0.0685512 -0.0293228,0.0954764 0.00073622,0.0287756 0.0472598,0.103965 0.0612008,0.125874 -0.000224409,-0.00108268 -0.000448819,-0.00215354 -0.000677165,-0.0032126 0.0509173,0.00753543 0.225122,0.0217953 0.258094,0.00634646z"/>
   <path id="_356638808" class="fil3" d="M4.79666 1.71991c0.0529055,-0.0632953 0.0447283,-0.162118 0.0321102,-0.22474 -0.027315,-0.0193346 -0.0672756,-0.046815 -0.11824,0.00714173 -0.0330039,0.0349409 -0.10115,-0.0211732 -0.123303,0.072 -0.0105984,0.0445748 -0.0661693,-0.0405 -0.107291,0.0390079 -0.038937,0.0752913 0.146539,0.165528 0.18763,0.170161 -9.05512e-005,-0.00222047 -0.000204724,-0.00442913 -0.000307087,-0.00662992 0.00779921,0.00248819 0.0160315,0.00377559 0.0244724,0.00377559 0.0346811,0 0.0698661,-0.0202992 0.104929,-0.0607165z"/>
   <path id="_356638448" class="fil3" d="M4.29963 1.40254c-0.0334134,0.0870945 0.0500039,0.0243071 0.0500039,0.075 0,0.0774331 0.0297008,0.0185787 0.0526181,0.0682165 0.00654724,0.0141811 0.0495866,0.0494803 0.0420827,0.0691929 -0.0384803,0.0038189 -0.0998189,0.0369055 -0.156843,-0.0160394 -0.0578622,-0.0537205 -0.0589016,-0.165579 -0.00869291,-0.177618 0.00437402,-0.00255512 0.0177992,-0.0108465 0.0208307,-0.018752z"/>
   <path id="_356637560" class="fil7" d="M4.09532 3.18872c-0.00300787,0.0327874 -0.0167008,0.105866 -0.0397165,0.147425 0.0819173,0.0206496 0.103642,0.0503504 -0.0106732,0.157457 -0.130693,0.122449 -0.183134,0.0498307 -0.138209,0.170799 0.0347126,0.0934606 -0.151154,0.0256299 -0.126134,0.132665 0.0183819,0.0786299 -0.0889134,0.00657874 -0.113945,0.125228 -0.0195551,0.0926969 -0.106898,0.0588071 -0.18913,0.118799 -0.196055,0.143028 -0.396496,0.0760827 -0.613661,-0.016122 -0.286665,-0.121717 -0.216992,-0.222071 -0.397575,-0.418244 0.082378,0.0652362 0.0759134,0.059878 0.130941,0.149402 0.118004,0.191988 0.222031,0.233563 0.436165,0.291094 0.37572,0.100949 0.313055,-0.0306417 0.508484,-0.0892559 0.166768,-0.0500157 0.0042874,-0.110795 0.18263,-0.16026 -0.0294921,-0.0966575 0.0659803,-0.097378 0.12211,-0.125126 -0.0805787,-0.156362 0.16424,-0.175811 0.205224,-0.274957 -0.156323,-0.0230591 -0.0348504,-0.0625039 -0.0229291,-0.214559 0.00156299,-0.0183425 0.0176929,-0.0319449 0.0360354,-0.0303819 0.0183425,0.00156299 0.0319449,0.0176929 0.0303819,0.0360354zm-0.238315 0.478083l2.3622e-005 -1.5748e-005 -1.1811e-005 0 -1.1811e-005 1.5748e-005z"/>
   <path id="_356637872" class="fil7" d="M3.82745 3.22634c-0.110488,0.264079 -0.384622,0.463138 -0.673449,0.448744l-0.146091 -0.0245984 0.146992 -0.00127165c0.270181,-0.0197795 0.512531,-0.187626 0.608469,-0.441252 0.0050748,-0.0176929 0.0235354,-0.0279252 0.0412283,-0.0228504 0.0176929,0.0050748 0.0279252,0.0235354 0.0228504,0.0412283z"/>
   <path id="_356637296" class="fil7" d="M3.43904 3.28257c-0.195272,0.258776 -0.569906,0.321094 -0.838992,0.14637l-0.00911417 -0.00704331 -0.0080315 -0.00891732 7.87402e-006 -7.87402e-006c0.0169961,0.00364173 0.00666535,0.000704724 0.0223819,0.00689764 0.282614,0.11137 0.59376,0.0895512 0.779819,-0.176488 0.0108228,-0.0148937 0.0316654,-0.0181929 0.0465591,-0.00737008 0.0148937,0.0108228 0.0181929,0.0316654 0.00737008,0.0465591z"/>
   <path id="_356637848" class="fil7" d="M3.05413 3.19708c-0.237272,0.222646 -0.673161,0.0252244 -0.75872,-0.196598 0.0265787,0.0217205 0.00348031,0.00127165 0.0275591,0.0261378 0.159031,0.164224 0.486839,0.324181 0.68039,0.127264 0.0119291,-0.0140197 0.0329646,-0.0157165 0.0469843,-0.0037874 0.0140197,0.0119291 0.0157165,0.0329646 0.0037874,0.0469843z"/>
   <path id="_356636792" class="fil7" d="M2.00443 3.08037c0.178776,0.100319 0.282433,0.144122 0.478469,0.203449 -0.218433,-0.00540945 -0.318909,-0.053811 -0.513201,-0.146551 -0.0157126,-0.00959055 -0.0206732,-0.0301024 -0.0110827,-0.045815 0.00959055,-0.0157126 0.0301024,-0.0206732 0.045815,-0.0110827z"/>
   <path id="_356636600" class="fil7" d="M2.16465 3.74452l-0.000417323 -0.000240157c0.0102953,0.0335 0.302894,0.0545354 0.339496,0.0603701 -0.0797402,0.016811 -0.350917,0.0693661 -0.402583,-0.0398701 -0.00559449,-0.0175354 0.00408661,-0.0362874 0.021622,-0.0418819 0.0175354,-0.00559449 0.0362874,0.00408661 0.0418819,0.021622z"/>
   <path id="_356636624" class="fil8" d="M2.11169 2.13972c0.152469,0.0314724 0.363563,0.357626 0.406083,0.461811l0.0357717 0.111193c0,0 -0.0829173,-0.158122 -0.121228,-0.21515 -0.0288386,-0.0429291 -0.238591,-0.296378 -0.309646,-0.306528 -0.0160787,-0.00183465 -0.0315709,-0.014811 -0.0346063,-0.0289843 -0.0030315,-0.0141732 0.00754724,-0.0241772 0.023626,-0.0223425z"/>
   <path id="_356636960" class="fil8" d="M1.93775 2.18124c0.275555,0.0171063 0.471425,0.544488 0.46335,0.549327 -0.0655,-0.0748189 -0.250791,-0.492701 -0.441315,-0.496992 -0.0165276,0.000287402 -0.0348583,-0.011189 -0.0409409,-0.0256417 -0.00608268,-0.0144528 0.00237795,-0.0264016 0.0189055,-0.0266929z"/>
   <path id="_356637272" class="fil8" d="M1.84808 2.30478c0.127173,-0.0780669 0.334496,0.172161 0.385665,0.262055 0.0418583,0.0735394 0.0393504,0.0760315 0.0817008,0.225657 -0.0110709,-0.0213622 -0.102776,-0.19972 -0.116713,-0.220803 -0.0313228,-0.0473819 -0.224402,-0.276752 -0.302555,-0.222508 -0.0114921,0.00750394 -0.0315787,0.00364567 -0.0448622,-0.00861417 -0.0132795,-0.0122598 -0.0147283,-0.0282835 -0.00323622,-0.0357874z"/>
   <path id="_356636024" class="fil8" d="M1.84076 2.45764c0.221846,0.0538465 0.279327,0.0880236 0.40635,0.298528 0.0446496,0.0739961 0.0482165,0.0870551 0.0565551,0.157807l-0.000220472 -3.93701e-005c-0.0266969,-0.0610039 -0.0394646,-0.0909252 -0.0813031,-0.150303 -0.138213,-0.196181 -0.170465,-0.213319 -0.378043,-0.255319 -0.0161417,-0.00384252 -0.0299724,-0.0183031 -0.0308976,-0.0322953 -0.00092126,-0.0139921 0.0114173,-0.0222205 0.0275591,-0.018378z"/>
   <path id="_356636240" class="fil8" d="M4.47787 2.35675c0.271898,0.537882 0.432992,0.959669 0.147181,1.53275 0.207059,-0.631803 0.102331,-0.921177 -0.203827,-1.49761 -0.00970472,-0.0156417 -0.00488976,-0.036189 0.010752,-0.0458937 0.0156417,-0.00970472 0.036189,-0.00488976 0.0458937,0.010752z"/>
   <path id="_356635808" class="fil8" d="M4.60573 3.39224c-0.0124409,0.303811 -0.0445276,0.603531 -0.372638,0.719563 0.29528,-0.215894 0.306327,-0.361067 0.305976,-0.719563 0,-0.0184094 0.0149213,-0.0333307 0.0333307,-0.0333307 0.0184094,0 0.0333307,0.0149213 0.0333307,0.0333307z"/>
   <path id="_356635928" class="fil9" d="M3.5106 5.62388c-0.079063,-0.118646 -0.0303386,-0.399449 -0.00418504,-0.520547 -0.0827165,0.000240157 -0.166583,0.00233858 -0.249587,0.00256299l0.0405394 0.320748c-0.0431575,0.0282126 -0.166303,0.132953 -0.226378,0.174728 -0.0102402,0.00711417 -0.0300394,-0.000232283 -0.0351102,0.0034252 -0.0285039,0.0205748 -0.0473425,0.120484 -0.0378937,0.149713 0.0083189,0.0257205 0.0248307,-0.0722559 0.0521772,-0.0722559 0.00992126,0 0.0239173,0.0108071 0.0338465,0.00647638 0.00916929,-0.00398819 0.0207953,-0.00897638 0.0320315,-0.0144016 0.0262362,-0.012689 0.0569646,-0.0275394 0.0878465,-0.0364094 -0.000515748,0.0503386 0.0162244,0.0967402 0.0500669,0.138445 0.128567,0.158441 0.455228,0.190831 0.535685,0.190831 0.0338583,0 0.0467598,-0.00366535 0.0557441,-0.00917323 0.0228858,-0.0141024 0.095248,0.0535906 0.0917953,0.0342717 -0.00595669,-0.0331496 -0.105685,-0.125232 -0.157185,-0.135516 -0.0295551,-0.00591732 -0.067122,-0.0210433 -0.0928031,-0.034937 0.0257677,-0.00252362 0.0685866,-0.00473228 0.139567,-0.00473228 0.0324055,0 0.0630315,0.000452756 0.0864961,0.000771654 0.0149016,0.000216535 0.0269882,0.000385827 0.034937,0.000385827 0.0805984,-0.0260354 0.151177,0.0591417 0.151177,0.0165787 0,-0.0171024 -0.0526732,-0.136425 -0.0672953,-0.145772 -0.011315,-0.00722047 -0.0256102,-0.0107362 -0.0437205,-0.0107362 -0.011122,0 -0.0282913,0.000751969 -0.0497677,0.00169291 -0.0340512,0.00152362 -0.0806654,0.0035748 -0.13039,0.0035748 -0.193398,0 -0.268689,-0.0320354 -0.297594,-0.0597244z"/>
  </g>
  <rect class="fil10" width="6.82666" height="6.82666"/>
 </g>
</svg>
