<?xml version="1.0" encoding="UTF-8"?>
<!DOCTYPE svg PUBLIC "-//W3C//DTD SVG 1.1//EN" "http://www.w3.org/Graphics/SVG/1.1/DTD/svg11.dtd">
<!-- Creator: CorelDRAW -->
<svg xmlns="http://www.w3.org/2000/svg" xml:space="preserve" width="6.82666in" height="6.82666in" style="shape-rendering:geometricPrecision; text-rendering:geometricPrecision; image-rendering:optimizeQuality; fill-rule:evenodd; clip-rule:evenodd"
viewBox="0 0 6.82666 6.82666"
 xmlns:xlink="http://www.w3.org/1999/xlink">
 <defs>
  <style type="text/css">
   <![CDATA[
    .fil8 {fill:none}
    .fil5 {fill:#263238}
    .fil7 {fill:#90A4AE}
    .fil0 {fill:#B0BEC5}
    .fil3 {fill:#CFD8DC}
    .fil4 {fill:#ECEFF1}
    .fil2 {fill:url(#id0)}
    .fil1 {fill:url(#id1)}
    .fil6 {fill:url(#id2)}
   ]]>
  </style>
  <linearGradient id="id0" gradientUnits="userSpaceOnUse" x1="3.32088" y1="5.81213" x2="3.00884" y2="5.30024">
   <stop offset="0" style="stop-color:#F48381"/>
   <stop offset="0.709804" style="stop-color:#F38180"/>
   <stop offset="0.988235" style="stop-color:#F37F80"/>
   <stop offset="1" style="stop-color:#F05B7A"/>
  </linearGradient>
  <linearGradient id="id1" gradientUnits="userSpaceOnUse" xlink:href="#id0" x1="2.84453" y1="5.88367" x2="2.49722" y2="5.31396">
  </linearGradient>
  <linearGradient id="id2" gradientUnits="userSpaceOnUse" x1="4.74512" y1="4.09833" x2="4.49974" y2="4.01573">
   <stop offset="0" style="stop-color:#F15F5B"/>
   <stop offset="0.709804" style="stop-color:#EF5D5A"/>
   <stop offset="0.988235" style="stop-color:#ED5B5A"/>
   <stop offset="1" style="stop-color:#C94155"/>
  </linearGradient>
 </defs>
 <g id="Layer_x0020_1">
  <metadata id="CorelCorpID_0Corel-Layer"/>
  <path class="fil0" d="M3.76626 3.8837l0.478469 -0.109429c0.166378,-0.27335 0.450791,-0.310724 0.549311,-0.582201 0.130878,-0.36072 0.768965,-1.15353 1.06752,-1.38148 0.0906772,-0.0692441 0.139122,-0.125177 0.156976,-0.165657 0.0410945,-0.0467717 0.0495157,-0.0940748 -0.0632874,-0.122197 -0.0820984,-0.0204055 -0.281866,0.136535 -0.334303,0.19385 0.0530512,-0.128811 0.0702087,-0.247717 -0.126327,-0.11415 -0.0963346,0.0655787 -0.192917,0.167925 -0.276768,0.284874 0.0132244,-0.0562795 0.00694094,-0.102488 -0.0530512,-0.100508 -0.0786299,0.00212598 -0.294531,0.332949 -0.399283,0.520272 0.00227559,-0.0948268 -0.0634449,-0.134933 -0.267917,0.144307 -0.0395236,0.0541575 -0.0875984,0.133992 -0.131646,0.221776 0.0117165,-0.0577598 0.0085748,-0.112362 -0.0400157,-0.127024 -0.0446654,-0.0130512 -0.201677,0.190327 -0.308547,0.390382 0.028311,-0.166748 -0.058252,-0.203134 -0.182921,0.0575748 -0.0314764,0.0640709 -0.154272,0.276382 -0.216579,0.463094 -0.0922087,0.211874 -0.172437,0.449874 -0.0734016,0.47474 0.0248661,0.00633465 0.181228,-0.0335039 0.221772,-0.0482244z"/>
  <path class="fil1" d="M2.76648 5.35157l0.0766693 0.0183268c-0.0109331,0.0197913 -0.0936496,0.190634 -0.081248,0.200929 0.0334134,0.0284331 0.144319,0.0506575 0.0782047,0.189283 -0.0269921,0.0564685 -0.112323,0.0624291 -0.0635984,0.0339646 -0.0221457,0.018748 -0.105264,0.0519803 -0.128008,0.0280079 0.0289173,-0.022626 0.108531,-0.0678071 0.00766535,-0.0235827 -0.00365748,0.00138583 -0.123213,0.00335827 -0.0417992,-0.0179134 0.0747677,-0.019185 0.173866,-0.16276 0.0543268,-0.184189 -0.0239134,-0.00420472 -0.0632402,0.095689 -0.0507953,0.116343 0.0303543,0.0493071 -0.182366,-0.125559 0.0637047,-0.180913 0.038311,-0.00861024 0.0383583,-0.0800157 0.0653661,-0.137929 0.00692913,-0.0145945 0.0158898,-0.0270433 0.0195118,-0.0423268z"/>
  <path class="fil2" d="M3.14208 5.30528l0.0332598 0.0789961c-0.0658898,0.196476 0.00243701,0.0316575 0.10126,0.219378 0.0525591,0.100047 -0.0434961,0.118185 -0.0688346,0.144988 -0.0322835,0.0335 -0.104417,0.0584291 -0.0957638,0.00473622 0.00348819,-0.0228661 -0.111457,0.0396142 -0.0929961,-0.0158622 0.00400787,-0.0121693 0.0699685,-0.0169724 0.0944409,-0.0509016 0.0406339,-0.057878 0.0529094,-0.0969134 -0.0242047,-0.137154 -0.0727874,0.0323346 0.0160433,0.143236 -0.0450945,0.0914173 -0.0202441,-0.0171575 -0.0409252,-0.097752 -0.0142008,-0.11398 0.0489646,-0.0297559 0.0833583,-0.0705394 0.0902638,-0.127008 0.0054685,-0.0445039 0.00783465,-0.0532992 0.0218701,-0.0946102z"/>
  <path class="fil3" d="M3.73273 3.71258c-0.361713,-0.159492 -0.486988,-0.543138 -0.575177,-0.916413 -0.134921,-0.571752 0.140874,-0.496535 -0.352094,-1.05146 -0.338453,-0.381441 -0.422,-0.418752 -0.692646,-0.866654 -0.0788268,-0.130685 -0.226079,0.00124803 -0.216614,0.234413 -0.0754724,-0.0190591 -0.137543,-0.00976378 -0.119752,0.138665 0.0203268,0.172539 0.280575,0.423217 0.0672717,0.237437 -0.136622,-0.11926 -0.100665,0.216882 0.00272441,0.371661 0.0139724,0.0214606 0.29287,0.461071 0.229996,0.366228 -0.0952638,-0.144484 -0.257051,-0.158563 -0.130382,0.15787 0.0651693,0.16315 0.0965827,0.208449 0.197197,0.349768 -0.00472835,0.0131063 -0.342736,-0.233457 -0.0892559,0.220366 0.0237165,0.0423543 0.0545236,0.0925236 0.0915236,0.146602 -0.262882,-0.133244 -0.191898,0.159705 0.051563,0.322957 0.0654685,0.0439213 -0.154524,-0.0151417 -0.126197,0.119224 0.0361417,0.169398 0.256433,0.0407913 0.015374,0.0882126 -0.150315,0.0293898 -0.0538465,0.210894 0.118244,0.261465 0.0963504,0.0282402 -0.422957,0.083752 0.0720039,0.372323 -0.430236,-0.128728 -0.262047,0.0345472 0.114882,0.213346 0.0559685,0.0266535 0.134957,0.0370709 0.166398,0.049 -0.137,0.0723858 -0.388508,0.054248 -0.519992,0.0317835 -0.0902126,-0.0156496 -0.192827,-0.0454961 -0.283752,-0.0592992 -0.0433898,-0.00687795 -0.165768,-0.059874 -0.178953,-0.0582165 -0.0654646,0.00805906 -0.00899606,0.0886496 0.0340551,0.112811 0.0998937,0.0558819 0.157555,0.0801693 0.219323,0.0969488 -0.027122,-0.000775591 -0.0583031,-0.00393307 -0.0996772,-0.0136496 -0.119201,-0.0279961 -0.266067,-0.0564331 -0.381091,-0.097378 -0.0574764,-0.0200984 -0.113323,-0.055752 -0.145031,0.013063 -0.0355551,0.0758031 0.172866,0.178614 0.218173,0.197307 0.0414606,0.0170945 0.0842165,0.0333504 0.12824,0.0480433 -0.0301654,-0.00673622 -0.0601102,-0.0134882 -0.088252,-0.0193976 -0.0797165,-0.0169685 -0.157055,-0.055815 -0.245803,-0.0729094 -0.0430039,-0.0084252 -0.218657,-0.10002 -0.199787,0.0219843 0.0129016,0.0838504 0.191134,0.144681 0.303185,0.164846 -0.0406929,-0.00388189 -0.0861535,-0.00833465 -0.0907638,-0.0095315 -0.0550079,-0.015311 -0.322091,-0.0414961 -0.341543,0.0426575 -0.00986614,0.0425157 0.100126,0.0942441 0.13263,0.104969 0.0385866,0.0127598 0.077685,0.0227165 0.117512,0.0309606 -0.156591,0.0379921 -0.306378,0.078748 -0.347917,0.0967008 -0.0714409,0.0308583 -0.102579,0.0326969 -0.0989488,0.109909 0.00283858,0.0674449 0.160295,0.0666772 0.245228,0.0591457 -0.0520276,0.0186929 -0.107067,0.0386693 -0.138579,0.0537638 -0.0484685,0.0232087 -0.0985039,0.0450236 -0.102035,0.0978346 -0.00459449,0.0600906 0.0137402,0.104201 0.0757953,0.108563 0.0503189,0.00363386 0.197661,-0.0439252 0.329539,-0.0938071 -0.0310157,0.0157638 -0.060815,0.0320315 -0.0878031,0.0496693 -0.121661,0.0797008 -0.148815,0.243843 0.0155236,0.190327 0.068622,-0.022315 0.234512,-0.0870433 0.368378,-0.14815 -0.100524,0.0743543 -0.331201,0.251311 -0.283063,0.25463 0.122858,0.00838583 0.382402,-0.139126 0.508323,-0.184984 -0.0872047,0.0618465 -0.179827,0.130638 -0.248634,0.192602 -0.0444606,0.0400866 -0.0881693,0.124303 0.00403937,0.111823 0.185441,-0.0248307 0.459709,-0.185102 0.618165,-0.283886 0.115236,-0.0720827 0.24924,-0.150189 0.356547,-0.228937 0.0882598,-0.0647362 0.18428,-0.134508 0.277602,-0.20478 0.0155079,0.167244 0.0959331,0.312543 0.320067,0.162394 0.0374921,-0.0250197 0.115445,-0.109555 0.121984,-0.0799528 0.0124094,0.060126 0.0127126,0.0312913 0.0206614,0.0502835 0.0446732,0.112134 0.208433,-0.0100787 0.317094,-0.117815 0.032185,-0.00848425 0.0612874,-0.0188976 0.0858504,-0.0311024 0.34137,-0.168138 0.372142,-0.209047 0.540004,-0.461689 0.145878,-0.219744 0.288437,-0.663343 0.567476,-0.776646 0.248949,-0.101189 0.236744,-0.486669 -0.018626,-0.572606 -0.453898,-0.153051 -0.469524,0.212579 -0.850205,0.296705z"/>
  <path class="fil0" d="M3.03539 5.33369c0.0183661,-0.0136299 0.0324646,-0.0201102 0.0350866,-0.00824409 0.0010748,0.00521654 0.00206299,0.00975197 0.0029685,0.0137165 0.237547,-0.196264 0.22928,-0.309102 0.264524,-0.583933 -0.0437874,0.274224 -0.160969,0.429252 -0.302579,0.578461z"/>
  <path class="fil4" d="M4.45807 3.60849c0.0302205,0.0297362 0.0233307,0.071378 -0.0105748,0.0873583 -0.0665118,0.0311969 -0.117236,-0.0604213 -0.0583661,-0.0965551 0.0270787,-0.0167913 0.0441732,-0.0152559 0.0689409,0.00919685z"/>
  <path class="fil5" d="M4.44024 3.62579c0.0159764,0.0157205 0.0123346,0.0377402 -0.00559055,0.0461929 -0.0351732,0.0164961 -0.0619961,-0.0319488 -0.0308661,-0.0510591 0.0143189,-0.00887795 0.0233583,-0.00806693 0.0364567,0.00486614z"/>
  <path class="fil6" d="M4.7325 3.88938c-0.0667677,-0.0679331 -0.172504,0.039374 -0.224484,-0.0177047 -0.0132402,0.114677 -0.00838583,0.134075 0.0738071,0.227402 0.0320551,0.0365709 0.0888622,0.0976811 0.0799764,0.150303 -0.00700394,0.0432165 0.0644016,-0.0904882 0.0694055,-0.156976 0.00252362,-0.0405709 0.018878,-0.127161 0.00418504,-0.172039 -0.00135827,-0.00399606 -0.00325591,-0.0317165 -0.00288976,-0.0309843z"/>
  <path class="fil0" d="M2.62878 5.2444c0.241016,-0.136988 0.453429,-0.238004 0.604169,-0.559902 -0.130323,0.302193 -0.138543,0.401681 -0.604169,0.559902z"/>
  <path class="fil7" d="M1.91523 1.56722c0.292508,0.153642 0.343579,0.26885 0.530319,0.544091 0.0113898,0.0167953 0.0140118,0.0217087 0.0309449,0.0314606l1.5748e-005 -1.1811e-005c-0.0056811,-0.00690551 -0.0118583,-0.0131339 -0.0167402,-0.0206772 -0.194299,-0.300138 -0.214362,-0.407575 -0.531882,-0.582063 -0.00751181,-0.00349606 -0.0164331,-0.000244094 -0.0199291,0.00727165 -0.00349606,0.00751181 -0.000240157,0.0164331 0.00727165,0.0199291z"/>
  <path class="fil7" d="M2.06799 2.19933c0.285323,0.181835 0.50537,0.244051 0.783346,0.397894 -0.296862,-0.128811 -0.517059,-0.199575 -0.799984,-0.372933 -0.0068937,-0.00459449 -0.00875591,-0.0139055 -0.00416142,-0.0207992 0.00459449,-0.0068937 0.0139055,-0.00875591 0.0207992,-0.00416142z"/>
  <path class="fil7" d="M2.09964 2.67878c0.276783,0.185059 0.613319,0.320669 0.814201,0.595539 -0.228453,-0.258988 -0.541996,-0.383732 -0.831634,-0.57113 -0.00674016,-0.00481496 -0.00830315,-0.0141811 -0.00348819,-0.0209213 0.00481496,-0.00674016 0.0141811,-0.00830315 0.0209213,-0.00348819z"/>
  <path class="fil7" d="M2.15207 3.07487c0.361862,0.278949 0.551315,0.174339 0.845098,0.522366 -0.332728,-0.335287 -0.495354,-0.223587 -0.863232,-0.498469 -0.00659843,-0.00500787 -0.00788976,-0.0144173 -0.00288189,-0.0210157 0.00500787,-0.00659843 0.0144173,-0.00788976 0.0210157,-0.00288189z"/>
  <path class="fil7" d="M2.21935 3.41178c0.0863583,0.164303 0.686252,0.148563 0.66324,0.359929 -0.0305984,-0.221772 -0.582996,-0.151831 -0.690933,-0.348402 -0.00318504,-0.00764567 0.000437008,-0.0164252 0.00808268,-0.0196102 0.00764567,-0.00318504 0.0164252,0.000437008 0.0196102,0.00808268z"/>
  <path class="fil7" d="M2.17467 3.6239c0.204008,0.0195866 0.626291,0.105945 0.749583,0.285831 -0.161626,-0.164988 -0.528579,-0.238701 -0.750417,-0.255839 -0.00828346,-0.000232283 -0.014811,-0.00712992 -0.0145787,-0.0154134 0.000232283,-0.00828346 0.00712992,-0.014811 0.0154134,-0.0145787z"/>
  <path class="fil7" d="M2.21416 3.88298c0.370098,0.128543 0.489665,-0.0198465 0.816874,0.242894 -0.363059,-0.24172 -0.447827,-0.0905748 -0.828961,-0.215437 -0.00758268,-0.00333858 -0.0110236,-0.012189 -0.00768504,-0.0197717 0.00333858,-0.00758268 0.012189,-0.0110236 0.0197717,-0.00768504z"/>
  <path class="fil7" d="M2.17978 4.20829c0.190382,0.0445551 0.759193,0.0090315 0.814602,0.129354 0.00496063,0.0107717 0.00488976,0.0192441 0.00279528,0.0304252 -0.00287008,-0.0164764 -0.00411417,-0.0260866 -0.0159173,-0.0395079 -0.0777402,-0.0883858 -0.616772,-0.049685 -0.81252,-0.0923819 -0.00770079,-0.00304724 -0.0114724,-0.0117638 -0.0084252,-0.0194646 0.00304724,-0.00770079 0.0117638,-0.0114724 0.0194646,-0.0084252z"/>
  <path class="fil7" d="M2.5312 4.52182c0.258386,-0.106094 0.305382,-0.0879685 0.580551,-0.0704331l0 1.5748e-005c-0.269398,0.00985827 -0.313949,-0.0150512 -0.565283,0.0962362 -0.00712992,0.00421654 -0.0163268,0.00185433 -0.0205433,-0.00527559 -0.00421654,-0.00712992 -0.00185433,-0.0163268 0.00527559,-0.0205433z"/>
  <path class="fil7" d="M1.92881 1.11719c0.0167598,0.0880118 0.530933,0.586335 0.644425,0.7435 0.0567362,0.0785709 0.0557283,0.0783976 0.153102,0.226126l-0.0875669 -0.114508 -0.077189 -0.104004c-0.126315,-0.165508 -0.640799,-0.635894 -0.662717,-0.749358 -0.000484252,-0.00826772 0.00582677,-0.0153661 0.0140945,-0.0158504 0.00826772,-0.000484252 0.0153661,0.00582677 0.0158504,0.0140945z"/>
  <rect class="fil8" width="6.82666" height="6.82666"/>
 </g>
</svg>
