<?xml version="1.0" encoding="UTF-8"?>
<!DOCTYPE svg PUBLIC "-//W3C//DTD SVG 1.1//EN" "http://www.w3.org/Graphics/SVG/1.1/DTD/svg11.dtd">
<!-- Creator: CorelDRAW -->
<svg xmlns="http://www.w3.org/2000/svg" xml:space="preserve" width="6.82666in" height="6.82666in" style="shape-rendering:geometricPrecision; text-rendering:geometricPrecision; image-rendering:optimizeQuality; fill-rule:evenodd; clip-rule:evenodd"
viewBox="0 0 6.82666 6.82666"
 xmlns:xlink="http://www.w3.org/1999/xlink">
 <defs>
  <style type="text/css">
   <![CDATA[
    .str0 {stroke:#212121;stroke-width:0.00333465;stroke-linecap:round;stroke-linejoin:round}
    .fil8 {fill:none}
    .fil3 {fill:#263238}
    .fil6 {fill:#964508}
    .fil7 {fill:#AD8330}
    .fil1 {fill:#C79B42}
    .fil5 {fill:#CC5B04}
    .fil2 {fill:#CFD8DC}
    .fil4 {fill:#E3F2FD}
    .fil0 {fill:#B88E39;fill-rule:nonzero}
   ]]>
  </style>
 </defs>
 <g id="Layer_x0020_1">
  <metadata id="CorelCorpID_0Corel-Layer"/>
  <g id="_215571528">
   <path id="_215572608" class="fil0" d="M4.20277 5.97333l-0.0696496 0 -0.35102 0 -0.144886 -0.615429c0,0 -0.0308701,0.0323228 0.0983386,0.615429l-0.190913 0 -0.0770669 -0.615429c0,0 -0.0344252,0.0323228 0.0305197,0.615429l-0.188563 0 -0.0115945 -0.615429c0,0 -0.0378622,0.0323228 -0.0349567,0.615429l-0.187429 0 0.052752 -0.615429c0,0 -0.041248,0.0323228 -0.0993031,0.615429l-0.289925 0 -0.0696417 0 0.315043 -0.920819c-0.0936063,-0.154949 -0.360583,-0.382122 -0.360583,-0.641913 0,-0.259791 0.128217,-0.591614 0.325323,-0.762724 0.0817953,-0.451795 0.183803,-0.823654 0.308803,-0.942256 0.0433071,-0.0410866 0.107441,-0.0610472 0.174181,-0.0665591 0.0763465,-0.00630315 0.159484,0.00628346 0.215173,0.027122 0.0685787,0.0256614 0.105665,0.0695591 0.124496,0.101024 0.0576181,0.010378 0.167925,0.0442205 0.18515,0.152181l0.0129724 0.0813386 -0.080815 -0.015311c-0.000708661,-0.000133858 -0.248898,-0.0487087 -0.195902,0.142965 0.0440512,0.159378 0.0829449,0.316299 0.117957,0.471917 0.230953,0.164051 0.385795,0.535591 0.385795,0.810303 0,0.274713 -0.281445,0.469614 -0.374055,0.624063l0.379799 0.938669z"/>
   <g>
    <g>
     <path id="_215572056" class="fil1" d="M3.73343 4.52677c-0.036248,-0.00392126 -0.0586969,-0.0401614 -0.0760591,-0.0687008 -0.0387283,-0.0638189 -0.0553228,-0.129366 -0.0669528,-0.20265 0.0338543,0.0201417 0.086126,0.0304331 0.124791,0.0342244 0.00911417,0.000905512 0.0343622,-0.00515748 0.039689,0.0024685 0.00665354,0.00950394 0.0127677,0.0210866 0.0210236,0.0292874 0.0114252,0.0113071 0.0199961,0.027626 0.0307008,0.0401339 0.0115276,0.0134213 0.0230591,0.0268268 0.0345591,0.040252 0.0109173,0.0127598 0.00509449,0.0147835 -0.00290551,0.03 -0.0114606,0.0217913 -0.0236299,0.0422402 -0.0398425,0.0607402 -0.0175197,0.0199685 -0.0374921,0.0365 -0.0650039,0.0342441zm0.430709 -0.0162441l0 0c-0.0683858,0 -0.145177,-0.00680315 -0.205472,-0.0424921 -0.0784055,-0.0464173 -0.132748,-0.107307 -0.18724,-0.18013 0.0324528,-0.00662598 0.0541772,-0.0161417 0.0777165,-0.0397323 0.07,0.075874 0.159917,0.174665 0.26426,0.200894 -0.0601417,-0.0467165 -0.117079,-0.0974882 -0.173429,-0.148724 -0.0178976,-0.0162362 -0.0795906,-0.0637008 -0.0664055,-0.0830118 0.00519291,-0.00748819 0.0171378,-0.0466339 0.0227402,-0.0488307 0.0146535,-0.00569685 0.0422677,0.0253386 0.0527165,0.0332795 0.0254409,0.0193583 0.0569764,0.0362677 0.0860236,0.0495551 0.0270709,0.0123858 0.0789921,0.0249055 0.100134,0.0438465 0.0225866,0.020185 0.0274567,0.0734055 0.0307126,0.101382 0.00445669,0.0383661 -0.00392913,0.0759961 -0.00175591,0.113965zm0.226067 -0.18639l0 0c-0.165366,0.00645276 -0.337638,-0.075311 -0.475898,-0.15737 0.0468819,-0.00175591 0.102047,-0.00340945 0.144815,-0.0253386 0.0074252,-0.00386614 0.0506457,-0.030815 0.0524567,-0.0297598 0.0267008,0.0154764 0.052874,0.030315 0.0813465,0.042378 0.0993465,0.0421299 0.194508,0.0651614 0.302193,0.0651614 -0.123866,-0.0315 -0.254413,-0.0658819 -0.369173,-0.123154 0.026378,-0.0133583 0.0385079,-0.0507008 0.0489528,-0.0759409 0.0622008,0.0298071 0.133205,0.0501929 0.202189,0.0564528 0.0358622,0.00325197 0.0712441,0.00847638 0.107177,0.0113701 0.0124173,0.00101575 0.0478071,-0.00348425 0.0542953,0.00512992 0.0113465,0.0150157 0.0211535,0.030315 0.0308071,0.0464685 0.0172323,0.0288701 0.031563,0.0583543 0.0414646,0.0904528 0.00630315,0.0205394 0.00885433,0.0246654 -0.00522441,0.0379685 -0.00780315,0.00738583 -0.0230315,0.0134685 -0.0327362,0.0182126 -0.0558307,0.027311 -0.120465,0.0379685 -0.182665,0.0379685zm0.20989 -0.257075l0 0c-0.141984,0 -0.283681,-0.013 -0.423476,-0.0524567 0.00522441,-0.0104213 0.00630315,-0.0211535 0.00815354,-0.0324409 0.00328346,-0.0202087 0.00338189,-0.016437 0.0226496,-0.0217717 0.0285945,-0.00791339 0.0569134,-0.0156142 0.0851299,-0.0252402 0.049878,-0.0169921 0.108453,0.00729528 0.16161,0.0130079 0.105394,0.0112402 0.218201,-0.000185039 0.316079,-0.0402244 -0.142909,0.0105945 -0.282185,0.0173898 -0.425232,0.00548031 0.0494331,-0.0264213 0.0982283,-0.0594528 0.124787,-0.110531 0.0119173,-0.0229843 0.0218819,-0.0433228 0.0280315,-0.0687087 0.00229134,-0.00970866 0.0012126,-0.0274488 0.00841339,-0.0346614 0.0209567,-0.0209488 0.0285945,-0.0144016 0.0558937,-0.018748 0.12861,-0.0204331 0.262697,-0.0478425 0.365476,-0.134803 -0.12224,0.0505157 -0.250272,0.0899291 -0.380035,0.115886 0.0326535,-0.0300984 0.0674882,-0.0596732 0.0924331,-0.0969213 0.00834646,-0.0126102 0.0200984,-0.0500079 0.0305709,-0.0569803 0.0103819,-0.00687795 0.0511535,-0.00707087 0.0646614,-0.0085315 0.0455394,-0.00503937 0.094752,-0.0224094 0.137047,-0.0392717 0.0313701,-0.0124921 0.0971378,-0.0485472 0.128831,-0.0417598 0.0365079,0.00780315 0.0745984,0.0310236 0.102083,0.0551339 0.0203465,0.0178543 0.0273268,0.0201575 0.0197835,0.0451929 -0.00643307,0.021122 -0.0187283,0.0367402 -0.029752,0.0553386 -0.0403268,0.0680984 -0.115551,0.119437 -0.187913,0.148457 -0.13715,0.0548898 -0.288591,0.0945118 -0.437402,0.091248 0.0848268,0.020626 0.17037,-0.00277165 0.25461,-0.0120551 0.0466299,-0.00517717 0.0934764,-0.0375787 0.139028,-0.021374 0.0395866,0.0140787 0.0766575,0.0436102 0.105807,0.0733504 0.0167795,0.0171024 0.0303228,0.0250984 0.0180945,0.0466024 -0.0105118,0.0183898 -0.0232874,0.0338386 -0.037878,0.0491496 -0.0293346,0.0307559 -0.0642717,0.0547559 -0.103598,0.0710551 -0.0759409,0.0315079 -0.161197,0.0495079 -0.243886,0.0465787zm0.0759685 -0.571835l0 0c0.0195906,-0.0361102 0.0248386,-0.0914882 0.0144961,-0.131909 0.153929,-0.0212165 0.290406,-0.092622 0.403433,-0.197343 -0.126858,0.0777126 -0.264445,0.137594 -0.40522,0.184606 -0.00200394,-0.0140984 0.0752953,-0.0459291 0.0895591,-0.0607126 0.0232244,-0.0240118 0.0490157,-0.0427677 0.0678386,-0.071437 0.00933858,-0.0143307 0.0188228,-0.0292874 0.0255157,-0.0451142 0.0149055,-0.0352638 0.0363346,-0.0315 0.0734173,-0.0404016 0.0392992,-0.00942913 0.0750039,-0.0272638 0.110929,-0.044878 0.0388583,-0.0190787 0.0766969,-0.0393622 0.11326,-0.0626339 0.0318504,-0.0202559 0.0567205,-0.0280315 0.0858701,0.00305906 0.00919685,0.00985827 0.0188228,0.016311 0.0252835,0.0289646 0.00923622,0.0179291 -0.0128661,0.0457717 -0.0217795,0.0616024 -0.021689,0.0386969 -0.0462795,0.0747165 -0.0740906,0.109386 -0.121378,0.15135 -0.320949,0.234898 -0.508512,0.266811zm0.208039 -0.34926l0 0c0.0103189,-0.0190236 0.0158268,-0.0408425 0.021752,-0.0614055 0.00255512,-0.00890945 0.00640945,-0.0190906 0.00764567,-0.028122 0.00324803,-0.0235472 0.00238583,-0.0221339 0.0230945,-0.0298622 0.0474921,-0.017748 0.089689,-0.0380866 0.133638,-0.0633937 0.0809685,-0.0465669 0.17289,-0.114469 0.21735,-0.198953 -0.118992,0.0934685 -0.234925,0.183551 -0.369016,0.25511 0.00700787,-0.0382402 0.0122598,-0.041122 0.0400039,-0.0671299 0.0242047,-0.0225748 0.0491102,-0.0443307 0.0744331,-0.0657677 0.0403543,-0.0341142 0.0667835,-0.0929685 0.112142,-0.116748 0.110421,-0.057874 0.197409,-0.142909 0.283626,-0.231772 0.00914567,0.0817638 0.00448425,0.151256 -0.0315984,0.226362 -0.0293976,0.0610669 -0.0716929,0.107169 -0.119307,0.154551 -0.106346,0.105902 -0.256677,0.172264 -0.393764,0.22713 0.0625906,-0.0964055 0.125114,-0.19285 0.187665,-0.28924 0.0213386,-0.0328189 0.0432205,-0.0652756 0.0626142,-0.0992795 0.0242992,-0.0425669 0.0265276,-0.0865512 0.0329961,-0.13348 0.00251575,-0.0187126 9.44882e-005,-0.0398937 -0.00222835,-0.0585866 -0.00362992,-0.0294803 0.0170394,-0.0394764 0.0376102,-0.0600354 0.0300079,-0.03 0.0737008,-0.0530787 0.107752,-0.0793622 0.0689567,-0.0531654 0.122717,-0.125547 0.163488,-0.201079 -0.0542795,0.0537441 -0.108575,0.107409 -0.162878,0.161142 0.0232126,-0.0263661 0.0342992,-0.0684606 0.0390394,-0.102335 0.00503937,-0.035878 -0.00324409,-0.0950079 0.0153858,-0.122016 0.0203189,-0.0292677 0.0533504,-0.0546732 0.0765394,-0.0824921 0.0199685,-0.023937 0.0375787,-0.0485354 0.0501614,-0.0769016 0.178043,0.0736732 0.0149409,0.362008 -0.0418228,0.47624 -0.0202835,0.0407795 -0.070189,0.0842402 -0.104366,0.115276 -0.034689,0.0315551 -0.066315,0.0670197 -0.102787,0.096815 -0.0388583,0.0316811 -0.0805433,0.059937 -0.12122,0.0892874 -0.0277638,0.02 -0.0502205,0.0767638 -0.0685709,0.105016 -0.0564409,0.0870236 -0.112909,0.173992 -0.169378,0.261031z"/>
     <path id="_215571768" class="fil1" d="M4.40651 4.92125c-0.191988,-0.020878 -0.367193,-0.0753386 -0.499441,-0.223492 -0.0290787,-0.0325039 -0.0589843,-0.065315 -0.0814685,-0.102941 -0.0105118,-0.0175669 -0.0230276,-0.0340945 -0.0344921,-0.0510512 -0.00350394,-0.00523228 0.0295906,-0.0422047 0.0350945,-0.0487874 0.00748819,-0.00894882 0.0274567,-0.050189 0.0365354,-0.0450315 0.0195512,0.0110827 0.0421024,0.0210236 0.0606102,0.0333465 0.0299055,0.0199685 0.0470118,0.0645748 0.0706417,0.0941969 0.0377087,0.0472165 0.0801063,0.0901693 0.126665,0.128425 0.041185,0.0338071 0.0964449,0.0798386 0.15011,0.0906378 -0.0512165,-0.0488425 -0.111697,-0.0882559 -0.161925,-0.138547 -0.0535394,-0.0534921 -0.105709,-0.105909 -0.154791,-0.16372 0.0317874,0.0109646 0.214827,0.0724528 0.228909,0.0298543 0.0228071,-0.0689528 -0.000988189,-0.140295 -0.0170669,-0.207248 0.0433386,0.00676772 0.0839803,0.0237323 0.128413,0.0290039 0.0444961,0.00526772 0.086311,0.00348425 0.130902,0.00348425 0.0404843,0 0.0846535,-0.0106969 0.122469,-0.0249173 0.0229252,-0.00866929 0.105354,-0.0314055 0.10861,-0.0545354 0.116024,0.0339764 0.251512,0.0538346 0.369004,0.0179803 -0.0949094,0 -0.194441,-0.0106299 -0.287917,-0.0266417 -0.0228976,-0.00391339 -0.0456772,-0.00716535 -0.0683858,-0.0122953 -0.0249331,-0.00560236 -0.019748,-0.0241417 -0.0292047,-0.0460039 -0.0168819,-0.039189 -0.0402874,-0.0800354 -0.0704173,-0.110425 0.142075,0 0.28837,-0.0143661 0.396213,-0.117642 0.00758268,-0.00728346 0.0307677,-0.0427677 0.0380906,-0.0407165 0.0172323,0.00469685 0.0351654,0.00286614 0.0526142,0.00498425 0.041315,0.00493701 0.0858661,0.00226378 0.127181,-0.00180315 0.076374,-0.00746063 0.149476,-0.0223071 0.218331,-0.0566417 -0.128201,0.0201417 -0.257315,0.0344646 -0.387236,0.0344646 0.0144606,-0.0198583 0.0141457,-0.0228819 0.00172047,-0.0424724 -0.0101614,-0.0161063 -0.0228346,-0.0309449 -0.0361772,-0.0444488 -0.0295551,-0.0298071 -0.066563,-0.0495 -0.103193,-0.0687008 0.0601299,-0.0261457 0.12074,-0.0552402 0.171866,-0.0959803 0.0245827,-0.0195827 0.0535945,-0.0453386 0.0679606,-0.0741575 0.00744882,-0.0149843 0.0161496,-0.0290669 0.0222598,-0.0446417 0.011122,-0.0282992 0.0173898,-0.0214882 0.0409291,-0.0357992 0.0287598,-0.017563 0.0633819,-0.0276339 0.0931969,-0.0444567 0.0260827,-0.0147362 0.0520433,-0.0300394 0.0768819,-0.0468465 0.0549449,-0.0371181 0.0961299,-0.0843031 0.138457,-0.134079 -0.0832913,0.0575472 -0.163008,0.121791 -0.252287,0.170016 -0.0220039,0.0119055 -0.0437598,0.0241102 -0.0660866,0.0353504 -0.0275866,0.0138858 -0.031248,-0.0174252 -0.049874,-0.0362205 -0.0234764,-0.0236772 -0.054815,-0.0428976 -0.087689,-0.0497283 0.096378,-0.0804685 0.187248,-0.158693 0.249705,-0.268228 0.00697244,-0.012248 0.011752,-0.0261417 0.0167559,-0.0392717 0.00381496,-0.0100748 0.00398425,-0.0386614 0.00687795,-0.0434685 0.00525984,-0.00888583 0.0325512,-0.022126 0.0417205,-0.027811 0.0150039,-0.00929921 0.0282244,-0.0200591 0.0414724,-0.0317008 0.0479921,-0.042063 0.0831614,-0.0859488 0.122941,-0.134106 -0.071122,0.0598425 -0.144823,0.114516 -0.220622,0.168146 -0.0114646,-0.0175551 -0.0296575,-0.0322559 -0.0490157,-0.0414803 0.0513071,-0.034937 0.0896181,-0.0846654 0.129051,-0.131445 0.0437913,-0.0519764 0.0615984,-0.11552 0.082752,-0.178071 0.00562992,-0.0168701 0.00403937,-0.0364252 0.00489764,-0.0540827 0.000834646,-0.0170866 0.0150315,-0.0239173 0.0274882,-0.0350669 0.0256063,-0.0229016 0.0487008,-0.0493031 0.0706772,-0.0755039 0.0388543,-0.0462244 0.0914055,-0.112539 0.101382,-0.173854 -0.0587362,0.0856181 -0.130244,0.163177 -0.20085,0.239039 -0.00451969,-0.0294803 -0.0091063,-0.0434134 0.00416929,-0.0697992 0.00984646,-0.0195433 0.0211535,-0.0382835 0.0304173,-0.0580945 0.0195906,-0.0419646 0.0395866,-0.0840197 0.0558386,-0.127398 0.0298071,-0.0794882 0.0658268,-0.181709 0.0362795,-0.266043 -0.00634252,-0.0179449 -0.0151339,-0.0333465 -0.0276535,-0.0479803 -0.0162165,-0.019 -0.0450039,-0.0230039 -0.0341417,-0.046874 0.0190157,-0.0419921 0.0373858,-0.0929016 0.0445906,-0.1385 0.00726378,-0.0456693 0.0154488,-0.0893346 0.0189134,-0.135661 0.00156299,-0.0207638 -0.00388189,-0.0511535 0.00200787,-0.0706969 0.00602756,-0.0200157 0.0296575,-0.0437362 0.0416654,-0.0607756 0.149945,-0.21211 0.239512,-0.461736 0.334524,-0.700961 0.0108898,0.197457 -0.0337008,0.387795 -0.101602,0.571917 -0.0657717,0.178394 -0.163138,0.357846 -0.279295,0.508496 -0.00510236,0.00659843 -0.0102598,0.0132205 -0.0153189,0.0198307 0.0635709,-0.0533543 0.106283,-0.121646 0.154181,-0.18772 0.0383465,-0.052874 0.0744331,-0.154736 0.151638,-0.156232 -0.0280236,0.126953 -0.0605748,0.248339 -0.119437,0.365559 -0.0601299,0.119803 -0.126,0.238335 -0.204567,0.34739 0.0693031,-0.0565984 0.139917,-0.118429 0.220913,-0.157386 0.0102244,-0.0048937 0.06,-0.0321102 0.0723858,-0.0162441 0.0100669,0.0128976 -0.0437913,0.105394 -0.0518465,0.121551 -0.0850079,0.170563 -0.180783,0.330724 -0.317638,0.465028 -0.0182874,0.0179331 -0.0368504,0.0352323 -0.0575512,0.0504213 0.0739764,-0.028252 0.153161,-0.072378 0.234248,-0.072378 0.0128346,0 0.0222992,0.000767717 0.0343661,0.00456693 0.0137008,0.00439764 -0.0108268,0.0424409 -0.0159213,0.0524567 -0.0199685,0.0396614 -0.0366299,0.0804843 -0.0579646,0.11963 -0.0869213,0.15978 -0.205276,0.287953 -0.375831,0.357173 0.0719449,0.00282677 0.149307,-0.0478898 0.213228,-0.0755709 0.0707717,-0.0307205 0.153524,-0.0328189 0.224709,-0.00235827 -0.0760866,0.152469 -0.17202,0.297894 -0.302996,0.409398 -0.129339,0.110157 -0.273559,0.173965 -0.440638,0.200665 0.113827,0 0.227346,-0.00922835 0.341051,-0.00922835 0.111791,0 0.224504,0.0227441 0.330157,0.0579685 -0.047815,0.0697913 -0.0971732,0.123512 -0.170079,0.168343 -0.0715394,0.0439685 -0.150843,0.0801063 -0.232154,0.101925 -0.172087,0.0460315 -0.352209,0.056626 -0.527827,0.0247402 0.090622,0.0303898 0.181232,0.0452283 0.276815,0.0452283 0.0397165,0 0.0908701,-0.0126299 0.129181,-0.00038189 0.0316929,0.0101142 0.061311,0.0239724 0.0880945,0.0438425 0.0189528,0.0140512 0.0370748,0.0311654 0.0479016,0.0524646 0.00257874,0.00518504 0.0120079,0.023437 0.00799606,0.0271339 -0.018563,0.016937 -0.0377126,0.0334567 -0.0576142,0.0488228 -0.081378,0.0627638 -0.178866,0.0902598 -0.279709,0.0986535 -0.150492,0.0125197 -0.300307,-0.0299094 -0.442303,-0.0751614 0.144287,0.0586772 0.370709,0.159642 0.408992,0.3295 0.00652756,0.0289567 0.0125472,0.0451181 -0.0174921,0.0538268 -0.0232402,0.00674016 -0.0462441,0.0118976 -0.0701339,0.0160591 -0.0426102,0.00743307 -0.0886299,0.00573228 -0.131472,0.000570866 -0.0957402,-0.0115354 -0.186323,-0.0418898 -0.270445,-0.088685 -0.0568465,-0.0316024 -0.108575,-0.0717165 -0.151,-0.121157 0.074185,0.114528 0.173394,0.229047 0.197122,0.36726zm0.25324 -0.314795l0 0c-0.0733189,-0.0343346 -0.145839,-0.0699843 -0.21613,-0.110201 -0.0681614,-0.0389488 -0.144,-0.0804764 -0.201799,-0.134161 0.0343898,0.0660079 0.11428,0.115091 0.175398,0.153335 0.071878,0.0449606 0.156988,0.0840591 0.242531,0.0910276z"/>
     <path id="_215571744" class="fil1" d="M3.73871 4.25542c-0.0255157,0.00170079 -0.0540157,-0.00800787 -0.077748,-0.0164843 -0.0148386,-0.00527165 -0.0289213,-0.0108268 -0.0424252,-0.0188898 -0.0242047,-0.0143937 -0.0225787,-0.0155394 -0.0199724,-0.0442992 0.00248819,-0.0280709 -0.00222835,-0.0299567 0.0253228,-0.0343858 0.0138583,-0.00219685 0.0271063,-0.00495276 0.0406772,-0.00822441 0.0274882,-0.00659449 0.0529291,-0.0178346 0.0774291,-0.0317402 0.0177953,-0.0100866 0.0641417,0.0239646 0.0836299,0.0336142 0.00729528,0.00363386 0.0429055,0.0182323 0.0404213,0.0236024 -0.00805512,0.0171339 -0.0157638,0.0330433 -0.0276457,0.0478898 -0.0244882,0.0305906 -0.0608307,0.0499528 -0.099689,0.0489173zm0.159339 -0.112181l0 0c-0.0425157,-0.0187677 -0.0847126,-0.0378031 -0.12663,-0.0579213 0.0624606,-0.0393465 0.12052,-0.0850354 0.183524,-0.123567 0.016752,-0.0102087 0.0341417,-0.0194803 0.0513386,-0.0290394 0.0200354,-0.0111772 0.0237874,-0.00800394 0.0454213,-0.00302362 0.0176772,0.00405118 0.0895276,0.00738583 0.0997165,0.0197402 0.00977953,0.0119055 -0.00630709,0.0646693 -0.0127402,0.0778031 -0.00929921,0.0190669 -0.0253228,0.0484449 -0.0450984,0.0580591 -0.0283425,0.0138425 -0.0505118,0.0291969 -0.0815945,0.0379803 -0.0378701,0.0107323 -0.0746654,0.0159764 -0.113937,0.0199685zm0.278563 -0.213551l0 0c-0.0436654,-0.00606299 -0.0854134,-0.0136614 -0.128386,-0.0234803 0.0651693,-0.0548228 0.13702,-0.110016 0.187783,-0.179335 0.0168543,-0.022937 0.0212205,-0.0363898 0.0510236,-0.0316732 0.0221417,0.00351181 0.0464764,0.000866142 0.0688307,0.000866142 0.0375512,0 0.0744685,-0.00183071 0.112047,-0.00348425 -0.0081811,0.0641142 -0.0276142,0.121091 -0.0813346,0.161862 -0.0617953,0.0469449 -0.135406,0.0618661 -0.209965,0.0752441 0.0370433,-0.0968031 0.0665354,-0.200461 0.119472,-0.289563 0.0457717,-0.0770748 0.0719449,-0.167724 0.0743031,-0.25739 0.000700787,-0.0257559 -0.00850394,-0.0560433 0.0159016,-0.0682756 0.0227992,-0.0115 0.0428307,-0.0259882 0.0645197,-0.0390512 0.0412165,-0.0247126 0.0757717,-0.062248 0.108965,-0.0962953 0.0573543,-0.0589173 0.108768,-0.134406 0.13628,-0.211913 0.0707441,-0.198854 0.148362,-0.393728 0.250539,-0.578843 0.046622,-0.0844331 0.107299,-0.163646 0.17574,-0.231457 0.076122,-0.0753583 0.161,-0.139205 0.22872,-0.222925 0.0931614,-0.115224 0.148957,-0.263854 0.197122,-0.402094 0.015374,0.16074 -0.00580315,0.337961 -0.0922087,0.477669 -0.0430906,0.0696535 -0.112339,0.136394 -0.179059,0.183709 -0.0682559,0.0484646 -0.13161,0.107417 -0.209898,0.140283 0.0977205,-0.0296181 0.177882,-0.0930512 0.256807,-0.15563 0.00159843,0.0516063 0.00270866,0.0983661 -0.0179606,0.146638 -0.0217559,0.0508465 -0.0629685,0.104634 -0.105902,0.139291 -0.106634,0.0859331 -0.211287,0.155079 -0.335764,0.21174 0.0434173,-0.0177795 0.0877165,-0.0270866 0.130394,-0.049 0.048063,-0.0246732 0.0927165,-0.0507992 0.137398,-0.0814094 0.00493701,0.0641969 0.00861024,0.124232 -0.0179882,0.184602 -0.0262126,0.0594094 -0.0710591,0.105488 -0.11613,0.150587 -0.0911181,0.091126 -0.208232,0.15135 -0.323594,0.204201 0.0368228,-0.0153622 0.0768937,-0.0234528 0.113965,-0.0397598 0.0366575,-0.0160984 0.070252,-0.0380433 0.104913,-0.0579488 -0.0238898,0.119638 -0.0584488,0.213402 -0.157276,0.288555 -0.0973031,0.0738976 -0.238016,0.0919685 -0.354594,0.111366 0.0444961,-0.00248819 0.0872441,-0.00257874 0.131835,-0.00864567 0.0489173,-0.00669291 0.0963425,-0.0235551 0.143169,-0.0385394 0.0163622,0.145331 -0.0542126,0.246138 -0.172374,0.324795 -0.0203858,0.013563 -0.0718898,0.00998425 -0.0976575,0.00998425 -0.0192638,0 -0.107555,-0.0114567 -0.114311,0.00622047 -0.031748,0.0830197 -0.0635354,0.166087 -0.0953268,0.249098z"/>
    </g>
    <g>
     <path id="_215572008" class="fil1" d="M3.08795 4.25542c0.0255157,0.00170079 0.0540157,-0.00800787 0.077748,-0.0164843 0.0148386,-0.00527165 0.0289213,-0.0108268 0.0424252,-0.0188898 0.0242047,-0.0143937 0.0225787,-0.0155394 0.0199724,-0.0442992 -0.00248819,-0.0280709 0.00222835,-0.0299567 -0.0253228,-0.0343858 -0.0138583,-0.00219685 -0.0271063,-0.00495276 -0.0406772,-0.00822441 -0.0274882,-0.00659449 -0.0529291,-0.0178346 -0.0774291,-0.0317402 -0.0177953,-0.0100866 -0.0641417,0.0239646 -0.0836299,0.0336142 -0.00729528,0.00363386 -0.0429055,0.0182323 -0.0404213,0.0236024 0.00805512,0.0171339 0.0157638,0.0330433 0.0276457,0.0478898 0.0244882,0.0305906 0.0608307,0.0499528 0.099689,0.0489173zm-0.159339 -0.112181l0 0c0.0425157,-0.0187677 0.0847126,-0.0378031 0.12663,-0.0579213 -0.0624606,-0.0393465 -0.12052,-0.0850354 -0.183524,-0.123567 -0.016752,-0.0102087 -0.0341417,-0.0194803 -0.0513386,-0.0290394 -0.0200354,-0.0111772 -0.0237874,-0.00800394 -0.0454213,-0.00302362 -0.0176772,0.00405118 -0.0895276,0.00738583 -0.0997165,0.0197402 -0.00977953,0.0119055 0.00630709,0.0646693 0.0127402,0.0778031 0.00929921,0.0190669 0.0253228,0.0484449 0.0450984,0.0580591 0.0283425,0.0138425 0.0505118,0.0291969 0.0815945,0.0379803 0.0378701,0.0107323 0.0746654,0.0159764 0.113937,0.0199685zm-0.278563 -0.213551l0 0c0.0436654,-0.00606299 0.0854134,-0.0136614 0.128386,-0.0234803 -0.0651693,-0.0548228 -0.13702,-0.110016 -0.187783,-0.179335 -0.0168543,-0.022937 -0.0212205,-0.0363898 -0.0510236,-0.0316732 -0.0221417,0.00351181 -0.0464764,0.000866142 -0.0688307,0.000866142 -0.0375512,0 -0.0744685,-0.00183071 -0.112047,-0.00348425 0.0081811,0.0641142 0.0276142,0.121091 0.0813346,0.161862 0.0617953,0.0469449 0.135406,0.0618661 0.209965,0.0752441 -0.0370433,-0.0968031 -0.0665354,-0.200461 -0.119472,-0.289563 -0.0457717,-0.0770748 -0.0719449,-0.167724 -0.0743031,-0.25739 -0.000700787,-0.0257559 0.00850394,-0.0560433 -0.0159016,-0.0682756 -0.0227992,-0.0115 -0.0428307,-0.0259882 -0.0645197,-0.0390512 -0.0412165,-0.0247126 -0.0757717,-0.062248 -0.108965,-0.0962953 -0.0573543,-0.0589173 -0.108768,-0.134406 -0.13628,-0.211913 -0.0707441,-0.198854 -0.148362,-0.393728 -0.250539,-0.578843 -0.046622,-0.0844331 -0.107299,-0.163646 -0.17574,-0.231457 -0.076122,-0.0753583 -0.161,-0.139205 -0.22872,-0.222925 -0.0931614,-0.115224 -0.148957,-0.263854 -0.197122,-0.402094 -0.015374,0.16074 0.00580315,0.337961 0.0922087,0.477669 0.0430906,0.0696535 0.112339,0.136394 0.179059,0.183709 0.0682559,0.0484646 0.13161,0.107417 0.209898,0.140283 -0.0977205,-0.0296181 -0.177882,-0.0930512 -0.256807,-0.15563 -0.00159843,0.0516063 -0.00270866,0.0983661 0.0179606,0.146638 0.0217559,0.0508465 0.0629685,0.104634 0.105902,0.139291 0.106634,0.0859331 0.211287,0.155079 0.335764,0.21174 -0.0434173,-0.0177795 -0.0877165,-0.0270866 -0.130394,-0.049 -0.048063,-0.0246732 -0.0927165,-0.0507992 -0.137398,-0.0814094 -0.00493701,0.0641969 -0.00861024,0.124232 0.0179882,0.184602 0.0262126,0.0594094 0.0710591,0.105488 0.11613,0.150587 0.0911181,0.091126 0.208232,0.15135 0.323594,0.204201 -0.0368228,-0.0153622 -0.0768937,-0.0234528 -0.113965,-0.0397598 -0.0366575,-0.0160984 -0.070252,-0.0380433 -0.104913,-0.0579488 0.0238898,0.119638 0.0584488,0.213402 0.157276,0.288555 0.0973031,0.0738976 0.238016,0.0919685 0.354594,0.111366 -0.0444961,-0.00248819 -0.0872441,-0.00257874 -0.131835,-0.00864567 -0.0489173,-0.00669291 -0.0963425,-0.0235551 -0.143169,-0.0385394 -0.0163622,0.145331 0.0542126,0.246138 0.172374,0.324795 0.0203858,0.013563 0.0718898,0.00998425 0.0976575,0.00998425 0.0192638,0 0.107555,-0.0114567 0.114311,0.00622047 0.031748,0.0830197 0.0635354,0.166087 0.0953268,0.249098z"/>
     <path id="_215571864" class="fil1" d="M3.09324 4.52677c0.036248,-0.00392126 0.0586969,-0.0401614 0.0760591,-0.0687008 0.0387283,-0.0638189 0.0553228,-0.129366 0.0669528,-0.20265 -0.0338543,0.0201417 -0.086126,0.0304331 -0.124791,0.0342244 -0.00911417,0.000905512 -0.0343622,-0.00515748 -0.039689,0.0024685 -0.00665354,0.00950394 -0.0127677,0.0210866 -0.0210236,0.0292874 -0.0114252,0.0113071 -0.0199961,0.027626 -0.0307008,0.0401339 -0.0115276,0.0134213 -0.0230591,0.0268268 -0.0345591,0.040252 -0.0109173,0.0127598 -0.00509449,0.0147835 0.00290551,0.03 0.0114606,0.0217913 0.0236299,0.0422402 0.0398425,0.0607402 0.0175197,0.0199685 0.0374921,0.0365 0.0650039,0.0342441zm-0.430709 -0.0162441l0 0c0.0683858,0 0.145177,-0.00680315 0.205472,-0.0424921 0.0784055,-0.0464173 0.132748,-0.107307 0.18724,-0.18013 -0.0324528,-0.00662598 -0.0541772,-0.0161417 -0.0777165,-0.0397323 -0.07,0.075874 -0.159917,0.174665 -0.26426,0.200894 0.0601417,-0.0467165 0.117079,-0.0974882 0.173429,-0.148724 0.0178976,-0.0162362 0.0795906,-0.0637008 0.0664055,-0.0830118 -0.00519291,-0.00748819 -0.0171378,-0.0466339 -0.0227402,-0.0488307 -0.0146535,-0.00569685 -0.0422677,0.0253386 -0.0527165,0.0332795 -0.0254409,0.0193583 -0.0569764,0.0362677 -0.0860236,0.0495551 -0.0270709,0.0123858 -0.0789921,0.0249055 -0.100134,0.0438465 -0.0225866,0.020185 -0.0274567,0.0734055 -0.0307126,0.101382 -0.00445669,0.0383661 0.00392913,0.0759961 0.00175591,0.113965zm-0.226067 -0.18639l0 0c0.165366,0.00645276 0.337638,-0.075311 0.475898,-0.15737 -0.0468819,-0.00175591 -0.102047,-0.00340945 -0.144815,-0.0253386 -0.0074252,-0.00386614 -0.0506457,-0.030815 -0.0524567,-0.0297598 -0.0267008,0.0154764 -0.052874,0.030315 -0.0813465,0.042378 -0.0993465,0.0421299 -0.194508,0.0651614 -0.302193,0.0651614 0.123866,-0.0315 0.254413,-0.0658819 0.369173,-0.123154 -0.026378,-0.0133583 -0.0385079,-0.0507008 -0.0489528,-0.0759409 -0.0622008,0.0298071 -0.133205,0.0501929 -0.202189,0.0564528 -0.0358622,0.00325197 -0.0712441,0.00847638 -0.107177,0.0113701 -0.0124173,0.00101575 -0.0478071,-0.00348425 -0.0542953,0.00512992 -0.0113465,0.0150157 -0.0211535,0.030315 -0.0308071,0.0464685 -0.0172323,0.0288701 -0.031563,0.0583543 -0.0414646,0.0904528 -0.00630315,0.0205394 -0.00885433,0.0246654 0.00522441,0.0379685 0.00780315,0.00738583 0.0230315,0.0134685 0.0327362,0.0182126 0.0558307,0.027311 0.120465,0.0379685 0.182665,0.0379685zm-0.20989 -0.257075l0 0c0.141984,0 0.283681,-0.013 0.423476,-0.0524567 -0.00522441,-0.0104213 -0.00630315,-0.0211535 -0.00815354,-0.0324409 -0.00328346,-0.0202087 -0.00338189,-0.016437 -0.0226496,-0.0217717 -0.0285945,-0.00791339 -0.0569134,-0.0156142 -0.0851299,-0.0252402 -0.049878,-0.0169921 -0.108453,0.00729528 -0.16161,0.0130079 -0.105394,0.0112402 -0.218201,-0.000185039 -0.316079,-0.0402244 0.142909,0.0105945 0.282185,0.0173898 0.425232,0.00548031 -0.0494331,-0.0264213 -0.0982283,-0.0594528 -0.124787,-0.110531 -0.0119173,-0.0229843 -0.0218819,-0.0433228 -0.0280315,-0.0687087 -0.00229134,-0.00970866 -0.0012126,-0.0274488 -0.00841339,-0.0346614 -0.0209567,-0.0209488 -0.0285945,-0.0144016 -0.0558937,-0.018748 -0.12861,-0.0204331 -0.262697,-0.0478425 -0.365476,-0.134803 0.12224,0.0505157 0.250272,0.0899291 0.380035,0.115886 -0.0326535,-0.0300984 -0.0674882,-0.0596732 -0.0924331,-0.0969213 -0.00834646,-0.0126102 -0.0200984,-0.0500079 -0.0305709,-0.0569803 -0.0103819,-0.00687795 -0.0511535,-0.00707087 -0.0646614,-0.0085315 -0.0455394,-0.00503937 -0.094752,-0.0224094 -0.137047,-0.0392717 -0.0313701,-0.0124921 -0.0971378,-0.0485472 -0.128831,-0.0417598 -0.0365079,0.00780315 -0.0745984,0.0310236 -0.102083,0.0551339 -0.0203465,0.0178543 -0.0273268,0.0201575 -0.0197835,0.0451929 0.00643307,0.021122 0.0187283,0.0367402 0.029752,0.0553386 0.0403268,0.0680984 0.115551,0.119437 0.187913,0.148457 0.13715,0.0548898 0.288591,0.0945118 0.437402,0.091248 -0.0848268,0.020626 -0.17037,-0.00277165 -0.25461,-0.0120551 -0.0466299,-0.00517717 -0.0934764,-0.0375787 -0.139028,-0.021374 -0.0395866,0.0140787 -0.0766575,0.0436102 -0.105807,0.0733504 -0.0167795,0.0171024 -0.0303228,0.0250984 -0.0180945,0.0466024 0.0105118,0.0183898 0.0232874,0.0338386 0.037878,0.0491496 0.0293346,0.0307559 0.0642717,0.0547559 0.103598,0.0710551 0.0759409,0.0315079 0.161197,0.0495079 0.243886,0.0465787zm-0.0759685 -0.571835l0 0c-0.0195906,-0.0361102 -0.0248386,-0.0914882 -0.0144961,-0.131909 -0.153929,-0.0212165 -0.290406,-0.092622 -0.403433,-0.197343 0.126858,0.0777126 0.264445,0.137594 0.40522,0.184606 0.00200394,-0.0140984 -0.0752953,-0.0459291 -0.0895591,-0.0607126 -0.0232244,-0.0240118 -0.0490157,-0.0427677 -0.0678386,-0.071437 -0.00933858,-0.0143307 -0.0188228,-0.0292874 -0.0255157,-0.0451142 -0.0149055,-0.0352638 -0.0363346,-0.0315 -0.0734173,-0.0404016 -0.0392992,-0.00942913 -0.0750039,-0.0272638 -0.110929,-0.044878 -0.0388583,-0.0190787 -0.0766969,-0.0393622 -0.11326,-0.0626339 -0.0318504,-0.0202559 -0.0567205,-0.0280315 -0.0858701,0.00305906 -0.00919685,0.00985827 -0.0188228,0.016311 -0.0252835,0.0289646 -0.00923622,0.0179291 0.0128661,0.0457717 0.0217795,0.0616024 0.021689,0.0386969 0.0462795,0.0747165 0.0740906,0.109386 0.121378,0.15135 0.320949,0.234898 0.508512,0.266811zm-0.208039 -0.34926l0 0c-0.0103189,-0.0190236 -0.0158268,-0.0408425 -0.021752,-0.0614055 -0.00255512,-0.00890945 -0.00640945,-0.0190906 -0.00764567,-0.028122 -0.00324803,-0.0235472 -0.00238583,-0.0221339 -0.0230945,-0.0298622 -0.0474921,-0.017748 -0.089689,-0.0380866 -0.133638,-0.0633937 -0.0809685,-0.0465669 -0.17289,-0.114469 -0.21735,-0.198953 0.118992,0.0934685 0.234925,0.183551 0.369016,0.25511 -0.00700787,-0.0382402 -0.0122598,-0.041122 -0.0400039,-0.0671299 -0.0242047,-0.0225748 -0.0491102,-0.0443307 -0.0744331,-0.0657677 -0.0403543,-0.0341142 -0.0667835,-0.0929685 -0.112142,-0.116748 -0.110421,-0.057874 -0.197409,-0.142909 -0.283626,-0.231772 -0.00914567,0.0817638 -0.00448425,0.151256 0.0315984,0.226362 0.0293976,0.0610669 0.0716929,0.107169 0.119307,0.154551 0.106346,0.105902 0.256677,0.172264 0.393764,0.22713 -0.0625906,-0.0964055 -0.125114,-0.19285 -0.187665,-0.28924 -0.0213386,-0.0328189 -0.0432205,-0.0652756 -0.0626142,-0.0992795 -0.0242992,-0.0425669 -0.0265276,-0.0865512 -0.0329961,-0.13348 -0.00251575,-0.0187126 -9.44882e-005,-0.0398937 0.00222835,-0.0585866 0.00362992,-0.0294803 -0.0170394,-0.0394764 -0.0376102,-0.0600354 -0.0300079,-0.03 -0.0737008,-0.0530787 -0.107752,-0.0793622 -0.0689567,-0.0531654 -0.122717,-0.125547 -0.163488,-0.201079 0.0542795,0.0537441 0.108575,0.107409 0.162878,0.161142 -0.0232126,-0.0263661 -0.0342992,-0.0684606 -0.0390394,-0.102335 -0.00503937,-0.035878 0.00324409,-0.0950079 -0.0153858,-0.122016 -0.0203189,-0.0292677 -0.0533504,-0.0546732 -0.0765394,-0.0824921 -0.0199685,-0.023937 -0.0375787,-0.0485354 -0.0501614,-0.0769016 -0.178043,0.0736732 -0.0149409,0.362008 0.0418228,0.47624 0.0202835,0.0407795 0.070189,0.0842402 0.104366,0.115276 0.034689,0.0315551 0.066315,0.0670197 0.102787,0.096815 0.0388583,0.0316811 0.0805433,0.059937 0.12122,0.0892874 0.0277638,0.02 0.0502205,0.0767638 0.0685709,0.105016 0.0564409,0.0870236 0.112909,0.173992 0.169378,0.261031z"/>
     <path id="_215572248" class="fil1" d="M2.42015 4.92125c0.191988,-0.020878 0.367193,-0.0753386 0.499441,-0.223492 0.0290787,-0.0325039 0.0589843,-0.065315 0.0814685,-0.102941 0.0105118,-0.0175669 0.0230276,-0.0340945 0.0344921,-0.0510512 0.00350394,-0.00523228 -0.0295906,-0.0422047 -0.0350945,-0.0487874 -0.00748819,-0.00894882 -0.0274567,-0.050189 -0.0365354,-0.0450315 -0.0195512,0.0110827 -0.0421024,0.0210236 -0.0606102,0.0333465 -0.0299055,0.0199685 -0.0470118,0.0645748 -0.0706417,0.0941969 -0.0377087,0.0472165 -0.0801063,0.0901693 -0.126665,0.128425 -0.041185,0.0338071 -0.0964449,0.0798386 -0.15011,0.0906378 0.0512165,-0.0488425 0.111697,-0.0882559 0.161925,-0.138547 0.0535394,-0.0534921 0.105709,-0.105909 0.154791,-0.16372 -0.0317874,0.0109646 -0.214827,0.0724528 -0.228909,0.0298543 -0.0228071,-0.0689528 0.000988189,-0.140295 0.0170669,-0.207248 -0.0433386,0.00676772 -0.0839803,0.0237323 -0.128413,0.0290039 -0.0444961,0.00526772 -0.086311,0.00348425 -0.130902,0.00348425 -0.0404843,0 -0.0846535,-0.0106969 -0.122469,-0.0249173 -0.0229252,-0.00866929 -0.105354,-0.0314055 -0.10861,-0.0545354 -0.116024,0.0339764 -0.251512,0.0538346 -0.369004,0.0179803 0.0949094,0 0.194441,-0.0106299 0.287917,-0.0266417 0.0228976,-0.00391339 0.0456772,-0.00716535 0.0683858,-0.0122953 0.0249331,-0.00560236 0.019748,-0.0241417 0.0292047,-0.0460039 0.0168819,-0.039189 0.0402874,-0.0800354 0.0704173,-0.110425 -0.142075,0 -0.28837,-0.0143661 -0.396213,-0.117642 -0.00758268,-0.00728346 -0.0307677,-0.0427677 -0.0380906,-0.0407165 -0.0172323,0.00469685 -0.0351654,0.00286614 -0.0526142,0.00498425 -0.041315,0.00493701 -0.0858661,0.00226378 -0.127181,-0.00180315 -0.076374,-0.00746063 -0.149476,-0.0223071 -0.218331,-0.0566417 0.128201,0.0201417 0.257315,0.0344646 0.387236,0.0344646 -0.0144606,-0.0198583 -0.0141457,-0.0228819 -0.00172047,-0.0424724 0.0101614,-0.0161063 0.0228346,-0.0309449 0.0361772,-0.0444488 0.0295551,-0.0298071 0.066563,-0.0495 0.103193,-0.0687008 -0.0601299,-0.0261457 -0.12074,-0.0552402 -0.171866,-0.0959803 -0.0245827,-0.0195827 -0.0535945,-0.0453386 -0.0679606,-0.0741575 -0.00744882,-0.0149843 -0.0161496,-0.0290669 -0.0222598,-0.0446417 -0.011122,-0.0282992 -0.0173898,-0.0214882 -0.0409291,-0.0357992 -0.0287598,-0.017563 -0.0633819,-0.0276339 -0.0931969,-0.0444567 -0.0260827,-0.0147362 -0.0520433,-0.0300394 -0.0768819,-0.0468465 -0.0549449,-0.0371181 -0.0961299,-0.0843031 -0.138457,-0.134079 0.0832913,0.0575472 0.163008,0.121791 0.252287,0.170016 0.0220039,0.0119055 0.0437598,0.0241102 0.0660866,0.0353504 0.0275866,0.0138858 0.031248,-0.0174252 0.049874,-0.0362205 0.0234764,-0.0236772 0.054815,-0.0428976 0.087689,-0.0497283 -0.096378,-0.0804685 -0.187248,-0.158693 -0.249705,-0.268228 -0.00697244,-0.012248 -0.011752,-0.0261417 -0.0167559,-0.0392717 -0.00381496,-0.0100748 -0.00398425,-0.0386614 -0.00687795,-0.0434685 -0.00525984,-0.00888583 -0.0325512,-0.022126 -0.0417205,-0.027811 -0.0150039,-0.00929921 -0.0282244,-0.0200591 -0.0414724,-0.0317008 -0.0479921,-0.042063 -0.0831614,-0.0859488 -0.122941,-0.134106 0.071122,0.0598425 0.144823,0.114516 0.220622,0.168146 0.0114646,-0.0175551 0.0296575,-0.0322559 0.0490157,-0.0414803 -0.0513071,-0.034937 -0.0896181,-0.0846654 -0.129051,-0.131445 -0.0437913,-0.0519764 -0.0615984,-0.11552 -0.082752,-0.178071 -0.00562992,-0.0168701 -0.00403937,-0.0364252 -0.00489764,-0.0540827 -0.000834646,-0.0170866 -0.0150315,-0.0239173 -0.0274882,-0.0350669 -0.0256063,-0.0229016 -0.0487008,-0.0493031 -0.0706772,-0.0755039 -0.0388543,-0.0462244 -0.0914055,-0.112539 -0.101382,-0.173854 0.0587362,0.0856181 0.130244,0.163177 0.20085,0.239039 0.00451969,-0.0294803 0.0091063,-0.0434134 -0.00416929,-0.0697992 -0.00984646,-0.0195433 -0.0211535,-0.0382835 -0.0304173,-0.0580945 -0.0195906,-0.0419646 -0.0395866,-0.0840197 -0.0558386,-0.127398 -0.0298071,-0.0794882 -0.0658268,-0.181709 -0.0362795,-0.266043 0.00634252,-0.0179449 0.0151339,-0.0333465 0.0276535,-0.0479803 0.0162165,-0.019 0.0450039,-0.0230039 0.0341417,-0.046874 -0.0190157,-0.0419921 -0.0373858,-0.0929016 -0.0445906,-0.1385 -0.00726378,-0.0456693 -0.0154488,-0.0893346 -0.0189134,-0.135661 -0.00156299,-0.0207638 0.00388189,-0.0511535 -0.00200787,-0.0706969 -0.00602756,-0.0200157 -0.0296575,-0.0437362 -0.0416654,-0.0607756 -0.149945,-0.21211 -0.239512,-0.461736 -0.334524,-0.700961 -0.0108898,0.197457 0.0337008,0.387795 0.101602,0.571917 0.0657717,0.178394 0.163138,0.357846 0.279295,0.508496 0.00510236,0.00659843 0.0102598,0.0132205 0.0153189,0.0198307 -0.0635709,-0.0533543 -0.106283,-0.121646 -0.154181,-0.18772 -0.0383465,-0.052874 -0.0744331,-0.154736 -0.151638,-0.156232 0.0280236,0.126953 0.0605748,0.248339 0.119437,0.365559 0.0601299,0.119803 0.126,0.238335 0.204567,0.34739 -0.0693031,-0.0565984 -0.139917,-0.118429 -0.220913,-0.157386 -0.0102244,-0.0048937 -0.06,-0.0321102 -0.0723858,-0.0162441 -0.0100669,0.0128976 0.0437913,0.105394 0.0518465,0.121551 0.0850079,0.170563 0.180783,0.330724 0.317638,0.465028 0.0182874,0.0179331 0.0368504,0.0352323 0.0575512,0.0504213 -0.0739764,-0.028252 -0.153161,-0.072378 -0.234248,-0.072378 -0.0128346,0 -0.0222992,0.000767717 -0.0343661,0.00456693 -0.0137008,0.00439764 0.0108268,0.0424409 0.0159213,0.0524567 0.0199685,0.0396614 0.0366299,0.0804843 0.0579646,0.11963 0.0869213,0.15978 0.205276,0.287953 0.375831,0.357173 -0.0719449,0.00282677 -0.149307,-0.0478898 -0.213228,-0.0755709 -0.0707717,-0.0307205 -0.153524,-0.0328189 -0.224709,-0.00235827 0.0760866,0.152469 0.17202,0.297894 0.302996,0.409398 0.129339,0.110157 0.273559,0.173965 0.440638,0.200665 -0.113827,0 -0.227346,-0.00922835 -0.341051,-0.00922835 -0.111791,0 -0.224504,0.0227441 -0.330157,0.0579685 0.047815,0.0697913 0.0971732,0.123512 0.170079,0.168343 0.0715394,0.0439685 0.150843,0.0801063 0.232154,0.101925 0.172087,0.0460315 0.352209,0.056626 0.527827,0.0247402 -0.090622,0.0303898 -0.181232,0.0452283 -0.276815,0.0452283 -0.0397165,0 -0.0908701,-0.0126299 -0.129181,-0.00038189 -0.0316929,0.0101142 -0.061311,0.0239724 -0.0880945,0.0438425 -0.0189528,0.0140512 -0.0370748,0.0311654 -0.0479016,0.0524646 -0.00257874,0.00518504 -0.0120079,0.023437 -0.00799606,0.0271339 0.018563,0.016937 0.0377126,0.0334567 0.0576142,0.0488228 0.081378,0.0627638 0.178866,0.0902598 0.279709,0.0986535 0.150492,0.0125197 0.300307,-0.0299094 0.442303,-0.0751614 -0.144287,0.0586772 -0.370709,0.159642 -0.408992,0.3295 -0.00652756,0.0289567 -0.0125472,0.0451181 0.0174921,0.0538268 0.0232402,0.00674016 0.0462441,0.0118976 0.0701339,0.0160591 0.0426102,0.00743307 0.0886299,0.00573228 0.131472,0.000570866 0.0957402,-0.0115354 0.186323,-0.0418898 0.270445,-0.088685 0.0568465,-0.0316024 0.108575,-0.0717165 0.151,-0.121157 -0.074185,0.114528 -0.173394,0.229047 -0.197122,0.36726zm-0.25324 -0.314795l0 0c0.0733189,-0.0343346 0.145839,-0.0699843 0.21613,-0.110201 0.0681614,-0.0389488 0.144,-0.0804764 0.201799,-0.134161 -0.0343898,0.0660079 -0.11428,0.115091 -0.175398,0.153335 -0.071878,0.0449606 -0.156988,0.0840591 -0.242531,0.0910276z"/>
    </g>
   </g>
   <circle id="_215571840" class="fil2 str0" cx="3.43402" cy="2.89196" r="0.0594331"/>
   <circle id="_215571792" class="fil3" cx="3.43402" cy="2.89196" r="0.0305827"/>
   <circle id="_215571000" class="fil4" cx="3.43402" cy="2.89196" r="0.00797244"/>
   <path id="_215571312" class="fil5" d="M3.76958 2.79739c-0.0302087,0.0729173 -0.101039,0.213547 -0.0864567,0.267713 0.000811024,0.00301969 0.00176772,0.00589764 0.00284646,0.00864567 0.00561417,-0.127 0.202571,-0.0884528 0.203201,-0.0883346l0.080815 0.015311 -0.0129724 -0.0813386c-0.0164528,-0.103134 -0.117854,-0.13863 -0.177118,-0.150646 -0.00236614,0.00806693 -0.00570866,0.0175354 -0.010315,0.0286496z"/>
   <path id="_215571408" class="fil6" d="M3.73332 2.88063l-0.00305906 0.00711024c0.0345157,-0.00478346 0.0678031,-0.000496063 0.0989173,0.0103031 0.0542087,0.018811 0.101906,0.057374 0.138075,0.102165l0.00273622 0.000519685 -0.00151575 -0.00950787c-0.036378,-0.0435984 -0.0836142,-0.080878 -0.137138,-0.0994528 -0.0308858,-0.0107205 -0.0638504,-0.0152165 -0.0980157,-0.0111378z"/>
   <path id="_215571024" class="fil7" d="M3.25802 2.70562c-0.124311,0.117949 -0.225882,0.48637 -0.307449,0.934795l0.0492047 0.239272 0.129169 -0.225 0.125 0.385417 0.0958346 -0.343752 0.0958346 0.343752 0.0916654 -0.339587 0.195831 0.2375 -0.0291654 -0.270831 0.141665 0.165622 -0.0316654 -0.230571c-0.000901575,-0.000649606 -0.00180709,-0.00129921 -0.0027126,-0.00194094 -0.0350118,-0.155618 -0.0739055,-0.312539 -0.117957,-0.471917 -0.00579528,-0.0209567 -0.00798819,-0.0390394 -0.00729921,-0.0546299 -0.00107874,-0.00274803 -0.00203543,-0.00562598 -0.00284646,-0.00864567 -0.00969291,-0.0360079 0.0183583,-0.110232 0.0471339,-0.177366 0.00101969,-0.00238189 0.00203937,-0.00475197 0.00305906,-0.00711024 0.0134882,-0.0312126 0.0268504,-0.0605118 0.0362638,-0.0832362 0.0046063,-0.0111142 0.00794882,-0.0205827 0.010315,-0.0286496 -0.00277559,-0.000559055 -0.00545669,-0.00107087 -0.0080315,-0.00153543 -0.0188307,-0.0314646 -0.0559173,-0.0753622 -0.124496,-0.101024 -0.055689,-0.0208386 -0.138827,-0.0334252 -0.215173,-0.027122 -0.0667402,0.00551181 -0.130874,0.0254724 -0.174181,0.0665591zm0.176 0.245776c-0.0328189,0 -0.0594331,-0.0266142 -0.0594331,-0.0594331 0,-0.0328189 0.0266142,-0.0594331 0.0594331,-0.0594331 0.0328189,0 0.0594331,0.0266142 0.0594331,0.0594331 0,0.0328189 -0.0266142,0.0594331 -0.0594331,0.0594331z"/>
  </g>
  <rect class="fil8" width="6.82666" height="6.82666"/>
 </g>
</svg>
