<?xml version="1.0" encoding="UTF-8"?>
<!DOCTYPE svg PUBLIC "-//W3C//DTD SVG 1.1//EN" "http://www.w3.org/Graphics/SVG/1.1/DTD/svg11.dtd">
<!-- Creator: CorelDRAW -->
<svg xmlns="http://www.w3.org/2000/svg" xml:space="preserve" width="6.82666in" height="6.82666in" style="shape-rendering:geometricPrecision; text-rendering:geometricPrecision; image-rendering:optimizeQuality; fill-rule:evenodd; clip-rule:evenodd"
viewBox="0 0 6.82666 6.82666"
 xmlns:xlink="http://www.w3.org/1999/xlink">
 <defs>
  <style type="text/css">
   <![CDATA[
    .fil10 {fill:none}
    .fil8 {fill:#1F6B23}
    .fil5 {fill:#212121}
    .fil6 {fill:#247328}
    .fil2 {fill:#2E7D32}
    .fil7 {fill:#4E342E}
    .fil4 {fill:#E0F2F1}
    .fil3 {fill:#EF5350}
    .fil1 {fill:#FFA726}
    .fil0 {fill:#FFB74D}
    .fil9 {fill:#FFD180}
   ]]>
  </style>
 </defs>
 <g id="Layer_x0020_1">
  <metadata id="CorelCorpID_0Corel-Layer"/>
  <g id="_376097472">
   <path id="_376067112" class="fil0" d="M1.00859 3.01319c-0.00229921,0.000783465 -0.00492913,-0.0021063 -0.00819685,-0.00940945 -0.161039,-0.280378 -0.255134,-0.774776 0.00780315,-1.03379 0.110236,-0.108594 0.259323,-0.144732 0.41298,-0.137303 0.00783858,0.000377953 0.015689,0.000866142 0.0235472,0.0014685l1.1811e-005 -0.00211024c0.0892402,0.0607323 0.140362,0.16363 0.170492,0.27665 -0.33335,-0.0055315 -0.566268,0.129059 -0.603728,0.494055 -0.0131181,0.127839 -0.0099252,0.320118 -0.00290945,0.410437z"/>
   <path id="_376066368" class="fil1" d="M1.65998 2.45075l-0.00194488 -0.00162992 -0.00349606 0.00161024c-0.0510354,0.023374 -0.14574,0.0612165 -0.213035,0.055315 -0.0179134,-0.0028937 -0.0344291,-0.00516929 -0.0502638,-0.0063937 -0.041689,-0.00322441 -0.0786417,0.000850394 -0.123815,0.0202756 -0.246776,0.10611 -0.235874,0.485449 -0.258843,0.493264 -0.00701575,-0.0903189 -0.0102087,-0.282598 0.00290945,-0.410437 0.0374606,-0.364996 0.270378,-0.499587 0.603728,-0.494055 0.00366929,0.0137638 0.00702362,0.0276772 0.0101024,0.0416811 0.0225787,0.102756 0.0300748,0.210488 0.0346575,0.30037z"/>
   <path id="_376066296" class="fil1" d="M3.34408 2.35791l0.00921654 0.00261024c0.0296063,0.00837402 0.0571693,0.0171654 0.0830906,0.0264134 0.208213,0.0742953 0.31002,0.178417 0.505055,0.337906 0.326374,0.266886 1.07939,0.739925 1.21063,0.991461l0.0313622 0.0601142c-0.409492,0.0716299 -1.01525,-0.00616535 -1.40249,-0.192945 -0.426925,-0.205925 -0.765618,-0.452295 -1.06369,-0.89361 -0.034685,-0.039252 -0.0193465,-0.0941339 -0.016063,-0.121177 0.0129291,-0.106472 0.269661,-0.131323 0.372362,-0.17674 0.104331,-0.0461417 0.202272,-0.0449685 0.270535,-0.0340315z"/>
   <path id="_376066800" class="fil2" d="M2.68406 1.84221c0.104831,0.109843 0.229185,0.246327 0.267618,0.290835 0.127256,0.147177 0.265409,0.188886 0.392402,0.224866 -0.0682638,-0.010937 -0.166201,-0.0121102 -0.270535,0.0340315 -0.165618,0.0732441 -0.478551,0.0599252 -0.340071,0.311008 0.332429,0.474902 0.671732,0.694067 1.04462,0.873921 0.342937,0.161689 0.756854,0.230646 1.17065,0.216209 0.0692047,0.0926299 0.223815,0.308106 0.303024,0.420539 0.240606,0.341535 0.481035,0.689555 0.791248,0.972559 -0.0982126,0.14661 -0.164941,0.259791 -0.370819,0.127071 -0.246709,-0.158071 -0.429756,-0.368437 -0.599169,-0.563126 -0.245083,-0.281654 -0.460181,-0.52885 -0.788311,-0.50778 -0.191713,0.0123189 -0.276461,0.104303 -0.336709,0.169705 -0.0669134,0.0726299 -0.113272,0.122925 -0.203819,0.076315l-0.228476 0.0944961 -0.033126 0.0025 -0.070811 -0.0177598c-0.123909,0.0290472 -0.231547,0.0596417 -0.313516,0.109567 0.0469882,0.0401929 0.0801142,0.089252 0.103425,0.143949 0.0342598,0.0803819 0.0461457,0.171705 0.0500354,0.26387 0.00114961,0.0293386 -0.0217047,0.0540591 -0.0510433,0.0552087 -0.0293386,0.00114961 -0.0540591,-0.0217047 -0.0552087,-0.0510433 -0.00341339,-0.080874 -0.0133858,-0.159945 -0.0416969,-0.226366 -0.019315,-0.0453228 -0.0478031,-0.0852953 -0.0897559,-0.116449 -0.0529134,0.0596969 -0.0863071,0.14172 -0.0951142,0.25935 -0.00218504,0.0293386 -0.0277441,0.0513543 -0.0570827,0.0491693 -0.0293386,-0.00218504 -0.0513543,-0.0277441 -0.0491693,-0.0570827 0.00922441,-0.123205 0.0416378,-0.215681 0.0931575,-0.287276 -0.0041063,0.000562992 -0.00832677,0.00125984 -0.0126378,0.00208268 -0.0229331,0.00437795 -0.0474409,0.0122756 -0.0709764,0.0234213 -0.0524331,0.0248268 -0.0990945,0.0649331 -0.107425,0.115713 -0.00471654,0.0289921 -0.0320512,0.0486732 -0.0610433,0.0439567 -0.0289921,-0.00471654 -0.0486732,-0.0320512 -0.0439567,-0.0610433 0.014878,-0.090685 0.0869449,-0.156969 0.167008,-0.194878 0.0318307,-0.0150709 0.0651181,-0.0257795 0.0963937,-0.031752 0.0330472,-0.00631102 0.0648031,-0.00745276 0.0915669,-0.00306693 0.012815,0.00210236 0.0247087,0.00546457 0.0354646,0.010122 0.00244488,-0.00183858 0.00490551,-0.00366142 0.0073937,-0.00546063 0.0668307,-0.0483386 0.147122,-0.0814331 0.238138,-0.108634 -0.00467717,-0.0117953 -0.00480709,-0.0256535 -0.000877953,-0.0413465 0.00730709,-0.0291378 0.0472126,-0.0578031 0.0986063,-0.0855394 0.0055748,-0.00300787 0.0112913,-0.00600787 0.0171142,-0.00899606 -0.034248,-0.00542126 -0.0642323,-0.0115315 -0.0928071,-0.0173543 -0.100217,-0.0204252 -0.181594,-0.0370118 -0.387996,0.000574803l-0.035311 0.00642913 -0.019063 -0.0303858 -0.0165 -0.0262992c-0.0743189,0.0184724 -0.139807,0.0387913 -0.192496,0.0679173 0.0535,0.0557165 0.0530236,0.123846 0.0524016,0.209524 -0.000153543,0.0210079 -0.000314961,0.0433583 0.000716535,0.0678346 0.00114961,0.0293386 -0.0217047,0.0540591 -0.0510433,0.0552087 -0.0293386,0.00114961 -0.0540591,-0.0217047 -0.0552087,-0.0510433 -0.00105906,-0.0251575 -0.00088189,-0.0495157 -0.000716535,-0.0724173 0.000425197,-0.0583583 0.000755906,-0.104445 -0.0315315,-0.139051 -0.0349016,0.0441063 -0.0569646,0.103504 -0.0631614,0.186248 -0.00218504,0.0293386 -0.0277441,0.0513543 -0.0570827,0.0491693 -0.0293386,-0.00218504 -0.0513543,-0.0277441 -0.0491693,-0.0570827 0.00642913,-0.0858819 0.0269606,-0.15326 0.059437,-0.207283 -0.0117165,0.0033189 -0.023752,0.00779921 -0.0355433,0.0133819 -0.0381102,0.0180433 -0.0719409,0.0466496 -0.0777638,0.0821339 -0.00471654,0.0289921 -0.0320512,0.0486732 -0.0610433,0.0439567 -0.0289921,-0.00471654 -0.0486732,-0.0320512 -0.0439567,-0.0610433 0.0123701,-0.0753858 0.0716102,-0.130177 0.137346,-0.161299 0.0257441,-0.012189 0.0528622,-0.0208898 0.0784961,-0.0257795 0.0271181,-0.00517323 0.0533268,-0.00609055 0.0755591,-0.00244488 0.00857087,0.00140551 0.0166811,0.00347244 0.024248,0.00622047l0.00073622 -0.00053937c0.0634488,-0.0458937 0.141504,-0.0744803 0.230811,-0.0983307 -0.00547244,-0.0132323 -0.00592126,-0.0272992 -0.00173228,-0.0420984 0.00760236,-0.0268583 0.0336969,-0.0492126 0.0725079,-0.0669449 0.0279961,-0.0127913 0.0642992,-0.0251024 0.104957,-0.0361654 0.10472,-0.0285 0.246587,-0.0503228 0.356854,-0.0524094 -0.157295,-0.0423937 -0.397449,-0.135787 -0.532925,-0.237839 -0.0449646,-0.0339252 -0.0386063,-0.029189 -0.0323189,-0.0244724 -0.170807,-0.12835 -0.537732,-0.404378 -0.616094,-0.568083 -0.0388228,-0.0809094 -0.0636378,-0.154496 -0.087315,-0.224724 -0.0461969,-0.137012 -0.0878031,-0.260402 -0.224193,-0.386587 -0.043622,-0.0403228 -0.0975276,-0.0862402 -0.129681,-0.113248 -0.00542913,-0.10648 -0.0149291,-0.238012 -0.0487717,-0.356642 -0.0305945,-0.107244 -0.0810945,-0.203949 -0.16648,-0.262059 0.000515748,-0.0950945 0.0361378,-0.248555 0.218165,-0.324909 0.362445,-0.152043 0.772937,0.0749882 1.02116,0.335071z"/>
   <path id="_376066896" class="fil3" d="M1.96339 2.81246c-0.0359134,-0.0846811 -0.084563,-0.165976 -0.17372,-0.248465 -0.043622,-0.0403228 -0.0975276,-0.0862402 -0.129681,-0.113248 -0.00542913,-0.10648 -0.0149291,-0.238012 -0.0487717,-0.356642 -0.0305945,-0.107244 -0.0810945,-0.203949 -0.16648,-0.262059 0.000515748,-0.0950945 0.0361378,-0.248555 0.218165,-0.324909 0.0794724,-0.0333386 0.161256,-0.0484409 0.24313,-0.0489803 0.186256,0.0336732 0.327677,0.196197 0.32863,0.391937 0.110736,0.102516 0.180083,0.249106 0.180083,0.411909 0,0.27235 -0.194004,0.49937 -0.451354,0.550457z"/>
   <path id="_376066272" class="fil4" d="M1.99294 1.80247c0.043878,0 0.0836063,0.0177874 0.112366,0.0465472 0.0287598,0.0287598 0.0465512,0.0684921 0.0465512,0.11237 0,0.043878 -0.0177913,0.0836063 -0.0465512,0.112366 -0.0287598,0.0287598 -0.0684882,0.0465472 -0.112366,0.0465472 -0.043878,0 -0.0836063,-0.0177953 -0.112366,-0.0465472 -0.0287598,-0.0287598 -0.0465472,-0.0684961 -0.0465472,-0.112366 0,-0.043878 0.0177874,-0.0836063 0.0465472,-0.112366 0.0287598,-0.0287598 0.0684882,-0.0465512 0.112366,-0.0465512z"/>
   <path id="_376098696" class="fil5" d="M2.02989 1.92444c-0.00944488,-0.00944488 -0.0225157,-0.0152953 -0.0369488,-0.0152953 -0.0144331,0 -0.0275,0.00585039 -0.0369488,0.0152992 -0.00944488,0.00944488 -0.0152953,0.0225157 -0.0152953,0.0369488 0,0.0144331 0.00585039,0.0275039 0.0152953,0.0369488 0.00944882,0.00944488 0.0225157,0.0152953 0.0369488,0.0152953 0.0144331,0 0.0275039,-0.00585039 0.0369488,-0.0152953 0.00944882,-0.00944882 0.0152992,-0.0225157 0.0152992,-0.0369488 0,-0.0144331 -0.00585039,-0.0275039 -0.0152992,-0.0369528z"/>
   <path id="_376098576" class="fil3" d="M2.73347 2.70295c0.0616457,0.0880669 0.123528,0.167339 0.185819,0.239197 0.0201614,0.0232598 0.0403661,0.0457402 0.0606181,0.0674921 0.0842638,0.0796102 0.198512,0.140264 0.304339,0.146035 0.164169,0.00895669 0.157626,-0.0730787 0.119606,-0.144114 0.0313307,0.0295157 0.358665,0.205248 0.318551,-0.0341535 0.0554724,0.046874 0.220992,0.0602008 0.217957,-0.0619055 0.0289213,0.0137598 0.240547,0.0447283 0.125256,-0.0938819 -0.0457598,-0.0344449 -0.0876417,-0.0669016 -0.124177,-0.0967795 -0.195035,-0.159488 -0.296843,-0.26361 -0.505055,-0.337906 -0.0259213,-0.00924803 -0.0534843,-0.0180394 -0.0830906,-0.0264134l-0.00921654 -0.00261024c-0.0682638,-0.010937 -0.166201,-0.0121102 -0.270535,0.0340315 -0.0596102,0.0263622 -0.138307,0.0415118 -0.208169,0.061811 -0.0423583,0.0130236 -0.0822323,0.0280276 -0.112134,0.046937 -0.0565315,0.0381811 -0.0778346,0.0969764 -0.0197677,0.20226z"/>
   <path id="_376098624" class="fil6" d="M4.10222 3.70148l0.75687 0.813181c0.0711614,0.0713858 0.141228,0.151906 0.213933,0.235461 0.169413,0.194689 0.352461,0.405055 0.599169,0.563126 0.205878,0.13272 0.272606,0.0195394 0.370819,-0.127071 -0.310213,-0.283004 -0.550642,-0.631024 -0.791248,-0.972559 -0.0771811,-0.109551 -0.225945,-0.316937 -0.297539,-0.413181 -0.00188189,-0.0025315 -0.0037126,-0.00498425 -0.00548425,-0.00735827 -0.292311,0.0101969 -0.584681,-0.0212205 -0.852051,-0.0975433l0.0055315 0.00594488z"/>
   <path id="_376098240" class="fil6" d="M3.7294 4.0612c-0.0825,0.155276 -0.126268,0.200539 -0.370843,0.303551 0.000669291,0.000106299 0.00133858,0.000212598 0.00200787,0.000318898 -0.00582283,0.00298819 -0.0115394,0.00598819 -0.0171142,0.00899606 -0.0513937,0.0277362 -0.0912992,0.0564016 -0.0986063,0.0855394 -0.00392913,0.0156929 -0.00379921,0.0295512 0.000877953,0.0413465 -0.000448819,0.000133858 -0.000897638,0.000267717 -0.00134252,0.000401575 0.0672717,0.00755512 0.131488,0.00855118 0.167008,0.0663307 0.000125984,-3.14961e-005 0.000251969,-5.90551e-005 0.000377953,-9.05512e-005l0.070811 0.0177598 0.033126 -0.0025 0.228476 -0.0944961c0.0905472,0.0466102 0.136906,-0.00368504 0.203819,-0.076315 0.060248,-0.0654016 0.144996,-0.157386 0.336709,-0.169705 0.00564173,-0.000362205 0.011252,-0.000645669 0.0168307,-0.000850394 -0.0207598,-0.00505906 -0.0749449,-0.0145472 -0.210157,-0.0240354 -0.197917,-0.0138898 -0.36198,-0.156252 -0.36198,-0.156252z"/>
   <path id="_376097808" class="fil7" d="M3.24438 4.50136c-0.0904646,0.027126 -0.170295,0.0601299 -0.236795,0.108232l-0.0073937 0.00546063c-0.0107559,-0.00465748 -0.0226496,-0.00801969 -0.0354646,-0.010122 -0.0267638,-0.00438583 -0.0585197,-0.00324409 -0.0915669,0.00306693 -0.0312756,0.00597244 -0.064563,0.0166811 -0.0963937,0.031752 -0.080063,0.0379094 -0.15213,0.104193 -0.167008,0.194878 -0.00471654,0.0289921 0.0149646,0.0563268 0.0439567,0.0610433 0.0289921,0.00471654 0.0563268,-0.0149646 0.0610433,-0.0439567 0.00833071,-0.0507795 0.0549921,-0.0908858 0.107425,-0.115713 0.0235354,-0.0111457 0.0480433,-0.0190433 0.0709764,-0.0234213 0.00431102,-0.000822835 0.0085315,-0.00151969 0.0126378,-0.00208268 -0.0515197,0.0715945 -0.0839331,0.164071 -0.0931575,0.287276 -0.00218504,0.0293386 0.0198307,0.0548976 0.0491693,0.0570827 0.0293386,0.00218504 0.0548976,-0.0198307 0.0570827,-0.0491693 0.00880709,-0.11763 0.0422008,-0.199654 0.0951142,-0.25935 0.0419528,0.0311535 0.0704409,0.071126 0.0897559,0.116449 0.028311,0.0664213 0.0382835,0.145492 0.0416969,0.226366 0.00114961,0.0293386 0.0258701,0.0521929 0.0552087,0.0510433 0.0293386,-0.00114961 0.0521929,-0.0258701 0.0510433,-0.0552087 -0.00388976,-0.0921654 -0.0157756,-0.183488 -0.0500354,-0.26387 -0.023311,-0.0546969 -0.056437,-0.103756 -0.103425,-0.143949 0.0818858,-0.049874 0.189386,-0.0804567 0.313138,-0.109476 -0.0355197,-0.0577795 -0.0997362,-0.0587756 -0.167008,-0.0663307z"/>
   <path id="_376098072" class="fil8" d="M2.74655 4.19227l0.0615669 0.105965c0.000255906,-6.29921e-005 0.000515748,-0.000129921 0.000771654,-0.000192913l0.0165 0.0262992 0.019063 0.0303858 0.035311 -0.00642913c0.206402,-0.0375866 0.28778,-0.021 0.387996,-0.000574803 0.0280157,0.00570866 0.0573858,0.0116929 0.0907992,0.0170354 0.242858,-0.102291 0.28772,-0.147638 0.369114,-0.300299 -0.0584252,0.0078622 -0.301937,-0.0011811 -0.446909,-0.0587205 -0.110016,0.00228346 -0.250937,0.0240236 -0.355106,0.052374 -0.0406575,0.011063 -0.0769606,0.023374 -0.104957,0.0361654 -0.038811,0.0177323 -0.0649055,0.0400866 -0.0725079,0.0669449 -0.00304331,0.010748 -0.0036378,0.0211102 -0.00164173,0.0310472z"/>
   <path id="_376098336" class="fil7" d="M2.34007 4.32419c-0.0657362,0.031122 -0.124976,0.0859134 -0.137346,0.161299 -0.00471654,0.0289921 0.0149646,0.0563268 0.0439567,0.0610433 0.0289921,0.00471654 0.0563268,-0.0149646 0.0610433,-0.0439567 0.00582283,-0.0354843 0.0396535,-0.0640906 0.0777638,-0.0821339 0.0117913,-0.00558268 0.0238268,-0.010063 0.0355433,-0.0133819 -0.0324764,0.0540236 -0.0530079,0.121402 -0.059437,0.207283 -0.00218504,0.0293386 0.0198307,0.0548976 0.0491693,0.0570827 0.0293386,0.00218504 0.0548976,-0.0198307 0.0570827,-0.0491693 0.00619685,-0.0827441 0.0282598,-0.142142 0.0631614,-0.186248 0.0322874,0.0346063 0.0319567,0.0806929 0.0315315,0.139051 -0.000165354,0.0229016 -0.00034252,0.0472598 0.000716535,0.0724173 0.00114961,0.0293386 0.0258701,0.0521929 0.0552087,0.0510433 0.0293386,-0.00114961 0.0521929,-0.0258701 0.0510433,-0.0552087 -0.0010315,-0.0244764 -0.000870079,-0.0468268 -0.000716535,-0.0678346 0.000622047,-0.0856772 0.00109843,-0.153807 -0.0524016,-0.209524 0.0525079,-0.0290236 0.117724,-0.0493031 0.191724,-0.0677244l-0.0615669 -0.105965c0.000755906,0.00374409 0.00187795,0.00742913 0.00337402,0.0110512 -0.0893071,0.0238504 -0.167362,0.052437 -0.230811,0.0983307l-0.00073622 0.00053937c-0.00756693,-0.00274803 -0.0156772,-0.00481496 -0.024248,-0.00622047 -0.0222323,-0.00364567 -0.0484409,-0.00272835 -0.0755591,0.00244488 -0.0256339,0.00488976 -0.052752,0.0135906 -0.0784961,0.0257795z"/>
   <path id="_376098456" class="fil9" d="M2.20225 4.48933c-0.0024685,0.0275276 0.0126063,0.0858976 0.040315,0.0904055 0.020874,0.0033937 0.0450039,-0.0390591 0.0563386,-0.0553268 -0.0029252,-0.0314252 -0.0265433,-0.0559173 -0.055248,-0.0559173 -0.0164528,0 -0.0312323,0.00805118 -0.0414055,0.0208386z"/>
   <path id="_376098408" class="fil9" d="M2.36197 4.61781c-0.0024685,0.0275276 0.0126063,0.0858976 0.040315,0.0904055 0.020874,0.0033937 0.0450039,-0.0390591 0.0563386,-0.0553268 -0.0029252,-0.0314252 -0.0265433,-0.0559173 -0.055248,-0.0559173 -0.0164528,0 -0.0312323,0.00805118 -0.0414055,0.0208386z"/>
   <path id="_376097688" class="fil9" d="M2.56423 4.64385c-0.0024685,0.0275276 0.0126063,0.0858976 0.040315,0.0904055 0.020874,0.0033937 0.0450039,-0.0390591 0.0563386,-0.0553268 -0.0029252,-0.0314252 -0.0265433,-0.0559173 -0.055248,-0.0559173 -0.0164528,0 -0.0312323,0.00805118 -0.0414055,0.0208386z"/>
   <path id="_376097352" class="fil9" d="M2.61024 4.83482c-0.0024685,0.0275276 0.0126063,0.0858976 0.040315,0.0904055 0.020874,0.0033937 0.0450039,-0.0390591 0.0563386,-0.0553268 -0.0029252,-0.0314252 -0.0265433,-0.0559173 -0.055248,-0.0559173 -0.0164528,0 -0.0312323,0.00805118 -0.0414055,0.0208386z"/>
   <path id="_376097448" class="fil9" d="M2.81683 4.99628c-0.0024685,0.0275276 0.0126063,0.0858976 0.040315,0.0904055 0.020874,0.0033937 0.0450039,-0.0390591 0.0563386,-0.0553268 -0.0029252,-0.0314252 -0.0265433,-0.0559173 -0.055248,-0.0559173 -0.0164528,0 -0.0312323,0.00805118 -0.0414055,0.0208386z"/>
   <path id="_376097544" class="fil9" d="M3.1493 5.08396c-0.0024685,0.0275276 0.0126063,0.0858976 0.040315,0.0904055 0.020874,0.0033937 0.0450039,-0.0390591 0.0563386,-0.0553268 -0.0029252,-0.0314252 -0.0265433,-0.0559173 -0.055248,-0.0559173 -0.0164528,0 -0.0312323,0.00805118 -0.0414055,0.0208386z"/>
  </g>
  <rect class="fil10" width="6.82666" height="6.82666"/>
 </g>
</svg>
