<?xml version="1.0" encoding="UTF-8"?>
<!DOCTYPE svg PUBLIC "-//W3C//DTD SVG 1.1//EN" "http://www.w3.org/Graphics/SVG/1.1/DTD/svg11.dtd">
<!-- Creator: CorelDRAW -->
<svg xmlns="http://www.w3.org/2000/svg" xml:space="preserve" width="6.82666in" height="6.82666in" style="shape-rendering:geometricPrecision; text-rendering:geometricPrecision; image-rendering:optimizeQuality; fill-rule:evenodd; clip-rule:evenodd"
viewBox="0 0 6.82666 6.82666"
 xmlns:xlink="http://www.w3.org/1999/xlink">
 <defs>
  <style type="text/css">
   <![CDATA[
    .fil6 {fill:none}
    .fil2 {fill:#43A4D8}
    .fil3 {fill:#55B0DB}
    .fil4 {fill:#E65100}
    .fil0 {fill:#EF6C00}
    .fil5 {fill:#FF9100}
    .fil1 {fill:#FFAB40}
   ]]>
  </style>
 </defs>
 <g id="Layer_x0020_1">
  <metadata id="CorelCorpID_0Corel-Layer"/>
  <g id="_376071600">
   <path id="_376074696" class="fil0" d="M2.94289 0.93672c0.015311,-0.0417913 0.0514528,-0.0725433 0.0951378,-0.0810354 0.043752,-0.00850394 0.0888346,0.00640551 0.118693,0.0394528 0.261461,0.289047 0.631736,0.847232 0.995437,1.47212 0.684776,-0.115902 1.30448,-0.196394 1.6754,-0.205728 0.0454882,-0.00114961 0.0881929,0.022122 0.111815,0.0609882 0.0237008,0.0388189 0.024752,0.0873228 0.00295669,0.12726 -0.199079,0.364685 -0.56413,0.875461 -1.03812,1.41589 0.295197,0.595039 0.50526,1.09276 0.641366,1.4638 0.0165276,0.0450984 0.00629921,0.0957756 -0.0265984,0.130819 -0.0328701,0.0350866 -0.0826969,0.0485394 -0.128795,0.0349803 -0.42828,-0.125913 -0.932197,-0.261213 -1.56869,-0.509622 -0.49726,0.468787 -0.913795,0.783024 -1.26367,1.06018 -0.0376614,0.0298425 -0.0889213,0.0359173 -0.132476,0.015685 -0.0436181,-0.020185 -0.0721929,-0.0631811 -0.0736969,-0.111201 -0.0128819,-0.395008 -0.00454724,-0.935165 0.0464331,-1.5975 -0.635591,-0.320228 -1.16112,-0.653555 -1.48325,-0.915894 -0.0373425,-0.0303858 -0.0555433,-0.0784291 -0.0476614,-0.125969 0.0078189,-0.0474764 0.0405118,-0.0872087 0.0856417,-0.103929 0.349209,-0.129528 0.948008,-0.285098 1.61857,-0.432492 0.103154,-0.715587 0.237335,-1.37174 0.371504,-1.73781z"/>
   <path id="_376074552" class="fil1" d="M3.50303 2.40979c0.0168425,0.0866575 -0.0397205,0.170705 -0.126461,0.187563 -0.0867244,0.0168425 -0.170642,-0.0398465 -0.187492,-0.12652 -0.0168504,-0.0866929 0.0397165,-0.170705 0.126441,-0.187563 0.0867362,-0.016878 0.170661,0.0398465 0.187512,0.12652z"/>
   <path id="_376074192" class="fil1" d="M3.37723 2.01051c0.011878,0.061126 -0.0279213,0.12022 -0.0890472,0.132102 -0.0610591,0.0118661 -0.12015,-0.0279882 -0.132028,-0.0891142 -0.0118622,-0.0610079 0.0279843,-0.120146 0.0890433,-0.132016 0.061122,-0.0118976 0.120177,0.0280512 0.132031,0.0890276z"/>
   <path id="_376074456" class="fil1" d="M3.26537 1.64113c0.00774409,0.0398425 -0.0181772,0.0782756 -0.0579528,0.0860079 -0.0397126,0.00768504 -0.0782362,-0.0181732 -0.0859803,-0.0580118 -0.00770866,-0.0396535 0.0182992,-0.0782087 0.0580039,-0.0859252 0.0397638,-0.00776772 0.0782087,0.0182953 0.0859291,0.0579291z"/>
   <path id="_376074168" class="fil1" d="M4.1329 3.31044c-0.083689,0.0540669 -0.195134,0.0300512 -0.249311,-0.0534961 -0.0540433,-0.0835748 -0.0301102,-0.195173 0.0535276,-0.249248 0.0836299,-0.0540906 0.195224,-0.0301024 0.249224,0.0534094 0.0540787,0.0836693 0.0300512,0.195236 -0.0534409,0.249335z"/>
   <path id="_376074024" class="fil1" d="M4.53943 3.0603c-0.0740709,0.0479646 -0.173114,0.0267677 -0.221193,-0.0475394 -0.0479528,-0.0740906 -0.0266693,-0.17313 0.0475197,-0.221118 0.0742402,-0.0480669 0.173185,-0.026748 0.221169,0.047437 0.0479882,0.074189 0.026752,0.173201 -0.0474961,0.22122z"/>
   <path id="_376074624" class="fil1" d="M4.87537 2.83697c-0.0523071,0.0337913 -0.122043,0.0188189 -0.155756,-0.0334528 -0.0338307,-0.0522323 -0.0188583,-0.121969 0.0333898,-0.155799 0.0522402,-0.0337913 0.121992,-0.0187205 0.155756,0.0335236 0.0338268,0.0521457 0.0187953,0.121925 -0.0333898,0.155728z"/>
   <path id="_376074216" class="fil1" d="M5.18974 2.62382c-0.0340197,0.0220118 -0.079437,0.0122913 -0.101386,-0.0216732 -0.0219843,-0.0340591 -0.0122283,-0.0794488 0.021685,-0.10139 0.0340236,-0.0219961 0.079437,-0.0122244 0.101402,0.0217362 0.0220236,0.034 0.0122638,0.079378 -0.0217008,0.101327z"/>
   <path id="_376074528" class="fil1" d="M4.21751 4.28565c-0.0694331,-0.0546535 -0.081374,-0.15539 -0.026685,-0.224724 0.0546142,-0.069374 0.155276,-0.0813504 0.224622,-0.0265945 0.0693819,0.0546614 0.081378,0.15515 0.0267283,0.224594 -0.0546811,0.0693858 -0.155303,0.0812874 -0.224665,0.0267244z"/>
   <path id="_376073208" class="fil1" d="M4.53744 4.53107c-0.048815,-0.0385157 -0.0571299,-0.109366 -0.018748,-0.158224 0.0384685,-0.0488701 0.109311,-0.0572402 0.15824,-0.018748 0.0488189,0.0384606 0.0573031,0.10928 0.0187874,0.158161 -0.0384921,0.0489331 -0.109346,0.0573189 -0.15828,0.018811z"/>
   <path id="_376073808" class="fil1" d="M2.94279 4.35723c0.0333819,-0.0817598 0.126835,-0.120917 0.208583,-0.0875157 0.0818504,0.0334882 0.120996,0.12689 0.0875945,0.208638 -0.0335,0.0817835 -0.126937,0.121008 -0.208661,0.0874764 -0.0818268,-0.0334528 -0.120917,-0.126835 -0.0875157,-0.208598z"/>
   <path id="_376073616" class="fil1" d="M2.79491 4.73242c0.0235827,-0.0575591 0.0894134,-0.0851496 0.146925,-0.0615591 0.0576299,0.0235197 0.0851732,0.0893583 0.0617008,0.146965 -0.0236575,0.0575236 -0.0894055,0.085185 -0.146996,0.0615394 -0.0576063,-0.0234724 -0.0851339,-0.089248 -0.0616299,-0.146945z"/>
   <path id="_376073544" class="fil1" d="M2.47685 3.48775c0.0867047,0.0166811 0.170531,-0.0400472 0.187276,-0.126937 0.0166575,-0.0866496 -0.0401417,-0.170579 -0.12689,-0.187217 -0.0867677,-0.0167362 -0.170673,0.0400236 -0.187374,0.126799 -0.016626,0.0867992 0.0402165,0.170689 0.126988,0.187354z"/>
   <path id="_376073496" class="fil1" d="M2.07669 3.38098c0.0610906,0.011748 0.120209,-0.0282677 0.131937,-0.089374 0.0118031,-0.0610669 -0.0282756,-0.120138 -0.0893268,-0.131945 -0.0610945,-0.0117638 -0.120122,0.0283386 -0.13187,0.0894331 -0.0117953,0.0610118 0.0281457,0.120106 0.0892598,0.131886z"/>
   <path id="_376073328" class="fil1" d="M1.70543 3.3011c0.0397874,0.00766535 0.0782441,-0.0183543 0.0858701,-0.0580669 0.00762598,-0.0398189 -0.0183622,-0.0782598 -0.0582047,-0.0858622 -0.0397205,-0.00766142 -0.078126,0.0183346 -0.0857598,0.0581181 -0.00766535,0.0397717 0.0183661,0.078189 0.0580945,0.085811z"/>
   <path id="_376073736" class="fil2" d="M5.45846 5.40051l-0.00116142 0.000224409 -0.000877953 0.000173228c-0.0186457,0.00348425 -0.0381299,0.00264567 -0.0570236,-0.00293701 -0.00237008,-0.000692913 -0.00483465,-0.00141732 -0.00720472,-0.00211024 0.019311,0.00534646 0.0392677,0.00595669 0.0582835,0.00226378 0.0257953,-0.00501575 0.0498661,-0.0179528 0.0685039,-0.0378346 0.0325,-0.0346024 0.0428898,-0.0844528 0.0272126,-0.129165 0.000913386,0.00247244 0.00183858,0.00502756 0.00274016,0.00753543 0.0159134,0.043378 0.0059252,0.0920118 -0.0256969,0.125654 -0.0176732,0.0188346 -0.040437,0.0312087 -0.0647756,0.0361969zm0.0370866 -0.304429c-0.118795,-0.309846 -0.282736,-0.693602 -0.497079,-1.13776 0.214406,0.44413 0.378287,0.827937 0.497079,1.13776z"/>
   <path id="_376073856" class="fil1" d="M4.08337 4.98441c-0.0847795,-0.0308504 -0.172071,-0.0636417 -0.261913,-0.098689 -1.1811e-005,-6.69291e-005 -1.1811e-005,-6.69291e-005 3.54331e-005,-7.48031e-005 0.0898622,0.0350433 0.17715,0.0679016 0.261866,0.0987835l1.1811e-005 -1.9685e-005z"/>
   <path id="_376073712" class="fil2" d="M4.29499 5.05928c-0.0688071,-0.0236496 -0.139315,-0.0485354 -0.21163,-0.0748425l1.1811e-005 -1.9685e-005c0.0723543,0.026315 0.142815,0.0512283 0.211618,0.0748622z"/>
   <path id="_376073568" class="fil3" d="M5.94424 2.34616c0.0198031,-0.0392047 0.0181417,-0.0859213 -0.00486614,-0.123638 -0.023622,-0.0388661 -0.0663228,-0.062122 -0.111815,-0.0609882 -0.343059,0.00865354 -0.898953,0.0781693 -1.52235,0.18028l-1.1811e-005 -6.29921e-005c0.628701,-0.102992 1.18877,-0.172803 1.53106,-0.180461 0.043622,-0.00101181 0.0844055,0.0214094 0.107126,0.0586299 0.0227087,0.0372598 0.0239252,0.0837874 0.00309449,0.122142 -0.000775591,0.0013189 -0.00152362,0.00277559 -0.00223228,0.00409843z"/>
   <polygon id="_376072968" class="fil1" points="4.3052,2.34181 4.3052,2.34181 4.30519,2.34175 "/>
   <path id="_376072776" class="fil1" d="M4.3052 2.34181c-0.0505984,0.00823622 -0.101689,0.0167913 -0.153047,0.0254488 -0.0191969,-0.0328976 -0.038374,-0.0656102 -0.0575472,-0.0981339 0.019189,0.0325039 0.0383425,0.0652047 0.0575472,0.0981339 0.0513661,-0.00870866 0.102453,-0.0171772 0.153039,-0.0254961l7.87402e-006 4.72441e-005zm-0.210783 -0.0730276c-0.000279528,-0.000480315 -0.000574803,-0.00102362 -0.00092126,-0.00155906 0.000358268,0.000515748 0.000629921,0.0010315 0.00092126,0.00155906z"/>
   <path id="_376072896" class="fil4" d="M5.45048 5.39813c-0.0190157,0.00369291 -0.0389724,0.00308268 -0.0582835,-0.00226378 -0.316673,-0.0931732 -0.674709,-0.191398 -1.0972,-0.336571 -0.068811,-0.0236654 -0.139268,-0.048563 -0.211634,-0.0748583 -0.0847165,-0.0308819 -0.17202,-0.0637362 -0.261866,-0.0987835 -4.72441e-005,7.87402e-006 -4.72441e-005,7.87402e-006 -3.54331e-005,7.48031e-005 -7.87402e-005,-5.11811e-005 -7.87402e-005,-5.11811e-005 -7.87402e-005,-5.11811e-005l-0.238776 -1.22839c0,0 3.93701e-006,1.5748e-005 3.93701e-006,1.5748e-005 0.117091,-0.0227756 0.193567,-0.136091 0.170807,-0.253169 -0.0227323,-0.117031 -0.136114,-0.193512 -0.253209,-0.170748l-0.0312559 -0.160799c0,0 3.93701e-006,1.5748e-005 3.93701e-006,1.5748e-005 0.0977953,-0.0190236 0.161547,-0.11352 0.142547,-0.211252 -0.0189961,-0.0977323 -0.113531,-0.161598 -0.211327,-0.142587l-0.0236024 -0.121425c0,0 0,1.5748e-005 0,1.5748e-005 0.0867402,-0.016874 0.143311,-0.100874 0.126461,-0.187547 -0.0168504,-0.086689 -0.100772,-0.143398 -0.187512,-0.126535l-0.0273386 -0.140654c0,0 0,0 0,0 0.061126,-0.0118819 0.100929,-0.0709606 0.0890472,-0.132087 -0.0118583,-0.0610079 -0.0709055,-0.100925 -0.132031,-0.0890433l-0.0377835 -0.194386c0,0 3.93701e-006,3.54331e-005 3.93701e-006,3.54331e-005 0.0397677,-0.00776772 0.065685,-0.0461457 0.0579409,-0.0859843 -0.00769291,-0.0396614 -0.0461457,-0.065685 -0.0859173,-0.0579528l-0.126512 -0.65085c-0.00468504,-0.0240906 0.00715748,-0.0484134 0.0291102,-0.0594764 0.00459055,-0.00232283 0.00936614,-0.00395669 0.0142244,-0.00489764 0.0102244,-0.00200787 0.0207953,-0.001 0.030378,0.0027126 0.0101496,0.0059252 0.0195354,0.0133228 0.0278346,0.0220315 0.247587,0.27289 0.5935,0.788768 0.939024,1.37451 0.000358268,0.000515748 0.000645669,0.00109843 0.000909449,0.00157874 9.05512e-005,0.000102362 0.000177165,0.000204724 0.000200787,0.000322835 0.019189,0.0325039 0.0383583,0.0652677 0.0575472,0.0981339 0.051374,-0.00866142 0.102453,-0.0171772 0.153047,-0.0254488l0 0c0.623413,-0.10213 1.17928,-0.171622 1.52235,-0.18028 0.0454882,-0.00114961 0.0881929,0.022122 0.111815,0.0609882 0.0230039,0.0377008 0.0246693,0.0844331 0.00487402,0.123669 -0.19874,0.364929 -0.564563,0.877299 -1.04013,1.41938 0.0325157,0.0654094 0.0639449,0.12972 0.0943465,0.192752 0.214339,0.444142 0.378287,0.827937 0.497079,1.13776 0.0178898,0.0467126 0.0347638,0.0917441 0.0506457,0.135043 0.0156772,0.0447126 0.00527165,0.0945669 -0.0272126,0.129165 -0.0186417,0.0198661 -0.0427244,0.0328228 -0.0685039,0.0378346zm-0.864937 -1.06614c-0.0255,0.00495669 -0.0494606,0.0187874 -0.0668504,0.0408661 -0.0383819,0.0488583 -0.0300669,0.119709 0.018748,0.158224 0.0268661,0.0211181 0.0602795,0.0281142 0.0913307,0.0220748 0.025563,-0.00498425 0.0495787,-0.0188071 0.0669488,-0.0408858 0.0385157,-0.0488819 0.0300157,-0.119697 -0.0187874,-0.158161 -0.0268661,-0.0211181 -0.0602874,-0.0281457 -0.0913898,-0.0220984zm-0.299638 -0.329063c-0.0363228,0.00705906 -0.0703976,0.0266732 -0.0950748,0.0579843 -0.054689,0.0693346 -0.0427638,0.170075 0.026689,0.22474 0.0380394,0.0299252 0.0854882,0.0398189 0.129587,0.0312441 0.0363228,-0.00705906 0.0703858,-0.0266535 0.0950748,-0.0579843 0.0546496,-0.0694449 0.0426535,-0.169933 -0.0267283,-0.224594 -0.0380079,-0.0300157 -0.0854646,-0.0399606 -0.129563,-0.0313858zm-0.359555 -0.339717c-0.0409331,0.00795669 -0.0793583,0.0301378 -0.107146,0.0654606 -0.0616417,0.0781693 -0.0481772,0.191516 0.0300236,0.253154 0.0429134,0.0337244 0.0963819,0.0449409 0.146035,0.0352874 0.0409488,-0.00795669 0.0793228,-0.0300433 0.10711,-0.0653622 0.061622,-0.0782874 0.0480984,-0.191571 -0.0300394,-0.25322 -0.0429409,-0.0338071 -0.0963268,-0.0449528 -0.14598,-0.0352992zm0.0742047 -0.681197c-0.0219331,0.00426378 -0.0434685,0.0127874 -0.0634213,0.0256457 -0.0836417,0.0540591 -0.107587,0.165677 -0.0535276,0.249248 0.0412638,0.0635866 0.115756,0.0927559 0.185886,0.079126 0.0219134,-0.00427953 0.0434567,-0.012752 0.0634094,-0.0256102 0.0835079,-0.0541181 0.107524,-0.165665 0.0534567,-0.249354 -0.041126,-0.0635787 -0.115618,-0.0926614 -0.185795,-0.0790197zm0.421539 -0.213248c-0.0195472,0.00379921 -0.0386575,0.0113504 -0.0563346,0.0228031 -0.074189,0.0479882 -0.0954843,0.147047 -0.0475197,0.221118 0.0366142,0.0565591 0.10274,0.0823661 0.16498,0.0702677 0.0194764,-0.00380315 0.0385394,-0.0112402 0.0562165,-0.0226969 0.0742362,-0.0480827 0.0954843,-0.147047 0.0474921,-0.221252 -0.0365236,-0.0564528 -0.10261,-0.0823189 -0.164846,-0.0702205zm0.370484 -0.137173c-0.0136969,0.00266142 -0.0270984,0.0079685 -0.0395551,0.0160315 -0.052252,0.0337992 -0.0672205,0.103567 -0.0333898,0.155799 0.0256929,0.0397756 0.0722087,0.0579685 0.116075,0.0494409 0.0137402,-0.00268898 0.0272165,-0.00797638 0.039685,-0.0159724 0.0521811,-0.0338189 0.0672008,-0.103563 0.0333858,-0.155744 -0.0257126,-0.0398583 -0.0723268,-0.0580472 -0.116197,-0.0495197zm0.343256 -0.141394c-0.00890551,0.00172835 -0.0176417,0.00520079 -0.0257795,0.0104291 -0.0339134,0.0219409 -0.0436654,0.0673661 -0.021685,0.10139 0.0167323,0.0258071 0.0470079,0.0376457 0.0755394,0.0320984 0.00895276,-0.00174016 0.0177087,-0.00512598 0.0258504,-0.0104094 0.0339567,-0.0219803 0.0437244,-0.0673228 0.0216969,-0.101343 -0.016748,-0.0258898 -0.0470866,-0.0376969 -0.075622,-0.0321654z"/>
   <path id="_376072656" class="fil1" d="M3.37657 2.59733c0,0 0,1.5748e-005 0,1.5748e-005l-0.0610551 -0.314098c0,0 3.93701e-006,1.5748e-005 3.93701e-006,1.5748e-005 0.0867362,-0.016878 0.170661,0.0398465 0.187512,0.126535 0.0168425,0.0866417 -0.0397205,0.170689 -0.126461,0.187531z"/>
   <path id="_376072632" class="fil1" d="M3.28818 2.14261c0,0 0,0 0,0l-0.0429882 -0.221146c0,0 3.93701e-006,1.5748e-005 3.93701e-006,1.5748e-005 0.061122,-0.0118976 0.120177,0.0280512 0.132031,0.0890433 0.011878,0.0611102 -0.0279213,0.120205 -0.0890472,0.132087z"/>
   <path id="_376073112" class="fil1" d="M3.20741 1.7271c0,0 3.93701e-006,3.54331e-005 3.93701e-006,3.54331e-005l-0.0279843 -0.143972c0,0 7.87402e-006,3.54331e-005 7.87402e-006,3.54331e-005 0.0397638,-0.00776772 0.0782087,0.0182953 0.0859173,0.0579528 0.00775591,0.0398189 -0.0181654,0.078252 -0.0579449,0.0859488z"/>
   <path id="_376072608" class="fil5" d="M4.083 3.40542c-0.0976181,0.0189764 -0.201319,-0.0215787 -0.25874,-0.110118 -0.0752283,-0.116327 -0.0419094,-0.271673 0.0745079,-0.346941 0.0277756,-0.0179016 0.0577598,-0.0297165 0.0882913,-0.0356496 0.0976772,-0.0190354 0.201354,0.0215236 0.258618,0.109996 0.0752795,0.116465 0.0418346,0.27176 -0.0744055,0.347091 -0.0277795,0.017878 -0.0577598,0.0297165 -0.0882717,0.035622z"/>
   <path id="_376072872" class="fil1" d="M4.06947 3.33606c-0.0701299,0.0136299 -0.14463,-0.0155039 -0.185882,-0.0791102 -0.0540433,-0.0835748 -0.0301102,-0.195173 0.0535276,-0.249248 0.0199528,-0.0128583 0.0414961,-0.0213465 0.0634291,-0.0256102 0.0701693,-0.0136772 0.144654,0.0154606 0.185795,0.0790197 0.0540787,0.0836693 0.0300512,0.195236 -0.0534567,0.249354 -0.0199528,0.0128425 -0.0414921,0.0213504 -0.0634134,0.0255945z"/>
   <path id="_376072488" class="fil1" d="M4.48321 3.08301c-0.0622205,0.0120945 -0.128362,-0.0136929 -0.164976,-0.070252 -0.0479528,-0.0740906 -0.0266693,-0.17313 0.0475197,-0.221118 0.0176772,-0.0114528 0.0367913,-0.0189882 0.0563228,-0.0227835 0.0622323,-0.0121142 0.128327,0.0137835 0.164846,0.0702205 0.0479882,0.074189 0.026752,0.173201 -0.0474921,0.221252 -0.0176811,0.011437 -0.0367362,0.0189094 -0.0562205,0.0226811z"/>
   <path id="_376073088" class="fil1" d="M4.83569 2.85294c-0.0438661,0.00852756 -0.090374,-0.00961811 -0.116071,-0.0494252 -0.0338307,-0.0522323 -0.0188583,-0.121969 0.0333898,-0.155799 0.0124567,-0.00806299 0.0258661,-0.0133346 0.0395591,-0.0159961 0.0438622,-0.00856299 0.0904843,0.00966142 0.116197,0.0495197 0.0338268,0.0521457 0.0187953,0.121925 -0.0333858,0.155744 -0.0124685,0.00799606 -0.0259409,0.0132992 -0.039689,0.0159567z"/>
   <path id="_376072416" class="fil1" d="M5.16391 2.63424c-0.0285512,0.00555118 -0.0588228,-0.00626772 -0.0755591,-0.0320945 -0.0219843,-0.0340591 -0.0122283,-0.0794488 0.021685,-0.10139 0.00814961,-0.00526378 0.016878,-0.0086811 0.0257638,-0.0104094 0.0285472,-0.00556693 0.0588937,0.00627559 0.0756378,0.0321457 0.0220236,0.034 0.0122638,0.079378 -0.0216969,0.101343 -0.00814567,0.00526378 -0.0168976,0.00866929 -0.0258307,0.0104055z"/>
   <path id="_376072296" class="fil1" d="M4.3471 4.31691c-0.0440984,0.0085748 -0.0915472,-0.0013189 -0.129587,-0.0312441 -0.069437,-0.0546693 -0.081378,-0.155406 -0.026689,-0.22474 0.0246772,-0.031311 0.058752,-0.0509252 0.0950591,-0.0579803 0.0440984,-0.0085748 0.0915591,0.00138583 0.129563,0.0313858 0.0693819,0.0546614 0.081378,0.15515 0.0267283,0.224594 -0.0246929,0.031315 -0.058752,0.0509252 -0.0950748,0.0579843z"/>
   <path id="_376072224" class="fil1" d="M4.62877 4.55313c-0.0310551,0.00603543 -0.0644646,-0.000940945 -0.0913307,-0.0220591 -0.048815,-0.0385157 -0.0571299,-0.109366 -0.018748,-0.158224 0.0173898,-0.0220787 0.0413543,-0.0358898 0.0668504,-0.0408465 0.0311181,-0.00606693 0.0645236,0.000980315 0.0913898,0.0220984 0.0488189,0.0384606 0.0573031,0.10928 0.0187874,0.158161 -0.0173701,0.0220787 -0.0414016,0.0359213 -0.0669488,0.0408701z"/>
   <path id="_376071768" class="fil5" d="M3.81987 3.39119c0.0298937,0.15378 -0.0705669,0.302661 -0.224366,0.332559 -0.153787,0.0298701 -0.302606,-0.0705118 -0.3325,-0.224291 -0.029878,-0.153717 0.0704882,-0.302622 0.224268,-0.332516 0.153795,-0.0299173 0.302705,0.0705591 0.332598,0.224248z"/>
   <path id="_376072032" class="fil5" d="M3.66917 2.85007c0.025185,0.129571 -0.0594567,0.255012 -0.189043,0.280201 -0.129575,0.0251693 -0.254965,-0.0594094 -0.28015,-0.18898 -0.0251772,-0.129512 0.0593858,-0.254976 0.188957,-0.280161 0.129583,-0.0252087 0.255047,0.0594488 0.280236,0.188941z"/>
   <path id="_376072008" class="fil5" d="M3.53483 3.94213c0.025185,0.129567 -0.0594606,0.255008 -0.189047,0.280197 -0.129571,0.0251693 -0.254961,-0.0594094 -0.28015,-0.188976 -0.0251732,-0.129516 0.0593898,-0.25498 0.188957,-0.280165 0.129587,-0.0252087 0.255047,0.0594528 0.28024,0.188945z"/>
   <path id="_376071936" class="fil5" d="M4.19533 3.79459c0.025185,0.129567 -0.0594567,0.255008 -0.189043,0.280197 -0.129575,0.0251693 -0.254965,-0.0594094 -0.28015,-0.188976 -0.0251772,-0.129516 0.0593858,-0.25498 0.188957,-0.280165 0.129583,-0.0252087 0.255047,0.0594528 0.280236,0.188945z"/>
   <path id="_376071792" class="fil5" d="M3.21615 3.34474c0.025189,0.129571 -0.0594567,0.255012 -0.189043,0.280201 -0.129571,0.0251654 -0.254965,-0.0594094 -0.28015,-0.18898 -0.0251732,-0.129512 0.0593898,-0.254976 0.188957,-0.280161 0.129587,-0.0252087 0.255047,0.0594488 0.280236,0.188941z"/>
   <path id="_376072200" class="fil1" d="M3.75343 3.40411c0.0227559,0.117079 -0.0537283,0.230429 -0.170823,0.253189 -0.117083,0.0227402 -0.230386,-0.0536811 -0.253146,-0.17076 -0.022748,-0.117031 0.0536654,-0.230402 0.170744,-0.253157 0.117091,-0.0227795 0.230461,0.0537165 0.253224,0.170728z"/>
   <path id="_376072320" class="fil1" d="M3.6115 2.86133c0.019,0.097748 -0.044752,0.19226 -0.142547,0.211268 -0.0977205,0.0189803 -0.192295,-0.0447402 -0.211291,-0.142472 -0.0189961,-0.0977323 0.0447795,-0.19237 0.142512,-0.211366 0.0977953,-0.0190118 0.192331,0.0448543 0.211327,0.142571z"/>
   <path id="_376071696" class="fil1" d="M2.94754 3.56731c0.0977441,0.0188701 0.192244,-0.0451811 0.211071,-0.142866 0.0187283,-0.0978386 -0.0451575,-0.192299 -0.143059,-0.211087 -0.097689,-0.0188465 -0.19224,0.0451969 -0.211008,0.142921 -0.0188071,0.0977165 0.0451969,0.19224 0.142996,0.211031z"/>
   <path id="_376071144" class="fil1" d="M3.13335 3.91959c0.0377283,-0.0921732 0.142992,-0.136409 0.23513,-0.0986811 0.0921772,0.0376575 0.136256,0.142988 0.0985551,0.235102 -0.037622,0.0920984 -0.142866,0.136181 -0.235024,0.0986063 -0.0920669,-0.0377087 -0.136244,-0.142917 -0.0986614,-0.235028z"/>
   <path id="_376071288" class="fil1" d="M3.84921 3.98184c-0.0782047,-0.0616535 -0.0916772,-0.174949 -0.0300236,-0.253154 0.061563,-0.0782441 0.174811,-0.0917559 0.25313,-0.0301417 0.0781378,0.0616496 0.0916614,0.174949 0.0300394,0.25322 -0.0615906,0.0781772 -0.174913,0.0915827 -0.253146,0.0300748z"/>
   <path id="_376071024" class="fil1" d="M3.99524 4.01713c-0.0496535,0.00965354 -0.103122,-0.00156299 -0.146035,-0.0352874 -0.0782047,-0.0616535 -0.0916772,-0.174949 -0.0300236,-0.253154 0.0277795,-0.0353543 0.0662165,-0.0574843 0.10715,-0.0654409 0.0496496,-0.00966929 0.103047,0.00152756 0.14598,0.0352992 0.0781378,0.0616496 0.0916614,0.174949 0.0300394,0.25322 -0.0277874,0.0353189 -0.0661614,0.0574055 -0.10711,0.0653622z"/>
  </g>
  <rect class="fil6" width="6.82666" height="6.82666"/>
 </g>
</svg>
