<?xml version="1.0" encoding="UTF-8"?>
<!DOCTYPE svg PUBLIC "-//W3C//DTD SVG 1.1//EN" "http://www.w3.org/Graphics/SVG/1.1/DTD/svg11.dtd">
<!-- Creator: CorelDRAW -->
<svg xmlns="http://www.w3.org/2000/svg" xml:space="preserve" width="6.82666in" height="6.82666in" style="shape-rendering:geometricPrecision; text-rendering:geometricPrecision; image-rendering:optimizeQuality; fill-rule:evenodd; clip-rule:evenodd"
viewBox="0 0 6.82666 6.82666"
 xmlns:xlink="http://www.w3.org/1999/xlink">
 <defs>
  <style type="text/css">
   <![CDATA[
    .fil7 {fill:none}
    .fil5 {fill:#BA68C8}
    .fil6 {fill:#F3E5F5}
    .fil0 {fill:#660404;fill-rule:nonzero}
    .fil2 {fill:#7D0E0E;fill-rule:nonzero}
    .fil1 {fill:#B71C1C;fill-rule:nonzero}
    .fil4 {fill:#D32F2F;fill-rule:nonzero}
    .fil3 {fill:#F57C00;fill-rule:nonzero}
   ]]>
  </style>
 </defs>
 <g id="Layer_x0020_1">
  <metadata id="CorelCorpID_0Corel-Layer"/>
  <g id="_352801968">
   <path id="_352803336" class="fil0" d="M3.48944 2.97526l0.555665 -0.366476 -0.0143898 0.0267402 0.0730157 -1.13129 0.000114173 -0.00222047 0.000433071 -0.00216929 0.109476 -0.583902c0.00371654,-0.019815 0.0227677,-0.0328307 0.0425906,-0.0291142 0.019811,0.00371654 0.0328661,0.0227795 0.0291142,0.0425906l-0.109476 0.583906 0.00057874 -0.00438976 -0.0729882 1.13128 -0.001 0.015126 -0.0133543 0.0116181 -0.50265 0.436378c-0.0336024,0.0291417 -0.0844488,0.0255748 -0.11365,-0.00801575 -0.0291496,-0.0336024 -0.0255512,-0.0844488 0.00804331,-0.113661 0.00259055,-0.00225591 0.00566929,-0.00456299 0.00847638,-0.00639764z"/>
   <path id="_352803240" class="fil0" d="M3.74411 3.12247c0.073748,-0.0165591 0.143535,-0.0273701 0.215417,-0.0363976 0.0357323,-0.00424016 0.0714016,-0.00814173 0.107346,-0.0106732 0.0357244,-0.00320079 0.0717598,-0.00453937 0.107618,-0.00603543 0.0360315,-0.000669291 0.0719173,-0.00140551 0.107949,-9.44882e-005 0.0358858,0.000122047 0.0720669,0.00351181 0.107827,0.00591732l0.053811 0.00616142c0.0178583,0.00154724 0.0357598,0.00551181 0.0535315,0.0083189 0.0356063,0.00509449 0.0708189,0.0150591 0.105756,0.0232913l9.84252e-005 3.54331e-005 -0.035063 0.0122559 0.58387 -0.693386 0.00393701 -0.00462992 0.0052126 -0.00314173 0.364921 -0.218953c0.0172835,-0.0103622 0.039689,-0.00475197 0.0500512,0.0125276 0.0103976,0.0172559 0.0047874,0.0397008 -0.0124961,0.050063l-0.364921 0.218953 0.00911417 -0.00777953 -0.583902 0.693378 -0.0132323 0.0157677 -0.0218307 -0.00351181 -5.11811e-005 0c-0.0335669,-0.00219291 -0.0664055,-0.00612205 -0.100059,-0.0054252 -0.0167323,0.000125984 -0.0332283,-0.00088189 -0.0500591,0.000397638l-0.0500591 0.00244488c-0.0334764,0.00322835 -0.0666693,0.00544882 -0.0999331,0.0107874 -0.0332283,0.00417717 -0.0662717,0.0103071 -0.0992638,0.0163071 -0.0329252,0.00686614 -0.0657283,0.0134528 -0.0983228,0.0218307 -0.0326417,0.00770866 -0.0650236,0.0167717 -0.0972165,0.0260354 -0.0638622,0.018752 -0.12902,0.0403071 -0.187858,0.0641102 -0.0534134,0.0217087 -0.114323,-0.00392913 -0.136031,-0.0573661 -0.0217047,-0.0534134 0.00396457,-0.114331 0.057378,-0.136031 0.00518898,-0.0021063 0.0111614,-0.00390157 0.0164606,-0.00515748z"/>
   <path id="_352803072" class="fil0" d="M3.90313 3.67789c0.156878,0.010122 0.311598,0.0248228 0.467051,0.0457047 0.0388031,0.00538976 0.0775787,0.0110906 0.116394,0.0176811 0.0387756,0.00637402 0.0775906,0.013689 0.116366,0.0221339 0.0192992,0.00359055 0.0388386,0.00923622 0.0582008,0.0138661 0.0192992,0.0043622 0.0388386,0.0103701 0.0582913,0.0167402 0.00972441,0.00316929 0.0193583,0.00588583 0.0291102,0.00945276l0.0294528 0.0124055c0.0190866,0.00646063 0.0399606,0.0212835 0.0591378,0.0335669l0.00741732 0.00472441 0.00359055 0.00862598c0.0306102,0.0620433 0.0652441,0.124201 0.100969,0.184508 0.0361339,0.0603228 0.0737165,0.119835 0.114535,0.176724 0.0202835,0.0285039 0.0411299,0.0566732 0.0628661,0.0839016l0.0328898 0.0405709 0.0345472 0.0389016c0.011185,0.0133268 0.0238661,0.024937 0.0358504,0.0372913 0.0120157,0.0123701 0.0241496,0.0246024 0.0372559,0.0355118 0.0129882,0.0109449 0.0251811,0.0232638 0.038811,0.0331063l0.0405472 0.0300591 -0.00307874 -0.00179528 0.273705 0.145941c0.0177677,0.00951181 0.0245118,0.0316063 0.0150236,0.0493858 -0.00951181,0.0177677 -0.0316102,0.0245118 -0.0493858,0.0150236l-0.273705 -0.145965 -0.00209843 -0.00112598 -0.000944882 -0.000732283 -0.0452756 -0.0335039c-0.015185,-0.0110709 -0.0282362,-0.0241142 -0.0424016,-0.0361299 -0.0143031,-0.0119843 -0.0272677,-0.0249646 -0.040063,-0.0381339 -0.0127402,-0.0131732 -0.0263701,-0.0257677 -0.0380787,-0.0396969l-0.0364055 -0.0409685 -0.0343504 -0.0423819c-0.0226535,-0.0284134 -0.0442717,-0.0575276 -0.0652087,-0.0870039 -0.0422047,-0.0588386 -0.0807323,-0.119843 -0.11774,-0.181673 -0.0368307,-0.0621929 -0.0716142,-0.124472 -0.103984,-0.190169l-6.29921e-005 0 0.0110354 0.0133819c-0.0148504,-0.00576378 -0.0258858,-0.0135669 -0.0442362,-0.0174961l-0.025 -0.00725591c-0.00868898,-0.00201969 -0.0179291,-0.00347638 -0.0268031,-0.00524803 -0.0177992,-0.00359449 -0.0357244,-0.00685827 -0.0544764,-0.00880315 -0.0185945,-0.00219685 -0.0367087,-0.00524803 -0.0556693,-0.00649606 -0.0374055,-0.00360236 -0.0750866,-0.00616142 -0.113016,-0.00786614 -0.0378307,-0.00188583 -0.0759055,-0.00299213 -0.113949,-0.00369291 -0.152189,-0.00240551 -0.305961,0.00125591 -0.457539,0.0094252l-0.000519685 2.75591e-005c-0.0504252,0.00271654 -0.0935,-0.0359724 -0.0961811,-0.0863701 -0.00274409,-0.0504213 0.0359094,-0.0934724 0.0863307,-0.0962047 0.00347638,-0.000188976 0.00740551,-9.84252e-005 0.0107953,5.11811e-005z"/>
   <path id="_352803576" class="fil0" d="M3.99523 4.18762l0.306421 0.91798 0.0028937 0.00859055 -0.000177165 0.00622047 -0.0182677 0.638626 -0.00554724 -0.0203622 0.0912441 0.145969c0.0106732,0.0170984 0.00548819,0.039626 -0.0115827,0.0502638 -0.0170984,0.0107087 -0.039626,0.00549606 -0.0502992,-0.0115827l-0.0912165 -0.145961 -0.00585039 -0.0093622 0.000275591 -0.0110079 0.0182559 -0.638626 0.00271654 0.0148228 -0.423461 -0.870201c-0.0241772,-0.0496339 -0.0035315,-0.109421 0.0460945,-0.133594 0.0496378,-0.0241417 0.109421,-0.00347244 0.133598,0.0461299 0.00185827,0.00380315 0.00359055,0.00819291 0.00490157,0.0120945z"/>
   <path id="_352803552" class="fil0" d="M3.24007 3.10333l-0.502626 -0.436378 -0.0133976 -0.0116181 -0.000964567 -0.015126 -0.0729764 -1.13128 0.000527559 0.00438976 -0.109472 -0.583906c-0.00370472,-0.019811 0.00932677,-0.038874 0.0291417,-0.0425906 0.019815,-0.00371654 0.0388819,0.00929921 0.0426339,0.0291142l0.109484 0.583902 0.000377953 0.00216929 0.000153543 0.00222047 0.0729764 1.13129 -0.0143504 -0.0267402 0.555654 0.366476c0.0371339,0.0244764 0.0474055,0.0744488 0.0229213,0.111579 -0.0245394,0.0371575 -0.0744764,0.0474055 -0.111606,0.0228937 -0.00286614,-0.00185827 -0.00592126,-0.00423622 -0.00847638,-0.00639764z"/>
   <path id="_352803672" class="fil0" d="M3.02032 3.32103c-0.0588386,-0.0238031 -0.123976,-0.0453583 -0.187823,-0.0641102 -0.0321929,-0.00926378 -0.0645906,-0.0183268 -0.0972244,-0.0260354 -0.0325748,-0.00837795 -0.0653898,-0.0149646 -0.0983346,-0.0218307 -0.0329528,-0.006 -0.0660315,-0.0121299 -0.0992441,-0.0163071 -0.0332441,-0.00533858 -0.0664646,-0.00755906 -0.0999331,-0.0107874l-0.0500591 -0.00244488c-0.0168307,-0.00127953 -0.0333268,-0.000271654 -0.0500787,-0.000397638 -0.0336339,-0.00069685 -0.0664724,0.00323228 -0.100039,0.0054252l-7.08661e-005 0 -0.0218031 0.00351181 -0.0132559 -0.0157677 -0.583894 -0.693378 0.00912205 0.00777953 -0.364921 -0.218953c-0.0172913,-0.0103622 -0.0228858,-0.0328071 -0.0125118,-0.050063 0.0103622,-0.0172795 0.0327835,-0.0228898 0.0500669,-0.0125276l0.364921 0.218953 0.0052126 0.00314173 0.00392126 0.00462992 0.583886 0.693386 -0.0350591 -0.0122559 0.000106299 -3.54331e-005c0.0349173,-0.00823228 0.0701378,-0.0181969 0.105728,-0.0232913 0.0177874,-0.00280709 0.0356811,-0.00677165 0.0535276,-0.0083189l0.053811 -0.00616142c0.0357874,-0.00240551 0.0719646,-0.00579528 0.107846,-0.00591732 0.0360354,-0.00131102 0.0719173,-0.000574803 0.107953,9.44882e-005 0.0358031,0.00149606 0.0718701,0.00283465 0.107614,0.00603543 0.0359252,0.0025315 0.0715984,0.00643307 0.107374,0.0106732 0.0718543,0.00902756 0.141642,0.0198386 0.215417,0.0363976 0.0562165,0.0126181 0.0916063,0.068437 0.0789606,0.12472 -0.0126299,0.0562795 -0.0684764,0.0916417 -0.124756,0.0790236 -0.0054252,-0.00125984 -0.0113976,-0.00317717 -0.0164606,-0.00518898z"/>
   <path id="_352803192" class="fil0" d="M2.92394 3.86039c-0.151559,-0.00816929 -0.305346,-0.0118307 -0.45752,-0.0094252 -0.0380591,0.000700787 -0.0761181,0.00180709 -0.113976,0.00369291 -0.0379094,0.00170472 -0.0755709,0.00426378 -0.112996,0.00786614 -0.0189606,0.00124803 -0.0370669,0.00429921 -0.0556614,0.00649606 -0.018748,0.00194488 -0.0366772,0.00520866 -0.0545,0.00880315 -0.00886614,0.00177165 -0.0181339,0.00322835 -0.0267677,0.00524803l-0.0250079 0.00725591c-0.0183543,0.00392913 -0.0294055,0.0117323 -0.0441929,0.0174961l0.0109724 -0.0133819c-0.0324252,0.0656969 -0.0672008,0.127976 -0.104016,0.190169 -0.0370394,0.0618307 -0.075563,0.122835 -0.117756,0.181673 -0.0209528,0.0294764 -0.0425551,0.0585906 -0.0652244,0.0870039l-0.0343465 0.0423819 -0.036378 0.0409685c-0.0117677,0.0139291 -0.0253071,0.0265236 -0.0381142,0.0396969 -0.0127874,0.0131693 -0.0257598,0.0261496 -0.0400394,0.0381339 -0.0141969,0.0120157 -0.0272402,0.0250591 -0.0424252,0.0361299l-0.045252 0.0335039 -0.000964567 0.000732283 -0.00209843 0.00112598 -0.273689 0.145965c-0.0177953,0.00948819 -0.0399016,0.00274409 -0.049378,-0.0150236 -0.00951181,-0.0177795 -0.00276772,-0.039874 0.0150157,-0.0493858l0.273689 -0.145941 -0.00306299 0.00179528 0.0405669 -0.0300591c0.0136457,-0.00984252 0.0257835,-0.0221614 0.0388031,-0.0331063 0.0130787,-0.0109094 0.0252283,-0.0231417 0.0372441,-0.0355118 0.0119843,-0.0123543 0.0246299,-0.0239646 0.0358504,-0.0372913l0.0345276 -0.0389016 0.0328937 -0.0405709c0.021752,-0.0272283 0.0425827,-0.0553976 0.062874,-0.0839016 0.0408386,-0.0568898 0.0783937,-0.116402 0.114488,-0.176724 0.0357953,-0.0603071 0.0703976,-0.122465 0.101004,-0.184508l0.00359449 -0.00862598 0.0074252 -0.00472441c0.0191654,-0.0122835 0.0400591,-0.0271063 0.0591929,-0.0335669l0.0294055 -0.0124055c0.00975197,-0.00356693 0.0193858,-0.00628346 0.0291142,-0.00945276 0.0194488,-0.00637008 0.0389882,-0.012378 0.0583071,-0.0167402 0.0193346,-0.00462992 0.0388819,-0.0102756 0.058189,-0.0138661 0.0387717,-0.00844488 0.0775748,-0.0157598 0.11635,-0.0221339 0.038811,-0.00659055 0.0775906,-0.0122913 0.116402,-0.0176811 0.155445,-0.0208819 0.310154,-0.0355827 0.467031,-0.0457047 0.0504055,-0.00322835 0.0938189,0.0349724 0.0971142,0.0853307 0.00322835,0.0503976 -0.0349646,0.093874 -0.0853622,0.0971024 -0.00344094,0.000248031 -0.00687402,0.000275591 -0.0102559,0.000125984l-0.00107087 -6.29921e-005z"/>
   <path id="_352803648" class="fil0" d="M3.01605 4.26299l-0.423461 0.870201 0.00268898 -0.0148228 0.018248 0.638626 0.000291339 0.0110079 -0.00583858 0.0093622 -0.0912441 0.145961c-0.0106575,0.0170787 -0.0331693,0.0222913 -0.0502835,0.0115827 -0.0170591,-0.0106378 -0.0222717,-0.0331654 -0.0115748,-0.0502638l0.0912283 -0.145969 -0.00555906 0.0203622 -0.018248 -0.638626 -0.000185039 -0.00622047 0.0028937 -0.00859055 0.306378 -0.91798c0.0174921,-0.0523425 0.0740945,-0.0806339 0.126437,-0.0631299 0.052378,0.0174685 0.0806063,0.0740512 0.0631732,0.126394 -0.00137008,0.00399213 -0.00316929,0.00838976 -0.00494488,0.0121063z"/>
   <path id="_352803456" class="fil1" d="M4.18574 3.80563c0,0.443425 -0.802811,0.948827 -0.802811,0.948827 0,0 -0.802862,-0.505402 -0.802862,-0.948827 0,-0.443378 0.359457,-0.802839 0.802862,-0.802839 0.443378,0 0.802811,0.359461 0.802811,0.802839z"/>
   <path id="_352803024" class="fil2" d="M3.74782 2.71997c0,0.201539 -0.163398,0.364949 -0.364909,0.364949 -0.201551,0 -0.364925,-0.163409 -0.364925,-0.364949 0,-0.201516 0.163374,-0.364921 0.364925,-0.364921 0.201512,0 0.364909,0.163406 0.364909,0.364921z"/>
   <g>
    <path id="_352802544" class="fil3" d="M3.30668 1.99873c0,0 -0.00448031,0.00558268 -0.0123819,0.0153976 -0.00420472,0.00484646 -0.0085315,0.010874 -0.0127087,0.0178661 -0.00444882,0.00688189 -0.0095748,0.0144764 -0.0139606,0.0239252 -0.00497638,0.00896457 -0.00951575,0.0190906 -0.0134449,0.030126 -0.00482283,0.0106102 -0.00707874,0.0228543 -0.0108307,0.0348386 -0.00198031,0.0125276 -0.00514961,0.025122 -0.0055748,0.0383858 -0.00164567,0.0130433 -0.000759843,0.0263976 -0.000732283,0.0396024 0.00164567,0.0131654 0.00244094,0.0262795 0.00570472,0.0388622 0.00207087,0.0127165 0.00679921,0.0246378 0.0101496,0.0362559 0.00511811,0.0110984 0.00865748,0.0222559 0.0145394,0.0317323 0.005,0.00987795 0.0103976,0.018752 0.0161339,0.0264606 0.00505118,0.00811417 0.0109094,0.0147244 0.015937,0.0205827 0.0047874,0.00606299 0.0093622,0.0109724 0.0135669,0.0146654 0.00790157,0.0076811 0.0124409,0.0120669 0.0124409,0.0120669l0.00225591 0.00223228c0.0145118,0.0140512 0.014815,0.0372559 0.000759843,0.0517598 -0.0141142,0.0144843 -0.0372795,0.0148189 -0.0517913,0.000759843 -0.000976378,-0.001 -0.00194882,-0.00207087 -0.00287008,-0.00313386 0,0 -0.00505906,-0.00625591 -0.0139606,-0.0171299 -0.00462992,-0.00533858 -0.00970079,-0.0121693 -0.0148504,-0.0205236 -0.00538976,-0.0081063 -0.0115472,-0.0171929 -0.0167953,-0.0280512 -0.00585039,-0.0104252 -0.011248,-0.0221575 -0.0159724,-0.034937 -0.0055748,-0.0124331 -0.00860236,-0.0265827 -0.0129291,-0.0406339 -0.00259449,-0.0145394 -0.00622047,-0.0292913 -0.00700787,-0.044689 -0.00195669,-0.015248 -0.00124803,-0.0308583 -0.00116142,-0.0462795 0.00158661,-0.0154606 0.00259449,-0.0307874 0.00616142,-0.0455472 0.00237795,-0.014937 0.00759055,-0.0289921 0.0115197,-0.0426181 0.00573622,-0.0131417 0.01,-0.0262559 0.0167087,-0.0375039 0.0057874,-0.0116457 0.0120709,-0.0221299 0.0186535,-0.0313346 0.0124409,-0.0183898 0.0256693,-0.0337756 0.0343858,-0.0419528 0.009,-0.00877953 0.0140906,-0.0138071 0.0140906,-0.0138071 0.00371654,-0.00362598 0.00969685,-0.00359843 0.0133268,9.05512e-005 0.00337795,0.00347638 0.00359055,0.00883858 0.000637795,0.0125315z"/>
    <path id="_352802376" class="fil3" d="M3.47313 1.98611c0,0 0.00505906,0.00502756 0.0140512,0.0138071 0.00875197,0.00817717 0.0219567,0.023563 0.0343898,0.0419528 0.00661811,0.00920472 0.0128661,0.019689 0.018689,0.0313346 0.00670472,0.011248 0.0109173,0.0243622 0.0166811,0.0375039 0.00392913,0.013626 0.0091378,0.0276811 0.0115551,0.0426181 0.0035315,0.0147598 0.00453937,0.0300866 0.00614961,0.0455472 6.29921e-005,0.0154213 0.000795276,0.0310315 -0.00118504,0.0462795 -0.000759843,0.0153976 -0.0044252,0.0301496 -0.00700787,0.044689 -0.00430315,0.0140512 -0.00735433,0.0282008 -0.0129646,0.0406339 -0.00468898,0.0127795 -0.010063,0.0245118 -0.015937,0.034937 -0.00524803,0.0108583 -0.0113701,0.0199449 -0.0167953,0.0280512 -0.00518504,0.00835433 -0.0102205,0.015185 -0.0148228,0.0205236 -0.00890157,0.010874 -0.0140276,0.0171299 -0.0140276,0.0171299 -0.0127677,0.0156732 -0.0358465,0.0179803 -0.0514567,0.00524016 -0.0156969,-0.0127953 -0.0180433,-0.0358504 -0.00524803,-0.0515551 0.000885827,-0.00109055 0.00183071,-0.00212598 0.00281496,-0.00307087l0.00230709 -0.00223228c0,0 0.00451575,-0.00438583 0.0124449,-0.0120669 0.00414173,-0.00369291 0.00877559,-0.00860236 0.0135276,-0.0146654 0.00503543,-0.00585827 0.0108583,-0.0124685 0.0159213,-0.0205827 0.00575984,-0.00770866 0.0111575,-0.0165827 0.0161575,-0.0264606 0.00587795,-0.00947638 0.00938976,-0.0206339 0.0145394,-0.0317323 0.00335433,-0.0116181 0.00807874,-0.0235394 0.0101496,-0.0362559 0.00323228,-0.0125827 0.00409055,-0.0256969 0.00570079,-0.0388622 3.54331e-005,-0.0132047 0.000944882,-0.0265591 -0.000700787,-0.0396024 -0.000484252,-0.0132638 -0.00365354,-0.0258583 -0.00559843,-0.0383858 -0.00372835,-0.0119843 -0.00601181,-0.0242283 -0.0108346,-0.0348386 -0.00392913,-0.0110354 -0.00844094,-0.0211614 -0.0134409,-0.030126 -0.00438976,-0.00944882 -0.00951181,-0.0170433 -0.0139646,-0.0239252 -0.00417717,-0.00699213 -0.0085315,-0.0130197 -0.0127402,-0.0178661 -0.00787008,-0.00981496 -0.0123465,-0.0153976 -0.0123465,-0.0153976 -0.00326378,-0.00409055 -0.00259449,-0.01 0.00146063,-0.0132677 0.00377953,-0.00298031 0.00911417,-0.0026811 0.0125315,0.000645669z"/>
   </g>
   <g>
    <path id="_352802904" class="fil4" d="M3.22044 3.27592c0,0 -0.0101496,0.0126614 -0.0280709,0.0349134 -0.0095315,0.0109961 -0.0193425,0.0246614 -0.028811,0.0405118 -0.0100945,0.0156102 -0.0217126,0.0328268 -0.0316654,0.0542559 -0.0112756,0.0203268 -0.0215709,0.0432835 -0.0304803,0.0683031 -0.0109331,0.0240591 -0.0160512,0.0518307 -0.0245591,0.0789961 -0.00449213,0.0284134 -0.0116772,0.0569685 -0.0126417,0.0870433 -0.00373228,0.0295787 -0.00172441,0.0598583 -0.00166535,0.0897953 0.00373228,0.0298543 0.00553937,0.0595945 0.0129449,0.088126 0.00469291,0.0288346 0.0154094,0.0558622 0.0230118,0.0822087 0.0115984,0.0251614 0.019626,0.0504646 0.0329685,0.0719528 0.0113386,0.0223937 0.0235787,0.0425197 0.0365787,0.0599961 0.0114567,0.0183976 0.0247402,0.0333898 0.0361378,0.0466693 0.0108543,0.013748 0.0212283,0.0248819 0.0307598,0.033252 0.0179213,0.0174134 0.0282126,0.0273661 0.0282126,0.0273661l0.00511811 0.00505906c0.0329055,0.0318622 0.0335866,0.0844724 0.00172441,0.117362 -0.0320039,0.0328465 -0.0845354,0.0336063 -0.117441,0.00172441 -0.00220866,-0.00226772 -0.00441732,-0.00469685 -0.00650394,-0.00710236 0,0 -0.0114764,-0.014189 -0.0316614,-0.0388465 -0.0104961,-0.0121024 -0.0219921,-0.0275906 -0.0336693,-0.0465315 -0.0122205,-0.0183819 -0.026185,-0.0389882 -0.0380827,-0.0636102 -0.0132638,-0.0236339 -0.0255039,-0.0502402 -0.0362205,-0.0792165 -0.0126417,-0.0281929 -0.0195039,-0.0602756 -0.029315,-0.0921378 -0.00587795,-0.0329685 -0.0141063,-0.0664173 -0.0158898,-0.101331 -0.00443701,-0.0345748 -0.00283071,-0.0699685 -0.00262992,-0.104941 0.00359055,-0.0350551 0.00587795,-0.0698071 0.0139646,-0.103276 0.00539764,-0.0338701 0.0172165,-0.0657362 0.026126,-0.0966378 0.0130039,-0.0297953 0.0226732,-0.0595315 0.0378819,-0.0850354 0.013122,-0.0264055 0.0273701,-0.0501811 0.0422992,-0.0710512 0.0282126,-0.0416969 0.0582087,-0.0765906 0.0779724,-0.0951299 0.0204055,-0.0199055 0.0319449,-0.0313031 0.0319449,-0.0313031 0.00842913,-0.00822441 0.0219921,-0.00816535 0.0302165,0.000200787 0.00766535,0.00788583 0.00814961,0.0200472 0.00144488,0.0284134z"/>
    <path id="_352802520" class="fil4" d="M3.59787 3.24731c0,0 0.0114803,0.0113976 0.0318661,0.0313031 0.0198425,0.0185394 0.0497795,0.0534331 0.0779724,0.0951299 0.0150079,0.0208701 0.0291732,0.0446457 0.042378,0.0710512 0.0152087,0.0255039 0.0247598,0.0552402 0.0378228,0.0850354 0.00890945,0.0309016 0.0207283,0.0627677 0.0262047,0.0966378 0.00800787,0.0334685 0.0102953,0.0682205 0.0139449,0.103276 0.000141732,0.0349724 0.00180709,0.0703661 -0.00268898,0.104941 -0.00172441,0.0349134 -0.0100315,0.0683622 -0.0158898,0.101331 -0.00975197,0.0318622 -0.0166732,0.0639449 -0.0293976,0.0921378 -0.0106339,0.0289764 -0.022811,0.0555827 -0.0361378,0.0792165 -0.0118976,0.024622 -0.0257835,0.0452283 -0.0380827,0.0636102 -0.0117559,0.0189409 -0.0231732,0.0344291 -0.0336102,0.0465315 -0.020185,0.0246575 -0.0318031,0.0388465 -0.0318031,0.0388465 -0.0289528,0.0355354 -0.0812835,0.0407717 -0.116677,0.011878 -0.0355984,-0.0290157 -0.0409134,-0.0812835 -0.0119016,-0.116902 0.00200787,-0.0024685 0.00415354,-0.00481496 0.00638189,-0.00696063l0.00523622 -0.00505906c0,0 0.0102323,-0.00995276 0.0282126,-0.0273661 0.00938976,-0.00837008 0.0199055,-0.0195039 0.0306811,-0.033252 0.0114173,-0.0132795 0.0246181,-0.0282717 0.0360945,-0.0466693 0.013063,-0.0174764 0.0253031,-0.0376024 0.0366417,-0.0599961 0.0133228,-0.0214882 0.0212874,-0.0467913 0.0329685,-0.0719528 0.00760236,-0.0263465 0.0183189,-0.053374 0.0230118,-0.0822087 0.00732677,-0.0285315 0.00927165,-0.0582717 0.0129252,-0.088126 7.87402e-005,-0.029937 0.00214567,-0.0602165 -0.00158661,-0.0897953 -0.00110236,-0.0300748 -0.0082874,-0.0586299 -0.0127008,-0.0870433 -0.00844882,-0.0271654 -0.013626,-0.054937 -0.0245591,-0.0789961 -0.00890945,-0.0250197 -0.0191457,-0.0479764 -0.0304803,-0.0683031 -0.00995276,-0.0214291 -0.0215709,-0.0386457 -0.0316654,-0.0542559 -0.0094685,-0.0158504 -0.0193425,-0.0295157 -0.0288937,-0.0405118 -0.0178386,-0.022252 -0.0279882,-0.0349134 -0.0279882,-0.0349134 -0.00740551,-0.00926772 -0.00588189,-0.0226732 0.00331102,-0.0300787 0.00856693,-0.00675984 0.0206654,-0.00607874 0.0284094,0.00146457z"/>
   </g>
   <g>
    <path id="_352802760" class="fil4" d="M3.30135 3.44531c0,0 -0.00540157,0.00673228 -0.014937,0.0185748 -0.00507087,0.00584646 -0.0102913,0.0131181 -0.0153268,0.0215512 -0.00537008,0.00830709 -0.0115512,0.0174646 -0.0168465,0.0288661 -0.006,0.010815 -0.0114764,0.0230276 -0.0162165,0.0363386 -0.0058189,0.0127992 -0.00853937,0.0275748 -0.0130669,0.0420276 -0.00238976,0.0151181 -0.0062126,0.0303071 -0.00672441,0.046311 -0.00198425,0.0157323 -0.000917323,0.0318425 -0.000885827,0.0477677 0.00198425,0.0158858 0.00294488,0.0317087 0.00688583,0.0468858 0.00249606,0.0153425 0.00819685,0.0297205 0.0122441,0.0437362 0.00616929,0.0133898 0.0104409,0.0268504 0.0175394,0.0382835 0.0060315,0.0119134 0.0125433,0.0226181 0.0194606,0.0319173 0.00609449,0.00979134 0.0131614,0.0177638 0.0192244,0.0248307 0.00577559,0.00731102 0.0112953,0.0132362 0.0163661,0.017689 0.0095315,0.00926772 0.0150079,0.014563 0.0150079,0.014563l0.00272441 0.00268898c0.0175079,0.0169528 0.0178701,0.0449409 0.000917323,0.062437 -0.0170276,0.0174764 -0.0449724,0.0178819 -0.0624803,0.00092126 -0.00117717,-0.00120866 -0.00235039,-0.0025 -0.00346063,-0.00377953 0,0 -0.0061063,-0.00754724 -0.0168465,-0.0206693 -0.00558268,-0.00643701 -0.0116969,-0.0146772 -0.0179094,-0.0247559 -0.00650394,-0.00977559 -0.0139331,-0.0207402 -0.0202638,-0.0338386 -0.00705512,-0.0125748 -0.0135669,-0.0267323 -0.0192677,-0.0421457 -0.00672441,-0.015 -0.010378,-0.0320669 -0.0155984,-0.0490197 -0.00312598,-0.0175394 -0.00750394,-0.0353346 -0.00845276,-0.0539094 -0.00235827,-0.0183937 -0.00150787,-0.0372244 -0.00139764,-0.0558346 0.00190945,-0.0186496 0.00312598,-0.0371378 0.00742913,-0.0549449 0.00287008,-0.0180197 0.00915748,-0.0349685 0.0138976,-0.0514094 0.00691732,-0.0158543 0.012063,-0.0316732 0.0201535,-0.0452441 0.00698425,-0.0140472 0.014563,-0.0266969 0.0225039,-0.0377992 0.0150118,-0.0221811 0.0309685,-0.040748 0.0414843,-0.0506102 0.0108583,-0.0105906 0.0169961,-0.0166535 0.0169961,-0.0166535 0.00448425,-0.00437795 0.0117008,-0.00434646 0.0160748,0.000106299 0.00407874,0.00419685 0.00433465,0.0106654 0.000771654,0.0151181z"/>
    <path id="_352802712" class="fil4" d="M3.50215 3.43009c0,0 0.0061063,0.00606299 0.0169528,0.0166535 0.0105551,0.0098622 0.0264843,0.0284291 0.0414843,0.0506102 0.00798425,0.0111024 0.0155197,0.023752 0.0225433,0.0377992 0.00809449,0.0135709 0.0131732,0.0293898 0.020126,0.0452441 0.00473622,0.0164409 0.0110276,0.0333898 0.0139409,0.0514094 0.00425984,0.0178071 0.00547638,0.0362953 0.00741732,0.0549449 7.48031e-005,0.0186102 0.00096063,0.0374409 -0.00142913,0.0558346 -0.000917323,0.0185748 -0.00533858,0.0363701 -0.00845669,0.0539094 -0.00518504,0.0169528 -0.00887008,0.0340197 -0.0156378,0.0490197 -0.00565748,0.0154134 -0.0121378,0.0295709 -0.0192244,0.0421457 -0.00633071,0.0130984 -0.0137205,0.024063 -0.0202638,0.0338386 -0.00625591,0.0100787 -0.0123307,0.0183189 -0.0178819,0.0247559 -0.0107362,0.013122 -0.0169173,0.0206693 -0.0169173,0.0206693 -0.0154055,0.0189055 -0.043248,0.021689 -0.0620787,0.0063189 -0.018937,-0.015437 -0.0217638,-0.0432441 -0.00633071,-0.0621929 0.00107087,-0.00131496 0.0022126,-0.00256299 0.00339764,-0.00370472l0.00278346 -0.00268898c0,0 0.00544488,-0.00529528 0.0150118,-0.014563 0.00499606,-0.00445276 0.0105906,-0.010378 0.0163228,-0.017689 0.0060748,-0.00706693 0.0130984,-0.0150394 0.0192047,-0.0248307 0.00694882,-0.00929921 0.0134606,-0.0200039 0.0194921,-0.0319173 0.00708661,-0.0114331 0.0113268,-0.0248937 0.0175394,-0.0382835 0.00404724,-0.0140157 0.00974409,-0.0283937 0.0122441,-0.0437362 0.00389764,-0.0151772 0.00493307,-0.031 0.00687402,-0.0468858 4.33071e-005,-0.0159252 0.00114173,-0.0320354 -0.00084252,-0.0477677 -0.000586614,-0.0160039 -0.00440945,-0.0311929 -0.00675591,-0.046311 -0.00449606,-0.0144528 -0.00725197,-0.0292283 -0.0130669,-0.0420276 -0.00474016,-0.013311 -0.010185,-0.0255236 -0.0162165,-0.0363386 -0.00529528,-0.0114016 -0.0114764,-0.0205591 -0.0168465,-0.0288661 -0.00503937,-0.00843307 -0.0102913,-0.0157047 -0.0153701,-0.0215512 -0.00949213,-0.0118425 -0.0148937,-0.0185748 -0.0148937,-0.0185748 -0.00393701,-0.00493307 -0.00312598,-0.012063 0.00175984,-0.0160039 0.00455906,-0.00359843 0.0109961,-0.00323622 0.0151181,0.000779528z"/>
   </g>
   <g>
    <circle id="_352802808" class="fil5" cx="3.21109" cy="2.61139" r="0.059311"/>
    <circle id="_352802424" class="fil6" cx="3.21109" cy="2.61139" r="0.0260398"/>
    <circle id="_352802184" class="fil5" cx="3.55476" cy="2.61139" r="0.059311"/>
    <circle id="_352802112" class="fil6" cx="3.55476" cy="2.61139" r="0.0260398"/>
   </g>
  </g>
  <rect class="fil7" width="6.82666" height="6.82666"/>
 </g>
</svg>
