<?xml version="1.0" encoding="UTF-8"?>
<!DOCTYPE svg PUBLIC "-//W3C//DTD SVG 1.1//EN" "http://www.w3.org/Graphics/SVG/1.1/DTD/svg11.dtd">
<!-- Creator: CorelDRAW -->
<svg xmlns="http://www.w3.org/2000/svg" xml:space="preserve" width="6.82666in" height="6.82666in" style="shape-rendering:geometricPrecision; text-rendering:geometricPrecision; image-rendering:optimizeQuality; fill-rule:evenodd; clip-rule:evenodd"
viewBox="0 0 6.82666 6.82666"
 xmlns:xlink="http://www.w3.org/1999/xlink">
 <defs>
  <style type="text/css">
   <![CDATA[
    .fil9 {fill:none}
    .fil2 {fill:#212121}
    .fil4 {fill:#3D2B16}
    .fil0 {fill:#AD7B3E}
    .fil5 {fill:#C48F4E}
    .fil3 {fill:#C79252}
    .fil1 {fill:#D69F5C}
    .fil7 {fill:#373435;fill-rule:nonzero}
    .fil6 {fill:#FAFAFA;fill-rule:nonzero}
    .fil8 {fill:#FEFEFE;fill-rule:nonzero}
   ]]>
  </style>
 </defs>
 <g id="Layer_x0020_1">
  <metadata id="CorelCorpID_0Corel-Layer"/>
  <path class="fil0" d="M1.26462 2.79801c0.0480866,0.0926693 0.0500906,0.0926693 0.0500906,0.0926693 0,0 0.116205,-0.111205 0.196346,-0.101937 0.0801417,0.00926772 0.0801417,-0.00231496 0.0801417,-0.00231496 0,0 -0.256453,-0.183024 -0.316563,-0.210823 -0.100157,-0.0463228 -0.0250827,0.19337 -0.0100157,0.222406z"/>
  <path class="fil1" d="M2.25522 2.67919c0.905366,0.0121024 1.07493,-0.339228 1.8405,-0.0443268 0.100016,0.056311 0.182732,0.102878 0.245969,0.110012 0.10089,0.011374 0.177339,0.191772 0.264657,0.236646 0.0871181,0.0447717 0.170075,0.11002 0.256126,0.204213 0.320228,0.487425 0.937031,0.716398 1.43089,0.526287 0.00522441,0.0106496 -0.739701,0.987807 -1.14476,0.48587 -0.044685,-0.055378 -0.087689,-0.120213 -0.133618,-0.189472 -0.0987559,-0.148917 -0.204713,-0.28328 -0.301232,-0.43463 -0.0965118,-0.151346 -0.190681,-0.298976 -0.315764,-0.35426 0.0201417,0.0762953 0.0604685,0.207555 0.103646,0.348106 0.0164134,0.0534449 0.033248,0.108217 0.0549606,0.180327 0.0184409,0.0612441 0.0391693,0.0623465 0.056189,0.0632402 0.0986299,0.00518504 0.158201,0.0083189 0.0540591,0.671902 -0.0159291,0.101539 -0.0543661,0.128047 -0.107571,0.164728 -0.0119724,0.00825197 -0.025,0.0172441 -0.0384803,0.0283701 -0.0173937,0.0143583 -0.0879331,0.0240354 -0.149398,0.0233661 -0.0540157,-0.000586614 -0.0560512,-0.0071378 -0.0762795,-0.0272913 -0.00574016,-0.00572441 -0.0104094,-0.0121378 -0.0140906,-0.0191732 -0.0547165,-0.104709 0.0142283,-0.179091 0.112783,-0.168264 0.0118543,0.00130315 0.0296693,-0.0216772 0.0300354,-0.0235984 0.00226772,-0.0118898 0.0292087,-0.0897047 0.0302047,-0.131799 0.00383071,-0.161287 0.0286496,-0.198882 -0.0992677,-0.257106 -0.191382,-0.0871024 -0.183118,-0.0405827 -0.356886,-0.16228 -0.00464567,0.0177441 -0.00925984,0.0308189 -0.0133661,0.0424449 -0.0102126,0.0289252 -0.0156496,0.044315 0.00390157,0.188193 0.0145,0.106772 -0.0968701,0.237776 -0.208661,0.365937 -0.033622,0.0385433 -0.0603701,0.0692087 -0.0700276,0.0829528 -0.0446457,0.0635315 -0.102886,0.090685 -0.167803,0.106047 -0.0308307,0.00522047 -0.0765512,0.0173189 -0.116476,0.0109409 -0.0563583,-0.00901181 -0.102925,-0.038878 -0.0863819,-0.115795 0.0147008,-0.0683543 0.0703661,-0.0958386 0.12787,-0.105508 0.0334055,-0.00561417 0.0718307,-0.0467795 0.117071,-0.0873228 0.0376614,-0.033748 0.0253898,-0.028374 0.0664528,-0.0710669 0.0466063,-0.0517126 0.123213,-0.179661 0.105618,-0.270236 -0.029622,-0.152496 -0.186913,-0.298878 -0.247063,-0.390264 -0.0945472,0.0776378 -0.297138,0.114614 -0.557094,0.0871654 -0.0174528,0.0054252 -0.000728346,0.150244 -0.0193898,0.310059 -0.0143504,0.122858 -0.0289528,0.247874 -0.0429921,0.32474 -0.00357874,0.0196024 -0.0496102,0.115764 -0.0916693,0.191992 -0.0357283,0.0647677 -0.0747165,0.121067 -0.0994606,0.126992 -0.033,0.0078937 -0.0663307,0.0155236 -0.0959528,0.0197953 -0.0758858,0.0109646 -0.137366,0.00214173 -0.171343,-0.0917756 -0.0275551,-0.0761102 0.0433386,-0.16752 0.0970945,-0.187043 0.0360591,-0.0131063 0.0697047,-0.0253425 0.0853268,-0.106882 0.0256024,-0.133614 0.0185315,-0.241154 0.010622,-0.361512 -0.00238976,-0.0363898 0.000346457,-0.119075 -0.00137008,-0.16076 -0.0440276,0.0253583 -0.166469,0.0216102 -0.197736,0.016185l-0.00120472 0.014689c-0.00270472,0.033563 -0.0052874,0.0655157 -0.0138346,0.0894567 -0.130472,0.365386 -0.463902,0.440197 -0.584937,0.622256 -0.0259528,0.0390315 -0.0682441,0.0657795 -0.113071,0.078878 -0.0458937,0.0134055 -0.096748,0.0129764 -0.136063,-0.00308268 -0.0106772,-0.00435827 -0.0252441,-0.00755512 -0.0395984,-0.0106969 -0.0218858,-0.00479528 0.0190591,0.012563 -0.000692913,0.00259843 -0.0503425,-0.0253976 -0.077126,-0.0662677 -0.0467244,-0.146843 0.0244646,-0.0648346 0.0887953,-0.0754646 0.15174,-0.0858543 0.129303,-0.0213465 0.0553228,0.00135827 0.161343,-0.101413 0.0427126,-0.0414134 0.0868622,-0.0842126 0.125402,-0.134965 0.0168937,-0.0222441 0.0331693,-0.0422165 0.0497244,-0.0625315 0.0506102,-0.0621142 0.229012,-0.341307 0.120512,-0.382091 -0.0231457,-0.00626772 -0.0340079,-0.023874 -0.0504488,-0.0504921 -0.0210315,-0.0340315 -0.0604921,-0.0978661 -0.124508,-0.132075 -0.0137717,-0.00585433 -0.0281299,-0.0115118 -0.0431654,-0.0169488 -0.055311,-0.014 -0.137051,-0.000661417 -0.207728,0.010874 -0.0785866,0.0128268 -0.145996,0.0238268 -0.185669,-0.00441339l0 -0.000240157c-0.0243268,-0.0173268 -0.0678701,-0.0171732 -0.116386,-0.0085315 -0.083185,0.014815 -0.174894,0.0554843 -0.226035,0.0822441 -0.031689,0.0165787 -0.063752,0.0265906 -0.107728,0.0207953 -0.038252,-0.00503937 -0.0847323,-0.0230709 -0.148299,-0.0616575l-0.000208661 0c-0.0163346,-0.00992126 -0.0295394,-0.0173071 -0.0398228,-0.0230669 -0.0441181,-0.024689 -0.0635984,-0.035626 -0.0598622,-0.083752l-0.000208661 -2.3622e-005c0.00256299,-0.0334724 0.0164843,-0.0445787 0.0413937,-0.0644921 0.0126299,-0.0100945 0.0319921,-0.0255748 0.0564094,-0.0520748 0.0141969,-0.0154055 0.0972677,-0.107689 0.188421,-0.209102 0.0963189,-0.107161 0.201638,-0.200465 0.237228,-0.237839 0.00335827,0.00574016 0.00367323,0.00574409 0.00367323,0.00574409 0,0 0.116201,-0.111205 0.196346,-0.101937 0.0801417,0.00926378 0.0801417,-0.00231102 0.0801417,-0.00231102 0,0 -0.0424685,-0.0370197 -0.122075,-0.0913465 0.00415354,-0.00351181 0.00738189,-0.00562992 0.0094685,-0.00482677 -0.000433071,-0.00274803 -0.00312205,-0.00772441 -0.0019685,-0.0157953 0.00266142,-0.0186299 -0.0197362,-0.039374 -0.0218031,-0.0475984 -0.00857087,-0.0207559 0.0104016,-0.0470551 -0.000122047,-0.0902874 -0.0109409,-0.0449528 -0.0627244,-0.129181 -0.0378504,-0.155142 0.0455315,-0.0475197 0.290579,0.156098 0.344067,0.200555l0.00793307 0.00653937c0.0719567,0.057685 0.149445,0.0889764 0.229965,0.101642 0.0824173,0.0129646 0.168874,0.00659449 0.256413,-0.0109882z"/>
  <path class="fil2" d="M0.848906 3.37825c0.0395866,0 0.0758937,-0.00807874 0.0758937,0.030063 0,0.0381457 -0.0363071,0.108071 -0.0758937,0.108071 -0.0395906,0 -0.0716811,-0.0309213 -0.0716811,-0.0690669 0,-0.0381417 0.0320906,-0.0690669 0.0716811,-0.0690669z"/>
  <path class="fil2" d="M0.918492 3.57312c0.0412717,0.0226535 0.0746614,0.0355551 0.103354,0.0414331l-0.0328189 -0.0275945c0,0 0.169276,-0.155583 0.191846,-0.17365 0.0225709,-0.0180669 0.124126,-0.0582126 0.124126,-0.0582126 -0.121118,-0.00271654 -0.241669,0.148343 -0.309028,0.191713 -0.0327087,0.0210591 -0.0590472,0.0263937 -0.0774803,0.026311z"/>
  <path class="fil3" d="M2.1183 3.72974c0.060311,0.0697795 -0.0945669,0.310902 -0.141154,0.368079 -0.0165551,0.020315 -0.0328307,0.0402874 -0.0497244,0.0625315 -0.0385394,0.050752 -0.082689,0.0935512 -0.125402,0.134965 -0.10602,0.102772 -0.0320394,0.0800669 -0.161343,0.101413 -0.0629449,0.0103898 -0.127276,0.0210197 -0.15174,0.0858543 -0.029185,0.0773465 -0.00567323,0.11811 0.0407913,0.143717 0.00015748,-0.000511811 0.00197244,-0.000492126 0.00662598,0.000527559 0.0143543,0.00314173 0.0289213,0.00633858 0.0395984,0.0106969 0.039315,0.0160591 0.0901693,0.0164882 0.136063,0.00308268 0.0448268,-0.0130984 0.0871181,-0.0398465 0.113071,-0.078878 0.121035,-0.182059 0.454465,-0.25687 0.584937,-0.622256 0.00854724,-0.0239409 0.0111299,-0.0558937 0.0138346,-0.0894567l0.00120472 -0.014689c0.00142913,0.000248031 0.00305512,0.000527559 0.00485827,0.000838583 -0.089811,-0.00749606 -0.182772,-0.0255079 -0.292437,-0.0990079 -0.109665,-0.0735039 -0.008,-0.00301575 -0.019185,-0.00741732z"/>
  <path class="fil3" d="M3.50902 3.66637c0.0601496,0.0913858 0.217441,0.237768 0.247063,0.390264 0.0175945,0.0905748 -0.0590118,0.218524 -0.105618,0.270236 -0.041063,0.0426929 -0.0426772,0.0453504 -0.0803386,0.0790984 -0.0452402,0.0405433 -0.0836654,0.0817087 -0.117071,0.0873228 -0.0575039,0.00966929 -0.113169,0.0371535 -0.12787,0.105508 -0.0165433,0.0769173 0.0300236,0.106783 0.0863819,0.115791 0.0399252,0.00637795 0.0856457,-0.00571654 0.116476,-0.010937 0.0649173,-0.0153661 0.123157,-0.0425157 0.167803,-0.106047 0.00965748,-0.0137441 0.0364055,-0.0444094 0.0700276,-0.0829567 0.111791,-0.128157 0.237047,-0.267193 0.222547,-0.373965 -0.0195512,-0.143878 -0.0141142,-0.159268 -0.00390157,-0.188193 0.00409449,-0.0115906 0.00869291,-0.0246181 0.0133228,-0.0422756 -0.126984,-0.100469 -0.184146,-0.215953 -0.203563,-0.259276 -0.151154,-0.0210551 -0.183193,-0.0325039 -0.285165,0.0153425 -3.14961e-005,2.75591e-005 -6.29921e-005,5.90551e-005 -9.44882e-005,8.66142e-005z"/>
  <path class="fil3" d="M3.9908 2.59589c0.0309449,0.021126 -0.0311299,-0.0214764 0.00607087,0.00959843 0.145614,0.121654 0.32274,0.321543 0.402764,0.614772 0.12426,0.0558504 0.218028,0.202846 0.314114,0.353528 0.0469016,0.0735433 0.0943307,0.147921 0.148311,0.216866 0.0556299,0.0710551 0.105866,0.146807 0.152921,0.217764 0.0459291,0.0692598 0.0889331,0.134094 0.133618,0.189472 0.405063,0.501937 1.14999,-0.47522 1.14476,-0.48587 -0.415961,0.0659882 -0.930996,-0.0511457 -1.15113,-0.326567 -0.165976,-0.207638 -0.192906,-0.300083 -0.436146,-0.463748 -0.197602,-0.132949 -0.409614,-0.212713 -0.61037,-0.286843 -0.0610551,-0.034374 -0.0308819,-0.00353937 -0.104921,-0.0389724z"/>
  <path class="fil4" d="M5.83772 3.87183c0.0876063,0.0121496 -0.0916496,0.403642 -0.543606,0.181004 0.146748,0.151972 0.347638,0.116811 0.314236,0.135681 -0.0667362,0.0376929 -0.13702,0.0617913 -0.194244,0.0687559 -0.0927126,0.0112795 -0.185421,-0.00914567 -0.232358,-0.0222953 0.411157,0.413362 1.1167,-0.512591 1.11161,-0.522957 -0.276248,0.0682913 -0.37578,-0.0836811 -0.629256,0.135724l0.173614 0.0240866z"/>
  <path class="fil5" d="M1.45809 2.73406c0.0773701,0.149106 0.0805945,0.149106 0.0805945,0.149106 0,0 0.186972,-0.178929 0.315925,-0.164016 0.128949,0.0149094 0.128949,-0.00372441 0.128949,-0.00372441 0,0 -0.412634,-0.294488 -0.509346,-0.33922 -0.0371181,-0.0171614 -0.0762756,-0.0131339 -0.0711063,0.0119764 0.0472795,0.229744 0.0363228,0.309917 0.0549843,0.345878z"/>
  <path class="fil0" d="M1.52851 2.72574c0.0480866,0.0926693 0.0500906,0.0926693 0.0500906,0.0926693 0,0 0.116205,-0.111205 0.196346,-0.101937 0.0801417,0.00926772 0.0801417,-0.00231496 0.0801417,-0.00231496 0,0 -0.256453,-0.183028 -0.316563,-0.210827 -0.100157,-0.0463228 -0.0250827,0.19337 -0.0100157,0.222409z"/>
  <path class="fil6" d="M1.49287 3.07931c0.000287402,-0.0163858 0.00189764,-0.0277283 0.0111181,-0.0382402 -0.0215315,0.0135236 -0.0359331,0.0434685 -0.0359331,0.0434685 -0.00442913,0.00868504 0.000318898,0.00824803 0.00562598,0.0135748 0.009,0.00900394 0.0103819,0.0132992 0.011378,0.0262165 0.00112205,0.0145748 0.00647638,0.0138937 0.0187559,0.0133268 0.00707087,-0.000318898 0.014122,-0.0011378 0.0211654,-0.00198425 -0.0190906,-0.00863386 -0.0325591,-0.0306378 -0.0321102,-0.0563622z"/>
  <path class="fil6" d="M1.61257 3.06873c0.00315354,-0.00423622 0.0196417,-0.0161654 0.0244803,-0.0385354 5.90551e-005,-0.00030315 -0.0228386,0.0064685 -0.027626,0.00705512 -0.0071063,0.000874016 -0.0126142,0.00104331 -0.021874,-7.87402e-006 0.00802756,0.0107717 0.00508268,0.0288622 0.00481102,0.0444016 -0.000374016,0.0212362 -0.0209803,0.041626 -0.0352677,0.051748 0.00445276,-0.00121654 0.0273346,-0.010315 0.0368228,-0.0194252 0.00685827,-0.00658268 0.032378,-0.0480079 0.0186535,-0.0452362z"/>
  <path class="fil7" d="M1.59236 3.08165c0.00166929,-0.0154291 0.00321654,-0.0336299 -0.00481102,-0.0444016 -0.0103071,-0.0025315 -0.0262717,-0.00538583 -0.0373346,-0.00659449 -0.022315,-0.00242126 -0.0371929,0.00396063 -0.0462323,0.0104213 -0.00922047,0.0105118 -0.0108307,0.0218543 -0.0111181,0.0382402 -0.000448819,0.0257244 0.0130197,0.0477283 0.0321102,0.0563622 0.0054685,-0.000645669 0.00948031,-4.72441e-005 0.0149488,-0.000440945 0.00855906,-0.000622047 0.00827953,-0.000346457 0.0171693,-0.00183858 0.0142874,-0.010122 0.0308228,-0.0107008 0.0352677,-0.051748z"/>
  <path class="fil8" d="M1.55983 3.06304c-0.000220472,0.0127126 -0.00930315,0.0227992 -0.0202992,0.0225433 -0.0109921,-0.000259843 -0.0197165,-0.0107638 -0.0194921,-0.0234764 0.000220472,-0.0127047 0.00930709,-0.0227913 0.0202953,-0.0225354 0.011,0.000259843 0.0197205,0.0107638 0.0194961,0.0234685z"/>
  <path class="fil2" d="M1.71423 3.03253c-0.112543,0.0745945 -0.133248,-0.0224685 -0.276205,0.0577402l-4.72441e-005 -1.9685e-005c-0.00873228,-0.0902598 0.179996,-0.0615709 0.231327,-0.105276 0.0147165,-0.0110669 0.0367047,-0.00939764 0.0491102,0.00373622 0.0124055,0.0131299 0.0105315,0.032752 -0.00418504,0.0438189z"/>
  <rect class="fil9" width="6.82666" height="6.82666"/>
 </g>
</svg>
