<?xml version="1.0" encoding="UTF-8"?>
<!DOCTYPE svg PUBLIC "-//W3C//DTD SVG 1.1//EN" "http://www.w3.org/Graphics/SVG/1.1/DTD/svg11.dtd">
<!-- Creator: CorelDRAW -->
<svg xmlns="http://www.w3.org/2000/svg" xml:space="preserve" width="6.82666in" height="6.82666in" style="shape-rendering:geometricPrecision; text-rendering:geometricPrecision; image-rendering:optimizeQuality; fill-rule:evenodd; clip-rule:evenodd"
viewBox="0 0 6.82666 6.82666"
 xmlns:xlink="http://www.w3.org/1999/xlink">
 <defs>
  <style type="text/css">
   <![CDATA[
    .fil7 {fill:none}
    .fil5 {fill:#2A2A2A}
    .fil2 {fill:#FD5B00}
    .fil1 {fill:#212121;fill-rule:nonzero}
    .fil6 {fill:#3D3D3F;fill-rule:nonzero}
    .fil0 {fill:#424242;fill-rule:nonzero}
    .fil3 {fill:#FD5B00;fill-rule:nonzero}
    .fil4 {fill:white;fill-rule:nonzero}
   ]]>
  </style>
 </defs>
 <g id="Layer_x0020_1">
  <metadata id="CorelCorpID_0Corel-Layer"/>
  <g id="_356626448">
   <g>
    <path id="_356635736" class="fil0" d="M2.01496 3.40515l-0.000523622 0.000724409c-0.00235039,0.00782283 -0.00365354,0.0125197 -0.00107874,0.00781496l0.00160236 -0.00853937z"/>
    <path id="_356635016" class="fil0" d="M2.01709 3.40615c0.00501969,-0.0106614 0.00305118,-0.00818898 -0.00212598,-0.001l-0.00160236 0.00853937c0.000822835,-0.0015 0.0020315,-0.00393701 0.00372835,-0.00753937z"/>
    <path id="_356635544" class="fil1" d="M2.76949 2.98728c0.0296929,0.101138 0.0592402,0.20176 0.0893465,0.277346l0.0132008 0.0331417 -0.0257008 0.0247756c-0.0237835,0.0229291 -0.0528228,0.0740945 -0.0752953,0.150862 -0.018622,0.0636102 -0.0317953,0.142858 -0.0327638,0.235791l-0.00143307 0.00757087c9.84252e-005,0.0128268 -0.00109449,0.0254764 -0.00404331,0.0379921 -0.00361811,0.0153228 -0.00966142,0.0303622 -0.0188504,0.0451417 -0.0239409,0.0385276 -0.0572205,0.0709567 -0.0936693,0.10648 -0.052311,0.0509803 -0.112177,0.109319 -0.147067,0.19628 -0.0195079,0.0486339 -0.0513228,0.163343 -0.0818976,0.298012 -0.0260748,0.114862 -0.0510118,0.243433 -0.0664252,0.357248l-0.015 0.0304173c-0.0523386,0.0525748 -0.110835,0.110449 -0.16874,0.161413 -0.060626,0.0533622 -0.122331,0.100957 -0.179705,0.131433 -0.0910591,0.048374 -0.177327,0.0838228 -0.259803,0.103075 -0.0855591,0.0199724 -0.166764,0.0225039 -0.244563,0.00405906 -0.0627008,-0.0148622 -0.122626,-0.0432992 -0.180181,-0.087122 -0.0554291,-0.0421969 -0.108484,-0.0989173 -0.159547,-0.171866 -0.0797677,-0.113949 -0.149787,-0.305142 -0.200559,-0.504319 -0.0579016,-0.227154 -0.0916732,-0.467854 -0.0865236,-0.616394 0.0172559,-0.497343 0.548425,-0.475843 0.910268,-0.461197l0.00584252 0.00023622c-0.0536299,-0.0202638 -0.111433,-0.0417559 -0.169874,-0.0634882 -0.191114,-0.0710669 -0.388878,-0.144606 -0.474945,-0.1875 -0.14337,-0.0714606 -0.112039,-0.206413 -0.076252,-0.360591 0.00677559,-0.0291969 0.013752,-0.0592244 0.019252,-0.0882441 0.0106575,-0.0562205 0.0302953,-0.129378 0.0513031,-0.207665 0.0324094,-0.120783 0.0681969,-0.254142 0.075937,-0.34211 0.0136535,-0.155205 -0.0429134,-0.310898 -0.0976496,-0.461551 -0.0416811,-0.114732 -0.082378,-0.22674 -0.0942559,-0.339591 -0.00601969,-0.0572008 -0.00186614,-0.104197 0.0103228,-0.142441 0.022248,-0.0697953 0.0686457,-0.109299 0.128839,-0.127327 0.0527205,-0.0157953 0.115142,-0.0132913 0.179311,1.1811e-005 0.111941,0.0232047 0.232303,0.0800315 0.30961,0.126224 0.100677,0.0601575 0.211492,0.152031 0.315063,0.253134 0.116441,0.113665 0.224461,0.239571 0.298862,0.345303 0.0939291,0.133488 0.181043,0.299791 0.259031,0.470819 0.0776378,0.17026 0.145803,0.344039 0.202591,0.4945 0.029937,0.0793307 0.0580236,0.174969 0.0859646,0.270138z"/>
    <path id="_356635376" class="fil2" d="M1.19743 1.23607c-0.000862205,0.0129803 0.00026378,0.0283701 0.00125984,0.0378189 0.01,0.0950197 0.0497087,0.197945 0.0822402,0.287496 0.0657717,0.181028 0.127315,0.359445 0.110028,0.555953 -0.0108622,0.123469 -0.050374,0.259724 -0.0826063,0.379846 -0.0168346,0.0627283 -0.0355512,0.12787 -0.0476378,0.191618 -0.00616535,0.0325276 -0.0136142,0.0647717 -0.0210984,0.0970118 -0.0054252,0.023374 -0.0208622,0.0846299 -0.0241102,0.121701 0.123768,0.0596299 0.276555,0.110508 0.404461,0.158094 0.0110748,0.00412205 0.0221496,0.00824016 0.0332244,0.0123583 0.0570197,0.0212047 0.114047,0.0423898 0.170957,0.0638937l0.733618 0.277193c0.000704724,-0.00248819 0.00142126,-0.00497638 0.00214961,-0.00745669 0.0147992,-0.0505551 0.0351417,-0.104252 0.0625709,-0.152909 -0.0234409,-0.069185 -0.0437165,-0.140098 -0.0640748,-0.209437 -0.0248937,-0.0847874 -0.0495079,-0.171776 -0.0807047,-0.254433 -0.0611457,-0.16202 -0.125067,-0.323299 -0.196933,-0.480902 -0.0675039,-0.148039 -0.145024,-0.302252 -0.23878,-0.435492 -0.0783307,-0.111315 -0.17526,-0.219445 -0.272618,-0.31448 -0.0810669,-0.0791339 -0.176768,-0.163469 -0.274232,-0.221709 -0.0696811,-0.0416339 -0.161965,-0.083185 -0.241425,-0.0996575 -0.0124173,-0.0025748 -0.0376299,-0.00677953 -0.0562874,-0.00650787zm1.32669 2.36321l-0.792465 -0.0320433c-0.0936024,-0.00378346 -0.187516,-0.00753543 -0.281177,-0.00379921 -0.0994134,0.0039685 -0.257047,0.0188071 -0.33626,0.0862165 -0.0492441,0.0419016 -0.0619291,0.104571 -0.0640827,0.166591 -0.00583071,0.16815 0.038189,0.391024 0.0798425,0.554429 0.0329016,0.129071 0.0908819,0.322894 0.167606,0.432496 0.0313701,0.044815 0.0688386,0.089685 0.112583,0.122988 0.0294843,0.0224488 0.0614606,0.0395157 0.0976614,0.0480984 0.0473701,0.0112283 0.0968307,0.00673228 0.143811,-0.00423228 0.0712323,-0.0166299 0.14224,-0.0489331 0.206606,-0.083122 0.047752,-0.0253701 0.0970748,-0.0666575 0.137559,-0.102291 0.0409449,-0.0360354 0.0803937,-0.0740433 0.119201,-0.112531 0.016378,-0.107303 0.037815,-0.214563 0.0617795,-0.32011 0.0237598,-0.104657 0.052374,-0.231803 0.0922559,-0.331217 0.0451575,-0.112571 0.112677,-0.189059 0.197697,-0.271921 0.0140197,-0.0136614 0.0351732,-0.0329843 0.0499646,-0.0508819l-7.87402e-006 -0.000980315 0.00198031 -0.0104646c0.000771654,-0.0290512 0.00255512,-0.0581811 0.00544488,-0.0872244z"/>
    <path id="_356635664" class="fil0" d="M2.85797 3.15821c0.00241339,-0.00601575 -0.000909449,0.0010315 -0.00242126,0.00285433l0.000952756 -3.93701e-006c0.000625984,-0.00103543 0.00112205,-0.00198425 0.0014685,-0.00285039z"/>
    <path id="_356635328" class="fil1" d="M2.31639 4.01989c-0.475295,-0.975591 -0.434413,-1.48342 -0.364295,-1.58831 0.0975906,-0.257591 0.386843,0.268161 0.58026,0.402236l-0.0628071 -0.550441 -0.419591 -0.47298c-0.43548,-0.380953 -0.783079,-0.588059 -0.717449,0.0220315l0.589291 0.571843c-0.024685,0.0343465 -0.0525118,0.0910236 -0.0657677,0.181516l-0.511665 -0.42337 -0.0250472 0.0305 0.531528 0.439673c-0.00295276,0.0374094 -0.00350394,0.0796575 -0.000826772,0.127224l-0.594559 -0.29985 -0.0177717 0.0352362 0.615799 0.310555c0.00525591,0.0560827 0.0146496,0.11863 0.0296614,0.188854 0.046248,0.216319 0.213169,0.663673 0.39776,1.04256l0.0354803 -0.0172795z"/>
    <path id="_356634680" class="fil1" d="M2.26924 3.93315l-0.0287008 -0.0232244c-0.319992,0.395551 -0.397709,0.366039 -0.439173,0.34413 -0.102681,-0.0540118 -0.0205118,-0.480276 0.0554016,-0.736283l-0.0353937 -0.0104961c-0.000503937,0.00169291 -0.0508425,0.172264 -0.0815433,0.350594 -0.000744094,0.00429134 -0.00133071,0.00829528 -0.0020315,0.0125236l-0.661508 0.563492 0.0239409 0.028126 0.629 -0.535823c-0.0105354,0.0752913 -0.0149094,0.138909 -0.0129764,0.190941l-0.00170866 -0.00152362 -0.529256 0.590795 0.0274961 0.0246339 0.507445 -0.566441c0.00718898,0.053063 0.0232087,0.0900433 0.0482244,0.111228l-0.339276 0.593752 0.0320551 0.0183189 0.339756 -0.594587c0.00827165,0.00234252 0.0169488,0.00367717 0.0262008,0.00366142 0.0120906,0 0.0250512,-0.0020748 0.0388622,-0.00612992l-0.0822047 0.622406 0.0365945 0.00483071 0.0849646 -0.643335c0.0343425,-0.0172205 0.0730669,-0.0444646 0.116681,-0.0823819l0.0694252 0.590079 0.0366732 -0.00432677 -0.0725 -0.61622c0.0720551,-0.0675472 0.11637,-0.10861 0.213551,-0.22874z"/>
    <path id="_356634512" class="fil3" d="M1.51957 1.78639c0,-0.0482835 0.0913346,-0.0874291 0.204004,-0.0874291 0.112673,0 0.204008,0.0391457 0.204008,0.0874291 0,0.0482874 -0.0913346,0.0874291 -0.204008,0.0874291 -0.112669,0 -0.204004,-0.0391417 -0.204004,-0.0874291z"/>
    <path id="_356634440" class="fil3" d="M1.72984 2.06735c0,-0.0449409 0.0644764,-0.0813937 0.144,-0.0813937 0.0795236,0 0.144,0.0364528 0.144,0.0813937 0,0.0449528 -0.0644764,0.0813976 -0.144,0.0813976 -0.0795236,0 -0.144,-0.0364449 -0.144,-0.0813976z"/>
    <path id="_356634344" class="fil1" d="M1.18624 3.80306c0,-0.0482835 0.0913346,-0.0874291 0.204004,-0.0874291 0.112673,0 0.204008,0.0391457 0.204008,0.0874291 0,0.0482874 -0.0913346,0.0874291 -0.204008,0.0874291 -0.112669,0 -0.204004,-0.0391417 -0.204004,-0.0874291z"/>
    <path id="_356634224" class="fil4" d="M1.67894 5.08547c0.00170866,0.0191772 0.0186535,0.0333583 0.0378386,0.0316496 0.0192008,-0.0017126 0.0333583,-0.0186654 0.0316457,-0.0378465 -0.00170866,-0.0191929 -0.0186417,-0.0333622 -0.0378425,-0.0316535 -0.019185,0.0017126 -0.0333504,0.0186575 -0.0316417,0.0378504z"/>
    <path id="_356634728" class="fil4" d="M1.48683 5.09775c0.00256299,0.0287717 0.0279764,0.0500236 0.0567559,0.0474567 0.0287717,-0.00256299 0.0500315,-0.0279764 0.0474646,-0.056748 -0.00256693,-0.0287756 -0.0279843,-0.0500394 -0.0567559,-0.0474724 -0.0287795,0.00256693 -0.0500315,0.0279882 -0.0474646,0.0567638z"/>
    <path id="_356634392" class="fil4" d="M1.29017 5.03729c0.00342126,0.0383701 0.0372992,0.0667008 0.0756732,0.0632795 0.0383701,-0.00342126 0.0667008,-0.0372953 0.0632795,-0.0756693 -0.00342126,-0.0383701 -0.0372992,-0.0667087 -0.0756693,-0.0632874 -0.0383701,0.00341732 -0.0667047,0.0373071 -0.0632835,0.0756772z"/>
    <path id="_356634896" class="fil4" d="M1.14716 4.87013c0.00277953,0.0311732 0.0303031,0.0542008 0.0614882,0.0514213 0.0311772,-0.00277953 0.0541929,-0.030315 0.0514134,-0.0614843 -0.00277953,-0.0311732 -0.0303031,-0.0542008 -0.0614803,-0.0514213 -0.0311811,0.00277953 -0.0542008,0.030315 -0.0514213,0.0614843z"/>
    <path id="_356634608" class="fil4" d="M1.08469 4.6883c0.00170866,0.019189 0.0186614,0.0333583 0.0378465,0.0316496 0.019185,-0.0017126 0.0333543,-0.0186575 0.0316457,-0.0378465 -0.0017126,-0.0191811 -0.0186535,-0.0333504 -0.0378386,-0.0316378 -0.019185,0.00170866 -0.0333661,0.0186535 -0.0316535,0.0378346z"/>
    <path id="_356634488" class="fil4" d="M1.82327 5.02631c0.00139764,0.0156969 0.0152677,0.0273071 0.0309685,0.0259055 0.0157165,-0.00140157 0.0273031,-0.0152795 0.0259055,-0.0309764 -0.00140157,-0.0157087 -0.0152598,-0.027311 -0.0309764,-0.0259094 -0.0157047,0.00140157 -0.0272992,0.0152717 -0.0258976,0.0309803z"/>
    <path id="_356634824" class="fil4" d="M1.94286 4.95935c0.00109055,0.0122165 0.0118819,0.021252 0.0241024,0.0201614 0.0122323,-0.00109055 0.021252,-0.0118898 0.0201614,-0.0241102 -0.00109055,-0.0122244 -0.011878,-0.021252 -0.0241063,-0.0201614 -0.0122205,0.00109055 -0.021248,0.0118819 -0.0201575,0.0241102z"/>
    <path id="_356633912" class="fil4" d="M2.07286 4.87675c0.000779528,0.00873622 0.0085,0.0151969 0.0172402,0.0144173 0.00874409,-0.000779528 0.0151929,-0.00850394 0.0144134,-0.0172402 -0.000779528,-0.00874409 -0.00849213,-0.0151969 -0.0172362,-0.0144173 -0.00874016,0.000779528 -0.0151929,0.00849606 -0.0144173,0.0172402z"/>
    <path id="_356633888" class="fil4" d="M0.99872 4.51596c0.00277953,0.0311732 0.0303031,0.0542008 0.0614882,0.0514213 0.0311772,-0.00277953 0.0541929,-0.030315 0.0514134,-0.0614843 -0.00277953,-0.0311732 -0.0303031,-0.0542008 -0.0614803,-0.0514213 -0.0311811,0.00277953 -0.0542008,0.030315 -0.0514213,0.0614843z"/>
    <path id="_356634200" class="fil4" d="M0.964894 4.29507c0.00170866,0.019189 0.0186614,0.0333583 0.0378465,0.0316496 0.019185,-0.0017126 0.0333543,-0.0186575 0.0316457,-0.0378465 -0.0017126,-0.0191811 -0.0186535,-0.0333504 -0.0378386,-0.0316378 -0.019185,0.00170866 -0.0333661,0.0186535 -0.0316535,0.0378346z"/>
    <path id="_356633984" class="fil4" d="M0.910181 4.06804c0.00277953,0.0311732 0.0303031,0.0542008 0.0614882,0.0514213 0.0311772,-0.00277953 0.0541929,-0.030315 0.0514134,-0.0614843 -0.00277953,-0.0311732 -0.0303031,-0.0542008 -0.0614803,-0.0514213 -0.0311811,0.00277953 -0.0542008,0.030315 -0.0514213,0.0614843z"/>
    <path id="_356633576" class="fil4" d="M0.907602 3.85496c0.00170866,0.019189 0.0186614,0.0333583 0.0378465,0.0316496 0.019185,-0.0017126 0.0333543,-0.0186575 0.0316457,-0.0378465 -0.0017126,-0.0191811 -0.0186535,-0.0333504 -0.0378386,-0.0316378 -0.019185,0.00170866 -0.0333661,0.0186535 -0.0316535,0.0378346z"/>
    <path id="_356633864" class="fil4" d="M0.946642 3.63835c0.00277953,0.0311732 0.0303031,0.0542008 0.0614882,0.0514213 0.0311772,-0.00277953 0.0541929,-0.030315 0.0514134,-0.0614843 -0.00277953,-0.0311732 -0.0303031,-0.0542008 -0.0614803,-0.0514213 -0.0311811,0.00277953 -0.0542008,0.030315 -0.0514213,0.0614843z"/>
    <path id="_356633504" class="fil4" d="M1.11594 3.50861c0.00170866,0.019189 0.0186614,0.0333583 0.0378465,0.0316496 0.019185,-0.0017126 0.0333543,-0.0186575 0.0316457,-0.0378465 -0.0017126,-0.0191811 -0.0186535,-0.0333504 -0.0378386,-0.0316378 -0.019185,0.00170866 -0.0333661,0.0186535 -0.0316535,0.0378346z"/>
    <path id="_356633744" class="fil4" d="M1.26044 3.46517c0.00277953,0.0311732 0.0303031,0.0542008 0.0614882,0.0514213 0.0311772,-0.00277953 0.0541929,-0.030315 0.0514134,-0.0614843 -0.00277953,-0.0311732 -0.0303031,-0.0542008 -0.0614803,-0.0514213 -0.0311811,0.00277953 -0.0542008,0.030315 -0.0514213,0.0614843z"/>
    <path id="_356633720" class="fil4" d="M1.45188 3.45131c0.00170866,0.019189 0.0186614,0.0333583 0.0378465,0.0316496 0.019185,-0.0017126 0.0333543,-0.0186575 0.0316457,-0.0378465 -0.0017126,-0.0191811 -0.0186535,-0.0333504 -0.0378386,-0.0316378 -0.019185,0.00170866 -0.0333661,0.0186535 -0.0316535,0.0378346z"/>
    <path id="_356633960" class="fil4" d="M1.58987 3.45996c0.00277953,0.0311732 0.0303031,0.0542008 0.0614882,0.0514213 0.0311772,-0.00277953 0.0541929,-0.030315 0.0514134,-0.0614843 -0.00277953,-0.0311732 -0.0303031,-0.0542008 -0.0614803,-0.0514213 -0.0311811,0.00277953 -0.0542008,0.030315 -0.0514213,0.0614843z"/>
    <path id="_356633120" class="fil4" d="M1.82897 3.45913c0.00170866,0.019189 0.0186614,0.0333583 0.0378465,0.0316496 0.019185,-0.0017126 0.0333543,-0.0186575 0.0316457,-0.0378465 -0.0017126,-0.0191811 -0.0186535,-0.0333504 -0.0378386,-0.0316378 -0.019185,0.00170866 -0.0333661,0.0186535 -0.0316535,0.0378346z"/>
    <path id="_356633096" class="fil4" d="M2.27076 3.47563c0.00211811,0.0237362 0.0230787,0.0412717 0.0468228,0.0391575 0.0237402,-0.00211811 0.0412638,-0.0230866 0.0391496,-0.0468189 -0.00211811,-0.0237362 -0.0230748,-0.0412756 -0.046815,-0.0391575 -0.0237441,0.00211811 -0.0412717,0.0230827 -0.0391575,0.0468189z"/>
    <path id="_356632952" class="fil4" d="M2.00493 3.4192c0.0044685,0.0501457 0.048748,0.087189 0.0989094,0.0827165 0.0501535,-0.0044685 0.0871772,-0.0487638 0.0827047,-0.0989094 -0.0044685,-0.0501417 -0.0487441,-0.087189 -0.0988976,-0.0827165 -0.0501614,0.00447244 -0.087189,0.0487677 -0.0827165,0.0989094z"/>
    <path id="_356632688" class="fil4" d="M1.87385 3.28404c0.00170866,0.019189 0.0186614,0.0333583 0.0378465,0.0316496 0.019185,-0.0017126 0.0333543,-0.0186575 0.0316457,-0.0378465 -0.0017126,-0.0191811 -0.0186535,-0.0333504 -0.0378386,-0.0316378 -0.019185,0.00170866 -0.0333661,0.0186535 -0.0316535,0.0378346z"/>
    <path id="_356632904" class="fil4" d="M1.65061 3.2058c0.00277953,0.0311732 0.0303031,0.0542008 0.0614882,0.0514213 0.0311772,-0.00277953 0.0541929,-0.030315 0.0514134,-0.0614843 -0.00277953,-0.0311732 -0.0303031,-0.0542008 -0.0614803,-0.0514213 -0.0311811,0.00277953 -0.0542008,0.030315 -0.0514213,0.0614843z"/>
    <path id="_356632976" class="fil4" d="M2.42773 3.50467c0.00161024,0.018063 0.0175669,0.0314016 0.035626,0.0297913 0.0180591,-0.00161024 0.0313976,-0.017563 0.0297874,-0.035626 -0.00161024,-0.0180551 -0.0175591,-0.0313937 -0.0356181,-0.0297835 -0.0180591,0.00161024 -0.0314055,0.0175591 -0.0297953,0.0356181z"/>
    <path id="_356633360" class="fil4" d="M1.47594 3.14862c0.00170866,0.019189 0.0186614,0.0333583 0.0378465,0.0316496 0.019185,-0.0017126 0.0333543,-0.0186575 0.0316457,-0.0378465 -0.0017126,-0.0191811 -0.0186535,-0.0333504 -0.0378386,-0.0316378 -0.019185,0.00170866 -0.0333661,0.0186535 -0.0316535,0.0378346z"/>
    <path id="_356633336" class="fil4" d="M1.2527 3.07039c0.00277953,0.0311732 0.0303031,0.0542008 0.0614882,0.0514213 0.0311772,-0.00277953 0.0541929,-0.030315 0.0514134,-0.0614843 -0.00277953,-0.0311732 -0.0303031,-0.0542008 -0.0614803,-0.0514213 -0.0311811,0.00277953 -0.0542008,0.030315 -0.0514213,0.0614843z"/>
    <path id="_356632856" class="fil4" d="M1.09469 2.96945c0.00170866,0.019189 0.0186614,0.0333583 0.0378465,0.0316496 0.019185,-0.0017126 0.0333543,-0.0186575 0.0316457,-0.0378465 -0.0017126,-0.0191811 -0.0186535,-0.0333504 -0.0378386,-0.0316378 -0.019185,0.00170866 -0.0333661,0.0186535 -0.0316535,0.0378346z"/>
    <path id="_356633288" class="fil4" d="M1.07978 2.78705c0.00277953,0.0311732 0.0303031,0.0542008 0.0614882,0.0514213 0.0311772,-0.00277953 0.0541929,-0.030315 0.0514134,-0.0614843 -0.00277953,-0.0311732 -0.0303031,-0.0542008 -0.0614803,-0.0514213 -0.0311811,0.00277953 -0.0542008,0.030315 -0.0514213,0.0614843z"/>
    <path id="_356631920" class="fil4" d="M1.14927 2.57996c0.00170866,0.019189 0.0186614,0.0333583 0.0378465,0.0316496 0.019185,-0.0017126 0.0333543,-0.0186575 0.0316457,-0.0378465 -0.0017126,-0.0191811 -0.0186535,-0.0333504 -0.0378386,-0.0316378 -0.019185,0.00170866 -0.0333661,0.0186535 -0.0316535,0.0378346z"/>
    <path id="_356632520" class="fil4" d="M1.17807 2.36335c0.00277953,0.0311732 0.0303031,0.0542008 0.0614882,0.0514213 0.0311772,-0.00277953 0.0541929,-0.030315 0.0514134,-0.0614843 -0.00277953,-0.0311732 -0.0303031,-0.0542008 -0.0614803,-0.0514213 -0.0311811,0.00277953 -0.0542008,0.030315 -0.0514213,0.0614843z"/>
    <path id="_356632376" class="fil4" d="M1.23887 2.14116c0.00170866,0.019189 0.0186614,0.0333583 0.0378465,0.0316496 0.019185,-0.0017126 0.0333543,-0.0186575 0.0316457,-0.0378465 -0.0017126,-0.0191811 -0.0186535,-0.0333504 -0.0378386,-0.0316378 -0.019185,0.00170866 -0.0333661,0.0186535 -0.0316535,0.0378346z"/>
    <path id="_356632160" class="fil4" d="M1.21241 1.90651c0.00277953,0.0311732 0.0303031,0.0542008 0.0614882,0.0514213 0.0311772,-0.00277953 0.0541929,-0.030315 0.0514134,-0.0614843 -0.00277953,-0.0311732 -0.0303031,-0.0542008 -0.0614803,-0.0514213 -0.0311811,0.00277953 -0.0542008,0.030315 -0.0514213,0.0614843z"/>
    <path id="_356632280" class="fil4" d="M1.15721 1.67278c0.00170866,0.019189 0.0186614,0.0333583 0.0378465,0.0316496 0.019185,-0.0017126 0.0333543,-0.0186575 0.0316457,-0.0378465 -0.0017126,-0.0191811 -0.0186535,-0.0333504 -0.0378386,-0.0316378 -0.019185,0.00170866 -0.0333661,0.0186535 -0.0316535,0.0378346z"/>
    <path id="_356632184" class="fil4" d="M1.08079 1.45121c0.00277953,0.0311732 0.0303031,0.0542008 0.0614882,0.0514213 0.0311772,-0.00277953 0.0541929,-0.030315 0.0514134,-0.0614843 -0.00277953,-0.0311732 -0.0303031,-0.0542008 -0.0614803,-0.0514213 -0.0311811,0.00277953 -0.0542008,0.030315 -0.0514213,0.0614843z"/>
    <path id="_356632208" class="fil4" d="M1.04784 1.23006c0.00170866,0.019189 0.0186614,0.0333583 0.0378465,0.0316496 0.019185,-0.0017126 0.0333543,-0.0186575 0.0316457,-0.0378465 -0.0017126,-0.0191811 -0.0186535,-0.0333504 -0.0378386,-0.0316378 -0.019185,0.00170866 -0.0333661,0.0186535 -0.0316535,0.0378346z"/>
    <path id="_356632352" class="fil4" d="M1.16933 1.12048c0.00277953,0.0311732 0.0303031,0.0542008 0.0614882,0.0514213 0.0311772,-0.00277953 0.0541929,-0.030315 0.0514134,-0.0614843 -0.00277953,-0.0311732 -0.0303031,-0.0542008 -0.0614803,-0.0514213 -0.0311811,0.00277953 -0.0542008,0.030315 -0.0514213,0.0614843z"/>
    <path id="_356632040" class="fil4" d="M1.41242 1.1858c0.00170866,0.019189 0.0186614,0.0333583 0.0378465,0.0316496 0.019185,-0.0017126 0.0333543,-0.0186575 0.0316457,-0.0378465 -0.0017126,-0.0191811 -0.0186535,-0.0333504 -0.0378386,-0.0316378 -0.019185,0.00170866 -0.0333661,0.0186535 -0.0316535,0.0378346z"/>
    <path id="_356632616" class="fil4" d="M1.55735 1.28715c0.00277953,0.0311732 0.0303031,0.0542008 0.0614882,0.0514213 0.0311772,-0.00277953 0.0541929,-0.030315 0.0514134,-0.0614843 -0.00277953,-0.0311732 -0.0303031,-0.0542008 -0.0614803,-0.0514213 -0.0311811,0.00277953 -0.0542008,0.030315 -0.0514213,0.0614843z"/>
    <path id="_356632472" class="fil4" d="M1.75878 1.45142c0.00170866,0.019189 0.0186614,0.0333583 0.0378465,0.0316496 0.019185,-0.0017126 0.0333543,-0.0186575 0.0316457,-0.0378465 -0.0017126,-0.0191811 -0.0186535,-0.0333504 -0.0378386,-0.0316378 -0.019185,0.00170866 -0.0333661,0.0186535 -0.0316535,0.0378346z"/>
    <path id="_356631776" class="fil4" d="M1.89068 1.61267c0.00277953,0.0311732 0.0303031,0.0542008 0.0614882,0.0514213 0.0311772,-0.00277953 0.0541929,-0.030315 0.0514134,-0.0614843 -0.00277953,-0.0311732 -0.0303031,-0.0542008 -0.0614803,-0.0514213 -0.0311811,0.00277953 -0.0542008,0.030315 -0.0514213,0.0614843z"/>
    <path id="_356631392" class="fil4" d="M2.06094 1.78476c0.00170866,0.019189 0.0186614,0.0333583 0.0378465,0.0316496 0.019185,-0.0017126 0.0333543,-0.0186575 0.0316457,-0.0378465 -0.0017126,-0.0191811 -0.0186535,-0.0333504 -0.0378386,-0.0316378 -0.019185,0.00170866 -0.0333661,0.0186535 -0.0316535,0.0378346z"/>
    <path id="_356631320" class="fil4" d="M2.15309 1.96191c0.00277953,0.0311732 0.0303031,0.0542008 0.0614882,0.0514213 0.0311772,-0.00277953 0.0541929,-0.030315 0.0514134,-0.0614843 -0.00277953,-0.0311732 -0.0303031,-0.0542008 -0.0614803,-0.0514213 -0.0311811,0.00277953 -0.0542008,0.030315 -0.0514213,0.0614843z"/>
    <path id="_356631200" class="fil4" d="M2.25574 2.13658c0.00170866,0.019189 0.0186614,0.0333583 0.0378465,0.0316496 0.019185,-0.0017126 0.0333543,-0.0186575 0.0316457,-0.0378465 -0.0017126,-0.0191811 -0.0186535,-0.0333504 -0.0378386,-0.0316378 -0.019185,0.00170866 -0.0333661,0.0186535 -0.0316535,0.0378346z"/>
    <path id="_356631176" class="fil4" d="M2.34789 2.31374c0.00277953,0.0311732 0.0303031,0.0542008 0.0614882,0.0514213 0.0311772,-0.00277953 0.0541929,-0.030315 0.0514134,-0.0614843 -0.00277953,-0.0311732 -0.0303031,-0.0542008 -0.0614803,-0.0514213 -0.0311811,0.00277953 -0.0542008,0.030315 -0.0514213,0.0614843z"/>
    <path id="_356631464" class="fil4" d="M2.44324 2.50534c0.00170866,0.019189 0.0186614,0.0333583 0.0378465,0.0316496 0.019185,-0.0017126 0.0333543,-0.0186575 0.0316457,-0.0378465 -0.0017126,-0.0191811 -0.0186535,-0.0333504 -0.0378386,-0.0316378 -0.019185,0.00170866 -0.0333661,0.0186535 -0.0316535,0.0378346z"/>
    <path id="_356631488" class="fil4" d="M2.49163 2.68457c0.00277953,0.0311732 0.0303031,0.0542008 0.0614882,0.0514213 0.0311772,-0.00277953 0.0541929,-0.030315 0.0514134,-0.0614843 -0.00277953,-0.0311732 -0.0303031,-0.0542008 -0.0614803,-0.0514213 -0.0311811,0.00277953 -0.0542008,0.030315 -0.0514213,0.0614843z"/>
    <path id="_356631704" class="fil4" d="M2.58699 2.88659c0.00170866,0.019189 0.0186614,0.0333583 0.0378465,0.0316496 0.019185,-0.0017126 0.0333543,-0.0186575 0.0316457,-0.0378465 -0.0017126,-0.0191811 -0.0186535,-0.0333504 -0.0378386,-0.0316378 -0.019185,0.00170866 -0.0333661,0.0186535 -0.0316535,0.0378346z"/>
    <path id="_356631872" class="fil4" d="M2.62289 3.07416c0.00277953,0.0311732 0.0303031,0.0542008 0.0614882,0.0514213 0.0311772,-0.00277953 0.0541929,-0.030315 0.0514134,-0.0614843 -0.00277953,-0.0311732 -0.0303031,-0.0542008 -0.0614803,-0.0514213 -0.0311811,0.00277953 -0.0542008,0.030315 -0.0514213,0.0614843z"/>
   </g>
   <g>
    <path id="_356630744" class="fil0" d="M3.66988 4.07067l-0.000114173 0.000885827c-0.00364567,0.00731102 -0.00591339,0.011626 -0.00456693,0.00643307l0.0046811 -0.0073189z"/>
    <path id="_356630408" class="fil0" d="M3.66764 4.06994c0.00364567,-0.0112087 0.00338583,-0.00805512 0.00223622,0.000728346l-0.0046811 0.0073189c0.000429134,-0.00165748 0.00121654,-0.00425984 0.00244488,-0.00804724z"/>
    <path id="_356630384" class="fil1" d="M3.40616 3.24946c-0.0908976,0.0533701 -0.181331,0.106469 -0.255031,0.140933l-0.032315 0.0151142 0.00176378 0.0356535c0.00162992,0.0329961 -0.0122441,0.0901693 -0.048437,0.161504 -0.0299882,0.0591063 -0.0746535,0.125878 -0.137587,0.194268l-0.00414173 0.0065c-0.00885433,0.00927953 -0.0166457,0.019315 -0.0230709,0.0304528 -0.00785433,0.0136457 -0.013748,0.0287441 -0.0171732,0.0458071 -0.00893701,0.0444724 -0.00688976,0.0908937 -0.00465354,0.14174 0.0032126,0.0729724 0.00688976,0.156484 -0.0272323,0.243748 -0.0190866,0.0487992 -0.0744528,0.154181 -0.14439,0.273256 -0.0596535,0.101563 -0.129524,0.212335 -0.196228,0.305835l-0.00989764 0.032437c0.00214173,0.0741535 0.0051378,0.156386 0.012437,0.233181 0.00764173,0.0804016 0.0200157,0.157339 0.0409567,0.218839 0.0332362,0.0976063 0.0718268,0.182516 0.118748,0.253024 0.0486772,0.0731417 0.106122,0.130594 0.175449,0.170429 0.0558701,0.0321063 0.119012,0.0524173 0.190965,0.0598937 0.0692913,0.00720472 0.146795,0.00220079 0.233961,-0.0159921 0.136161,-0.0284173 0.318114,-0.119803 0.491504,-0.230185 0.197748,-0.12589 0.387185,-0.278173 0.48515,-0.389949 0.327992,-0.374256 -0.0738189,-0.722323 -0.347543,-0.959429l-0.00441732 -0.00383071c0.0529567,0.0219606 0.109799,0.045878 0.167272,0.0700591 0.187937,0.0790827 0.382417,0.160913 0.474512,0.188591 0.153413,0.0461024 0.222996,-0.0737008 0.302492,-0.210563 0.0150551,-0.0259173 0.0305354,-0.0525787 0.0463976,-0.0774921 0.0307323,-0.0482677 0.0665197,-0.115031 0.104819,-0.186469 0.0590906,-0.110213 0.124331,-0.231906 0.178929,-0.301311 0.0963307,-0.122457 0.244169,-0.197181 0.387224,-0.269488 0.108941,-0.0550709 0.215299,-0.108827 0.301232,-0.182933 0.0435551,-0.037563 0.0727126,-0.0746575 0.0900157,-0.110874 0.0315827,-0.0660984 0.0248228,-0.126657 -0.00670079,-0.181016 -0.0276024,-0.0476102 -0.0748071,-0.0885315 -0.130681,-0.12278 -0.0974646,-0.0597441 -0.224094,-0.100752 -0.312063,-0.120028 -0.114563,-0.0251024 -0.258232,-0.0340315 -0.402945,-0.0312756 -0.162689,0.00309843 -0.327626,0.0208819 -0.454252,0.0469843 -0.159858,0.0329606 -0.337224,0.0945 -0.511173,0.165732 -0.173169,0.0709134 -0.341846,0.150874 -0.486264,0.221638 -0.0761378,0.037311 -0.162098,0.0877756 -0.24763,0.137996z"/>
    <path id="_356630864" class="fil2" d="M5.75099 3.04979c-0.00825984,0.0100472 -0.0196181,0.0204921 -0.026815,0.0266969 -0.0723543,0.0623976 -0.171776,0.110213 -0.256803,0.153197 -0.171894,0.0868858 -0.338921,0.174764 -0.460886,0.329807 -0.0766339,0.0974173 -0.141146,0.223768 -0.199913,0.333382 -0.030685,0.0572402 -0.0616535,0.117528 -0.0965,0.17226 -0.0177795,0.0279291 -0.0344331,0.0565276 -0.0510551,0.0851457 -0.0120512,0.020752 -0.042748,0.0759606 -0.0657677,0.105201 -0.131028,-0.0412992 -0.277213,-0.108846 -0.403012,-0.161752 -0.0108937,-0.00458268 -0.0217835,-0.00916535 -0.0326732,-0.013748 -0.0560748,-0.0235906 -0.112142,-0.0472047 -0.168339,-0.0705039l-0.724441 -0.300362c0.00118898,-0.00229528 0.00237008,-0.00459843 0.00353937,-0.00690551 0.0238346,-0.0469764 0.0457795,-0.100035 0.0591102,-0.15428 0.0644606,-0.0343661 0.127795,-0.0721614 0.190114,-0.108752 0.0762008,-0.0447402 0.153705,-0.0912795 0.233043,-0.130154 0.155508,-0.0762008 0.312531,-0.149961 0.472827,-0.215602 0.150567,-0.0616575 0.312661,-0.120957 0.472224,-0.153854 0.133311,-0.0274803 0.277992,-0.0399055 0.41402,-0.0424921 0.113268,-0.00215748 0.24076,0.00191732 0.351669,0.0262165 0.0792913,0.017374 0.174996,0.0502874 0.244181,0.0926969 0.010815,0.00662598 0.0320669,0.0208268 0.0454764,0.0338031zm-2.5851 0.813701l0.599453 0.519311c0.0708031,0.0613386 0.141811,0.122913 0.207508,0.189776 0.0697323,0.0709685 0.174445,0.189724 0.186012,0.293094 0.00719291,0.0642559 -0.0264764,0.11861 -0.067378,0.165283 -0.110894,0.126531 -0.295594,0.258807 -0.437846,0.349366 -0.112362,0.0715315 -0.287339,0.173075 -0.418307,0.200409 -0.0535472,0.0111772 -0.111579,0.0182205 -0.166264,0.0125354 -0.0368583,-0.00383071 -0.0718504,-0.0132913 -0.104106,-0.0318268 -0.0422126,-0.0242559 -0.0751772,-0.0614016 -0.101906,-0.101563 -0.0405236,-0.0608976 -0.0701496,-0.133063 -0.0936457,-0.202055 -0.0174252,-0.051185 -0.0250984,-0.115051 -0.0301969,-0.16874 -0.00516535,-0.0542992 -0.00788583,-0.109012 -0.00981102,-0.163634 0.0615433,-0.0894134 0.11937,-0.18226 0.174185,-0.275587 0.0543504,-0.0925394 0.120563,-0.204791 0.159575,-0.304551 0.0441811,-0.112957 0.0473504,-0.214933 0.0421339,-0.333539 -0.000858268,-0.0195551 -0.00304331,-0.048122 -0.00156693,-0.0712953l0.000677165 -0.000708661 0.00572441 -0.00898425c0.0193307,-0.0216969 0.0379764,-0.0441496 0.0557598,-0.0672913z"/>
    <path id="_356630672" class="fil0" d="M3.22463 3.31344c0.0023622,-0.00603937 -4.33071e-005,0.00137402 -0.000188976,0.00373622l-0.000692913 -0.000653543c0.000251969,-0.00118504 0.00053937,-0.00221654 0.00088189,-0.00308268z"/>
    <path id="_356630768" class="fil1" d="M3.02924 4.31226c1.01444,-0.385492 1.33239,-0.783567 1.35312,-0.908024 0.105276,-0.254547 -0.465539,-0.0694764 -0.698307,-0.10422l0.422701 -0.358122 0.629665 -0.0573622c0.578224,0.0205906 0.973358,0.107685 0.507756,0.50735l-0.821035 0.0131969c-0.00552756,0.041937 -0.024063,0.102291 -0.0763701,0.177315l0.662795 0.0418504 -0.00263386 0.039374 -0.688433 -0.043563c-0.0234646,0.0292835 -0.0519921,0.0604488 -0.0865157,0.0932795l0.638614 0.188626 -0.0111772 0.0378465 -0.661425 -0.195366c-0.0422362,0.0372717 -0.0919094,0.0764213 -0.150937,0.117315 -0.181835,0.125976 -0.609819,0.337677 -1.0038,0.487394l-0.0140236 -0.0368898z"/>
    <path id="_356630816" class="fil1" d="M3.123 4.28133l0.0368189 0.00273228c-0.0376693,0.507378 0.0391772,0.539091 0.0843937,0.55152 0.111819,0.0309488 0.343831,-0.335957 0.463819,-0.574508l0.0329803 0.0165906c-0.000791339,0.0015748 -0.0809094,0.160354 -0.180654,0.311335 -0.00239764,0.00363386 -0.0047126,0.00695276 -0.00709843,0.0105157l0.0962087 0.863634 -0.0367047 0.00410236 -0.0914646 -0.821209c-0.0438819,0.0620827 -0.0842598,0.111441 -0.121295,0.148035l0.0022874 5.90551e-005 -0.0188701 0.792969 -0.0369055 -0.000877953 0.0180866 -0.76028c-0.0415787,0.0337441 -0.0785748,0.0497205 -0.111311,0.0480315l-0.159339 0.665028 -0.0359055 -0.00860236 0.159559 -0.665965c-0.00762992,-0.00395276 -0.0148661,-0.00892126 -0.0215984,-0.0152717 -0.00881102,-0.00827559 -0.0168346,-0.0186693 -0.024122,-0.0310827l-0.366303 0.509874 -0.0299803 -0.0215394 0.378626 -0.527016c-0.0132362,-0.036063 -0.0227992,-0.0824331 -0.0286181,-0.139933l-0.454669 0.38248 -0.0237598 -0.0282638 0.474807 -0.399429c-0.00625197,-0.0985669 -0.0104331,-0.158835 0.00101181,-0.312929z"/>
    <path id="_356630984" class="fil3" d="M5.13937 3.23023c0.0330669,-0.035185 -0.00668898,-0.126256 -0.0887992,-0.203409 -0.0821102,-0.0771575 -0.175472,-0.111173 -0.208535,-0.0759843 -0.0330669,0.035189 0.00668504,0.126256 0.0887953,0.203413 0.0821102,0.0771535 0.175476,0.111169 0.208539,0.0759803z"/>
    <path id="_356631104" class="fil3" d="M4.79376 3.29099c0.0307717,-0.032752 0.00874409,-0.103469 -0.0492047,-0.157925 -0.0579528,-0.0544528 -0.129902,-0.0720433 -0.160677,-0.0392913 -0.0307835,0.0327598 -0.00875197,0.103472 0.0492008,0.157925 0.0579528,0.0544567 0.129898,0.0720512 0.160681,0.0392913z"/>
    <path id="_356630528" class="fil1" d="M4.00132 4.92815c0.033063,-0.035189 -0.00668898,-0.12626 -0.0887992,-0.203413 -0.0821102,-0.0771575 -0.175472,-0.111173 -0.208539,-0.0759843 -0.0330669,0.035189 0.00668898,0.12626 0.0887992,0.203413 0.0821102,0.0771575 0.175472,0.111173 0.208539,0.0759843z"/>
    <path id="_356629640" class="fil4" d="M2.7641 5.52531c-0.014378,0.0128071 -0.036437,0.0115394 -0.049248,-0.00284646 -0.0128189,-0.0143937 -0.0115276,-0.0364449 0.00285433,-0.049248 0.0143858,-0.012815 0.0364331,-0.0115512 0.049252,0.00284646 0.012811,0.0143819 0.0115315,0.0364331 -0.00285827,0.049248z"/>
    <path id="_356630264" class="fil4" d="M2.89569 5.66581c-0.0215709,0.0192126 -0.0546457,0.0172953 -0.0738583,-0.00427953 -0.0192126,-0.0215748 -0.0173031,-0.0546496 0.00427165,-0.0738622 0.0215748,-0.0192126 0.0546575,-0.0172992 0.0738701,0.00427165 0.0192126,0.0215748 0.0172913,0.0546575 -0.00428346,0.0738701z"/>
    <path id="_356630240" class="fil4" d="M3.08041 5.75642c-0.0287677,0.0256181 -0.0728583,0.023063 -0.0984803,-0.00570472 -0.0256181,-0.0287677 -0.0230669,-0.0728543 0.00570079,-0.0984764 0.0287677,-0.025622 0.0728661,-0.0230748 0.0984843,0.00569291 0.025622,0.0287677 0.023063,0.0728661 -0.00570472,0.0984882z"/>
    <path id="_356630288" class="fil4" d="M3.2991 5.73254c-0.023374,0.020811 -0.0592008,0.0187441 -0.0800236,-0.00463386 -0.020815,-0.023374 -0.0187323,-0.0592008 0.0046378,-0.0800157 0.0233701,-0.020811 0.0591969,-0.018748 0.0800157,0.00462992 0.0208189,0.023378 0.0187402,0.0592047 -0.00462992,0.0800197z"/>
    <path id="_356630216" class="fil4" d="M3.46914 5.64281c-0.0143898,0.012815 -0.0364449,0.0115315 -0.0492559,-0.00285433 -0.012811,-0.0143819 -0.0115315,-0.0364331 0.00285433,-0.049248 0.0143819,-0.0128071 0.0364291,-0.0115315 0.0492402,0.00285433 0.012811,0.0143858 0.0115433,0.0364409 -0.00283858,0.049248z"/>
    <path id="_356630096" class="fil4" d="M2.69943 5.38337c-0.0117717,0.0104803 -0.0298268,0.00944488 -0.040311,-0.00233071 -0.0104921,-0.0117795 -0.00943701,-0.0298268 0.00233465,-0.040311 0.0117756,-0.0104882 0.0298228,-0.00945276 0.040315,0.00233071 0.0104843,0.0117717 0.00943701,0.0298228 -0.00233858,0.040311z"/>
    <path id="_356630072" class="fil4" d="M2.65814 5.25267c-0.00915748,0.00815748 -0.0232087,0.00735039 -0.0313701,-0.00181496 -0.00816535,-0.00916929 -0.00734252,-0.0232165 0.0018189,-0.031374 0.00916535,-0.00816142 0.0232087,-0.00735433 0.031374,0.00181496 0.00816142,0.00916142 0.00734646,0.0232087 -0.00182283,0.031374z"/>
    <path id="_356630144" class="fil4" d="M2.61996 5.10346c-0.00654724,0.00583071 -0.0165984,0.00525591 -0.0224331,-0.00129921 -0.00583858,-0.00655512 -0.00524803,-0.0165984 0.00129921,-0.0224331 0.00655512,-0.00583858 0.0165984,-0.00525984 0.022437,0.00129528 0.00583465,0.00655512 0.00525197,0.0165984 -0.00130315,0.022437z"/>
    <path id="_356629760" class="fil4" d="M3.6498 5.57608c-0.023374,0.020815 -0.0592008,0.018748 -0.0800236,-0.00462992 -0.020815,-0.023378 -0.0187323,-0.0592008 0.0046378,-0.0800157 0.0233701,-0.020815 0.0591969,-0.018748 0.0800157,0.00462598 0.0208189,0.023378 0.0187402,0.0592087 -0.00462992,0.0800197z"/>
    <path id="_356630000" class="fil4" d="M3.82572 5.43827c-0.0143898,0.012815 -0.0364449,0.0115315 -0.0492559,-0.00285039 -0.012811,-0.0143858 -0.0115315,-0.036437 0.00285433,-0.049248 0.0143819,-0.0128071 0.0364331,-0.0115315 0.0492402,0.00285039 0.012811,0.0143858 0.0115433,0.0364409 -0.00283858,0.049248z"/>
    <path id="_356628872" class="fil4" d="M4.02105 5.31029c-0.0233701,0.020811 -0.0592008,0.0187441 -0.0800197,-0.00463386 -0.0208189,-0.023374 -0.0187362,-0.0592008 0.0046378,-0.0800157 0.0233701,-0.020811 0.0591969,-0.018748 0.0800157,0.00462992 0.0208189,0.023378 0.0187362,0.0592047 -0.00463386,0.0800197z"/>
    <path id="_356629424" class="fil4" d="M4.16884 5.15677c-0.0143858,0.012815 -0.0364449,0.0115315 -0.0492559,-0.00285039 -0.012811,-0.0143858 -0.0115315,-0.036437 0.00285433,-0.049248 0.0143819,-0.0128071 0.0364331,-0.0115315 0.0492402,0.00285039 0.012811,0.0143858 0.0115433,0.0364409 -0.00283858,0.049248z"/>
    <path id="_356629136" class="fil4" d="M4.28872 4.97218c-0.0233701,0.020815 -0.0591969,0.018748 -0.0800197,-0.00462992 -0.020815,-0.023378 -0.0187323,-0.0592008 0.0046378,-0.0800157 0.0233701,-0.020815 0.0591969,-0.018748 0.0800157,0.00462598 0.0208189,0.023378 0.0187402,0.0592087 -0.00463386,0.0800197z"/>
    <path id="_356629376" class="fil4" d="M4.2542 4.7617c-0.0143858,0.012811 -0.0364449,0.0115315 -0.0492559,-0.00285433 -0.012811,-0.0143819 -0.0115315,-0.0364331 0.00285433,-0.049248 0.0143819,-0.0128071 0.0364331,-0.0115315 0.0492402,0.00285433 0.012811,0.0143858 0.0115433,0.0364409 -0.00283858,0.049248z"/>
    <path id="_356629088" class="fil4" d="M4.17863 4.63109c-0.0233701,0.020811 -0.0592008,0.0187441 -0.0800197,-0.00463386 -0.0208189,-0.023374 -0.0187362,-0.0592008 0.00463386,-0.0800157 0.023374,-0.020811 0.0592008,-0.018748 0.0800157,0.00462992 0.0208228,0.023378 0.0187402,0.0592047 -0.00462992,0.0800197z"/>
    <path id="_356629064" class="fil4" d="M4.04861 4.48991c-0.0143858,0.012811 -0.0364449,0.0115315 -0.0492559,-0.00285433 -0.012811,-0.0143858 -0.0115315,-0.0364331 0.00285827,-0.049248 0.0143819,-0.0128071 0.0364291,-0.0115315 0.0492402,0.00285433 0.0128071,0.0143819 0.0115394,0.0364409 -0.00284252,0.049248z"/>
    <path id="_356629544" class="fil4" d="M3.94212 4.40171c-0.023374,0.020811 -0.0592008,0.018748 -0.0800236,-0.00463386 -0.020815,-0.023374 -0.0187323,-0.0592008 0.0046378,-0.0800118 0.0233701,-0.020815 0.0591969,-0.018752 0.0800157,0.00462598 0.0208189,0.023378 0.0187402,0.0592047 -0.00462992,0.0800197z"/>
    <path id="_356629400" class="fil4" d="M3.76845 4.23737c-0.0143858,0.012815 -0.0364449,0.0115315 -0.0492559,-0.00285039 -0.0128071,-0.0143858 -0.0115315,-0.036437 0.00285827,-0.049248 0.0143819,-0.012811 0.0364291,-0.0115315 0.0492402,0.00285039 0.012811,0.0143858 0.0115394,0.0364409 -0.00284252,0.049248z"/>
    <path id="_356629256" class="fil4" d="M3.43519 3.94687c-0.0177953,0.0158504 -0.0450787,0.0142756 -0.0609331,-0.00352756 -0.0158504,-0.0177992 -0.0142638,-0.0450787 0.0035315,-0.0609291 0.0177953,-0.0158465 0.0450748,-0.0142756 0.0609291,0.00352362 0.0158543,0.0178031 0.0142677,0.0450866 -0.00352756,0.0609331z"/>
    <path id="_356628944" class="fil4" d="M3.66756 4.08779c-0.0375945,0.0334803 -0.0952323,0.0301575 -0.128724,-0.00745276 -0.0334882,-0.0376024 -0.0301339,-0.0952323 0.00746063,-0.128713 0.0375945,-0.0334843 0.0952283,-0.0301614 0.128717,0.00744094 0.0334921,0.0376063 0.0301417,0.0952441 -0.00745276,0.128724z"/>
    <path id="_356629016" class="fil4" d="M3.85565 4.07904c-0.0143898,0.012811 -0.0364449,0.0115315 -0.0492559,-0.00285433 -0.012811,-0.0143819 -0.0115315,-0.0364331 0.00285433,-0.049248 0.0143819,-0.0128071 0.0364291,-0.0115315 0.0492402,0.00285433 0.012811,0.0143819 0.0115433,0.0364409 -0.00283858,0.049248z"/>
    <path id="_356628560" class="fil4" d="M4.0719 4.1749c-0.023374,0.020815 -0.0592008,0.018748 -0.0800197,-0.00462992 -0.0208189,-0.023378 -0.0187362,-0.0592047 0.00463386,-0.0800157 0.0233701,-0.020815 0.0591969,-0.018752 0.0800157,0.00462598 0.0208228,0.023378 0.0187402,0.0592047 -0.00462992,0.0800197z"/>
    <path id="_356628320" class="fil4" d="M3.30092 3.86054c-0.0135433,0.0120591 -0.0343071,0.0108543 -0.0463661,-0.00268504 -0.0120591,-0.0135394 -0.0108543,-0.0342992 0.00268898,-0.0463583 0.0135354,-0.0120551 0.0342913,-0.0108543 0.0463504,0.00268504 0.0120591,0.0135394 0.0108622,0.0343031 -0.00267323,0.0463583z"/>
    <path id="_356628248" class="fil4" d="M4.23836 4.25284c-0.0143858,0.012811 -0.0364449,0.0115315 -0.0492559,-0.00285433 -0.012811,-0.0143819 -0.0115315,-0.0364331 0.00285433,-0.049248 0.0143819,-0.0128071 0.0364331,-0.0115315 0.0492402,0.00285433 0.012811,0.0143858 0.0115433,0.0364409 -0.00283858,0.049248z"/>
    <path id="_356628824" class="fil4" d="M4.45461 4.3487c-0.0233701,0.020815 -0.0592008,0.018748 -0.0800197,-0.00462992 -0.0208189,-0.023378 -0.0187362,-0.0592047 0.00463386,-0.0800157 0.023374,-0.020815 0.0592008,-0.018748 0.0800157,0.00462598 0.0208228,0.023378 0.0187402,0.0592087 -0.00462992,0.0800197z"/>
    <path id="_356628200" class="fil4" d="M4.63888 4.38334c-0.0143858,0.012811 -0.0364449,0.0115315 -0.0492559,-0.00285433 -0.012811,-0.0143819 -0.0115315,-0.0364331 0.00285433,-0.049248 0.0143819,-0.0128071 0.0364331,-0.0115315 0.0492402,0.00285433 0.012811,0.0143819 0.0115433,0.0364409 -0.00283858,0.049248z"/>
    <path id="_356628728" class="fil4" d="M4.77465 4.26063c-0.0233701,0.020811 -0.0592008,0.0187441 -0.0800197,-0.00463386 -0.0208189,-0.023374 -0.0187362,-0.0592008 0.0046378,-0.0800157 0.0233701,-0.020811 0.0591969,-0.018748 0.0800157,0.00462598 0.0208189,0.0233819 0.0187362,0.0592087 -0.00463386,0.0800236z"/>
    <path id="_356628512" class="fil4" d="M4.86582 4.06213c-0.0143858,0.012811 -0.0364449,0.0115315 -0.0492559,-0.00285433 -0.012811,-0.0143858 -0.0115315,-0.036437 0.00285433,-0.049248 0.0143819,-0.0128071 0.0364331,-0.0115315 0.0492441,0.00285433 0.0128071,0.0143819 0.0115394,0.0364409 -0.00284252,0.049248z"/>
    <path id="_356628680" class="fil4" d="M4.99317 3.88455c-0.0233701,0.020811 -0.0592008,0.0187441 -0.0800197,-0.00463386 -0.0208189,-0.023374 -0.0187362,-0.0592008 0.0046378,-0.0800157 0.0233701,-0.020811 0.0591969,-0.018748 0.0800157,0.00462992 0.0208189,0.023378 0.0187362,0.0592047 -0.00463386,0.0800197z"/>
    <path id="_356628272" class="fil4" d="M5.101 3.68099c-0.0143858,0.012811 -0.0364449,0.0115276 -0.0492559,-0.00285433 -0.0128071,-0.0143858 -0.0115315,-0.036437 0.00285827,-0.049248 0.0143819,-0.0128071 0.0364291,-0.0115315 0.0492402,0.00285039 0.012811,0.0143858 0.0115394,0.0364409 -0.00284252,0.049252z"/>
    <path id="_356628440" class="fil4" d="M5.28097 3.52811c-0.0233701,0.020815 -0.0592008,0.018748 -0.0800197,-0.00462992 -0.0208189,-0.023378 -0.0187362,-0.0592008 0.00463386,-0.0800157 0.023374,-0.020815 0.0592008,-0.018748 0.0800157,0.00462598 0.0208228,0.023378 0.0187402,0.0592087 -0.00462992,0.0800197z"/>
    <path id="_356627480" class="fil4" d="M5.48125 3.39557c-0.0143858,0.012815 -0.0364449,0.0115315 -0.049252,-0.00285039 -0.012811,-0.0143858 -0.0115315,-0.036437 0.00285433,-0.049248 0.0143819,-0.012811 0.0364291,-0.0115315 0.0492402,0.00285039 0.012811,0.0143858 0.0115394,0.0364409 -0.00284252,0.049248z"/>
    <path id="_356628056" class="fil4" d="M5.68867 3.28644c-0.023374,0.020815 -0.0592008,0.018748 -0.0800197,-0.00462992 -0.0208189,-0.023378 -0.0187362,-0.0592008 0.00463386,-0.0800157 0.0233701,-0.020815 0.0591969,-0.018748 0.0800157,0.00462598 0.0208189,0.023378 0.0187402,0.0592087 -0.00462992,0.0800197z"/>
    <path id="_356627960" class="fil4" d="M5.86412 3.14784c-0.0143858,0.012811 -0.0364449,0.0115315 -0.049252,-0.00285433 -0.012811,-0.0143858 -0.0115315,-0.036437 0.00285433,-0.049248 0.0143819,-0.0128071 0.0364291,-0.0115315 0.0492402,0.00285433 0.012811,0.0143819 0.0115394,0.0364409 -0.00284252,0.049248z"/>
    <path id="_356627912" class="fil4" d="M5.85062 2.98479c-0.023374,0.020815 -0.0592008,0.018748 -0.0800236,-0.00462992 -0.020815,-0.023378 -0.0187323,-0.0592047 0.0046378,-0.0800157 0.0233701,-0.020815 0.0591969,-0.018748 0.0800157,0.00462598 0.0208189,0.023378 0.0187402,0.0592087 -0.00462992,0.0800197z"/>
    <path id="_356627696" class="fil4" d="M5.62874 2.86592c-0.0143858,0.012815 -0.0364449,0.0115315 -0.0492559,-0.00285039 -0.012811,-0.0143858 -0.0115315,-0.036437 0.00285433,-0.049248 0.0143819,-0.0128071 0.0364331,-0.0115315 0.0492402,0.00285039 0.012811,0.0143858 0.0115433,0.0364409 -0.00283858,0.049248z"/>
    <path id="_356627312" class="fil4" d="M5.45372 2.84054c-0.023374,0.020815 -0.0592008,0.018748 -0.0800236,-0.00462992 -0.020815,-0.023374 -0.0187323,-0.0592008 0.0046378,-0.0800157 0.0233701,-0.020811 0.0591969,-0.018748 0.0800157,0.00462598 0.0208189,0.023378 0.0187402,0.0592087 -0.00462992,0.0800197z"/>
    <path id="_356627624" class="fil4" d="M5.19444 2.82232c-0.0143858,0.012811 -0.0364449,0.0115315 -0.0492559,-0.00285433 -0.0128071,-0.0143819 -0.0115276,-0.0364331 0.00285827,-0.049248 0.0143819,-0.0128071 0.0364291,-0.0115315 0.0492402,0.00285433 0.012811,0.0143819 0.0115394,0.0364409 -0.00284252,0.049248z"/>
    <path id="_356627864" class="fil4" d="M4.98789 2.84951c-0.023374,0.020815 -0.0592008,0.018748 -0.0800236,-0.00462992 -0.020815,-0.023378 -0.0187323,-0.0592008 0.0046378,-0.0800157 0.0233701,-0.020815 0.0591969,-0.018748 0.0800157,0.00462598 0.0208189,0.023378 0.0187402,0.0592087 -0.00462992,0.0800197z"/>
    <path id="_356627840" class="fil4" d="M4.74598 2.85833c-0.0143858,0.012811 -0.0364449,0.0115315 -0.0492559,-0.00285433 -0.0128071,-0.0143819 -0.0115315,-0.0364331 0.00285827,-0.049248 0.0143819,-0.0128071 0.0364291,-0.0115315 0.0492402,0.00285433 0.012811,0.0143858 0.0115394,0.0364409 -0.00284252,0.049248z"/>
    <path id="_356627984" class="fil4" d="M4.55752 2.92433c-0.023374,0.020811 -0.0592008,0.018748 -0.0800236,-0.00463386 -0.020815,-0.023374 -0.0187323,-0.0592008 0.0046378,-0.0800118 0.0233701,-0.020815 0.0591969,-0.018752 0.0800157,0.00462598 0.0208189,0.023378 0.0187402,0.0592047 -0.00462992,0.0800197z"/>
    <path id="_356627648" class="fil4" d="M4.3631 2.98133c-0.0143858,0.012811 -0.0364449,0.0115315 -0.0492559,-0.00285433 -0.012811,-0.0143819 -0.0115315,-0.0364331 0.00285433,-0.049248 0.0143819,-0.0128071 0.0364331,-0.0115315 0.0492402,0.00285433 0.012811,0.0143858 0.0115433,0.0364409 -0.00283858,0.049248z"/>
    <path id="_356626952" class="fil4" d="M4.17463 3.04733c-0.0233701,0.020811 -0.0592008,0.018748 -0.0800197,-0.00463386 -0.0208189,-0.023374 -0.0187362,-0.0592008 0.0046378,-0.0800118 0.0233701,-0.020815 0.0591969,-0.018752 0.0800157,0.00462598 0.0208189,0.023378 0.0187362,0.0592047 -0.00463386,0.0800197z"/>
    <path id="_356626592" class="fil4" d="M3.97394 3.12166c-0.0143858,0.012815 -0.0364449,0.0115315 -0.0492559,-0.00285039 -0.012811,-0.0143858 -0.0115315,-0.036437 0.00285433,-0.049248 0.0143819,-0.012811 0.0364331,-0.0115315 0.0492441,0.00285039 0.0128071,0.0143858 0.0115394,0.0364409 -0.00284252,0.049248z"/>
    <path id="_356626904" class="fil4" d="M3.81593 3.21914c-0.0233701,0.020811 -0.0591969,0.0187441 -0.0800197,-0.00463386 -0.0208189,-0.023374 -0.0187323,-0.0592008 0.0046378,-0.0800157 0.0233701,-0.020811 0.0591969,-0.018748 0.0800157,0.00462992 0.0208189,0.023378 0.0187402,0.0592047 -0.00463386,0.0800197z"/>
    <path id="_356626832" class="fil4" d="M3.60811 3.30106c-0.0143858,0.012811 -0.0364449,0.0115315 -0.0492559,-0.00285433 -0.0128071,-0.0143819 -0.0115315,-0.0364331 0.00285827,-0.049248 0.0143819,-0.0128071 0.0364291,-0.0115315 0.0492402,0.00285433 0.012811,0.0143858 0.0115394,0.0364409 -0.00284252,0.049248z"/>
    <path id="_356627216" class="fil4" d="M3.4535 3.41317c-0.0233701,0.020815 -0.0592008,0.018748 -0.0800197,-0.00462992 -0.0208189,-0.023378 -0.0187362,-0.0592008 0.0046378,-0.0800157 0.0233701,-0.020815 0.0591969,-0.018748 0.0800157,0.00462598 0.0208189,0.023378 0.0187362,0.0592087 -0.00463386,0.0800197z"/>
   </g>
   <path id="_356627072" class="fil0" d="M3.72812 4.08726c-0.000362205,0.00129134 -0.000637795,0.00243307 -0.000850394,0.00346063 0.00268898,-0.0100472 0.00402362,-0.0150236 0.000850394,-0.00366929l0 0.000208661z"/>
   <path id="_356627024" class="fil0" d="M3.21233 3.30035c-0.000374016,0.000933071 -0.000692913,0.00205906 -0.000968504,0.00335827l0.000653543 0.000633858c0.000169291,-0.00238189 0.00282677,-0.0102756 0.000314961,-0.00399213z"/>
   <path id="_356627048" class="fil1" d="M3.13503 2.94917c0.00524409,0.00196063 0.00881102,0.00332677 0.0108268,0.00413386 0.00598819,0.00240551 0.0126181,0.00537008 0.0193031,0.00835433l0.00485039 0.00216142 0.000834646 0.000413386c0.00583071,0.00272047 0.0115709,0.00556693 0.017185,0.00851181 0.00711811,0.00373228 0.0125354,0.00670866 0.0162874,0.00893701 0.130685,0.0776575 0.113547,0.172776 0.0700079,0.246051 -0.0203307,0.0342165 -0.0464409,0.0611575 -0.0618543,0.077063 -0.000389764,0.000401575 -0.0005,0.000149606 -0.000456693,-0.000444882l-0.000653543 -0.000633858c-0.00256299,0.0122283 -0.000850394,0.0402402 0.00126772,0.0749173 0.000661417,0.0108425 0.0013622,0.0223189 0.00216535,0.0394488l-7.87402e-006 0 1.1811e-005 0.000240157 0.000425197 0.00997244 0 0.00187402c0.000338583,0.0489252 -0.0182953,0.124634 -0.063811,0.211335l0 0.000208661c-0.0343858,0.0654961 -0.084622,0.138772 -0.154295,0.213154l-0.00291339 0.00270866c-0.00460236,0.00422047 -0.00854331,0.00867323 -0.0115354,0.0135276 -0.00250394,0.00405906 -0.00442913,0.00875984 -0.00559843,0.0143307 -0.00676772,0.0322283 -0.00535827,0.0722717 -0.00381496,0.116134 0.00294094,0.0835472 0.00630709,0.179161 -0.0369252,0.286913 -0.0386654,0.096378 -0.20965,0.388531 -0.363787,0.596189 -0.115024,0.154957 -0.229783,0.265551 -0.301669,0.23672 -0.0719291,-0.0288622 -0.0772205,-0.186008 -0.0517008,-0.375524 0.0344606,-0.255949 0.116528,-0.586146 0.155295,-0.682787 0.0432638,-0.107835 0.111776,-0.174598 0.171646,-0.232941 0.031378,-0.0305827 0.0600394,-0.0585079 0.0774213,-0.0864803 0.00273228,-0.0043937 0.00450394,-0.00874409 0.00551969,-0.0130591 0.00122441,-0.00520472 0.00161024,-0.0105315 0.00140945,-0.0159646l0.00159449 -0.00921654c0.00136614,-0.105028 0.0167047,-0.194575 0.0381614,-0.266252 0.0232559,-0.0776772 0.0548543,-0.136811 0.0848268,-0.173827l-0.000901575 -0.00383465 0.0221496 -0.0210748c0.0104606,-0.00995276 0.0188228,-0.0177126 0.0267795,-0.0251024 0.0259646,-0.0241063 0.0469488,-0.0435866 0.0534291,-0.0542598l-0.000952756 3.93701e-006c-0.000401575,0.000484252 -0.000677165,0.000602362 -0.000681102,3.93701e-006 -0.000173228,-0.0267323 -0.0005,-0.0755906 0.0152323,-0.121972 0.0275079,-0.0811181 0.0930512,-0.148594 0.250669,-0.0951378l0.00352362 0.00120472 0.000417323 0.000208661c0.0023189,0.000814961 0.00577559,0.00208661 0.0103189,0.00379134z"/>
   <path id="_356626184" class="fil5" d="M3.07763 3.07012c-0.00199606,-0.000681102 -0.00486614,-0.00160236 -0.00832677,-0.00262992l-0.0988307 0.162772c-0.0185236,0.0305118 -0.0504567,0.0584252 -0.0766732,0.0827677 -0.00804331,0.0074685 -0.0160709,0.0149488 -0.0240315,0.0225039l-0.0110984 0.0137087c-0.0274961,0.0339567 -0.0483465,0.0868268 -0.0607205,0.128161 -0.00899213,0.0300433 -0.012374,0.0660236 -0.0156063,0.097189 -0.00516535,0.0498386 -0.00976378,0.0992087 -0.0180709,0.148657 0.000476378,0.0122323 -5.90551e-005,0.015063 -0.00542913,0.0378898 -0.00648819,0.0275551 -0.00651969,0.0278858 -0.0220709,0.0529055 -0.026185,0.042122 -0.0622992,0.0771732 -0.0975984,0.111575 -0.0592559,0.057752 -0.109465,0.108591 -0.140961,0.187098 -0.0210709,0.0525276 -0.0370354,0.11739 -0.0511102,0.17228 -0.0237087,0.0924606 -0.0445394,0.186059 -0.0626457,0.279772 -0.0127402,0.0659449 -0.0241811,0.132319 -0.0331457,0.198886 -0.00459843,0.0341693 -0.0144409,0.123571 -0.0125039,0.189799 0.048689,-0.0469646 0.105654,-0.119933 0.126677,-0.148256 0.0393937,-0.0530709 0.0769567,-0.107661 0.113315,-0.162854 0.0526457,-0.0799173 0.103248,-0.161705 0.150858,-0.244728 0.0278622,-0.0485866 0.0621063,-0.106882 0.0829291,-0.158783 0.0314764,-0.0784567 0.0303307,-0.149941 0.0274213,-0.232579 -0.00173622,-0.0492953 -0.00361811,-0.0996496 0.00657874,-0.148217 0.00422835,-0.0201575 0.0117795,-0.039378 0.0225945,-0.0569173 0.0175236,-0.0284213 0.0155236,-0.0237953 0.0342362,-0.0411929l0.00291339 -0.00270866c0.0508031,-0.0472362 0.0865394,-0.10228 0.118961,-0.162319l0.00807087 -0.0153701c0.0199803,-0.0380669 0.0481575,-0.104126 0.0485276,-0.14848l-0.000374016 -0.00879528 -3.14961e-005 -0.00198819c-0.000185039,-0.011248 -0.00125197,-0.0222992 -0.00193701,-0.0335118 -0.0021378,-0.0350039 -0.00585827,-0.0761417 0.0013189,-0.11039l0.0394961 -0.188437c-0.0023189,-0.00112992 -0.00464961,-0.00224016 -0.00696063,-0.00336614l-0.00251181 -0.00111811c-0.00484646,-0.00216142 -0.00972047,-0.00440945 -0.0146457,-0.00638583 -0.00264173,-0.00105118 -0.00531496,-0.0020315 -0.00797638,-0.0030315 -0.00364961,-0.00130709 -0.00715354,-0.00255512 -0.0106378,-0.00390551z"/>
   <path id="_356625824" class="fil6" d="M2.88532 2.38055c0,0 0.00209449,-0.00361417 0.00600394,-0.0103858 0.00299213,-0.00573228 0.0117677,-0.019185 0.0227047,-0.0325472 0.0109764,-0.0129724 0.0255157,-0.0278465 0.0448307,-0.0414921 0.0193268,-0.0134764 0.0431024,-0.0260315 0.0708583,-0.0340984 0.0276732,-0.0081063 0.0593031,-0.0116417 0.0920827,-0.00788976 0.0323937,0.0034685 0.0671535,0.0152362 0.0959764,0.0330157 0.0320315,0.0192047 0.0576772,0.0457402 0.0772362,0.0776929 0.0195906,0.0317047 0.030811,0.068811 0.0330157,0.106295 0.00265354,0.0375315 -0.00533465,0.0753701 -0.0205709,0.108654 -0.00377559,0.00880709 -0.00751575,0.0155669 -0.0112244,0.0229016 -0.0037126,0.00724803 -0.00740945,0.0144528 -0.0110748,0.021626 -0.00735039,0.0143346 -0.0146142,0.0284843 -0.021752,0.0424094 -0.0285551,0.0556969 -0.0551929,0.107685 -0.0780236,0.152252 -0.0457008,0.0891181 -0.0761417,0.148535 -0.0761417,0.148535 -0.00431102,0.00836614 -0.0145787,0.0116732 -0.0229449,0.00738976 -0.00820079,-0.00420472 -0.0115276,-0.0141732 -0.00762598,-0.0224409 0,0 0.0285197,-0.0603661 0.0713071,-0.150917 0.0213858,-0.0452795 0.0463386,-0.0980984 0.0730866,-0.154685 0.00667323,-0.0141496 0.0134882,-0.0285236 0.0203661,-0.0430906 0.00343701,-0.0072874 0.0068937,-0.0146063 0.010374,-0.0219685 0.00341339,-0.00730709 0.00729134,-0.0150433 0.0096811,-0.0214685 0.0111614,-0.0267362 0.0164567,-0.0564094 0.0133661,-0.0855 -0.00267717,-0.0290236 -0.0122441,-0.0574252 -0.0280945,-0.0811339 -0.0152992,-0.0236614 -0.0368898,-0.0439567 -0.0590315,-0.0562008 -0.0249843,-0.0142323 -0.0492559,-0.021 -0.0738898,-0.0231142 -0.0243307,-0.00198031 -0.0475394,0.00140551 -0.0676417,0.00802362 -0.0201654,0.00659843 -0.0371378,0.0163504 -0.0508268,0.0265157 -0.0136417,0.0103228 -0.0236811,0.0213976 -0.0312402,0.0309134 -0.00704331,0.00959055 -0.0111417,0.0152756 -0.0152638,0.0234764 -0.00369291,0.00689764 -0.00566142,0.0105787 -0.00566142,0.0105787 -0.00893701,0.0166811 -0.0297126,0.0229606 -0.0463976,0.0140197 -0.016685,-0.00893701 -0.0229606,-0.0297126 -0.0140276,-0.0463898 0.00015748,-0.000287402 0.000389764,-0.000700787 0.000543307,-0.000976378z"/>
   <path id="_356625800" class="fil6" d="M3.78494 2.82352c0,0 0.00159055,-0.0038622 0.0045748,-0.0110945 0.00272047,-0.0058622 0.0080315,-0.0210236 0.0119528,-0.0378386 0.00357874,-0.0166142 0.00652362,-0.0372008 0.00554724,-0.0608346 -0.00109843,-0.0235315 -0.00562992,-0.0500276 -0.0161732,-0.0769488 -0.0104488,-0.026878 -0.0269409,-0.0541102 -0.0498819,-0.0777913 -0.0225197,-0.0235748 -0.0530315,-0.0439449 -0.0846929,-0.0559488 -0.0347559,-0.0136772 -0.0714173,-0.0178228 -0.108685,-0.0138504 -0.0370709,0.00380315 -0.073311,0.0175433 -0.104378,0.0386417 -0.0313583,0.0207835 -0.0564961,0.0501811 -0.0735827,0.0825512 -0.00467717,0.0083622 -0.00775591,0.0154488 -0.0112953,0.0228661 -0.00348031,0.00736614 -0.00693701,0.014685 -0.0103898,0.0219646 -0.00687795,0.0145669 -0.0136772,0.0289449 -0.0203504,0.0430984 -0.026748,0.0565866 -0.0517126,0.109398 -0.0731024,0.154677 -0.0427874,0.0905472 -0.0713071,0.150913 -0.0713071,0.150913 -0.00401969,0.00850787 -0.000377953,0.0186693 0.0081378,0.0226929 0.00833465,0.00393701 0.0182638,0.0005 0.022437,-0.0076378 0,0 0.0304567,-0.0594094 0.0761417,-0.148535 0.0228465,-0.0445591 0.0494882,-0.0965472 0.0780236,-0.152252 0.00715354,-0.0139173 0.0144016,-0.0280748 0.021752,-0.0424094 0.00366535,-0.00717323 0.0073622,-0.014378 0.0110787,-0.021622 0.00370866,-0.00715748 0.00748425,-0.0149449 0.0111102,-0.0207598 0.0143898,-0.0251535 0.0346732,-0.0474449 0.0596339,-0.0627205 0.0246378,-0.0155787 0.0529685,-0.0253189 0.0814213,-0.0272126 0.0280984,-0.00229134 0.0573307,0.00243701 0.0805551,0.0125315 0.0264961,0.0111142 0.0466693,0.0262323 0.063374,0.0444764 0.0163976,0.0180709 0.0278701,0.0385354 0.0348819,0.0585039 0.00706299,0.0200039 0.0096811,0.0394016 0.00996457,0.0564449 0.000141732,0.0171142 -0.00251969,0.0318189 -0.00544882,0.0436142 -0.00331102,0.0114291 -0.00532283,0.0181457 -0.00929528,0.0264134 -0.00321654,0.00713386 -0.00494488,0.0109331 -0.00494488,0.0109331 -0.00777165,0.0172559 -8.66142e-005,0.0375512 0.017185,0.0453268 0.0172441,0.00777165 0.0375394,7.87402e-005 0.0453228,-0.0171614 0.000114173,-0.000311024 0.000311024,-0.000744094 0.000433071,-0.0010315z"/>
  </g>
  <rect class="fil7" width="6.82666" height="6.82666"/>
 </g>
</svg>
