<?xml version="1.0" encoding="UTF-8"?>
<!DOCTYPE svg PUBLIC "-//W3C//DTD SVG 1.1//EN" "http://www.w3.org/Graphics/SVG/1.1/DTD/svg11.dtd">
<!-- Creator: CorelDRAW -->
<svg xmlns="http://www.w3.org/2000/svg" xml:space="preserve" width="6.82666in" height="6.82666in" style="shape-rendering:geometricPrecision; text-rendering:geometricPrecision; image-rendering:optimizeQuality; fill-rule:evenodd; clip-rule:evenodd"
viewBox="0 0 6.82666 6.82666"
 xmlns:xlink="http://www.w3.org/1999/xlink">
 <defs>
  <style type="text/css">
   <![CDATA[
    .fil4 {fill:none}
    .fil3 {fill:#1A161A;fill-rule:nonzero}
    .fil2 {fill:#212121;fill-rule:nonzero}
    .fil1 {fill:#2C2C2C;fill-rule:nonzero}
    .fil0 {fill:#3D3D3F;fill-rule:nonzero}
   ]]>
  </style>
 </defs>
 <g id="Layer_x0020_1">
  <metadata id="CorelCorpID_0Corel-Layer"/>
  <g id="_212368368">
   <path id="_210222720" class="fil0" d="M3.46744 2.19358l0.358512 -0.448161 -0.00297244 0.0153307 -7.87402e-006 -4.72441e-005c-0.011622,-0.0360039 -0.0202087,-0.0713031 -0.0272677,-0.107626 -0.00718504,-0.0361575 -0.0120709,-0.0727244 -0.0161299,-0.1095l-0.00406693 -0.055374 -0.00132677 -0.0556693c-0.000677165,-0.0186063 0.00101181,-0.0371654 0.00142126,-0.0558307 0.000295276,-0.0186732 0.00208661,-0.0372717 0.00419291,-0.0558819 0.00222835,-0.0185787 0.00306693,-0.0374213 0.00688583,-0.0558307l0.0097874 -0.0556614c0.00416142,-0.018378 0.00920079,-0.0366024 0.013815,-0.0549921 0.00420079,-0.0185315 0.0100787,-0.0365669 0.016622,-0.0544213 0.00643307,-0.0178819 0.0121496,-0.0361457 0.0192874,-0.0538307l0.0236378 -0.0522874c0.00734252,-0.0177677 0.016815,-0.0344331 0.0265512,-0.0509921l0.0287638 -0.0501063c0.0163307,-0.0284213 0.052622,-0.0382126 0.0810433,-0.0218937 0.0284094,0.0163307 0.0382244,0.0526024 0.0218937,0.0810315 -0.000933071,0.0016378 -0.00195276,0.0032126 -0.00301969,0.00472835l-0.00315354 0.00443701 -0.0292795 0.041248c-0.0100118,0.0136496 -0.0198819,0.0274764 -0.0277638,0.0424921l-0.0255039 0.0441496c-0.00788976,0.0150827 -0.0144646,0.0308228 -0.0218268,0.0462677 -0.0075,0.0153858 -0.0144252,0.0310787 -0.0197795,0.0473898l-0.0174646 0.0485984 -0.0139016 0.0499528c-0.00525984,0.0165787 -0.00761417,0.033815 -0.0113858,0.0507913 -0.00365748,0.0170276 -0.00705906,0.0341378 -0.00899213,0.0515079 -0.00207087,0.017311 -0.00543307,0.0345748 -0.00648031,0.0520669l-0.00390551 0.0525354 -0.00129528 0.052811c0.000437008,0.0352638 0.0016378,0.0706299 0.00513386,0.105862 0.00324803,0.0350906 0.00841339,0.0707717 0.0157008,0.104374l1.9685e-005 5.90551e-005 0.00240945 0.00859449 -0.00538976 0.00672441 -0.358508 0.448161c-0.00581102,0.00724016 -0.016378,0.00842126 -0.023626,0.00261811 -0.00724016,-0.00580315 -0.00842126,-0.016378 -0.00262992,-0.023626z"/>
   <path id="_212366760" class="fil0" d="M3.33296 2.21459l-0.358492 -0.448161 -0.0053937 -0.00672441 0.00240945 -0.00859449 1.1811e-005 -5.90551e-005c0.0072874,-0.0336024 0.0124606,-0.0692835 0.0157087,-0.104374 0.00349606,-0.0352323 0.00469685,-0.0705984 0.0051378,-0.105862l-0.00129528 -0.052811 -0.00390945 -0.0525354c-0.00104724,-0.0174921 -0.00440945,-0.0347559 -0.00647638,-0.0520669 -0.00194488,-0.0173701 -0.00533465,-0.0344803 -0.00899606,-0.0515079 -0.00378346,-0.0169764 -0.00612598,-0.0342126 -0.0113937,-0.0507913l-0.0139016 -0.0499528 -0.0174646 -0.0485984c-0.00534252,-0.016311 -0.0122717,-0.0320039 -0.0197677,-0.0473898 -0.00737402,-0.0154449 -0.0139409,-0.031185 -0.0218307,-0.0462677l-0.0255039 -0.0441496c-0.00787795,-0.0150157 -0.0177598,-0.0288425 -0.0277717,-0.0424921l-0.0292795 -0.041248 -0.00309449 -0.00437402c-0.0189803,-0.0267244 -0.0126929,-0.0637756 0.0140315,-0.0827441 0.0267362,-0.0189803 0.0637874,-0.0126929 0.0827559,0.0140236 0.00108661,0.00154331 0.0021378,0.00320079 0.00307087,0.00479134l0.0287717 0.0501063c0.00973622,0.0165591 0.0191969,0.0332244 0.0265551,0.0509921l0.0236378 0.0522874c0.00713386,0.017685 0.0128425,0.0359488 0.0192717,0.0538307 0.00655512,0.0178543 0.012437,0.0358898 0.0166378,0.0544213 0.00461024,0.0183898 0.00964173,0.0366142 0.013815,0.0549921l0.00978346 0.0556614c0.00382283,0.0184094 0.00466142,0.037252 0.00688976,0.0558307 0.0021063,0.0186102 0.00388583,0.0372087 0.0041811,0.0558819 0.000409449,0.0186654 0.0021063,0.0372244 0.00142913,0.0558307l-0.00132283 0.0556693 -0.00407874 0.055374c-0.00404724,0.0367756 -0.00893701,0.0733425 -0.0161299,0.1095 -0.00705906,0.0363228 -0.0156457,0.071622 -0.0272598,0.107626l-1.9685e-005 4.72441e-005 -0.00296063 -0.0153307 0.358512 0.448161c0.00579528,0.00724803 0.00461417,0.0178228 -0.00262992,0.023626 -0.00724803,0.00580315 -0.0178228,0.00462205 -0.0236378,-0.00261811z"/>
   <path id="_212373624" class="fil1" d="M3.51758 4.00874c0,0.056063 -0.0454291,0.1015 -0.101496,0.1015 -0.0560512,0 -0.10148,-0.045437 -0.10148,-0.1015l0 -0.328957c0,-0.0560512 0.0454291,-0.101488 0.10148,-0.101488 0.0560669,0 0.101496,0.045437 0.101496,0.101488l0 0.328957z"/>
   <path id="_212369472" class="fil1" d="M3.90956 2.50316c0,0.270594 -0.219362,0.111969 -0.489976,0.111969 -0.270594,0 -0.489957,0.158626 -0.489957,-0.111969 0,-0.270622 0.219362,-0.573972 0.489957,-0.573972 0.270614,0 0.489976,0.30335 0.489976,0.573972z"/>
   <path id="_212369376" class="fil0" d="M3.47818 3.52744l0.767343 -0.35215 0.00211811 -0.00096063c0.00787795,-0.00361417 0.0172165,-0.000173228 0.0208465,0.00772441l0.000543307 0.00138189 7.87402e-006 1.9685e-005c0.0271339,0.0390709 0.0525079,0.0790787 0.0764882,0.119496 0.0242362,0.0403189 0.047752,0.0808504 0.0703228,0.121819 0.0459528,0.0814724 0.0883386,0.164543 0.133835,0.245811 0.0227126,0.040626 0.0451496,0.081378 0.0688268,0.121335 0.0235512,0.0400157 0.0470394,0.0800433 0.0720866,0.11902 0.0492874,0.0784134 0.101354,0.154823 0.162291,0.224433l-0.0111063 -0.00420472 0.184862 0c0.00929134,0 0.0168071,0.00751969 0.0168071,0.0168071 0,0.00929134 -0.00751575,0.0168071 -0.0168071,0.0168071l-0.184862 0 -0.000409449 0c-0.00411811,0 -0.00790945,-0.00161024 -0.0107205,-0.00420079 -0.0796614,-0.0563268 -0.14465,-0.12928 -0.204701,-0.203957 -0.0590512,-0.0757717 -0.111996,-0.155547 -0.161008,-0.237343 -0.0482087,-0.0822047 -0.0944764,-0.165476 -0.132917,-0.252492 -0.0196772,-0.0432441 -0.037378,-0.0874449 -0.0533346,-0.132327 -0.0161614,-0.0448189 -0.0301457,-0.0904291 -0.0405512,-0.13776l0 -1.9685e-005 0.0234843 0.00812598 -0.711531 0.454524c-0.0350394,0.0223819 -0.0815827,0.0121102 -0.103972,-0.0229331 -0.0223819,-0.0350315 -0.0121181,-0.0815827 0.0229134,-0.103965 0.00285827,-0.0018189 0.00615354,-0.00359055 0.00914567,-0.00499213z"/>
   <path id="_212369208" class="fil0" d="M3.61075 3.07292c0.0210276,-0.0092874 0.0425591,-0.0180827 0.0633701,-0.0280984 0.0210276,-0.0094685 0.0419764,-0.0189488 0.0625,-0.0291417 0.0207717,-0.00963386 0.0409134,-0.0204016 0.0610827,-0.0308425 0.020189,-0.0105 0.0396339,-0.0220354 0.0589921,-0.0335748 0.00998819,-0.00542913 0.018874,-0.0121969 0.0283268,-0.0182835 0.00935827,-0.00624016 0.0188465,-0.0122441 0.0275276,-0.0191693 0.0183307,-0.0129291 0.0349567,-0.0274409 0.0517598,-0.0419803 0.00840551,-0.00725984 0.015311,-0.0157087 0.023374,-0.0233425 0.00830709,-0.00750787 0.014937,-0.0161575 0.0217795,-0.0247402 0.00660236,-0.00870079 0.0150157,-0.0165984 0.0200354,-0.0263189 0.00560236,-0.00942913 0.0117008,-0.0187205 0.0180079,-0.0281417l1.9685e-005 -3.14961e-005 -0.00112598 0.00456693c-6.69291e-005,-0.0290984 0.00142126,-0.0574252 0.00366929,-0.0860354 0.00245669,-0.0285079 0.00541339,-0.0569961 0.00951969,-0.0853661 0.00404724,-0.0283661 0.009,-0.0566732 0.0144055,-0.0849409 0.00620079,-0.0281063 0.0124213,-0.0562677 0.0201024,-0.0842244 0.0033622,-0.0140787 0.00769685,-0.0279331 0.0123071,-0.041748 0.00464173,-0.0137953 0.0085,-0.0278031 0.0138346,-0.0414724l0.0155394 -0.0411811c0.00540551,-0.0137008 0.0121969,-0.0269606 0.0183031,-0.0404331 0.0058622,-0.0135591 0.0133307,-0.026622 0.0206929,-0.0397323 0.00738583,-0.0130984 0.0142165,-0.0263898 0.0233543,-0.0388622 0.00925984,-0.0122441 0.0157205,-0.0263228 0.0279331,-0.0365866 0.0126535,-0.00981102 0.0279646,-0.0174449 0.0492205,-0.0170157l2.75591e-005 -3.93701e-005 -0.00293307 0.00397638 0.179252 -0.336106c0.00438189,-0.00819291 0.0145591,-0.0112992 0.0227441,-0.00693701 0.00819291,0.0043937 0.0112874,0.0145591 0.0069252,0.022752l-0.17926 0.336114c-0.000543307,0.00101181 -0.00118504,0.00193701 -0.00190551,0.00277165l-0.00105118 0.00119291 -3.54331e-005 3.93701e-005c0.00267717,0.021626 -0.000574803,0.035185 -0.00648031,0.0465591 -0.0061063,0.0111496 -0.0140827,0.0214685 -0.0213976,0.0319843 -0.00785039,0.0101102 -0.0140354,0.021878 -0.020685,0.0332047 -0.00662992,0.0113386 -0.0134055,0.0225984 -0.0189016,0.0348701 -0.0119961,0.0237638 -0.0231929,0.0482874 -0.0337087,0.0732874 -0.00554724,0.0123189 -0.00981496,0.0253701 -0.0148071,0.0380157 -0.00499213,0.012689 -0.00951969,0.0255709 -0.0139882,0.0385748 -0.0184528,0.0516299 -0.0340315,0.104787 -0.0486378,0.158406 -0.0147205,0.0535 -0.0279528,0.108102 -0.0405866,0.162276l-0.000980315 0.00426772 -0.000133858 0.000314961 -1.9685e-005 2.75591e-005c-0.00403937,0.0117126 -0.0082874,0.0235236 -0.0130354,0.0352244 -0.00395276,0.0121969 -0.0112717,0.0223031 -0.017063,0.0335472 -0.00587795,0.0112441 -0.0127559,0.0218071 -0.0206457,0.0314606 -0.0076811,0.00981496 -0.0149409,0.0203307 -0.0235709,0.0292795l-0.0260394 0.026811c-0.00896457,0.00862992 -0.0187598,0.0161181 -0.0281457,0.0242283 -0.00934646,0.00822047 -0.019189,0.0155866 -0.0293898,0.022437 -0.010185,0.00687795 -0.0199803,0.0144921 -0.0305866,0.0205394 -0.0205787,0.0133307 -0.0421575,0.0247835 -0.0639016,0.0356339 -0.0107165,0.00581102 -0.0220945,0.0100906 -0.0331378,0.0151024 -0.0110787,0.00495276 -0.0223228,0.00942126 -0.0336969,0.0135551 -0.0453701,0.0169134 -0.0918858,0.0294882 -0.140315,0.0358543 -0.00926772,0.00122835 -0.0177756,-0.00529921 -0.0189882,-0.0145669 -0.001,-0.00761417 0.00323228,-0.0147323 0.00992913,-0.0176929l0.00061811 -0.000267717z"/>
   <path id="_212369184" class="fil0" d="M3.55664 4.11691c0.0203504,0.00701181 0.0401575,0.015311 0.0599016,0.0238543 0.0200551,0.00809843 0.0389094,0.0178937 0.0582795,0.0269567 0.0382441,0.0188937 0.0762677,0.0382992 0.112681,0.0601181 0.0370906,0.020874 0.073563,0.0427598 0.108795,0.0664252 0.0353504,0.0235433 0.0710984,0.0465157 0.10487,0.072315 0.034122,0.0253425 0.0679803,0.0510118 0.100945,0.0778228 0.0327953,0.0270866 0.0641417,0.0560315 0.0951929,0.0851772 0.0154921,0.0146417 0.0307047,0.0295433 0.0457795,0.0446457l0.0429134 0.0479055c0.0277795,0.0327913 0.0554016,0.0655866 0.0797244,0.101591l0.00452756 0.00669685c0.000992126,0.00148031 0.0012874,0.00325197 0.000952756,0.0048622l0 2.75591e-005c0.00932677,0.079563 0.0200748,0.159453 0.032185,0.238724 0.0114882,0.0794016 0.0251614,0.158441 0.0416063,0.236626 0.0036378,0.0196654 0.00771654,0.0391969 0.0122126,0.058622 0.00448031,0.019437 0.00833858,0.0390276 0.0132913,0.0582992 0.00981496,0.0385315 0.0190827,0.0772047 0.0306614,0.115008 0.0105157,0.0382087 0.0243307,0.0751654 0.0371378,0.112094 0.00623228,0.0184449 0.00887008,0.0386339 0.0133583,0.058126 0.00469685,0.0193031 0.0105,0.0385039 0.0185591,0.056622l-0.00195276 -0.00279134c0.0377953,0.0460197 0.0756299,0.0920748 0.115083,0.136685 0.0392165,0.0447992 0.0787835,0.0892717 0.120669,0.131783 0.00651575,0.00663386 0.00644882,0.0172638 -0.000181102,0.0238031 -0.00661417,0.00652362 -0.0172756,0.00645669 -0.023811,-0.000173228 -0.000437008,-0.000456693 -0.000913386,-0.00101969 -0.00131496,-0.00150394 -0.0365472,-0.0471339 -0.0754094,-0.0922677 -0.114598,-0.137102 -0.0389685,-0.0450079 -0.0795827,-0.088626 -0.120189,-0.132217 -0.000704724,-0.000759843 -0.00129528,-0.00157874 -0.00178346,-0.00242913l-0.000181102 -0.000362205c-0.00987795,-0.0180551 -0.022,-0.0349843 -0.0352244,-0.0518307 -0.0125472,-0.0171024 -0.0235984,-0.0349567 -0.0328858,-0.0537244 -0.00940551,-0.0188071 -0.0142913,-0.0389016 -0.0212402,-0.0583937 -0.00667717,-0.0195984 -0.0130315,-0.0392638 -0.0182165,-0.0590827 -0.0115827,-0.0395197 -0.0214449,-0.0793071 -0.030248,-0.119283 -0.00461024,-0.0199528 -0.00809055,-0.0400472 -0.0121772,-0.060063 -0.00411417,-0.0200276 -0.00779528,-0.0400827 -0.0110236,-0.0602047 -0.0134449,-0.0804528 -0.0229803,-0.161228 -0.0308228,-0.242106 -0.00426772,-0.0403701 -0.00624016,-0.0809764 -0.00860236,-0.121476 -0.00225591,-0.0406063 -0.00391732,-0.0809764 -0.00388583,-0.121878l0 -2.75591e-005 0.00547638 0.0115472c-0.0391378,-0.0191969 -0.075,-0.0416457 -0.110673,-0.0640354l-0.10489 -0.0693228c-0.0346102,-0.023437 -0.0681969,-0.0479803 -0.101677,-0.0726969 -0.0340984,-0.0239882 -0.0672835,-0.0491024 -0.10022,-0.0746102l-0.0990118 -0.076374 -0.0976181 -0.0787441c-0.0162913,-0.0131299 -0.0325,-0.0264567 -0.0482677,-0.040437 -0.0159685,-0.0136614 -0.0324134,-0.0266575 -0.0480866,-0.0408346 -0.0316575,-0.0281929 -0.0630827,-0.0556496 -0.0938071,-0.0861102 -0.00676378,-0.00671654 -0.00679528,-0.0176142 -9.44882e-005,-0.0243701 0.00479921,-0.00485827 0.0118228,-0.00622047 0.0178819,-0.00415354z"/>
   <path id="_212369064" class="fil0" d="M3.27658 3.65933l-0.711531 -0.454524 0.0234843 -0.00812598 0 1.9685e-005c-0.0104016,0.0473307 -0.0243898,0.0929409 -0.0405591,0.13776 -0.0159488,0.0448819 -0.0336614,0.0890827 -0.0533346,0.132327 -0.0384331,0.0870157 -0.0847008,0.170287 -0.132917,0.252492 -0.0490039,0.0817953 -0.101949,0.161571 -0.161,0.237343 -0.0600512,0.0746772 -0.125039,0.14763 -0.204701,0.203957 -0.00303937,0.00280315 -0.00685827,0.00420079 -0.010689,0.00420079l-0.000437008 0 -0.184866 0c-0.0092874,0 -0.0168071,-0.00751575 -0.0168071,-0.0168071 0,-0.0092874 0.00751969,-0.0168071 0.0168071,-0.0168071l0.184866 0 -0.0111181 0.00420472c0.060937,-0.0696102 0.113016,-0.14602 0.162299,-0.224433 0.0250512,-0.0389764 0.0485276,-0.0790039 0.0720787,-0.11902 0.023685,-0.0399567 0.046122,-0.0807087 0.0688268,-0.121335 0.0454961,-0.0812677 0.0878937,-0.164339 0.133843,-0.245811 0.0225709,-0.0409685 0.0460866,-0.0815 0.0703228,-0.121819 0.0239843,-0.0404173 0.0493543,-0.0804252 0.0764803,-0.119496l1.9685e-005 -1.9685e-005c0.00285827,-0.00820079 0.0118307,-0.0125197 0.0200157,-0.00964961l0.00135433 0.000543307 0.00213386 0.00096063 0.767343 0.35215c0.0377953,0.0173504 0.054374,0.0620354 0.0370236,0.0998307 -0.0173307,0.0377953 -0.0620315,0.054374 -0.099811,0.0370354 -0.00306693,-0.00142126 -0.00635433,-0.00324016 -0.00912598,-0.00497638z"/>
   <path id="_212368992" class="fil0" d="M3.20748 3.10545c-0.0484291,-0.00636614 -0.0949449,-0.0189409 -0.140323,-0.0358543 -0.011378,-0.00413386 -0.0226102,-0.00860236 -0.033689,-0.0135551 -0.0110433,-0.00501181 -0.0224173,-0.00929134 -0.0331378,-0.0151024 -0.0217402,-0.0108504 -0.0433307,-0.0223031 -0.0639094,-0.0356339 -0.0106063,-0.00604724 -0.0204016,-0.0136614 -0.0305748,-0.0205394 -0.0102047,-0.00685039 -0.0200551,-0.0142165 -0.0293937,-0.022437 -0.00938583,-0.00811024 -0.0191772,-0.0155984 -0.0281457,-0.0242283l-0.0260472 -0.026811c-0.00862992,-0.00894882 -0.0158819,-0.0194646 -0.023563,-0.0292795 -0.00789764,-0.00965354 -0.0147677,-0.0202165 -0.0206457,-0.0314606 -0.00579134,-0.0112441 -0.0131181,-0.0213504 -0.0170709,-0.0335472 -0.00474803,-0.0117008 -0.00899606,-0.0235118 -0.0130354,-0.0352244l-7.87402e-006 -2.75591e-005 -0.000133858 -0.000314961 -0.000984252 -0.00426772c-0.0126417,-0.0541732 -0.0258661,-0.108776 -0.0405866,-0.162276 -0.0146063,-0.0536181 -0.0301811,-0.106776 -0.0486457,-0.158406 -0.00446063,-0.0130039 -0.00899606,-0.0258858 -0.0139882,-0.0385748 -0.00498425,-0.0126457 -0.00925197,-0.0256969 -0.0147953,-0.0380157 -0.0105197,-0.025 -0.0217126,-0.0495236 -0.0337087,-0.0732874 -0.0055,-0.0122717 -0.0122835,-0.0235315 -0.0189134,-0.0348701 -0.00664173,-0.0113268 -0.0128228,-0.0230945 -0.0206732,-0.0332047 -0.0073189,-0.0105157 -0.0152953,-0.0208346 -0.0214016,-0.0319843 -0.00590551,-0.011374 -0.00915354,-0.0249331 -0.00648819,-0.0465591l-2.75591e-005 -3.93701e-005 -0.000980315 -0.00112598c-0.00076378,-0.000866142 -0.00144882,-0.00187402 -0.00197244,-0.00283858l-0.179272 -0.336114c-0.00436614,-0.00819291 -0.00125984,-0.0183583 0.00693701,-0.022752 0.0081811,-0.0043622 0.0183583,-0.00125591 0.0227402,0.00693701l0.179244 0.336106 -0.00293701 -0.00397638 3.93701e-005 3.93701e-005c0.021248,-0.000429134 0.0365591,0.00720472 0.0492205,0.0170157 0.0122047,0.0102638 0.0186732,0.0243425 0.0279252,0.0365866 0.00914567,0.0124724 0.0159685,0.0257638 0.0233504,0.0388622 0.00737402,0.0131102 0.0148465,0.0261732 0.0207047,0.0397323 0.00609843,0.0134724 0.0128898,0.0267323 0.0182953,0.0404331l0.0155472 0.0411811c0.00532677,0.0136693 0.00918504,0.0276772 0.0138346,0.0414724 0.00461024,0.013815 0.00893701,0.0276693 0.0122992,0.041748 0.00769685,0.0279567 0.0139094,0.0561181 0.0201142,0.0842244 0.00538976,0.0282677 0.0103543,0.0565748 0.0144055,0.0849409 0.0041063,0.0283701 0.00705906,0.0568583 0.00951575,0.0853661 0.00224803,0.0286102 0.00372835,0.056937 0.00366142,0.0860354l-0.00111811 -0.00456693 1.9685e-005 3.14961e-005c0.00629921,0.00942126 0.0124055,0.0187126 0.018,0.0281417 0.00502756,0.00972047 0.0134409,0.0176181 0.0200433,0.0263189 0.00684252,0.00858268 0.0134724,0.0172323 0.0217717,0.0247402 0.00805906,0.00763386 0.0149685,0.0160827 0.0233701,0.0233425 0.0168071,0.0145394 0.0334331,0.0290512 0.0517638,0.0419803 0.00868898,0.0069252 0.0181693,0.0129291 0.0275276,0.0191693 0.00944882,0.00608661 0.0183504,0.0128543 0.0283228,0.0182835 0.0193701,0.0115394 0.0388189,0.0230748 0.0590079,0.0335748 0.0201693,0.0104409 0.0402992,0.0212087 0.0610787,0.0308425 0.0205157,0.0101929 0.0414764,0.0196732 0.0624921,0.0291417 0.0208189,0.0100157 0.0423504,0.018811 0.0633701,0.0280984l0.000606299 0.000267717c0.00855906,0.00377165 0.0124252,0.0137677 0.00865354,0.022311 -0.0031063,0.00704331 -0.0104409,0.0109016 -0.0176929,0.00994882z"/>
   <path id="_212369520" class="fil0" d="M3.28782 4.14543c-0.0307244,0.0304606 -0.0621575,0.0579173 -0.0938071,0.0861102 -0.0156732,0.0141772 -0.0321181,0.0271732 -0.0480866,0.0408346 -0.0157756,0.0139803 -0.0319724,0.0273071 -0.0482756,0.040437l-0.0976102 0.0787441 -0.0990118 0.076374c-0.032937,0.0255079 -0.066122,0.050622 -0.100228,0.0746102 -0.0334803,0.0247165 -0.0670551,0.0492598 -0.101669,0.0726969l-0.10489 0.0693228c-0.0356811,0.0223898 -0.0715354,0.0448386 -0.110681,0.0640354l0.00548819 -0.0115472 0 2.75591e-005c2.75591e-005,0.0409016 -0.00162992,0.0812717 -0.00389764,0.121878 -0.0023622,0.0405 -0.00432677,0.0811063 -0.00859449,0.121476 -0.00785039,0.080878 -0.0173898,0.161654 -0.0308228,0.242106 -0.00322835,0.020122 -0.00690551,0.0401772 -0.0110315,0.0602047 -0.00408661,0.0200157 -0.00756693,0.0401102 -0.0121772,0.060063 -0.00879528,0.0399764 -0.0186535,0.0797638 -0.030248,0.119283 -0.00518504,0.0198189 -0.0115394,0.0394843 -0.0182205,0.0590827 -0.00693307,0.0194921 -0.0118228,0.0395866 -0.0212244,0.0583937 -0.00929921,0.0187677 -0.0203425,0.036622 -0.0328898,0.0537244 -0.0132362,0.0168465 -0.0253425,0.0337756 -0.0352244,0.0518307l-0.000153543 0.000295276c-0.000503937,0.000917323 -0.00114173,0.00177165 -0.0018189,0.00249606 -0.0405984,0.0435906 -0.0812205,0.0872087 -0.120181,0.132217 -0.0391969,0.0448346 -0.0780512,0.0899685 -0.114598,0.137102 -0.00569685,0.00734646 -0.0162835,0.00869685 -0.0236378,0.00298031 -0.00733465,-0.00567717 -0.00867717,-0.0162717 -0.00298031,-0.0235984 0.000389764,-0.000523622 0.000874016,-0.00104724 0.00130315,-0.00150787 0.0418858,-0.0425118 0.0814528,-0.0869843 0.120677,-0.131783 0.0394528,-0.0446102 0.0772874,-0.0906654 0.115083,-0.136685l-0.00195276 0.00279134c0.00805118,-0.0181181 0.0138622,-0.0373189 0.0185591,-0.056622 0.00448031,-0.0194921 0.00712992,-0.0396811 0.0133583,-0.058126 0.0128071,-0.0369291 0.026622,-0.0738858 0.0371417,-0.112094 0.0115748,-0.0378031 0.0208465,-0.0764764 0.0306575,-0.115008 0.00495669,-0.0192717 0.00881496,-0.0388622 0.0132913,-0.0582992 0.00449606,-0.0194252 0.00856693,-0.0389567 0.0122126,-0.058622 0.0164449,-0.078185 0.0301181,-0.157224 0.0415984,-0.236626 0.012122,-0.0792717 0.0228661,-0.159161 0.032185,-0.238724l0 -2.75591e-005c-0.000350394,-0.00174409 3.93701e-005,-0.00344882 0.000952756,-0.00483071l0.00453543 -0.00672835c0.024315,-0.0360039 0.0519449,-0.0687992 0.0797283,-0.101591l0.0429094 -0.0479055c0.015063,-0.0151024 0.0302795,-0.0300039 0.0457717,-0.0446457 0.0310512,-0.0291457 0.0624055,-0.0580906 0.095189,-0.0851772 0.0329764,-0.026811 0.0668268,-0.0524803 0.100957,-0.0778228 0.0337756,-0.0257992 0.0695118,-0.0487717 0.10487,-0.072315 0.0352323,-0.0236654 0.0717047,-0.0455512 0.108787,-0.0664252 0.0364213,-0.0218189 0.0744488,-0.0412244 0.112681,-0.0601181 0.0193701,-0.00906299 0.0382244,-0.0188583 0.0582795,-0.0269567 0.0197441,-0.00854331 0.0395591,-0.0168425 0.0599094,-0.0238543 0.00898425,-0.00311811 0.0187992,0.0016378 0.0219449,0.0106299 0.00222835,0.00645276 0.000350394,0.0133583 -0.00415748,0.0178937z"/>
   <path id="_212369040" class="fil2" d="M3.80456 4.49873c0,0.342079 -0.177051,0.619437 -0.395472,0.619437 -0.218409,0 -0.395461,-0.277358 -0.395461,-0.619437 0,-0.342118 0.177051,-0.619457 0.395461,-0.619457 0.218421,0 0.395472,0.277339 0.395472,0.619457z"/>
   <path id="_212368848" class="fil2" d="M3.70658 2.84333c0,0.162378 -0.0140157,0.944957 -0.293984,0.944957 -0.230996,0 -0.293984,-0.782579 -0.293984,-0.944957 0,-0.162362 0.131606,-0.293984 0.293984,-0.293984 0.162378,0 0.293984,0.131622 0.293984,0.293984z"/>
   <path id="_212368920" class="fil3" d="M3.25644 2.23775c0,0.0525709 -0.0426378,0.0952165 -0.0952205,0.0952165 -0.0525827,0 -0.0952165,-0.0426457 -0.0952165,-0.0952165 0,-0.0525945 0.0426339,-0.0952283 0.0952165,-0.0952283 0.0525827,0 0.0952205,0.0426339 0.0952205,0.0952283z"/>
   <path id="_212368608" class="fil3" d="M3.77743 2.23775c0,0.0525709 -0.0426378,0.0952165 -0.0952205,0.0952165 -0.0525827,0 -0.0952165,-0.0426457 -0.0952165,-0.0952165 0,-0.0525945 0.0426339,-0.0952283 0.0952165,-0.0952283 0.0525827,0 0.0952205,0.0426339 0.0952205,0.0952283z"/>
  </g>
  <rect class="fil4" width="6.82666" height="6.82666"/>
 </g>
</svg>
