<?xml version="1.0" encoding="UTF-8"?>
<!DOCTYPE svg PUBLIC "-//W3C//DTD SVG 1.1//EN" "http://www.w3.org/Graphics/SVG/1.1/DTD/svg11.dtd">
<!-- Creator: CorelDRAW -->
<svg xmlns="http://www.w3.org/2000/svg" xml:space="preserve" width="6.82666in" height="6.82666in" style="shape-rendering:geometricPrecision; text-rendering:geometricPrecision; image-rendering:optimizeQuality; fill-rule:evenodd; clip-rule:evenodd"
viewBox="0 0 6.82666 6.82666"
 xmlns:xlink="http://www.w3.org/1999/xlink">
 <defs>
  <style type="text/css">
   <![CDATA[
    .fil8 {fill:none}
    .fil6 {fill:#212121}
    .fil2 {fill:#673B15}
    .fil5 {fill:#FAFAFA}
    .fil4 {fill:#212121;fill-rule:nonzero}
    .fil0 {fill:#41281A;fill-rule:nonzero}
    .fil3 {fill:#424242;fill-rule:nonzero}
    .fil7 {fill:#5E3512;fill-rule:nonzero}
    .fil1 {fill:#673B15;fill-rule:nonzero}
   ]]>
  </style>
 </defs>
 <g id="Layer_x0020_1">
  <metadata id="CorelCorpID_0Corel-Layer"/>
  <g id="_210207720">
   <path id="_210207936" class="fil0" d="M1.74984 2.50328l-0.0517047 0c0,-0.409669 -0.333268,-0.742937 -0.742906,-0.742937l0 -0.0517047c0.438126,0 0.79461,0.356469 0.79461,0.794642z"/>
   <path id="_210207624" class="fil1" d="M1.0763 1.73046c0,0.0577559 -0.0468228,0.104579 -0.104575,0.104579 -0.0577559,0 -0.104594,-0.0468228 -0.104594,-0.104579 0,-0.0577559 0.0468386,-0.104594 0.104594,-0.104594 0.057752,0 0.104575,0.0468386 0.104575,0.104594z"/>
  </g>
  <path class="fil2" d="M2.50574 2.63681c0.0877874,0.17711 0.0951575,0.374004 0.0363071,0.548543 -0.0588937,0.174673 -0.184075,0.327028 -0.361299,0.414874l-0.338449 0.167764c-0.0135906,0.00673228 -0.0346614,0.017937 -0.0568701,0.0297362 -0.0586654,0.0311772 -0.126012,0.0669724 -0.189039,0.0861614 -0.0950157,0.0289252 -0.175343,0.0206575 -0.205472,-0.0783031 -0.122768,-0.403228 -0.132264,-0.690528 -0.0513543,-0.908398 0.0823346,-0.221709 0.255043,-0.367571 0.495386,-0.486705 0.123311,-0.061122 0.260386,-0.0662559 0.381882,-0.0252874 0.121634,0.0410157 0.227732,0.128189 0.288909,0.251614z"/>
  <path class="fil3" d="M5.43383 2.98174c-0.313815,-0.235665 -0.719465,-0.310657 -1.05529,-0.310657 -0.13126,0 -0.25063,0.0537402 -0.337201,0.140307 -0.0865669,0.0865669 -0.140307,0.205941 -0.140307,0.337197l0 3.93701e-006c0,0.202508 0.0828898,0.386657 0.216421,0.520189 0.133531,0.133531 0.317681,0.216421 0.520189,0.216421l0.896421 0c0.0176811,0 0.0476969,0.000850394 0.0794724,0.00175197 0.0740157,0.00209449 0.158984,0.0045 0.224193,-0.00633465 0.0506614,-0.00841339 0.0869606,-0.0247638 0.0814567,-0.0579134 -0.065874,-0.396496 -0.250354,-0.66448 -0.485358,-0.840965z"/>
  <path class="fil3" d="M3.72709 3.11572c-0.0415591,-0.0415591 -0.0989882,-0.0672677 -0.162421,-0.0672677 -0.0634291,0 -0.120858,0.0257087 -0.162421,0.0672677 -0.0415591,0.0415591 -0.0672677,0.0989882 -0.0672677,0.162421 0,0.0634331 0.0257087,0.120862 0.0672677,0.162421 0.0415591,0.041563 0.0989882,0.0672717 0.162421,0.0672717 0.0634331,0 0.120862,-0.0257087 0.162425,-0.0672677 0.0415591,-0.041563 0.0672677,-0.0989921 0.0672677,-0.162425 0,-0.0634331 -0.0257087,-0.120862 -0.0672717,-0.162421z"/>
  <path class="fil1" d="M3.56467 2.94178c0.092878,0 0.176972,0.0376535 0.237839,0.0985197 0.060874,0.0608701 0.0985236,0.144961 0.0985236,0.237839 0,0.092874 -0.0376496,0.176969 -0.0985197,0.237843 -0.060874,0.0608701 -0.144965,0.0985197 -0.237843,0.0985197 -0.092878,0 -0.176969,-0.0376496 -0.237839,-0.0985236 -0.0608661,-0.0608661 -0.0985197,-0.144961 -0.0985197,-0.237839 0,-0.092878 0.0376535,-0.176972 0.0985197,-0.237839 0.060874,-0.0608701 0.144965,-0.0985197 0.237839,-0.0985197z"/>
  <path class="fil3" d="M3.12268 3.08084c-0.0652559,-0.0652559 -0.155433,-0.105626 -0.255028,-0.105626 -0.0995945,0 -0.189764,0.0403701 -0.255024,0.105626 -0.0652559,0.0652559 -0.105626,0.155433 -0.105626,0.255028 0,0.0995945 0.0403701,0.189768 0.105626,0.255024 0.0652559,0.0652559 0.155429,0.105626 0.255024,0.105626 0.0995945,0 0.189772,-0.0403701 0.255028,-0.105626 0.0652559,-0.0652598 0.105626,-0.155429 0.105626,-0.255024 0,-0.0995984 -0.0403701,-0.189768 -0.105626,-0.255028z"/>
  <path class="fil0" d="M2.86765 2.86854c0.129039,0 0.245874,0.0523071 0.330445,0.136878 0.084563,0.0845709 0.136878,0.201402 0.136878,0.330445 0,0.129039 -0.052315,0.24587 -0.136878,0.330441 -0.0845709,0.0845709 -0.201406,0.136878 -0.330445,0.136878 -0.129039,0 -0.24587,-0.0523071 -0.330441,-0.136878 -0.0845709,-0.0845709 -0.136878,-0.201402 -0.136878,-0.330441 0,-0.129039 0.0523071,-0.245874 0.136878,-0.330445 0.0845709,-0.084563 0.201402,-0.136878 0.330441,-0.136878z"/>
  <path class="fil4" d="M3.3846 3.49412c-0.0201339,0.0213976 -0.0538071,0.0224252 -0.0752047,0.00229134 -0.0213976,-0.0201339 -0.0224252,-0.0538071 -0.00229134,-0.0752047 0.000913386,-0.000968504 0.318362,-0.340362 0.384386,-0.175425 0.0223031,0.0557165 0.197106,0.535807 0.327528,0.923063 0.0744094,0.220949 0.13465,0.412815 0.144988,0.482177 0.0276929,0.185787 0.0331417,0.685898 0.0331575,0.687335 0.000228346,0.0293386 -0.0233701,0.053315 -0.0527087,0.0535433 -0.0293386,0.000228346 -0.053315,-0.0233701 -0.0535433,-0.0527087 -1.1811e-005,-0.00140945 -0.00535827,-0.491854 -0.0323228,-0.672752 -0.00938976,-0.0630197 -0.0678819,-0.248488 -0.140406,-0.463846 -0.129646,-0.384957 -0.376043,-0.733953 -0.398185,-0.789264 -0.00352756,-0.00881496 -0.134815,0.0801693 -0.135398,0.0807913z"/>
  <path class="fil4" d="M3.2566 3.49997c0.0147244,0.0254252 0.00605118,0.0579803 -0.019374,0.0727047 -0.0254252,0.0147244 -0.0579803,0.00605118 -0.0727047,-0.019374 -0.000385827,-0.000665354 -0.0494685,-0.121669 -0.059815,-0.0794055 -0.00517323,0.0211378 -0.00796457,0.032378 -0.0113701,0.0460984 -0.0525787,0.211685 -0.31485,0.808307 -0.329579,0.969894 -0.0161496,0.177154 0.0811024,0.885622 0.0813819,0.887661 0.00390945,0.0291063 -0.0165197,0.0558819 -0.045626,0.0597913 -0.0291063,0.00390945 -0.0558819,-0.0165197 -0.0597913,-0.045626 -0.000283465,-0.0020748 -0.0990787,-0.721878 -0.0817992,-0.911409 0.0155591,-0.170685 0.21372,-0.968449 0.26665,-1.18156 0.00751575,-0.0302598 0.010189,-0.0408465 0.0113701,-0.0456811 0.0528976,-0.216024 0.319894,0.245583 0.320657,0.246902z"/>
  <path class="fil4" d="M2.52781 3.34419c0.0239291,-0.0170276 0.0571417,-0.0114291 0.0741693,0.0125 0.0170276,0.0239291 0.0886102,0.14628 0.0646811,0.163307 -0.000590551,0.000417323 -0.242138,0.176547 -0.258583,0.243728 -0.0130945,0.0534843 -0.123433,0.250882 -0.177433,0.527299 -0.0318425,0.162996 -0.0582087,0.309728 -0.0641535,0.374949 -0.0165394,0.181484 -0.0299843,0.672839 -0.0300197,0.674256 -0.00080315,0.0293386 -0.0252441,0.0524724 -0.0545827,0.0516693 -0.0293386,-0.00080315 -0.0524724,-0.0252441 -0.0516693,-0.0545827 3.93701e-005,-0.0014252 0.0135591,-0.495728 0.030437,-0.680925 0.00650787,-0.0714173 0.0332835,-0.22135 0.0654055,-0.385783 0.053689,-0.274835 0.123421,-0.59615 0.137016,-0.651677 0.0260945,-0.106583 0.264055,-0.27426 0.264732,-0.27474z"/>
  <path class="fil5" d="M1.61615 3.2474c0.063437,-0.0593465 0.102685,-0.141299 0.102685,-0.231764 0,-0.0630512 -0.0190512,-0.121882 -0.0520433,-0.171724 -0.0278071,-0.0420079 -0.0655748,-0.0778346 -0.110311,-0.104681 -0.0136457,0.0154803 -0.0264921,0.0314685 -0.0385079,0.0480039 -0.0422795,0.0583425 -0.0744173,0.123787 -0.0953701,0.198433 -0.0281811,0.100378 -0.0365157,0.21787 -0.0226024,0.357476 0.0843898,-0.00796457 0.159846,-0.0430669 0.21615,-0.0957441z"/>
  <path class="fil6" d="M1.61615 3.2474c0.063437,-0.0593465 0.102685,-0.141299 0.102685,-0.231764 0,-0.0456142 -0.00997244,-0.0890157 -0.0279803,-0.128406 -0.156756,0.0191811 -0.278161,0.152748 -0.278161,0.314685 0,0.0481929 0.0107598,0.0938622 0.03,0.13476 0.0670827,-0.0140906 0.126835,-0.0456575 0.173457,-0.0892756z"/>
  <path class="fil0" d="M1.61049 3.24134c0.0314764,-0.0294449 0.0568543,-0.0646417 0.0741811,-0.103752 0.0166457,-0.0375709 0.0258346,-0.0787638 0.0258346,-0.121957 0,-0.030252 -0.00447244,-0.0594331 -0.0128189,-0.0869764 -0.00864173,-0.0285276 -0.0214764,-0.0554606 -0.0378228,-0.0801575 -0.0135551,-0.0204764 -0.0295472,-0.0394567 -0.0475906,-0.0565827 -0.0164291,-0.0155906 -0.0345669,-0.0296575 -0.0541299,-0.0419252 -0.00520866,0.00602756 -0.0102244,0.0120433 -0.0150472,0.0180512 -0.00625591,0.00780315 -0.0123937,0.0158268 -0.0183819,0.0240709 -0.0208622,0.0287874 -0.0392205,0.0593228 -0.0549291,0.0918346 -0.0157244,0.0325433 -0.0288268,0.0671142 -0.0391693,0.103961 -0.0139331,0.0496378 -0.0229724,0.103539 -0.0267953,0.162303 -0.00368504,0.0565906 -0.00255512,0.117685 0.00364961,0.183791 0.0375945,-0.00438583 0.0733189,-0.014311 0.106181,-0.0288701 0.0362756,-0.0160669 0.0689961,-0.0377441 0.0968386,-0.0637913zm0.0894173 -0.0970433c-0.0182087,0.0411024 -0.0449252,0.0781299 -0.0780866,0.109154 -0.0292795,0.0273937 -0.0635669,0.0501339 -0.101461,0.0669173 -0.036563,0.0161969 -0.0766063,0.0269016 -0.118862,0.0309685l-0.000665354 9.44882e-005c-0.00457874,0.000452756 -0.00866535,-0.00288583 -0.00911811,-0.00746457l0.00829134 -0.000826772 -0.00826772 0.000814961c-0.00700394,-0.0702795 -0.00840551,-0.135012 -0.00451575,-0.194783 0.00390157,-0.0599685 0.0131378,-0.11502 0.027378,-0.165752 0.0106063,-0.0377913 0.0240591,-0.0732795 0.0402087,-0.106701 0.0161614,-0.0334488 0.0350197,-0.0648228 0.0564331,-0.0943701 0.00601969,-0.00828346 0.0123268,-0.0165315 0.0189016,-0.0247244 0.00652756,-0.00813386 0.0131457,-0.0160039 0.0198307,-0.0235984 0.00256299,-0.00321654 0.00717717,-0.00411811 0.0107992,-0.00194488l-1.1811e-005 2.3622e-005c0.0229094,0.0137441 0.0440315,0.0297953 0.0629685,0.0477638 0.0189567,0.0179921 0.0357559,0.0379331 0.05,0.0594488 0.017185,0.0259606 0.0307008,0.0543583 0.0398386,0.0845197 0.00885827,0.0292323 0.0136063,0.0600433 0.0136063,0.0917953 0,0.0455512 -0.00969685,0.0890118 -0.0272677,0.128665z"/>
  <path class="fil7" d="M4.37854 2.56442c0.354087,0 0.783335,0.0802244 1.11904,0.332327 0.255382,0.191787 0.45563,0.48165 0.52661,0.908878 0.0188425,0.113449 -0.0585157,0.161587 -0.16937,0.18 -0.0745551,0.0123898 -0.16522,0.0098189 -0.244193,0.00758661 -0.0242047,-0.000685039 -0.0471732,-0.00133465 -0.0765591,-0.00133465l-0.896421 0c-0.231953,0 -0.442791,-0.0948583 -0.595606,-0.247673 -0.152815,-0.152815 -0.247673,-0.363654 -0.247673,-0.595606l0 -3.93701e-006c0,-0.160701 0.0657087,-0.306764 0.171559,-0.412614 0.105854,-0.10585 0.251913,-0.171559 0.412618,-0.171559z"/>
  <path class="fil4" d="M3.7261 3.57309c-0.0256535,0.0142677 -0.0580236,0.0050315 -0.0722913,-0.020622 -0.0142677,-0.0256535 -0.0050315,-0.0580236 0.020622,-0.0722913 0.00190157,-0.00105906 0.66222,-0.370882 0.756012,-0.246693 0.0420315,0.0556575 0.369984,0.535732 0.615346,0.923807 0.141039,0.223079 0.267339,0.3575 0.287547,0.429366 0.0530472,0.188661 0.0832362,0.746303 0.0833583,0.747736 0.00241339,0.0293386 -0.0194134,0.0550866 -0.048752,0.0575 -0.0293386,0.00241339 -0.0550866,-0.0194134 -0.0575,-0.048752l-0.0913661 -0.667591 -0.919421 -1.20765c-0.0374331,-0.0495669 -0.57189,0.104256 -0.573555,0.105185z"/>
  <rect class="fil8" width="6.82666" height="6.82666"/>
 </g>
</svg>
