<?xml version="1.0" encoding="UTF-8"?>
<!DOCTYPE svg PUBLIC "-//W3C//DTD SVG 1.1//EN" "http://www.w3.org/Graphics/SVG/1.1/DTD/svg11.dtd">
<!-- Creator: CorelDRAW -->
<svg xmlns="http://www.w3.org/2000/svg" xml:space="preserve" width="6.82666in" height="6.82666in" style="shape-rendering:geometricPrecision; text-rendering:geometricPrecision; image-rendering:optimizeQuality; fill-rule:evenodd; clip-rule:evenodd"
viewBox="0 0 6.82666 6.82666"
 xmlns:xlink="http://www.w3.org/1999/xlink">
 <defs>
  <style type="text/css">
   <![CDATA[
    .fil3 {fill:none}
    .fil0 {fill:#4D2F14;fill-rule:nonzero}
    .fil1 {fill:#673B15;fill-rule:nonzero}
    .fil2 {fill:#7C4D24;fill-rule:nonzero}
   ]]>
  </style>
 </defs>
 <g id="Layer_x0020_1">
  <metadata id="CorelCorpID_0Corel-Layer"/>
  <path class="fil0" d="M3.97604 3.65686l0.547193 -0.287835 0.0173543 -0.00915354 0.011689 0.0140276 0.393209 0.468815 -0.0173858 -0.00810236 0.377177 0.000232283c0.0125236,0 0.0226535,0.0101732 0.0226535,0.022685 0,0.0125157 -0.0101732,0.022689 -0.0226535,0.022689l-0.377177 -0.000220472 -0.0105906 0 -0.00677165 -0.00813386 -0.393177 -0.468799 0.0290079 0.00482677 -0.511496 0.347398c-0.0262441,0.0178031 -0.0619843,0.011 -0.0798622,-0.0152756 -0.017815,-0.0262441 -0.0109646,-0.0619803 0.015311,-0.0798307 0.00177953,-0.00120472 0.00363386,-0.00230315 0.00551969,-0.00332283z"/>
  <path class="fil0" d="M3.91929 4.31359l0.652724 -0.205094 0.0276811 -0.00869291 0.00314173 0.0272638 0.158807 1.38376 -0.00816535 -0.0148622 0.248583 0.204264c0.00972441,0.00797638 0.0110866,0.0222795 0.0031378,0.0319488 -0.00797638,0.0096811 -0.0222677,0.0110512 -0.0319488,0.00314961l-0.248551 -0.204303 -0.00709843 -0.0058622 -0.00106693 -0.00912205 -0.158807 -1.3838 0.0308504 0.0185276 -0.617713 0.293957c-0.0352756,0.0167835 -0.0774016,0.00181102 -0.0941496,-0.0333898 -0.0167913,-0.0352441 -0.00182283,-0.0773661 0.0334213,-0.0941496 0.00287795,-0.00140551 0.00624409,-0.00268898 0.00915354,-0.00360236z"/>
  <path class="fil0" d="M3.96031 2.60627l0.477157 -0.264398 -0.00872835 0.0128622 0.090748 -0.362972c0.00306299,-0.0121378 0.0153898,-0.0195472 0.0275276,-0.0165197 0.0121732,0.00306299 0.0195512,0.0153898 0.0165197,0.0275276l-0.090748 0.362965 -0.00159055 0.00624409 -0.00713386 0.00664961 -0.400071 0.370835c-0.0360669,0.0333858 -0.092374,0.0312677 -0.125839,-0.00479921 -0.0333898,-0.0360787 -0.0312717,-0.0923819 0.00479528,-0.12585 0.00525591,-0.00487008 0.0113937,-0.00921654 0.0173622,-0.0125433z"/>
  <path class="fil0" d="M2.76272 2.74946l-0.400106 -0.370835 -0.00711024 -0.00664961 -0.00159449 -0.00624409 -0.090748 -0.362965c-0.00301575,-0.0121378 0.00434646,-0.0244646 0.0165315,-0.0275276 0.0121378,-0.00302756 0.0244646,0.00438189 0.0275276,0.0165197l0.0907165 0.362972 -0.00870472 -0.0128622 0.477122 0.264398c0.0430354,0.0238189 0.0586102,0.0780039 0.0347598,0.121031 -0.0238307,0.0430354 -0.0780157,0.0585354 -0.121043,0.034748 -0.00627559,-0.00351181 -0.0123346,-0.00801181 -0.0173504,-0.0125866z"/>
  <path class="fil0" d="M2.79164 3.75529l-0.5115 -0.347398 0.029 -0.00482677 -0.393181 0.468799 -0.00680315 0.00813386 -0.0105827 0 -0.377154 0.000220472c-0.0124764,0 -0.022685,-0.0101732 -0.022685,-0.022689 0,-0.0125118 0.0101732,-0.022685 0.022685,-0.022685l0.377154 -0.000232283 -0.0173622 0.00810236 0.39322 -0.468815 0.0116929 -0.0140276 0.0173504 0.00915354 0.547193 0.287835c0.0281299,0.0147835 0.0388661,0.0495315 0.024126,0.0776299 -0.0147874,0.0281339 -0.0495354,0.0388661 -0.0776339,0.024126 -0.00193307,-0.00101969 -0.0038189,-0.00216142 -0.00551969,-0.00332677z"/>
  <path class="fil0" d="M2.85585 4.44473l-0.617713 -0.293957 0.030811 -0.0185276 -0.15878 1.3838 -0.00105512 0.00912205 -0.00711024 0.0058622 -0.248583 0.204303c-0.0096378,0.00790157 -0.0239724,0.0065315 -0.0319173,-0.00314961 -0.00793701,-0.00966929 -0.0065748,-0.0239724 0.0031378,-0.0319488l0.248551 -0.204264 -0.00813386 0.0148622 0.158776 -1.38376 0.00318504 -0.0272638 0.0276693 0.00869291 0.652736 0.205094c0.0372087,0.0116929 0.0578543,0.0513583 0.0462087,0.0885669 -0.0117244,0.0372087 -0.0513583,0.0579291 -0.0885984,0.0462087 -0.00306299,-0.000944882 -0.00635433,-0.00231496 -0.00918504,-0.00363386z"/>
  <path class="fil1" d="M3.54165 2.13337c-0.0281102,-0.0368858 -0.0816142,-0.0618031 -0.143016,-0.0618031 -0.0614016,0 -0.114906,0.0249173 -0.143016,0.0618031 -0.119362,0 -0.0935591,0.393425 -0.103157,0.499091l0.499063 0c-0.0102717,-0.113063 0.0210197,-0.499091 -0.109874,-0.499091z"/>
  <g id="_210208488">
   <path id="_210208584" class="fil1" d="M3.33315 2.15616c-0.00379921,0 -0.00687795,-0.0030748 -0.00687795,-0.00687795 0,-0.707181 -0.575327,-1.28252 -1.2825,-1.28252 -0.00380709,0 -0.00687795,-0.0030748 -0.00687795,-0.00687402 0,-0.00380315 0.00307087,-0.00687795 0.00687795,-0.00687795 0.714752,0 1.29626,0.581504 1.29626,1.29627 0,0.00380315 -0.0030748,0.00687795 -0.00687795,0.00687795z"/>
   <path id="_210208992" class="fil1" d="M3.46411 2.15616c-0.00379921,0 -0.00687795,-0.0030748 -0.00687795,-0.00687795 0,-0.714768 0.581508,-1.29627 1.29626,-1.29627 0.00379921,0 0.00687795,0.0030748 0.00687795,0.00687795 0,0.00379921 -0.00307874,0.00687402 -0.00687795,0.00687402 -0.707177,0 -1.28251,0.575339 -1.28251,1.28252 0,0.00380315 -0.00307087,0.00687795 -0.00687402,0.00687795z"/>
  </g>
  <path class="fil1" d="M4.1243 2.91088c0,1.5407 -0.318276,3.06278 -0.710961,3.06278 -0.392728,0 -0.710965,-1.64366 -0.710965,-3.06278 0,-0.302091 0.318236,-0.546929 0.710965,-0.546929 0.392685,0 0.710961,0.244839 0.710961,0.546929z"/>
  <path class="fil2" d="M3.04091 2.44514c-0.20287,0.0963031 -0.338543,0.268358 -0.338543,0.465244 0,0.933008 0.137563,1.96295 0.343425,2.55915 0.200366,-0.574071 0.333701,-1.56243 0.333701,-2.55915 0,-0.196886 -0.135673,-0.368941 -0.338583,-0.465244z"/>
  <path class="fil2" d="M3.78576 2.44514c-0.202898,0.0963031 -0.338571,0.268358 -0.338571,0.465244 0,0.933008 0.137594,1.96295 0.343445,2.55915 0.200378,-0.574071 0.333665,-1.56243 0.333665,-2.55915 0,-0.196886 -0.135669,-0.368941 -0.338539,-0.465244z"/>
  <rect class="fil3" width="6.82666" height="6.82666"/>
 </g>
</svg>
