<?xml version="1.0" encoding="UTF-8"?>
<!DOCTYPE svg PUBLIC "-//W3C//DTD SVG 1.1//EN" "http://www.w3.org/Graphics/SVG/1.1/DTD/svg11.dtd">
<!-- Creator: CorelDRAW -->
<svg xmlns="http://www.w3.org/2000/svg" xml:space="preserve" width="6.82666in" height="6.82666in" style="shape-rendering:geometricPrecision; text-rendering:geometricPrecision; image-rendering:optimizeQuality; fill-rule:evenodd; clip-rule:evenodd"
viewBox="0 0 6.82666 6.82666"
 xmlns:xlink="http://www.w3.org/1999/xlink">
 <defs>
  <style type="text/css">
   <![CDATA[
    .fil8 {fill:none}
    .fil0 {fill:#263238}
    .fil2 {fill:#37474F}
    .fil7 {fill:#546E7A}
    .fil6 {fill:#78909C}
    .fil1 {fill:#182329;fill-rule:nonzero}
    .fil4 {fill:#1B262B;fill-rule:nonzero}
    .fil3 {fill:#37474F;fill-rule:nonzero}
    .fil5 {fill:#90A4AE;fill-rule:nonzero}
   ]]>
  </style>
 </defs>
 <g id="Layer_x0020_1">
  <metadata id="CorelCorpID_0Corel-Layer"/>
  <g id="_210210480">
   <ellipse id="_352358680" class="fil0" cx="3.42202" cy="2.37322" rx="0.483335" ry="0.7625"/>
   <path id="_352358464" class="fil1" d="M1.63053 0.975472c-0.00287402,-0.0292244 0.0184843,-0.055252 0.0477087,-0.058126 0.0292244,-0.00287402 0.055252,0.0184843 0.058126,0.0477087l0.0700827 0.700835 0.490323 0.294197c0.0251969,0.0150709 0.0334055,0.0477205 0.0183346,0.0729173 -0.0150709,0.0251969 -0.0499094,0.115394 -0.0751063,0.100323l-0.510189 -0.389417c-0.0144331,-0.00826378 -0.0247795,-0.0231535 -0.0265315,-0.0409606l-0.072748 -0.727476z"/>
   <path id="_352358608" class="fil1" d="M5.10769 0.965055c0.00287402,-0.0292244 0.0289016,-0.0505827 0.058126,-0.0477087 0.0292244,0.00287402 0.0505827,0.0289016 0.0477087,0.058126l-0.072752 0.727476c-0.00175197,0.0178071 -0.0120984,0.0326969 -0.0265315,0.0409606l-0.477705 0.369268c-0.0251969,0.0150709 -0.0925197,-0.0549764 -0.107591,-0.0801732 -0.0150709,-0.0251969 -0.0068622,-0.0578465 0.0183346,-0.0729173l0.490323 -0.294197 0.0700866 -0.700835z"/>
   <path id="_352358776" class="fil1" d="M2.34481 5.98083c-0.00414173,0.0291063 -0.0311024,0.0493504 -0.0602087,0.0452087 -0.0291063,-0.00414173 -0.0493504,-0.0311024 -0.0452087,-0.0602087l0.10335 -0.718602c0.00143307,-0.0100787 0.00560236,-0.0190945 0.0116535,-0.0264016l0.13526 -0.523961c0.0178307,-0.0233543 0.0512283,-0.0278307 0.0745827,-0.01 0.0233543,0.0178307 0.0278307,0.0512283 0.01,0.0745827l-0.128063 0.514579 -0.101366 0.704803z"/>
   <path id="_352359160" class="fil1" d="M4.60466 5.96583c0.00414173,0.0291063 -0.0161024,0.0560669 -0.0452087,0.0602087 -0.0291063,0.00414173 -0.0560669,-0.0161024 -0.0602087,-0.0452087l-0.101366 -0.704803 -0.128059 -0.514579c-0.0178307,-0.0233543 -0.0133543,-0.056752 0.01,-0.0745827 0.0233543,-0.0178307 0.056752,-0.0133543 0.0745827,0.01l0.135256 0.523961c0.00605118,0.00730709 0.0102205,0.0163228 0.0116535,0.0264016l0.10335 0.718602z"/>
   <path id="_352358536" class="fil1" d="M1.09484 3.50515c-0.0279567,0.00885827 -0.057811,-0.00662598 -0.0666693,-0.0345827 -0.00885827,-0.0279567 0.00662598,-0.057811 0.0345827,-0.0666693l0.351535 -0.111886c0.00366535,-0.00116142 0.00736614,-0.00190157 0.0110472,-0.00225197l-3.93701e-006 -3.93701e-005 0.349177 -0.0339173c0.0292244,-0.00275984 0.0551575,0.0186929 0.0579173,0.0479173 0.00275984,0.0292244 -0.0499449,0.148906 -0.0791693,0.151665l-0.312394 -0.0603701 -0.346024 0.110134z"/>
   <path id="_352358944" class="fil1" d="M5.76391 3.4039c0.0279567,0.00885827 0.0434409,0.0387126 0.0345827,0.0666693 -0.00885827,0.0279567 -0.0387126,0.0434409 -0.0666693,0.0345827l-0.346024 -0.110134 -0.372461 0.0183071c-0.0292244,-0.00275984 -0.0218622,-0.080378 -0.0191024,-0.109602 0.00275984,-0.0292244 0.0286929,-0.0506772 0.0579173,-0.0479173l0.349177 0.0339173 -3.93701e-006 3.93701e-005c0.0036811,0.000350394 0.00738189,0.00109055 0.0110472,0.00225197l0.351535 0.111886z"/>
   <path id="_352357984" class="fil0" d="M4.03869 4.40989c-0.115724,0.402835 -0.348421,0.67802 -0.616661,0.67802 -0.26824,0 -0.500937,-0.275185 -0.616661,-0.67802 0.10824,-0.168949 0.205665,-0.344874 0.291937,-0.523354 0.132772,-0.274693 0.243433,-0.731429 0.324724,-1.02746 0.0812992,0.296031 0.191961,0.752768 0.324728,1.02746 0.0862717,0.17848 0.183693,0.354409 0.291933,0.523354z"/>
   <path id="_352358128" class="fil2" d="M3.75066 4.90887c-0.0616732,0.214681 -0.185685,0.361339 -0.328638,0.361339 -0.142957,0 -0.266969,-0.146657 -0.328642,-0.361339 0.057685,-0.0900433 0.109606,-0.183799 0.155583,-0.278917 0.0707598,-0.146394 0.129736,-0.389803 0.173059,-0.547571 0.0433268,0.157768 0.102299,0.401177 0.173059,0.547571 0.0459764,0.0951181 0.0978976,0.188878 0.155579,0.278917z"/>
   <g>
    <g>
     <path id="_352357672" class="fil3" d="M2.84706 1.23819c0.0592126,-0.0862677 0.149051,-0.165673 0.246425,-0.219433 0.0116575,0.191724 0.122315,0.592362 0.191043,0.792772 -0.129575,-0.0274173 -0.292937,-0.0758543 -0.394169,-0.145323 -0.0567047,-0.0389134 -0.091248,-0.086311 -0.10778,-0.138465 -0.0152323,-0.0480472 -0.0146693,-0.0987559 -0.00170079,-0.149528 0.0120866,-0.0473346 0.0351732,-0.0948268 0.0661811,-0.140024z"/>
     <path id="_352357936" class="fil3" d="M3.99699 1.23819c-0.0592126,-0.0862677 -0.149051,-0.165673 -0.246425,-0.219433 -0.0116575,0.191724 -0.122315,0.592362 -0.191043,0.792772 0.129575,-0.0274173 0.292937,-0.0758543 0.394169,-0.145323 0.0567047,-0.0389134 0.091248,-0.086311 0.10778,-0.138465 0.0152323,-0.0480472 0.0146693,-0.0987559 0.00170079,-0.149528 -0.0120866,-0.0473346 -0.0351732,-0.0948268 -0.0661811,-0.140024z"/>
    </g>
    <path id="_352358344" class="fil4" d="M3.08445 1.01724c0.00409843,-0.0701732 0.036878,-0.13289 0.0878504,-0.18078 0.0534567,-0.0502323 0.127043,-0.084122 0.20813,-0.0928346 0.0140512,-0.00150787 0.0279213,-0.0022874 0.0415354,-0.0022874 0.0136102,0 0.0274803,0.000779528 0.0415315,0.0022874 0.0810866,0.0087126 0.154673,0.0426024 0.20813,0.0928346 0.0506732,0.0476181 0.0834291,0.10972 0.0879685,0.179098l-4.33071e-005 0 -0.000712598 0.0166614c-0.00754724,0.176339 -0.130646,0.624307 -0.200882,0.772638 -0.0450472,0.00444488 -0.0905315,0.00666535 -0.135992,0.00666535 -0.0454567,0 -0.0909488,-0.00222047 -0.135988,-0.00666535 -0.0702362,-0.148331 -0.193339,-0.596299 -0.200882,-0.772638l-0.000645669 -0.0149803z"/>
   </g>
   <g>
    <g>
     <path id="_352357648" class="fil5" d="M2.62655 4.92453c-0.330732,0.380157 -0.724665,0.608295 -1.09935,0.535087 -0.0181496,-0.00354724 -0.0357087,-0.00666535 -0.0514173,-0.00944882 -0.171843,-0.0304882 -0.181732,-0.032248 -0.153866,-0.257764 0.0512559,-0.41478 0.24774,-1.6067 0.562909,-2.48306 0.115039,-0.319882 0.24635,-0.598657 0.392996,-0.784492 0.157094,-0.199083 0.332976,-0.295031 0.527685,-0.230728 0.0616181,0.0203465 0.124035,0.0570197 0.187091,0.111878 0.414051,0.360217 0.496209,0.962287 0.376331,1.5758 -0.0551102,0.282047 -0.153071,0.566945 -0.281008,0.83163 -0.128071,0.264969 -0.286165,0.509705 -0.461374,0.711098z"/>
     <path id="_352357528" class="fil6" d="M2.58883 4.89171c0.181732,-0.208894 0.33374,-0.451067 0.454083,-0.700039 0.125102,-0.258831 0.221815,-0.537283 0.276953,-0.819461 0.102496,-0.524579 0.0724685,-1.15218 -0.360079,-1.5285 -0.049815,-0.0433386 -0.106874,-0.0812913 -0.169953,-0.102122 -0.197669,-0.0652795 -0.35652,0.0669173 -0.47276,0.214224 -0.0797756,0.101094 -0.145909,0.217835 -0.202756,0.333118 -0.0697323,0.141413 -0.129106,0.289016 -0.182441,0.437323 -0.0848622,0.235961 -0.155846,0.478087 -0.219087,0.720677 -0.0885,0.339488 -0.162535,0.68387 -0.22624,1.02885 -0.0441102,0.238866 -0.0852126,0.481606 -0.115012,0.722744 -0.00303937,0.0246102 -0.0212205,0.15048 -0.00423228,0.170673 0.0131811,0.0156693 0.0974213,0.0282244 0.117209,0.0317323 0.0174488,0.00309449 0.0348858,0.0062126 0.0522795,0.00961024 0.0346457,0.00676772 0.0697638,0.010815 0.105039,0.0121732 0.170236,0.00655118 0.33624,-0.0503071 0.48235,-0.134236 0.175728,-0.100941 0.332138,-0.244461 0.464646,-0.396772z"/>
     <g>
      <path id="_352356928" class="fil7" d="M2.60356 1.99821c-0.00157087,0.169984 -0.0287441,0.781374 0.025,0.9 -0.0735906,-0.0747913 -0.0570118,-0.757079 -0.0583307,-0.9 0,-0.00920472 0.00746063,-0.0166654 0.0166654,-0.0166654 0.00920472,0 0.0166654,0.00746063 0.0166654,0.0166654z"/>
      <path id="_352357264" class="fil7" d="M3.09624 2.72035c-0.392425,0.261957 -0.666783,0.282925 -1.09148,0.610417l-0.0428504 0.034126 -2.3622e-005 -2.3622e-005c0.341236,-0.348528 0.731016,-0.408193 1.11567,-0.672126 0.00762205,-0.00516142 0.0179843,-0.00316142 0.0231457,0.00446063 0.00516142,0.00762205 0.00316142,0.0179843 -0.00446063,0.0231457z"/>
      <path id="_352357600" class="fil7" d="M2.12856 3.23988c-0.0023622,0.405957 -0.339362,0.948165 -0.433331,1.36667 0.058252,-0.432496 0.402492,-0.938638 0.4,-1.36667 0,-0.00920472 0.00746063,-0.0166654 0.0166654,-0.0166654 0.00920472,0 0.0166654,0.00746063 0.0166654,0.0166654z"/>
      <path id="_77124056" class="fil7" d="M3.03385 3.49947c-0.0831929,0.0668425 -0.73172,0.579051 -0.755291,0.582087l-7.87402e-006 -1.5748e-005c0.00545669,-0.00302362 0.00987008,-0.00470866 0.0141811,-0.0088189 0.20022,-0.190823 0.491098,-0.422209 0.713858,-0.592433 0.00529528,-0.00752756 0.0156929,-0.00933465 0.0232205,-0.00403937 0.00752756,0.00529528 0.00933465,0.0156929 0.00403937,0.0232205z"/>
      <path id="_356638760" class="fil7" d="M2.59522 3.83155c-0.198937,-0.00301969 -0.339921,0.0694606 -0.541665,0.0833346 0.184433,-0.0402126 0.354394,-0.113823 0.541665,-0.116665 0.00920472,0 0.0166654,0.00746063 0.0166654,0.0166654 0,0.00920472 -0.00746063,0.0166654 -0.0166654,0.0166654z"/>
      <path id="_77123840" class="fil7" d="M2.48689 3.95655c-0.033689,0.347882 -0.212803,0.758795 -0.3,1.125 0.0618071,-0.400933 0.235689,-0.749665 0.266669,-1.125 0,-0.00920472 0.00746063,-0.0166654 0.0166654,-0.0166654 0.00920472,0 0.0166654,0.00746063 0.0166654,0.0166654z"/>
      <path id="_77123768" class="fil7" d="M2.30854 4.68324c-0.150346,0.127535 -0.627256,0.398591 -0.813315,0.456646 0.198063,-0.0944331 0.627469,-0.339768 0.786685,-0.476693 0.00553543,-0.00735433 0.0159843,-0.00882677 0.0233386,-0.00329134 0.00735433,0.00553543 0.00882677,0.0159843 0.00329134,0.0233386z"/>
      <path id="_77123072" class="fil7" d="M2.59907 2.42626c-0.175248,0.17161 -0.385866,0.365138 -0.570512,0.521953 0.112138,-0.146335 0.392843,-0.387886 0.546157,-0.544709 0.00628346,-0.00672441 0.0168307,-0.00708268 0.0235551,-0.000799213 0.00672441,0.00628346 0.00708268,0.0168307 0.000799213,0.0235551z"/>
     </g>
    </g>
    <g>
     <path id="_210221808" class="fil5" d="M5.31685 5.45961c-0.374681,0.0732087 -0.768618,-0.154933 -1.09935,-0.535091 -0.175209,-0.201394 -0.333299,-0.446122 -0.461374,-0.711094 -0.127937,-0.264685 -0.225898,-0.549583 -0.281008,-0.831626 -0.119874,-0.613524 -0.0377165,-1.21559 0.376335,-1.57581 0.0630591,-0.0548583 0.125472,-0.0915315 0.187091,-0.111878 0.194709,-0.0643031 0.370591,0.0316457 0.527685,0.230728 0.146646,0.185835 0.277957,0.46461 0.392996,0.784492 0.315169,0.876358 0.511654,2.06828 0.562906,2.48306 0.0278661,0.225516 0.0179764,0.227276 -0.153862,0.257764 -0.0157087,0.00278346 -0.0332677,0.00590157 -0.0514173,0.00944882z"/>
     <path id="_210217704" class="fil6" d="M5.30726 5.41055c0.0173937,-0.00339764 0.0348307,-0.00651575 0.0522795,-0.00961024 0.0197874,-0.00350787 0.104024,-0.016063 0.117205,-0.0317323 0.0169882,-0.0201929 -0.00119291,-0.146063 -0.00423228,-0.170673 -0.0297953,-0.241138 -0.0709016,-0.483878 -0.115008,-0.722744 -0.0637087,-0.344984 -0.137744,-0.689362 -0.22624,-1.02885 -0.0632402,-0.242587 -0.134224,-0.484713 -0.219087,-0.720673 -0.0533346,-0.148307 -0.112709,-0.295909 -0.182441,-0.437323 -0.0568465,-0.115283 -0.12298,-0.232024 -0.202756,-0.333118 -0.11624,-0.147307 -0.275091,-0.279504 -0.47276,-0.214224 -0.0630827,0.0208307 -0.120138,0.0587835 -0.169953,0.102122 -0.432555,0.376307 -0.462579,1.00393 -0.360083,1.5285 0.0551378,0.282177 0.15185,0.56063 0.276953,0.819457 0.120346,0.248972 0.272346,0.491142 0.454083,0.700035 0.132512,0.152315 0.288921,0.295835 0.464654,0.39678 0.146114,0.0839291 0.312118,0.140787 0.482358,0.134232 0.0352677,-0.00135827 0.0703858,-0.00540551 0.105028,-0.0121732z"/>
     <g>
      <path id="_210210720" class="fil7" d="M4.28222 1.99821c0.00157087,0.169984 0.0287441,0.781374 -0.025,0.9 0.0735906,-0.0747913 0.0570118,-0.757079 0.0583307,-0.9 0,-0.00920472 -0.00746063,-0.0166654 -0.0166654,-0.0166654 -0.00920472,0 -0.0166654,0.00746063 -0.0166654,0.0166654z"/>
      <path id="_210211152" class="fil7" d="M3.78955 2.72035c0.392425,0.261957 0.666783,0.282925 1.09148,0.610417l0.0428504 0.034126 2.3622e-005 -2.3622e-005c-0.341236,-0.348528 -0.731016,-0.408193 -1.11567,-0.672126 -0.00762205,-0.00516142 -0.0179843,-0.00316142 -0.0231457,0.00446063 -0.00516142,0.00762205 -0.00316142,0.0179843 0.00446063,0.0231457z"/>
      <path id="_210210864" class="fil7" d="M4.75723 3.23988c0.0023622,0.405957 0.339362,0.948165 0.433331,1.36667 -0.058252,-0.432496 -0.402492,-0.938638 -0.4,-1.36667 0,-0.00920472 -0.00746063,-0.0166654 -0.0166654,-0.0166654 -0.00920472,0 -0.0166654,0.00746063 -0.0166654,0.0166654z"/>
      <path id="_210211440" class="fil7" d="M3.85193 3.49947c0.0831929,0.0668425 0.73172,0.579051 0.755291,0.582087l7.87402e-006 -1.5748e-005c-0.00545669,-0.00302362 -0.00987008,-0.00470866 -0.0141811,-0.0088189 -0.20022,-0.190823 -0.491098,-0.422209 -0.713858,-0.592433 -0.00529528,-0.00752756 -0.0156929,-0.00933465 -0.0232205,-0.00403937 -0.00752756,0.00529528 -0.00933465,0.0156929 -0.00403937,0.0232205z"/>
      <path id="_210210960" class="fil7" d="M4.29056 3.83155c0.198937,-0.00301969 0.339921,0.0694606 0.541665,0.0833346 -0.184433,-0.0402126 -0.354394,-0.113823 -0.541665,-0.116665 -0.00920472,0 -0.0166654,0.00746063 -0.0166654,0.0166654 0,0.00920472 0.00746063,0.0166654 0.0166654,0.0166654z"/>
      <path id="_210209976" class="fil7" d="M4.39889 3.95655c0.033689,0.347882 0.212803,0.758795 0.3,1.125 -0.0618071,-0.400933 -0.235689,-0.749665 -0.266669,-1.125 0,-0.00920472 -0.00746063,-0.0166654 -0.0166654,-0.0166654 -0.00920472,0 -0.0166654,0.00746063 -0.0166654,0.0166654z"/>
      <path id="_210210600" class="fil7" d="M4.57724 4.68324c0.150346,0.127535 0.627256,0.398591 0.813315,0.456646 -0.198063,-0.0944331 -0.627469,-0.339768 -0.786685,-0.476693 -0.00553543,-0.00735433 -0.0159843,-0.00882677 -0.0233386,-0.00329134 -0.00735433,0.00553543 -0.00882677,0.0159843 -0.00329134,0.0233386z"/>
      <path id="_210210408" class="fil7" d="M4.28671 2.42626c0.175248,0.17161 0.385866,0.365138 0.570512,0.521953 -0.112138,-0.146335 -0.392843,-0.387886 -0.546157,-0.544709 -0.00628346,-0.00672441 -0.0168307,-0.00708268 -0.0235551,-0.000799213 -0.00672441,0.00628346 -0.00708268,0.0168307 -0.000799213,0.0235551z"/>
     </g>
    </g>
   </g>
  </g>
  <rect class="fil8" width="6.82666" height="6.82666"/>
 </g>
</svg>
