<?xml version="1.0" encoding="UTF-8"?>
<!DOCTYPE svg PUBLIC "-//W3C//DTD SVG 1.1//EN" "http://www.w3.org/Graphics/SVG/1.1/DTD/svg11.dtd">
<!-- Creator: CorelDRAW -->
<svg xmlns="http://www.w3.org/2000/svg" xml:space="preserve" width="6.82666in" height="6.82666in" style="shape-rendering:geometricPrecision; text-rendering:geometricPrecision; image-rendering:optimizeQuality; fill-rule:evenodd; clip-rule:evenodd"
viewBox="0 0 6.82666 6.82666"
 xmlns:xlink="http://www.w3.org/1999/xlink">
 <defs>
  <style type="text/css">
   <![CDATA[
    .fil6 {fill:none}
    .fil5 {fill:#558B2F}
    .fil4 {fill:#689F38}
    .fil2 {fill:#2A5918;fill-rule:nonzero}
    .fil1 {fill:#33691E;fill-rule:nonzero}
    .fil0 {fill:#558B2F;fill-rule:nonzero}
    .fil3 {fill:#689F38;fill-rule:nonzero}
   ]]>
  </style>
 </defs>
 <g id="Layer_x0020_1">
  <metadata id="CorelCorpID_0Corel-Layer"/>
  <g id="_352365160">
   <path id="_352366648" class="fil0" d="M3.80919 5.38944c0.000637795,-0.00127953 0.0018189,-0.00370079 0.00343701,-0.00718504l-0.0996693 -0.0445157c0.145661,-0.288287 0.0404724,-0.624516 -0.185839,-0.836098 -0.060185,-0.0562677 -0.12976,-0.111917 -0.205587,-0.172563 -0.199654,-0.159685 -0.440555,-0.352362 -0.674315,-0.67978 -0.161272,-0.225886 -0.26472,-0.50448 -0.331079,-0.772504 -0.00270079,-0.0921772 0.0325236,-0.184205 0.0496181,-0.275551 0.0561654,0.327083 0.163744,0.707559 0.369559,0.995835 0.190374,0.26665 0.35539,0.44774 0.52852,0.589 -0.327319,-0.459429 -0.511213,-1.01537 0.411677,-1.87713 0.0947126,-0.0884409 0.150394,-0.222744 0.174945,-0.360768 0.0293898,-0.165197 -0.0478425,-0.531929 -0.0958189,-0.640012 0.194728,0.175331 0.330791,0.288008 0.330791,0.596984 0,0.248043 0.0980866,0.392594 0.198969,0.541264 0.0960827,0.141598 0.194512,0.286654 0.226091,0.520701 0.0226457,0.167862 -0.0135512,0.307173 -0.0617283,0.492567 -0.0604843,0.232764 -0.140728,0.541543 -0.140728,1.07781 0,0.353657 -0.236835,0.649831 -0.495791,0.865807l0 -0.0105472c0,-0.00174803 -0.00134252,-0.0031811 -0.00305118,-0.00332283z"/>
   <path id="_352366672" class="fil1" d="M3.21606 1.13391c0.214303,0 0.39585,0.0761339 0.551051,0.184114 0.0487559,0.10313 0.14639,0.475862 0.115882,0.64735 -0.0250669,0.140937 -0.0819252,0.278075 -0.178638,0.368386 -0.94237,0.879945 -0.722689,1.44124 -0.388461,1.91037 -0.176783,-0.14424 -0.377189,-0.322776 -0.571583,-0.595055 -0.341945,-0.478941 -0.418331,-1.20712 -0.435118,-1.54419l0 -0.183453c0,-0.218965 0.102728,-0.416795 0.268815,-0.559626 0.163724,-0.140811 0.389358,-0.227902 0.638051,-0.227902z"/>
   <path id="_352366744" class="fil2" d="M3.21606 1.13391c0.0512402,0 0.100602,0.0043622 0.148185,0.0124606 0.00768504,0.0101772 0.0119016,0.0212126 0.0119016,0.0327362 0,0.0512008 -0.0830157,0.0927047 -0.185417,0.0927047 -0.102402,0 -0.185417,-0.0415039 -0.185417,-0.0927047 0,-0.00874016 0.00242126,-0.0171929 0.00694094,-0.0252087 0.0655276,-0.0130748 0.133752,-0.0199882 0.203807,-0.0199882z"/>
   <path id="_352366792" class="fil0" d="M3.13739 0.853331c0,-0.0294528 0.0238819,-0.0533346 0.0533346,-0.0533346 0.0294528,0 0.0533346,0.0238819 0.0533346,0.0533346l0 0.304709c0,0.0294528 -0.0238819,0.0533346 -0.0533346,0.0533346 -0.0294528,0 -0.0533346,-0.0238819 -0.0533346,-0.0533346l0 -0.304709z"/>
   <path id="_352365664" class="fil3" d="M3.89537 5.36717c-0.366272,0.303484 -0.8465,0.527843 -1.30233,0.658508 -0.222469,-0.19772 -0.276902,-0.593425 -0.276902,-0.870445 -0.0365,-0.901783 -0.180799,-1.87946 0.0333307,-2.63081 0.0991732,0.291098 0.145815,0.755858 0.315957,0.994165 0.246618,0.345429 0.500772,0.548701 0.711406,0.717169 0.209055,0.167201 0.384724,0.303571 0.458543,0.579024 0.0272323,0.101594 0.092374,0.466339 0.0599961,0.552386z"/>
   <path id="_352365640" class="fil4" d="M4.01864 2.64266c-0.0410433,0.436846 -0.303921,0.746819 -0.592016,1.05976 -0.0261024,0.00901181 -0.0545669,-0.00484646 -0.0635787,-0.0309488 -0.00901181,-0.0261024 0.00484646,-0.0545669 0.0309488,-0.0635787 0.0400276,-0.0674016 0.0240079,-0.0456181 0.0871299,-0.121551 0.225087,-0.270768 0.403,-0.478705 0.437516,-0.843685 0,-0.0276142 0.0223858,-0.05 0.05,-0.05 0.0276142,0 0.05,0.0223858 0.05,0.05z"/>
   <path id="_352365976" class="fil4" d="M4.10613 3.35437c0.00404331,0.257969 -0.243961,0.531508 -0.40039,0.708181 -0.0155906,0.0227913 -0.0467047,0.0286299 -0.0694961,0.0130394 -0.0227913,-0.0155906 -0.0286299,-0.0467047 -0.0130394,-0.0694961 0.138508,-0.160925 0.386567,-0.418669 0.382941,-0.650157 -0.000433071,-0.0276102 0.0215984,-0.0503425 0.0492087,-0.0507756 0.0276102,-0.000433071 0.0503425,0.0215984 0.0507756,0.0492087z"/>
   <path id="_352365712" class="fil4" d="M3.82403 4.46221c-0.0269016,-0.00622441 -0.0436654,-0.0330827 -0.0374409,-0.0599843 0.0654843,-0.0744291 0.351843,-0.472457 0.359984,-0.471976 0.0275669,0.00162205 0.0485984,0.0252835 0.0469764,0.0528504 -0.0270512,0.116661 -0.263378,0.503669 -0.36952,0.47911z"/>
   <path id="_352365040" class="fil5" d="M2.62621 4.10485c0.0702087,0.251945 0.476307,0.460287 0.710591,0.525697l0.0034252 -0.000271654c0.0275512,-0.00188189 0.0514094,0.0189291 0.0532913,0.0464803 0.00188189,0.0275512 -0.0189291,0.0514094 -0.0464803,0.0532913 -0.0130827,0.0010315 -0.0179764,0.0013937 -0.0312913,-0.00157087 -0.273791,-0.0609567 -0.707807,-0.316941 -0.788031,-0.606343 -0.00477165,-0.0272008 0.0134055,-0.0531181 0.0406063,-0.0578898 0.0272008,-0.00477165 0.0531181,0.0134055 0.0578898,0.0406063z"/>
   <path id="_352364776" class="fil5" d="M2.62123 4.73191c0.154551,0.249071 0.329358,0.294882 0.622406,0.306587 0.0276142,0 0.05,0.0223858 0.05,0.05 0,0.0276142 -0.0223858,0.05 -0.05,0.05 -0.339024,-0.0145276 -0.531437,-0.071122 -0.710933,-0.360083 -0.0128425,-0.0244449 -0.00343307,-0.0546732 0.0210118,-0.0675157 0.0244449,-0.0128425 0.0546732,-0.00343307 0.0675157,0.0210118z"/>
   <path id="_352365184" class="fil5" d="M2.75265 5.27026c0.111173,0.139114 0.244803,0.153555 0.41598,0.16824 0.0276142,0 0.05,0.0223858 0.05,0.05 0,0.0276142 -0.0223858,0.05 -0.05,0.05 -0.219913,-0.0187953 -0.360551,-0.0392559 -0.500689,-0.215098 -0.0146732,-0.0233898 -0.0076063,-0.054252 0.0157835,-0.0689252 0.0233898,-0.0146732 0.054252,-0.0076063 0.0689252,0.0157835z"/>
  </g>
  <rect class="fil6" width="6.82666" height="6.82666"/>
 </g>
</svg>
