<?xml version="1.0" encoding="UTF-8"?>
<!DOCTYPE svg PUBLIC "-//W3C//DTD SVG 1.1//EN" "http://www.w3.org/Graphics/SVG/1.1/DTD/svg11.dtd">
<!-- Creator: CorelDRAW -->
<svg xmlns="http://www.w3.org/2000/svg" xml:space="preserve" width="6.82666in" height="6.82666in" style="shape-rendering:geometricPrecision; text-rendering:geometricPrecision; image-rendering:optimizeQuality; fill-rule:evenodd; clip-rule:evenodd"
viewBox="0 0 6.82666 6.82666"
 xmlns:xlink="http://www.w3.org/1999/xlink">
 <defs>
  <style type="text/css">
   <![CDATA[
    .fil6 {fill:none}
    .fil4 {fill:#212121}
    .fil3 {fill:#E1F5FE}
    .fil0 {fill:#522D0C;fill-rule:nonzero}
    .fil1 {fill:#5E3B1C;fill-rule:nonzero}
    .fil5 {fill:#673B15;fill-rule:nonzero}
    .fil2 {fill:#78502E;fill-rule:nonzero}
   ]]>
  </style>
 </defs>
 <g id="Layer_x0020_1">
  <metadata id="CorelCorpID_0Corel-Layer"/>
  <g id="_352367080">
   <g>
    <g>
     <path id="_352368760" class="fil0" d="M2.50383 2.26066l-0.46072 -0.427012 -0.00818898 -0.00765748 -0.00183465 -0.00719291 -0.104496 -0.417949c-0.00347638,-0.0139803 0.00500394,-0.0281732 0.0190354,-0.0317008 0.0139764,-0.00348819 0.0281693,0.00504331 0.0316969,0.0190236l0.104461 0.417961 -0.0100236 -0.014811 0.549406 0.304453c0.0495551,0.0274291 0.0674921,0.0898268 0.0400276,0.13937 -0.0274409,0.0495551 -0.0898386,0.0674016 -0.139382,0.0400118 -0.00722835,-0.00404331 -0.0142047,-0.00922441 -0.0199803,-0.0144961z"/>
     <path id="_352368664" class="fil0" d="M2.53714 3.41888l-0.588992 -0.400031 0.0333937 -0.00555906 -0.452748 0.539827 -0.00783465 0.0093622 -0.012185 0 -0.434291 0.000255906c-0.0143701,0 -0.026122,-0.0117165 -0.026122,-0.026126 0,-0.0144094 0.0117126,-0.026126 0.026122,-0.026126l0.434291 -0.00026378 -0.0199921 0.00932677 0.452795 -0.539839 0.0134606 -0.0161535 0.0199803 0.0105433 0.630091 0.331437c0.0323937,0.0170236 0.0447559,0.0570394 0.0277835,0.0893937 -0.0170276,0.0323937 -0.0570394,0.0447559 -0.0893937,0.0277795 -0.00222441,-0.00117323 -0.00440157,-0.00248819 -0.00635827,-0.00382677z"/>
     <path id="_352368904" class="fil0" d="M2.61107 4.21277l-0.711295 -0.338492 0.0354764 -0.0213346 -0.182835 1.59344 -0.0012126 0.0105039 -0.00818898 0.00674803 -0.286244 0.23526c-0.0110945,0.00909843 -0.0276024,0.00751969 -0.036752,-0.00362992 -0.0091378,-0.0111339 -0.00757087,-0.0276024 0.00361417,-0.0367913l0.286205 -0.235205 -0.00936614 0.0171102 0.182835 -1.5934 0.00366535 -0.0313937 0.0318622 0.0100079 0.751626 0.236169c0.0428425,0.0134606 0.0666181,0.0591339 0.0532087,0.10198 -0.0135,0.0428465 -0.0591378,0.0667087 -0.10202,0.0532087 -0.00352756,-0.00108661 -0.0073189,-0.00266535 -0.0105787,-0.0041811z"/>
    </g>
    <g>
     <path id="_352368328" class="fil0" d="M4.22161 3.30553l0.630094 -0.331437 0.0199803 -0.0105433 0.0134606 0.0161535 0.452783 0.539839 -0.0200197 -0.00932677 0.434315 0.00026378c0.0144213,0 0.0260866,0.0117165 0.0260866,0.026126 0,0.0144094 -0.0117126,0.026126 -0.0260866,0.026126l-0.434315 -0.000255906 -0.0121969 0 -0.00779921 -0.0093622 -0.452744 -0.539827 0.0334055 0.00555906 -0.588992 0.400031c-0.0302205,0.0205 -0.0713701,0.0126614 -0.0919606,-0.0175945 -0.0205118,-0.0302205 -0.012626,-0.0713701 0.0176339,-0.0919213 0.00204724,-0.00138976 0.0041811,-0.00265354 0.00635433,-0.00383071z"/>
     <path id="_352367704" class="fil0" d="M4.15625 4.06176l0.751614 -0.236169 0.031874 -0.0100079 0.00361417 0.0313937 0.18287 1.5934 -0.00940157 -0.0171102 0.28624 0.235205c0.0112008,0.00918898 0.0127677,0.0256575 0.00361811,0.0367913 -0.00918898,0.0111496 -0.0256457,0.0127283 -0.0367953,0.00362992l-0.286201 -0.23526 -0.00817717 -0.00674803 -0.00122835 -0.0105039 -0.18287 -1.59344 0.0355276 0.0213346 -0.711295 0.338492c-0.040622,0.0193228 -0.0891299,0.00208268 -0.108413,-0.0384488 -0.0193386,-0.0405827 -0.00209843,-0.0890906 0.0384843,-0.108413 0.00331102,-0.00161811 0.00718898,-0.00309843 0.0105394,-0.00414567z"/>
     <path id="_352367944" class="fil0" d="M4.2035 2.09578l0.549445 -0.304453 -0.0100472 0.014811 0.104496 -0.417961c0.00352756,-0.0139803 0.0177205,-0.0225118 0.0316969,-0.0190236 0.0140157,0.00352756 0.0225118,0.0177205 0.0190236,0.0317008l-0.1045 0.417949 -0.00183071 0.00719291 -0.00821654 0.00765748 -0.460681 0.427012c-0.0415315,0.0384488 -0.106366,0.0360079 -0.144902,-0.00552362 -0.0384488,-0.0415433 -0.0360079,-0.106378 0.00551969,-0.144913 0.00605512,-0.00561417 0.013122,-0.0106181 0.0199961,-0.0144488z"/>
    </g>
   </g>
   <path id="_352368256" class="fil1" d="M4.41379 2.44654c0,1.77411 -0.447878,3.52679 -1.00046,3.52679 -0.552642,0 -1.00046,-1.89268 -1.00046,-3.52679 0,-0.347854 0.447819,-0.629787 1.00046,-0.629787 0.552579,0 1.00046,0.281933 1.00046,0.629787z"/>
   <path id="_352368112" class="fil2" d="M2.88926 1.91024c-0.285472,0.110894 -0.47639,0.309016 -0.47639,0.535732 0,1.07435 0.193575,2.26033 0.483264,2.94686 0.281949,-0.661043 0.469579,-1.79913 0.469579,-2.94686 0,-0.226717 -0.190917,-0.424839 -0.476453,-0.535732z"/>
   <path id="_352368088" class="fil2" d="M3.9374 1.91024c-0.28552,0.110894 -0.476437,0.309016 -0.476437,0.535732 0,1.07435 0.193622,2.26033 0.483295,2.94686 0.281965,-0.661043 0.469531,-1.79913 0.469531,-2.94686 0,-0.226717 -0.190917,-0.424839 -0.47639,-0.535732z"/>
   <path id="_352367776" class="fil0" d="M3.63322 1.34584c0.0609055,0.0293898 0.105433,0.0725315 0.136555,0.126843 0.0342717,0.0597992 0.0515787,0.132551 0.0562598,0.214846 0.00015748,0.00282677 0.00570079,0.00218898 0.0116299,0.00725591 0.00861811,0.00737008 0.0173031,0.0147874 0.0251693,0.0252992 0.0274843,0.0367205 0.0313386,0.0798346 -0.0561772,0.145339 -0.109791,0.0821772 -0.249693,0.118268 -0.386177,0.118268 -0.150244,0 -0.297831,-0.0438465 -0.397437,-0.11811 -0.0988346,-0.073689 -0.0852756,-0.12402 -0.0518661,-0.168835 0.00484252,-0.00649213 0.0113661,-0.0137913 0.0178268,-0.0210236 0.0086063,-0.00962992 0.017063,-0.0190906 0.0174685,-0.0229488 0.00781496,-0.0739528 0.027189,-0.139311 0.0616142,-0.19335 0.0306693,-0.0481457 0.0727047,-0.0866654 0.128394,-0.113571 0.000814961,-0.061563 0.0226969,-0.116941 0.0574646,-0.15852 0.0362283,-0.0433268 0.0866063,-0.0717402 0.142228,-0.0770197 0.00711417,-0.000677165 0.0133583,-0.00101969 0.0186772,-0.00101969 0.00531496,0 0.0115591,0.00034252 0.0186772,0.00101969 0.055622,0.00527953 0.106004,0.0336929 0.142228,0.0770197 0.0347677,0.0415748 0.0566496,0.0969528 0.0574646,0.158508z"/>
   <g>
    <ellipse id="_352367848" class="fil3" transform="matrix(0.78547 0.273543 -0.273543 0.78547 3.1943 1.5628)" rx="0.122917" ry="0.181248"/>
    <ellipse id="_352368376" class="fil3" transform="matrix(-0.78547 0.273543 0.273543 0.78547 3.63236 1.5628)" rx="0.122917" ry="0.181248"/>
   </g>
   <ellipse id="_352367344" class="fil4" transform="matrix(0.486501 0.169426 -0.169426 0.486501 3.1943 1.5628)" rx="0.122917" ry="0.181248"/>
   <ellipse id="_352367440" class="fil4" transform="matrix(-0.486501 0.169426 0.169426 0.486501 3.63236 1.5628)" rx="0.122917" ry="0.181248"/>
   <g>
    <path id="_352367560" class="fil5" d="M3.56599 0.855358c0,0 0.0037874,0.00375984 0.0105157,0.0103307 0.00655118,0.00612205 0.0164331,0.0176457 0.0257402,0.0314055 0.00495276,0.00688583 0.00962992,0.0147362 0.0139882,0.0234606 0.00502362,0.00841732 0.00816929,0.0182283 0.0124803,0.028063 0.00294882,0.0102008 0.00685039,0.0207205 0.00864961,0.0319016 0.00264961,0.0110472 0.00340551,0.0225236 0.00461024,0.0340906 4.72441e-005,0.0115433 0.000598425,0.0232283 -0.000885827,0.0346417 -0.00057874,0.0115236 -0.00331496,0.0225669 -0.00525197,0.0334488 -0.00322047,0.0105197 -0.0055,0.0211102 -0.00970079,0.0304213 -0.00350787,0.00955906 -0.00752756,0.0183504 -0.0119331,0.0261535 -0.00392126,0.00811811 -0.00851181,0.0149213 -0.0125709,0.0209882 -0.00388189,0.00625197 -0.00764567,0.0113661 -0.0110906,0.0153622 -0.00666142,0.00814567 -0.0104961,0.0128228 -0.0104961,0.0128228 -0.00955906,0.0117283 -0.0268346,0.0134646 -0.0385197,0.00392126 -0.011748,-0.00957874 -0.0135118,-0.0268346 -0.0039252,-0.0385827 0.000661417,-0.000822835 0.00137008,-0.00159843 0.00209843,-0.00230709l0.00173622 -0.00166929c0,0 0.00337795,-0.00328346 0.00930709,-0.00903543 0.0031063,-0.00275984 0.0065748,-0.00642913 0.0101339,-0.0109724 0.00376772,-0.00437795 0.00812598,-0.00933465 0.0119134,-0.0154016 0.00431496,-0.00577559 0.00834646,-0.0124173 0.0120945,-0.019811 0.00440157,-0.00709449 0.00702362,-0.0154449 0.0108858,-0.023752 0.00250787,-0.00869685 0.00604724,-0.0176181 0.00759449,-0.0271299 0.00241732,-0.0094252 0.00305512,-0.0192362 0.00426772,-0.0290984 2.75591e-005,-0.00988189 0.000708661,-0.0198701 -0.000523622,-0.0296417 -0.000366142,-0.00992913 -0.00273622,-0.0193465 -0.00420079,-0.0287283 -0.00277953,-0.0089685 -0.00449606,-0.0181417 -0.00809843,-0.0260827 -0.00294094,-0.00825984 -0.0063189,-0.0158386 -0.010063,-0.0225472 -0.00328346,-0.0070748 -0.00711811,-0.0127559 -0.0104528,-0.0179094 -0.00312598,-0.00522441 -0.00638976,-0.00974409 -0.00953543,-0.013374 -0.00588976,-0.00734646 -0.00924803,-0.0115236 -0.00924803,-0.0115236 -0.00243701,-0.00305512 -0.00193307,-0.00748425 0.00109843,-0.00992913 0.00283071,-0.00223228 0.00682283,-0.00200787 0.00938189,0.000484252z"/>
    <path id="_352367512" class="fil5" d="M3.26068 0.855358c0,0 -0.00379134,0.00375984 -0.0105197,0.0103307 -0.00655118,0.00612205 -0.0164331,0.0176457 -0.0257402,0.0314055 -0.00495276,0.00688583 -0.00962992,0.0147362 -0.0139882,0.0234606 -0.00502362,0.00841732 -0.00816929,0.0182283 -0.0124803,0.028063 -0.00294882,0.0102008 -0.00685039,0.0207205 -0.00864961,0.0319016 -0.00264961,0.0110472 -0.00340551,0.0225236 -0.00461024,0.0340906 -4.72441e-005,0.0115433 -0.000598425,0.0232283 0.000885827,0.0346417 0.00057874,0.0115236 0.00331496,0.0225669 0.00525591,0.0334488 0.00321654,0.0105197 0.00549606,0.0211102 0.00969685,0.0304213 0.00350787,0.00955906 0.00752756,0.0183504 0.0119331,0.0261535 0.00392126,0.00811811 0.00851181,0.0149213 0.0125709,0.0209882 0.00388189,0.00625197 0.00764567,0.0113661 0.0110906,0.0153622 0.00666142,0.00814567 0.0104961,0.0128228 0.0104961,0.0128228 0.00955906,0.0117283 0.0268346,0.0134646 0.0385197,0.00392126 0.011748,-0.00957874 0.0135118,-0.0268346 0.0039252,-0.0385827 -0.000661417,-0.000822835 -0.00137008,-0.00159843 -0.00209843,-0.00230709l-0.00173622 -0.00166929c0,0 -0.00337795,-0.00328346 -0.00930709,-0.00903543 -0.0031063,-0.00275984 -0.0065748,-0.00642913 -0.0101339,-0.0109724 -0.00376772,-0.00437795 -0.00812598,-0.00933465 -0.0119134,-0.0154016 -0.00431496,-0.00577559 -0.00834646,-0.0124173 -0.0120945,-0.019811 -0.00440157,-0.00709449 -0.00702362,-0.0154449 -0.0108858,-0.023752 -0.00250787,-0.00869685 -0.00604724,-0.0176181 -0.00759449,-0.0271299 -0.00241732,-0.0094252 -0.00305512,-0.0192362 -0.00426772,-0.0290984 -2.75591e-005,-0.00988189 -0.000708661,-0.0198701 0.000523622,-0.0296417 0.000366142,-0.00992913 0.00273622,-0.0193465 0.00420079,-0.0287283 0.00277953,-0.0089685 0.00449606,-0.0181417 0.00809843,-0.0260827 0.00294094,-0.00825984 0.0063189,-0.0158386 0.010063,-0.0225472 0.00328346,-0.0070748 0.00712205,-0.0127559 0.0104528,-0.0179094 0.00312598,-0.00522441 0.00638976,-0.00974409 0.00953543,-0.013374 0.00588976,-0.00734646 0.00924803,-0.0115236 0.00924803,-0.0115236 0.00243701,-0.00305512 0.00193307,-0.00748425 -0.00109843,-0.00992913 -0.00283071,-0.00223228 -0.00682283,-0.00200787 -0.00937795,0.000484252z"/>
   </g>
  </g>
  <rect class="fil6" width="6.82666" height="6.82666"/>
 </g>
</svg>
