<?xml version="1.0" encoding="UTF-8"?>
<!DOCTYPE svg PUBLIC "-//W3C//DTD SVG 1.1//EN" "http://www.w3.org/Graphics/SVG/1.1/DTD/svg11.dtd">
<!-- Creator: CorelDRAW -->
<svg xmlns="http://www.w3.org/2000/svg" xml:space="preserve" width="6.82666in" height="6.82666in" style="shape-rendering:geometricPrecision; text-rendering:geometricPrecision; image-rendering:optimizeQuality; fill-rule:evenodd; clip-rule:evenodd"
viewBox="0 0 6.82666 6.82666"
 xmlns:xlink="http://www.w3.org/1999/xlink">
 <defs>
  <style type="text/css">
   <![CDATA[
    .fil9 {fill:none}
    .fil6 {fill:#424242}
    .fil4 {fill:#A5D6A7}
    .fil2 {fill:#CCB4AA}
    .fil3 {fill:#D4C1B9}
    .fil7 {fill:#E0E0E0}
    .fil1 {fill:#E1D1CA}
    .fil8 {fill:#EDE0DA}
    .fil5 {fill:#212121;fill-rule:nonzero}
    .fil0 {fill:#CCB4AA;fill-rule:nonzero}
   ]]>
  </style>
 </defs>
 <g id="Layer_x0020_1">
  <metadata id="CorelCorpID_0Corel-Layer"/>
  <path class="fil0" d="M1.18335 2.99478c0.00460236,0.0289921 -0.0151732,0.0562323 -0.0441654,0.0608346 -0.0289921,0.00460236 -0.0562323,-0.0151732 -0.0608346,-0.0441654 -0.0233346,-0.14611 -0.0250394,-0.274213 -0.0105551,-0.385217 0.0164291,-0.125941 0.0537008,-0.230161 0.104008,-0.31402 0.0950472,-0.158433 0.240476,-0.247583 0.395843,-0.27387 0.0707087,-0.0119646 0.143394,-0.0108071 0.214185,0.00284252 0.070626,0.0136181 0.139531,0.0397402 0.202866,0.0777323 0.149071,0.0894331 0.26674,0.244256 0.302606,0.456232 0.0918465,0.542843 -0.279335,1.12626 -0.612748,1.65032 -0.310484,0.488016 -0.586602,0.92202 -0.399067,1.18294 0.0434764,0.0604921 0.0942205,0.108634 0.149496,0.145937 0.123492,0.0833307 0.270004,0.112106 0.409098,0.103417 0.139713,-0.00873228 0.270953,-0.054937 0.363559,-0.121496 0.0378307,-0.0271929 0.0688622,-0.0577126 0.0908189,-0.090248 0.0164528,-0.0243898 0.0495669,-0.0308268 0.0739567,-0.014374 0.0243898,0.0164528 0.0308268,0.0495669 0.014374,0.0739567 -0.028815,0.0427008 -0.0688031,0.0822244 -0.117071,0.116917 -0.108087,0.077685 -0.259563,0.131508 -0.419386,0.141496 -0.160445,0.0100236 -0.330343,-0.0237717 -0.474933,-0.121339 -0.0649488,-0.0438268 -0.124724,-0.100618 -0.176165,-0.172189 -0.229516,-0.319323 0.0647992,-0.781929 0.395736,-1.30209 0.322933,-0.507587 0.682449,-1.07267 0.597331,-1.57575 -0.030185,-0.178398 -0.128209,-0.308098 -0.252189,-0.382476 -0.0524055,-0.031437 -0.109571,-0.0530787 -0.168283,-0.0644016 -0.0585433,-0.0112874 -0.118508,-0.0122677 -0.176689,-0.0024252 -0.126169,0.0213465 -0.244469,0.0940709 -0.322087,0.223453 -0.043252,0.0721024 -0.0754252,0.162661 -0.0898425,0.273185 -0.0132205,0.101335 -0.0115157,0.219228 0.0101378,0.354799z"/>
  <path class="fil1" d="M5.14435 1.35893c0.00728346,0.00381102 0.0153425,0.0080315 0.0240591,0.0126496 0.0911142,0.0483071 0.254051,0.140748 0.350283,0.273134 0.0385079,0.0529488 0.0515394,0.101315 0.0652874,0.152346 0.0202165,0.0750276 0.0331929,0.108138 0.0823307,0.168386 0.00659449,0.00808661 0.0130984,0.0160591 0.0216378,0.0272992 0.0317559,0.0417953 0.0555157,0.092189 0.0704764,0.146016 0.0339921,0.122331 -0.0755,0.417925 -0.11502,0.447949 -0.0278386,0.0211575 -0.0599213,0.0376654 -0.0963898,0.0482205 -0.0610394,0.0242835 -0.112346,0.0396181 -0.156358,0.0527598 -0.0649094,0.0193898 -0.111689,0.0333701 -0.137008,0.0608425 -0.195736,0.212394 0.367898,0.535862 -0.219177,1.34578 -0.0969094,0.133693 -0.188114,0.259528 -0.214768,0.364945 -0.00553543,0.0219094 -0.021315,0.0051811 -0.020748,0.0252205 0.0326693,0.0609606 0.0459055,0.254606 0.0829449,0.398945 0.0260276,0.101429 0.0529724,0.188524 0.0700079,0.206303 0.00038189,0.000397638 0.0235512,0.00719685 0.050689,0.0158071 0.0466417,0.0147992 0.100083,0.0317638 0.131016,0.0586457 0.0323858,0.0281654 0.0508465,0.0693819 0.0520394,0.117835 0.000984252,0.0402559 -0.0101575,0.0856772 -0.0356457,0.131882 -0.0228465,0.0414016 -0.0754724,0.0709016 -0.144787,0.102327 -0.168508,-0.0685354 -0.292394,-0.288559 -0.391406,-0.496232 -0.041937,-0.0879567 -0.0820709,-0.17213 -0.125055,-0.241012 -0.00970472,-0.0156024 -0.0302323,-0.0203819 -0.0458346,-0.0106772 -0.0156024,0.00970472 -0.0203819,0.0302323 -0.0106772,0.0458346 0.040689,0.0652087 0.0801654,0.147992 0.121409,0.2345 0.118539,0.24863 0.178268,0.555417 0.417831,0.589319 0.00624803,0.00652362 0.0110315,0.013122 0.0139606,0.019748 0.0152638,0.0345276 0.0185827,0.0821693 0.00840551,0.123689 -0.00994882,0.0405984 -0.0327047,0.0775276 -0.0698504,0.0969134 -0.0283189,0.0147717 -0.0229724,0.0108858 -0.0945315,0.0181299 -0.0804094,0.00814567 -0.16978,-0.00144882 -0.211386,-0.00558268 -0.162205,-0.0161299 -0.39628,-0.330843 -0.584059,-0.583323 -0.0685709,-0.0921929 -0.130665,-0.175677 -0.178004,-0.230035 -0.00752756,0.00206299 -0.215661,0.228591 -0.361362,0.244827 0.108949,0.0586496 -0.045315,0.302748 0.308469,0.303677 0.0936457,0.000244094 0.179071,0.000476378 0.249043,0.117465l0.00624803 0.0158346c0.0129685,0.0586457 -0.000629921,0.111551 -0.0306693,0.155748 -0.0316024,0.0464961 -0.0817362,0.0823622 -0.137055,0.103622 -0.018378,0.00705906 -0.18811,0.00951181 -0.391744,0.00951181 -0.305846,0 -0.698835,-0.00366142 -0.74637,-0.00596457 -0.174996,-0.00850394 -0.293236,-0.115717 -0.372331,-0.261051 -0.109902,-0.201961 -0.142059,-0.479598 -0.146661,-0.65148l0 -0.00103937c-0.00227559,-0.382945 0.0286102,-0.778988 0.136697,-1.14455 0.109213,-0.369366 0.296811,-0.707307 0.607504,-0.969346 0.57252,-0.482862 0.866815,-0.326575 1.10794,-0.893 0.174921,-0.410913 0.311685,-0.918516 0.679996,-0.893193 0.0456339,-0.0692323 0.0959016,-0.132079 0.151626,-0.192508 0.0628622,-0.0681654 0.131886,-0.132598 0.208594,-0.199319l0.000208661 0c0.0302165,-0.0262756 0.0573583,-0.023626 0.0817402,0.00436614l0 0.000208661c0.0364921,0.0419843 -0.0424134,0.415307 -0.068815,0.535791 0.00145276,0.000181102 0.00318504,0.000744094 0.00527165,0.00183465z"/>
  <path class="fil2" d="M4.12284 2.01215c0.0047126,-0.0116299 0.00941339,-0.0232992 0.0141063,-0.0349961l0.00180709 -0.00080315c0.0897323,0.160772 0.283622,0.0237992 0.421657,0.0695157 0.30276,0.100276 0.262559,0.00894882 0.422492,0.0518386 -0.228839,-0.0123543 -0.118413,0.0635354 -0.431681,-0.0306024 -0.132244,-0.0397441 -0.315874,0.0994606 -0.428382,-0.0549528z"/>
  <path class="fil2" d="M4.01688 2.24212c0.00544488,-0.00954724 0.0108386,-0.0194646 0.0162165,-0.0295748 0.239331,0.217524 0.417236,0.0178661 0.532681,0.106059 0.113941,0.0870394 0.175992,-0.0215157 0.338087,0.0911772 0.0201299,0.0139921 0.0249055,0.0152441 0.076437,0.0394685l-7.87402e-006 3.14961e-005c-0.188319,-0.0576732 -0.0311378,-0.0690906 -0.265622,-0.0745709 -0.160453,-0.00374803 -0.167118,-0.0671772 -0.219555,-0.0571575 -0.197429,0.0377283 -0.324839,0.0550748 -0.478236,-0.0754331z"/>
  <path class="fil2" d="M3.87528 2.42835c0.00818898,-0.00790945 0.0162795,-0.0161417 0.0242913,-0.0246654l0.00754331 0c0.00858268,0.280693 0.160925,0.189398 0.434929,0.322374 0.411606,0.199756 0.096248,0.0570787 0.471567,0.0056063 0.0408268,-0.00559843 0.117614,0.0180906 0.160173,0.026185 -0.046311,-0.00236614 -0.122386,-0.0208465 -0.158472,-0.0145591 -0.36752,0.0640039 -0.0675906,0.19726 -0.483307,0.00468898 -0.270882,-0.125476 -0.435457,-0.0433898 -0.456724,-0.31963z"/>
  <path class="fil2" d="M3.4571 2.67896c0.021315,-0.0108268 0.0420787,-0.0211417 0.0623425,-0.031126 0.0175866,0.20861 0.285949,-0.0170866 0.455748,0.17578 0.073752,0.0837717 0.208008,0.141264 0.310272,0.0925787 0.033374,-0.0158898 0.196539,0.0732441 0.229358,0.102705l-3.14961e-005 5.51181e-005c-0.0467717,-0.0108268 -0.200772,-0.0835551 -0.215354,-0.0760984 -0.120465,0.061622 -0.269323,0.00801969 -0.36026,-0.0874134 -0.146937,-0.154201 -0.435122,0.0639488 -0.482075,-0.17648z"/>
  <path class="fil2" d="M2.9721 2.9996c0.00189764,-0.00161417 0.00377953,-0.00324016 0.00568898,-0.00485039 0.0352087,-0.0296969 0.0693583,-0.0569488 0.102516,-0.082126l0.012378 -0.00425984c-0.265157,0.251701 0.399004,0.247709 0.41074,0.250795 0.103343,0.0271496 0.0752874,0.0873307 0.221272,0.118087 0.294122,0.0619646 0.0588858,0.10915 0.32876,0.236307 0.0812913,0.0382992 0.124236,0.0395433 0.204189,0.0489882 -0.211469,0.0260787 -0.323319,-0.0721772 -0.444157,-0.227016 -0.0666378,-0.0135984 -0.159059,-0.018811 -0.212677,-0.0579331 -0.169988,-0.124031 -0.0977087,-0.053063 -0.346059,-0.0781063 -0.20902,-0.0210787 -0.283193,-0.113268 -0.28265,-0.199886z"/>
  <path class="fil2" d="M2.58765 3.45724c0.0131772,-0.0222126 0.026811,-0.0441811 0.0409173,-0.0658937 0.538933,0.00564173 0.392138,0.129693 0.706059,0.528693 0.141902,0.180362 0.295102,0.196583 0.508957,0.244043l-7.87402e-006 6.29921e-005c-0.229118,-0.0201142 -0.383244,-0.0322992 -0.540728,-0.218764 -0.330465,-0.391272 -0.156681,-0.500374 -0.715197,-0.488142z"/>
  <path class="fil2" d="M2.32384 4.14314c0.005,-0.022185 0.010252,-0.0442874 0.015752,-0.0662992 0.245571,-0.00525984 0.279819,-0.261012 0.489,0.0913228 0.164508,0.277094 0.115673,0.42037 0.376165,0.328441 0.315071,-0.111193 0.208882,0.215228 0.527673,0.187421 0.18685,-0.0162992 0.296043,-0.0737441 0.379366,0.146752 -0.203803,-0.34328 -0.420343,0.0656102 -0.640264,-0.212547 -0.238996,-0.302291 -0.358665,0.20637 -0.583154,-0.213913 -0.334134,-0.625563 -0.201933,-0.247437 -0.564539,-0.261177z"/>
  <path class="fil2" d="M2.23359 5.10823c-0.00015748,-0.0268622 -0.000149606,-0.0537874 3.54331e-005,-0.0807598 0.175374,-0.133354 0.310437,-0.201882 0.493248,0.0036811 0.0780748,0.0877953 0.472291,-0.214484 0.514051,-0.0647047 0.0049252,0.0176654 0.0940827,-0.00425197 0.123484,-0.00545669 -0.0522283,0.016315 -0.13524,0.0641417 -0.145744,-0.000275591 -0.207736,-0.022374 -0.418059,0.216461 -0.529224,0.100358 -0.176173,-0.184004 -0.28765,-0.0940394 -0.45585,0.0471575z"/>
  <path class="fil3" d="M4.93546 0.996685c0.000874016,0.0915 -0.00130315,0.197173 -0.00408268,0.277094l0.207894 0.0824094c0.0265945,-0.121441 0.105016,-0.493004 0.0686142,-0.534882l0 -0.000208661c-0.0243819,-0.0279921 -0.0515236,-0.0306417 -0.0817402,-0.00436614l-0.000208661 0c-0.0694094,0.0603701 -0.132524,0.118866 -0.190476,0.179953z"/>
  <path class="fil2" d="M5.00589 1.01462c-0.0286142,0.036 -0.0547047,0.073437 -0.0788031,0.114681 -0.0238819,0.0534291 -0.0527559,0.0868819 -0.0400787,0.0983228 0.0188661,0.0170197 0.11087,0.0363071 0.205295,0.0715354 0.0168583,-0.0727126 0.0746535,-0.375646 0.0587283,-0.400555l3.93701e-006 -0.000122047c-0.010685,-0.0166772 -0.0235433,-0.0182559 -0.0388386,-0.00260236l-9.84252e-005 0c-0.0388346,0.039748 -0.0739291,0.0781299 -0.106209,0.11874z"/>
  <path class="fil4" d="M5.09337 1.76591c0.0446339,0.027311 0.0631575,0.078311 0.041374,0.113906 -0.0217835,0.0355984 -0.075622,0.042315 -0.120256,0.0150039 -0.0446299,-0.027311 -0.0631535,-0.078311 -0.0413701,-0.113906 0.0217795,-0.0355984 0.075622,-0.042315 0.120252,-0.0150039z"/>
  <path class="fil5" d="M5.09604 1.76156c0.0238189,0.0145748 0.0406772,0.0354764 0.0486654,0.0574803 0.00799606,0.0220039 0.00712598,0.0451181 -0.0045,0.0641181 -0.011626,0.0189961 -0.0318071,0.0302874 -0.0550433,0.033185 -0.0232244,0.00289764 -0.0495118,-0.00259449 -0.0733307,-0.0171693 -0.0238189,-0.0145787 -0.0406732,-0.0354803 -0.0486693,-0.0574843 -0.00798819,-0.0220039 -0.00712205,-0.0451181 0.0045,-0.0641142 0.011626,-0.019 0.0318189,-0.0302913 0.0550433,-0.033189 0.0232323,-0.00289764 0.0495157,0.00259449 0.0733346,0.0171732zm0.037189 0.0589134c-0.00697638,-0.0192126 -0.0217047,-0.0374764 -0.0425157,-0.0502087 -0.020811,-0.0127362 -0.0437677,-0.0175394 -0.0640591,-0.0150079 -0.0202835,0.0025315 -0.0379173,0.0123976 -0.0480748,0.0289961 -0.0101575,0.0165984 -0.0109134,0.0367913 -0.00393701,0.0560039 0.00698031,0.0192126 0.0217047,0.0374764 0.0425157,0.0502087 0.020811,0.0127362 0.0437756,0.0175394 0.0640551,0.0150079 0.0202913,-0.0025315 0.0379213,-0.0123976 0.0480787,-0.0289961 0.0101535,-0.0165984 0.0109173,-0.0367913 0.00393701,-0.0560039z"/>
  <path class="fil6" d="M5.08002 1.78773c0.0295236,0.0180669 0.0417756,0.0517953 0.0273661,0.0753425 -0.0144055,0.0235433 -0.0500197,0.0279843 -0.0795394,0.00992126 -0.0295197,-0.018063 -0.0417717,-0.0517953 -0.0273661,-0.0753386 0.0144094,-0.0235472 0.0500197,-0.0279882 0.0795394,-0.0099252z"/>
  <path class="fil7" d="M5.05718 1.79058c0.00738976,0.00451969 0.00970866,0.0141772 0.00518504,0.0215748 -0.00452362,0.0073937 -0.0141811,0.00972441 -0.0215709,0.00520079 -0.00738583,-0.00451969 -0.00970866,-0.0141772 -0.0051811,-0.0215748 0.00452362,-0.0073937 0.0141811,-0.00972441 0.0215669,-0.00520079z"/>
  <path class="fil1" d="M4.72957 0.995138c-0.039685,0.0570433 -0.0745748,0.115539 -0.104917,0.178921 -0.0265315,0.080437 -0.0673858,0.133969 -0.0420866,0.14715 0.0376457,0.0196142 0.203295,0.0257953 0.377657,0.0538031 0.0088622,-0.105921 0.0241575,-0.544378 -0.0105945,-0.575732l-2.3622e-005 -0.000177165c-0.0233071,-0.0209843 -0.0461417,-0.0202795 -0.0683701,0.00517323l-0.000173228 2.3622e-005c-0.0564291,0.064626 -0.10672,0.126492 -0.151492,0.190839z"/>
  <path class="fil3" d="M4.76904 1.06327c-0.0180394,0.0273425 -0.0337874,0.0553346 -0.0473189,0.0855984 -0.0115039,0.0383071 -0.0301457,0.0639961 -0.0179961,0.0700236 0.0180787,0.00896457 0.0965866,0.0104764 0.179496,0.022248 0.00280709,-0.0502205 0.00429134,-0.257925 -0.0125709,-0.272472l-1.1811e-005 -8.26772e-005c-0.011311,-0.00973622 -0.0221102,-0.00920866 -0.0322992,0.0030315l-8.26772e-005 1.1811e-005c-0.0258661,0.0310787 -0.0488661,0.0607953 -0.0692165,0.0916417z"/>
  <path class="fil2" d="M5.64489 2.10011c-0.032374,0.0845748 -0.00333858,0.174299 0.0648465,0.200402 0.0135433,0.00518504 0.0276181,0.0074685 0.0417244,0.0071378 0.0134213,-0.0648622 0.0185945,-0.12702 0.00696063,-0.168886 -0.012126,-0.0436339 -0.0300354,-0.0850079 -0.0532992,-0.121378 -0.0254606,0.0196732 -0.0469724,0.0480787 -0.0602323,0.0827244z"/>
  <path class="fil2" d="M5.75275 2.30496c-0.0575118,0.291965 -0.244004,0.0496772 -0.442886,0.0722835 -0.0287559,0.00326378 -0.0418386,-0.0268346 -0.00816142,-0.0328465 0.0240394,-0.0042874 0.0375787,-0.00457087 0.0695394,0.000507874 0.306016,0.0486535 0.285866,0.166567 0.352815,-0.0569134l0.0286929 0.0169685z"/>
  <path class="fil8" d="M4.53511 3.39034c-0.0797835,0.184075 0.00658661,0.271307 -0.0264882,0.404465 -0.00398819,0.0160551 -0.137346,0.0494685 -0.200598,0.130209l-0.015622 0.0199409c-0.0351181,0.0448268 -0.0743189,0.116925 -0.103276,0.167114 0.00299213,0.00722835 0.0442677,0.00590157 0.0677087,0.011311 0.00595276,0.017189 -0.0782087,0.147177 -0.15148,0.212228 0.00280315,0.000925197 0.00524409,0.00223228 0.00785827,0.00354331 0.0852992,0.0600748 0.283685,0.427024 0.317626,0.465339 0.0429882,-0.0164921 0.155622,-0.121287 0.230181,-0.173492 0.0647283,-0.0453268 0.11365,-0.103165 0.157248,-0.169094 0.0710394,-0.107417 0.127965,-0.236323 0.216201,-0.367591 0.587075,-0.809917 0.0234409,-1.13339 0.219177,-1.34578 0.0253189,-0.0274724 0.0720984,-0.0414528 0.137008,-0.0608425 0.0440118,-0.0131417 0.0953189,-0.0284764 0.156358,-0.0527598 0.0364685,-0.0105551 0.0685512,-0.027063 0.0963898,-0.0482205 0.0112717,-0.00856299 0.0282323,-0.0387283 0.045937,-0.080315 -0.167701,0.070063 -0.618984,0.0299409 -0.59872,0.137366 0.0109055,0.0577992 -0.0523937,0.0563465 -0.142413,0.0919646 -0.253118,0.100157 -0.277776,0.144028 -0.228732,0.14648 0.506559,0.0253701 0.142291,0.145067 -0.0618071,0.168996 -0.097752,0.0114567 -0.158094,0.101902 -0.00551969,0.0953465 0.168787,-0.00725591 0.157984,0.00150787 0.0951063,0.0409724 -0.0602992,0.0378425 -0.168504,0.102146 -0.212142,0.202819z"/>
  <path class="fil2" d="M4.48876 4.77898c0.0429843,0.0688819 0.0831181,0.153055 0.125055,0.241012 0.0818858,0.171756 0.180665,0.347571 0.294689,0.456913 0.0657441,0.0630433 0.218984,0.0666614 0.267547,-0.0213425 0.0254882,-0.0462047 0.0105866,-0.133291 0.00960236,-0.173547 -0.00119291,-0.0484528 -0.0196535,-0.0896693 -0.0520394,-0.117835 -0.0309331,-0.0268819 -0.084374,-0.0438465 -0.131016,-0.0586457 -0.0271378,-0.00861024 -0.0503071,-0.0154094 -0.050689,-0.0158071 -0.0170354,-0.0177795 -0.0439803,-0.104874 -0.0700079,-0.206303 -0.0364094,-0.141878 -0.0498189,-0.331398 -0.0812913,-0.395713 -0.0391969,0.055252 -0.0834488,0.103976 -0.139587,0.143287 -0.0531181,0.0371929 -0.125559,0.101075 -0.178378,0.140705 0.00232283,0.00207087 0.00438976,0.0045 0.00611417,0.00727559z"/>
  <path class="fil2" d="M3.80892 5.12016c-0.0128976,-0.093878 -0.175417,-0.125488 -0.244276,-0.121425 0.100319,-0.0733976 0.259327,-0.0406575 0.292673,0.0812008l-0.0483976 0.0402244z"/>
  <path class="fil2" d="M4.30904 1.57465c0.0047126,-0.0116299 0.00941339,-0.0232992 0.0141063,-0.0349961l0.00180709 -0.00080315c0.0897323,0.160772 0.283622,0.0237992 0.421657,0.0695157 0.30276,0.100276 0.262559,0.00894882 0.422492,0.0518386 -0.228839,-0.0123543 -0.118413,0.0635354 -0.431681,-0.0306024 -0.132244,-0.0397441 -0.315874,0.0994606 -0.428382,-0.0549528z"/>
  <path class="fil2" d="M4.22261 1.76698c0.0041063,-0.00720079 0.00817323,-0.0146811 0.0122323,-0.0223071 0.180516,0.164067 0.314701,0.0134764 0.401776,0.0799961 0.0859409,0.0656496 0.132744,-0.0162283 0.255004,0.0687717 0.015185,0.0105512 0.0187874,0.0114961 0.0576535,0.0297677l-7.87402e-006 2.3622e-005c-0.142039,-0.0435 -0.0234843,-0.0521102 -0.200346,-0.0562441 -0.12102,-0.00282677 -0.126047,-0.0506693 -0.165598,-0.0431142 -0.148913,0.0284567 -0.245012,0.0415433 -0.360713,-0.0568937z"/>
  <rect class="fil9" width="6.82666" height="6.82666"/>
 </g>
</svg>
