<?xml version="1.0" encoding="UTF-8"?>
<!DOCTYPE svg PUBLIC "-//W3C//DTD SVG 1.1//EN" "http://www.w3.org/Graphics/SVG/1.1/DTD/svg11.dtd">
<!-- Creator: CorelDRAW -->
<svg xmlns="http://www.w3.org/2000/svg" xml:space="preserve" width="6.82666in" height="6.82666in" style="shape-rendering:geometricPrecision; text-rendering:geometricPrecision; image-rendering:optimizeQuality; fill-rule:evenodd; clip-rule:evenodd"
viewBox="0 0 6.82666 6.82666"
 xmlns:xlink="http://www.w3.org/1999/xlink">
 <defs>
  <style type="text/css">
   <![CDATA[
    .fil0 {fill:none}
    .fil2 {fill:#212121}
    .fil9 {fill:#9B821F}
    .fil12 {fill:#A68B22}
    .fil3 {fill:#B60A00}
    .fil14 {fill:#D50000}
    .fil7 {fill:#EF6C00}
    .fil13 {fill:#FF1744}
    .fil8 {fill:#FF8005}
    .fil10 {fill:#FFD336}
    .fil1 {fill:#212121;fill-rule:nonzero}
    .fil6 {fill:url(#id0)}
    .fil5 {fill:url(#id1)}
    .fil11 {fill:url(#id2)}
    .fil15 {fill:url(#id3)}
    .fil4 {fill:url(#id4)}
   ]]>
  </style>
  <linearGradient id="id0" gradientUnits="userSpaceOnUse" x1="4.04952" y1="4.27653" x2="3.705" y2="2.32268">
   <stop offset="0" style="stop-color:#2B7726"/>
   <stop offset="1" style="stop-color:#6EB869"/>
  </linearGradient>
  <linearGradient id="id1" gradientUnits="userSpaceOnUse" x1="1.86489" y1="5.43802" x2="4.36398" y2="1.99831">
   <stop offset="0" style="stop-color:#AC5805"/>
   <stop offset="0.34902" style="stop-color:#A67210"/>
   <stop offset="1" style="stop-color:#9F8C1B"/>
  </linearGradient>
  <linearGradient id="id2" gradientUnits="userSpaceOnUse" xlink:href="#id0" x1="3.80921" y1="5.03852" x2="2.54489" y2="5.19377">
  </linearGradient>
  <linearGradient id="id3" gradientUnits="userSpaceOnUse" x1="2.06687" y1="5.57338" x2="4.71995" y2="2.41156">
   <stop offset="0" style="stop-color:#ED7501"/>
   <stop offset="0.34902" style="stop-color:#F6AB1C"/>
   <stop offset="1" style="stop-color:#FFE238"/>
  </linearGradient>
  <linearGradient id="id4" gradientUnits="userSpaceOnUse" xlink:href="#id1" x1="1.01705" y1="5.14272" x2="4.07066" y2="1.50358">
  </linearGradient>
 </defs>
 <g id="Layer_x0020_1">
  <metadata id="CorelCorpID_0Corel-Layer"/>
  <g id="_352372456">
   <path id="_352375960" class="fil0" d="M4.81729 4.37659c-0.171142,-0.847909 0.97911,-0.580016 0.766803,-1.4978"/>
   <path id="_352375840" class="fil1" d="M4.80916 4.37822c-0.0846457,-0.419378 0.148929,-0.568953 0.385272,-0.720295 0.242969,-0.155587 0.488933,-0.313102 0.381563,-0.777276l0.0162126 -0.00370866c0.110004,0.475563 -0.140925,0.63626 -0.388791,0.794984 -0.231543,0.148272 -0.460378,0.294811 -0.37798,0.703043l-0.0162756 0.00325197z"/>
   <path id="_352375432" class="fil2" d="M5.66492 2.82819c0.0201299,0.0248228 0.016315,0.0612598 -0.00849606,0.081378 -0.024815,0.0201339 -0.0612441,0.0163543 -0.0813701,-0.0085 -0.0201417,-0.0248031 -0.0163504,-0.0612126 0.00847638,-0.0813465 0.0247992,-0.0201339 0.0612402,-0.0163386 0.0813898,0.0084685z"/>
   <path id="_352375768" class="fil3" d="M4.1158 4.61765c0.178453,-0.225724 0.377051,-1.22241 0.253673,-2.06506 -0.123362,-0.842705 -0.254453,-1.57924 -0.693382,-1.68931 -0.43889,-0.110075 -1.0739,0.71102 -1.11176,1.61359 -0.0378425,0.902555 0.476469,1.26523 0.706343,1.45245 0.229878,0.187224 -0.554823,-0.0920354 -1.09663,-0.117197 -0.54178,-0.0251614 -1.35019,0.0699055 -1.39054,0.947961 -0.0403622,0.878012 1.35423,1.18167 2.15754,0.733831 0.803327,-0.447839 0.98002,-0.629933 1.17477,-0.876268z"/>
   <path id="_352375576" class="fil4" d="M3.67915 4.94327l0 -0.263732c0.0334567,-0.000275591 0.0618465,-0.000566929 0.0833898,-0.000992126 0.148472,-0.00277559 0.142465,0.0598031 0.0861535,0.115142 -0.00312992,0.0189016 -0.0687047,0.0754724 -0.169543,0.149583zm0 -0.378744l0 0 0 -0.2275c0.129657,0.100728 0.223217,0.198965 0.0831181,0.217606 -0.0236299,0.00313386 -0.0516417,0.00645669 -0.0831181,0.0098937zm0 -0.367303l0 0 0 -0.431465c0.0567756,0.187496 0.123024,0.392173 0.156665,0.477638 0.0504882,0.0853543 -0.0353425,0.0419094 -0.156665,-0.0461732zm0 -0.869114l0 0c0.104531,0.409874 0.226114,0.806622 0.237016,0.91326 0.0213425,0.208555 0.137528,0.175425 0.182287,0.0247598 0.11776,-0.396476 0.159906,-1.46665 0.0784409,-1.96035 -0.0814685,-0.493685 -0.177827,-0.223547 -0.30898,-0.172941 -0.0685039,0.0264094 -0.131622,-0.0102244 -0.188764,-0.000602362l0 1.19588zm0 -1.339l0 0 0 -0.983354c0.20111,0.109642 0.320776,0.598799 0.357929,0.781299 0.0385551,0.189528 -0.190433,0.27485 -0.357929,0.202055zm0 -0.983354l0 0 0 0.983354c-0.0100591,-0.00438583 -0.0199134,-0.00928346 -0.0294685,-0.0148307 -0.0325276,-0.0188346 -0.0649252,-0.0440827 -0.0969449,-0.0739961l0 -0.912031c0.0081063,-0.00116535 0.016189,-0.0022874 0.024248,-0.00325591 0.036126,-0.00455906 0.0701654,0.00332283 0.102165,0.0207598zm0 1.12648l0 0 0 1.19588c-0.0512835,-0.201094 -0.0984252,-0.405283 -0.126413,-0.579996l0 -0.444476c0.0380354,-0.125638 0.0802795,-0.163638 0.126413,-0.171406zm0 1.63353l0 0 0 0.431465c-0.0395315,-0.0286969 -0.0828346,-0.0621535 -0.126413,-0.0974055l0 -0.721402c0.0167283,0.0154921 0.0281457,0.0332283 0.0327913,0.0538622 0.0145276,0.0645236 0.0514843,0.19428 0.093622,0.33348zm0 0.571268l0 0 0 0.2275c-0.0375787,0.00408661 -0.0801575,0.00829528 -0.126413,0.0124961l0 -0.333008c0.0416299,0.0296575 0.0857835,0.0614685 0.126413,0.0930118zm0 0.342512l0 0 0 0.263732c-0.037685,0.0277283 -0.080252,0.0578386 -0.126413,0.0894094l0 -0.352429c0.0468071,-0.000192913 0.089689,-0.000437008 0.126413,-0.000712598zm-0.126413 -1.48386l0 0c0.0216102,-0.00451181 0.0310866,-0.0137953 0.0242047,-0.0290236 -0.00816142,-0.0180906 -0.0162362,-0.0390394 -0.0242047,-0.0619567l0 0.0909803zm0 -1.11648l0 0c0.00370079,-0.00537008 0.0072874,-0.0102047 0.0107205,-0.0144252 0.0157047,-0.015752 0.00995669,-0.0453465 -0.0107205,-0.0835157l0 0.0979409zm0 -1.09094l0 0 0 0.912031c-0.0685039,-0.064 -0.135205,-0.149323 -0.1975,-0.238858l0 -0.62348c0.0605669,-0.0242992 0.129598,-0.039878 0.1975,-0.0496929zm0 0.993004l0 0c-0.0343425,-0.0633543 -0.109965,-0.150315 -0.1975,-0.236976l0 0.764224c0.040811,0.0042874 0.0657126,-0.00457087 0.0643386,-0.0323189 -0.00545276,-0.109878 0.0774094,-0.315984 0.133161,-0.396988l0 -0.0979409zm0 0.322382l0 0 0 0.444476c-0.0265276,-0.165594 -0.0358465,-0.304748 -0.0150236,-0.389398 0.00494094,-0.0200591 0.00994882,-0.0383071 0.0150236,-0.0550787zm0 0.801059l0 0c-0.0390157,-0.112287 -0.0750984,-0.272252 -0.101319,-0.377657 -0.00592913,-0.0275 -0.0425748,-0.059315 -0.0961811,-0.0927008l0 0.547807c0.0878228,0.014878 0.160508,0.0212559 0.1975,0.0135315l0 -0.0909803zm0 0.27372l0 0 0 0.721402c-0.0608268,-0.0492402 -0.122205,-0.102047 -0.174654,-0.150492 -0.00729528,-0.00674803 -0.0149528,-0.0140984 -0.0228465,-0.0219016l0 -0.63011c0.084437,0.0192598 0.156803,0.0434488 0.1975,0.0811024zm0 0.865598l0 0 0 0.333008c-0.0605709,0.00551181 -0.127402,0.0109803 -0.1975,0.016063l0 -0.473685c0.0520236,0.0264134 0.1015,0.0561457 0.148594,0.0897638 0.0156181,0.0111614 0.0320551,0.0228465 0.0489055,0.0348504zm0 0.436236l0 0 0 0.352429c-0.0607717,0.0415945 -0.127689,0.0856102 -0.1975,0.129705l0 -0.481291c0.069189,-0.000322835 0.136654,-0.000570866 0.1975,-0.00084252zm-1.16256 0.11835l0 0c0.0205236,-0.0395039 0.0237205,-0.0696811 0,-0.095248l0 0.095248zm0.965059 -3.76066l0 0 0 0.62348c-0.0352441,-0.0507323 -0.0690669,-0.102799 -0.100996,-0.153075 -0.169839,-0.267654 -0.0672244,-0.402835 0.100996,-0.470406zm0 0.706335l0 0c-0.0672756,-0.0666378 -0.141547,-0.133035 -0.209508,-0.188378 -0.209575,-0.170705 -0.493846,0.564925 -0.338339,0.691567 0.118693,0.0966772 0.416236,0.247264 0.547846,0.261035l0 -0.764224zm0 0.890059l0 0 0 0.547807c-0.219866,-0.0372323 -0.534362,-0.127744 -0.619795,-0.183555 -0.139465,-0.091126 -0.0782677,-0.704772 0.053185,-0.631441 0.0983583,0.0548661 0.407362,0.16798 0.56661,0.267189zm0 0.662976l0 0c-0.135638,-0.0309055 -0.302346,-0.0490945 -0.418713,-0.0899724 -0.210811,-0.0740945 0.204697,0.508346 0.418713,0.720083l0 -0.63011zm0 0.822087l0 0 0 0.473685c-0.214248,0.0155512 -0.458689,0.0274803 -0.646244,0.0258386 -0.151299,-0.00131496 -0.249768,-0.0055315 -0.318815,-0.0233307l0 -0.680839c0.0116299,0.000240157 0.0236772,0.000799213 0.0362835,0.00172047 0.37672,0.0280669 0.68135,0.0774016 0.928776,0.202925zm0 0.561693l0 0 0 0.481291c-0.256071,0.161736 -0.551185,0.324291 -0.72639,0.369638 -0.14387,0.037252 -0.211051,-0.00612992 -0.238669,-0.0855472l0 -0.310142c0.00654331,-0.0477323 0.0134055,-0.0935315 0.0172126,-0.133248 0.0209843,-0.219114 0.253315,-0.311024 0.494413,-0.317075 0.117744,-0.0029685 0.290343,-0.00416929 0.453433,-0.00491732zm-1.05037 0.83448l0 0c-0.0400827,-0.0888583 -0.0802165,-0.481437 0.0176496,-0.615413 0.029122,-0.0398425 0.052874,-0.0731339 0.0676614,-0.101559l0 -0.095248c-0.0166142,-0.0178937 -0.0464094,-0.0335315 -0.0927756,-0.0485079 -0.16024,-0.0518031 -0.221366,-0.225264 -0.253701,-0.420307 -0.0323307,-0.19502 0.0432638,-0.302992 -0.151744,-0.33815 -0.195016,-0.0351063 -1.06262,0.225638 -0.974602,0.904614 0.0880236,0.678961 0.496701,0.731299 0.813437,0.798075 0.316736,0.0667953 0.697016,0.0278858 0.574075,-0.0835039zm0.085311 -1.60082l0 0 0 0.680839c-0.0838386,-0.0216063 -0.12428,-0.0632992 -0.163146,-0.144291 -0.0689291,-0.143626 -0.246268,-0.545634 0.163146,-0.536547zm0 1.22158l0 0 0 0.310142c-0.0283583,-0.0815394 -0.0149843,-0.201008 0,-0.310142z"/>
   <path id="_352375936" class="fil5" d="M4.09846 4.26613c0.11776,-0.396476 0.159906,-1.46665 0.0784409,-1.96035 -0.0814685,-0.493685 -0.177827,-0.223547 -0.30898,-0.172941 -0.0685039,0.0264094 -0.131622,-0.0102244 -0.188764,-0.000602362l0 1.19588c0.104531,0.409874 0.226114,0.806622 0.237016,0.91326 0.0213425,0.208555 0.137528,0.175425 0.182287,0.0247598zm-0.419303 0.677142l0 0 0 -0.263732c0.0334567,-0.000275591 0.0618465,-0.000566929 0.0833898,-0.000992126 0.148472,-0.00277559 0.142465,0.0598031 0.0861535,0.115142 -0.00312992,0.0189016 -0.0687047,0.0754724 -0.169543,0.149583zm0 -0.378744l0 0 0 -0.2275c0.129657,0.100728 0.223217,0.198965 0.0831181,0.217606 -0.0236299,0.00313386 -0.0516417,0.00645669 -0.0831181,0.0098937zm0 -2.4323l0 0c-0.0523031,0.00882283 -0.0995827,0.0563583 -0.141437,0.226484 -0.0427795,0.17398 0.0415512,0.577689 0.141437,0.969394l0 -1.19588zm0 2.2048l0 0 0 0.2275c-0.23722,0.025811 -0.67439,0.0569961 -0.970157,0.0543976 -0.334992,-0.00294882 -0.411098,-0.0199213 -0.481961,-0.167622 -0.0708898,-0.147717 -0.256528,-0.568752 0.199429,-0.534827 0.455917,0.0339409 0.806232,0.099063 1.07737,0.292689 0.0542126,0.0387244 0.118248,0.0835394 0.175319,0.127862zm0 0.342512l0 0 0 0.263732c-0.269409,0.198039 -0.791079,0.521669 -1.0503,0.588752 -0.356256,0.0922362 -0.242433,-0.309886 -0.221457,-0.528937 0.0209843,-0.219114 0.253315,-0.311024 0.494413,-0.317075 0.206106,-0.00518898 0.580303,-0.00492913 0.777346,-0.00647244z"/>
   <path id="_352375384" class="fil6" d="M4.01243 4.27175c0.0234449,-0.158646 0.0113386,-0.48687 -0.00926772,-0.814425l0 0.747504c0.00316535,0.0230709 0.00627165,0.0454252 0.00926772,0.0669213zm-0.00926772 -1.59073l0 0 0 -0.274665c0.0389528,-0.0788976 0.118461,-0.0760709 0.147157,0.204563 0.0428543,0.418925 0.0268307,1.33321 -0.094,1.6219 0.0292913,-0.449594 -0.0173031,-1.22915 -0.0531575,-1.5518zm0 0.776303l0 0c-0.0221417,-0.352051 -0.0540906,-0.703362 -0.062248,-0.84261 -0.00601181,-0.102858 -0.0345591,-0.162055 -0.0655276,-0.183051l0 0.803673c0.0421339,0.323854 0.0904921,0.698425 0.127776,0.969492l0 -0.747504zm0 -1.05097l0 0 0 0.274665c-0.00616929,-0.055437 -0.0120039,-0.0974724 -0.0170984,-0.121937 -0.0114528,-0.0551102 -0.00210236,-0.113858 0.0170984,-0.152728zm-0.127776 1.55776l0 0 0 -0.379866c0.0425748,0.291803 0.0806535,0.564815 0.0892992,0.680583 -0.0286496,-0.0837402 -0.0589094,-0.187118 -0.0892992,-0.300717zm0 -1.53246l0 0c-0.0499921,-0.0338898 -0.106331,0.0318504 -0.0844449,0.174831 0.0157717,0.10313 0.047748,0.346744 0.0844449,0.628843l0 -0.803673zm0 1.15259l0 0 0 0.379866c-0.125972,-0.470894 -0.254331,-1.11882 -0.280961,-1.28662 -0.0330669,-0.208276 0.123665,-0.247815 0.145083,-0.0383346 0.0123071,0.120472 0.0782205,0.549996 0.135878,0.945087z"/>
   <path id="_352374760" class="fil3" d="M3.7186 4.45378c-0.181811,-0.095248 -0.401248,-0.163437 -0.604933,-0.20885l0 0.154972c0.167638,0.0184921 0.36722,0.0366457 0.604933,0.053878zm-0.604933 0.106394l0 0 0 -0.126366c0.211697,0.0180276 0.440252,0.0382402 0.58637,0.0644882 -0.210354,0.0337638 -0.411638,0.0533583 -0.58637,0.061878zm0 -0.355362l0 0 0 -0.117492c0.227685,0.0781496 0.41202,0.188291 0.578193,0.314252 -0.206016,-0.0928622 -0.405795,-0.155441 -0.578193,-0.19676zm0 0.0401181l0 0c-0.157638,-0.0351378 -0.305839,-0.0566654 -0.419846,-0.0665472 -0.261264,-0.0226142 -0.260882,0.117913 -0.0409213,0.157496 0.117598,0.0211732 0.268094,0.0428189 0.460768,0.0640236l0 -0.154972zm0 -0.15761l0 0 0 0.117492c-0.203591,-0.0487992 -0.368976,-0.0679961 -0.461217,-0.0723425 -0.170335,-0.00802756 -0.333087,-0.19952 0.0832874,-0.136457 0.13898,0.0210276 0.263886,0.0521457 0.377929,0.0913071zm0 0.346488l0 0 0 0.126366c-0.170346,0.00830709 -0.315469,0.00611811 -0.419091,-0.00372835 -0.209953,-0.0199764 -0.228469,-0.19735 -0.0202598,-0.165839 0.0951063,0.0144055 0.261256,0.0280472 0.43935,0.0432008z"/>
   <path id="_352374688" class="fil7" d="M3.44047 1.14184c0.231528,-0.144146 0.635984,0.596783 0.388378,0.714232 -0.247587,0.117409 -0.657177,-0.54687 -0.388378,-0.714232z"/>
   <path id="_352374568" class="fil8" d="M4.02592 2.15806c-0.0977638,0.026752 -0.0953622,0.173055 0.00865354,0.166594 0.10402,-0.00645669 0.0853701,-0.188756 -0.00865354,-0.166594z"/>
   <path id="_352375264" class="fil8" d="M3.83785 2.20241c0.0977441,-0.026748 0.103205,0.190421 -0.00164961,0.188602 -0.10487,-0.00183465 -0.0883425,-0.208701 0.00164961,-0.188602z"/>
   <path id="_352374664" class="fil8" d="M3.65422 2.26249c0.0726811,-0.0109331 0.0755709,0.189035 -0.0117362,0.194457 -0.0872756,0.00540157 -0.0894528,-0.18763 0.0117362,-0.194457z"/>
   <path id="_352374928" class="fil7" d="M2.90689 1.87948c-0.116248,0.312988 0.372929,0.637555 0.487472,0.320579 0.108752,-0.301 -0.368354,-0.641272 -0.487472,-0.320579z"/>
   <path id="_352375144" class="fil7" d="M2.7893 2.74287c-0.0227402,0.250602 0.652433,0.532165 0.573024,0.12661 -0.0589961,-0.301323 -0.538787,-0.504185 -0.573024,-0.12661z"/>
   <path id="_352374784" class="fil8" d="M3.22052 3.61333c-0.118587,-0.201913 0.230169,-0.332484 0.331626,0.0125748 0.0878031,0.29863 -0.0768937,0.421055 -0.331626,-0.0125748z"/>
   <path id="_352375216" class="fil9" d="M2.39997 4.03659c0.0230827,0.0697795 -0.17352,0.106461 -0.193638,0.0213386 -0.0200866,-0.0851102 0.16978,-0.119913 0.193638,-0.0213386z"/>
   <path id="_352375192" class="fil10" d="M2.42762 4.23016c0.0173268,0.0714331 -0.187795,0.129299 -0.20611,0.00835433 -0.0182913,-0.120965 0.190358,-0.108539 0.20611,-0.00835433z"/>
   <path id="_352374448" class="fil10" d="M2.47974 4.42995c0.0173228,0.0714331 -0.165705,0.117024 -0.192571,0.0102717 -0.0268307,-0.106705 0.176831,-0.110469 0.192571,-0.0102717z"/>
   <path id="_352374232" class="fil10" d="M2.60984 4.86983c0.0412598,0.0344094 -0.0463701,0.140874 -0.108587,0.0898819 -0.062252,-0.0509606 0.0557283,-0.141843 0.108587,-0.0898819z"/>
   <path id="_352374064" class="fil10" d="M2.58731 5.10044c0.0337795,0.0583543 -0.100008,0.141209 -0.151346,0.0542362 -0.0513268,-0.0869606 0.111488,-0.138339 0.151346,-0.0542362z"/>
   <path id="_352374496" class="fil10" d="M2.61473 5.33719c0.0337559,0.0583425 -0.130839,0.214642 -0.185154,0.0672835 -0.054315,-0.147343 0.145287,-0.151417 0.185154,-0.0672835z"/>
   <path id="_352374400" class="fil11" d="M3.79658 4.78836c-0.177941,0.108862 -0.388531,0.198902 -0.584697,0.263469l0 -0.167618c0.155638,-0.0302283 0.344748,-0.062315 0.584697,-0.0958504zm-0.584697 0.419622l0 0c0.209858,-0.109394 0.400535,-0.226008 0.561492,-0.365724 -0.204728,0.109134 -0.397327,0.192315 -0.561492,0.251791l0 0.113933zm0 -0.361358l0 0c0.201575,-0.0311732 0.419102,-0.0655315 0.563217,-0.101453 -0.212043,-0.0197126 -0.401161,-0.027252 -0.563217,-0.0254724l0 0.126925zm0 0.205205l0 0c-0.14624,0.0481378 -0.284469,0.0821299 -0.395169,0.0991614 -0.259201,0.0398937 -0.241303,-0.119079 -0.0244606,-0.173157 0.114299,-0.0285039 0.246177,-0.0599094 0.41963,-0.093622l0 0.167618zm0 -0.33213l0 0c-0.158138,0.00172441 -0.290524,0.012248 -0.393315,0.0289961 -0.208154,0.0338071 -0.233839,0.213992 -0.028189,0.168705 0.0939094,-0.0206654 0.252075,-0.0445787 0.421504,-0.0707756l0 -0.126925zm0 0.37435l0 0c-0.184587,0.0668701 -0.333287,0.10378 -0.422953,0.11402 -0.169425,0.0193031 -0.214598,0.306299 0.116551,0.150504 0.105622,-0.049689 0.208098,-0.0993346 0.306402,-0.150591l0 -0.113933z"/>
   <path id="_352373800" class="fil12" d="M1.58765 4.18848c-0.52461,0.079122 -0.739287,0.997287 0.00196457,1.14906 0.813181,0.166551 0.525295,-1.2286 -0.00196457,-1.14906z"/>
   <path id="_352374304" class="fil13" d="M4.39478 4.89194c0.178437,-0.22572 0.377035,-1.22237 0.253665,-2.06506 -0.123354,-0.842709 -0.254453,-1.57924 -0.693374,-1.6893 -0.438886,-0.110063 -1.0739,0.711016 -1.11177,1.61359 -0.0378504,0.902571 0.476472,1.26524 0.706343,1.45247 0.229874,0.18722 -0.554815,-0.0920354 -1.09662,-0.117197 -0.541783,-0.0251811 -1.35019,0.0699055 -1.39054,0.947941 -0.040378,0.878012 1.3542,1.18169 2.15754,0.733831 0.803315,-0.447823 0.979992,-0.629929 1.17476,-0.876268z"/>
   <path id="_352373944" class="fil14" d="M3.95813 5.21758l0 -0.263736c0.0334567,-0.000291339 0.0618425,-0.000582677 0.0833937,-0.000972441 0.148461,-0.00279134 0.142465,0.0597677 0.0861378,0.115126 -0.00312205,0.0188819 -0.0686969,0.0754528 -0.169531,0.149583zm0 -0.378744l0 0 0 -0.227488c0.129654,0.100697 0.223217,0.198953 0.0831102,0.217575 -0.0236417,0.00314567 -0.0516339,0.00647244 -0.0831102,0.00991339zm0 -0.367303l0 0 0 -0.431465c0.0567835,0.187496 0.12302,0.392154 0.156665,0.477618 0.0504843,0.0853543 -0.0353425,0.0419213 -0.156665,-0.0461535zm0 -0.869102l0 0c0.104524,0.409874 0.226122,0.806626 0.237024,0.913264 0.0213425,0.208508 0.137528,0.175425 0.182268,0.0247402 0.117772,-0.396488 0.159921,-1.46667 0.0784449,-1.96035 -0.0814764,-0.493705 -0.177819,-0.223547 -0.308984,-0.172961 -0.0684921,0.0263937 -0.131594,-0.0102047 -0.188752,-0.000570866l0 1.19588zm0 -1.33903l0 0 0 -0.98335c0.201102,0.109638 0.320787,0.598815 0.357929,0.781283 0.0385551,0.189528 -0.190425,0.274862 -0.357929,0.202067zm0 -0.98335l0 0 0 0.98335c-0.0100591,-0.00436614 -0.0199094,-0.00929528 -0.0294646,-0.014815 -0.0325197,-0.0188504 -0.0649213,-0.0440984 -0.0969488,-0.0739961l0 -0.912043c0.00811417,-0.00114961 0.0161969,-0.00227165 0.0242402,-0.00325984 0.036122,-0.00455906 0.0701772,0.00334252 0.102173,0.0207638zm0 1.1265l0 0 0 1.19588c-0.0512756,-0.201106 -0.0984173,-0.405295 -0.126413,-0.579976l0 -0.444516c0.0380472,-0.125634 0.0802835,-0.163614 0.126413,-0.171386zm0 1.63352l0 0 0 0.431465c-0.0395315,-0.0287008 -0.0828228,-0.0621535 -0.126413,-0.0974055l0 -0.721402c0.0167283,0.0154803 0.0281535,0.0332244 0.0327992,0.0538622 0.0145197,0.0645236 0.0514606,0.194295 0.0936142,0.33348zm0 0.57128l0 0 0 0.227488c-0.0375787,0.00408661 -0.0801575,0.0082874 -0.126413,0.0125079l0 -0.333039c0.0416299,0.0296732 0.0857835,0.0614882 0.126413,0.0930433zm0 0.342496l0 0 0 0.263736c-0.0376811,0.0277087 -0.080248,0.0578307 -0.126413,0.0894016l0 -0.352441c0.046815,-0.000204724 0.0896772,-0.000417323 0.126413,-0.00069685zm-0.126413 -1.48386l0 0c0.0216024,-0.00452756 0.0310787,-0.0138031 0.0242047,-0.0290236 -0.00814961,-0.0180866 -0.0162323,-0.0390197 -0.0242047,-0.0619409l0 0.0909646zm0 -1.11653l0 0c0.00370079,-0.00535039 0.00727559,-0.0101732 0.0107008,-0.014374 0.0157047,-0.015752 0.00998819,-0.0453622 -0.0107008,-0.0834843l0 0.0978583zm0 -1.09091l0 0 0 0.912043c-0.0685079,-0.0639843 -0.135213,-0.149319 -0.197488,-0.238894l0 -0.623441c0.060563,-0.0243031 0.129579,-0.039878 0.197488,-0.0497087zm0 0.993051l0 0c-0.0343307,-0.0633701 -0.109969,-0.150366 -0.197488,-0.237028l0 0.764244c0.0408031,0.00426772 0.0656969,-0.00461024 0.0643071,-0.0323307 -0.00543307,-0.109886 0.0774488,-0.31602 0.133181,-0.397028l0 -0.0978583zm0 0.322343l0 0 0 0.444516c-0.0265315,-0.16563 -0.0358346,-0.304764 -0.0150118,-0.389437 0.00494094,-0.020063 0.00993701,-0.038315 0.0150118,-0.0550787zm0 0.801079l0 0c-0.0390157,-0.112287 -0.0750984,-0.27228 -0.101307,-0.377673 -0.00592913,-0.0274843 -0.0425866,-0.0592992 -0.0961811,-0.0927008l0 0.547776c0.087811,0.014874 0.160504,0.0212717 0.197488,0.013563l0 -0.0909646zm0 0.273709l0 0 0 0.721402c-0.0608268,-0.0492402 -0.122201,-0.102047 -0.174654,-0.150512 -0.00729921,-0.00674803 -0.0149488,-0.0141102 -0.0228346,-0.0219016l0 -0.630075c0.084437,0.0192087 0.156811,0.0434173 0.197488,0.0810866zm0 0.865579l0 0 0 0.333039c-0.0605591,0.00548031 -0.127409,0.0109685 -0.197488,0.0160433l0 -0.473665c0.0520039,0.0263661 0.101488,0.0561339 0.148575,0.0897677 0.015626,0.0111299 0.0320748,0.022811 0.0489134,0.034815zm0 0.436236l0 0 0 0.352441c-0.0607598,0.0415827 -0.127685,0.0856142 -0.197488,0.129697l0 -0.481276c0.0691969,-0.000322835 0.136642,-0.000570866 0.197488,-0.000862205zm-1.16256 0.118339l0 0c0.0205236,-0.0394724 0.0237205,-0.0696811 0,-0.0952362l0 0.0952362zm0.965071 -3.76063l0 0 0 0.623441c-0.0352441,-0.0506969 -0.0690787,-0.10276 -0.101008,-0.153067 -0.169839,-0.267657 -0.0672244,-0.402819 0.101008,-0.470374zm0 0.706315l0 0c-0.0672795,-0.0665984 -0.141575,-0.133035 -0.209512,-0.188374 -0.209575,-0.170689 -0.493866,0.564921 -0.338343,0.691579 0.118689,0.0966614 0.416232,0.247268 0.547854,0.261039l0 -0.764244zm0 0.890075l0 0 0 0.547776c-0.21987,-0.0372323 -0.534382,-0.127713 -0.619803,-0.183555 -0.139472,-0.0910945 -0.0782756,-0.704736 0.0531811,-0.631406 0.0983661,0.0548543 0.40737,0.167996 0.566622,0.267185zm0 0.662996l0 0c-0.135638,-0.030937 -0.302358,-0.0491102 -0.418713,-0.0900079 -0.210827,-0.0740748 0.204685,0.508335 0.418713,0.720083l0 -0.630075zm0 0.822083l0 0 0 0.473665c-0.214252,0.0155276 -0.458689,0.0274843 -0.64626,0.0258465 -0.151287,-0.00133071 -0.249768,-0.00551575 -0.318811,-0.0233307l0 -0.680854c0.011622,0.000255906 0.0236693,0.000795276 0.0362638,0.00173228 0.376752,0.0280512 0.68137,0.0773858 0.928807,0.202941zm0 0.561681l0 0 0 0.481276c-0.256091,0.161748 -0.551209,0.324307 -0.726406,0.369654 -0.14387,0.037248 -0.211055,-0.00614961 -0.238665,-0.0855472l0 -0.310094c0.00654724,-0.0477795 0.0134173,-0.093563 0.0172205,-0.133315 0.0209843,-0.219098 0.253319,-0.311024 0.494402,-0.317055 0.11774,-0.00297244 0.290346,-0.00417323 0.453449,-0.00491732zm-1.0504 0.834496l0 0c-0.040063,-0.0888898 -0.0801969,-0.481453 0.0176693,-0.615413 0.029122,-0.0398583 0.052874,-0.0731535 0.0676614,-0.101606l0 -0.0952362c-0.0166181,-0.017874 -0.0464134,-0.0335472 -0.0927677,-0.0485236 -0.160244,-0.0517677 -0.221378,-0.225248 -0.253697,-0.420291 -0.0323346,-0.19502 0.0432638,-0.302972 -0.151744,-0.33813 -0.195039,-0.035126 -1.06262,0.225638 -0.974614,0.904614 0.0880197,0.678941 0.496709,0.73128 0.813425,0.798075 0.316736,0.0667756 0.697039,0.0278858 0.574067,-0.0834882zm0.0853307 -1.60085l0 0 0 0.680854c-0.0838346,-0.0216417 -0.12428,-0.0633071 -0.163169,-0.144307 -0.0689016,-0.143594 -0.246252,-0.545654 0.163169,-0.536547zm0 1.22164l0 0 0 0.310094c-0.0283701,-0.0815197 -0.0149764,-0.200961 0,-0.310094z"/>
   <path id="_352373896" class="fil15" d="M4.37742 4.54043c0.117772,-0.396488 0.159921,-1.46667 0.0784449,-1.96035 -0.0814764,-0.493705 -0.177819,-0.223547 -0.308984,-0.172961 -0.0684921,0.0263937 -0.131594,-0.0102047 -0.188752,-0.000570866l0 1.19588c0.104524,0.409874 0.226122,0.806626 0.237024,0.913264 0.0213425,0.208508 0.137528,0.175425 0.182268,0.0247402zm-0.419291 0.677146l0 0 0 -0.263736c0.0334567,-0.000291339 0.0618425,-0.000582677 0.0833937,-0.000972441 0.148461,-0.00279134 0.142465,0.0597677 0.0861378,0.115126 -0.00312205,0.0188819 -0.0686969,0.0754528 -0.169531,0.149583zm0 -0.378744l0 0 0 -0.227488c0.129654,0.100697 0.223217,0.198953 0.0831102,0.217575 -0.0236417,0.00314567 -0.0516339,0.00647244 -0.0831102,0.00991339zm0 -2.43228l0 0c-0.0522953,0.00879134 -0.0995945,0.0563465 -0.141425,0.226465 -0.0427874,0.173984 0.0415315,0.577713 0.141425,0.969413l0 -1.19588zm0 2.2048l0 0 0 0.227488c-0.23722,0.0257992 -0.674398,0.0569764 -0.970161,0.0543976 -0.334988,-0.00295276 -0.411083,-0.0199055 -0.48198,-0.167638 -0.0708622,-0.147701 -0.256496,-0.568768 0.199433,-0.534815 0.455937,0.0339449 0.806256,0.099063 1.07738,0.292709 0.0542126,0.0387087 0.118268,0.0835354 0.175327,0.127858zm0 0.342496l0 0 0 0.263736c-0.269398,0.198039 -0.791083,0.52165 -1.05031,0.588752 -0.356244,0.0922362 -0.242417,-0.30989 -0.221445,-0.528957 0.0209843,-0.219098 0.253319,-0.311024 0.494402,-0.317055 0.20611,-0.00520866 0.580319,-0.00494882 0.77735,-0.00647638z"/>
   <path id="_352374136" class="fil14" d="M4.2914 4.54605c0.0234528,-0.158669 0.0113386,-0.486807 -0.00926772,-0.814331l0 0.747472c0.00316535,0.0230551 0.00626378,0.0454094 0.00926772,0.0668583zm-0.00926772 -1.59071l0 0 0 -0.274669c0.0389646,-0.0789055 0.118469,-0.0760709 0.147157,0.204547 0.0428504,0.418933 0.0268346,1.3332 -0.0939921,1.6219 0.0292913,-0.449575 -0.017311,-1.22913 -0.0531654,-1.55178zm0 0.776382l0 0c-0.0221417,-0.352083 -0.0540945,-0.703441 -0.0622362,-0.842709 -0.00602756,-0.102839 -0.0345669,-0.162035 -0.0655472,-0.183043l0 0.803606c0.0421417,0.323902 0.0905118,0.698539 0.127783,0.969618l0 -0.747472zm0 -1.05105l0 0 0 0.274669c-0.00616142,-0.0554528 -0.0120118,-0.0974843 -0.0170906,-0.121937 -0.0114724,-0.0551417 -0.00211417,-0.113858 0.0170906,-0.152732zm-0.127783 1.55776l0 0 0 -0.379921c0.0425945,0.291811 0.0806614,0.564839 0.0893031,0.680642 -0.0286575,-0.083748 -0.0589094,-0.187106 -0.0893031,-0.30072zm0 -1.53246l0 0c-0.0499921,-0.0338937 -0.106331,0.0318268 -0.0844449,0.174839 0.0157795,0.103102 0.0477638,0.346701 0.0844449,0.628768l0 -0.803606zm0 1.15254l0 0 0 0.379921c-0.125961,-0.47089 -0.254323,-1.11883 -0.280953,-1.28662 -0.0330709,-0.20826 0.123654,-0.247811 0.145071,-0.0383504 0.012315,0.12048 0.0782323,0.549965 0.135882,0.945047z"/>
   <path id="_352373872" class="fil14" d="M3.99757 4.72809c-0.181807,-0.095252 -0.401248,-0.163457 -0.604933,-0.208866l0 0.155c0.167642,0.0184646 0.367228,0.0366339 0.604933,0.0538661zm-0.604933 0.106409l0 0 0 -0.126366c0.211697,0.0180236 0.440252,0.0382047 0.58637,0.0644724 -0.210354,0.0337441 -0.411638,0.0533583 -0.58637,0.0618937zm0 -0.355413l0 0 0 -0.117457c0.227669,0.0781299 0.412031,0.188291 0.578201,0.314236 -0.206024,-0.0928465 -0.405795,-0.155409 -0.578201,-0.19678zm0 0.0401378l0 0c-0.157642,-0.0351417 -0.305835,-0.056685 -0.419843,-0.0665354 -0.26128,-0.0225984 -0.260886,0.117898 -0.040937,0.157488 0.117622,0.0211535 0.26811,0.042811 0.46078,0.0640472l0 -0.155zm0 -0.157594l0 0 0 0.117457c-0.203575,-0.0487835 -0.368976,-0.0679606 -0.461213,-0.0723071 -0.170339,-0.00806693 -0.333091,-0.19952 0.0832913,-0.136457 0.138976,0.0210197 0.263874,0.0521575 0.377921,0.0913071zm0 0.346504l0 0 0 0.126366c-0.170343,0.00825984 -0.315465,0.00608268 -0.419102,-0.00376378 -0.209941,-0.0199724 -0.228441,-0.197343 -0.020252,-0.165819 0.0951102,0.0144055 0.261272,0.0280315 0.439354,0.0432165z"/>
   <path id="_352373296" class="fil8" d="M3.71944 1.41615c0.231539,-0.144142 0.63598,0.596807 0.38839,0.714232 -0.247594,0.117413 -0.657193,-0.546882 -0.38839,-0.714232z"/>
   <path id="_352373464" class="fil8" d="M4.30489 2.43236c-0.0977717,0.0267402 -0.0953701,0.173028 0.00865748,0.166602 0.104004,-0.00645669 0.0853661,-0.188776 -0.00865748,-0.166602z"/>
   <path id="_352373248" class="fil8" d="M4.11683 2.4767c0.0977402,-0.0267402 0.103189,0.190398 -0.00166535,0.188579 -0.10487,-0.00183071 -0.0883346,-0.208681 0.00166535,-0.188579z"/>
   <path id="_352373656" class="fil8" d="M3.9332 2.5368c0.0726575,-0.0109685 0.075563,0.189035 -0.0117362,0.194437 -0.0872913,0.00541732 -0.0894685,-0.18761 0.0117362,-0.194437z"/>
   <path id="_352373176" class="fil8" d="M3.18586 2.15377c-0.11624,0.312988 0.372929,0.637575 0.487476,0.320598 0.108764,-0.300984 -0.36835,-0.641291 -0.487476,-0.320598z"/>
   <path id="_352373056" class="fil8" d="M3.06827 3.01716c-0.0227559,0.25061 0.652417,0.532169 0.573035,0.12661 -0.0590079,-0.301354 -0.538803,-0.504197 -0.573035,-0.12661z"/>
   <path id="_352373752" class="fil8" d="M3.49949 3.88764c-0.118598,-0.201921 0.230169,-0.332469 0.331614,0.0125748 0.087811,0.29861 -0.0768819,0.421051 -0.331614,-0.0125748z"/>
   <path id="_352373392" class="fil10" d="M2.67895 4.31088c0.0230709,0.0697953 -0.173539,0.10648 -0.193638,0.0213504 -0.0201024,-0.085122 0.169772,-0.119906 0.193638,-0.0213504z"/>
   <path id="_352373200" class="fil10" d="M2.70661 4.50447c0.017311,0.0714291 -0.187799,0.129299 -0.206122,0.00833465 -0.0182913,-0.120961 0.190358,-0.108539 0.206122,-0.00833465z"/>
   <path id="_352373560" class="fil10" d="M2.75871 4.70426c0.0173228,0.0714173 -0.165705,0.117004 -0.192559,0.0102717 -0.0268425,-0.10672 0.176831,-0.110469 0.192559,-0.0102717z"/>
   <path id="_352372288" class="fil10" d="M2.8888 5.14415c0.0412717,0.0344094 -0.0463543,0.14087 -0.108594,0.0898819 -0.0622283,-0.0509921 0.0557402,-0.141874 0.108594,-0.0898819z"/>
   <path id="_352372408" class="fil10" d="M2.86628 5.37473c0.0337795,0.058374 -0.100016,0.141209 -0.151346,0.0542362 -0.0513504,-0.0869606 0.111488,-0.138339 0.151346,-0.0542362z"/>
   <path id="_352372552" class="fil10" d="M2.8937 5.6115c0.0337795,0.0583386 -0.130835,0.214642 -0.18515,0.067248 -0.054311,-0.147339 0.145283,-0.151382 0.18515,-0.067248z"/>
   <path id="_352372888" class="fil14" d="M4.07556 5.06265c-0.177945,0.108878 -0.388535,0.198921 -0.584717,0.263476l0 -0.16761c0.155665,-0.0302402 0.34478,-0.0623465 0.584717,-0.0958661zm-0.584717 0.419661l0 0c0.209878,-0.109433 0.400563,-0.226028 0.5615,-0.365764 -0.20472,0.10915 -0.397303,0.192315 -0.5615,0.251791l0 0.113972zm0 -0.361386l0 0c0.201606,-0.0311654 0.419134,-0.0655236 0.563228,-0.101457 -0.212051,-0.0197323 -0.401142,-0.0272441 -0.563228,-0.0254606l0 0.126917zm0 0.205201l0 0c-0.146232,0.0481299 -0.284449,0.0821378 -0.39515,0.0991732 -0.259201,0.039878 -0.241307,-0.119079 -0.0244724,-0.173157 0.114287,-0.0285039 0.246193,-0.0599134 0.419622,-0.093626l0 0.16761zm0 -0.332118l0 0c-0.158106,0.00170472 -0.290492,0.0122677 -0.393283,0.0289606 -0.208157,0.0338425 -0.233846,0.21402 -0.0282047,0.16876 0.0939094,-0.020685 0.252083,-0.0446339 0.421488,-0.0708031l0 -0.126917zm0 0.374331l0 0c-0.184579,0.066874 -0.333272,0.10378 -0.422949,0.114004 -0.169409,0.0193386 -0.214591,0.306319 0.116567,0.150539 0.105614,-0.0496969 0.208102,-0.0993543 0.306382,-0.150571l0 -0.113972z"/>
   <path id="_352372480" class="fil10" d="M1.86663 4.46277c-0.524622,0.0791417 -0.739307,0.997287 0.00196457,1.14907 0.813165,0.166555 0.52528,-1.2286 -0.00196457,-1.14907z"/>
   <path id="_352372864" class="fil14" d="M4.7863 4.65145c0.0924606,0.347315 -0.634295,1.26742 -1.30873,1.24756 0.768055,-0.351303 0.795449,-0.804382 0.94613,-1.11017 0.0785039,-0.159264 0.152323,-0.194224 0.227421,-0.239051 -0.0265354,-0.0540787 -0.023811,-0.117512 0.0127283,-0.164559 0.0529803,-0.0682362 0.157075,-0.0760748 0.232484,-0.0174724 0.0754331,0.0585827 0.0935984,0.161374 0.0405984,0.229598 -0.0353465,0.0455236 -0.0934724,0.0641299 -0.15063,0.0540906z"/>
   <path id="_352372360" class="fil0" d="M4.87599 4.42749c0.176976,-0.846736 0.900071,-0.0579213 1.06674,-0.985087"/>
   <path id="_352372672" class="fil1" d="M4.86785 4.4258c0.0876457,-0.419339 0.307248,-0.443189 0.528724,-0.46724 0.225882,-0.0245236 0.453795,-0.0492795 0.53798,-0.517618l0.0163386 0.00292913c-0.0863898,0.480598 -0.32052,0.506031 -0.552563,0.531224 -0.215429,0.0233937 -0.429035,0.0465945 -0.514205,0.454091l-0.0162756 -0.00338583z"/>
   <path id="_352372600" class="fil2" d="M6.03109 3.4005c0.0201299,0.0248346 0.0163543,0.0612598 -0.00847244,0.0814055 -0.0248031,0.0201378 -0.0612559,0.0163425 -0.0813937,-0.00846457 -0.0201339,-0.0248228 -0.0163031,-0.0612638 0.00850394,-0.0814094 0.0248031,-0.0201181 0.0612283,-0.0163346 0.0813622,0.0084685z"/>
  </g>
  <rect class="fil0" width="6.82666" height="6.82666"/>
 </g>
</svg>
