<?xml version="1.0" encoding="UTF-8"?>
<!DOCTYPE svg PUBLIC "-//W3C//DTD SVG 1.1//EN" "http://www.w3.org/Graphics/SVG/1.1/DTD/svg11.dtd">
<!-- Creator: CorelDRAW -->
<svg xmlns="http://www.w3.org/2000/svg" xml:space="preserve" width="6.82666in" height="6.82666in" style="shape-rendering:geometricPrecision; text-rendering:geometricPrecision; image-rendering:optimizeQuality; fill-rule:evenodd; clip-rule:evenodd"
viewBox="0 0 6.82666 6.82666"
 xmlns:xlink="http://www.w3.org/1999/xlink">
 <defs>
  <style type="text/css">
   <![CDATA[
    .fil9 {fill:none}
    .fil8 {fill:#2B2021}
    .fil0 {fill:#2B2122}
    .fil1 {fill:#33292A}
    .fil3 {fill:#3B3031}
    .fil6 {fill:#424242}
    .fil2 {fill:#A47654}
    .fil4 {fill:#A5D6A7}
    .fil7 {fill:#E0E0E0}
    .fil5 {fill:#212121;fill-rule:nonzero}
   ]]>
  </style>
 </defs>
 <g id="Layer_x0020_1">
  <metadata id="CorelCorpID_0Corel-Layer"/>
  <path class="fil0" d="M5.24548 4.95691c0.106169,0.288441 0.265953,0.360268 0.106071,0.659445 -0.0871024,0.162984 0.183339,0.269047 0.28215,0.222382 0.0770197,-0.0363701 0.0875197,-0.130992 0.125945,-0.21465 0.0100197,-0.021815 -0.00358268,-0.0299528 -0.0189528,-0.0420079 0.0496102,0.00766142 0.0348346,0.047626 0.0145433,0.0773583l-0.000492126 -0.000519685c-0.0120787,0.0671378 -0.014122,0.117323 -0.0614213,0.170933 -0.122642,0.139 -0.496169,-0.0132756 -0.385244,-0.236559 0.139146,-0.280071 -0.0178583,-0.339539 -0.127724,-0.622154 -0.00392913,-0.0179843 0.00746457,-0.035748 0.0254488,-0.0396772 0.0179843,-0.00392913 0.035748,0.00746457 0.0396772,0.0254488z"/>
  <path class="fil1" d="M5.099 4.53988c0.221276,0.431917 0.268315,0.860807 -0.188705,1.12678 0.0359921,0.0241024 0.0718465,0.0498307 0.0689646,0.108535 -0.0024685,0.0502244 -0.0142441,0.0823386 -0.0569961,0.104957 -0.030122,0.015937 -0.0735945,0.0210906 -0.14476,0.0210906 -0.0708976,0 -0.269087,0.00340157 -0.476024,0.00694882 -0.262315,0.00449213 -0.656323,0.0926811 -0.836154,-0.15115 -0.0202913,-0.0275157 -0.0351535,-0.0567087 -0.0421378,-0.0855118 -0.0083622,-0.0344882 -0.00575591,-0.0680551 0.0111063,-0.098126 0.0246654,-0.0439882 0.0778071,-0.0754528 0.169602,-0.0822283 0.100512,-0.00740945 0.193878,-0.0126142 0.278386,-0.0161181 0.0653031,-0.00270866 0.123075,-0.00433858 0.173331,-0.00514567 -0.0516339,-0.0445591 -0.143732,-0.117594 -0.228248,-0.184614 -0.0829252,-0.0657598 -0.159181,-0.126236 -0.192941,-0.161878 -0.0846535,-0.089374 -0.108953,-0.209339 -0.0833976,-0.302394 -0.0730748,-0.112949 -0.160571,-0.173091 -0.257638,-0.243354 -0.0415787,0.129189 0.0209094,0.986626 -0.0858346,1.27283 -0.0376811,0.101035 -0.168984,0.0707835 -0.264728,0.0690591 -0.103807,-0.00144094 -0.326665,-0.0631929 -0.285795,-0.194024 0.0107283,-0.0343465 0.0352323,-0.0578346 0.0751496,-0.0644528 0.0741063,-0.012248 0.123724,-0.0948504 0.121992,-0.164913 -0.000783465,-0.0309331 0.00455906,-0.356425 0.010689,-0.692571 0.00396063,-0.216984 0.00733071,-0.405075 0.00974016,-0.527504 0.00903543,-0.458925 -0.532248,-0.324299 -0.362205,-1.33468 0.0302244,-0.179563 0.0570945,-0.339217 0.0482323,-0.394043l-0.000389764 -0.00187795c-0.0120039,-0.0636063 -0.190185,-0.141661 -0.245091,-0.135291l-0.00120866 0.000244094c-0.00359055,0.000673228 -0.00751969,0.0110118 -0.0215827,0.025811 -0.0668307,0.0703346 -0.171984,0.180949 -0.355472,0.0875433 -0.24728,-0.10528 -0.184374,-0.389555 -0.209047,-0.59802 -0.0247953,-0.0302087 -0.0292638,-0.0690827 -0.0179764,-0.107335 0.00594488,-0.020122 0.0165709,-0.0400157 0.0309646,-0.0577362 0.0130984,-0.016126 0.0295315,-0.0306811 0.0485551,-0.0421299 0.00109843,-0.000740157 0.00222835,-0.00144488 0.00339764,-0.00211417 0.0496181,-0.0283504 0.115071,-0.036189 0.183657,0.00174803 0.120268,-0.0170945 0.188339,-0.195362 0.286756,-0.247173 0.0698346,-0.0367598 0.173232,-0.0669882 0.472362,-0.0575039l0.16863 -0.471461 9.05512e-005 3.14961e-005c0.00344882,-0.00969291 0.00974016,-0.0184921 0.0186614,-0.0250315 0.0237008,-0.0173701 0.0570039,-0.0122402 0.074374,0.0114606 0.000570866,0.000775591 0.199772,0.269453 0.173677,0.526933 -0.0123268,0.121705 -0.0259331,0.204118 -0.0384606,0.261756 -0.00772441,0.0355433 -0.0151811,0.062311 -0.0217362,0.0832323 0.100858,0.0978386 0.275465,0.362472 0.474535,0.664205 0.389602,0.590524 1.24417,1.54917 1.51367,2.07522z"/>
  <path class="fil1" d="M1.70893 1.89083c0.00280315,0.00574016 0.00588189,0.0114331 0.00924409,0.0170551 0.0541535,0.0905669 0.16111,0.128909 0.238886,0.0856378 0.0777795,-0.0432756 0.0969252,-0.151776 0.0427638,-0.242346 -0.00725591,-0.0121378 -0.0154646,-0.0233386 -0.0244213,-0.0335276 -0.0682126,-0.0372953 -0.13326,-0.0293937 -0.18263,-0.00118504 -0.00116929,0.000669291 -0.00229921,0.00137402 -0.00339764,0.00211417 -0.0190236,0.0114488 -0.0354567,0.0260039 -0.0485551,0.0421299 -0.0143937,0.0177205 -0.0250197,0.0376142 -0.0309646,0.0577362 -0.0072874,0.0247047 -0.00800787,0.0496654 -0.000925197,0.0723858z"/>
  <path class="fil2" d="M1.72783 1.92578c0.0246732,0.208465 -0.0382323,0.49274 0.209047,0.59802 0.183488,0.0934055 0.288642,-0.0172087 0.355472,-0.0875433 0.014063,-0.0147992 0.0179921,-0.0251378 0.0215827,-0.025811l0.00120866 -0.000244094c0.0549055,-0.00637008 0.233087,0.071685 0.245091,0.135291l0.000389764 0.00187795c0.0088622,0.0548268 -0.0180079,0.21448 -0.0482323,0.394043 -0.00524803,0.0311732 -0.00981496,0.0612559 -0.0137441,0.0902992 0.00449606,-0.00894488 0.00762205,-0.0151929 0.00781496,-0.0154961 0.0430669,-0.0674094 0.0215591,-0.0371811 0.0745039,-0.0866575 0.0554134,-0.0517835 0.151004,-0.092189 0.209228,-0.125598l0.00605118 -0.00347244c0.123217,-0.0706969 0.175661,-0.0972835 0.219346,-0.242756 0.0257874,-0.0858622 -0.00138976,-0.237949 -0.0934528,-0.271429 -0.0889291,-0.0323425 -0.130555,-0.0197323 -0.217563,-0.0416654l-0.0119016 -0.00575591c-0.137591,-0.0665197 -0.145311,0.0104685 -0.268256,-0.148713 -0.097122,-0.125752 -0.243776,-0.115445 -0.284425,-0.181744 -0.063437,-0.103465 -0.00698819,-0.207638 -0.00057874,-0.314606 -0.047748,0.0582874 -0.0976693,0.11511 -0.162984,0.124394 -0.00034252,-0.000188976 -0.000685039,-0.000377953 -0.00102756,-0.000562992 0.00895669,0.010189 0.0171654,0.0213898 0.0244213,0.0335276 0.0541614,0.0905709 0.0350157,0.199071 -0.0427638,0.242346 -0.0777756,0.0432717 -0.184732,0.00492913 -0.238886,-0.0856378 -0.0033622,-0.00562205 -0.00644094,-0.011315 -0.00924409,-0.0170551 0.00388583,0.0124606 0.0101181,0.024248 0.0189016,0.0349488z"/>
  <path class="fil3" d="M4.48208 4.93503c-0.403063,-0.27663 -0.961071,-0.465055 -0.9425,-0.011063 0.00706693,0.0678937 0.0400472,0.141598 0.0948425,0.199449 0.0337598,0.0356417 0.110016,0.0961181 0.192941,0.161878 0.0845157,0.0670197 0.176614,0.140055 0.228248,0.184614 -0.0502559,0.000807087 -0.108028,0.00243701 -0.173331,0.00514567 -0.0845079,0.00350394 -0.177874,0.00870866 -0.278386,0.0161181 -0.0917953,0.00677559 -0.144937,0.0382402 -0.169602,0.0822283 -0.0168622,0.0300709 -0.0194685,0.0636378 -0.0111063,0.098126 0.00698425,0.0288031 0.0218465,0.0579961 0.0421378,0.0855118 0.179831,0.243831 0.573839,0.155642 0.836154,0.15115 0.206937,-0.00354724 0.405126,-0.00694882 0.476024,-0.00694882 0.0711654,0 0.114638,-0.00515354 0.14476,-0.0210906 0.042752,-0.0226181 0.0545276,-0.0547323 0.0569961,-0.104957 0.00262598,-0.0535039 -0.0269252,-0.0796142 -0.0594291,-0.102067 -0.00806693,-0.000972441 -0.0366654,0.00238976 -0.0277756,-0.00340157 0.157445,-0.102539 0.624343,-0.223815 -0.409972,-0.734693z"/>
  <path class="fil2" d="M3.20755 5.8505c0.0747992,-0.200547 0.0665,-0.681575 0.0691417,-0.995988 -0.00645276,-0.00620079 -0.0112205,-0.0117362 -0.0125906,-0.0183661 -0.0297283,-0.00685827 -0.0787953,-0.0359803 -0.0998031,-0.0567441 -0.0943228,-0.0585197 -0.173508,-0.260469 -0.135118,-0.331547 0.10426,-0.193051 0.0263307,-0.204827 -0.0880394,-0.335567 -0.0565118,-0.0646024 -0.120929,-0.15 -0.164161,-0.220429 -0.0145157,-0.0236496 -0.0950433,-0.0649055 -0.161098,-0.10002 0.116126,0.165776 0.263465,0.242996 0.258717,0.484256 -0.00240945,0.122429 -0.00577953,0.31052 -0.00974016,0.527504 -0.00612992,0.336146 -0.0114724,0.661638 -0.010689,0.692571 0.00173228,0.070063 -0.0478858,0.152665 -0.121992,0.164913 -0.0399173,0.00661811 -0.0644213,0.0301063 -0.0751496,0.0644528 -0.0408701,0.130831 0.181988,0.192583 0.285795,0.194024 0.0957441,0.00172441 0.227047,0.0319764 0.264728,-0.0690591z"/>
  <path class="fil2" d="M4.45035 5.75163c-0.352713,0 -0.098189,-0.139862 -0.260319,-0.183433 -0.0302756,-0.00813386 -0.0665433,-0.0175157 -0.0960315,-0.0185512 -0.362469,-0.0127598 -0.379429,0.0482362 -0.369012,-0.0665748 -0.0390551,0.00234646 -0.0794606,0.00503937 -0.121091,0.0081063 -0.0917953,0.00677559 -0.144937,0.0382402 -0.169602,0.0822283 -0.0168622,0.0300709 -0.0194685,0.0636378 -0.0111063,0.098126 0.00698425,0.0288031 0.0218465,0.0579961 0.0421378,0.0855118 0.179831,0.243831 0.573839,0.155642 0.836154,0.15115 0.206937,-0.00354724 0.405126,-0.00694882 0.476024,-0.00694882 0.0711654,0 0.114638,-0.00515354 0.14476,-0.0210906 0.0400079,-0.0211654 0.0528898,-0.0506496 0.0564016,-0.0955079 -0.174894,-0.0783425 -0.313575,-0.0330157 -0.514228,-0.0330157l-0.0140866 0z"/>
  <path class="fil4" d="M2.52491 1.71035c-0.0446339,0.027311 -0.0631575,0.078311 -0.041374,0.113906 0.0217835,0.0355984 0.075622,0.042315 0.120256,0.0150039 0.0446299,-0.027311 0.0631535,-0.078311 0.0413701,-0.113906 -0.0217795,-0.0355984 -0.075622,-0.042315 -0.120252,-0.0150039z"/>
  <path class="fil5" d="M2.52224 1.706c-0.0238189,0.0145748 -0.0406772,0.0354764 -0.0486654,0.0574803 -0.00799606,0.0220039 -0.00712598,0.0451181 0.0045,0.0641181 0.011626,0.0189961 0.0318071,0.0302874 0.0550433,0.033185 0.0232244,0.00289764 0.0495118,-0.00259449 0.0733307,-0.0171693 0.0238189,-0.0145787 0.0406732,-0.0354803 0.0486693,-0.0574843 0.00798819,-0.0220039 0.00712205,-0.0451181 -0.0045,-0.0641142 -0.011626,-0.019 -0.0318189,-0.0302913 -0.0550433,-0.033189 -0.0232323,-0.00289764 -0.0495157,0.00259449 -0.0733346,0.0171732zm-0.037189 0.0589134c0.00697638,-0.0192126 0.0217047,-0.0374764 0.0425157,-0.0502087 0.020811,-0.0127362 0.0437677,-0.0175394 0.0640591,-0.0150079 0.0202835,0.0025315 0.0379173,0.0123976 0.0480748,0.0289961 0.0101575,0.0165984 0.0109134,0.0367913 0.00393701,0.0560039 -0.00698031,0.0192126 -0.0217047,0.0374764 -0.0425157,0.0502087 -0.020811,0.0127362 -0.0437756,0.0175394 -0.0640551,0.0150079 -0.0202913,-0.0025315 -0.0379213,-0.0123976 -0.0480787,-0.0289961 -0.0101535,-0.0165984 -0.0109173,-0.0367913 -0.00393701,-0.0560039z"/>
  <path class="fil6" d="M2.53826 1.73218c-0.0295236,0.0180669 -0.0417756,0.0517953 -0.0273661,0.0753425 0.0144055,0.0235433 0.0500197,0.0279843 0.0795394,0.00992126 0.0295197,-0.018063 0.0417717,-0.0517953 0.0273661,-0.0753386 -0.0144094,-0.0235472 -0.0500197,-0.0279882 -0.0795394,-0.0099252z"/>
  <path class="fil7" d="M2.5611 1.73503c-0.00738976,0.00451969 -0.00970866,0.0141772 -0.00518504,0.0215748 0.00452362,0.0073937 0.0141811,0.00972441 0.0215709,0.00520079 0.00738583,-0.00451969 0.00970866,-0.0141772 0.0051811,-0.0215748 -0.00452362,-0.0073937 -0.0141811,-0.00972441 -0.0215669,-0.00520079z"/>
  <path class="fil8" d="M2.97273 1.15528c0.0340591,0.13152 0.0211142,0.271575 0.039063,0.410591 0.00161417,0.0124882 0.00994488,0.0705709 -0.00793701,0.0519843 -0.0478898,-0.0497835 -0.170732,-0.107626 -0.134425,-0.168457l0.00535827 -0.00897638c0.0495079,-0.0829449 0.0496102,-0.0992874 0.0727677,-0.183583 0.0120866,-0.0439961 0.0066063,-0.0431181 0.012,-0.0695945 0.00158661,-0.00777165 0.00496063,0.00101575 0.0086811,-0.0277795 0.000204724,-0.00156693 0.00461417,-0.0037126 0.00449213,-0.00418504z"/>
  <rect class="fil9" width="6.82666" height="6.82666"/>
 </g>
</svg>
