<?xml version="1.0" encoding="UTF-8"?>
<!DOCTYPE svg PUBLIC "-//W3C//DTD SVG 1.1//EN" "http://www.w3.org/Graphics/SVG/1.1/DTD/svg11.dtd">
<!-- Creator: CorelDRAW -->
<svg xmlns="http://www.w3.org/2000/svg" xml:space="preserve" width="6.82666in" height="6.82666in" style="shape-rendering:geometricPrecision; text-rendering:geometricPrecision; image-rendering:optimizeQuality; fill-rule:evenodd; clip-rule:evenodd"
viewBox="0 0 6.82666 6.82666"
 xmlns:xlink="http://www.w3.org/1999/xlink"
 xmlns:svg="http://www.w3.org/2000/svg"
 version="1.0">
 <defs>
  <style type="text/css">
   <![CDATA[
    .fil10 {fill:none}
    .fil5 {fill:#373435}
    .fil9 {fill:#6D912A}
    .fil7 {fill:#757575}
    .fil0 {fill:#82AD32}
    .fil2 {fill:#90BD3F}
    .fil3 {fill:#A1DB4D}
    .fil8 {fill:#C1503B}
    .fil6 {fill:#E6D9A2}
    .fil4 {fill:#FEFEFE}
    .fil1 {fill:#424242;fill-rule:nonzero}
   ]]>
  </style>
 </defs>
 <g id="Layer_x0020_1">
  <metadata id="CorelCorpID_0Corel-Layer"/>
  <path class="fil0" d="M3.6865 4.00687c0.00518504,0.0224764 -0.00518898,0.0414961 -0.0138307,0.0605118 -0.00864567,0.010374 -0.0172913,0.015563 -0.0242047,0.0224764 -0.0172913,0.00691732 -0.0293937,0.0155591 -0.0432244,0.0242047 -0.0155591,0.00691732 -0.0259331,0.0172874 -0.0414921,0.020748 -0.0172913,0.0138307 -0.0363071,0.0190157 -0.0553268,0.0276614 -0.0276614,0.0121024 -0.0501378,0.0276614 -0.0760709,0.0414921 -0.010374,0.0138307 -0.0190157,0.0242047 -0.0259331,0.0380354 -0.0224764,0.0276654 -0.0363071,0.0518701 -0.0639685,0.0743425 -0.0224764,0.015563 -0.0172874,0.0535984 -0.0345787,0.0743425 -0.0123819,0.0495394 -0.00122441,0.0605315 -0.0377559,0.235894 -0.00518504,0.0190197 0.0138583,0.060622 0.00867323,0.0709921 -0.102681,0.116823 -0.162551,-0.0504961 -0.235437,-0.0942283 -0.0303976,-0.00679528 -0.0408346,-0.0708661 -0.0200866,-0.101984 0.010374,-0.0138346 0.0650354,-0.0328701 0.0754094,-0.0432441 0.00864567,-0.0138307 0.0172913,-0.0276614 0.0259331,-0.0397638 0.0121024,-0.010374 0.00691732,-0.0259331 0.0190197,-0.0328504 0.020748,-0.0363071 0.020748,-0.0916299 0.0535945,-0.121024 0,-0.0138307 0.010374,-0.00864567 0.0138307,-0.0190157 0.0242047,-0.0224764 0.0449528,-0.0414961 0.0622402,-0.0639724 0.0121024,-0.0328465 0.0328504,-0.0535945 0.0605118,-0.0777992 0.0242047,-0.0207441 0.0328504,-0.0518661 0.0553268,-0.0743425 0.00172835,-0.0190157 0.0172874,-0.0259331 0.0224764,-0.0380354 0.0207441,-0.0224764 0.0363071,-0.0449528 0.0553228,-0.0622402 0.00518504,-0.0190157 0.0259331,-0.0242047 0.0345787,-0.0397638 0.0155591,-0.00345669 0.0138307,-0.0224764 0.0328504,-0.0259331 0.0138307,-0.00864567 0.0242008,-0.0328504 0.0449488,-0.0224764 0.0345787,0.00691732 0.0535945,0.0328504 0.0674291,0.0587835 0.00691339,0.0259331 0.0190157,0.0432205 0.0276614,0.0656969 0.00691339,0.0138307 0.0121024,0.0293898 0.0121024,0.0414921z"/>
  <path class="fil1" d="M1.57827 3.93939c0.00397244,0.00340157 0.00517717,0.0031063 0.00209449,-0.00380709 -0.00167717,-0.00376378 -0.00046063,0.00166142 -0.00209449,0.00380709z"/>
  <path class="fil0" d="M5.9842 3.41559c0.00173228,0.0155591 -0.00691339,0.0259331 -0.0172874,0.0328465 -0.181165,0.123772 -0.0932835,0.0517717 -0.197094,0.0812598 -0.00518504,0.00172835 -0.00691339,0.00691339 -0.00691339,0.00172835 -0.132154,-0.128319 -0.468594,-0.0598937 -0.620677,0.0414921 -0.0103701,0.00864567 -0.0207441,0.010374 -0.0293898,0.0172913 -0.0224764,0.00691339 -0.0535945,0.010374 -0.0760709,0.00345669 -0.010374,-0.00518504 -0.0190197,-0.00691732 -0.0259331,-0.0155591 -0.0138307,-0.00346063 -0.0242047,-0.00864567 -0.0363071,-0.00864567 -0.00864567,-0.020748 -0.00518898,-0.0466811 -0.0190197,-0.0656969 -0.00864173,-0.0259331 -0.0276614,-0.0363071 -0.0397638,-0.0605118 -0.00864567,-0.031122 -0.0190157,-0.0587835 -0.0466811,-0.0743425 -0.0103701,-0.0138307 -0.0138307,-0.0345787 -0.0242047,-0.0466811 -0.00172835,-0.010374 -0.00345669,-0.020748 -0.0138307,-0.0259331 -0.0207441,-0.0138307 -0.0501378,-0.00691732 -0.0691535,-0.0121024 0.0155591,-0.010374 0.00518504,-0.0363071 0.0224764,-0.0466811 0.00864173,-0.0242047 0.0293898,-0.0397638 0.0432205,-0.0570512 0.0138307,-0.00691732 0.0121024,-0.025937 0.0224764,-0.0345787 0.11276,0.0469803 0.157232,0.163394 0.245504,0.210925 0.010374,0.010374 0.0276614,0.010374 0.0414921,0.00691339 0.194902,-0.0599646 0.518756,-0.177161 0.682913,-0.0950866 0.0687008,0.0108504 0.173728,0.0616417 0.164244,0.146957z"/>
  <path class="fil2" d="M5.33069 2.13448c-0.00691732,0.0172874 -0.0190197,0.0328504 -0.0380354,0.0414921 -0.0553268,0.00518898 -0.122752,0.0242047 -0.169433,-0.00172835 -0.00691732,-0.00518504 -0.010374,-0.0121024 -0.0190197,-0.0172874 -0.0432205,-0.020748 -0.103732,-0.010374 -0.148685,-0.0328504 -0.0518661,-0.0155591 -0.105461,-0.0345787 -0.138311,-0.0656969 -0.010374,-0.0121024 -0.0276614,-0.020748 -0.0345787,-0.0345787 -0.0138307,-0.0155591 -0.0345748,-0.0155591 -0.0553228,-0.0138307 -0.00691732,0.00518504 -0.0190197,0.00345669 -0.020748,0.00691732 -0.00518504,0.00864173 -0.00345669,0.0242047 0.00518898,0.0242047 0.0138307,-0.00518898 0.0345748,-0.0172913 0.0501378,-0.00518898 0.0155591,0.0155591 0.0328465,0.0293898 0.0484094,0.0449528 0.00864173,0.00518504 0.0155591,0.0121024 0.0242047,0.0155591 0.0207441,0.0172874 0.0484055,0.0242047 0.0726102,0.0345787 0.0864449,0.0363071 0.17635,0.0242047 0.242047,0.0795276 0.0501378,0.00172835 0.100276,-0.00691339 0.146957,-0.00864173 0,0.0242008 0,0.0484055 -0.0155591,0.0639685 -0.015563,0.00691339 -0.0293937,0.0138307 -0.0466811,0.0207441 -0.0570551,0.0121024 -0.119295,0.010374 -0.171161,-0.0121024 -0.00864567,-0.00345669 -0.0138307,-0.0103701 -0.0224764,-0.0155591 -0.0190157,-0.020748 -0.0414921,-0.0276614 -0.0605118,-0.0432205 -0.0242047,-0.0190197 -0.0605118,-0.0276654 -0.0899016,-0.0224764 -0.0363071,0.010374 -0.0760709,0.00172835 -0.105461,-0.0155591 -0.015563,-0.010374 -0.0380394,-0.00173228 -0.0466811,-0.0190197 -0.0138307,-0.00172835 -0.020748,0.00864567 -0.031122,0.00864567 -0.00864173,0.00864173 -0.0224764,0.010374 -0.0311181,0.0190157 0.00345669,0.00864567 0.0155591,0 0.0259331,-0.00172835 0.00518504,-0.00691339 0.0121024,-0.0121024 0.0190157,-0.00691339 0.0190197,0.0155591 0.0484094,0.0121024 0.0657008,0.0276614 0.0553228,0.0345787 0.117563,-0.00518898 0.167701,0.0224764 0.0121024,0.00518504 0.0190197,0.0155591 0.031122,0.0190157 0.010374,0.0121024 0.0207441,0.0121024 0.0293898,0.0224764 0.00691732,0.00345669 0.0138307,0.00518504 0.0155591,0.0138307 -0.00864173,0.0242047 -0.0276614,0.0397638 -0.0311181,0.0674291 -0.00825197,0.0577047 -0.156744,0.760311 -0.184992,0.807394 -0.0155591,0.0138307 -0.0242047,0.0311181 -0.0380354,0.0414921 -0.00864567,0.020748 -0.0224764,0.0363071 -0.0293937,0.0587835 -0.00864173,0.010374 -0.00691339,0.0242047 -0.0207441,0.0293898 -0.112378,-0.0242047 -0.219571,0.0380354 -0.33022,0 -0.0397638,-0.00345669 -0.0743425,0.00346063 -0.11065,0.00691732 0.00691732,-0.0172913 0.0259331,-0.0242047 0.0293937,-0.0432244 0.0155591,-0.010374 0.0207441,-0.0363071 0.0345748,-0.0466772 0.0121024,-0.025937 0.0242047,-0.0484094 0.0293937,-0.0778031 0.00518504,-0.0190157 0.0155591,-0.0363071 0.0224764,-0.0553228 0.0172874,-0.0242047 0.0535945,-0.0224764 0.0639685,-0.0466811 0.00172835,-0.00864567 -0.00518898,-0.00864567 -0.00691732,-0.00691732 -0.0138307,0.00346063 -0.0242047,0.0121024 -0.0363071,0.015563 -0.0207441,0.00518504 -0.0276614,0.0190157 -0.0414921,0.0311181 -0.00864567,0.0363071 -0.0242047,0.0622402 -0.0345787,0.0950906 -0.00518504,0.00691339 -0.00691732,0.0138307 -0.010374,0.0172874 -0.00691339,0.020748 -0.0259331,0.0293937 -0.0276614,0.0501378 -0.00691732,0.0138307 -0.020748,0.020748 -0.0259331,0.0345787 -0.0121024,0.0155591 -0.0345787,0.0276614 -0.0380354,0.0449528 0.0121024,0.0172874 0.0363071,0.010374 0.0535945,0.00864173 0.0812598,-0.0224724 0.157331,0.020748 0.238587,0.00346063 0.0881772,-0.0155591 0.17635,-0.00346063 0.261067,-0.00518898 0.0276614,0.00346063 0.0363031,0.0259331 0.0432205,0.0484094 0,0.00864567 -0.0138307,0.00691732 -0.0138307,0.0172913 -0.0121024,0.0622402 0.020748,0.141768 -0.0432244,0.179803 -0.00691339,0.010374 -0.0155591,0.0121024 -0.0259331,0.010374 -0.0172874,-0.0155591 -0.0190157,-0.0363071 -0.0328465,-0.0466811 -0.00864567,-0.00691339 -0.0190197,-0.0155591 -0.015563,-0.0242047 -0.0040748,-0.0805472 -0.116476,-0.0343583 -0.0708819,-0.0501378 -0.0535984,0.0224764 -0.11411,0.0259331 -0.169433,0.0363071 -0.0553268,0.0121024 -0.11065,0.0259331 -0.159059,0.0380354 -0.0674252,0.00864567 -0.138311,0.0259331 -0.20228,0.00864567 -0.0484094,-0.0121024 -0.0933622,-0.0224764 -0.115839,-0.0587835 -0.0172874,-0.0190157 -0.0276614,-0.0466811 -0.0190157,-0.0656969 0.0172874,-0.0224764 0.00691339,-0.0535945 0.0224764,-0.0726142 0,-0.0449528 0.00864173,-0.0899016 0.0155591,-0.131398 0.00345669,-0.0345748 0.0138307,-0.0674252 0.0259331,-0.0985472 0.0155591,-0.0242047 0.0155591,-0.0570512 0.00691732,-0.0829843 -0.015563,-0.0190197 -0.010374,-0.0501378 -0.0224764,-0.0691575 -0.00691732,0 -0.0155591,0 -0.0138307,0.00691732 0.0172874,0.0691535 0.0242047,0.129665 -0.0121024,0.193634 -0.0172913,0.0726142 -0.0121024,0.152146 -0.0363071,0.22476 -0.0138307,0.0276614 -0.0172913,0.0605079 -0.00691732,0.0881732 0.010374,0.0155591 0.0276614,0.0242047 0.0380354,0.0380354 0.0242047,0.0190157 0.0484094,0.0293898 0.0760709,0.0380354 0.0121024,0 0.0224764,0.00345669 0.0276654,0.00691339 0.0899016,0.0242047 0.181531,0.00172835 0.26452,-0.0172874 0.0622402,-0.00864567 0.119295,-0.0363071 0.174618,-0.031122 -0.014437,0.0385079 -0.415508,0.286098 -0.480634,0.293913 0,-0.0553228 -0.00864173,-0.11065 -0.0311181,-0.162516 -0.00691732,-0.0121024 -0.0121024,-0.0224764 -0.020748,-0.0311181 -0.00691339,-0.0138346 -0.0155591,-0.020748 -0.0190157,-0.0328504 -0.020748,-0.0259331 -0.0380394,-0.0501378 -0.0587835,-0.0674291 -0.00518898,-0.0190157 -0.0190197,-0.0276614 -0.0259331,-0.0432205 -0.010374,-0.0190197 -0.0259331,-0.0293898 -0.0328504,-0.0449528 -0.0121024,-0.0155591 -0.0172874,-0.0345748 -0.0293898,-0.0484094 -0.010374,-0.0207441 -0.0224764,-0.0414921 -0.031122,-0.0674252 -0.00518504,-0.0121024 -0.00172835,-0.0224764 -0.0121024,-0.0293898 -0.0207441,-0.0968189 0.0155591,-0.197094 -0.010374,-0.290457 -0.00864173,0.00172835 -0.00864173,0.0121024 -0.0103701,0.020748 0.0207441,0.0968189 -0.0276654,0.191906 0.00518504,0.281811 0.00864567,0.0570512 0.0414921,0.0933583 0.0622402,0.138311 0.0121024,0.0138307 0.0138307,0.0311181 0.0276614,0.0414921 0.0172913,0.0276614 0.0345787,0.0570551 0.0570551,0.0812598 0.0259331,0.0207441 0.0363071,0.0449488 0.0570512,0.0708819 0.0587835,0.0795315 0.0484094,0.193638 0.0414961,0.288728 -0.0197402,-0.0180197 -0.0432913,1.02393 0.247232,0.885193 0.010374,-0.00864173 0.0190157,-0.0172874 0.0293898,-0.0138307 0.202248,0.157323 -0.0146417,0.306354 -0.179866,0.309591 -0.0886299,0.00173228 -0.162406,-0.0384803 -0.148622,-0.141886 0.0322283,-0.108787 -0.141303,-0.533469 -0.167705,-0.605114 -0.0607835,-0.202622 -0.154398,-0.485693 -0.34578,-0.56535 -0.277618,-0.11689 -0.41678,-0.221909 -0.752071,-0.333677 -0.107189,-0.0190157 -0.209197,-0.0224764 -0.314657,-0.0172874 -0.0328504,0.00172835 -0.0587835,0.00864173 -0.0881732,0.010374 -0.0380354,0.00864173 -0.0760709,0.0121024 -0.114106,0.0207441 -0.0224764,0 -0.0449528,0.00864567 -0.0639724,0.0121024 -0.0345748,0.010374 -0.0674252,0.0138307 -0.100276,0.0259331 -0.0138307,0.00172835 -0.0276614,0.00691732 -0.0414921,0.010374 -0.39887,0.0664764 -0.763228,0.348768 -1.11687,0.525587 0.312866,-0.335354 1.25469,-0.768728 1.39868,-0.816039 0.162976,-0.065189 0.476752,-0.106016 0.605114,-0.202283 0.402547,-0.18902 0.764327,-0.396098 1.39176,-0.330217 0.0224764,0.00345669 0.0432244,-0.00172835 0.0639685,-0.00691732 0.199374,-0.179437 0.303075,-0.430244 0.236858,-0.714035 -0.0188583,-0.341768 0.00382677,-0.250157 0.204012,-0.309472 0.183819,-0.0545472 0.342846,-0.0236024 0.45124,0.100276 0.00499213,0.154764 0.148945,0.225398 0.115839,0.390732z"/>
  <path class="fil3" d="M3.54031 3.82126c-0.0195551,-0.0117441 -0.0613898,-0.0429409 -0.0854803,-0.0529685 -0.277618,-0.11689 -0.41678,-0.221909 -0.752071,-0.333677 -0.107189,-0.0190157 -0.209197,-0.0224764 -0.314657,-0.0172874 -0.0328504,0.00172835 -0.0587835,0.00864173 -0.0881732,0.010374 -0.0380354,0.00864173 -0.0760709,0.0121024 -0.114106,0.0207441 -0.0224764,0 -0.0449528,0.00864567 -0.0639724,0.0121024 -0.0327598,0.00983071 -0.0639724,0.0134488 -0.0951063,0.0240984 -0.0298465,0.00658661 -0.0527795,0.0121929 -0.0617441,0.0155709l-0.00191732 0.000551181c0.027878,-0.0226693 0.314083,-0.12422 0.354118,-0.129228 0.190177,-0.0708819 0.478902,-0.0345748 0.665622,0.0397677 0.122106,0.0407008 0.480098,0.305059 0.562543,0.394185 -0.00155118,0.016752 0.00263386,0.0166339 -0.00505512,0.0157677z"/>
  <path class="fil0" d="M4.94168 3.56082c0,0.0501378 0,0.112378 -0.0276614,0.157331 -0.00864567,0.00345669 -0.00864567,0.0138307 -0.0172874,0.00864567 -0.0190197,-0.0190197 -0.0484094,-0.00346063 -0.0657008,-0.00518898 -0.00518504,-0.00518504 -0.0190157,-0.00518504 -0.0155591,-0.0138307 0.00518504,-0.0121024 0.00518504,-0.0276614 0.0121024,-0.0311181 0.0138307,-0.00518898 0.0138307,-0.0172913 0.0242047,-0.0242047 0.00518504,-0.00691732 0.00345669,-0.020748 0.0172874,-0.020748 0.0190197,-0.00518504 0.0259331,-0.0190157 0.0363071,-0.0328504 0.00691732,-0.0259331 0.020748,-0.0380354 0.010374,-0.0674252 -0.00345669,-0.00691732 -0.00691339,-0.010374 -0.00345669,-0.0172874 0.00864567,-0.00691732 0.00345669,-0.0190197 0.00691339,-0.025937 0.015563,0.0190197 0.020748,0.0466811 0.0224764,0.0726142z"/>
  <path class="fil2" d="M4.9071 3.4761c-0.0138307,0.00518898 -0.0121024,0.0224764 -0.0155591,0.0363071 0.00691732,0.0345787 -0.00345669,0.0743425 -0.0224764,0.0968189 -0.00864173,0 -0.0207441,0.00864567 -0.0242047,0 -0.00345669,-0.0138307 -0.0121024,-0.0190157 -0.0207441,-0.0259331 -0.00864567,-0.00345669 -0.020748,-0.00345669 -0.0242047,-0.00691339 0.00691339,-0.015563 0.0207441,-0.025937 0.0293898,-0.0414961 0.00691732,-0.00345669 0.0121024,-0.00691339 0.010374,-0.0138307 0.010374,-0.0466811 -0.00691732,-0.0985472 0.010374,-0.136583 0.0190157,0.00518504 0.0311181,0.020748 0.0345787,0.0363071 0,0.0242047 0.0207441,0.0363071 0.0224724,0.0553228z"/>
  <path class="fil4" d="M4.8829 3.74408c-0.00864173,0.0242047 -0.0276614,0.0432244 -0.0484055,0.0587835 -0.0138346,0.00518504 -0.0224764,0.0155591 -0.0363071,0.0155591 0.00172835,-0.0121024 0.0224724,-0.0293898 0.0293898,-0.0466811 0.0121024,-0.00691339 0.00691732,-0.0259331 0.0155591,-0.0328465 0.0121024,0 0.0276654,-0.00864567 0.0380354,0 0.00172835,0.00345669 0,0.00345669 0.00172835,0.00518504z"/>
  <path class="fil5" d="M4.84659 1.87342c-0.00173228,0.00345669 -0.00691732,0.00864567 -0.0121024,0.00518504 -0.0138346,-0.0103701 -0.0345787,-0.00691339 -0.0449528,-0.0190157 -0.0414921,-0.00691732 -0.0795276,-0.0155591 -0.100276,-0.0518661 -0.00691732,-0.010374 -0.00172835,-0.020748 -0.010374,-0.0276654 -0.0138307,0 -0.0242047,0.0190197 -0.0363071,0.0138346 -0.00345669,-0.00346063 -0.00518504,-0.010374 -0.00172835,-0.010374 0.0311181,-0.00518898 0.0380354,-0.0484094 0.0726142,-0.0484094 0.0121024,-0.00518898 0.0172874,0 0.0276614,0 0.0345787,0.0138307 0.0587835,0.0380354 0.0708858,0.0708858 0.00518504,0.0155591 0.00691339,0.0328465 0.0207441,0.0432205 0.00346063,0.010374 0.00864567,0.0172874 0.0138346,0.0242047z"/>
  <path class="fil4" d="M4.80337 1.84748c-0.00345669,0.00172835 -0.00691339,-0.00691732 -0.010374,-0.00691732 0,-0.00172835 0.00346063,-0.00518504 0.00518898,-0.00172835 0.00172835,0.00172835 0.00691339,0.00518898 0.00518504,0.00864567z"/>
  <path class="fil6" d="M4.78608 1.80253c0,0.010374 -0.010374,0.0172913 -0.0190197,0.0224764 -0.0242047,0.00172835 -0.0466811,-0.00864567 -0.0587835,-0.0242047 -0.00345669,-0.0172874 -0.0103701,-0.0380354 -0.00172835,-0.0466811 0.0138307,-0.00172835 0.0276614,0 0.0380354,0.00346063 0,0.0138307 -0.0190157,0.0293898 -0.0138307,0.0535945 0.0259331,0.00691339 0.0535984,-0.0138307 0.0484094,-0.0155591 0.00172835,0.00172835 0.00691732,0.00345669 0.00691732,0.00691339z"/>
  <path class="fil4" d="M4.77052 1.7766c-0.00172835,0.00691732 -0.0121024,0.00345669 -0.0172874,0.00864567 -0.00345669,-0.00345669 0.00172835,-0.010374 0.00518504,-0.0138307 0.00518898,-0.00172835 0.0121024,0 0.0121024,0.00518504z"/>
  <path class="fil7" d="M4.76934 3.54978c-0.020937,0.0325669 -0.0651299,0.0372205 -0.104673,0.0395433 0.0232598,-0.0162795 0.0348898,-0.0372165 0.0581496,-0.0534961 0.00232677,-0.0186102 0.0116299,-0.0279134 0.00930315,-0.0418701 0.020937,0.00930315 0.0186102,0.0372165 0.0348937,0.0488465 0.00232677,0.00232677 0.00232677,0.00697638 0.00232677,0.00697638z"/>
  <path class="fil4" d="M4.38152 5.08398c0,0.00346063 0,0.010374 -0.00172835,0.015563 -0.010374,-0.00864567 -0.020748,-0.015563 -0.0328504,-0.0276654 -0.00864567,-0.00864173 -0.020748,-0.0138307 -0.0276614,-0.0207441 0.0121024,-0.00518898 0.00691339,-0.0242047 0.0138307,-0.0293937 0.00864567,-0.00345669 0.0155591,-0.00345669 0.0190197,0 0.0121024,0.020748 0.0259331,0.0380354 0.0293898,0.0622402z"/>
  <path class="fil3" d="M5.02985 2.28317c-0.0224724,-0.0190157 -0.0691535,-0.0570551 -0.096815,-0.0605118 -0.0535984,-0.00691339 -0.0829882,-0.00518504 -0.134854,-0.00518504 0,0.303327 -0.0448701,0.69963 -0.236862,0.945705 -0.0138307,0.0172913 -0.191906,0.108921 -0.133122,0.12448 0.0899016,0.0242047 0.219567,-0.0293898 0.300827,0 0.100276,-0.0513228 0.284079,-0.670709 0.26798,-0.950894 0.00518504,-0.00345669 0.0276614,-0.0449488 0.0328465,-0.0535945z"/>
  <path class="fil3" d="M4.53193 3.50031c-0.0249803,0.0640669 -0.441937,0.296713 -0.477173,0.292185 -0.00346063,-0.0535945 -0.0190197,-0.155602 -0.0501378,-0.188449 -0.00518898,-0.0345787 0.00172835,-0.0760709 0.157327,-0.0449528 0.112378,-0.00691339 0.136583,-0.0155591 0.247232,-0.0380354 0.0155591,-0.00345669 0.0674291,-0.020748 0.0829882,-0.020748 0.00691339,0 0.0328504,0 0.0397638,0z"/>
  <path class="fil8" d="M4.76533 1.78697c-0.00518504,0 -0.00864567,0.00345669 -0.00864567,0.00691732 0,0.00345669 0.00346063,0.00518504 0.00864567,0.00518504 0.00518504,0 0.00864567,-0.00172835 0.00864567,-0.00518504 0,-0.00346063 -0.00346063,-0.00691732 -0.00864567,-0.00691732z"/>
  <path class="fil9" d="M4.97972 2.21574c-0.0242047,-0.0190197 -0.0605118,-0.0276654 -0.0899016,-0.0224764 -0.0363071,0.010374 -0.0760709,0.00172835 -0.105461,-0.0155591 -0.015563,-0.010374 -0.0380394,-0.00173228 -0.0466811,-0.0190197 -0.0138307,-0.00172835 -0.020748,0.00864567 -0.031122,0.00864567 -0.00864173,0.00864173 -0.0224764,0.010374 -0.0311181,0.0190157 0.00345669,0.00864567 0.0155591,0 0.0259331,-0.00172835 0.00518504,-0.00691339 0.0121024,-0.0121024 0.0190157,-0.00691339 0.0190197,0.0155591 0.0484094,0.0121024 0.0657008,0.0276614 0.00962992,0.00601969 0.0194724,0.0097874 0.0294252,0.0120472 0.0257362,-0.000141732 0.0464252,-0.000437008 0.0696024,0.000787402 0.0240984,-0.00169685 0.0474685,-0.00205906 0.0686732,0.00964173 0.0059685,0.00255512 0.0106772,0.00637402 0.0153661,0.0100039 0.00392913,0.00237795 0.00789764,0.00493307 0.0118465,0.00759843 0.00124803,0.000547244 0.00254331,0.00102362 0.00390945,0.00141339 0.00126378,0.00147244 0.00252756,0.00276772 0.0037874,0.00392126 0.00285827,0.00203543 0.00568504,0.0041063 0.00846063,0.00617717 0.00609055,0.0036378 0.0119291,0.00612205 0.0171417,0.012378 0.00686614,0.00342913 0.0137283,0.00515748 0.0155197,0.0136378 0.00681102,-0.00592913 0.016685,-0.0100039 0.0279016,-0.011 -0.00595276,-0.00370079 -0.0106339,-0.00889764 -0.0174882,-0.0130118 -0.0190157,-0.020748 -0.0414921,-0.0276614 -0.0605118,-0.0432205z"/>
  <path class="fil9" d="M4.9071 2.13102c0.0864449,0.0363071 0.17635,0.0242047 0.242047,0.0795276 0.0485157,0.00167323 0.0970354,-0.00636614 0.142417,-0.00845276 -0.00166142,-0.00325984 -0.00256693,-0.00677559 -0.00256693,-0.0104449 0,-0.00668898 0.00301181,-0.012874 0.00812598,-0.0179094 -0.00144882,0.000787402 -0.00294094,0.0015315 -0.00447638,0.00222835 -0.0553268,0.00518898 -0.122752,0.0242047 -0.169433,-0.00172835 -0.00691732,-0.00518504 -0.010374,-0.0121024 -0.0190197,-0.0172874 -0.0432205,-0.020748 -0.103732,-0.010374 -0.148685,-0.0328504 -0.0518661,-0.0155591 -0.105461,-0.0345787 -0.138311,-0.0656969 -0.010374,-0.0121024 -0.0276614,-0.020748 -0.0345787,-0.0345787 -0.0138307,-0.0155591 -0.0345748,-0.0155591 -0.0553228,-0.0138307 -0.00691732,0.00518504 -0.0190197,0.00345669 -0.020748,0.00691732 -0.00518504,0.00864173 -0.00345669,0.0242047 0.00518898,0.0242047 0.0138307,-0.00518898 0.0345748,-0.0172913 0.0501378,-0.00518898 0.0155591,0.0155591 0.0328465,0.0293898 0.0484094,0.0449528 0.00864173,0.00518504 0.0155591,0.0121024 0.0242047,0.0155591 0.0207441,0.0172874 0.0484055,0.0242047 0.0726102,0.0345787z"/>
  <path class="fil9" d="M4.30891 3.52278c-0.0674252,0.00864567 -0.138311,0.0259331 -0.20228,0.00864567 -0.0484094,-0.0121024 -0.0933622,-0.0224764 -0.115839,-0.0587835 -0.0172874,-0.0190157 -0.0276614,-0.0466811 -0.0190157,-0.0656969 0.0172874,-0.0224764 0.00691339,-0.0535945 0.0224764,-0.0726142 0,-0.0449528 0.00864173,-0.0899016 0.0155591,-0.131398 0.00345669,-0.0345748 0.0138307,-0.0674252 0.0259331,-0.0985472 0.0155591,-0.0242047 0.0155591,-0.0570512 0.00691732,-0.0829843 -0.015563,-0.0190197 -0.010374,-0.0501378 -0.0224764,-0.0691575 -0.00691732,0 -0.0155591,0 -0.0138307,0.00691732 0.0172874,0.0691535 0.0242047,0.129665 -0.0121024,0.193634 -0.0172913,0.0726142 -0.0121024,0.152146 -0.0363071,0.22476 -0.0138307,0.0276614 -0.0172913,0.0605079 -0.00691732,0.0881732 0.010374,0.0155591 0.0276614,0.0242047 0.0380354,0.0380354 0.0242047,0.0190157 0.0484094,0.0293898 0.0760709,0.0380354 0.0121024,0 0.0224764,0.00345669 0.0276654,0.00691339 0.000440945,0.00011811 0.000885827,0.00023622 0.00132677,0.000354331 0.0184882,0.00144488 0.0406102,0.00460236 0.0670472,0.0098622 0.000673228,3.14961e-005 0.00134252,5.51181e-005 0.00201575,8.26772e-005 0.0826575,-0.00512598 0.117409,-0.0112205 0.174957,-0.023189 0.00643701,-0.00147244 0.0128307,-0.00294488 0.0191732,-0.00439764 0.00212205,-0.000295276 0.00423622,-0.000610236 0.00634646,-0.000948819 0.0112087,-0.00235039 0.023378,-0.00489764 0.0368661,-0.00766142 0.0121654,-0.00298425 0.0241457,-0.00625197 0.0359803,-0.0093622 0.0207087,-0.00601969 0.0456693,-0.0131496 0.0556614,-0.0131496l0.010752 0c0.00833071,-0.000692913 0.0200276,0.000444882 0.0282638,0.000972441 0.00808268,-0.0122362 0.0138504,-0.0237087 0.0226457,-0.0302323 -0.0289094,0.00501575 -0.0580433,0.00848425 -0.0858661,0.0137008 -0.0553268,0.0121024 -0.11065,0.0259331 -0.159059,0.0380354z"/>
  <path class="fil9" d="M4.2968 3.31531c0.0812598,-0.0224724 0.157331,0.020748 0.238587,0.00346063 0.0881772,-0.0155591 0.17635,-0.00346063 0.261067,-0.00518898 0.0276614,0.00346063 0.0363031,0.0259331 0.0432205,0.0484094 0,0.00864567 -0.0138307,0.00691732 -0.0138307,0.0172913 -0.0121024,0.0622402 0.020748,0.141768 -0.0432244,0.179803 -0.00109843,0.00164567 -0.00224016,0.0030748 -0.00342126,0.00430709 0.00380315,-0.000834646 0.00771654,-0.00126772 0.0117165,-0.00126772 0.00551969,0 0.0108819,0.000826772 0.0160079,0.00238976 0.0071063,-0.00979134 0.0161063,-0.0183465 0.022378,-0.0296339 0.00691732,-0.00345669 0.0121024,-0.00691339 0.010374,-0.0138307 0.010374,-0.0466811 -0.00691732,-0.0985472 0.010374,-0.136583 0.0190157,0.00518504 0.0311181,0.020748 0.0345787,0.0363071 0,0.0242047 0.0207441,0.0363071 0.0224724,0.0553228 -0.0138307,0.00518898 -0.0121024,0.0224764 -0.0155591,0.0363071 0.00691732,0.0345787 -0.00345669,0.0743425 -0.0224764,0.0968189 -0.00526378,0 -0.011811,0.00320866 -0.0169094,0.00375984 0.00277559,0.00861811 0.00435827,0.0179606 0.00450394,0.0277283 0.00193307,-0.00487795 0.00484252,-0.00901181 0.0124055,-0.00901181 0.0190197,-0.00518504 0.0259331,-0.0190157 0.0363071,-0.0328504 0.00691732,-0.0259331 0.020748,-0.0380354 0.010374,-0.0674252 -0.00345669,-0.00691732 -0.00691339,-0.010374 -0.00345669,-0.0172874 0.00864567,-0.00691732 0.00345669,-0.0190197 0.00691339,-0.025937 0.015563,0.0190197 0.020748,0.0466811 0.0224764,0.0726142 0,0.00676772 0,0.0137559 -6.69291e-005,0.0208937 0.0056811,-0.00935039 0.0165354,-0.0156732 0.0289882,-0.0156732 0.000893701,0 0.00177953,3.14961e-005 0.00265748,9.84252e-005 -0.00705906,-0.0201378 -0.00464567,-0.0443583 -0.017748,-0.0623701 -0.00864173,-0.0259331 -0.0276614,-0.0363071 -0.0397638,-0.0605118 -0.00864567,-0.031122 -0.0190157,-0.0587835 -0.0466811,-0.0743425 -0.0103701,-0.0138307 -0.0138307,-0.0345787 -0.0242047,-0.0466811 -0.00172835,-0.010374 -0.00345669,-0.020748 -0.0138307,-0.0259331 -0.0207441,-0.0138307 -0.0501378,-0.00691732 -0.0691535,-0.0121024 0.0155591,-0.010374 0.00518504,-0.0363071 0.0224764,-0.0466811 0.00864173,-0.0242047 0.0293898,-0.0397638 0.0432205,-0.0570512 0.0104528,-0.00522835 0.0159252,-0.0232323 0.0205472,-0.0325787 -0.0092126,-0.00312205 -0.0167402,-0.00818504 -0.0214055,-0.0143898 -0.00231102,0.00609843 -0.00526378,0.0122913 -0.00906693,0.0186339 -0.0088937,0.00790551 -0.0194331,0.0227953 -0.0260669,0.0310236 -0.0110748,0.0156102 -0.0249764,0.0358898 -0.0419016,0.0658346 -0.00124016,0.00297244 -0.00237402,0.00605512 -0.00336614,0.00927559 -0.00750394,0.00900787 -0.00718898,0.020622 -0.0160315,0.0269213 -0.000417323,0.000818898 -0.000834646,0.00164173 -0.00125591,0.0024685 -0.000622047,-0.000224409 -0.00124803,-0.000444882 -0.00187402,-0.000661417 -0.000503937,0.00023622 -0.0010315,0.000452756 -0.00158268,0.000661417 -0.112378,-0.0242047 -0.219571,0.0380354 -0.33022,0 -0.0397638,-0.00345669 -0.0743425,0.00346063 -0.11065,0.00691732 0.00691732,-0.0172913 0.0259331,-0.0242047 0.0293937,-0.0432244 0.0155591,-0.010374 0.0207441,-0.0363071 0.0345748,-0.0466772 0.0121024,-0.025937 0.0242047,-0.0484094 0.0293937,-0.0778031 0.00518504,-0.0190157 0.0155591,-0.0363071 0.0224764,-0.0553228 0.0172874,-0.0242047 0.0535945,-0.0224764 0.0639685,-0.0466811 0.00172835,-0.00864567 -0.00518898,-0.00864567 -0.00691732,-0.00691732 -0.0138307,0.00346063 -0.0242047,0.0121024 -0.0363071,0.015563 -0.0207441,0.00518504 -0.0276614,0.0190157 -0.0414921,0.0311181 -0.00864567,0.0363071 -0.0242047,0.0622402 -0.0345787,0.0950906 -0.00518504,0.00691339 -0.00691732,0.0138307 -0.010374,0.0172874 -0.00691339,0.020748 -0.0259331,0.0293937 -0.0276614,0.0501378 -0.00691732,0.0138307 -0.020748,0.020748 -0.0259331,0.0345787 -0.0121024,0.0155591 -0.0345787,0.0276614 -0.0380354,0.0449528 0.0121024,0.0172874 0.0363071,0.010374 0.0535945,0.00864173z"/>
  <path class="fil9" d="M3.98042 3.56774c-0.020748,-0.0259331 -0.0380394,-0.0501378 -0.0587835,-0.0674291 -0.00518898,-0.0190157 -0.0190197,-0.0276614 -0.0259331,-0.0432205 -0.010374,-0.0190197 -0.0259331,-0.0293898 -0.0328504,-0.0449528 -0.0121024,-0.0155591 -0.0172874,-0.0345748 -0.0293898,-0.0484094 -0.010374,-0.0207441 -0.0224764,-0.0414921 -0.031122,-0.0674252 -0.00518504,-0.0121024 -0.00172835,-0.0224764 -0.0121024,-0.0293898 -0.0207441,-0.0968189 0.0155591,-0.197094 -0.010374,-0.290457 -0.00864173,0.00172835 -0.00864173,0.0121024 -0.0103701,0.020748 0.0207441,0.0968189 -0.0276654,0.191906 0.00518504,0.281811 0.00864567,0.0570512 0.0414921,0.0933583 0.0622402,0.138311 0.0121024,0.0138307 0.0138307,0.0311181 0.0276614,0.0414921 0.0172913,0.0276614 0.0345787,0.0570551 0.0570551,0.0812598 0.0259331,0.0207441 0.0363071,0.0449488 0.0570512,0.0708819 0.039937,0.0540315 0.0479528,0.12402 0.0468189,0.193161 0.0072874,0.000448819 0.0173543,-0.00690945 0.0270394,-0.0103228 -0.00076378,-0.0527874 -0.0109134,-0.112594 -0.0323622,-0.162091 -0.00691732,-0.0121024 -0.0121024,-0.0224764 -0.020748,-0.0311181 -0.00691339,-0.0138346 -0.0155591,-0.020748 -0.0190157,-0.0328504z"/>
  <path class="fil7" d="M4.85919 3.60707c-0.020937,0.0325669 -0.0651299,0.0372205 -0.104673,0.0395433 0.0232598,-0.0162795 0.0348898,-0.0372165 0.0581496,-0.0534961 0.00232677,-0.0186102 0.0116299,-0.0279134 0.00930315,-0.0418701 0.020937,0.00930315 0.0186102,0.0372165 0.0348937,0.0488465 0.00232677,0.00232677 0.00232677,0.00697638 0.00232677,0.00697638z"/>
  <path class="fil7" d="M4.89496 3.71376c0.00687402,0.0380984 -0.0222953,0.071622 -0.0496496,0.100276 0.0059252,-0.0277677 0.000169291,-0.0510157 0.00609449,-0.0787835 -0.0109803,-0.0152047 -0.0105118,-0.0283543 -0.0217244,-0.0369803 0.0216614,-0.00746063 0.0389803,0.0145512 0.0588228,0.0119685 0.0032874,0.000114173 0.00645669,0.00351969 0.00645669,0.00351969z"/>
  <path class="fil7" d="M5.85769 3.47769c0.0266811,0.0280512 0.0207362,0.0720906 0.0136339,0.111063 -0.010311,-0.0264567 -0.0278976,-0.0427126 -0.0382087,-0.0691693 -0.0175276,-0.00666535 -0.0243661,-0.0179094 -0.0384764,-0.0189528 0.014,-0.0181378 0.0405669,-0.00926772 0.0557205,-0.0223307 0.00281102,-0.00170866 0.00733071,-0.000610236 0.00733071,-0.000610236z"/>
  <path class="fil7" d="M5.94493 3.43862c0.0266811,0.0280512 0.0207362,0.0720906 0.0136339,0.111063 -0.010311,-0.0264567 -0.0278976,-0.0427126 -0.0382087,-0.0691693 -0.0175276,-0.00666535 -0.0243661,-0.0179094 -0.0384764,-0.0189528 0.014,-0.0181378 0.0405669,-0.00926772 0.0557205,-0.0223307 0.00281102,-0.00170866 0.00733071,-0.000610236 0.00733071,-0.000610236z"/>
  <path class="fil4" d="M3.19019 4.7545c-0.00864173,0.0242047 -0.0276614,0.0432244 -0.0484055,0.0587835 -0.0138346,0.00518504 -0.0224764,0.0155591 -0.0363071,0.0155591 0.00172835,-0.0121024 0.0224724,-0.0293898 0.0293898,-0.0466811 0.0121024,-0.00691339 0.00691732,-0.0259331 0.0155591,-0.0328465 0.0121024,0 0.0276654,-0.00864567 0.0380354,0 0.00172835,0.00345669 0,0.00345669 0.00172835,0.00518504z"/>
  <path class="fil7" d="M3.1183 4.66696c-0.020937,0.0325669 -0.0651299,0.0372205 -0.104673,0.0395433 0.0232598,-0.0162795 0.0348898,-0.0372165 0.0581496,-0.0534961 0.00232677,-0.0186102 0.0116299,-0.0279134 0.00930315,-0.0418701 0.020937,0.00930315 0.0186102,0.0372165 0.0348937,0.0488465 0.00232677,0.00232677 0.00232677,0.00697638 0.00232677,0.00697638z"/>
  <path class="fil7" d="M3.19965 4.71506c0.00687402,0.0380984 -0.0222953,0.071622 -0.0496496,0.100276 0.0059252,-0.0277677 0.000169291,-0.0510157 0.00609449,-0.0787835 -0.0109803,-0.0152047 -0.0105118,-0.0283543 -0.0217244,-0.0369803 0.0216614,-0.00746063 0.0389803,0.0145512 0.0588228,0.0119685 0.0032874,0.000114173 0.00645669,0.00351969 0.00645669,0.00351969z"/>
  <path class="fil7" d="M3.27601 4.68088c0.0352087,0.0160945 0.0460945,0.0591811 0.0540118,0.0979921 -0.0194213,-0.0207126 -0.0417953,-0.029248 -0.0612165,-0.0499606 -0.018752,0.000338583 -0.0292835,-0.00754724 -0.0427677,-0.00326378 0.00623622,-0.0220433 0.0341969,-0.0237047 0.0433976,-0.0414764 0.00197244,-0.00262992 0.0065748,-0.00329134 0.0065748,-0.00329134z"/>
  <rect class="fil10" width="6.82666" height="6.82666"/>
 </g>
</svg>
