<?xml version="1.0" encoding="UTF-8"?>
<!DOCTYPE svg PUBLIC "-//W3C//DTD SVG 1.1//EN" "http://www.w3.org/Graphics/SVG/1.1/DTD/svg11.dtd">
<!-- Creator: CorelDRAW -->
<svg xmlns="http://www.w3.org/2000/svg" xml:space="preserve" width="2048px" height="2048px" style="shape-rendering:geometricPrecision; text-rendering:geometricPrecision; image-rendering:optimizeQuality; fill-rule:evenodd; clip-rule:evenodd"
viewBox="0 0 2048 2048"
 xmlns:xlink="http://www.w3.org/1999/xlink">
 <defs>
  <style type="text/css">
   <![CDATA[
    .fil7 {fill:none}
    .fil3 {fill:#01579B}
    .fil1 {fill:#80DEEA}
    .fil2 {fill:#E1F5FE}
    .fil6 {fill:#FAFAFA}
    .fil0 {fill:#0288D1;fill-rule:nonzero}
    .fil4 {fill:#424242;fill-rule:nonzero}
    .fil5 {fill:#E1F5FE;fill-rule:nonzero}
   ]]>
  </style>
 </defs>
 <g id="Layer_x0020_1">
  <metadata id="CorelCorpID_0Corel-Layer"/>
  <path class="fil0" d="M368.879 883.452l1310.24 0c29.8229,0 57.2847,10.4563 77.4957,27.3 21.8303,18.1925 35.3835,43.6914 35.3835,72.1004l0 188.719c0,28.4079 -13.552,53.9067 -35.3847,72.0993 -20.211,16.8437 -47.6705,27.3 -77.4945,27.3l-24.6402 0c-2.69646,-42.0107 -20.4933,-81.5186 -50.4674,-111.494 -32.628,-32.6268 -76.552,-50.8288 -122.702,-50.8288 -46.1516,0 -90.0745,18.2008 -122.704,50.8288 -13.9902,13.9913 -25.3264,30.0603 -33.7146,47.491l-601.787 0.0011811c9.58229,19.9122 15.3142,41.6008 16.7528,64.0016l568.282 0c1.43858,-22.402 7.17048,-44.0894 16.7528,-64.0016l-601.787 0c-8.3882,-17.4307 -19.7232,-33.5008 -33.7146,-47.4922 -32.628,-32.6268 -76.552,-50.8288 -122.702,-50.8288 -46.1516,0 -90.0745,18.2008 -122.702,50.83 -13.9902,13.9913 -25.3264,30.0591 -33.7146,47.4898l-41.3929 0.0011811 41.3929 0c-9.58229,19.911 -15.3142,41.5996 -16.7528,64.0016l-24.6402 0c-29.8229,0 -57.2847,-10.4563 -77.4957,-27.3 -21.8303,-18.1914 -35.3835,-43.6902 -35.3835,-72.0993l0 -188.719c0,-28.4091 13.5508,-53.9091 35.3835,-72.1004 20.211,-16.8437 47.6705,-27.3 77.4957,-27.3zm1359.12 188.548l0 -64.0016 -95.9977 0c-17.6728,0 -32.0008,14.328 -32.0008,32.0008 0,17.6728 14.328,32.0008 32.0008,32.0008l95.9977 0zm-1408 -89.1473l0 188.719 0.0011811 -99.5717 95.9977 0c17.6728,0 32.0008,-14.328 32.0008,-32.0008 0,-17.6728 -14.328,-32.0008 -32.0008,-32.0008l-95.9977 0 -0.0011811 -25.1457z"/>
  <path class="fil0" d="M391.36 894.827c-11.3906,13.3925 -9.76772,33.4855 3.62481,44.876 13.3925,11.3906 33.4855,9.76772 44.876,-3.62481l238.108 -279.79 469.283 0 317.01 272.216c13.3925,11.4591 33.541,9.89174 45,-3.50079 11.4591,-13.3925 9.89174,-33.541 -3.50079,-45l-324.246 -278.429c-5.78386,-5.74016 -13.748,-9.2882 -22.5402,-9.2882l-495.577 0 0 0.00354331c-9.05198,0.00354331 -18.0437,3.82559 -24.3697,11.2583l24.3697 20.739 -24.2504 -20.6256 -247.788 291.166z"/>
  <polygon class="fil0" points="982.312,631.851 982.312,915.453 918.31,915.453 918.31,631.851 "/>
  <polygon class="fil1" points="918.31,883.452 918.31,656.288 677.969,656.288 484.647,883.452 "/>
  <polygon class="fil1" points="982.312,656.288 982.312,883.452 1411.8,883.452 1147.25,656.288 "/>
  <polygon class="fil2" points="1224.66,883.452 1269.66,883.452 1049.37,656.288 1004.37,656.288 "/>
  <path class="fil3" d="M739.858 1270.97c-1.43858,-22.4008 -7.17048,-44.0894 -16.7528,-64.0016 -8.3882,-17.4307 -19.7232,-33.5008 -33.7146,-47.4922 -32.628,-32.6268 -76.552,-50.8288 -122.702,-50.8288 -46.1516,0 -90.0745,18.2008 -122.702,50.83 -13.9902,13.9913 -25.3264,30.0591 -33.7146,47.491 -9.58229,19.911 -15.3142,41.5996 -16.7528,64.0016l32.0752 0c2.71299,-34.6099 17.8784,-65.7249 41.0197,-88.8662 25.611,-25.6134 60.9945,-41.4567 100.075,-41.4567 39.078,0 74.4615,15.8433 100.075,41.4567 23.1414,23.1414 38.3067,54.2563 41.0197,88.8662l32.0752 0z"/>
  <path class="fil3" d="M1381.24 1182.1c25.6134,-25.6134 60.9969,-41.4567 100.076,-41.4567 39.078,0 74.4615,15.8433 100.075,41.4567 23.1402,23.1402 38.3067,54.2563 41.0197,88.8662l32.0752 0c-2.69646,-42.0107 -20.4933,-81.5186 -50.4674,-111.494 -32.628,-32.6268 -76.552,-50.8288 -122.702,-50.8288 -46.1516,0 -90.0745,18.2008 -122.704,50.8288 -13.9902,13.9913 -25.3264,30.0603 -33.7146,47.4922 -9.58229,19.9122 -15.3142,41.5996 -16.7528,64.0016l32.0752 0c2.71299,-34.6099 17.8784,-65.7249 41.0197,-88.8662z"/>
  <path class="fil4" d="M1481.31 1135.57c40.48,0 77.1331,16.4114 103.665,42.9449 26.5335,26.5323 42.9449,63.1855 42.9449,103.665 0,40.4811 -16.4114,77.1343 -42.9449,103.667 -26.5323,26.5335 -63.1855,42.9449 -103.665,42.9449 -40.4811,0 -77.1343,-16.4114 -103.667,-42.9449 -26.5335,-26.5323 -42.9449,-63.1855 -42.9449,-103.667 0,-40.48 16.4114,-77.1331 42.9449,-103.665 26.5323,-26.5335 63.1855,-42.9449 103.667,-42.9449z"/>
  <path class="fil5" d="M1481.31 1186.57c26.3977,0 50.2996,10.702 67.6016,28.004 17.302,17.302 28.004,41.204 28.004,67.6016 0,26.3977 -10.702,50.2996 -28.004,67.6016 -17.302,17.302 -41.204,28.0051 -67.6016,28.0051 -26.3988,0 -50.3008,-10.7032 -67.6016,-28.0051 -17.302,-17.302 -28.004,-41.204 -28.004,-67.6016 0,-26.3977 10.702,-50.2996 28.004,-67.6016 17.3008,-17.302 41.2028,-28.004 67.6016,-28.004z"/>
  <path class="fil4" d="M566.689 1135.57c40.48,0 77.1331,16.4114 103.665,42.9449 26.5335,26.5323 42.9449,63.1855 42.9449,103.665 0,40.4811 -16.4114,77.1343 -42.9449,103.667 -26.5323,26.5335 -63.1855,42.9449 -103.665,42.9449 -40.4823,0 -77.1355,-16.4114 -103.665,-42.9449 -26.5335,-26.5323 -42.9449,-63.1855 -42.9449,-103.667 0,-40.48 16.4114,-77.1331 42.9449,-103.665 26.5299,-26.5335 63.1831,-42.9449 103.665,-42.9449z"/>
  <path class="fil5" d="M566.689 1186.57c26.3977,0 50.2996,10.702 67.6016,28.004 17.302,17.302 28.004,41.204 28.004,67.6016 0,26.3977 -10.702,50.2996 -28.004,67.6016 -17.302,17.302 -41.204,28.0051 -67.6016,28.0051 -26.3988,0 -50.3008,-10.7032 -67.6016,-28.0051 -17.302,-17.302 -28.004,-41.204 -28.004,-67.6016 0,-26.3977 10.702,-50.2996 28.004,-67.6016 17.3008,-17.302 41.2028,-28.004 67.6016,-28.004z"/>
  <path class="fil6" d="M1728 1008l-95.9977 0c-17.6728,0 -32.0008,14.328 -32.0008,32.0008 0,17.6728 14.328,32.0008 32.0008,32.0008l95.9977 0 0 -64.0016z"/>
  <path class="fil6" d="M448.001 1040c0,-17.6728 -14.328,-32.0008 -32.0008,-32.0008l-95.9977 0 0 64.0016 95.9977 0c17.6728,0 32.0008,-14.328 32.0008,-32.0008z"/>
 </g>
 <rect class="fil7" width="2048" height="2048"/>
</svg>
