<?xml version="1.0" encoding="UTF-8"?>
<!DOCTYPE svg PUBLIC "-//W3C//DTD SVG 1.1//EN" "http://www.w3.org/Graphics/SVG/1.1/DTD/svg11.dtd">
<!-- Creator: CorelDRAW -->
<svg xmlns="http://www.w3.org/2000/svg" xml:space="preserve" width="2048px" height="2048px" style="shape-rendering:geometricPrecision; text-rendering:geometricPrecision; image-rendering:optimizeQuality; fill-rule:evenodd; clip-rule:evenodd"
viewBox="0 0 2048 2048"
 xmlns:xlink="http://www.w3.org/1999/xlink">
 <defs>
  <style type="text/css">
   <![CDATA[
    .fil6 {fill:none}
    .fil5 {fill:#424242}
    .fil2 {fill:#616161}
    .fil3 {fill:#FFE082}
    .fil4 {fill:#29B6F6;fill-rule:nonzero}
    .fil0 {fill:#424242;fill-rule:nonzero}
    .fil1 {fill:#616161;fill-rule:nonzero}
   ]]>
  </style>
 </defs>
 <g id="Layer_x0020_1">
  <metadata id="CorelCorpID_0Corel-Layer"/>
  <g id="_252322368">
   <path id="_252323760" class="fil0" d="M1115.93 982.322l4.31103 -109.567c0,-25.4162 10.3748,-48.4985 27.0862,-65.2111 16.7126,-16.7126 39.7961,-27.0862 65.2111,-27.0862l71.0221 0c25.4162,0 48.4985,10.3736 65.2111,27.0862 16.7126,16.7126 27.0862,39.7949 27.0862,65.2111l-4.31103 101.296 -255.617 8.27127z"/>
   <path id="_252324288" class="fil1" d="M396.951 1192.38c-41.3611,-6.96615 -70.9819,-16.5673 -89.3127,-27.3626 -17.7827,-10.4728 -26.2689,-22.2378 -25.8555,-34.3701 0.407481,-11.9858 9.43938,-23.5855 26.7071,-33.9166 18.7524,-11.2193 48.5221,-21.2929 88.4611,-28.6559l0 124.305z"/>
   <path id="_252323976" class="fil0" d="M1342.75 657.297c18.2882,0 33.1146,-14.8264 33.1146,-33.1146 0,-18.2882 -14.8264,-33.1146 -33.1146,-33.1146l-94.6938 0c-18.2882,0 -33.1146,14.8264 -33.1146,33.1146l0 189.389c0,18.2882 14.8264,33.1146 33.1146,33.1146 18.2882,0 33.1146,-14.8264 33.1146,-33.1146l0 -156.274 61.5792 0z"/>
   <path id="_252323832" class="fil2" d="M1375.86 946.817l-255.617 8.27245 -632.021 16.5461c24.1606,42.1996 38.7768,88.7694 39.4548,139.798 0.838583,63.1701 -20.0268,121.95 -51.9792,174.962l1159.96 33.6319c4.20118,0.135827 5.08583,0.201969 5.5252,0.201969 48.0225,0 91.4918,-20.1484 123.295,-52.2721 31.5024,-31.8166 51.5445,-75.5245 53.0811,-123.021l0.206693 -5.85237 0 -19.728 -0.206693 -5.85237c-1.53543,-47.4945 -21.5776,-91.2036 -53.0811,-123.021 -31.8047,-32.1236 -75.2741,-52.2733 -123.297,-52.2733 -0.437008,0 -1.32638,0.0661418 -5.52402,0.201969l-259.798 8.40709z"/>
   <path id="_252323808" class="fil3" d="M739.382 1116.5c0,-22.9051 -18.5681,-41.4733 -41.4733,-41.4733 -22.9051,0 -41.4733,18.5681 -41.4733,41.4733 0,22.9051 18.5681,41.4721 41.4733,41.4721 22.9051,0 41.4733,-18.5669 41.4733,-41.4721z"/>
   <path id="_252323640" class="fil3" d="M840.634 1075.02c-22.904,0 -41.4733,18.5681 -41.4733,41.4733 0,22.9051 18.5693,41.4721 41.4733,41.4721 22.9051,0 41.4744,-18.5669 41.4744,-41.4721 0,-22.9051 -18.5693,-41.4733 -41.4744,-41.4733z"/>
   <path id="_252323424" class="fil3" d="M983.359 1075.02c-22.9051,0 -41.4744,18.5681 -41.4744,41.4733 0,22.9051 18.5693,41.4721 41.4744,41.4721 22.904,0 41.4721,-18.5669 41.4721,-41.4721 0,-22.9051 -18.5681,-41.4733 -41.4721,-41.4733z"/>
   <path id="_252323520" class="fil3" d="M1126.08 1075.02c-22.9051,0 -41.4721,18.5681 -41.4721,41.4733 0,22.9051 18.5669,41.4721 41.4721,41.4721 22.9063,0 41.4733,-18.5669 41.4733,-41.4721 0,-22.9051 -18.5669,-41.4733 -41.4733,-41.4733z"/>
   <path id="_252322968" class="fil3" d="M1227.34 1116.5c0,22.9051 18.5669,41.4721 41.4721,41.4721 22.9051,0 41.4733,-18.5669 41.4733,-41.4721 0,-22.9051 -18.5681,-41.4733 -41.4733,-41.4733 -22.9051,0 -41.4721,18.5681 -41.4721,41.4733z"/>
   <path id="_252323352" class="fil3" d="M1370.06 1116.5c0,22.9051 18.5693,41.4721 41.4733,41.4721 22.9051,0 41.4744,-18.5669 41.4744,-41.4721 0,-22.9051 -18.5693,-41.4733 -41.4744,-41.4733 -22.904,0 -41.4733,18.5681 -41.4733,41.4733z"/>
   <path id="_252322920" class="fil3" d="M1512.78 1116.5c0,22.9051 18.5693,41.4721 41.4744,41.4721 22.904,0 41.4733,-18.5669 41.4733,-41.4721 0,-22.9051 -18.5693,-41.4733 -41.4733,-41.4733 -22.9051,0 -41.4744,18.5681 -41.4744,41.4733z"/>
   <path id="_252323064" class="fil3" d="M1655.51 1116.5c0,22.9051 18.5681,41.4721 41.4733,41.4721 22.9051,0 41.4733,-18.5669 41.4733,-41.4721 0,-22.9051 -18.5681,-41.4733 -41.4733,-41.4733 -22.9051,0 -41.4733,18.5681 -41.4733,41.4733z"/>
   <path id="_252322872" class="fil4" d="M1370.15 840.837c3.68859,9.95434 5.70827,20.7083 5.70827,31.9181l-1.27913 30.0626 -150.018 0 0 -61.9808 145.589 0z"/>
   <path id="_252322200" class="fil0" d="M396.276 1129.42l0 -252.717 0 -65.1544 52.6465 38.5075c32.6221,23.863 60.3189,48.3508 83.3044,73.4103l0.0649607 -0.0590552c55.5319,60.5705 82.1434,123.567 83.0044,188.467 0.850394,64.1174 -23.6847,128.307 -70.4788,192.279 -24.8634,33.991 -56.0445,67.9772 -93.0497,101.903l-55.4918 50.876 0 -75.1938 0 -252.319z"/>
   <path id="_252322152" class="fil5" d="M319.474 1001.55l0 128.676 0 128.675c45.9555,-45.0874 60.2587,-89.6375 59.2642,-128.675 0.994489,-39.039 -13.3087,-83.5879 -59.2642,-128.676z"/>
  </g>
 </g>
 <rect class="fil6" width="2048" height="2048"/>
</svg>
