<?xml version="1.0" encoding="UTF-8"?>
<!DOCTYPE svg PUBLIC "-//W3C//DTD SVG 1.1//EN" "http://www.w3.org/Graphics/SVG/1.1/DTD/svg11.dtd">
<!-- Creator: CorelDRAW -->
<svg xmlns="http://www.w3.org/2000/svg" xml:space="preserve" width="2048px" height="2048px" style="shape-rendering:geometricPrecision; text-rendering:geometricPrecision; image-rendering:optimizeQuality; fill-rule:evenodd; clip-rule:evenodd"
viewBox="0 0 2048 2048"
 xmlns:xlink="http://www.w3.org/1999/xlink">
 <defs>
  <style type="text/css">
   <![CDATA[
    .fil19 {fill:none}
    .fil1 {fill:#283593}
    .fil6 {fill:#4DD0E1}
    .fil12 {fill:#7986CB}
    .fil16 {fill:#DC819F}
    .fil15 {fill:#E6E0B0}
    .fil11 {fill:#E8EAF6}
    .fil8 {fill:#E8F5E9}
    .fil14 {fill:#F48FB1}
    .fil13 {fill:#FFF9C4}
    .fil7 {fill:white}
    .fil2 {fill:#1A2360;fill-rule:nonzero}
    .fil4 {fill:#1A237E;fill-rule:nonzero}
    .fil9 {fill:#263238;fill-rule:nonzero}
    .fil0 {fill:#283593;fill-rule:nonzero}
    .fil5 {fill:#29357D;fill-rule:nonzero}
    .fil3 {fill:#3949AB;fill-rule:nonzero}
    .fil10 {fill:#ECEFF1;fill-rule:nonzero}
    .fil17 {fill:#FFA000;fill-rule:nonzero}
    .fil18 {fill:#FFD54F;fill-rule:nonzero}
   ]]>
  </style>
 </defs>
 <g id="Layer_x0020_1">
  <metadata id="CorelCorpID_0Corel-Layer"/>
  <path class="fil0" d="M1214.95 786.884l207.625 0 165.849 250.315c9.96379,15.0508 30.2445,19.1752 45.2965,9.21142 15.0508,-9.96261 19.1752,-30.2433 9.21142,-45.2953l-174.379 -263.188c-5.63741,-9.8882 -16.2756,-16.5555 -28.474,-16.5555l-225.129 0 0 65.5123z"/>
  <rect class="fil1" x="1214.95" y="758.45" width="71.0456" height="287.888"/>
  <path class="fil0" d="M1214.95 999.604l480.937 0c26.4662,0 50.5028,10.8071 67.9064,28.2095 17.4059,17.4059 28.2107,41.4473 28.2107,67.9075l0 174.351c0,26.4591 -10.8071,50.4981 -28.213,67.9028 -17.4059,17.4059 -41.4437,28.213 -67.904,28.213l-8.22638 0c-161.662,0 -368.686,0 -576.956,0 0.829134,-0.783071 1.65118,-1.57914 2.46024,-2.38937 22.5,-22.5 101.785,-52.8367 101.785,-84.6757l0 -279.519z"/>
  <path class="fil2" d="M1624.05 1366.19l-338.99 0c2.57835,-41.2217 20.0055,-79.9855 49.4103,-109.393 31.9347,-31.9359 74.9115,-49.7445 120.084,-49.7445 45.1725,0 88.1493,17.8099 120.085,49.7457 29.4047,29.4059 46.8331,68.1697 49.4103,109.391z"/>
  <path class="fil3" d="M343.063 525.858l788.316 0c23.9752,0 45.75,9.7878 61.5142,25.5508 15.7642,15.7642 25.5508,37.5402 25.5508,61.5142l0 666.2c0,23.974 -9.78662,45.7477 -25.5508,61.5142 -15.7665,15.7642 -37.5402,25.5508 -61.5142,25.5508l-332.223 0 -97.6276 0 -355.395 0 -3.06969 0 -3.46299 0 0 -0.068504c-22.604,-0.892914 -43.05,-10.4811 -58.0512,-25.4823 -15.763,-15.763 -25.5496,-37.539 -25.5496,-61.5142l0 -666.2c0,-23.9764 9.78544,-45.7512 25.5484,-61.5154 15.7642,-15.763 37.539,-25.5496 61.5154,-25.5496z"/>
  <path class="fil4" d="M343.063 525.858l788.316 0c23.9752,0 45.75,9.7878 61.5142,25.5508 9.89646,9.89646 17.4354,22.1646 21.678,35.8559l-954.701 0c4.24134,-13.6925 11.7815,-25.9606 21.678,-35.8571 15.7642,-15.763 37.539,-25.5496 61.5154,-25.5496z"/>
  <path class="fil5" d="M693.327 1366.19l-338.99 0c2.57835,-41.2217 20.0055,-79.9855 49.4103,-109.393 31.9347,-31.9359 74.9115,-49.7445 120.084,-49.7445 45.1725,0 88.1493,17.8099 120.085,49.7457 29.4047,29.4059 46.8319,68.1697 49.4103,109.391z"/>
  <polygon class="fil6" points="1563.51,999.604 1422.57,786.884 1285.99,786.884 1285.99,999.604 "/>
  <g id="_252342048">
   <polygon id="_252342240" class="fil7" points="1369.02,786.884 1332.75,786.884 1443.06,971.968 "/>
   <polygon id="_252342120" class="fil7" points="1483.85,999.604 1516.75,999.604 1416.69,831.719 "/>
  </g>
  <path class="fil8" d="M1726.49 1109.08l-145.377 0c-18.0898,0 -32.7567,14.6658 -32.7567,32.7555 0,18.091 14.6669,32.7567 32.7567,32.7567l145.377 0c18.0898,0 32.7555,-14.6658 32.7555,-32.7567 0,-18.0898 -14.6658,-32.7555 -32.7555,-32.7555z"/>
  <path class="fil9" d="M1454.56 1231.62c40.1091,0 76.4268,16.2614 102.715,42.5504 26.2878,26.2878 42.5492,62.6044 42.5492,102.713 0,40.1091 -16.2614,76.4256 -42.5492,102.713 -26.289,26.2878 -62.6056,42.5492 -102.715,42.5492 -40.1091,0 -76.4256,-16.2614 -102.713,-42.5492 -26.2878,-26.2878 -42.5492,-62.6044 -42.5492,-102.713 0,-40.1091 16.2614,-76.4256 42.5492,-102.715 26.2878,-26.289 62.6044,-42.5492 102.713,-42.5492z"/>
  <path class="fil10" d="M1454.56 1283.12c25.8886,0 49.33,10.4965 66.2977,27.4642 16.9677,16.9677 27.463,40.4079 27.463,66.2965 0,25.8886 -10.4953,49.33 -27.463,66.2977 -16.9677,16.9677 -40.4091,27.463 -66.2977,27.463 -25.8886,0 -49.3288,-10.4953 -66.2965,-27.463 -16.9677,-16.9677 -27.463,-40.4091 -27.463,-66.2977 0,-25.8886 10.4953,-49.3288 27.463,-66.2977 16.9677,-16.9677 40.4079,-27.463 66.2965,-27.463z"/>
  <path class="fil9" d="M523.831 1231.62c40.1091,0 76.4268,16.2614 102.715,42.5504 26.2878,26.2878 42.5492,62.6044 42.5492,102.713 0,40.1091 -16.2614,76.4256 -42.5492,102.713 -26.289,26.2878 -62.6056,42.5492 -102.715,42.5492 -40.1091,0 -76.4256,-16.2614 -102.713,-42.5492 -26.2878,-26.2878 -42.5492,-62.6044 -42.5492,-102.713 0,-40.1091 16.2614,-76.4256 42.5492,-102.715 26.2878,-26.289 62.6044,-42.5492 102.713,-42.5492z"/>
  <path class="fil10" d="M523.831 1283.12c25.8886,0 49.33,10.4965 66.2977,27.4642 16.9677,16.9677 27.463,40.4079 27.463,66.2965 0,25.8886 -10.4953,49.33 -27.463,66.2977 -16.9689,16.9677 -40.4091,27.463 -66.2977,27.463 -25.8886,0 -49.3288,-10.4953 -66.2965,-27.463 -16.9677,-16.9677 -27.4642,-40.4091 -27.4642,-66.2977 0,-25.8886 10.4965,-49.3288 27.4642,-66.2977 16.9677,-16.9677 40.4079,-27.463 66.2965,-27.463z"/>
  <rect class="fil11" x="467.233" y="691.34" width="539.975" height="300.926"/>
  <rect class="fil12" x="484.826" y="691.34" width="504.789" height="277.778"/>
  <rect class="fil11" x="725.731" y="691.34" width="22.9803" height="277.778"/>
  <rect class="fil13" x="426.939" y="587.265" width="77.5705" height="55.179"/>
  <rect class="fil14" x="504.509" y="587.265" width="77.5705" height="55.179"/>
  <rect class="fil13" x="582.08" y="587.265" width="77.5705" height="55.179"/>
  <rect class="fil14" x="659.65" y="587.265" width="77.5705" height="55.179"/>
  <rect class="fil13" x="737.221" y="587.265" width="77.5705" height="55.179"/>
  <rect class="fil14" x="814.791" y="587.265" width="77.5705" height="55.179"/>
  <rect class="fil13" x="892.362" y="587.265" width="77.5705" height="55.179"/>
  <rect class="fil14" x="969.932" y="587.265" width="77.5705" height="55.179"/>
  <path class="fil15" d="M459.694 719.214l12.0602 0c18.0154,0 32.7555,-14.7402 32.7555,-32.7544l0 -44.0162 -77.5701 0 0 44.0162c0,18.0142 14.7378,32.7544 32.7544,32.7544z"/>
  <path class="fil16" d="M549.325 719.214l-12.0614 0c-18.0142,0 -32.7544,-14.7402 -32.7544,-32.7544l0 -44.0162 77.5701 0 0 44.0162c0,18.0142 -14.739,32.7544 -32.7544,32.7544z"/>
  <path class="fil15" d="M614.835 719.214l12.0602 0c18.0154,0 32.7544,-14.7402 32.7544,-32.7544l0 -44.0162 -77.5701 0 0 44.0162c0,18.0142 14.739,32.7544 32.7555,32.7544z"/>
  <path class="fil16" d="M704.466 719.214l-12.0602 0c-18.0154,0 -32.7555,-14.7402 -32.7555,-32.7544l0 -44.0162 77.5713 0 0 44.0162c0,18.0142 -14.739,32.7544 -32.7555,32.7544z"/>
  <path class="fil15" d="M769.975 719.214l12.0614 0c18.0142,0 32.7544,-14.7402 32.7544,-32.7544l0 -44.0162 -77.5701 0 0 44.0162c0,18.0142 14.7378,32.7544 32.7544,32.7544z"/>
  <path class="fil16" d="M859.607 719.214l-12.0614 0c-18.0142,0 -32.7544,-14.7402 -32.7544,-32.7544l0 -44.0162 77.5701 0 0 44.0162c0,18.0142 -14.7378,32.7544 -32.7544,32.7544z"/>
  <path class="fil15" d="M925.117 719.214l12.0602 0c18.0154,0 32.7555,-14.7402 32.7555,-32.7544l0 -44.0162 -77.5713 0 0 44.0162c0,18.0142 14.739,32.7544 32.7555,32.7544z"/>
  <path class="fil16" d="M1014.75 719.214l-12.0602 0c-18.0154,0 -32.7544,-14.7402 -32.7544,-32.7544l0 -44.0162 77.5701 0 0 44.0162c0,18.0142 -14.739,32.7544 -32.7555,32.7544z"/>
  <polygon class="fil17" points="871.177,934.451 818.468,797.364 814.3,785.81 826.575,785.81 912.564,785.81 924.84,785.81 921.783,794.286 "/>
  <path class="fil18" d="M829.547 787.178c1.00984,-8.81575 3.67796,-16.3158 7.71733,-23.002 6.3815,-10.5661 15.9602,-18.6036 27.6886,-26.439l6.4878 -4.33465 4.963 6.02363c3.48662,4.23189 8.23465,8.11772 12.7429,11.8075 12.7429,10.4303 24.0543,19.6961 19.8378,35.9445l-79.4375 0z"/>
  <polygon class="fil17" points="606.479,934.451 553.771,797.364 549.602,785.81 561.878,785.81 647.867,785.81 660.143,785.81 657.084,794.286 "/>
  <path class="fil18" d="M564.85 787.178c1.00984,-8.81575 3.67796,-16.3158 7.71733,-23.002 6.3815,-10.5661 15.9602,-18.6036 27.6886,-26.439l6.4878 -4.33465 4.963 6.02363c3.48662,4.23189 8.23465,8.11772 12.7429,11.8075 12.7429,10.4303 24.0543,19.6961 19.8378,35.9445l-79.4375 0z"/>
 </g>
 <rect class="fil19" width="2048" height="2048"/>
</svg>
