<?xml version="1.0" encoding="UTF-8"?>
<!DOCTYPE svg PUBLIC "-//W3C//DTD SVG 1.1//EN" "http://www.w3.org/Graphics/SVG/1.1/DTD/svg11.dtd">
<!-- Creator: CorelDRAW -->
<svg xmlns="http://www.w3.org/2000/svg" xml:space="preserve" width="2048px" height="2048px" style="shape-rendering:geometricPrecision; text-rendering:geometricPrecision; image-rendering:optimizeQuality; fill-rule:evenodd; clip-rule:evenodd"
viewBox="0 0 2048 2048"
 xmlns:xlink="http://www.w3.org/1999/xlink">
 <defs>
  <style type="text/css">
   <![CDATA[
    .fil4 {fill:none}
    .fil0 {fill:#1E88E5}
    .fil3 {fill:#37474F}
    .fil1 {fill:#80DEEA}
    .fil2 {fill:#FFFFFE}
   ]]>
  </style>
 </defs>
 <g id="Layer_x0020_1">
  <metadata id="CorelCorpID_0Corel-Layer"/>
  <g id="_248979864">
   <path id="_248982000" class="fil0" d="M1642.55 927.109c0,-58.8957 -24.0732,-112.417 -62.8536,-151.198 -38.7815,-38.7803 -92.302,-62.8536 -151.198,-62.8536l-358.111 0 -92.7827 0 -358.109 0c-58.8957,0 -112.416,24.0732 -151.198,62.8536 -38.7803,38.7803 -62.8536,92.302 -62.8536,151.198l0 650.84c0,58.8957 24.0732,112.417 62.8536,151.198 38.7815,38.7815 92.302,62.8536 151.198,62.8536l809.003 0c58.8957,0 112.416,-24.0721 151.198,-62.8536 38.7803,-38.7803 62.8536,-92.302 62.8536,-151.198l0 -650.84z"/>
   <g>
    <path id="_248981448" class="fil1" d="M993.072 1530.88l0 -556.694 -454.961 0c-19.441,0 -37.1362,7.97363 -49.9843,20.8217 -12.7583,12.7595 -20.7118,30.3 -20.8217,49.5815l0 0.0744095 0 415.738 0 0.0755906c0.109843,19.2815 8.06339,36.8221 20.8217,49.5804 12.848,12.848 30.5433,20.8229 49.9843,20.8229l454.961 0z"/>
    <path id="_248981520" class="fil1" d="M1580.7 1460.07l0.0011811 -415.082c-0.0011811,-19.441 -7.97599,-37.1362 -20.824,-49.9843 -12.848,-12.848 -30.5433,-20.8217 -49.9843,-20.8217l-454.961 0 0 556.694 454.961 0c19.441,0 37.1362,-7.97481 49.9843,-20.8229 12.848,-12.8469 20.8229,-30.5433 20.8229,-49.9831z"/>
    <g>
     <polygon id="_248980920" class="fil2" points="1381.93,974.182 1342.14,974.182 1265.22,1379.82 "/>
     <polygon id="_248980824" class="fil2" points="1253.69,1530.88 1293.49,1530.88 1370.41,1125.24 "/>
    </g>
    <g>
     <polygon id="_248980680" class="fil2" points="794.311,974.182 754.516,974.182 677.592,1379.82 "/>
     <polygon id="_248981064" class="fil2" points="666.069,1530.88 705.865,1530.88 782.787,1125.24 "/>
    </g>
   </g>
   <g>
    <rect id="_248980056" class="fil3" x="549.818" y="678.747" width="948.365" height="63.4262" rx="31.7126" ry="31.7126"/>
    <rect id="_248980320" class="fil3" transform="matrix(2.55969E-014 -0.22131 0.966485 5.86128E-015 992.287 473.159)" width="981.251" height="65.6256" rx="31.7126" ry="31.7126"/>
    <g>
     <rect id="_248980512" class="fil3" transform="matrix(0.233966 -0.233966 0.683408 0.683408 762.745 689.565)" width="981.251" height="65.6256" rx="31.7126" ry="31.7126"/>
     <rect id="_248979888" class="fil3" transform="matrix(-0.233966 -0.233966 -0.683408 0.683408 1285.26 689.565)" width="981.251" height="65.6256" rx="31.7126" ry="31.7126"/>
    </g>
    <circle id="_248980152" class="fil3" cx="1022.49" cy="480.916" r="70.2205"/>
   </g>
  </g>
 </g>
 <rect class="fil4" width="2048" height="2048"/>
</svg>
