<?xml version="1.0" encoding="UTF-8"?>
<!DOCTYPE svg PUBLIC "-//W3C//DTD SVG 1.1//EN" "http://www.w3.org/Graphics/SVG/1.1/DTD/svg11.dtd">
<!-- Creator: CorelDRAW -->
<svg xmlns="http://www.w3.org/2000/svg" xml:space="preserve" width="2048px" height="2048px" style="shape-rendering:geometricPrecision; text-rendering:geometricPrecision; image-rendering:optimizeQuality; fill-rule:evenodd; clip-rule:evenodd"
viewBox="0 0 2048 2048"
 xmlns:xlink="http://www.w3.org/1999/xlink">
 <defs>
  <style type="text/css">
   <![CDATA[
    .fil12 {fill:none}
    .fil5 {fill:#424242}
    .fil7 {fill:#656565}
    .fil8 {fill:#B0B0B0}
    .fil4 {fill:#C39C26}
    .fil1 {fill:#D5AA26}
    .fil2 {fill:#E3F2FD}
    .fil0 {fill:#E9B927}
    .fil6 {fill:#EEEEEE}
    .fil9 {fill:#EFD06F}
    .fil3 {fill:#FFCA28}
    .fil10 {fill:#424242;fill-rule:nonzero}
    .fil11 {fill:#989898;fill-rule:nonzero}
   ]]>
  </style>
 </defs>
 <g id="Layer_x0020_1">
  <metadata id="CorelCorpID_0Corel-Layer"/>
  <polygon class="fil0" points="958.746,707.058 1388.43,459.097 1411.81,445.643 1429.05,466.532 1724.56,824.369 1675.31,864.849 1653.94,838.886 1537.83,862.843 1401.42,667.165 1074.85,933.3 1034.57,883.853 1001.97,755.8 990.634,762.291 "/>
  <path class="fil0" d="M782.998 748.601l0 -175.733 82.2048 0 80.7875 175.733 -162.992 0zm-32.5973 0l-131.687 0c-21.4961,0 -40.7504,-7.43623 -54.45,-19.3559 -12.5197,-10.9772 -20.1969,-25.6099 -20.1969,-41.5418l0 -53.8193c0,-15.9319 7.67717,-30.6851 20.1969,-41.5418 13.6996,-11.9197 32.954,-19.474 54.45,-19.474l131.687 0 0 175.733zm333.304 146.695l-160.038 -347.685 -1.17992 -2.59725c-26.9292,-58.5355 -53.3823,-116.13 -127.795,-116.13l-279.442 0c-44.8831,0 -85.7481,18.4099 -115.274,47.9174 -29.6457,29.504 -47.9528,70.3382 -47.9528,115.187l0 185.407c0,44.8489 18.3071,85.6831 47.9528,115.186 29.5264,29.6268 70.3914,47.9185 115.273,47.9185l539.404 0 49.839 0 -20.7862 -45.2044z"/>
  <path class="fil1" d="M766.4 764.6l-2.68229 0 -145.004 0c-23.5453,0 -47.1178,-7.70788 -64.9749,-23.3055 -15.6626,-13.6795 -25.6713,-32.5878 -25.6713,-53.5914l0 -53.8193c0,-20.9988 10.0335,-40.0075 25.7044,-53.6209 17.889,-15.5386 41.3788,-23.3941 64.9418,-23.3941l145.004 0 2.68229 0 109.057 0 95.4969 207.731 -204.554 0z"/>
  <path class="fil2" d="M750.401 748.601l0 -175.733 -131.687 0c-21.4961,0 -40.7504,7.55434 -54.45,19.474 -12.5197,10.8567 -20.1969,25.6099 -20.1969,41.5418l0 53.8193c0,15.9319 7.67717,30.5646 20.1969,41.5418 13.6996,11.9197 32.954,19.3559 54.45,19.3559l131.687 0z"/>
  <polygon class="fil2" points="945.99,748.601 865.203,572.868 766.358,572.868 766.358,748.601 "/>
  <g id="_415933656">
   <rect id="_413055520" class="fil3" x="255.999" y="876.533" width="1087.45" height="479.63" rx="150" ry="150"/>
   <path id="_413055928" class="fil4" d="M752.959 1356.16l-346.961 0c-57.3178,0 -107.386,-32.5866 -132.617,-80.1449 11.8583,-22.5047 27.1288,-43.3229 45.5091,-61.6902 48.1122,-48.0756 112.991,-74.8654 181.004,-74.8654 68.0729,0 132.806,26.7744 180.985,74.8489 38.8418,38.7579 63.8493,88.3949 72.0792,141.852z"/>
   <path id="_413056024" class="fil4" d="M1343.3 1212.58c-3.39095,79.5568 -69.5008,143.584 -149.851,143.584l-282.325 0c8.21221,-53.4272 33.1607,-103.08 71.9445,-141.835 48.1122,-48.0756 112.991,-74.8654 181.004,-74.8654 67.2497,0 131.237,26.1331 179.228,73.1162z"/>
   <path id="_413055424" class="fil5" d="M499.895 1171.46c61.8874,0 117.872,25.0252 158.382,65.5016 40.6264,40.4835 65.6717,96.5387 65.6717,158.269 0,61.8426 -25.0453,117.782 -65.6717,158.258 -40.5107,40.4847 -96.495,65.6245 -158.382,65.6245 -61.7705,0 -117.874,-25.1398 -158.385,-65.6245 -40.5095,-40.4764 -65.5501,-96.4158 -65.5501,-158.258 0,-61.7304 25.0406,-117.784 65.5501,-158.269 40.5118,-40.4764 96.6142,-65.5016 158.385,-65.5016l0 0z"/>
   <path id="_413055400" class="fil5" d="M499.935 1320.28c20.7402,0 39.5032,8.38701 53.08,21.952 13.6146,13.5673 22.0087,32.3528 22.0087,53.041 0,20.726 -8.3941,39.4737 -22.0087,53.0386 -13.5768,13.5673 -32.3398,21.9933 -53.08,21.9933 -20.7024,0 -39.5044,-8.42599 -53.0811,-21.9933 -13.5756,-13.565 -21.9673,-32.3126 -21.9673,-53.0386 0,-20.6882 8.39174,-39.4737 21.9673,-53.041 13.578,-13.565 32.3788,-21.952 53.0811,-21.952l0 0z"/>
   <path id="_413055352" class="fil6" d="M499.935 1502.3c28.4551,0 55.5485,-11.2512 75.6827,-31.3418 20.1532,-20.1095 31.4055,-47.2087 31.4055,-75.6898 0,-13.5413 -2.55,-26.7815 -7.39253,-39.1063 -5.33504,-13.5803 -13.4539,-26.0492 -24.013,-36.5859 -20.1343,-20.0917 -47.2335,-31.3004 -75.6827,-31.3004 -28.4339,0 -55.5874,11.2181 -75.7005,31.3158 -10.5118,10.5047 -18.5988,22.9323 -23.9232,36.463 -4.86378,12.3591 -7.42442,25.6394 -7.42442,39.2138 0,28.4551 11.2217,55.5626 31.3477,75.6745 20.1118,20.0965 47.2607,31.3571 75.7005,31.3571zm64.0878 -146.138c6.98386,11.3929 11.0008,24.7949 11.0008,39.1063 0,20.726 -8.3941,39.4737 -22.0087,53.0386 -13.5768,13.5673 -32.3398,21.9933 -53.08,21.9933 -20.7024,0 -39.5044,-8.42599 -53.0811,-21.9933 -13.5756,-13.565 -21.9673,-32.3126 -21.9673,-53.0386 0,-14.3114 4.01575,-27.7134 10.9866,-39.1063 3.10512,-5.07638 6.79725,-9.75355 10.9807,-13.9347 13.578,-13.565 32.3788,-21.952 53.0811,-21.952 20.7402,0 39.5032,8.38701 53.08,21.952 4.19646,4.18111 7.89686,8.85827 11.0079,13.9347z"/>
   <rect id="_413054680" class="fil5" x="493.08" y="1158.98" width="13.7504" height="28.1244" rx="4.0004" ry="4.0004"/>
   <rect id="_413054704" class="fil5" transform="matrix(0.965926 0.258819 -0.332757 1.24187 554.476 1165.25)" width="13.7504" height="21.8752" rx="4.0004" ry="4.0004"/>
   <rect id="_413054896" class="fil5" transform="matrix(0.866025 0.5 -0.642838 1.11343 612.156 1187.2)" width="13.7504" height="21.8752" rx="4.0004" ry="4.0004"/>
   <rect id="_413055064" class="fil5" transform="matrix(0.707107 0.707107 -0.90911 0.90911 662.19 1223.33)" width="13.7504" height="21.8752" rx="4.0004" ry="4.0004"/>
   <rect id="_413054464" class="fil5" transform="matrix(0.5 0.866025 -1.11343 0.642838 701.168 1271.18)" width="13.7504" height="21.8752" rx="4.0004" ry="4.0004"/>
   <rect id="_413054008" class="fil5" transform="matrix(0.258819 0.965926 -1.24187 0.332757 726.434 1327.49)" width="13.7504" height="21.8752" rx="4.0004" ry="4.0004"/>
   <rect id="_413054632" class="fil5" transform="matrix(2.63956E-014 1 -1.28568 3.38063E-014 736.266 1388.41)" width="13.7504" height="21.8752" rx="4.0004" ry="4.0004"/>
   <rect id="_413054584" class="fil5" transform="matrix(-0.258819 0.965926 -1.24187 -0.332757 729.993 1449.81)" width="13.7504" height="21.8752" rx="4.0004" ry="4.0004"/>
   <rect id="_413054512" class="fil5" transform="matrix(-0.5 0.866025 -1.11343 -0.642838 708.044 1507.49)" width="13.7504" height="21.8752" rx="4.0004" ry="4.0004"/>
   <rect id="_413054320" class="fil5" transform="matrix(-0.707107 0.707107 -0.90911 -0.90911 671.913 1557.52)" width="13.7504" height="21.8752" rx="4.0004" ry="4.0004"/>
   <rect id="_415932456" class="fil5" transform="matrix(-0.866025 0.5 -0.642838 -1.11343 624.064 1596.5)" width="13.7504" height="21.8752" rx="4.0004" ry="4.0004"/>
   <rect id="_415923120" class="fil5" transform="matrix(-0.965926 0.258819 -0.332757 -1.24187 567.758 1621.77)" width="13.7504" height="21.8752" rx="4.0004" ry="4.0004"/>
   <rect id="_415943976" class="fil5" x="493.08" y="1603.47" width="13.7504" height="28.1244" rx="4.0004" ry="4.0004"/>
   <rect id="_415937976" class="fil5" transform="matrix(-0.965926 -0.258819 0.332757 -1.24187 445.434 1625.33)" width="13.7504" height="21.8752" rx="4.0004" ry="4.0004"/>
   <rect id="_415938096" class="fil5" transform="matrix(-0.866025 -0.5 0.642838 -1.11343 387.754 1603.38)" width="13.7504" height="21.8752" rx="4.0004" ry="4.0004"/>
   <rect id="_415937952" class="fil5" transform="matrix(-0.707107 -0.707107 0.90911 -0.90911 337.72 1567.25)" width="13.7504" height="21.8752" rx="4.0004" ry="4.0004"/>
   <rect id="_415938240" class="fil5" transform="matrix(-0.5 -0.866025 1.11343 -0.642838 298.742 1519.4)" width="13.7504" height="21.8752" rx="4.0004" ry="4.0004"/>
   <rect id="_415938072" class="fil5" transform="matrix(-0.258819 -0.965926 1.24187 -0.332757 273.476 1463.09)" width="13.7504" height="21.8752" rx="4.0004" ry="4.0004"/>
   <rect id="_415938216" class="fil5" transform="matrix(-7.91589E-014 -1 1.28568 -1.01641E-013 263.645 1402.16)" width="13.7504" height="21.8752" rx="4.0004" ry="4.0004"/>
   <rect id="_415937712" class="fil5" transform="matrix(0.258819 -0.965926 1.24187 0.332757 269.917 1340.77)" width="13.7504" height="21.8752" rx="4.0004" ry="4.0004"/>
   <rect id="_415937688" class="fil5" transform="matrix(0.5 -0.866025 1.11343 0.642838 291.867 1283.09)" width="13.7504" height="21.8752" rx="4.0004" ry="4.0004"/>
   <rect id="_415937232" class="fil5" transform="matrix(0.707107 -0.707107 0.90911 0.90911 327.997 1233.05)" width="13.7504" height="21.8752" rx="4.0004" ry="4.0004"/>
   <rect id="_415937568" class="fil5" transform="matrix(0.866025 -0.5 0.642838 1.11343 375.846 1194.07)" width="13.7504" height="21.8752" rx="4.0004" ry="4.0004"/>
   <rect id="_415937808" class="fil5" transform="matrix(0.965926 -0.258819 0.332757 1.24187 432.153 1168.81)" width="13.7504" height="21.8752" rx="4.0004" ry="4.0004"/>
   <g>
    <path id="_415937496" class="fil5" d="M1164.07 1171.46c61.8874,0 117.872,25.0252 158.382,65.5016 40.6264,40.4835 65.6717,96.5387 65.6717,158.269 0,61.8426 -25.0453,117.782 -65.6717,158.258 -40.5107,40.4847 -96.495,65.6245 -158.382,65.6245 -61.7705,0 -117.874,-25.1398 -158.385,-65.6245 -40.5095,-40.4764 -65.5501,-96.4158 -65.5501,-158.258 0,-61.7304 25.0406,-117.784 65.5501,-158.269 40.5118,-40.4764 96.6142,-65.5016 158.385,-65.5016l0 0z"/>
    <path id="_415936968" class="fil5" d="M1164.07 1171.46c61.8874,0 117.872,25.0252 158.382,65.5016 40.6264,40.4835 65.6717,96.5387 65.6717,158.269 0,61.8426 -25.0453,117.782 -65.6717,158.258 -40.5107,40.4847 -96.495,65.6245 -158.382,65.6245 -61.7705,0 -117.874,-25.1398 -158.385,-65.6245 -40.5095,-40.4764 -65.5501,-96.4158 -65.5501,-158.258 0,-61.7304 25.0406,-117.784 65.5501,-158.269 40.5118,-40.4764 96.6142,-65.5016 158.385,-65.5016l0 0z"/>
    <path id="_415936872" class="fil5" d="M1164.11 1320.28c20.7402,0 39.5032,8.38701 53.08,21.952 13.6146,13.5673 22.0087,32.3528 22.0087,53.041 0,20.726 -8.3941,39.4737 -22.0087,53.0386 -13.5768,13.5673 -32.3398,21.9933 -53.08,21.9933 -20.7024,0 -39.5044,-8.42599 -53.0811,-21.9933 -13.5756,-13.565 -21.9673,-32.3126 -21.9673,-53.0386 0,-20.6882 8.39174,-39.4737 21.9673,-53.041 13.578,-13.565 32.3788,-21.952 53.0811,-21.952l0 0z"/>
    <path id="_415936752" class="fil6" d="M1164.11 1502.3c28.4551,0 55.5485,-11.2512 75.6827,-31.3418 20.1532,-20.1095 31.4055,-47.2087 31.4055,-75.6898 0,-13.5413 -2.55,-26.7815 -7.39253,-39.1063 -5.33504,-13.5803 -13.4539,-26.0492 -24.013,-36.5859 -20.1343,-20.0917 -47.2335,-31.3004 -75.6827,-31.3004 -28.4339,0 -55.5874,11.2181 -75.7005,31.3158 -10.5118,10.5047 -18.5988,22.9323 -23.9232,36.463 -4.86378,12.3591 -7.42442,25.6394 -7.42442,39.2138 0,28.4551 11.2217,55.5626 31.3477,75.6745 20.1118,20.0965 47.2607,31.3571 75.7005,31.3571zm64.0878 -146.138c6.98386,11.3929 11.0008,24.7949 11.0008,39.1063 0,20.726 -8.3941,39.4737 -22.0087,53.0386 -13.5768,13.5673 -32.3398,21.9933 -53.08,21.9933 -20.7024,0 -39.5044,-8.42599 -53.0811,-21.9933 -13.5756,-13.565 -21.9673,-32.3126 -21.9673,-53.0386 0,-14.3114 4.01575,-27.7134 10.9866,-39.1063 3.10512,-5.07638 6.79725,-9.75355 10.9807,-13.9347 13.578,-13.565 32.3788,-21.952 53.0811,-21.952 20.7402,0 39.5032,8.38701 53.08,21.952 4.19646,4.18111 7.89686,8.85827 11.0079,13.9347z"/>
    <rect id="_415936392" class="fil5" x="1157.26" y="1158.98" width="13.7504" height="28.1244" rx="4.0004" ry="4.0004"/>
    <rect id="_415936488" class="fil5" transform="matrix(0.965926 0.258819 -0.332757 1.24187 1218.65 1165.25)" width="13.7504" height="21.8752" rx="4.0004" ry="4.0004"/>
    <rect id="_415936800" class="fil5" transform="matrix(0.866025 0.5 -0.642838 1.11343 1276.33 1187.2)" width="13.7504" height="21.8752" rx="4.0004" ry="4.0004"/>
    <rect id="_415936728" class="fil5" transform="matrix(0.707107 0.707107 -0.90911 0.90911 1326.37 1223.33)" width="13.7504" height="21.8752" rx="4.0004" ry="4.0004"/>
    <rect id="_415936320" class="fil5" transform="matrix(0.5 0.866025 -1.11343 0.642838 1365.35 1271.18)" width="13.7504" height="21.8752" rx="4.0004" ry="4.0004"/>
    <rect id="_415936128" class="fil5" transform="matrix(0.258819 0.965926 -1.24187 0.332757 1390.61 1327.49)" width="13.7504" height="21.8752" rx="4.0004" ry="4.0004"/>
    <rect id="_415935888" class="fil5" transform="matrix(2.63956E-014 1 -1.28568 3.38063E-014 1400.44 1388.41)" width="13.7504" height="21.8752" rx="4.0004" ry="4.0004"/>
    <rect id="_415935792" class="fil5" transform="matrix(-0.258819 0.965926 -1.24187 -0.332757 1394.17 1449.81)" width="13.7504" height="21.8752" rx="4.0004" ry="4.0004"/>
    <rect id="_415935984" class="fil5" transform="matrix(-0.5 0.866025 -1.11343 -0.642838 1372.22 1507.49)" width="13.7504" height="21.8752" rx="4.0004" ry="4.0004"/>
    <rect id="_415935768" class="fil5" transform="matrix(-0.707107 0.707107 -0.90911 -0.90911 1336.09 1557.52)" width="13.7504" height="21.8752" rx="4.0004" ry="4.0004"/>
    <rect id="_415935048" class="fil5" transform="matrix(-0.866025 0.5 -0.642838 -1.11343 1288.24 1596.5)" width="13.7504" height="21.8752" rx="4.0004" ry="4.0004"/>
    <rect id="_415935552" class="fil5" transform="matrix(-0.965926 0.258819 -0.332757 -1.24187 1231.94 1621.77)" width="13.7504" height="21.8752" rx="4.0004" ry="4.0004"/>
    <rect id="_415935144" class="fil5" x="1157.26" y="1603.47" width="13.7504" height="28.1244" rx="4.0004" ry="4.0004"/>
    <rect id="_415934880" class="fil5" transform="matrix(-0.965926 -0.258819 0.332757 -1.24187 1109.61 1625.33)" width="13.7504" height="21.8752" rx="4.0004" ry="4.0004"/>
    <rect id="_415934856" class="fil5" transform="matrix(-0.866025 -0.5 0.642838 -1.11343 1051.93 1603.38)" width="13.7504" height="21.8752" rx="4.0004" ry="4.0004"/>
    <rect id="_415935384" class="fil5" transform="matrix(-0.707107 -0.707107 0.90911 -0.90911 1001.9 1567.25)" width="13.7504" height="21.8752" rx="4.0004" ry="4.0004"/>
    <rect id="_415934280" class="fil5" transform="matrix(-0.5 -0.866025 1.11343 -0.642838 962.92 1519.4)" width="13.7504" height="21.8752" rx="4.0004" ry="4.0004"/>
    <rect id="_415934496" class="fil5" transform="matrix(-0.258819 -0.965926 1.24187 -0.332757 937.654 1463.09)" width="13.7504" height="21.8752" rx="4.0004" ry="4.0004"/>
    <rect id="_415934088" class="fil5" transform="matrix(-7.91589E-014 -1 1.28568 -1.01641E-013 927.823 1402.16)" width="13.7504" height="21.8752" rx="4.0004" ry="4.0004"/>
    <rect id="_415934568" class="fil5" transform="matrix(0.258819 -0.965926 1.24187 0.332757 934.095 1340.77)" width="13.7504" height="21.8752" rx="4.0004" ry="4.0004"/>
    <rect id="_415934328" class="fil5" transform="matrix(0.5 -0.866025 1.11343 0.642838 956.045 1283.09)" width="13.7504" height="21.8752" rx="4.0004" ry="4.0004"/>
    <rect id="_415934808" class="fil5" transform="matrix(0.707107 -0.707107 0.90911 0.90911 992.175 1233.05)" width="13.7504" height="21.8752" rx="4.0004" ry="4.0004"/>
    <rect id="_415934640" class="fil5" transform="matrix(0.866025 -0.5 0.642838 1.11343 1040.02 1194.07)" width="13.7504" height="21.8752" rx="4.0004" ry="4.0004"/>
    <rect id="_415933632" class="fil5" transform="matrix(0.965926 -0.258819 0.332757 1.24187 1096.33 1168.81)" width="13.7504" height="21.8752" rx="4.0004" ry="4.0004"/>
   </g>
   <rect id="_415933464" class="fil4" x="354.472" y="972.009" width="226.251" height="15.626"/>
   <rect id="_415933800" class="fil4" x="354.472" y="1001.07" width="226.251" height="15.626"/>
   <rect id="_415934040" class="fil4" x="354.472" y="1030.14" width="226.251" height="15.626"/>
   <rect id="_415933680" class="fil4" x="354.472" y="1059.2" width="226.251" height="15.626"/>
  </g>
  <rect class="fil7" transform="matrix(-0.582367 -0.400528 -0.400528 0.582367 1753.11 738.446)" width="31.9996" height="128.001"/>
  <circle class="fil0" transform="matrix(-0.495197 0.324281 0.324281 0.495197 1530.65 498.781)" r="26.1721"/>
  <polygon class="fil0" points="1527.96,489.02 1454.39,508.702 1484.28,554.35 1527.53,508.535 "/>
  <rect class="fil8" transform="matrix(-0.224537 0.192807 0.192807 0.224537 1664.38 636.781)" width="64.0004" height="416.001"/>
  <rect class="fil0" transform="matrix(-0.449082 0.385622 0.385622 0.449082 1552.31 491.731)" width="64.0004" height="416.001"/>
  <rect class="fil9" transform="matrix(-0.449082 0.385622 0.385622 0.449082 1709.77 657.322)" width="103.126" height="30.4689" rx="9.01772" ry="9.01772"/>
  <rect class="fil9" transform="matrix(-0.449082 0.385622 0.385622 0.449082 1561.1 484.187)" width="103.126" height="30.4689" rx="9.01772" ry="9.01772"/>
  <circle class="fil7" transform="matrix(-0.582367 -0.400528 -0.400528 0.582367 1739.15 738.786)" r="23.5937"/>
  <path class="fil10" d="M1513.96 1263.33c-11.2937,5.85237 -26.2855,-0.751182 -33.4807,-14.7508 -0.068504,-1.16339 40.4114,-18.8433 51.7063,-24.6969l34.8685 -52.6536c11.2937,-5.85237 26.2855,0.751182 33.4807,14.7508 7.19528,14.0008 3.8752,30.0981 -7.41851,35.9504l-79.1564 41.4z"/>
  <path class="fil10" d="M1570.1 954.9l-18.8669 237.794 35.654 2.83465 -35.7425 -2.83583c-1.56614,19.7386 13.1681,37.0099 32.9067,38.5772 6.45473,0.512599 12.6449,-0.720473 18.1099,-3.29882l75.3343 -28.8508c4.14567,-1.58858 8.29725,-3.16654 12.4382,-4.74449 98.8394,-37.6335 194.721,-74.1579 205.484,-189.393 0.344882,-2.05276 0.505512,-4.10906 0.490158,-6.14292 2.05984,-36.3154 -10.4752,-70.3867 -32.5677,-96.2883 -22.1138,-25.9264 -53.804,-43.6902 -90.0131,-47.3693 -1.88268,-0.314173 -3.763,-0.470079 -5.62914,-0.48189l-17.2169 -1.36654 -21.665 -60.0225 0.0141732 -0.00590552c-5.24882,-14.5406 -18.9248,-23.6103 -33.5327,-23.6906l-109.05 -8.65158 -2.83465 35.6528 2.83583 -35.7414c-19.7386,-1.56614 -37.0111,13.1681 -38.5772,32.9067 -0.0661418,0.836221 -0.101575,1.6689 -0.109843,2.49685l-9.21733 116.176 35.6528 2.83347 -35.7414 -2.83583c-1.17402,14.8063 6.82087,28.2236 19.2213,34.6677l12.6236 7.78111z"/>
  <path class="fil11" d="M1593.02 791.02c-9.14646,4.62874 -15.5776,12.5669 -18.5799,21.6685l-0.0106299 0.0366142 -0.0011811 0.00236221 -0.0389764 -0.0129921c-0.141732,0.433465 -0.261024,0.870473 -0.359055,1.30866 -2.5311,8.78623 -1.89331,18.4748 2.52284,27.2032 4.65827,9.20434 12.6083,15.6496 21.6933,18.6295 9.08623,2.97992 19.311,2.49331 28.5142,-2.16378 9.20434,-4.65827 15.6496,-12.6071 18.6295,-21.6933 2.97992,-9.08505 2.49449,-19.3075 -2.16378,-28.513 -4.65709,-9.20198 -12.6071,-15.6496 -21.6933,-18.6295 -9.08505,-2.97992 -19.3075,-2.49449 -28.513,2.16378z"/>
  <path class="fil10" d="M1602 808.768c-4.27677,2.16496 -7.28386,5.87717 -8.6882,10.1327l-0.00472441 0.0177165 0 0.0011811 -0.0188977 -0.00708662c-0.0661418,0.20315 -0.121654,0.407481 -0.167717,0.612993 -1.18347,4.10788 -0.885827,8.63859 1.17992,12.7193 2.17795,4.30512 5.89489,7.31812 10.1445,8.71182 4.24843,1.3937 9.02953,1.16575 13.3323,-1.01102 4.30512,-2.17914 7.31812,-5.89607 8.71182,-10.1445 1.3937,-4.24843 1.16693,-9.02835 -1.01102,-13.3335 -2.17795,-4.30276 -5.89607,-7.31812 -10.1445,-8.71064 -4.24843,-1.3937 -9.02835,-1.16693 -13.3335,1.01102z"/>
  <path class="fil7" d="M1749.79 851.414l-131.818 29.4673 -48.0662 73.8969 -12.4276 -7.65945c-12.4004,-6.4441 -20.3953,-19.8614 -19.2213,-34.6677l0.0885827 0.00236221 6.26339 -78.9532 1.16575 -14.6764 1.78819 -22.5461c0.00826772,-0.827953 0.0437008,-1.66063 0.109843,-2.49685 1.56614,-19.7386 18.8386,-34.4729 38.5772,-32.9067l-0.0011811 0.0885827 52.3902 4.1563 56.6599 4.49528c0.119291,0.0011811 0.238583,0.00236221 0.359055,0.00472441 12.802,0.198425 24.8386,7.29331 31.05,18.9118 0.811418,1.51654 1.52244,3.10866 2.12362,4.77402l-0.0141732 0.00590552 20.9729 58.1032zm-175.355 -38.6859l0 0zm70.9619 23.2713c2.97992,-9.08505 2.49449,-19.3087 -2.16378,-28.513 -2.82284,-5.57835 -6.85749,-10.1445 -11.6197,-13.5402 -3.09331,-2.20512 -6.49489,-3.91654 -10.0736,-5.08937 -9.08505,-2.97992 -19.3087,-2.49449 -28.513,2.16378 -9.14764,4.62874 -15.5776,12.5681 -18.5788,21.6697l-0.0129921 0.0377953 -0.0389764 -0.0106299c-0.142913,0.429922 -0.262205,0.869292 -0.359055,1.3063 -2.39173,8.30197 -1.95354,17.4095 1.82717,25.7504 0.220866,0.486615 0.452363,0.970867 0.69567,1.45276 4.65827,9.20316 12.6083,15.6496 21.6933,18.6295 9.08623,2.97992 19.311,2.49331 28.5142,-2.16378 9.20316,-4.65709 15.6496,-12.6083 18.6295,-21.6933z"/>
 </g>
 <rect class="fil12" width="2048" height="2048"/>
</svg>
