<?xml version="1.0" encoding="UTF-8"?>
<!DOCTYPE svg PUBLIC "-//W3C//DTD SVG 1.1//EN" "http://www.w3.org/Graphics/SVG/1.1/DTD/svg11.dtd">
<!-- Creator: CorelDRAW -->
<svg xmlns="http://www.w3.org/2000/svg" xml:space="preserve" width="2048px" height="2048px" style="shape-rendering:geometricPrecision; text-rendering:geometricPrecision; image-rendering:optimizeQuality; fill-rule:evenodd; clip-rule:evenodd"
viewBox="0 0 2048 2048"
 xmlns:xlink="http://www.w3.org/1999/xlink">
 <defs>
  <style type="text/css">
   <![CDATA[
    .fil5 {fill:none}
    .fil1 {fill:#0D47A1}
    .fil2 {fill:#1E88E5}
    .fil0 {fill:#B2EBF2}
    .fil3 {fill:#EC407A}
    .fil4 {fill:#FFFFFE;fill-rule:nonzero}
   ]]>
  </style>
 </defs>
 <g id="Layer_x0020_1">
  <metadata id="CorelCorpID_0Corel-Layer"/>
  <path class="fil0" d="M1710.07 821.447c0,-51.078 -41.4851,-92.6599 -92.7261,-92.6599 -51.2504,0 -92.7343,41.5819 -92.7355,92.6599 0,51.2067 41.4863,92.7887 92.7355,92.7887 51.241,0 92.7261,-41.5819 92.7261,-92.7887z"/>
  <polygon class="fil1" points="868.444,575.788 868.444,742.704 802.929,742.704 802.929,575.788 "/>
  <path class="fil1" d="M377.234 561.297c-18.1288,0 -32.7579,14.6138 -32.7579,32.7296 0,18.1158 14.6291,32.7307 32.7579,32.7307l916.909 0c18.1335,0 32.7544,-14.615 32.7544,-32.7307 0,-18.1158 -14.6221,-32.7296 -32.7544,-32.7296l-916.909 0z"/>
  <polygon class="fil1" points="573.043,1272.68 540.286,1436.33 476.105,1423.53 508.858,1259.87 "/>
  <polygon class="fil1" points="821.666,1238.5 821.666,1431.26 756.158,1431.26 756.158,1238.5 "/>
  <path class="fil1" d="M342.911 1354.8l20.7851 66.4288 635.771 0 0 65.4615 -659.101 0 -0.578741 0.00826772 -0.303544 0c-13.8083,-0.0271654 -26.6457,-9.00237 -31.0252,-22.9571l31.3051 -9.78308 -31.3051 9.78308 -27.9189 -89.4934 62.3705 -19.448z"/>
  <path class="fil2" d="M656.438 1097.19c0,0 -167.039,71.3788 -359.942,39.737 8.82166,-30.1949 25.5024,-61.5945 48.2244,-92.1544 62.2489,-83.7001 172.964,-164.38 290.327,-193.487 33.3591,10.2673 58.9855,42.9981 70.5839,108.458 0.0011811,0 25.2662,86.8394 -49.193,137.446zm848.255 -154.112l-14.3811 -106.889c-2.29725,-15.8244 -15.9579,-28.0229 -32.3918,-28.0229l-473.689 0 -55.8367 -83.5772c-6.28229,-9.54095 -16.8012,-14.6138 -27.4382,-14.6138l-130.778 0c-11.4839,0 -21.639,6.03898 -27.4418,14.9776l-55.4752 83.093c-146.615,1.69134 -298.427,100.851 -375.785,204.842 -27.5563,37.0784 -46.1693,75.3627 -52.8142,111.351 -1.72914,9.54095 -2.63386,18.8953 -2.66339,28.0099 -0.0956694,29.7721 9.16418,56.9811 29.615,79.7292 37.7138,41.9032 113.979,64.4953 240.891,50.7225l0.725197 0 0.366142 0 374.933 -16.5449 -1.33228 -32.6079 1.44921 32.7319c1.44921,-0.124016 2.78032,-0.245669 4.23426,-0.487796 53.5441,-6.64371 98.9883,-29.1059 136.456,-66.9095 33.0012,-33.091 59.3481,-77.778 79.291,-133.582l357.046 -83.3339c17.6457,-3.7441 28.891,-21.1358 25.0181,-38.889z"/>
  <path class="fil2" d="M1617.35 908.773c-48.2304,0 -87.2729,-39.1323 -87.2729,-87.3225 0.0011811,-48.0685 39.0414,-87.2009 87.2729,-87.2009 48.2221,0 87.2635,39.1323 87.2635,87.2009 0,48.1902 -39.0414,87.3225 -87.2635,87.3225zm167.519 9.17953c-22.9654,-114.98 -29.3681,-125.971 -75.3012,-239.502l-8.45906 -20.5323 -22.2378 0.239764 -112.892 1.57087 -17.6445 0.242126 -9.42993 14.7354 -91.0123 141.19 -5.07993 17.9941 1.33347 115.826 0.483071 35.3859 35.0481 -3.13819 275.945 -25.1221 36.3803 -3.38268 -7.13268 -35.5075z"/>
  <path class="fil3" d="M1617.47 743.67l0 0c8.57599,0 15.587,7.00512 15.587,15.5811l0 46.741c0,1.44803 -0.236221,2.89961 -0.598819,4.22835 -3.3874,-4.59213 -8.82638,-7.49056 -14.9894,-7.49056 -6.04371,0 -11.4827,2.89843 -14.9929,7.49056 -0.360236,-1.32874 -0.598819,-2.78032 -0.598819,-4.22835l0 -46.741c0,-8.57599 7.01103,-15.5811 15.5917,-15.5811l0.0011811 0z"/>
  <path class="fil3" d="M1617.47 802.73c10.3925,0 18.8528,8.45552 18.8528,18.8433 0,10.3854 -8.46142,18.7193 -18.854,18.7193 -10.3949,0 -18.7358,-8.33386 -18.7358,-18.7193 0,-10.3878 8.33977,-18.8433 18.7358,-18.8433l0.0011811 0zm0 -9.66261c15.8339,0 28.5201,12.6827 28.5201,28.5059 0.0011811,15.7004 -12.6874,28.5024 -28.5213,28.5024 -15.7158,0 -28.5236,-12.802 -28.5236,-28.5024 0,-15.8244 12.8079,-28.5047 28.5236,-28.5047l0.0011811 -0.0011811z"/>
  <path class="fil3" d="M1685.03 860.461l0 0c-4.35237,7.36772 -13.898,10.024 -21.3933,5.67638l-40.4906 -23.3091c-1.20709,-0.725197 -2.29843,-1.69134 -3.26457,-2.65748 9.18662,-1.20709 16.4386,-9.05788 16.4386,-18.5977 0,-2.65748 -0.604725,-5.0752 -1.44921,-7.36772 1.33228,0.362599 2.6563,0.843308 3.86811,1.56851l40.4906 23.4319c7.49056,4.22599 10.0287,13.7681 5.8004,21.2551l0 0z"/>
  <path class="fil3" d="M1550.02 860.461l0 0c-4.34646,-7.48701 -1.68543,-17.0291 5.68347,-21.2551l40.4918 -23.4319c1.33228,-0.725197 2.65984,-1.20591 3.98859,-1.56851 -0.967324,2.29252 -1.45039,4.71024 -1.45039,7.36772 0,9.53859 7.13268,17.3906 16.4386,18.5977 -0.964961,0.966142 -2.05748,1.93228 -3.3815,2.65748l-40.4941 23.3091c-7.37363,4.34764 -17.0421,1.69134 -21.2764,-5.67638l0 0z"/>
  <path class="fil0" d="M656.438 1097.19c74.4591,-50.6067 49.1941,-137.446 49.193,-137.446 -11.5984,-65.4603 -37.2248,-98.191 -70.5839,-108.458 -117.363,29.1071 -228.078,109.787 -290.327,193.487 -22.7221,30.5599 -39.4028,61.9595 -48.2244,92.1544 192.904,31.6418 359.942,-39.737 359.942,-39.737z"/>
  <path class="fil4" d="M619.337 917.27c8.80158,-0.724016 15.3496,-8.44843 14.6256,-17.25 -0.724016,-8.80158 -8.44843,-15.3496 -17.25,-14.6256 -0.393307,0.0318898 -137.055,10.0382 -205.71,148.459 -3.9,7.90394 -0.654331,17.4756 7.24961,21.3756 7.90394,3.9 17.4756,0.654331 21.3756,-7.24961 60.5079,-121.994 179.367,-130.681 179.71,-130.709z"/>
 </g>
 <rect class="fil5" width="2048" height="2048"/>
</svg>
