<?xml version="1.0" encoding="UTF-8"?>
<!DOCTYPE svg PUBLIC "-//W3C//DTD SVG 1.1//EN" "http://www.w3.org/Graphics/SVG/1.1/DTD/svg11.dtd">
<!-- Creator: CorelDRAW -->
<svg xmlns="http://www.w3.org/2000/svg" xml:space="preserve" width="2048px" height="2048px" style="shape-rendering:geometricPrecision; text-rendering:geometricPrecision; image-rendering:optimizeQuality; fill-rule:evenodd; clip-rule:evenodd"
viewBox="0 0 2048 2048"
 xmlns:xlink="http://www.w3.org/1999/xlink">
 <defs>
  <style type="text/css">
   <![CDATA[
    .fil8 {fill:none}
    .fil3 {fill:#BBDEFB}
    .fil2 {fill:#E53935}
    .fil6 {fill:#FFCA28}
    .fil5 {fill:#FFD740}
    .fil4 {fill:#FFFFFE}
    .fil7 {fill:white}
    .fil0 {fill:#263238;fill-rule:nonzero}
    .fil1 {fill:#E53935;fill-rule:nonzero}
   ]]>
  </style>
 </defs>
 <g id="Layer_x0020_1">
  <metadata id="CorelCorpID_0Corel-Layer"/>
  <path class="fil0" d="M715.792 318.718c0,17.6728 14.328,32.0008 32.0008,32.0008 17.2335,0 31.2839,-13.6252 31.9725,-30.6898l6.35315 0 477.821 0 4.29449 0c0.688583,17.0646 14.739,30.6898 31.9725,30.6898 17.6728,0 32.0008,-14.328 32.0008,-32.0008l0 -30.6898c0,-17.6728 -14.328,-32.0008 -32.0008,-32.0008l-552.414 0c-17.6728,0 -32.0008,14.328 -32.0008,32.0008l0 30.6898z"/>
  <polygon class="fil0" points="1056,288.029 1056,410.787 991.999,410.787 991.999,288.029 "/>
  <path class="fil0" d="M807.484 1375.54c7.38662,-16.0158 0.390945,-34.9878 -15.6248,-42.3744 -16.0158,-7.38662 -34.9878,-0.390945 -42.3744,15.6248l-184.139 397.864c-7.38662,16.0158 -0.390945,34.9878 15.6248,42.3744 16.0158,7.38662 34.9878,0.390945 42.3744,-15.6248l184.139 -397.864z"/>
  <path class="fil0" d="M1267.83 1348.79c-7.38662,-16.0158 -26.3587,-23.0114 -42.3744,-15.6248 -16.0158,7.38662 -23.0114,26.3587 -15.6248,42.3744l184.138 397.864c7.38662,16.0158 26.3587,23.0114 42.3744,15.6248 16.0158,-7.38662 23.0114,-26.3587 15.6248,-42.3744l-184.138 -397.864z"/>
  <path class="fil0" d="M686.415 1422.23c-17.6728,0 -32.0008,14.328 -32.0008,32.0008 0,17.6728 14.328,32.0008 32.0008,32.0008l675.172 0c17.6728,0 32.0008,-14.328 32.0008,-32.0008 0,-17.6728 -14.328,-32.0008 -32.0008,-32.0008l-675.172 0z"/>
  <path class="fil0" d="M625.035 1514.3c-17.6728,0 -32.0008,14.328 -32.0008,32.0008 0,17.6728 14.328,32.0008 32.0008,32.0008l797.931 0c17.6728,0 32.0008,-14.328 32.0008,-32.0008 0,-17.6728 -14.328,-32.0008 -32.0008,-32.0008l-797.931 0z"/>
  <path class="fil0" d="M563.656 1637.06c-17.6728,0 -32.0008,14.328 -32.0008,32.0008 0,17.6728 14.328,32.0008 32.0008,32.0008l920.69 0c17.6728,0 32.0008,-14.328 32.0008,-32.0008 0,-17.6728 -14.328,-32.0008 -32.0008,-32.0008l-920.69 0z"/>
  <path class="fil1" d="M753.547 378.786l540.906 0c27.2929,0 52.0843,11.1449 70.0359,29.0965 17.9528,17.9528 29.0977,42.7465 29.0977,70.0371l0 809.436c0,27.2906 -11.1473,52.0831 -29.0988,70.0347 -17.9516,17.9516 -42.7441,29.0988 -70.0347,29.0988l-540.906 0c-27.2906,0 -52.0843,-11.1449 -70.0371,-29.0977 -17.9516,-17.9516 -29.0965,-42.7429 -29.0965,-70.0359l0 -809.436c0,-27.2941 11.1437,-52.0867 29.0953,-70.0382 17.9516,-17.9516 42.7441,-29.0953 70.0382,-29.0953zm540.906 64.0016l-540.906 0c-9.62835,0 -18.4063,3.9626 -24.7878,10.3441 -6.3815,6.3815 -10.3441,15.1595 -10.3441,24.7878l0 809.436c0,9.62717 3.96378,18.404 10.3453,24.7855 6.38268,6.38268 15.1618,10.3465 24.7866,10.3465l540.906 0c9.62481,0 18.4004,-3.96378 24.7843,-10.3476 6.38386,-6.38386 10.3476,-15.1595 10.3476,-24.7843l0 -809.436c0,-9.62481 -3.96378,-18.404 -10.3465,-24.7866 -6.3815,-6.3815 -15.1583,-10.3453 -24.7855,-10.3453z"/>
  <polygon class="fil2" points="1361.59,619.718 1361.59,425.485 686.415,425.485 686.415,619.718 718.416,619.718 1329.59,619.718 "/>
  <polygon class="fil2" points="1262.05,1023.27 785.229,1023.27 718.416,995.629 698.54,987.407 704,1344.03 752.952,1342.97 803.166,1341.89 819.876,1341.53 832.001,1344.03 1210.86,1346.75 1267.02,1347.15 1283.08,1347.27 1295.21,1344.77 1362.22,1293.6 1373.71,1046.41 1349.46,987.407 1329.59,995.561 "/>
  <polygon class="fil3" points="1329.59,619.718 718.416,619.718 718.416,995.629 785.229,1023.27 1262.05,1023.27 1329.59,995.561 "/>
  <g id="_319268800">
   <polygon id="_319269400" class="fil4" points="1197.4,619.718 1159.11,619.718 1085.08,913.769 "/>
   <polygon id="_319268824" class="fil4" points="1073.99,1023.27 1112.29,1023.27 1186.31,729.221 "/>
  </g>
  <path class="fil5" d="M912.118 1228.99l0 -71.2394c0,-13.6748 -11.087,-24.7618 -24.7606,-24.7618l-94.9867 0c-13.6748,0 -24.7618,11.087 -24.7618,24.7618l0 71.2394c0,13.6748 11.087,24.7618 24.7618,24.7618l94.9867 0c13.6736,0 24.7606,-11.087 24.7606,-24.7618z"/>
  <path class="fil5" d="M1280.39 1228.99l0 -71.2394c0,-13.6748 -11.087,-24.7618 -24.7618,-24.7618l-94.9867 0c-13.6736,0 -24.7606,11.087 -24.7606,24.7618l0 71.2394c0,13.6748 11.087,24.7618 24.7606,24.7618l94.9867 0c13.6748,0 24.7618,-11.087 24.7618,-24.7618z"/>
  <path class="fil6" d="M1068.57 556.593c11.5099,-11.5099 18.6284,-27.4099 18.6284,-44.9693 0,-17.5595 -7.11851,-33.4595 -18.6284,-44.9681 -11.5087,-11.5099 -27.4087,-18.6284 -44.9693,-18.6284 -17.5606,0 -33.4595,7.11851 -44.9681,18.6284 -11.5099,11.5087 -18.6284,27.4087 -18.6284,44.9681 0,17.5595 7.11851,33.4595 18.6284,44.9693 11.5087,11.5087 27.4087,18.6284 44.9681,18.6284 17.5595,0 33.4607,-7.11969 44.9693,-18.6284z"/>
  <path class="fil7" d="M1055.39 543.421c8.1378,-8.13898 13.1717,-19.3807 13.1717,-31.7977 0,-12.4158 -5.03386,-23.6587 -13.1717,-31.7965 -8.1378,-8.1378 -19.3807,-13.1717 -31.7977,-13.1717 -12.4169,0 -23.6587,5.03386 -31.7965,13.1717 -8.1378,8.1378 -13.1717,19.3807 -13.1717,31.7965 0,12.4169 5.03386,23.6587 13.1717,31.7977 8.1378,8.1378 19.3807,13.1717 31.7965,13.1717 12.4169,0 23.6599,-5.03386 31.7977,-13.1717z"/>
 </g>
 <rect class="fil8" width="2048" height="2048"/>
</svg>
