<?xml version="1.0" encoding="UTF-8"?>
<!DOCTYPE svg PUBLIC "-//W3C//DTD SVG 1.1//EN" "http://www.w3.org/Graphics/SVG/1.1/DTD/svg11.dtd">
<!-- Creator: CorelDRAW -->
<svg xmlns="http://www.w3.org/2000/svg" xml:space="preserve" width="2048px" height="2048px" style="shape-rendering:geometricPrecision; text-rendering:geometricPrecision; image-rendering:optimizeQuality; fill-rule:evenodd; clip-rule:evenodd"
viewBox="0 0 2048 2048"
 xmlns:xlink="http://www.w3.org/1999/xlink">
 <defs>
  <style type="text/css">
   <![CDATA[
    .fil5 {fill:none}
    .fil3 {fill:#424242}
    .fil4 {fill:#42A5F5}
    .fil2 {fill:#FFCA28}
    .fil0 {fill:#AFB42B;fill-rule:nonzero}
    .fil1 {fill:#D32F2F;fill-rule:nonzero}
   ]]>
  </style>
 </defs>
 <g id="Layer_x0020_1">
  <metadata id="CorelCorpID_0Corel-Layer"/>
  <polygon class="fil0" points="1056,422.085 1056,633.377 991.999,633.377 991.999,422.085 "/>
  <path class="fil0" d="M1024 294.084c25.0571,0 47.7449,10.1587 64.167,26.5831 16.4244,16.4221 26.5831,39.1099 26.5831,64.167 0,25.0547 -10.1587,47.7437 -26.5831,64.167 -16.4221,16.4221 -39.1099,26.5831 -64.167,26.5831 -25.0571,0 -47.7449,-10.161 -64.167,-26.5831 -16.4244,-16.4232 -26.5831,-39.1122 -26.5831,-64.167 0,-25.0571 10.1587,-47.7449 26.5831,-64.167 16.4221,-16.4244 39.1099,-26.5831 64.167,-26.5831z"/>
  <polygon class="fil0" points="690.387,1423.87 521.128,1717.04 465.878,1685.29 635.137,1392.12 "/>
  <path class="fil0" d="M475.36 1632c22.6736,0 43.2048,9.19371 58.0678,24.0567 14.863,14.863 24.0567,35.3941 24.0567,58.0678 0,22.6748 -9.19489,43.2071 -24.0567,58.0678 -14.863,14.863 -35.3941,24.0567 -58.0678,24.0567 -22.6748,0 -43.2071,-9.19489 -58.0678,-24.0567 -14.8618,-14.8606 -24.0567,-35.3929 -24.0567,-58.0678 0,-22.6736 9.19371,-43.2048 24.0567,-58.0678 14.8606,-14.8618 35.3929,-24.0567 58.0678,-24.0567z"/>
  <polygon class="fil0" points="1412.86,1392.12 1582.12,1685.29 1526.87,1717.04 1357.61,1423.87 "/>
  <path class="fil0" d="M1514.57 1656.06c14.863,-14.863 35.3941,-24.0567 58.0678,-24.0567 22.6748,0 43.2071,9.19489 58.0678,24.0567 14.863,14.863 24.0567,35.3941 24.0567,58.0678 0,22.6748 -9.19489,43.2071 -24.0567,58.0678 -14.8606,14.8618 -35.3929,24.0567 -58.0678,24.0567 -22.6736,0 -43.2048,-9.19371 -58.0678,-24.0567 -14.8618,-14.8606 -24.0567,-35.3929 -24.0567,-58.0678 0,-22.6736 9.19371,-43.2048 24.0567,-58.0678z"/>
  <path class="fil1" d="M495.154 1062.08c16.1858,-118.16 71.0316,-224.005 151.381,-304.354 96.6036,-96.6036 230.06,-156.354 377.465,-156.354 147.405,0 280.862,59.7508 377.465,156.354 80.3493,80.3493 135.195,186.194 151.381,304.354l-1057.69 0z"/>
  <path class="fil2" d="M1632 1056l-1216 0c-44.0327,0 -84.0426,17.9917 -113.024,46.976 -28.9843,28.9831 -46.976,68.9906 -46.976,113.024 0,61.6311 25.1918,117.641 65.7756,158.225 40.5851,40.5839 96.5953,65.7756 158.226,65.7756l127.495 0 73.5804 0 685.847 0 73.5804 0 127.497 0c61.6311,0 117.641,-25.1918 158.226,-65.7756 40.5839,-40.5839 65.7756,-96.5942 65.7756,-158.225 0,-44.0339 -17.9917,-84.0414 -46.976,-113.024 -28.9819,-28.9843 -68.9918,-46.976 -113.024,-46.976z"/>
  <path class="fil3" d="M559.996 1248c0,61.8449 -50.1544,111.999 -111.999,111.999 -61.8449,0 -111.999,-50.1544 -111.999,-111.999 0,-61.8449 50.1544,-111.999 111.999,-111.999 61.8449,0 111.999,50.1544 111.999,111.999zm288.001 0c0,61.8449 -50.1544,111.999 -111.999,111.999 -61.8449,0 -111.999,-50.1544 -111.999,-111.999 0,-61.8449 50.1544,-111.999 111.999,-111.999 61.8449,0 111.999,50.1544 111.999,111.999zm288.001 0c0,61.8449 -50.1544,111.999 -111.999,111.999 -61.8449,0 -111.999,-50.1544 -111.999,-111.999 0,-61.8449 50.1544,-111.999 111.999,-111.999 61.8449,0 111.999,50.1544 111.999,111.999zm288.001 0c0,61.8449 -50.1544,111.999 -111.999,111.999 -61.8449,0 -111.999,-50.1544 -111.999,-111.999 0,-61.8449 50.1544,-111.999 111.999,-111.999 61.8449,0 111.999,50.1544 111.999,111.999zm288.001 0c0,61.8449 -50.1544,111.999 -111.999,111.999 -61.8449,0 -111.999,-50.1544 -111.999,-111.999 0,-61.8449 50.1544,-111.999 111.999,-111.999 61.8449,0 111.999,50.1544 111.999,111.999z"/>
  <g id="_84809600">
   <path id="_415939200" class="fil4" d="M527.997 1248c0,-44.1827 -35.817,-79.9997 -79.9997,-79.9997 -44.1827,0 -79.9997,35.817 -79.9997,79.9997 0,44.1827 35.817,79.9997 79.9997,79.9997 44.1827,0 79.9997,-35.817 79.9997,-79.9997z"/>
   <path id="_415938720" class="fil4" d="M815.998 1248c0,-44.1827 -35.817,-79.9997 -79.9997,-79.9997 -44.1827,0 -79.9997,35.817 -79.9997,79.9997 0,44.1827 35.817,79.9997 79.9997,79.9997 44.1827,0 79.9997,-35.817 79.9997,-79.9997z"/>
   <path id="_415938744" class="fil4" d="M1104 1248c0,-44.1827 -35.817,-79.9997 -79.9997,-79.9997 -44.1827,0 -79.9997,35.817 -79.9997,79.9997 0,44.1827 35.817,79.9997 79.9997,79.9997 44.1827,0 79.9997,-35.817 79.9997,-79.9997z"/>
   <path id="_85219752" class="fil4" d="M1392 1248c0,-44.1827 -35.817,-79.9997 -79.9997,-79.9997 -44.1827,0 -79.9997,35.817 -79.9997,79.9997 0,44.1827 35.817,79.9997 79.9997,79.9997 44.1827,0 79.9997,-35.817 79.9997,-79.9997z"/>
   <path id="_84924280" class="fil4" d="M1680 1248c0,-44.1827 -35.817,-79.9997 -79.9997,-79.9997 -44.1827,0 -79.9997,35.817 -79.9997,79.9997 0,44.1827 35.817,79.9997 79.9997,79.9997 44.1827,0 79.9997,-35.817 79.9997,-79.9997z"/>
  </g>
 </g>
 <rect class="fil5" width="2048" height="2048"/>
</svg>
