<?xml version="1.0" encoding="UTF-8"?>
<!DOCTYPE svg PUBLIC "-//W3C//DTD SVG 1.1//EN" "http://www.w3.org/Graphics/SVG/1.1/DTD/svg11.dtd">
<!-- Creator: CorelDRAW -->
<svg xmlns="http://www.w3.org/2000/svg" xml:space="preserve" width="2048px" height="2048px" style="shape-rendering:geometricPrecision; text-rendering:geometricPrecision; image-rendering:optimizeQuality; fill-rule:evenodd; clip-rule:evenodd"
viewBox="0 0 2048 2048"
 xmlns:xlink="http://www.w3.org/1999/xlink">
 <defs>
  <style type="text/css">
   <![CDATA[
    .fil5 {fill:none}
    .fil0 {fill:#424242}
    .fil2 {fill:#B74643}
    .fil4 {fill:#E3F2FD}
    .fil3 {fill:#ECEFF1}
    .fil1 {fill:#EF5350}
   ]]>
  </style>
 </defs>
 <g id="Layer_x0020_1">
  <metadata id="CorelCorpID_0Corel-Layer"/>
  <path class="fil0" d="M1479.2 858.461l0 -211.236c0,-35.8276 14.5996,-68.5052 38.3079,-92.08 23.5925,-23.5736 56.2914,-38.2784 92.1497,-38.2784l53.2559 0 -53.2548 63.2528c-18.4547,0 -35.276,7.58623 -47.4213,19.7244 -12.2575,12.2539 -19.7339,28.9406 -19.7339,47.3811l0 211.236 -63.3036 0z"/>
  <path class="fil1" d="M1665.59 833.02l-0.576378 0 -365.791 0 -258.346 -424.804c-5.02087,-10.5047 -15.8835,-17.8571 -28.4953,-17.8571l0.0011811 0.115748 -412.394 0c-0.993308,-0.0874016 -1.98071,-0.127559 -2.96221,-0.121654 -14.7154,0.0838583 -27.8351,10.4575 -30.7914,25.4469l0.116929 0 -58.8626 291.995c-0.584646,1.86732 -0.936615,3.73347 -1.17047,5.7189l0.103937 0.011811c-0.258662,0.519685 -16.7764,7.49646 -37.7091,16.3252 -66.5717,27.8929 -160.356,67.3382 -160.356,213.802l0 21.3662 0 123.93 0 186.199 636.786 0 0.080315 0.530315 176.241 0 0.223229 -0.530315 543.903 0c4.22126,0 8.3941,-0.211417 12.515,-0.609449l0.454725 1.13976 26.0469 0c25.1079,0 47.7697,-10.1539 64.2367,-26.6079 16.4681,-16.4551 26.7461,-39.2126 26.7461,-64.3052l0 -39.6166 0 -181.653 0 -0.475985 -0.00590552 -0.468898 -0.0188977 -1.49055c-1.05,-70.0524 -58.2248,-127.128 -128.314,-128.019l-1.0937 -0.0141732 -0.56693 -0.00708662z"/>
  <path class="fil2" d="M1125.04 1275.15l540.548 0c3.1311,0 6.23504,-0.115748 9.31064,-0.338977 0.422835,-6.72638 -1.05709,-13.6417 -4.6689,-19.8969l-19.0878 -33.0614c-3.64725,-6.3189 -8.96575,-11.0906 -15.078,-14.0811 -1.3063,-6.68268 -4.54489,-13.0595 -9.71457,-18.2303l-26.9953 -26.9953c-5.16969,-5.16969 -11.5476,-8.40827 -18.2303,-9.71457 -2.99055,-6.11221 -7.76221,-11.4295 -14.0811,-15.078l-33.0614 -19.0878c-6.33308,-3.6567 -13.3417,-5.12835 -20.1461,-4.65237 -4.47166,-5.14016 -10.4516,-9.05079 -17.4803,-10.9335l-36.8764 -9.88111c-7.02402,-1.88268 -14.152,-1.48819 -20.5914,0.724016 -5.65394,-3.8126 -12.4642,-6.03898 -19.787,-6.03898l-38.1756 0c-7.32402,0 -14.1331,2.22638 -19.787,6.03898 -6.43938,-2.21221 -13.5673,-2.60669 -20.5914,-0.724016l-36.8764 9.88111c-7.02875,1.88386 -13.0087,5.79331 -17.4803,10.9335 -6.80434,-0.475985 -13.813,0.99567 -20.1461,4.65237l-33.0614 19.0878c-6.3189,3.64725 -11.0906,8.96575 -14.0811,15.078 -6.68268,1.3063 -13.0606,4.54489 -18.2303,9.71457l-26.9953 26.9953c-5.16969,5.16969 -8.40827,11.5476 -9.71457,18.2303 -6.11221,2.99055 -11.4307,7.76221 -15.078,14.0811l-19.0878 33.0614c-3.6567,6.33308 -5.12835,13.3417 -4.65237,20.1461l-0.102756 0.0897638z"/>
  <path class="fil2" d="M308.355 1064.51c2.41654,-2.56063 4.86851,-5.08701 7.35355,-7.58032 8.03032,-8.05394 16.4917,-15.6685 25.2295,-22.9465 68.6493,-57.1748 154.383,-88.3761 243.748,-88.3761 101.01,0 197.342,39.8587 268.795,111.259 39.3485,39.3201 69.7997,86.8973 88.7516,139.211 8.50867,23.4862 14.7461,47.7744 18.4547,72.4819 0.246851,1.64764 0.483071,3.29646 0.708662,4.94764l0.225591 1.6441 -653.267 0 0 -210.64z"/>
  <path class="fil0" d="M819.555 1090.82c-60.0296,-59.9835 -143.188,-97.2131 -234.868,-97.2131 -81.0544,0 -155.335,29.0587 -213.03,77.2595 -7.59213,6.30355 -14.9492,12.9532 -21.9567,19.9536 -15.3012,15.4087 -29.1992,32.2122 -41.3445,50.4166 -35.2725,52.7493 -55.943,116.12 -55.943,184.395 0,91.6123 37.2555,174.709 97.2875,234.805 60.1465,59.9918 143.188,97.2166 234.986,97.2166 91.6808,0 174.839,-37.2248 234.868,-97.2166 60.1465,-60.0957 97.4044,-143.192 97.4044,-234.805 0,-16.9252 -1.28386,-33.613 -3.73819,-49.95 -3.27047,-21.8256 -8.75788,-42.9461 -16.1162,-63.254 -16.6996,-46.1008 -43.4457,-87.528 -77.5501,-121.608l0 0z"/>
  <rect class="fil0" x="555.936" y="982.728" width="57.5008" height="23.7496" rx="4.41969" ry="4.41969"/>
  <rect class="fil0" transform="matrix(0.965926 0.258819 -0.258819 0.965926 645.664 986.97)" width="57.5008" height="23.7496" rx="4.41969" ry="4.41969"/>
  <rect class="fil0" transform="matrix(0.866025 0.5 -0.5 0.866025 731.237 1014.29)" width="57.5008" height="23.7496" rx="4.41969" ry="4.41969"/>
  <rect class="fil0" transform="matrix(0.707107 0.707107 -0.707107 0.707107 806.822 1062.83)" width="57.5008" height="23.7496" rx="4.41969" ry="4.41969"/>
  <rect class="fil0" transform="matrix(0.5 0.866025 -0.866025 0.5 867.269 1129.28)" width="57.5008" height="23.7496" rx="4.41969" ry="4.41969"/>
  <rect class="fil0" transform="matrix(0.258819 0.965926 -0.965926 0.258819 908.459 1209.11)" width="57.5008" height="23.7496" rx="4.41969" ry="4.41969"/>
  <rect class="fil0" transform="matrix(2.63956E-014 1 -1 2.63956E-014 927.584 1296.88)" width="57.5008" height="23.7496" rx="4.41969" ry="4.41969"/>
  <rect class="fil0" transform="matrix(-0.258819 0.965926 -0.965926 -0.258819 923.341 1386.6)" width="57.5008" height="23.7496" rx="4.41969" ry="4.41969"/>
  <rect class="fil0" transform="matrix(-0.5 0.866025 -0.866025 -0.5 896.02 1472.18)" width="57.5008" height="23.7496" rx="4.41969" ry="4.41969"/>
  <rect class="fil0" transform="matrix(-0.707107 0.707107 -0.707107 -0.707107 847.481 1547.76)" width="57.5008" height="23.7496" rx="4.41969" ry="4.41969"/>
  <rect class="fil0" transform="matrix(-0.866025 0.5 -0.5 -0.866025 781.034 1608.21)" width="57.5008" height="23.7496" rx="4.41969" ry="4.41969"/>
  <rect class="fil0" transform="matrix(-0.965926 0.258819 -0.258819 -0.965926 701.206 1649.4)" width="57.5008" height="23.7496" rx="4.41969" ry="4.41969"/>
  <rect class="fil0" x="555.936" y="1644.77" width="57.5008" height="23.7496" rx="4.41969" ry="4.41969"/>
  <rect class="fil0" transform="matrix(-0.965926 -0.258819 0.258819 -0.965926 523.709 1664.28)" width="57.5008" height="23.7496" rx="4.41969" ry="4.41969"/>
  <rect class="fil0" transform="matrix(-0.866025 -0.5 0.5 -0.866025 438.136 1636.96)" width="57.5008" height="23.7496" rx="4.41969" ry="4.41969"/>
  <rect class="fil0" transform="matrix(-0.707107 -0.707107 0.707107 -0.707107 362.55 1588.42)" width="57.5008" height="23.7496" rx="4.41969" ry="4.41969"/>
  <rect class="fil0" transform="matrix(-0.5 -0.866025 0.866025 -0.5 302.103 1521.97)" width="57.5008" height="23.7496" rx="4.41969" ry="4.41969"/>
  <rect class="fil0" transform="matrix(-0.258819 -0.965926 0.965926 -0.258819 260.913 1442.14)" width="57.5008" height="23.7496" rx="4.41969" ry="4.41969"/>
  <rect class="fil0" transform="matrix(-7.91589E-014 -1 1 -7.91589E-014 241.788 1354.38)" width="57.5008" height="23.7496" rx="4.41969" ry="4.41969"/>
  <rect class="fil0" transform="matrix(0.258819 -0.965926 0.965926 0.258819 246.031 1264.65)" width="57.5008" height="23.7496" rx="4.41969" ry="4.41969"/>
  <rect class="fil0" transform="matrix(0.5 -0.866025 0.866025 0.5 273.353 1179.08)" width="57.5008" height="23.7496" rx="4.41969" ry="4.41969"/>
  <rect class="fil0" transform="matrix(0.707107 -0.707107 0.707107 0.707107 321.891 1103.49)" width="57.5008" height="23.7496" rx="4.41969" ry="4.41969"/>
  <rect class="fil0" transform="matrix(0.866025 -0.5 0.5 0.866025 388.339 1043.04)" width="57.5008" height="23.7496" rx="4.41969" ry="4.41969"/>
  <rect class="fil0" transform="matrix(0.965926 -0.258819 0.258819 0.965926 468.167 1001.85)" width="57.5008" height="23.7496" rx="4.41969" ry="4.41969"/>
  <path class="fil3" d="M584.686 1499.52c48,0 91.5638,-19.4917 123.097,-50.8843 31.4173,-31.5083 50.9209,-75.0367 50.9209,-123.004 0,-17.5677 -2.60315,-34.5118 -7.43977,-50.4804 -8.40237,-27.737 -23.5429,-52.5296 -43.4811,-72.528 -31.5331,-31.3914 -75.0969,-50.8819 -123.097,-50.8819 -48.1181,0 -91.565,19.4906 -123.1,50.8819 -19.9382,19.9996 -35.0788,44.791 -43.48,72.528 -4.8378,15.9685 -7.44095,32.9126 -7.44095,50.4804 0,47.967 19.5047,91.4953 50.9209,123.004 31.5355,31.3925 74.9823,50.8843 123.1,50.8843z"/>
  <g id="_375970960">
   <g>
    <polygon id="_375971848" class="fil0" points="584.685,1233.64 593.124,1238.51 601.563,1243.38 601.563,1253.13 601.563,1262.87 593.124,1267.74 584.685,1272.62 576.246,1267.74 567.807,1262.87 567.807,1253.13 567.807,1243.38 576.246,1238.51 "/>
    <polygon id="_375971272" class="fil0" points="584.685,1378.64 593.124,1383.51 601.563,1388.38 601.563,1398.13 601.563,1407.87 593.124,1412.74 584.685,1417.61 576.246,1412.74 567.807,1407.87 567.807,1398.13 567.807,1388.38 576.246,1383.51 "/>
   </g>
   <g>
    <polygon id="_375971128" class="fil0" points="676.673,1325.63 671.8,1334.07 666.928,1342.5 657.184,1342.5 647.439,1342.5 642.567,1334.07 637.694,1325.63 642.567,1317.19 647.439,1308.75 657.184,1308.75 666.928,1308.75 671.8,1317.19 "/>
    <polygon id="_375971488" class="fil0" points="531.676,1325.63 526.803,1334.07 521.931,1342.5 512.187,1342.5 502.443,1342.5 497.57,1334.07 492.697,1325.63 497.57,1317.19 502.443,1308.75 512.187,1308.75 521.931,1308.75 526.803,1317.19 "/>
   </g>
  </g>
  <g id="_375970288">
   <g>
    <polygon id="_375971392" class="fil0" points="649.73,1260.58 652.251,1269.99 654.774,1279.41 647.884,1286.3 640.993,1293.19 631.581,1290.66 622.169,1288.14 619.647,1278.73 617.124,1269.32 624.015,1262.43 630.905,1255.54 640.317,1258.06 "/>
    <polygon id="_375971344" class="fil0" points="547.202,1363.11 549.723,1372.52 552.246,1381.93 545.356,1388.83 538.465,1395.72 529.053,1393.19 519.641,1390.67 517.119,1381.26 514.596,1371.85 521.487,1364.96 528.377,1358.07 537.789,1360.59 "/>
   </g>
   <g>
    <polygon id="_375971296" class="fil0" points="649.73,1390.67 640.317,1393.19 630.905,1395.72 624.015,1388.83 617.124,1381.93 619.647,1372.52 622.169,1363.11 631.581,1360.59 640.993,1358.07 647.884,1364.96 654.774,1371.85 652.251,1381.26 "/>
    <polygon id="_375970072" class="fil0" points="547.202,1288.14 537.789,1290.66 528.377,1293.19 521.487,1286.3 514.596,1279.41 517.119,1269.99 519.641,1260.58 529.053,1258.06 538.465,1255.54 545.356,1262.43 552.246,1269.32 549.723,1278.73 "/>
   </g>
  </g>
  <circle class="fil0" cx="584.685" cy="1325.63" r="24.0626"/>
  <g id="_375965944">
   <path id="_375970456" class="fil0" d="M1584.26 1204.67c-47.0929,-47.0563 -112.33,-76.2627 -184.252,-76.2627 -63.5871,0 -121.859,22.7965 -167.12,60.6095 -5.9563,4.94528 -11.7272,10.161 -17.2252,15.6532 -12.0036,12.0874 -22.9063,25.2697 -32.4343,39.5516 -27.6709,41.3823 -43.8863,91.0961 -43.8863,144.657 0,71.869 29.2264,137.058 76.3205,184.201 47.1851,47.0634 112.33,76.2662 184.345,76.2662 71.9221,0 137.159,-29.2028 184.252,-76.2662 47.1839,-47.1437 76.4127,-112.332 76.4127,-184.201 0,-13.278 -1.00748,-26.3693 -2.93268,-39.1855 -2.56536,-17.1225 -6.87048,-33.691 -12.6425,-49.6217 -13.1008,-36.1666 -34.0831,-68.6658 -60.8374,-95.4013l0 0z"/>
   <rect id="_375970360" class="fil0" x="1377.46" y="1119.88" width="45.1089" height="18.6314" rx="3.46772" ry="3.46772"/>
   <rect id="_375970240" class="fil0" transform="matrix(0.75776 0.203041 -0.203041 0.75776 1447.85 1123.21)" width="57.5008" height="23.7496" rx="3.46772" ry="3.46772"/>
   <rect id="_375970168" class="fil0" transform="matrix(0.679389 0.392246 -0.392246 0.679389 1514.98 1144.64)" width="57.5008" height="23.7496" rx="3.46772" ry="3.46772"/>
   <rect id="_375969976" class="fil0" transform="matrix(0.554719 0.554719 -0.554719 0.554719 1574.28 1182.72)" width="57.5008" height="23.7496" rx="3.46772" ry="3.46772"/>
   <rect id="_375969424" class="fil0" transform="matrix(0.392246 0.679389 -0.679389 0.392246 1621.7 1234.85)" width="57.5008" height="23.7496" rx="3.46772" ry="3.46772"/>
   <rect id="_375969880" class="fil0" transform="matrix(0.203041 0.75776 -0.75776 0.203041 1654.01 1297.47)" width="57.5008" height="23.7496" rx="3.46772" ry="3.46772"/>
   <rect id="_375969856" class="fil0" transform="matrix(2.07071E-014 0.784491 -0.784491 2.07071E-014 1669.01 1366.33)" width="57.5008" height="23.7496" rx="3.46772" ry="3.46772"/>
   <rect id="_375969664" class="fil0" transform="matrix(-0.203041 0.75776 -0.75776 -0.203041 1665.68 1436.72)" width="57.5008" height="23.7496" rx="3.46772" ry="3.46772"/>
   <rect id="_375969496" class="fil0" transform="matrix(-0.392246 0.679389 -0.679389 -0.392246 1644.25 1503.85)" width="57.5008" height="23.7496" rx="3.46772" ry="3.46772"/>
   <rect id="_375969016" class="fil0" transform="matrix(-0.554719 0.554719 -0.554719 -0.554719 1606.17 1563.14)" width="57.5008" height="23.7496" rx="3.46772" ry="3.46772"/>
   <rect id="_375968992" class="fil0" transform="matrix(-0.679389 0.392246 -0.392246 -0.679389 1554.05 1610.56)" width="57.5008" height="23.7496" rx="3.46772" ry="3.46772"/>
   <rect id="_375968776" class="fil0" transform="matrix(-0.75776 0.203041 -0.203041 -0.75776 1491.42 1642.88)" width="57.5008" height="23.7496" rx="3.46772" ry="3.46772"/>
   <rect id="_375969232" class="fil0" x="1377.46" y="1639.25" width="45.1089" height="18.6314" rx="3.46772" ry="3.46772"/>
   <rect id="_375969160" class="fil0" transform="matrix(-0.75776 -0.203041 0.203041 -0.75776 1352.18 1654.55)" width="57.5008" height="23.7496" rx="3.46772" ry="3.46772"/>
   <rect id="_375969088" class="fil0" transform="matrix(-0.679389 -0.392246 0.392246 -0.679389 1285.05 1633.12)" width="57.5008" height="23.7496" rx="3.46772" ry="3.46772"/>
   <rect id="_375968680" class="fil0" transform="matrix(-0.554719 -0.554719 0.554719 -0.554719 1225.75 1595.04)" width="57.5008" height="23.7496" rx="3.46772" ry="3.46772"/>
   <rect id="_375968080" class="fil0" transform="matrix(-0.392246 -0.679389 0.679389 -0.392246 1178.33 1542.91)" width="57.5008" height="23.7496" rx="3.46772" ry="3.46772"/>
   <rect id="_375968416" class="fil0" transform="matrix(-0.203041 -0.75776 0.75776 -0.203041 1146.02 1480.29)" width="57.5008" height="23.7496" rx="3.46772" ry="3.46772"/>
   <rect id="_375967984" class="fil0" transform="matrix(-6.20995E-014 -0.784491 0.784491 -6.20995E-014 1131.01 1411.44)" width="57.5008" height="23.7496" rx="3.46772" ry="3.46772"/>
   <rect id="_375968344" class="fil0" transform="matrix(0.203041 -0.75776 0.75776 0.203041 1134.34 1341.04)" width="57.5008" height="23.7496" rx="3.46772" ry="3.46772"/>
   <rect id="_375968248" class="fil0" transform="matrix(0.392246 -0.679389 0.679389 0.392246 1155.77 1273.91)" width="57.5008" height="23.7496" rx="3.46772" ry="3.46772"/>
   <rect id="_375967816" class="fil0" transform="matrix(0.554719 -0.554719 0.554719 0.554719 1193.85 1214.62)" width="57.5008" height="23.7496" rx="3.46772" ry="3.46772"/>
   <rect id="_375967168" class="fil0" transform="matrix(0.679389 -0.392246 0.392246 0.679389 1245.98 1167.2)" width="57.5008" height="23.7496" rx="3.46772" ry="3.46772"/>
   <rect id="_375967312" class="fil0" transform="matrix(0.75776 -0.203041 0.203041 0.75776 1308.6 1134.88)" width="57.5008" height="23.7496" rx="3.46772" ry="3.46772"/>
   <path id="_375967264" class="fil3" d="M1400.01 1525.3c37.6559,0 71.8312,-15.2906 96.5682,-39.9177 24.6473,-24.7181 39.9473,-58.8662 39.9473,-96.495 0,-13.7823 -2.04213,-27.0744 -5.83583,-39.6024 -6.59174,-21.7595 -18.4701,-41.2087 -34.1114,-56.8973 -24.737,-24.626 -58.9123,-39.9166 -96.5682,-39.9166 -37.7481,0 -71.8323,15.2906 -96.5717,39.9166 -15.6414,15.6898 -27.5185,35.1378 -34.1091,56.8973 -3.79488,12.528 -5.83701,25.8201 -5.83701,39.6024 0,37.6288 15.3012,71.7768 39.9461,96.495 24.7394,24.6272 58.8237,39.9177 96.5717,39.9177z"/>
   <g>
    <g>
     <polygon id="_375967120" class="fil0" points="1400.01,1316.72 1406.63,1320.54 1413.25,1324.36 1413.25,1332.01 1413.25,1339.65 1406.63,1343.47 1400.01,1347.3 1393.39,1343.47 1386.77,1339.65 1386.77,1332.01 1386.77,1324.36 1393.39,1320.54 "/>
     <polygon id="_375967576" class="fil0" points="1400.01,1430.47 1406.63,1434.29 1413.25,1438.11 1413.25,1445.76 1413.25,1453.4 1406.63,1457.22 1400.01,1461.04 1393.39,1457.22 1386.77,1453.4 1386.77,1445.76 1386.77,1438.11 1393.39,1434.29 "/>
    </g>
    <g>
     <polygon id="_375967528" class="fil0" points="1472.17,1388.88 1468.35,1395.5 1464.53,1402.12 1456.89,1402.12 1449.24,1402.12 1445.42,1395.5 1441.6,1388.88 1445.42,1382.26 1449.24,1375.64 1456.89,1375.64 1464.53,1375.64 1468.35,1382.26 "/>
     <polygon id="_375966640" class="fil0" points="1358.43,1388.88 1354.6,1395.5 1350.78,1402.12 1343.14,1402.12 1335.49,1402.12 1331.67,1395.5 1327.85,1388.88 1331.67,1382.26 1335.49,1375.64 1343.14,1375.64 1350.78,1375.64 1354.6,1382.26 "/>
    </g>
   </g>
   <g>
    <g>
     <polygon id="_375966928" class="fil0" points="1451.04,1337.85 1453.02,1345.24 1455,1352.62 1449.59,1358.03 1444.18,1363.43 1436.8,1361.45 1429.42,1359.48 1427.44,1352.09 1425.46,1344.71 1430.87,1339.3 1436.27,1333.9 1443.65,1335.88 "/>
     <polygon id="_375966352" class="fil0" points="1370.61,1418.29 1372.58,1425.67 1374.56,1433.06 1369.16,1438.46 1363.75,1443.87 1356.37,1441.89 1348.98,1439.91 1347.01,1432.52 1345.03,1425.14 1350.43,1419.74 1355.84,1414.33 1363.22,1416.31 "/>
    </g>
    <g>
     <polygon id="_375966952" class="fil0" points="1451.04,1439.91 1443.65,1441.89 1436.27,1443.87 1430.87,1438.46 1425.46,1433.06 1427.44,1425.67 1429.42,1418.29 1436.8,1416.31 1444.18,1414.33 1449.59,1419.74 1455,1425.14 1453.02,1432.52 "/>
     <polygon id="_375966784" class="fil0" points="1370.61,1359.48 1363.22,1361.45 1355.84,1363.43 1350.43,1358.03 1345.03,1352.62 1347.01,1345.24 1348.98,1337.85 1356.37,1335.88 1363.75,1333.9 1369.16,1339.3 1374.56,1344.71 1372.58,1352.09 "/>
    </g>
   </g>
   <circle id="_375965680" class="fil0" cx="1400.01" cy="1388.88" r="18.8769"/>
  </g>
  <path class="fil2" d="M769.217 795.865c-11.0728,0 -21.5433,-4.39134 -29.4201,-12.1193 -7.92757,-7.77757 -12.45,-18.5079 -12.45,-29.6185l0 -185.793c0,-11.1721 4.48229,-21.8032 12.4524,-29.6209 7.87678,-7.7256 18.3461,-12.1169 29.4177,-12.1169l144.226 0 5.32796 0 148.438 0 163.875 269.269 -312.312 0 -5.32796 0 -144.226 0z"/>
  <path class="fil4" d="M769.217 771.866l125.555 0 0 -221.271 -125.555 0c-4.90394,0 -9.34135,1.98425 -12.613,5.25119 -3.27047,3.15118 -5.25827,7.58623 -5.25827,12.4878l0 185.793c0,4.78465 1.9878,9.33544 5.25827,12.4878 3.27166,3.26693 7.70906,5.25119 12.613,5.25119z"/>
  <polygon class="fil4" points="918.848,771.866 1188.38,771.866 1053.72,550.595 918.848,550.595 "/>
 </g>
 <rect class="fil5" width="2048" height="2048"/>
</svg>
