<?xml version="1.0" encoding="UTF-8"?>
<!DOCTYPE svg PUBLIC "-//W3C//DTD SVG 1.1//EN" "http://www.w3.org/Graphics/SVG/1.1/DTD/svg11.dtd">
<!-- Creator: CorelDRAW -->
<svg xmlns="http://www.w3.org/2000/svg" xml:space="preserve" width="2048px" height="2048px" style="shape-rendering:geometricPrecision; text-rendering:geometricPrecision; image-rendering:optimizeQuality; fill-rule:evenodd; clip-rule:evenodd"
viewBox="0 0 2048 2048"
 xmlns:xlink="http://www.w3.org/1999/xlink">
 <defs>
  <style type="text/css">
   <![CDATA[
    .fil4 {fill:none}
    .fil2 {fill:#558B2F}
    .fil3 {fill:#E1F5FE}
    .fil1 {fill:#558B2F;fill-rule:nonzero}
    .fil0 {fill:#7CB342;fill-rule:nonzero}
   ]]>
  </style>
 </defs>
 <g id="Layer_x0020_1">
  <metadata id="CorelCorpID_0Corel-Layer"/>
  <g id="_319265152">
   <path id="_319264912" class="fil0" d="M950.866 1557.49c-6.74174,4.82953 -53.7272,38.6941 -60.6697,43.7776 -23.811,17.4354 -47.1898,34.5532 -65.2146,43.0926 -27.5882,13.0701 -49.2839,11.2406 -61.5874,-14.7354l-1.99961 -5.74961c-25.4055,-99.0036 82.832,-176.451 141.663,-237.007 7.08898,40.1114 21.065,111.937 47.8087,170.622z"/>
   <path id="_319265056" class="fil0" d="M1085.87 1557.49c6.74174,4.82953 53.7272,38.6941 60.6697,43.7776 23.811,17.4354 47.1898,34.5532 65.2146,43.0926 27.5882,13.0701 49.2839,11.2406 61.5874,-14.7354l1.99961 -5.74961c25.4055,-99.0036 -82.832,-176.451 -141.663,-237.007 -7.08898,40.1114 -21.065,111.937 -47.8087,170.622z"/>
  </g>
  <path class="fil0" d="M1168.13 756.127l439.284 275.672 3 2.25 41.6221 35.3126c20.3988,13.6146 30.7713,34.2142 35.3079,58.8804 3.80197,20.6693 3.29173,43.6028 1.7126,67.0949l-1.00039 6c-7.05945,26.7166 -23.8547,41.3386 -50.4544,43.7752 -17.6634,1.62047 -39.13,-3.9189 -64.4174,-16.6618 -88.8095,-35.4083 -170.15,-65.4154 -242.889,-89.2028 -45.1713,-14.7709 -131.871,-41.2701 -169.142,-50.693 3.83386,-71.517 5.56772,-143.199 5.56772,-214.761 0,-38.8737 0.63189,-77.6918 1.3878,-116.555l0.0212599 -1.11142z"/>
  <path class="fil0" d="M869.177 756.127l-439.284 275.672 -3 2.25 -41.6221 35.3126c-20.3988,13.6146 -30.7713,34.2142 -35.3079,58.8804 -3.80197,20.6693 -3.29173,43.6028 -1.7126,67.0949l1.00039 6c7.05945,26.7166 23.8547,41.3386 50.4544,43.7752 17.6634,1.62047 39.13,-3.9189 64.4174,-16.6618 88.8095,-35.4083 170.15,-65.4154 242.889,-89.2028 45.1713,-14.7709 131.871,-41.2701 169.142,-50.693 -3.83386,-71.517 -5.56772,-143.199 -5.56772,-214.761 0,-38.8737 -0.63189,-77.6918 -1.3878,-116.555l-0.0212599 -1.11142z"/>
  <path class="fil1" d="M1050.37 1616c0,-17.6728 -14.328,-32.0008 -32.0008,-32.0008 -17.6728,0 -32.0008,14.328 -32.0008,32.0008l0 128c0,17.6728 14.328,32.0008 32.0008,32.0008 17.6728,0 32.0008,-14.328 32.0008,-32.0008l0 -128z"/>
  <path class="fil0" d="M1141.15 380.456c6.14882,13.9913 20.1732,65.0008 24.6213,80.465 -46.9548,-13.7469 -100.945,-1.99134 -148.141,-2.07402 -45.2859,-0.0791339 -100.899,-12.8256 -146.085,0.0354331 4.20591,-15.1205 17.6055,-65.5347 23.3197,-79.2886 15.3732,-37.0016 34.2709,-64.0548 55.0111,-81.6284 20.7673,-17.5984 43.4788,-26.0457 66.815,-25.8378 23.0504,0.205512 45.4229,8.90198 65.8843,25.5933 22.239,18.1417 42.437,46.0193 58.5745,82.7351z"/>
  <path class="fil2" d="M1140.02 1408.3c23.4721,-133.485 37.9914,-317.438 37.9914,-520.212 0,-45.5634 0.703938,-81.7406 1.3937,-117.177 2.21693,-113.994 4.3004,-221.279 -13.6347,-309.991 -50.1567,-16.6335 -100.166,-25.1103 -150.015,-25.1988 -48.0036,-0.0850394 -96.0757,7.56851 -144.21,23.1603 -18.1193,91.1859 -16.3937,201.624 -14.5571,319.105 0.505512,32.3551 1.02165,65.3292 1.02165,110.102 0,202.774 14.5193,386.727 37.9914,520.212 20.6528,117.456 51.8032,199.375 90.3674,228.247 10.0606,7.5319 20.6268,11.4532 31.6418,11.4532 11.2784,0 22.0843,-4.11024 32.3599,-11.9976 38.2335,-29.3457 69.1253,-110.975 89.6505,-227.703z"/>
  <g id="_319298656">
   <polygon id="_319264120" class="fil3" points="1146.37,601.03 1146.37,559.241 1114.37,552.272 1114.37,607.999 "/>
   <polygon id="_319264408" class="fil3" points="1146.37,697.03 1146.37,655.241 1114.37,648.272 1114.37,703.999 "/>
   <polygon id="_319264624" class="fil3" points="1146.37,793.031 1146.37,751.241 1114.37,744.272 1114.37,799.999 "/>
   <polygon id="_319263928" class="fil3" points="1146.37,889.031 1146.37,847.241 1114.37,840.272 1114.37,895.999 "/>
   <polygon id="_319263496" class="fil3" points="1146.37,943.241 1114.37,936.272 1114.37,991.999 1146.37,985.031 "/>
   <polygon id="_319263760" class="fil3" points="1146.37,1081.03 1146.37,1039.24 1114.37,1032.27 1114.37,1088 "/>
   <polygon id="_319264024" class="fil3" points="1146.37,1177.03 1146.37,1135.24 1114.37,1128.27 1114.37,1184 "/>
   <polygon id="_319263736" class="fil3" points="1146.37,1273.03 1146.37,1231.24 1114.37,1224.27 1114.37,1280 "/>
   <polygon id="_319263952" class="fil3" points="922.367,1280 922.367,1224.27 890.366,1231.24 890.366,1273.03 "/>
   <polygon id="_319298728" class="fil3" points="922.367,1184 922.367,1128.27 890.366,1135.24 890.366,1177.03 "/>
   <polygon id="_319298824" class="fil3" points="922.367,1088 922.367,1032.27 890.366,1039.24 890.366,1081.03 "/>
   <polygon id="_319298968" class="fil3" points="922.367,991.999 922.367,936.272 890.366,943.241 890.366,985.031 "/>
   <polygon id="_319299088" class="fil3" points="922.367,895.999 922.367,840.272 890.366,847.241 890.366,889.031 "/>
   <polygon id="_319299136" class="fil3" points="922.367,799.999 922.367,744.272 890.366,751.241 890.366,793.031 "/>
   <polygon id="_319298992" class="fil3" points="922.367,703.999 922.367,648.272 890.366,655.241 890.366,697.03 "/>
   <polygon id="_319298176" class="fil3" points="922.367,607.999 922.367,552.272 890.366,559.241 890.366,601.03 "/>
  </g>
 </g>
 <rect class="fil4" width="2048" height="2048"/>
</svg>
