<?xml version="1.0" encoding="UTF-8"?>
<!DOCTYPE svg PUBLIC "-//W3C//DTD SVG 1.1//EN" "http://www.w3.org/Graphics/SVG/1.1/DTD/svg11.dtd">
<!-- Creator: CorelDRAW -->
<svg xmlns="http://www.w3.org/2000/svg" xml:space="preserve" width="2048px" height="2048px" style="shape-rendering:geometricPrecision; text-rendering:geometricPrecision; image-rendering:optimizeQuality; fill-rule:evenodd; clip-rule:evenodd"
viewBox="0 0 2048 2048"
 xmlns:xlink="http://www.w3.org/1999/xlink">
 <defs>
  <style type="text/css">
   <![CDATA[
    .fil7 {fill:none}
    .fil3 {fill:#424242}
    .fil4 {fill:#B2DFDB}
    .fil6 {fill:#D32F2F}
    .fil5 {fill:#E0F2F1}
    .fil1 {fill:#267870;fill-rule:nonzero}
    .fil2 {fill:#268279;fill-rule:nonzero}
    .fil0 {fill:#26A69A;fill-rule:nonzero}
   ]]>
  </style>
 </defs>
 <g id="Layer_x0020_1">
  <metadata id="CorelCorpID_0Corel-Layer"/>
  <path class="fil0" d="M1474.24 708.249l14.4295 0 0.0779528 2.35394 184.253 29.8902c4.29685,0.696851 8.55119,1.52835 12.7524,2.49095 29.7071,3.42874 56.2004,17.8158 75.3024,38.9882 19.2295,19.0784 30.9461,43.5225 30.9461,72.8221l0 7.38898 0 153.014 0 5.19685c0,27.476 -10.4835,52.6713 -27.9709,72.4607l-0.317717 -0.498426c-22.0571,26.152 -55.0264,42.8386 -91.7103,42.8386l-567.975 0 -160.062 0 -567.967 0c-36.6839,0 -69.6544,-16.6878 -91.7115,-42.8398l-0.317717 0.499607c-17.4874,-19.7894 -27.9697,-44.9835 -27.9697,-72.4607l0 -5.19685 0 -153.014 0 -7.38898c0,-32.2299 14.4201,-61.3217 37.6488,-82.2284 22.3311,-20.0988 52.9134,-32.5736 86.3516,-32.5736l188.799 0 0 -126.7c0,-56.2701 22.9973,-107.404 60.0461,-144.454 37.05,-37.0488 88.1835,-60.0461 144.454,-60.0461l324.185 0c9.53741,0 18.0992,4.1752 23.9622,10.7953l9.68741 9.44056c117.619,114.64 186.173,181.455 302.058,272.562l41.0481 6.65906z"/>
  <path class="fil1" d="M943.965 1135.19l-567.967 0c-36.6839,0 -69.6544,-16.6878 -91.7115,-42.8398 11.5276,-18.111 24.5977,-35.2276 39.0248,-51.1288 4.10079,-4.52008 8.31142,-8.93977 12.626,-13.2555 70.8733,-70.8721 166.191,-110.365 266.437,-110.365 100.246,0 195.562,39.4926 266.436,110.365 7.21536,7.21654 14.139,14.726 20.7461,22.5024 18.2421,21.4689 34.0713,44.9433 47.1,69.9225 2.54882,4.88741 4.98544,9.82087 7.30867,14.7992z"/>
  <path class="fil1" d="M1763.71 1092.36c-22.0571,26.152 -55.0264,42.8386 -91.7103,42.8386l-567.975 0c2.32441,-4.97717 4.75985,-9.913 7.30985,-14.8004 13.0323,-24.9803 28.8638,-48.4524 47.1071,-69.9225 6.60827,-7.7752 13.5307,-15.2835 20.7449,-22.5 70.8709,-70.8768 166.191,-110.366 266.437,-110.366 100.246,0 195.564,39.4926 266.437,110.365 4.31339,4.31457 8.52284,8.73308 12.6225,13.2508 14.4319,15.9024 27.4984,33.0225 39.0272,51.1347z"/>
  <polygon class="fil2" points="895.2,813.594 1005.6,813.594 1005.6,877.595 895.2,877.595 "/>
  <path class="fil3" d="M1182.82 1071.19l0 0zm506.612 -20.5949c-62.3977,-62.3977 -148.599,-100.993 -243.809,-100.993 -95.2099,0 -181.41,38.5949 -243.808,100.993 -6.60355,6.60473 -12.9413,13.4752 -18.9886,20.5949 -16.6394,19.5732 -31.1327,41.028 -43.1209,64.0016 -24.8398,47.628 -38.8831,101.782 -38.8831,159.213 0,95.2099 38.5949,181.41 100.993,243.808 62.3977,62.3977 148.599,100.993 243.808,100.993 95.2099,0 181.41,-38.5949 243.809,-100.993 62.3977,-62.3977 100.993,-148.598 100.993,-243.808 0,-66.1217 -18.6142,-127.898 -50.8949,-180.371 -11.2571,-18.3036 -24.1736,-35.478 -38.5429,-51.3095 -3.75355,-4.13622 -7.60631,-8.18032 -11.5547,-12.1287z"/>
  <path class="fil3" d="M846.183 1050.6c-62.3977,-62.3977 -148.598,-100.993 -243.808,-100.993 -95.2099,0 -181.412,38.5949 -243.809,100.993 -3.94843,3.94843 -7.80237,7.99253 -11.5547,12.1299 -14.3693,15.8315 -27.287,33.0047 -38.5441,51.3083 -32.2796,52.4729 -50.8937,114.249 -50.8937,180.371 0,95.2099 38.5949,181.41 100.993,243.808 62.3989,62.3977 148.599,100.993 243.809,100.993 95.2087,0 181.41,-38.5949 243.808,-100.993 62.3977,-62.3977 100.993,-148.598 100.993,-243.808 0,-57.4323 -14.0433,-111.587 -38.8902,-159.213 -11.9811,-22.9736 -26.4744,-44.4284 -43.1138,-64.0016 -6.04843,-7.12205 -12.385,-13.9913 -18.9886,-20.5949z"/>
  <path class="fil4" d="M1596.59 1294.41c0,-41.68 -16.9004,-79.4268 -44.2193,-106.747 -27.3213,-27.3189 -65.0634,-44.2193 -106.747,-44.2193 -41.68,0 -79.4257,16.9004 -106.747,44.2193 -27.3189,27.3213 -44.2193,65.067 -44.2193,106.747 0,41.6835 16.9004,79.4257 44.2193,106.747 27.3201,27.3189 65.067,44.2193 106.747,44.2193 41.6835,0 79.4268,-16.9004 106.747,-44.2193 27.3189,-27.3201 44.2193,-65.0634 44.2193,-106.747z"/>
  <path class="fil4" d="M753.341 1294.41c0,-41.68 -16.9004,-79.4268 -44.2193,-106.747 -27.3213,-27.3189 -65.0634,-44.2193 -106.747,-44.2193 -41.68,0 -79.4257,16.9004 -106.747,44.2193 -27.3189,27.3213 -44.2193,65.067 -44.2193,106.747 0,41.6835 16.9004,79.4257 44.2193,106.747 27.3201,27.3189 65.067,44.2193 106.747,44.2193 41.6835,0 79.4268,-16.9004 106.747,-44.2193 27.3189,-27.3201 44.2193,-65.0634 44.2193,-106.747z"/>
  <path class="fil5" d="M1339.76 708.249c-51.091,-42.1548 -94.2922,-81.0296 -140.864,-125.055l-381.896 0c-11.1744,0 -21.0603,3.67796 -27.9803,9.60355 -5.563,4.76221 -9.01772,10.9724 -9.01772,17.4744l0 70.8993c0,6.50197 3.45473,12.711 9.01772,17.4744 6.92008,5.9256 16.8059,9.60355 27.9803,9.60355l522.76 0z"/>
  <polygon class="fil6" points="441.421,932.371 441.421,868.37 320.001,868.37 320.001,932.371 "/>
  <polygon class="fil6" points="1728,932.371 1728,868.37 1615.24,868.37 1615.24,932.371 "/>
 </g>
 <rect class="fil7" width="2048" height="2048"/>
</svg>
