<?xml version="1.0" encoding="UTF-8"?>
<!DOCTYPE svg PUBLIC "-//W3C//DTD SVG 1.1//EN" "http://www.w3.org/Graphics/SVG/1.1/DTD/svg11.dtd">
<!-- Creator: CorelDRAW -->
<svg xmlns="http://www.w3.org/2000/svg" xml:space="preserve" width="2048px" height="2048px" style="shape-rendering:geometricPrecision; text-rendering:geometricPrecision; image-rendering:optimizeQuality; fill-rule:evenodd; clip-rule:evenodd"
viewBox="0 0 2048 2048"
 xmlns:xlink="http://www.w3.org/1999/xlink">
 <defs>
  <style type="text/css">
   <![CDATA[
    .fil6 {fill:none}
    .fil1 {fill:#1E88E5}
    .fil3 {fill:#263238}
    .fil2 {fill:#FFE57F}
    .fil0 {fill:#263238;fill-rule:nonzero}
    .fil4 {fill:#FFC400;fill-rule:nonzero}
    .fil5 {fill:#FFE57F;fill-rule:nonzero}
   ]]>
  </style>
 </defs>
 <g id="Layer_x0020_1">
  <metadata id="CorelCorpID_0Corel-Layer"/>
  <g id="_252333384">
   <polygon id="_252338688" class="fil0" points="913.42,1507.27 950.303,1667.35 929.2,1672.18 892.319,1512.11 "/>
   <polygon id="_252337680" class="fil0" points="1155.68,1506.66 1117.85,1670.4 1096.75,1665.57 1134.58,1501.83 "/>
   <path id="_252338112" class="fil1" d="M659.176 1170.31l239.786 369.573 125.037 0 125.037 0 239.786 -369.573c753.1,-1219.08 -1482.75,-1219.08 -729.648,0z"/>
   <path id="_252337464" class="fil2" d="M750.869 1170.31l179.521 369.573 93.6107 0 93.6107 0 179.521 -369.573c563.82,-1219.08 -1110.08,-1219.08 -546.263,0z"/>
   <path id="_252337992" class="fil1" d="M854.816 1170.31l111.199 369.573 57.9851 0 57.9851 0 111.199 -369.573c349.244,-1219.08 -687.611,-1219.08 -338.367,0z"/>
   <path id="_252337920" class="fil2" d="M963.186 1170.31l39.9709 369.573 20.8429 0 20.8429 0 39.9709 -369.573c125.535,-1219.08 -247.162,-1219.08 -121.628,0z"/>
   <polygon id="_252337104" class="fil1" points="808.589,1400.59 898.963,1539.88 1024,1539.88 1149.04,1539.88 1239.41,1400.59 "/>
   <polygon id="_252337032" class="fil3" points="868.149,1492.39 898.963,1539.88 1024,1539.88 1149.04,1539.88 1179.85,1492.39 "/>
   <path id="_252336624" class="fil4" d="M901.436 1622.17l244.364 0c2.47087,0 5.07993,0.452363 7.69134,1.28386 4.71024,1.49882 9.16536,4.35827 12.3921,8.02442 3.84331,4.36654 6.33071,9.99331 6.33071,16.2921 0,2.20866 -0.373229,4.58032 -1.17638,7.10434l-36.4713 114.633c-1.3311,4.18229 -3.02953,8.41536 -5.78741,12.1996 -4.53662,6.22323 -10.6748,10.2886 -19.4516,10.2886l-171.419 0c-8.7756,0 -14.9138,-4.063 -19.4516,-10.2862 -2.75788,-3.78425 -4.4563,-8.01733 -5.78741,-12.202l-36.4713 -114.633c-0.801969,-2.5252 -1.17638,-4.89922 -1.17638,-7.1067 0,-6.30355 2.48622,-11.928 6.32835,-16.291 3.22796,-3.66614 7.68308,-6.52323 12.391,-8.02205 2.61378,-0.831497 5.22284,-1.28504 7.69489,-1.28504z"/>
   <g>
    <polygon id="_252336720" class="fil5" points="891.889,1704.2 888.282,1692.86 926.187,1692.86 926.187,1704.2 "/>
    <polygon id="_252336792" class="fil5" points="943.89,1692.86 985.24,1692.86 985.24,1704.2 943.89,1704.2 "/>
    <polygon id="_252336432" class="fil5" points="1002.94,1692.86 1044.29,1692.86 1044.29,1704.2 1002.94,1704.2 "/>
    <polygon id="_252335928" class="fil5" points="1062,1692.86 1103.35,1692.86 1103.35,1704.2 1062,1704.2 "/>
    <polygon id="_252336312" class="fil5" points="1158.95,1692.86 1155.35,1704.2 1121.05,1704.2 1121.05,1692.86 "/>
   </g>
   <g>
    <path id="_252335856" class="fil5" d="M918.583 1781.88l-0.126378 -0.17126c-1.71969,-2.36103 -3.02953,-4.89567 -4.09252,-7.48583l0 -3.6815 41.3492 0 0 11.3386 -37.1303 0z"/>
    <polygon id="_252336120" class="fil5" points="973.417,1770.55 1014.77,1770.55 1014.77,1781.88 973.417,1781.88 "/>
    <polygon id="_252335424" class="fil5" points="1032.47,1770.55 1073.82,1770.55 1073.82,1781.88 1032.47,1781.88 "/>
    <path id="_252335184" class="fil5" d="M1132.87 1774.23c-1.06417,2.58898 -2.37166,5.12363 -4.09252,7.48465l-0.127559 0.173622 -37.1292 0 0 -11.3386 41.3492 0 0 3.68032z"/>
   </g>
   <g>
    <polygon id="_252335256" class="fil5" points="908.968,1757.88 905.361,1746.54 926.187,1746.54 926.187,1757.88 "/>
    <polygon id="_252335520" class="fil5" points="943.89,1746.54 985.24,1746.54 985.24,1757.88 943.89,1757.88 "/>
    <polygon id="_252335112" class="fil5" points="1002.94,1746.54 1044.29,1746.54 1044.29,1757.88 1002.94,1757.88 "/>
    <polygon id="_252334296" class="fil5" points="1062,1746.54 1103.35,1746.54 1103.35,1757.88 1062,1757.88 "/>
    <polygon id="_252334536" class="fil5" points="1141.87,1746.54 1138.27,1757.88 1121.05,1757.88 1121.05,1746.54 "/>
   </g>
   <g>
    <rect id="_252335040" class="fil2" x="884.838" y="1641.15" width="41.3493" height="11.3385"/>
    <rect id="_252335016" class="fil2" x="943.89" y="1641.15" width="41.3493" height="11.3385"/>
    <rect id="_252334704" class="fil2" x="1002.94" y="1641.15" width="41.3493" height="11.3385"/>
    <rect id="_252334368" class="fil2" x="1062" y="1641.15" width="41.3493" height="11.3385"/>
    <rect id="_252333624" class="fil2" x="1121.05" y="1641.15" width="41.3493" height="11.3385"/>
   </g>
   <g>
    <rect id="_252334248" class="fil2" x="914.364" y="1665.16" width="41.3493" height="11.3385"/>
    <rect id="_252333888" class="fil2" x="973.417" y="1665.16" width="41.3493" height="11.3385"/>
    <rect id="_252333792" class="fil2" x="1032.47" y="1665.16" width="41.3493" height="11.3385"/>
    <rect id="_252333672" class="fil2" x="1091.52" y="1665.16" width="41.3493" height="11.3385"/>
   </g>
   <g>
    <rect id="_252333600" class="fil2" x="914.364" y="1716.87" width="41.3493" height="11.3385"/>
    <rect id="_252333480" class="fil2" x="973.417" y="1716.87" width="41.3493" height="11.3385"/>
    <rect id="_252333120" class="fil2" x="1032.47" y="1716.87" width="41.3493" height="11.3385"/>
    <rect id="_252333432" class="fil2" x="1091.52" y="1716.87" width="41.3493" height="11.3385"/>
   </g>
  </g>
 </g>
 <rect class="fil6" width="2048" height="2048"/>
</svg>
