<?xml version="1.0" encoding="UTF-8"?>
<!DOCTYPE svg PUBLIC "-//W3C//DTD SVG 1.1//EN" "http://www.w3.org/Graphics/SVG/1.1/DTD/svg11.dtd">
<!-- Creator: CorelDRAW -->
<svg xmlns="http://www.w3.org/2000/svg" xml:space="preserve" width="2048px" height="2048px" style="shape-rendering:geometricPrecision; text-rendering:geometricPrecision; image-rendering:optimizeQuality; fill-rule:evenodd; clip-rule:evenodd"
viewBox="0 0 2048 2048"
 xmlns:xlink="http://www.w3.org/1999/xlink">
 <defs>
  <style type="text/css">
   <![CDATA[
    .fil7 {fill:none}
    .fil3 {fill:#455A64}
    .fil4 {fill:#929EA3}
    .fil5 {fill:#ECEFF1}
    .fil1 {fill:#1FA0B0;fill-rule:nonzero}
    .fil0 {fill:#26C6DA;fill-rule:nonzero}
    .fil2 {fill:#424242;fill-rule:nonzero}
    .fil6 {fill:#E0F7FA;fill-rule:nonzero}
   ]]>
  </style>
 </defs>
 <g id="Layer_x0020_1">
  <metadata id="CorelCorpID_0Corel-Layer"/>
  <path class="fil0" d="M321.252 895.761l1327.91 0c38.6729,0 74.0079,14.5441 99.782,37.9748 26.5677,24.1547 43.0607,57.6957 43.0607,94.7918l0 173.32c0,31.5532 -13.9984,60.0579 -36.5492,80.5583 -21.7559,19.7788 -51.5493,32.0551 -84.1253,32.0551 -192.142,0 -427.263,0 -682.4,0l-171.777 0 -402.33 0 -15.978 0 -6.66851 0 0 -0.146457c-36.0544,-1.56614 -68.8288,-15.7512 -93.1135,-37.8284 -26.5677,-24.1536 -43.0607,-57.6957 -43.0607,-94.7906l0 -223.706c0,-17.6988 7.76339,-33.6071 20.2689,-44.9741 11.7118,-10.6465 27.6496,-17.2547 44.9835,-17.2547zm830.749 199.585c17.6728,0 32.0008,-14.328 32.0008,-32.0008 0,-17.6728 -14.328,-32.0008 -32.0008,-32.0008l-95.9989 0c-17.6728,0 -32.0008,14.328 -32.0008,32.0008 0,17.6728 14.328,32.0008 32.0008,32.0008l95.9989 0zm564.25 0c17.6728,0 32.0008,-14.328 32.0008,-32.0008 0,-17.6728 -14.328,-32.0008 -32.0008,-32.0008l-116.249 0c-17.6728,0 -32.0008,14.328 -32.0008,32.0008 0,17.6728 14.328,32.0008 32.0008,32.0008l116.249 0z"/>
  <path class="fil1" d="M808.866 1314.46l-385.76 0c9.08505,-33.1323 26.6504,-63.5965 51.4607,-88.4079 37.6122,-37.6122 88.2166,-58.5804 141.418,-58.5804 53.2028,0 103.806,20.9669 141.419,58.5804 24.8114,24.8114 42.3768,55.2756 51.4619,88.4079z"/>
  <path class="fil1" d="M1624.9 1314.46l-385.76 0c9.08505,-33.1323 26.6504,-63.5965 51.4607,-88.4079 37.6122,-37.6122 88.2166,-58.5804 141.418,-58.5804 53.2028,0 103.806,20.9669 141.419,58.5804 24.8114,24.8114 42.3768,55.2756 51.4619,88.4079z"/>
  <path class="fil0" d="M874.229 504.527l253.136 0c20.9764,0 79.493,49.2674 147.61,114.483 110.106,105.416 255.284,255.698 284.401,287.001l49.9973 53.7508 -73.3725 0 -768.001 0 -32.0008 0 0 -32.0008 0 -285.005c0,-38.0457 15.5421,-72.6119 40.5792,-97.6501 25.0382,-25.037 59.6044,-40.5792 97.6501,-40.5792zm253.136 64.0016l-253.136 0c-20.3799,0 -38.9315,8.35985 -52.3996,21.828 -13.4681,13.4681 -21.828,32.0197 -21.828,52.3996l0 253.004 661.215 0c-59.0174,-60.9851 -153.482,-157.021 -230.492,-230.751 -57.4063,-54.9615 -101.425,-96.4808 -103.358,-96.4808z"/>
  <polygon class="fil0" points="1056,536.528 1056,927.761 992,927.761 992,536.528 "/>
  <path class="fil2" d="M615.984 1191.47c48.5965,0 92.5973,19.7008 124.449,51.5516 31.8508,31.852 51.5516,75.8528 51.5516,124.449 0,48.5965 -19.702,92.5985 -51.5516,124.448 -31.852,31.8508 -75.8528,51.5516 -124.449,51.5516 -48.5965,0 -92.5985,-19.702 -124.448,-51.5516 -31.8496,-31.8496 -51.5516,-75.8516 -51.5516,-124.448 0,-48.5965 19.7008,-92.5973 51.5516,-124.449 31.8496,-31.8496 75.8516,-51.5516 124.448,-51.5516z"/>
  <path class="fil2" d="M1432.02 1191.47c48.5977,0 92.5997,19.702 124.449,51.5516 31.8508,31.852 51.5516,75.8528 51.5516,124.449 0,48.5965 -19.702,92.5985 -51.5516,124.448 -31.852,31.8508 -75.8528,51.5516 -124.449,51.5516 -48.5965,0 -92.5985,-19.702 -124.448,-51.5516 -31.8496,-31.8496 -51.5516,-75.8516 -51.5516,-124.448 0,-48.5965 19.7008,-92.5973 51.5516,-124.449 31.8496,-31.8496 75.8516,-51.5516 124.448,-51.5516z"/>
  <path class="fil3" d="M992 895.761l0 -327.232 -117.771 0c-20.3799,0 -38.9315,8.35985 -52.3996,21.828 -13.4681,13.4681 -21.828,32.0197 -21.828,52.3996l0 253.004 191.999 0z"/>
  <path class="fil3" d="M1461.22 895.761c-59.0174,-60.9851 -153.482,-157.021 -230.492,-230.751 -57.4063,-54.9615 -101.425,-96.4808 -103.358,-96.4808l-71.3634 0 0 327.232 405.214 0z"/>
  <g id="_252320688">
   <polygon id="_252320712" class="fil4" points="1113.54,568.529 1076.58,568.529 1188.99,849.362 "/>
   <polygon id="_252321168" class="fil4" points="1231.19,895.761 1264.78,895.761 1162.62,640.534 "/>
  </g>
  <path class="fil5" d="M1716.25 1095.35c17.6728,0 32.0008,-14.328 32.0008,-32.0008 0,-17.6728 -14.328,-32.0008 -32.0008,-32.0008l-116.249 0c-17.6728,0 -32.0008,14.328 -32.0008,32.0008 0,17.6728 14.328,32.0008 32.0008,32.0008l116.249 0z"/>
  <path class="fil5" d="M1184 1063.34c0,-17.6728 -14.328,-32.0008 -32.0008,-32.0008l-95.9989 0c-17.6728,0 -32.0008,14.328 -32.0008,32.0008 0,17.6728 14.328,32.0008 32.0008,32.0008l95.9989 0c17.6728,0 32.0008,-14.328 32.0008,-32.0008z"/>
  <path class="fil6" d="M615.984 1243.02c34.363,0 65.4756,13.9299 87.9981,36.4512 22.5213,22.5225 36.4512,53.6351 36.4512,87.9981 0,34.3618 -13.9311,65.4756 -36.4512,87.9957 -22.5225,22.5213 -53.6351,36.4524 -87.9981,36.4524 -34.3618,0 -65.4756,-13.9311 -87.9957,-36.4524 -22.5213,-22.5201 -36.4524,-53.6339 -36.4524,-87.9957 0,-34.363 13.9311,-65.4756 36.4524,-87.9981 22.5201,-22.5201 53.6339,-36.4512 87.9957,-36.4512z"/>
  <path class="fil6" d="M1432.01 1243.02c34.363,0 65.4756,13.9299 87.9981,36.4512 22.5213,22.5225 36.4512,53.6351 36.4512,87.9981 0,34.3618 -13.9311,65.4756 -36.4512,87.9957 -22.5225,22.5213 -53.6351,36.4524 -87.9981,36.4524 -34.3618,0 -65.4756,-13.9311 -87.9957,-36.4524 -22.5213,-22.5201 -36.4524,-53.6339 -36.4524,-87.9957 0,-34.363 13.9311,-65.4756 36.4524,-87.9981 22.5201,-22.5201 53.6339,-36.4512 87.9957,-36.4512z"/>
 </g>
 <rect class="fil7" width="2048" height="2048"/>
</svg>
