<?xml version="1.0" encoding="UTF-8"?>
<!DOCTYPE svg PUBLIC "-//W3C//DTD SVG 1.1//EN" "http://www.w3.org/Graphics/SVG/1.1/DTD/svg11.dtd">
<!-- Creator: CorelDRAW -->
<svg xmlns="http://www.w3.org/2000/svg" xml:space="preserve" width="2048px" height="2048px" style="shape-rendering:geometricPrecision; text-rendering:geometricPrecision; image-rendering:optimizeQuality; fill-rule:evenodd; clip-rule:evenodd"
viewBox="0 0 2048 2048"
 xmlns:xlink="http://www.w3.org/1999/xlink">
 <defs>
  <style type="text/css">
   <![CDATA[
    .fil6 {fill:none}
    .fil2 {fill:#33ADAE}
    .fil3 {fill:#35D0D1}
    .fil5 {fill:#757575}
    .fil4 {fill:#EFEBE9}
    .fil1 {fill:#263238;fill-rule:nonzero}
    .fil0 {fill:#33ADAE;fill-rule:nonzero}
   ]]>
  </style>
 </defs>
 <g id="Layer_x0020_1">
  <metadata id="CorelCorpID_0Corel-Layer"/>
  <g id="_252327696">
   <path id="_252330192" class="fil0" d="M656.662 1098.05l0 -312.481c0,-20.504 8.36812,-39.1252 21.848,-52.6052 13.4799,-13.4799 32.1012,-21.848 52.6052,-21.848l69.0107 0c20.5028,0 39.124,8.3693 52.604,21.8492 13.4799,13.4799 21.8492,32.1024 21.8492,52.604l0 312.481 -217.917 0z"/>
   <path id="_252329040" class="fil1" d="M638.934 770.831l0 -47.9469c0,-3.24095 9.72993,-6.18544 25.4032,-8.31615 15.6732,-2.13189 37.324,-3.45473 61.1634,-3.45473l80.2383 0c23.8382,0 45.489,1.32284 61.1623,3.45473 15.6732,2.13071 25.4044,5.0752 25.4044,8.31615l0 47.9469 -253.371 0z"/>
   <path id="_252328992" class="fil0" d="M947.209 1108.69l0 -283.179c0,-19.004 7.75512,-36.2599 20.2453,-48.7524 12.4925,-12.4902 29.7484,-20.2441 48.7524,-20.2441l60.7146 0c19.004,0 36.2611,7.75631 48.75,20.2453 12.4925,12.4913 20.2477,29.7496 20.2477,48.7512l0 283.179 -198.71 0z"/>
   <path id="_252329568" class="fil1" d="M929.147 808.425l0 -41.1355c0,-2.96929 9.16418,-5.66457 23.9244,-7.61575 14.7638,-1.95118 35.1579,-3.16299 57.6166,-3.16299l71.7532 0c22.4587,0 42.854,1.21181 57.613,3.16299 14.7638,1.95118 23.928,4.64764 23.928,7.61575l0 41.1355 -234.835 0z"/>
   <path id="_252329184" class="fil2" d="M1753.46 1321.26l-457.594 0 -813.537 0 -58.1091 0 -38.537 0 10.7303 37.1138 72.6355 251.203c7.76339,26.85 22.1114,52.1268 43.7835,70.1847 19.5791,16.3158 44.413,26.4768 74.8193,26.4768l1002.38 0c30.4016,0 55.239,-10.1634 74.817,-26.4792 21.6732,-18.0614 36.0236,-43.3394 43.7847,-70.1823l72.6355 -251.203 10.7315 -37.1138 -38.537 0z"/>
   <polygon id="_252329640" class="fil3" points="947.209,1088.82 874.579,1088.82 656.662,1088.82 511.388,1088.82 482.333,1088.82 482.333,1117.88 482.333,1321.26 1295.87,1321.26 1295.87,1117.88 1295.87,1088.82 1266.81,1088.82 1145.92,1088.82 "/>
   <path id="_252329352" class="fil4" d="M696.512 1456.26c0,-18.6685 -15.1323,-33.8008 -33.8008,-33.8008 -18.6685,0 -33.802,15.1323 -33.802,33.8008 0,18.6685 15.1335,33.8008 33.802,33.8008 18.6685,0 33.8008,-15.1323 33.8008,-33.8008z"/>
   <path id="_252329136" class="fil4" d="M585.126 1456.26c0,-18.6685 -15.1335,-33.8008 -33.802,-33.8008 -18.6685,0 -33.8008,15.1323 -33.8008,33.8008 0,18.6685 15.1323,33.8008 33.8008,33.8008 18.6685,0 33.802,-15.1323 33.802,-33.8008z"/>
   <path id="_252329088" class="fil4" d="M807.899 1456.26c0,-18.6685 -15.1335,-33.8008 -33.802,-33.8008 -18.6673,0 -33.8008,15.1323 -33.8008,33.8008 0,18.6685 15.1335,33.8008 33.8008,33.8008 18.6685,0 33.802,-15.1323 33.802,-33.8008z"/>
   <path id="_252328248" class="fil4" d="M919.287 1456.26c0,-18.6685 -15.1335,-33.8008 -33.802,-33.8008 -18.6685,0 -33.8008,15.1323 -33.8008,33.8008 0,18.6685 15.1323,33.8008 33.8008,33.8008 18.6685,0 33.802,-15.1323 33.802,-33.8008z"/>
   <path id="_252328488" class="fil4" d="M1030.67 1456.26c0,-18.6685 -15.1323,-33.8008 -33.8008,-33.8008 -18.6685,0 -33.802,15.1323 -33.802,33.8008 0,18.6685 15.1335,33.8008 33.802,33.8008 18.6685,0 33.8008,-15.1323 33.8008,-33.8008z"/>
   <path id="_252328440" class="fil4" d="M1142.06 1456.26c0,-18.6685 -15.1335,-33.8008 -33.8008,-33.8008 -18.6685,0 -33.802,15.1323 -33.802,33.8008 0,18.6685 15.1335,33.8008 33.802,33.8008 18.6673,0 33.8008,-15.1323 33.8008,-33.8008z"/>
   <path id="_252328896" class="fil4" d="M1253.45 1456.26c0,-18.6685 -15.1335,-33.8008 -33.802,-33.8008 -18.6685,0 -33.8008,15.1323 -33.8008,33.8008 0,18.6685 15.1323,33.8008 33.8008,33.8008 18.6685,0 33.802,-15.1323 33.802,-33.8008z"/>
   <path id="_252328632" class="fil4" d="M1331.03 1490.06c18.6685,0 33.8008,-15.1323 33.8008,-33.8008 0,-18.6685 -15.1323,-33.8008 -33.8008,-33.8008 -18.6685,0 -33.802,15.1323 -33.802,33.8008 0,18.6685 15.1335,33.8008 33.802,33.8008z"/>
   <path id="_252328872" class="fil4" d="M1476.22 1456.26c0,-18.6685 -15.1335,-33.8008 -33.8008,-33.8008 -18.6685,0 -33.8008,15.1323 -33.8008,33.8008 0,18.6685 15.1323,33.8008 33.8008,33.8008 18.6673,0 33.8008,-15.1323 33.8008,-33.8008z"/>
   <path id="_252328824" class="fil4" d="M1587.61 1456.26c0,-18.6685 -15.1335,-33.8008 -33.802,-33.8008 -18.6685,0 -33.8008,15.1323 -33.8008,33.8008 0,18.6685 15.1323,33.8008 33.8008,33.8008 18.6685,0 33.802,-15.1323 33.802,-33.8008z"/>
   <path id="_252328656" class="fil4" d="M1699 1456.26c0,-18.6685 -15.1323,-33.8008 -33.8008,-33.8008 -18.6673,0 -33.802,15.1323 -33.802,33.8008 0,18.6685 15.1347,33.8008 33.802,33.8008 18.6685,0 33.8008,-15.1323 33.8008,-33.8008z"/>
   <path id="_252327432" class="fil4" d="M829.384 1190.52c0,-16.487 -6.68623,-31.4185 -17.4933,-42.2268 -10.8083,-10.8083 -25.7398,-17.4933 -42.2268,-17.4933 -16.4882,0 -31.4197,6.68504 -42.2268,17.4933 -10.8083,10.8083 -17.4933,25.7398 -17.4933,42.2268 0,16.4882 6.68741,31.4185 17.4933,42.2268 10.8071,10.8071 25.7386,17.4933 42.2268,17.4933 16.487,0 31.4185,-6.68623 42.2268,-17.4933 10.8071,-10.8083 17.4933,-25.7386 17.4933,-42.2268z"/>
   <path id="_252328080" class="fil4" d="M1068.26 1190.52c0,-16.487 -6.68623,-31.4185 -17.4921,-42.2268 -10.8106,-10.8083 -25.7398,-17.4933 -42.2268,-17.4933 -16.4882,0 -31.4209,6.68504 -42.2268,17.4933 -10.8083,10.8083 -17.4933,25.7398 -17.4933,42.2268 0,16.4882 6.68623,31.4185 17.4933,42.2268 10.8059,10.8071 25.7386,17.4933 42.2268,17.4933 16.487,0 31.4162,-6.68623 42.2268,-17.4933 10.8047,-10.8083 17.4921,-25.7386 17.4921,-42.2268z"/>
   <path id="_252327720" class="fil5" d="M1037.16 644.424c14.674,5.85591 22.2225,22.1835 16.7658,37.317 -5.45788,15.1347 -23.8288,22.702 -37.6772,17.7071 -13.8496,-4.99252 -19.963,-16.4138 -19.4339,-28.9288 -2.18268,-0.261024 -4.16221,-0.694489 -6.52678,-1.54725 -2.36339,-0.851575 -4.93229,-2.17677 -7.06064,-3.68386 -1.54725,1.60158 -5.99646,0.690945 -12.2339,-1.83543 -5.84764,4.30985 -13.2213,6.87993 -21.2339,6.87993 -14.3516,0 -26.6481,-8.24528 -31.8071,-19.9618 -14.1213,-1.03819 -25.8437,-10.0736 -30.0307,-22.2827 -9.91064,-4.52008 -17.1602,-13.3748 -18.9508,-23.9351 -5.64095,-6.83977 -8.60079,-16.2165 -6.61772,-25.2059 -10.4705,5.75434 -23.2666,7.15512 -35.3882,2.78504 -11.2347,-4.05118 -19.754,-12.2882 -24.4347,-22.3193 -10.8721,15.5882 -31.2177,22.6122 -49.9512,15.8575 -1.74095,-0.628347 -3.41575,-1.35591 -5.02205,-2.17677 2.36693,7.0004 2.55945,14.3162 0.0814961,21.1878 -0.568111,1.57559 -1.26024,3.08032 -2.06457,4.51063 19.1835,10.8862 29.3634,30.6154 23.2358,47.6126 -0.447638,1.23662 -0.969686,2.43189 -1.5626,3.57992 1.90512,0.165354 3.83977,0.581103 5.75079,1.26969 10.4776,3.77835 16.2791,14.3102 12.9567,23.5229 -3.32126,9.21261 -14.5087,13.6181 -24.9862,9.83977 -8.46497,-3.05197 -13.8768,-10.5142 -13.891,-18.1252 -10.7055,3.69449 -23.8311,3.6626 -36.7063,-0.979135 -8.45552,-3.04961 -15.724,-7.70079 -21.3874,-13.2744 -3.14882,-0.597638 -6.32363,-1.45866 -9.4819,-2.59725 -11.6752,-4.20945 -21.0921,-11.4721 -27.1323,-20.0043 -9.08977,0.360236 -18.7595,-1.06772 -28.3205,-4.51418 -8.40473,-3.03189 -15.8811,-7.31693 -22.1646,-12.4406 -14.6374,8.3126 -35.0646,9.90119 -55.0087,2.70945 -3.70748,-1.33583 -7.23071,-2.91969 -10.5532,-4.70906 -19.0677,9.78544 -44.8252,11.3339 -70.0004,2.25591 -4.65355,-1.67835 -9.08741,-3.64961 -13.2839,-5.87008 -17.4425,5.5689 -38.5276,5.28544 -59.2205,-2.17677 -23.6457,-8.5252 -41.7059,-24.5965 -50.8028,-42.8445 -5.8878,-0.990946 -11.837,-2.53701 -17.7543,-4.67008 -41.7803,-15.065 -66.1335,-53.6823 -54.391,-86.2501 2.95748,-8.19922 7.92284,-15.2315 14.361,-20.928 -23.6941,-18.7406 -35.0433,-46.4197 -26.2784,-70.7292 11.7425,-32.5689 55.1363,-46.7587 96.9178,-31.6937 14.4201,5.2004 26.7638,13.2059 36.2646,22.8 14.2878,-1.94055 30.0685,-0.389764 45.6248,5.2193 11.7579,4.23898 22.1362,10.3429 30.7158,17.6528 18.6673,-19.0736 52.5378,-25.3358 85.4138,-13.4823 11.224,4.04764 21.1866,9.79607 29.5347,16.6677 14.4165,-28.637 55.1989,-40.4055 94.5556,-26.2146 24.5209,8.84174 43.0347,25.7953 51.776,44.876 15.1311,-19.5933 43.6937,-27.6083 70.6193,-17.8996 30.3425,10.9406 47.9233,40.5366 41.7485,68.256 5.9315,-4.55788 13.5165,-7.29449 21.7819,-7.29449 18.9992,0 34.4032,14.4496 34.4032,32.276 0,0.575197 -0.0165354,1.14803 -0.0484252,1.71614 2.73662,-0.656693 5.60434,-1.0063 8.55946,-1.0063 18.9992,0 34.4032,14.4484 34.4032,32.2748 0,0.661418 -0.022441,1.31811 -0.0637796,1.97008 5.11418,-2.82992 11.0764,-4.45276 17.4437,-4.45276 18.9992,0 34.402,14.4496 34.402,32.2748 0,5.85709 -1.66536,11.3492 -4.57205,16.0843 12.1039,4.99961 20.5571,16.3477 20.5571,29.5512 0,1.25079 -0.080315,2.48386 -0.226772,3.69803 2.99173,-0.0590552 6.53268,0.597638 11.3516,2.33504 11.4732,4.1374 20.5666,29.7461 17.7059,37.6772 -2.85945,7.92993 -0.425197,1.12323 -0.660237,1.6689z"/>
  </g>
 </g>
 <rect class="fil6" width="2048" height="2048"/>
</svg>
