<?xml version="1.0" encoding="UTF-8"?>
<!DOCTYPE svg PUBLIC "-//W3C//DTD SVG 1.1//EN" "http://www.w3.org/Graphics/SVG/1.1/DTD/svg11.dtd">
<!-- Creator: CorelDRAW -->
<svg xmlns="http://www.w3.org/2000/svg" xml:space="preserve" width="2048px" height="2048px" style="shape-rendering:geometricPrecision; text-rendering:geometricPrecision; image-rendering:optimizeQuality; fill-rule:evenodd; clip-rule:evenodd"
viewBox="0 0 2048 2048"
 xmlns:xlink="http://www.w3.org/1999/xlink">
 <defs>
  <style type="text/css">
   <![CDATA[
    .fil5 {fill:none}
    .fil3 {fill:#68523B}
    .fil2 {fill:#9A734D}
    .fil1 {fill:#C6915D}
    .fil0 {fill:#FDBA6D}
    .fil4 {fill:#FFECB3}
   ]]>
  </style>
 </defs>
 <g id="Layer_x0020_1">
  <metadata id="CorelCorpID_0Corel-Layer"/>
  <g id="_415940400">
   <path id="_415942272" class="fil0" d="M255.999 1024c355.315,-501.201 1008.55,-330.373 1511.64,-292.754 0,0 26.8819,133.391 24.1713,292.754 2.71063,159.363 -24.1713,292.754 -24.1713,292.754 -503.089,37.6193 -1156.32,208.447 -1511.64,-292.754z"/>
   <path id="_415941840" class="fil1" d="M285.182 1024c87.7666,118.799 199.161,204.933 337.885,258.513 339.683,131.195 768.089,40.774 1124.34,12.0992 3.55866,-22.4315 6.34961,-45.28 8.87835,-67.6158 7.61103,-67.2497 11.8795,-135.315 11.8795,-202.996 0,-67.5638 -4.25315,-135.509 -11.8394,-202.644 -2.53701,-22.4445 -5.33741,-45.4158 -8.91497,-67.9607 -162.709,-12.9862 -324.536,-36.3213 -487.438,-48.5918 -370.145,-27.8823 -738.08,-1.17284 -974.792,319.197z"/>
   <path id="_415941816" class="fil2" d="M1726.79 1272.6c2.25591,-16.0559 4.18111,-32.1603 6.00473,-48.267 7.52363,-66.4737 11.7295,-133.43 11.7295,-200.338 0,-66.7914 -4.19174,-133.631 -11.6906,-199.989 -1.83189,-16.2142 -3.76654,-32.4272 -6.0378,-48.5894 -156.442,-13.2236 -312.026,-35.2488 -468.597,-47.0433 -353.501,-26.628 -711.199,-4.74331 -943.386,295.624 83.6044,108.203 188.215,186.803 316.773,236.456 329.086,127.102 749.264,41.8701 1095.2,12.1465z"/>
   <path id="_415941984" class="fil3" d="M344.972 1024.01c79.2343,97.6394 176.904,168.734 295.132,214.395 318.601,123.053 730.352,42.8504 1065.75,12.3201 1.22244,-9.67324 2.35512,-19.3571 3.45236,-29.0457 7.42678,-65.6103 11.5795,-131.638 11.5795,-197.678 0,-65.9256 -4.13859,-131.837 -11.5406,-197.335 -1.10551,-9.7819 -2.24764,-19.5603 -3.48071,-29.328 -149.992,-13.337 -299.261,-34.0701 -449.438,-45.3827 -336.642,-25.3583 -683.803,-8.19568 -911.45,272.054z"/>
   <rect id="_415941792" class="fil0" x="873.835" y="683.677" width="127.447" height="676.026"/>
   <rect id="_415941264" class="fil0" x="1444.58" y="719.695" width="127.447" height="610.917"/>
   <g>
    <g>
     <g>
      <rect id="_415941504" class="fil4" transform="matrix(5.72787E-014 2.16272 -2.44731 6.4816E-014 1018.21 832.889)" width="53.7496" height="118.75" rx="25.9524" ry="25.9524"/>
      <polygon id="_415941456" class="fil4" points="1000.18,833.501 1058.75,873.55 1058.75,908.473 1000.18,948.522 989.15,948.522 989.15,833.501 "/>
      <rect id="_415941144" class="fil4" transform="matrix(4.70644E-014 1.77705 -14.6661 3.88425E-013 1643.45 876.573)" width="16.2496" height="43.7504" rx="14.6835" ry="14.6835"/>
     </g>
     <rect id="_415941672" class="fil3" x="1491.68" y="851.3" width="33.2471" height="79.4235"/>
    </g>
    <g>
     <g>
      <rect id="_415940616" class="fil4" transform="matrix(-5.72787E-014 2.16272 2.44731 6.4816E-014 1352.83 1098.87)" width="53.7496" height="118.75" rx="25.9524" ry="25.9524"/>
      <polygon id="_415940232" class="fil4" points="1370.86,1099.48 1312.29,1139.53 1312.29,1174.45 1370.86,1214.5 1381.89,1214.5 1381.89,1099.48 "/>
      <rect id="_415940472" class="fil4" transform="matrix(-4.70644E-014 1.77705 14.6661 3.88425E-013 727.589 1142.55)" width="16.2496" height="43.7504" rx="14.6835" ry="14.6835"/>
     </g>
     <rect id="_415940424" class="fil3" x="920.935" y="1117.28" width="33.2471" height="79.4235"/>
    </g>
   </g>
  </g>
 </g>
 <rect class="fil5" width="2048" height="2048"/>
</svg>
