<?xml version="1.0" encoding="UTF-8"?>
<!DOCTYPE svg PUBLIC "-//W3C//DTD SVG 1.1//EN" "http://www.w3.org/Graphics/SVG/1.1/DTD/svg11.dtd">
<!-- Creator: CorelDRAW -->
<svg xmlns="http://www.w3.org/2000/svg" xml:space="preserve" width="2048px" height="2048px" style="shape-rendering:geometricPrecision; text-rendering:geometricPrecision; image-rendering:optimizeQuality; fill-rule:evenodd; clip-rule:evenodd"
viewBox="0 0 2048 2048"
 xmlns:xlink="http://www.w3.org/1999/xlink">
 <defs>
  <style type="text/css">
   <![CDATA[
    .fil6 {fill:none}
    .fil1 {fill:#01579B}
    .fil0 {fill:#212121}
    .fil3 {fill:#424242}
    .fil2 {fill:#BDBDBD}
    .fil5 {fill:#FFCA28}
    .fil4 {fill:#212121;fill-rule:nonzero}
   ]]>
  </style>
 </defs>
 <g id="Layer_x0020_1">
  <metadata id="CorelCorpID_0Corel-Layer"/>
  <g id="_415943208">
   <g>
    <circle id="_415946472" class="fil0" transform="matrix(0.379027 0.0287694 -0.0287694 0.379027 1583.25 1265.43)" r="82.4575"/>
    <polygon id="_415947072" class="fil1" points="964.595,924.036 937.45,876.35 1034.1,894.532 1119.09,956.798 "/>
    <path id="_415945776" class="fil1" d="M518.594 521.849l75.2186 13.9996c0,0 73.9146,240.586 209.655,315.894l204.285 97.4587 -494.17 -92.3611 5.01142 -334.992z"/>
    <path id="_415946160" class="fil2" d="M474.527 848.736l52.4221 -2.5878 1012.39 175.994c57.7406,8.65631 334.442,203.971 169.433,213.057 0,0 -177.578,13.9902 -457.502,-52.78 0,0 -319.298,-25.2614 -523.537,-125.565l-174.488 -118.481 -82.702 -53.8311 3.98268 -35.8051z"/>
    <path id="_415946088" class="fil3" d="M951.39 1063.03c0,0 220.479,12.4606 292.677,55.4504l-14.1933 78.4902c0,0 -114.516,21.8303 -287.622,-77.067l9.1382 -56.8737z"/>
    <path id="_415945992" class="fil1" d="M1217.58 1087.96l-248.899 59.5489 -137.192 -19.5343 137.412 -84.3709c0,0 216.078,17.6492 248.679,44.3563z"/>
    <polygon id="_415945872" class="fil1" points="503.589,873.517 698.608,907.419 515.771,968.163 426.15,955.787 "/>
    <g>
     <path id="_415944936" class="fil0" d="M1538.37 1082.17c0,0 16.663,-8.43898 33.2374,-3.79607 0,0 4.61103,19.5331 -0.938977,27.2362 0,0 -36.6744,1.50473 -32.2985,-23.4402z"/>
     <polygon id="_415945464" class="fil0" points="1578.92,1077.13 1604.96,1073.01 1620.83,1098.81 1616.9,1103.03 1581.32,1105.07 "/>
     <path id="_415944888" class="fil0" d="M1633.3 1070.75c12.4075,8.35631 24.9851,17.3858 37.174,26.7721l-40.7989 3.7689 -15.4382 -25.5449 19.063 -4.99607z"/>
    </g>
    <rect id="_415945368" class="fil0" transform="matrix(0.355799 0.0551653 -0.0551653 0.355799 872.888 949.767)" width="112.5" height="112.5" rx="7.20119" ry="7.20119"/>
    <rect id="_415945176" class="fil0" transform="matrix(0.355799 0.0551653 -0.0551653 0.355799 955.612 962.593)" width="112.5" height="112.5" rx="7.20119" ry="7.20119"/>
    <rect id="_415944720" class="fil0" transform="matrix(0.355799 0.0551653 -0.0551653 0.355799 1038.34 975.419)" width="112.5" height="112.5" rx="7.20119" ry="7.20119"/>
    <rect id="_415944384" class="fil0" transform="matrix(0.355799 0.0551653 -0.0551653 0.355799 1121.06 988.244)" width="112.5" height="112.5" rx="7.20119" ry="7.20119"/>
    <rect id="_415944360" class="fil0" transform="matrix(0.355799 0.0551653 -0.0551653 0.355799 1203.78 1001.07)" width="112.5" height="112.5" rx="7.20119" ry="7.20119"/>
    <rect id="_415944216" class="fil0" transform="matrix(0.355799 0.0551653 -0.0551653 0.355799 1286.51 1013.9)" width="112.5" height="112.5" rx="7.20119" ry="7.20119"/>
    <path id="_415944312" class="fil0" d="M1218.31 1106.47l-12.8882 71.2772 -3.84449 21.2575c18.3921,-0.148819 28.2992,-2.0374 28.2992,-2.0374l2.94095 -16.2614 11.2524 -62.2288c-7.22481,-4.30276 -15.9343,-8.29843 -25.7599,-12.0071z"/>
    <path id="_415944288" class="fil2" d="M1366.56 1026.96l60.5481 10.5154c3.90237,0.676772 6.62717,4.30866 6.01182,8.21812l-18.1181 114.847c-0.615355,3.90945 -4.31811,6.68977 -8.21812,6.013l-60.5493 -10.5165c-3.9,-0.676772 -6.62953,-4.3063 -6.01182,-8.2193l18.1181 -114.846c0.617717,-3.913 4.31575,-6.68859 8.2193,-6.01182z"/>
    <path id="_415943688" class="fil4" d="M1366.93 1024.82l60.5481 10.5165c2.53465,0.437008 4.6878,1.84488 6.09804,3.77481 1.40788,1.92402 2.08583,4.37244 1.68662,6.91064l-18.1181 114.846 0 0.0177165 -0.0188977 0.113386 0 0.0165354c-0.429922,2.47795 -1.8189,4.59804 -3.71811,5.99764 -1.90394,1.40315 -4.33465,2.08701 -6.84095,1.69252l-0.00944883 0 -0.108662 -0.0177165 -0.0248032 0 -60.5493 -10.5154c-2.53465,-0.440552 -4.6878,-1.84725 -6.1004,-3.77717 -1.40669,-1.92402 -2.08465,-4.37126 -1.68425,-6.90945l18.1181 -114.847 0 -0.0248032 0.0188977 -0.109843 0 -0.00944883c0.429922,-2.47914 1.81654,-4.60158 3.71693,-6.00119 1.9063,-1.40315 4.33819,-2.08701 6.84686,-1.69016l0.0259843 0 0.103937 0.0165354 0.00944883 0zm59.817 14.791l-60.5481 -10.5154 0 -0.0011811 -0.0944883 -0.0165354 0 -0.00472441c-1.30748,-0.197244 -2.58544,0.170079 -3.59882,0.915355 -1.02402,0.754725 -1.77284,1.89921 -2.00433,3.23622l-0.0011811 0 -0.0177165 0.101575 -0.00354331 -0.0011811 -18.1146 114.821c-0.211417,1.35 0.151181,2.65748 0.904725,3.68859 0.770079,1.05354 1.94882,1.82244 3.33544,2.06339l60.5493 10.5154 -0.0011811 0.00354331 0.0838583 0.0141732 0 0.0011811c1.31102,0.20315 2.59488,-0.165354 3.61063,-0.914174 1.02284,-0.752363 1.77165,-1.89803 2.00433,-3.23268l0.00236221 0 0.0153543 -0.0956694 0.00354331 0 18.1146 -114.829c0.212599,-1.35 -0.151181,-2.65866 -0.905906,-3.68859 -0.770079,-1.05236 -1.94764,-1.82126 -3.33425,-2.06103z"/>
   </g>
   <polygon id="_415943808" class="fil3" points="255.999,1343.71 1680.8,1343.71 1792,1526.15 367.201,1526.15 "/>
   <polygon id="_415943400" class="fil5" points="352.866,1420.01 585.961,1420.01 604.153,1449.85 371.059,1449.85 "/>
   <polygon id="_415943784" class="fil5" points="702.551,1420.01 935.645,1420.01 953.838,1449.85 720.743,1449.85 "/>
   <polygon id="_415942920" class="fil5" points="1052.24,1420.01 1285.33,1420.01 1303.52,1449.85 1070.43,1449.85 "/>
   <polygon id="_415942560" class="fil5" points="1401.92,1420.01 1635.01,1420.01 1653.21,1449.85 1420.11,1449.85 "/>
  </g>
 </g>
 <rect class="fil6" width="2048" height="2048"/>
</svg>
