<?xml version="1.0" encoding="UTF-8"?>
<!DOCTYPE svg PUBLIC "-//W3C//DTD SVG 1.1//EN" "http://www.w3.org/Graphics/SVG/1.1/DTD/svg11.dtd">
<!-- Creator: CorelDRAW -->
<svg xmlns="http://www.w3.org/2000/svg" xml:space="preserve" width="2048px" height="2048px" style="shape-rendering:geometricPrecision; text-rendering:geometricPrecision; image-rendering:optimizeQuality; fill-rule:evenodd; clip-rule:evenodd"
viewBox="0 0 2048 2048"
 xmlns:xlink="http://www.w3.org/1999/xlink">
 <defs>
  <style type="text/css">
   <![CDATA[
    .fil12 {fill:none}
    .fil9 {fill:#424242}
    .fil6 {fill:#616161}
    .fil1 {fill:#B0B0B0}
    .fil0 {fill:#BDBDBD}
    .fil8 {fill:#C39C26}
    .fil11 {fill:#E3F2FD}
    .fil5 {fill:#E9B927}
    .fil10 {fill:#EEEEEE}
    .fil7 {fill:#FFCA28}
    .fil2 {fill:#455A64;fill-rule:nonzero}
    .fil3 {fill:#757575;fill-rule:nonzero}
    .fil4 {fill:#FFCA28;fill-rule:nonzero}
   ]]>
  </style>
 </defs>
 <g id="Layer_x0020_1">
  <metadata id="CorelCorpID_0Corel-Layer"/>
  <g id="_413065384">
   <rect id="_413066728" class="fil0" x="1387.21" y="465.053" width="220.002" height="85.1362" rx="7.16103" ry="7.16103"/>
   <rect id="_413066416" class="fil1" x="1138.98" y="448.179" width="307.21" height="118.884" rx="10.0004" ry="10.0004"/>
   <g>
    <path id="_413066608" class="fil2" d="M1685.04 525.227c0,-8.83583 7.16457,-16.0004 16.0004,-16.0004 8.83583,0 16.0004,7.16457 16.0004,16.0004l0 736.001c0,8.83583 -7.16457,16.0004 -16.0004,16.0004 -8.83583,0 -16.0004,-7.16457 -16.0004,-16.0004l0 -736.001z"/>
    <path id="_413066680" class="fil2" d="M1621.04 525.227c0,-8.83583 7.16457,-16.0004 16.0004,-16.0004 8.83583,0 16.0004,7.16457 16.0004,16.0004l0 736.001c0,8.83583 -7.16457,16.0004 -16.0004,16.0004 -8.83583,0 -16.0004,-7.16457 -16.0004,-16.0004l0 -736.001z"/>
    <g>
     <path id="_413066536" class="fil3" d="M1670.55 1271.4c-12.0614,0 -22.9878,4.89213 -30.8941,12.7984 -7.90631,7.90631 -12.7984,18.8327 -12.7984,30.8941 0,12.0638 4.89213,22.9878 12.7984,30.8941 7.90631,7.90631 18.8327,12.7984 30.8941,12.7984 12.0638,0 22.9878,-4.89213 30.8941,-12.7984 7.90631,-7.90631 12.7984,-18.8303 12.7984,-30.8941 0,-12.0614 -4.89213,-22.9878 -12.7984,-30.8941 -7.90631,-7.90631 -18.8303,-12.7984 -30.8941,-12.7984z"/>
     <path id="_413066944" class="fil3" d="M1671.36 1326.87c8.80158,-0.309449 16.1906,6.57402 16.5,15.3756 0.309449,8.80158 -6.57402,16.1906 -15.3756,16.5 -8.59253,0.315355 -16.3004,4.00866 -21.861,9.77835 -5.5441,5.75079 -8.94331,13.6028 -8.94331,22.252 0,8.8382 3.58229,16.8402 9.37087,22.6288 5.78859,5.78859 13.7929,9.37087 22.6288,9.37087 5.13307,0 10.0973,-1.22008 14.5181,-3.4689 4.513,-2.29606 8.44489,-5.57835 11.4071,-9.64725 5.17678,-7.11024 15.1394,-8.67757 22.2496,-3.50079 7.11024,5.17678 8.67757,15.1394 3.50079,22.2496 -6.06851,8.33268 -13.8673,14.9268 -22.6583,19.3984 -8.8819,4.5189 -18.8055,6.96969 -29.0173,6.96969 -17.6693,0 -33.6709,-7.16457 -45.254,-18.7465 -11.5819,-11.5819 -18.7465,-27.5823 -18.7465,-45.254 0,-17.1756 6.81851,-32.837 17.9433,-44.3764 11.1059,-11.5205 26.5229,-18.8988 43.7374,-19.5295z"/>
    </g>
    <path id="_413066776" class="fil4" d="M1733.04 1229.23c17.6728,0 32.0008,14.328 32.0008,32.0008 0,17.6728 -14.328,32.0008 -32.0008,32.0008l-128 0c-17.6728,0 -32.0008,-14.328 -32.0008,-32.0008 0,-17.6728 14.328,-32.0008 32.0008,-32.0008l128 0z"/>
    <g>
     <path id="_413065936" class="fil5" d="M1600.84 589.106l136.396 0c17.6008,0 31.9996,-14.3988 31.9996,-31.9984l0 -66.9367 -64.0347 -64.0347 -104.361 0c-17.6008,0 -31.9996,14.3988 -31.9996,31.9984l0 98.9729c0,17.5996 14.3988,31.9984 31.9996,31.9984z"/>
     <g>
      <polygon id="_413065624" class="fil6" points="1615.24,589.106 1637.74,589.106 1568.84,520.204 1568.84,542.708 "/>
      <polygon id="_413066152" class="fil6" points="1665.07,589.106 1687.57,589.106 1568.84,470.377 1568.84,492.879 "/>
      <path id="_413065576" class="fil6" d="M1714.9 589.106l22.3406 0 0.16063 -0.00236221 -156.191 -156.19c-4.25079,3.32008 -7.64882,7.6878 -9.79843,12.7039l143.489 143.489z"/>
      <path id="_413065240" class="fil6" d="M1757.47 581.85c4.18111,-3.42874 7.48819,-7.89095 9.51733,-12.9862l-142.729 -142.728 -22.5024 0 155.714 155.714z"/>
      <polygon id="_413065192" class="fil6" points="1769.24,543.791 1769.24,521.286 1674.09,426.136 1651.58,426.136 "/>
     </g>
    </g>
   </g>
  </g>
  <rect class="fil7" x="256.002" y="945.103" width="1269.82" height="408.19" rx="90.0001" ry="90.0001"/>
  <path class="fil8" d="M1409.36 1353.29l-464.95 0c10.7681,-40.5579 32.074,-77.8867 62.354,-108.144 45.2055,-45.1713 106.167,-70.3441 170.072,-70.3441 63.9591,0 124.784,25.1587 170.053,70.3276 30.3284,30.2622 51.6815,67.5851 62.4709,108.161z"/>
  <path class="fil8" d="M759.262 1353.29l-413.264 0c-17.4473,0 -33.7713,-5.03741 -47.6032,-13.7197 11.6504,-35.2453 31.4386,-67.6111 58.2721,-94.4245 45.2055,-45.1713 106.167,-70.3441 170.072,-70.3441 63.9591,0 124.784,25.1587 170.053,70.3276 30.3284,30.2622 51.6815,67.5851 62.4709,108.161z"/>
  <path class="fil7" d="M1296.39 996.714c-7.20709,-9.32835 -19.7398,-26.3386 -36.1689,-48.6579 -63.117,-85.5142 -185.693,-251.932 -189.591,-251.932l-738.745 0c-2.60197,0 -5.20394,1.41851 -7.21418,3.54331 -2.83347,3.18898 -4.60866,7.91457 -4.60866,13.3465l0 379.144 -64.0642 0 0 -379.144c0,-21.4973 8.15316,-41.2193 21.1583,-55.7481 13.9476,-15.5906 33.3319,-25.1575 54.7288,-25.1575l738.745 0c36.0473,0 171.504,183.781 241.126,278.269 17.2559,23.387 30.3744,41.1036 34.9878,47.0055l-50.354 39.3307z"/>
  <polygon class="fil7" points="727.26,664.117 727.26,977.11 663.2,977.11 663.2,664.117 "/>
  <path class="fil7" d="M374.2 413.015l779.787 0 0 189.212 -779.787 0c-26.1213,0 -49.7622,-10.6287 -66.9024,-27.7559 -17.1343,-17.1248 -27.776,-40.7469 -27.776,-66.8493 0,-26.1036 10.6417,-49.7268 27.776,-66.8504 17.1402,-17.1284 40.7811,-27.7559 66.9024,-27.7559l0 0z"/>
  <polygon class="fil7" points="695.938,601.518 695.938,653.134 631.874,653.134 631.874,601.518 "/>
  <polygon class="fil7" points="977.726,601.518 977.726,653.134 913.781,653.134 913.781,601.518 "/>
  <path class="fil9" d="M526.738 1206.81c57.6166,0 109.736,23.2984 147.451,60.9804 37.8225,37.689 61.1386,89.8761 61.1386,147.345 0,57.5741 -23.3162,109.652 -61.1386,147.336 -37.715,37.6902 -89.8347,61.0949 -147.451,61.0949 -57.5067,0 -109.737,-23.4047 -147.452,-61.0949 -37.7138,-37.6831 -61.0252,-89.7615 -61.0252,-147.336 0,-57.4689 23.3114,-109.655 61.0252,-147.345 37.7162,-37.6819 89.9457,-60.9804 147.452,-60.9804l0 0z"/>
  <path class="fil9" d="M526.738 1206.81c57.6154,0 109.735,23.2984 147.45,60.9804 37.8225,37.689 61.1386,89.8761 61.1386,147.345 0,57.5741 -23.3162,109.652 -61.1386,147.336 -37.715,37.6902 -89.8347,61.0949 -147.45,61.0949 -57.5079,0 -109.739,-23.4047 -147.454,-61.0949 -37.7138,-37.6831 -61.0252,-89.7615 -61.0252,-147.336 0,-57.4689 23.3114,-109.655 61.0252,-147.345 37.7162,-37.6819 89.9457,-60.9804 147.454,-60.9804l0 0z"/>
  <path class="fil9" d="M526.774 1345.35c19.3087,0 36.7772,7.80827 49.4162,20.4366 12.6756,12.6319 20.4898,30.1205 20.4898,49.3807 0,19.2957 -7.81418,36.7488 -20.4898,49.3784 -12.639,12.6307 -30.1075,20.4744 -49.4162,20.4744 -19.2732,0 -36.7772,-7.84371 -49.4174,-20.4744 -12.639,-12.6295 -20.4508,-30.0827 -20.4508,-49.3784 0,-19.2603 7.81182,-36.7488 20.4508,-49.3807 12.6402,-12.6284 30.1441,-20.4366 49.4174,-20.4366l0 0z"/>
  <path class="fil10" d="M526.774 1514.81c26.491,0 51.7146,-10.474 70.4587,-29.178 18.763,-18.7217 29.2382,-43.95 29.2382,-70.4658 0,-12.6071 -2.37402,-24.9331 -6.88229,-36.4075 -4.96654,-12.6425 -12.5256,-24.2504 -22.3559,-34.0607 -18.7441,-18.704 -43.9725,-29.139 -70.4587,-29.139 -26.4709,0 -51.75,10.4433 -70.4753,29.1544 -9.78662,9.77954 -17.315,21.3484 -22.2721,33.9461 -4.52835,11.5051 -6.91182,23.8689 -6.91182,36.5067 0,26.491 10.4469,51.7276 29.1839,70.4516 18.724,18.7087 43.9985,29.1921 70.4753,29.1921zm59.6646 -136.051c6.50197,10.6075 10.2413,23.0835 10.2413,36.4075 0,19.2957 -7.81418,36.7488 -20.4898,49.3784 -12.639,12.6307 -30.1075,20.4744 -49.4162,20.4744 -19.2732,0 -36.7772,-7.84371 -49.4174,-20.4744 -12.639,-12.6295 -20.4508,-30.0827 -20.4508,-49.3784 0,-13.324 3.73819,-25.8 10.2284,-36.4075 2.89016,-4.72559 6.32835,-9.08032 10.2224,-12.9721 12.6413,-12.6295 30.1441,-20.4366 49.4174,-20.4366 19.3087,0 36.7772,7.80709 49.4162,20.4366 3.90709,3.89174 7.35237,8.24646 10.2484,12.9721z"/>
  <rect class="fil9" x="520.393" y="1195.18" width="12.8013" height="26.1832" rx="3.72402" ry="3.72402"/>
  <rect class="fil9" transform="matrix(0.899256 0.240955 -0.30979 1.15615 577.551 1201.02)" width="13.7504" height="21.8752" rx="3.72402" ry="3.72402"/>
  <rect class="fil9" transform="matrix(0.806251 0.465489 -0.598468 1.03658 631.25 1221.46)" width="13.7504" height="21.8752" rx="3.72402" ry="3.72402"/>
  <rect class="fil9" transform="matrix(0.658301 0.658301 -0.846362 0.846362 677.831 1255.09)" width="13.7504" height="21.8752" rx="3.72402" ry="3.72402"/>
  <rect class="fil9" transform="matrix(0.465489 0.806251 -1.03658 0.598468 714.119 1299.64)" width="13.7504" height="21.8752" rx="3.72402" ry="3.72402"/>
  <rect class="fil9" transform="matrix(0.240955 0.899256 -1.15615 0.30979 737.64 1352.06)" width="13.7504" height="21.8752" rx="3.72402" ry="3.72402"/>
  <rect class="fil9" transform="matrix(2.45737E-014 0.930979 -1.19694 3.14729E-014 746.793 1408.78)" width="13.7504" height="21.8752" rx="3.72402" ry="3.72402"/>
  <rect class="fil9" transform="matrix(-0.240955 0.899256 -1.15615 -0.30979 740.954 1465.94)" width="13.7504" height="21.8752" rx="3.72402" ry="3.72402"/>
  <rect class="fil9" transform="matrix(-0.465489 0.806251 -1.03658 -0.598468 720.519 1519.64)" width="13.7504" height="21.8752" rx="3.72402" ry="3.72402"/>
  <rect class="fil9" transform="matrix(-0.658301 0.658301 -0.846362 -0.846362 686.883 1566.22)" width="13.7504" height="21.8752" rx="3.72402" ry="3.72402"/>
  <rect class="fil9" transform="matrix(-0.806251 0.465489 -0.598468 -1.03658 642.336 1602.51)" width="13.7504" height="21.8752" rx="3.72402" ry="3.72402"/>
  <rect class="fil9" transform="matrix(-0.899256 0.240955 -0.30979 -1.15615 589.916 1626.03)" width="13.7504" height="21.8752" rx="3.72402" ry="3.72402"/>
  <rect class="fil9" x="520.393" y="1609" width="12.8013" height="26.1832" rx="3.72402" ry="3.72402"/>
  <rect class="fil9" transform="matrix(-0.899256 -0.240955 0.30979 -1.15615 476.036 1629.34)" width="13.7504" height="21.8752" rx="3.72402" ry="3.72402"/>
  <rect class="fil9" transform="matrix(-0.806251 -0.465489 0.598468 -1.03658 422.336 1608.91)" width="13.7504" height="21.8752" rx="3.72402" ry="3.72402"/>
  <rect class="fil9" transform="matrix(-0.658301 -0.658301 0.846362 -0.846362 375.756 1575.27)" width="13.7504" height="21.8752" rx="3.72402" ry="3.72402"/>
  <rect class="fil9" transform="matrix(-0.465489 -0.806251 1.03658 -0.598468 339.468 1530.73)" width="13.7504" height="21.8752" rx="3.72402" ry="3.72402"/>
  <rect class="fil9" transform="matrix(-0.240955 -0.899256 1.15615 -0.30979 315.946 1478.31)" width="13.7504" height="21.8752" rx="3.72402" ry="3.72402"/>
  <rect class="fil9" transform="matrix(-7.36953E-014 -0.930979 1.19694 -9.46255E-014 306.793 1421.58)" width="13.7504" height="21.8752" rx="3.72402" ry="3.72402"/>
  <rect class="fil9" transform="matrix(0.240955 -0.899256 1.15615 0.30979 312.633 1364.42)" width="13.7504" height="21.8752" rx="3.72402" ry="3.72402"/>
  <rect class="fil9" transform="matrix(0.465489 -0.806251 1.03658 0.598468 333.067 1310.73)" width="13.7504" height="21.8752" rx="3.72402" ry="3.72402"/>
  <rect class="fil9" transform="matrix(0.658301 -0.658301 0.846362 0.846362 366.704 1264.15)" width="13.7504" height="21.8752" rx="3.72402" ry="3.72402"/>
  <rect class="fil9" transform="matrix(0.806251 -0.465489 0.598468 1.03658 411.25 1227.86)" width="13.7504" height="21.8752" rx="3.72402" ry="3.72402"/>
  <rect class="fil9" transform="matrix(0.899256 -0.240955 0.30979 1.15615 463.671 1204.34)" width="13.7504" height="21.8752" rx="3.72402" ry="3.72402"/>
  <path class="fil9" d="M1176.84 1206.81c57.6166,0 109.736,23.2984 147.451,60.9804 37.8225,37.689 61.1386,89.8761 61.1386,147.345 0,57.5741 -23.3162,109.652 -61.1386,147.336 -37.715,37.6902 -89.8347,61.0949 -147.451,61.0949 -57.5067,0 -109.737,-23.4047 -147.452,-61.0949 -37.7138,-37.6831 -61.0252,-89.7615 -61.0252,-147.336 0,-57.4689 23.3114,-109.655 61.0252,-147.345 37.7162,-37.6819 89.9457,-60.9804 147.452,-60.9804l0 0z"/>
  <path class="fil9" d="M1176.84 1206.81c57.6154,0 109.735,23.2984 147.45,60.9804 37.8225,37.689 61.1386,89.8761 61.1386,147.345 0,57.5741 -23.3162,109.652 -61.1386,147.336 -37.715,37.6902 -89.8347,61.0949 -147.45,61.0949 -57.5079,0 -109.739,-23.4047 -147.454,-61.0949 -37.7138,-37.6831 -61.0252,-89.7615 -61.0252,-147.336 0,-57.4689 23.3114,-109.655 61.0252,-147.345 37.7162,-37.6819 89.9457,-60.9804 147.454,-60.9804l0 0z"/>
  <path class="fil9" d="M1176.87 1345.35c19.3087,0 36.7772,7.80827 49.4162,20.4366 12.6756,12.6319 20.4898,30.1205 20.4898,49.3807 0,19.2957 -7.81418,36.7488 -20.4898,49.3784 -12.639,12.6307 -30.1075,20.4744 -49.4162,20.4744 -19.2732,0 -36.7772,-7.84371 -49.4174,-20.4744 -12.639,-12.6295 -20.4508,-30.0827 -20.4508,-49.3784 0,-19.2603 7.81182,-36.7488 20.4508,-49.3807 12.6402,-12.6284 30.1441,-20.4366 49.4174,-20.4366l0 0z"/>
  <path class="fil10" d="M1176.87 1514.81c26.491,0 51.7146,-10.474 70.4587,-29.178 18.763,-18.7217 29.2382,-43.95 29.2382,-70.4658 0,-12.6071 -2.37402,-24.9331 -6.88229,-36.4075 -4.96654,-12.6425 -12.5256,-24.2504 -22.3559,-34.0607 -18.7441,-18.704 -43.9725,-29.139 -70.4587,-29.139 -26.4709,0 -51.75,10.4433 -70.4753,29.1544 -9.78662,9.77954 -17.315,21.3484 -22.2721,33.9461 -4.52835,11.5051 -6.91182,23.8689 -6.91182,36.5067 0,26.491 10.4469,51.7276 29.1839,70.4516 18.724,18.7087 43.9985,29.1921 70.4753,29.1921zm59.6646 -136.051c6.50197,10.6075 10.2413,23.0835 10.2413,36.4075 0,19.2957 -7.81418,36.7488 -20.4898,49.3784 -12.639,12.6307 -30.1075,20.4744 -49.4162,20.4744 -19.2732,0 -36.7772,-7.84371 -49.4174,-20.4744 -12.639,-12.6295 -20.4508,-30.0827 -20.4508,-49.3784 0,-13.324 3.73819,-25.8 10.2284,-36.4075 2.89016,-4.72559 6.32835,-9.08032 10.2224,-12.9721 12.6413,-12.6295 30.1441,-20.4366 49.4174,-20.4366 19.3087,0 36.7772,7.80709 49.4162,20.4366 3.90709,3.89174 7.35237,8.24646 10.2484,12.9721z"/>
  <rect class="fil9" x="1170.49" y="1195.18" width="12.8013" height="26.1832" rx="3.72402" ry="3.72402"/>
  <rect class="fil9" transform="matrix(0.899256 0.240955 -0.30979 1.15615 1227.65 1201.02)" width="13.7504" height="21.8752" rx="3.72402" ry="3.72402"/>
  <rect class="fil9" transform="matrix(0.806251 0.465489 -0.598468 1.03658 1281.35 1221.46)" width="13.7504" height="21.8752" rx="3.72402" ry="3.72402"/>
  <rect class="fil9" transform="matrix(0.658301 0.658301 -0.846362 0.846362 1327.93 1255.09)" width="13.7504" height="21.8752" rx="3.72402" ry="3.72402"/>
  <rect class="fil9" transform="matrix(0.465489 0.806251 -1.03658 0.598468 1364.22 1299.64)" width="13.7504" height="21.8752" rx="3.72402" ry="3.72402"/>
  <rect class="fil9" transform="matrix(0.240955 0.899256 -1.15615 0.30979 1387.74 1352.06)" width="13.7504" height="21.8752" rx="3.72402" ry="3.72402"/>
  <rect class="fil9" transform="matrix(2.45737E-014 0.930979 -1.19694 3.14729E-014 1396.89 1408.78)" width="13.7504" height="21.8752" rx="3.72402" ry="3.72402"/>
  <rect class="fil9" transform="matrix(-0.240955 0.899256 -1.15615 -0.30979 1391.05 1465.94)" width="13.7504" height="21.8752" rx="3.72402" ry="3.72402"/>
  <rect class="fil9" transform="matrix(-0.465489 0.806251 -1.03658 -0.598468 1370.62 1519.64)" width="13.7504" height="21.8752" rx="3.72402" ry="3.72402"/>
  <rect class="fil9" transform="matrix(-0.658301 0.658301 -0.846362 -0.846362 1336.98 1566.22)" width="13.7504" height="21.8752" rx="3.72402" ry="3.72402"/>
  <rect class="fil9" transform="matrix(-0.806251 0.465489 -0.598468 -1.03658 1292.44 1602.51)" width="13.7504" height="21.8752" rx="3.72402" ry="3.72402"/>
  <rect class="fil9" transform="matrix(-0.899256 0.240955 -0.30979 -1.15615 1240.02 1626.03)" width="13.7504" height="21.8752" rx="3.72402" ry="3.72402"/>
  <rect class="fil9" x="1170.49" y="1609" width="12.8013" height="26.1832" rx="3.72402" ry="3.72402"/>
  <rect class="fil9" transform="matrix(-0.899256 -0.240955 0.30979 -1.15615 1126.14 1629.34)" width="13.7504" height="21.8752" rx="3.72402" ry="3.72402"/>
  <rect class="fil9" transform="matrix(-0.806251 -0.465489 0.598468 -1.03658 1072.44 1608.91)" width="13.7504" height="21.8752" rx="3.72402" ry="3.72402"/>
  <rect class="fil9" transform="matrix(-0.658301 -0.658301 0.846362 -0.846362 1025.86 1575.27)" width="13.7504" height="21.8752" rx="3.72402" ry="3.72402"/>
  <rect class="fil9" transform="matrix(-0.465489 -0.806251 1.03658 -0.598468 989.567 1530.73)" width="13.7504" height="21.8752" rx="3.72402" ry="3.72402"/>
  <rect class="fil9" transform="matrix(-0.240955 -0.899256 1.15615 -0.30979 966.046 1478.31)" width="13.7504" height="21.8752" rx="3.72402" ry="3.72402"/>
  <rect class="fil9" transform="matrix(-7.36953E-014 -0.930979 1.19694 -9.46255E-014 956.893 1421.58)" width="13.7504" height="21.8752" rx="3.72402" ry="3.72402"/>
  <rect class="fil9" transform="matrix(0.240955 -0.899256 1.15615 0.30979 962.732 1364.42)" width="13.7504" height="21.8752" rx="3.72402" ry="3.72402"/>
  <rect class="fil9" transform="matrix(0.465489 -0.806251 1.03658 0.598468 983.167 1310.73)" width="13.7504" height="21.8752" rx="3.72402" ry="3.72402"/>
  <rect class="fil9" transform="matrix(0.658301 -0.658301 0.846362 0.846362 1016.8 1264.15)" width="13.7504" height="21.8752" rx="3.72402" ry="3.72402"/>
  <rect class="fil9" transform="matrix(0.806251 -0.465489 0.598468 1.03658 1061.35 1227.86)" width="13.7504" height="21.8752" rx="3.72402" ry="3.72402"/>
  <rect class="fil9" transform="matrix(0.899256 -0.240955 0.30979 1.15615 1113.77 1204.34)" width="13.7504" height="21.8752" rx="3.72402" ry="3.72402"/>
  <path class="fil5" d="M296.065 713.014c0,-10.7953 3.55748,-21.5374 10.9181,-29.5654 6.40276,-6.9815 15.3567,-11.3232 24.9036,-11.3232l340.125 0 15.1878 0 383.432 0c14.2878,0 22.2331,12.2315 29.941,21.965 8.96103,11.315 17.7059,22.8402 26.4201,34.3465 25.9441,34.2603 51.5611,68.7898 77.1438,103.319 24.4488,33 48.828,66.0508 73.2166,99.0957l28.2295 38.25 -618.383 0 -15.1878 0 -326.014 0c-6.43229,0 -12.8185,0.935434 -18.9744,2.8004l-30.9579 9.38032 0 -268.269z"/>
  <path class="fil11" d="M320.064 713.014l0 235.921c8.22048,-2.49095 16.9276,-3.8315 25.9335,-3.8315l357.281 0 0 -248.979 -371.392 0c-2.60197,0 -5.20394,1.41851 -7.21418,3.54331 -2.83347,3.18898 -4.60866,7.91457 -4.60866,13.3465z"/>
  <path class="fil11" d="M727.26 696.125l0 248.979 530.783 0c-63.7146,-86.3304 -183.559,-248.979 -187.412,-248.979l-343.372 0z"/>
 </g>
 <rect class="fil12" width="2048" height="2048"/>
</svg>
