<?xml version="1.0" encoding="UTF-8"?>
<!DOCTYPE svg PUBLIC "-//W3C//DTD SVG 1.1//EN" "http://www.w3.org/Graphics/SVG/1.1/DTD/svg11.dtd">
<!-- Creator: CorelDRAW -->
<svg xmlns="http://www.w3.org/2000/svg" xml:space="preserve" width="2048px" height="2048px" style="shape-rendering:geometricPrecision; text-rendering:geometricPrecision; image-rendering:optimizeQuality; fill-rule:evenodd; clip-rule:evenodd"
viewBox="0 0 2048 2048"
 xmlns:xlink="http://www.w3.org/1999/xlink">
 <defs>
  <style type="text/css">
   <![CDATA[
    .fil7 {fill:none}
    .fil6 {fill:none;fill-rule:nonzero}
    .fil1 {fill:#546E7A}
    .fil0 {fill:#90A4AE}
    .fil2 {fill:#424242;fill-rule:nonzero}
    .fil5 {fill:#546E7A;fill-rule:nonzero}
    .fil8 {fill:#CF9E00;fill-rule:nonzero}
    .fil3 {fill:#EFEBE9;fill-rule:nonzero}
    .fil4 {fill:#FFC400;fill-rule:nonzero}
   ]]>
  </style>
 </defs>
 <g id="Layer_x0020_1">
  <metadata id="CorelCorpID_0Corel-Layer"/>
  <path class="fil0" d="M1351.28 764.812c44.6221,14.7579 82.7197,-1.4752 114.843,-46.0937l0 -76.5627 -102.344 2.34449c0,0 -71.8749,25.7811 -12.4996,120.312z"/>
  <path class="fil1" d="M1441.9 745.943c8.42481,-7.41142 16.4977,-16.4941 24.2232,-27.2256l0 -76.5627 -24.2232 0.555119 0 103.233z"/>
  <g id="_248991000">
   <path id="_248990976" class="fil2" d="M653.415 1121.44c57.0343,0 108.674,23.1213 146.055,60.502 37.3807,37.3807 60.502,89.0209 60.502,146.055 0,57.0343 -23.1213,108.674 -60.502,146.055 -37.3807,37.3807 -89.0209,60.502 -146.055,60.502 -57.0343,0 -108.674,-23.1213 -146.055,-60.502 -37.3807,-37.3807 -60.502,-89.0209 -60.502,-146.055 0,-57.0343 23.1213,-108.674 60.502,-146.055 37.3807,-37.3807 89.0209,-60.502 146.055,-60.502z"/>
   <path id="_248991264" class="fil3" d="M653.415 1181.94c40.3288,0 76.8426,16.3488 103.274,42.7807 26.4319,26.4319 42.7807,62.9457 42.7807,103.274 0,40.3288 -16.3488,76.8426 -42.7807,103.274 -26.4319,26.4319 -62.9457,42.7807 -103.274,42.7807 -40.3288,0 -76.8426,-16.3488 -103.274,-42.7807 -26.4319,-26.4319 -42.7807,-62.9457 -42.7807,-103.274 0,-40.3288 16.3488,-76.8426 42.7807,-103.274 26.4319,-26.4319 62.9457,-42.7807 103.274,-42.7807z"/>
   <path id="_248991240" class="fil2" d="M653.415 1262.14c18.1854,0 34.6512,7.37245 46.5709,19.291 11.9185,11.9197 19.291,28.3855 19.291,46.5709 0,18.1854 -7.37245,34.6512 -19.291,46.5709 -11.9197,11.9185 -28.3855,19.291 -46.5709,19.291 -18.1854,0 -34.6512,-7.37245 -46.5709,-19.291 -11.9185,-11.9197 -19.291,-28.3855 -19.291,-46.5709 0,-18.1854 7.37245,-34.6512 19.291,-46.5709 11.9197,-11.9185 28.3855,-19.291 46.5709,-19.291z"/>
  </g>
  <g id="_248991312">
   <path id="_248991048" class="fil2" d="M1557.01 1121.44c57.0343,0 108.674,23.1213 146.055,60.502 37.3807,37.3807 60.502,89.0209 60.502,146.055 0,57.0343 -23.1213,108.674 -60.502,146.055 -37.3807,37.3807 -89.0209,60.502 -146.055,60.502 -57.0343,0 -108.674,-23.1213 -146.055,-60.502 -37.3807,-37.3807 -60.502,-89.0209 -60.502,-146.055 0,-57.0343 23.1213,-108.674 60.502,-146.055 37.3807,-37.3807 89.0209,-60.502 146.055,-60.502z"/>
   <path id="_248991216" class="fil3" d="M1557.01 1181.94c40.3288,0 76.8426,16.3488 103.274,42.7807 26.4319,26.4319 42.7807,62.9457 42.7807,103.274 0,40.3288 -16.3488,76.8426 -42.7807,103.274 -26.4319,26.4319 -62.9457,42.7807 -103.274,42.7807 -40.3288,0 -76.8426,-16.3488 -103.274,-42.7807 -26.4319,-26.4319 -42.7807,-62.9457 -42.7807,-103.274 0,-40.3288 16.3488,-76.8426 42.7807,-103.274 26.4319,-26.4319 62.9457,-42.7807 103.274,-42.7807z"/>
   <path id="_248991024" class="fil2" d="M1557.01 1262.14c18.1854,0 34.6512,7.37245 46.5709,19.291 11.9185,11.9197 19.291,28.3855 19.291,46.5709 0,18.1854 -7.37245,34.6512 -19.291,46.5709 -11.9197,11.9185 -28.3855,19.291 -46.5709,19.291 -18.1854,0 -34.6512,-7.37245 -46.5709,-19.291 -11.9185,-11.9197 -19.291,-28.3855 -19.291,-46.5709 0,-18.1854 7.37245,-34.6512 19.291,-46.5709 11.9197,-11.9185 28.3855,-19.291 46.5709,-19.291z"/>
  </g>
  <path class="fil4" d="M635.35 823.809l286.916 0 32.0008 0 0 32.0008 0 413.158 0 32.0008 -32.0008 0 -31.8201 0 -0.00826772 -0.0696851 -474.046 0c-27.065,-0.976772 -51.5563,-12.4217 -69.5115,-30.3756 -18.7843,-18.7854 -30.4453,-44.726 -30.4453,-73.2839l0 -54.515c0,-87.7335 35.8689,-167.472 93.6568,-225.259 57.7867,-57.7867 137.524,-93.6568 225.259,-93.6568z"/>
  <path class="fil5" d="M423.283 766.254c-17.6728,0 -32.0008,14.328 -32.0008,32.0008 0,17.6728 14.328,32.0008 32.0008,32.0008l523.933 0c17.6728,0 32.0008,-14.328 32.0008,-32.0008 0,-17.6728 -14.328,-32.0008 -32.0008,-32.0008l-523.933 0z"/>
  <path class="fil4" d="M1028.02 481.442c-17.6728,0 -32.0008,14.328 -32.0008,32.0008 0,17.6728 14.328,32.0008 32.0008,32.0008l202.292 0 198.731 538.493c6.07441,16.5685 24.4311,25.0748 40.9996,19.0004 16.5685,-6.07441 25.0748,-24.4311 19.0004,-40.9996l-205.859 -557.807c-3.98859,-13.1303 -16.1882,-22.689 -30.6225,-22.689l-224.542 0z"/>
  <path class="fil5" d="M1028.02 474.972c-17.6728,0 -32.0008,17.2252 -32.0008,38.4709 0,21.2457 14.328,38.4709 32.0008,38.4709l116.236 0 0 -76.9418 -116.236 0z"/>
  <path class="fil4" d="M1264.24 1289.3c-2.27835,17.465 10.0347,33.4725 27.4996,35.7508 17.465,2.27835 33.4725,-10.0347 35.7508,-27.4996 7.61457,-57.5221 35.9575,-107.786 76.9052,-143.669 40.8945,-35.837 94.4705,-57.3083 152.619,-57.3083 17.5748,0 34.7729,1.90866 51.2776,5.65158 16.8154,3.81496 33.1335,9.46772 48.6402,16.8839 15.8776,7.59331 34.9075,0.87756 42.5008,-15 7.59331,-15.8776 0.87756,-34.9075 -15,-42.5008 -19.9807,-9.55631 -40.8284,-16.8 -62.1402,-21.6343 -21.6177,-4.90276 -43.513,-7.40197 -65.2784,-7.40197 -73.9737,0 -142.305,27.4666 -194.619,73.3099 -52.2579,45.7949 -88.4316,109.963 -98.1556,183.418z"/>
  <path class="fil4" d="M1359.35 753.905l-6.63662 8.5878 26.2193 106.334c4.80591,0.266929 9.62245,1.62874 14.0799,4.19055 15.2563,8.76733 20.5169,28.2437 11.7496,43.5l-211.156 365.736c-5.04685,11.0421 -16.187,18.7158 -29.1201,18.7158l-242.223 0c-17.6728,0 -32.0008,-14.328 -32.0008,-32.0008 0,-13.2992 8.11418,-24.7051 19.6618,-29.5347l-13.9264 -183.434c3.09803,-0.263386 13.0228,0.125197 26.2654,0.865749l0 -31.4233 146.582 0 240.006 -310.537 24.3732 18.8232 9.29883 -12.5634 6.01418 24.3886 10.813 8.35158z"/>
  <g id="_252311808">
   <g>
    <path id="_248990232" class="fil6" d="M542.468 1047.69c0,0 248.245,-102.337 332.344,179.343"/>
    <path id="_248989416" class="fil4" d="M540.088 1041.69c-3.31536,1.31457 -4.93701,5.06811 -3.62244,8.38347 1.31339,3.31536 5.06811,4.93701 8.38347,3.62244 0.69567,-0.275197 241.702,-99.6461 323.756,175.188 1.02047,3.42638 4.62874,5.37874 8.05631,4.35827 3.42638,-1.02047 5.37756,-4.62992 4.35709,-8.05631 -86.1402,-288.522 -340.198,-183.788 -340.93,-183.496z"/>
    <line id="_248989368" class="fil6" x1="510.551" y1="1113.55" x2="708.133" y2= "1113.55" />
    <path id="_248989632" class="fil4" d="M510.551 1107.07c-3.58111,0 -6.48544,2.90433 -6.48544,6.48544 0,3.58229 2.90433,6.48662 6.48544,6.48662l197.582 0c3.58111,0 6.48544,-2.90433 6.48544,-6.48662 0,-3.58111 -2.90433,-6.48544 -6.48544,-6.48544l-197.582 0z"/>
    <line id="_248989680" class="fil6" x1="468.502" y1="1161.68" x2="750.181" y2= "1161.68" />
    <path id="_248989800" class="fil4" d="M468.502 1155.2c-3.58111,0 -6.48544,2.90433 -6.48544,6.48544 0,3.58111 2.90433,6.48544 6.48544,6.48544l281.679 0c3.58111,0 6.48544,-2.90433 6.48544,-6.48544 0,-3.58111 -2.90433,-6.48544 -6.48544,-6.48544l-281.679 0z"/>
    <line id="_248988744" class="fil6" x1="432.025" y1="1210.32" x2="786.658" y2= "1210.32" />
    <path id="_248988432" class="fil4" d="M432.025 1203.83c-3.58111,0 -6.48544,2.90433 -6.48544,6.48544 0,3.58111 2.90433,6.48544 6.48544,6.48544l354.633 0c3.58111,0 6.48544,-2.90433 6.48544,-6.48544 0,-3.58111 -2.90433,-6.48544 -6.48544,-6.48544l-354.633 0z"/>
   </g>
   <g>
    <path id="_252339744" class="fil7" d="M542.468 1047.69c0,0 248.245,-102.337 332.344,179.343"/>
    <path id="_252329064" class="fil8" d="M540.088 1041.69c-3.31536,1.31457 -4.93701,5.06811 -3.62244,8.38347 1.31339,3.31536 5.06811,4.93701 8.38347,3.62244 0.69567,-0.275197 241.702,-99.6461 323.756,175.188 1.02047,3.42638 4.62874,5.37874 8.05631,4.35827 3.42638,-1.02047 5.37756,-4.62992 4.35709,-8.05631 -86.1402,-288.522 -340.198,-183.788 -340.93,-183.496z"/>
    <line id="_252311616" class="fil7" x1="510.551" y1="1113.55" x2="708.133" y2= "1113.55" />
    <path id="_252311472" class="fil8" d="M510.551 1107.07c-3.58111,0 -6.48544,2.90433 -6.48544,6.48544 0,3.58229 2.90433,6.48662 6.48544,6.48662l197.582 0c3.58111,0 6.48544,-2.90433 6.48544,-6.48662 0,-3.58111 -2.90433,-6.48544 -6.48544,-6.48544l-197.582 0z"/>
    <line id="_252311448" class="fil7" x1="468.504" y1="1161.68" x2="750.181" y2= "1161.68" />
    <path id="_252311952" class="fil8" d="M468.502 1155.2c-3.58111,0 -6.48544,2.90433 -6.48544,6.48544 0,3.58111 2.90433,6.48544 6.48544,6.48544l281.679 0c3.58111,0 6.48544,-2.90433 6.48544,-6.48544 0,-3.58111 -2.90433,-6.48544 -6.48544,-6.48544l-281.679 0z"/>
    <line id="_252312000" class="fil7" x1="432.026" y1="1210.32" x2="786.658" y2= "1210.32" />
    <path id="_252311760" class="fil8" d="M432.025 1203.83c-3.58111,0 -6.48544,2.90433 -6.48544,6.48544 0,3.58111 2.90433,6.48544 6.48544,6.48544l354.633 0c3.58111,0 6.48544,-2.90433 6.48544,-6.48544 0,-3.58111 -2.90433,-6.48544 -6.48544,-6.48544l-354.633 0z"/>
   </g>
  </g>
 </g>
 <rect class="fil7" width="2048" height="2048"/>
</svg>
