<?xml version="1.0" encoding="UTF-8"?>
<!DOCTYPE svg PUBLIC "-//W3C//DTD SVG 1.1//EN" "http://www.w3.org/Graphics/SVG/1.1/DTD/svg11.dtd">
<!-- Creator: CorelDRAW -->
<svg xmlns="http://www.w3.org/2000/svg" xml:space="preserve" width="2048px" height="2048px" style="shape-rendering:geometricPrecision; text-rendering:geometricPrecision; image-rendering:optimizeQuality; fill-rule:evenodd; clip-rule:evenodd"
viewBox="0 0 2048 2048"
 xmlns:xlink="http://www.w3.org/1999/xlink">
 <defs>
  <style type="text/css">
   <![CDATA[
    .fil3 {fill:none}
    .fil2 {fill:#212121}
    .fil0 {fill:#26A69A}
    .fil1 {fill:#FB8C00}
   ]]>
  </style>
 </defs>
 <g id="Layer_x0020_1">
  <metadata id="CorelCorpID_0Corel-Layer"/>
  <g id="_248994960">
   <path id="_248995248" class="fil0" d="M1590.84 879.76l0 -337.142c0,-27.1784 13.4232,-49.2213 29.9729,-49.2213 16.5508,0 29.974,22.0429 29.974,49.2213l0 337.142 -59.9469 0z"/>
   <path id="_248995200" class="fil1" d="M1571.59 1388.27l0 -508.906c0,-27.1784 22.0429,-49.2213 49.2213,-49.2213 27.1784,0 49.2213,22.0441 49.2213,49.2213l0 508.906c0,27.1772 -22.0429,49.2213 -49.2213,49.2213 -27.1784,0 -49.2213,-22.0429 -49.2213,-49.2213z"/>
   <path id="_248994648" class="fil1" d="M1197.64 1339.04l385.4 -278.649c21.9874,-15.8977 52.7221,-10.8602 68.5607,11.1461 15.8339,21.9992 10.8118,52.6418 -11.1378,68.5111l-396.038 286.342c-9.24095,6.6815 -19.4906,11.0929 -31.0642,11.0929l-647.789 0c-27.1784,0 -49.2213,-22.0429 -49.2213,-49.2213 0,-27.1784 22.0429,-49.2213 49.2213,-49.2213l632.069 0z"/>
   <path id="_248994528" class="fil0" d="M1417.04 488.54l184.504 0c27.1784,0 49.2213,22.0429 49.2213,49.2213 0,27.1772 -22.0441,49.2201 -49.2213,49.2201l-184.504 0c-27.1772,0 -49.2213,-22.0429 -49.2213,-49.2201 0,-27.1784 22.0429,-49.2213 49.2213,-49.2213z"/>
   <path id="_248994840" class="fil2" d="M1417.04 488.54l52.591 0 0 98.4414 -52.591 0c-27.1772,0 -49.2213,-22.0417 -49.2213,-49.2201 0,-27.1795 22.0441,-49.2213 49.2213,-49.2213z"/>
   <path id="_248995080" class="fil2" d="M548.243 1267.22c-30.9815,-30.9803 -73.7812,-50.1437 -121.05,-50.1437 -47.2701,0 -90.0686,19.1634 -121.05,50.1437 -30.9803,30.9815 -50.1437,73.7812 -50.1437,121.05 0,47.2701 19.1634,90.0686 50.1437,121.05 30.9815,30.9815 73.78,50.1449 121.05,50.1449 47.2689,0 90.0686,-19.1634 121.05,-50.1449 23.6256,-23.6256 40.3784,-54.1229 47.0008,-88.2343 2.06339,-10.6205 3.14292,-21.5917 3.14292,-32.8158 0,-11.2217 -1.07953,-22.1941 -3.14292,-32.8146 -6.62245,-34.1126 -23.3752,-64.6087 -47.0008,-88.2355z"/>
   <path id="_248994984" class="fil2" d="M1741.86 1267.22c-30.9815,-30.9803 -73.7812,-50.1437 -121.05,-50.1437 -47.2701,0 -90.0686,19.1634 -121.05,50.1437 -30.9815,30.9815 -50.1437,73.7812 -50.1437,121.05 0,47.2701 19.1622,90.0686 50.1437,121.05 30.9815,30.9815 73.78,50.1449 121.05,50.1449 47.2689,0 90.0686,-19.1634 121.05,-50.1449 23.6256,-23.6256 40.3784,-54.1229 47.0008,-88.2343 2.06339,-10.6205 3.14292,-21.5917 3.14292,-32.8158 0,-11.2217 -1.07953,-22.1941 -3.14292,-32.8146 -6.62245,-34.1126 -23.3752,-64.6087 -47.0008,-88.2355z"/>
   <path id="_248994816" class="fil0" d="M1668.22 1388.27c0,-13.0843 -5.31024,-24.9402 -13.8886,-33.5197 -8.57835,-8.57835 -20.4343,-13.8874 -33.5197,-13.8874 -13.0878,0 -24.9402,5.30906 -33.5185,13.8874l0.0637796 0.0637796c-8.62323,8.65158 -13.9524,20.4898 -13.9524,33.4559 0,12.9378 5.30433,24.7453 13.8898,33.3898l0.0625985 0.0661418 0.0649607 0.0625985c8.64449,8.58544 20.4532,13.8886 33.3898,13.8886 12.9662,0 24.8055,-5.32914 33.4559,-13.9512l0.0637796 0.0625985c8.57835,-8.57835 13.8886,-20.4307 13.8886,-33.5185z"/>
   <path id="_248994792" class="fil0" d="M474.602 1388.27c0,-13.0843 -5.31024,-24.9402 -13.8886,-33.5197 -8.57835,-8.57835 -20.4343,-13.8874 -33.5185,-13.8874 -13.089,0 -24.9414,5.30906 -33.5197,13.8874l0.0637796 0.0637796c-8.62323,8.65158 -13.9524,20.4898 -13.9524,33.4559 0,12.9378 5.30433,24.7453 13.8898,33.3898l0.0625985 0.0661418 0.0649607 0.0625985c8.64449,8.58544 20.4532,13.8886 33.391,13.8886 12.965,0 24.8043,-5.32914 33.4548,-13.9512l0.0637796 0.0625985c8.57835,-8.57835 13.8886,-20.4307 13.8886,-33.5185z"/>
  </g>
 </g>
 <rect class="fil3" width="2048" height="2048"/>
</svg>
