<?xml version="1.0" encoding="UTF-8"?>
<!DOCTYPE svg PUBLIC "-//W3C//DTD SVG 1.1//EN" "http://www.w3.org/Graphics/SVG/1.1/DTD/svg11.dtd">
<!-- Creator: CorelDRAW -->
<svg xmlns="http://www.w3.org/2000/svg" xml:space="preserve" width="2048px" height="2048px" style="shape-rendering:geometricPrecision; text-rendering:geometricPrecision; image-rendering:optimizeQuality; fill-rule:evenodd; clip-rule:evenodd"
viewBox="0 0 2048 2048"
 xmlns:xlink="http://www.w3.org/1999/xlink">
 <defs>
  <style type="text/css">
   <![CDATA[
    .fil4 {fill:none}
    .fil3 {fill:#5D4037}
    .fil1 {fill:#263238;fill-rule:nonzero}
    .fil0 {fill:#5D4037;fill-rule:nonzero}
    .fil2 {fill:#FF7043;fill-rule:nonzero}
   ]]>
  </style>
 </defs>
 <g id="Layer_x0020_1">
  <metadata id="CorelCorpID_0Corel-Layer"/>
  <g id="_415917624">
   <polygon id="_415918512" class="fil0" points="1198.91,1124.4 1092.66,688.419 1069.86,594.892 1142.55,650.965 1756.23,1124.4 "/>
   <path id="_415918416" class="fil1" d="M1119.39 935.37l-249.369 0c-15.3106,0 -28.1339,11.5595 -31.4823,27.0815l-20.4662 68.9564 -107.668 0 -94.2957 -85.1327 -20.589 26.8902 20.6681 -27.0107c-6.04489,-5.45788 -13.3784,-8.11536 -20.6681,-8.11064l0 -0.00236221 -204.536 0c-17.8571,0 -32.3351,15.7264 -32.3351,35.1236 0,7.98662 2.45788,15.3508 6.59174,21.2516l83.126 129.986 717.094 0 -46.0701 -189.033z"/>
   <path id="_415918176" class="fil2" d="M288.334 1114.7l1471.33 0 32.3351 0 0 32.3351 0 0.0011811c0,84.2032 -34.4244,160.729 -89.882,216.189 -55.4599,55.4575 -131.986,89.882 -216.189,89.882l-923.859 0c-84.2032,0 -160.729,-34.4244 -216.189,-89.882 -55.4575,-55.4599 -89.882,-131.986 -89.882,-216.189l0 -0.0011811 0 -32.3351 32.3351 0z"/>
   <path id="_415918032" class="fil0" d="M1160.83 875.147c17.2299,4.60276 34.9311,-5.6315 39.5339,-22.8614 4.60276,-17.2299 -5.6315,-34.9311 -22.8614,-39.5339l-274.321 -73.5036c-17.2299,-4.60276 -34.9311,5.6315 -39.5339,22.8614 -4.60276,17.2299 5.6315,34.9299 22.8614,39.5339l274.321 73.5036z"/>
   <path id="_415917192" class="fil1" d="M983.965 760.894l-80.7839 -21.6461c-17.2299,-4.60276 -34.9311,5.6315 -39.5339,22.8614 -4.60276,17.2299 5.6315,34.9299 22.8614,39.5339l81.6131 21.8681 15.8433 -62.6174z"/>
   <path id="_415917672" class="fil3" d="M1485.93 1453.11c84.2032,0 160.729,-34.4244 216.189,-89.882 31.1705,-31.1729 55.6973,-69.0001 71.2004,-111.105 -518.632,102.181 -1014.24,142.726 -1366.85,158.226 45.6579,27.1429 98.8902,42.7607 155.606,42.7607l923.859 0z"/>
  </g>
 </g>
 <rect class="fil4" width="2048" height="2048"/>
</svg>
