<?xml version="1.0" encoding="UTF-8"?>
<!DOCTYPE svg PUBLIC "-//W3C//DTD SVG 1.1//EN" "http://www.w3.org/Graphics/SVG/1.1/DTD/svg11.dtd">
<!-- Creator: CorelDRAW -->
<svg xmlns="http://www.w3.org/2000/svg" xml:space="preserve" width="6.82666in" height="6.82666in" style="shape-rendering:geometricPrecision; text-rendering:geometricPrecision; image-rendering:optimizeQuality; fill-rule:evenodd; clip-rule:evenodd"
viewBox="0 0 6.82666 6.82666"
 xmlns:xlink="http://www.w3.org/1999/xlink">
 <defs>
  <style type="text/css">
   <![CDATA[
    .fil5 {fill:none}
    .fil3 {fill:#4BB5E4}
    .fil0 {fill:#47A8D3;fill-rule:nonzero}
    .fil2 {fill:#4BB5E4;fill-rule:nonzero}
    .fil1 {fill:#81D4FA;fill-rule:nonzero}
    .fil4 {fill:#B3E5FC;fill-rule:nonzero}
   ]]>
  </style>
 </defs>
 <g id="Layer_x0020_1">
  <metadata id="CorelCorpID_0Corel-Layer"/>
  <g id="_275208024">
   <path id="_435141640" class="fil0" d="M3.41333 5.264c0.186528,0 0.357748,0.102776 0.483772,0.144776 0.159476,0.0531614 0.258118,0.140126 0.258118,0.248283 0,0.108157 -0.0986457,0.195122 -0.258118,0.248283 -0.126024,0.042 -0.297244,0.0679882 -0.483772,0.0679882 -0.186528,0 -0.357748,-0.0259882 -0.483772,-0.0679882 -0.159472,-0.0531614 -0.258118,-0.140126 -0.258118,-0.248283 0,-0.108157 0.0986417,-0.195122 0.258118,-0.248283 0.126024,-0.042 0.297244,-0.144776 0.483772,-0.144776z"/>
   <path id="_275228640" class="fil1" d="M4.0424 5.62912c-0.0263425,0.068122 -0.10261,0.123213 -0.212248,0.15976 -0.108583,0.0361929 -0.256106,0.0585787 -0.416819,0.0585787 -0.160713,0 -0.308236,-0.0223858 -0.416819,-0.0585787 -0.109638,-0.0365472 -0.185906,-0.0916378 -0.212248,-0.15976 0.0357992,0.0477165 0.106469,0.0866772 0.201709,0.113921 0.111331,0.0318425 0.262583,0.0515394 0.427358,0.0515394 0.164776,0 0.316028,-0.0196969 0.427358,-0.0515394 0.0952362,-0.0272441 0.165909,-0.0662047 0.201709,-0.113921z"/>
   <path id="_275241120" class="fil2" d="M3.5168 3.31616l0 2.08827c-0.0362008,0.0718701 -0.186232,0.0695787 -0.206929,0l0 -2.08827 0.206929 0z"/>
   <path id="_275225976" class="fil1" d="M1.90432 1.00722l1.50901 0 1.50901 0 0.103465 3.93701e-006 0 0.103461c0,0.630091 -0.175854,1.20217 -0.460165,1.6177 -0.292213,0.427079 -0.699406,0.691236 -1.15231,0.691236 -0.452902,0 -0.860094,-0.264157 -1.15231,-0.691236 -0.284311,-0.415531 -0.460165,-0.98761 -0.460165,-1.6177l0 -0.103461 0.103465 -3.93701e-006z"/>
   <ellipse id="_275212536" class="fil3" cx="3.41333" cy="1.01791" rx="1.61715" ry="0.164577"/>
   <path id="_275207952" class="fil4" d="M4.70613 1.18795l0.015689 0 0 0.0839843c0,0.209295 -0.0239134,0.410697 -0.0679646,0.598744 0.038311,-0.212031 0.0567638,-0.441701 0.0522756,-0.682728zm-1.43658 1.94733c-0.309866,-0.0478346 -0.586189,-0.24911 -0.792142,-0.550118 -0.230803,-0.337323 -0.373559,-0.801732 -0.373559,-1.31323l0 -0.0839843 7.48031e-005 0c0.0752283,0.515929 0.246988,0.979878 0.47502,1.32996 0.196335,0.301413 0.434654,0.519638 0.690606,0.617378z"/>
  </g>
  <rect class="fil5" width="6.82666" height="6.82666"/>
 </g>
</svg>
