<?xml version="1.0" encoding="UTF-8"?>
<!DOCTYPE svg PUBLIC "-//W3C//DTD SVG 1.1//EN" "http://www.w3.org/Graphics/SVG/1.1/DTD/svg11.dtd">
<!-- Creator: CorelDRAW -->
<svg xmlns="http://www.w3.org/2000/svg" xml:space="preserve" width="6.82666in" height="6.82666in" style="shape-rendering:geometricPrecision; text-rendering:geometricPrecision; image-rendering:optimizeQuality; fill-rule:evenodd; clip-rule:evenodd"
viewBox="0 0 6.82666 6.82666"
 xmlns:xlink="http://www.w3.org/1999/xlink">
 <defs>
  <style type="text/css">
   <![CDATA[
    .fil5 {fill:none}
    .fil3 {fill:#7E2E1E}
    .fil2 {fill:#424242;fill-rule:nonzero}
    .fil0 {fill:#795548;fill-rule:nonzero}
    .fil4 {fill:#A06937;fill-rule:nonzero}
    .fil1 {fill:#BA7C42;fill-rule:nonzero}
   ]]>
  </style>
 </defs>
 <g id="Layer_x0020_1">
  <metadata id="CorelCorpID_0Corel-Layer"/>
  <g id="_435141928">
   <path id="_435142744" class="fil0" d="M4.67267 1.89601c0.000346457,-1.5748e-005 0.113346,-0.0062126 0.295701,-0.0135197 0,-0.00767323 0.475067,-0.043126 0.622134,0.212169 0.086374,0.149937 0.0753307,0.391213 -0.0144803,0.776272 -0.0266535,0.114283 -0.0540787,0.240665 -0.0794803,0.357728 -0.191106,0.880827 -0.269929,1.24408 -1.23677,1.24408l0 -0.191087c0.762815,0 0.755469,-0.337224 0.92215,-1.10548 0.0226614,-0.104449 0.0470984,-0.217075 0.0804291,-0.359969 0.0591496,-0.253622 0.193492,-0.586287 -0.282154,-0.586287 -0.152555,0.00611417 -0.292961,0.0135197 -0.293339,0.0135394l-0.0141929 -0.347453z"/>
   <path id="_435142168" class="fil1" d="M4.86206 1.33332l-0.558461 4.03454c-0.0107559,0.139504 -0.0671181,0.267291 -0.155118,0.359512 -0.0879291,0.0921535 -0.206295,0.149209 -0.342315,0.149209l-1.6031 0c-0.136024,0 -0.25439,-0.0570551 -0.342319,-0.149209 -0.0879961,-0.0922244 -0.144358,-0.220004 -0.155114,-0.359512l-0.521047 -4.03461c0.117378,0.144984 0.895854,0.257012 1.83877,0.257012 0.94276,0 1.72114,-0.111988 1.83871,-0.256941z"/>
   <path id="_435142072" class="fil2" d="M1.39637 2.22994l4.72441e-005 0.000633858 2.75591e-005 4.72441e-005c-7.08661e-005,-0.000724409 -0.000141732,-0.00155512 -7.48031e-005,-0.000681102z"/>
   <path id="_435142768" class="fil2" d="M4.65025 2.23062l2.75591e-005 -4.72441e-005 4.72441e-005 -0.000637795c6.69291e-005,-0.000874016 -3.93701e-006,-4.33071e-005 -7.48031e-005,0.000685039z"/>
   <ellipse id="_435142096" class="fil3" cx="3.02335" cy="1.29517" rx="1.79636" ry="0.295091"/>
   <path id="_435141568" class="fil4" d="M3.02335 0.950083c0.498224,0 0.950217,0.0333268 1.27822,0.0872087 0.351012,0.0576614 0.568134,0.148181 0.568134,0.257882 0,0.109701 -0.217122,0.20022 -0.568134,0.257882 -0.328008,0.0538819 -0.78,0.0872087 -1.27822,0.0872087 -0.498224,0 -0.950217,-0.0333268 -1.27822,-0.0872087 -0.351012,-0.0576614 -0.568134,-0.148181 -0.568134,-0.257882 0,-0.109701 0.217122,-0.20022 0.568134,-0.257882 0.328008,-0.0538819 0.78,-0.0872087 1.27822,-0.0872087zm1.26221 0.18565c-0.322146,-0.0529173 -0.768335,-0.0856496 -1.26221,-0.0856496 -0.493874,0 -0.940063,0.0327323 -1.26221,0.0856496 -0.299126,0.0491378 -0.48415,0.106169 -0.48415,0.159441 0,0.0532717 0.185024,0.110303 0.48415,0.159441 0.322146,0.0529173 0.768335,0.0856496 1.26221,0.0856496 0.493874,0 0.940063,-0.0327323 1.26221,-0.0856496 0.299126,-0.0491378 0.48415,-0.106169 0.48415,-0.159441 0,-0.0532717 -0.185024,-0.110303 -0.48415,-0.159441z"/>
  </g>
  <rect class="fil5" width="6.82666" height="6.82666"/>
 </g>
</svg>
