<?xml version="1.0" encoding="UTF-8"?>
<!DOCTYPE svg PUBLIC "-//W3C//DTD SVG 1.1//EN" "http://www.w3.org/Graphics/SVG/1.1/DTD/svg11.dtd">
<!-- Creator: CorelDRAW -->
<svg xmlns="http://www.w3.org/2000/svg" xml:space="preserve" width="6.82666in" height="6.82666in" style="shape-rendering:geometricPrecision; text-rendering:geometricPrecision; image-rendering:optimizeQuality; fill-rule:evenodd; clip-rule:evenodd"
viewBox="0 0 6.82666 6.82666"
 xmlns:xlink="http://www.w3.org/1999/xlink">
 <defs>
  <style type="text/css">
   <![CDATA[
    .fil0 {fill:none}
    .fil5 {fill:#487928}
    .fil4 {fill:#558B2F}
    .fil2 {fill:#C80202}
    .fil1 {fill:#DE0202}
    .fil3 {fill:#E43232}
   ]]>
  </style>
 </defs>
 <g id="Layer_x0020_1">
  <metadata id="CorelCorpID_0Corel-Layer"/>
  <rect class="fil0" width="6.82666" height="6.82666"/>
  <g id="_435144472">
   <ellipse id="_435145048" class="fil1" cx="3.41333" cy="3.66619" rx="2.56" ry="2.11088"/>
   <path id="_435144520" class="fil2" d="M1.20669 4.73698c0.445224,0.622465 1.26678,1.04009 2.20664,1.04009 0.939854,0 1.76141,-0.417622 2.20664,-1.04009 -1.74539,0.714394 -2.67341,0.712594 -4.41328,0z"/>
   <path id="_435145024" class="fil3" d="M1.79172 2.80422c0.327185,0.345957 0.930933,0.578067 1.62161,0.578067 0.690677,0 1.29442,-0.23211 1.62161,-0.578067 -1.28265,0.397051 -1.96463,0.396051 -3.24322,0z"/>
   <path id="_435144616" class="fil4" d="M3.39885 1.04959c0.0900157,0.39828 0.194488,0.154421 0.284504,0.552697 0.631146,-0.153268 1.22369,0.325949 1.85484,0.172681 -0.541154,0.245 -1.04371,-0.14248 -1.58486,0.10252 0.54115,0.245 0.609157,0.76522 1.15031,1.01022 -0.631165,-0.153268 -0.78915,-0.581756 -1.42031,-0.735024 -0.0899961,0.39828 -0.0013622,0.791732 -0.0913583,1.19001 -0.0900157,-0.39828 -0.421409,-0.666201 -0.448669,-1.19001 -0.631146,0.153268 -1.03539,0.712114 -1.66654,0.865382 0.54115,-0.245 0.855402,-0.895579 1.39655,-1.14058 -0.54115,-0.245 -1.07266,-0.00719685 -1.61381,-0.252197 0.631165,0.153268 1.25265,-0.176272 1.88382,-0.0230039 0.0899961,-0.398276 0.165531,-0.154417 0.255524,-0.552697z"/>
   <path id="_435144712" class="fil5" d="M3.65964 1.79061c0.0382835,0.0338071 0.060874,0.0753701 0.060874,0.120327 0,0.113323 -0.143465,0.205193 -0.320445,0.205193 -0.176976,0 -0.320445,-0.0918701 -0.320445,-0.205193 0,-0.0974961 0.106185,-0.179106 0.248539,-0.200008 0.427366,-0.560102 0.720406,-0.598941 0.72126,-0.598476l-0.0154016 0.218394c-0.0634921,-0.0211969 -0.492657,0.311323 -0.374382,0.459764z"/>
  </g>
  <rect class="fil0" width="6.82666" height="6.82666"/>
 </g>
</svg>
