<?xml version="1.0" encoding="UTF-8"?>
<!DOCTYPE svg PUBLIC "-//W3C//DTD SVG 1.1//EN" "http://www.w3.org/Graphics/SVG/1.1/DTD/svg11.dtd">
<!-- Creator: CorelDRAW -->
<svg xmlns="http://www.w3.org/2000/svg" xml:space="preserve" width="6.82666in" height="6.82666in" style="shape-rendering:geometricPrecision; text-rendering:geometricPrecision; image-rendering:optimizeQuality; fill-rule:evenodd; clip-rule:evenodd"
viewBox="0 0 6.82666 6.82666"
 xmlns:xlink="http://www.w3.org/1999/xlink">
 <defs>
  <style type="text/css">
   <![CDATA[
    .fil9 {fill:none}
    .fil0 {fill:#4BB5E4}
    .fil6 {fill:#F9A625}
    .fil7 {fill:#FAB82A}
    .fil1 {fill:#47A8D3;fill-rule:nonzero}
    .fil3 {fill:#4BB5E4;fill-rule:nonzero}
    .fil2 {fill:#81D4FA;fill-rule:nonzero}
    .fil8 {fill:#B3E5FC;fill-rule:nonzero}
    .fil5 {fill:#FD9A0A;fill-rule:nonzero}
    .fil4 {fill:#FDCF69;fill-rule:nonzero}
   ]]>
  </style>
 </defs>
 <g id="Layer_x0020_1">
  <metadata id="CorelCorpID_0Corel-Layer"/>
  <ellipse class="fil0" cx="3.41333" cy="2.33001" rx="1.1883" ry="0.120933"/>
  <path class="fil1" d="M3.41333 5.4501c0.137063,0 0.262878,0.0755197 0.35548,0.106382 0.117185,0.039063 0.189669,0.102969 0.189669,0.182441 0,0.0794764 -0.0724882,0.143382 -0.189669,0.182441 -0.0926024,0.0308661 -0.218417,0.0499606 -0.35548,0.0499606 -0.137063,0 -0.262878,-0.0190945 -0.355484,-0.0499606 -0.117181,-0.0390591 -0.189669,-0.102965 -0.189669,-0.182441 0,-0.0794724 0.0724843,-0.143378 0.189669,-0.182441 0.0926063,-0.0308622 0.218421,-0.106382 0.355484,-0.106382z"/>
  <path class="fil2" d="M3.87558 5.71839c-0.0193583,0.0500591 -0.0754016,0.0905394 -0.155965,0.117398 -0.0797874,0.0265906 -0.188189,0.0430433 -0.306283,0.0430433 -0.118094,0 -0.226496,-0.0164528 -0.306287,-0.0430433 -0.080563,-0.0268583 -0.136602,-0.0673386 -0.155961,-0.117398 0.0263071,0.0350669 0.0782362,0.0636929 0.148217,0.0837126 0.0818071,0.0233976 0.192953,0.037874 0.314031,0.037874 0.121079,0 0.23222,-0.0144764 0.314028,-0.037874 0.0699803,-0.0200197 0.121913,-0.0486457 0.14822,-0.0837126z"/>
  <path class="fil3" d="M3.48936 4.0188l0 1.53449c-0.0266024,0.052811 -0.136846,0.051126 -0.152055,0l0 -1.53449 0.152055 0z"/>
  <g id="_273792784">
   <path id="_273792232" class="fil4" d="M3.99896 1.52035c0.120713,0.0317323 0.226634,0.0950197 0.305827,0.181929 0.364929,0.400492 0.092748,0.673819 -0.00684252,0.764902 -0.0986535,0.0902283 -0.239122,0.141165 -0.410287,0.141165l0 -0.000188976 -0.0033622 -3.93701e-006 0 -0.0474016 -0.000114173 0.0475827c-0.00152362,0 -0.0030315,-7.08661e-005 -0.00451969,-0.000200787l-1.04827 -0.00433858 0.00019685 -0.0474016 -0.000220472 0.0475866c-0.00443307,-1.5748e-005 -0.00873228,-0.000574803 -0.0128268,-0.00161024 -0.441177,-0.0839252 -0.620165,-0.600587 -0.361449,-0.934354 0.0666339,-0.0859685 0.157244,-0.154307 0.262512,-0.196236 -0.0865354,-0.199256 0.0628031,-0.307114 0.229091,-0.396303 -0.0551575,-0.100787 0.00329921,-0.181524 0.101008,-0.255335 0.0437008,-0.0330079 0.0944843,-0.0635236 0.145264,-0.0940354 0.0488465,-0.0293465 0.097689,-0.0587008 0.136591,-0.0880866 0.0677717,-0.051189 0.106484,-0.105303 0.0528071,-0.168673 -0.00294882,0.00222835 -0.0273386,-0.0402913 0.00767717,-0.0667362 0.00929921,-0.00702362 0.0204291,-0.0104331 0.0314803,-0.0104252 0,-0.00177559 0.0441417,0.00412598 0.0479646,0.00488583 0.121606,0.0240827 0.233327,0.139035 0.31348,0.276559 0.0776693,0.13326 0.127587,0.29015 0.127587,0.403756 0,0.0124449 -0.000610236,0.0245551 -0.0018622,0.0362598 0.00585433,0.00437795 0.0114921,0.00877165 0.0169134,0.0131811 0.134685,0.109457 0.166169,0.249622 0.0713583,0.393524z"/>
   <path id="_273792640" class="fil5" d="M2.9915 2.37676c0.0278346,0 0.0504016,-0.0213071 0.0504016,-0.0475906 0,-0.0262795 -0.0225669,-0.0475866 -0.0504016,-0.0475866 -0.0815157,0 -0.155315,-0.0311969 -0.208728,-0.0816299 -0.0534094,-0.0504331 -0.0864488,-0.120118 -0.0864488,-0.197087 0,-0.0389646 0.00848819,-0.0768425 0.0244528,-0.111421 0.0160354,-0.0347402 0.0396299,-0.0664331 0.069752,-0.0928622 0.0203307,-0.0178622 0.0214764,-0.0479055 0.00255906,-0.0671024 -0.0189173,-0.0191969 -0.0507362,-0.0202795 -0.0710709,-0.00241732 -0.0402441,0.035311 -0.0718268,0.0777913 -0.093374,0.124461 -0.0216181,0.0468307 -0.0331181,0.0976102 -0.0331181,0.149343 0,0.103236 0.0443268,0.196717 0.115984,0.264378 0.0716575,0.0676614 0.170657,0.109516 0.279992,0.109516z"/>
   <path id="_273792904" class="fil6" d="M2.94784 1.07593c0.257161,-0.0974055 0.811197,-0.0711339 0.963134,0.0348937 0.00105512,-0.0108228 0.0015748,-0.0219882 0.0015748,-0.0334409 0,-0.113606 -0.0499173,-0.270496 -0.127587,-0.403756 -0.0801535,-0.137524 -0.191874,-0.252476 -0.31348,-0.276559 -0.00382283,-0.000759843 -0.0479646,-0.00666142 -0.0479646,-0.00488583 -0.0110512,-7.87402e-006 -0.0221811,0.00340157 -0.0314803,0.0104252 -0.0350157,0.0264449 -0.010626,0.0689646 -0.00767717,0.0667362 0.0536772,0.0633701 0.0149646,0.117484 -0.0528071,0.168673 -0.0389016,0.0293858 -0.0877441,0.0587402 -0.136591,0.0880866 -0.0507795,0.0305118 -0.101563,0.0610276 -0.145264,0.0940354 -0.0977087,0.073811 -0.156165,0.154547 -0.101008,0.255335 -0.000283465,0.000149606 -0.000566929,0.00030315 -0.000850394,0.000456693z"/>
   <path id="_273792832" class="fil7" d="M2.95869 1.42111c0.163252,0 0.311709,0.0598031 0.42215,0.157469 0.101984,-0.0701969 0.227606,-0.111622 0.363476,-0.111622 0.091126,0 0.177638,0.0186339 0.255504,0.0520827 0.0937559,-0.143441 0.0620551,-0.283087 -0.0722205,-0.392209 -0.00542126,-0.00440945 -0.0110591,-0.00880315 -0.0169134,-0.0131811 0.000102362,-0.000937008 0.00019685,-0.00187795 0.000287402,-0.0028189 -0.151937,-0.106028 -0.705972,-0.132299 -0.963134,-0.0348937 -0.164665,0.0884094 -0.312331,0.195268 -0.230197,0.391256 0.074063,-0.0296693 0.155524,-0.0460827 0.241047,-0.0460827z"/>
  </g>
  <path class="fil2" d="M4.5982 2.33927l0 0.0589134c0,0.462996 -0.12922,0.88337 -0.338134,1.18871 -0.214724,0.313823 -0.513933,0.507929 -0.846732,0.507929 -0.332799,0 -0.632008,-0.194106 -0.846732,-0.507929 -0.208913,-0.305339 -0.338134,-0.725713 -0.338134,-1.18871l0 -0.0589134c0.0464764,0.0624606 0.559197,0.111673 1.18487,0.111673 0.625669,0 1.13839,-0.0492126 1.18487,-0.111673z"/>
  <path class="fil8" d="M4.3633 2.45496l0.0115276 0 0 0.0617126c0,0.153791 -0.0175709,0.301787 -0.0499409,0.439965 0.0281496,-0.155803 0.0417126,-0.324567 0.0384134,-0.501677zm-1.05562 1.43093c-0.227693,-0.0351457 -0.43074,-0.183047 -0.582079,-0.404232 -0.169594,-0.24787 -0.274492,-0.589122 -0.274492,-0.96498l0 -0.0617126 5.51181e-005 0c0.0552756,0.37911 0.181488,0.720028 0.349051,0.977268 0.144268,0.221484 0.319386,0.381839 0.507465,0.453657z"/>
  <rect class="fil9" width="6.82666" height="6.82666"/>
 </g>
</svg>
