<?xml version="1.0" encoding="UTF-8"?>
<!DOCTYPE svg PUBLIC "-//W3C//DTD SVG 1.1//EN" "http://www.w3.org/Graphics/SVG/1.1/DTD/svg11.dtd">
<!-- Creator: CorelDRAW -->
<svg xmlns="http://www.w3.org/2000/svg" xml:space="preserve" width="6.82666in" height="6.82666in" style="shape-rendering:geometricPrecision; text-rendering:geometricPrecision; image-rendering:optimizeQuality; fill-rule:evenodd; clip-rule:evenodd"
viewBox="0 0 6.82666 6.82666"
 xmlns:xlink="http://www.w3.org/1999/xlink">
 <defs>
  <style type="text/css">
   <![CDATA[
    .fil3 {fill:none}
    .fil2 {fill:#9E2F0D}
    .fil1 {fill:#358939;fill-rule:nonzero}
    .fil0 {fill:#BF360C;fill-rule:nonzero}
   ]]>
  </style>
 </defs>
 <g id="Layer_x0020_1">
  <metadata id="CorelCorpID_0Corel-Layer"/>
  <g id="_438951696">
   <path id="_438952872" class="fil0" d="M5.88608 2.97261c-0.228346,0.559327 -0.898394,1.22922 -1.70945,1.79477 -1.09966,0.766783 -1.98363,1.14469 -3.30299,1.26152 2.0281,-1.23292 2.27382,-1.93636 3.31608,-3.89022 0.000606299,-0.00112992 0.0931969,-0.178083 0.25,-0.346646 0.383378,-0.0959213 0.767984,-0.0917441 1.01318,0.10937 0.30435,0.123315 0.411996,0.616709 0.433177,1.0712z"/>
   <path id="_438952152" class="fil1" d="M5.12569 1.60206c0.287717,-0.117185 0.510098,0.0134646 0.620417,0.0825157 0.0307362,-0.0822598 0.0395787,-0.194941 0.0371457,-0.313728 -0.00392126,-0.191327 -0.0395906,-0.39828 -0.0634213,-0.53535l0.207323 -0.0359961c0.0247598,0.142406 0.0618228,0.357524 0.0660984,0.566472 0.00394488,0.192594 -0.0213701,0.378878 -0.109949,0.504657 0.0257598,0.066563 0.0371063,0.137661 0.0338976,0.208374 -0.00345669,0.0761142 0.00092126,0.149543 -0.036248,0.218402 0.0584646,0.165783 0.0580945,0.530146 0.0137205,0.691752 -0.0370315,-0.0663465 -0.152783,-0.663878 -0.200555,-0.565047 -0.0664055,0.13737 -0.264618,0.598634 -0.309075,0.514043 -0.0507402,-0.0965354 0.134343,-0.691228 0.0535276,-0.73237 -0.0436732,-0.0222323 -0.356642,0.35511 -0.449795,0.305248 -0.0652008,-0.0534803 0.195957,-0.475894 0.124323,-0.492016 -0.12411,-0.0279331 -0.377272,0.213398 -0.596673,0.195547 -0.0458858,-0.00373622 0.363228,-0.372134 0.316417,-0.435787 -0.0404528,-0.0550079 -0.455461,0.143091 -0.492126,0.131358 0.121425,-0.268882 0.504035,-0.362457 0.784972,-0.308075z"/>
   <path id="_438952080" class="fil2" d="M5.46902 3.11595c-0.390913,0.769795 -1.19184,1.36731 -1.89721,1.83947 -0.329701,0.220693 -0.729996,0.484984 -1.10666,0.608311l0.113307 -0.0775709c0.890701,-0.583291 2.23631,-1.47635 2.69755,-2.44744l0.193016 0.0772362z"/>
  </g>
  <rect class="fil3" width="6.82666" height="6.82666"/>
 </g>
</svg>
