<?xml version="1.0" encoding="UTF-8"?>
<!DOCTYPE svg PUBLIC "-//W3C//DTD SVG 1.1//EN" "http://www.w3.org/Graphics/SVG/1.1/DTD/svg11.dtd">
<!-- Creator: CorelDRAW -->
<svg xmlns="http://www.w3.org/2000/svg" xml:space="preserve" width="6.82666in" height="6.82666in" style="shape-rendering:geometricPrecision; text-rendering:geometricPrecision; image-rendering:optimizeQuality; fill-rule:evenodd; clip-rule:evenodd"
viewBox="0 0 6.82666 6.82666"
 xmlns:xlink="http://www.w3.org/1999/xlink">
 <defs>
  <style type="text/css">
   <![CDATA[
    .fil9 {fill:none}
    .fil2 {fill:#6B3F28}
    .fil6 {fill:#754529}
    .fil3 {fill:#9D5A31}
    .fil4 {fill:#A36C3C}
    .fil7 {fill:#B36634}
    .fil8 {fill:#BA7C42}
    .fil1 {fill:#D39852}
    .fil5 {fill:#F5B35D}
    .fil0 {fill:#FDD39B}
   ]]>
  </style>
 </defs>
 <g id="Layer_x0020_1">
  <metadata id="CorelCorpID_0Corel-Layer"/>
  <g id="_271400592">
   <g>
    <path id="_436958064" class="fil0" d="M3.51407 3.52989c0.656764,0 1.2538,0.0732717 1.68815,0.191732 0.405622,0.110622 0.695185,0.145969 0.765433,0.334551 0.011811,0.0317126 0.0015,0.188138 0.0015,0.221425 0,0.231209 -0.293087,0.426756 -0.766929,0.55598 -0.434354,0.118461 -1.03139,0.191728 -1.68816,0.191728 -0.65676,0 -1.25381,-0.0732677 -1.68816,-0.191728 -0.473843,-0.129224 -0.766929,-0.324772 -0.766929,-0.55598 0,-0.0324173 -0.010626,-0.162508 0.000582677,-0.193433 0.0687638,-0.189669 0.358941,-0.251433 0.76635,-0.362543 0.434346,-0.118461 1.03139,-0.191732 1.68815,-0.191732z"/>
    <path id="_436957704" class="fil1" d="M3.51407 3.34024c0.656764,0 1.2538,0.0732677 1.68815,0.191728 0.473846,0.129228 0.766933,0.324772 0.766933,0.55598 0,0.231209 -0.293087,0.426752 -0.766929,0.55598 -0.434354,0.118461 -1.03139,0.191728 -1.68816,0.191728 -0.65676,0 -1.25381,-0.0732677 -1.68816,-0.191728 -0.473843,-0.129228 -0.766929,-0.324772 -0.766929,-0.55598 0,-0.231209 0.293087,-0.426752 0.766933,-0.55598 0.434346,-0.118461 1.03139,-0.191728 1.68815,-0.191728z"/>
    <path id="_436958112" class="fil2" d="M3.6823 3.71365c0.103539,0 0.187476,0.0581614 0.187476,0.129906 0,0.071748 -0.083937,0.129909 -0.187476,0.129909 -0.103543,0 -0.187484,-0.0581614 -0.187484,-0.129909 0,-0.0717441 0.0839409,-0.129906 0.187484,-0.129906z"/>
    <path id="_436956840" class="fil3" d="M3.26973 3.78165c0.103543,0 0.18748,0.0581614 0.18748,0.129906 0,0.071752 -0.083937,0.129913 -0.18748,0.129913 -0.103543,0 -0.18748,-0.0581614 -0.18748,-0.129913 0,-0.0717441 0.083937,-0.129906 0.18748,-0.129906z"/>
    <path id="_436957440" class="fil2" d="M3.43834 4.07997c0.0785787,0 0.14228,0.0441417 0.14228,0.0985906 0,0.0544488 -0.0637008,0.0985906 -0.14228,0.0985906 -0.0785787,0 -0.14228,-0.0441417 -0.14228,-0.0985906 0,-0.0544488 0.0637008,-0.0985906 0.14228,-0.0985906z"/>
    <path id="_436957512" class="fil3" d="M3.0602 4.21681c0.0785787,0 0.14228,0.0441417 0.14228,0.0985906 0,0.0544488 -0.0637008,0.0985906 -0.14228,0.0985906 -0.0785827,0 -0.14228,-0.0441417 -0.14228,-0.0985906 0,-0.0544488 0.0636969,-0.0985906 0.14228,-0.0985906z"/>
    <path id="_436957272" class="fil2" d="M2.8738 3.76855c0.0785787,0 0.14228,0.0441378 0.14228,0.0985866 0,0.0544528 -0.0637008,0.0985906 -0.14228,0.0985906 -0.0785748,0 -0.14228,-0.0441378 -0.14228,-0.0985906 0,-0.0544488 0.0637047,-0.0985866 0.14228,-0.0985866z"/>
    <path id="_436956912" class="fil3" d="M2.63335 3.98714c0.0785787,0 0.14228,0.0441378 0.14228,0.0985866 0,0.0544567 -0.0637008,0.0985945 -0.14228,0.0985945 -0.0785748,0 -0.142276,-0.0441378 -0.142276,-0.0985945 0,-0.0544488 0.0637008,-0.0985866 0.142276,-0.0985866z"/>
    <path id="_436956768" class="fil2" d="M4.1352 3.79377c0.0785787,0 0.14228,0.0441378 0.14228,0.0985866 0,0.0544488 -0.0637008,0.0985906 -0.14228,0.0985906 -0.0785827,0 -0.14228,-0.0441417 -0.14228,-0.0985906 0,-0.0544488 0.0636969,-0.0985866 0.14228,-0.0985866z"/>
    <path id="_436956072" class="fil3" d="M4.09585 4.12603c0.0785787,0 0.14228,0.0441378 0.14228,0.0985866 0,0.0544488 -0.0637008,0.0985906 -0.14228,0.0985906 -0.0785827,0 -0.14228,-0.0441417 -0.14228,-0.0985906 0,-0.0544488 0.0636969,-0.0985866 0.14228,-0.0985866z"/>
    <ellipse id="_436956360" class="fil4" cx="1.51183" cy="4.05226" rx="0.029271" ry="0.0619879"/>
    <ellipse id="_436956168" class="fil4" cx="5.44958" cy="4.13222" rx="0.029271" ry="0.0619879"/>
    <ellipse id="_436956504" class="fil4" cx="1.79148" cy="4.33152" rx="0.029271" ry="0.0619879"/>
    <ellipse id="_436956648" class="fil4" cx="5.16993" cy="4.41149" rx="0.029271" ry="0.0619879"/>
    <ellipse id="_436956288" class="fil4" transform="matrix(1.06681 0.328851 -0.32885 1.06681 1.6305 3.81404)" rx="0.0262205" ry="0.0555276"/>
    <ellipse id="_436955376" class="fil4" transform="matrix(-1.06681 0.328851 0.32885 1.06681 5.33091 3.89401)" rx="0.0262205" ry="0.0555276"/>
    <ellipse id="_436955760" class="fil4" transform="matrix(1.06681 0.328851 -0.32885 1.06681 1.96213 4.15396)" rx="0.0262205" ry="0.0555276"/>
    <ellipse id="_436955568" class="fil4" transform="matrix(-1.06681 0.328851 0.32885 1.06681 4.99928 4.23393)" rx="0.0262205" ry="0.0555276"/>
    <ellipse id="_436955352" class="fil4" transform="matrix(0.922599 0.628518 -0.628517 0.9226 1.85759 3.81757)" rx="0.0262205" ry="0.0555276"/>
    <ellipse id="_436955664" class="fil4" transform="matrix(-0.922599 0.628518 0.628517 0.9226 5.10382 3.89754)" rx="0.0262205" ry="0.0555276"/>
    <ellipse id="_436955448" class="fil4" transform="matrix(0.696513 0.872406 -0.872406 0.696514 1.78296 4.04785)" rx="0.0262205" ry="0.0555276"/>
    <ellipse id="_436955904" class="fil4" transform="matrix(-0.696513 0.872406 0.872406 0.696514 5.17845 4.12782)" rx="0.0262205" ry="0.0555276"/>
    <ellipse id="_436955592" class="fil4" transform="matrix(0.696513 0.872406 -0.872406 0.696514 2.21858 4.33145)" rx="0.0262205" ry="0.0555276"/>
    <ellipse id="_436954512" class="fil4" transform="matrix(-0.696513 0.872406 0.872406 0.696514 4.74283 4.41141)" rx="0.0262205" ry="0.0555276"/>
    <ellipse id="_436955088" class="fil4" transform="matrix(0.408615 1.03887 -1.03887 0.408616 2.15103 3.81397)" rx="0.0262205" ry="0.0555276"/>
    <ellipse id="_436954992" class="fil4" transform="matrix(-0.408615 1.03887 1.03887 0.408616 4.81038 3.89393)" rx="0.0262205" ry="0.0555276"/>
    <ellipse id="_436954800" class="fil4" transform="matrix(0.0844546 1.11314 -1.11314 0.0844546 2.63375 3.53622)" rx="0.0262205" ry="0.0555276"/>
    <ellipse id="_436954824" class="fil4" transform="matrix(-0.0844546 1.11314 1.11314 0.0844546 4.64117 4.54611)" rx="0.0262205" ry="0.0555276"/>
    <ellipse id="_436954704" class="fil4" transform="matrix(-0.247201 1.08863 -1.08863 -0.247201 2.51912 3.66461)" rx="0.0262205" ry="0.0555276"/>
    <ellipse id="_436954680" class="fil4" transform="matrix(-0.556919 0.967505 -0.967504 -0.556919 2.90263 3.5084)" rx="0.0262205" ry="0.0555276"/>
    <ellipse id="_436955064" class="fil4" transform="matrix(0.556919 0.967505 0.967504 -0.556919 4.37228 4.51829)" rx="0.0262205" ry="0.0555276"/>
    <ellipse id="_436953840" class="fil4" transform="matrix(0.817212 0.760518 0.760517 -0.817213 3.1094 3.58058)" rx="0.0262205" ry="0.0555276"/>
    <ellipse id="_436954200" class="fil4" transform="matrix(-0.817212 0.760518 -0.760517 -0.817213 4.16552 4.59047)" rx="0.0262205" ry="0.0555276"/>
    <ellipse id="_436954032" class="fil4" transform="matrix(-1.00498 0.486038 -0.486038 -1.00498 3.23007 3.51846)" rx="0.0262205" ry="0.0555276"/>
    <ellipse id="_436953960" class="fil4" transform="matrix(1.00498 0.486038 0.486038 -1.00498 4.04485 4.52835)" rx="0.0262205" ry="0.0555276"/>
    <ellipse id="_436954392" class="fil4" transform="matrix(-1.10356 0.168425 -0.168425 -1.10357 3.36729 3.59131)" rx="0.0262205" ry="0.0555276"/>
    <ellipse id="_436953912" class="fil4" transform="matrix(1.10356 0.168425 0.168425 -1.10357 3.90763 4.6012)" rx="0.0262205" ry="0.0555276"/>
    <ellipse id="_436954272" class="fil4" transform="matrix(-0.142642 -1.10719 -1.10719 0.142641 3.51584 3.53208)" rx="0.0262205" ry="0.0555276"/>
    <ellipse id="_436954248" class="fil4" transform="matrix(0.142642 -1.10719 1.10719 0.142641 3.75907 4.54197)" rx="0.0262205" ry="0.0555276"/>
    <ellipse id="_436952976" class="fil4" transform="matrix(-1.00686 -0.482129 0.482128 -1.00686 2.19199 3.65158)" rx="0.0262205" ry="0.0555276"/>
    <ellipse id="_436953600" class="fil4" transform="matrix(1.00686 -0.482129 -0.482128 -1.00686 4.76942 3.73155)" rx="0.0262205" ry="0.0555276"/>
    <ellipse id="_436953480" class="fil4" transform="matrix(-0.820162 -0.757336 0.757335 -0.820163 3.67465 3.56902)" rx="0.0262205" ry="0.0555276"/>
    <ellipse id="_436953240" class="fil4" transform="matrix(0.820162 -0.757336 -0.757335 -0.820163 3.60026 4.57891)" rx="0.0262205" ry="0.0555276"/>
    <ellipse id="_436953624" class="fil4" transform="matrix(-0.560675 0.965333 0.965332 0.560675 3.79477 3.55523)" rx="0.0262205" ry="0.0555276"/>
    <ellipse id="_436953168" class="fil4" transform="matrix(0.560675 0.965333 -0.965332 0.560675 3.48015 4.56512)" rx="0.0262205" ry="0.0555276"/>
    <ellipse id="_436953504" class="fil4" transform="matrix(0.513537 -0.991213 0.991213 0.513537 3.98854 3.51421)" rx="0.0262205" ry="0.0555276"/>
    <ellipse id="_436953672" class="fil4" transform="matrix(-0.513537 -0.991213 -0.991213 0.513537 3.28638 4.5241)" rx="0.0262205" ry="0.0555276"/>
    <ellipse id="_436952256" class="fil4" transform="matrix(-0.513537 -0.991213 -0.991213 0.513537 2.71367 4.46726)" rx="0.0262205" ry="0.0555276"/>
    <ellipse id="_436952904" class="fil4" transform="matrix(1.11058 0.113276 -0.113276 1.11058 4.11954 3.60705)" rx="0.0262205" ry="0.0555276"/>
    <ellipse id="_436952592" class="fil4" transform="matrix(-1.11058 0.113276 0.113276 1.11058 3.15538 4.61694)" rx="0.0262205" ry="0.0555276"/>
    <ellipse id="_436952664" class="fil4" transform="matrix(-1.11058 0.113276 0.113276 1.11058 2.58267 4.56011)" rx="0.0262205" ry="0.0555276"/>
    <ellipse id="_436952472" class="fil4" transform="matrix(0.404574 -1.04045 1.04045 0.404575 4.23332 3.52771)" rx="0.0262205" ry="0.0555276"/>
    <ellipse id="_436952736" class="fil4" transform="matrix(-0.404574 -1.04045 -1.04045 0.404575 3.0416 4.5376)" rx="0.0262205" ry="0.0555276"/>
    <ellipse id="_436952496" class="fil4" transform="matrix(-0.404574 -1.04045 -1.04045 0.404575 2.46889 4.48076)" rx="0.0262205" ry="0.0555276"/>
    <ellipse id="_436952448" class="fil4" transform="matrix(0.693117 -0.875107 0.875106 0.693118 4.59872 3.56512)" rx="0.0262205" ry="0.0555276"/>
    <ellipse id="_436951608" class="fil4" transform="matrix(0.920149 -0.632099 0.632098 0.92015 4.39144 3.65408)" rx="0.0262205" ry="0.0555276"/>
    <ellipse id="_436952088" class="fil4" transform="matrix(1.06552 -0.332995 0.332994 1.06552 4.6653 3.76093)" rx="0.0262205" ry="0.0555276"/>
    <ellipse id="_436951920" class="fil4" transform="matrix(1.11633 -0.0043388 0.00433879 1.11634 4.88984 3.7188)" rx="0.0262205" ry="0.0555276"/>
   </g>
   <g>
    <path id="_436952016" class="fil0" d="M3.4791 3.02276c0.656764,0 1.2538,0.0732677 1.68815,0.191728 0.405622,0.110622 0.695185,0.145972 0.765437,0.334555 0.0118071,0.0317126 0.00149606,0.188134 0.00149606,0.221425 0,0.231209 -0.293087,0.426752 -0.766929,0.55598 -0.434354,0.118461 -1.03139,0.191728 -1.68816,0.191728 -0.65676,0 -1.2538,-0.0732677 -1.68815,-0.191728 -0.473846,-0.129228 -0.766933,-0.324772 -0.766933,-0.55598 0,-0.0324213 -0.010626,-0.162508 0.000582677,-0.193437 0.0687638,-0.189669 0.358945,-0.251433 0.766354,-0.362543 0.434346,-0.118461 1.03139,-0.191728 1.68815,-0.191728z"/>
    <path id="_436951992" class="fil1" d="M3.4791 2.8331c0.656764,0 1.2538,0.0732677 1.68815,0.191728 0.473846,0.129232 0.766933,0.324772 0.766933,0.55598 0,0.231209 -0.293087,0.426756 -0.766929,0.55598 -0.434354,0.118461 -1.03139,0.191728 -1.68816,0.191728 -0.65676,0 -1.2538,-0.0732677 -1.68815,-0.191728 -0.473846,-0.129224 -0.766933,-0.324772 -0.766933,-0.55598 0,-0.231209 0.293087,-0.426748 0.766937,-0.55598 0.434346,-0.118461 1.03139,-0.191728 1.68815,-0.191728z"/>
    <path id="_436951224" class="fil2" d="M3.64732 3.20652c0.103539,0 0.18748,0.0581614 0.18748,0.129906 0,0.071752 -0.0839409,0.129913 -0.18748,0.129913 -0.103543,0 -0.187484,-0.0581614 -0.187484,-0.129913 0,-0.0717441 0.0839409,-0.129906 0.187484,-0.129906z"/>
    <path id="_436950720" class="fil3" d="M3.23476 3.27451c0.103539,0 0.187476,0.0581654 0.187476,0.129909 0,0.071748 -0.083937,0.129909 -0.187476,0.129909 -0.103547,0 -0.187484,-0.0581614 -0.187484,-0.129909 0,-0.0717441 0.083937,-0.129909 0.187484,-0.129909z"/>
    <path id="_436951344" class="fil2" d="M3.40337 3.57284c0.0785787,0 0.14228,0.0441417 0.14228,0.0985906 0,0.0544488 -0.0637008,0.0985906 -0.14228,0.0985906 -0.0785787,0 -0.14228,-0.0441417 -0.14228,-0.0985906 0,-0.0544488 0.0637008,-0.0985906 0.14228,-0.0985906z"/>
    <path id="_436950984" class="fil3" d="M3.02523 3.70967c0.0785787,0 0.14228,0.0441417 0.14228,0.0985906 0,0.0544488 -0.0637008,0.0985906 -0.14228,0.0985906 -0.0785787,0 -0.14228,-0.0441417 -0.14228,-0.0985906 0,-0.0544488 0.0637008,-0.0985906 0.14228,-0.0985906z"/>
    <path id="_436949928" class="fil2" d="M2.83883 3.26142c0.0785787,0 0.14228,0.0441378 0.14228,0.0985866 0,0.0544528 -0.0637008,0.0985945 -0.14228,0.0985945 -0.0785748,0 -0.142276,-0.0441417 -0.142276,-0.0985945 0,-0.0544488 0.0637008,-0.0985866 0.142276,-0.0985866z"/>
    <path id="_436950528" class="fil3" d="M2.59839 3.48001c0.0785748,0 0.142276,0.0441378 0.142276,0.0985866 0,0.0544528 -0.0637008,0.0985906 -0.142276,0.0985906 -0.0785787,0 -0.14228,-0.0441378 -0.14228,-0.0985906 0,-0.0544488 0.0637008,-0.0985866 0.14228,-0.0985866z"/>
    <path id="_436950216" class="fil2" d="M4.10023 3.28664c0.0785787,0 0.14228,0.0441378 0.14228,0.0985866 0,0.0544488 -0.0637008,0.0985906 -0.14228,0.0985906 -0.0785787,0 -0.14228,-0.0441417 -0.14228,-0.0985906 0,-0.0544488 0.0637008,-0.0985866 0.14228,-0.0985866z"/>
    <path id="_436950096" class="fil3" d="M4.06088 3.6189c0.0785787,0 0.14228,0.0441378 0.14228,0.0985866 0,0.0544488 -0.0637008,0.0985906 -0.14228,0.0985906 -0.0785787,0 -0.14228,-0.0441417 -0.14228,-0.0985906 0,-0.0544488 0.0637008,-0.0985866 0.14228,-0.0985866z"/>
    <ellipse id="_436950072" class="fil4" cx="1.47686" cy="3.54512" rx="0.029271" ry="0.0619879"/>
    <ellipse id="_436950456" class="fil4" cx="5.4146" cy="3.62509" rx="0.029271" ry="0.0619879"/>
    <ellipse id="_436950408" class="fil4" cx="1.7565" cy="3.82439" rx="0.029271" ry="0.0619879"/>
    <ellipse id="_436949688" class="fil4" cx="5.13496" cy="3.90436" rx="0.029271" ry="0.0619879"/>
    <ellipse id="_436949424" class="fil4" transform="matrix(1.06681 0.328851 -0.32885 1.06681 1.59553 3.30691)" rx="0.0262205" ry="0.0555276"/>
    <ellipse id="_436949328" class="fil4" transform="matrix(-1.06681 0.328851 0.32885 1.06681 5.29594 3.38687)" rx="0.0262205" ry="0.0555276"/>
    <ellipse id="_436949832" class="fil4" transform="matrix(1.06681 0.328851 -0.32885 1.06681 1.92716 3.64683)" rx="0.0262205" ry="0.0555276"/>
    <ellipse id="_436949304" class="fil4" transform="matrix(-1.06681 0.328851 0.32885 1.06681 4.96431 3.72679)" rx="0.0262205" ry="0.0555276"/>
    <ellipse id="_436949496" class="fil4" transform="matrix(0.922599 0.628518 -0.628517 0.9226 1.82262 3.31044)" rx="0.0262205" ry="0.0555276"/>
    <ellipse id="_436949640" class="fil4" transform="matrix(-0.922599 0.628518 0.628517 0.9226 5.06884 3.3904)" rx="0.0262205" ry="0.0555276"/>
    <ellipse id="_436949784" class="fil4" transform="matrix(0.696513 0.872406 -0.872406 0.696514 1.74799 3.54072)" rx="0.0262205" ry="0.0555276"/>
    <ellipse id="_436948392" class="fil4" transform="matrix(-0.696513 0.872406 0.872406 0.696514 5.14348 3.62068)" rx="0.0262205" ry="0.0555276"/>
    <ellipse id="_436948344" class="fil4" transform="matrix(0.696513 0.872406 -0.872406 0.696514 2.1836 3.82431)" rx="0.0262205" ry="0.0555276"/>
    <ellipse id="_436948608" class="fil4" transform="matrix(-0.696513 0.872406 0.872406 0.696514 4.70786 3.90428)" rx="0.0262205" ry="0.0555276"/>
    <ellipse id="_436949016" class="fil4" transform="matrix(0.408615 1.03887 -1.03887 0.408616 2.11606 3.30684)" rx="0.0262205" ry="0.0555276"/>
    <ellipse id="_436948560" class="fil4" transform="matrix(-0.408615 1.03887 1.03887 0.408616 4.77541 3.3868)" rx="0.0262205" ry="0.0555276"/>
    <ellipse id="_436948920" class="fil4" transform="matrix(0.0844546 1.11314 -1.11314 0.0844546 2.59878 3.02909)" rx="0.0262205" ry="0.0555276"/>
    <ellipse id="_436949064" class="fil4" transform="matrix(-0.0844546 1.11314 1.11314 0.0844546 4.6062 4.03898)" rx="0.0262205" ry="0.0555276"/>
    <ellipse id="_436948872" class="fil4" transform="matrix(-0.247201 1.08863 -1.08863 -0.247201 2.48415 3.15748)" rx="0.0262205" ry="0.0555276"/>
    <ellipse id="_436980888" class="fil4" transform="matrix(-0.556919 0.967505 -0.967504 -0.556919 2.86766 3.00127)" rx="0.0262205" ry="0.0555276"/>
    <ellipse id="_436980696" class="fil4" transform="matrix(0.556919 0.967505 0.967504 -0.556919 4.33731 4.01116)" rx="0.0262205" ry="0.0555276"/>
    <ellipse id="_436980792" class="fil4" transform="matrix(0.817212 0.760518 0.760517 -0.817213 3.07443 3.07345)" rx="0.0262205" ry="0.0555276"/>
    <ellipse id="_436979832" class="fil4" transform="matrix(-0.817212 0.760518 -0.760517 -0.817213 4.13054 4.08334)" rx="0.0262205" ry="0.0555276"/>
    <ellipse id="_436980384" class="fil4" transform="matrix(-1.00498 0.486038 -0.486038 -1.00498 3.1951 3.01133)" rx="0.0262205" ry="0.0555276"/>
    <ellipse id="_436980168" class="fil4" transform="matrix(1.00498 0.486038 0.486038 -1.00498 4.00988 4.02122)" rx="0.0262205" ry="0.0555276"/>
    <ellipse id="_436980144" class="fil4" transform="matrix(-1.10356 0.168425 -0.168425 -1.10357 3.33232 3.08418)" rx="0.0262205" ry="0.0555276"/>
    <ellipse id="_436980336" class="fil4" transform="matrix(1.10356 0.168425 0.168425 -1.10357 3.87265 4.09407)" rx="0.0262205" ry="0.0555276"/>
    <ellipse id="_436980456" class="fil4" transform="matrix(-0.142642 -1.10719 -1.10719 0.142641 3.48087 3.02494)" rx="0.0262205" ry="0.0555276"/>
    <ellipse id="_436980120" class="fil4" transform="matrix(0.142642 -1.10719 1.10719 0.142641 3.7241 4.03483)" rx="0.0262205" ry="0.0555276"/>
    <ellipse id="_436980024" class="fil4" transform="matrix(-1.00686 -0.482129 0.482128 -1.00686 2.15702 3.14445)" rx="0.0262205" ry="0.0555276"/>
    <ellipse id="_436979064" class="fil4" transform="matrix(1.00686 -0.482129 -0.482128 -1.00686 4.73445 3.22442)" rx="0.0262205" ry="0.0555276"/>
    <ellipse id="_436979424" class="fil4" transform="matrix(-0.820162 -0.757336 0.757335 -0.820163 3.63968 3.06189)" rx="0.0262205" ry="0.0555276"/>
    <ellipse id="_436979568" class="fil4" transform="matrix(0.820162 -0.757336 -0.757335 -0.820163 3.56529 4.07178)" rx="0.0262205" ry="0.0555276"/>
    <ellipse id="_436979112" class="fil4" transform="matrix(-0.560675 0.965333 0.965332 0.560675 3.7598 3.04809)" rx="0.0262205" ry="0.0555276"/>
    <ellipse id="_436979472" class="fil4" transform="matrix(0.560675 0.965333 -0.965332 0.560675 3.44518 4.05798)" rx="0.0262205" ry="0.0555276"/>
    <ellipse id="_436979688" class="fil4" transform="matrix(0.513537 -0.991213 0.991213 0.513537 3.95357 3.00707)" rx="0.0262205" ry="0.0555276"/>
    <ellipse id="_436979208" class="fil4" transform="matrix(-0.513537 -0.991213 -0.991213 0.513537 3.25141 4.01696)" rx="0.0262205" ry="0.0555276"/>
    <ellipse id="_436979232" class="fil4" transform="matrix(-0.513537 -0.991213 -0.991213 0.513537 2.6787 3.96013)" rx="0.0262205" ry="0.0555276"/>
    <ellipse id="_436978968" class="fil4" transform="matrix(1.11058 0.113276 -0.113276 1.11058 4.08457 3.09992)" rx="0.0262205" ry="0.0555276"/>
    <ellipse id="_436978872" class="fil4" transform="matrix(-1.11058 0.113276 0.113276 1.11058 3.12041 4.10981)" rx="0.0262205" ry="0.0555276"/>
    <ellipse id="_436979016" class="fil4" transform="matrix(-1.11058 0.113276 0.113276 1.11058 2.5477 4.05298)" rx="0.0262205" ry="0.0555276"/>
    <ellipse id="_436978368" class="fil4" transform="matrix(0.404574 -1.04045 1.04045 0.404575 4.19835 3.02057)" rx="0.0262205" ry="0.0555276"/>
    <ellipse id="_436978728" class="fil4" transform="matrix(-0.404574 -1.04045 -1.04045 0.404575 3.00663 4.03046)" rx="0.0262205" ry="0.0555276"/>
    <ellipse id="_436978296" class="fil4" transform="matrix(-0.404574 -1.04045 -1.04045 0.404575 2.43392 3.97363)" rx="0.0262205" ry="0.0555276"/>
    <ellipse id="_436978488" class="fil4" transform="matrix(0.693117 -0.875107 0.875106 0.693118 4.56375 3.05799)" rx="0.0262205" ry="0.0555276"/>
    <ellipse id="_436978392" class="fil4" transform="matrix(0.920149 -0.632099 0.632098 0.92015 4.35647 3.14695)" rx="0.0262205" ry="0.0555276"/>
    <ellipse id="_436978080" class="fil4" transform="matrix(1.06552 -0.332995 0.332994 1.06552 4.63033 3.2538)" rx="0.0262205" ry="0.0555276"/>
    <ellipse id="_436978008" class="fil4" transform="matrix(1.11633 -0.0043388 0.00433879 1.11634 4.85487 3.21167)" rx="0.0262205" ry="0.0555276"/>
   </g>
   <g>
    <path id="_436978128" class="fil0" d="M3.31297 2.48939c0.656764,0 1.2538,0.0732717 1.68815,0.191732 0.405622,0.110622 0.695185,0.145969 0.765433,0.334551 0.011811,0.0317126 0.0015,0.188138 0.0015,0.221425 0,0.231209 -0.293087,0.426756 -0.766929,0.55598 -0.434354,0.118461 -1.03139,0.191732 -1.68816,0.191732 -0.65676,0 -1.2538,-0.0732717 -1.68816,-0.191732 -0.473843,-0.129224 -0.766929,-0.324772 -0.766929,-0.55598 0,-0.0324173 -0.010626,-0.162504 0.000582677,-0.193433 0.0687638,-0.189669 0.358945,-0.251433 0.766354,-0.362543 0.434346,-0.118461 1.03139,-0.191732 1.68815,-0.191732z"/>
    <path id="_436977816" class="fil1" d="M3.31297 2.29974c0.656764,0 1.2538,0.0732677 1.68815,0.191728 0.473846,0.129228 0.766933,0.324772 0.766933,0.55598 0,0.231209 -0.293087,0.426756 -0.766929,0.55598 -0.434354,0.118461 -1.03139,0.191728 -1.68816,0.191728 -0.65676,0 -1.2538,-0.0732677 -1.68816,-0.191728 -0.473843,-0.129224 -0.766929,-0.324772 -0.766929,-0.55598 0,-0.231209 0.293087,-0.426752 0.766937,-0.55598 0.434346,-0.118461 1.03139,-0.191728 1.68815,-0.191728z"/>
    <path id="_436977096" class="fil2" d="M3.4812 2.67316c0.103539,0 0.187476,0.0581614 0.187476,0.129906 0,0.071748 -0.083937,0.129913 -0.187476,0.129913 -0.103543,0 -0.187484,-0.0581654 -0.187484,-0.129913 0,-0.0717441 0.0839409,-0.129906 0.187484,-0.129906z"/>
    <path id="_436976904" class="fil3" d="M3.06863 2.74115c0.103543,0 0.18748,0.0581614 0.18748,0.129909 0,0.071748 -0.083937,0.129909 -0.18748,0.129909 -0.103543,0 -0.18748,-0.0581614 -0.18748,-0.129909 0,-0.071748 0.083937,-0.129909 0.18748,-0.129909z"/>
    <path id="_436977408" class="fil2" d="M3.23724 3.03948c0.0785787,0 0.14228,0.0441417 0.14228,0.0985906 0,0.0544488 -0.0637008,0.0985906 -0.14228,0.0985906 -0.0785787,0 -0.14228,-0.0441417 -0.14228,-0.0985906 0,-0.0544488 0.0637008,-0.0985906 0.14228,-0.0985906z"/>
    <path id="_436977480" class="fil3" d="M2.8591 3.17631c0.0785787,0 0.14228,0.0441417 0.14228,0.0985906 0,0.0544488 -0.0637008,0.0985906 -0.14228,0.0985906 -0.0785827,0 -0.14228,-0.0441417 -0.14228,-0.0985906 0,-0.0544488 0.0636969,-0.0985906 0.14228,-0.0985906z"/>
    <path id="_436977048" class="fil2" d="M2.6727 2.72806c0.0785787,0 0.14228,0.0441378 0.14228,0.0985866 0,0.0544528 -0.0637008,0.0985906 -0.14228,0.0985906 -0.0785748,0 -0.142276,-0.0441378 -0.142276,-0.0985906 0,-0.0544488 0.0637008,-0.0985866 0.142276,-0.0985866z"/>
    <path id="_436976160" class="fil3" d="M2.43226 2.94665c0.0785787,0 0.14228,0.0441378 0.14228,0.0985866 0,0.0544528 -0.0637008,0.0985906 -0.14228,0.0985906 -0.0785748,0 -0.142276,-0.0441378 -0.142276,-0.0985906 0,-0.0544488 0.0637008,-0.0985866 0.142276,-0.0985866z"/>
    <path id="_436976736" class="fil2" d="M3.9341 2.75328c0.0785787,0 0.14228,0.0441378 0.14228,0.0985866 0,0.0544488 -0.0637008,0.0985906 -0.14228,0.0985906 -0.0785787,0 -0.14228,-0.0441417 -0.14228,-0.0985906 0,-0.0544488 0.0637008,-0.0985866 0.14228,-0.0985866z"/>
    <path id="_436976568" class="fil3" d="M3.89476 3.08554c0.0785787,0 0.14228,0.0441378 0.14228,0.0985866 0,0.0544488 -0.0637008,0.0985906 -0.14228,0.0985906 -0.0785787,0 -0.14228,-0.0441417 -0.14228,-0.0985906 0,-0.0544488 0.0637008,-0.0985866 0.14228,-0.0985866z"/>
    <ellipse id="_436976640" class="fil4" cx="1.31074" cy="3.01176" rx="0.029271" ry="0.0619879"/>
    <ellipse id="_436976184" class="fil4" cx="5.24848" cy="3.09173" rx="0.029271" ry="0.0619879"/>
    <ellipse id="_436976472" class="fil4" cx="1.59038" cy="3.29103" rx="0.029271" ry="0.0619879"/>
    <ellipse id="_436976712" class="fil4" cx="4.96884" cy="3.37099" rx="0.029271" ry="0.0619879"/>
    <ellipse id="_436975224" class="fil4" transform="matrix(1.06681 0.328851 -0.32885 1.06681 1.4294 2.77355)" rx="0.0262205" ry="0.0555276"/>
    <ellipse id="_436975272" class="fil4" transform="matrix(-1.06681 0.328851 0.32885 1.06681 5.12981 2.85351)" rx="0.0262205" ry="0.0555276"/>
    <ellipse id="_436975344" class="fil4" transform="matrix(1.06681 0.328851 -0.32885 1.06681 1.76103 3.11347)" rx="0.0262205" ry="0.0555276"/>
    <ellipse id="_436975392" class="fil4" transform="matrix(-1.06681 0.328851 0.32885 1.06681 4.79818 3.19343)" rx="0.0262205" ry="0.0555276"/>
    <ellipse id="_436975608" class="fil4" transform="matrix(0.922599 0.628518 -0.628517 0.9226 1.6565 2.77708)" rx="0.0262205" ry="0.0555276"/>
    <ellipse id="_436975416" class="fil4" transform="matrix(-0.922599 0.628518 0.628517 0.9226 4.90272 2.85704)" rx="0.0262205" ry="0.0555276"/>
    <ellipse id="_436975680" class="fil4" transform="matrix(0.696513 0.872406 -0.872406 0.696514 1.58186 3.00735)" rx="0.0262205" ry="0.0555276"/>
    <ellipse id="_436975368" class="fil4" transform="matrix(-0.696513 0.872406 0.872406 0.696514 4.97735 3.08732)" rx="0.0262205" ry="0.0555276"/>
    <ellipse id="_436974600" class="fil4" transform="matrix(0.696513 0.872406 -0.872406 0.696514 2.01748 3.29095)" rx="0.0262205" ry="0.0555276"/>
    <ellipse id="_436974888" class="fil4" transform="matrix(-0.696513 0.872406 0.872406 0.696514 4.54174 3.37092)" rx="0.0262205" ry="0.0555276"/>
    <ellipse id="_436974840" class="fil4" transform="matrix(0.408615 1.03887 -1.03887 0.408616 1.94993 2.77347)" rx="0.0262205" ry="0.0555276"/>
    <ellipse id="_436974696" class="fil4" transform="matrix(-0.408615 1.03887 1.03887 0.408616 4.60928 2.85344)" rx="0.0262205" ry="0.0555276"/>
    <ellipse id="_436974720" class="fil4" transform="matrix(0.0844546 1.11314 -1.11314 0.0844546 2.43265 2.49572)" rx="0.0262205" ry="0.0555276"/>
    <ellipse id="_436974936" class="fil4" transform="matrix(-0.0844546 1.11314 1.11314 0.0844546 4.44007 3.50561)" rx="0.0262205" ry="0.0555276"/>
    <ellipse id="_436974816" class="fil4" transform="matrix(-0.247201 1.08863 -1.08863 -0.247201 2.31802 2.62412)" rx="0.0262205" ry="0.0555276"/>
    <ellipse id="_436974456" class="fil4" transform="matrix(-0.556919 0.967505 -0.967504 -0.556919 2.70153 2.4679)" rx="0.0262205" ry="0.0555276"/>
    <ellipse id="_436974336" class="fil4" transform="matrix(0.556919 0.967505 0.967504 -0.556919 4.17119 3.47779)" rx="0.0262205" ry="0.0555276"/>
    <ellipse id="_436974288" class="fil4" transform="matrix(0.817212 0.760518 0.760517 -0.817213 2.9083 2.54009)" rx="0.0262205" ry="0.0555276"/>
    <ellipse id="_436974024" class="fil4" transform="matrix(-0.817212 0.760518 -0.760517 -0.817213 3.96442 3.54998)" rx="0.0262205" ry="0.0555276"/>
    <ellipse id="_436973784" class="fil4" transform="matrix(-1.00498 0.486038 -0.486038 -1.00498 3.02897 2.47796)" rx="0.0262205" ry="0.0555276"/>
    <ellipse id="_436973712" class="fil4" transform="matrix(1.00498 0.486038 0.486038 -1.00498 3.84375 3.48785)" rx="0.0262205" ry="0.0555276"/>
    <ellipse id="_436973808" class="fil4" transform="matrix(-1.10356 0.168425 -0.168425 -1.10357 3.16619 2.55082)" rx="0.0262205" ry="0.0555276"/>
    <ellipse id="_436974120" class="fil4" transform="matrix(1.10356 0.168425 0.168425 -1.10357 3.70653 3.56071)" rx="0.0262205" ry="0.0555276"/>
    <ellipse id="_436974000" class="fil4" transform="matrix(-0.142642 -1.10719 -1.10719 0.142641 3.31474 2.49158)" rx="0.0262205" ry="0.0555276"/>
    <ellipse id="_436973376" class="fil4" transform="matrix(0.142642 -1.10719 1.10719 0.142641 3.55798 3.50147)" rx="0.0262205" ry="0.0555276"/>
    <ellipse id="_436973544" class="fil4" transform="matrix(-1.00686 -0.482129 0.482128 -1.00686 1.99089 2.61109)" rx="0.0262205" ry="0.0555276"/>
    <ellipse id="_436973664" class="fil4" transform="matrix(1.00686 -0.482129 -0.482128 -1.00686 4.56832 2.69105)" rx="0.0262205" ry="0.0555276"/>
    <ellipse id="_436973616" class="fil4" transform="matrix(-0.820162 -0.757336 0.757335 -0.820163 3.47355 2.52853)" rx="0.0262205" ry="0.0555276"/>
    <ellipse id="_436973016" class="fil4" transform="matrix(0.820162 -0.757336 -0.757335 -0.820163 3.39917 3.53842)" rx="0.0262205" ry="0.0555276"/>
    <ellipse id="_436972968" class="fil4" transform="matrix(-0.560675 0.965333 0.965332 0.560675 3.59367 2.51473)" rx="0.0262205" ry="0.0555276"/>
    <ellipse id="_436973040" class="fil4" transform="matrix(0.560675 0.965333 -0.965332 0.560675 3.27905 3.52462)" rx="0.0262205" ry="0.0555276"/>
    <ellipse id="_436973496" class="fil4" transform="matrix(0.513537 -0.991213 0.991213 0.513537 3.78744 2.47371)" rx="0.0262205" ry="0.0555276"/>
    <ellipse id="_436972200" class="fil4" transform="matrix(-0.513537 -0.991213 -0.991213 0.513537 3.08528 3.4836)" rx="0.0262205" ry="0.0555276"/>
    <ellipse id="_436972824" class="fil4" transform="matrix(-0.513537 -0.991213 -0.991213 0.513537 2.51257 3.42677)" rx="0.0262205" ry="0.0555276"/>
    <ellipse id="_436972272" class="fil4" transform="matrix(1.11058 0.113276 -0.113276 1.11058 3.91844 2.56656)" rx="0.0262205" ry="0.0555276"/>
    <ellipse id="_436972656" class="fil4" transform="matrix(-1.11058 0.113276 0.113276 1.11058 2.95428 3.57645)" rx="0.0262205" ry="0.0555276"/>
    <ellipse id="_436972848" class="fil4" transform="matrix(-1.11058 0.113276 0.113276 1.11058 2.38157 3.51961)" rx="0.0262205" ry="0.0555276"/>
    <ellipse id="_436972176" class="fil4" transform="matrix(0.404574 -1.04045 1.04045 0.404575 4.03222 2.48721)" rx="0.0262205" ry="0.0555276"/>
    <ellipse id="_436972800" class="fil4" transform="matrix(-0.404574 -1.04045 -1.04045 0.404575 2.8405 3.4971)" rx="0.0262205" ry="0.0555276"/>
    <ellipse id="_436972248" class="fil4" transform="matrix(-0.404574 -1.04045 -1.04045 0.404575 2.26779 3.44027)" rx="0.0262205" ry="0.0555276"/>
    <ellipse id="_436971432" class="fil4" transform="matrix(0.693117 -0.875107 0.875106 0.693118 4.39762 2.52462)" rx="0.0262205" ry="0.0555276"/>
    <ellipse id="_436972032" class="fil4" transform="matrix(0.920149 -0.632099 0.632098 0.92015 4.19034 2.61359)" rx="0.0262205" ry="0.0555276"/>
    <ellipse id="_436972104" class="fil4" transform="matrix(1.06552 -0.332995 0.332994 1.06552 4.46421 2.72043)" rx="0.0262205" ry="0.0555276"/>
    <ellipse id="_436971912" class="fil4" transform="matrix(1.11633 -0.0043388 0.00433879 1.11634 4.68874 2.6783)" rx="0.0262205" ry="0.0555276"/>
   </g>
   <g>
    <path id="_436971960" class="fil0" d="M3.4791 1.991c0.656764,0 1.2538,0.0732677 1.68815,0.191728 0.405622,0.110626 0.695185,0.145972 0.765437,0.334555 0.0118071,0.0317126 0.00149606,0.188134 0.00149606,0.221425 0,0.231209 -0.293087,0.426756 -0.766929,0.55598 -0.434354,0.118461 -1.03139,0.191728 -1.68816,0.191728 -0.65676,0 -1.2538,-0.0732677 -1.68815,-0.191728 -0.473846,-0.129224 -0.766933,-0.324772 -0.766933,-0.55598 0,-0.0324173 -0.010626,-0.162508 0.000582677,-0.193437 0.0687638,-0.189665 0.358945,-0.251429 0.766354,-0.362543 0.434346,-0.118461 1.03139,-0.191728 1.68815,-0.191728z"/>
    <path id="_436971192" class="fil5" d="M3.4791 1.80135c0.656764,0 1.2538,0.0732717 1.68815,0.191732 0.473846,0.129228 0.766933,0.324772 0.766933,0.55598 0,0.231205 -0.293087,0.426752 -0.766929,0.555976 -0.434354,0.118461 -1.03139,0.191732 -1.68816,0.191732 -0.65676,0 -1.2538,-0.0732717 -1.68815,-0.191732 -0.473846,-0.129224 -0.766933,-0.324772 -0.766933,-0.555976 0,-0.231209 0.293087,-0.426752 0.766937,-0.55598 0.434346,-0.118461 1.03139,-0.191732 1.68815,-0.191732z"/>
    <path id="_436971312" class="fil6" d="M3.64732 2.17477c0.103539,0 0.18748,0.0581654 0.18748,0.129909 0,0.071748 -0.0839409,0.129909 -0.18748,0.129909 -0.103543,0 -0.187484,-0.0581614 -0.187484,-0.129909 0,-0.0717441 0.0839409,-0.129909 0.187484,-0.129909z"/>
    <path id="_436971096" class="fil7" d="M3.23476 2.24276c0.103539,0 0.187476,0.0581614 0.187476,0.129906 0,0.071748 -0.083937,0.129913 -0.187476,0.129913 -0.103547,0 -0.187484,-0.0581654 -0.187484,-0.129913 0,-0.0717441 0.083937,-0.129906 0.187484,-0.129906z"/>
    <path id="_436971336" class="fil6" d="M3.40337 2.54109c0.0785787,0 0.14228,0.0441417 0.14228,0.0985906 0,0.0544488 -0.0637008,0.0985906 -0.14228,0.0985906 -0.0785787,0 -0.14228,-0.0441417 -0.14228,-0.0985906 0,-0.0544488 0.0637008,-0.0985906 0.14228,-0.0985906z"/>
    <path id="_436971240" class="fil7" d="M3.02523 2.67793c0.0785787,0 0.14228,0.0441417 0.14228,0.0985906 0,0.0544488 -0.0637008,0.0985906 -0.14228,0.0985906 -0.0785787,0 -0.14228,-0.0441417 -0.14228,-0.0985906 0,-0.0544488 0.0637008,-0.0985906 0.14228,-0.0985906z"/>
    <path id="_38318512" class="fil6" d="M2.83883 2.22967c0.0785787,0 0.14228,0.0441378 0.14228,0.0985866 0,0.0544528 -0.0637008,0.0985906 -0.14228,0.0985906 -0.0785748,0 -0.142276,-0.0441378 -0.142276,-0.0985906 0,-0.0544488 0.0637008,-0.0985866 0.142276,-0.0985866z"/>
    <path id="_438954192" class="fil7" d="M2.59839 2.44826c0.0785748,0 0.142276,0.0441378 0.142276,0.0985866 0,0.0544528 -0.0637008,0.0985906 -0.142276,0.0985906 -0.0785787,0 -0.14228,-0.0441378 -0.14228,-0.0985906 0,-0.0544488 0.0637008,-0.0985866 0.14228,-0.0985866z"/>
    <path id="_273790600" class="fil6" d="M4.10023 2.25489c0.0785787,0 0.14228,0.0441378 0.14228,0.0985866 0,0.0544488 -0.0637008,0.0985906 -0.14228,0.0985906 -0.0785787,0 -0.14228,-0.0441417 -0.14228,-0.0985906 0,-0.0544488 0.0637008,-0.0985866 0.14228,-0.0985866z"/>
    <path id="_38318608" class="fil7" d="M4.06088 2.58715c0.0785787,0 0.14228,0.0441378 0.14228,0.0985866 0,0.0544488 -0.0637008,0.0985906 -0.14228,0.0985906 -0.0785787,0 -0.14228,-0.0441417 -0.14228,-0.0985906 0,-0.0544488 0.0637008,-0.0985866 0.14228,-0.0985866z"/>
    <ellipse id="_38317144" class="fil8" cx="1.47686" cy="2.51337" rx="0.029271" ry="0.0619879"/>
    <ellipse id="_38317000" class="fil8" cx="5.4146" cy="2.59334" rx="0.029271" ry="0.0619879"/>
    <ellipse id="_38317120" class="fil8" cx="1.7565" cy="2.79264" rx="0.029271" ry="0.0619879"/>
    <ellipse id="_38666456" class="fil8" cx="5.13496" cy="2.8726" rx="0.029271" ry="0.0619879"/>
    <ellipse id="_38666192" class="fil8" transform="matrix(1.06681 0.328851 -0.32885 1.06681 1.59553 2.27516)" rx="0.0262205" ry="0.0555276"/>
    <ellipse id="_38665688" class="fil8" transform="matrix(-1.06681 0.328851 0.32885 1.06681 5.29594 2.35512)" rx="0.0262205" ry="0.0555276"/>
    <ellipse id="_38665160" class="fil8" transform="matrix(1.06681 0.328851 -0.32885 1.06681 1.92716 2.61508)" rx="0.0262205" ry="0.0555276"/>
    <ellipse id="_38665040" class="fil8" transform="matrix(-1.06681 0.328851 0.32885 1.06681 4.96431 2.69504)" rx="0.0262205" ry="0.0555276"/>
    <ellipse id="_269089648" class="fil8" transform="matrix(0.922599 0.628518 -0.628517 0.9226 1.82262 2.27869)" rx="0.0262205" ry="0.0555276"/>
    <ellipse id="_269090008" class="fil8" transform="matrix(-0.922599 0.628518 0.628517 0.9226 5.06884 2.35865)" rx="0.0262205" ry="0.0555276"/>
    <ellipse id="_269090272" class="fil8" transform="matrix(0.696513 0.872406 -0.872406 0.696514 1.74799 2.50897)" rx="0.0262205" ry="0.0555276"/>
    <ellipse id="_269089072" class="fil8" transform="matrix(-0.696513 0.872406 0.872406 0.696514 5.14348 2.58893)" rx="0.0262205" ry="0.0555276"/>
    <ellipse id="_269089480" class="fil8" transform="matrix(0.696513 0.872406 -0.872406 0.696514 2.1836 2.79256)" rx="0.0262205" ry="0.0555276"/>
    <ellipse id="_271397832" class="fil8" transform="matrix(-0.696513 0.872406 0.872406 0.696514 4.70786 2.87253)" rx="0.0262205" ry="0.0555276"/>
    <ellipse id="_271394808" class="fil8" transform="matrix(0.408615 1.03887 -1.03887 0.408616 2.11606 2.27508)" rx="0.0262205" ry="0.0555276"/>
    <ellipse id="_271393920" class="fil8" transform="matrix(-0.408615 1.03887 1.03887 0.408616 4.77541 2.35505)" rx="0.0262205" ry="0.0555276"/>
    <ellipse id="_271404264" class="fil8" transform="matrix(0.0844546 1.11314 -1.11314 0.0844546 2.59878 1.99734)" rx="0.0262205" ry="0.0555276"/>
    <ellipse id="_271404000" class="fil8" transform="matrix(-0.0844546 1.11314 1.11314 0.0844546 4.6062 3.00723)" rx="0.0262205" ry="0.0555276"/>
    <ellipse id="_271403976" class="fil8" transform="matrix(-0.247201 1.08863 -1.08863 -0.247201 2.48415 2.12573)" rx="0.0262205" ry="0.0555276"/>
    <ellipse id="_271404408" class="fil8" transform="matrix(-0.556919 0.967505 -0.967504 -0.556919 2.86766 1.96951)" rx="0.0262205" ry="0.0555276"/>
    <ellipse id="_271403880" class="fil8" transform="matrix(0.556919 0.967505 0.967504 -0.556919 4.33731 2.9794)" rx="0.0262205" ry="0.0555276"/>
    <ellipse id="_271403856" class="fil8" transform="matrix(0.817212 0.760518 0.760517 -0.817213 3.07443 2.0417)" rx="0.0262205" ry="0.0555276"/>
    <ellipse id="_271404360" class="fil8" transform="matrix(-0.817212 0.760518 -0.760517 -0.817213 4.13054 3.05159)" rx="0.0262205" ry="0.0555276"/>
    <ellipse id="_271404288" class="fil8" transform="matrix(-1.00498 0.486038 -0.486038 -1.00498 3.1951 1.97957)" rx="0.0262205" ry="0.0555276"/>
    <ellipse id="_271403256" class="fil8" transform="matrix(1.00498 0.486038 0.486038 -1.00498 4.00988 2.98947)" rx="0.0262205" ry="0.0555276"/>
    <ellipse id="_271402968" class="fil8" transform="matrix(-1.10356 0.168425 -0.168425 -1.10357 3.33232 2.05243)" rx="0.0262205" ry="0.0555276"/>
    <ellipse id="_271403328" class="fil8" transform="matrix(1.10356 0.168425 0.168425 -1.10357 3.87265 3.06232)" rx="0.0262205" ry="0.0555276"/>
    <ellipse id="_271402920" class="fil8" transform="matrix(-0.142642 -1.10719 -1.10719 0.142641 3.48087 1.99319)" rx="0.0262205" ry="0.0555276"/>
    <ellipse id="_271403520" class="fil8" transform="matrix(0.142642 -1.10719 1.10719 0.142641 3.7241 3.00308)" rx="0.0262205" ry="0.0555276"/>
    <ellipse id="_271402992" class="fil8" transform="matrix(-1.00686 -0.482129 0.482128 -1.00686 2.15702 2.1127)" rx="0.0262205" ry="0.0555276"/>
    <ellipse id="_271403424" class="fil8" transform="matrix(1.00686 -0.482129 -0.482128 -1.00686 4.73445 2.19267)" rx="0.0262205" ry="0.0555276"/>
    <ellipse id="_271403472" class="fil8" transform="matrix(-0.820162 -0.757336 0.757335 -0.820163 3.63968 2.03014)" rx="0.0262205" ry="0.0555276"/>
    <ellipse id="_271402248" class="fil8" transform="matrix(0.820162 -0.757336 -0.757335 -0.820163 3.56529 3.04003)" rx="0.0262205" ry="0.0555276"/>
    <ellipse id="_271402584" class="fil8" transform="matrix(-0.560675 0.965333 0.965332 0.560675 3.7598 2.01634)" rx="0.0262205" ry="0.0555276"/>
    <ellipse id="_271402776" class="fil8" transform="matrix(0.560675 0.965333 -0.965332 0.560675 3.44518 3.02623)" rx="0.0262205" ry="0.0555276"/>
    <ellipse id="_271402872" class="fil8" transform="matrix(0.513537 -0.991213 0.991213 0.513537 3.95357 1.97532)" rx="0.0262205" ry="0.0555276"/>
    <ellipse id="_271402296" class="fil8" transform="matrix(-0.513537 -0.991213 -0.991213 0.513537 3.25141 2.98521)" rx="0.0262205" ry="0.0555276"/>
    <ellipse id="_271402560" class="fil8" transform="matrix(-0.513537 -0.991213 -0.991213 0.513537 2.6787 2.92838)" rx="0.0262205" ry="0.0555276"/>
    <ellipse id="_271402680" class="fil8" transform="matrix(1.11058 0.113276 -0.113276 1.11058 4.08457 2.06817)" rx="0.0262205" ry="0.0555276"/>
    <ellipse id="_271402416" class="fil8" transform="matrix(-1.11058 0.113276 0.113276 1.11058 3.12041 3.07806)" rx="0.0262205" ry="0.0555276"/>
    <ellipse id="_271401816" class="fil8" transform="matrix(-1.11058 0.113276 0.113276 1.11058 2.5477 3.02123)" rx="0.0262205" ry="0.0555276"/>
    <ellipse id="_271401408" class="fil8" transform="matrix(0.404574 -1.04045 1.04045 0.404575 4.19835 1.98882)" rx="0.0262205" ry="0.0555276"/>
    <ellipse id="_271401504" class="fil8" transform="matrix(-0.404574 -1.04045 -1.04045 0.404575 3.00663 2.99871)" rx="0.0262205" ry="0.0555276"/>
    <ellipse id="_271401840" class="fil8" transform="matrix(-0.404574 -1.04045 -1.04045 0.404575 2.43392 2.94188)" rx="0.0262205" ry="0.0555276"/>
    <ellipse id="_271401984" class="fil8" transform="matrix(0.693117 -0.875107 0.875106 0.693118 4.56375 2.02624)" rx="0.0262205" ry="0.0555276"/>
    <ellipse id="_271402056" class="fil8" transform="matrix(0.920149 -0.632099 0.632098 0.92015 4.35647 2.1152)" rx="0.0262205" ry="0.0555276"/>
    <ellipse id="_271401552" class="fil8" transform="matrix(1.06552 -0.332995 0.332994 1.06552 4.63033 2.22205)" rx="0.0262205" ry="0.0555276"/>
    <ellipse id="_271401672" class="fil8" transform="matrix(1.11633 -0.0043388 0.00433879 1.11634 4.85487 2.17992)" rx="0.0262205" ry="0.0555276"/>
   </g>
  </g>
  <rect class="fil9" width="6.82666" height="6.82666"/>
 </g>
</svg>
