<?xml version="1.0" encoding="UTF-8"?>
<!DOCTYPE svg PUBLIC "-//W3C//DTD SVG 1.1//EN" "http://www.w3.org/Graphics/SVG/1.1/DTD/svg11.dtd">
<!-- Creator: CorelDRAW -->
<svg xmlns="http://www.w3.org/2000/svg" xml:space="preserve" width="6.82666in" height="6.82666in" style="shape-rendering:geometricPrecision; text-rendering:geometricPrecision; image-rendering:optimizeQuality; fill-rule:evenodd; clip-rule:evenodd"
viewBox="0 0 6.82666 6.82666"
 xmlns:xlink="http://www.w3.org/1999/xlink">
 <defs>
  <style type="text/css">
   <![CDATA[
    .fil9 {fill:none}
    .fil4 {fill:#5DAFF2}
    .fil8 {fill:#64B5F6}
    .fil0 {fill:#5DAFF2;fill-rule:nonzero}
    .fil2 {fill:#76D4E8;fill-rule:nonzero}
    .fil6 {fill:#80DEEA;fill-rule:nonzero}
    .fil1 {fill:#84C2F5;fill-rule:nonzero}
    .fil5 {fill:#90CAF9;fill-rule:nonzero}
    .fil3 {fill:#92C8F5;fill-rule:nonzero}
    .fil7 {fill:#9FD1F9;fill-rule:nonzero}
   ]]>
  </style>
 </defs>
 <g id="Layer_x0020_1">
  <metadata id="CorelCorpID_0Corel-Layer"/>
  <g id="_437044936">
   <path id="_437045656" class="fil0" d="M4.69389 4.09452c0.0443937,-0.00165354 0.109819,-0.00567323 0.169685,-0.0153937 0.542512,-0.0881417 0.403075,-1.44833 0.146921,-1.71596 -0.109319,0.041185 -0.677543,0.224181 -0.803272,0.131126l0.0150079 -0.24272c0.182339,0.162244 0.71948,-0.195717 0.898067,-0.167264 0.373638,0.39039 0.574406,2.10508 -0.227232,2.23528 -0.0729764,0.0118504 -0.145087,0.0164646 -0.192764,0.0182402l-0.00641339 -0.243303z"/>
   <path id="_437045800" class="fil1" d="M4.09937 5.92l-1.98974 -0.00179921c-0.395417,-0.366083 -0.605476,-1.07203 -0.605476,-1.59089 0,-0.206583 0.0452047,-0.418535 0.108571,-0.62248 0.0623622,-0.200728 0.140886,-0.390083 0.210858,-0.558791 0.0239606,-0.0577992 0.0472402,-0.113949 0.0646102,-0.157205 0.319236,-0.794744 0.355512,-1.35381 -0.0588622,-2.09086 0.0946496,0.0840591 0.62798,0.228433 1.27175,0.340181 0.676697,0.117469 1.23137,0.15652 1.28277,0.092748l0.00276772 0.000496063c-0.0656732,0.45437 -0.13274,1.03076 -0.00701969,1.47419 0.0425079,0.149913 0.100563,0.294236 0.160268,0.442673 0.0644685,0.16022 0.130035,0.323193 0.180402,0.505524 0.0511575,0.185181 0.0856417,0.386496 0.0856417,0.617209 0,0.288594 -0.0695866,0.553098 -0.163319,0.778472 -0.160736,0.386488 -0.394689,0.658846 -0.464882,0.735528l-0.0320433 0.0350039 -0.0462913 0zm-2.28477 -5.04797l-0.00208661 -0.0036811 0.0028189 0.000507874c-0.000362205,0.00103543 -0.000602362,0.00209449 -0.000732283,0.00317323z"/>
   <path id="_437045776" class="fil2" d="M2.1941 1.40846l-0.00168504 -0.00297244 0.00227953 0.000409449c-0.000295276,0.000838583 -0.000488189,0.00169291 -0.000594488,0.00256299z"/>
   <path id="_437044456" class="fil3" d="M2.54724 5.49981c-0.228134,-0.0814803 -0.376413,-0.357961 -0.467157,-0.644626 -0.235598,-0.744205 -0.0791929,-1.01106 0.241484,-1.72464 0.28872,-0.64222 0.339657,-1.09399 0.0333268,-1.68959 0.520614,0.482917 0.390205,1.09714 0.123862,1.68959 -0.286118,0.636681 -0.471972,0.990972 -0.297331,1.67447 0.0683543,0.2675 0.189307,0.524496 0.362937,0.692701l0.00287795 0.00209449z"/>
   <ellipse id="_437044528" class="fil4" transform="matrix(1.08051 0.187561 -0 0.412182 3.10107 1.09719)" rx="1.19081" ry="0.341996"/>
   <ellipse id="_437044984" class="fil4" cx="3.12703" cy="5.91402" rx="1.02115" ry="0.0635512"/>
  </g>
  <g id="_437043808">
   <path id="_437044480" class="fil5" d="M3.1291 5.91912l-1.01948 -0.00092126c-0.395417,-0.366083 -0.605476,-1.07203 -0.605476,-1.59089 0,-0.206583 0.0452047,-0.418535 0.108571,-0.62248 0.0623622,-0.200728 0.140886,-0.390083 0.210858,-0.558791 0.0239606,-0.0577992 0.0472402,-0.113949 0.0646102,-0.157205 0.319236,-0.794744 0.355512,-1.35381 -0.0588622,-2.09086 0.0946496,0.0840591 0.62798,0.228433 1.27175,0.340181 0.00937008,0.00162598 0.0187087,0.00322835 0.0280276,0.00482677l0 4.67614zm-1.3145 -5.04709l-0.00208661 -0.0036811 0.0028189 0.000507874c-0.000362205,0.00103543 -0.000602362,0.00209449 -0.000732283,0.00317323z"/>
   <path id="_437044912" class="fil6" d="M2.1941 1.40846l-0.00168504 -0.00297244 0.00227953 0.000409449c-0.000295276,0.000838583 -0.000488189,0.00169291 -0.000594488,0.00256299z"/>
   <path id="_437044816" class="fil7" d="M2.54724 5.49981c-0.228134,-0.0814803 -0.376413,-0.357961 -0.467157,-0.644626 -0.235598,-0.744205 -0.0791929,-1.01106 0.241484,-1.72464 0.28872,-0.64222 0.339657,-1.09399 0.0333268,-1.68959 0.520614,0.482917 0.390205,1.09714 0.123862,1.68959 -0.286118,0.636681 -0.471972,0.990972 -0.297331,1.67447 0.0683543,0.2675 0.189307,0.524496 0.362937,0.692701l0.00287795 0.00209449z"/>
   <path id="_437044024" class="fil8" d="M3.10107 0.956228c0.00937008,0.00162598 0.0187047,0.00326378 0.0280276,0.00490551l0 0.28185c-0.00932283,-0.00159449 -0.0186575,-0.00320079 -0.0280276,-0.00482677 -0.710618,-0.12335 -1.28669,-0.286461 -1.28669,-0.364311 0,-0.0778543 0.576067,-0.0409685 1.28669,0.0823819z"/>
   <path id="_437044264" class="fil8" d="M3.12703 5.85047l0.00207087 0 0 0.127102 -0.00207087 0c-0.563965,0 -1.02115,-0.0284567 -1.02115,-0.0635512 0,-0.0350945 0.457189,-0.0635512 1.02115,-0.0635512z"/>
  </g>
  <rect class="fil9" width="6.82666" height="6.82666"/>
 </g>
</svg>
