<?xml version="1.0" encoding="UTF-8"?>
<!DOCTYPE svg PUBLIC "-//W3C//DTD SVG 1.1//EN" "http://www.w3.org/Graphics/SVG/1.1/DTD/svg11.dtd">
<!-- Creator: CorelDRAW -->
<svg xmlns="http://www.w3.org/2000/svg" xml:space="preserve" width="6.82666in" height="6.82666in" style="shape-rendering:geometricPrecision; text-rendering:geometricPrecision; image-rendering:optimizeQuality; fill-rule:evenodd; clip-rule:evenodd"
viewBox="0 0 6.82666 6.82666"
 xmlns:xlink="http://www.w3.org/1999/xlink">
 <defs>
  <style type="text/css">
   <![CDATA[
    .fil7 {fill:none}
    .fil3 {fill:#5D4037}
    .fil4 {fill:#795548}
    .fil2 {fill:#8A7C77}
    .fil1 {fill:#A89993}
    .fil0 {fill:#BCAAA4}
    .fil6 {fill:#E07F0A}
    .fil5 {fill:#FF8F00}
   ]]>
  </style>
 </defs>
 <g id="Layer_x0020_1">
  <metadata id="CorelCorpID_0Corel-Layer"/>
  <g id="_275231856">
   <g>
    <path id="_275237784" class="fil0" d="M3.17688 2.64921l0 3.06624c0,0.142398 -0.115465,0.257878 -0.257866,0.257878l-1.59144 0c-0.142402,0 -0.25787,-0.11548 -0.25787,-0.257878l0 -3.06624c0,-0.387587 0.210965,-0.742575 0.551996,-0.926441l0 -0.220406 1.00319 0 0 0.220413c0.341,0.183874 0.552,0.538866 0.552,0.926433z"/>
    <path id="_275237064" class="fil1" d="M1.07961 2.50444c0.0453661,-0.32961 0.244059,-0.620988 0.542091,-0.781673l0 -0.000496063 1.00319 0 0 0.000503937c0.298008,0.160689 0.49672,0.452067 0.542094,0.781665l-2.08737 0z"/>
    <polygon id="_275236536" class="fil2" points="1.6217,1.72228 1.6217,1.44482 2.62488,1.44482 2.62488,1.72228 "/>
    <polygon id="_275236560" class="fil3" points="3.18166,3.76858 3.18166,4.35235 1.06492,4.35235 1.06492,3.76858 "/>
    <polygon id="_275236992" class="fil4" points="2.81805,3.24101 2.81805,4.87993 1.42854,4.87993 1.42854,3.24101 "/>
    <path id="_275236968" class="fil5" d="M1.43926 1.50198l1.36807 0 0 -0.506346c0,-0.0782717 -0.0640315,-0.142303 -0.142303,-0.142303l-1.08346 0c-0.0782717,0 -0.142307,0.0640315 -0.142307,0.142303l0 0.506346z"/>
    <path id="_275235792" class="fil6" d="M2.80522 0.971268c-0.0116457,-0.0667717 -0.0702283,-0.117937 -0.140197,-0.117937l-1.08346 0c-0.0699685,0 -0.128551,0.0511654 -0.140197,0.117937l1.36385 0z"/>
    <g>
     <path id="_275235984" class="fil6" d="M1.64043 0.853331l-0.0588661 0c-0.00379528,0 -0.00755512,0.000153543 -0.0112756,0.000448819l0 0.647209 0.0701417 0 0 -0.647657z"/>
     <polygon id="_275236176" class="fil6" points="1.81307,0.853331 1.74293,0.853331 1.74293,1.50099 1.81307,1.50099 "/>
     <polygon id="_275235600" class="fil6" points="1.98572,0.853331 1.91558,0.853331 1.91558,1.50099 1.98572,1.50099 "/>
     <polygon id="_275234976" class="fil6" points="2.15836,0.853331 2.08822,0.853331 2.08822,1.50099 2.15836,1.50099 "/>
     <polygon id="_275235168" class="fil6" points="2.331,0.853331 2.26087,0.853331 2.26087,1.50099 2.331,1.50099 "/>
     <polygon id="_275235384" class="fil6" points="2.50365,0.853331 2.43351,0.853331 2.43351,1.50099 2.50365,1.50099 "/>
     <path id="_275235024" class="fil6" d="M2.67629 0.85378c-0.00371654,-0.000295276 -0.00747638,-0.000448819 -0.0112717,-0.000448819l-0.0588661 0 0 0.647657 0.0701378 0 0 -0.647209z"/>
    </g>
   </g>
   <g>
    <path id="_275234328" class="fil0" d="M5.75696 2.64921l0 3.06624c0,0.142398 -0.115465,0.257878 -0.257866,0.257878l-1.59144 0c-0.142402,0 -0.25787,-0.11548 -0.25787,-0.257878l0 -3.06624c0,-0.387587 0.210965,-0.742575 0.551996,-0.926441l0 -0.220406 1.00319 0 0 0.220413c0.341,0.183874 0.552,0.538866 0.552,0.926433z"/>
    <path id="_275234136" class="fil1" d="M3.65969 2.50444c0.0453661,-0.32961 0.244059,-0.620988 0.542091,-0.781673l0 -0.000496063 1.00319 0 0 0.000503937c0.298008,0.160689 0.49672,0.452067 0.542094,0.781665l-2.08737 0z"/>
    <polygon id="_275234088" class="fil2" points="4.20178,1.72228 4.20178,1.44482 5.20496,1.44482 5.20496,1.72228 "/>
    <polygon id="_275234640" class="fil3" points="5.76174,3.76858 5.76174,4.35235 3.645,4.35235 3.645,3.76858 "/>
    <polygon id="_275234424" class="fil4" points="5.39813,3.24101 5.39813,4.87993 4.00861,4.87993 4.00861,3.24101 "/>
    <path id="_275233296" class="fil5" d="M4.01934 1.50198l1.36807 0 0 -0.506346c0,-0.0782717 -0.0640354,-0.142303 -0.142307,-0.142303l-1.08346 0c-0.0782717,0 -0.142303,0.0640315 -0.142303,0.142303l0 0.506346z"/>
    <path id="_275233800" class="fil6" d="M5.3853 0.971268c-0.0116457,-0.0667717 -0.0702283,-0.117937 -0.140197,-0.117937l-1.08346 0c-0.0699685,0 -0.128551,0.0511654 -0.140197,0.117937l1.36385 0z"/>
    <g>
     <path id="_275233392" class="fil6" d="M4.22051 0.853331l-0.0588661 0c-0.00379528,0 -0.00755512,0.000153543 -0.0112717,0.000448819l0 0.647209 0.0701378 0 0 -0.647657z"/>
     <polygon id="_275234016" class="fil6" points="4.39315,0.853331 4.32301,0.853331 4.32301,1.50099 4.39315,1.50099 "/>
     <polygon id="_275232528" class="fil6" points="4.5658,0.853331 4.49566,0.853331 4.49566,1.50099 4.5658,1.50099 "/>
     <polygon id="_275232792" class="fil6" points="4.73844,0.853331 4.6683,0.853331 4.6683,1.50099 4.73844,1.50099 "/>
     <polygon id="_275232984" class="fil6" points="4.91108,0.853331 4.84094,0.853331 4.84094,1.50099 4.91108,1.50099 "/>
     <polygon id="_275233080" class="fil6" points="5.08373,0.853331 5.01359,0.853331 5.01359,1.50099 5.08373,1.50099 "/>
     <path id="_275232816" class="fil6" d="M5.25637 0.85378c-0.00372047,-0.000295276 -0.00748031,-0.000448819 -0.0112756,-0.000448819l-0.0588661 0 0 0.647657 0.0701417 0 0 -0.647209z"/>
    </g>
   </g>
  </g>
  <rect class="fil7" width="6.82666" height="6.82666"/>
 </g>
</svg>
