<?xml version="1.0" encoding="UTF-8"?>
<!DOCTYPE svg PUBLIC "-//W3C//DTD SVG 1.1//EN" "http://www.w3.org/Graphics/SVG/1.1/DTD/svg11.dtd">
<!-- Creator: CorelDRAW -->
<svg xmlns="http://www.w3.org/2000/svg" xml:space="preserve" width="6.82666in" height="6.82666in" style="shape-rendering:geometricPrecision; text-rendering:geometricPrecision; image-rendering:optimizeQuality; fill-rule:evenodd; clip-rule:evenodd"
viewBox="0 0 6.82666 6.82666"
 xmlns:xlink="http://www.w3.org/1999/xlink">
 <defs>
  <style type="text/css">
   <![CDATA[
    .fil12 {fill:none}
    .fil11 {fill:#433431}
    .fil10 {fill:#33691E;fill-rule:nonzero}
    .fil9 {fill:#424242;fill-rule:nonzero}
    .fil3 {fill:#4CAF50;fill-rule:nonzero}
    .fil8 {fill:#4E342E;fill-rule:nonzero}
    .fil0 {fill:#8D6E63;fill-rule:nonzero}
    .fil2 {fill:#D50000;fill-rule:nonzero}
    .fil7 {fill:#D84315;fill-rule:nonzero}
    .fil1 {fill:#DD2C00;fill-rule:nonzero}
    .fil6 {fill:#E64A19;fill-rule:nonzero}
    .fil5 {fill:#FC8D00;fill-rule:nonzero}
    .fil4 {fill:#FF9800;fill-rule:nonzero}
   ]]>
  </style>
 </defs>
 <g id="Layer_x0020_1">
  <metadata id="CorelCorpID_0Corel-Layer"/>
  <g id="_275242968">
   <g>
    <g>
     <path id="_275208336" class="fil0" d="M3.79305 1.38479l-0.0134055 0.0313819 -2.44377 3.61258 -0.163795 0.242138c-0.027878,0.0413346 -0.0169685,0.0974488 0.0243661,0.125327l0.125327 -0.0243661 0.155622 -0.224665 2.48122 -3.60838c0.165941,-0.241323 0.24524,-0.490453 0.301764,-0.685469l-0.467331 0.531457z"/>
     <path id="_275208288" class="fil1" d="M3.29172 1.61251l0.200256 -0.346713 0.0780591 0.0448268 -0.078185 -0.0451614c0.0235866,-0.0408346 0.0742559,-0.0562638 0.116209,-0.0367283 0.135157,0.0553661 0.251472,0.113732 0.345016,0.175681 0.100063,0.0662756 0.174787,0.13772 0.21976,0.215217l0.000338583 -0.000192913c0.0215354,0.0371417 0.0136378,0.0832598 -0.0165079,0.111327l-0.282409 0.310016 0.000212598 0.000188976c-0.0287244,0.0315315 -0.0746654,0.0380315 -0.110425,0.0182362l-0.375925 -0.171035 0.0372362 -0.0819685 -0.0373898 0.0821772c-0.0240394,-0.0109331 -0.0409685,-0.0310984 -0.0485079,-0.0543858l-0.0564409 -0.13578 -0.000275591 0.00011811c-0.0121969,-0.0293425 -0.00775591,-0.0614449 0.00898031,-0.0858228z"/>
     <path id="_275208312" class="fil2" d="M3.80776 2.24663l0.069626 0.0568819 -0.239142 0.293272c-0.0258937,0.0385945 -0.0775079,0.0515157 -0.118843,0.0285079l0.000204724 -0.000374016c-0.291106,-0.162047 -0.315661,-0.172957 -0.56878,-0.365094 -0.037252,-0.0231378 -0.0530512,-0.0706299 -0.0352638,-0.112185l0.000358268 0.000153543 0.156894 -0.3665c0.0142992,-0.0446457 0.0608937,-0.0713228 0.107181,-0.0601299l-7.48031e-005 0.000322835c0.0851142,0.0206063 0.141933,0.0760512 0.209516,0.142 0.0353937,0.0345354 0.0744764,0.0726732 0.121717,0.107409 0.0325039,0.0238976 0.076622,0.0445354 0.123091,0.0662717 0.0773819,0.0361969 0.160193,0.0749252 0.231295,0.140091 0.0379882,0.031626 0.0435079,0.0880315 0.0121969,0.126433l-0.0699764 -0.0570591z"/>
     <path id="_275207352" class="fil3" d="M2.79702 2.22225c-0.0394134,-0.0302362 -0.095878,-0.0227992 -0.126114,0.0166142 -0.0302323,0.0394134 -0.0227953,0.0958819 0.0166181,0.126114 0.00958268,0.00737402 0.0157087,0.030815 0.0212047,0.0518583 0.0263268,0.100819 0.0481417,0.184315 0.224618,0.138665 0.00981102,-0.00253543 0.0281457,0.0267913 0.0472165,0.057315 0.0477283,0.076374 0.0972205,0.155555 0.216744,0.154469 0.0221339,-0.000204724 0.0338228,-0.000496063 0.0449606,-0.000779528 0.0699764,-0.00177165 0.122669,-0.00309843 0.184035,0.0382913 0.0413346,0.027878 0.0974488,0.0169685 0.125327,-0.0243661 0.027878,-0.0413346 0.0169685,-0.0974488 -0.0243661,-0.125327 -0.108701,-0.073315 -0.1865,-0.0713543 -0.289839,-0.0687402 -0.0166457,0.000425197 -0.0338661,0.000858268 -0.0420591,0.000933071 -0.0187008,0.000173228 -0.040878,-0.0353071 -0.0622638,-0.0695315 -0.0548858,-0.0878307 -0.10763,-0.172217 -0.244476,-0.136811 -0.00280315,0.000724409 -0.00401969,-0.00391732 -0.00548425,-0.00952362 -0.0128228,-0.0491063 -0.0271063,-0.103783 -0.086122,-0.149181z"/>
     <path id="_275207208" class="fil4" d="M3.03736 3.23993c-0.0382677,-0.0250157 -0.0106969,-0.00181496 -0.163008,-0.0515709 -0.152307,-0.0497559 -0.577744,-0.22263 -0.587126,-0.215579l-0.000212598 0.00015748c-0.0277402,0.0208504 -0.0179094,-0.0745984 -0.00937795,-0.092937 0.0085315,-0.0183386 0.00703937,-0.0128937 0.0111929,-0.0178543 0.00414961,-0.00496457 0.00860236,-0.00904724 0.0133386,-0.0134016l7.48031e-005 -6.69291e-005c0.0222598,-0.0204764 -0.0355906,-0.197189 -0.0185197,-0.2225 0.0170709,-0.025311 0.0410472,-0.0744173 0.0756378,-0.140795 0.0345945,-0.0663819 0.278827,-0.0534331 0.264024,-0.0814646l-0.000125984 -0.000232283c-0.0232835,-0.0440866 0.108791,0.0119567 0.122201,0.0370315 0.0134094,0.0250748 -0.0222402,-0.0608543 0.00757874,0.0190787 0.0298228,0.0799331 0.204961,0.278827 0.280937,0.343638 0.0759764,0.064815 0.0733268,0.0627874 0.107264,0.0939803 0.0339331,0.0311929 0.0266457,0.0254606 0.0712047,0.0551142 0.0445591,0.0296535 0.0328071,-0.0120472 0.0521417,0.0873976 0.0193346,0.0994449 -0.0493976,0.0603031 -0.0318858,0.0874764l7.87402e-006 1.5748e-005c0.0290118,0.0450118 -0.157079,0.137531 -0.195346,0.112512z"/>
     <path id="_275207520" class="fil5" d="M3.03736 3.23993c-0.0382677,-0.0250157 -0.0106969,-0.00181496 -0.163008,-0.0515709 -0.152307,-0.0497559 -0.394457,-0.437248 -0.403839,-0.430201l-0.000212598 0.000161417c-0.0277441,0.0208504 -0.0179094,-0.0745984 -0.00938189,-0.092937 0.0085315,-0.0183386 0.00703937,-0.0128937 0.0111929,-0.0178583 0.00414961,-0.00496063 0.00861024,-0.00904724 0.0133386,-0.0133976l7.48031e-005 -7.08661e-005c0.0222559,-0.0204685 -0.218874,0.0174331 -0.201803,-0.00787795 0.0170709,-0.025311 0.0410472,-0.0744173 0.0756378,-0.140795 0.203024,-0.389591 0.625894,0.276492 0.674614,0.318051 0.0759764,0.064815 0.0733268,0.0627874 0.107264,0.0939803 0.0339331,0.0311929 0.0266457,0.0254606 0.0712047,0.0551142 0.0445591,0.0296535 0.0328071,-0.0120472 0.0521417,0.0873976 0.0193346,0.0994449 -0.0493976,0.0603031 -0.0318858,0.0874764l7.87402e-006 1.5748e-005c0.0290118,0.0450118 -0.157079,0.137531 -0.195346,0.112512z"/>
     <path id="_275207856" class="fil6" d="M1.29551 4.68304l-0.0708031 -0.0555748 0.246409 -0.315575c0.0163346,-0.0246575 0.044437,-0.0408031 0.0762165,-0.0404882l-3.93701e-006 0.00030315 0.146988 0.00145276c0.0244331,-0.00174803 0.0494843,0.0063937 0.0686417,0.0245945l-0.062185 0.0654606 0.0620512 -0.0652362 0.299465 0.284488c0.0317244,0.0257402 0.0428937,0.070748 0.0244291,0.109181l-0.000251969 -0.000122047 -0.181626 0.378004c-0.0147323,0.0384567 -0.0545276,0.0630512 -0.0970236,0.0570039l5.11811e-005 -0.000389764c-0.0887047,-0.0126575 -0.182945,-0.0551732 -0.281878,-0.12311 -0.0924961,-0.0635236 -0.190205,-0.149512 -0.292197,-0.254094 -0.0337913,-0.0315827 -0.0384528,-0.084311 -0.00944488,-0.121461l0.0711614 0.055563z"/>
     <path id="_275207304" class="fil7" d="M2.96965 3.48929l0.069622 0.0568819 -0.239142 0.293276c-0.0258898,0.0385945 -0.0775039,0.0515157 -0.118839,0.0285079l0.000204724 -0.000374016 -0.315654 -0.175717c-0.00648425,-0.00282283 -0.0127441,-0.00644882 -0.0186299,-0.0109173l0.000224409 -0.000295276 -0.234717 -0.178165c-0.037252,-0.0231378 -0.0530512,-0.0706339 -0.0352638,-0.112185l0.000358268 0.000153543 0.156898 -0.36652c0.0143071,-0.0446378 0.0608898,-0.0713071 0.107173,-0.0601142l-7.48031e-005 0.000322835c0.0851181,0.0206024 0.141937,0.0760512 0.209516,0.142 0.0353937,0.0345394 0.0744724,0.0726732 0.121717,0.107413 0.0324961,0.0238937 0.076622,0.0445354 0.123083,0.0662638 0.0773858,0.0361969 0.160201,0.0749331 0.231299,0.140094 0.0379921,0.0316299 0.0435118,0.0880354 0.0121969,0.126433l-0.0699724 -0.0570591z"/>
     <path id="_275207808" class="fil8" d="M1.97078 3.44732c-0.0394134,-0.0302362 -0.095878,-0.0227953 -0.126114,0.0166142 -0.0302323,0.0394134 -0.0227953,0.0958819 0.0166181,0.126114 0.00958268,0.00737402 0.0157087,0.030815 0.0212047,0.0518583 0.0263346,0.100827 0.0481496,0.184319 0.224614,0.138669 0.00981496,-0.00253543 0.0281496,0.0267953 0.0472205,0.0573189 0.0477283,0.0763701 0.0972126,0.155551 0.21674,0.154465 0.0221496,-0.000204724 0.0338228,-0.000496063 0.0449646,-0.000779528 0.0699803,-0.00177165 0.122669,-0.00309843 0.184031,0.0382874 0.0413346,0.027878 0.0974488,0.0169646 0.125327,-0.0243661 0.027878,-0.0413346 0.0169685,-0.0974488 -0.0243661,-0.125327 -0.108697,-0.0733189 -0.186496,-0.0713543 -0.289835,-0.0687362 -0.0166417,0.000425197 -0.033878,0.000858268 -0.042063,0.000933071 -0.0186969,0.000173228 -0.040874,-0.0353071 -0.0622598,-0.0695276 -0.0548858,-0.0878268 -0.107638,-0.17222 -0.244476,-0.136815 -0.00280315,0.000724409 -0.00402362,-0.00392126 -0.00548425,-0.00952362 -0.0128228,-0.0491102 -0.0271142,-0.103795 -0.086122,-0.149185z"/>
     <path id="_275207736" class="fil9" d="M1.70961 3.78601c0.021,0.00526772 0.0487835,0.0131654 0.0813898,0.0229843 0.0096378,0.0122441 0.0162283,0.0271378 0.0184488,0.0436969 0.00661024,0.049315 -0.0280079,0.0946535 -0.0773228,0.101264l-0.00276378 -0.0206102c0.0272717,-0.0297087 0.0312441,-0.0738268 0.0106417,-0.107764l-0.000145669 -0.000232283 -0.00088189 -0.00142126 -0.000374016 -0.000582677 -0.000755906 -0.00114961 -0.000555118 -0.000818898 -0.000622047 -0.000889764 -0.000783465 -0.00109843 -0.000377953 -0.000515748 -0.00105906 -0.00141339 -0.000212598 -0.000275591c-0.00301181,-0.00390157 -0.00637795,-0.0076063 -0.0101102,-0.011063l-0.0103268 0.0111299 -1.9685e-005 -0.00015748 0.0100984 -0.0109252c-0.00199213,-0.00185039 -0.00650787,-0.00472835 -0.0126535,-0.0081063l-0.00161417 -0.0120512z"/>
     <path id="_275207712" class="fil10" d="M1.66919 3.77864l0.0024252 5.90551e-005c0.00170866,3.93701e-005 0.00383071,0.000240157 0.00633071,0.000586614 0.00697638,-0.000874016 0.0169094,-0.00213386 0.0302441,-0.00391339 0.0327559,-0.00438976 0.063752,0.00941339 0.082815,0.033626 0.0464488,0.0139882 0.102693,0.0318701 0.163091,0.0516024 0.244614,0.0799094 0.579374,0.207969 0.587087,0.215591l0.000200787 -0.000153543c0.0207913,0.0277244 0.0232205,0.0635079 0.00938583,0.0928031 -0.00322441,0.00749606 -0.00690157,0.0129882 -0.0114055,0.0181535 -0.00385039,0.00475591 -0.00824803,0.0091811 -0.0131654,0.013185l-1.9685e-005 2.3622e-005c-0.0219016,0.0206693 -0.121106,0.114323 -0.145303,0.150201 -0.00996457,0.0147756 -0.0441969,0.0804567 -0.0756102,0.140744 -0.0378189,0.072563 -0.0724764,0.139024 -0.100354,0.153902l-0.0423898 -0.0794213 0.0425118 0.0796535c-0.0439921,0.0234764 -0.098689,0.00685039 -0.122165,-0.0371417 -0.00328346,-0.00614961 -0.00577953,-0.0125118 -0.00752756,-0.0189646 -0.057874,-0.153362 -0.163429,-0.243421 -0.280945,-0.343681 -0.0344449,-0.0293858 -0.0698465,-0.0595906 -0.10726,-0.0939764 -0.0304685,-0.0280039 -0.0533937,-0.0432598 -0.0712087,-0.0551142 -0.0713071,-0.0474528 -0.0954055,-0.0634921 -0.127476,-0.228441 -0.00677559,-0.0348543 0.00748425,-0.0689173 0.0339291,-0.0890827l-1.5748e-005 -1.9685e-005c0.0196969,-0.0151575 0.0436614,-0.0209173 0.0665079,-0.0179921 0.0201693,0.000515748 0.0409843,0.00475591 0.0600866,0.0106378 0.00656299,0.00201969 0.0134291,0.00447244 0.0202323,0.00713386z"/>
    </g>
    <path id="_275206536" class="fil11" d="M1.32709 4.99572l0.1975 0.130835 -0.445886 0.759988c-0.0534961,0.0911811 -0.178173,0.112614 -0.266354,0.0542953l0 0c-0.0881772,-0.058315 -0.122213,-0.185335 -0.0542953,-0.26635l0.569035 -0.678768z"/>
   </g>
   <g>
    <g>
     <path id="_275207064" class="fil0" d="M5.63722 1.38479l-0.0134094 0.0313819 -2.44376 3.61258 -0.163795 0.242138c-0.027878,0.0413346 -0.0169685,0.0974488 0.0243661,0.125327l0.125327 -0.0243661 0.155622 -0.224665 2.48122 -3.60838c0.165937,-0.241323 0.24524,-0.490453 0.301764,-0.685469l-0.467331 0.531457z"/>
     <path id="_275206416" class="fil1" d="M5.13589 1.61251l0.20026 -0.346713 0.0780591 0.0448268 -0.078185 -0.0451614c0.0235866,-0.0408346 0.0742559,-0.0562638 0.116209,-0.0367283 0.135157,0.0553661 0.251472,0.113732 0.345016,0.175681 0.100059,0.0662756 0.174787,0.13772 0.21976,0.215217l0.000338583 -0.000192913c0.0215354,0.0371417 0.0136378,0.0832598 -0.0165079,0.111327l-0.282409 0.310016 0.000212598 0.000188976c-0.0287244,0.0315315 -0.0746693,0.0380315 -0.110425,0.0182362l-0.375929 -0.171035 0.0372402 -0.0819685 -0.0373898 0.0821772c-0.0240394,-0.0109331 -0.0409685,-0.0310984 -0.0485118,-0.0543858l-0.056437 -0.13578 -0.000275591 0.00011811c-0.0121969,-0.0293425 -0.00775984,-0.0614449 0.00897638,-0.0858228z"/>
     <path id="_275206656" class="fil2" d="M5.65194 2.24663l0.069626 0.0568819 -0.239146 0.293272c-0.0258898,0.0385945 -0.0775039,0.0515157 -0.118843,0.0285079l0.000208661 -0.000374016c-0.291106,-0.162047 -0.315661,-0.172957 -0.56878,-0.365094 -0.037252,-0.0231378 -0.0530512,-0.0706299 -0.0352638,-0.112185l0.000358268 0.000153543 0.15689 -0.3665c0.0143031,-0.0446457 0.0608976,-0.0713228 0.107185,-0.0601299l-7.48031e-005 0.000322835c0.0851142,0.0206063 0.141933,0.0760512 0.209516,0.142 0.0353937,0.0345354 0.0744764,0.0726732 0.121717,0.107409 0.0325039,0.0238976 0.076622,0.0445354 0.123091,0.0662717 0.0773819,0.0361969 0.160193,0.0749252 0.231291,0.140091 0.0379921,0.031626 0.0435118,0.0880315 0.0121969,0.126433l-0.0699724 -0.0570591z"/>
     <path id="_275206872" class="fil3" d="M4.6412 2.22225c-0.0394134,-0.0302362 -0.095878,-0.0227992 -0.126114,0.0166142 -0.0302323,0.0394134 -0.0227953,0.0958819 0.0166181,0.126114 0.00958268,0.00737402 0.0157087,0.030815 0.0212047,0.0518583 0.0263268,0.100819 0.0481417,0.184315 0.224618,0.138665 0.00981102,-0.00253543 0.0281417,0.0267913 0.0472165,0.057315 0.0477283,0.076374 0.0972205,0.155555 0.21674,0.154469 0.0221378,-0.000204724 0.0338228,-0.000496063 0.0449646,-0.000779528 0.0699764,-0.00177165 0.122669,-0.00309843 0.184035,0.0382913 0.0413346,0.027878 0.0974488,0.0169685 0.125327,-0.0243661 0.027878,-0.0413346 0.0169685,-0.0974488 -0.0243661,-0.125327 -0.108701,-0.073315 -0.1865,-0.0713543 -0.289839,-0.0687402 -0.0166496,0.000425197 -0.0338661,0.000858268 -0.042063,0.000933071 -0.0186969,0.000173228 -0.040878,-0.0353071 -0.0622598,-0.0695315 -0.0548858,-0.0878307 -0.10763,-0.172217 -0.244476,-0.136811 -0.00280315,0.000724409 -0.00401969,-0.00391732 -0.00548425,-0.00952362 -0.0128228,-0.0491063 -0.0271063,-0.103783 -0.086122,-0.149181z"/>
     <path id="_275206920" class="fil4" d="M4.88153 3.23993c-0.0382677,-0.0250157 -0.0106969,-0.00181496 -0.163008,-0.0515709 -0.152307,-0.0497559 -0.577744,-0.22263 -0.587126,-0.215579l-0.000212598 0.00015748c-0.0277402,0.0208504 -0.0179094,-0.0745984 -0.00937795,-0.092937 0.0085315,-0.0183386 0.00703937,-0.0128937 0.011189,-0.0178543 0.00415354,-0.00496457 0.0086063,-0.00904724 0.0133425,-0.0134016l7.48031e-005 -6.69291e-005c0.0222598,-0.0204764 -0.0355906,-0.197189 -0.0185197,-0.2225 0.0170709,-0.025311 0.0410472,-0.0744173 0.0756378,-0.140795 0.0345906,-0.0663819 0.278827,-0.0534331 0.264024,-0.0814646l-0.000125984 -0.000232283c-0.0232835,-0.0440866 0.108791,0.0119567 0.122201,0.0370315 0.0134094,0.0250748 -0.0222402,-0.0608543 0.00757874,0.0190787 0.0298189,0.0799331 0.204961,0.278827 0.280937,0.343638 0.0759764,0.064815 0.0733228,0.0627874 0.10726,0.0939803 0.033937,0.0311929 0.0266496,0.0254606 0.0712087,0.0551142 0.0445551,0.0296535 0.0328071,-0.0120472 0.0521417,0.0873976 0.0193346,0.0994449 -0.0493976,0.0603031 -0.0318858,0.0874764l7.87402e-006 1.5748e-005c0.0290118,0.0450118 -0.157083,0.137531 -0.195346,0.112512z"/>
     <path id="_275206944" class="fil5" d="M4.88153 3.23993c-0.0382677,-0.0250157 -0.0106969,-0.00181496 -0.163008,-0.0515709 -0.152307,-0.0497559 -0.394461,-0.437248 -0.403839,-0.430201l-0.000216535 0.000161417c-0.0277402,0.0208504 -0.0179055,-0.0745984 -0.00937795,-0.092937 0.0085315,-0.0183386 0.00703937,-0.0128937 0.0111929,-0.0178583 0.00414961,-0.00496063 0.0086063,-0.00904724 0.0133386,-0.0133976l7.48031e-005 -7.08661e-005c0.0222559,-0.0204685 -0.218874,0.0174331 -0.201803,-0.00787795 0.0170709,-0.025311 0.0410472,-0.0744173 0.0756378,-0.140795 0.203024,-0.389591 0.625894,0.276492 0.674614,0.318051 0.0759764,0.064815 0.0733228,0.0627874 0.10726,0.0939803 0.033937,0.0311929 0.0266496,0.0254606 0.0712087,0.0551142 0.0445551,0.0296535 0.0328071,-0.0120472 0.0521417,0.0873976 0.0193346,0.0994449 -0.0493976,0.0603031 -0.0318858,0.0874764l7.87402e-006 1.5748e-005c0.0290118,0.0450118 -0.157083,0.137531 -0.195346,0.112512z"/>
     <path id="_275207112" class="fil6" d="M3.13969 4.68304l-0.0708031 -0.0555748 0.246409 -0.315575c0.0163346,-0.0246575 0.0444331,-0.0408031 0.0762126,-0.0404882l0 0.00030315 0.146988 0.00145276c0.0244331,-0.00174803 0.0494843,0.0063937 0.0686417,0.0245945l-0.062185 0.0654606 0.0620472 -0.0652362 0.299469 0.284488c0.0317244,0.0257402 0.0428937,0.070748 0.0244291,0.109181l-0.000251969 -0.000122047 -0.181626 0.378004c-0.0147323,0.0384567 -0.0545276,0.0630512 -0.0970236,0.0570039l5.11811e-005 -0.000389764c-0.0887047,-0.0126575 -0.182945,-0.0551732 -0.281878,-0.12311 -0.0925,-0.0635236 -0.190205,-0.149512 -0.292197,-0.254094 -0.0337913,-0.0315827 -0.0384528,-0.084311 -0.00944488,-0.121461l0.0711614 0.055563z"/>
     <path id="_275207088" class="fil7" d="M4.81383 3.48929l0.069622 0.0568819 -0.239142 0.293276c-0.0258898,0.0385945 -0.0775039,0.0515157 -0.118843,0.0285079l0.000208661 -0.000374016 -0.315654 -0.175717c-0.00648425,-0.00282283 -0.0127441,-0.00644882 -0.0186299,-0.0109173l0.000224409 -0.000295276 -0.234717 -0.178165c-0.037252,-0.0231378 -0.0530512,-0.0706339 -0.0352677,-0.112185l0.000362205 0.000153543 0.156898 -0.36652c0.0143071,-0.0446378 0.0608858,-0.0713071 0.107173,-0.0601142l-7.87402e-005 0.000322835c0.085122,0.0206024 0.141941,0.0760512 0.20952,0.142 0.0353937,0.0345394 0.0744724,0.0726732 0.121717,0.107413 0.0324961,0.0238937 0.076622,0.0445354 0.123083,0.0662638 0.0773858,0.0361969 0.160197,0.0749331 0.231299,0.140094 0.0379921,0.0316299 0.0435118,0.0880354 0.0121969,0.126433l-0.0699724 -0.0570591z"/>
     <path id="_275206584" class="fil8" d="M3.81495 3.44732c-0.0394134,-0.0302362 -0.095878,-0.0227953 -0.126114,0.0166142 -0.0302323,0.0394134 -0.0227953,0.0958819 0.0166181,0.126114 0.00958268,0.00737402 0.0157087,0.030815 0.0212008,0.0518583 0.0263346,0.100827 0.0481535,0.184319 0.224618,0.138669 0.00981496,-0.00253543 0.0281496,0.0267953 0.0472205,0.0573189 0.0477283,0.0763701 0.0972087,0.155551 0.21674,0.154465 0.0221496,-0.000204724 0.0338228,-0.000496063 0.0449646,-0.000779528 0.0699803,-0.00177165 0.122669,-0.00309843 0.184031,0.0382874 0.0413346,0.027878 0.0974488,0.0169646 0.125327,-0.0243661 0.027878,-0.0413346 0.0169685,-0.0974488 -0.0243661,-0.125327 -0.108697,-0.0733189 -0.186496,-0.0713543 -0.289835,-0.0687362 -0.0166417,0.000425197 -0.0338819,0.000858268 -0.042063,0.000933071 -0.0186969,0.000173228 -0.040874,-0.0353071 -0.0622598,-0.0695276 -0.0548858,-0.0878268 -0.107638,-0.17222 -0.244476,-0.136815 -0.00280315,0.000724409 -0.00402362,-0.00392126 -0.00548819,-0.00952362 -0.0128189,-0.0491102 -0.0271102,-0.103795 -0.0861181,-0.149185z"/>
     <path id="_275242896" class="fil9" d="M3.55379 3.78601c0.021,0.00526772 0.0487835,0.0131654 0.0813898,0.0229843 0.0096378,0.0122441 0.0162244,0.0271378 0.0184488,0.0436969 0.00661024,0.049315 -0.0280118,0.0946535 -0.0773268,0.101264l-0.00275984 -0.0206102c0.0272717,-0.0297087 0.0312441,-0.0738268 0.0106417,-0.107764l-0.000145669 -0.000232283 -0.00088189 -0.00142126 -0.000374016 -0.000582677 -0.000759843 -0.00114961 -0.000551181 -0.000818898 -0.000622047 -0.000889764 -0.000783465 -0.00109843 -0.000377953 -0.000515748 -0.00105906 -0.00141339 -0.000212598 -0.000275591c-0.00301181,-0.00390157 -0.00637795,-0.0076063 -0.0101102,-0.011063l-0.0103268 0.0111299 -1.9685e-005 -0.00015748 0.0100984 -0.0109252c-0.00199213,-0.00185039 -0.00650787,-0.00472835 -0.0126535,-0.0081063l-0.00161417 -0.0120512z"/>
     <path id="_275242680" class="fil10" d="M3.51336 3.77864l0.0024252 5.90551e-005c0.00170866,3.93701e-005 0.00383071,0.000240157 0.00633071,0.000586614 0.00697638,-0.000874016 0.0169094,-0.00213386 0.0302441,-0.00391339 0.0327559,-0.00438976 0.063752,0.00941339 0.082815,0.033626 0.0464488,0.0139882 0.102693,0.0318701 0.163087,0.0516024 0.244618,0.0799094 0.579378,0.207969 0.587087,0.215591l0.000204724 -0.000153543c0.0207913,0.0277244 0.0232205,0.0635079 0.00938583,0.0928031 -0.00322441,0.00749606 -0.00690157,0.0129882 -0.0114055,0.0181535 -0.00385433,0.00475591 -0.00824803,0.0091811 -0.0131654,0.013185l-1.9685e-005 2.3622e-005c-0.0219016,0.0206693 -0.121106,0.114323 -0.145303,0.150201 -0.0099685,0.0147756 -0.0441969,0.0804567 -0.0756142,0.140744 -0.037815,0.072563 -0.0724724,0.139024 -0.10035,0.153902l-0.0423898 -0.0794213 0.0425118 0.0796535c-0.0439921,0.0234764 -0.098689,0.00685039 -0.122165,-0.0371417 -0.00328346,-0.00614961 -0.00577953,-0.0125118 -0.00752756,-0.0189646 -0.057874,-0.153362 -0.163429,-0.243421 -0.280945,-0.343681 -0.0344488,-0.0293858 -0.0698504,-0.0595906 -0.10726,-0.0939764 -0.0304685,-0.0280039 -0.0533937,-0.0432598 -0.0712087,-0.0551142 -0.071311,-0.0474528 -0.0954055,-0.0634921 -0.127476,-0.228441 -0.00677953,-0.0348543 0.00748425,-0.0689173 0.0339291,-0.0890827l-1.5748e-005 -1.9685e-005c0.0196969,-0.0151575 0.0436614,-0.0209173 0.0665079,-0.0179921 0.0201693,0.000515748 0.0409843,0.00475591 0.0600866,0.0106378 0.00656299,0.00201969 0.0134252,0.00447244 0.0202323,0.00713386z"/>
    </g>
    <path id="_275242584" class="fil11" d="M3.17127 4.99572l0.1975 0.130835 -0.445886 0.759988c-0.0534961,0.0911811 -0.178173,0.112614 -0.266354,0.0542953l0 0c-0.0881772,-0.058315 -0.122213,-0.185335 -0.0542953,-0.26635l0.569035 -0.678768z"/>
   </g>
  </g>
  <rect class="fil12" width="6.82666" height="6.82666"/>
 </g>
</svg>
