<?xml version="1.0" encoding="UTF-8"?>
<!DOCTYPE svg PUBLIC "-//W3C//DTD SVG 1.1//EN" "http://www.w3.org/Graphics/SVG/1.1/DTD/svg11.dtd">
<!-- Creator: CorelDRAW -->
<svg xmlns="http://www.w3.org/2000/svg" xml:space="preserve" width="6.82666in" height="6.82666in" style="shape-rendering:geometricPrecision; text-rendering:geometricPrecision; image-rendering:optimizeQuality; fill-rule:evenodd; clip-rule:evenodd"
viewBox="0 0 6.82666 6.82666"
 xmlns:xlink="http://www.w3.org/1999/xlink">
 <defs>
  <style type="text/css">
   <![CDATA[
    .fil5 {fill:none}
    .fil0 {fill:#4BB5E4}
    .fil1 {fill:#47A8D3;fill-rule:nonzero}
    .fil3 {fill:#4BB5E4;fill-rule:nonzero}
    .fil2 {fill:#81D4FA;fill-rule:nonzero}
    .fil4 {fill:#B3E5FC;fill-rule:nonzero}
   ]]>
  </style>
 </defs>
 <g id="Layer_x0020_1">
  <metadata id="CorelCorpID_0Corel-Layer"/>
  <g id="_273794248">
   <ellipse id="_273794968" class="fil0" transform="matrix(0.928436 -0.186945 0.149035 0.740161 4.6577 1.82481)" rx="1.32917" ry="0.169677"/>
   <ellipse id="_273794704" class="fil0" transform="matrix(0.935819 0.145549 -0.116034 0.746047 2.15573 1.42296)" rx="1.32917" ry="0.169677"/>
   <path id="_273794584" class="fil1" d="M5.31013 5.065c0.142339,-0.0286614 0.288787,0.0234567 0.391409,0.0361457 0.129866,0.016063 0.218504,0.0672677 0.235122,0.149803 0.0166181,0.0825354 -0.0452992,0.164055 -0.158823,0.229126 -0.0897126,0.0514134 -0.216382,0.0975512 -0.35872,0.126213 -0.142335,0.0286614 -0.276988,0.0351378 -0.37961,0.0224528 -0.129862,-0.016063 -0.2185,-0.0672677 -0.235118,-0.149803 -0.016622,-0.0825354 0.0452913,-0.164055 0.158819,-0.229126 0.0897165,-0.0514134 0.204583,-0.15615 0.346921,-0.184811z"/>
   <path id="_273794752" class="fil1" d="M1.64777 4.68891c0.143469,0.022315 0.262874,0.12185 0.354783,0.169232 0.116303,0.0599646 0.181772,0.138657 0.168835,0.221846 -0.0129409,0.0831929 -0.0992205,0.138283 -0.22824,0.160094 -0.101957,0.0172283 -0.236764,0.0167323 -0.380236,-0.00558268 -0.143469,-0.022311 -0.272059,-0.0627835 -0.363965,-0.110165 -0.116303,-0.0599646 -0.181776,-0.138657 -0.168835,-0.22185 0.012937,-0.083189 0.0992126,-0.13828 0.228236,-0.160091 0.101957,-0.0172283 0.245953,-0.0757992 0.389421,-0.0534843z"/>
   <path id="_273794560" class="fil2" d="M5.84627 5.24696c-0.0096378,0.0560315 -0.0593701,0.109791 -0.137417,0.154528 -0.0772992,0.0443031 -0.186437,0.0840551 -0.309075,0.108748 -0.122638,0.0246929 -0.238654,0.0302756 -0.327075,0.0193425 -0.0892795,-0.0110433 -0.155945,-0.0413661 -0.186516,-0.0892992 0.0346496,0.0309134 0.0945669,0.0497835 0.171429,0.0559409 0.0898465,0.00718898 0.208295,-0.00101575 0.334035,-0.0263346 0.12574,-0.0253189 0.238134,-0.0635945 0.318197,-0.104996 0.0684921,-0.0354252 0.116433,-0.0760118 0.136421,-0.117929z"/>
   <path id="_273794800" class="fil2" d="M2.08795 5.045c-0.0284134,0.049248 -0.0936654,0.0824961 -0.18237,0.0974921 -0.0878465,0.0148465 -0.203996,0.0144213 -0.32761,-0.00480709 -0.123614,-0.0192244 -0.234406,-0.0540945 -0.313594,-0.0949213 -0.0799567,-0.0412244 -0.132028,-0.0927244 -0.144142,-0.148272 0.0218268,0.0409843 0.0715236,0.0794055 0.14152,0.111756 0.0818189,0.0378071 0.195803,0.0710551 0.322543,0.0907677 0.12674,0.0197126 0.245437,0.0226535 0.334874,0.0114803 0.0765157,-0.00956299 0.135535,-0.0310748 0.16878,-0.0634961z"/>
   <path id="_273794632" class="fil3" d="M5.08979 3.5627l0.32087 1.59356c-0.0165827,0.0604055 -0.131421,0.0817087 -0.157906,0.0317953l-0.32087 -1.59356 0.157906 -0.0317953z"/>
   <path id="_273793960" class="fil3" d="M1.96037 3.20307l-0.249819 1.60623c-0.0364409,0.0509488 -0.151563,0.0312402 -0.159157,-0.024752l0.249819 -1.60623 0.159157 0.0247559z"/>
   <path id="_273793720" class="fil2" d="M5.89011 1.58667l0.0123189 0.0611811c0.096815,0.480819 0.0505236,0.944394 -0.102583,1.30517 -0.157366,0.370803 -0.427504,0.634949 -0.773114,0.704535 -0.34561,0.0695906 -0.696925,-0.0694213 -0.985535,-0.350421 -0.280803,-0.273409 -0.502902,-0.682945 -0.599717,-1.16376l-0.0123189 -0.0611811c0.0613268,0.0551457 0.604075,-0.00096063 1.25383,-0.131791 0.649752,-0.130831 1.17192,-0.28915 1.20712,-0.363732z"/>
   <path id="_273793696" class="fil2" d="M3.39448 1.62555l-0.00959449 0.0616693c-0.075374,0.484642 -0.279075,0.90363 -0.547465,1.18923 -0.275854,0.293535 -0.620654,0.448004 -0.969012,0.393823 -0.348358,-0.0541772 -0.629953,-0.306071 -0.803626,-0.669524 -0.168969,-0.353626 -0.235791,-0.814689 -0.160417,-1.29933l0.00959449 -0.0616693c0.0384803,0.0729488 0.567157,0.207933 1.22208,0.309795 0.654917,0.101858 1.19962,0.133819 1.25844,0.0760039z"/>
   <path id="_273794392" class="fil4" d="M5.67036 1.75593l0.0119724 -0.00241339 0.0129055 0.0640906c0.0321575,0.159713 0.0448583,0.317079 0.0401339,0.467343 -0.00334252,-0.167685 -0.0245512,-0.34578 -0.0650118,-0.52902zm-0.797035 1.70674c-0.243807,0.0111142 -0.485598,-0.100024 -0.689012,-0.298075 -0.227953,-0.221949 -0.408248,-0.554402 -0.486843,-0.944728l-0.0129055 -0.0640906 5.90551e-005 -1.1811e-005c0.136677,0.38215 0.339035,0.709795 0.566839,0.941902 0.196134,0.199843 0.411528,0.329748 0.621862,0.365004z"/>
   <path id="_273794224" class="fil4" d="M3.12976 1.70841l0.0120669 0.00187795 -0.0100472 0.0645984c-0.0250354,0.16098 -0.0675236,0.313031 -0.123906,0.452402 0.0548346,-0.158504 0.0965039,-0.332949 0.121886,-0.518878zm-1.33793 1.32597c-0.232618,-0.0738622 -0.421079,-0.261732 -0.543484,-0.517898 -0.137169,-0.287067 -0.191413,-0.66135 -0.130224,-1.05478l0.0100472 -0.0646024 5.90551e-005 1.1811e-005c-0.0038622,0.405835 0.072752,0.783236 0.206268,1.07978 0.114953,0.255327 0.272154,0.451685 0.457335,0.557484z"/>
  </g>
  <rect class="fil5" width="6.82666" height="6.82666"/>
 </g>
</svg>
