<?xml version="1.0" encoding="UTF-8"?>
<!DOCTYPE svg PUBLIC "-//W3C//DTD SVG 1.1//EN" "http://www.w3.org/Graphics/SVG/1.1/DTD/svg11.dtd">
<!-- Creator: CorelDRAW -->
<svg xmlns="http://www.w3.org/2000/svg" xml:space="preserve" width="6.82666in" height="6.82666in" style="shape-rendering:geometricPrecision; text-rendering:geometricPrecision; image-rendering:optimizeQuality; fill-rule:evenodd; clip-rule:evenodd"
viewBox="0 0 6.82666 6.82666"
 xmlns:xlink="http://www.w3.org/1999/xlink">
 <defs>
  <style type="text/css">
   <![CDATA[
    .fil3 {fill:none}
    .fil1 {fill:#4B626C}
    .fil2 {fill:#78909C}
    .fil0 {fill:#546E7A;fill-rule:nonzero}
   ]]>
  </style>
 </defs>
 <g id="Layer_x0020_1">
  <metadata id="CorelCorpID_0Corel-Layer"/>
  <path class="fil0" d="M1.11277 3.80982l2.91335 0.531839 0.912189 -3.22715c0.0384803,-0.13587 0.149756,-0.225661 0.287307,-0.264071 0.0787402,-0.0219882 0.166815,-0.0267717 0.253823,-0.0130827 0.0874094,0.013752 0.174059,0.0459213 0.249543,0.0977559 0.141134,0.0969016 0.244343,0.259516 0.244346,0.494685l-0.205917 0c0,-0.156878 -0.0653504,-0.262949 -0.154709,-0.324299 -0.0499803,-0.0343189 -0.107181,-0.0555945 -0.16476,-0.0646535 -0.0579764,-0.00912205 -0.116063,-0.00609843 -0.167413,0.00824016 -0.0707205,0.019748 -0.126614,0.061248 -0.143575,0.121146 -0.340307,1.20393 -0.677323,2.43009 -1.02858,3.627 -0.110555,0.376713 -0.32939,0.691102 -0.635634,0.902795 -0.351654,0.243083 -0.795886,0.352291 -1.24881,0.26961 -0.453307,-0.082752 -0.830528,-0.341957 -1.07365,-0.693693 -0.243087,-0.351677 -0.352283,-0.795921 -0.269614,-1.2488l0 -0.000401575 0.00120866 -0.00661811 0 -0.000401575c0.0021063,-0.0112441 0.00432283,-0.0224528 0.00670866,-0.0337402l0 -0.000405512c0.00176772,-0.00837008 0.00435433,-0.0195433 0.00800394,-0.0344291l5.11811e-005 1.1811e-005c0.0113976,-0.0487323 0.0406654,-0.0885315 0.0793346,-0.113894 0.0387795,-0.0254449 0.0873071,-0.0364803 0.136803,-0.0274528z"/>
  <path class="fil1" d="M4.93831 1.11452l-0.911898 3.22612 0.203461 0.0386732 0.907083 -3.20907c0.0169606,-0.0598976 0.0728543,-0.101398 0.143575,-0.121146 0.0513504,-0.0143386 0.109437,-0.0173622 0.167413,-0.00824016 0.0575787,0.00905906 0.11478,0.0303346 0.16476,0.0646535 0.0893583,0.0613504 0.154709,0.167421 0.154709,0.324299 0.00128346,0.114657 0.205469,0.0998661 0.205917,0 -3.93701e-006,-0.235169 -0.103213,-0.397783 -0.244346,-0.494685 -0.0754843,-0.0518346 -0.162134,-0.0840039 -0.249543,-0.0977559 -0.0870079,-0.013689 -0.175083,-0.00890551 -0.253823,0.0130827 -0.137551,0.0384094 -0.248827,0.128201 -0.287307,0.264071z"/>
  <path class="fil2" d="M2.61516 5.62711c-0.0575079,0.00788189 -0.116189,0.0120433 -0.175862,0.0120433 -0.709106,0 -1.28395,-0.574843 -1.28395,-1.28395 0,-0.0461142 0.00248425,-0.0916417 0.00722441,-0.1365 0.0309055,0.778559 0.668165,1.40111 1.45259,1.40841z"/>
  <rect class="fil3" width="6.82666" height="6.82666"/>
 </g>
</svg>
