<?xml version="1.0" encoding="UTF-8"?>
<!DOCTYPE svg PUBLIC "-//W3C//DTD SVG 1.1//EN" "http://www.w3.org/Graphics/SVG/1.1/DTD/svg11.dtd">
<!-- Creator: CorelDRAW -->
<svg xmlns="http://www.w3.org/2000/svg" xml:space="preserve" width="6.82666in" height="6.82666in" style="shape-rendering:geometricPrecision; text-rendering:geometricPrecision; image-rendering:optimizeQuality; fill-rule:evenodd; clip-rule:evenodd"
viewBox="0 0 6.82666 6.82666"
 xmlns:xlink="http://www.w3.org/1999/xlink">
 <defs>
  <style type="text/css">
   <![CDATA[
    .fil8 {fill:none}
    .fil3 {fill:#BA7C42}
    .fil4 {fill:#C48851}
    .fil2 {fill:#D9B384}
    .fil7 {fill:#3E2723;fill-rule:nonzero}
    .fil5 {fill:#5D4037;fill-rule:nonzero}
    .fil6 {fill:#6D4C41;fill-rule:nonzero}
    .fil1 {fill:#C7A375;fill-rule:nonzero}
    .fil0 {fill:#EAC28F;fill-rule:nonzero}
   ]]>
  </style>
 </defs>
 <g id="Layer_x0020_1">
  <metadata id="CorelCorpID_0Corel-Layer"/>
  <g id="_437040904">
   <path id="_437043352" class="fil0" d="M1.56025 3.28233c0.0979252,-0.138626 0.208638,-0.270402 0.330665,-0.393374 0.164961,-0.166232 0.350465,-0.315827 0.552815,-0.443906l0.122091 -0.0772756 0.0298701 0.111354 0.0817953 -0.0382126c0.236315,-0.110394 0.482646,-0.190154 0.731217,-0.23865 0.251693,-0.0491024 0.506886,-0.0665866 0.757547,-0.0517992l0.138429 0.00816929 -0.0434291 0.131417 -0.327921 0.992276 -0.224535 0 -0.162846 0 -0.288181 0 -0.614031 -0.673496 -0.0187756 -0.0205945 0.186185 0.694091c-0.472154,0 -0.593969,0 -1.25089,0z"/>
   <path id="_437043304" class="fil1" d="M4.08504 3.28233l0.126598 -0.694094 0.0259646 -0.142366 0.127783 0.0669528c0.214228,0.112252 0.412815,0.247449 0.591594,0.400949l0.363118 0.368559 -1.23506 0z"/>
   <path id="_437043232" class="fil2" d="M3.40772 2.82943c0.0923031,-0.0234724 0.180319,0.00935433 0.196583,0.073315 0.0162638,0.0639606 -0.0453819,0.134843 -0.137685,0.158315 -0.092311,0.0234724 -0.180319,-0.00935433 -0.196583,-0.073315 -0.0162638,-0.0639606 0.045374,-0.134843 0.137685,-0.158315z"/>
   <ellipse id="_437043064" class="fil3" transform="matrix(1.27151 0.462735 -0.462734 1.27151 1.86467 3.19182)" rx="0.0262205" ry="0.0555276"/>
   <ellipse id="_437043040" class="fil3" transform="matrix(0.557601 -1.23286 -1.23286 -0.557602 3.23293 2.52007)" rx="0.0262205" ry="0.0555276"/>
   <ellipse id="_437042896" class="fil3" transform="matrix(0.790309 1.0983 -1.0983 0.790309 2.16653 3.08475)" rx="0.0262205" ry="0.0555276"/>
   <ellipse id="_437042632" class="fil4" transform="matrix(0.790309 1.0983 -1.0983 0.790309 4.2884 3.09674)" rx="0.0262205" ry="0.0555276"/>
   <ellipse id="_437042536" class="fil3" transform="matrix(0.431705 1.28238 -1.28238 0.431705 2.30509 2.67505)" rx="0.0262205" ry="0.0555276"/>
   <ellipse id="_437042752" class="fil4" transform="matrix(0.431705 1.28238 -1.28238 0.431705 4.42696 2.68703)" rx="0.0262205" ry="0.0555276"/>
   <ellipse id="_437042584" class="fil3" transform="matrix(0.0347889 1.35265 -1.35264 0.0347881 2.5695 2.95883)" rx="0.0262205" ry="0.0555276"/>
   <ellipse id="_437042320" class="fil4" transform="matrix(0.0347889 1.35265 -1.35264 0.0347881 4.69137 2.97081)" rx="0.0262205" ry="0.0555276"/>
   <ellipse id="_437042704" class="fil3" transform="matrix(-0.365214 1.30287 -1.30287 -0.365216 2.99992 2.51649)" rx="0.0262205" ry="0.0555276"/>
   <ellipse id="_437042416" class="fil3" transform="matrix(1.18714 0.649274 0.649272 -1.18714 3.19983 2.76353)" rx="0.0262205" ry="0.0555276"/>
   <ellipse id="_437042128" class="fil3" transform="matrix(-1.03537 0.871134 -0.871134 -1.03537 3.38756 2.4305)" rx="0.0262205" ry="0.0555276"/>
   <ellipse id="_437041720" class="fil3" transform="matrix(-1.24604 0.527483 -0.527483 -1.24604 3.73974 2.61855)" rx="0.0262205" ry="0.0555276"/>
   <ellipse id="_437041408" class="fil3" transform="matrix(-1.32677 -0.265603 0.265602 -1.32677 2.20791 2.89695)" rx="0.0262205" ry="0.0555276"/>
   <ellipse id="_437041840" class="fil4" transform="matrix(-1.32677 -0.265603 0.265602 -1.32677 4.32978 2.90894)" rx="0.0262205" ry="0.0555276"/>
   <ellipse id="_437041624" class="fil3" transform="matrix(-0.307173 1.31777 -1.31776 -0.307173 3.99376 2.64039)" rx="0.0262205" ry="0.0555276"/>
   <ellipse id="_437041432" class="fil3" transform="matrix(-1.33843 0.198667 -0.198667 -1.33843 3.93347 2.33361)" rx="0.0262205" ry="0.0555276"/>
   <ellipse id="_437041768" class="fil3" transform="matrix(-0.164467 1.34306 -1.34306 -0.164468 3.68384 2.40234)" rx="0.0262205" ry="0.0555276"/>
   <path id="_437040640" class="fil4" d="M4.55185 2.82229c0.0526024,-0.013374 0.102756,0.00533071 0.112028,0.0417795 0.00926772,0.0364488 -0.0258622,0.0768425 -0.0784646,0.0902165 -0.0526024,0.013378 -0.102756,-0.00533071 -0.112024,-0.0417795 -0.00926772,-0.0364488 0.0258583,-0.0768386 0.0784606,-0.0902165z"/>
   <path id="_437040952" class="fil4" d="M4.60911 3.11915c0.0278268,-0.0070748 0.0543622,0.00282283 0.0592677,0.0221063 0.00490157,0.0192795 -0.0136811,0.0406496 -0.0415118,0.0477283 -0.0278268,0.0070748 -0.0543622,-0.00282283 -0.0592638,-0.0221063 -0.00490551,-0.0192835 0.0136811,-0.0406496 0.0415079,-0.0477283z"/>
   <path id="_437041216" class="fil2" d="M3.7738 3.12295c0.0278268,-0.0070748 0.0543622,0.00282283 0.0592677,0.0221063 0.00490157,0.0192795 -0.0136811,0.0406496 -0.0415118,0.0477283 -0.0278268,0.0070748 -0.0543622,-0.00282283 -0.0592638,-0.0221063 -0.00490551,-0.0192835 0.0136811,-0.0406496 0.0415079,-0.0477283z"/>
   <path id="_437041144" class="fil2" d="M2.36515 3.08118c0.0278268,-0.0070748 0.0543622,0.00282283 0.0592677,0.0221063 0.00490157,0.0192795 -0.0136811,0.0406496 -0.0415118,0.0477283 -0.0278268,0.0070748 -0.0543622,-0.00282283 -0.0592638,-0.0221063 -0.00490551,-0.0192835 0.0136811,-0.0406496 0.0415079,-0.0477283z"/>
   <path id="_437041096" class="fil4" d="M4.48702 3.09317c0.0278268,-0.0070748 0.0543622,0.00282283 0.0592677,0.0221063 0.00490157,0.0192795 -0.0136811,0.0406496 -0.0415118,0.0477283 -0.0278268,0.0070748 -0.0543622,-0.00282283 -0.0592638,-0.0221063 -0.00490551,-0.0192835 0.0136811,-0.0406496 0.0415079,-0.0477283z"/>
  </g>
  <path class="fil5" d="M3.41333 3.09058l2.56 0c0,1.05769 -0.912453,1.66885 -1.96696,1.83353l-1.18608 0c-1.05451,-0.164673 -1.96696,-0.775839 -1.96696,-1.83353l2.56 0z"/>
  <path class="fil6" d="M3.41333 3.09058l2.56 0 0.0883268 0c0.0432559,0.122827 -0.0793898,0.139004 -0.0998425,0.197236l-0.00124409 0.010622 -0.00125591 0 -5.09323 0 -0.00125591 0 -0.00124409 -0.010622c-0.0204528,-0.0582323 -0.143098,-0.0744094 -0.0998425,-0.197236l0.0883268 0 2.56 0 0.00125984 0z"/>
  <path class="fil7" d="M2.76509 4.89744c-0.0182638,0.00208268 -0.031378,0.0185827 -0.0292953,0.0368465 0.00208268,0.0182638 0.0185827,0.031378 0.0368465,0.0292953 0.0965197,-0.0110472 0.201449,-0.0195079 0.311043,-0.0251772 0.109031,-0.0056378 0.224307,-0.00855906 0.342122,-0.00855906 0.11289,0 0.223283,0.00266929 0.327929,0.00783465 0.10552,0.0052126 0.206811,0.0129803 0.300579,0.023126 0.0182638,0.00194094 0.0346457,-0.0112913 0.0365866,-0.0295551 0.00194094,-0.0182638 -0.0112913,-0.0346457 -0.0295551,-0.0365866 -0.0945236,-0.0102283 -0.197138,-0.0180827 -0.304484,-0.0233858 -0.10822,-0.00534252 -0.219697,-0.00810236 -0.331055,-0.00810236 -0.116618,0 -0.233067,0.00301181 -0.345508,0.00882677 -0.111874,0.0057874 -0.218217,0.0143386 -0.315209,0.025437z"/>
  <rect class="fil8" width="6.82666" height="6.82666"/>
 </g>
</svg>
