<?xml version="1.0" encoding="UTF-8"?>
<!DOCTYPE svg PUBLIC "-//W3C//DTD SVG 1.1//EN" "http://www.w3.org/Graphics/SVG/1.1/DTD/svg11.dtd">
<!-- Creator: CorelDRAW -->
<svg xmlns="http://www.w3.org/2000/svg" xml:space="preserve" width="6.82666in" height="6.82666in" style="shape-rendering:geometricPrecision; text-rendering:geometricPrecision; image-rendering:optimizeQuality; fill-rule:evenodd; clip-rule:evenodd"
viewBox="0 0 6.82666 6.82666"
 xmlns:xlink="http://www.w3.org/1999/xlink">
 <defs>
  <style type="text/css">
   <![CDATA[
    .fil6 {fill:none}
    .fil3 {fill:#5D4037}
    .fil5 {fill:#696358}
    .fil4 {fill:#D4CBBE}
    .fil0 {fill:#424242;fill-rule:nonzero}
    .fil2 {fill:#6D4C41;fill-rule:nonzero}
    .fil1 {fill:#C5B8A0;fill-rule:nonzero}
   ]]>
  </style>
 </defs>
 <g id="Layer_x0020_1">
  <metadata id="CorelCorpID_0Corel-Layer"/>
  <g id="_437046256">
   <g>
    <polygon id="_437047840" class="fil0" points="3.74427,1.0071 3.74427,1.00586 3.74426,1.00659 3.74426,1.00744 "/>
    <path id="_437047648" class="fil1" d="M3.07765 0.854118l0.656961 -0.000480315 1.1811e-005 0 0.00201181 -0.00011811 0.00259843 -9.84252e-005 0.00108268 -3.14961e-005 0.0026378 -3.93701e-005 0.00120472 -1.5748e-005 3.93701e-006 1.1811e-005 0.000940945 -7.87402e-006 -3.93701e-006 0.000295276c0.157083,5.51181e-005 0.301898,0.0502598 0.408724,0.131181 0.115819,0.0877323 0.189091,0.211224 0.193535,0.350559 0.000637795,0.00761024 0.000728346,0.015311 0.000224409,0.0230512l0.000515748 0.696433 -1.87283 0.00137795 -0.000523622 -0.70672c-0.000110236,-0.144874 0.073685,-0.273421 0.192642,-0.363807 0.106713,-0.0810866 0.252067,-0.131476 0.410268,-0.131591z"/>
    <path id="_437048056" class="fil2" d="M4.54167 2.13934l0.642823 1.24672c0.0146142,0.023752 0.0230591,0.0517047 0.0230827,0.0816417l-0.000299213 0.000192913 0.00153543 2.08543c8.66142e-005,0.122988 -0.0617362,0.232047 -0.161409,0.308657 -0.0877205,0.0674252 -0.20672,0.109335 -0.335783,0.109433l-2.5945 0.00190157c-0.129039,9.44882e-005 -0.248083,-0.0416378 -0.335929,-0.108945 -0.0995591,-0.0762835 -0.161402,-0.185366 -0.161496,-0.308795l-0.00152362 -2.07538c-0.00172441,-0.0265197 0.00329921,-0.0538346 0.0159488,-0.0793543l0.618063 -1.24591c0.0228307,-0.0579055 0.079252,-0.0989055 0.145276,-0.0989488l1.99563 -0.00117323c0.0702717,-0.00451181 0.168134,0.0746378 0.148583,0.0845157z"/>
    <path id="_437047696" class="fil3" d="M1.62168 3.43578l3.57494 -0.0255315c-0.00335039,-0.00844488 -0.00742126,-0.0165315 -0.012126,-0.0241811l-0.642823 -1.24672c0.0195512,-0.00987795 -0.078311,-0.0890276 -0.148583,-0.0845157l-0.0449921 3.54331e-005 -1.87283 0.00109055 -0.0777992 4.72441e-005c-0.0660236,4.33071e-005 -0.122445,0.0410433 -0.145276,0.0989488l-0.618063 1.24591c-0.00563386,0.0113622 -0.00975197,0.0230787 -0.0124409,0.0349252z"/>
    <path id="_437047552" class="fil3" d="M5.20613 5.59765l-3.58005 0.0255709c0.0181732,0.0954528 0.074185,0.179142 0.155118,0.241157 0.0878465,0.0673071 0.20689,0.109039 0.335929,0.108945l2.5945 -0.00190157c0.129063,-9.84252e-005 0.248063,-0.0420079 0.335783,-0.109433 0.0875236,-0.0672717 0.145866,-0.159567 0.158724,-0.264339z"/>
    <path id="_437046736" class="fil4" d="M3.74415 0.853335l0 0zm-0.00954724 0.00030315l-0.656961 0.000480315c-0.158201,0.000114173 -0.303555,0.0505039 -0.410268,0.131591 -0.0789921,0.0600157 -0.138071,0.136862 -0.168819,0.224142l1.8231 -0.0058622c-0.031437,-0.0851732 -0.0900394,-0.16024 -0.167839,-0.219173 -0.106827,-0.0809213 -0.251642,-0.131126 -0.408724,-0.131181l3.93701e-006 -0.000295276 -0.000944882 -3.93701e-006 -0.00120472 1.5748e-005 -0.0026378 3.93701e-005 -0.00108268 3.14961e-005 -0.00259843 9.84252e-005 -0.00202362 0.00011811z"/>
   </g>
   <g>
    <circle id="_437046808" class="fil5" cx="2.81281" cy="0.985483" r="0.0409094"/>
    <circle id="_437047384" class="fil5" cx="2.99171" cy="0.92585" r="0.0409094"/>
    <circle id="_437047192" class="fil5" cx="3.23024" cy="0.92585" r="0.0409094"/>
    <circle id="_437047264" class="fil5" cx="3.30511" cy="1.10475" r="0.0409094"/>
    <circle id="_437046976" class="fil5" cx="3.11097" cy="1.10475" r="0.0409094"/>
    <circle id="_437047120" class="fil5" cx="2.93207" cy="1.0673" r="0.0409094"/>
    <circle id="_437046952" class="fil5" cx="3.38809" cy="0.985483" r="0.0409094"/>
    <circle id="_437045944" class="fil5" cx="3.53103" cy="0.92585" r="0.0409094"/>
    <circle id="_437046328" class="fil5" cx="3.76957" cy="0.92585" r="0.0409094"/>
    <circle id="_437046232" class="fil5" cx="3.98591" cy="0.985483" r="0.0409094"/>
    <circle id="_437046448" class="fil5" cx="3.84444" cy="1.08091" r="0.0409094"/>
    <circle id="_437046520" class="fil5" cx="3.6503" cy="1.10475" r="0.0409094"/>
    <circle id="_437046184" class="fil5" cx="3.4714" cy="1.10475" r="0.0409094"/>
   </g>
  </g>
  <rect class="fil6" width="6.82666" height="6.82666"/>
 </g>
</svg>
