<?xml version="1.0" encoding="UTF-8"?>
<!DOCTYPE svg PUBLIC "-//W3C//DTD SVG 1.1//EN" "http://www.w3.org/Graphics/SVG/1.1/DTD/svg11.dtd">
<!-- Creator: CorelDRAW -->
<svg xmlns="http://www.w3.org/2000/svg" xml:space="preserve" width="6.82666in" height="6.82666in" style="shape-rendering:geometricPrecision; text-rendering:geometricPrecision; image-rendering:optimizeQuality; fill-rule:evenodd; clip-rule:evenodd"
viewBox="0 0 6.82666 6.82666"
 xmlns:xlink="http://www.w3.org/1999/xlink">
 <defs>
  <style type="text/css">
   <![CDATA[
    .fil8 {fill:none}
    .fil4 {fill:#00695C}
    .fil5 {fill:#00796B}
    .fil7 {fill:#D50000}
    .fil6 {fill:#FF6F00}
    .fil3 {fill:#00897B;fill-rule:nonzero}
    .fil2 {fill:#26A69A;fill-rule:nonzero}
    .fil0 {fill:#4DB6AC;fill-rule:nonzero}
    .fil1 {fill:#FFE082;fill-rule:nonzero}
   ]]>
  </style>
 </defs>
 <g id="Layer_x0020_1">
  <metadata id="CorelCorpID_0Corel-Layer"/>
  <path class="fil0" d="M3.41333 0.993343c0.597862,0 2.55999,0.148815 2.55999,0.795217l1.1811e-005 3.10229 -0.0051378 0c-0.041311,0.276575 -0.331228,0.518378 -0.779091,0.690543 -0.45648,0.17548 -1.08447,0.284016 -1.77578,0.284016 -0.691303,0 -1.3193,-0.108535 -1.77578,-0.284016 -0.435677,-0.16748 -0.721862,-0.400866 -0.775146,-0.668047l-0.00907087 0 0 -0.0910906 0 -3.0337c0,-0.514524 1.96213,-0.795217 2.56,-0.795217z"/>
  <path class="fil1" d="M5.97333 2.78848l0 0.97135 -0.0051378 0c-0.041311,0.276575 -0.331228,0.518378 -0.779091,0.690543 -0.45648,0.17548 -1.08447,0.284016 -1.77578,0.284016 -0.691303,0 -1.3193,-0.108535 -1.77578,-0.284016 -0.435677,-0.16748 -0.721862,-0.400866 -0.775146,-0.668047l-0.00907087 0 0 -0.0910906 0 -0.898272 0.00907087 0c0.0532835,0.267181 0.339469,0.500567 0.775146,0.668047 0.45648,0.17548 1.08448,0.284016 1.77578,0.284016 0.691303,0 1.3193,-0.108535 1.77578,-0.284016 0.43811,-0.168417 0.725035,-0.403476 0.775996,-0.672531l0.00823228 0z"/>
  <path class="fil2" d="M5.26102 1.22461c-0.470665,-0.162713 -1.12376,-0.26335 -1.84769,-0.26335 -0.723925,0 -1.37702,0.100638 -1.8477,0.26335 -0.440181,0.152165 -0.712445,0.352177 -0.712445,0.563953 0,0.211776 0.272264,0.411787 0.712445,0.563961 0.470665,0.162709 1.12376,0.263346 1.8477,0.263346 0.723929,0 1.37703,-0.100638 1.84769,-0.263346 0.440185,-0.152173 0.712445,-0.352185 0.712445,-0.563961 0,-0.211776 -0.272264,-0.411787 -0.712445,-0.563953z"/>
  <path class="fil3" d="M5.04021 1.28415c-0.414417,-0.131894 -0.989461,-0.213472 -1.62688,-0.213472 -0.637413,0 -1.21246,0.0815787 -1.62688,0.213472 -0.387575,0.123346 -0.627303,0.285476 -0.627303,0.457146 0,0.171665 0.239728,0.333795 0.627303,0.45715 0.414417,0.13189 0.989465,0.213469 1.62688,0.213469 0.637417,0 1.21246,-0.0815787 1.62688,-0.213469 0.387579,-0.123354 0.627303,-0.285484 0.627303,-0.45715 0,-0.171669 -0.239728,-0.333799 -0.627303,-0.457146z"/>
  <path class="fil4" d="M1.78857 1.4213c0.434476,-0.13189 1.03735,-0.213472 1.70559,-0.213472 0.668256,0 1.27113,0.0815827 1.70559,0.213472 0.157709,0.047874 0.292063,0.101591 0.397437,0.159437 -0.0978268,-0.110685 -0.29315,-0.212626 -0.556988,-0.296591 -0.414417,-0.13189 -0.989465,-0.213472 -1.62688,-0.213472 -0.637409,0 -1.21246,0.0815827 -1.62688,0.213472 -0.387575,0.123346 -0.627303,0.285476 -0.627303,0.457146 0,0.0109094 0.000968504,0.0217795 0.00288189,0.0326063 0.0789291,-0.132228 0.303858,-0.254642 0.626543,-0.352598z"/>
  <path class="fil5" d="M3.48411 1.57133l1.15769 -0.0343425c0.0588465,-0.00174803 0.133799,0.0442205 0.166563,0.10215l0 0c0.0327638,0.0579291 0.0114213,0.106752 -0.0474252,0.108496l-1.15769 0.0343425 -0.119138 -0.210646z"/>
  <path class="fil5" d="M3.60502 1.8411l1.15769 -0.0343425c0.0588465,-0.00174803 0.133799,0.0442205 0.166563,0.10215l0 0c0.0327638,0.0579291 0.0114213,0.106752 -0.0474252,0.108496l-1.15769 0.0343425 -0.119138 -0.210646z"/>
  <path class="fil6" d="M4.29198 4.99744c-0.207,0.277701 -0.519126,0.498697 -0.876709,0.498551 -0.357465,-0.000141732 -0.669217,-0.220878 -0.876165,-0.49852 -0.136654,-0.0769409 -0.261193,-0.168346 -0.367697,-0.284425 -0.0354252,-0.0386181 -0.0679803,-0.0795394 -0.100626,-0.120488 -0.013752,-0.017248 -0.0290433,-0.0376063 -0.0455748,-0.0522047 -0.014748,-0.0130236 -0.0416654,-0.016685 -0.060252,-0.0192205l-0.0570433 -0.0077874 -0.0484961 -0.0310354c-0.0413858,-0.0264764 -0.0836772,-0.0515 -0.125933,-0.0765433 -0.00708661,-0.00420079 -0.0140827,-0.00854331 -0.0209016,-0.0131693l-0.36626 -0.248402 0.389929 -0.198618c0.00069685,-0.000413386 0.0013937,-0.000822835 0.00210236,-0.00122047 0.0482362,-0.0272205 0.0975118,-0.0525512 0.147272,-0.0768465l0.0713583 -0.0348386 0.0786732 0.0107323c0.00761811,0.00104331 0.0245669,0.0036811 0.0338583,0.00285433 0.013689,-0.00998031 0.0271772,-0.0236496 0.0395276,-0.0347756 0.0376339,-0.0338898 0.0763071,-0.0659606 0.118555,-0.0940118 0.112417,-0.074626 0.23874,-0.116319 0.370602,-0.139276 0.228504,-0.194374 0.522854,-0.255055 0.817071,-0.255173 0.294331,-0.00011811 0.589028,0.0605512 0.817626,0.255 0.131894,0.0230079 0.25824,0.0647638 0.370661,0.139453 0.0422362,0.0280591 0.0808937,0.0601417 0.11852,0.0940394 0.0123346,0.0111142 0.0258071,0.0247717 0.0394843,0.0347441 0.00929134,0.000822835 0.0262205,-0.00181102 0.0338386,-0.00285039l0.0786693 -0.0107362 0.0713543 0.0348307c0.0474016,0.0231378 0.0934685,0.0487717 0.140197,0.0732047 2.75591e-005,1.5748e-005 5.51181e-005,3.14961e-005 8.66142e-005,4.33071e-005l0.448106 0.202539 -0.426957 0.256941c-0.00311417,0.00187795 -0.00624016,0.00373622 -0.00937402,0.00558661 -0.042248,0.025 -0.0844921,0.0500394 -0.125843,0.0764961l-0.0484961 0.0310315 -0.0570394 0.0077874c-0.0186024,0.00253937 -0.0455551,0.00620472 -0.0603071,0.0192323 -0.0165236,0.0145866 -0.031811,0.034937 -0.0455591,0.0521732 -0.0326417,0.0409291 -0.0651929,0.0818386 -0.10061,0.120437 -0.1065,0.116071 -0.231028,0.207492 -0.36765,0.284465zm-1.66687 -1.36212c0.217189,-0.191941 0.502559,-0.251394 0.790189,-0.251508 0.287697,-0.000114173 0.573409,0.0593189 0.790685,0.251331 0.129016,0.0208622 0.253654,0.0596929 0.363933,0.132965 0.0401417,0.0266693 0.0757717,0.0564016 0.111469,0.0885709 0.0154291,0.0138976 0.0334213,0.0315906 0.0506417,0.0430906 0.017563,0.0117244 0.052811,0.00643307 0.0715945,0.00387008l0.060378 -0.00824016 0.0547598 0.0267323c0.0469094,0.0229016 0.0924803,0.0482126 0.138693,0.0724449 0.000503937,0.00026378 0.00100394,0.000531496 0.00150787,0.000799213l0.344217 0.155579 -0.327661 0.197189c-0.00299213,0.00179921 -0.00598425,0.00358268 -0.00898819,0.00535827 -0.0428386,0.025378 -0.0857008,0.0507638 -0.12765,0.0776063l-0.0372205 0.023811 -0.0437756 0.00598031c-0.0333228,0.00454724 -0.0665236,0.0111142 -0.0923189,0.0338937 -0.019122,0.0168858 -0.0369724,0.0399331 -0.0528504,0.0598425 -0.0319252,0.0400354 -0.0631929,0.0794409 -0.097874,0.11724 -0.105591,0.115079 -0.228642,0.203831 -0.363965,0.278898 -0.195492,0.267122 -0.493835,0.484563 -0.835575,0.484425 -0.341665,-0.000133858 -0.639642,-0.217327 -0.835091,-0.484398 -0.13535,-0.0750315 -0.258413,-0.163768 -0.364004,-0.278858 -0.034689,-0.037811 -0.0659606,-0.0772283 -0.0978858,-0.11728 -0.0158858,-0.0199213 -0.0337402,-0.0429803 -0.0528661,-0.059874 -0.0257874,-0.0227795 -0.0589528,-0.0293465 -0.0922717,-0.0338898l-0.0437795 -0.00598031 -0.0372244 -0.023815c-0.0419606,-0.0268543 -0.0848465,-0.0522323 -0.127701,-0.0776378 -0.0060315,-0.0035748 -0.0119606,-0.00724016 -0.0177717,-0.0111811l-0.281083 -0.190634 0.299283 -0.152445c0.00110236,-0.000645669 0.00220866,-0.00127953 0.0033189,-0.00190945 0.047189,-0.0266102 0.0953937,-0.0513937 0.144075,-0.0751614l0.0547638 -0.0267362 0.060378 0.00824016c0.0188071,0.00256693 0.0540394,0.00785827 0.071622,-0.00388189 0.0172283,-0.0115 0.0352283,-0.0291969 0.0506654,-0.0431024 0.0357087,-0.0321575 0.0713465,-0.0618819 0.111496,-0.0885394 0.110276,-0.0732087 0.234894,-0.11198 0.363886,-0.132795z"/>
  <path class="fil7" d="M1.70657 4.15372c0.00272835,-0.00138976 0.00546063,-0.00300787 0.00818898,-0.00462598 0.048815,-0.0261457 0.0976299,-0.0525236 0.146441,-0.0763543 0.352618,0.048126 0.226319,-0.239709 0.785795,-0.304031 0.197303,-0.20639 0.481004,-0.26389 0.765996,-0.264004 0.285008,-0.000114173 0.569035,0.0573819 0.766335,0.263772 0.55948,0.0645551 0.433177,0.35239 0.785795,0.304264 0.048815,0.0238307 0.097626,0.0502087 0.146441,0.0765827 0.00273228,0.00138976 0.00546063,0.00300787 0.00853543,0.00439764 -0.0030748,0.00185039 -0.00580315,0.00347244 -0.00853543,0.00509055 -0.048815,0.0289213 -0.097626,0.0578425 -0.146441,0.0890787 -0.352618,0.0481299 -0.226315,0.292693 -0.785795,0.586083 -0.197299,0.290146 -0.481358,0.480453 -0.766335,0.480339 -0.284992,-0.000114173 -0.568693,-0.190193 -0.765996,-0.480339 -0.559476,-0.293157 -0.433177,-0.537953 -0.785795,-0.586083 -0.048811,-0.0312362 -0.097626,-0.0601575 -0.146441,-0.0890787 -0.00272835,-0.00161811 -0.00546063,-0.00324016 -0.00818898,-0.00509055z"/>
  <path class="fil1" d="M2.70425 4.52547l0 -0.36713 0.251736 0 0 0.0621417 -0.177539 0 0 0.0868465 0.153264 0 0 0.0621457 -0.153264 0 0 0.155996 -0.0741969 0zm0.297811 -0.181299c0,-0.0374409 0.00555512,-0.068811 0.016752,-0.0941969 0.00837795,-0.0186339 0.019748,-0.0354724 0.0341929,-0.0503465 0.0144449,-0.0147874 0.0302598,-0.025815 0.0474409,-0.0329961 0.0229055,-0.00974409 0.0492323,-0.0145315 0.0791496,-0.0145315 0.0541102,0 0.0973622,0.0167559 0.129843,0.0503465 0.0324843,0.0335079 0.0487244,0.0801811 0.0487244,0.139929 0,0.0593228 -0.0161575,0.10565 -0.0483819,0.139157 -0.0322244,0.0334213 -0.0753071,0.0501772 -0.129157,0.0501772 -0.054622,0 -0.0980433,-0.0166693 -0.130268,-0.0499213 -0.0322283,-0.0333346 -0.0482953,-0.0792362 -0.0482953,-0.137618zm0.0763307 -0.00248031c0,0.0415433 0.00965748,0.0730866 0.0288071,0.0945394 0.0192323,0.0214567 0.0435945,0.0321417 0.0731693,0.0321417 0.0294882,0 0.0537638,-0.0106024 0.0727402,-0.0319685 0.0188937,-0.0212874 0.0283819,-0.0531693 0.0283819,-0.0957362 0,-0.0420551 -0.00923228,-0.0734252 -0.0276102,-0.0941969 -0.0184646,-0.020689 -0.0429961,-0.0310315 -0.0735118,-0.0310315 -0.0306024,0 -0.0552205,0.0105157 -0.0739409,0.0314567 -0.0186339,0.0209449 -0.0280354,0.0524843 -0.0280354,0.0947953zm0.322598 0.00248031c0,-0.0374409 0.00555512,-0.068811 0.016752,-0.0941969 0.00837795,-0.0186339 0.019748,-0.0354724 0.0341929,-0.0503465 0.0144449,-0.0147874 0.0302598,-0.025815 0.0474409,-0.0329961 0.0229055,-0.00974409 0.0492323,-0.0145315 0.0791496,-0.0145315 0.0541102,0 0.0973622,0.0167559 0.129843,0.0503465 0.0324843,0.0335079 0.0487244,0.0801811 0.0487244,0.139929 0,0.0593228 -0.0161575,0.10565 -0.0483819,0.139157 -0.0322244,0.0334213 -0.0753071,0.0501772 -0.129157,0.0501772 -0.054622,0 -0.0980433,-0.0166693 -0.130268,-0.0499213 -0.0322283,-0.0333346 -0.0482953,-0.0792362 -0.0482953,-0.137618zm0.0763307 -0.00248031c0,0.0415433 0.00965748,0.0730866 0.0288071,0.0945394 0.0192323,0.0214567 0.0435945,0.0321417 0.0731693,0.0321417 0.0294882,0 0.0537638,-0.0106024 0.0727402,-0.0319685 0.0188937,-0.0212874 0.0283819,-0.0531693 0.0283819,-0.0957362 0,-0.0420551 -0.00923228,-0.0734252 -0.0276102,-0.0941969 -0.0184646,-0.020689 -0.0429961,-0.0310315 -0.0735118,-0.0310315 -0.0306024,0 -0.0552205,0.0105157 -0.0739409,0.0314567 -0.0186339,0.0209449 -0.0280354,0.0524843 -0.0280354,0.0947953zm0.337386 -0.18335l0.135484 0c0.0305157,0 0.0537638,0.00230709 0.0698346,0.00700787 0.0215394,0.00632677 0.0400039,0.0176102 0.0553031,0.0338504 0.0153858,0.0161575 0.0270984,0.0359882 0.0351339,0.0594094 0.00794882,0.0235039 0.0119646,0.0523976 0.0119646,0.0868465 0,0.0301732 -0.00375984,0.0562441 -0.0112835,0.078126 -0.00914567,0.0266693 -0.0222244,0.0482953 -0.0393189,0.0647913 -0.0128228,0.0125669 -0.0301732,0.022311 -0.0520551,0.0293189 -0.0163268,0.00521654 -0.0382087,0.00777953 -0.0656496,0.00777953l-0.139413 0 0 -0.36713zm0.0741102 0.0621417l0 0.243102 0.0553031 0c0.020685,0 0.0356457,-0.00111024 0.044878,-0.00350394 0.0119646,-0.00299213 0.0219646,-0.00803543 0.0299173,-0.0152165 0.00794882,-0.0071811 0.0143583,-0.019063 0.0194016,-0.0354724 0.00495669,-0.0164134 0.00752362,-0.0388937 0.00752362,-0.0672717 0,-0.028378 -0.00256693,-0.0500906 -0.00752362,-0.0653071 -0.00504331,-0.0152126 -0.0120512,-0.0270945 -0.0210276,-0.0355591 -0.00905906,-0.00854724 -0.0205157,-0.0142756 -0.0343622,-0.0172638 -0.0103425,-0.0023937 -0.0306024,-0.00350787 -0.0608622,-0.00350787l-0.033248 0z"/>
  <rect class="fil8" width="6.82666" height="6.82666"/>
 </g>
</svg>
