<?xml version="1.0" encoding="UTF-8"?>
<!DOCTYPE svg PUBLIC "-//W3C//DTD SVG 1.1//EN" "http://www.w3.org/Graphics/SVG/1.1/DTD/svg11.dtd">
<!-- Creator: CorelDRAW -->
<svg xmlns="http://www.w3.org/2000/svg" xml:space="preserve" width="6.82666in" height="6.82666in" style="shape-rendering:geometricPrecision; text-rendering:geometricPrecision; image-rendering:optimizeQuality; fill-rule:evenodd; clip-rule:evenodd"
viewBox="0 0 6.82666 6.82666"
 xmlns:xlink="http://www.w3.org/1999/xlink">
 <defs>
  <style type="text/css">
   <![CDATA[
    .fil5 {fill:none}
    .fil4 {fill:#3F9943}
    .fil0 {fill:#45984C}
    .fil2 {fill:#212121;fill-rule:nonzero}
    .fil1 {fill:#3B8244;fill-rule:nonzero}
    .fil3 {fill:#4CAF50;fill-rule:nonzero}
   ]]>
  </style>
 </defs>
 <g id="Layer_x0020_1">
  <metadata id="CorelCorpID_0Corel-Layer"/>
  <g id="_437877096">
   <ellipse id="_437877672" class="fil0" transform="matrix(0.796808 -0.775327 0.775327 0.796808 3.34485 3.39887)" rx="0.873528" ry="2.55417"/>
   <path id="_437878296" class="fil1" d="M2.3166 1.88816c-0.0711142,-0.0711102 -0.169366,-0.115094 -0.277906,-0.115094 -0.108543,0 -0.206799,0.0439843 -0.277906,0.115094 -0.0711063,0.0711024 -0.115094,0.169362 -0.115094,0.277906 0,0.108535 0.0439882,0.206791 0.115094,0.277906 0.0711063,0.0711063 0.169362,0.115094 0.277906,0.115094 0.108539,0 0.206791,-0.0439882 0.277906,-0.115094 0.0711063,-0.0711142 0.115094,-0.16937 0.115094,-0.277906 0,-0.108543 -0.0439882,-0.206803 -0.115094,-0.277906z"/>
   <path id="_437877888" class="fil1" d="M3.03735 2.56183c-0.0711142,-0.0711102 -0.169366,-0.115094 -0.277906,-0.115094 -0.108543,0 -0.206799,0.0439843 -0.277906,0.115094 -0.0711063,0.0711024 -0.115094,0.169362 -0.115094,0.277906 0,0.108535 0.0439882,0.206791 0.115094,0.277906 0.0711063,0.0711063 0.169362,0.115094 0.277906,0.115094 0.108539,0 0.206791,-0.0439882 0.277906,-0.115094 0.0711063,-0.0711142 0.115094,-0.16937 0.115094,-0.277906 0,-0.108543 -0.0439882,-0.206803 -0.115094,-0.277906z"/>
   <path id="_437877720" class="fil1" d="M3.68886 3.24068c-0.0711142,-0.0711102 -0.169366,-0.115094 -0.277906,-0.115094 -0.108543,0 -0.206799,0.0439843 -0.277906,0.115094 -0.0711063,0.0711024 -0.115094,0.169362 -0.115094,0.277906 0,0.108535 0.0439882,0.206791 0.115094,0.277906 0.0711063,0.0711063 0.169362,0.115094 0.277906,0.115094 0.108539,0 0.206791,-0.0439882 0.277906,-0.115094 0.0711063,-0.0711142 0.115094,-0.16937 0.115094,-0.277906 0,-0.108543 -0.0439882,-0.206803 -0.115094,-0.277906z"/>
   <path id="_437877960" class="fil1" d="M4.40961 3.91435c-0.0711142,-0.0711102 -0.169366,-0.115094 -0.277906,-0.115094 -0.108543,0 -0.206799,0.0439843 -0.277906,0.115094 -0.0711063,0.0711024 -0.115094,0.169362 -0.115094,0.277906 0,0.108535 0.0439882,0.206791 0.115094,0.277906 0.0711063,0.0711063 0.169362,0.115094 0.277906,0.115094 0.108539,0 0.206791,-0.0439882 0.277906,-0.115094 0.0711063,-0.0711142 0.115094,-0.16937 0.115094,-0.277906 0,-0.108543 -0.0439882,-0.206803 -0.115094,-0.277906z"/>
   <path id="_437877840" class="fil1" d="M5.06987 4.58265c-0.0639961,-0.0639921 -0.152413,-0.103575 -0.250091,-0.103575 -0.0976811,0 -0.186098,0.0395827 -0.250091,0.103575 -0.0639882,0.0639843 -0.103575,0.152409 -0.103575,0.250091 0,0.0976693 0.0395866,0.186094 0.103575,0.250091 0.0639921,0.0639882 0.152409,0.103575 0.250091,0.103575 0.0976772,0 0.186094,-0.0395866 0.250091,-0.103575 0.0639882,-0.0639961 0.103575,-0.152421 0.103575,-0.250091 0,-0.0976811 -0.0395866,-0.186106 -0.103575,-0.250091z"/>
   <polygon id="_437878176" class="fil2" points="0.976051,1.6255 0.976291,1.62536 0.976177,1.62529 "/>
   <path id="_437877936" class="fil3" d="M3.10429 3.81185c0.71248,0.673402 1.54539,1.20919 2.43348,1.49289l0.00174409 0.000433071c0.0188346,0.00630709 0.0372362,0.0119409 0.0576811,0.018185 0.117272,0.0358386 0.287102,0.0877441 0.348366,0.172047l0.000433071 0.000870079c0.0242677,0.034063 0.0339882,0.0705039 0.0282244,0.109232 -0.00540945,0.0365197 -0.0237992,0.0684016 -0.0559331,0.0952047 -0.0487165,0.0404724 -0.133429,0.0649173 -0.225598,0.0793465 -0.132181,0.0206929 -0.284929,0.0246969 -0.342992,0.0246969 -0.827315,0 -2.21982,-0.355236 -3.23617,-1.33 -0.701984,-0.673272 -1.22535,-1.64013 -1.26221,-2.98627l0 -0.000437008c-0.0010315,-0.0390827 -0.000637795,-0.079752 0.0026811,-0.117622 0.00365748,-0.0417362 0.0109409,-0.0846378 0.0237244,-0.126374l0.000433071 -0.00217717c0.00351969,-0.0107638 0.00806299,-0.0226535 0.0137244,-0.035748 0.00591732,-0.0136929 0.0119173,-0.0256339 0.0179724,-0.0355157l0.000870079 -0.00174016c0.0158898,-0.0249843 0.0353622,-0.0454724 0.0582047,-0.0609488 0.0284567,-0.0192835 0.0594213,-0.0293071 0.0925591,-0.0293071 0.0533937,0 0.10572,0.0258543 0.152965,0.0775512 0.0316693,0.0346575 0.0627756,0.0827992 0.0912244,0.143992l0.000433071 0.00130709c0.404004,0.900402 1.03037,1.78469 1.79817,2.51038z"/>
   <path id="_437877000" class="fil2" d="M5.68786 5.32307c0.000366142,0.000633858 -0.084315,-0.0237598 -0.041878,-0.0113898 0.0140354,0.00409055 0.0275315,0.00814961 0.0405,0.012189l0.00137795 -0.000799213z"/>
   <path id="_437877600" class="fil3" d="M1.32709 1.02191l0.000677165 0c0.110634,0 0.221496,0.00354724 0.332461,0.0104567 1.55596,0.0968583 2.63341,0.866429 3.32188,1.77301 0.687469,0.905248 0.986398,1.95052 0.986398,2.59764 0,0.0388307 -0.00127953,0.0786732 -0.00380709,0.119331l-0.011874 0.190587 -0.15974 -0.103917c-0.0197559,-0.0128504 -0.0459882,-0.0259567 -0.0794449,-0.0396142 -0.0376772,-0.0153819 -0.0805591,-0.0300354 -0.129504,-0.0442953 -0.043878,-0.0127874 -0.0595276,-0.0398701 -0.0887874,-0.0905236 -0.219295,-0.37963 -1.96863,-3.408 -4.22505,-3.89981l-0.058437 -0.0127323 -0.0217047 -0.0560827c-0.0251929,-0.0650945 -0.0524094,-0.115276 -0.0810591,-0.14987 -0.019563,-0.023622 -0.0370118,-0.037189 -0.0519449,-0.040248l-0.0187244 -0.212114c0.0330394,-0.013189 0.0714843,-0.023878 0.115205,-0.0310157 0.0380433,-0.00620472 0.0814449,-0.00990157 0.130346,-0.0103622l0.000870079 -0.000437008 0.000681102 0 0.000649606 0 0.000685039 0 0.000677165 0 0.000649606 0 0.000685039 0 0.000677165 0 0.000649606 0 0.000685039 0 0.000677165 0 0.00065748 0 0.000677165 0 0.000681102 0 0.000653543 0 0.000677165 0 0.000681102 0 0.000653543 0 0.000677165 0 0.000685039 0 0.000649606 0 0.000681102 0 0.000681102 0 0.000649606 0 0.000681102 0 0.000681102 0 0.000649606 0 0.000681102 0 0.000653543 0 0.000681102 0 0.000677165 0 0.000653543 0 0.000681102 0 0.000677165 0 0.000653543 0 0.000681102 0 0.000681102 0 0.000653543 0 0.000677165 0 0.000649606 0 0.000685039 0 0.000677165 0 0.000649606 0 0.000685039 0 0.000677165 0 0.00065748 0 0.000677165 0 0.000681102 0 0.000653543 0 0.000677165 0 0.000681102 0 0.000653543 0 0.000677165 0 0.000685039 0 0.000649606 0 0.000681102 0 0.000681102 0 0.000649606 0 0.000681102 0 0.000681102 0 0.000649606 0 0.000681102 0 0.000681102 0 0.000653543 0z"/>
  </g>
  <path class="fil4" d="M1.4475 0.947083c0.0748976,0.0934252 -0.158669,0.134622 -0.341028,0.280811 -0.182358,0.146189 -0.244457,0.342012 -0.319354,0.248583 -0.117283,-0.146303 -0.0475157,-0.167189 0.0262559,-0.302177 0.10072,-0.184307 -0.280539,-0.364693 -0.38572,-0.431047l0.093063 -0.247449c0.133331,0.0841181 0.402063,0.184717 0.583118,0.392945 0.139417,0.160343 0.227957,-0.0860039 0.343665,0.0583346z"/>
  <rect class="fil5" width="6.82666" height="6.82666"/>
 </g>
</svg>
