<?xml version="1.0" encoding="UTF-8"?>
<!DOCTYPE svg PUBLIC "-//W3C//DTD SVG 1.1//EN" "http://www.w3.org/Graphics/SVG/1.1/DTD/svg11.dtd">
<!-- Creator: CorelDRAW -->
<svg xmlns="http://www.w3.org/2000/svg" xml:space="preserve" width="6.82666in" height="6.82666in" style="shape-rendering:geometricPrecision; text-rendering:geometricPrecision; image-rendering:optimizeQuality; fill-rule:evenodd; clip-rule:evenodd"
viewBox="0 0 6.82666 6.82666"
 xmlns:xlink="http://www.w3.org/1999/xlink">
 <defs>
  <style type="text/css">
   <![CDATA[
    .fil14 {fill:none}
    .fil8 {fill:#37474F}
    .fil3 {fill:#4D656F}
    .fil2 {fill:#4F6873}
    .fil10 {fill:#4FC3F7}
    .fil7 {fill:#546E7A}
    .fil12 {fill:#6C848F}
    .fil0 {fill:#78909C}
    .fil6 {fill:#B0BEC5}
    .fil1 {fill:#B2EBF2}
    .fil13 {fill:#FFA000}
    .fil9 {fill:#263238;fill-rule:nonzero}
    .fil5 {fill:#37474F;fill-rule:nonzero}
    .fil11 {fill:#546E7A;fill-rule:nonzero}
    .fil4 {fill:#FFA000;fill-rule:nonzero}
   ]]>
  </style>
 </defs>
 <g id="Layer_x0020_1">
  <metadata id="CorelCorpID_0Corel-Layer"/>
  <g id="_437884944">
   <path id="_437889432" class="fil0" d="M1.09667 1.81333l4.63333 0c0.0752756,0 0.143638,0.0307283 0.193126,0.0802087 0.0494882,0.0494882 0.0802087,0.117854 0.0802087,0.193126l0 2.65333c0,0.0752717 -0.0307244,0.143634 -0.0802126,0.193122 -0.0494882,0.0494882 -0.11785,0.0802126 -0.193122,0.0802126l-4.63333 0c-0.0752717,0 -0.143638,-0.0307205 -0.193126,-0.0802087 -0.0494803,-0.0494882 -0.0802087,-0.11785 -0.0802087,-0.193126l0 -2.65333c0,-0.0752756 0.0307205,-0.143638 0.0802087,-0.193126 0.0494882,-0.0494882 0.11785,-0.0802087 0.193126,-0.0802087z"/>
   <polygon id="_437888904" class="fil1" points="1.38667,2.23999 4.69333,2.23999 4.8,2.23999 4.8,2.34666 4.8,4.48 4.8,4.58667 4.69333,4.58667 1.38667,4.58667 1.28,4.58667 1.28,4.48 1.28,2.34666 1.28,2.23999 "/>
   <path id="_437888832" class="fil2" d="M4.8 4.33311l0 0.14689 0 0.106669 -0.106669 0 -3.30667 0 -0.106669 0 0 -0.106669 0 -0.123472c0.294933,-0.109264 0.987783,-0.185972 1.79553,-0.185972 0.748685,0 1.39857,0.0659134 1.72448,0.162555z"/>
   <path id="_437888568" class="fil3" d="M4.5939 4.58667l-3.1078 0c-0.0465118,-0.0144646 -0.0715984,-0.0298268 -0.0715984,-0.045748 0,-0.0858465 0.72776,-0.155441 1.6255,-0.155441 0.897736,0 1.6255,0.0695945 1.6255,0.155441 0,0.0159213 -0.0250866,0.0312835 -0.0715984,0.045748z"/>
   <path id="_437888520" class="fil4" d="M2.62952 3.42604c-0.0553661,0.0891693 -0.114472,0.184354 0.0721181,0.350976 -0.226988,0.073937 -0.331177,-0.248602 -0.230575,-0.405362 0.0512717,-0.0825709 0.0991929,-0.159748 -0.0730236,-0.287898 0.22848,0.00272835 0.356142,0.225039 0.23148,0.342283z"/>
   <path id="_437889120" class="fil4" d="M2.94737 3.14038c-0.0553661,0.0891693 -0.114469,0.184354 0.072122,0.350976 -0.226992,0.073937 -0.331181,-0.248602 -0.230579,-0.405362 0.0512717,-0.0825709 0.0991929,-0.159748 -0.0730197,-0.287898 0.228476,0.00272835 0.356138,0.225039 0.231476,0.342283z"/>
   <path id="_437888376" class="fil4" d="M3.34343 3.21088c-0.0553661,0.0891693 -0.114472,0.184354 0.0721181,0.350976 -0.226992,0.073937 -0.331177,-0.248602 -0.230575,-0.405358 0.0512717,-0.0825748 0.0991929,-0.159752 -0.0730236,-0.287902 0.228476,0.00272835 0.356142,0.225039 0.23148,0.342283z"/>
   <path id="_437888160" class="fil5" d="M1.38667 2.20666l3.30667 0 0.106669 0 0.0333346 0 0 0.0333346 0 0.106669 0 2.13333 0 0.106669 0 0.0333346 -0.0333346 0 -0.106669 0 -3.30667 0 -0.106669 0 -0.0333346 0 0 -0.0333346 0 -0.106669 0 -2.13333 0 -0.106669 0 -0.0333346 0.0333346 0 0.106669 0zm3.30667 0.0666693l-3.30667 0 -0.0733346 0 0 0.0733346 0 2.13333 0 0.0733346 0.0733346 0 3.30667 0 0.0733346 0 0 -0.0733346 0 -2.13333 0 -0.0733346 -0.0733346 0z"/>
   <g>
    <circle id="_437887800" class="fil6" cx="5.37746" cy="2.56462" r="0.324626"/>
    <circle id="_437887872" class="fil7" cx="5.37746" cy="2.56462" r="0.221653"/>
    <ellipse id="_437888280" class="fil8" cx="5.37746" cy="2.56462" rx="0.0581805" ry="0.221653"/>
    <ellipse id="_437888064" class="fil0" cx="5.37746" cy="2.56462" rx="0.0109355" ry="0.221653"/>
    <polygon id="_437887704" class="fil9" points="5.39276,2.24363 5.39276,2.30716 5.36217,2.30716 5.36217,2.24363 "/>
    <polygon id="_437887896" class="fil9" points="5.39276,2.24363 5.39276,2.30716 5.36217,2.30716 5.36217,2.24363 "/>
    <polygon id="_437887728" class="fil9" points="5.54064,2.28848 5.51061,2.34446 5.48367,2.33 5.51369,2.27402 "/>
    <polygon id="_437886888" class="fil9" points="5.54064,2.83215 5.51061,2.77617 5.48367,2.79063 5.51369,2.84661 "/>
    <polygon id="_437887584" class="fil9" points="5.64723,2.39373 5.59485,2.42968 5.57755,2.40446 5.62993,2.36852 "/>
    <polygon id="_437887464" class="fil9" points="5.64723,2.7269 5.59485,2.69096 5.57755,2.71617 5.62993,2.75211 "/>
    <polygon id="_437887296" class="fil9" points="5.6945,2.5574 5.63108,2.56104 5.62933,2.53051 5.69275,2.52687 "/>
    <polygon id="_437886960" class="fil9" points="5.39276,2.81348 5.39276,2.877 5.36217,2.877 5.36217,2.81348 "/>
    <polygon id="_437887176" class="fil9" points="5.39276,2.81348 5.39276,2.877 5.36217,2.877 5.36217,2.81348 "/>
    <polygon id="_437887512" class="fil9" points="5.27126,2.79063 5.24123,2.84661 5.21428,2.83216 5.24431,2.77618 "/>
    <polygon id="_437887104" class="fil9" points="5.27126,2.33 5.24123,2.27402 5.21428,2.28848 5.24431,2.34446 "/>
    <polygon id="_437887368" class="fil9" points="5.17738,2.71617 5.125,2.75212 5.1077,2.7269 5.16007,2.69096 "/>
    <polygon id="_437886936" class="fil9" points="5.17738,2.40446 5.125,2.36852 5.1077,2.39373 5.16007,2.42968 "/>
    <polygon id="_437886912" class="fil9" points="5.1256,2.59012 5.06218,2.59377 5.06042,2.56324 5.12384,2.55959 "/>
   </g>
   <g>
    <circle id="_437886816" class="fil6" cx="5.37746" cy="3.36181" r="0.324626"/>
    <circle id="_437886144" class="fil7" cx="5.37746" cy="3.36181" r="0.221653"/>
    <ellipse id="_437886408" class="fil8" cx="5.37746" cy="3.36181" rx="0.0581805" ry="0.221653"/>
    <ellipse id="_437886216" class="fil0" cx="5.37746" cy="3.36181" rx="0.0109355" ry="0.221653"/>
    <polygon id="_437886672" class="fil9" points="5.39276,3.04083 5.39276,3.10435 5.36217,3.10435 5.36217,3.04083 "/>
    <polygon id="_437886384" class="fil9" points="5.39276,3.04083 5.39276,3.10435 5.36217,3.10435 5.36217,3.04083 "/>
    <polygon id="_437886456" class="fil9" points="5.54064,3.08568 5.51061,3.14166 5.48367,3.1272 5.51369,3.07122 "/>
    <polygon id="_437886192" class="fil9" points="5.54064,3.62935 5.51061,3.57337 5.48367,3.58783 5.51369,3.64381 "/>
    <polygon id="_437885376" class="fil9" points="5.64723,3.19093 5.59485,3.22687 5.57755,3.20166 5.62993,3.16572 "/>
    <polygon id="_437885568" class="fil9" points="5.64723,3.5241 5.59485,3.48815 5.57755,3.51337 5.62993,3.54931 "/>
    <polygon id="_437886024" class="fil9" points="5.6945,3.35459 5.63108,3.35824 5.62933,3.32771 5.69275,3.32406 "/>
    <polygon id="_437886072" class="fil9" points="5.39276,3.61068 5.39276,3.6742 5.36217,3.6742 5.36217,3.61068 "/>
    <polygon id="_437885640" class="fil9" points="5.39276,3.61068 5.39276,3.6742 5.36217,3.6742 5.36217,3.61068 "/>
    <polygon id="_437885496" class="fil9" points="5.27126,3.58783 5.24123,3.64381 5.21428,3.62935 5.24431,3.57337 "/>
    <polygon id="_437885472" class="fil9" points="5.27126,3.1272 5.24123,3.07122 5.21428,3.08567 5.24431,3.14165 "/>
    <polygon id="_437885520" class="fil9" points="5.17738,3.51337 5.125,3.54931 5.1077,3.5241 5.16007,3.48815 "/>
    <polygon id="_437885448" class="fil9" points="5.17738,3.20166 5.125,3.16571 5.1077,3.19093 5.16007,3.22687 "/>
    <polygon id="_437886048" class="fil9" points="5.1256,3.38732 5.06218,3.39096 5.06042,3.36043 5.12384,3.35679 "/>
   </g>
   <rect id="_437884800" class="fil10" x="5.00518" y="3.89259" width="0.768287" height="0.694075"/>
   <path id="_437885232" class="fil11" d="M5.00518 3.87592l0.768287 0 0.0166693 0 0 0.0166693 0 0.694075 0 0.0166693 -0.0166693 0 -0.768287 0 -0.0166693 0 0 -0.0166693 0 -0.694075 0 -0.0166693 0.0166693 0zm0.751618 0.0333386l-0.734949 0 0 0.660736 0.734949 0 0 -0.660736z"/>
   <path id="_437885184" class="fil12" d="M0.827602 2.03845l5.17146 0c-0.0100433,-0.0560236 -0.0372598,-0.106236 -0.075937,-0.144913 -0.0494882,-0.0494803 -0.11785,-0.0802087 -0.193126,-0.0802087l-4.63333 0c-0.0752756,0 -0.143638,0.0307205 -0.193126,0.0802087 -0.0386772,0.0386772 -0.0658937,0.0888858 -0.075937,0.144913z"/>
   <path id="_437885016" class="fil13" d="M0.827602 4.78821l5.17146 0c-0.0100433,0.0560236 -0.0372598,0.106236 -0.075937,0.144913 -0.0494882,0.0494803 -0.11785,0.0802087 -0.193126,0.0802087l-4.63333 0c-0.0752756,0 -0.143638,-0.0307205 -0.193126,-0.0802087 -0.0386772,-0.0386772 -0.0658937,-0.0888858 -0.075937,-0.144913z"/>
  </g>
  <rect class="fil14" width="6.82666" height="6.82666"/>
 </g>
</svg>
