<?xml version="1.0" encoding="UTF-8"?>
<!DOCTYPE svg PUBLIC "-//W3C//DTD SVG 1.1//EN" "http://www.w3.org/Graphics/SVG/1.1/DTD/svg11.dtd">
<!-- Creator: CorelDRAW -->
<svg xmlns="http://www.w3.org/2000/svg" xml:space="preserve" width="6.82666in" height="6.82666in" style="shape-rendering:geometricPrecision; text-rendering:geometricPrecision; image-rendering:optimizeQuality; fill-rule:evenodd; clip-rule:evenodd"
viewBox="0 0 6.82666 6.82666"
 xmlns:xlink="http://www.w3.org/1999/xlink">
 <defs>
  <style type="text/css">
   <![CDATA[
    .fil10 {fill:none}
    .fil6 {fill:#A2B0B7}
    .fil1 {fill:#B0BEC5}
    .fil7 {fill:#C40506}
    .fil2 {fill:#D50000}
    .fil5 {fill:#4F6873;fill-rule:nonzero}
    .fil0 {fill:#546E7A;fill-rule:nonzero}
    .fil9 {fill:#87989F;fill-rule:nonzero}
    .fil8 {fill:#900506;fill-rule:nonzero}
    .fil4 {fill:#92A3AA;fill-rule:nonzero}
    .fil3 {fill:#9C0000;fill-rule:nonzero}
   ]]>
  </style>
 </defs>
 <g id="Layer_x0020_1">
  <metadata id="CorelCorpID_0Corel-Layer"/>
  <g id="_273796864">
   <g>
    <g>
     <path id="_273782752" class="fil0" d="M2.94251 0.86148c0.0495669,-0.0055315 0.0964528,-0.00814961 0.138776,-0.00814961 0.0634764,0 0.118382,0.00583858 0.158504,0.0165433 0.0520118,0.0138898 0.084,0.0385118 0.0878425,0.0729961 0.000279528,0.00257087 0.000433071,0.00477953 0.000433071,0.00659055 0,0.0415945 -0.0476457,0.080248 -0.124665,0.109106 -0.0652677,0.0244567 -0.154783,0.0450669 -0.253051,0.0560276 -0.0495669,0.0055315 -0.0964528,0.00815354 -0.138776,0.00815354 -0.0634764,0 -0.118382,-0.00584252 -0.158504,-0.0165472 -0.0520118,-0.0138898 -0.084,-0.0385197 -0.0878425,-0.0729961 -0.000279528,-0.0025748 -0.000433071,-0.00478346 -0.000433071,-0.00659055 0,-0.0415945 0.0476457,-0.080248 0.124665,-0.109106 0.0652677,-0.0244567 0.154783,-0.0450669 0.253051,-0.0560276zm-0.22813 0.122957c-0.176043,0.0659646 0.0223937,0.0666102 0.0971929,0.0666102 0.570114,0 0.366197,-0.240256 -0.0971929,-0.0666102z"/>
     <path id="_273782368" class="fil1" d="M2.47852 0.999685l1.83951 0c0.186913,0 0.150882,-0.0330236 0.184102,0.0884606 0.0433071,0.15837 0.193748,0.318346 0.37135,0.318346l0 4.36518c-0.211138,0 -0.383886,0.0209488 -0.383886,0.201657l-2.15254 0c0,-0.180709 -0.172748,-0.201657 -0.383886,-0.201657l0 -4.36518c0.18002,0 0.332134,-0.164374 0.373063,-0.324823 0.0276378,-0.108425 -0.0107953,-0.0819843 0.152287,-0.0819843z"/>
     <path id="_273782800" class="fil2" d="M4.85747 1.40618c0.00531496,0.000185039 0.0106535,0.000311024 0.0160157,0.000311024l0 4.34519 -2.92031 0 0 -4.34519c0.0053622,0 0.0107008,-0.000125984 0.0160157,-0.000311024l2.88828 0z"/>
     <path id="_273782536" class="fil3" d="M1.95289 1.36936c-0.0231299,0 -0.0418858,0.0160512 -0.0418858,0.0358504 0,0.0197992 0.0187559,0.0358504 0.0418858,0.0358504l2.92089 0c0.0231299,0 0.0418858,-0.0160512 0.0418858,-0.0358504 0,-0.0197992 -0.0187559,-0.0358504 -0.0418858,-0.0358504l-2.92089 0z"/>
     <path id="_273798328" class="fil3" d="M1.95289 5.67999c-0.0231299,0 -0.0418858,0.0160512 -0.0418858,0.0358504 0,0.0197992 0.0187559,0.0358504 0.0418858,0.0358504l2.92089 0c0.0231299,0 0.0418858,-0.0160512 0.0418858,-0.0358504 0,-0.0197992 -0.0187559,-0.0358504 -0.0418858,-0.0358504l-2.92089 0z"/>
     <path id="_273798352" class="fil4" d="M2.31745 0.99598c-0.0231299,0 -0.0418858,0.0160512 -0.0418858,0.0358504 0,0.0197953 0.0187559,0.0358465 0.0418858,0.0358465l2.1653 0c0.0231299,0 0.0418858,-0.0160512 0.0418858,-0.0358465 0,-0.0197992 -0.0187559,-0.0358504 -0.0418858,-0.0358504l-2.1653 0z"/>
    </g>
    <g>
     <path id="_273798088" class="fil5" d="M2.94251 0.86148c0.0495669,-0.0055315 0.0964528,-0.00814961 0.138776,-0.00814961 0.0634764,0 0.118382,0.00583858 0.158504,0.0165433 0.0520118,0.0138898 0.084,0.0385118 0.0878425,0.0729961 0.000279528,0.00257087 0.000433071,0.00477953 0.000433071,0.00659055 0,0.0415945 -0.0476457,0.080248 -0.124665,0.109106 -0.0652677,0.0244567 -0.154783,0.0450669 -0.253051,0.0560276 -0.0495669,0.0055315 -0.0964528,0.00815354 -0.138776,0.00815354 -0.0634764,0 -0.118382,-0.00584252 -0.158504,-0.0165472 -0.0520118,-0.0138898 -0.084,-0.0385197 -0.0878425,-0.0729961 -0.000279528,-0.0025748 -0.000433071,-0.00478346 -0.000433071,-0.00659055 0,-0.0415945 0.0476457,-0.080248 0.124665,-0.109106 0.0652677,-0.0244567 0.154783,-0.0450669 0.253051,-0.0560276zm-0.22813 0.122957c-0.176043,0.0659646 0.0223937,0.0666102 0.0971929,0.0666102 0.570114,0 0.366197,-0.240256 -0.0971929,-0.0666102z"/>
     <path id="_273798280" class="fil6" d="M2.47852 0.999685l0.934815 0 0 0.400906 -0.47222 2.10517 0.47222 2.22817 0 0.239406 -1.07628 0c0,-0.180709 -0.172748,-0.201657 -0.383886,-0.201657l0 -4.36518c0.180024,0 0.332138,-0.164374 0.373063,-0.324823 0.0276378,-0.108425 -0.0107953,-0.0819843 0.152287,-0.0819843z"/>
     <path id="_273797728" class="fil7" d="M3.41334 5.75169l-1.46017 0 0 -4.3452c0.0053622,0 0.0107008,-0.000122047 0.0160157,-0.000311024l1.44415 0 0 4.34551z"/>
     <path id="_273798016" class="fil8" d="M1.95289 1.36936c-0.0231339,0 -0.0418858,0.0160512 -0.0418858,0.0358504 0,0.0197992 0.018752,0.0358504 0.0418858,0.0358504l1.46045 0 0 -0.0717008 -1.46045 0z"/>
     <path id="_273797920" class="fil8" d="M1.95289 5.67999c-0.0231339,0 -0.0418858,0.0160512 -0.0418858,0.0358504 0,0.0197992 0.018752,0.0358504 0.0418858,0.0358504l1.46045 0 0 -0.0717008 -1.46045 0z"/>
     <path id="_273797080" class="fil9" d="M2.31746 0.99598c-0.0231378,0 -0.0418898,0.0160512 -0.0418898,0.0358504 0,0.0197953 0.018752,0.0358465 0.0418898,0.0358465l1.09588 0 0 -0.0716969 -1.09588 0z"/>
    </g>
   </g>
   <path id="_273796840" class="fil4" d="M2.31745 5.90163c-0.0231299,0 -0.0418858,0.0160512 -0.0418858,0.0358504 0,0.0197953 0.0187559,0.0358465 0.0418858,0.0358465l2.1653 0c0.0231299,0 0.0418858,-0.0160512 0.0418858,-0.0358465 0,-0.0197992 -0.0187559,-0.0358504 -0.0418858,-0.0358504l-2.1653 0z"/>
  </g>
  <rect class="fil10" width="6.82666" height="6.82666"/>
 </g>
</svg>
