<?xml version="1.0" encoding="UTF-8"?>
<!DOCTYPE svg PUBLIC "-//W3C//DTD SVG 1.1//EN" "http://www.w3.org/Graphics/SVG/1.1/DTD/svg11.dtd">
<!-- Creator: CorelDRAW -->
<svg xmlns="http://www.w3.org/2000/svg" xml:space="preserve" width="6.82666in" height="6.82666in" style="shape-rendering:geometricPrecision; text-rendering:geometricPrecision; image-rendering:optimizeQuality; fill-rule:evenodd; clip-rule:evenodd"
viewBox="0 0 6.82666 6.82666"
 xmlns:xlink="http://www.w3.org/1999/xlink">
 <defs>
  <style type="text/css">
   <![CDATA[
    .fil5 {fill:none}
    .fil4 {fill:#67A23C}
    .fil3 {fill:#76B042}
    .fil2 {fill:#8BC34A}
    .fil1 {fill:#D1D543}
    .fil0 {fill:#AFB500;fill-rule:nonzero}
   ]]>
  </style>
 </defs>
 <g id="Layer_x0020_1">
  <metadata id="CorelCorpID_0Corel-Layer"/>
  <g id="_436958640">
   <path id="_436959144" class="fil0" d="M3.30437 2.02151l0.107902 -0.00958268c-0.00378346,-0.163299 -0.0189606,-0.345232 -0.0645354,-0.510988 -0.0516457,-0.187846 -0.142681,-0.357114 -0.302173,-0.454366 -0.0491457,-0.0299803 -0.0646772,-0.0941299 -0.0346969,-0.143276 0.0299803,-0.0491417 0.0941299,-0.0646732 0.143272,-0.0346969 0.212,0.129276 0.329961,0.343185 0.394425,0.577642 0.0523819,0.190504 0.0690512,0.392531 0.0728346,0.570555 0.0845551,0.0167677 0.161307,0.0453307 0.230476,0.0837283 0.100142,0.0555984 0.183575,0.130984 0.251165,0.220425 0.000897638,0.00111024 0.00178346,0.00222835 0.00264567,0.00338189l-6.69291e-005 4.72441e-005 7.48031e-005 9.84252e-005 -0.00026378 0.00019685c0.0698425,0.0934134 0.121311,0.205598 0.15485,0.338378 0.0323937,0.128256 0.0483661,0.275921 0.0483661,0.444787 0,0.201602 0.121315,0.348047 0.262752,0.516614l0.000350394 0.00038189 0.000149606 0.000161417 0.000153543 0.000169291 0.000224409 0.000240157 0.00100787 0.0011063 0.000444882 0.000496063 0.000629921 0.000728346 0.000385827 0.000440945 -3.93701e-006 3.93701e-006 0.000251969 0.000291339 0.000417323 0.000484252 0.000153543 0.000181102 -3.93701e-006 3.93701e-006c0.000515748,0.000614173 0.00103543,0.00123622 0.00153543,0.00187008l-0.00011811 9.05512e-005c0.198402,0.236445 0.422571,0.504748 0.422571,0.974528 0,0.210469 -0.0417638,0.404803 -0.123039,0.578169 -0.0815197,0.17389 -0.202406,0.32515 -0.360402,0.448898 -0.140957,0.110429 -0.31015,0.195894 -0.498465,0.253587 -0.186437,0.0571063 -0.390882,0.0870472 -0.604307,0.0870472 -0.213425,0 -0.41787,-0.0299409 -0.604307,-0.0870512 -0.188319,-0.057689 -0.357512,-0.14315 -0.498472,-0.253583 -0.158004,-0.123795 -0.278894,-0.275055 -0.360409,-0.448937 -0.0812677,-0.173354 -0.123024,-0.367669 -0.123024,-0.57813 0,-0.235634 0.0580866,-0.422937 0.141791,-0.581965 0.0818031,-0.155425 0.185264,-0.27874 0.282256,-0.394319 0.0752874,-0.0896929 0.145453,-0.173291 0.193685,-0.258063 0.0447953,-0.0787283 0.0731654,-0.162941 0.0731654,-0.263445 0,-0.168866 0.0159724,-0.316531 0.0483701,-0.444787 0.0595866,-0.235878 0.183988,-0.436531 0.404583,-0.550039 0.0968189,-0.049815 0.208142,-0.0803937 0.333398,-0.0915039z"/>
   <path id="_436959744" class="fil1" d="M3.13953 2.39791c-0.00592126,0.0027126 -0.0117835,0.00555512 -0.0175787,0.00853543 -0.133835,0.0688622 -0.199921,0.196126 -0.235618,0.337429 -0.0295984,0.117177 -0.0383189,0.243465 -0.0383189,0.363965 0,0.153543 -0.0408858,0.29402 -0.116343,0.426638 -0.0267717,0.0470551 -0.0570315,0.0918189 -0.0892402,0.135209 0.0322913,-0.0409961 0.0659016,-0.0810827 0.0995945,-0.121228 0.0818858,-0.0975669 0.164524,-0.195913 0.227736,-0.307016 0.0754567,-0.132618 0.116343,-0.273094 0.116343,-0.426638 0,-0.1205 0.00872047,-0.246787 0.0383189,-0.363965 0.00452362,-0.0178976 0.00953543,-0.0355709 0.0151063,-0.0529291zm-0.534157 1.32016c-0.0329646,0.0418543 -0.0672677,0.0827087 -0.101437,0.123421 -0.0892677,0.106362 -0.177976,0.212323 -0.243008,0.335874 -0.0717362,0.136291 -0.103811,0.274224 -0.103811,0.428264 0,0.151339 0.0273504,0.300539 0.0918189,0.438055 0.0612598,0.130677 0.151563,0.240268 0.265134,0.329244 0.115575,0.0905512 0.251669,0.154957 0.39161,0.197827 0.163732,0.0501535 0.336634,0.0725787 0.507654,0.0725787 0.17102,0 0.343921,-0.0224173 0.507654,-0.0725748 0.139953,-0.042874 0.276031,-0.107299 0.391622,-0.197846 0.106583,-0.0834921 0.192669,-0.185142 0.253488,-0.305343 -0.00508268,0.00414173 -0.0102165,0.00824803 -0.0153976,0.0123071 -0.115591,0.0905472 -0.251669,0.154972 -0.391622,0.197846 -0.163732,0.0501575 -0.336634,0.0725748 -0.507654,0.0725748 -0.17102,0 -0.343921,-0.0224252 -0.507654,-0.0725787 -0.139941,-0.0428701 -0.276035,-0.107276 -0.39161,-0.197827 -0.113571,-0.0889764 -0.203874,-0.198567 -0.265134,-0.329244 -0.0644685,-0.137516 -0.0918189,-0.286717 -0.0918189,-0.438055 0,-0.154039 0.0320748,-0.291972 0.103811,-0.428264 0.0309252,-0.058752 0.0672047,-0.113528 0.106354,-0.16626z"/>
   <g>
    <path id="_436959840" class="fil2" d="M2.63407 1.25094c0.236374,0 0.440087,0.10902 0.533189,0.266122 -0.0931024,0.157102 -0.296815,0.266122 -0.533189,0.266122 -0.236374,0 -0.360744,-0.112984 -0.533193,-0.127264 0.0931024,-0.157102 0.296819,-0.40498 0.533193,-0.40498z"/>
    <path id="_436959552" class="fil3" d="M3.39829 1.75653c-0.229909,-0.263169 -0.50839,-0.323492 -0.857634,-0.23202 -0.0415748,0.0108898 -0.2445,0.0615669 -0.274496,0.0782244 0.0287598,-0.0188268 0.226752,-0.083252 0.267323,-0.0969724 0.371547,-0.125657 0.673004,-0.0675669 0.944039,0.198327 0.0160354,0.0197598 0.0112913,0.0475197 -0.0105866,0.0620039 -0.021878,0.0144803 -0.0526142,0.0101969 -0.0686457,-0.00956299z"/>
    <path id="_436959792" class="fil3" d="M2.90135 1.49958l-0.000208661 -0.000622047c-0.0237087,0.0174331 -0.0467165,0.0347441 -0.0705433,0.0525827 0.0596063,-0.0637717 0.0331929,-0.0370709 0.103331,-0.104354 0.00161024,0.000437008 0.00188189,0.000433071 0.00364961,0.000377953 0.0038937,0.0027126 -0.00106299,0.0165551 -0.011063,0.0309173 -0.0100039,0.0143661 -0.0212717,0.023811 -0.0251654,0.0210984z"/>
    <path id="_436958448" class="fil3" d="M2.66939 1.52016c-0.0207953,0.0133858 -0.0913622,0.0677008 -0.109016,0.0654803 0.0161181,-0.00387795 0.0627008,-0.0790945 0.0771024,-0.0985945 0.00914567,-0.00881102 0.0237008,-0.00854331 0.0325118,0.000602362 0.00881102,0.00914173 0.00854331,0.0237008 -0.000598425,0.0325118z"/>
    <path id="_436958664" class="fil3" d="M2.74704 1.46333c-0.026311,-0.041874 -0.0718583,-0.0528071 -0.119091,-0.0604606 -0.00549606,-0.000889764 -0.0197953,0.00264961 -0.0251772,0.0038189 0.00582677,-0.00288189 0.0184961,-0.00965748 0.0250669,-0.0102677 0.0571654,-0.00532283 0.110366,-0.00144882 0.152961,0.0394134 0.00759449,0.00932283 0.00619291,0.0230354 -0.00312992,0.0306299 -0.00932283,0.00759055 -0.0230354,0.00618898 -0.0306299,-0.00313386z"/>
   </g>
   <path id="_436958352" class="fil4" d="M3.63636 2.01991c-0.00496457,-0.00107874 -0.00995276,-0.00211417 -0.0149685,-0.00311024 -0.00378346,-0.178024 -0.0204528,-0.380051 -0.0728346,-0.570555 -0.0644646,-0.234457 -0.182425,-0.448366 -0.394425,-0.577642 -0.0491417,-0.0299764 -0.113291,-0.0144449 -0.143272,0.0346969 -0.0299803,0.0491457 -0.0144488,0.113295 0.0346969,0.143276 0.159492,0.097252 0.250528,0.26652 0.302173,0.454366 0.0455748,0.165756 0.060752,0.347689 0.0645354,0.510988l-0.0557598 0.00495276c0.000925197,0.0105433 -0.0010315,0.0290827 0.0132126,0.0373307l0.00477953 0.00276772c0.0924567,0.0535354 0.279051,0.066811 0.261862,-0.0370709z"/>
  </g>
  <rect class="fil5" width="6.82666" height="6.82666"/>
 </g>
</svg>
