<?xml version="1.0" encoding="UTF-8"?>
<!DOCTYPE svg PUBLIC "-//W3C//DTD SVG 1.1//EN" "http://www.w3.org/Graphics/SVG/1.1/DTD/svg11.dtd">
<!-- Creator: CorelDRAW -->
<svg xmlns="http://www.w3.org/2000/svg" xml:space="preserve" width="6.82666in" height="6.82666in" style="shape-rendering:geometricPrecision; text-rendering:geometricPrecision; image-rendering:optimizeQuality; fill-rule:evenodd; clip-rule:evenodd"
viewBox="0 0 6.82666 6.82666"
 xmlns:xlink="http://www.w3.org/1999/xlink">
 <defs>
  <style type="text/css">
   <![CDATA[
    .fil5 {fill:none}
    .fil1 {fill:#B0BEC5}
    .fil4 {fill:#CFD8DC}
    .fil2 {fill:#DD2C00}
    .fil3 {fill:#E63100}
    .fil0 {fill:#90A4AE;fill-rule:nonzero}
   ]]>
  </style>
 </defs>
 <g id="Layer_x0020_1">
  <metadata id="CorelCorpID_0Corel-Layer"/>
  <g id="_438956064">
   <polygon id="_438956808" class="fil0" points="1.76551,1.64496 3.74112,3.84572 3.57344,3.99608 1.59783,1.79531 "/>
   <path id="_438956424" class="fil1" d="M4.19444 6.13354l0.0981614 -0.0881142 1.40848 -1.26439 0.0981457 -0.0881063c-0.724362,-0.586504 -1.34044,-1.49515 -2.15417,-0.831807 -0.778035,0.634248 0.140732,1.63887 0.549378,2.27242zm-0.372457 -1.82493l0.798559 0.889571 -0.104705 0.0904488 -0.798559 -0.889571 0.104705 -0.0904488zm0.310787 -0.27715l0.798563 0.889575 -0.107827 0.0947795 -0.798563 -0.889567 0.107827 -0.0947874z"/>
   <path id="_438955800" class="fil2" d="M1.02111 0.943343l0.0156378 -0.0134961c0.123264,-0.106354 0.330051,-0.106587 0.417488,0.0307441 0.336339,0.528272 0.744858,1.00585 1.23218,1.42809 0.123039,0.10661 0.0925197,0.311134 -0.0307441,0.417488l-0.0156378 0.0134921c-0.123268,0.106354 -0.325902,0.103854 -0.417492,-0.0307441 -0.356031,-0.523217 -0.778831,-0.988831 -1.23218,-1.42808 -0.116925,-0.113291 -0.0925236,-0.311134 0.0307441,-0.417488z"/>
   <path id="_438955488" class="fil3" d="M1.02111 0.943343l0.0156378 -0.0134921c0.0254646,-0.0219764 0.0545039,-0.0394055 0.085311,-0.0520394l1.6025 1.84302c-0.0177126,0.0319724 -0.0408976,0.061185 -0.0688819,0.0853307l-0.0156378 0.0134921c-0.0248031,0.0213976 -0.0528189,0.0383858 -0.0825,0.0507795l-1.60362 -1.84431c0.0171811,-0.0308346 0.0397244,-0.0590906 0.0671929,-0.0827874z"/>
   <path id="_438956112" class="fil4" d="M5.6632 4.57842l-1.56928 1.40533c0.0357874,0.0518386 0.0696102,0.101878 0.100516,0.149791l0.0981614 -0.0881142 1.40848 -1.26439 0.0981457 -0.0881063c-0.045748,-0.0370433 -0.0910709,-0.0753701 -0.136031,-0.114508z"/>
  </g>
  <rect class="fil5" width="6.82666" height="6.82666"/>
 </g>
</svg>
