<?xml version="1.0" encoding="UTF-8"?>
<!DOCTYPE svg PUBLIC "-//W3C//DTD SVG 1.1//EN" "http://www.w3.org/Graphics/SVG/1.1/DTD/svg11.dtd">
<!-- Creator: CorelDRAW -->
<svg xmlns="http://www.w3.org/2000/svg" xml:space="preserve" width="6.82666in" height="6.82666in" style="shape-rendering:geometricPrecision; text-rendering:geometricPrecision; image-rendering:optimizeQuality; fill-rule:evenodd; clip-rule:evenodd"
viewBox="0 0 6.82666 6.82666"
 xmlns:xlink="http://www.w3.org/1999/xlink">
 <defs>
  <style type="text/css">
   <![CDATA[
    .fil4 {fill:none}
    .fil1 {fill:#4F6873;fill-rule:nonzero}
    .fil0 {fill:#546E7A;fill-rule:nonzero}
    .fil2 {fill:#CABCA9;fill-rule:nonzero}
    .fil3 {fill:#D0C7B8;fill-rule:nonzero}
   ]]>
  </style>
 </defs>
 <g id="Layer_x0020_1">
  <metadata id="CorelCorpID_0Corel-Layer"/>
  <g id="_438954912">
   <path id="_438954792" class="fil0" d="M4.63215 5.09736l-0.0753504 0 -0.0498228 0 -0.303205 0c-0.0468937,-0.135299 -0.107913,-0.270319 -0.180169,-0.388906 -0.153988,-0.25272 -0.364043,-0.440909 -0.614177,-0.440909 -0.060748,0 -0.119122,0.0111063 -0.174913,0.0315197 -0.0743031,0.00216929 -0.150819,0.0566024 -0.222425,0.139244 -0.0810669,0.0734409 -0.153772,0.166311 -0.217028,0.270091 -0.0722874,0.118606 -0.133319,0.253638 -0.18022,0.388961l-0.0384449 0 -1.25026 0 -0.0720984 0 -0.0504882 -0.0533937c-0.168071,-0.177744 -0.337091,-0.554528 -0.337091,-0.972205 0,-0.306362 0.0879646,-0.63813 0.32852,-0.935862l0.0470236 -0.0581929c-0.000137795,0.00705906 -0.0072126,0.0210827 -0.000228346,0.0210827l4.26543 0.0048189 0 0.00411024 0.028748 3.14961e-005 0.0343228 0.0143071c0.281961,0.280051 0.400528,0.587697 0.389197,0.91722 -0.0108976,0.316626 -0.143866,0.645079 -0.367441,0.982283l-0.0502559 0.0757992 -0.0901339 0 -0.819484 0z"/>
   <path id="_438954768" class="fil1" d="M4.63215 5.09736l-0.0753504 0 -0.0498228 0 -0.303205 0c-0.0468937,-0.135299 -0.107913,-0.270319 -0.180169,-0.388906 -0.153988,-0.25272 -0.364043,-0.440909 -0.614177,-0.440909 -0.25024,0 -0.460343,0.188154 -0.614366,0.440854 -0.0722874,0.118606 -0.133319,0.253638 -0.18022,0.388961l-1.2887 0 -0.0720984 0 -0.0504882 -0.0533937c-0.156366,-0.165358 -0.313516,-0.502996 -0.334661,-0.885559l3.68791 0 0.950398 0 0.442531 0c-0.0357717,0.279646 -0.162043,0.568043 -0.357705,0.863154l-0.0502559 0.0757992 -0.0901339 0 -0.819484 0z"/>
   <path id="_438955344" class="fil2" d="M2.44815 3.99947c-0.248394,0 -0.473571,-0.100965 -0.63661,-0.264024 -0.163043,-0.163051 -0.264004,-0.388244 -0.264004,-0.636654 0,-0.250437 0.109504,-0.63865 0.286248,-0.928634 0.154024,-0.252697 0.364126,-0.440854 0.614366,-0.440854 0.250138,0 0.460189,0.188189 0.614177,0.440909 0.176685,0.289976 0.286205,0.678161 0.286205,0.928579 0,0.247953 -0.100953,0.472917 -0.263945,0.635969 -0.163406,0.163472 -0.388575,0.264709 -0.636437,0.264709z"/>
   <path id="_438954720" class="fil3" d="M2.44435 3.99945c-0.246886,-0.00102756 -0.470606,-0.10178 -0.632811,-0.264004 -0.163043,-0.163051 -0.264004,-0.388244 -0.264004,-0.636654 0,-0.250437 0.109504,-0.63865 0.286248,-0.928634 0.153244,-0.251417 0.361996,-0.438913 0.610567,-0.440807l0 2.2701z"/>
   <path id="_438955224" class="fil2" d="M4.37874 3.99947c-0.248398,0 -0.473575,-0.100965 -0.636614,-0.264024 -0.163043,-0.163051 -0.264004,-0.388244 -0.264004,-0.636654 0,-0.250437 0.109504,-0.63865 0.286252,-0.928634 0.15402,-0.252697 0.364122,-0.440854 0.614366,-0.440854 0.250134,0 0.460185,0.188189 0.614177,0.440909 0.176685,0.289976 0.286201,0.678161 0.286201,0.928579 0,0.247953 -0.100953,0.472917 -0.263941,0.635969 -0.163409,0.163472 -0.388579,0.264709 -0.636437,0.264709z"/>
   <path id="_438955152" class="fil3" d="M4.37494 3.99945c-0.24689,-0.00102756 -0.47061,-0.10178 -0.632815,-0.264004 -0.163043,-0.163051 -0.264004,-0.388244 -0.264004,-0.636654 0,-0.250437 0.109504,-0.63865 0.286252,-0.928634 0.153244,-0.251417 0.361996,-0.438913 0.610567,-0.440807l0 2.2701z"/>
  </g>
  <rect class="fil4" width="6.82666" height="6.82666"/>
 </g>
</svg>
