<?xml version="1.0" encoding="UTF-8"?>
<!DOCTYPE svg PUBLIC "-//W3C//DTD SVG 1.1//EN" "http://www.w3.org/Graphics/SVG/1.1/DTD/svg11.dtd">
<!-- Creator: CorelDRAW -->
<svg xmlns="http://www.w3.org/2000/svg" xml:space="preserve" width="6.82666in" height="6.82666in" style="shape-rendering:geometricPrecision; text-rendering:geometricPrecision; image-rendering:optimizeQuality; fill-rule:evenodd; clip-rule:evenodd"
viewBox="0 0 6.82666 6.82666"
 xmlns:xlink="http://www.w3.org/1999/xlink">
 <defs>
  <style type="text/css">
   <![CDATA[
    .fil4 {fill:none}
    .fil3 {fill:#918777}
    .fil2 {fill:#999999}
    .fil0 {fill:#A99B86;fill-rule:nonzero}
    .fil1 {fill:#B4B4B4;fill-rule:nonzero}
   ]]>
  </style>
 </defs>
 <g id="Layer_x0020_1">
  <metadata id="CorelCorpID_0Corel-Layer"/>
  <g id="_438957624">
   <path id="_438959136" class="fil0" d="M3.90521 3.72048l0.12461 1.63128 0.00572441 0.0749488 -0.0696378 0.0297835c-0.194283,0.0830866 -0.383614,0.122189 -0.56837,0.120969 -0.186028,-0.00123228 -0.365453,-0.0430551 -0.538843,-0.121795l-0.0674449 -0.0306299 0.00559449 -0.0732756 0.124591 -1.63093c0.0708937,-0.00896457 0.912858,-0.00940551 0.983776,-0.000350394z"/>
   <path id="_438959184" class="fil1" d="M0.85335 3.86899c0.000523622,-0.722413 0.286638,-1.37669 0.74898,-1.85067 0.463547,-0.475224 1.10385,-0.769157 1.811,-0.769157 0.707157,0 1.34746,0.293933 1.811,0.769157 0.462764,0.474413 0.748992,1.12945 0.748992,1.85265 0,0.0548661 -0.0418701,0.0999528 -0.0953976,0.105063 -0.501992,0.0904803 -0.997937,0.00883465 -1.49006,-0.0722087 -0.32915,-0.0542047 -0.656563,-0.108126 -0.974531,-0.107453 -0.328965,0.00069685 -0.659713,0.0553858 -0.988634,0.10976 -0.493642,0.0816142 -0.983335,0.162575 -1.48519,0.0683307l0.019378 -0.103492 -0.0194843 0.10374c-0.0514213,-0.00965354 -0.0870669,-0.0550866 -0.086063,-0.105717z"/>
   <ellipse id="_438958656" class="fil2" transform="matrix(1.00467 1.57094 -1.57094 1.00467 4.3649 2.29657)" rx="0.138339" ry="0.168705"/>
   <ellipse id="_438958992" class="fil2" cx="2.6623" cy="1.76412" rx="0.405228" ry="0.223578"/>
   <ellipse id="_438958560" class="fil2" transform="matrix(0.789694 -0.712639 0.712639 0.789694 5.20365 2.381)" rx="0.175453" ry="0.249685"/>
   <ellipse id="_438958896" class="fil2" cx="1.58395" cy="3.01151" rx="0.265497" ry="0.25851"/>
   <ellipse id="_438958752" class="fil2" cx="3.74401" cy="1.7744" rx="0.169655" ry="0.22438"/>
   <ellipse id="_438958824" class="fil2" cx="5.30414" cy="3.19213" rx="0.18663" ry="0.114851"/>
   <ellipse id="_438958224" class="fil2" cx="2.28853" cy="2.40464" rx="0.216591" ry="0.104798"/>
   <ellipse id="_438958056" class="fil2" cx="4.03911" cy="2.96536" rx="0.286456" ry="0.171874"/>
   <ellipse id="_438958032" class="fil2" cx="3.26058" cy="3.20015" rx="0.286456" ry="0.230556"/>
   <ellipse id="_438958128" class="fil2" transform="matrix(1.00986 -0.33416 0.33416 1.00986 3.07265 2.52637)" rx="0.249685" ry="0.11472"/>
   <ellipse id="_438958440" class="fil2" cx="2.28952" cy="3.18854" rx="0.235531" ry="0.152402"/>
   <ellipse id="_438957816" class="fil2" cx="4.58373" cy="3.35648" rx="0.207669" ry="0.148337"/>
   <path id="_438958104" class="fil3" d="M3.39949 3.90338c0.140949,0.204642 0.135004,1.18122 0.105953,1.4309l-0.0242402 0.159776c-0.0267126,-0.225461 -0.0224803,-0.419984 -0.0442913,-0.644106 -0.0208898,-0.214657 -0.0108622,-0.372445 -0.0141417,-0.582969 -0.00158661,-0.101949 -0.028626,-0.292154 -0.0232795,-0.363602z"/>
   <path id="_438957552" class="fil4" d="M3.39949 3.90338l0.0122953 0.0454449c0.0666063,0.246217 0.0409882,0.609654 0.0684843,0.896976 0.0194331,0.203055 0.000933071,0.440598 0.000933071,0.648256"/>
   <path id="_438957480" class="fil3" d="M3.11077 4.24112c0.0900709,0.374768 0.0428898,0.763012 -0.0272323,1.13854l-7.87402e-006 0c-0.0539646,-0.364614 -0.0105709,-0.771543 0.0272402,-1.13854z"/>
   <path id="_438957120" class="fil4" d="M3.11077 4.24112c0.0369843,0.372902 -0.0272362,0.746098 -0.0272362,1.13854"/>
   <path id="_438957528" class="fil3" d="M3.69366 4.15941c0.044126,0.18072 0.0669882,0.328783 0.119354,0.509382 0.0312756,0.107862 0.0994173,0.375209 0.0994961,0.473925l-0.0172913 0.133437c-0.107476,-0.47902 -0.251291,-0.596287 -0.201559,-1.11674z"/>
   <path id="_438957648" class="fil4" d="M3.69366 4.15941c0.026122,0.427917 0.0599331,0.45574 0.168874,0.853862 0.028315,0.103476 0.032685,0.161181 0.032685,0.262882"/>
  </g>
  <rect class="fil4" width="6.82666" height="6.82666"/>
 </g>
</svg>
