<?xml version="1.0" encoding="UTF-8"?>
<!DOCTYPE svg PUBLIC "-//W3C//DTD SVG 1.1//EN" "http://www.w3.org/Graphics/SVG/1.1/DTD/svg11.dtd">
<!-- Creator: CorelDRAW -->
<svg xmlns="http://www.w3.org/2000/svg" xml:space="preserve" width="6.82666in" height="6.82666in" style="shape-rendering:geometricPrecision; text-rendering:geometricPrecision; image-rendering:optimizeQuality; fill-rule:evenodd; clip-rule:evenodd"
viewBox="0 0 6.82666 6.82666"
 xmlns:xlink="http://www.w3.org/1999/xlink">
 <defs>
  <style type="text/css">
   <![CDATA[
    .fil6 {fill:none}
    .fil1 {fill:#AB1D1D}
    .fil2 {fill:#4A2F15;fill-rule:nonzero}
    .fil3 {fill:#754529;fill-rule:nonzero}
    .fil0 {fill:#C58A3D;fill-rule:nonzero}
    .fil5 {fill:#F3AA4C;fill-rule:nonzero}
    .fil4 {fill:#FF8F00;fill-rule:nonzero}
   ]]>
  </style>
 </defs>
 <g id="Layer_x0020_1">
  <metadata id="CorelCorpID_0Corel-Layer"/>
  <path class="fil0" d="M4.73416 1.36743c0.0729882,-0.019685 0.14302,-0.0228346 0.207764,-0.015878 0.0669803,0.00720866 0.126654,0.0250669 0.177264,0.0464803 0.0766969,0.0324449 0.13361,0.0725906 0.163728,0.0964882l-0.000271654 0.000330709c0.00431102,0.00341339 0.0083189,0.00648425 0.0120394,0.00923228l0.00038189 -0.000248031 0.0145118 0.0107402c0.0549882,0.0385551 0.185646,0.141764 0.261831,0.297307 0.049122,0.100291 0.0761614,0.220961 0.0494921,0.358965 -0.0274173,0.141878 -0.12435,0.50863 -0.44098,0.966346 -0.189976,0.274622 -0.460028,0.583957 -0.843417,0.899846 -0.370736,0.305457 -0.85011,0.496382 -1.32199,0.608535 -0.681693,0.16202 -1.35477,0.158921 -1.65446,0.0995906l-0.00038189 0.000244094c-0.0966181,-0.0191614 -0.180661,-0.0505472 -0.251591,-0.0938583 -0.0749252,-0.045748 -0.134197,-0.104146 -0.177244,-0.174862 -0.0660669,-0.108465 -0.0880039,-0.232705 -0.0858622,-0.354413 0.00201575,-0.11461 0.0251024,-0.22637 0.0516929,-0.318429 0.0507559,-0.175587 0.141969,-0.271083 0.29261,-0.331094 0.128366,-0.0511457 0.295217,-0.0697717 0.524307,-0.0953346 0.0246024,-0.00275197 0.0498268,-0.00555906 0.0756457,-0.0085 0.00232677,-0.00026378 0.0236496,-0.00279921 0.0787126,-0.00936614 0.0521654,-0.00625197 0.0651181,-0.00785039 0.068626,-0.00825197 0.120661,-0.0139213 -0.0465512,0.00560236 0.0682087,-0.00735827l7.87402e-006 0 -4.33071e-005 -0.000401575c0.485205,-0.0552402 0.943646,-0.107437 1.42297,-0.477323 0.139492,-0.107622 0.254823,-0.236673 0.355382,-0.371988 0.103429,-0.139173 0.190681,-0.284114 0.272469,-0.419996l0.000114173 7.08661e-005 9.44882e-005 -0.000409449c0.142071,-0.235976 0.276256,-0.458854 0.456941,-0.595366 0.0749528,-0.056689 0.149563,-0.0917087 0.221449,-0.111098z"/>
  <path class="fil1" d="M2.17574 3.5624l0 0zm0.237472 0.408437l0 0zm1.42293 -0.477724c0.139492,-0.107622 0.254823,-0.236673 0.355382,-0.371988 0.103429,-0.139173 0.190681,-0.284114 0.272469,-0.419996l0.000114173 7.08661e-005 9.44882e-005 -0.000409449c0.142071,-0.235976 0.276256,-0.458854 0.456941,-0.595366 0.0749528,-0.056689 0.149563,-0.0917087 0.221449,-0.111098 0.0729882,-0.019685 0.14302,-0.0228346 0.207764,-0.015878 0.0505394,0.00544094 0.0969173,0.0169409 0.138378,0.0314567 -0.000102362,-0.00309843 -0.000153543,-0.00620866 -0.000153543,-0.00933071 0,-0.0760984 0.0308622,-0.145008 0.0807362,-0.194886 0.000165354,-0.000165354 0.000334646,-0.000334646 0.0005,-0.0005 -0.0359882,-0.0330906 -0.0681929,-0.057374 -0.0892717,-0.0721535l-0.0145118 -0.0107402 -0.00038189 0.000248031c-0.00372047,-0.00274803 -0.00772835,-0.0058189 -0.0120394,-0.00923228l0.000271654 -0.000330709c-0.0301181,-0.0238976 -0.0870315,-0.0640433 -0.163728,-0.0964882 -0.0506102,-0.0214134 -0.110283,-0.0392717 -0.177264,-0.0464803 -0.0647441,-0.00695669 -0.134776,-0.00380709 -0.207764,0.015878 -0.0718858,0.0193898 -0.146496,0.0544094 -0.221449,0.111098 -0.180685,0.136512 -0.31487,0.35939 -0.456941,0.595366l-9.44882e-005 0.000409449 -0.000114173 -7.08661e-005c-0.0817874,0.135882 -0.169039,0.280823 -0.272469,0.419996 -0.100559,0.135315 -0.21589,0.264366 -0.355382,0.371988 -0.479323,0.369886 -0.937764,0.422083 -1.42297,0.477323l3.54331e-005 0.000401575c-0.11476,0.0129606 0.0524528,-0.00656299 -0.0682087,0.00735827l-0.068626 0.00825197 -0.0787126 0.00936614c-0.0258189,0.00294094 -0.0510433,0.00574803 -0.0756457,0.0085 -0.229091,0.025563 -0.395941,0.044189 -0.524307,0.0953346 -0.150642,0.0600118 -0.241854,0.155508 -0.29261,0.331094 -0.0265906,0.0920591 -0.0496772,0.203819 -0.0516929,0.318429 -0.00164567,0.0934803 0.0109134,0.188457 0.0467677,0.27663 0.039374,-0.0216811 0.0846142,-0.0340157 0.132728,-0.0340157 0.0251457,0 0.0495039,0.00337008 0.0726496,0.0096811 0.0095315,-0.0580197 0.0227717,-0.11298 0.0370118,-0.162287 0.0507559,-0.175587 0.141969,-0.271083 0.29261,-0.331094 0.128366,-0.0511457 0.295217,-0.0697717 0.524307,-0.0953346 0.0246024,-0.00275197 0.0498268,-0.00555906 0.0756457,-0.0085l0.0787126 -0.00936614 0.068626 -0.00825197c0.120661,-0.0139213 -0.0465512,0.00560236 0.0682165,-0.00735827l-4.33071e-005 -0.000401575c0.485205,-0.0552402 0.943646,-0.107437 1.42297,-0.477323z"/>
  <path class="fil2" d="M2.37224 4.11515l-0.000216535 -4.33071e-005c-0.0310787,0.0035 -0.0125512,0.0014252 0.000216535,4.33071e-005z"/>
  <path class="fil3" d="M5.69771 1.63946c0.0760945,0 0.145008,0.0308622 0.194882,0.0807362 0.049874,0.049878 0.0807362,0.118787 0.0807362,0.194886 0,0.0760945 -0.0308583,0.145 -0.0807362,0.194882 -0.049874,0.049878 -0.118787,0.0807362 -0.194882,0.0807362 -0.0760945,0 -0.145,-0.0308543 -0.194886,-0.0807362 -0.049878,-0.0498819 -0.0807362,-0.118787 -0.0807362,-0.194882 0,-0.0760984 0.0308622,-0.145008 0.0807362,-0.194886 0.0498858,-0.049878 0.118791,-0.0807362 0.194886,-0.0807362z"/>
  <path class="fil3" d="M1.12895 4.49786c0.0760945,0 0.145,0.0308543 0.194886,0.0807362 0.049878,0.0498819 0.0807362,0.118787 0.0807362,0.194882 0,0.0760984 -0.0308622,0.145008 -0.0807362,0.194886 -0.0498858,0.049878 -0.118791,0.0807323 -0.194886,0.0807323 -0.0760945,0 -0.145008,-0.0308583 -0.194882,-0.0807323 -0.049874,-0.049878 -0.0807362,-0.118787 -0.0807362,-0.194886 0,-0.0760945 0.0308583,-0.145 0.0807362,-0.194882 0.049874,-0.049878 0.118787,-0.0807362 0.194882,-0.0807362z"/>
  <path class="fil4" d="M5.33094 1.85094c-0.122232,-0.046689 -0.228256,-0.0804449 -0.322071,-0.0891732 -0.0902992,-0.00839764 -0.170343,0.0064252 -0.244736,0.0556535 -0.0783583,0.0518504 -0.143709,0.125634 -0.189654,0.210425 -0.0457638,0.0844567 -0.0722126,0.17948 -0.0730433,0.274299 -0.00238189,0.271051 -0.188031,0.365539 -0.354921,0.45048 -0.0871496,0.0443583 -0.168661,0.0858465 -0.206362,0.147449 -0.0371181,0.0606496 -0.0796339,0.154953 -0.121291,0.247362 -0.0339488,0.0752992 -0.0673465,0.14937 -0.0982205,0.205791 -0.103256,0.188661 -0.297961,0.178016 -0.493169,0.167339 -0.117374,-0.00641732 -0.234957,-0.0128465 -0.323673,0.0282244 -0.048874,0.022622 -0.10624,0.0616299 -0.169594,0.104701 -0.101756,0.069185 -0.218402,0.148492 -0.345965,0.193098 -0.158449,0.0554134 -0.257512,0.0194173 -0.371256,-0.0219134 -0.104669,-0.0380315 -0.222945,-0.0810079 -0.419524,-0.0500748 -0.106315,0.0167283 -0.219988,0.0788898 -0.295528,0.177894 -0.0623465,0.0817205 -0.0983898,0.188862 -0.0820827,0.316567l-0.0658819 0.00833071c-0.0187756,-0.147035 0.0229606,-0.270705 0.0950984,-0.36526 0.0862008,-0.112976 0.216331,-0.183972 0.338236,-0.203154 0.213469,-0.0335906 0.340193,0.0124528 0.452335,0.0532008 0.101878,0.0370197 0.190606,0.0692598 0.326728,0.0216535 0.119594,-0.0418189 0.232287,-0.118441 0.330602,-0.185287 0.0660984,-0.044937 0.125953,-0.0856339 0.178965,-0.110173 0.103575,-0.0479488 0.229362,-0.0410709 0.354925,-0.0342087 0.174421,0.00953937 0.348394,0.0190551 0.431453,-0.132709 0.0288819,-0.0527756 0.0621024,-0.126461 0.095874,-0.201366 0.0424252,-0.0941181 0.0857323,-0.190165 0.125197,-0.254654 0.0476654,-0.0778898 0.137201,-0.123457 0.232929,-0.172181 0.149921,-0.0763031 0.316701,-0.161189 0.318724,-0.39163 0.000929134,-0.106087 0.0302047,-0.211819 0.0808543,-0.305291 0.0510748,-0.094252 0.123957,-0.176429 0.211528,-0.234378 0.0882913,-0.0584252 0.182205,-0.0761181 0.287445,-0.0663307 0.101736,0.00946457 0.212886,0.0446102 0.33978,0.0930787l-0.0237008 0.0622362z"/>
  <path class="fil5" d="M5.0761 1.90884c0.0729882,-0.019685 0.14302,-0.0228346 0.207764,-0.015878 0.0669803,0.00720866 0.126654,0.0250669 0.177264,0.0464803 0.0766969,0.0324449 0.13361,0.0725906 0.163728,0.0964882l-0.000271654 0.000330709c0.00431102,0.00341339 0.0083189,0.00648425 0.0120394,0.00923228l0.00038189 -0.000248031 0.0145118 0.0107402c0.0549882,0.0385551 0.185646,0.141764 0.261831,0.297307 0.049122,0.100291 0.0761614,0.220961 0.0494921,0.358965 -0.0274173,0.141878 -0.12435,0.50863 -0.44098,0.966346 -0.189976,0.274622 -0.460028,0.583957 -0.843417,0.899846 -0.370736,0.305457 -0.85011,0.496382 -1.32199,0.608535 -0.681693,0.16202 -1.35477,0.158921 -1.65446,0.0995906l-0.00038189 0.000244094c-0.0966181,-0.0191614 -0.180661,-0.0505472 -0.251591,-0.0938583 -0.0749252,-0.045748 -0.134197,-0.104146 -0.177244,-0.174862 -0.0660669,-0.108465 -0.0880039,-0.232705 -0.0858622,-0.354413 0.00201575,-0.11461 0.0251024,-0.22637 0.0516929,-0.318429 0.0507559,-0.175587 0.141969,-0.271083 0.29261,-0.331094 0.128366,-0.0511457 0.295217,-0.0697717 0.524307,-0.0953346 0.0246024,-0.00275197 0.0498268,-0.00555906 0.0756457,-0.0085 0.00232677,-0.00026378 0.0236496,-0.00279921 0.0787126,-0.00936614 0.0521654,-0.00625197 0.0651181,-0.00785039 0.068626,-0.00825197 0.120661,-0.0139213 -0.0465512,0.00560236 0.0682087,-0.00735827l7.87402e-006 0 -4.33071e-005 -0.000401575c0.485205,-0.0552402 0.943646,-0.107437 1.42297,-0.477323 0.139492,-0.107622 0.254823,-0.236673 0.355382,-0.371988 0.103429,-0.139173 0.190681,-0.284114 0.272469,-0.419996l0.000114173 7.08661e-005 9.44882e-005 -0.000409449c0.142071,-0.235976 0.276256,-0.458854 0.456941,-0.595366 0.0749528,-0.056689 0.149563,-0.0917087 0.221449,-0.111098z"/>
  <rect class="fil6" width="6.82666" height="6.82666"/>
 </g>
</svg>
