<?xml version="1.0" encoding="UTF-8"?>
<!DOCTYPE svg PUBLIC "-//W3C//DTD SVG 1.1//EN" "http://www.w3.org/Graphics/SVG/1.1/DTD/svg11.dtd">
<!-- Creator: CorelDRAW -->
<svg xmlns="http://www.w3.org/2000/svg" xml:space="preserve" width="2048px" height="2048px" style="shape-rendering:geometricPrecision; text-rendering:geometricPrecision; image-rendering:optimizeQuality; fill-rule:evenodd; clip-rule:evenodd"
viewBox="0 0 2048 2048"
 xmlns:xlink="http://www.w3.org/1999/xlink">
 <defs>
  <style type="text/css">
   <![CDATA[
    .fil0 {fill:none}
    .fil8 {fill:#00838F}
    .fil3 {fill:#388E3C}
    .fil1 {fill:#D84315}
    .fil4 {fill:#E64A19}
    .fil5 {fill:white}
    .fil7 {fill:#0097A7;fill-rule:nonzero}
    .fil2 {fill:#43A047;fill-rule:nonzero}
    .fil6 {fill:#E53935;fill-rule:nonzero}
   ]]>
  </style>
 </defs>
 <g id="Layer_x0020_1">
  <metadata id="CorelCorpID_0Corel-Layer"/>
  <rect class="fil0" width="2048" height="2048"/>
  <rect class="fil0" x="255.999" y="255.999" width="1536" height="1536"/>
  <g id="_218082032">
   <polygon id="_218058440" class="fil1" points="776.121,1528.62 874.724,1562.37 724.756,1791.39 685.96,1792 "/>
   <polygon id="_218077832" class="fil1" points="1278.37,1528.62 1179.77,1562.37 1329.74,1791.39 1368.53,1792 "/>
   <g>
    <g>
     <polygon id="_218060288" class="fil2" points="575.555,393.73 729.293,607.381 680.052,642.814 526.315,429.163 "/>
     <path id="_218078000" class="fil3" d="M598.252 480.546l-182.251 131.143c-72.4276,-100.655 -49.5461,-240.965 51.1087,-313.394 100.655,-72.4276 240.965,-49.5461 313.393,51.1087l-182.25 131.143z"/>
    </g>
    <g>
     <polygon id="_218061872" class="fil2" points="1472.44,393.73 1318.71,607.381 1367.95,642.814 1521.69,429.163 "/>
     <path id="_218055128" class="fil3" d="M1449.75 480.546l182.25 131.143c72.4288,-100.655 49.5473,-240.965 -51.1075,-313.394 -100.655,-72.4276 -240.965,-49.5461 -313.394,51.1087l182.251 131.143z"/>
    </g>
   </g>
   <ellipse id="_218071496" class="fil4" cx="1024" cy="1017.25" rx="616.426" ry="616.426"/>
   <ellipse id="_218078504" class="fil5" cx="1024" cy="1017.25" rx="522.638" ry="522.638"/>
   <line id="_218054408" class="fil0" x1="1024" y1="1051.39" x2="765.498" y2= "1290" />
   <polygon id="_218078528" class="fil6" points="1027.29,1050.72 696.608,1335.04 1006.47,1028.1 "/>
   <path id="_218074928" class="fil7" d="M1043.89 613.923c0,-10.9807 -8.90434,-19.8851 -19.8851,-19.8851 -10.9819,0 -19.8862,8.90434 -19.8862,19.8851l0 417.579c0,10.9807 8.90434,19.8851 19.8862,19.8851 10.9807,0 19.8851,-8.90434 19.8851,-19.8851l0 -417.579z"/>
   <path id="_218069192" class="fil7" d="M1387.19 1060.88c10.9807,0 19.8851,-8.90434 19.8851,-19.8851 0,-10.9819 -8.90434,-19.8862 -19.8851,-19.8862l-387.586 0c-10.9807,0 -19.8851,8.90434 -19.8851,19.8862 0,10.9807 8.90434,19.8851 19.8851,19.8851l387.586 0z"/>
   <circle id="_218071400" class="fil8" cx="1024" cy="1031.5" r="59.6541"/>
  </g>
 </g>
</svg>
