<?xml version="1.0" encoding="UTF-8"?>
<!DOCTYPE svg PUBLIC "-//W3C//DTD SVG 1.1//EN" "http://www.w3.org/Graphics/SVG/1.1/DTD/svg11.dtd">
<!-- Creator: CorelDRAW -->
<svg xmlns="http://www.w3.org/2000/svg" xml:space="preserve" width="2048px" height="2048px" style="shape-rendering:geometricPrecision; text-rendering:geometricPrecision; image-rendering:optimizeQuality; fill-rule:evenodd; clip-rule:evenodd"
viewBox="0 0 2048 2048"
 xmlns:xlink="http://www.w3.org/1999/xlink">
 <defs>
  <style type="text/css">
   <![CDATA[
    .fil0 {fill:none}
    .fil1 {fill:#0277BD}
    .fil3 {fill:#212121}
    .fil2 {fill:#303030}
    .fil5 {fill:#3C3C3C}
    .fil4 {fill:#424242}
   ]]>
  </style>
 </defs>
 <g id="Layer_x0020_1">
  <metadata id="CorelCorpID_0Corel-Layer"/>
  <rect class="fil0" width="2048" height="2048"/>
  <rect class="fil0" x="255.999" y="255.999" width="1536" height="1536"/>
  <g id="_224114984">
   <path id="_224118920" class="fil1" d="M1024 1792c315.585,-5.60315 487.607,-209.228 359.838,-644.434 30.2528,-226.293 42.0142,-410.165 21.1299,-519.146 -113.252,-69.2375 -255.083,-130.563 -386.346,-172.787 -131.263,42.2244 -262.338,103.55 -375.591,172.787 -20.8843,108.98 -9.12284,292.852 21.1299,519.146 -127.768,435.206 44.2536,638.83 359.838,644.434z"/>
   <path id="_224112392" class="fil2" d="M1291.05 565.891c-87.3556,-43.3335 -182.377,-81.2906 -272.426,-110.257 -89.2855,28.7209 -178.482,66.2823 -262.043,109.158 -460.281,1451.7 989.78,1369.93 534.469,1.09961z"/>
   <path id="_224117000" class="fil3" d="M1030.33 459.068c-4.33111,-1.16102 -8.65276,-2.30551 -12.9614,-3.43347l-1.85197 0.486615 0 714.677 14.8134 0 0 -711.73z"/>
   <path id="_224116304" class="fil4" d="M1014.01 696.134l17.811 0c17.4933,0 31.8047,17.8547 31.8047,39.6756l0 103.197c0,21.8221 -14.3126,39.6756 -31.8047,39.6756l-17.811 0c-17.4933,0 -31.8047,-17.8536 -31.8047,-39.6756l0 -103.197c0,-21.8221 14.3114,-39.6756 31.8047,-39.6756z"/>
   <path id="_224115800" class="fil5" d="M1056.71 711.175c2.04213,3.20079 3.69685,6.80197 4.87796,10.689l-77.3351 0c1.17874,-3.88819 2.83465,-7.48819 4.87796,-10.689l67.5792 0zm6.7252 20.2536c0.12874,1.43858 0.196063,2.90079 0.196063,4.38071l0 6.30827 -81.4205 0 0 -6.30827c0,-1.47992 0.0673229,-2.94095 0.196063,-4.38071l81.0284 0zm0.196063 20.2536l0 10.6902 -81.4205 0 0 -10.6902 81.4205 0zm0 20.2547l0 10.689 -81.4205 0 0 -10.689 81.4205 0zm0 20.2536l0 10.689 -81.4205 0 0 -10.689 81.4205 0zm0 20.2536l0 10.689 -81.4205 0 0 -10.689 81.4205 0zm0 20.2547l0 6.30709c0,1.4811 -0.0673229,2.94213 -0.196063,4.38189l-81.0284 0c-0.12874,-1.43976 -0.196063,-2.90079 -0.196063,-4.38189l0 -6.30709 81.4205 0zm-2.04331 20.2536c-1.17992,3.88583 -2.83465,7.48701 -4.87796,10.689l-67.578 0c-2.04331,-3.20197 -3.7004,-6.80315 -4.87914,-10.689l77.3351 0z"/>
   <rect id="_224115560" class="fil3" x="1005.99" y="256" width="33.8561" height="169.295"/>
   <path id="_224115248" class="fil4" d="M985.416 373.891l75.0071 0c5.8193,0 10.5791,4.76103 10.5791,10.5791l0 8.29134c0,5.81811 -4.76103,10.5791 -10.5791,10.5791l-75.0071 0c-5.81811,0 -10.5803,-4.75985 -10.5803,-10.5791l0 -8.29134c0,-5.8193 4.75985,-10.5791 10.5803,-10.5791z"/>
   <path id="_224113448" class="fil4" d="M985.416 432.376l75.0071 0c5.8193,0 10.5791,4.76103 10.5791,10.5791l0 8.29134c0,5.81811 -4.76103,10.5791 -10.5791,10.5791l-75.0071 0c-5.81811,0 -10.5803,-4.75985 -10.5803,-10.5791l0 -8.29134c0,-5.8193 4.75985,-10.5791 10.5803,-10.5791z"/>
   <path id="_224114720" class="fil4" d="M985.416 410.57l75.0071 0c5.8193,0 10.5791,4.76103 10.5791,10.5791l0 8.29134c0,5.81811 -4.76103,10.5791 -10.5791,10.5791l-75.0071 0c-5.81811,0 -10.5803,-4.75985 -10.5803,-10.5791l0 -8.29134c0,-5.8193 4.75985,-10.5791 10.5803,-10.5791z"/>
  </g>
 </g>
</svg>
