<?xml version="1.0" encoding="UTF-8"?>
<!DOCTYPE svg PUBLIC "-//W3C//DTD SVG 1.1//EN" "http://www.w3.org/Graphics/SVG/1.1/DTD/svg11.dtd">
<!-- Creator: CorelDRAW -->
<svg xmlns="http://www.w3.org/2000/svg" xml:space="preserve" width="2048px" height="2048px" style="shape-rendering:geometricPrecision; text-rendering:geometricPrecision; image-rendering:optimizeQuality; fill-rule:evenodd; clip-rule:evenodd"
viewBox="0 0 2048 2048"
 xmlns:xlink="http://www.w3.org/1999/xlink">
 <defs>
  <style type="text/css">
   <![CDATA[
    .fil0 {fill:none}
    .fil5 {fill:#004D40}
    .fil1 {fill:#00897B}
    .fil6 {fill:#01579B}
    .fil3 {fill:#0277BD}
    .fil2 {fill:#D32F2F}
    .fil4 {fill:#F57F17}
   ]]>
  </style>
 </defs>
 <g id="Layer_x0020_1">
  <metadata id="CorelCorpID_0Corel-Layer"/>
  <rect class="fil0" width="2048" height="2048"/>
  <rect class="fil0" x="255.999" y="255.999" width="1536" height="1536"/>
  <g id="_218065952">
   <path id="_218067440" class="fil1" d="M496.663 439.97l263.316 0c24.1382,0 43.8851,19.7469 43.8851,43.8851 0,482.743 0,781.517 0,1264.26 0,24.1382 -19.7469,43.8851 -43.8851,43.8851l-263.316 0c-24.1382,0 -43.8851,-19.7469 -43.8851,-43.8851 0,-482.743 0,-781.517 0,-1264.26 0,-24.1382 19.7469,-43.8851 43.8851,-43.8851z"/>
   <path id="_218049848" class="fil2" d="M892.341 255.999l263.316 0c24.1382,0 43.8851,19.7469 43.8851,43.8851 0,453.487 0,906.976 0,1360.46l0 87.769c0,24.1382 -19.7469,43.8851 -43.8851,43.8851l-263.316 0c-24.1382,0 -43.8851,-19.7469 -43.8851,-43.8851l0 -87.769c0,-453.486 0,-906.975 0,-1360.46 0,-24.1382 19.7469,-43.8851 43.8851,-43.8851z"/>
   <path id="_218069840" class="fil3" d="M1288.02 772.768l263.316 0c24.1382,0 43.8851,19.7469 43.8851,43.8851 0,482.743 0,448.72 0,931.463 0,24.1382 -19.7469,43.8851 -43.8851,43.8851l-263.316 0c-24.1382,0 -43.8851,-19.7469 -43.8851,-43.8851 0,-482.743 0,-448.72 0,-931.463 0,-24.1382 19.7469,-43.8851 43.8851,-43.8851z"/>
   <g>
    <g>
     <polygon id="_218076608" class="fil4" points="1199.54,376.359 1199.54,423.3 848.456,423.3 848.456,376.359 "/>
     <polygon id="_218076512" class="fil4" points="1199.54,439.787 1199.54,486.729 848.456,486.729 848.456,439.787 "/>
    </g>
    <g>
     <polygon id="_218061440" class="fil4" points="1199.54,1561.27 1199.54,1608.22 848.456,1608.22 848.456,1561.27 "/>
     <polygon id="_218052152" class="fil4" points="1199.54,1624.7 1199.54,1671.64 848.456,1671.64 848.456,1624.7 "/>
    </g>
   </g>
   <g>
    <polygon id="_218054816" class="fil5" points="805.277,616.395 805.277,663.337 454.191,663.337 454.191,616.395 "/>
    <polygon id="_218071952" class="fil5" points="805.277,1568.63 805.277,1615.57 454.191,1615.57 454.191,1568.63 "/>
   </g>
   <g>
    <polygon id="_218079200" class="fil6" points="1595.22,866.168 1595.22,913.11 1244.13,913.11 1244.13,866.168 "/>
    <polygon id="_218054264" class="fil6" points="1595.22,1651.66 1595.22,1698.6 1244.13,1698.6 1244.13,1651.66 "/>
   </g>
  </g>
 </g>
</svg>
