<?xml version="1.0" encoding="UTF-8"?>
<!DOCTYPE svg PUBLIC "-//W3C//DTD SVG 1.1//EN" "http://www.w3.org/Graphics/SVG/1.1/DTD/svg11.dtd">
<!-- Creator: CorelDRAW -->
<svg xmlns="http://www.w3.org/2000/svg" xml:space="preserve" width="2048px" height="2048px" style="shape-rendering:geometricPrecision; text-rendering:geometricPrecision; image-rendering:optimizeQuality; fill-rule:evenodd; clip-rule:evenodd"
viewBox="0 0 2048 2048"
 xmlns:xlink="http://www.w3.org/1999/xlink">
 <defs>
  <style type="text/css">
   <![CDATA[
    .fil0 {fill:none}
    .fil3 {fill:#29B6F6}
    .fil2 {fill:#81D4FA}
    .fil4 {fill:#B3E5FC}
    .fil6 {fill:#B71C1C}
    .fil5 {fill:#D32F2F}
    .fil1 {fill:#0277BD;fill-rule:nonzero}
   ]]>
  </style>
 </defs>
 <g id="Layer_x0020_1">
  <metadata id="CorelCorpID_0Corel-Layer"/>
  <rect class="fil0" width="2048" height="2048"/>
  <rect class="fil0" x="255.999" y="255.999" width="1536" height="1536"/>
  <path class="fil1" d="M538.444 1643.3c-19.8638,0 -35.9681,16.1043 -35.9681,35.9681 0,19.8638 16.1043,35.9681 35.9681,35.9681l971.11 0c19.8638,0 35.9681,-16.1043 35.9681,-35.9681 0,-19.8638 -16.1043,-35.9681 -35.9681,-35.9681l-971.11 0z"/>
  <path class="fil2" d="M1769.76 712.668c14.5335,59.4083 22.2437,121.521 22.2437,185.447 0,427.076 -343.846,773.292 -768.002,773.292 -424.153,0 -767.999,-346.216 -767.999,-773.292 0,-56.7886 6.08859,-112.142 17.6362,-165.442 325.464,167.066 566.743,76.3737 801.903,-12.0756 215.91,-81.2079 426.291,-160.329 694.218,-7.92993z"/>
  <path class="fil2" d="M1516.34 304.657c96.065,80.8867 172.187,184.975 219.89,303.703 -263.766,-119.789 -473.35,-40.9772 -687.987,39.7512 -222.462,83.6705 -450.793,169.498 -753.859,8.01142 45.3319,-138.61 128.531,-259.902 237.277,-351.466l984.68 0z"/>
  <path class="fil3" d="M1075.54 720.598c215.692,-81.1253 425.866,-160.168 693.406,-8.39174l-32.7154 -103.846c-263.766,-119.789 -473.35,-40.9772 -687.987,39.7512 -222.462,83.6705 -450.793,169.498 -753.859,8.01142l-20.7473 76.5508c325.464,167.066 566.743,76.3737 801.903,-12.0756z"/>
  <path class="fil4" d="M1527.54 790.214c29.7957,0 53.9504,24.1547 53.9504,53.9504 0,29.7969 -24.1547,53.9504 -53.9504,53.9504 -29.7969,0 -53.9504,-24.1536 -53.9504,-53.9504 0,-29.7957 24.1536,-53.9504 53.9504,-53.9504z"/>
  <path class="fil4" d="M1365.69 988.032c29.7969,0 53.9516,24.1547 53.9516,53.9504 0,29.7969 -24.1547,53.9504 -53.9516,53.9504 -29.7957,0 -53.9504,-24.1536 -53.9504,-53.9504 0,-29.7957 24.1547,-53.9504 53.9504,-53.9504z"/>
  <path class="fil5" d="M998.767 1098.94c-67.4233,-11.4839 -135.184,9.96024 -203.232,60.2067l-29.4213 21.724 -21.1571 -29.8725c-21.1276,-29.8299 -57.1973,-42.3674 -87.2564,-43.9595 -9.32363,-0.493701 -17.7,0.056693 -24.5339,1.46221 8.22048,34.6323 11.798,70.4056 11.4662,107.134 -0.337796,37.4398 -4.67953,75.3662 -12.2398,113.679l0.34252 0.0814961c8.20985,1.93228 18.6425,2.56063 30.2398,1.5378 28.95,-2.55236 62.263,-15.4016 82.1221,-43.8532l21.0697 -30.189 29.5087 21.7595c68.0871,50.2052 135.806,71.6162 203.094,60.1182 62.6079,-10.6973 126.825,-49.6063 192.827,-119.903 -66.0497,-70.3571 -130.267,-109.272 -192.829,-119.926z"/>
  <path class="fil6" d="M1073.6 1182.81c19.4504,0 35.2193,15.7677 35.2193,35.2193 0,19.4504 -15.7689,35.2193 -35.2193,35.2193 -19.4516,0 -35.2193,-15.7689 -35.2193,-35.2193 0,-19.4516 15.7677,-35.2193 35.2193,-35.2193z"/>
 </g>
</svg>
