<?xml version="1.0" encoding="UTF-8"?>
<!DOCTYPE svg PUBLIC "-//W3C//DTD SVG 1.1//EN" "http://www.w3.org/Graphics/SVG/1.1/DTD/svg11.dtd">
<!-- Creator: CorelDRAW -->
<svg xmlns="http://www.w3.org/2000/svg" xml:space="preserve" width="2048px" height="2048px" style="shape-rendering:geometricPrecision; text-rendering:geometricPrecision; image-rendering:optimizeQuality; fill-rule:evenodd; clip-rule:evenodd"
viewBox="0 0 2048 2048"
 xmlns:xlink="http://www.w3.org/1999/xlink">
 <defs>
  <style type="text/css">
   <![CDATA[
    .fil0 {fill:none}
    .fil2 {fill:#26A69A}
    .fil1 {fill:#00897B;fill-rule:nonzero}
   ]]>
  </style>
 </defs>
 <g id="Layer_x0020_1">
  <metadata id="CorelCorpID_0Corel-Layer"/>
  <rect class="fil0" width="2048" height="2048"/>
  <rect class="fil0" x="255.999" y="255.999" width="1536" height="1536"/>
  <g id="_215734680">
   <path id="_215752560" class="fil1" d="M1590.37 472.965c-76.3016,-24.7347 -155.771,-16.0158 -222.336,17.9575 -66.5658,33.9721 -120.252,93.2115 -144.986,169.512l-52.8603 163.061 -56.3493 -110.19c-13.0358,-25.4918 -35.3233,-43.3359 -60.7241,-51.5481 -25.4197,-8.21694 -53.9682,-6.7878 -79.5036,6.27048 -25.1008,12.835 -41.7626,34.063 -49.7091,58.643 -8.1189,25.1067 -6.97087,53.667 3.75945,80.041l136.18 334.715 0.119291 -0.0484252 0.00472441 0.0106299 -0.201969 0.0826772c2.22284,5.46496 6.70394,9.3319 11.9268,10.9654l0.0708662 0.0236221c0.366142,0.11811 0.732284,0.22441 1.10079,0.320079 0.20315,0.0708662 0.538583,0.183071 1.07835,0.357874 15.2835,4.95473 24.5008,13.2602 28.8591,23.0516 4.53898,10.2 4.41142,22.5461 0.72756,34.8744 -0.416929,1.39252 0.23504,-0.887009 -0.597638,1.68307l-23.7732 73.3359c-3.23268,9.96969 2.22992,20.674 12.2008,23.9055l398.184 129.082c9.97087,3.2315 20.674,-2.2311 23.9067,-12.2008l23.6067 -72.8245c0.180709,-0.555119 0.33189,-1.11378 0.459449,-1.67362 6.16536,-18.8752 14.3291,-28.8874 23.6173,-32.7213 9.58111,-3.95551 22.0158,-2.13425 35.5725,2.90197l-0.0212599 0.0555119c9.82205,3.65551 20.7496,-1.3441 24.4051,-11.1673 0.0956694,-0.255118 0.183071,-0.510237 0.265748,-0.766536l0.0011811 0 152.489 -470.39c24.7347,-76.3005 16.0146,-155.77 -17.9587,-222.334 -33.9733,-66.5646 -93.2127,-120.249 -169.514,-144.985z"/>
   <path id="_215750928" class="fil2" d="M1089.7 1125.38l0.0366142 0.0826772c19.3417,6.83504 35.9303,19.3406 44.4709,38.5288 7.84843,17.6351 7.5189,37.4221 2.06103,55.6701 -0.225591,0.753544 -0.478347,1.48819 -0.757087,2.20158 -0.0153543,0.0448819 -0.0295276,0.090945 -0.0448819,0.135827l-20.374 62.8512 377.215 122.283 20.0504 -61.8508c0.0791339,-0.303544 0.157087,-0.607087 0.240945,-0.90945 6.17126,-22.3075 18.8705,-43.2827 41.0847,-52.4528 15.0484,-6.2126 31.2296,-5.21221 46.5449,-1.02638l149.076 -459.861c21.4571,-66.1878 15.4583,-137.53 -16.1421,-199.445 -31.6004,-61.9158 -85.8556,-108.628 -152.045,-130.086 -66.189,-21.4571 -137.53,-15.4595 -199.447,16.141 -61.9146,31.5992 -108.628,85.8532 -130.086,152.042l-75.169 231.879 -89.289 -174.6c-8.98347,-17.5677 -24.4914,-30.6 -43.2414,-36.6626 -18.7854,-6.07205 -39.0213,-4.5626 -56.6174,4.43622 -17.0232,8.70473 -28.9701,23.0634 -34.8225,41.1614 -6.26221,19.3666 -4.61929,40.7717 3.00236,59.5063l134.251 329.974z"/>
   <path id="_215734728" class="fil1" d="M449.428 692.333c73.1965,-23.7284 149.431,-15.3638 213.286,17.2264 63.8563,32.5902 115.357,89.4178 139.086,162.613l50.7083 156.424 54.0556 -105.705c12.5055,-24.4547 33.887,-41.5725 58.2532,-49.4493 24.3851,-7.88386 51.7713,-6.5126 76.2674,6.01418 24.0792,12.313 40.063,32.6776 47.687,56.2571 7.78701,24.0851 6.68623,51.4819 -3.60709,76.7823l-130.638 321.092 -0.114567 -0.0472441 -0.00472441 0.0106299 0.194882 0.0791339c-2.13307,5.24174 -6.43111,8.95276 -11.4425,10.5189l-0.0673229 0.022441c-0.350788,0.114567 -0.702756,0.216142 -1.05591,0.307087 -0.194882,0.068504 -0.517323,0.175984 -1.03465,0.344882 -14.661,4.75276 -23.5028,12.7205 -27.6839,22.1126 -4.35473,9.78426 -4.23189,21.6284 -0.698032,33.4548 0.400394,1.33583 -0.225591,-0.851575 0.572835,1.61457l22.8059 70.3512c3.1004,9.56457 -2.13898,19.8319 -11.7036,22.9323l-381.979 123.828c-9.56339,3.1004 -19.8319,-2.14016 -22.9323,-11.7047l-22.6465 -69.8599c-0.172441,-0.532678 -0.318898,-1.0689 -0.440552,-1.60512 -5.91378,-18.1075 -13.7457,-27.7122 -22.6559,-31.3902 -9.19135,-3.79488 -21.1205,-2.04685 -34.1244,2.78386l0.0200788 0.0531496c-9.42284,3.5067 -19.9051,-1.28976 -23.4118,-10.7126 -0.0921261,-0.244488 -0.175984,-0.490158 -0.255118,-0.735827l-0.0011811 0 -146.282 -451.244c-23.7284,-73.1953 -15.3626,-149.43 17.2276,-213.285 32.5914,-63.8552 89.419,-115.356 162.615,-139.084z"/>
   <path id="_215732568" class="fil2" d="M440.775 1475.49c14.6173,-3.82796 29.9788,-4.58268 44.3115,1.33465 21.6792,8.94922 34.1114,29.3504 40.1268,51.1359 0.0767717,0.279921 0.15,0.559843 0.223229,0.840946l18.8469 58.1374 359.538 -116.554 -18.991 -58.5839c-0.180709,-0.458268 -0.288189,-0.767717 -0.316536,-0.84567 -0.230315,-0.643701 -0.349607,-1.03347 -0.390945,-1.16457 -0.0838583,-0.265748 -0.165354,-0.533859 -0.245669,-0.801969 -5.32323,-17.7886 -5.61969,-37.0677 2.0315,-54.2552 8.25591,-18.5469 24.2067,-30.7051 42.8516,-37.4268l128.615 -316.12c7.20355,-17.7071 8.76851,-37.9418 2.85,-56.2477 -5.51457,-17.054 -16.7587,-30.5729 -32.8004,-38.7756 -16.5921,-8.48505 -35.6681,-9.90591 -53.3811,-4.17992 -17.6788,5.71536 -32.3008,18 -40.7705,34.5638l-86.9953 170.117 -73.017 -225.243c-20.4839,-63.1878 -65.0776,-114.977 -124.186,-145.143 -59.1071,-30.1666 -127.21,-35.8937 -190.396,-15.4099 -63.1878,20.4839 -114.978,65.0764 -145.146,124.185 -30.1677,59.106 -35.8949,127.21 -15.411,190.395l142.652 440.042z"/>
  </g>
 </g>
</svg>
