<?xml version="1.0" encoding="UTF-8"?>
<!DOCTYPE svg PUBLIC "-//W3C//DTD SVG 1.1//EN" "http://www.w3.org/Graphics/SVG/1.1/DTD/svg11.dtd">
<!-- Creator: CorelDRAW -->
<svg xmlns="http://www.w3.org/2000/svg" xml:space="preserve" width="2048px" height="2048px" style="shape-rendering:geometricPrecision; text-rendering:geometricPrecision; image-rendering:optimizeQuality; fill-rule:evenodd; clip-rule:evenodd"
viewBox="0 0 2048 2048"
 xmlns:xlink="http://www.w3.org/1999/xlink">
 <defs>
  <style type="text/css">
   <![CDATA[
    .fil0 {fill:none}
    .fil1 {fill:#424242}
    .fil3 {fill:#512DA8}
    .fil6 {fill:#616161}
    .fil2 {fill:#7E57C2}
    .fil5 {fill:#BDBDBD}
    .fil4 {fill:#D1C4E9}
   ]]>
  </style>
 </defs>
 <g id="Layer_x0020_1">
  <metadata id="CorelCorpID_0Corel-Layer"/>
  <rect class="fil0" width="2048" height="2048"/>
  <rect class="fil0" x="255.999" y="255.999" width="1536" height="1536"/>
  <g id="_215721432">
   <path id="_215733408" class="fil1" d="M1258.13 255.999l76.6489 0c8.16024,0 14.8347,6.67796 14.8347,14.8347l0 129.81c0,8.1567 -6.67796,14.8347 -14.8347,14.8347l-76.6489 0c-8.15788,0 -14.8358,-6.67441 -14.8358,-14.8347l0 -129.81c0,-8.16024 6.67441,-14.8347 14.8358,-14.8347z"/>
   <rect id="_215747976" class="fil2" x="1035.33" y="562.376" width="522.243" height="1186.91"/>
   <path id="_215726808" class="fil3" d="M1025.13 1735.15l542.653 0c16.9323,0 30.7843,13.3536 30.7843,29.6729l0 23.2193c0,1.31811 -0.090945,2.61732 -0.265748,3.88937l-0.0106299 0.0696851 -603.669 0c-0.0791339,-0.564567 -0.142913,-1.13386 -0.188977,-1.70906 -0.0590552,-0.742914 -0.0874016,-1.49291 -0.0874016,-2.25l0 -23.2193c0,-16.3217 13.852,-29.6729 30.7843,-29.6729z"/>
   <path id="_215734464" class="fil4" d="M1167.37 387.301l258.16 0c16.3217,0 21.6921,15.4382 29.6729,29.6729l54.8918 97.9253 -427.29 0 54.8941 -97.9253c7.97953,-14.2382 13.3512,-29.6729 29.6717,-29.6729z"/>
   <path id="_215743296" class="fil3" d="M1034.93 500.084l523.04 0c16.3217,0 29.6729,13.3524 29.6729,29.6717l0 23.2205c0,16.3193 -13.3536,29.6729 -29.6729,29.6729l-523.04 0c-16.3193,0 -29.6729,-13.3512 -29.6729,-29.6729l0 -23.2205c0,-16.3205 13.3512,-29.6717 29.6729,-29.6717z"/>
   <path id="_215721288" class="fil5" d="M1243.29 294.971l18.7595 0c10.3181,0 18.7583,8.44016 18.7583,18.7583l0 0.0011811c0,10.3181 -8.44016,18.7583 -18.7583,18.7583l-18.7595 0 0 -37.5177z"/>
   <path id="_215738808" class="fil6" d="M1245.62 304.366c5.33386,0 9.65788,4.32402 9.65788,9.65788 0,5.33386 -4.32402,9.65788 -9.65788,9.65788 -0.637796,0 -1.25906,-0.0625985 -1.8626,-0.180709 -0.153543,-0.0307087 -0.308268,-0.0625985 -0.459449,-0.100394l0 -18.7536c0.276378,-0.068504 0.557481,-0.125197 0.842127,-0.168898 0.48189,-0.0744095 0.976772,-0.112205 1.47992,-0.112205z"/>
   <path id="_215729832" class="fil5" d="M529.904 321.311c21.1181,-0.816142 40.7079,6.2693 55.9252,18.6106 13.3961,-25.8792 39.9426,-44.0185 71.1426,-45.2233 34.9536,-1.35118 65.7237,18.9366 79.4008,48.9012 2.05512,-0.230315 -17.9126,0.459449 6.2315,-0.473622 24.1453,-0.933072 42.228,92.406 86.869,80.4048l385.089 -103.531 -387.819 128.27c-8.88072,33.4536 -38.0398,58.9465 -73.9879,61.9016 2.70473,7.70434 4.32166,15.9378 4.65355,24.5256 1.78465,46.1918 -34.213,85.0831 -80.4048,86.8678 -25.7729,0.99567 -49.2685,-9.77245 -65.3186,-27.5091 -13.7622,11.635 -31.3642,18.9343 -50.7685,19.6843 -46.1918,1.78465 -85.0831,-34.213 -86.8678,-80.4048 -0.806694,-20.8606 6.09567,-40.2307 18.1583,-55.3689 -24.5339,-13.7811 -41.5429,-39.6071 -42.7087,-69.7867 -1.78465,-46.1918 34.213,-85.0843 80.4048,-86.869z"/>
   <path id="_215748552" class="fil5" d="M948.106 311.066c6.56339,0 12.5587,2.43307 17.1331,6.44646 4.46811,-7.87087 12.9248,-13.1823 22.6229,-13.1823 10.8638,0 20.1709,6.66497 24.0555,16.1291 0.641339,-0.0472441 1.2874,-0.0720473 1.94055,-0.0720473 5.16615,0 9.98032,1.50709 14.028,4.10551 7.19764,4.62284 11.9681,12.6992 11.9681,21.8906 0,13.9725 -11.0244,25.3689 -24.8492,25.9689 0.747638,2.42362 1.15039,4.99843 1.15039,7.66772 0,14.3575 -11.6386,25.9961 -25.9961,25.9961 -8.01024,0 -15.1736,-3.62362 -19.9417,-9.32127 -4.41142,3.44646 -9.96142,5.5004 -15.9933,5.5004 -14.3563,0 -25.9961,-11.6386 -25.9961,-25.9961 0,-6.48308 2.3752,-12.4122 6.3,-16.9654 -7.44922,-4.57205 -12.4181,-12.7913 -12.4181,-22.1717 0,-14.3575 11.6386,-25.9961 25.9961,-25.9961z"/>
  </g>
 </g>
</svg>
