<?xml version="1.0" encoding="UTF-8"?>
<!DOCTYPE svg PUBLIC "-//W3C//DTD SVG 1.1//EN" "http://www.w3.org/Graphics/SVG/1.1/DTD/svg11.dtd">
<!-- Creator: CorelDRAW -->
<svg xmlns="http://www.w3.org/2000/svg" xml:space="preserve" width="2048px" height="2048px" style="shape-rendering:geometricPrecision; text-rendering:geometricPrecision; image-rendering:optimizeQuality; fill-rule:evenodd; clip-rule:evenodd"
viewBox="0 0 2048 2048"
 xmlns:xlink="http://www.w3.org/1999/xlink">
 <defs>
  <style type="text/css">
   <![CDATA[
    .fil0 {fill:none}
    .fil6 {fill:#91C0D6}
    .fil7 {fill:#B3E5FC}
    .fil5 {fill:#D32F2F}
    .fil8 {fill:#E1F5FE}
    .fil1 {fill:#C62828;fill-rule:nonzero}
    .fil2 {fill:#D32F2F;fill-rule:nonzero}
    .fil3 {fill:#E53935;fill-rule:nonzero}
    .fil4 {fill:#EF5350;fill-rule:nonzero}
   ]]>
  </style>
 </defs>
 <g id="Layer_x0020_1">
  <metadata id="CorelCorpID_0Corel-Layer"/>
  <rect class="fil0" width="2048" height="2048"/>
  <rect class="fil0" x="255.999" y="255.999" width="1536" height="1536"/>
  <polygon class="fil1" points="1054.99,1581 1054.99,1774.53 993.009,1774.53 993.009,1581 "/>
  <path class="fil2" d="M1027.23 1730.02c115.739,0 230.496,-42.7418 230.496,61.9819l-467.443 0c0,-105.219 120.823,-61.9819 236.947,-61.9819z"/>
  <polygon class="fil1" points="513.616,851.96 644.822,851.96 644.822,913.942 513.616,913.942 "/>
  <polygon class="fil1" points="1403.18,852.54 1519.85,852.54 1519.85,914.524 1403.18,914.524 "/>
  <path class="fil3" d="M1550.84 851.631c0,207.607 -57.5823,396.113 -150.678,533.053 -95.4768,140.441 -228.408,227.308 -376.161,227.308 -147.754,0 -280.684,-86.8666 -376.161,-227.308 -93.0957,-136.941 -150.678,-325.446 -150.678,-533.053l61.9819 0c0,195.21 53.4189,371.394 139.782,498.431 83.9835,123.536 198.979,199.947 325.075,199.947 126.096,0 241.092,-76.4103 325.075,-199.947 86.3635,-127.037 139.782,-303.221 139.782,-498.431l61.9819 0z"/>
  <path class="fil4" d="M1024 255.998c122.104,0 231.79,71.8276 310.419,187.956 76.2721,112.648 123.448,267.565 123.448,438.051 0,170.485 -47.1756,325.403 -123.448,438.051 -78.6272,116.128 -188.315,187.957 -310.419,187.957 -122.104,0 -231.792,-71.8288 -310.419,-187.957 -76.2721,-112.648 -123.448,-267.566 -123.448,-438.051 0,-170.486 47.1756,-325.403 123.448,-438.051 78.6284,-116.128 188.315,-187.956 310.419,-187.956zm259.332 222.578c-67.1823,-99.2233 -158.935,-160.596 -259.332,-160.596 -100.397,0 -192.15,61.3725 -259.332,160.596 -69.5398,102.705 -112.552,245.296 -112.552,403.429 0,158.131 43.0134,300.724 112.552,403.429 67.1823,99.2245 158.935,160.596 259.332,160.596 100.397,0 192.15,-61.3713 259.332,-160.596 69.5386,-102.705 112.552,-245.299 112.552,-403.429 0,-158.133 -43.0122,-300.724 -112.552,-403.429z"/>
  <path class="fil5" d="M1283.33 1285.43c69.5386,-102.704 112.552,-245.296 112.552,-403.428 0,-158.133 -43.0122,-300.724 -112.552,-403.429 -67.1823,-99.2233 -158.935,-160.596 -259.332,-160.596 -100.397,0 -192.15,61.3725 -259.332,160.596 -69.5398,102.705 -112.552,245.296 -112.552,403.429 0,158.132 43.0134,300.724 112.552,403.428 67.1823,99.2257 158.935,160.597 259.332,160.597 100.397,0 192.15,-61.3713 259.332,-160.597z"/>
  <path class="fil6" d="M1265.28 1273.21c76.0879,-112.377 108.804,-256.888 108.804,-391.209 0,-134.323 -32.7154,-278.831 -108.804,-391.209 -55.0867,-81.3591 -138.514,-151.021 -241.284,-151.021 -102.77,0 -186.197,69.6615 -241.284,151.021 -76.089,112.377 -108.804,256.885 -108.804,391.209 0,134.321 32.7166,278.831 108.804,391.209 55.0867,81.3591 138.514,151.021 241.284,151.021 102.77,0 186.197,-69.6615 241.284,-151.021z"/>
  <path class="fil7" d="M1265.28 1277.54c76.0879,-109.158 108.804,-249.527 108.804,-380.001 0,-130.475 -32.7154,-270.844 -108.804,-380.002 -55.0867,-79.0288 -138.514,-146.693 -241.284,-146.693 -102.77,0 -186.197,67.6642 -241.284,146.693 -76.089,109.159 -108.804,249.527 -108.804,380.002 0,130.474 32.7166,270.844 108.804,380.001 55.0867,79.0288 138.514,146.695 241.284,146.695 102.77,0 186.197,-67.6666 241.284,-146.695z"/>
  <g id="_215739120">
   <polygon id="_215735208" class="fil8" points="829.201,461.142 1185.22,734.885 794.462,501.368 "/>
   <path id="_215737056" class="fil8" d="M914.568 604.593l363.887 217.121c-3.76772,16.539 -8.54883,33.0225 -14.4295,49.1197l-349.458 -266.241z"/>
  </g>
 </g>
</svg>
