<?xml version="1.0" encoding="UTF-8"?>
<!DOCTYPE svg PUBLIC "-//W3C//DTD SVG 1.1//EN" "http://www.w3.org/Graphics/SVG/1.1/DTD/svg11.dtd">
<!-- Creator: CorelDRAW -->
<svg xmlns="http://www.w3.org/2000/svg" xml:space="preserve" width="2048px" height="2048px" style="shape-rendering:geometricPrecision; text-rendering:geometricPrecision; image-rendering:optimizeQuality; fill-rule:evenodd; clip-rule:evenodd"
viewBox="0 0 2048 2048"
 xmlns:xlink="http://www.w3.org/1999/xlink">
 <defs>
  <style type="text/css">
   <![CDATA[
    .fil0 {fill:none}
    .fil2 {fill:#453125}
    .fil5 {fill:#D9B385}
    .fil1 {fill:#453227;fill-rule:nonzero}
    .fil4 {fill:#523D30;fill-rule:nonzero}
    .fil3 {fill:#F7CD9B;fill-rule:nonzero}
   ]]>
  </style>
 </defs>
 <g id="Layer_x0020_1">
  <metadata id="CorelCorpID_0Corel-Layer"/>
  <rect class="fil0" width="2048" height="2048"/>
  <rect class="fil0" x="255.999" y="255.999" width="1536" height="1536"/>
  <path class="fil1" d="M595.688 1360.99c-11.5748,-12.1677 -11.0965,-31.4162 1.07126,-42.9922 12.1689,-11.576 31.4173,-11.0965 42.9933,1.07126 106.093,110.945 71.6753,201.038 38.3776,288.202 -18.8032,49.2225 -37.1658,97.291 -18.8858,142.994 6.24804,15.587 -1.32402,33.2918 -16.911,39.5398 -15.5882,6.24686 -33.2918,-1.3252 -39.5398,-16.9122 -27.1795,-67.9524 -4.65473,-126.917 18.411,-187.297 26.5666,-69.5434 54.026,-141.426 -25.5166,-224.606z"/>
  <path class="fil1" d="M1448.72 1319.07c11.576,-12.1677 30.8256,-12.6473 42.9933,-1.07126 12.1677,11.576 12.6473,30.8244 1.07126,42.9922 -79.5426,83.1792 -52.0831,155.062 -25.5166,224.607 23.0658,60.3792 45.5906,119.343 18.4099,187.296 -6.24686,15.587 -23.9516,23.1591 -39.5386,16.9122 -15.5882,-6.24804 -23.1603,-23.9528 -16.9122,-39.5398 18.2799,-45.7028 -0.0814961,-93.7702 -18.8858,-142.993 -33.2977,-87.1666 -67.7138,-177.26 38.3788,-288.203z"/>
  <polygon class="fil1" points="810.584,1579.82 810.584,1340.03 871.561,1340.03 871.561,1579.82 "/>
  <polygon class="fil1" points="1206.93,1579.82 1206.93,1340.03 1267.9,1340.03 1267.9,1579.82 "/>
  <path class="fil2" d="M1301.48 339.756c61.0772,0.237402 113.985,23.426 142.603,86.4072 32.8666,72.326 5.74725,134.512 -45.7548,186.58 -0.080315,0.0826772 -0.161811,0.162992 -0.242126,0.244488 -52.2036,97.1753 -50.08,188.506 -49.9288,297.15 0.0625985,1.4941 0.0933072,2.9941 0.0944883,4.5 0.00236221,5.6752 0.00236221,11.3516 0.00236221,17.028l0 173.674 -168.291 -42.8776c-53.0646,-13.5201 -107.463,-21.274 -162.273,-21.2469 -51.4914,0.0248032 -102.282,6.87402 -151.918,20.5288l-170.711 46.9595 0 -177.038c0,-5.68347 0,-11.3646 0.00236221,-17.048 0.0011811,-1.23898 0.0011811,-2.47914 0.00354331,-3.71693 0.0011811,-0.360236 0.0011811,-0.721654 0.00354331,-1.08189 0.00590552,-1.64291 0.0377953,-3.26811 0.0968505,-4.87441 0.197244,-106.37 1.43268,-196.334 -49.937,-291.957 -0.0814961,-0.0814961 -0.161811,-0.161811 -0.242126,-0.244488 -51.502,-52.0678 -78.6213,-114.254 -45.7548,-186.58 29.2984,-64.4764 83.5512,-87.2705 145.974,-88.8166 151.814,-110.016 408.301,-107.689 556.272,2.40945z"/>
  <path class="fil3" d="M1262.97 456.136c1.38662,0.934253 11.0787,-0.0921261 20.5677,-1.09606 23.2358,-2.46024 45.8835,-4.85906 56.4626,18.4205 11.1083,24.4453 -6.02717,41.7709 -22.9524,58.8839 -5.60906,5.67048 -11.1827,11.3067 -13.3228,15.0626 -70.1386,123.062 -70.0276,230.095 -69.8894,365.514 0.0496063,44.7803 0.0944883,-40.1351 0.0944883,18.7441l0 26.5654 -25.7362 -6.55749c-65.0812,-16.5851 -128.595,-24.8162 -190.557,-24.7855 -62.015,0.0307087 -122.74,8.27127 -182.185,24.6236l-26.0587 7.16812 0 -27.0142c0,-58.8792 0.0437008,26.0362 0.0933072,-18.7441 0.13937,-135.418 0.249213,-242.452 -69.8882,-365.514 -2.14134,-3.75591 -7.71379,-9.39213 -13.3228,-15.0626 -16.9252,-17.113 -34.0607,-34.4386 -22.9524,-58.8839 11.4224,-25.1362 37.891,-23.2004 64.0595,-21.2858 6.42875,0.470079 12.8303,0.937796 18.0154,0.831497 101.023,-103.401 343.325,-112.306 459.677,-12.0532 9.28347,7.99843 8.46733,8.82757 17.8949,15.1831z"/>
  <path class="fil4" d="M1332.45 913.653c60.5882,32.4095 94.017,47.9315 164.796,38.4579 2.71063,-0.269292 4.39489,0.165354 4.52599,2.25236 0.0874016,1.40197 -12.0201,22.9878 -27.8705,51.2493 -39.8575,71.0658 -106.161,132.939 -91.5674,233.406l47.4083 -10.9547c-10.9217,-75.1879 48.4689,-124.734 83.6351,-187.436 21.5516,-38.4272 45.1571,-76.115 43.7055,-99.365 -3.08386,-49.3382 -30.9402,-53.1378 -63.6154,-49.8898 -53.3008,17.8441 -89.5146,7.72678 -155.352,-24.6437l-5.66575 46.9241z"/>
  <path class="fil4" d="M715.548 913.653c-60.5871,32.4095 -94.017,47.9315 -164.796,38.4579 -2.71063,-0.269292 -4.39489,0.165354 -4.52481,2.25236 -0.0885827,1.40197 12.0189,22.9878 27.8693,51.2493 39.8575,71.0658 106.162,132.939 91.5674,233.406l-47.4083 -10.9547c10.9217,-75.1879 -48.4678,-124.734 -83.6351,-187.436 -21.5516,-38.4272 -45.1571,-76.115 -43.7055,-99.365 3.08386,-49.3382 30.9402,-53.1378 63.6154,-49.8898 53.3008,17.8441 89.5146,7.72678 155.352,-24.6437l5.66575 46.9241z"/>
  <path class="fil1" d="M719.542 1125.93c95.3918,-23.8323 192.973,-36.7111 293.023,-37.1929 99.8989,-0.480709 201.851,11.4366 306.081,37.1929l7.38426 2.85827 127.69 70.4091 0.022441 -0.0413386c16.611,9.00827 27.1866,19.1103 33.3626,26.165 5.67048,4.91103 9.54213,10.6913 11.465,17.3882 5.89016,20.5075 1.92166,32.1225 -21.052,38.4591l-0.00472441 -0.0165354c-20.0114,5.7 -24.9272,-0.615355 -33.5504,-12.4158 -0.308268,-0.421654 -0.746457,-1.01929 -1.34173,-1.75748l-0.670867 2.31969c0.00354331,0.184252 -0.0200788,0.279921 -0.0767717,0.263386 -53.4331,-15.6036 -221.008,-24.6024 -391.275,-25.3937 -170.12,-0.790158 -341.166,6.68032 -401.553,24.0177 -1.57323,0.451181 -2.16142,-1.57323 -2.42008,-3.75118 -2.14843,2.39882 -3.6567,4.36772 -4.59095,5.58544 -9.12048,11.9032 -14.1047,18.4807 -34.3087,12.5386l0.0188977 -0.0649607c-20.648,-6.02245 -26.3858,-18.0662 -20.5512,-38.1626 2.10591,-7.20945 6.36733,-13.4551 12.5988,-18.7902 5.05158,-5.84174 12.6331,-13.6205 23.2134,-21.4725l84.1501 -71.7071 12.385 -6.43111zm293.262 23.5465c-92.2442,0.444095 -182.741,12.1524 -271.684,33.8445l-13.1894 11.2394c85.2875,-8.14371 204.673,-11.6799 322.908,-11.1307 94.3536,0.438189 188.476,3.49961 264.388,8.91024l-15.0721 -8.31024c-98.1568,-23.9268 -193.857,-35.0032 -287.349,-34.5532zm429.818 117.502c-0.393307,-0.488977 -0.8563,-1.03937 -1.39488,-1.64291 0.398032,1.79528 0.708662,3.35788 0.724016,3.9626l0.670867 -2.31969z"/>
  <path class="fil4" d="M1500.12 1244.15l1.00039 95.6493 0.320079 30.7276 -30.6898 0 -623.667 0 -229.361 0 -30.4878 0 0 -30.489 0 -95.2902c105.899,0 276.441,-16.3807 447.992,-16.3051 174.604,0.0779528 350.302,16.6075 464.893,15.7075z"/>
  <path class="fil3" d="M1440.48 1212.8l0 0.0011811 0 30.489 -30.4878 0 -776.672 0 -30.489 0 0 -30.489 0 -0.0011811c0,-87.7158 112.045,-141.535 255.461,-163.122 51.6874,-7.77993 107.602,-11.6717 163.363,-11.6717 55.7634,0 111.678,3.89174 163.365,11.6717 143.415,21.5882 255.46,75.4064 255.46,163.122z"/>
  <ellipse class="fil5" transform="matrix(0.385064 -0.385064 0.385064 0.385064 1024 760.011)" rx="4.68662" ry="161.979"/>
  <ellipse class="fil5" transform="matrix(-0.385064 -0.385064 0.385064 -0.385064 1024 760.011)" rx="4.68662" ry="161.979"/>
  <circle class="fil5" transform="matrix(0.606156 -0.606156 0.606156 0.606156 1024 760.011)" r="15.6248"/>
  <ellipse class="fil5" transform="matrix(0.385064 -0.385064 0.385064 0.385064 914.703 651.784)" rx="4.68662" ry="161.979"/>
  <ellipse class="fil5" transform="matrix(-0.385064 -0.385064 0.385064 -0.385064 914.703 651.784)" rx="4.68662" ry="161.979"/>
  <circle class="fil5" transform="matrix(0.606156 -0.606156 0.606156 0.606156 914.703 651.784)" r="15.6248"/>
  <ellipse class="fil5" transform="matrix(0.385064 -0.385064 0.385064 0.385064 1133.3 651.784)" rx="4.68662" ry="161.979"/>
  <ellipse class="fil5" transform="matrix(-0.385064 -0.385064 0.385064 -0.385064 1133.3 651.784)" rx="4.68662" ry="161.979"/>
  <circle class="fil5" transform="matrix(0.606156 -0.606156 0.606156 0.606156 1133.3 651.784)" r="15.6248"/>
  <ellipse class="fil5" transform="matrix(0.385064 -0.385064 0.385064 0.385064 1024 540.344)" rx="4.68662" ry="161.979"/>
  <ellipse class="fil5" transform="matrix(-0.385064 -0.385064 0.385064 -0.385064 1024 540.344)" rx="4.68662" ry="161.979"/>
  <circle class="fil5" transform="matrix(0.606156 -0.606156 0.606156 0.606156 1024 540.344)" r="15.6248"/>
 </g>
</svg>
