<?xml version="1.0" encoding="UTF-8"?>
<!DOCTYPE svg PUBLIC "-//W3C//DTD SVG 1.1//EN" "http://www.w3.org/Graphics/SVG/1.1/DTD/svg11.dtd">
<!-- Creator: CorelDRAW -->
<svg xmlns="http://www.w3.org/2000/svg" xml:space="preserve" width="2048px" height="2048px" style="shape-rendering:geometricPrecision; text-rendering:geometricPrecision; image-rendering:optimizeQuality; fill-rule:evenodd; clip-rule:evenodd"
viewBox="0 0 2048 2048"
 xmlns:xlink="http://www.w3.org/1999/xlink">
 <defs>
  <style type="text/css">
   <![CDATA[
    .fil0 {fill:none}
    .fil4 {fill:#D84315}
    .fil5 {fill:#D84315;fill-rule:nonzero}
    .fil2 {fill:#EF6C00;fill-rule:nonzero}
    .fil6 {fill:#F57F17;fill-rule:nonzero}
    .fil1 {fill:#FF9100;fill-rule:nonzero}
    .fil3 {fill:#FFA726;fill-rule:nonzero}
   ]]>
  </style>
 </defs>
 <g id="Layer_x0020_1">
  <metadata id="CorelCorpID_0Corel-Layer"/>
  <rect class="fil0" width="2048" height="2048"/>
  <rect class="fil0" x="255.999" y="255.999" width="1536" height="1536"/>
  <g id="_218073392">
   <path id="_218064992" class="fil1" d="M1235.93 905.988c21.9603,11.1969 43.1398,24.4606 63.313,39.5764 20.1154,15.0697 38.7874,31.7162 55.8,49.7304l25.2425 26.7284 -30.711 20.426c-14.1697,9.42402 -25.8992,22.2862 -34.0122,37.4079 -7.73741,14.4225 -12.1264,31.0217 -12.1264,48.7666 0,28.5508 11.5713,54.3969 30.2764,73.102 18.7051,18.7063 44.5524,30.2776 73.102,30.2776 5.17323,0 9.67087,-0.257481 13.5047,-0.753544 4.15866,-0.537402 8.52284,-1.41851 13.0417,-2.61142l35.6835 -9.4252 3.20551 36.7701c0.429922,4.93347 0.823229,11.2358 1.17047,19.0205 0.346063,7.71379 0.525591,14.1532 0.525591,19.2213 0,25.9902 -2.30079,51.5174 -6.70749,76.3843 -4.50355,25.415 -11.2347,50.1166 -19.9784,73.8969l-11.8559 32.2394 -30.8008 -14.9823c-21.5858,-10.4988 -49.5355,-9.62835 -78.2717,0.981497 -30.9107,11.413 -62.028,33.8457 -87.4985,65.6268 -18.9,23.5795 -32.1095,49.1304 -39.4784,74.165 -7.29095,24.7618 -8.76379,48.7725 -4.25433,69.4193l5.96457 27.3071 -26.7461 8.78741c-21.4193,7.03465 -43.7953,12.4831 -66.9981,16.1823 -22.8709,3.64843 -45.9048,5.54764 -68.9292,5.54764 -23.0232,0 -46.0571,-1.89921 -68.9315,-5.54764 -23.2004,-3.69922 -45.58,-9.14764 -66.9969,-16.1823l-26.7449 -8.78859 5.96457 -27.3059c4.50945,-20.6469 3.03662,-44.6575 -4.25433,-69.4193 -7.37008,-25.0335 -20.5784,-50.5831 -39.4784,-74.1638 -25.4717,-31.7811 -56.5878,-54.2126 -87.4985,-65.6256 -28.7362,-10.6087 -56.6871,-11.4803 -78.2717,-0.981497l-30.802 14.9823 -11.8547 -32.2394c-8.74371,-23.7803 -15.4748,-48.4831 -19.9795,-73.8993 -4.40552,-24.8658 -6.70749,-50.393 -6.70749,-76.3843 0,-3.83032 0.141732,-9.42402 0.419292,-16.7374 0.262205,-6.8563 0.561024,-12.4571 0.894095,-16.8236l2.29134 -30.0225 30.0343 1.34173 2.40709 0.103937c2.2252,0.0543308 -1.46339,-0.0838583 2.30197,-0.0838583 28.5496,0 54.3969,-11.5713 73.102,-30.2776 18.7051,-18.7051 30.2764,-44.5512 30.2764,-73.102 0,-14.8996 -3.05788,-28.9299 -8.56418,-41.5028 -5.74371,-13.1138 -14.1898,-24.8398 -24.6473,-34.4929l-22.0996 -20.4 19.6689 -22.7421c18.3567,-21.2221 38.8111,-40.7055 61.056,-58.1434 22.2543,-17.4473 45.9815,-32.667 70.8733,-45.3579l16.9772 -8.65394 15.4713 11.328c23.524,17.2252 49.8532,30.8693 78.176,40.1174 27.2398,8.89371 56.4508,13.7055 86.9186,13.7055 30.4666,0 59.6752,-4.81063 86.915,-13.7043 28.3229,-9.24804 54.6508,-22.8921 78.1737,-40.1162l15.4713 -11.328 16.9772 8.65512z"/>
   <path id="_218054552" class="fil2" d="M1406.82 963.02c45.7264,0 87.1276,18.5374 117.097,48.5079 29.9693,29.9693 48.5067,71.3705 48.5067,117.096 0,45.7264 -18.5374,87.1264 -48.5067,117.096 -29.9693,29.9705 -71.3705,48.5067 -117.097,48.5067 -45.7241,0 -87.1264,-18.5362 -117.096,-48.5067 -29.9693,-29.9693 -48.5067,-71.3693 -48.5067,-117.096 0,-45.7252 18.5374,-87.1264 48.5067,-117.096 29.9693,-29.9705 71.3717,-48.5079 117.096,-48.5079z"/>
   <path id="_218080520" class="fil2" d="M714.288 1055.52c-18.7051,-18.7051 -44.5524,-30.2764 -73.102,-30.2764 -28.552,0 -54.3981,11.5713 -73.1032,30.2764 -18.7051,18.7051 -30.2764,44.5536 -30.2764,73.1032 0,28.5508 11.5713,54.3981 30.2764,73.102 18.7051,18.7063 44.5512,30.2776 73.1032,30.2776 28.5496,0 54.3969,-11.5713 73.102,-30.2776 18.7051,-18.7051 30.2764,-44.5512 30.2764,-73.102 0,-28.5496 -11.5713,-54.3969 -30.2764,-73.1032z"/>
   <path id="_218064200" class="fil2" d="M641.186 963.02c45.7241,0 87.1264,18.5374 117.096,48.5079 29.9693,29.9693 48.5067,71.3705 48.5067,117.096 0,45.7264 -18.5374,87.1264 -48.5067,117.096 -29.9693,29.9705 -71.3717,48.5067 -117.096,48.5067 -45.7264,0 -87.1276,-18.5362 -117.097,-48.5067 -29.9693,-29.9693 -48.5067,-71.3693 -48.5067,-117.096 0,-45.7252 18.5374,-87.1264 48.5067,-117.096 29.9693,-29.9705 71.3705,-48.5079 117.097,-48.5079z"/>
   <path id="_218053592" class="fil2" d="M1190.47 1489.48c36.6331,-45.7063 83.3694,-76.7386 129.307,-89.9564 49.5437,-14.2571 98.7237,-8.22048 135.788,21.4866 36.9922,29.6492 53.5524,76.3264 50.4213,127.823 -2.89961,47.7296 -23.0185,100.114 -59.6634,145.834 -36.6343,45.7063 -83.3694,76.7398 -129.308,89.9575 -49.5426,14.2571 -98.7213,8.22166 -135.788,-21.4866 -36.991,-29.6492 -53.5512,-76.3276 -50.4213,-127.824 2.89961,-47.7296 23.0185,-100.114 59.6646,-145.834z"/>
   <path id="_218051288" class="fil2" d="M757.012 1399.53c45.939,13.2177 92.6741,44.25 129.308,89.9564 36.6449,45.7205 56.765,98.1048 59.6634,145.834 3.1311,51.4961 -13.4303,98.1745 -50.4213,127.824 -37.0654,29.7083 -86.2442,35.7437 -135.788,21.4866 -45.9378,-13.2177 -92.6729,-44.2512 -129.307,-89.9575 -36.6461,-45.7205 -56.765,-98.1048 -59.6646,-145.834 -3.12992,-51.4961 13.4291,-98.1733 50.4213,-127.823 37.0654,-29.7071 86.2453,-35.7437 135.788,-21.4866z"/>
   <path id="_218067584" class="fil3" d="M789.414 256.001c39.7311,0 76.1268,14.7602 104.023,39.1264 18.8858,16.4953 33.8162,37.4162 43.1764,61.1493 10.6276,-3.29292 21.5386,-6.10158 32.7071,-8.39764 22.6311,-4.65355 45.7441,-7.10197 69.0733,-7.10197 23.3292,0 46.4433,2.44843 69.0792,7.10197 11.165,2.29606 22.0736,5.10355 32.6988,8.39528 9.36261,-23.7319 24.2906,-44.6528 43.1764,-61.1469 27.8965,-24.3662 64.2922,-39.1264 104.022,-39.1264 43.7032,0 83.2737,17.7165 111.918,46.3607 28.6441,28.6441 46.3607,68.2146 46.3607,111.917 0,37.6843 -13.1799,72.2977 -35.1803,99.4879 -14.5795,18.0201 -33.0768,32.7721 -54.2091,42.9886 5.71182,14.3551 10.4658,29.1473 14.1839,44.2996 6.47599,26.3858 9.913,53.7532 9.913,81.6875 0,94.4268 -38.2772,179.917 -100.161,241.803 -61.8839,61.8839 -147.376,100.161 -241.801,100.161 -94.4268,0 -179.917,-38.2772 -241.803,-100.161 -61.8839,-61.8851 -100.161,-147.376 -100.161,-241.803 0,-27.9343 3.43701,-55.3052 9.91182,-81.6934 3.71693,-15.1488 8.47205,-29.941 14.1839,-44.2937 -21.1335,-10.2165 -39.6284,-24.9685 -54.2079,-42.9874 -22.0016,-27.1902 -35.1815,-61.8048 -35.1815,-99.4891 0,-43.702 17.7165,-83.2725 46.3607,-111.917 28.6441,-28.6441 68.2146,-46.3607 111.917,-46.3607z"/>
   <circle id="_218060312" class="fil4" cx="925.261" cy="598.469" r="42.4242"/>
   <circle id="_218076056" class="fil4" cx="1151.52" cy="598.469" r="42.4242"/>
   <path id="_218078624" class="fil5" d="M1091.89 734.845c-13.6843,-13.6843 -32.6032,-22.1528 -53.5004,-22.1528 -20.8984,0 -39.8174,8.46851 -53.5016,22.1528 -13.6843,13.6843 -22.154,32.6032 -22.154,53.5004 0,20.8984 8.46733,39.815 22.154,53.5016 13.6843,13.6843 32.6032,22.154 53.5016,22.154 20.8973,0 39.8162,-8.46969 53.5004,-22.154 13.6866,-13.6866 22.1528,-32.6032 22.1528,-53.5016 0,-20.8973 -8.46851,-39.8162 -22.1528,-53.5004z"/>
   <path id="_218066168" class="fil1" d="M641.186 1009.66c32.8477,0 62.5902,13.3169 84.1205,34.8473 21.5292,21.5292 34.8461,51.2717 34.8461,84.1205 0,32.8488 -13.3169,62.5902 -34.8461,84.1194 -21.5303,21.5303 -51.2729,34.8473 -84.1205,34.8473 -32.8488,0 -62.5914,-13.3169 -84.1205,-34.8473 -21.5303,-21.5292 -34.8473,-51.2705 -34.8473,-84.1194 0,-32.8488 13.3169,-62.5914 34.8473,-84.1205 21.5292,-21.5303 51.2717,-34.8473 84.1205,-34.8473z"/>
   <path id="_218056928" class="fil1" d="M1406.82 1009.66c32.8477,0 62.5902,13.3169 84.1205,34.8473 21.5292,21.5292 34.8461,51.2717 34.8461,84.1205 0,32.8488 -13.3169,62.5902 -34.8461,84.1194 -21.5303,21.5303 -51.2729,34.8473 -84.1205,34.8473 -32.8488,0 -62.5914,-13.3169 -84.1205,-34.8473 -21.5303,-21.5292 -34.8473,-51.2705 -34.8473,-84.1194 0,-32.8488 13.3169,-62.5914 34.8473,-84.1205 21.5292,-21.5303 51.2717,-34.8473 84.1205,-34.8473z"/>
   <path id="_218069936" class="fil1" d="M757.342 1445.61c34.9441,10.0547 70.4953,33.6603 98.3623,68.4272 27.874,34.7788 43.1788,74.6268 45.3839,110.933 2.38229,39.1725 -10.2165,74.6788 -38.354,97.2331 -28.1953,22.598 -65.6044,27.189 -103.291,16.3441 -34.9429,-10.0547 -70.4941,-33.6614 -98.3611,-68.4284 -27.8752,-34.7788 -43.1788,-74.6256 -45.3851,-110.933 -2.3811,-39.1725 10.2154,-74.6776 38.354,-97.232 28.1953,-22.5969 65.6056,-27.189 103.291,-16.3441z"/>
   <path id="_218060816" class="fil1" d="M1319.44 1445.61c-34.9441,10.0547 -70.4953,33.6603 -98.3623,68.4272 -27.874,34.7788 -43.1788,74.6268 -45.3839,110.933 -2.38229,39.1725 10.2165,74.6788 38.354,97.2331 28.1953,22.598 65.6044,27.189 103.291,16.3441 34.9429,-10.0547 70.4941,-33.6614 98.3611,-68.4284 27.8752,-34.7788 43.1788,-74.6256 45.3851,-110.933 2.3811,-39.1725 -10.2154,-74.6776 -38.354,-97.232 -28.1953,-22.5969 -65.6056,-27.189 -103.291,-16.3441z"/>
   <path id="_218078888" class="fil6" d="M774.969 306.065c28.4303,0 54.1737,11.5264 72.8067,30.1607 18.6343,18.6343 30.1607,44.3764 30.1607,72.8067 0,28.4315 -11.5264,54.1725 -30.1607,72.8067 -18.6331,18.6354 -44.3764,30.1607 -72.8067,30.1607 -28.4303,0 -54.1725,-11.5252 -72.8067,-30.1607 -18.6343,-18.6343 -30.1607,-44.3752 -30.1607,-72.8067 0,-28.4303 11.5264,-54.1725 30.1607,-72.8067 18.6343,-18.6343 44.3764,-30.1607 72.8067,-30.1607z"/>
   <path id="_218071280" class="fil6" d="M1286.97 306.065c28.4303,0 54.1737,11.5264 72.8067,30.1607 18.6343,18.6343 30.1607,44.3764 30.1607,72.8067 0,28.4315 -11.5264,54.1725 -30.1607,72.8067 -18.6331,18.6354 -44.3764,30.1607 -72.8067,30.1607 -28.4303,0 -54.1725,-11.5252 -72.8067,-30.1607 -18.6343,-18.6343 -30.1607,-44.3752 -30.1607,-72.8067 0,-28.4303 11.5264,-54.1725 30.1607,-72.8067 18.6343,-18.6343 44.3764,-30.1607 72.8067,-30.1607z"/>
  </g>
 </g>
</svg>
