<?xml version="1.0" encoding="UTF-8"?>
<!DOCTYPE svg PUBLIC "-//W3C//DTD SVG 1.1//EN" "http://www.w3.org/Graphics/SVG/1.1/DTD/svg11.dtd">
<!-- Creator: CorelDRAW -->
<svg xmlns="http://www.w3.org/2000/svg" xml:space="preserve" width="2048px" height="2048px" style="shape-rendering:geometricPrecision; text-rendering:geometricPrecision; image-rendering:optimizeQuality; fill-rule:evenodd; clip-rule:evenodd"
viewBox="0 0 2048 2048"
 xmlns:xlink="http://www.w3.org/1999/xlink">
 <defs>
  <style type="text/css">
   <![CDATA[
    .fil0 {fill:none}
    .fil2 {fill:#4FC3F7}
    .fil1 {fill:#B3E5FC}
   ]]>
  </style>
 </defs>
 <g id="Layer_x0020_1">
  <metadata id="CorelCorpID_0Corel-Layer"/>
  <rect class="fil0" width="2048" height="2048"/>
  <rect class="fil0" x="255.999" y="255.999" width="1536" height="1536"/>
  <g id="_210065144">
   <path id="_210047984" class="fil1" d="M511.999 255.999l1024 0c-48.763,487.62 -97.5237,975.239 -146.286,1462.86 -3.99213,39.9177 -18.8091,73.1422 -41.7945,73.1422l-647.842 0c-22.9855,0 -37.8024,-33.2233 -41.7945,-73.1422 -48.7618,-487.62 -97.5225,-975.239 -146.286,-1462.86z"/>
   <path id="_210060776" class="fil2" d="M585.656 810.823c380.644,119.487 560.019,-122.118 882.877,-61.8827l-1.89803 18.9732 -94.8733 948.745c-1.32638,13.2591 -4.19055,28.0229 -9.62953,40.0134 -2.26536,4.99252 -6.80434,13.1764 -12.0095,14.9669 -0.721654,0.246851 -1.44803,0.362599 -2.20158,0.362599l-647.842 0c-0.753544,0 -1.47992,-0.115748 -2.20158,-0.36378 -5.20512,-1.78937 -9.7441,-9.97205 -12.0095,-14.9658 -5.43898,-11.9906 -8.30316,-26.7544 -9.62953,-40.0134l-90.5824 -905.835z"/>
  </g>
 </g>
</svg>
