<?xml version="1.0" encoding="UTF-8"?>
<!DOCTYPE svg PUBLIC "-//W3C//DTD SVG 1.1//EN" "http://www.w3.org/Graphics/SVG/1.1/DTD/svg11.dtd">
<!-- Creator: CorelDRAW -->
<svg xmlns="http://www.w3.org/2000/svg" xml:space="preserve" width="2048px" height="2048px" style="shape-rendering:geometricPrecision; text-rendering:geometricPrecision; image-rendering:optimizeQuality; fill-rule:evenodd; clip-rule:evenodd"
viewBox="0 0 2048 2048"
 xmlns:xlink="http://www.w3.org/1999/xlink">
 <defs>
  <style type="text/css">
   <![CDATA[
    .fil0 {fill:none}
    .fil3 {fill:#616161}
    .fil1 {fill:#5D4037;fill-rule:nonzero}
    .fil2 {fill:#A1887F;fill-rule:nonzero}
   ]]>
  </style>
 </defs>
 <g id="Layer_x0020_1">
  <metadata id="CorelCorpID_0Corel-Layer"/>
  <rect class="fil0" width="2048" height="2048"/>
  <rect class="fil0" x="255.999" y="255.999" width="1536" height="1536"/>
  <g id="_210055064">
   <path id="_210072320" class="fil1" d="M1734.99 1489.26c10.141,-13.5213 7.40079,-32.7036 -6.12048,-42.8445l-1460.63 0c-13.5213,10.141 -16.2626,29.3233 -6.12166,42.8445 103.668,138.366 1326.83,194.929 1472.87,0z"/>
   <path id="_210044648" class="fil1" d="M1607.53 866.844c-16.9677,0 -30.7229,13.7551 -30.7229,30.7229 0,16.9677 13.7551,30.7229 30.7229,30.7229l49.2189 0c20.2642,0 38.7118,8.3126 52.102,21.704 13.3925,13.3913 21.7075,31.839 21.7075,52.0996l0 100.189c0,39.4276 -16.1563,75.3001 -42.1807,101.326 -26.0244,26.0232 -61.8945,42.1796 -101.322,42.1796l-141.695 0c-16.9665,0 -30.7229,13.7563 -30.7229,30.724 0,16.9665 13.7563,30.7229 30.7229,30.7229l141.695 0c56.3882,0 107.634,-23.0516 144.765,-60.1831 37.1327,-37.1339 60.1831,-88.3808 60.1831,-144.769l0 -100.189c0,-37.2225 -15.2079,-71.0434 -39.7099,-95.543 -24.4984,-24.4984 -58.3193,-39.7063 -95.5453,-39.7063l-49.2189 0z"/>
   <path id="_210050240" class="fil2" d="M1638.51 859.236c0,176.712 -71.6316,336.701 -187.439,452.508 -115.807,115.807 -275.797,187.438 -452.511,187.438 -176.712,0 -336.698,-71.6304 -452.507,-187.438 -115.808,-115.808 -187.438,-275.796 -187.438,-452.508 0,-16.9677 13.7551,-30.7229 30.7229,-30.7229l1218.45 0c16.9665,0 30.7229,13.7551 30.7229,30.7229z"/>
   <g>
    <path id="_210059360" class="fil3" d="M1003.35 425.488c10.2213,-4.71024 14.687,-16.8484 9.9756,-27.065 -4.71615,-10.2236 -16.8508,-14.6882 -27.0732,-9.97796 -11.4201,5.26418 -20.9622,12.626 -27.7725,23.3008 -12.7039,19.9122 -13.428,47.7721 -11.928,70.5875 2.26654,34.4327 10.1055,69.9792 17.0988,103.762 10.4362,50.4048 29.7898,133.4 12.0047,182.501 -3.83268,10.5827 1.61929,22.2603 12.2055,26.0977 10.5744,3.83386 22.2555,-1.62165 26.087,-12.2008 21.3969,-59.0811 2.1626,-143.726 -10.402,-204.423 -6.04489,-29.1933 -12.6969,-59.2914 -16.3382,-88.8627 -2.4437,-19.8591 -6.2067,-53.4201 16.1421,-63.7193z"/>
    <path id="_210053096" class="fil3" d="M824.728 526.074c7.55788,-3.48307 10.8602,-12.4583 7.37599,-20.0138 -3.48662,-7.56024 -12.4595,-10.8614 -20.0197,-7.37835 -8.44489,3.89292 -15.5008,9.33662 -20.537,17.2299 -9.3945,14.7248 -9.92954,35.3268 -8.82048,52.1977 1.67599,25.4634 7.47284,51.7477 12.6449,76.7304 7.71733,37.2733 22.0276,98.6457 8.87599,134.954 -2.83347,7.82599 1.19882,16.461 9.02599,19.298 7.82008,2.83583 16.4575,-1.19882 19.291,-9.02127 15.8232,-43.689 1.59921,-106.283 -7.69253,-151.166 -4.46929,-21.587 -9.38859,-43.8449 -12.0803,-65.7119 -1.80827,-14.6847 -4.59095,-39.5032 11.9362,-47.1189z"/>
    <path id="_210052640" class="fil3" d="M1199.87 526.074c7.55788,-3.48307 10.8602,-12.4583 7.37599,-20.0138 -3.48662,-7.56024 -12.4595,-10.8614 -20.0185,-7.37835 -8.44607,3.89292 -15.502,9.33662 -20.5382,17.2299 -9.3945,14.7248 -9.92835,35.3268 -8.8193,52.1977 1.6748,25.4634 7.47284,51.7477 12.6437,76.7304 7.71733,37.2733 22.0276,98.6457 8.87599,134.954 -2.83347,7.82599 1.19882,16.461 9.02599,19.298 7.82008,2.83583 16.4575,-1.19882 19.291,-9.02127 15.8232,-43.689 1.59921,-106.283 -7.69253,-151.166 -4.46929,-21.587 -9.38741,-43.8449 -12.0803,-65.7119 -1.80827,-14.6847 -4.59095,-39.5032 11.9362,-47.1189z"/>
   </g>
  </g>
 </g>
</svg>
