<?xml version="1.0" encoding="UTF-8"?>
<!DOCTYPE svg PUBLIC "-//W3C//DTD SVG 1.1//EN" "http://www.w3.org/Graphics/SVG/1.1/DTD/svg11.dtd">
<!-- Creator: CorelDRAW -->
<svg xmlns="http://www.w3.org/2000/svg" xml:space="preserve" width="2048px" height="2048px" style="shape-rendering:geometricPrecision; text-rendering:geometricPrecision; image-rendering:optimizeQuality; fill-rule:evenodd; clip-rule:evenodd"
viewBox="0 0 2048 2048"
 xmlns:xlink="http://www.w3.org/1999/xlink">
 <defs>
  <style type="text/css">
   <![CDATA[
    .fil10 {fill:none}
    .fil9 {fill:#296E2D}
    .fil4 {fill:#2A772E}
    .fil6 {fill:#31621E}
    .fil1 {fill:#33691E}
    .fil8 {fill:#368339}
    .fil3 {fill:#388E3C}
    .fil5 {fill:#3F3F3F}
    .fil2 {fill:#BDBDBD}
    .fil7 {fill:#C9D9B7}
    .fil0 {fill:#DCEDC8}
   ]]>
  </style>
 </defs>
 <g id="Layer_x0020_1">
  <metadata id="CorelCorpID_0Corel-Layer"/>
  <g id="_411346144">
   <path id="_357885024" class="fil0" d="M1216.58 486.819l-77.4662 234.104 7.77284 6.99331c3.11339,2.80158 5.96693,5.87953 8.5819,9.14883l183.735 241.143 1.95827 3.04725c2.8311,4.4067 4.94174,9.19016 6.90001,14.0315l4.00394 9.89883 242.655 2.28189 3.68268 -11.0469c0.770079,-2.30906 1.64055,-4.58386 2.60079,-6.82087l127.747 -271.291c-47.6174,-109.628 -120.065,-205.975 -210.245,-281.942l-261.171 45.6863 -0.124016 -0.787796 -16.6323 3.71457c-3.3626,0.750001 -6.77245,1.22717 -10.2118,1.42441 -0.853938,0.0496063 -1.70669,0.0850394 -2.56181,0.108662l-11.2252 0.305906z"/>
   <path id="_357884640" class="fil1" d="M1483.24 408.383c12.0177,8.98111 23.7343,18.3425 35.1945,27.9969l-261.102 45.6733 -0.124016 -0.787796 -16.6323 3.71457c-3.3626,0.750001 -6.77245,1.22717 -10.2118,1.42441 -0.853938,0.0496063 -1.70669,0.0850394 -2.56181,0.108662l-11.2252 0.305906 -77.4662 234.104 7.77284 6.99331c3.11339,2.80158 5.96693,5.87953 8.5819,9.14883l183.735 241.143 1.95827 3.04725c2.8311,4.4067 4.94174,9.19016 6.90001,14.0315l4.00394 9.89883 242.655 2.28189 3.68268 -11.0469c0.770079,-2.30906 1.64055,-4.58386 2.60079,-6.82087l127.716 -271.225c6.04371,13.9169 11.7248,28.0264 16.9559,42.3567l-114.46 243.154 0 0.372048c-1.57914,3.9437 -2.7189,8.05867 -3.21024,12.2906 -0.6,5.17323 -0.314173,10.3843 0.904725,15.4488 0.5563,2.30788 1.27677,4.57087 2.14843,6.77953 1.48465,3.763 0.878741,2.12953 2.10473,4.33229l1.19173 2.14134 117.717 223.753c-4.73741,14.0764 -9.89646,27.9603 -15.4134,41.6599l-130.759 -247.973c-1.9063,-3.61536 -4.4941,-7.62875 -5.87953,-11.4366 -0.0354331,-0.0968505 -0.0708662,-0.193701 -0.108662,-0.290551l-3.8126 -10.1658 -245.192 -2.30669 -4.19764 9.79843c-1.5626,3.64961 -3.19134,7.56615 -5.39882,10.8768l-1.83543 2.75197 -183.725 248.671c-3.35906,4.30985 -7.14686,8.26654 -11.4024,11.7095l-8.30434 6.72166 69.3249 234.794 11.3528 0.549213c2.41418,0.116929 4.82244,0.340158 7.21772,0.659056l293.535 47.413c-11.811,9.91536 -23.9091,19.4965 -36.3107,28.6984l-261.643 -42.9107 -1.36772 0c-5.02441,0 -9.10158,-0.79252 -14.2913,0.144095 -5.12126,0.923623 -9.97324,2.78977 -14.4555,5.42126 -1.95473,1.14803 -3.8752,2.38583 -5.66103,3.78307l-12.6898 9.91891 1.21417 1.53071 -170.772 172.628c-15.0886,-0.451181 -30.0697,-1.33347 -44.9315,-2.62795l197.456 -199.027c2.23347,-2.25 4.50945,-4.67244 6.91772,-6.81733l2.03977 -1.61339c0.522048,-0.412205 1.04764,-0.819686 1.58032,-1.2189l8.89253 -6.66969 -69.952 -236.916 -9.81261 -1.6878c-0.179528,-0.0307087 -0.359055,-0.0614174 -0.538583,-0.0921261 -4.44567,-0.770079 -9.38859,-2.75906 -13.7185,-4.14095l-278.811 -89.0103c-4.68307,-1.49528 -10.1717,-2.85236 -14.5465,-5.04922l-8.87953 -4.45866 -197.589 148.98 3.53622 10.8555c0.988583,3.03662 1.80827,6.12638 2.47087,9.24922l3.3378 15.7288 0.174803 -0.0377953 61.7977 278.299c-13.2449,-7.37599 -26.2654,-15.1063 -39.0142,-23.2288l-58.65 -262.281 0 -0.0330709 -0.344882 -1.63465c-1.13976,-5.39646 -2.99764,-10.637 -5.82638,-15.3862 -2.68229,-4.50473 -6.14764,-8.4378 -10.2189,-11.739 -1.79764,-1.45748 -3.70866,-2.76969 -5.69056,-3.96378 -3.74764,-2.25591 -2.02441,-1.27205 -4.55552,-2.33622l-2.26063 -0.950788 -227.505 -102.086c-4.80473,-14.1095 -9.18308,-28.4138 -13.1776,-42.8788l253.452 114.152c3.72756,1.67835 7.84843,3.31299 11.3433,5.42008 0.340158,0.204331 0.677953,0.412205 1.01339,0.625985l9.36261 5.96221 198.122 -149.381 -2.54055 -10.2591c-1.3878,-5.60315 -2.1248,-11.3705 -2.19449,-17.1437l-3.64252 -302.597c-0.0531496,-4.40433 0.183071,-8.81694 0.791339,-13.1799l1.34646 -9.67914 -205.909 -144.669 -9.1004 6.02835c-0.887009,0.587008 -1.78465,1.15866 -2.69055,1.71378l-260.227 147.826c3.19488,-15.026 6.81969,-29.8937 10.8768,-44.5819l231.952 -131.751 0.216142 -0.21378c4.08189,-2.49567 7.88623,-5.46615 11.0776,-9.04135 3.45236,-3.86693 6.04489,-8.38111 7.94528,-13.1894 0.846851,-2.14016 1.71024,-4.39489 2.24882,-6.63308 0.869292,-3.60945 0.675591,-2.01024 0.850394,-5.65512l0.0992127 -2.07874 30.5918 -245.019c12.0803,-8.90788 24.4299,-17.4709 37.037,-25.6736l-32.4532 259.674 -0.779528 -0.0838583 -1.27795 16.4221c-0.270473,3.46772 -0.839764,6.90001 -1.65591,10.2815 -0.354331,1.46575 -0.742914,2.92205 -1.16693,4.3689l-3.2315 11.0043 202.991 142.618 9.00946 -5.67048c5.32559,-3.35197 11.1189,-5.9126 17.0929,-7.87087l287.029 -94.0938c3.85748,-1.26496 7.91103,-2.67874 11.9079,-3.40748 1.24134,-0.226772 2.48977,-0.415748 3.74292,-0.568111l10.0736 -1.22244 77.8465 -235.256 -8.71418 -6.95079c-2.13307,-1.70079 -4.18583,-3.50315 -6.15709,-5.38819l-214.135 -204.67c15.1642,-1.33347 30.4453,-2.26063 45.8504,-2.7l191.242 183.109c4.02756,3.8563 8.5689,7.16339 13.6394,9.51497 4.73741,2.19803 9.80552,3.45827 15.0036,3.88937 2.32677,0.19252 4.71142,0.314173 7.04292,0.18189 4.16929,-0.236221 2.5441,0.00472441 5.77559,-0.80315l2.00906 -0.50315 246.858 -43.3512zm-392.253 340.131l2.28307 -0.935434c3.26103,-1.33583 1.86024,-0.982678 5.69764,-1.67599 2.22992,-0.402756 4.49764,-0.56693 6.763,-0.564567l15.9851 0.0141732 0 5.21811c2.62795,2.02441 4.52599,4.35 7.063,6.88819l0.889371 0.88819 182.245 239.185c3.12874,4.1067 4.41851,7.92048 6.02363,12.6638 1.00158,2.95748 1.68662,6.00945 1.68662,9.14528 0,3.6 -0.669686,7.16812 -1.73977,10.5969 -1.55551,4.98898 -3.09803,9.25394 -6.26457,13.5402l-182.103 246.469 -0.941339 0.950788c-3.31181,3.34134 -5.33032,6.19134 -9.75119,8.55591 -4.05,2.16614 -8.54764,3.01418 -13.1079,3.01418 -5.04804,0 -2.18032,0.297638 -6.78426,-0.506693 -3.80433,-0.66378 -2.52284,-0.427559 -4.89449,-1.2815l-2.92441 -1.05473 -282.895 -90.3154 -2.84173 -0.864568c-5.28307,-1.60748 -9.85985,-4.80118 -13.1173,-9.28111 -4.4752,-6.15237 -6.62126,-13.7339 -6.71221,-21.2941l-3.64134 -302.596c-0.0885827,-7.38308 1.00866,-15.0969 5.30197,-21.3024 4.11142,-5.94213 10.5827,-9.34253 17.2854,-11.5394l286.494 -93.9178z"/>
   <line id="_357884616" class="fil2" x1="1222.88" y1="436.914" x2="1222.88" y2= "436.914" />
   <path id="_357884736" class="fil0" d="M777.195 1232.32l-197.589 148.98 3.53622 10.8555c0.988583,3.03662 1.80827,6.12638 2.47087,9.24922l3.3378 15.7288 0.174803 -0.0377953 61.8142 278.371c91.904,51.1701 195.408,84.0201 305.573,93.6107l197.511 -199.082c2.23347,-2.25 4.50945,-4.67244 6.91772,-6.81733l2.03977 -1.61339 1.58032 -1.2189 8.89253 -6.66969 -69.952 -236.916 -9.81261 -1.6878 -0.538583 -0.0921261c-4.44567,-0.770079 -9.38859,-2.75906 -13.7185,-4.14095l-278.811 -89.0103c-4.68307,-1.49528 -10.1717,-2.85236 -14.5465,-5.04922l-8.87953 -4.45866z"/>
   <path id="_357884544" class="fil0" d="M605.709 379.799l-32.4603 259.733 -0.779528 -0.0838583 -1.27795 16.4221c-0.270473,3.46772 -0.839764,6.90001 -1.65591,10.2815 -0.354331,1.46575 -0.742914,2.92205 -1.16693,4.3689l-3.2315 11.0043 202.991 142.618 9.00946 -5.67048c5.32559,-3.35197 11.1189,-5.9126 17.0929,-7.87087l287.029 -94.0938c3.85748,-1.26496 7.91103,-2.67874 11.9079,-3.40748 1.24134,-0.226772 2.48977,-0.415748 3.74292,-0.568111l10.0736 -1.22244 77.8465 -235.256 -8.71418 -6.95079c-2.13307,-1.70079 -4.18583,-3.50315 -6.15709,-5.38819l-214.194 -204.727c-128.354,11.3008 -247.644,54.176 -350.057,120.81z"/>
   <path id="_357885120" class="fil0" d="M1155.75 1310.59c-3.35906,4.30985 -7.14686,8.26654 -11.4024,11.7095l-8.30434 6.72166 69.3249 234.794 11.3528 0.549213c2.41418,0.116929 4.82244,0.340158 7.21772,0.659056l293.6 47.4237c95.8028,-80.4367 171.678,-183.838 219.15,-301.727l-130.788 -248.028c-1.9063,-3.61536 -4.4941,-7.62875 -5.87953,-11.4366l-0.108662 -0.290551 -3.8126 -10.1658 -245.192 -2.30669 -4.19764 9.79843c-1.5626,3.64961 -3.19134,7.56615 -5.39882,10.8768l-1.83543 2.75197 -183.725 248.671z"/>
   <path id="_357883728" class="fil3" d="M781.91 875.273l3.64134 302.596c0.090945,7.56024 2.23701,15.1417 6.71221,21.2941 3.25748,4.47992 7.83426,7.67363 13.1173,9.28111l2.84173 0.864568 282.895 90.3154 2.92441 1.05473c2.37166,0.853938 1.09016,0.617717 4.89449,1.2815 4.60394,0.804331 1.73622,0.506693 6.78426,0.506693 4.56024,0 9.05788,-0.848032 13.1079,-3.01418 4.42087,-2.36457 6.43938,-5.21457 9.75119,-8.55591l0.941339 -0.950788 182.103 -246.469c3.16654,-4.28622 4.70906,-8.55119 6.26457,-13.5402 1.07008,-3.42874 1.73977,-6.99686 1.73977,-10.5969 0,-3.13583 -0.68504,-6.1878 -1.68662,-9.14528 -1.60512,-4.74331 -2.89488,-8.55709 -6.02363,-12.6638l-182.245 -239.185 -0.889371 -0.88819c-2.53701,-2.53819 -4.43504,-4.86378 -7.063,-6.88819l0 -5.21811 -15.9851 -0.0141732c-2.26536,-0.00236221 -4.53307,0.161811 -6.763,0.564567 -3.8374,0.693308 -2.43662,0.340158 -5.69764,1.67599l-2.28307 0.935434 -286.494 93.9178c-6.70276,2.19685 -13.174,5.59725 -17.2854,11.5394 -4.29331,6.20552 -5.39056,13.9193 -5.30197,21.3024z"/>
   <path id="_357884448" class="fil4" d="M1001.67 256.345l191.242 183.109c4.02756,3.8563 8.5689,7.16339 13.6394,9.51497 4.73741,2.19803 9.80552,3.45827 15.0036,3.88937 2.32677,0.19252 4.71142,0.314173 7.04292,0.18189 4.16929,-0.236221 2.5441,0.00472441 5.77559,-0.80315l2.00906 -0.50315 246.858 -43.3512c-128.088,-95.7119 -287.048,-152.384 -459.245,-152.384 -22.9949,0 -45.7536,1.01102 -68.2347,2.98937l0.0590552 0.056693c15.1642,-1.33347 30.4453,-2.26063 45.8504,-2.7z"/>
   <path id="_357883968" class="fil4" d="M1745.68 760.732l-114.46 243.154 0 0.372048c-1.57914,3.9437 -2.7189,8.05867 -3.21024,12.2906 -0.6,5.17323 -0.314173,10.3843 0.904725,15.4488 0.5563,2.30788 1.27677,4.57087 2.14843,6.77953 1.48465,3.763 0.878741,2.12953 2.10473,4.33229l1.19173 2.14134 117.717 223.753c-4.73741,14.0764 -9.89646,27.9603 -15.4134,41.6599l0.0295276 0.0555119c35.674,-88.5898 55.3087,-185.361 55.3087,-286.719 0,-92.4863 -16.3477,-181.154 -46.3217,-263.268z"/>
   <path id="_357884112" class="fil4" d="M1172.27 1619.02l-170.772 172.628c-15.0886,-0.451181 -30.0697,-1.33347 -44.9315,-2.62795l-0.0555119 0.0555119c22.2378,1.93583 44.7473,2.92441 67.4871,2.92441 187.916,0 360.069,-67.4906 493.542,-179.555l-0.0649607 -0.0106299c-11.811,9.91536 -23.9091,19.4965 -36.3107,28.6984l-261.643 -42.9107 -1.36772 0c-5.02441,0 -9.10158,-0.79252 -14.2913,0.144095 -5.12126,0.923623 -9.97324,2.78977 -14.4555,5.42126 -1.95473,1.14803 -3.8752,2.38583 -5.66103,3.78307l-12.6898 9.91891 1.21417 1.53071z"/>
   <g>
    <path id="_357884232" class="fil0" d="M272.747 863.728c-10.9736,51.6933 -16.748,105.308 -16.748,160.272 0,70.9406 9.61891,139.635 27.6225,204.849l253.51 114.178c3.72756,1.67835 7.84843,3.31299 11.3433,5.42008l1.01339 0.625985 9.36261 5.96221 198.122 -149.381 -2.54055 -10.2591c-1.3878,-5.60315 -2.1248,-11.3705 -2.19449,-17.1437l-3.64252 -302.597c-0.0531496,-4.40433 0.183071,-8.81694 0.791339,-13.1799l1.34646 -9.67914 -205.909 -144.669 -9.1004 6.02835c-0.887009,0.587008 -1.78465,1.15866 -2.69055,1.71378l-260.286 147.859z"/>
    <path id="_357883896" class="fil4" d="M283.622 1228.85c55.2804,200.24 189.618,367.675 367.318,466.616l-0.0165354 -0.0720473c-13.2449,-7.37599 -26.2654,-15.1063 -39.0142,-23.2288l-58.65 -262.281 0 -0.0330709 -0.344882 -1.63465c-1.13976,-5.39646 -2.99764,-10.637 -5.82638,-15.3862 -2.68229,-4.50473 -6.14764,-8.4378 -10.2189,-11.739 -1.79764,-1.45748 -3.70866,-2.76969 -5.69056,-3.96378 -3.74764,-2.25591 -2.02441,-1.27205 -4.55552,-2.33622l-2.26063 -0.950788 -227.505 -102.086c-4.80473,-14.1095 -9.18308,-28.4138 -13.1776,-42.8788l-0.0578741 -0.0259843z"/>
    <path id="_357884136" class="fil4" d="M605.709 379.799c-167.639,109.074 -290.052,281.81 -332.961,483.929l0.0590552 -0.0330709c3.19488,-15.026 6.81969,-29.8937 10.8768,-44.5819l231.952 -131.751 0.216142 -0.21378c4.08189,-2.49567 7.88623,-5.46615 11.0776,-9.04135 3.45236,-3.86693 6.04489,-8.38111 7.94528,-13.1894 0.846851,-2.14016 1.71024,-4.39489 2.24882,-6.63308 0.869292,-3.60945 0.675591,-2.01024 0.850394,-5.65512l0.0992127 -2.07874 30.5918 -245.019c12.0803,-8.90788 24.4299,-17.4709 37.037,-25.6736l0.00708662 -0.0590552z"/>
    <path id="_357883080" class="fil5" d="M1024 255.999l0.00236221 0 0 1536 -0.00236221 0c-424.154,0 -768.001,-343.846 -768.001,-768.001 0,-424.154 343.846,-768.001 768.001,-768.001z"/>
    <path id="_357883272" class="fil6" d="M1024 1768.9l-22.5024 22.7469c-15.0886,-0.451181 -30.0697,-1.33347 -44.9315,-2.62795l67.4339 -67.9701 0 47.8512zm0 -455.761l-223.381 -71.3138c-4.68307,-1.49528 -10.1717,-2.85236 -14.5465,-5.04922l-8.87953 -4.45866 -197.589 148.98 3.53622 10.8555c0.988583,3.03662 1.80827,6.12638 2.47087,9.24922l3.3378 15.7288 0.174803 -0.0377953 61.7977 278.299c-13.2449,-7.37599 -26.2654,-15.1063 -39.0142,-23.2288l-58.65 -262.281 0 -0.0330709 -0.344882 -1.63465c-1.13976,-5.39646 -2.99764,-10.637 -5.82638,-15.3862 -2.68229,-4.50473 -6.14764,-8.4378 -10.2189,-11.739 -1.79764,-1.45748 -3.70866,-2.76969 -5.69056,-3.96378 -3.74764,-2.25591 -2.02441,-1.27205 -4.55552,-2.33622l-2.26063 -0.950788 -227.505 -102.086c-4.80473,-14.1095 -9.18308,-28.4138 -13.1776,-42.8788l253.452 114.152c3.72756,1.67835 7.84843,3.31299 11.3433,5.42008 0.340158,0.204331 0.677953,0.412205 1.01339,0.625985l9.36261 5.96221 198.122 -149.381 -2.54055 -10.2591c-1.3878,-5.60315 -2.1248,-11.3705 -2.19449,-17.1437l-3.64252 -302.597c-0.0531496,-4.40433 0.183071,-8.81694 0.791339,-13.1799l1.34646 -9.67914 -205.909 -144.669 -9.1004 6.02835c-0.887009,0.587008 -1.78465,1.15866 -2.69055,1.71378l-260.227 147.826c3.19488,-15.026 6.81969,-29.8937 10.8768,-44.5819l231.952 -131.751 0.216142 -0.21378c4.08189,-2.49567 7.88623,-5.46615 11.0776,-9.04135 3.45236,-3.86693 6.04489,-8.38111 7.94528,-13.1894 0.846851,-2.14016 1.71024,-4.39489 2.24882,-6.63308 0.869292,-3.60945 0.675591,-2.01024 0.850394,-5.65512l0.0992127 -2.07874 30.5918 -245.019c12.0803,-8.90788 24.4299,-17.4709 37.037,-25.6736l-32.4532 259.674 -0.779528 -0.0838583 -1.27795 16.4221c-0.270473,3.46772 -0.839764,6.90001 -1.65591,10.2815 -0.354331,1.46575 -0.742914,2.92205 -1.16693,4.3689l-3.2315 11.0043 202.991 142.618 9.00946 -5.67048c5.32559,-3.35197 11.1189,-5.9126 17.0929,-7.87087l229.772 -75.3237 0 35.1957 -219.504 71.9575c-6.70276,2.19685 -13.174,5.59725 -17.2854,11.5394 -4.29331,6.20552 -5.39056,13.9193 -5.30197,21.3024l3.64134 302.596c0.090945,7.56024 2.23701,15.1417 6.71221,21.2941 3.25748,4.47992 7.83426,7.67363 13.1173,9.28111l2.84173 0.864568 215.779 68.8878 0 34.9441zm0 -988.932l-68.178 -65.1638c15.1642,-1.33347 30.4453,-2.26063 45.8504,-2.7l22.3276 21.378 0 46.4859z"/>
    <path id="_357882960" class="fil7" d="M777.195 1232.32l-197.589 148.98 3.53622 10.8555c0.988583,3.03662 1.80827,6.12638 2.47087,9.24922l3.3378 15.7288 0.174803 -0.0377953 61.8142 278.371c91.904,51.1701 195.408,84.0201 305.573,93.6107l67.4894 -68.0256 0 -407.909 -223.381 -71.3138c-4.68307,-1.49528 -10.1717,-2.85236 -14.5465,-5.04922l-8.87953 -4.45866z"/>
    <path id="_357883656" class="fil7" d="M272.747 863.728c-10.9736,51.6933 -16.748,105.308 -16.748,160.272 0,70.9406 9.61891,139.635 27.6225,204.849l253.51 114.178c3.72756,1.67835 7.84843,3.31299 11.3433,5.42008l1.01339 0.625985 9.36261 5.96221 198.122 -149.381 -2.54055 -10.2591c-1.3878,-5.60315 -2.1248,-11.3705 -2.19449,-17.1437l-3.64252 -302.597c-0.0531496,-4.40433 0.183071,-8.81694 0.791339,-13.1799l1.34646 -9.67914 -205.909 -144.669 -9.1004 6.02835c-0.887009,0.587008 -1.78465,1.15866 -2.69055,1.71378l-260.286 147.859z"/>
    <path id="_357883344" class="fil7" d="M605.709 379.799l-32.4603 259.733 -0.779528 -0.0838583 -1.27795 16.4221c-0.270473,3.46772 -0.839764,6.90001 -1.65591,10.2815 -0.354331,1.46575 -0.742914,2.92205 -1.16693,4.3689l-3.2315 11.0043 202.991 142.618 9.00946 -5.67048c5.32559,-3.35197 11.1189,-5.9126 17.0929,-7.87087l229.772 -75.3237 0 -411.069 -68.2371 -65.2205c-128.354,11.3008 -247.644,54.176 -350.057,120.81z"/>
    <path id="_411346696" class="fil8" d="M781.91 875.273l3.64134 302.596c0.090945,7.56024 2.23701,15.1417 6.71221,21.2941 3.25748,4.47992 7.83426,7.67363 13.1173,9.28111l2.84173 0.864568 215.779 68.8878 0 -507.723 -219.504 71.9575c-6.70276,2.19685 -13.174,5.59725 -17.2854,11.5394 -4.29331,6.20552 -5.39056,13.9193 -5.30197,21.3024z"/>
    <path id="_411346840" class="fil9" d="M283.622 1228.85c55.2804,200.24 189.618,367.675 367.318,466.616l-0.0165354 -0.0720473c-13.2449,-7.37599 -26.2654,-15.1063 -39.0142,-23.2288l-58.65 -262.281 0 -0.0330709 -0.344882 -1.63465c-1.13976,-5.39646 -2.99764,-10.637 -5.82638,-15.3862 -2.68229,-4.50473 -6.14764,-8.4378 -10.2189,-11.739 -1.79764,-1.45748 -3.70866,-2.76969 -5.69056,-3.96378 -3.74764,-2.25591 -2.02441,-1.27205 -4.55552,-2.33622l-2.26063 -0.950788 -227.505 -102.086c-4.80473,-14.1095 -9.18308,-28.4138 -13.1776,-42.8788l-0.0578741 -0.0259843z"/>
    <path id="_411347272" class="fil9" d="M605.709 379.799c-167.639,109.074 -290.052,281.81 -332.961,483.929l0.0590552 -0.0330709c3.19488,-15.026 6.81969,-29.8937 10.8768,-44.5819l231.952 -131.751 0.216142 -0.21378c4.08189,-2.49567 7.88623,-5.46615 11.0776,-9.04135 3.45236,-3.86693 6.04489,-8.38111 7.94528,-13.1894 0.846851,-2.14016 1.71024,-4.39489 2.24882,-6.63308 0.869292,-3.60945 0.675591,-2.01024 0.850394,-5.65512l0.0992127 -2.07874 30.5918 -245.019c12.0803,-8.90788 24.4299,-17.4709 37.037,-25.6736l0.00708662 -0.0590552z"/>
    <path id="_411347008" class="fil9" d="M1001.67 256.345l22.3276 21.378 0 -21.724 -0.00236221 0c-22.9949,0 -45.7536,1.01102 -68.2347,2.98937l0.0590552 0.056693c15.1642,-1.33347 30.4453,-2.26063 45.8504,-2.7z"/>
    <path id="_411346720" class="fil9" d="M1024 1768.9l-22.5024 22.7469c-15.0886,-0.451181 -30.0697,-1.33347 -44.9315,-2.62795l-0.0555119 0.0555119c22.2378,1.93583 44.7473,2.92441 67.4871,2.92441l0.00236221 0 0 -23.0988z"/>
   </g>
  </g>
  <rect class="fil10" width="2048" height="2048"/>
 </g>
</svg>
