<?xml version="1.0" encoding="UTF-8"?>
<!DOCTYPE svg PUBLIC "-//W3C//DTD SVG 1.1//EN" "http://www.w3.org/Graphics/SVG/1.1/DTD/svg11.dtd">
<!-- Creator: CorelDRAW -->
<svg xmlns="http://www.w3.org/2000/svg" xml:space="preserve" width="2048px" height="2048px" style="shape-rendering:geometricPrecision; text-rendering:geometricPrecision; image-rendering:optimizeQuality; fill-rule:evenodd; clip-rule:evenodd"
viewBox="0 0 2048 2048"
 xmlns:xlink="http://www.w3.org/1999/xlink">
 <defs>
  <style type="text/css">
   <![CDATA[
    .fil4 {fill:none}
    .fil3 {fill:#DB420E}
    .fil1 {fill:#E65100}
    .fil2 {fill:#ED6B03}
    .fil0 {fill:#F57C00}
   ]]>
  </style>
 </defs>
 <g id="Layer_x0020_1">
  <metadata id="CorelCorpID_0Corel-Layer"/>
  <g id="_357812856">
   <g>
    <circle id="_357812712" class="fil0" cx="1039.26" cy="989.501" r="650.001"/>
    <path id="_357812736" class="fil1" d="M1449.67 485.469c27.3969,22.3382 52.9335,46.8674 76.3548,73.317 -90.8953,-49.1327 -187.82,-86.6469 -291.096,-102.9 -125.072,-19.6854 -247.278,-6.03662 -368.803,32.1284l-9.34607 2.93622 -0.88819 9.71339c-4.12559,45.0697 -1.3748,89.9351 7.73741,134.025 3.67796,17.7992 8.3504,35.3693 13.891,52.6441l3.72874 11.6291 12.1441 -2.09528c162.584,-28.0252 338.556,-39.3048 499.427,-2.25 101.551,23.3906 194.981,65.9552 274.638,132.52 4.19646,17.5795 7.65591,35.3433 10.3665,53.2347 -81.3131,-78.5918 -180.32,-128.215 -293.054,-154.181 -152.368,-35.0953 -319.167,-25.0925 -473.346,0.478347l-18.6874 3.1004 7.64174 17.1165c34.6181,77.5619 84.9296,148.702 139.921,212.858l5.28307 6.163 8.08347 -1.50945c127.287,-23.7532 262.925,-28.9725 386.04,12.3567 90.5835,30.4075 165.79,83.1993 226.597,155.83 -3.19488,13.0559 -6.78898,26.0173 -10.7717,38.8654 -16.7622,-21.7642 -35.0918,-42.2859 -55.0831,-61.1658l-17.1803 -16.2248 -6.59764 23.0386c-34.5248,120.562 -89.7957,230.486 -170.587,327.264 -52.8166,63.2646 -114.178,118.086 -181.454,165.495 -28.989,9.52324 -58.5662,17.0256 -88.4871,22.4528 -2.4,0.359055 -4.813,0.677953 -7.22127,1.00984 94.767,-55.8024 181.33,-124.11 252.449,-209.301 83.7544,-100.324 138.964,-216.362 171.341,-342.039l2.46496 -9.55985 -7.9878 -5.5878c-36.2906,-25.3807 -76.2308,-45.2977 -118.345,-59.4367 -16.4599,-5.5252 -33.2197,-10.1858 -50.1792,-14.0315l-12.0378 -2.72835 -4.68898 11.5524c-62.9705,155.172 -146.777,315.849 -262.791,439.029 -69.9957,74.3209 -151.206,134.193 -245.881,171.234 -16.6488,-4.96654 -33.0272,-10.5614 -49.0878,-16.7965 104.744,-32.7343 194.315,-94.532 271.46,-176.446 110.451,-117.275 190.771,-269.466 251.553,-416.924l7.17166 -17.4024 -18.5445 -2.11536c-83.7957,-9.5752 -170.149,-2.48977 -253.303,12.789l-8.12245 1.49173 -2.9504 7.73268c-48.0532,125.902 -117.984,249.634 -222.946,337.497 -70.9595,59.3965 -151.478,97.1705 -240.787,114.722 -9.35552,-9.03898 -18.4429,-18.3508 -27.2445,-27.9331 28.252,-4.42914 56.1733,-11.0067 83.4851,-19.9866l22.7197 -7.46812 -16.8142 -16.5c-86.0835,-84.4737 -152.275,-181.491 -194.921,-294.741 -28.1516,-74.7638 -44.6528,-152.886 -52.3217,-232.524 6.72166,-32.6386 15.8977,-64.3819 27.3083,-95.0363 1.68425,107.832 17.3386,214.715 55.3855,315.759 44.3303,117.734 115.239,216.769 207.091,301.925l7.15276 6.63189 8.89489 -4.39489c35.6351,-17.6067 68.8784,-39.4961 99.4028,-65.0481 18.0744,-15.1264 35.126,-31.4516 51.1571,-48.7276l8.64095 -9.31064 -7.94056 -9.61064c-103.247,-124.988 -200.165,-270.246 -247.977,-427.133 -30.1252,-98.8501 -39.8646,-200.085 -22.0843,-302.783 12.9579,-12.4158 26.4449,-24.2823 40.3949,-35.5985 -27.0284,109.8 -20.5417,219.247 12.7146,328.37 45.4914,149.281 137.316,287.903 234.949,407.38l11.4697 14.0339 11.1295 -14.7236c50.7638,-67.1634 89.3351,-143.767 119.454,-221.89l3.08859 -8.01497 -5.51575 -6.40749c-84.0509,-97.6548 -158.849,-212.864 -185.405,-341.367 -19.3677,-93.7182 -11.3681,-185.062 21.6461,-275.436 12.7323,-3.79016 25.611,-7.24253 38.6575,-10.2602 -10.076,24.5752 -18.4595,49.8154 -24.7536,75.5634l-5.77087 23.6055 23.4036 -6.63898c117.722,-33.3945 235.5,-43.6878 355.544,-24.7937 72.3898,11.3953 142.082,32.8299 209.02,61.5296z"/>
   </g>
   <g>
    <path id="_357812640" class="fil2" d="M1039.26 339.5l0.00236221 0 0 1300 -0.00236221 0c-358.986,0 -650.001,-291.016 -650.001,-650.001 0,-358.986 291.016,-650.001 650.001,-650.001z"/>
    <path id="_357812808" class="fil3" d="M1039.26 451.249c-58.0205,6.14882 -115.656,18.7122 -173.14,36.7654l-9.34607 2.93622 -0.88819 9.71339c-4.12559,45.0697 -1.3748,89.9351 7.73741,134.025 3.67796,17.7992 8.3504,35.3693 13.891,52.6441l3.72874 11.6291 12.1441 -2.09528c47.7118,-8.22402 96.5753,-15.0024 145.873,-19.5449l0 32.5559c-43.1823,4.05709 -85.9784,9.84686 -127.841,16.7906l-18.6874 3.1004 7.64174 17.1165c34.4008,77.0753 84.3001,147.808 138.887,211.649l0 76.9194c-47.4933,115.127 -114.35,226.11 -210.77,306.822 -70.9595,59.3965 -151.478,97.1705 -240.787,114.722 -9.35552,-9.03898 -18.4429,-18.3508 -27.2445,-27.9331 28.252,-4.42914 56.1733,-11.0067 83.4851,-19.9866l22.7197 -7.46812 -16.8142 -16.5c-86.0835,-84.4737 -152.275,-181.491 -194.921,-294.741 -28.1516,-74.7638 -44.6528,-152.886 -52.3217,-232.524 6.72166,-32.6386 15.8977,-64.3819 27.3083,-95.0363 1.68425,107.832 17.3386,214.715 55.3855,315.759 44.3303,117.734 115.239,216.769 207.091,301.925l7.15276 6.63189 8.89489 -4.39489c35.6351,-17.6067 68.8784,-39.4961 99.4028,-65.0481 18.0744,-15.1264 35.126,-31.4516 51.1571,-48.7276l8.64095 -9.31064 -7.94056 -9.61064c-103.247,-124.988 -200.165,-270.246 -247.977,-427.133 -30.1252,-98.8501 -39.8646,-200.085 -22.0843,-302.783 12.9579,-12.4158 26.4449,-24.2823 40.3949,-35.5985 -27.0284,109.8 -20.5417,219.247 12.7146,328.37 45.4914,149.281 137.316,287.903 234.949,407.38l11.4697 14.0339 11.1295 -14.7236c50.7638,-67.1634 89.3351,-143.767 119.454,-221.89l3.08859 -8.01497 -5.51575 -6.40749c-84.0509,-97.6548 -158.849,-212.864 -185.405,-341.367 -19.3677,-93.7182 -11.3681,-185.062 21.6461,-275.436 12.7323,-3.79016 25.611,-7.24253 38.6575,-10.2602 -10.076,24.5752 -18.4595,49.8154 -24.7536,75.5634l-5.77087 23.6055 23.4036 -6.63898c51.3154,-14.5571 102.64,-24.7229 154.16,-29.9965l0 32.5122zm0 1047.43c-55.4611,47.843 -117.171,86.8418 -186,113.771 -16.6488,-4.96654 -33.0272,-10.5614 -49.0878,-16.7965 88.6843,-27.7158 166.491,-76.2686 235.088,-140.222l0 43.2473z"/>
   </g>
  </g>
  <rect class="fil4" width="2048" height="2048"/>
 </g>
</svg>
