<?xml version="1.0" encoding="UTF-8"?>
<!DOCTYPE svg PUBLIC "-//W3C//DTD SVG 1.1//EN" "http://www.w3.org/Graphics/SVG/1.1/DTD/svg11.dtd">
<!-- Creator: CorelDRAW -->
<svg xmlns="http://www.w3.org/2000/svg" xml:space="preserve" width="2048px" height="2048px" style="shape-rendering:geometricPrecision; text-rendering:geometricPrecision; image-rendering:optimizeQuality; fill-rule:evenodd; clip-rule:evenodd"
viewBox="0 0 2048 2048"
 xmlns:xlink="http://www.w3.org/1999/xlink">
 <defs>
  <style type="text/css">
   <![CDATA[
    .fil6 {fill:none}
    .fil3 {fill:none;fill-rule:nonzero}
    .fil4 {fill:#327035}
    .fil2 {fill:#388E3C;fill-rule:nonzero}
    .fil0 {fill:#4FC3F7;fill-rule:nonzero}
    .fil5 {fill:#B0BEC5;fill-rule:nonzero}
    .fil1 {fill:#E1F5FE;fill-rule:nonzero}
   ]]>
  </style>
 </defs>
 <g id="Layer_x0020_1">
  <metadata id="CorelCorpID_0Corel-Layer"/>
  <g id="_35082400">
   <path id="_35083120" class="fil0" d="M1382.22 863.825l213.281 288.112c-383.755,2.68701 -759.239,2.68701 -1142.99,0l213.281 -288.112c238.909,-0.335433 477.519,-0.409843 716.431,0z"/>
   <g>
    <path id="_35082760" class="fil1" d="M1150.54 932.049l-0.090945 -0.211417 -0.153543 -0.333071c-0.307087,-0.667323 -0.745276,-1.30984 -1.18701,-1.89803l-0.154725 -0.196063 -0.119291 -0.141732 -0.126378 -0.146457 -0.18189 -0.20315c-1.20945,-1.31575 -2.71063,-2.2878 -4.39843,-2.87008l-0.147638 -0.0531496 -0.272835 -0.0838583 -0.283465 -0.0826772 -0.263386 -0.068504 -0.307087 -0.0720473 -0.250394 -0.0496063 -0.255118 -0.046063 -0.287008 -0.0448819 -0.237402 -0.0295276 -0.287008 -0.0295276 -0.295276 -0.0212599 -0.250394 -0.0129921 -0.255118 -0.00590552 -0.275197 0 -0.261024 0.00590552 -0.328347 0.0177165 -0.261024 0.0200788 -0.287008 0.0318898 -0.21378 0.0271654 -0.275197 0.0437008 -0.26811 0.0472441 -0.261024 0.0543308c-0.0862205,0.0200788 -0.170079,0.0389764 -0.257481,0.0590552 -0.0625985,0.0177165 -0.121654,0.0318898 -0.183071,0.0472441 -0.0992127,0.0283465 -0.199606,0.0555119 -0.298819,0.0838583l-0.356693 0.112205 -0.259843 0.0885827 -0.166536 0.0614174c-1.42205,0.530315 -2.69055,1.35827 -3.77362,2.41654l-0.232677 0.238583 -0.0543308 0.0578741 -0.170079 0.184252 -0.161811 0.185433 -0.253937 0.303544c-0.445276,0.532678 -0.819686,1.12205 -1.12559,1.74567l-0.173622 0.35315c-0.225591,0.477166 -0.408662,0.979135 -0.572835,1.47874 -3.01536,9.19607 -9.163,16.937 -17.0929,22.4091 -8.48032,5.85355 -18.6354,8.80276 -28.9134,8.80276 -10.2685,0 -20.4154,-2.94213 -28.891,-8.78505 -7.96418,-5.49213 -14.1225,-13.2709 -17.1543,-22.4941 -0.0992127,-0.3 -0.204331,-0.602363 -0.327166,-0.892914 -0.0708662,-0.17126 -0.15,-0.34252 -0.227953,-0.510237l-0.103937 -0.212599 -0.167717 -0.320079c-0.186614,-0.357874 -0.434646,-0.721654 -0.664961,-1.06417l-0.112205 -0.157087 -0.165354 -0.218504 -0.106299 -0.134646 -0.13937 -0.170079 -0.175984 -0.205512c-1.23662,-1.40906 -2.79567,-2.45433 -4.56615,-3.06496l-0.164173 -0.0555119 -0.263386 -0.0826772 -0.271654 -0.0791339 -0.287008 -0.0744095 -0.292914 -0.0673229 -0.255118 -0.0519685 -0.250394 -0.0448819 -0.301181 -0.046063 -0.249213 -0.0330709 -0.250394 -0.0248032 -0.288189 -0.0212599 -0.269292 -0.0129921 -0.258662 -0.00826772 -0.275197 0 -0.259843 0.00826772 -0.271654 0.0129921 -0.0732284 0.00472441 -0.263386 0.022441 -0.26811 0.0283465 -0.214961 0.0283465 -0.275197 0.0413386 -0.283465 0.0519685 -0.229134 0.0472441 -0.264567 0.0614174 -0.302362 0.0779528c-0.068504,0.0200788 -0.135827,0.0377953 -0.201969,0.0578741l-0.33189 0.105118 -0.314173 0.108662c-1.52953,0.570473 -2.92087,1.44449 -4.05591,2.62205l-0.238583 0.253937 -0.174803 0.197244 -0.0814961 0.0956694 -0.151181 0.183071c-0.184252,0.226772 -0.368504,0.462992 -0.529134,0.708662l-0.0389764 0.0602363c-0.0885827,0.135827 -0.179528,0.272835 -0.262205,0.412205l-0.0354331 0.056693 -0.133465 0.227953 -0.12874 0.238583 -0.159449 0.303544c-0.272835,0.526772 -0.480709,1.12323 -0.664961,1.68425 -3.00355,9.17363 -9.16654,16.8803 -17.0788,22.337 -8.47442,5.84528 -18.6225,8.79449 -28.891,8.79449 -10.2815,0 -20.4414,-2.9504 -28.9276,-8.80394 -6.67914,-4.6063 -12.0815,-10.8614 -15.4595,-18.248l-0.744095 -1.62638 -0.179528 -1.77874c-0.421654,-4.16575 -3.76654,-6.54449 -7.49292,-7.81064l-0.12874 -0.0448819c-2.23583,-0.673229 -4.57441,-0.753544 -6.80788,-0.0177165 -3.28819,1.08189 -5.81103,3.63662 -6.88938,6.91418 -3.48189,10.5791 -8.19686,16.4244 -17.1638,22.6134 -8.41654,5.80985 -18.7134,8.80276 -28.9134,8.80276 -10.1976,0 -20.4721,-2.98347 -28.8898,-8.78623 -8.863,-6.10867 -13.6843,-11.7945 -17.0917,-22.3051 -1.09252,-3.36969 -3.58583,-6.0756 -6.98386,-7.19528 -2.22402,-0.732284 -4.55433,-0.681497 -6.77953,0.011811l-0.100394 0.0330709c-3.74292,1.26024 -7.13032,3.6437 -7.55434,7.83071l-0.180709 1.78701 -0.748819 1.63228c-3.38504,7.37127 -8.79331,13.6099 -15.4618,18.2067 -8.47678,5.84292 -18.6225,8.78505 -28.8898,8.78505 -4.65,0 -9.32127,-0.544489 -13.8083,-1.77638 -4.41142,-1.21063 -8.64095,-3.04252 -12.5634,-5.39292 -5.06811,-3.03425 -11.6953,-1.36063 -14.726,3.70512 -3.03425,5.07284 -1.35945,11.6988 3.70866,14.7331 5.60906,3.36024 11.6847,5.92205 17.9882,7.65355 6.30945,1.73268 12.8516,2.69173 19.4008,2.69173 14.6504,0 29.0386,-4.41378 41.1071,-12.7323 2.81103,-1.93937 5.48032,-4.08071 7.97717,-6.40985l7.49764 -6.99449 7.37953 7.12087c2.36457,2.28425 4.90394,4.41496 7.61221,6.28347 12.1311,8.36221 26.3823,12.7323 41.1071,12.7323 14.7272,0 28.9925,-4.37244 41.1213,-12.7429 2.70355,-1.86614 5.23819,-3.99567 7.59922,-6.27756l7.38071 -7.13032 7.50237 7.0004c2.49213,2.32677 5.15788,4.46811 7.96418,6.40394 12.0756,8.33032 26.4792,12.7465 41.139,12.7465 14.6469,0 29.0421,-4.41733 41.1036,-12.7394 2.76732,-1.90748 5.39882,-4.01457 7.86024,-6.30237l7.35709 -6.83741 7.35591 6.83623c2.46614,2.29252 5.1,4.39961 7.87205,6.31063 12.0685,8.31851 26.4579,12.7323 41.1083,12.7323 14.6563,0 29.0516,-4.4126 41.1213,-12.7429 2.77087,-1.91221 5.40355,-4.02284 7.86969,-6.31654l7.35827 -6.84449 7.36064 6.84449c2.46496,2.2937 5.10119,4.40433 7.87442,6.31772 12.0709,8.32678 26.465,12.7417 41.1225,12.7417 6.34725,0 12.6839,-0.865749 18.8162,-2.49213 6.12166,-1.62284 12.0106,-4.08071 17.498,-7.2378 5.12363,-2.94685 6.90355,-9.50198 3.95551,-14.6303 -2.94331,-5.12244 -9.50079,-6.89764 -14.6244,-3.95197 -3.84213,2.20866 -7.98662,3.86929 -12.2681,5.00433 -4.35827,1.1563 -8.87245,1.6937 -13.3772,1.6937 -10.2768,0 -20.4295,-2.94685 -28.911,-8.79922 -8.00079,-5.5193 -14.1354,-13.3583 -17.1898,-22.6134 -0.0956694,-0.290551 -0.211417,-0.578741 -0.323622,-0.863386z"/>
    <path id="_35082928" class="fil1" d="M1261.65 1018.99l-0.187795 -0.407481c-0.350788,-0.760631 -0.82441,-1.47874 -1.33347,-2.14252l-0.0212599 -0.0271654 -0.209055 -0.262205 -0.120473 -0.145276 -0.145276 -0.168898 -0.210236 -0.232677c-1.3937,-1.51654 -3.1252,-2.63858 -5.07048,-3.31063l-0.17126 -0.0590552 -0.314173 -0.0992127 -0.325985 -0.0933072 -0.304725 -0.0791339 -0.354331 -0.0814961 -0.288189 -0.0590552 -0.294095 -0.0531496 -0.33189 -0.0507874 -0.272835 -0.034252 -0.330709 -0.034252 -0.340158 -0.0259843 -0.287008 -0.0129921 -0.296457 -0.00826772 -0.316536 0 -0.301181 0.00826772 -0.311811 0.0153543 -0.0862205 0.00590552 -0.301181 0.0248032 -0.309449 0.0330709 -0.248032 0.0330709 -0.317717 0.0484252 -0.323622 0.0590552 -0.276378 0.056693 -0.324803 0.0767717 -0.315355 0.0814961c-0.0874016,0.0236221 -0.173622,0.0484252 -0.261024,0.0732284l-0.0165354 0.00590552c-0.142913,0.0437008 -0.284646,0.0897638 -0.426378,0.134646 -0.193701,0.0673229 0.0661418,-0.0212599 -0.219685,0.0779528l-0.200788 0.0744095c-1.58386,0.589371 -3.06142,1.47874 -4.25197,2.68583l-0.324803 0.329528 -0.230315 0.245669 -0.080315 0.0897638 -0.188977 0.214961 -0.165354 0.200788 -0.233858 0.294095c-0.39567,0.509056 -0.752363,1.04646 -1.05118,1.61693l-0.00708662 0.011811 -0.180709 0.348425 -0.13937 0.284646c-0.259843,0.546851 -0.47126,1.12441 -0.659056,1.69843 -3.47126,10.6028 -10.5638,19.5295 -19.7091,25.8414 -9.77717,6.74882 -21.4819,10.148 -33.3307,10.148 -11.8382,0 -23.5347,-3.39331 -33.3059,-10.1291 -9.1819,-6.33071 -16.278,-15.3 -19.7764,-25.9299 -0.183071,-0.5563 -0.401575,-1.10079 -0.646063,-1.63347l-0.114567 -0.233858 -0.193701 -0.369685c-0.068504,-0.131102 -0.146457,-0.262205 -0.222047,-0.390945l-0.177165 -0.285827 -0.148819 -0.231496 -0.201969 -0.294095 -0.157087 -0.219685 -0.162992 -0.214961 -0.146457 -0.186614 -0.184252 -0.22441c-1.4563,-1.75276 -3.35906,-3.02362 -5.51103,-3.75945l-0.112205 -0.0377953 -0.388583 -0.120473 -0.266929 -0.0755906 -0.292914 -0.0767717 -0.340158 -0.0779528 -0.292914 -0.0602363 -0.28937 -0.0507874 -0.347244 -0.0531496 -0.281103 -0.0366142 -0.301181 -0.0307087 -0.338977 -0.0248032 -0.296457 -0.0153543 -0.298819 -0.00708662 -0.317717 0 -0.298819 0.00708662 -0.312992 0.0153543 -0.0862205 0.00708662 -0.301181 0.0248032 -0.31063 0.0330709 -0.246851 0.0318898 -0.317717 0.0484252 -0.324803 0.0590552 -0.266929 0.0555119 -0.303544 0.0708662 -0.348425 0.0897638c-0.0791339,0.022441 -0.157087,0.0437008 -0.23504,0.0661418l-0.381496 0.120473 -0.362599 0.126378c-1.76221,0.657875 -3.36733,1.66536 -4.67481,3.02244l-0.275197 0.292914 -0.201969 0.226772 -0.0944883 0.112205 -0.173622 0.209055c-0.21378,0.263386 -0.425197,0.53504 -0.609449,0.818505l-0.0448819 0.068504c-0.101575,0.155906 -0.207874,0.314173 -0.303544,0.473622l-0.0389764 0.0673229 -0.153543 0.262205 -0.151181 0.275197 -0.18189 0.350788c-0.314173,0.604725 -0.555119,1.29095 -0.765355,1.93701 -3.46063,10.5791 -10.5709,19.4658 -19.6925,25.7587 -9.76891,6.73819 -21.4677,10.1398 -33.3048,10.1398 -11.8536,0 -23.5666,-3.40158 -33.3485,-10.1492 -9.20552,-6.35197 -16.2744,-15.365 -19.7823,-26.0197 -0.0519685,-0.153543 -0.100394,-0.312992 -0.155906,-0.466536 -0.0649607,-0.159449 -0.127559,-0.318898 -0.190158,-0.478347l-0.196063 -0.454725c-0.496063,-1.14803 -1.22126,-2.19095 -2.05158,-3.12402l-0.00826772 -0.00944883 -0.220866 -0.236221 -0.109843 -0.115748 -0.158268 -0.158268 -0.348425 -0.337796c-1.1374,-1.09961 -2.53465,-1.90984 -4.01221,-2.46024l-0.19252 -0.0720473 -0.294095 -0.100394 -0.419292 -0.132284c-0.0767717,-0.0212599 -0.153543,-0.0425197 -0.229134,-0.0637796l-0.375591 -0.0980316c-0.080315,-0.0177165 -0.162992,-0.0366142 -0.243307,-0.0555119l-0.298819 -0.0614174 -0.334252 -0.0590552 -0.296457 -0.046063 -0.314173 -0.0413386 -0.290551 -0.0283465 -0.328347 -0.0259843 -0.329528 -0.0165354 -0.295276 -0.00826772 -0.315355 0 -0.312992 0.00944883 -0.119291 0.00354331 -0.256299 0.0165354 -0.265748 0.0212599 -0.360236 0.0366142 -0.244488 0.0330709 -0.314173 0.0484252 -0.327166 0.0590552 -0.276378 0.056693 -0.324803 0.0767717 -0.315355 0.0814961c-0.0874016,0.0236221 -0.173622,0.0484252 -0.261024,0.0732284l-0.0165354 0.00590552c-0.141732,0.0437008 -0.283465,0.0897638 -0.425197,0.134646 -0.194882,0.0673229 0.0649607,-0.0212599 -0.219685,0.0779528l-0.201969 0.0744095c-1.62165,0.603544 -3.0874,1.53662 -4.31693,2.75315l-0.0413386 0.0401575 -0.230315 0.23504 -0.11811 0.126378 -0.172441 0.187795c-0.819686,0.921261 -1.53662,1.95354 -2.02677,3.08977l-0.200788 0.467717c-0.0637796,0.159449 -0.125197,0.317717 -0.190158,0.475985 -0.0543308,0.151181 -0.103937,0.309449 -0.153543,0.461811 -3.50551,10.6547 -10.5697,19.6725 -19.7728,26.0244 -9.77717,6.74882 -21.4831,10.148 -33.3319,10.148 -11.837,0 -23.5335,-3.39331 -33.3048,-10.1303 -9.12993,-6.2941 -16.252,-15.1784 -19.7197,-25.7622 -0.262205,-0.799607 -0.577559,-1.59331 -0.973229,-2.3374l-0.206693 -0.366142 -0.0826772 -0.140551 -0.151181 -0.245669 -0.167717 -0.257481 -0.17126 -0.250394 -0.191339 -0.264567 -0.0755906 -0.100394 -0.170079 -0.217323 -0.165354 -0.205512 -0.198425 -0.232677c-1.45276,-1.61221 -3.23386,-2.85709 -5.29489,-3.56693l-0.187795 -0.0637796 -0.304725 -0.0956694 -0.312992 -0.090945 -0.330709 -0.0862205 -0.338977 -0.0779528 -0.292914 -0.0602363 -0.288189 -0.0507874 -0.347244 -0.0531496 -0.288189 -0.0377953 -0.290551 -0.0283465 -0.325985 -0.0259843 -0.315355 -0.0153543 -0.296457 -0.00708662 -0.317717 0 -0.296457 0.00708662 -0.315355 0.0153543 -0.0921261 0.00708662 -0.305906 0.0259843 -0.312992 0.034252 -0.281103 0.0366142 -0.317717 0.0496063 -0.309449 0.0578741 -0.282284 0.0590552 -0.266929 0.0625985 -0.349607 0.090945 -0.309449 0.090945 -0.296457 0.0921261 -0.185433 0.0637796c-2.09173,0.721654 -3.8941,1.99134 -5.35985,3.64016l0.00236221 -0.00236221c-0.0401575,0.046063 -0.068504,0.0826772 -0.101575,0.122835l-0.23504 0.28937 -0.210236 0.272835 -0.230315 0.322441 -0.164173 0.243307 -0.148819 0.227953 -0.135827 0.220866 -0.131102 0.22441 -0.159449 0.285827c-0.396851,0.744095 -0.711024,1.5378 -0.973229,2.3374 -3.46772,10.5839 -10.591,19.4681 -19.7197,25.7634 -9.77127,6.73583 -21.4677,10.1291 -33.3059,10.1291 -2.36929,0 -4.74567,-0.120473 -7.09961,-0.399213 -2.33622,-0.277559 -4.69134,-0.641339 -6.9815,-1.1941 -6.61772,-1.59921 -13.3417,2.5004 -14.9433,9.11812 -1.60039,6.61536 2.5004,13.3406 9.11694,14.9398 3.25985,0.787796 6.57638,1.44213 9.90709,1.83898 3.31654,0.393307 6.65906,0.615355 10.0004,0.615355 16.8898,0 33.4772,-5.09056 47.3894,-14.6811 3.19725,-2.20394 6.23741,-4.63701 9.0815,-7.2815l8.4815 -7.88505 8.48268 7.88505c2.8441,2.64449 5.88426,5.07756 9.0815,7.2815 13.911,9.59056 30.4996,14.6811 47.3882,14.6811 16.8957,0 33.4914,-5.08819 47.4048,-14.6906 3.1937,-2.20512 6.22796,-4.63583 9.06969,-7.27796l8.48268 -7.88977 8.48386 7.88741c2.84173,2.64213 5.87599,5.07166 9.06969,7.27442 13.9181,9.60355 30.5244,14.6965 47.4248,14.6965 16.8839,0 33.4772,-5.0941 47.3835,-14.687 3.19016,-2.20158 6.22441,-4.63111 9.06497,-7.27087l8.48032 -7.88386 8.48268 7.88386c2.84173,2.64331 5.87953,5.07402 9.0756,7.27678 13.9122,9.59174 30.4996,14.6811 47.3894,14.6811 16.8957,0 33.4902,-5.08819 47.4048,-14.6906 3.1937,-2.20512 6.23032,-4.63937 9.07205,-7.28386l8.48386 -7.89213 8.48505 7.88977c2.84528,2.64685 5.88426,5.08111 9.0815,7.28741 13.9158,9.60119 30.5103,14.6894 47.4059,14.6894 3.27047,0 6.54567,-0.223229 9.79371,-0.601182 3.27047,-0.380315 6.51851,-0.951969 9.72402,-1.70079 6.65788,-1.55433 10.8425,-8.263 9.29056,-14.9244 -1.54961,-6.65434 -8.26182,-10.8366 -14.9173,-9.28347 -2.26417,0.527953 -4.55788,0.944883 -6.86812,1.21299 -2.32795,0.270473 -4.67953,0.377953 -7.02284,0.377953 -11.8476,0 -23.5512,-3.39803 -33.3296,-10.1433 -9.2067,-6.35315 -16.2898,-15.365 -19.8012,-26.0232 -0.0921261,-0.281103 -0.187795,-0.581103 -0.305906,-0.852757l-0.177165 -0.412205z"/>
   </g>
   <polygon id="_35082880" class="fil2" points="1602.95,1165.78 1618.05,1165.68 1609.07,1153.56 1395.27,863.823 1460.49,863.918 1792,1258.08 255.999,1258.08 587.461,863.918 652.684,863.823 438.925,1153.56 429.955,1165.68 445.053,1165.78 "/>
   <path id="_35083024" class="fil3" d="M1023.85 1077.87c0.101575,0.244488 0.200788,0.488977 0.296457,0.737008"/>
   <path id="_35083000" class="fil4" d="M452.503 1151.94l213.281 -288.112 -19.337 0 -215.523 291.141 -9.09331 12.2847 15.3059 0.108662c394.072,2.75906 779.655,2.75906 1173.73,0l15.3059 -0.108662 -9.09331 -12.2847 -215.523 -291.141 -19.337 0 213.281 288.112c-383.755,2.68701 -759.239,2.68701 -1142.99,0z"/>
   <path id="_35081968" class="fil5" d="M460.261 897.741c0.167717,4.2874 -3.17244,7.9004 -7.45985,8.06812 -4.2874,0.168898 -7.90158,-3.17126 -8.0693,-7.45867 -0.729922,-18.424 7.71733,-30.065 19.3973,-35.6091 4.82126,-2.28898 10.1929,-3.45945 15.6721,-3.57048 5.34804,-0.106299 10.7953,0.800788 15.9036,2.66575 14.1083,5.15079 25.9394,17.4815 26.9126,35.8134l0.0106299 0.39567 0.0200788 0 0 187.068c0,4.30512 -3.49016,7.79528 -7.79528,7.79528 -4.30512,0 -7.79528,-3.49016 -7.79528,-7.79528l0 -187.068 0.00590552 0c-0.744095,-10.9984 -8.01024,-18.4382 -16.6571,-21.5941 -3.35197,-1.22362 -6.88111,-1.82126 -10.3016,-1.75158 -3.29055,0.0649607 -6.49252,0.757087 -9.3378,2.10827 -6.3626,3.02008 -10.9476,9.80552 -10.5059,20.9327z"/>
   <path id="_35082352" class="fil5" d="M519.254 828.503c0.167717,4.2874 -3.17126,7.90158 -7.45867,8.0693 -4.28859,0.167717 -7.90158,-3.17126 -8.0693,-7.45985 -0.731103,-18.4228 7.71615,-30.065 19.3973,-35.6091 4.82008,-2.28898 10.1917,-3.45945 15.6709,-3.56929 5.34922,-0.10748 10.7953,0.800788 15.9036,2.66457 14.1083,5.15079 25.9394,17.4815 26.9126,35.8134l0.0106299 0.39567 0.0212599 0 0 187.069c0,4.30512 -3.49016,7.79528 -7.79528,7.79528 -4.30512,0 -7.79528,-3.49016 -7.79528,-7.79528l0 -187.069 0.00472441 0c-0.744095,-10.9973 -8.01024,-18.437 -16.6571,-21.5941 -3.35197,-1.22362 -6.87993,-1.82008 -10.3016,-1.75158 -3.28937,0.0661418 -6.49252,0.757087 -9.33662,2.10827 -6.3626,3.02126 -10.9488,9.80552 -10.5071,20.9327z"/>
  </g>
  <rect class="fil6" width="2048" height="2048"/>
 </g>
</svg>
