<?xml version="1.0" encoding="UTF-8"?>
<!DOCTYPE svg PUBLIC "-//W3C//DTD SVG 1.1//EN" "http://www.w3.org/Graphics/SVG/1.1/DTD/svg11.dtd">
<!-- Creator: CorelDRAW -->
<svg xmlns="http://www.w3.org/2000/svg" xml:space="preserve" width="2048px" height="2048px" style="shape-rendering:geometricPrecision; text-rendering:geometricPrecision; image-rendering:optimizeQuality; fill-rule:evenodd; clip-rule:evenodd"
viewBox="0 0 2048 2048"
 xmlns:xlink="http://www.w3.org/1999/xlink">
 <defs>
  <style type="text/css">
   <![CDATA[
    .fil12 {fill:none}
    .fil2 {fill:#008D9A}
    .fil0 {fill:#0097A7}
    .fil3 {fill:#B33613}
    .fil1 {fill:#DD2C00}
    .fil11 {fill:#F3FFFF}
    .fil10 {fill:#0288D1;fill-rule:nonzero}
    .fil9 {fill:#1B5E20;fill-rule:nonzero}
    .fil5 {fill:#212121;fill-rule:nonzero}
    .fil8 {fill:#6A1B9A;fill-rule:nonzero}
    .fil4 {fill:#D32F2F;fill-rule:nonzero}
    .fil7 {fill:#D50000;fill-rule:nonzero}
    .fil6 {fill:#F57F17;fill-rule:nonzero}
   ]]>
  </style>
 </defs>
 <g id="Layer_x0020_1">
  <metadata id="CorelCorpID_0Corel-Layer"/>
  <g id="_352787520">
   <g>
    <path id="_352788000" class="fil0" d="M1476.33 239.523l-1214.41 1478.69c-36.0981,43.9559 33.437,100.071 69.5599,53.2323l1167.11 -1513.33c6.47717,-8.39174 -6.86812,-27.3544 -22.2638,-18.5941z"/>
    <path id="_352787952" class="fil1" d="M402.383 1547.19l-140.459 171.025c-36.0981,43.9559 33.437,100.071 69.5587,53.2323l134.158 -173.953 -63.2575 -50.3044z"/>
    <path id="_352787688" class="fil1" d="M1476.33 239.523l-78.4087 95.4721 -0.258662 0.312992 25.6606 20.4059 0.415748 -0.537402 74.8536 -97.0595c6.47717,-8.39174 -6.86812,-27.3532 -22.2626,-18.5941z"/>
    <line id="_352787352" class="fil1" x1="1490.92" y1="232.27" x2="1490.92" y2= "232.27" />
   </g>
   <g>
    <path id="_352787256" class="fil2" d="M269.622 1778.88c17.387,13.6677 43.8,15.9851 61.8603,-7.43386l1167.11 -1513.33c3.78425,-4.90158 0.800788,-13.4102 -5.40237,-17.8925l-1223.57 1538.65z"/>
    <path id="_352786968" class="fil3" d="M269.622 1778.88c17.387,13.6677 43.8,15.9851 61.8603,-7.43386l134.158 -173.953 -31.7173 -25.2225 -164.301 206.609z"/>
    <path id="_352787544" class="fil3" d="M1409.87 345.01l13.461 10.7043 0.415748 -0.537402 74.8536 -97.0595c3.78425,-4.90158 0.800788,-13.4102 -5.40237,-17.8925l-83.328 104.785z"/>
   </g>
  </g>
  <g id="_357813336">
   <path id="_352786080" class="fil4" d="M1763.04 1517c8.84883,11.6823 15.9945,25.0063 21.026,39.5634 5.14134,14.8784 7.9382,30.5386 7.9382,46.5 0,39.365 -15.9579,75.0036 -41.7579,100.802 -25.7988,25.7977 -61.4398,41.7544 -100.806,41.7544 -60.241,0 -174.523,-0.464174 -288.84,-0.924804 -192.637,-0.778347 -385.513,-1.55906 -577.508,0.779528l-0.435827 0.145276c-39.3662,0 -75.0071,-15.9567 -100.806,-41.7544 -25.8012,-25.7988 -41.7579,-61.4374 -41.7579,-100.802 0,-12.7382 1.72087,-25.1858 4.94528,-37.115 3.36024,-12.4335 8.27009,-24.0862 14.4886,-34.7244l0.124016 0.0720473 427.268 -741.583c11.1177,-25.0831 29.1638,-46.317 51.6603,-61.2189 22.6193,-14.9811 49.6489,-23.7071 78.6036,-23.7071 26.6374,0 51.6851,7.43032 73.1918,20.3457 22.1256,13.2886 40.3477,32.4319 52.5284,55.2851l0.145276 0c88.6843,166.681 184.459,330.918 279.787,494.387 46.6843,80.0575 93.2623,159.931 140.205,242.195zm-48.9367 63.6579c-2.42126,-7.00158 -6.15237,-13.6784 -10.9453,-19.7717l-3.04843 -4.64528c-45.2929,-79.4091 -93.3107,-161.75 -141.434,-244.276 -96.5528,-165.568 -193.554,-331.914 -281.238,-496.711l0.112205 -0.0602363c-5.84056,-10.9335 -14.5843,-20.1047 -25.2071,-26.4839 -10.1528,-6.09686 -22.174,-9.60473 -35.1603,-9.60473 -14.0162,0 -26.9622,4.13268 -37.6689,11.224 -11.2193,7.4315 -20.0929,17.9646 -25.3169,30.3012l-2.0315 4.063 -428.479 743.689 0 0.290551c-3.04607,5.21221 -5.40237,10.7339 -6.94253,16.4351 -1.52008,5.62323 -2.3315,11.641 -2.3315,17.9551 0,18.8504 7.63701,35.9126 19.9831,48.2575 12.3449,12.3449 29.4095,19.9807 48.2622,19.9807l0 0.13937c192.14,-2.33504 385.307,-1.55433 578.234,-0.773623 78.3591,0.315355 156.643,0.634252 288.549,0.634252 18.8516,0 35.9162,-7.63583 48.2611,-19.9807 12.3461,-12.3449 19.9843,-29.4071 19.9843,-48.2575 0,-8.16733 -1.26378,-15.6933 -3.58229,-22.4055z"/>
   <path id="_352786656" class="fil5" d="M1216.04 927.93c33.489,0 63.8126,13.578 85.7646,35.5288 21.9508,21.9496 35.5288,52.2756 35.5288,85.7646 0,33.489 -13.578,63.8126 -35.5288,85.7635 -21.952,21.952 -52.2756,35.5299 -85.7646,35.5299 -33.4925,0 -63.8162,-13.5791 -85.767,-35.5264 -21.9508,-21.9532 -35.5288,-52.2768 -35.5288,-85.767 0,-33.4902 13.5768,-63.8162 35.5288,-85.767 21.9508,-21.9473 52.2744,-35.5264 85.767,-35.5264z"/>
   <path id="_352786536" class="fil6" d="M937.32 1384.12c33.489,0 63.8138,13.578 85.7646,35.5288 21.9508,21.9508 35.5288,52.2756 35.5288,85.7646 0,33.4937 -13.578,63.8186 -35.5288,85.7717 -21.9496,21.952 -52.2733,35.5299 -85.7646,35.5299 -33.4925,0 -63.8162,-13.578 -85.767,-35.5288 -21.9508,-21.952 -35.5276,-52.2804 -35.5276,-85.7729 0,-33.4902 13.5768,-63.815 35.5288,-85.7658 21.9484,-21.9484 52.2733,-35.5276 85.7658,-35.5276z"/>
   <path id="_352786176" class="fil7" d="M1216.04 1384.12c33.4914,0 63.815,13.578 85.7658,35.5288 21.9508,21.9508 35.5288,52.2756 35.5288,85.7646 0,33.4937 -13.578,63.8186 -35.5288,85.7717 -21.9496,21.952 -52.2733,35.5299 -85.7658,35.5299 -33.4914,0 -63.815,-13.578 -85.7646,-35.5299 -21.9508,-21.9532 -35.5288,-52.278 -35.5288,-85.7717 0,-33.489 13.578,-63.8138 35.5288,-85.7646 21.9508,-21.9508 52.2756,-35.5288 85.7646,-35.5288z"/>
   <path id="_352786488" class="fil8" d="M1494.77 1384.12c33.489,0 63.8126,13.578 85.7646,35.5288 21.9508,21.9508 35.5288,52.2756 35.5288,85.7646 0,33.4937 -13.578,63.8186 -35.5288,85.7694 -21.9484,21.9543 -52.2756,35.5323 -85.7646,35.5323 -33.4937,0 -63.8186,-13.578 -85.7705,-35.5299 -21.952,-21.9496 -35.5299,-52.2768 -35.5299,-85.7717 0,-33.4914 13.578,-63.815 35.5299,-85.7646 21.952,-21.9508 52.2768,-35.5288 85.7705,-35.5288z"/>
   <path id="_352786752" class="fil9" d="M1067.41 1150.88c33.4914,0 63.815,13.578 85.7658,35.5288 21.9532,21.9532 35.5276,52.2815 35.5276,85.7717 0,33.4914 -13.5768,63.8162 -35.5288,85.767 -21.9473,21.9484 -52.2733,35.5276 -85.7646,35.5276 -33.489,0 -63.815,-13.578 -85.7658,-35.5288 -21.9508,-21.9508 -35.5288,-52.2744 -35.5288,-85.7658 0,-33.4902 13.578,-63.8186 35.5288,-85.7705 21.9496,-21.952 52.2733,-35.5299 85.7658,-35.5299z"/>
   <path id="_352786440" class="fil10" d="M1364.68 1150.88c33.4949,0 63.8162,13.578 85.767,35.5288 21.952,21.9532 35.5264,52.2815 35.5264,85.7717 0,33.4914 -13.5756,63.8162 -35.5264,85.767 -21.9508,21.9508 -52.2744,35.5276 -85.767,35.5276 -33.489,0 -63.8126,-13.578 -85.7646,-35.5288 -21.9508,-21.9508 -35.5288,-52.2756 -35.5288,-85.7658 0,-33.4902 13.578,-63.8162 35.5288,-85.7694 21.9484,-21.9532 52.2756,-35.5311 85.7646,-35.5311z"/>
   <circle id="_352786224" class="fil11" cx="1216.04" cy="1049.22" r="56.5057"/>
   <circle id="_352786344" class="fil11" cx="1364.68" cy="1272.18" r="56.5057"/>
   <circle id="_357810192" class="fil11" cx="1067.41" cy="1272.18" r="56.5057"/>
   <circle id="_357808488" class="fil11" cx="937.32" cy="1505.42" r="56.5057"/>
   <circle id="_357814080" class="fil11" cx="1216.04" cy="1505.42" r="56.5057"/>
   <circle id="_357813960" class="fil11" cx="1494.77" cy="1505.42" r="56.5057"/>
   <path id="_357814248" class="fil5" d="M1224.53 1542.17l-14.028 0 0 -52.8933c-5.12953,4.80709 -11.165,8.35276 -18.1193,10.6358l0 -12.7323c3.64843,-1.19291 7.63701,-3.45945 11.9327,-6.80079 4.29567,-3.35906 7.24371,-7.26142 8.82875,-11.7272l11.3858 0 0 73.5178z"/>
   <path id="_357814296" class="fil5" d="M961.915 1529.14l0 13.0394 -49.193 0c0.544489,-4.92638 2.12953,-9.59765 4.80591,-14.0114 2.65866,-4.41496 7.92638,-10.2614 15.7677,-17.5571 6.34016,-5.88071 10.2095,-9.88583 11.6421,-11.9835 1.92638,-2.89843 2.89843,-5.76142 2.89843,-8.59135 0,-3.11811 -0.836221,-5.52284 -2.52402,-7.20945 -1.68662,-1.6878 -4.00512,-2.52402 -6.97087,-2.52402 -2.9315,0 -5.25119,0.887009 -6.98977,2.64331 -1.72087,1.77165 -2.72717,4.70315 -2.99882,8.79449l-13.9784 -1.39725c0.836221,-7.72087 3.4441,-13.2626 7.84016,-16.637 4.39843,-3.3567 9.8882,-5.04449 16.4847,-5.04449 7.22717,0 12.9036,1.95945 17.028,5.84646 4.12559,3.90237 6.1878,8.74489 6.1878,14.5394 0,3.29055 -0.595276,6.42638 -1.77165,9.40985 -1.17756,2.98229 -3.05197,6.10276 -5.60906,9.35788 -1.70433,2.16496 -4.77284,5.28426 -9.1878,9.34135 -4.4315,4.05591 -7.24371,6.76654 -8.42127,8.09646 -1.1752,1.32874 -2.14725,2.62559 -2.87953,3.88701l27.8693 0z"/>
   <path id="_357814152" class="fil5" d="M1498.41 1542.17l0 -14.7272 -29.967 0 0 -12.2906 31.774 -46.5 11.778 0 0 46.4481 9.08623 0 0 12.3425 -9.08623 0 0 14.7272 -13.585 0zm0 -27.0697l0 -25.0229 -16.8236 25.0229 16.8236 0z"/>
   <path id="_357814392" class="fil5" d="M1191.43 1065.87l13.9784 -1.4315c0.390945,3.15355 1.58386,5.65985 3.54449,7.50119 1.96063,1.85788 4.22835,2.77795 6.78426,2.77795 2.9315,0 5.42126,-1.19291 7.44922,-3.56221 2.02795,-2.38701 3.05197,-5.98347 3.05197,-10.774 0,-4.48229 -1.0063,-7.85788 -3.03425,-10.1079 -2.01142,-2.25 -4.63701,-3.37559 -7.85788,-3.37559 -4.02402,0 -7.63701,1.79055 -10.8413,5.35276l-11.387 -1.65236 7.1941 -38.0988 37.1079 0 0 13.1268 -26.4721 0 -2.19921 12.4429c3.13583,-1.56851 6.32481,-2.35158 9.59646,-2.35158 6.22205,0 11.5063,2.26536 15.8185,6.78308 4.33111,4.53426 6.49489,10.415 6.49489,17.6433 0,6.01654 -1.73858,11.4024 -5.23229,16.1244 -4.77402,6.46063 -11.3705,9.6815 -19.826,9.6815 -6.76654,0 -12.2728,-1.80709 -16.5343,-5.43662 -4.26024,-3.63071 -6.81733,-8.50631 -7.63583,-14.6433z"/>
   <path id="_357814224" class="fil5" d="M1043.42 1249.1l0 -13.0228 47.9835 0 0 10.1752c-3.95433,3.90473 -7.97717,9.49489 -12.085,16.7906 -4.09016,7.27796 -7.21064,15.0343 -9.35906,23.2335 -2.14725,8.21575 -3.20315,15.5469 -3.1689,22.0063l-13.5354 0c0.238583,-10.1244 2.31851,-20.4378 6.27284,-30.9555 3.9378,-10.5343 9.20434,-19.9264 15.8008,-28.2272l-31.9087 0z"/>
   <path id="_357813408" class="fil5" d="M1352.85 1268.79c-3.63071,-1.53307 -6.27284,-3.64607 -7.90985,-6.32363 -1.65354,-2.6752 -2.47087,-5.62559 -2.47087,-8.81221 0,-5.45433 1.89095,-9.97087 5.70945,-13.5343 3.81851,-3.56339 9.23977,-5.35158 16.2614,-5.35158 6.95552,0 12.3591,1.78819 16.1941,5.35158 3.85276,3.56339 5.77914,8.07993 5.77914,13.5343 0,3.39213 -0.887009,6.40985 -2.65984,9.06851 -1.75512,2.64213 -4.2437,4.67008 -7.4315,6.06733 4.05591,1.62047 7.14095,4.00748 9.25513,7.14331 2.11417,3.11929 3.17126,6.73347 3.17126,10.8248 0,6.76654 -2.14725,12.2563 -6.46063,16.4823 -4.31221,4.22835 -10.0406,6.34134 -17.198,6.34134 -6.66615,0 -12.2055,-1.73858 -16.6382,-5.23347 -5.23229,-4.14213 -7.84016,-9.80198 -7.84016,-16.9949 0,-3.95315 0.987402,-7.58505 2.94803,-10.9087 1.96063,-3.30709 5.06221,-5.86418 9.29056,-7.65473zm2.89843 -14.1307c0,2.79685 0.783071,4.97835 2.36811,6.52914 1.58622,1.56851 3.68268,2.35276 6.32363,2.35276 2.65984,0 4.79174,-0.784253 6.39331,-2.36929 1.58504,-1.58622 2.38701,-3.76772 2.38701,-6.56339 0,-2.64095 -0.784253,-4.73859 -2.37047,-6.32363 -1.58504,-1.58622 -3.66496,-2.36929 -6.27284,-2.36929 -2.69292,0 -4.84016,0.800788 -6.44292,2.38701 -1.58504,1.60158 -2.38583,3.71575 -2.38583,6.3567zm-1.29685 31.3488c0,3.86811 0.989765,6.88583 2.96693,9.05079 1.97717,2.16496 4.44922,3.23859 7.41497,3.23859 2.89725,0 5.30197,-1.04055 7.19292,-3.11929 1.89213,-2.07992 2.84646,-5.07993 2.84646,-9.01654 0,-3.42756 -0.972048,-6.18898 -2.89725,-8.26772 -1.92638,-2.07992 -4.38071,-3.12047 -7.34646,-3.12047 -3.42756,0 -5.98347,1.1941 -7.65355,3.54685 -1.6878,2.36811 -2.52402,4.92638 -2.52402,7.6878z"/>
  </g>
  <rect class="fil12" width="2048" height="2048"/>
 </g>
</svg>
