<?xml version="1.0" encoding="UTF-8"?>
<!DOCTYPE svg PUBLIC "-//W3C//DTD SVG 1.1//EN" "http://www.w3.org/Graphics/SVG/1.1/DTD/svg11.dtd">
<!-- Creator: CorelDRAW -->
<svg xmlns="http://www.w3.org/2000/svg" xml:space="preserve" width="2048px" height="2048px" style="shape-rendering:geometricPrecision; text-rendering:geometricPrecision; image-rendering:optimizeQuality; fill-rule:evenodd; clip-rule:evenodd"
viewBox="0 0 2048 2048"
 xmlns:xlink="http://www.w3.org/1999/xlink">
 <defs>
  <style type="text/css">
   <![CDATA[
    .fil5 {fill:none}
    .fil0 {fill:#FAFAFA}
    .fil4 {fill:#212121;fill-rule:nonzero}
    .fil3 {fill:#66BB6A;fill-rule:nonzero}
    .fil1 {fill:#D50000;fill-rule:nonzero}
    .fil2 {fill:#FF9100;fill-rule:nonzero}
   ]]>
  </style>
 </defs>
 <g id="Layer_x0020_1">
  <metadata id="CorelCorpID_0Corel-Layer"/>
  <circle class="fil0" cx="1024" cy="1024" r="704"/>
  <path class="fil1" d="M1024 319.999c173.222,0 331.836,62.5678 454.473,166.336l-41.7201 41.5819c-111.878,-93.1855 -255.766,-149.25 -412.753,-149.25 -178.205,0 -339.54,72.2316 -456.32,189.013 -116.782,116.78 -189.013,278.116 -189.013,456.32 0,178.205 72.2316,339.54 189.013,456.32 116.78,116.782 278.116,189.013 456.32,189.013 178.205,0 339.54,-72.2316 456.32,-189.013 116.782,-116.78 189.013,-278.116 189.013,-456.32 0,-157.233 -56.2394,-301.327 -149.688,-413.277l41.7024 -41.5666c103.957,122.688 166.654,281.447 166.654,454.844 0,194.399 -78.7997,370.4 -206.202,497.8 -127.4,127.402 -303.401,206.202 -497.8,206.202 -194.399,0 -370.4,-78.7997 -497.8,-206.202 -127.402,-127.4 -206.202,-303.401 -206.202,-497.8 0,-194.399 78.7997,-370.4 206.202,-497.8 127.4,-127.402 303.401,-206.202 497.8,-206.202z"/>
  <path class="fil2" d="M1024 481.331c128.562,0 246.684,44.713 339.666,119.433l-41.8359 41.6989c-82.1257,-64.1989 -185.508,-102.464 -297.831,-102.464 -133.655,0 -254.656,54.1748 -342.24,141.761 -87.5859,87.5835 -141.761,208.585 -141.761,342.24 0,133.655 54.1748,254.656 141.761,342.24 87.5835,87.5859 208.585,141.761 342.24,141.761 133.655,0 254.656,-54.1748 342.24,-141.761 87.5859,-87.5835 141.761,-208.585 141.761,-342.24 0,-112.761 -38.5618,-216.516 -103.213,-298.796l41.8052 -41.6693c75.1064,93.1052 120.076,211.534 120.076,340.465 0,149.848 -60.743,285.515 -158.948,383.72 -98.2052,98.2052 -233.873,158.948 -383.72,158.948 -149.848,0 -285.515,-60.743 -383.72,-158.948 -98.2052,-98.2052 -158.948,-233.873 -158.948,-383.72 0,-149.848 60.743,-285.515 158.948,-383.72 98.2052,-98.2052 233.873,-158.948 383.72,-158.948z"/>
  <path class="fil1" d="M1024 671.999c75.7489,0 145.911,23.9327 203.339,64.6441l-42.2859 42.1477c-46.2272,-30.4217 -101.573,-48.1241 -161.053,-48.1241 -81.0036,0 -154.339,32.8323 -207.419,85.9135 -53.0811,53.08 -85.9135,126.416 -85.9135,207.419 0,81.0036 32.8323,154.339 85.9135,207.419 53.08,53.0811 126.416,85.9135 207.419,85.9135 81.0036,0 154.339,-32.8323 207.419,-85.9135 53.0811,-53.08 85.9135,-126.416 85.9135,-207.419 0,-60.1548 -18.111,-116.079 -49.1705,-162.62l42.2209 -42.0815c41.302,57.6815 65.6174,128.352 65.6174,204.702 0,97.1977 -39.4004,185.199 -103.101,248.9 -63.7004,63.7004 -151.702,103.101 -248.9,103.101 -97.1977,0 -185.199,-39.4004 -248.9,-103.101 -63.7004,-63.7004 -103.101,-151.702 -103.101,-248.9 0,-97.1977 39.4004,-185.199 103.101,-248.9 63.7004,-63.7004 151.702,-103.101 248.9,-103.101z"/>
  <path class="fil3" d="M1024 818.664c34.9925,0 67.9394,8.75788 96.7737,24.1961l-44.289 44.1426c-16.2957,-6.24686 -33.9898,-9.66969 -52.4847,-9.66969 -40.5036,0 -77.1721,16.415 -103.713,42.9544 -26.5394,26.5406 -42.9544,63.2091 -42.9544,103.713 0,40.5036 16.415,77.1721 42.9544,103.713 26.5406,26.5394 63.2091,42.9544 103.713,42.9544 40.5036,0 77.1721,-16.415 103.713,-42.9544 26.5394,-26.5406 42.9544,-63.2091 42.9544,-103.713 0,-19.4008 -3.7689,-37.9217 -10.6087,-54.8705l44.015 -43.8697c16.102,29.2996 25.2626,62.9504 25.2626,98.7402 0,56.6977 -22.9843,108.032 -60.1441,145.192 -37.1599,37.1599 -88.4942,60.1441 -145.192,60.1441 -56.6977,0 -108.032,-22.9843 -145.192,-60.1441 -37.1599,-37.1599 -60.1441,-88.4942 -60.1441,-145.192 0,-56.6977 22.9843,-108.032 60.1441,-145.192 37.1599,-37.1599 88.4942,-60.1441 145.192,-60.1441z"/>
  <polygon class="fil4" points="1004.07,1000.6 1542.51,463.923 1583.76,505.402 1045.32,1042.08 "/>
  <polygon class="fil4" points="1644.96,525.331 1552,525.331 1522.67,525.331 1522.67,495.997 1522.67,410.205 1581.34,349.331 1581.34,466.663 1698.67,466.663 "/>
  <polygon class="fil4" points="1141.46,1053.33 994.667,1053.33 994.667,903.364 "/>
  <rect class="fil5" width="2048" height="2048"/>
 </g>
</svg>
