<?xml version="1.0" encoding="UTF-8"?>
<!DOCTYPE svg PUBLIC "-//W3C//DTD SVG 1.1//EN" "http://www.w3.org/Graphics/SVG/1.1/DTD/svg11.dtd">
<!-- Creator: CorelDRAW -->
<svg xmlns="http://www.w3.org/2000/svg" xml:space="preserve" width="2048px" height="2048px" style="shape-rendering:geometricPrecision; text-rendering:geometricPrecision; image-rendering:optimizeQuality; fill-rule:evenodd; clip-rule:evenodd"
viewBox="0 0 2048 2048"
 xmlns:xlink="http://www.w3.org/1999/xlink">
 <defs>
  <style type="text/css">
   <![CDATA[
    .fil13 {fill:none}
    .fil7 {fill:#00695C}
    .fil10 {fill:#00B8D4}
    .fil11 {fill:#3E2723}
    .fil8 {fill:#40C4FF}
    .fil0 {fill:#8D6E63}
    .fil6 {fill:#E9BB77}
    .fil9 {fill:black;fill-rule:nonzero}
    .fil5 {fill:#00B0FF;fill-rule:nonzero}
    .fil2 {fill:#00B8D4;fill-rule:nonzero}
    .fil1 {fill:#424242;fill-rule:nonzero}
    .fil12 {fill:#4E342E;fill-rule:nonzero}
    .fil4 {fill:#8BC34A;fill-rule:nonzero}
    .fil3 {fill:#FF6F00;fill-rule:nonzero}
   ]]>
  </style>
 </defs>
 <g id="Layer_x0020_1">
  <metadata id="CorelCorpID_0Corel-Layer"/>
  <g id="_35083792">
   <rect id="_35076232" class="fil0" x="864.001" y="1196.49" width="320" height="512" rx="96.0001" ry="96.0001"/>
   <path id="_35081992" class="fil1" d="M784.54 703.822c-0.034252,-17.6043 7.07363,-31.9323 15.8752,-32.0008 8.80276,-0.068504 15.9662,14.1461 16.0004,31.7504l2.72362 720.407c0.034252,17.6043 -7.07245,31.9323 -15.8752,32.0008 -8.80158,0.068504 -15.9662,-14.1461 -16.0004,-31.7504l-2.72362 -720.407z"/>
   <path id="_35089120" class="fil1" d="M1279.48 703.822c0.034252,-17.6043 -7.07363,-31.9323 -15.8752,-32.0008 -8.80276,-0.068504 -15.9662,14.1461 -16.0004,31.7504l-2.72362 720.407c-0.034252,17.6043 7.07245,31.9323 15.8752,32.0008 8.80158,0.068504 15.9662,-14.1461 16.0004,-31.7504l2.72362 -720.407z"/>
   <path id="_35086072" class="fil1" d="M533.774 887.516c-6.98268,-16.1599 -6.10985,-32.1307 1.95,-35.6693 8.05985,-3.5374 20.2536,6.69331 27.2362,22.8532l238.525 531.886c6.98268,16.1599 6.10985,32.1307 -1.95,35.6693 -8.05985,3.53859 -20.2536,-6.69213 -27.2362,-22.8532l-238.525 -531.886z"/>
   <path id="_35085736" class="fil1" d="M1530.25 887.516c6.98268,-16.1599 6.10985,-32.1307 -1.95,-35.6693 -8.05985,-3.5374 -20.2536,6.69331 -27.2362,22.8532l-238.525 531.886c-6.98268,16.1599 -6.10985,32.1307 1.95,35.6693 8.05985,3.53859 20.2536,-6.69213 27.2362,-22.8532l238.525 -531.886z"/>
   <path id="_35086192" class="fil1" d="M401.951 1013.08c-11.3988,-13.4162 -15.228,-28.9453 -8.55355,-34.6831 6.6756,-5.7378 21.326,0.485433 32.7248,13.9016l358.838 406.771c11.3988,13.4173 15.228,28.9453 8.55355,34.6843 -6.6756,5.7378 -21.326,-0.485433 -32.7248,-13.9016l-358.838 -406.772z"/>
   <path id="_35085952" class="fil1" d="M1662.07 1013.08c11.3988,-13.4162 15.228,-28.9453 8.55355,-34.6831 -6.6756,-5.7378 -21.326,0.485433 -32.7248,13.9016l-358.838 406.771c-11.3988,13.4173 -15.228,28.9453 -8.55355,34.6843 6.6756,5.7378 21.326,-0.485433 32.7248,-13.9016l358.838 -406.772z"/>
   <path id="_35085760" class="fil2" d="M753.531 1462.57c-14.0823,-10.5626 -16.937,-30.5433 -6.37441,-44.6256 10.5626,-14.0823 30.5433,-16.937 44.6256,-6.37441 172.277,129.209 292.159,129.212 464.436,0 14.0823,-10.5626 34.063,-7.70788 44.6256,6.37441 10.5626,14.0823 7.70788,34.063 -6.37441,44.6256 -208.394,156.301 -343.941,147.748 -540.938,0z"/>
   <g>
    <path id="_35085928" class="fil3" d="M328.571 637.189c36.9555,-43.5532 91.3016,-75.665 164.415,-83.8264l0.742914 -0.121654c17.465,-2.62323 33.7524,9.40985 36.3756,26.8748l43.774 285.535 -0.0791339 0.011811c2.18386,14.4543 -5.84528,28.9984 -20.0457,34.4882 -12.7335,4.92166 -26.6918,1.1185 -35.2843,-8.48859 -0.998032,0.357874 -2.21103,0.806694 -3.6189,1.34055 -7.6878,2.91614 -16.4032,8.14961 -25.1457,15.4193 -23.7047,19.7114 -45.8209,52.6571 -47.752,93.4619l-0.0129921 -0.0011811c-0.0956694,1.9878 -0.376772,3.99567 -0.862205,6.00119 -4.14213,17.1201 -21.3803,27.6425 -38.5004,23.5004 -44.3953,-10.7516 -75.1087,-37.6146 -95.9812,-73.0312 -23.641,-40.115 -33.6792,-90.7749 -36.6674,-139.811 -3.79607,-62.3504 14.8784,-129.774 58.6418,-181.354z"/>
    <path id="_35085520" class="fil3" d="M1555.01 553.362c73.1138,8.16142 127.46,40.2733 164.415,83.8264 43.7634,51.58 62.4378,119.003 58.6418,181.354 -2.98819,49.0359 -13.0264,99.6957 -36.6674,139.811 -20.8725,35.4166 -51.5859,62.2796 -95.9812,73.0312 -17.1201,4.14213 -34.3583,-6.38032 -38.5004,-23.5004 -0.485433,-2.00551 -0.766536,-4.01339 -0.862205,-6.00119l-0.0129921 0.0011811c-1.9311,-40.8048 -24.0473,-73.7505 -47.752,-93.4619 -8.74253,-7.26969 -17.4579,-12.5032 -25.1457,-15.4193 -1.40788,-0.533859 -2.62087,-0.982678 -3.6189,-1.34055 -8.59253,9.60709 -22.5508,13.4102 -35.2843,8.48859 -14.2004,-5.48977 -22.2295,-20.0339 -20.0457,-34.4882l-0.0791339 -0.011811 43.774 -285.535c2.62323,-17.465 18.9106,-29.4981 36.3756,-26.8748l0.742914 0.121654z"/>
    <path id="_35085904" class="fil4" d="M1220.15 399.741c3.35551,-1.16693 6.07323,-2.07638 8.17205,-2.73425 70.0997,-21.9579 144.376,-16.1941 207.468,13.0772 63.6071,29.511 115.899,82.7847 141.386,155.58 1.29331,3.69213 2.28662,6.64489 2.97874,8.85473 1.48465,4.76693 1.79528,9.61772 1.09606,14.2453l0.0295276 0.00472441 -44.5713 290.657c-2.62323,17.465 -18.9106,29.4981 -36.3756,26.8748 -16.0559,-2.41181 -27.5197,-16.3701 -27.2268,-32.1768 -0.0779528,-1.0063 -0.198425,-2.43898 -0.359055,-4.2815 -3.71221,-42.4666 -32.2536,-75.7028 -69.7713,-98.2607 -40.4752,-24.3355 -90.5009,-36.3532 -133.043,-34.8945 -1.91221,0.0649607 -5.10355,0.294095 -9.58347,0.68504 -1.12205,0.0968505 -2.23701,0.133465 -3.33898,0.114567 -16.6264,0.383859 -30.9331,-12.189 -32.4544,-28.9961 -0.0413386,-0.46063 -0.0708662,-0.918898 -0.0933072,-1.37599l-0.0318898 0.0011811 -8.85591 -177.771c-0.735827,-14.8595 -2.84173,-29.5618 -6.20552,-43.9052 -3.39095,-14.4555 -7.96654,-28.1256 -13.6181,-40.8154 -7.17875,-16.0843 0.0401575,-34.9465 16.1244,-42.1252 1.31929,-0.589371 2.65866,-1.08071 4.00748,-1.47756l-0.00708662 -0.022441 4.27323 -1.25669z"/>
    <path id="_35085640" class="fil4" d="M819.675 397.007c2.09882,0.657875 4.81654,1.56732 8.17205,2.73425l4.27323 1.25669 -0.00708662 0.022441c1.34882,0.396851 2.68819,0.88819 4.00748,1.47756 16.0843,7.17875 23.3032,26.041 16.1244,42.1252 -5.65158,12.6898 -10.2272,26.3599 -13.6181,40.8154 -3.36378,14.3433 -5.46969,29.0457 -6.20552,43.9052l-8.85591 177.771 -0.0318898 -0.0011811c-0.022441,0.457087 -0.0519685,0.915355 -0.0933072,1.37599 -1.52126,16.8071 -15.828,29.3799 -32.4544,28.9961 -1.10197,0.0188977 -2.21693,-0.0177165 -3.33898,-0.114567 -4.47992,-0.390945 -7.67127,-0.620079 -9.58347,-0.68504 -42.5422,-1.45866 -92.5678,10.5591 -133.043,34.8945 -37.5177,22.5579 -66.0591,55.7941 -69.7713,98.2607 -0.16063,1.84252 -0.281103,3.2752 -0.359055,4.2815 0.292914,15.8067 -11.1709,29.765 -27.2268,32.1768 -17.465,2.62323 -33.7524,-9.40985 -36.3756,-26.8748l-44.5713 -290.657 0.0295276 -0.00472441c-0.699213,-4.62756 -0.388583,-9.47835 1.09606,-14.2453 0.692127,-2.20984 1.68543,-5.1626 2.97874,-8.85473 25.487,-72.7949 77.7792,-126.069 141.386,-155.58 63.0922,-29.2713 137.368,-35.0351 207.468,-13.0772z"/>
    <path id="_35084752" class="fil5" d="M1029.03 268.494c50.2311,0 95.2997,14.5004 133.048,39.5339 39.6603,26.3032 70.8662,64.0371 91.1304,108.58 0.265748,0.583465 0.509056,1.17047 0.737008,1.75984 7.33111,16.4079 13.1929,33.6532 17.4473,51.4914 4.26615,17.8902 6.95906,36.7961 7.9382,56.4839l8.91851 179.152c0.827953,17.6043 -12.7713,32.5477 -30.3756,33.3756 -9.43702,0.444095 -18.1075,-3.25866 -24.2504,-9.50079 -26.563,-26.8713 -58.4906,-48.6272 -94.0808,-63.5552 -34.0441,-14.2795 -71.3882,-22.1811 -110.512,-22.1811 -40.5803,0 -81.4914,8.16733 -118.759,23.0197 -36.8788,14.6965 -70.206,35.8642 -96.0816,62.041 -12.3567,12.5646 -32.5607,12.7323 -45.1252,0.375591 -6.79961,-6.68623 -9.96615,-15.6709 -9.48426,-24.4996l-0.0165354 -0.0011811 10.2425 -178.477c4.10315,-71.4674 33.8173,-136.491 80.5619,-183.235 45.9248,-45.9248 108.124,-74.3634 178.662,-74.3634z"/>
   </g>
   <g>
    <path id="_35085352" class="fil6" d="M1020.57 1222.17c63.8646,0 119.067,43.6205 119.067,113.216 0,69.5953 -51.7737,159.951 -115.638,159.951 -63.8646,0 -115.638,-90.3556 -115.638,-159.951 0,-69.5953 48.3437,-113.216 112.21,-113.216z"/>
    <path id="_35084800" class="fil7" d="M1020.57 1222.17c63.5115,0 118.446,43.1433 119.053,112.065 -30.1122,-19.7894 -71.8253,-32.0445 -117.925,-32.0445 -43.7729,0 -83.5879,11.0539 -113.275,29.1107 1.85669,-67.2107 49.5426,-109.132 112.147,-109.132z"/>
    <path id="_35085328" class="fil8" d="M953.723 1304.12c26.0126,0 70.2768,3.9626 70.2768,29.9752 0,26.0138 -44.2642,64.2296 -70.2768,64.2296 -26.0138,0 -47.1024,-21.0886 -47.1024,-47.1024 0,-26.0126 21.0886,-47.1024 47.1024,-47.1024z"/>
    <path id="_35084776" class="fil9" d="M953.722 1300.79c15.6614,0 37.8674,1.4315 53.6091,8.14607 11.7366,5.00433 19.9937,12.8917 19.9937,25.1528 0,13.6973 -11.0492,30.2209 -25.5154,43.4433 -15.0354,13.741 -33.965,24.1099 -48.0874,24.1099 -13.9252,0 -26.5323,-5.64449 -35.6575,-14.7685 -9.12402,-9.1252 -14.7685,-21.7323 -14.7685,-35.6575 0,-13.9228 5.64449,-26.5311 14.7685,-35.6563 9.1252,-9.12402 21.7323,-14.7697 35.6575,-14.7697zm51.0119 14.25c-14.6894,-6.26575 -35.9504,-7.6004 -51.0119,-7.6004 -12.0886,0 -23.0327,4.9004 -30.9555,12.8209 -7.92048,7.92166 -12.8221,18.8681 -12.8221,30.9555 0,12.0886 4.9004,23.0339 12.8221,30.9555 7.92284,7.92166 18.8669,12.8221 30.9555,12.8221 12.4725,0 29.6858,-9.60946 43.6193,-22.3441 13.2295,-12.091 23.3339,-26.8299 23.3339,-38.5607 0,-9.03544 -6.58347,-15.0579 -15.9414,-19.0488z"/>
    <path id="_35084128" class="fil8" d="M1094.28 1304.12c-26.0126,0 -70.2768,3.9626 -70.2768,29.9752 0,26.0138 44.2642,64.2296 70.2768,64.2296 26.0138,0 47.1024,-21.0886 47.1024,-47.1024 0,-26.0126 -21.0886,-47.1024 -47.1024,-47.1024z"/>
    <path id="_35084488" class="fil9" d="M1094.28 1307.44c-15.0614,0 -36.3225,1.33465 -51.0119,7.6004 -9.35788,3.99095 -15.9414,10.0134 -15.9414,19.0488 0,11.7307 10.1043,26.4697 23.3339,38.5607 13.9335,12.7347 31.1469,22.3441 43.6193,22.3441 12.0874,0 23.0351,-4.90158 30.9555,-12.8221 7.92166,-7.92166 12.8221,-18.8669 12.8221,-30.9555 0,-12.0874 -4.90158,-23.0339 -12.8221,-30.9555 -7.92048,-7.9193 -18.8681,-12.8209 -30.9555,-12.8209zm-53.6091 1.49646c15.7417,-6.71457 37.9477,-8.14607 53.6091,-8.14607 13.924,0 26.5323,5.64567 35.6575,14.7697 9.12402,9.1252 14.7685,21.7335 14.7685,35.6563 0,13.9252 -5.64449,26.5323 -14.7685,35.6575 -9.1252,9.12402 -21.7335,14.7685 -35.6575,14.7685 -14.1225,0 -33.052,-10.3689 -48.0874,-24.1099 -14.4662,-13.2225 -25.5154,-29.7461 -25.5154,-43.4433 0,-12.261 8.25709,-20.1484 19.9937,-25.1528z"/>
   </g>
   <polygon id="_35084248" class="fil10" points="897.402,1523.5 1150.6,1523.5 1131.85,1779.5 909.903,1779.5 "/>
   <path id="_35084680" class="fil11" d="M887.736 1428.83l9.61891 0c6.15591,0 7.59449,5.91851 10.3831,11.191 64.5508,122.036 23.4248,156.647 13.2543,280.263 -0.505512,6.15119 -7.36772,10.3335 -13.3878,9.43347l-9.41339 -1.40788c-6.02008,-0.900001 -9.03662,-6.55394 -8.51694,-12.7075 10.4528,-123.66 50.9091,-158.027 -13.937,-275.581 -2.87953,-5.22048 5.84292,-11.191 11.9988,-11.191z"/>
   <path id="_35084728" class="fil11" d="M1161.81 1428.83l-9.61891 0c-6.15591,0 -7.59449,5.91851 -10.3831,11.191 -64.5508,122.036 -23.4248,156.647 -13.2543,280.263 0.505512,6.15119 7.36772,10.3335 13.3878,9.43347l9.41339 -1.40788c6.02008,-0.900001 9.03662,-6.55394 8.51694,-12.7075 -10.4528,-123.66 -50.9091,-158.027 13.937,-275.581 2.87953,-5.22048 -5.84292,-11.191 -11.9988,-11.191z"/>
   <path id="_35084368" class="fil12" d="M932.728 1635.71c3.27638,1.76693 7.76694,4.35237 12.4689,7.05827 38.0303,21.8835 101.628,48.7973 172.293,-21.4075l14.0622 14.1402c-81.4536,80.9221 -152.861,49.5154 -196.277,24.5327 -3.85866,-2.22047 -7.52835,-4.33347 -12.0012,-6.74646l9.45355 -17.5772z"/>
  </g>
  <rect class="fil13" width="2048" height="2048"/>
 </g>
</svg>
