<?xml version="1.0" encoding="UTF-8"?>
<!DOCTYPE svg PUBLIC "-//W3C//DTD SVG 1.1//EN" "http://www.w3.org/Graphics/SVG/1.1/DTD/svg11.dtd">
<!-- Creator: CorelDRAW -->
<svg xmlns="http://www.w3.org/2000/svg" xml:space="preserve" width="2048px" height="2048px" style="shape-rendering:geometricPrecision; text-rendering:geometricPrecision; image-rendering:optimizeQuality; fill-rule:evenodd; clip-rule:evenodd"
viewBox="0 0 2048 2048"
 xmlns:xlink="http://www.w3.org/1999/xlink"
 xmlns:svg="http://www.w3.org/2000/svg"
 version="1.0">
 <defs>
  <style type="text/css">
   <![CDATA[
    .fil4 {fill:none}
    .fil3 {fill:#212121}
    .fil1 {fill:#424242}
    .fil2 {fill:#616161}
    .fil0 {fill:#757575}
   ]]>
  </style>
 </defs>
 <g id="Layer_x0020_1">
  <metadata id="CorelCorpID_0Corel-Layer"/>
  <g id="_406728992">
   <path id="path4172" class="fil0" d="M890.032 869.994c39.45,-38.9681 85.0973,-159.076 161.633,-179.622 -0.383859,-14.9209 -13.4504,-60.0993 -10.4315,-79.3442 -3.68032,-39.7843 22.0004,-93.8694 69.065,-86.0812 32.2736,2.51811 67.0749,-5.8193 98.0894,4.0063 13.6051,4.57205 14.1425,22.428 25.1906,28.024 9.73465,16.6642 16.0099,36.6083 16.1811,56.2182 3.32717,13.7114 -13.6228,21.8646 -7.34056,34.0323 4.40788,12.8847 -8.81694,28.2721 1.6689,37.8685 4.68071,18.3862 25.9453,20.5725 36.7004,34.5307 14.2725,-1.07835 25.9713,6.99213 39.202,9.50788 16.5201,12.228 30.5362,29.4532 38.3681,48.7146 11.4437,10.2 22.7351,21.8858 26.6906,37.0323 2.36457,26.2725 27.828,39.7607 38.537,62.8902 5.27717,19.3358 11.3291,38.7048 20.1862,56.2205 6.98741,11.6209 16.7728,23.5973 23.1862,35.6988 11.5016,20.7862 28.9654,40.7398 33.365,64.7268 7.3689,11.126 5.7189,27.104 15.1807,36.3674 10.9299,21.1642 12.2244,48.8587 29.6929,65.8926 16.5402,8.60079 18.5587,26.2465 18.3508,42.3709 2.13425,18.0933 3.40158,49.9288 -21.352,51.8835 -9.13111,-3.79725 -17.4756,-7.79528 -26.191,-12.5126 -7.85434,-21.7217 -27.3437,-38.0906 -36.2008,-59.7213 -10.1882,-12.8917 -16.0595,-28.2071 -29.5276,-39.202 -13.9134,-12.6945 -23.0043,-29.2063 -31.6949,-45.2091 -9.7441,-22.1988 -27.326,-40.4551 -36.867,-62.7249 1.70669,-17.1378 -12.8008,-28.5189 -17.3492,-43.2048 -13.7752,-10.213 -23.204,-24.3414 -34.1988,-37.5355 -4.60866,16.3725 -14.5028,33.8209 -2.16969,50.0457 13.2945,85.5981 37.4788,88.9902 57.8882,149.471 2.93858,17.2288 7.22127,34.9382 24.8575,44.2075 25.9819,31.0914 53.8914,61.9878 82.0725,91.4174 14.55,0.88819 28.3181,10.3772 34.8662,24.0225 13.7622,1.97717 24.6969,15.0118 38.5347,17.1815 40.787,43.278 77.641,69.3201 125.117,122.947 20.3256,12.1488 24.9036,38.1981 45.541,50.2146 15.4288,-4.36181 25.2591,7.8189 32.1969,19.5166 12.9106,6.16772 14.289,21.098 26.8595,26.8583 16.3961,10.4953 39.013,23.5795 40.2024,46.878 -3.80551,19.5508 -33.2599,23.7591 -50.8807,18.5162 -16.3016,8.47796 -38.4048,10.1847 -55.05,1.6689 -3.94252,-9.77009 -10.0347,-16.4858 -13.3441,-25.8567 -24.5882,-29.6752 -53.0894,-57.5209 -82.5768,-83.2442 -22.7221,-13.2201 -42.339,-31.7457 -65.0599,-43.8744 -10.6949,-13.7788 -130.819,-78.4371 -160.648,-94.0867 -37.7244,-21.6862 -73.3784,-42.9922 -110.102,-65.5595 -32.8914,-8.60198 -61.4032,-35.4674 -97.9229,-29.3599 -47.426,1.48819 -93.4867,13.865 -140.464,20.3504 -27.3496,6.73111 -55.5745,10.9146 -84.9119,6.50788 -10.2697,5.0315 -24.8398,4.11733 -31.6973,14.1791 -4.49292,35.6977 -0.719292,74.3587 -19.1823,106.097 -10.8366,39.2268 -18.691,79.5745 -24.3567,119.778 11.3433,23.413 13.5992,50.7756 14.1791,77.0694 2.91851,22.161 -23.2252,15.9402 -38.0339,16.8496 -31.1575,-2.28307 -65.1355,7.68308 -94.9194,-2.00197 -29.5666,-6.72756 -65.2902,19.3984 -91.0855,-4.67126 -15.2032,-22.8083 14.2193,-48.3768 37.3677,-47.0433 19.9477,-17.5583 44.224,-31.1386 64.3926,-49.0465 4.73268,-8.60906 11.4921,-24.8823 25.5248,-20.5181 9.00355,-36.8622 7.49528,-75.3461 9.5067,-113.437 -0.598819,-43.9642 13.6677,-85.1068 14.3469,-128.785 -2.86299,-27.4051 9.50788,-55.7481 35.0315,-68.3977 20.6185,-4.4067 35.3221,-18.1075 55.7197,-23.3528 44.4496,-22.6441 95.2985,-31.4138 143.633,-43.5437 17.0126,-0.420473 -1.51299,-18.0118 -5.83819,-24.6886 -21.8067,-22.6618 -9.0756,-121.856 -11.2973,-162.815 -2.91733,-36.9319 0.333071,-59.9339 -7.55434,-95.9233 -36.7252,-23.0528 -104.304,164.917 -146.267,138.558l-14.6102 -96.9568z"/>
   <path id="path4172_0" class="fil1" d="M641.468 850.468c-376.81,-365.411 -352.721,-333.728 -429.32,-418.827 -11.1284,14.6799 313.594,325.447 415.754,430.399l0 -2.70827 13.5662 -8.863z"/>
   <path id="path4172_1" class="fil0" d="M620.488 914.852c4.21063,2.80158 9.62835,-4.43032 14.4744,-6.32835 19.2354,7.62756 39.5398,20.4862 62.3871,19.7303 32.9469,13.7788 70.0087,12.75 104.508,21.0378 24.0449,6.15355 66.9237,12.626 98.8749,17.2288 52.0819,7.50945 31.8414,-62.126 59.863,-106.031 -14.9256,-3.08622 -29.9221,-5.42599 -45.5138,-4.73977 -12.3284,-3.62008 -19.6736,9.64725 -31.6843,9.01182 -22.7185,-11.7154 -48.0272,2.54528 -72.0756,-0.212599 -16.5626,-4.94882 -32.8866,2.02087 -50.3681,0.379134 -24.7713,11.1024 -44.1981,-12.3 -61.2426,-26.8099 -4.83307,-12.3059 -16.7516,-19.9878 -30.4205,-19.5414 -12.9638,4.4563 -28.3158,7.53308 -39.8185,15.5268l0 5.52756 -10.8886 8.86182 -2.99646 0 0.427559 0.440552c-19.0299,15.776 -19.9831,47.993 1.85669,62.1579 0.839764,1.90158 1.64528,3.11457 2.61732,3.76063z"/>
   <path id="_406728896" class="fil1" d="M579.838 891.066c-9.83977,-13.5425 -6.1252,-50.8949 17.9799,-72.9048 24.1051,-22.0099 59.7922,-20.6339 72.3863,-9.60709l-90.3662 82.5119z"/>
   <path id="path4172_2" class="fil2" d="M1386.66 1134.67c1.23425,6.55867 2.80866,13.0807 5.38583,19.0713 -115.357,-43.7599 -217.974,-17.4839 -309.425,-45.6886 0.595276,-4.53071 -6.05434,-12.1807 -10.3087,-17.5075 104.671,15.0803 217.747,2.53465 314.348,44.1248z"/>
   <ellipse id="_406728488" class="fil1" cx="1092.25" cy="626.343" rx="56.5842" ry="100.378"/>
   <path id="_406728632" class="fil3" d="M835.025 1512.31c-14.139,-6.71575 -17.0291,-17.6823 -17.4791,-23.7307 -0.0602363,0.252756 -0.122835,0.506693 -0.184252,0.760631 -14.0327,-4.36418 -20.791,11.9091 -25.5248,20.5181 -20.1685,17.9067 -44.4449,31.4894 -64.3926,49.0465 -23.1473,-1.33465 -52.5697,24.2351 -37.3677,47.0433 25.7953,24.0697 61.5189,-2.0563 91.0855,4.67126 29.7839,9.68505 63.763,-0.281103 94.9205,2.00079 14.8075,-0.908268 40.9512,5.3126 38.0327,-16.8484 -0.579922,-26.2937 -2.83465,-53.6563 -14.1791,-77.0694 0.034252,-0.244488 0.0696851,-0.491339 0.103937,-0.737008 -2.62559,1.65236 -5.10945,3.10866 -6.97678,3.99331 -6.87284,3.25748 -37.7221,0 -58.0382,-9.64843z"/>
   <path id="_406729112" class="fil3" d="M1718.39 1505.07c-15.6827,7.44922 -37.6429,11.087 -50.0044,10.8614 17.1626,16.6063 33.5374,33.9532 48.4701,51.9744 3.30827,9.37087 9.4004,16.0866 13.3441,25.8567 16.6453,8.51575 38.7473,6.80906 55.05,-1.6689 17.6197,5.24292 47.0741,1.03465 50.8796,-18.5173 -1.18937,-23.2973 -23.8063,-36.3815 -40.2024,-46.878 -12.5705,-5.76024 -13.9476,-20.6894 -26.8595,-26.8583 -6.9378,-11.6965 -16.7669,-23.8784 -32.1969,-19.5142 -0.315355,-0.183071 -0.625985,-0.369685 -0.93189,-0.558662 -0.0755906,5.51339 -2.07638,17.954 -17.5488,25.3028z"/>
   <path id="_406728872" class="fil2" d="M1148.83 626.343c0,55.4363 -25.3335,100.378 -56.5843,100.378 -1.12205,0 -2.23583,-0.0590552 -3.34134,-0.172441 55.0926,21.5126 40.7788,38.2583 51.4252,100.592 19.9914,-105.463 -0.440552,-86.7544 97.956,-125.496l10.6028 -6.96024c-2.15197,-2.66811 -3.83386,-5.7815 -4.80355,-9.59056 -10.4858,-9.59528 2.73898,-24.9839 -1.6689,-37.8685 -6.28229,-12.1654 10.6677,-20.3197 7.34056,-34.0311 -0.17126,-19.6099 -6.44646,-39.5551 -16.1823,-56.2182 -11.0469,-5.59607 -11.5843,-23.452 -25.1894,-28.024 -31.0146,-9.82678 -65.8158,-1.48937 -98.0894,-4.0063 -8.69883,-1.43976 -16.6665,-0.765355 -23.8536,1.54134 1.90866,-0.344882 3.84331,-0.522048 5.80394,-0.522048 31.2508,0 56.5843,44.941 56.5843,100.377z"/>
  </g>
  <rect class="fil4" width="2048" height="2048"/>
 </g>
</svg>
