<?xml version="1.0" encoding="UTF-8"?>
<!DOCTYPE svg PUBLIC "-//W3C//DTD SVG 1.1//EN" "http://www.w3.org/Graphics/SVG/1.1/DTD/svg11.dtd">
<!-- Creator: CorelDRAW -->
<svg xmlns="http://www.w3.org/2000/svg" xml:space="preserve" width="2048px" height="2048px" style="shape-rendering:geometricPrecision; text-rendering:geometricPrecision; image-rendering:optimizeQuality; fill-rule:evenodd; clip-rule:evenodd"
viewBox="0 0 2048 2048"
 xmlns:xlink="http://www.w3.org/1999/xlink">
 <defs>
  <style type="text/css">
   <![CDATA[
    .fil4 {fill:none}
    .fil2 {fill:#CD2C04}
    .fil0 {fill:#DD2C00}
    .fil3 {fill:#ECE9E9}
    .fil1 {fill:white}
   ]]>
  </style>
 </defs>
 <g id="Layer_x0020_1">
  <metadata id="CorelCorpID_0Corel-Layer"/>
  <g id="_357758456">
   <path id="_357758240" class="fil0" d="M1024 255.999c424.155,0 768.001,343.845 768.001,768.001 0,424.155 -343.845,768.001 -768.001,768.001 -424.155,0 -768.001,-343.845 -768.001,-768.001 0,-424.155 343.845,-768.001 768.001,-768.001z"/>
   <path id="_357758144" class="fil1" d="M1792 1024c0,7.36064 -0.127559,14.6906 -0.333071,22.0016l-745.666 0 0 244.09 9.3815 0.581103c83.6575,5.17678 163.521,30.874 236.646,71.315 75.2375,41.6079 142.394,98.2642 199.089,162.882 1.67244,1.9063 41.1355,45.9603 55.3867,61.9229 -10.6949,9.93426 -21.6484,19.5957 -32.8973,28.9134 -14.498,-16.2662 -55.3536,-61.8827 -57.6768,-64.5071 -52.8461,-59.7119 -115.205,-112.127 -184.975,-150.712 -66.2351,-36.6296 -138.549,-60.2906 -214.251,-65.6292l-10.7032 -0.754725 0 457.564c-7.31103,0.205512 -14.641,0.333071 -22.0016,0.333071 -7.36064,0 -14.6906,-0.127559 -22.0016,-0.333071l0 -457.564 -10.7032 0.754725c-75.7016,5.33859 -148.016,28.9996 -214.251,65.6292 -70.6713,39.1264 -131.399,92.2607 -186.963,153.249 -1.55197,1.70315 -34.4658,43.1977 -51.8977,65.0682 -11.3185,-9.25631 -22.3689,-18.828 -33.1359,-28.7044 17.4473,-21.9508 50.7461,-63.9934 52.3937,-65.8678 56.5772,-64.3524 123.54,-120.774 198.529,-162.245 73.1245,-40.441 152.988,-66.1382 236.646,-71.315l9.3815 -0.581103 0 -244.09 -745.666 0c-0.205512,-7.31103 -0.333071,-14.641 -0.333071,-22.0016 0,-7.36064 0.127559,-14.6906 0.333071,-22.0016l745.666 0 0 -244.09 -9.3815 -0.581103c-83.6575,-5.17678 -163.521,-30.874 -236.646,-71.315 -74.9894,-41.4709 -141.952,-97.8922 -198.529,-162.245 -1.64764,-1.87441 -34.9465,-43.917 -52.3937,-65.8678 10.7669,-9.87639 21.8173,-19.448 33.1359,-28.7044 17.4319,21.8705 50.3457,63.365 51.8977,65.0682 55.5638,60.9886 116.291,114.123 186.963,153.249 66.2351,36.6296 138.549,60.2906 214.251,65.6292l10.7032 0.754725 0 -457.564c7.31103,-0.205512 14.641,-0.333071 22.0016,-0.333071 7.36064,0 14.6906,0.127559 22.0016,0.333071l0 457.564 10.7032 -0.754725c75.7016,-5.33859 148.016,-28.9996 214.251,-65.6292 69.7701,-38.5855 132.129,-91.0005 184.975,-150.712 2.32323,-2.62441 43.1788,-48.241 57.6768,-64.5071 11.2488,9.31772 22.2024,18.9791 32.8973,28.9134 -14.2512,15.9626 -53.7142,60.0166 -55.3867,61.9229 -56.6953,64.6182 -123.852,121.275 -199.089,162.882 -73.1245,40.441 -152.988,66.1382 -236.646,71.315l-9.3815 0.581103 0 244.09 745.666 0c0.205512,7.31103 0.333071,14.641 0.333071,22.0016z"/>
  </g>
  <g id="_357757448">
   <path id="_357757520" class="fil2" d="M1024 255.999c424.155,0 768.001,343.845 768.001,768.001 0,424.155 -343.845,768.001 -768.001,768.001l-0.00236221 0 0 -1536 0.00236221 0z"/>
   <path id="_357757328" class="fil3" d="M1792 1024c0,7.36064 -0.127559,14.6906 -0.333071,22.0016l-745.666 0 0 244.09 9.3815 0.581103c83.6575,5.17678 163.521,30.874 236.646,71.315 75.2375,41.6079 142.394,98.2642 199.089,162.882 1.67244,1.9063 41.1355,45.9603 55.3867,61.9229 -10.6949,9.93426 -21.6484,19.5957 -32.8973,28.9134 -14.498,-16.2662 -55.3536,-61.8827 -57.6768,-64.5071 -52.8461,-59.7119 -115.205,-112.127 -184.975,-150.712 -66.2351,-36.6296 -138.549,-60.2906 -214.251,-65.6292l-10.7032 -0.754725 0 457.564c-7.31103,0.205512 -14.641,0.333071 -22.0016,0.333071l-0.00236221 0 0 -1536 0.00236221 0c7.36064,0 14.6906,0.127559 22.0016,0.333071l0 457.564 10.7032 -0.754725c75.7016,-5.33859 148.016,-28.9996 214.251,-65.6292 69.7701,-38.5855 132.129,-91.0005 184.975,-150.712 2.32323,-2.62441 43.1788,-48.241 57.6768,-64.5071 11.2488,9.31772 22.2024,18.9791 32.8973,28.9134 -14.2512,15.9626 -53.7142,60.0166 -55.3867,61.9229 -56.6953,64.6182 -123.852,121.275 -199.089,162.882 -73.1245,40.441 -152.988,66.1382 -236.646,71.315l-9.3815 0.581103 0 244.09 745.666 0c0.205512,7.31103 0.333071,14.641 0.333071,22.0016z"/>
  </g>
  <rect class="fil4" width="2048" height="2048"/>
 </g>
</svg>
