<?xml version="1.0" encoding="UTF-8"?>
<!DOCTYPE svg PUBLIC "-//W3C//DTD SVG 1.1//EN" "http://www.w3.org/Graphics/SVG/1.1/DTD/svg11.dtd">
<!-- Creator: CorelDRAW -->
<svg xmlns="http://www.w3.org/2000/svg" xml:space="preserve" width="2048px" height="2048px" style="shape-rendering:geometricPrecision; text-rendering:geometricPrecision; image-rendering:optimizeQuality; fill-rule:evenodd; clip-rule:evenodd"
viewBox="0 0 2048 2048"
 xmlns:xlink="http://www.w3.org/1999/xlink">
 <defs>
  <style type="text/css">
   <![CDATA[
    .fil6 {fill:none}
    .fil3 {fill:#0F90D6}
    .fil1 {fill:#10A1E8}
    .fil2 {fill:#039BE5;fill-rule:nonzero}
    .fil0 {fill:#29B6F6;fill-rule:nonzero}
    .fil5 {fill:#40C4FF;fill-rule:nonzero}
    .fil4 {fill:#FF6D00;fill-rule:nonzero}
   ]]>
  </style>
 </defs>
 <g id="Layer_x0020_1">
  <metadata id="CorelCorpID_0Corel-Layer"/>
  <path class="fil0" d="M1227.56 609.377c103.317,194.801 188.718,478.405 223.334,615.506l9.19371 36.4158 -37.5685 3.21024 -461.308 39.404 -33.6898 2.87717 -0.811418 -34.0028 -17.4354 -938.67c-1.11496,-7.32402 -0.529134,-14.7532 1.57087,-21.6496 2.61024,-8.55119 7.50473,-16.3417 14.374,-22.2638 7.38898,-6.36378 16.2579,-10.0642 25.4516,-10.9819 9.20198,-0.922442 18.6343,1.00748 27.1394,5.89843 81.6627,47.0989 170.457,174.751 249.75,324.257z"/>
 </g>
 <g id="Layer_x0020_1_0">
  <metadata id="CorelCorpID_1Corel-Layer"/>
  <path class="fil1" d="M909.276 334.118l17.4354 938.67 0.811418 34.0028 33.6898 -2.87717 128.896 -11.0102c-15.7004,-310.53 -12.3874,-603.219 -134.832,-1013.9 -1.5378,-0.00472441 -3.07441,0.0696851 -4.60394,0.223229 -9.19371,0.917717 -18.0626,4.61811 -25.4516,10.9819 -6.8693,5.92205 -11.7638,13.7126 -14.374,22.2638 -2.1,6.89646 -2.68583,14.3256 -1.57087,21.6496z"/>
  <g id="_35088376">
   <path id="_35087920" class="fil2" d="M892.318 548.521l2.32914 762.728 0.200788 30.1748 -30.2103 2.57599 -286.174 24.3957 -35.2866 3.00709 1.54016 -35.5075c3.25512,-75.078 30.5032,-353.559 95.1379,-532.763 41.1024,-113.955 98.4709,-221.307 177.045,-288.04 6.73701,-5.71418 14.7154,-9.31064 23.0575,-10.6476 8.3693,-1.33701 17.0185,-0.317717 25.0571,3.20315l0.125197 0c7.6689,3.37914 14.1047,8.8004 18.8138,15.561 4.44449,6.37796 7.32993,13.9984 8.18623,22.187l0.178347 3.1252z"/>
   <path id="_35087992" class="fil3" d="M864.962 507.625c-103.586,314.313 -93.593,499.976 -96.6497,812.866l126.33 -10.7693 -2.32441 -761.201 -0.178347 -3.1252c-0.8563,-8.18859 -3.74174,-15.8091 -8.18623,-22.187 -4.70906,-6.76064 -11.1449,-12.1819 -18.8138,-15.561l-0.125197 0c-0.0177165,-0.00708662 -0.034252,-0.0153543 -0.0519685,-0.022441z"/>
  </g>
  <path class="fil4" d="M1739.55 1242.15c6.40512,2.47795 12.2362,6.35788 17.0421,11.4662l0.125197 0.125197c4.52717,4.85315 7.97363,10.6512 10.1705,16.9512 2.14252,6.14174 3.08032,12.685 2.65748,19.2059 -3.73937,58.0217 -65.7638,111.362 -150.157,158.397 -77.328,43.0985 -174.334,82.4316 -258.933,114.546l0.0153543 0.0413386c-2.67166,1.01811 -5.64095,1.8 -8.85709,2.3315 -2.89134,0.475985 -5.88544,0.661418 -8.93859,0.54567 -2.47323,-0.0944883 -4.40315,-0.157087 -5.78622,-0.184252l0 -0.00236221c-2.01851,-0.0354331 0.355512,0.0673229 -5.62441,0.0673229 -45.8563,0 -78.2197,14.6339 -109.215,28.6477 -34.5898,15.6402 -67.7823,30.6484 -115.391,30.6484 -48.9083,0 -81.8918,-15.1583 -116.164,-30.9071 -30.2681,-13.9099 -61.7741,-28.389 -108.431,-28.389 -48.952,0 -78.4678,14.4307 -106.617,28.1941 -26.8878,13.1457 -52.7788,25.8047 -90.6272,29.6634 -42.678,4.35237 -159.773,-29.7331 -254.576,-76.1505 -75.5256,-36.978 -139.784,-83.6883 -150.614,-129.97 -1.49291,-6.35788 -1.66299,-12.9319 -0.584646,-19.2732 1.09488,-6.45945 3.5126,-12.7394 7.17166,-18.3756 3.7937,-5.83583 8.71418,-10.6536 14.3563,-14.1933 5.95276,-3.73347 12.7453,-6.09331 19.9347,-6.79607l0.37441 -0.125197 1398.35 -119.445 0.00708662 0.0897638c6.9626,-0.617717 13.8839,0.401575 20.3162,2.89134z"/>
  <path class="fil5" d="M432.881 1700.43c-17.6728,0 -32.0008,-14.328 -32.0008,-32.0008 0,-17.6728 14.328,-32.0008 32.0008,-32.0008 54.8304,0 79.1316,12.8256 109.905,29.067l0.0141732 0.00708662c38.4851,20.3327 76.6949,30.4996 114.672,30.4996 37.9796,0 76.1894,-10.1669 114.677,-30.4996 37.2945,-19.6819 73.3229,-29.5299 109.905,-29.5323 36.5835,-0.0011811 72.6107,9.84095 109.906,29.5323 38.6504,20.4095 76.8674,30.6201 114.691,30.6213 37.8237,0.0011811 76.0371,-10.2036 114.682,-30.6213 37.3051,-19.6984 73.3371,-29.537 109.923,-29.5323 36.587,0.00472441 72.6178,9.85631 109.923,29.5323 14.0185,7.40552 28.9725,15.3012 46.3713,20.8252 17.4425,5.53819 39.0933,9.38032 68.3197,9.38032 17.6728,0 32.0008,14.328 32.0008,32.0008 0,17.6728 -14.328,32.0008 -32.0008,32.0008 -36.0201,0 -64.0831,-5.17323 -87.5694,-12.6307 -23.5347,-7.47166 -40.7433,-16.5579 -56.8713,-25.0772 -28.1445,-14.8441 -54.4418,-22.2768 -80.1733,-22.2803 -25.7327,-0.00354331 -52.03,7.41969 -80.1733,22.2803 -47.7981,25.2544 -95.9233,37.8756 -144.431,37.8733 -48.5067,-0.00236221 -96.6367,-12.6307 -144.441,-37.8733 -28.1374,-14.8559 -54.4288,-22.2803 -80.1568,-22.2803 -25.7268,0.0011811 -52.0193,7.4315 -80.1556,22.2803 -47.9552,25.3347 -96.078,38.002 -144.426,38.002 -48.3437,0 -96.4619,-12.665 -144.411,-37.9961l-0.0248032 -0.0129921c-22.8319,-12.0496 -40.8603,-21.5646 -80.1556,-21.5646zm1123.58 -91.0383c17.6728,0 32.0008,14.328 32.0008,32.0008 0,17.6728 -14.328,32.0008 -32.0008,32.0008 -26.7307,0 -46.9311,-3.27402 -64.6737,-8.68465 -17.7496,-5.41418 -31.1528,-12.2917 -45.8445,-20.0551 -38.6859,-20.4047 -76.8827,-30.613 -114.687,-30.6142 -37.8071,0 -76.0028,10.2024 -114.691,30.6142 -37.4398,19.7799 -73.4764,29.6729 -109.91,29.6729 -36.4311,0 -72.4678,-9.89174 -109.913,-29.6729 -38.68,-20.3988 -76.8792,-30.6118 -114.684,-30.6142 -37.8048,-0.00236221 -76.0005,10.2024 -114.676,30.6307 -37.2862,19.6819 -73.3217,29.5311 -109.913,29.5323l0 0.125197c-36.4335,0 -72.4701,-9.88702 -109.904,-29.674l-0.0283465 -0.0153543 -0.218504 -0.115748 -0.00354331 0.00708662 -0.0283465 -0.0153543 -0.316536 -0.175984c-26.6729,-14.074 -57.0579,-29.8949 -114.091,-29.8949 -17.6728,0 -32.0008,-14.328 -32.0008,-32.0008 0,-17.6728 14.328,-32.0008 32.0008,-32.0008 72.5445,0 110.493,19.8024 143.823,37.389 0.279921,0.140551 0.557481,0.283465 0.83504,0.432284l0.0283465 0.0153543 -0.00354331 0.00590552c27.8776,14.6965 54.091,22.0417 79.9075,22.0417l0 0.125197c25.7339,0 52.0335,-7.4315 80.1638,-22.2803 47.8323,-25.265 95.9363,-37.8862 144.425,-37.8827 48.4855,0.00354331 96.5906,12.6343 144.434,37.8662 27.9768,14.7791 54.2705,22.1705 80.1638,22.1705 25.8921,0 52.1859,-7.39134 80.1603,-22.1705 47.8524,-25.2473 95.9552,-37.8674 144.441,-37.8662 48.4843,0.00236221 96.5883,12.6284 144.437,37.8662 12.1051,6.39686 22.9925,12.0165 34.5957,15.5551 11.6091,3.53977 25.8343,5.68229 46.1729,5.68229z"/>
  <rect class="fil6" width="2048" height="2048"/>
 </g>
</svg>
