<?xml version="1.0" encoding="UTF-8"?>
<!DOCTYPE svg PUBLIC "-//W3C//DTD SVG 1.1//EN" "http://www.w3.org/Graphics/SVG/1.1/DTD/svg11.dtd">
<!-- Creator: CorelDRAW -->
<svg xmlns="http://www.w3.org/2000/svg" xml:space="preserve" width="2048px" height="2048px" style="shape-rendering:geometricPrecision; text-rendering:geometricPrecision; image-rendering:optimizeQuality; fill-rule:evenodd; clip-rule:evenodd"
viewBox="0 0 2048 2048"
 xmlns:xlink="http://www.w3.org/1999/xlink">
 <defs>
  <style type="text/css">
   <![CDATA[
    .fil8 {fill:none}
    .fil1 {fill:#121111}
    .fil2 {fill:#212121}
    .fil5 {fill:#3E2723}
    .fil4 {fill:#583C33}
    .fil3 {fill:#5D4037}
    .fil6 {fill:#8D6E63}
    .fil7 {fill:black;fill-rule:nonzero}
    .fil0 {fill:#3E2723;fill-rule:nonzero}
   ]]>
  </style>
 </defs>
 <g id="Layer_x0020_1">
  <metadata id="CorelCorpID_0Corel-Layer"/>
  <g id="_357752768">
   <path id="_357755264" class="fil0" d="M957.568 756.33c7.32993,5.71654 14.9811,11.7957 22.6819,18.0437l-0.00826772 0.00944883c7.4126,6.03544 12.0413,15.3225 11.7591,25.6158 -0.483071,17.6043 -34.1977,-6.45945 -51.802,-6.94253 -14.8288,-0.440552 -25.4634,-0.0956694 -34.813,2.00197 -8.97284,2.01378 -18.313,6.09449 -31.0536,13.2248 -20.6398,11.5677 -45.8552,22.9311 -75.0556,31.363 -23.7803,6.86457 -50.0174,11.7024 -78.2882,12.9874 -8.03859,0.540945 -16.2874,-1.93937 -22.8933,-7.59095 -13.3925,-11.4591 -14.9599,-31.6075 -3.50079,-45 24.9414,-29.1166 49.8331,-58.3536 74.2619,-87.8977l0.046063 0.0389764 0.453544 -0.538583c21.5445,-24.9166 43.1221,-38.2925 69.7489,-39.4453 78.6119,-3.40985 85.9524,58.7811 118.463,84.13z"/>
   <path id="_357754352" class="fil1" d="M736.012 1358.11l-3.10866 12.9815c-2.61378,10.9063 -9.14764,20.491 -17.589,27.1666 -8.55709,6.76772 -19.3973,10.9559 -30.4772,10.9559l-54.3508 0c-11.0882,0 -21.9213,-4.18819 -30.4784,-10.9524 -8.44135,-6.67323 -14.9717,-16.2579 -17.5925,-27.1701l-4.37126 -18.254 157.968 5.27244z"/>
   <path id="_357754736" class="fil1" d="M897.382 1363.49l-2.19095 9.14056c-2.61142,10.8992 -9.14646,20.4933 -17.5914,27.1748 -8.55473,6.7689 -19.3937,10.9583 -30.4796,10.9583l-54.3449 0c-11.0929,0 -21.9272,-4.18937 -30.476,-10.9559 -8.44253,-6.67796 -14.974,-16.2697 -17.5961,-27.1772l-3.43819 -14.3516 156.117 5.21103z"/>
   <path id="_357754808" class="fil1" d="M1636.34 1345.49l-10.3984 43.4126c-2.62323,10.9087 -9.15473,20.4957 -17.5949,27.1736 -8.55827,6.76536 -19.3902,10.9547 -30.4772,10.9547l-54.3508 0c-11.0823,0 -21.9213,-4.18583 -30.4796,-10.9547 -8.44016,-6.67796 -14.9728,-16.2626 -17.5914,-27.1736l-5.56654 -23.2347 -1.65118 0.129921 -5.53465 23.1047c-2.62323,10.9087 -9.15473,20.4957 -17.5949,27.1736 -8.55827,6.76536 -19.3902,10.9547 -30.4772,10.9547l-54.3508 0c-11.0858,0 -21.9201,-4.18819 -30.4772,-10.9559 -8.44016,-6.6756 -14.974,-16.2626 -17.5937,-27.1725l-3.78071 -15.7819 -3.61181 0.0661418 -4.40315 0.0755906 -4.11851 17.1862c-2.62323,10.9075 -9.15473,20.4969 -17.5949,27.1748 -8.55591,6.763 -19.389,10.9536 -30.4772,10.9536l-54.3449 0c-11.0823,0 -21.926,-4.18819 -30.4831,-10.9559 -8.44489,-6.6815 -14.9799,-16.265 -17.5878,-27.1725l-4.27796 -17.8547 -1.76339 -0.0401575c186.125,0.793701 322.688,-1.60276 496.582,-27.0638z"/>
   <path id="_357754784" class="fil2" d="M1791.8 1254.15l-0.00708662 10.7587c-0.00826772,11.3421 -4.06536,22.6252 -10.6252,31.6335 -6.65434,9.12993 -16.1847,16.4894 -27.0532,19.8685l-0.011811 -0.0366142 -0.112205 0.0366142c-10.5461,3.27756 -21.9,6.57756 -34.0418,9.89528 -12.5008,3.41693 -23.5642,6.27284 -33.2103,8.57835l-1.29921 0.338977c-9.5067,2.25473 -21.1311,4.77638 -34.6134,7.53071 -4.94882,1.01102 -9.62481,1.94646 -14.0374,2.80866l-0.0295276 0.120473 -0.420473 1.75984c-173.894,25.461 -310.457,27.8575 -496.582,27.0638l-0.0519685 -0.0011811 -242.322 -9.06142 -156.117 -5.21103 -0.210236 -0.87756 -3.11103 -0.0944883 -1.72914 -0.0519685 -0.20315 0.848032 -157.968 -5.27244 -0.0248032 -0.101575 -5.61733 -0.173622 -0.314173 -0.00590552 -4.86733 -0.153543 -0.0177165 0.0732284 -176.698 -5.89843 176.698 5.89843 -176.698 -5.89843 -17.4992 -0.601182 -8.80512 -0.304725c-11.6445,-0.408662 -22.8862,-5.00315 -31.6158,-12.1051 -8.72835,-7.10197 -15.5185,-17.1437 -18.2858,-28.4599 -0.509056,-2.08937 -3.24685,-13.076 -5.09292,-20.4709 859.384,39.6579 1300.32,22.2496 1482.59,-32.4331z"/>
   <path id="_357754376" class="fil3" d="M933.79 779.608c18.3059,-1.00039 36.6969,1.6689 53.6906,9.41694l0.0165354 0.046063c10.6063,28.7362 68.5052,106.929 228.505,170.928 135.274,54.1087 150.932,25.5236 256.413,41.5725 126.958,19.3146 248.227,37.7646 304.186,139.722 4.32402,7.8815 8.31733,17.4803 11.0705,27.1382 2.58662,9.07087 4.20827,18.8268 4.20473,28.2095l-0.0425197 37.1646 -0.0200788 15.1158 -0.0129921 10.4622c-161.661,74.406 -611.448,82.1658 -1481.25,32.5949l-0.4063 -1.62756 -6.23386 -24.9461c-6.27638,-25.1091 -12.5539,-50.2158 -18.763,-77.3422l-3.24685 -14.0882c-12.6567,-54.7725 -25.9866,-112.454 -25.7752,-170.992 0.0248032,-7.96182 0.564567,-16.0854 1.58032,-24.1878 5.59843,-44.6126 25.7244,-110.823 54.652,-165.628 32.126,-60.8623 76.6099,-109.399 129.128,-109.23 2.31969,0.00708662 4.65118,0.109843 6.99331,0.309449 1.12205,0.0188977 2.25473,0.0944883 3.39331,0.233858 21.6201,2.70945 38.7863,18.9945 61.7941,40.8272 28.8981,27.4205 70.0973,66.5126 130.117,84.8032 33.7701,10.285 70.6548,10.9358 105.207,6.46418 47.1012,-6.09567 88.9902,-21.515 113.189,-35.2146 20.6114,-11.6882 46.0973,-20.3587 71.6091,-21.7524z"/>
   <path id="_357754160" class="fil4" d="M987.498 789.075c-15.1276,-7.29804 -31.891,-10.6595 -53.7083,-9.46654 -25.5118,1.3937 -50.9977,10.0642 -71.6091,21.7524 0,0 1.82008,94.6394 97.8202,158.639 96.0001,63.9993 448.001,128 448.001,128 0,0 277.647,64.4741 320,96.0001 30.9733,23.0551 50.7615,55.6642 59.1591,71.5217 0.983859,1.85906 1.81181,3.4878 2.48268,4.8437 0.725197,-0.324803 1.44331,-0.651969 2.15669,-0.980316l0 -5.23111 0.0129921 -5.23111 0.0200788 -15.1158 0.0425197 -37.1646c0.00354331,-9.38268 -1.61811,-19.1386 -4.20473,-28.2095 -2.75315,-9.65788 -6.74646,-19.2567 -11.0705,-27.1382 -55.9595,-101.958 -177.228,-120.408 -304.186,-139.722 -52.4563,-7.9819 -42.58,-0.473622 -87.1654,-0.357874 -32.1544,0.0826772 -85.7434,-7.81418 -169.247,-41.2146 -159.992,-63.9969 -217.893,-142.186 -228.503,-170.925z"/>
   <path id="_357753920" class="fil2" d="M1139.7 1374.51c-74.7756,-1.70197 -148.252,-4.92993 -221.726,-8.15788l-20.5961 -0.903544 242.322 9.06142z"/>
   <path id="_357753560" class="fil1" d="M390.505 1346.57l176.698 5.89843 -3.71811 15.5185c-2.62087,10.911 -9.15355,20.4969 -17.5937,27.1689 -8.56182,6.76536 -19.3996,10.9524 -30.4784,10.9524l-54.3508 0c-11.0858,0 -21.9225,-4.18583 -30.4784,-10.9512 -8.44135,-6.67323 -14.9717,-16.2579 -17.5925,-27.1701l-4.98662 -20.8158 -17.4992 -0.601182z"/>
   <path id="_357753752" class="fil4" d="M417.57 1296.71c-62.4308,-143.286 -65.5689,-400.715 -1.56969,-528.715 13.8662,-27.7335 27.7335,-47.9552 40.9489,-62.6197 -1.66654,-0.382677 -3.3567,-0.683859 -5.0752,-0.89882 -1.13858,-0.13937 -2.27126,-0.214961 -3.39331,-0.233858 -2.34213,-0.199606 -4.67363,-0.302362 -6.99331,-0.309449 -52.5178,-0.168898 -97.0016,48.3674 -129.128,109.23 -28.9276,54.8056 -49.0536,121.016 -54.652,165.628 -1.01575,8.10237 -1.55551,16.226 -1.58032,24.1878 -0.211417,58.5378 13.1185,116.219 25.7752,170.992l3.24685 14.0882c6.20906,27.1264 12.4866,52.2331 18.763,77.3422l6.23386 24.9461 0.4063 1.62756c36.4229,1.68071 72.091,3.25866 107.017,4.73504z"/>
   <path id="_357753896" class="fil5" d="M736.001 960c88.904,133.321 290.679,171.461 384,192 107.685,23.7 197.437,73.963 288,128l-224.001 0c-98.4213,-119.596 -379.616,-87.4642 -448,-320z"/>
   <path id="_357753440" class="fil6" d="M639.305 960c88.904,133.321 290.679,171.461 384,192 107.685,23.7 197.437,73.963 288,128l-224.001 0c-98.4213,-119.596 -379.616,-87.4642 -448,-320z"/>
   <path id="_357753344" class="fil5" d="M1105.35 904.887c-8.94568,-5.56772 -17.2914,-11.1118 -25.0689,-16.5945 -19.7669,-13.9382 -35.8571,-27.4855 -48.7878,-40.0429 -7.88268,-7.65473 -14.5913,-14.9421 -20.2429,-21.7252 -7.26024,-8.713 -12.7748,-16.5945 -16.7941,-23.3563l-3.81851 1.2874c-1.67717,14.6669 1.35,28.2024 7.80119,41.0788 4.99961,9.97914 12.0543,19.5626 20.5689,28.9701 6.9378,7.66654 14.8453,15.2162 23.3977,22.7681 7.55788,6.67323 15.3614,13.0973 23.4012,19.2626 8.11418,6.22205 16.4681,12.1819 25.0547,17.8713 15.2126,10.0807 31.1528,19.3146 47.7685,27.6603 8.87009,4.45512 17.9327,8.65749 27.1807,12.6 24.3024,10.3618 49.8815,18.9331 76.5969,25.6016 9.72875,2.42835 19.6087,4.60394 29.6315,6.52323 15.1158,2.89252 30.5599,5.2004 46.3075,6.90237 7.14213,0.772442 14.3469,1.41969 21.613,1.94173 10.4339,0.748819 20.9941,1.23898 31.6713,1.46221 17.7992,0.373229 35.928,0.00944883 54.3532,-1.11496 10.3039,-0.628347 17.5831,-8.38229 24.3851,-17.2618 -28.6299,-2.77677 -28.9571,-3.15827 -65.9126,-3.06378 -1.55079,0.00354331 -3.15355,-0.0106299 -4.80591,-0.046063 -9.42166,-0.199606 -21.7016,0.702756 -34.6063,-1.19764 -17.4118,-2.56654 -36.1618,-3.22677 -60.6721,-10.4492 -9.54331,-2.81339 -19.6583,-6.04725 -30.3697,-9.75473 -8.69174,-3.00827 -17.7768,-6.32953 -27.2681,-9.99095 -3.52205,-1.35827 -7.10197,-2.76496 -10.7374,-4.2189 -11.7638,-4.70552 -22.9748,-9.4878 -33.6567,-14.3209 -10.0134,-4.53189 -19.5614,-9.10867 -28.6607,-13.7091 -17.7744,-8.98701 -33.8398,-18.0662 -48.3296,-27.0827z"/>
   <path id="_357753248" class="fil7" d="M1032.64 814.049c8.08938,-1.68189 16.0134,3.51142 17.6953,11.6008 1.68189,8.08938 -3.51142,16.0134 -11.6008,17.6953 -0.0212599,0.00354331 -7.81772,1.6311 -12.9756,14.426l-8.15906 20.237c-3.07323,7.6689 -11.7839,11.3929 -19.4528,8.31969 -7.6689,-3.07323 -11.3929,-11.7839 -8.31969,-19.4528l8.15906 -20.237c11.1579,-27.6768 34.5874,-32.576 34.6536,-32.589z"/>
   <path id="_357752912" class="fil7" d="M1105.33 871.881c8.08938,-1.68189 16.0134,3.51142 17.6953,11.6008 1.68189,8.08938 -3.51142,16.0134 -11.6008,17.6953 -0.0212599,0.00354331 -7.81654,1.6311 -12.9756,14.426l-8.15906 20.237c-3.07323,7.6689 -11.7839,11.3929 -19.4528,8.31969 -7.6689,-3.07323 -11.3929,-11.7839 -8.31969,-19.4528l8.15906 -20.237c11.1579,-27.6756 34.5874,-32.576 34.6536,-32.589z"/>
   <path id="_357753176" class="fil7" d="M1179.06 915.157c8.08938,-1.68189 16.0134,3.51142 17.6953,11.6008 1.68189,8.08938 -3.51142,16.0134 -11.6008,17.6953 -0.0212599,0.00354331 -7.81654,1.6311 -12.9756,14.426l-8.15906 20.237c-3.07323,7.6689 -11.7839,11.3929 -19.4528,8.31969 -7.6689,-3.07323 -11.3929,-11.7839 -8.31969,-19.4528l8.15906 -20.237c11.1579,-27.6756 34.5874,-32.576 34.6536,-32.589z"/>
   <path id="_357753416" class="fil7" d="M1283.5 951.72c8.08938,-1.68189 16.0134,3.51142 17.6953,11.6008 1.68189,8.08938 -3.51142,16.0134 -11.6008,17.6953 -0.0212599,0.00354331 -7.81654,1.6311 -12.9756,14.426l-8.15906 20.237c-3.07323,7.6689 -11.7839,11.3929 -19.4528,8.31969 -7.6689,-3.07323 -11.3929,-11.7839 -8.31969,-19.4528l8.15906 -20.237c11.1579,-27.6756 34.5874,-32.576 34.6536,-32.589z"/>
   <path id="_357752792" class="fil7" d="M1380.75 967.842c8.08938,-1.68189 16.0134,3.51142 17.6953,11.6008 1.68189,8.08938 -3.51142,16.0134 -11.6008,17.6953 -0.0212599,0.00354331 -7.81654,1.6311 -12.9756,14.426l-8.15906 20.237c-3.07323,7.6689 -11.7839,11.3929 -19.4528,8.31969 -7.6689,-3.07323 -11.3929,-11.7839 -8.31969,-19.4528l8.15906 -20.237c11.1579,-27.6756 34.5874,-32.576 34.6536,-32.589z"/>
  </g>
  <rect class="fil8" width="2048" height="2048"/>
 </g>
</svg>
