<?xml version="1.0" encoding="UTF-8"?>
<!DOCTYPE svg PUBLIC "-//W3C//DTD SVG 1.1//EN" "http://www.w3.org/Graphics/SVG/1.1/DTD/svg11.dtd">
<!-- Creator: CorelDRAW -->
<svg xmlns="http://www.w3.org/2000/svg" xml:space="preserve" width="2048px" height="2048px" style="shape-rendering:geometricPrecision; text-rendering:geometricPrecision; image-rendering:optimizeQuality; fill-rule:evenodd; clip-rule:evenodd"
viewBox="0 0 2048 2048"
 xmlns:xlink="http://www.w3.org/1999/xlink">
 <defs>
  <style type="text/css">
   <![CDATA[
    .fil6 {fill:none}
    .fil0 {fill:#004D40;fill-rule:nonzero}
    .fil1 {fill:#03493D;fill-rule:nonzero}
    .fil4 {fill:#06453A;fill-rule:nonzero}
    .fil2 {fill:#094138;fill-rule:nonzero}
    .fil3 {fill:#0D3B34;fill-rule:nonzero}
    .fil5 {fill:#113630;fill-rule:nonzero}
   ]]>
  </style>
 </defs>
 <g id="Layer_x0020_1">
  <metadata id="CorelCorpID_0Corel-Layer"/>
  <g id="_356972056">
   <path id="_356971888" class="fil0" d="M1342.5 1266.72c18.9201,9.26339 31.9642,23.4213 39.5504,39.4229 5.34331,11.2724 7.81064,23.4508 7.59686,35.5654 -0.212599,12.0815 -3.07441,23.9729 -8.38938,34.7138 -8.54174,17.2642 -23.1484,31.8366 -42.9756,39.7571 7.98071,25.5142 23.6256,43.5355 37.3772,59.3705 39.9945,46.0548 69.8221,80.4237 0.0318898,163.611 6.40749,8.20749 11.5949,15.9685 16.0299,24.9142 8.25119,16.6417 12.3579,34.3063 14.4165,61.5485 1.31102,17.6043 -11.8961,32.9398 -29.5004,34.2508 -0.797245,0.0590552 -1.58977,0.0874016 -2.3752,0.0885827l0 0.0366142 -772.046 0c-17.6728,0 -32.0008,-14.328 -32.0008,-32.0008 0,-1.38425 0.0874016,-2.74961 0.258662,-4.08662 2.1,-26.2736 6.20434,-43.5461 14.2819,-59.8371 4.43504,-8.94568 9.62245,-16.7055 16.0299,-24.9142 -69.7902,-83.1875 -39.9614,-117.556 0.0318898,-163.611 13.9181,-16.0276 29.7768,-34.2933 37.6654,-60.3024 -32.3103,-10.6441 -54.9308,-30.0603 -66.143,-51.189 -0.388583,-0.731103 -0.744095,-1.47047 -1.07126,-2.21693 -5.95867,-12.0461 -8.55237,-24.7642 -7.59922,-37.2674 1.0748,-14.0894 6.45237,-27.411 16.3618,-38.8028 11.0811,-12.7406 28.1563,-22.865 51.4063,-27.887 -29.8347,-40.8733 -61.2934,-96.5812 -85.3938,-160.512 -25.6099,-67.9323 -43.2296,-145.753 -42.2811,-225.899 0.532678,-44.713 6.26575,-88.6276 16.6087,-130.948 29.3941,-120.262 96.0107,-228.411 186.436,-306.144 91.0264,-78.2505 206.261,-125.836 332.231,-124.335 31.1599,0.370866 62.8902,3.73819 94.9749,10.3807 5.77796,-6.36851 12.8469,-14.4567 20.3398,-23.0292 24.3579,-27.8693 52.6347,-60.2245 68.8158,-69.2753 10.7646,-5.98465 23.4957,-5.07402 33.1075,1.27677l0.0177165 -0.0271654c65.8819,43.5709 33.2197,111.736 8.22166,155.26 7.45749,5.07874 14.9681,11.0079 22.2721,17.8417 14.6469,13.7055 28.4622,30.8646 39.3544,51.8079 0.210236,0.405118 0.408662,0.812599 0.6,1.22244 12.0461,22.0784 35.3788,48.9827 62.4119,74.263 29.3339,27.4311 62.5217,52.3807 90.2552,66.9686 0.569292,0.3 1.12323,0.615355 1.66654,0.943702 43.4681,23.0799 60.5599,46.6252 62.9434,72.8422 2.39764,26.3764 -10.35,46.9087 -26.0575,70.5473 -0.336614,0.507874 -0.686221,1.00276 -1.04646,1.48583 -28.9229,42.6437 -81.7371,96.3981 -81.8906,96.5552 -10.4681,10.7634 -26.6847,12.5575 -39.0685,5.25355 -25.265,-13.0784 -43.1469,-25.9701 -59.0599,-37.441 -33.6048,-24.2244 -56.054,-40.4067 -140.128,-22.6193 -12.5693,2.65158 -24.3378,4.16693 -35.3362,4.70315 -42.4489,2.07284 -72.6674,-10.4823 -93.6792,-28.9725 -21.2941,-18.7394 -32.3055,-43.2307 -36.874,-64.878 -1.41142,-6.69095 -2.20984,-13.2496 -2.50748,-19.3547 -0.111024,-2.34921 -0.773623,3.26811 -2.07284,2.84646 -2.54528,-0.826772 -5.45079,-1.20236 -8.46851,-1.02284 -2.87835,0.170079 -5.82874,0.897638 -8.60316,2.28071 -8.0256,4.0004 -14.5559,14.8642 -14.5559,36.0957 0,52.852 21.4713,102.789 53.4095,148.46 33.6036,48.0508 78.7134,91.5461 123.386,129.117 15.828,13.3134 35.1225,26.8004 54.6237,40.4303 15.9827,11.1709 32.0988,22.4374 46.6111,33.6815 66.9355,51.8705 115.865,110.994 69.7985,199.03z"/>
   <path id="_356971840" class="fil1" d="M1342.5 1266.72c18.9201,9.26339 31.9642,23.4213 39.5504,39.4229 5.34331,11.2724 7.81064,23.4508 7.59686,35.5654 -0.212599,12.0815 -3.07441,23.9729 -8.38938,34.7138 -8.54174,17.2642 -23.1484,31.8366 -42.9756,39.7571 0.26811,0.858662 0.54567,1.70906 0.831497,2.55l-701.75 0c0.388583,-1.14449 0.762993,-2.30551 1.11969,-3.48189 -32.3103,-10.6441 -54.9308,-30.0603 -66.143,-51.189 -0.388583,-0.731103 -0.744095,-1.47047 -1.07126,-2.21693 -5.95867,-12.0461 -8.55237,-24.7642 -7.59922,-37.2674 1.0748,-14.0894 6.45237,-27.411 16.3618,-38.8028 10.7752,-12.3886 27.2197,-22.304 49.4977,-27.4595l717.121 0c-1.2874,2.77441 -2.66811,5.57599 -4.1504,8.40827z"/>
   <path id="_356972008" class="fil2" d="M1339.11 1418.73c8.2004,24.1748 23.2571,41.5181 36.5457,56.8205 39.9945,46.0548 69.8221,80.4237 0.0318898,163.611l0.314173 0.401575 -775.532 0 0.312992 -0.401575c-69.7902,-83.1875 -39.9614,-117.556 0.0318898,-163.611 13.2886,-15.3024 28.3453,-32.6457 36.5457,-56.8205l701.75 0z"/>
   <path id="_356971768" class="fil3" d="M1376 1639.56c6.26339,8.05985 11.3528,15.7134 15.7158,24.5126 8.25119,16.6417 12.3579,34.3063 14.4165,61.5485 1.31102,17.6043 -11.8961,32.9398 -29.5004,34.2508 -0.797245,0.0590552 -1.58977,0.0874016 -2.3752,0.0885827l0 0.0366142 -772.046 0c-17.6728,0 -32.0008,-14.328 -32.0008,-32.0008 0,-1.38425 0.0874016,-2.74961 0.258662,-4.08662 2.1,-26.2736 6.20434,-43.5461 14.2819,-59.8371 4.363,-8.8004 9.45237,-16.4528 15.7169,-24.5126l775.532 0z"/>
  </g>
  <g id="_356971168">
   <path id="_356972248" class="fil4" d="M991.557 1760l-389.345 0c-17.6728,0 -32.0008,-14.328 -32.0008,-32.0008 0,-1.38425 0.0874016,-2.74961 0.258662,-4.08662 2.1,-26.2736 6.20434,-43.5461 14.2819,-59.8371 4.43504,-8.94568 9.62245,-16.7055 16.0299,-24.9142 -69.7902,-83.1875 -39.9614,-117.556 0.0318898,-163.611 13.9181,-16.0276 29.7768,-34.2933 37.6654,-60.3024 -32.3103,-10.6441 -54.9308,-30.0603 -66.143,-51.189 -0.388583,-0.731103 -0.744095,-1.47047 -1.07126,-2.21693 -5.95867,-12.0461 -8.55237,-24.7642 -7.59922,-37.2674 1.0748,-14.0894 6.45237,-27.411 16.3618,-38.8028 11.0811,-12.7406 28.1563,-22.865 51.4063,-27.887 -29.8347,-40.8733 -61.2934,-96.5812 -85.3938,-160.512 -25.6099,-67.9323 -43.2296,-145.753 -42.2811,-225.899 0.532678,-44.713 6.26575,-88.6276 16.6087,-130.948 29.3941,-120.262 96.0107,-228.411 186.436,-306.144 91.0264,-78.2505 206.261,-125.836 332.231,-124.335 31.1599,0.370866 62.8902,3.73819 94.9749,10.3807 5.77796,-6.36851 12.8469,-14.4567 20.3398,-23.0292 24.3579,-27.8693 52.6347,-60.2245 68.8158,-69.2753 10.7646,-5.98465 23.4957,-5.07402 33.1075,1.27677l0.0177165 -0.0271654c65.8819,43.5709 33.2197,111.736 8.22166,155.26 7.45749,5.07874 14.9681,11.0079 22.2721,17.8417 14.6469,13.7055 28.4622,30.8646 39.3544,51.8079 0.210236,0.405118 0.408662,0.812599 0.6,1.22244 12.0461,22.0784 35.3788,48.9827 62.4119,74.263 29.3339,27.4311 62.5217,52.3807 90.2552,66.9686 0.569292,0.3 1.12323,0.615355 1.66654,0.943702 43.4681,23.0799 60.5599,46.6252 62.9434,72.8422 2.39764,26.3764 -10.35,46.9087 -26.0575,70.5473 -0.336614,0.507874 -0.686221,1.00276 -1.04646,1.48583 -3.87166,5.70827 -8.17442,11.6162 -12.7181,17.5665l-448.193 -280.121c-125.157,-31.2898 -251.227,78.8918 -296.198,220.962 -70.7422,223.472 114.34,385.696 228.284,557.35l3.47126 501.688z"/>
   <path id="_356971120" class="fil2" d="M989.196 1418.73l-351.836 0c0.388583,-1.14449 0.762993,-2.30551 1.11969,-3.48189 -32.3103,-10.6441 -54.9308,-30.0603 -66.143,-51.189 -0.388583,-0.731103 -0.744095,-1.47047 -1.07126,-2.21693 -5.95867,-12.0461 -8.55237,-24.7642 -7.59922,-37.2674 1.0748,-14.0894 6.45237,-27.411 16.3618,-38.8028 10.7752,-12.3886 27.2197,-22.304 49.4977,-27.4595l358.561 0 1.11024 160.417z"/>
   <path id="_356971192" class="fil3" d="M990.724 1639.56l-390.254 0 0.312992 -0.401575c-69.7902,-83.1875 -39.9614,-117.556 0.0318898,-163.611 13.2886,-15.3024 28.3453,-32.6457 36.5457,-56.8205l351.836 0 1.52717 220.833z"/>
   <path id="_356971432" class="fil5" d="M991.557 1760l-389.345 0c-17.6728,0 -32.0008,-14.328 -32.0008,-32.0008 0,-1.38425 0.0874016,-2.74961 0.258662,-4.08662 2.1,-26.2736 6.20434,-43.5461 14.2819,-59.8371 4.363,-8.8004 9.45237,-16.4528 15.7169,-24.5126l390.254 0 0.833859 120.437z"/>
  </g>
  <rect class="fil6" width="2048" height="2048"/>
 </g>
</svg>
