<?xml version="1.0" encoding="UTF-8"?>
<!DOCTYPE svg PUBLIC "-//W3C//DTD SVG 1.1//EN" "http://www.w3.org/Graphics/SVG/1.1/DTD/svg11.dtd">
<!-- Creator: CorelDRAW -->
<svg xmlns="http://www.w3.org/2000/svg" xml:space="preserve" width="2048px" height="2048px" style="shape-rendering:geometricPrecision; text-rendering:geometricPrecision; image-rendering:optimizeQuality; fill-rule:evenodd; clip-rule:evenodd"
viewBox="0 0 2048 2048"
 xmlns:xlink="http://www.w3.org/1999/xlink">
 <defs>
  <style type="text/css">
   <![CDATA[
    .fil4 {fill:none}
    .fil2 {fill:#B26506}
    .fil1 {fill:#D47500}
    .fil0 {fill:#FB8C00}
    .fil3 {fill:#212121;fill-rule:nonzero}
   ]]>
  </style>
 </defs>
 <g id="Layer_x0020_1">
  <metadata id="CorelCorpID_0Corel-Layer"/>
  <g id="_35077840">
   <path id="_35079016" class="fil0" d="M1503.97 458.498c123.182,100.919 216.604,244.383 254.085,414.62 11.6953,53.1201 17.9421,108.824 17.9421,166.623 0,85.839 -13.1634,170.668 -39.1949,250.653 -25.4445,78.176 -63.2115,151.618 -113.03,216.75 -1.76339,2.40709 -3.89646,4.6063 -6.38859,6.50906 -51.1359,38.9079 -98.6068,30.2445 -149.575,20.9421 -28.1091,-5.12953 -57.5882,-10.5106 -86.3611,-4.72914 -30.574,6.1441 -59.7874,28.5449 -92.4072,53.5571 -44.302,33.9721 -94.0394,72.1123 -168.186,91.0371 -82.9926,21.215 -176.473,20.0433 -254.197,-12.2327 -67.663,-28.0973 -123.288,-79.2544 -150.528,-158.942 -0.343701,-0.820867 -0.660237,-1.66063 -0.940158,-2.52284 -18.9366,-58.2945 -14.1969,-118.459 -9.57993,-177.065 5.89961,-74.8938 11.5677,-146.809 -42.2303,-191.53 -29.2146,-24.3732 -65.7556,-36.6437 -102.463,-48.9685 -32.4402,-10.8921 -64.9985,-21.8244 -96.352,-41.0516 -59.8382,-36.7323 -76.8638,-91.7398 -73.1788,-150.164 3.2941,-52.2071 23.9988,-106.119 43.4977,-149.855 46.8685,-104.891 118.806,-202.173 207.722,-278.524 84.3898,-72.463 184.13,-126.237 292.42,-150.078 44.8453,-9.87284 89.9906,-14.628 134.824,-14.628 157.218,0 310.675,58.4646 434.122,159.6z"/>
   <path id="_35078872" class="fil1" d="M1206.47 1191.74c-13.8638,-13.865 -33.0355,-22.4339 -54.2386,-22.4339 -21.2079,0 -40.3784,8.5689 -54.241,22.4303 -13.865,13.865 -22.4327,33.0378 -22.4327,54.2433 0,21.2032 8.5689,40.3796 22.4339,54.2445 13.8626,13.865 33.0331,22.4339 54.2398,22.4339 21.202,0 40.3737,-8.57127 54.2374,-22.4362 13.865,-13.8673 22.4362,-33.0402 22.4362,-54.2422 0,-21.2032 -8.57009,-40.3748 -22.4351,-54.2398zm-54.2386 -73.5296c35.3079,0 67.2485,14.2866 90.365,37.4044 23.1166,23.1154 37.4044,55.0571 37.4044,90.365 0,35.3055 -14.2878,67.2485 -37.4055,90.3686 -23.1154,23.1166 -55.0571,37.4055 -90.3638,37.4055 -35.3126,0 -67.2508,-14.2866 -90.3662,-37.4032 -23.1166,-23.1189 -37.4032,-55.0654 -37.4032,-90.3709 0,-35.3091 14.2854,-67.252 37.4032,-90.3686 23.1142,-23.1154 55.0548,-37.4008 90.3662,-37.4008z"/>
   <path id="_35079040" class="fil2" d="M1206.47 1191.74c-13.8638,-13.865 -33.0355,-22.4339 -54.2386,-22.4339 -21.2079,0 -40.3784,8.5689 -54.241,22.4303 -13.865,13.865 -22.4327,33.0378 -22.4327,54.2433 0,21.2032 8.5689,40.3796 22.4339,54.2445 13.8626,13.865 33.0331,22.4339 54.2398,22.4339 21.202,0 40.3737,-8.57127 54.2374,-22.4362 13.865,-13.8673 22.4362,-33.0402 22.4362,-54.2422 0,-21.2032 -8.57009,-40.3748 -22.4351,-54.2398z"/>
  </g>
  <g id="_35078104">
   <path id="_35078416" class="fil3" d="M323.397 1609.23c-17.465,2.55355 -33.6969,-9.53505 -36.2504,-27 -2.55355,-17.465 9.53505,-33.6969 27,-36.2504 23.2925,-3.48898 293.15,-49.2638 293.987,-49.4115 17.3965,-3.03662 33.9638,8.60316 37.0004,25.9996 3.03662,17.3965 -8.60316,33.9638 -25.9996,37.0004 -0.836221,0.146457 -269.417,45.7193 -295.738,49.6618z"/>
   <path id="_35078344" class="fil3" d="M503.5 1699.65c0.551575,17.6043 -13.2709,32.3244 -30.8752,32.876 -17.6043,0.551575 -32.3244,-13.2709 -32.876,-30.8752l-12.9225 -385.698c-0.551575,-17.6043 13.2709,-32.3244 30.8752,-32.876 17.6043,-0.551575 32.3244,13.2709 32.876,30.8752l12.9225 385.698z"/>
   <path id="_35078296" class="fil3" d="M766.229 1234.29c17.3965,-2.69173 33.6839,9.22796 36.3756,26.6244 2.69173,17.3965 -9.22796,33.6839 -26.6244,36.3756l-86.6552 13.6382 -57.1831 402.126 -0.00944883 -0.0011811c-1.75984,12.3284 -10.6913,23.0079 -23.491,26.3764 -54.2882,14.2937 -119.828,15.1973 -177.364,-3.17008 -50.7839,-16.2106 -95.6174,-47.1638 -122.475,-96.7229 -14.0929,-26.0067 -23.7508,-49.5674 -29.9398,-72.7016 -6.34371,-23.7083 -9.01182,-46.5296 -9.01182,-70.591l0.125197 0 0.00472441 -156.337c-0.146457,-15.5764 11.1532,-29.3103 27,-31.7622l356.88 -56.1685c1.43976,-0.330709 2.91024,-0.56693 4.4067,-0.694489l107.961 -16.9914zm-142.911 87.0272l-289.586 45.5776 -0.00354331 129.349 0.125197 0c0,18.7902 2.00197,36.3048 6.76064,54.091 4.91221,18.3591 12.7937,37.4587 24.4406,58.9512 18.1465,33.4866 49.5284,54.7489 85.4729,66.2221 38.7107,12.3567 82.376,13.6063 121.479,6.64725l51.3119 -360.838z"/>
   <path id="_35078128" class="fil3" d="M306.477 1498.46c-17.465,2.55355 -33.6969,-9.53505 -36.2504,-27 -2.55355,-17.465 9.53505,-33.6969 27,-36.2504 25.0264,-3.7441 447.238,-72.5741 448.509,-72.8363 17.2583,-3.52087 34.1044,7.61575 37.6252,24.874 3.52087,17.2583 -7.61575,34.1044 -24.874,37.6252 -1.28032,0.264567 -427.415,69.9083 -452.009,73.5875z"/>
  </g>
  <rect class="fil4" width="2048" height="2048"/>
 </g>
</svg>
