<?xml version="1.0" encoding="UTF-8"?>
<!DOCTYPE svg PUBLIC "-//W3C//DTD SVG 1.1//EN" "http://www.w3.org/Graphics/SVG/1.1/DTD/svg11.dtd">
<!-- Creator: CorelDRAW -->
<svg xmlns="http://www.w3.org/2000/svg" xml:space="preserve" width="2048px" height="2048px" style="shape-rendering:geometricPrecision; text-rendering:geometricPrecision; image-rendering:optimizeQuality; fill-rule:evenodd; clip-rule:evenodd"
viewBox="0 0 2048 2048"
 xmlns:xlink="http://www.w3.org/1999/xlink">
 <defs>
  <style type="text/css">
   <![CDATA[
    .fil11 {fill:none}
    .fil15 {fill:none;fill-rule:nonzero}
    .fil17 {fill:#161616}
    .fil16 {fill:#1A1A1A}
    .fil18 {fill:#1B1B1B}
    .fil0 {fill:#1F1F1F}
    .fil7 {fill:#212121}
    .fil5 {fill:#3F51B5}
    .fil6 {fill:#B19A75}
    .fil4 {fill:#BF8356}
    .fil14 {fill:#CC4F29}
    .fil2 {fill:#E0E0E0}
    .fil8 {fill:#E2CDAA}
    .fil3 {fill:#EF6C00}
    .fil9 {fill:#F2CFB1}
    .fil1 {fill:#FFD3AE}
    .fil12 {fill:#212121;fill-rule:nonzero}
    .fil10 {fill:#B32C04;fill-rule:nonzero}
    .fil13 {fill:#BF360C;fill-rule:nonzero}
   ]]>
  </style>
 </defs>
 <g id="Layer_x0020_1">
  <metadata id="CorelCorpID_0Corel-Layer"/>
  <g id="_355808648">
   <path id="_357655288" class="fil0" d="M617.372 822.116c0,0 24.7311,20.3126 30.5551,23.5382 5.82638,3.2315 58.154,41.5394 58.154,41.5394 0,0 -14.739,-28.8248 -18.4618,-31.3453 -3.72638,-2.52047 -31.5319,-22.4303 -38.9433,-26.1071 -7.41379,-3.6815 -17.3303,-8.07993 -22.0004,-8.59135 -4.6689,-0.507874 -9.30473,0.966142 -9.30473,0.966142l0.0011811 0z"/>
   <g>
    <path id="_357655144" class="fil1" d="M649.665 836.923c-3.14292,77.6882 -144.547,157.981 -144.441,160.708 0.375591,9.42875 6.29882,49.767 7.02993,59.5949 71.1461,1.34055 209.176,-135.487 198.728,-213.52 0.4063,-3.47717 -47.9233,-8.70946 -61.317,-6.78308z"/>
    <path id="_357654736" class="fil1" d="M428.496 995.826c-4.66063,0.504331 -12.8445,10.6004 -5.91615,20.7295 5.33859,7.80355 4.9689,2.1815 15.2634,2.54173 -4.72914,1.78465 -35.9504,17.8453 -19.0772,30.8693 7.88032,6.07678 10.2047,5.70591 20.3457,2.86181 0.996851,2.98583 -20.2217,12.2197 -12.2965,25.1646 7.74922,12.6579 31.6288,2.66575 48.4996,-3.79488 15.4937,-5.93032 31.0193,-13.4622 44.9115,-19.65 15.3201,-6.8256 -0.648426,-43.2863 0.994489,-57.8185 -26.3988,-4.53189 -64.9075,-9.87993 -92.7249,-0.903544z"/>
   </g>
   <path id="_357655024" class="fil1" d="M1064.74 819.651c11.5099,80.5359 164.421,143.257 164.603,146.113 0.624804,9.88583 -1.1126,52.8296 -0.810237,63.1902 -72.4784,11.9634 -227.984,-110.205 -225.657,-193.125 -0.785434,-3.56339 47.9906,-16.2024 61.8638,-16.1788z"/>
   <path id="_357655120" class="fil1" d="M1307.47 952.485c4.80827,-0.165354 14.2382,9.14646 8.24764,20.739 -4.61339,8.92914 -4.83662,3.00591 -15.3071,4.91693 5.01969,1.15394 38.6008,13.2662 22.7681,29.3551 -7.39134,7.50473 -9.8067,7.46575 -20.4603,6.00473 -0.696851,3.26221 21.9473,9.7382 15.241,24.4134 -6.55867,14.3469 -32.0032,7.4752 -49.9111,3.24567 -16.4492,-3.88111 -33.1051,-9.42757 -47.9445,-13.813 -16.3665,-4.84607 -3.95788,-45.2363 -7.18701,-60.1453 26.4603,-8.64686 65.1969,-19.9441 94.5532,-14.7165z"/>
   <path id="_357654832" class="fil0" d="M1169.04 1770.26c-1.39252,-3.1689 1.18937,-17.2146 -26.752,-22.3382 -27.9425,-5.12008 -53.9115,-12.6307 -66.1111,-25.7918 -12.1937,-13.1658 -25.2,-35.0422 -27.9756,-41.3811 -2.78622,-6.33662 -16.0099,-2.28189 -16.0099,-2.28189 0,0 -4.39843,7.44922 -7.65473,19.8378 -3.2504,12.391 -10.3819,18.5374 -22.7669,15.2835 -12.391,-3.25985 -15.8717,-17.2228 -15.8717,-17.2228 0,0 -10.8921,1.00039 -16.8201,20.2276 -5.92796,19.2225 -4.59567,57.5658 -4.59567,57.5658 -10.6961,17.1354 55.1386,14.1449 85.0453,10.2248 44.4378,-5.82638 125.578,-0.325985 119.512,-14.1236z"/>
   <path id="_357654592" class="fil2" d="M960.063 1527.98c-6.34607,3.02008 -13.7362,22.2579 -12.4347,36.4217 1.30276,14.1662 5.8878,39.8044 13.2366,60.0083 4.79292,13.1681 15.6,54.6095 21.5977,72.6107 3.19488,9.61772 2.56299,11.7 10.5106,16.9394 7.93583,5.23819 20.6788,3.2811 33.5551,-0.101575 12.8776,-3.37796 14.1744,-9.04961 13.5662,-22.8792 -0.688583,-15.6024 -6.50788,-56.5748 -6.74882,-95.0103 -0.239764,-38.4414 6.29056,-51.1241 -0.0637796,-60.4335 -6.34725,-9.30709 -11.8866,-9.89292 -17.439,-10.4847 -5.55709,-0.585827 -49.4339,-0.0862205 -55.78,2.92914z"/>
   <path id="_355811264" class="fil1" d="M904.79 1226.81c-15.6425,24.3921 11.152,97.9312 14.9728,120.421 12.2492,72.1335 39.991,118.44 46.5485,189.763 3.1252,5.43662 43.9489,-2.45079 60.906,-7.89686 2.69173,-40.3996 -5.34567,-362.124 -9.7819,-361.716l-1.82717 0.167717c-37.0158,3.40394 -107.741,54.4737 -110.818,59.2619z"/>
   <g>
    <path id="_355803560" class="fil3" d="M665.288 1204.91c0,0 41.0894,13.0524 68.556,36.9 27.4689,23.8488 38.0091,47.7615 38.0091,47.7615l93.0107 -96.9095 37.1303 115.228c0,0 68.5205,20.5028 97.0406,7.99253 28.5177,-12.5114 44.4803,-38.2016 44.4803,-38.2016 0,0 -25.4764,-150.626 -35.8122,-179.351 -10.3299,-28.7221 -46.376,-105.43 -46.376,-105.43 0,0 -15.9461,28.7469 -58.2532,22.7433 -42.3059,-5.99882 -80.8442,-6.85394 -88.5745,-7.24016 -7.72796,-0.387402 -27.3295,13.5024 -27.3295,13.5024 0.0011811,0 -39.1784,51.9496 -68.9646,86.5583 -29.7827,34.6075 -52.9193,96.4453 -52.9193,96.4453l0.00236221 0z"/>
   </g>
   <path id="_355797296" class="fil4" d="M1052.22 817.979l-48.0933 33.0957 25.5815 -51.7985c0,0 6.15827,1.81181 22.5118,18.7028z"/>
   <path id="_355797224" class="fil5" d="M948.216 772.938c-3.11339,14.2689 4.84134,12.848 12.7748,39.5977 7.9382,26.7461 42.704,77.0694 42.704,77.0694 2.28662,1.02047 28.7197,-26.7295 46.5284,-44.6292 18.3933,-13.3677 35.1307,-24.1618 35.1307,-24.1618 0,0 -7.53426,-8.92324 -21.3284,-25.5496 -30.7099,-37.0075 -56.3044,-76.1068 -102.256,-95.8418 1.50945,-6.43583 8.9693,10.2555 3.56929,24.4122 -6.98386,18.3106 -15.3756,41.0575 -17.1225,49.1032z"/>
   <path id="_355796720" class="fil5" d="M818.038 688.3l-0.00590552 0 -0.0177165 0.00236221 -0.0283465 0.00472441 -0.00236221 0 -0.0366142 0.00354331 -0.0519685 0.00708662 -0.0625985 0.00590552 -0.00826772 0 -0.0649607 0.00826772 -0.0826772 0.00944883 -0.0944883 0.011811 -0.0212599 0.00354331 -0.0850394 0.0106299 -0.114567 0.011811 -0.127559 0.0165354 -0.034252 0.00354331 -0.101575 0.0129921 -0.147638 0.0177165 -0.157087 0.0188977 -0.0543308 0.00826772 -0.112205 0.011811 -0.178347 0.0212599 -0.185433 0.0236221 -0.0779528 0.00944883 -0.11811 0.0153543 -0.205512 0.0248032 -0.214961 0.0259843 -0.105118 0.0141732 -0.119291 0.0129921 -0.23504 0.0307087 -0.242126 0.0307087 -0.137008 0.0177165 -0.116929 0.0129921 -0.258662 0.034252 -0.270473 0.0330709 -0.167717 0.022441 -0.111024 0.0129921 -0.287008 0.0366142 -0.296457 0.0377953 -0.20315 0.0283465 -0.0992127 0.0106299 -0.312992 0.0401575 -0.320079 0.0425197 -0.244488 0.0307087 -0.0838583 0.0129921 -0.336614 0.0437008 -0.346063 0.0448819 -0.284646 0.0366142 -0.0673229 0.00826772 -0.359055 0.0484252 -0.367323 0.0496063 -0.329528 0.0437008 -0.046063 0.00590552 -0.381496 0.0507874 -0.389764 0.0531496 -0.375591 0.0496063 -0.0188977 0.00354331 -0.403937 0.0555119 -0.409843 0.0543308 -0.416929 0.056693 -0.00708662 0.00236221 -0.416929 0.0555119 -0.431103 0.0590552 -0.435827 0.0625985 -0.0366142 0.00590552 -0.4063 0.0543308 -0.448819 0.0637796 -0.458268 0.0637796 -0.068504 0.0106299 -0.390945 0.0555119 -0.467717 0.0649607 -0.473622 0.0673229 -0.105118 0.0165354 -0.373229 0.0519685 -0.485433 0.0708662 -0.490158 0.068504 -0.141732 0.022441 -0.354331 0.0496063 -0.500788 0.0744095 -0.504331 0.0720473 -0.18189 0.0283465 -0.329528 0.0472441 -0.516142 0.0779528 -0.522048 0.0767717c-23.0929,3.43701 -60.065,10.0583 -69.6733,18.3496 -14.2524,12.2965 -0.649607,34.5449 -2.00551,67.6312 -1.35,33.0945 16.5626,55.9855 32.4579,97.3784 21.2929,35.9953 -1.1811,137.685 -4.02874,159.605l-0.00944883 0.0814961 -0.011811 0.0826772 -0.0106299 0.0814961 -0.00944883 0.0814961 -0.0106299 0.080315 -0.0106299 0.0767717 -0.00826772 0.080315 -0.00944883 0.0767717 -0.00826772 0.0755906 -0.0106299 0.0767717 -0.00708662 0.0496063 -0.0011811 0.0259843 -0.00944883 0.0732284 -0.00826772 0.0744095 -0.00826772 0.0708662 -0.00708662 0.0732284 -0.00826772 0.0708662 -0.00708662 0.0696851 -0.00826772 0.0708662 -0.00708662 0.068504 -0.00708662 0.068504 -0.00708662 0.0661418 -0.00708662 0.0661418 -0.022441 0.251575 -0.0011811 0.00708662 -0.00472441 0.0637796 -0.00590552 0.0614174 -0.00590552 0.0602363 -0.00826772 0.11811 -0.00590552 0.0602363 -0.00354331 0.056693 -0.00826772 0.112205 -0.00472441 0.0555119 -0.00354331 0.0543308 0 0.0177165 -0.0011811 0.0354331 -0.00354331 0.0531496 -0.0200788 0.522048 0 0.0283465 0 0.0153543 0.0011811 0.0413386c0,0.164173 0.00472441,0.311811 0.0153543,0.42874 0.801969,8.72009 -9.99213,27.2953 6.84213,19.154 16.8343,-8.14016 129.197,50.1426 175.4,50.8359 14.7673,1.0063 34.7433,11.5134 80.6587,-19.7162 2.0315,-1.38071 -20.224,-334.233 -49.402,-383.847l-0.227953 -0.387402 -0.226772 -0.381496 -0.0318898 -0.0519685 -0.196063 -0.327166 -0.226772 -0.373229 -0.0590552 -0.0968505 -0.389764 -0.633071 -0.0897638 -0.145276 -0.135827 -0.214961 -0.225591 -0.355512 -0.116929 -0.185433 -0.105118 -0.162992 -0.226772 -0.344882 -0.147638 -0.229134 -0.0755906 -0.113386 -0.405118 -0.601182 -0.0437008 -0.0649607 -0.226772 -0.327166 -0.0472441 -0.068504 -0.287008 -0.408662 -0.346063 -0.479528 -0.0141732 -0.0177165c-0.3,-0.409843 -0.601182,-0.806694 -0.905906,-1.1941l-0.0767717 -0.0956694c-0.48189,-0.607087 -0.975591,-1.18937 -1.47874,-1.74213l-0.0437008 -0.0484252 -0.0649607 -0.0708662 -0.248032 -0.263386 -0.212599 -0.223229 -0.034252 -0.0354331 -0.50315 -0.505512 -0.514961 -0.490158 -0.0330709 -0.0295276 -0.491339 -0.442914 -0.068504 -0.0614174 -0.199606 -0.168898c-0.26811,-0.229134 -0.542126,-0.453544 -0.820867,-0.670867l-0.145276 -0.113386 -0.134646 -0.101575 -0.424016 -0.312992 -0.0496063 -0.0366142 -0.0980316 -0.0696851 -0.291733 -0.205512 -0.233858 -0.159449 -0.0625985 -0.0401575 -0.0165354 -0.011811c-0.386221,-0.257481 -0.785434,-0.504331 -1.1941,-0.745276l-0.0141732 -0.00708662 -0.0188977 -0.011811 -0.0413386 -0.022441 -0.578741 -0.327166 -0.0614174 -0.0330709 -0.0165354 -0.00944883 -0.578741 -0.303544 -0.109843 -0.0555119 -0.0366142 -0.0165354 -0.533859 -0.258662 -0.157087 -0.0755906 -0.187795 -0.0850394 -0.35315 -0.158268 -0.209055 -0.0921261 -0.148819 -0.0625985 -0.617717 -0.251575 -0.0106299 -0.00590552 -0.102756 -0.0401575 -0.615355 -0.230315 -0.0862205 -0.0330709 -0.0543308 -0.0188977 -0.386221 -0.138189 -0.388583 -0.134646 -0.00472441 0.0011811c-9.56812,-3.19843 -24.6047,-3.54095 -52.3441,-2.52756l-3.34252 0.122835 -0.0236221 0 -0.673229 0.0271654 -0.146457 0.00472441 -0.805512 0.0307087 -0.0744095 0.00236221 -1.93937 0.0708662 -0.0980316 0.00472441 -0.954331 0.0354331 -0.201969 0.00944883 -0.902363 0.0330709 -0.314173 0.011811 -0.843308 0.0307087 -0.433465 0.0188977 -0.768898 0.0271654 -0.562205 0.0200788 -0.686221 0.0259843 -0.698032 0.0271654 -0.594095 0.022441 -0.838583 0.0307087 -0.494882 0.0188977 -0.98504 0.0389764 -0.38504 0.0129921 -1.1374 0.0437008 -0.26811 0.00944883 -1.29685 0.0484252 -0.144095 0.00472441 -1.45512 0.0555119 -0.0153543 0.0011811 -1.49882 0.0543308 -0.119291 0.00708662 -1.40551 0.0507874 -0.259843 0.0106299 -1.28976 0.0484252 -0.402756 0.0153543 -1.16811 0.0437008 -0.549213 0.022441 -1.04173 0.0389764 -0.696851 0.0259843 -0.908268 0.034252 -0.850394 0.0318898 -0.77126 0.0295276 -0.999213 0.0366142 -0.63189 0.0236221 -1.15276 0.0448819 -0.488977 0.0165354 -1.30394 0.0496063 -0.34252 0.0141732 -1.45748 0.0555119 -0.196063 0.00708662 -1.6063 0.0602363 -0.0496063 0.00236221 -1.65354 0.0614174 -0.0980316 0.00354331 -1.55433 0.0590552 -0.245669 0.00944883 -1.40079 0.0519685 -0.389764 0.0141732 -1.24843 0.0472441 -0.536221 0.0212599 -1.0937 0.0413386 -0.675591 0.0248032 -0.941339 0.0366142 -0.812599 0.0307087 -0.791339 0.0283465 -0.944883 0.0366142 -0.641339 0.0248032 -1.07126 0.0389764 -0.49252 0.0188977 -1.19646 0.0472441 -0.348425 0.011811 -1.31221 0.0484252 -0.206693 0.00826772 -1.42087 0.0543308 -0.0732284 0.00236221 -1.46457 0.0555119 -0.056693 0.00354331 -1.3748 0.0496063 -0.183071 0.00826772 -1.21536 0.046063 -0.301181 0.011811 -1.06063 0.0389764 -0.412205 0.0165354 -0.910631 0.0330709 -0.51378 0.0212599 -0.768898 0.0283465 -0.605906 0.0236221 -0.63189 0.022441 -0.693308 0.0271654 -0.500788 0.0177165 -0.765355 0.0283465 -0.379134 0.0153543 -0.827953 0.0318898 -0.265748 0.00944883 -0.879922 0.0330709 -0.16063 0.00590552 -0.917717 0.034252 -0.0673229 0.00354331 -0.925985 0.0354331 -0.0177165 -0.0011811 -0.850394 0.0318898 -0.090945 0.00472441 -0.712205 0.0259843 -0.152362 0.00708662 -0.587008 0.0212599 -0.199606 0.00826772 -0.47126 0.0188977 -0.23504 0.00826772 -0.366142 0.0141732 -0.255118 0.00826772 -0.274016 0.011811 -0.261024 0.00826772 -0.19252 0.00708662 -0.252756 0.0106299 -0.124016 0.00472441 -0.226772 0.00708662 -0.0720473 0.00472441 -0.183071 0.00590552 -0.0318898 0.0011811 -0.122835 0.00472441 -0.00826772 0 -0.0437008 0.00236221z"/>
   <path id="_355796792" class="fil5" d="M734.383 705.824c0,0 -31.4197,11.7886 -43.6866,22.9394 -12.2669,11.1508 -46.3418,52.5154 -51.867,62.3906 -5.5252,9.87402 -21.4583,30.9626 -21.4583,30.9626 0,0 27.9532,6.87638 49.7351,24.3177 21.7843,17.4461 38.9752,40.7599 38.9752,40.7599l27.8445 -55.043c0,0 8.45434,-26.0055 7.48938,-49.6524 -1.07599,-26.504 -7.03229,-76.6725 -7.03229,-76.6749z"/>
   <path id="_355797248" class="fil1" d="M686.475 1187.31c-16.1374,5.45788 -80.719,127.146 -94.3749,150.646 -23.6492,40.6973 2.92323,67.1977 37.1055,75.2375 25.7764,-0.28937 110.721,-97.9052 129.241,-121.576 15.0957,-19.298 15.1689,-15.9189 19.2851,-33.5799 7.53898,-32.3244 -60.5528,-81.1146 -91.2568,-70.728z"/>
   <path id="_355797344" class="fil6" d="M958.517 508.752c2.97166,-10.8992 42.15,-26.5335 34.3595,27.1642 -0.908268,6.23977 -10.3146,27.3154 -28.8803,29.2642 -19.2638,2.02205 -9.83623,-37.6737 -5.47914,-56.4284z"/>
   <g>
    <path id="_355797368" class="fil7" d="M878.816 267.999c-105.971,52.2437 -143.497,41.6788 -163.852,81.2233 -21.2386,41.2548 -17.0043,131.701 5.16969,203.47 12.6366,40.8957 33.8646,71.0894 52.5874,94.3052 6.50079,18.3272 100.776,10.7953 146.593,-17.6162 30.8362,-19.1232 26.7992,-27.874 40.415,-67.0477 18.887,-54.3378 39.9036,-80.3776 38.5914,-158.301 -0.338977,-20.1886 -1.98425,-58.8544 -21.228,-61.1481 7.77875,-72.3355 -75.5316,-95.993 -98.2761,-74.8855z"/>
   </g>
   <path id="_355796648" class="fil1" d="M751.894 390.95c-7.98426,29.4673 2.24173,118.136 17.3917,189.756 2.30315,10.885 8.863,25.8414 14.6764,39.815 5.25945,12.6413 9.90828,24.4795 10.2449,31.7717 1.07126,23.2642 1.15039,29.9752 -14.9929,40.9701 0.322441,4.75985 17.5382,6.75945 24.665,10.5224 11.6209,6.13347 29.0929,37.2862 45.9213,38.2252 13.4788,0.751182 13.898,-28.4374 21.5138,-32.8429 43.9146,-25.4079 88.0536,-61.3217 99.8599,-113.787 13.5213,-27.0662 0.297638,-219.554 -20.8925,-240.242 -14.6941,-27.7051 -52.3796,16.1244 -86.3564,10.363 -86.139,-12.4677 -108.624,10.2579 -112.031,25.4492z"/>
   <path id="_355796600" class="fil6" d="M776.972 603.665l0.103937 0.257481 0.0295276 0.0744095 0.0755906 0.186614 0.105118 0.261024 0.0850394 0.207874 0.0212599 0.0543308 0.105118 0.261024 0.10748 0.263386 0.0318898 0.0779528 0.0732284 0.184252 0.10748 0.262205 0.0885827 0.212599 0.0188977 0.0496063 0.10748 0.263386 0.10748 0.262205 0.0354331 0.0826772 0.0720473 0.179528 0.108662 0.263386 0.216142 0.526772 0.108662 0.263386 0.0366142 0.0885827 0.0708662 0.175984 0.109843 0.263386 0.108662 0.264567 0.108662 0.263386 0.111024 0.264567 0.0377953 0.0921261 0.0708662 0.17126 0.109843 0.265748 0.0956694 0.225591 0.0153543 0.0377953 0.108662 0.264567 0.111024 0.264567 0.0401575 0.0980316 0.068504 0.166536 0.111024 0.264567 0.0956694 0.232677 0.0153543 0.0318898 0.108662 0.265748 0.111024 0.263386 0.0437008 0.101575 0.0673229 0.162992 0.109843 0.264567 0.0992127 0.237402 0.011811 0.0271654 0.111024 0.264567 0.111024 0.264567 0.0437008 0.10748 0.0661418 0.157087 0.111024 0.264567 0.100394 0.242126 0.0106299 0.022441 0.111024 0.264567 0.109843 0.264567 0.046063 0.111024 0.0649607 0.153543 0.111024 0.264567 0.102756 0.246851 0.00826772 0.0165354 0.109843 0.265748 0.111024 0.263386 0.0484252 0.115748 0.0602363 0.148819 0.111024 0.263386 0.105118 0.249213 0.00590552 0.0141732 0.109843 0.263386 0.111024 0.264567 0.0507874 0.119291 0.0602363 0.142913 0.108662 0.263386 0.106299 0.253937 0.00472441 0.00944883 0.109843 0.262205 0.109843 0.264567 0.0519685 0.124016 0.0578741 0.138189 0.108662 0.262205 0.10748 0.257481 0.00236221 0.00472441 0.109843 0.262205 0.108662 0.262205 0.0531496 0.127559 0.056693 0.133465 0.108662 0.262205 0.108662 0.259843c5.25827,12.6413 9.90709,24.4784 10.2437,31.7717l0.00236221 0.0649607 0.00236221 0.0649607 0.00472441 0.0649607 0.00236221 0.0637796 0.00236221 0.0649607 0.00354331 0.0649607 0.00236221 0.0625985 0.00236221 0.0649607 0.00472441 0.0637796 0.00236221 0.0649607 0.00236221 0.0637796 0.00236221 0.0625985 0.00354331 0.0649607 0.00354331 0.0637796 0.00236221 0.0625985 0.00354331 0.0637796 0.00236221 0.0519685 0 0.011811 0.00236221 0.0625985 0.00354331 0.0637796 0.00354331 0.0625985 0.00236221 0.0637796 0.00236221 0.0637796 0.00236221 0.0625985 0.00236221 0.0625985 0.00472441 0.0625985 0.00236221 0.0637796 0.00236221 0.0614174 0.00236221 0.0637796 0.00354331 0.0614174 0.00354331 0.0625985 0.00236221 0.0625985 0.00236221 0.0614174 0.00236221 0.0637796 0.00236221 0.0389764 0.0011811 0.022441 0.00236221 0.0614174 0.00236221 0.0614174 0.00236221 0.0625985 0.00236221 0.0614174 0.00472441 0.0614174 0.00236221 0.0614174 0.00236221 0.0625985 0.00236221 0.0614174 0.00236221 0.0602363 0.00354331 0.0614174 0.00236221 0.0614174 0.00236221 0.0602363 0.00236221 0.0614174 0.00472441 0.0614174 0.00236221 0.0602363 0.00236221 0.0602363 0 0.0283465 0.00236221 0.034252 0.00236221 0.0590552 0.00354331 0.0602363 0.00236221 0.0625985 0.00236221 0.0590552 0.00236221 0.0602363 0.00236221 0.0602363 0.00354331 0.0602363 0.00236221 0.0602363 0.00236221 0.0602363 0.00236221 0.0602363 0.00354331 0.0578741 0.00236221 0.0602363 0.00236221 0.0602363 0.00708662 0.193701 0.0307087 0.73819 0.00944883 0.246851 0.0259843 0.666142 0.0106299 0.297638c0.522048,13.989 0.666142,22.4043 -10.7717,31.5673l-0.357874 0.284646 -0.0779528 0.0590552 -0.526772 0.405118 -0.0271654 0.022441 -0.19252 0.146457 -0.46063 0.346063 -0.00472441 0.00354331 -0.486615 0.357874 -0.185433 0.135827 -0.121654 0.0874016 -0.575197 0.413386 -0.0838583 0.0602363 -0.637796 0.446457 -0.0448819 0.0307087 -0.700394 0.48189 0.0011811 0.0188977 0.00236221 0.0212599 0.00826772 0.0531496 0.022441 0.155906 0.0188977 0.080315 0.0330709 0.126378 0.0413386 0.116929 0.0330709 0.0921261 0.0507874 0.10748 0.0543308 0.111024 0.00590552 0.011811 0.100394 0.17126 0.022441 0.0354331 0.0448819 0.0625985 0.0956694 0.132284 0.0259843 0.0318898 0.137008 0.164173 0.00708662 0.00708662 0.155906 0.162992 0.0307087 0.0318898 0.17126 0.161811 0.0330709 0.0295276 0.188977 0.159449 0.0354331 0.0283465 0.205512 0.158268 0.0377953 0.0271654 0.222047 0.155906 0.258662 0.170079 0.0177165 0.0106299 0.0389764 0.0259843 0.252756 0.151181 0.0425197 0.0259843 0.266929 0.15 0.0425197 0.0236221 0.281103 0.15 0.0448819 0.022441 0.295276 0.146457 0.35315 0.168898 0.046063 0.0212599 0.32126 0.145276 0.0472441 0.0200788 0.333071 0.144095 0.0472441 0.0200788 0.344882 0.140551 0.0484252 0.0200788 0.355512 0.140551 0.0496063 0.0200788 0.366142 0.13937 0.0484252 0.0177165 0.377953 0.138189 0.0472441 0.0165354 0.389764 0.13937 0.0472441 0.0165354 0.396851 0.135827 0.0472441 0.0177165 0.407481 0.134646 0.0472441 0.0153543 0.414567 0.137008 0.0472441 0.0141732 0.421654 0.134646 0.0472441 0.0153543 0.429922 0.133465 0.0448819 0.0153543 0.438189 0.132284 0.0437008 0.0141732 0.444095 0.133465 0.0437008 0.0141732 0.45 0.133465 0.0425197 0.011811 0.454725 0.132284 0.0413386 0.0129921 0.459449 0.132284 0.0413386 0.011811 0.462992 0.134646 0.0401575 0.0106299 0.466536 0.133465 0.0389764 0.0106299 0.470079 0.132284 0.0366142 0.011811 0.473622 0.132284 0.0354331 0.0106299 0.475985 0.133465 0.034252 0.00944883 0.475985 0.135827 0.0330709 0.00826772 0.477166 0.135827 0.0318898 0.00826772 0.477166 0.135827 0.0307087 0.0106299 0.477166 0.134646 0.0283465 0.00944883 0.475985 0.137008 0.0259843 0.00708662 0.475985 0.13937 0.0259843 0.00708662 0.472441 0.13937 0.0236221 0.00708662 0.470079 0.141732 0.022441 0.00590552 0.466536 0.141732 0.0200788 0.00708662 0.462992 0.144095 0.0188977 0.00472441 0.458268 0.145276 0.0177165 0.00590552 0.452363 0.146457 0.0165354 0.00472441 0.447638 0.147638 0.0141732 0.00590552 0.440552 0.15 0.0129921 0.00354331 0.433465 0.152362 0.011811 0.00354331 0.425197 0.155906 0.00944883 0.00354331 0.419292 0.155906 0.00826772 0.00236221 0.407481 0.159449 0.00826772 0.00236221 0.398032 0.16063 0.00590552 0.00354331 0.389764 0.162992 0.00354331 0.0011811 0.376772 0.165354 0.00354331 0.0011811 0.366142 0.168898 0.0011811 0.0011811 0.355512 0.17126 0 0.00236221 0.340158 0.173622c11.6209,6.13347 38.8807,49.4067 55.7091,50.3445 1.58858,0.0885827 3.32953,-0.445276 5.17441,-1.44921 8.30906,-5.98347 5.60434,-40.1882 30.6414,-58.663 15.8847,-11.7213 33.7736,-26.9008 42.7158,-36.8162l0.11811 -0.133465 0.022441 -0.0248032 1.46811 -1.67244 0.262205 -0.304725c0.434646,-0.504331 0.869292,-1.01102 1.29685,-1.5189l0.125197 -0.147638 0.174803 -0.207874 1.3441 -1.62402 0.00590552 -0.00708662 0.022441 -0.0259843 0.0484252 -0.0602363c0.484252,-0.594095 0.966142,-1.19173 1.44213,-1.79055l0.0720473 -0.0921261 0.375591 -0.483071c-35.7744,37.6914 -77.5276,26.8099 -110.454,6.25985 -32.6268,-20.3646 -56.5867,-50.2181 -57.4713,-51.7016z"/>
   <path id="_355796408" class="fil8" d="M761.493 526.006c-5.03032,-11.2429 -49.8674,-21.5091 -32.4544,35.0374 2.02323,6.57166 15.698,27.6992 36.0307,26.6811 21.0921,-1.05473 4.26733,-42.2422 -3.57638,-61.7186z"/>
   <path id="_355796336" class="fil7" d="M739.159 517.204l9.98387 -69.2268c1.91693,15.5587 23.7874,109.388 34.9276,117.036 -21.3851,7.92402 -31.3772,-51.8351 -44.9115,-47.8087z"/>
   <path id="_355796360" class="fil9" d="M583.518 1365.77c-3.54685,15.8823 51.9496,140.903 62.1272,165.966 17.6256,43.4032 48.2386,39.0922 69.4359,17.5122 11.55,-20.1815 -17.8583,-146.19 -25.9382,-175.132 -6.58819,-23.5937 -4.19528,-21.5693 -14.6457,-35.6351 -19.1268,-25.7469 -84.2292,-2.93268 -90.9792,27.2882z"/>
   <path id="_355796120" class="fil0" d="M604.099 1762.21c-0.112205,-3.45827 -8.50394,-15.0142 14.4886,-31.6973 22.9937,-16.6819 43.1764,-34.6666 48.4985,-51.8044 5.31615,-17.1402 7.60394,-42.4878 7.37008,-49.4032 -0.222047,-6.9189 13.4575,-8.97048 13.4575,-8.97048 0,0 7.18229,4.82126 15.4677,14.5902 8.28072,9.77245 17.3669,12.2386 27.1335,3.9567 9.77009,-8.28898 6.88229,-22.3866 6.88229,-22.3866 0,0 10.2567,-3.79961 23.9043,10.9854 13.6453,14.778 28.9949,49.9406 28.9949,49.9406 17.0469,10.839 -43.6288,36.5622 -72.2977,45.9366 -42.5989,13.9288 -113.414,53.9185 -113.9,38.8524z"/>
   <path id="_355796144" class="fil2" d="M688.006 1453.45c7.02756,-0.0165354 21.9992,14.1473 26.9386,27.4843 4.94055,13.3406 11.8736,38.4461 13.9665,59.843 1.36063,13.9476 9.50198,55.9937 11.8642,74.8205 1.26969,10.0547 2.73898,11.6587 -2.16851,19.8166 -4.89804,8.15079 -17.237,11.8866 -30.3118,14.3941 -13.0736,2.51221 -16.6914,-2.04449 -22.1138,-14.7815 -6.11457,-14.3705 -18.5528,-53.8406 -34.9276,-88.6135 -16.3784,-34.7788 -27.7441,-43.3996 -26.0315,-54.541 1.70788,-11.1343 6.45119,-14.0551 11.2039,-16.9854 4.76103,-2.92677 44.5536,-21.4181 51.58,-21.437z"/>
   <g>
    <polygon id="_355796264" class="fil10" points="1421.2,633.686 1335.36,843.011 1346.23,849.624 1432.08,640.299 "/>
    <line id="_355796096" class="fil11" x1="1517.93" y1="338.125" x2="1612.74" y2= "510.335" />
    <polygon id="_355796048" class="fil12" points="1515.15,339.646 1609.95,511.856 1615.52,508.813 1520.72,336.605 "/>
    <line id="_355795712" class="fil11" x1="1467.57" y1="348.861" x2="1593.75" y2= "581.149" />
    <polygon id="_355795592" class="fil12" points="1464.78,350.371 1590.96,582.658 1596.54,579.639 1470.36,347.352 "/>
    <line id="_355795112" class="fil11" x1="1425.24" y1="378.7" x2="1559.87" y2= "626.835" />
    <polygon id="_355795088" class="fil12" points="1422.46,380.209 1557.08,628.346 1562.66,625.326 1428.03,377.189 "/>
    <line id="_355795376" class="fil11" x1="1614.01" y1="447.85" x2="1362.33" y2= "575.718" />
    <polygon id="_355795280" class="fil12" points="1612.58,445.029 1360.9,572.899 1363.76,578.537 1615.44,450.669 "/>
    <line id="_355795808" class="fil11" x1="1381.12" y1="406.236" x2="1512.08" y2= "645.16" />
    <polygon id="_355795424" class="fil12" points="1378.34,407.756 1509.3,646.681 1514.87,643.639 1383.91,404.714 "/>
    <line id="_355811216" class="fil11" x1="1352.39" y1="459.941" x2="1454.41" y2= "647.763" />
    <polygon id="_355810904" class="fil12" points="1349.6,461.451 1451.63,649.274 1457.2,646.254 1355.17,458.431 "/>
    <line id="_355810784" class="fil11" x1="1594.84" y1="400.884" x2="1343.15" y2= "528.754" />
    <polygon id="_355811000" class="fil12" points="1593.41,398.065 1341.72,525.935 1344.58,531.573 1596.27,403.705 "/>
    <line id="_355810568" class="fil11" x1="1567.39" y1="359.422" x2="1352.26" y2= "471.912" />
    <polygon id="_355810520" class="fil12" points="1565.93,356.616 1350.79,469.106 1353.72,474.718 1568.85,362.228 "/>
    <line id="_355811192" class="fil11" x1="1513.2" y1="341.484" x2="1382.13" y2= "408.072" />
    <polygon id="_355811120" class="fil12" points="1511.77,338.664 1380.7,405.253 1383.56,410.892 1514.62,344.303 "/>
    <line id="_355810448" class="fil11" x1="1618.93" y1="505.725" x2="1398.15" y2= "621.297" />
    <polygon id="_355809800" class="fil12" points="1617.47,502.918 1396.68,618.491 1399.61,624.103 1620.4,508.531 "/>
    <line id="_355809776" class="fil11" x1="1601.81" y1="570.332" x2="1456.59" y2= "646.348" />
    <polygon id="_355809752" class="fil12" points="1600.35,567.526 1455.13,643.542 1458.06,649.154 1603.28,573.139 "/>
    <path id="_355810304" class="fil13" d="M1396.63 407.307c38.7118,-42.9933 94.3064,-68.5749 143.325,-48.43 49.4233,20.3103 71.1898,76.8497 68.7603,134.049 -0.895276,21.0567 -5.09764,42.1937 -12.4382,61.7032 -7.24134,19.2425 -17.5051,36.7748 -30.6142,50.8926 -30.111,32.4296 -76.141,47.0292 -136.188,22.6347 -59.8748,-24.3248 -82.4398,-66.4111 -81.2481,-110.182 0.52441,-19.2815 5.49804,-38.9658 13.8295,-57.7241 8.46969,-19.0666 20.3634,-37.1634 34.5744,-52.9441zm152.884 -71.8713c-60.0898,-24.6957 -126.435,4.65591 -171.691,54.9178 -15.9591,17.7236 -29.3327,38.0823 -38.8748,59.5642 -9.67914,21.7914 -15.4595,44.7567 -16.076,67.3689 -1.46457,53.817 25.4752,105.237 97.0418,134.312 71.7024,29.1295 127.365,10.9417 164.26,-28.7906 15.4618,-16.6524 27.4642,-37.0548 35.8205,-59.263 8.25709,-21.9437 12.9874,-45.7807 13.9984,-69.58 2.8441,-66.9426 -23.9315,-133.647 -84.4784,-158.529z"/>
    <path id="_355810280" class="fil14" d="M1546.49 342.773c59.4851,24.4465 82.1197,90.7926 79.5686,150.855 -0.968505,22.8071 -5.4567,45.7548 -13.4965,67.1233 -7.79292,20.7095 -19.1126,40.3985 -34.2107,56.6587 -6.80197,7.3252 -14.3457,13.9488 -22.5957,19.6004 -40.9453,28.05 -88.4138,25.2969 -132.865,7.23898 -43.989,-17.8713 -79.9205,-48.6319 -89.6233,-96.8446 -1.98071,-9.83505 -2.74725,-19.878 -2.47441,-29.902 0.603544,-22.1717 6.4193,-44.1567 15.3945,-64.3642 9.28938,-20.9126 22.2118,-40.4752 37.5213,-57.4772 40.0063,-44.4307 103.296,-77.3351 162.781,-52.8886zm-155.764 59.2264c-14.6658,16.2874 -27.0295,34.9985 -35.928,55.0323 -8.47323,19.0748 -13.9406,39.7996 -14.511,60.7276 -0.21378,7.86379 0.292914,15.7394 1.60394,23.498 7.90512,46.7953 42.2256,77.0386 84.5883,94.2485 22.5166,9.14764 46.8237,14.4957 71.2028,12.2764 20.4791,-1.86378 39.4713,-8.97048 56.0894,-21.0874 6.39804,-4.66536 12.3071,-9.97324 17.6941,-15.7748 14.2441,-15.3402 24.8752,-33.9626 32.2264,-53.4969 7.6878,-20.4319 12.0118,-42.3508 12.9378,-64.1599 1.81063,-42.6248 -9.38859,-89.967 -41.0551,-120.412 -9.48308,-9.11812 -20.4425,-16.3087 -32.615,-21.3106 -55.7174,-22.898 -114.945,9.04725 -152.234,50.4591z"/>
    <line id="_355810040" class="fil15" x1="1254.99" y1="1020.83" x2="1254.99" y2= "1020.83" />
    <g>
     <path id="_355809416" class="fil16" d="M1343.73 900.493l-46.6264 -20.0788 -65.256 151.539c-5.52166,12.8221 0.451181,27.8303 13.2744,33.352l0 0c12.8221,5.52166 27.8303,-0.451181 33.352,-13.2732l65.256 -151.539z"/>
     <polygon id="_355809032" class="fil7" points="1348.02,902.622 1362.15,813.67 1348.25,808.494 1292.62,878.766 1286.25,893.564 1341.64,917.42 "/>
    </g>
    <g>
     <path id="_355809176" class="fil17" d="M1343.73 900.493l-22.8898 -9.85631 -75.2918 174.846c12.7276,5.20985 27.4654,-0.770079 32.9256,-13.4504l65.256 -151.539z"/>
     <polygon id="_355809152" class="fil18" points="1348.02,902.622 1362.15,813.67 1355.12,811.051 1314.37,905.675 1341.64,917.42 "/>
    </g>
   </g>
   <path id="_355809128" class="fil1" d="M1307.47 952.485c4.80827,-0.165354 14.2382,9.14646 8.24764,20.739 -4.61339,8.92914 -4.83662,3.00591 -15.3071,4.91693 5.01969,1.15394 38.6008,13.2662 22.7681,29.3551 -7.39134,7.50473 -9.8067,7.46575 -20.4603,6.00473 -0.696851,3.26221 21.9473,9.7382 15.241,24.4134 -6.55867,14.3469 -32.0032,7.4752 -49.9111,3.24567 -16.4492,-3.88111 -33.1051,-9.42757 -47.9445,-13.813 -16.3665,-4.84607 -3.95788,-45.2363 -7.18701,-60.1453 26.4603,-8.64686 65.1969,-19.9441 94.5532,-14.7165z"/>
  </g>
  <rect class="fil11" width="2048" height="2048"/>
 </g>
</svg>
