<?xml version="1.0" encoding="UTF-8"?>
<!DOCTYPE svg PUBLIC "-//W3C//DTD SVG 1.1//EN" "http://www.w3.org/Graphics/SVG/1.1/DTD/svg11.dtd">
<!-- Creator: CorelDRAW -->
<svg xmlns="http://www.w3.org/2000/svg" xml:space="preserve" width="2048px" height="2048px" style="shape-rendering:geometricPrecision; text-rendering:geometricPrecision; image-rendering:optimizeQuality; fill-rule:evenodd; clip-rule:evenodd"
viewBox="0 0 2048 2048"
 xmlns:xlink="http://www.w3.org/1999/xlink">
 <defs>
  <style type="text/css">
   <![CDATA[
    .fil11 {fill:none}
    .fil3 {fill:#01579B}
    .fil1 {fill:#1F1F1F}
    .fil7 {fill:#212121}
    .fil4 {fill:#2C6C2F}
    .fil5 {fill:#2E7D32}
    .fil6 {fill:#B19A75}
    .fil2 {fill:#E0E0E0}
    .fil8 {fill:#E2CDAA}
    .fil0 {fill:#FFD3AE}
    .fil10 {fill:#424242;fill-rule:nonzero}
    .fil9 {fill:#757575;fill-rule:nonzero}
   ]]>
  </style>
 </defs>
 <g id="Layer_x0020_1">
  <metadata id="CorelCorpID_0Corel-Layer"/>
  <g id="_357664216">
   <g>
    <path id="_357666904" class="fil0" d="M1105.39 1310.38c-6.86221,24.6201 38.4355,81.9922 48.3863,100.533 14.8583,27.6933 32.4673,48.9827 46.8709,71.556 7.77757,12.1902 18.2622,40.5815 25.363,74.9611 3.42874,4.81536 40.1977,-3.71103 55.2485,-9.21615 -0.530315,-11.9256 2.29961,-51.6496 -10.3595,-97.9205 -25.7693,-94.1965 -79.6926,-217.798 -82.2827,-216.878l-1.5815 0.561024c-32.0386,11.3717 -80.2914,71.5701 -81.6449,76.4032z"/>
    <path id="_357666832" class="fil1" d="M1452.68 1774.32c-1.65354,-3.22205 2.0811,-8.02205 -26.9965,-13.3878 -29.0764,-5.36103 -56.2926,-13.135 -69.7548,-26.5559 -13.4575,-13.4256 -28.3595,-35.6894 -31.6571,-42.1347 -3.30827,-6.44292 -16.6146,-2.41063 -16.6146,-2.41063 0,0 -3.99685,7.52717 -6.47481,20.0705 -2.47087,12.5457 -9.36733,18.737 -22.3252,15.3614 -12.9626,-3.38032 -17.5217,-17.5618 -17.5217,-17.5618 0,0 -11.1236,0.949607 -15.8658,20.4118 -4.74449,19.4575 -0.682678,58.35 -0.682678,58.35 21.7819,0.670867 223.334,17.9327 207.893,-12.1429z"/>
    <path id="_357667024" class="fil2" d="M1222.97 1536.78c-6.31063,3.02362 -12.5551,22.4882 -10.2224,36.8599 2.33268,14.374 8.8441,40.402 17.8158,60.9355 5.85,13.3843 19.8662,55.4752 27.2929,73.7682 3.96024,9.77245 3.45591,11.8795 11.9917,17.2417 8.52402,5.35985 21.4843,3.45236 34.4799,0.100394 12.9969,-3.34843 13.9311,-9.09213 12.3354,-23.1213 -1.80236,-15.8268 -10.6595,-57.4122 -13.6039,-96.3922 -2.94567,-38.9859 2.87599,-51.8079 -4.30866,-61.2874 -7.17638,-9.47717 -12.9106,-10.1055 -18.6579,-10.7386 -5.75315,-0.627166 -50.8122,-0.386221 -57.1229,2.63386z"/>
   </g>
   <g>
    <path id="_357666688" class="fil0" d="M1008.75 1310.38c6.86103,24.6201 -38.4366,81.9922 -48.3863,100.533 -14.8595,27.6933 -32.4673,48.9827 -46.8709,71.556 -7.77757,12.1902 -18.2622,40.5815 -25.363,74.9611 -3.42992,4.81536 -40.1977,-3.71103 -55.2485,-9.21615 0.529134,-11.9256 -2.29961,-51.6496 10.3583,-97.9205 25.7705,-94.1965 79.6926,-217.798 82.2839,-216.878l1.5815 0.561024c32.0386,11.3717 80.2914,71.5701 81.6449,76.4032z"/>
    <path id="_357666400" class="fil1" d="M661.463 1774.32c1.65354,-3.22205 -2.0811,-8.02205 26.9953,-13.3878 29.0776,-5.36103 56.2937,-13.135 69.756,-26.5559 13.4563,-13.4256 28.3595,-35.6894 31.6559,-42.1347 3.30945,-6.44292 16.6158,-2.41063 16.6158,-2.41063 0,0 3.99685,7.52717 6.47363,20.0705 2.47087,12.5457 9.36851,18.737 22.3252,15.3614 12.9638,-3.38032 17.5228,-17.5618 17.5228,-17.5618 0,0 11.1236,0.949607 15.8658,20.4118 4.74331,19.4575 0.682678,58.35 0.682678,58.35 -21.7831,0.670867 -223.334,17.9327 -207.893,-12.1429z"/>
    <path id="_357666328" class="fil2" d="M891.175 1536.78c6.30945,3.02362 12.5551,22.4882 10.2224,36.8599 -2.33268,14.374 -8.8441,40.402 -17.8158,60.9355 -5.85,13.3843 -19.8673,55.4752 -27.2941,73.7682 -3.95906,9.77245 -3.45473,11.8795 -11.9917,17.2417 -8.52402,5.35985 -21.4831,3.45236 -34.4788,0.100394 -12.998,-3.34843 -13.9323,-9.09213 -12.3366,-23.1213 1.80236,-15.8268 10.6595,-57.4122 13.6051,-96.3922 2.94567,-38.9859 -2.87599,-51.8079 4.30748,-61.2874 7.17756,-9.47717 12.9118,-10.1055 18.6591,-10.7386 5.75315,-0.627166 50.8111,-0.386221 57.1229,2.63386z"/>
   </g>
   <path id="_357666112" class="fil0" d="M864.298 775.301c-78.3142,-17.1106 -164.875,-288.414 -167.668,-288.797 -9.67087,-1.32638 -51.9957,-2.71181 -62.1556,-3.75473 -16.9772,70.363 127.817,348.496 209.47,352.18 3.4441,1.02992 19.3784,-45.9933 20.354,-59.628z"/>
   <path id="_357666760" class="fil0" d="M1188.2 775.301c78.3142,-17.1106 164.874,-288.414 167.667,-288.797 9.67087,-1.32638 51.9969,-2.71181 62.1567,-3.75473 16.9772,70.363 -127.817,348.496 -209.47,352.18 -3.44528,1.02992 -19.3795,-45.9933 -20.354,-59.628z"/>
   <path id="_357666544" class="fil0" d="M711.785 410.127c0.509056,-4.71378 -7.963,-14.6516 -19.7858,-9.59883 -9.10631,3.89055 -3.30355,4.53662 -5.93386,14.6882 -0.773623,-5.01615 -10.2579,-38.889 -27.2079,-24.4878 -7.90749,6.72166 -8.04449,9.09804 -7.37481,19.6725 -3.2563,0.451181 -7.99016,-22.2685 -22.8945,-16.7351 -14.5713,5.41182 -9.65079,30.9107 -6.78308,48.8138 2.62914,16.4445 6.87993,33.2114 10.1209,48.1099 3.58347,16.4339 44.1697,7.14804 58.5874,11.3953 10.4032,-25.3795 24.2941,-62.6327 21.2717,-91.8579z"/>
   <path id="_357666712" class="fil0" d="M1340.72 410.127c-0.510237,-4.71378 7.963,-14.6516 19.7847,-9.59883 9.10749,3.89055 3.30355,4.53662 5.93504,14.6882 0.772442,-5.01615 10.2567,-38.889 27.2079,-24.4878 7.90631,6.72166 8.04331,9.09804 7.37481,19.6725 3.25512,0.451181 7.98898,-22.2685 22.8933,-16.7351 14.5713,5.41182 9.65198,30.9107 6.78426,48.8138 -2.62914,16.4445 -6.87993,33.2114 -10.1209,48.1099 -3.58465,16.4339 -44.1697,7.14804 -58.5874,11.3953 -10.4032,-25.3795 -24.2953,-62.6327 -21.2717,-91.8579z"/>
   <path id="_357666424" class="fil3" d="M1051.26 1239.55l-33.9709 101.146c0,0 -62.8949,17.9799 -88.8355,6.21969 -25.9394,-11.7638 -40.2485,-35.4366 -40.2485,-35.4366 0,0 24.9898,-137.464 34.7658,-163.617 9.76891,-26.1508 43.5969,-95.8973 43.5969,-95.8973 0,0 14.2595,26.4697 53.0174,21.4547 12.4217,-1.6063 24.4819,-2.73307 35.3717,-3.53268l-3.69685 169.663z"/>
   <path id="_357665680" class="fil3" d="M1053.53 1242.42l40.4185 98.7461c0,0 63.9225,13.8898 89.0516,0.48189 25.1268,-13.4102 37.8803,-37.9571 37.8803,-37.9571 0,0 -33.7961,-135.568 -45.2363,-161.036 -11.4343,-25.4669 -49.6867,-92.8879 -49.6867,-92.8879 0,0 -12.5244,27.3331 -51.5244,24.8256 -12.4996,-0.801969 -24.6071,-1.14921 -35.5252,-1.24488l14.6221 169.073z"/>
   <path id="_357665368" class="fil4" d="M943.189 846.863c-1.46457,-14.315 10.9583,-0.826772 -4.68071,-23.4366 -15.6414,-22.6063 -89.8383,-58.5237 -89.8383,-58.5237 -3.67441,-0.379134 -40.7847,69.6107 -48.5811,79.226 0,0 9.79371,6.04252 27.8138,17.3764 40.1126,25.226 76.0772,53.9788 125.162,58.3524 0.562205,6.48898 -11.5465,-6.84922 -10.8354,-21.7618 0.918898,-19.2874 1.79528,-43.1622 0.960237,-51.2327z"/>
   <path id="_357665632" class="fil4" d="M1109.31 846.863c1.46339,-14.315 -10.9583,-0.826772 4.67953,-23.4366 15.6425,-22.6063 89.8383,-58.5237 89.8383,-58.5237 3.67559,-0.379134 40.7859,69.6107 48.5811,79.226 0,0 -9.79371,6.04252 -27.8126,17.3764 -40.1138,25.226 -76.0784,53.9788 -125.162,58.3524 -0.562205,6.48898 11.5453,-6.84922 10.8343,-21.7618 -0.917717,-19.2874 -1.7941,-43.1622 -0.959056,-51.2327z"/>
   <path id="_357665584" class="fil5" d="M1064.4 769.861l0.00708662 0 0.0153543 0 0.0259843 0.00236221 0.00236221 0 0.0330709 0 0.0484252 0.00236221 0.0578741 0 0.00708662 0 0.0602363 0.0011811 0.0755906 0.00236221 0.0874016 0.00236221 0.0200788 0.0011811 0.0779528 0.00236221 0.105118 0.00236221 0.11811 0.00354331 0.0318898 0 0.0933072 0.00472441 0.134646 0.00354331 0.146457 0.00354331 0.0496063 0.00236221 0.102756 0.00236221 0.164173 0.00354331 0.17126 0.00590552 0.0708662 0.00236221 0.109843 0.00354331 0.188977 0.00590552 0.197244 0.00590552 0.0980316 0.00472441 0.108662 0.0011811 0.217323 0.00826772 0.223229 0.00826772 0.125197 0.00354331 0.10748 0.00236221 0.239764 0.00944883 0.248032 0.00826772 0.155906 0.00590552 0.101575 0.00236221 0.264567 0.00944883 0.272835 0.0106299 0.186614 0.00708662 0.0921261 0.00236221 0.288189 0.00944883 0.295276 0.0129921 0.22441 0.00708662 0.0779528 0.00472441 0.31063 0.011811 0.318898 0.011811 0.262205 0.00944883 0.0625985 0.00236221 0.330709 0.0141732 0.337796 0.0141732 0.304725 0.011811 0.0425197 0.0011811 0.351969 0.0141732 0.357874 0.0165354 0.347244 0.0141732 0.0177165 0.0011811 0.372048 0.0165354 0.379134 0.0153543 0.383859 0.0165354 0.00590552 0.0011811 0.383859 0.0165354 0.399213 0.0177165 0.401575 0.0200788 0.034252 0.00236221 0.37441 0.0153543 0.413386 0.0200788 0.422835 0.0200788 0.0637796 0.00354331 0.360236 0.0177165 0.432284 0.0200788 0.435827 0.022441 0.0980316 0.00590552 0.343701 0.0153543 0.448819 0.0248032 0.451181 0.0212599 0.131102 0.00826772 0.327166 0.0153543 0.461811 0.0259843 0.466536 0.0236221 0.166536 0.0106299 0.304725 0.0153543 0.475985 0.0283465 0.48189 0.0259843c21.3201,1.19646 55.5473,4.1315 64.9914,10.878 14.0102,10.0063 3.48544,31.4079 7.48938,61.4268 3.99567,29.9977 37.1681,305.743 21.1701,299.743 -51.5622,9.65552 -186.018,56.0646 -260.212,7.81772 -1.96536,-1.0878 -9.56576,-306.097 12.8528,-353.725l0.175984 -0.372048 0.174803 -0.366142 0.0236221 -0.0496063 0.151181 -0.315355 0.175984 -0.357874 0.046063 -0.0933072 0.302362 -0.609449 0.0696851 -0.13937 0.105118 -0.207874 0.175984 -0.34252 0.090945 -0.178347 0.0814961 -0.157087 0.177165 -0.333071 0.115748 -0.220866 0.0602363 -0.109843 0.317717 -0.581103 0.034252 -0.0637796 0.179528 -0.316536 0.0377953 -0.0661418 0.226772 -0.39567 0.275197 -0.466536 0.011811 -0.0177165c0.238583,-0.398032 0.479528,-0.784253 0.724016,-1.16339l0.0625985 -0.0933072c0.387402,-0.592914 0.787796,-1.16457 1.2,-1.71024l0.0366142 -0.0472441 0.0531496 -0.0696851 0.20315 -0.261024 0.174803 -0.220866 0.0283465 -0.0366142 0.415748 -0.501969 0.42874 -0.488977 0.0271654 -0.0307087 0.411024 -0.444095 0.0578741 -0.0614174 0.166536 -0.17126c0.225591,-0.230315 0.455906,-0.458268 0.690945,-0.679134l0.124016 -0.114567 0.113386 -0.103937 0.360236 -0.32126 0.0413386 -0.0377953 0.0838583 -0.0708662 0.249213 -0.211417 0.199606 -0.165354 0.0531496 -0.0413386 0.0141732 -0.011811c0.330709,-0.266929 0.673229,-0.526772 1.0252,-0.779528l0.011811 -0.00708662 0.0165354 -0.011811 0.0354331 -0.0248032 0.499607 -0.346063 0.0543308 -0.0354331 0.0141732 -0.0106299 0.500788 -0.324803 0.0956694 -0.0590552 0.0318898 -0.0177165 0.464174 -0.281103 0.137008 -0.0814961 0.164173 -0.0933072 0.308268 -0.173622 0.183071 -0.101575 0.129921 -0.0696851 0.540945 -0.281103 0.0106299 -0.00590552 0.0897638 -0.046063 0.540945 -0.261024 0.0755906 -0.0377953 0.0484252 -0.0212599 0.340158 -0.157087 0.34252 -0.155906 0.00354331 0c8.44725,-3.71339 22.1126,-5.28426 47.4615,-6.68386l3.05433 -0.167717 0.0212599 -0.00236221 0.615355 -0.0318898 0.133465 -0.00708662 0.737008 -0.0401575 0.0673229 -0.00354331 1.77284 -0.0980316 0.0897638 -0.00354331 0.871654 -0.0484252 0.185433 -0.00826772 0.82441 -0.0448819 0.287008 -0.0165354 0.770079 -0.0413386 0.396851 -0.0200788 0.702756 -0.0401575 0.51378 -0.0283465 0.627166 -0.0330709 0.636615 -0.034252 0.544489 -0.0295276 0.766536 -0.0425197 0.451181 -0.0236221 0.900001 -0.0472441 0.35315 -0.0200788 1.03937 -0.0555119 0.244488 -0.0141732 1.18465 -0.0637796 0.132284 -0.00826772 1.32992 -0.0708662 0.0141732 0 1.3689 -0.0767717 0.109843 -0.00354331 1.28504 -0.0720473 0.236221 -0.011811 1.17874 -0.0637796 0.368504 -0.0200788 1.06772 -0.056693 0.501969 -0.0259843 0.950788 -0.0519685 0.637796 -0.034252 0.830316 -0.046063 0.775985 -0.0413386 0.705119 -0.0377953 0.914174 -0.0496063 0.577559 -0.0318898 1.05354 -0.0555119 0.446457 -0.0259843 1.19173 -0.0637796 0.312992 -0.0165354 1.33228 -0.0708662 0.179528 -0.0106299 1.46693 -0.0791339 0.046063 -0.00236221 1.51181 -0.0814961 0.0885827 -0.00590552 1.41969 -0.0755906 0.225591 -0.011811 1.28032 -0.0696851 0.356693 -0.0200788 1.14095 -0.0614174 0.490158 -0.0259843 0.999213 -0.0543308 0.616536 -0.034252 0.861024 -0.0448819 0.742914 -0.0401575 0.722835 -0.0401575 0.863386 -0.046063 0.585827 -0.0307087 0.979135 -0.0543308 0.45 -0.0236221 1.0937 -0.0578741 0.318898 -0.0177165 1.19882 -0.0661418 0.188977 -0.00944883 1.29803 -0.0696851 0.0673229 -0.00472441 1.33819 -0.0708662 0.0519685 -0.00236221 1.25669 -0.0696851 0.167717 -0.00826772 1.11024 -0.0590552 0.275197 -0.0141732 0.969686 -0.0543308 0.376772 -0.0200788 0.831497 -0.0448819 0.470079 -0.0248032 0.702756 -0.0377953 0.553937 -0.0295276 0.577559 -0.0318898 0.633071 -0.034252 0.458268 -0.0259843 0.698032 -0.0377953 0.347244 -0.0177165 0.755906 -0.0389764 0.243307 -0.0141732 0.804331 -0.0437008 0.147638 -0.00826772 0.838583 -0.046063 0.0614174 -0.00236221 0.846851 -0.0448819 0.0153543 -0.00236221 0.777166 -0.0413386 0.0826772 -0.00472441 0.651969 -0.0354331 0.13937 -0.00590552 0.53504 -0.0295276 0.183071 -0.0106299 0.429922 -0.0212599 0.214961 -0.0129921 0.335433 -0.0177165 0.232677 -0.0141732 0.250394 -0.011811 0.239764 -0.0129921 0.174803 -0.0106299 0.231496 -0.011811 0.113386 -0.00590552 0.206693 -0.011811 0.0661418 -0.00236221 0.166536 -0.00944883 0.0307087 -0.00236221 0.111024 -0.00590552 0.00826772 0 0.0389764 -0.00236221z"/>
   <g>
    <path id="_357665728" class="fil6" d="M938.356 649.509c-2.85473,-7.63465 -32.0374,-16.2803 -22.8933,21.7878 1.06536,4.42323 9.21497,18.9449 22.6843,19.1197 13.9748,0.180709 4.57796,-27.7193 0.209055,-40.9075z"/>
    <path id="_357665416" class="fil7" d="M979.719 471.258c79.5945,30.5386 105.86,20.4685 123.097,47.537 17.9858,28.239 -0.405118,95.5489 -11.5973,148.582 -6.37796,30.2185 1.68662,51.2741 -10.2319,69.1926 -3.46063,13.598 -71.6977,14.413 -106.494,-2.9752 -23.4201,-11.7024 -21.0969,-18.2575 -33.4677,-45.5055 -17.1602,-37.7953 -33.9815,-55.1174 -38.1862,-111.193 -1.09016,-14.5288 -2.46142,-42.4205 11.2134,-45.339 -10.3665,-51.4607 47.9304,-73.963 65.667,-60.2989z"/>
    <path id="_357664576" class="fil0" d="M1079.04 551.217c7.68308,20.6445 6.19252,85.0312 0.0377953,137.492 -0.935434,7.97363 -4.66063,19.1528 -7.91575,29.5772 -2.94331,9.43111 -5.50158,18.2433 -5.26182,23.5063 0.766536,16.7858 1.15394,21.613 13.4788,28.4469 0.0838583,3.44173 -12.1547,6.01536 -17.0268,9.19016 -7.94528,5.17441 -18.4406,28.7126 -30.4701,30.4984 -9.63544,1.43032 -11.8654,-19.5142 -17.628,-22.1764 -33.2315,-15.3555 -67.3193,-38.2453 -79.2674,-75.163 -11.5039,-18.5551 -14.7177,-157.735 -0.858662,-174 8.72835,-20.8772 38.7012,8.12599 62.7343,1.74213 61.0689,-14.648 78.7253,0.196063 82.1776,10.8862z"/>
    <path id="_357664600" class="fil6" d="M1075.07 705.714l-0.056693 0.19252 -0.0165354 0.0543308 -0.0425197 0.13937 -0.0590552 0.194882 -0.046063 0.154725 -0.011811 0.0413386 -0.0590552 0.193701 -0.0590552 0.196063 -0.0177165 0.0590552 -0.0413386 0.137008 -0.0602363 0.194882 -0.0484252 0.158268 -0.0106299 0.0377953 -0.0602363 0.196063 -0.0590552 0.194882 -0.0200788 0.0625985 -0.0401575 0.133465 -0.0602363 0.197244 -0.121654 0.392126 -0.0602363 0.197244 -0.0200788 0.0649607 -0.0401575 0.131102 -0.0602363 0.197244 -0.0614174 0.196063 -0.0614174 0.197244 -0.0614174 0.197244 -0.0212599 0.068504 -0.0401575 0.127559 -0.0602363 0.198425 -0.0543308 0.168898 -0.00826772 0.0283465 -0.0602363 0.196063 -0.0625985 0.198425 -0.022441 0.0720473 -0.0389764 0.125197 -0.0614174 0.197244 -0.0543308 0.173622 -0.00826772 0.0236221 -0.0602363 0.198425 -0.0625985 0.196063 -0.0248032 0.0767717 -0.0366142 0.121654 -0.0625985 0.196063 -0.0555119 0.177165 -0.00708662 0.0212599 -0.0614174 0.197244 -0.0625985 0.197244 -0.0248032 0.080315 -0.0366142 0.116929 -0.0625985 0.198425 -0.056693 0.179528 -0.00472441 0.0165354 -0.0625985 0.198425 -0.0625985 0.197244 -0.0248032 0.0826772 -0.0366142 0.114567 -0.0625985 0.197244 -0.056693 0.184252 -0.00472441 0.0129921 -0.0625985 0.197244 -0.0614174 0.197244 -0.0271654 0.0862205 -0.034252 0.109843 -0.0625985 0.197244 -0.0578741 0.186614 -0.00354331 0.0106299 -0.0625985 0.196063 -0.0614174 0.197244 -0.0283465 0.0885827 -0.034252 0.10748 -0.0602363 0.196063 -0.0602363 0.190158 -0.00236221 0.00708662 -0.0625985 0.196063 -0.0602363 0.196063 -0.0295276 0.0933072 -0.0330709 0.102756 -0.0602363 0.196063 -0.0602363 0.191339 -0.0011811 0.00354331 -0.0625985 0.196063 -0.0602363 0.194882 -0.0295276 0.0956694 -0.0318898 0.0992127 -0.0602363 0.196063 -0.0614174 0.193701c-2.94331,9.42993 -5.50158,18.2433 -5.26182,23.5051l0.00236221 0.0472441 0.00236221 0.0472441 0.0011811 0.0472441 0.00236221 0.0448819 0.00236221 0.0472441 0.00236221 0.0472441 0.00236221 0.0448819 0.00236221 0.0472441 0.0011811 0.046063 0.00236221 0.046063 0.00236221 0.046063 0.00236221 0.046063 0.00236221 0.046063 0.0011811 0.046063 0.00236221 0.046063 0.00236221 0.0448819 0.0011811 0.0377953 0.0011811 0.00826772 0.00236221 0.046063 0.0011811 0.0448819 0.00236221 0.046063 0.00236221 0.046063 0.00236221 0.0448819 0.00236221 0.046063 0.00236221 0.0448819 0.0011811 0.046063 0.00236221 0.0448819 0.00236221 0.0448819 0.00236221 0.046063 0.0011811 0.0437008 0.00236221 0.046063 0.00236221 0.0448819 0.00236221 0.0437008 0.00236221 0.046063 0.0011811 0.0283465 0 0.0165354 0.00236221 0.0437008 0.00236221 0.0448819 0.00236221 0.0448819 0.00236221 0.0448819 0.0011811 0.0437008 0.00236221 0.0448819 0.00236221 0.0448819 0.00236221 0.0437008 0.00236221 0.0437008 0.0011811 0.0448819 0.00236221 0.0437008 0.00236221 0.0437008 0.00236221 0.0448819 0.0011811 0.0437008 0.00236221 0.0437008 0.00236221 0.0437008 0.0011811 0.0200788 0.0011811 0.0248032 0.00236221 0.0425197 0.0011811 0.0437008 0.00236221 0.0448819 0.00236221 0.0425197 0.00236221 0.0437008 0.00236221 0.0437008 0.0011811 0.0425197 0.00236221 0.0437008 0.00236221 0.0437008 0.00236221 0.0437008 0.0011811 0.0413386 0.00236221 0.0437008 0.0011811 0.0437008 0.00708662 0.13937 0.0271654 0.532678 0.00944883 0.178347 0.0259843 0.480709 0.011811 0.21378c0.549213,10.0866 1.00158,16.1421 9.82442,21.9709l0.276378 0.179528 0.0602363 0.0377953 0.405118 0.256299 0.0212599 0.0141732 0.147638 0.0933072 0.354331 0.217323 0.00236221 0.00236221 0.37441 0.225591 0.141732 0.0850394 0.0933072 0.0555119 0.440552 0.258662 0.0649607 0.0377953 0.486615 0.27874 0.034252 0.0188977 0.536221 0.298819 0 0.0141732 0 0.0153543 -0.00236221 0.0389764 -0.00590552 0.113386 -0.00826772 0.0590552 -0.0153543 0.0933072 -0.022441 0.0874016 -0.0177165 0.0673229 -0.0295276 0.0814961 -0.0318898 0.0826772 -0.00354331 0.00944883 -0.0602363 0.12874 -0.0141732 0.0271654 -0.0283465 0.0472441 -0.0590552 0.102756 -0.0165354 0.0248032 -0.0885827 0.126378 -0.00472441 0.00590552 -0.100394 0.127559 -0.0200788 0.0248032 -0.112205 0.127559 -0.022441 0.0236221 -0.125197 0.126378 -0.0236221 0.0236221 -0.137008 0.126378 -0.0259843 0.022441 -0.148819 0.126378 -0.174803 0.13937 -0.0106299 0.00944883 -0.0271654 0.0200788 -0.17126 0.126378 -0.0295276 0.0200788 -0.18189 0.126378 -0.0283465 0.0188977 -0.19252 0.127559 -0.0307087 0.0177165 -0.201969 0.126378 -0.243307 0.144095 -0.0318898 0.0177165 -0.220866 0.126378 -0.0330709 0.0177165 -0.229134 0.125197 -0.0330709 0.0177165 -0.237402 0.124016 -0.034252 0.0177165 -0.245669 0.124016 -0.034252 0.0177165 -0.253937 0.124016 -0.034252 0.0165354 -0.262205 0.124016 -0.0330709 0.0153543 -0.270473 0.125197 -0.0330709 0.0153543 -0.276378 0.124016 -0.0330709 0.0153543 -0.283465 0.124016 -0.0330709 0.0141732 -0.28937 0.125197 -0.0330709 0.0141732 -0.294095 0.124016 -0.0318898 0.0141732 -0.3 0.124016 -0.0318898 0.0141732 -0.305906 0.124016 -0.0307087 0.0129921 -0.31063 0.125197 -0.0295276 0.0129921 -0.314173 0.125197 -0.0307087 0.011811 -0.317717 0.125197 -0.0295276 0.011811 -0.320079 0.125197 -0.0295276 0.011811 -0.323622 0.126378 -0.0283465 0.0106299 -0.327166 0.126378 -0.0259843 0.0106299 -0.329528 0.126378 -0.0259843 0.0106299 -0.33189 0.126378 -0.0236221 0.00944883 -0.333071 0.12874 -0.0248032 0.00826772 -0.333071 0.129921 -0.0236221 0.00708662 -0.333071 0.129921 -0.022441 0.00826772 -0.334252 0.12874 -0.0212599 0.00944883 -0.333071 0.12874 -0.0200788 0.00826772 -0.333071 0.129921 -0.0188977 0.00708662 -0.33189 0.131102 -0.0177165 0.00708662 -0.330709 0.131102 -0.0165354 0.00708662 -0.329528 0.132284 -0.0153543 0.00590552 -0.324803 0.132284 -0.0141732 0.00708662 -0.323622 0.133465 -0.0129921 0.00472441 -0.320079 0.134646 -0.0129921 0.00590552 -0.314173 0.134646 -0.011811 0.00472441 -0.311811 0.135827 -0.00944883 0.00472441 -0.307087 0.137008 -0.00944883 0.00354331 -0.301181 0.138189 -0.00826772 0.00354331 -0.295276 0.13937 -0.00708662 0.00354331 -0.290551 0.13937 -0.00590552 0.00236221 -0.282284 0.141732 -0.00590552 0.00236221 -0.275197 0.141732 -0.00354331 0.00236221 -0.269292 0.142913 -0.00236221 0.0011811 -0.259843 0.144095 -0.00236221 0.0011811 -0.251575 0.145276 -0.0011811 0.0011811 -0.244488 0.146457 0 0.0011811 -0.232677 0.147638c-7.9441,5.17441 -24.6732,38.0681 -36.7028,39.8528 -1.13504,0.168898 -2.42244,-0.0992127 -3.81378,-0.699213 -6.36497,-3.75 -6.6815,-28.5047 -25.8921,-40.1256 -12.1878,-7.37245 -26.0433,-17.0977 -33.1229,-23.6315l-0.0944883 -0.0885827 -0.0177165 -0.0165354 -1.16457 -1.10433 -0.209055 -0.201969c-0.346063,-0.333071 -0.690945,-0.668504 -1.03228,-1.0063l-0.0992127 -0.0968505 -0.13937 -0.138189 -1.07362 -1.07835 -0.00472441 -0.00472441 -0.0177165 -0.0165354 -0.0377953 -0.0401575c-0.388583,-0.394488 -0.773623,-0.79252 -1.1563,-1.19173l-0.056693 -0.0614174 -0.302362 -0.32126c28.1953,24.7181 57.4772,14.1413 79.7776,-2.79921 22.0984,-16.787 37.3418,-39.8209 37.8792,-40.9453z"/>
    <path id="_357664936" class="fil8" d="M1081.06 648.891c2.87126,-8.41064 34.4103,-18.7488 25.6335,23.0315 -1.02047,4.85552 -9.45001,20.9398 -24.1264,21.5516 -15.2244,0.635434 -5.85709,-30.0709 -1.50709,-44.5831z"/>
    <path id="_357665248" class="fil7" d="M1096.53 641.092l-11.7461 -49.0819c-0.349607,11.3055 -9.86694,80.1686 -17.3658,86.4001 15.8894,4.28032 19.1221,-39.3177 29.1118,-37.3181z"/>
   </g>
   <g>
    <polygon id="_357664648" class="fil9" points="394.761,417.485 1653.24,417.485 1653.24,451.941 394.761,451.941 "/>
    <path id="_357665056" class="fil10" d="M1481.91 255.998l50.8075 0c9.01654,0 17.2004,5.51339 23.1201,14.3953l-0.0377953 0.056693c5.94449,8.94331 9.63426,21.2043 9.63426,34.6276l0 252.575c0,13.5272 -3.67677,25.8047 -9.59528,34.6843l-0.0767717 0c-5.92205,8.88072 -14.0799,14.3941 -23.0445,14.3941l-50.8075 0c-8.73544,0 -17.0799,-5.36221 -23.152,-13.9736 -6.27166,-8.89607 -10.324,-21.2811 -10.324,-35.1048l0 -252.575c0,-13.8248 4.05355,-26.2087 10.324,-35.1048 6.07087,-8.61142 14.4154,-13.9748 23.152,-13.9748z"/>
    <path id="_357665008" class="fil10" d="M555.592 255.998l-50.8075 0c-9.01654,0 -17.2004,5.51339 -23.1201,14.3953l0.0377953 0.056693c-5.94449,8.94331 -9.63426,21.2043 -9.63426,34.6276l0 252.575c0,13.5272 3.67677,25.8047 9.59528,34.6843l0.0767717 0c5.92205,8.88072 14.0799,14.3941 23.0445,14.3941l50.8075 0c8.73544,0 17.0799,-5.36221 23.152,-13.9736 6.27166,-8.89607 10.324,-21.2811 10.324,-35.1048l0 -252.575c0,-13.8248 -4.05355,-26.2087 -10.324,-35.1048 -6.07087,-8.61142 -14.4154,-13.9748 -23.152,-13.9748z"/>
    <path id="_357665176" class="fil10" d="M1582.18 328.93l25.4185 0c4.51181,0 8.60552,3.22087 11.5677,8.40946l-0.0188977 0.0330709c2.97402,5.22402 4.8189,12.385 4.8189,20.2264l0 147.532c0,7.90158 -1.83898,15.0732 -4.8,20.2595l-0.0377953 0c-2.96339,5.18741 -7.0441,8.40827 -11.5299,8.40827l-25.4185 0c-4.37008,0 -8.5441,-3.13229 -11.5819,-8.1626 -3.13819,-5.19685 -5.16496,-12.4299 -5.16496,-20.5051l0 -147.532c0,-8.0752 2.02677,-15.3095 5.16496,-20.5051 3.03662,-5.03032 7.21182,-8.16379 11.5819,-8.16379z"/>
    <path id="_357664816" class="fil10" d="M455.322 328.93l-25.4185 0c-4.51181,0 -8.60552,3.22087 -11.5677,8.40946l0.0188977 0.0330709c-2.97402,5.22402 -4.8189,12.385 -4.8189,20.2264l0 147.532c0,7.90158 1.83898,15.0732 4.8,20.2595l0.0377953 0c2.96339,5.18741 7.0441,8.40827 11.5299,8.40827l25.4185 0c4.37008,0 8.5441,-3.13229 11.5819,-8.1626 3.13819,-5.19685 5.16496,-12.4299 5.16496,-20.5051l0 -147.532c0,-8.0752 -2.02677,-15.3095 -5.16496,-20.5051 -3.03662,-5.03032 -7.21182,-8.16379 -11.5819,-8.16379z"/>
   </g>
  </g>
  <rect class="fil11" width="2048" height="2048"/>
 </g>
</svg>
