<?xml version="1.0" encoding="UTF-8"?>
<!DOCTYPE svg PUBLIC "-//W3C//DTD SVG 1.1//EN" "http://www.w3.org/Graphics/SVG/1.1/DTD/svg11.dtd">
<!-- Creator: CorelDRAW -->
<svg xmlns="http://www.w3.org/2000/svg" xml:space="preserve" width="2048px" height="2048px" style="shape-rendering:geometricPrecision; text-rendering:geometricPrecision; image-rendering:optimizeQuality; fill-rule:evenodd; clip-rule:evenodd"
viewBox="0 0 2048 2048"
 xmlns:xlink="http://www.w3.org/1999/xlink">
 <defs>
  <style type="text/css">
   <![CDATA[
    .fil7 {fill:none}
    .fil1 {fill:#EDBE97}
    .fil4 {fill:black;fill-rule:nonzero}
    .fil6 {fill:#03A9F4;fill-rule:nonzero}
    .fil3 {fill:#212121;fill-rule:nonzero}
    .fil0 {fill:#424242;fill-rule:nonzero}
    .fil5 {fill:#FF9800;fill-rule:nonzero}
    .fil2 {fill:#FFD3AE;fill-rule:nonzero}
   ]]>
  </style>
 </defs>
 <g id="Layer_x0020_1">
  <metadata id="CorelCorpID_0Corel-Layer"/>
  <g id="_406726472">
   <g>
    <path id="_406727840" class="fil0" d="M937.985 375.12c6.93308,-16.2295 25.7138,-23.765 41.9445,-16.8307 16.2307,6.93308 23.765,25.7138 16.8319,41.9445 -19.5508,45.6768 -33.5433,97.8591 -41.9729,156.541 -8.58898,59.7804 -11.3965,125.711 -8.42599,197.786 0.679134,17.602 -13.0417,32.4248 -30.6437,33.1028 -17.602,0.679134 -32.4248,-13.0417 -33.1028,-30.6437 -3.15945,-76.6371 -0.219685,-146.419 8.82048,-209.346 9.19843,-64.0252 24.7146,-121.545 46.5485,-172.554z"/>
    <path id="_406727816" class="fil0" d="M1299.64 559.327c12.828,-12.1063 33.0425,-11.5193 45.1489,1.30866 12.1051,12.828 11.5193,33.0425 -1.30866,45.1489 -27.5693,26.0575 -50.7804,60.2823 -69.6319,102.667 -19.5768,44.0185 -34.3996,96.4312 -44.4603,157.23 -2.84528,17.3764 -19.2378,29.1555 -36.6142,26.3114 -17.3764,-2.84528 -29.1567,-19.2378 -26.3126,-36.6142 11.0091,-66.5245 27.3331,-124.108 48.965,-172.748 22.3571,-50.2678 50.4307,-91.3725 84.2138,-123.304z"/>
    <path id="_406727552" class="fil0" d="M1581.76 850.185c16.3618,-6.56693 34.9524,1.37362 41.5205,17.7366 6.56693,16.3618 -1.37362,34.9524 -17.7366,41.5205 -16.5886,6.67796 -34.1445,20.6268 -52.6571,41.8359 -20.2701,23.224 -41.1815,54.7158 -62.726,94.4705 -8.38347,15.5138 -27.7583,21.2917 -43.2733,12.9083 -15.5138,-8.38347 -21.2917,-27.7583 -12.9083,-43.2721 23.6398,-43.6205 47.2559,-78.9449 70.8426,-105.969 25.3488,-29.0421 50.9977,-48.7867 76.9382,-59.2311z"/>
   </g>
   <path id="_406727096" class="fil1" d="M559.791 1220.77c63.7642,-59.3717 -100.019,-116.982 -47.791,-132.768l175.916 -53.1697 -104.687 195.312 -23.4378 -9.37442z"/>
   <path id="_406727624" class="fil2" d="M617.679 972.885c8.14607,48.3567 -1.69725,100.121 -31.8095,143.734l-2.58544 3.75827c-30.2221,41.765 -74.4851,67.7587 -121.981,75.8859 -47.3705,8.10473 -98.0032,-1.6311 -141.112,-31.291l-3.7004 -2.54646 -0.0177165 0.0248032c-42.4618,-30.3921 -68.9481,-75.9331 -77.1816,-124.833 -8.14607,-48.3839 1.69606,-100.18 31.7492,-143.839 2.35158,-3.40512 0.38504,-0.72756 1.75276,-2.6374l0.0602363 0.0425197c30.463,-42.5327 75.8847,-68.2323 124.133,-76.0276 47.967,-7.74922 98.9292,2.2937 140.803,31.1918 1.17874,0.81378 2.03858,1.41378 2.52874,1.76457 42.5646,30.391 69.1312,75.9201 77.3611,124.773z"/>
   <path id="_406727240" class="fil3" d="M243.299 1056.03c-1.62638,-6.06615 -2.96339,-12.2091 -4.00748,-18.4075 -8.14607,-48.3839 1.69606,-100.18 31.7492,-143.839 2.35158,-3.40512 0.38504,-0.72756 1.75276,-2.6374l0.0602363 0.0425197c30.463,-42.5327 75.8847,-68.2323 124.133,-76.0276 47.967,-7.74922 98.9292,2.2937 140.803,31.1918 1.17874,0.81378 2.03858,1.41378 2.52874,1.76457 42.5339,30.3685 69.091,75.8528 77.3422,124.665 -39.6189,30.4843 -111.339,43.2461 -188.849,29.1496 -22.5449,-4.10079 -43.8284,-10.1587 -63.3296,-17.7295 -24.7547,42.8315 -70.1823,71.602 -122.183,71.8276z"/>
   <path id="_406727336" class="fil4" d="M319.035 1042.45c20.4295,-13.6039 40.6489,-10.1445 56.6233,2.25709l0.0177165 0c6.79252,5.27363 12.7795,12.1866 17.6291,20.0729 4.80237,7.80945 8.50985,16.6288 10.7953,25.7941 6.62126,26.5536 1.25551,55.9619 -23.8583,72.6863 -1.16811,0.778347 -2.42835,1.5 -3.76772,2.16496 -13.6063,6.75355 -35.2949,6.97441 -55.8473,1.89567 -20.5795,-5.08465 -40.3122,-15.5327 -50.028,-30.1134l-0.00826772 0.00590552c-0.947245,-1.42087 -1.8248,-2.9374 -2.62323,-4.54725 -7.18229,-14.4709 -3.82559,-29.7544 4.48819,-43.9394 11.2618,-19.213 31.8284,-36.4548 46.5792,-46.2768zm51.1276 9.34961c-13.0394,-10.1173 -29.5276,-12.9449 -46.1717,-1.86142 -13.9559,9.2941 -33.3532,25.5 -43.8012,43.324 -6.87756,11.7354 -9.77599,24.1382 -4.17166,35.4307 0.570473,1.14921 1.26142,2.33032 2.06103,3.52914l0 0.0177165c8.37757,12.5799 26.0563,21.7571 44.6929,26.3622 18.6673,4.61221 38.0138,4.58859 49.7292,-1.22717 0.980316,-0.486615 1.91221,-1.02165 2.78504,-1.60276 21.4264,-14.2689 25.8862,-39.8327 20.0953,-63.0532 -2.0504,-8.22048 -5.39528,-16.1634 -9.73938,-23.2288 -4.29803,-6.98859 -9.55867,-13.0795 -15.4866,-17.6823l0.00708662 -0.00826772z"/>
   <path id="_406727384" class="fil4" d="M586.838 895.757c-0.0602363,0.185433 -19.741,61.0713 -68.7532,101.776 -48.2398,40.063 -123.24,79.376 -123.408,79.4753l-5.07874 -8.59371c0.166536,-0.0980316 74.6138,-39.0863 122.118,-78.5375 46.7304,-38.8099 68.5926,-102.899 68.6504,-103.077l6.47126 8.95749z"/>
   <path id="_406727168" class="fil5" d="M1297.1 1366.66c65.4414,-3.65433 190.336,-45.5788 342.542,-108.506 61.7646,-25.5355 120.36,-42.1524 151.097,35.2642 3.04961,7.6819 1.49882,17.4165 1.16221,27.7666 -0.731103,22.3736 -9.74646,45.9201 -29.3563,68.3965 -38.9351,44.6492 -116.565,81.2918 -201.045,108.833 -118.815,38.7355 -254.489,60.73 -309.088,60.5304 -110.023,-0.408662 -217.552,-22.8496 -318.717,-58.7363 -118.626,-42.0792 -228.738,-102.634 -323.874,-167.72 -29.4177,-15.5728 -49.0678,-35.4036 -59.0587,-57.639 -11.2406,-25.0122 -10.1315,-51.3922 3.06378,-77.1449 0.129921,-0.263386 0.262205,-0.52441 0.399213,-0.785434l0.0425197 -0.080315 0.00354331 0.00236221c2.57835,-4.94764 5.85827,-10.1929 10.024,-16.8555 12.4571,-19.9276 33.9024,-54.2351 50.1461,-101.252 -0.783071,-26.178 -7.59922,-52.5898 -16.2402,-76.1386 -9.39568,-25.6028 -20.9977,-47.9575 -29.6551,-63.3839l-158.076 -228.734 0.0283465 -0.0200788c-44.7437,-64.9737 -31.2792,-107.55 1.28268,-127.622 39.091,-24.0945 94.4953,-30.7677 121.004,10.1669l166.369 237.445c15.0473,21.5126 46.7185,64.4953 55.9241,78.2894 76.9241,115.265 52.6441,-2.08819 122.582,40.102 0.284646,0.157087 0.56693,0.315355 0.848032,0.48189l218.538 130.034 -0.0188977 0.0318898c0.257481,0.152362 0.51378,0.307087 0.768898,0.467717 28.8189,18.1536 47.5855,46.2626 54.6071,77.0658 6.99449,30.6839 2.25591,64.05 -15.8941,92.8808l-10.4693 16.5886c-6.0378,45.613 134.283,102.325 171.059,100.271z"/>
   <path id="_406726304" class="fil6" d="M808.818 960.989c18.1158,-2.03977 24.8008,-38.7201 68.8406,-12.1536 0.284646,0.157087 0.56693,0.315355 0.848032,0.48189l218.538 130.034 -0.0188977 0.0318898c0.257481,0.152362 0.51378,0.307087 0.768898,0.467717 28.8189,18.1536 47.5855,46.2626 54.6071,77.0658 6.99449,30.6839 2.25591,64.05 -15.8941,92.8808l-10.278 16.2862c-13.9476,6.5941 -21.5079,19.5307 -21.5079,19.5307 0,0 -272.721,-133.615 -304.722,-165.615 -32.0008,-32.0008 0,-63.9993 0,-63.9993l8.80512 -94.995 0.0129921 -0.0153543z"/>
  </g>
  <rect class="fil7" width="2048" height="2048"/>
 </g>
</svg>
