<?xml version="1.0" encoding="UTF-8"?>
<!DOCTYPE svg PUBLIC "-//W3C//DTD SVG 1.1//EN" "http://www.w3.org/Graphics/SVG/1.1/DTD/svg11.dtd">
<!-- Creator: CorelDRAW -->
<svg xmlns="http://www.w3.org/2000/svg" xml:space="preserve" width="6.82666in" height="6.82666in" style="shape-rendering:geometricPrecision; text-rendering:geometricPrecision; image-rendering:optimizeQuality; fill-rule:evenodd; clip-rule:evenodd"
viewBox="0 0 6.82666 6.82666"
 xmlns:xlink="http://www.w3.org/1999/xlink">
 <defs>
  <style type="text/css">
   <![CDATA[
    .fil7 {fill:none}
    .fil1 {fill:#36261A}
    .fil3 {fill:#BDBDBD}
    .fil4 {fill:#BEB29F}
    .fil2 {fill:#E2D0B7}
    .fil6 {fill:#5B301E;fill-rule:nonzero}
    .fil0 {fill:#6D3119;fill-rule:nonzero}
    .fil5 {fill:#FF3D00;fill-rule:nonzero}
   ]]>
  </style>
 </defs>
 <g id="Layer_x0020_1">
  <metadata id="CorelCorpID_0Corel-Layer"/>
  <g id="_435152056">
   <path id="_435137008" class="fil0" d="M5.16917 2.98745c-0.00254331,0.00739764 -0.00433465,0.0151102 -0.00528346,0.0230472 -0.0305236,0.0481378 -0.201512,0.0277717 -0.454138,-0.0443386 -0.096937,-0.0276693 -0.203189,-0.0640591 -0.316339,-0.10848 -0.00461811,0.0119606 -0.00449213,0.022685 0.00370866,0.039378 0.0304843,0.0620472 -0.0216811,0.0618661 -0.0232283,0.113516 -0.00214961,0.0720984 0.0021063,0.0519449 -0.0028622,0.0618858 2.75591e-005,0.0109094 -0.00164961,0.0170433 -0.00584646,0.0154646l-0.00011811 0.000366142 -3.93701e-006 3.93701e-006 -0.00011811 0.000374016 -0.000122047 0.00038189 -0.000122047 0.000385827 -0.000125984 0.000393701 -0.000122047 0.000393701 -0.000125984 0.000405512 -3.54331e-005 0.00011811 -9.05512e-005 0.000287402 -0.000125984 0.000413386 -0.000129921 0.000417323 -0.000129921 0.00042126 -0.000133858 0.000433071 -0.000129921 0.000433071 -8.26772e-005 0.000259843 -5.11811e-005 0.000177165 -0.000133858 0.000444882 -0.000137795 0.000452756 -0.000133858 0.000456693 -0.000141732 0.00046063 -0.000141732 0.000464567 -0.000122047 0.000429134 -1.5748e-005 4.72441e-005 -0.000137795 0.000476378 -0.000145669 0.000488189 -0.000145669 0.000488189 -0.000141732 0.0005 -0.000149606 0.000503937 -0.000149606 0.000503937 -2.75591e-005 0.000102362 -0.00011811 0.000413386 -0.000153543 0.000523622 -0.000149606 0.000527559 -0.000149606 0.000531496 -0.00015748 0.00053937 -0.000153543 0.000543307 -7.48031e-005 0.000275591 -8.26772e-005 0.000279528 -0.00015748 0.000555118 -0.000318898 0.00113386 -0.000161417 0.00057874 -0.000165354 0.000582677 -0.000125984 0.000468504 -3.54331e-005 0.00011811 -0.0005 0.00181102 -0.000165354 0.000614173 -0.000173228 0.00061811 -0.000173228 0.000629921 -1.5748e-005 6.29921e-005 -0.000153543 0.000574803 -0.000173228 0.000641732 -0.000350394 0.00130709 -0.000181102 0.00065748 -0.000248031 0.000940945 -0.000114173 0.000409449 -0.000547244 0.00207087 -0.000185039 0.000704724 -0.000188976 0.000712598 -0.000133858 0.0005 -5.51181e-005 0.000216535 -0.000188976 0.000728346 -0.000192913 0.000732283 -0.000192913 0.000744094 -0.00019685 0.000744094 -0.000192913 0.000751969 -0.00019685 0.000767717c-0.0212598,0.082378 -0.0708504,0.16098 -0.117248,0.226783 -0.0012874,0.00182283 -0.125594,0.221043 -0.130209,0.229142 -0.0423268,0.0742677 -0.111728,0.142366 -0.113512,0.145496 0.0018937,-0.00332677 0.00759449,-0.0144213 0.00911811,-0.0166575 0.0704803,-0.10361 0.0230984,-0.10402 0.0692992,-0.182307 0.0449488,-0.0761772 0.0567362,-0.146988 0.0762559,-0.179839 0.0449961,-0.0757008 0.0419252,-0.168917 0.0559213,-0.181181 0.0220118,0.00411417 0.0135669,0.0184528 0.0174134,0.0288425 0.00762598,-0.0221535 0.0102756,-0.0162795 0.0156811,-0.0511929l0.00284646 -0.0183661c0.000720472,-0.00463386 0.00150394,-0.00910236 0.00233465,-0.0134134l2.75591e-005 -0.000153543 3.54331e-005 -0.000165354c0.00211024,-0.0108228 0.0045748,-0.0206339 0.00728346,-0.0295472l4.33071e-005 -0.00015748c0.00106299,-0.00348819 0.00216142,-0.00683071 0.00329134,-0.0100472l3.93701e-005 -0.00011811 1.1811e-005 -2.75591e-005 2.3622e-005 -7.87402e-005c0.00113386,-0.00322835 0.00230709,-0.00632677 0.0035,-0.00929921l3.93701e-006 -1.1811e-005 3.14961e-005 -7.87402e-005 3.54331e-005 -8.66142e-005c0.0011811,-0.00294094 0.00238583,-0.00575591 0.00361024,-0.00845669l7.48031e-005 -0.000165354 3.93701e-005 -8.66142e-005c0.000610236,-0.00134252 0.00122441,-0.00264961 0.00184252,-0.00393307l2.75591e-005 -5.90551e-005 0.000110236 -0.000232283c-0.00080315,-0.000326772 0.014315,-0.0415315 0.0317362,-0.0810472 -0.00417323,-0.00287008 -0.00947638,-0.00609843 -0.0161024,-0.00987795 0.0124331,-0.0328937 0.0235984,-0.0923228 0.032189,-0.128146l0.000996063 -0.00416142c-0.214642,-0.0889409 -0.450819,-0.204677 -0.693354,-0.34289 -0.330614,-0.188413 -0.619295,-0.387965 -0.836961,-0.571114 -0.0326732,0.0528504 -0.0930118,0.143535 -0.104197,0.168039l-0.0079252 0.00979134c-0.00518898,0.00283465 -0.0100669,0.0059685 -0.0146969,0.00935433l0.0066063 0.00548425 -0.00661024 -0.00548031 -0.000807087 0.000574803 -0.00231496 0.00177559c-0.00088189,0.000685039 -0.00176378,0.00137008 -0.00262598,0.0020748 -0.000728346,0.000590551 -0.00144488,0.00119685 -0.00215748,0.00181102 -0.000866142,0.000740157 -0.00173228,0.00148819 -0.00257874,0.00224803l-0.00205906 0.00188583c-0.000799213,0.000744094 -0.00158661,0.00149213 -0.00237008,0.00225591l-0.00218898 0.00219685 -0.00211024 0.00219685 -0.00207087 0.00225591 -0.00211811 0.00240551c-0.000637795,0.00073622 -0.00126772,0.00147244 -0.00188583,0.00222441 -0.000708661,0.000854331 -0.00140551,0.00172441 -0.00209843,0.00259449 -0.000606299,0.000759843 -0.00120866,0.00152362 -0.00179921,0.00229921l-0.00198031 0.00265748 -0.00166929 0.00231102c-0.000665354,0.000940945 -0.0013189,0.00189764 -0.0019685,0.00285827l-0.00157874 0.00235433 -0.00194882 0.00305906 -0.00138583 0.00223228 -0.00188189 0.00319291 -0.00137402 0.00237402c-0.000586614,0.00104724 -0.00115354,0.0021063 -0.00172835,0.00316535l-0.00134646 0.0025 -0.00153937 0.0030315c-0.000476378,0.000937008 -0.000956693,0.00187795 -0.00141732,0.00282677l-0.00142126 0.00301181 -0.00133465 0.00284252c-0.000645669,0.00143307 -0.00127165,0.00288189 -0.00189764,0.00433465l-0.000700787 0.00160236c-0.000799213,0.00187402 -0.00157087,0.00377953 -0.00233465,0.00568898l-0.00019685 0.000484252 -5.90551e-005 0.000141732c-0.00080315,0.0020315 -0.00159055,0.0040748 -0.00235039,0.00614567l-4.72441e-005 0.000122047 -0.000527559 0.00148031c-0.000594488,0.00162992 -0.00118504,0.00326772 -0.00175984,0.00492126l-0.00061811 0.00184252c-0.000511811,0.00151181 -0.0010315,0.00301969 -0.00152756,0.00454724l-0.00102362 0.00324803 -0.0010315 0.00328346 -0.00092126 0.00309843 -0.00109843 0.00374016 -0.000826772 0.00293701 -0.001 0.00360236 -0.00111811 0.00422441 -0.000622047 0.00238976 -0.000944882 0.00375984 -0.00092126 0.00372835 -0.000641732 0.00270079 -0.000984252 0.00423228 -0.000629921 0.00277165 -0.000948819 0.00427165 -0.000712598 0.00330315 -0.000732283 0.0034685 -0.00069685 0.00338189 -0.000850394 0.00421654 -0.000582677 0.0029685 -0.000830709 0.00429134 -0.000476378 0.00250787 -0.000866142 0.00462992 -0.000606299 0.0033189 -0.00057874 0.00319291 -0.000704724 0.00395276 -0.000204724 0.00116142 -0.00084252 0.00483071 -0.000389764 0.00227559 -0.000874016 0.00514961 -0.00124803 0.00743701 -0.000275591 0.00165354 -0.000956693 0.00578346 -0.000220472 0.00133858 -0.001 0.00609055 -0.000169291 0.00102756 -0.00104724 0.00639764 -0.00011811 0.000712598 -0.00110236 0.00668898 -6.69291e-005 0.000397638 -0.00116535 0.00698031 -7.87402e-006 8.66142e-005 -0.00119291 0.00703543 -3.93701e-005 0.000228346 -0.000165354 0.00096063 -0.00109843 0.00634646 -0.00114173 0.00643307 -0.000145669 0.000830709 -0.00111417 0.00608268 -4.72441e-005 0.000251969 -0.000846457 0.00448031 -0.000488189 0.00256693 -0.000795276 0.00404331 -0.000637795 0.00320866 -0.000519685 0.00253937 -0.000948819 0.00455512 -0.000641732 0.00297244 -0.000720472 0.00331496 -0.000866142 0.00383465 -0.00073622 0.00318504 -0.000692913 0.00293307 -0.00092126 0.0037874 -0.000791339 0.00314567 -0.000826772 0.00320079 -0.000901575 0.00337008 -0.000877953 0.00319291 -0.000913386 0.00322441 -0.000854331 0.00290945 -0.00105118 0.00349606 -0.000862205 0.00274409 -0.0011063 0.00343307 -0.000944882 0.00282283 -0.00106693 0.0031063 -0.00109055 0.00302362 -0.00108661 0.00294882 -0.00105512 0.00272835 -0.00125591 0.00318504 -0.00116142 0.00277953 -0.00114567 0.00269291c-0.000503937,0.00115748 -0.00102362,0.00229528 -0.00154331,0.00343701l-0.000952756 0.00209055c-0.000527559,0.00112205 -0.0010748,0.00222441 -0.00161811,0.00332283l-0.00103543 0.00211811c-0.000582677,0.0011378 -0.0011811,0.00225984 -0.00178346,0.00337795l-0.000988189 0.00185827c-0.000677165,0.00123228 -0.00138189,0.00243701 -0.00208268,0.00364961l-0.000818898 0.00142913c-0.000996063,0.00167323 -0.00201181,0.00331102 -0.00305512,0.0049252 -0.0462441,0.0714134 -0.00418504,0.184657 -0.100335,0.146795 -0.0220906,0.014811 -0.108425,0.232319 -0.109063,0.255402 -0.00342913,0.123744 -0.0299134,0.116618 -0.0323307,0.170154 -0.00624409,0.138504 -0.0310945,0.114484 -0.098748,0.233197 0.0410354,-0.0720039 0.0229488,-0.206921 0.00685039,-0.298791 -0.0413819,-0.236213 0.249094,-0.471185 0.226433,-0.578894 -0.000685039,-0.00325984 -0.00131496,-0.00651969 -0.00191732,-0.00977953l-0.000452756 -0.00246063c-0.000586614,-0.00327165 -0.00114173,-0.00654331 -0.00164567,-0.00981102l-5.90551e-005 -0.000417323c-0.000492126,-0.00320472 -0.000937008,-0.00640157 -0.00135039,-0.00959843l-0.00026378 -0.00205512c-0.000409449,-0.00328346 -0.000779528,-0.0065748 -0.00111024,-0.00985827l-9.84252e-005 -0.00105906c-0.000287402,-0.00290551 -0.000535433,-0.00581496 -0.000755906,-0.00872047l-0.000192913 -0.00256693c-0.000216535,-0.00312598 -0.000413386,-0.00625591 -0.000562992,-0.00937402l-7.87402e-005 -0.00194488c-0.000114173,-0.00268504 -0.000204724,-0.0053622 -0.000271654,-0.00804331l-6.29921e-005 -0.00246457c-5.90551e-005,-0.00314173 -8.26772e-005,-0.0062874 -7.48031e-005,-0.00942126l1.9685e-005 -0.00198819c1.9685e-005,-0.00266535 6.69291e-005,-0.00533071 0.000129921,-0.00799213l5.90551e-005 -0.0023622c9.84252e-005,-0.00313386 0.000232283,-0.00626772 0.000397638,-0.0093937l0.00011811 -0.00201969c0.000161417,-0.00285827 0.000346457,-0.00571654 0.000562992,-0.00857087l0.000106299 -0.00146457c0.000255906,-0.00319685 0.000547244,-0.00638976 0.000866142,-0.00957874l0.000224409 -0.00214961c0.00030315,-0.00287402 0.000629921,-0.00575197 0.000984252,-0.00862205l0.000145669 -0.00122835c0.000389764,-0.0031378 0.000826772,-0.00626378 0.0012874,-0.00938976l0.00038189 -0.00255512c0.000433071,-0.00284646 0.000889764,-0.00569291 0.00137008,-0.0085315l0.000125984 -0.000783465 4.72441e-005 -0.000255906c0.000535433,-0.00310236 0.0011063,-0.00619685 0.00170472,-0.00929134l0.000452756 -0.00233071c0.000614173,-0.00311811 0.00124803,-0.00623622 0.00191732,-0.00935039l4.33071e-005 -0.000177165 1.9685e-005 -9.05512e-005c0.000692913,-0.00318898 0.00142126,-0.00637795 0.00217323,-0.00955906l0.000448819 -0.00186614c0.00076378,-0.00318504 0.00155118,-0.00636614 0.00237795,-0.00953937l0.000244094 -0.000917323c0.000740157,-0.00283465 0.00150787,-0.00566142 0.00229921,-0.00848425l0.000661417 -0.00235827c0.000874016,-0.00308268 0.00176378,-0.00614567 0.00269291,-0.0092126l0.000358268 -0.00116142c0.000850394,-0.00278346 0.00172441,-0.00556299 0.00261417,-0.00833465l0.000653543 -0.00203937c0.000988189,-0.00304724 0.00200787,-0.00608661 0.00304331,-0.00911811l0.000570866 -0.00164567c0.000937008,-0.00269685 0.00188976,-0.00539764 0.00286614,-0.00808268l0.000641732 -0.00177559c0.00108661,-0.00297244 0.00220079,-0.00594882 0.00333858,-0.00890945l0.000795276 -0.00205906c0.00104331,-0.00268898 0.00210236,-0.00537402 0.0031811,-0.00805512l0.000535433 -0.00133465c0.00121654,-0.00300394 0.00246063,-0.006 0.00372441,-0.00898819l0.000799213 -0.00188976c0.00115748,-0.00271654 0.00233465,-0.00542913 0.0035315,-0.0081378l0.000559055 -0.00127559c0.00128346,-0.00289764 0.00259449,-0.0057874 0.0039252,-0.00866929l0.00112205 -0.00241339c0.00127953,-0.00275984 0.00257874,-0.00551181 0.00390157,-0.00825591l0.000220472 -0.000472441c0.00142126,-0.00294882 0.00286614,-0.00588976 0.00432677,-0.00882283l0.00114567 -0.0022874c0.00144882,-0.00288583 0.00291339,-0.00575984 0.00439764,-0.00862598l3.54331e-005 -7.08661e-005c0.0015315,-0.00294882 0.00309055,-0.0058937 0.00466142,-0.00882677l0.000909449 -0.00169291c0.00155118,-0.00288583 0.00312205,-0.00577953 0.0047126,-0.00864567l0.000181102 -0.000322835 0.000283465 -0.000507874c0.00150394,-0.00270079 0.00302756,-0.0053937 0.00456299,-0.00807874l0.00111417 -0.00194882c0.00162598,-0.00283071 0.00326378,-0.00564961 0.00492126,-0.00846063l0.000665354 -0.00111417c0.00147244,-0.00248031 0.00295276,-0.00495276 0.00444882,-0.00741732l0.00130315 -0.00214567c0.00172047,-0.0028189 0.00344882,-0.00562598 0.00520079,-0.00842126l0.000283465 -0.000456693c0.0017126,-0.00273228 0.00344094,-0.00544882 0.0051811,-0.00816142l0.000944882 -0.00147638c0.00179921,-0.00279528 0.00361417,-0.00557874 0.00544094,-0.00834646l0.000681102 -0.00102756c0.00160236,-0.00242126 0.00322047,-0.00483071 0.00483858,-0.00723228l0.00134646 -0.00200394c0.00150394,-0.0022126 0.00300787,-0.0044252 0.0045315,-0.00661811l-0.00838976 -0.00773622 0.00839764 0.00774016c0.0446417,-0.0646142 0.0963071,-0.122638 0.146256,-0.171047 -0.00851969,-0.0078622 -0.0169055,-0.015685 -0.0251181,-0.0234606 -0.185472,-0.175547 -0.289563,-0.30965 -0.271484,-0.363665 0.0144134,-0.00674409 0.026748,-0.016189 0.0366811,-0.0274567 0.0668386,-0.0177874 0.217343,0.00672835 0.420772,0.0647913 0.298815,0.0852874 0.686161,0.253449 1.09119,0.484264 0.405024,0.230815 0.74713,0.478354 0.972815,0.691969 0.169193,0.160142 0.270665,0.285795 0.273453,0.347622zm-2.90875 -1.75733c-0.225346,0.100906 -0.432811,0.236874 -0.61535,0.401567 -0.188106,0.16972 -0.34972,0.369866 -0.477157,0.593488 -0.318138,0.558248 -0.387346,1.18875 -0.242063,1.75682 0.145709,0.569724 0.506705,1.07648 1.04844,1.3852 0.541732,0.30872 1.16172,0.361012 1.72615,0.19598 0.562791,-0.164551 1.06996,-0.545461 1.3881,-1.10371 0.125433,-0.220102 0.214472,-0.4575 0.265098,-0.702457 0.0503583,-0.243634 0.0623898,-0.494535 0.0341417,-0.743098 -0.000122047,-0.145421 -0.123264,-0.334654 -0.337894,-0.537807 -0.239,-0.22622 -0.596311,-0.485524 -1.01527,-0.72428 -0.418961,-0.238756 -0.824173,-0.414 -1.14062,-0.504319 -0.283154,-0.0808189 -0.508138,-0.0905394 -0.633579,-0.0173858z"/>
   <path id="_435136792" class="fil1" d="M4.03475 1.7516c0.865106,0.493008 1.46506,1.07052 1.34004,1.2899 -0.125024,0.219386 -0.927681,-0.00242913 -1.79279,-0.495437 -0.86511,-0.493008 -1.46506,-1.07052 -1.34004,-1.2899 0.125024,-0.219386 0.927677,0.00242913 1.79279,0.495437z"/>
   <path id="_435137296" class="fil2" d="M3.98234 1.84356c0.777,0.442799 1.33109,0.934732 1.23761,1.09877 -0.0934764,0.164031 -0.799138,-0.0619449 -1.57614,-0.50474 -0.776996,-0.442795 -1.33109,-0.934732 -1.23761,-1.09876 0.0934803,-0.164035 0.799142,0.0619409 1.57614,0.504736z"/>
   <path id="_435137176" class="fil3" d="M3.92553 1.94325c0.565539,0.322291 0.982913,0.65565 0.932236,0.744579 -0.0506811,0.0889252 -0.55022,-0.100248 -1.11576,-0.422539 -0.565539,-0.322291 -0.982913,-0.655646 -0.932236,-0.744575 0.0506811,-0.0889291 0.55022,0.100248 1.11576,0.422535z"/>
   <path id="_435136816" class="fil1" d="M2.69692 1.78364c-0.0489213,0.0477559 -0.134335,0.143866 -0.178004,0.207059l-0.0045315 0.00661811c-0.0816378,0.121339 -0.140008,0.264744 -0.113303,0.41411l0.000452756 0.00246457c0.000602362,0.00325591 0.00123228,0.00651575 0.00191732,0.00977559 0.0226654,0.107709 -0.267811,0.342681 -0.226433,0.578894 0.0160984,0.0918701 0.034189,0.226787 -0.00684646,0.298791 0.0676535,-0.118713 0.0925,-0.0946929 0.098748,-0.233197 0.00241339,-0.0535354 0.0289016,-0.0464094 0.0323307,-0.170154 0.000633858,-0.0230827 0.0869685,-0.240591 0.109059,-0.255402 0.0961496,0.0378622 0.0540945,-0.0753819 0.100335,-0.146795l0.00305512 -0.0049252 0.000818898 -0.00142913c0.000700787,-0.0012126 0.00140551,-0.00241732 0.00208661,-0.00364961l0.000984252 -0.00185827c0.016811,-0.0318701 0.0252835,-0.0684055 0.0318937,-0.103291l0.000846457 -0.00448031 4.72441e-005 -0.000248031c0.0162008,-0.0884803 0.0248819,-0.213441 0.0955945,-0.269331 0.00568504,-0.00435827 0.0115079,-0.00825984 0.0178228,-0.0117047l0.0079252 -0.00979528c0.0107992,-0.0236575 0.102453,-0.148232 0.135756,-0.201661l-0.110555 -0.0997913z"/>
   <path id="_435137080" class="fil2" d="M2.74709 1.81223c-0.0465945,0.0490866 -0.128717,0.147067 -0.171563,0.210728l-0.00445276 0.00666535c-0.0802953,0.122102 -0.141169,0.264079 -0.126472,0.406606l0.000251969 0.00234646c0.000338583,0.0031063 0.000700787,0.0062126 0.00111417,0.00932283 0.0136417,0.102563 -0.260028,0.347114 -0.237539,0.572563 0.00874803,0.0876811 0.0166417,0.216787 -0.0243937,0.288795 0.0676535,-0.118717 0.0883622,-0.0970551 0.102413,-0.23111 0.00543307,-0.0518189 0.0286378,-0.0465591 0.0392677,-0.166201 0.00198425,-0.022315 0.0923543,-0.237524 0.11298,-0.253169 0.0835118,0.0306614 0.0528976,-0.076063 0.0985433,-0.147815l0.0030315 -0.00494094 0.000818898 -0.00142913c0.00069685,-0.0012126 0.00140157,-0.00241732 0.00207874,-0.00364961l0.001 -0.00185039c0.0169528,-0.0317913 0.026752,-0.0675709 0.0347874,-0.101646l0.00102756 -0.00437402 5.51181e-005 -0.000244094c0.019878,-0.0863858 0.0352717,-0.20752 0.101811,-0.265787 0.00534252,-0.00455512 0.0107795,-0.00867717 0.016626,-0.0123898l0.00767717 -0.00993701c0.0110866,-0.0234921 0.10052,-0.149335 0.13352,-0.202933l-0.0925827 -0.0895512z"/>
   <path id="_435152920" class="fil4" d="M4.33509 2.75502c-0.0288386,-0.0229055 -0.0439252,0.169181 -0.0563583,0.202075 0.00662598,0.00377953 0.0119291,0.00700787 0.0161024,0.00987795 -0.0174291,0.0395315 -0.0468622,0.110559 -0.0541024,0.157165l-0.00284646 0.0183661c-0.00540551,0.0349134 -0.00805512,0.0290394 -0.0156811,0.0511929 -0.00384646,-0.0103898 0.00459843,-0.0247283 -0.0174134,-0.0288425 -0.0139961,0.0122638 -0.0109252,0.10548 -0.0559213,0.181181 -0.0195197,0.0328504 -0.0313071,0.103661 -0.0762559,0.179839 -0.0462008,0.0782874 0.0011811,0.0786969 -0.0692992,0.182307 -0.00152362,0.00223622 -0.00722441,0.0133307 -0.00911811,0.0166575 0.00178346,-0.00312992 0.071185,-0.0712283 0.113512,-0.145496 0.00461417,-0.00809843 0.128921,-0.227319 0.130209,-0.229142 0.0624882,-0.0886181 0.0969016,-0.158291 0.12424,-0.252406l0.000145669 -0.000488189 0.000145669 -0.000488189 0.000137795 -0.000476378 1.5748e-005 -4.72441e-005 0.000122047 -0.000429134 0.000141732 -0.000464567 0.000141732 -0.00046063 0.000133858 -0.000456693 0.000137795 -0.000452756 0.000133858 -0.000444882 5.11811e-005 -0.000177165 8.26772e-005 -0.000259843 0.000129921 -0.000433071 0.000133858 -0.000433071 0.000129921 -0.00042126 0.000129921 -0.000417323 0.000125984 -0.000413386 9.05512e-005 -0.000287402 3.54331e-005 -0.00011811 0.000125984 -0.000405512 0.000122047 -0.000393701 0.000125984 -0.000393701 0.000122047 -0.000385827 0.000122047 -0.00038189 0.000122047 -0.000377953 0.00011811 -0.000366142c0.00419685,0.00157874 0.00587402,-0.00455512 0.00584646,-0.0154646 0.0049685,-0.00994094 0.000712598,0.0102126 0.0028622,-0.0618858 0.00154724,-0.0516496 0.0537087,-0.0514685 0.0232283,-0.113516 -0.00761811,-0.0155 0.00785039,-0.0726811 0.0114882,-0.0836496l-0.0735157 -0.0583858z"/>
   <path id="_435152872" class="fil5" d="M5.80903 1.62132c0.055126,0.0286142 0.123012,0.00712205 0.15163,-0.0480039 0.0286142,-0.055126 0.00712205,-0.123012 -0.0480039,-0.151626l-0.366642 -0.189193 -0.051811 0.099815 0.0517323 -0.100256c-0.036563,-0.0188622 -0.0786496,-0.0157913 -0.111252,0.00440945l-1.73633 1.00375c0.0144449,0.00836614 0.029,0.0167205 0.0436496,0.0250709 0.0630433,0.0359252 0.12526,0.0701929 0.18613,0.10261l1.56945 -0.907283 0.311445 0.160709z"/>
   <path id="_435152104" class="fil6" d="M1.85797 5.29604c0.0157638,-0.016126 0.0290669,-0.030937 0.0401339,-0.0446654 -0.00715354,0.0210433 -0.0111181,0.0419606 -0.0105906,0.0625945l4.72441e-005 0.00109055c0.0162638,0.0102874 0.0327244,0.020374 0.0493386,0.0302913 0.0126772,-0.00558268 0.0213819,-0.0184016 0.0210236,-0.0331063 -0.00131496,-0.0516024 0.0495315,-0.120976 0.0975669,-0.186528 0.0576102,-0.0786142 0.111831,-0.152606 0.0908937,-0.217091 -0.0124882,-0.0384724 0.017752,-0.0649409 0.0530669,-0.0958504 0.0788583,-0.0690197 0.175508,-0.153618 0.0682205,-0.391941 -0.0511457,-0.113606 -0.0393189,-0.147913 -0.0125079,-0.159988 0.0127283,-0.00572835 0.0306772,-0.00907874 0.0478937,-0.0122874 0.0217598,-0.00405906 0.0426378,-0.00795669 0.061122,-0.0175118 0.0440945,-0.0227992 0.0630827,-0.0622677 0.0183346,-0.152059 0.000169291,-0.00080315 0.000326772,-0.00163386 0.000480315,-0.00250394 0.0603346,-0.0998976 0.0166024,-0.162091 -0.0327756,-0.23226 -0.0474094,-0.067378 -0.101654,-0.144461 -0.0170551,-0.292913 0.00964173,-0.0169134 0.00374409,-0.0384449 -0.0131732,-0.0480866 -0.0169173,-0.0096378 -0.0384488,-0.00374016 -0.0480866,0.0131772 -0.10661,0.187071 -0.0385354,0.283815 0.0209685,0.368374 0.0356811,0.0507008 0.0672283,0.0955591 0.0276457,0.159055 -0.00397638,0.00540945 -0.00646063,0.0120118 -0.00679528,0.0192244l2.75591e-005 3.93701e-006c-9.84252e-005,0.00204331 -0.000417323,0.00338189 -0.000681102,0.00448425 -0.00293701,0.0123031 -0.00491339,0.0205315 0.00394094,0.0376496 0.0230394,0.0445512 0.0232165,0.059122 0.0149213,0.0634134 -0.00907874,0.00469291 -0.0250827,0.0076811 -0.0417638,0.0107913 -0.0209409,0.00390551 -0.0427598,0.00797244 -0.0638425,0.0174646 -0.0614803,0.0276772 -0.097563,0.0863858 -0.0226417,0.252811 0.0859331,0.19089 0.0107559,0.256693 -0.0505787,0.310378 -0.0541024,0.0473465 -0.100425,0.0878898 -0.0736535,0.170346 0.00979134,0.0301457 -0.0341299,0.0900748 -0.0807835,0.153744 -0.0193504,0.0264016 -0.0390945,0.0533543 -0.0564764,0.0804882 0.00283071,-0.0287087 -0.0102362,-0.0522244 -0.0336535,-0.0762992 -0.014563,-0.0149646 -0.031878,-0.0278701 -0.0517598,-0.0426732 -0.0601417,-0.0447913 -0.146598,-0.109189 -0.188594,-0.263705 -0.00467323,-0.0172047 -0.00635039,-0.015622 -0.00582677,-0.016122 0.0239764,-0.0227087 0.040685,-0.0385394 -0.0831457,-0.243366 -0.0375984,-0.0621929 -0.0283031,-0.0766693 -0.00988583,-0.10535 0.00958268,-0.0149331 0.0207756,-0.0323701 0.0314606,-0.0555079l-0.0319409 -0.014874 0.0320079 0.0147795c0.00504724,-0.0109331 0.00401969,-0.0231102 -0.00167717,-0.032748 -0.0461142,-0.0967244 -0.0891299,-0.151646 -0.12213,-0.193783 -0.0586654,-0.0748976 -0.0798228,-0.101913 -0.00381102,-0.322594 0.0360984,-0.104819 -0.0232283,-0.190209 -0.0904882,-0.287012 -0.0899764,-0.129488 -0.196429,-0.282701 -0.0502953,-0.525713 0.0288346,-0.0479606 0.0255984,-0.0655472 0.0224764,-0.0824803 -0.000358268,-0.00194488 -0.000712598,-0.00385827 0.00197638,-0.00980315 0.00804331,-0.0176457 0.000255906,-0.0384764 -0.0173937,-0.0465197 -0.0176496,-0.00804724 -0.0384764,-0.000255906 -0.0465236,0.0173898 -0.0117913,0.0260827 -0.0094685,0.0386772 -0.00708661,0.0515866 0.000759843,0.00410236 0.00153937,0.00837402 -0.0137874,0.0338622 -0.169543,0.281949 -0.0490394,0.455374 0.0528071,0.601957 0.0564528,0.081248 0.106248,0.152909 0.0818465,0.223748 -0.0884291,0.256744 -0.0609843,0.291791 0.015122,0.388957 0.0293622,0.0374882 0.0672008,0.0857992 0.107807,0.168059 -0.00683071,0.0129016 -0.0135984,0.0234409 -0.0196142,0.032815 -0.0340827,0.0530827 -0.0512913,0.079874 0.00904724,0.179681 0.0945079,0.156323 0.0951693,0.155705 0.0949291,0.155937 -0.013563,0.0128465 -0.0293976,0.0278504 -0.0137323,0.0854921 0.0484488,0.178264 0.146315,0.251165 0.214402,0.301866 0.0180354,0.0134291 0.0337402,0.0251339 0.0434094,0.0350709 0.0198898,0.0204449 0.0135197,0.0464646 -0.0593346,0.118661 0.0194449,0.0136496 0.0391732,0.0270118 0.0591693,0.0400984zm1.20098 0.316917c-0.0190433,0.00376772 -0.0314252,0.0222598 -0.0276575,0.0412992l0.000129921 0.00061811c0.0372047,0.000511811 0.0743937,9.05512e-005 0.111531,-0.00124803 0.0532559,-0.0246496 0.12626,-0.0622913 0.190035,-0.101193 0.0691929,-0.0422047 0.129898,-0.0875118 0.149512,-0.1235 0.0262913,-0.0482402 0.0748937,-0.0633268 0.117035,-0.0764016 0.0849055,-0.0263504 0.152142,-0.0472244 0.103382,-0.195811 -0.00578346,-0.0176378 0.0165118,-0.0355157 0.0508976,-0.0630827 0.0469921,-0.0376693 0.110118,-0.0882756 0.163776,-0.182429 0.0854134,-0.149878 0.102213,-0.183992 0.128209,-0.236764 0.0186457,-0.0378622 0.0421024,-0.0855 0.0992874,-0.19265l0.0235551 -0.0441299c0.00506693,-0.00949213 0.0157913,-0.0249094 0.0277165,-0.0420472l7.87402e-006 3.93701e-006 1.1811e-005 -1.5748e-005 0.000110236 7.48031e-005c0.000582677,-0.000838583 0.00112205,-0.00169685 0.00162598,-0.00256693 0.0144803,-0.020815 0.0302795,-0.0436535 0.0413976,-0.0631614 0.0096378,-0.0169173 0.00374016,-0.0384488 -0.0131772,-0.0480866 -0.0169134,-0.00964173 -0.0384449,-0.00374409 -0.0480866,0.0131732 -0.0109961,0.0192913 -0.0249843,0.0395433 -0.0377913,0.0579528 -0.000641732,0.000775591 -0.00125984,0.00158661 -0.00185039,0.00243307l0.0289409 0.020126 -0.0288858 -0.0199488c-0.0132244,0.0190118 -0.025126,0.0361142 -0.0319921,0.0489685l-0.0235551 0.0441339c-0.0590945,0.110732 -0.0820984,0.157441 -0.100378,0.194555 -0.0247323,0.0502165 -0.0407205,0.0826732 -0.126409,0.233035 -0.0470433,0.0825512 -0.104138,0.128319 -0.146642,0.16239 -0.0573346,0.0459646 -0.0945118,0.0757795 -0.0734606,0.139945 0.0265236,0.0808268 -0.0105945,0.0923543 -0.0574646,0.106898 -0.0548268,0.0170118 -0.118067,0.0366417 -0.157823,0.109587 -0.0128858,0.0236457 -0.0643976,0.0605118 -0.124776,0.0973386 -0.0987165,0.0602165 -0.215441,0.11615 -0.237213,0.120504zm-0.920146 -0.160953c0.0297362,-0.00650394 0.0672677,-0.00767323 0.105209,-0.00885039 0.089685,-0.0027874 0.181224,-0.00563386 0.228004,-0.0752795 0.00225984,-0.00336614 0.0671339,0.0158425 0.146008,0.0392047 0.126472,0.0374528 0.282189,0.0835748 0.376307,0.0352283l5.51181e-005 0.000102362c0.0130551,-0.0067126 0.0201417,-0.0204606 0.0190197,-0.0342362 0.000834646,-0.0235315 0.0142323,-0.0278622 0.0330157,-0.0339213 0.0564646,-0.0182205 0.137319,-0.044315 0.191461,-0.235244 0.0138543,-0.0488543 0.0382165,-0.067626 0.0637323,-0.0872874 0.0392165,-0.0302126 0.0804843,-0.0620039 0.105992,-0.161996 0.0131063,-0.051374 0.0302638,-0.0719291 0.0478937,-0.0930433 0.0382047,-0.0457717 0.0782205,-0.0937087 0.0965709,-0.332476 0.00385433,-0.0501772 0.0147795,-0.0686811 0.0348031,-0.102606l0.0134803 -0.0228583c0.00964173,-0.0169173 0.00374016,-0.0384449 -0.0131732,-0.0480866 -0.0169173,-0.00964173 -0.0384488,-0.00374016 -0.0480906,0.0131732 -0.00922835,0.0162008 -0.0110354,0.0192441 -0.0128228,0.0222835 -0.0254016,0.0430315 -0.0392559,0.0665 -0.0443386,0.132677 -0.0166457,0.216575 -0.0492402,0.255622 -0.0803543,0.292898 -0.0227913,0.0273031 -0.0449646,0.0538661 -0.0619724,0.120528 -0.0194961,0.0764094 -0.0510827,0.100752 -0.0810984,0.123878 -0.0348268,0.0268346 -0.0680827,0.0524646 -0.0882835,0.123693 -0.0439409,0.154953 -0.103642,0.17422 -0.145335,0.187673 -0.0426535,0.0137638 -0.074063,0.0239134 -0.0805039,0.0793976 -0.0732717,0.0217402 -0.200984,-0.0160827 -0.306283,-0.0472677 -0.106122,-0.0314291 -0.193421,-0.0572756 -0.224646,-0.0107913 -0.0265591,0.0395394 -0.0997913,0.0418228 -0.171543,0.0440512 -0.0698189,0.00216535 -0.138516,0.00431102 -0.185465,0.0388661 0.0272874,0.0140512 0.0547402,0.0274803 0.0823583,0.0402913zm-0.156189 -0.0861102c-0.000874016,0.00153937 -0.00162205,0.0031063 -0.00224409,0.0047126 0.0203622,0.0115197 0.0408307,0.0226693 0.0614016,0.0334646 0.000755906,-0.00103937 0.00145669,-0.00212598 0.0021063,-0.00326378 0.0502677,-0.0882087 0.0683346,-0.0916417 0.0952165,-0.0967441 0.0255906,-0.00485827 0.0563386,-0.0106969 0.104484,-0.0440197l8.26772e-005 0.00011811c0.0106496,-0.00737008 0.0159843,-0.019563 0.0150906,-0.0316102 0.0374646,-0.0232638 0.0862756,-0.0238976 0.130535,-0.0244685 0.0290984,-0.000374016 0.0565827,-0.00073622 0.0821063,-0.00654331 0.0752559,-0.0171339 0.117752,-0.0685866 0.078248,-0.242126 -0.0031063,-0.0136535 0.0129646,-0.0237205 0.0403189,-0.0408307 0.0529409,-0.0331181 0.132693,-0.0830118 0.208213,-0.215528 0.0198819,-0.0348937 0.0420236,-0.0563268 0.0635748,-0.0772008 0.0430079,-0.0416496 0.084122,-0.0814646 0.110106,-0.195091 0.0163465,-0.0714803 0.038622,-0.0927638 0.0583701,-0.111638 0.0435354,-0.0415984 0.0783228,-0.0748504 0.0572992,-0.323413l3.54331e-005 -3.93701e-006 -1.1811e-005 -0.000125984 7.87402e-005 -7.87402e-006c-8.26772e-005,-0.00101181 -0.000208661,-0.00200787 -0.00038189,-0.00298819l-0.000787402 -0.00744882c-0.00140945,-0.0132913 -0.00310236,-0.0292992 0.000346457,-0.034315 0.0109882,-0.0160551 0.00688583,-0.0379882 -0.00917323,-0.0489764 -0.0160591,-0.0109843 -0.0379882,-0.00688189 -0.0489764,0.00917717 -0.0179409,0.0260354 -0.0147244,0.0563583 -0.0120472,0.0815433 0.000177165,0.00166929 0.000346457,0.00323622 0.000645669,0.00666929 1.5748e-005,0.000755906 5.11811e-005,0.00152362 0.00011811,0.00229134l0.0351299 -0.00297638 -0.0350118 0.00302756c0.0181969,0.214941 -0.00585039,0.237917 -0.035937,0.266669 -0.0269213,0.0257283 -0.0572756,0.0547323 -0.0782795,0.146571 -0.0214528,0.0937953 -0.0551772,0.126465 -0.0904685,0.160638 -0.0253976,0.0245906 -0.0514803,0.0498504 -0.0758937,0.092685 -0.066878,0.117354 -0.137445,0.1615 -0.184287,0.190803 -0.0539331,0.0337441 -0.0856339,0.0535827 -0.0714252,0.115984 0.0268386,0.117906 0.00927953,0.150291 -0.0253189,0.158169 -0.0180669,0.00411024 -0.0420512,0.00442126 -0.0674567,0.00474803 -0.0623976,0.000807087 -0.132035,0.00171654 -0.189823,0.0517362 -0.00834646,0.00664173 -0.0135512,0.0169646 -0.0133031,0.0283386 -0.0256142,0.0146535 -0.0438346,0.0181181 -0.0594685,0.0210827 -0.0460157,0.00873622 -0.0769449,0.0146102 -0.143213,0.13089z"/>
  </g>
  <rect class="fil7" width="6.82666" height="6.82666"/>
 </g>
</svg>
