<?xml version="1.0" encoding="UTF-8"?>
<!DOCTYPE svg PUBLIC "-//W3C//DTD SVG 1.1//EN" "http://www.w3.org/Graphics/SVG/1.1/DTD/svg11.dtd">
<!-- Creator: CorelDRAW -->
<svg xmlns="http://www.w3.org/2000/svg" xml:space="preserve" width="6.82666in" height="6.82666in" style="shape-rendering:geometricPrecision; text-rendering:geometricPrecision; image-rendering:optimizeQuality; fill-rule:evenodd; clip-rule:evenodd"
viewBox="0 0 6.82666 6.82666"
 xmlns:xlink="http://www.w3.org/1999/xlink">
 <defs>
  <style type="text/css">
   <![CDATA[
    .fil7 {fill:none}
    .fil3 {fill:#7CB342}
    .fil2 {fill:#8BC34A}
    .fil6 {fill:#D49748}
    .fil1 {fill:#AA6B36;fill-rule:nonzero}
    .fil4 {fill:#AB1D1D;fill-rule:nonzero}
    .fil0 {fill:#DD8825;fill-rule:nonzero}
    .fil5 {fill:#F3AA4C;fill-rule:nonzero}
   ]]>
  </style>
 </defs>
 <g id="Layer_x0020_1">
  <metadata id="CorelCorpID_0Corel-Layer"/>
  <g id="_273783160">
   <path id="_273789520" class="fil0" d="M1.33892 2.72039l4.42279 1.98661c0.0325748,0.0105157 0.0561457,0.0410827 0.0561457,0.0771575l0 0.279622c0,0.0447717 -0.0362992,0.0810709 -0.0810709,0.0810709l-4.91765 0c-0.0447717,0 -0.0810709,-0.0362992 -0.0810709,-0.0810709l0 -0.279622c0,-0.010626 0.00204724,-0.0207677 0.00576378,-0.0300669l0.477272 -1.98145 0.0785354 0.018685 -0.078815 -0.0189843c0.0104843,-0.0435276 0.0542756,-0.0703189 0.0978031,-0.0598346 0.00726378,0.00175197 0.0140591,0.00443701 0.0202953,0.00788189z"/>
   <path id="_273788440" class="fil1" d="M5.74909 5.21825l-4.91765 0c-0.0447717,0 -0.0810709,-0.0362992 -0.0810709,-0.0810709l0 -0.279602c0,-0.0447717 0.0362992,-0.0810709 0.0810709,-0.0810709l4.91765 0c0.0447717,0 0.0810709,0.0362992 0.0810709,0.0810709l0 0.279602c0,0.0447717 -0.0362992,0.0810709 -0.0810709,0.0810709z"/>
   <path id="_273788944" class="fil2" d="M6.05131 4.51929c0.031685,0.130555 -0.0233819,0.145035 0.124248,0.215496 0.00382283,0.00316535 0.284291,0.0903307 0.104102,0.179709 -0.000326772,0.000161417 -0.226976,-0.0674724 -0.256945,-0.0773307 -0.148748,-0.0489409 0.0220354,-0.0791024 -0.232189,-0.0855866 -0.103209,-0.00262992 -0.085811,-0.11048 -0.202638,-0.0621732 -0.116783,0.0482874 -0.0759803,0.0255276 -0.199185,0.0884606 -0.0177756,0.00908268 -0.0664213,0.00143307 -0.169055,0.0520039 -0.0938189,0.0462283 -0.233067,0.00645276 -0.249654,-0.0654331 -0.0377283,0 -0.322957,0.276661 -0.574717,-0.0178465l-0.0101693 -0.0118976c-0.176287,-0.206224 -0.232272,0.00959449 -0.568575,0.00959449 -0.264134,0 -0.0524724,0.138181 -0.357114,-0.0257165 -0.0814961,-0.0438425 -0.208886,0.236736 -0.330819,0.130874 -0.0866693,-0.0752441 -0.217933,-0.124437 -0.320079,-0.0727283 -0.0869331,0.0440079 -0.185665,-0.067563 -0.247736,-0.135669 -0.189173,-0.00422047 -0.334138,0.146067 -0.506209,0.00192126 -0.0655551,-0.0549173 -0.216114,0.21285 -0.434252,0.136047 -0.0737638,-0.0259685 -0.113134,0.167941 -0.297815,0.160043 -0.183602,-0.00785039 -0.101138,-0.0641929 -0.301083,-0.0671654 -0.168496,-0.00250394 -0.150441,-0.23824 -0.0834724,-0.336965 0.00237795,-0.00350394 0.0225866,-0.0517008 0.0236024,-0.0581417 0.139134,-0.0802677 1.16494,-0.0357402 1.43056,-0.0732992 0.504925,-0.0713976 0.878843,0.0788661 1.39583,0.0788661 0.47913,0 1.1175,0.0192953 1.57544,-0.00844488 0.0706063,-0.00427559 0.587303,-0.0804606 0.629787,-0.0268661 0.00474803,0.00599213 0.00398819,0.00638189 0.00556299,0.0140118 0.0175591,0.00362992 0.022874,0.017 0.0324331,0.0347323 0.00840551,0.0155906 0.017378,0.0120866 0.0201496,0.0235039z"/>
   <path id="_273788776" class="fil3" d="M0.775354 4.53944c-0.031685,0.130555 0.0233819,0.145035 -0.124248,0.215496 -0.00382283,0.00316535 -0.284291,0.0903307 -0.104102,0.179709 0.000326772,0.000161417 0.226976,-0.0674724 0.256945,-0.0773307 0.148748,-0.0489409 -0.0220354,-0.0791024 0.232189,-0.0855866 0.103209,-0.00262992 0.085811,-0.11048 0.202638,-0.0621732 0.116783,0.0482874 0.0759803,0.0255276 0.199185,0.0884606 0.0177756,0.00908268 0.0664213,0.00143307 0.169055,0.0520039 0.0938189,0.0462283 0.233067,0.00645276 0.249654,-0.0654331 0.0377283,0 0.322957,0.276661 0.574717,-0.0178465l0.0101693 -0.0118976c0.176287,-0.206224 0.232272,0.00959449 0.568575,0.00959449 0.264134,0 0.0524724,0.138181 0.357114,-0.0257165 0.0814961,-0.0438425 0.208886,0.236736 0.330819,0.130874 0.0866693,-0.0752441 0.217933,-0.124437 0.320079,-0.0727283 0.0869331,0.0440079 0.185665,-0.067563 0.247736,-0.135669 0.189173,-0.00422047 0.334138,0.146067 0.506209,0.00192126 0.0655551,-0.0549173 0.216114,0.21285 0.434252,0.136047 0.0737638,-0.0259685 0.113134,0.167941 0.297815,0.160043 0.183602,-0.00785039 0.101138,-0.0641929 0.301083,-0.0671654 0.168496,-0.00250394 0.150441,-0.23824 0.0834724,-0.336965 -0.00237795,-0.00350394 -0.0225866,-0.0517008 -0.0236024,-0.0581417 -0.139134,-0.0802677 -1.16494,-0.0357402 -1.43056,-0.0732992 -0.504925,-0.0713976 -0.878843,0.0788661 -1.39583,0.0788661 -0.47913,0 -1.1175,0.0192953 -1.57544,-0.00844488 -0.0706063,-0.00427559 -0.587303,-0.0804606 -0.629787,-0.0268661 -0.00474803,0.00599213 -0.00398819,0.00638189 -0.00556299,0.0140118 -0.0175591,0.00362992 -0.022874,0.017 -0.0324331,0.0347323 -0.00840551,0.0155906 -0.017378,0.0120866 -0.0201496,0.0235039z"/>
   <path id="_273788656" class="fil4" d="M0.780169 4.34128l0.0473346 -0.0173622c0.0458622,-0.0168189 0.0837559,-0.0331969 0.120768,-0.0491929 0.185252,-0.0800551 0.353571,-0.152787 0.567327,-0.029874 0.131594,0.0756654 0.236516,0.130677 0.339031,0.149909 0.0967362,0.0181457 0.199575,0.00465748 0.336071,-0.0535315 0.597287,-0.254626 0.882091,-0.125937 1.13689,-0.0107992 0.187776,0.0848504 0.355504,0.160642 0.674071,-0.0129646 0.613358,-0.334256 1.04459,-0.0986181 1.34281,0.0643386 0.058685,0.0320669 0.111492,0.0609213 0.15824,0.0799606 0.0550827,0.0224252 0.0951181,0.0197087 0.122035,-0.0464016 0.114055,-0.0697795 0.131669,0.0533346 0.197504,0.08 -0.0914961,0.224701 -0.221795,0.236272 -0.399539,0.163906 -0.0539764,-0.0219803 -0.113622,-0.0545709 -0.179909,-0.0907953 -0.256709,-0.140276 -0.627921,-0.343114 -1.13947,-0.0643386 -0.411843,0.224437 -0.624815,0.128201 -0.863244,0.0204606 -0.214744,-0.0970394 -0.454772,-0.205496 -0.966055,0.0124685 -0.179012,0.076315 -0.319909,0.0928701 -0.458567,0.0668622 -0.132874,-0.0249291 -0.255055,-0.0882874 -0.405701,-0.174909 -0.12148,-0.0698543 -0.243276,-0.0172205 -0.377327,0.0407087 -0.0447677,0.0193465 -0.0905945,0.0391535 -0.131602,0.0541929l-0.0473346 0.0173622 -0.0733307 -0.2z"/>
   <path id="_273788536" class="fil2" d="M0.839642 4.00885c-0.0313661,0.130555 0.0231496,0.145035 -0.123008,0.215496 -0.00378346,0.00316535 -0.281453,0.0903307 -0.103063,0.179709 0.000322835,0.000161417 0.224713,-0.0674724 0.254382,-0.0773307 0.147264,-0.0489409 -0.021815,-0.0791024 0.22987,-0.0855866 0.102181,-0.00262992 0.0849567,-0.11048 0.200618,-0.0621732 0.115618,0.0482874 0.0752205,0.0255276 0.197197,0.0884606 0.0175984,0.00908268 0.0657598,0.00143307 0.16737,0.0520039 0.0928819,0.0462283 0.23074,0.00645276 0.247161,-0.0654331 0.0373504,0 0.319732,0.276661 0.56898,-0.0178465l0.0100709 -0.0118976c0.174528,-0.206224 0.229953,0.00959449 0.562902,0.00959449 0.261496,0 0.0519488,0.138181 0.353551,-0.0257165 0.0806811,-0.0438425 0.206799,0.236736 0.327516,0.130874 0.0858071,-0.0752441 0.21576,-0.124437 0.316886,-0.0727283 0.0860669,0.0440079 0.183815,-0.067563 0.245264,-0.135669 0.187287,-0.00422047 0.330803,0.146067 0.501157,0.00192126 0.0649016,-0.0549173 0.213961,0.21285 0.429921,0.136047 0.0730276,-0.0259685 0.112004,0.167941 0.294843,0.160043 0.181772,-0.00785039 0.10013,-0.0641929 0.298079,-0.0671654 0.166815,-0.00250394 0.148941,-0.23824 0.0826378,-0.336965 -0.00235433,-0.00350394 -0.0223583,-0.0517008 -0.0233661,-0.0581417 -0.137744,-0.0802677 -1.15331,-0.0357402 -1.41628,-0.0732992 -0.49989,-0.0713976 -0.870075,0.0788661 -1.3819,0.0788661 -0.474346,0 -1.10635,0.0192953 -1.55972,-0.00844488 -0.0699016,-0.00427559 -0.581445,-0.0804606 -0.623504,-0.0268661 -0.00470079,0.00599213 -0.00394882,0.00638189 -0.00550787,0.0140118 -0.0173819,0.00362992 -0.0226457,0.017 -0.0321102,0.0347323 -0.0083189,0.0155906 -0.0172047,0.0120866 -0.0199488,0.0235039z"/>
   <path id="_273787744" class="fil3" d="M5.89252 4.029c0.0302992,0.130555 -0.0223583,0.145035 0.118807,0.215496 0.00365748,0.00316535 0.271846,0.0903307 0.0995472,0.179709 -0.000311024,0.000161417 -0.217039,-0.0674724 -0.245697,-0.0773307 -0.142236,-0.0489409 0.0210709,-0.0791024 -0.222024,-0.0855866 -0.0986929,-0.00262992 -0.0820551,-0.11048 -0.193768,-0.0621732 -0.111673,0.0482874 -0.0726535,0.0255276 -0.190465,0.0884606 -0.017,0.00908268 -0.0635157,0.00143307 -0.161657,0.0520039 -0.0897087,0.0462283 -0.222862,0.00645276 -0.238724,-0.0654331 -0.0360748,0 -0.308819,0.276661 -0.549555,-0.0178465l-0.00972441 -0.0118976c-0.168571,-0.206224 -0.222102,0.00959449 -0.543685,0.00959449 -0.252571,0 -0.0501732,0.138181 -0.34148,-0.0257165 -0.0779291,-0.0438425 -0.19974,0.236736 -0.316339,0.130874 -0.082874,-0.0752441 -0.20839,-0.124437 -0.306067,-0.0727283 -0.083126,0.0440079 -0.177535,-0.067563 -0.23689,-0.135669 -0.18089,-0.00422047 -0.319512,0.146067 -0.484047,0.00192126 -0.062685,-0.0549173 -0.206654,0.21285 -0.415244,0.136047 -0.0705354,-0.0259685 -0.108181,0.167941 -0.284776,0.160043 -0.175567,-0.00785039 -0.0967126,-0.0641929 -0.287902,-0.0671654 -0.161122,-0.00250394 -0.143858,-0.23824 -0.0798189,-0.336965 0.00227165,-0.00350394 0.0215984,-0.0517008 0.0225669,-0.0581417 0.133043,-0.0802677 1.11394,-0.0357402 1.36793,-0.0732992 0.482819,-0.0713976 0.840366,0.0788661 1.33472,0.0788661 0.458154,0 1.06857,0.0192953 1.50647,-0.00844488 0.0675157,-0.00427559 0.561594,-0.0804606 0.60222,-0.0268661 0.00453937,0.00599213 0.00381102,0.00638189 0.0053189,0.0140118 0.0167874,0.00362992 0.0218701,0.017 0.0310118,0.0347323 0.00803937,0.0155906 0.0166181,0.0120866 0.0192677,0.0235039z"/>
   <path id="_273787984" class="fil5" d="M1.35123 1.61857l4.42279 1.98661c0.0325748,0.0105157 0.0561457,0.0410827 0.0561457,0.0771575l0 0.279622c0,0.0447717 -0.0362992,0.0810709 -0.0810709,0.0810709l-4.91765 0c-0.0447717,0 -0.0810709,-0.0362992 -0.0810709,-0.0810709l0 -0.279622c0,-0.010626 0.00204724,-0.0207677 0.00576378,-0.0300669l0.477272 -1.98145 0.0785354 0.018685 -0.078815 -0.0189843c0.0104843,-0.0435276 0.0542756,-0.0703189 0.0978031,-0.0598346 0.00726378,0.00175197 0.0140591,0.00443701 0.0202953,0.00788189z"/>
   <path id="_273788248" class="fil1" d="M5.74909 4.04303l-4.91765 0c-0.0447717,0 -0.0810709,-0.0362992 -0.0810709,-0.0810709l0 -0.279602c0,-0.0447717 0.0362992,-0.0810709 0.0810709,-0.0810709l4.91765 0c0.0447717,0 0.0810709,0.0362992 0.0810709,0.0810709l0 0.279602c0,0.0447717 -0.0362992,0.0810709 -0.0810709,0.0810709z"/>
   <path id="_273787600" class="fil6" d="M1.68475 2.10696c0.0305906,-0.0015 0.0264646,-0.0105472 0.0635197,-0.0108031 0.0265709,0.00250394 0.0460827,0.0260787 0.0435787,0.0526496 -0.00233858,0.0248189 -0.023063,0.0434764 -0.0474409,0.0437874 -0.0228543,0.0107047 -0.0364567,0.00929921 -0.0625866,0.0109724 -0.0266772,-0.000807087 -0.0476457,-0.0230906 -0.0468386,-0.0497677 0.000807087,-0.0266772 0.0230906,-0.0476457 0.0497677,-0.0468386z"/>
   <path id="_273787912" class="fil7" d="M1.68328 2.15526c0.0410591,0.00124409 0.0417441,-0.0127441 0.0604488,-0.0109921"/>
   <path id="_273786880" class="fil6" d="M1.96936 2.33375c0.00791339,0.0218504 0.0156417,0.0534528 0.0266772,0.0719016 0.0164921,0.0209843 0.0128504,0.0513661 -0.00813386,0.0678583 -0.0209843,0.0164921 -0.0513661,0.0128504 -0.0678583,-0.00813386 -0.0277717,-0.0458819 -0.0229528,-0.0474055 -0.0392677,-0.0929567 -0.0106772,-0.0244606 0.000496063,-0.0529488 0.0249567,-0.063626 0.0244606,-0.0106772 0.0529488,0.000496063 0.063626,0.0249567z"/>
   <path id="_273787312" class="fil7" d="M1.92507 2.35309c0.0133031,0.0304646 0.0134961,0.0576417 0.0329724,0.0824291"/>
   <path id="_273786832" class="fil6" d="M2.26293 2.28673c0.128154,0.0431378 0.0617913,0.0255866 0.199311,0.0519724 0.0261535,0.00532283 0.0430394,0.0308386 0.0377165,0.0569921 -0.00532283,0.0261535 -0.0308386,0.0430394 -0.0569921,0.0377165 -0.14535,-0.0279449 -0.0724291,-0.00908661 -0.218319,-0.0579331 -0.0245079,-0.0105709 -0.0358031,-0.0390079 -0.0252323,-0.0635157 0.0105709,-0.0245079 0.0390079,-0.0358031 0.0635157,-0.0252323z"/>
   <path id="_273786976" class="fil7" d="M2.24379 2.33111c0.087,0.0375315 0.119142,0.0367047 0.208815,0.0549528"/>
   <path id="_273786040" class="fil6" d="M2.39169 2.68559c-0.0605039,0.0485748 -0.0276614,0.0289567 -0.098378,0.0590984 -0.0250748,0.00914173 -0.052815,-0.00377165 -0.0619567,-0.0288465 -0.00914173,-0.0250748 0.00377165,-0.052815 0.0288465,-0.0619567l0.0365236 -0.0147874 0.0299488 -0.0250276c0.019748,-0.0179528 0.050315,-0.0164961 0.0682677,0.00325197 0.0179528,0.019748 0.0164961,0.050315 -0.00325197,0.0682677z"/>
   <path id="_273786712" class="fil7" d="M2.35919 2.64983c-0.0359488,0.0326811 -0.0372913,0.033 -0.0824252,0.0494567"/>
   <path id="_273786136" class="fil6" d="M1.87662 2.84324l-0.0681732 0.0263661 -0.0847283 0.0207441c-0.0266181,-0.00194882 -0.0466181,-0.0251063 -0.0446693,-0.0517244 0.00194882,-0.0266181 0.0251063,-0.0466181 0.0517244,-0.0446693l0.0445197 -0.0151378 0.0663504 -0.0256811c0.0248819,-0.00965748 0.0528819,0.0026811 0.0625394,0.027563 0.00965748,0.0248819 -0.0026811,0.0528819 -0.027563,0.0625394z"/>
   <path id="_273786736" class="fil7" d="M1.7712 2.72676c-0.0239134,0.00928346 -0.111488,0.0454567 -0.131886,0.0439646"/>
   <path id="_273785248" class="fil6" d="M1.89 3.16751c0.0036063,0.0044252 0.00924409,0.0119055 0.0136299,0.0165354 0.0208189,0.0109291 0.0310827,0.0357244 0.0231417,0.0586142 -0.00874803,0.0252165 -0.0362835,0.038563 -0.0615,0.029815 -0.0263976,-0.0128504 -0.030126,-0.0190157 -0.0479961,-0.0413031 -0.0175787,-0.0200827 -0.0155512,-0.0506142 0.0045315,-0.0681929 0.0200827,-0.0175787 0.0506142,-0.0155512 0.0681929,0.0045315z"/>
   <path id="_273785464" class="fil7" d="M1.7822 3.06746c0.00614173,0.00701575 0.0175039,0.0240236 0.0274764,0.0274764"/>
   <path id="_273785296" class="fil6" d="M2.42513 3.18398c0.0443583,0 0.0689961,-0.000582677 0.114189,-0.00502362 0.0264331,-0.00370472 0.0508583,0.0147205 0.054563,0.0411535 0.00370472,0.0264331 -0.0147205,0.0508583 -0.0411535,0.054563 -0.0522717,0.00506299 -0.0764921,0.00596063 -0.127598,0.00596063 -0.026689,0 -0.0483268,-0.0216378 -0.0483268,-0.0483268 0,-0.026689 0.0216378,-0.0483268 0.0483268,-0.0483268z"/>
   <path id="_273785368" class="fil7" d="M2.17235 3.10043l0.0174291 0c0.0432992,0 0.0586299,0.000787402 0.103465,-0.00549213"/>
   <path id="_273785824" class="fil6" d="M2.55701 2.89274l0.0824252 0c0.026689,0 0.0483268,0.0216378 0.0483268,0.0483268 0,0.026689 -0.0216378,0.0483268 -0.0483268,0.0483268l-0.0824252 0c-0.026689,0 -0.0483268,-0.0216378 -0.0483268,-0.0483268 0,-0.026689 0.0216378,-0.0483268 0.0483268,-0.0483268z"/>
   <path id="_273785512" class="fil7" d="M2.70538 2.91908c0.0274764,0 0.0549488,0 0.0824252,0"/>
   <path id="_273784504" class="fil6" d="M3.0241 3.15101c0.00732677,0 0.0146535,0 0.0219803,0 0.026689,0 0.0483268,0.0216378 0.0483268,0.0483268 0,0.026689 -0.0216378,0.0483268 -0.0483268,0.0483268 -0.00732677,0 -0.0146535,0 -0.0219803,0 -0.026689,0 -0.0483268,-0.0216378 -0.0483268,-0.0483268 0,-0.026689 0.0216378,-0.0483268 0.0483268,-0.0483268z"/>
   <path id="_273784768" class="fil7" d="M2.88672 2.94656c0.0219803,0 0.0201496,0 0.0219803,0"/>
   <path id="_273784696" class="fil6" d="M3.44722 3.27191c0.00732677,0 0.0146535,0 0.0219803,0 0.026689,0 0.0483268,0.0216378 0.0483268,0.0483268 0,0.026689 -0.0216378,0.0483268 -0.0483268,0.0483268 -0.00732677,0 -0.0146535,0 -0.0219803,0 -0.026689,0 -0.0483268,-0.0216378 -0.0483268,-0.0483268 0,-0.026689 0.0216378,-0.0483268 0.0483268,-0.0483268z"/>
   <path id="_273785008" class="fil7" d="M3.44722 3.32023c0.0219803,0 0.0201496,0 0.0219803,0"/>
   <path id="_273784960" class="fil6" d="M3.69687 3.22419c0.0186732,-0.0333425 0.0112992,-0.0156417 0.022189,-0.053063 0.00647638,-0.0258937 0.0327126,-0.0416339 0.0586063,-0.0351575 0.0258937,0.00647638 0.0416339,0.0327126 0.0351575,0.0586063 -0.0170906,0.0557323 -0.00596457,0.0295433 -0.0327638,0.0788189 -0.0135866,0.0229724 -0.0432244,0.0305787 -0.0661969,0.0169921 -0.0229724,-0.0135866 -0.0305787,-0.0432244 -0.0169921,-0.0661969z"/>
   <path id="_273783712" class="fil7" d="M3.73846 3.2488c0.0171654,-0.0290197 0.0186772,-0.030752 0.0274764,-0.0659409"/>
   <path id="_273783976" class="fil6" d="M2.8791 2.60868l0.0279961 0.0186496 0.0186457 0.0102402c0.0249764,0.00940945 0.0375945,0.0372874 0.028185,0.0622638 -0.00940945,0.0249764 -0.0372874,0.0375945 -0.0622638,0.028185l-0.037752 -0.0199882 -0.0255118 -0.0170591c-0.0227244,-0.014 -0.0297953,-0.0437717 -0.0157953,-0.0664961 0.014,-0.0227244 0.0437717,-0.0297953 0.0664961,-0.0157953z"/>
   <path id="_273784288" class="fil7" d="M2.85375 2.64983c0.0182953,0.0112717 0.0347323,0.0253504 0.0549528,0.0329685"/>
   <path id="_273783952" class="fil6" d="M1.40561 3.17142c0.0857087,0.0431102 0.0442008,0.0193898 0.124555,0.0711181 0.0216654,0.0155866 0.0265906,0.0457874 0.0110039,0.0674528 -0.0155866,0.0216654 -0.0457874,0.0265906 -0.0674528,0.0110039 -0.0689055,-0.0443504 -0.0334764,-0.0241181 -0.10624,-0.0607638 -0.0245236,-0.0105315 -0.0358701,-0.0389488 -0.0253386,-0.0634724 0.0105315,-0.0245236 0.0389488,-0.0358701 0.0634724,-0.0253386z"/>
   <path id="_273783880" class="fil7" d="M1.38655 3.21583c0.0395512,0.0169843 0.0804134,0.0407717 0.115398,0.0659409"/>
   <path id="_273783832" class="fil6" d="M1.35241 2.60569l0.00789764 -0.0121614 -7.87402e-006 0.000350394c0.0022126,-0.0108504 -0.000464567,-0.000425197 0.0078189,-0.0305984 0.00834646,-0.0253504 0.0356654,-0.0391339 0.0610157,-0.0307874 0.0253504,0.00834646 0.0391339,0.0356654 0.0307874,0.0610157 -0.00998031,0.0359882 -0.00581496,0.0321693 -0.028252,0.0674882 -0.0152717,0.0218858 -0.0453976,0.027248 -0.0672835,0.0119764 -0.0218858,-0.0152717 -0.027248,-0.0453976 -0.0119764,-0.0672835z"/>
   <path id="_273783328" class="fil7" d="M1.39204 2.63334c0.0207638,-0.0297559 0.0118622,-0.0242126 0.0219803,-0.0549488"/>
   <path id="_273783640" class="fil6" d="M1.70673 2.44011l0.0274724 0.0109882c0.0247795,0.00991339 0.0368346,0.0380394 0.0269213,0.0628189 -0.00991339,0.0247795 -0.0380394,0.0368346 -0.0628189,0.0269213 -0.00482677,-0.00192913 -0.0226457,-0.00905906 -0.0274724,-0.0109882 -0.0247795,-0.00991339 -0.0368346,-0.0380394 -0.0269213,-0.0628189 0.00991339,-0.0247795 0.0380394,-0.0368346 0.0628189,-0.0269213z"/>
   <line id="_273783256" class="fil7" x1="1.41952" y1="2.25418" x2="1.44699" y2= "2.26517" />
   <path id="_273782944" class="fil6" d="M3.34235 2.88891c-0.0605039,0.0485748 -0.0276614,0.0289567 -0.098378,0.0590984 -0.0250748,0.00914173 -0.052815,-0.00377165 -0.0619567,-0.0288465 -0.00914173,-0.0250748 0.00377165,-0.052815 0.0288465,-0.0619567l0.0365236 -0.0147874 0.0299488 -0.0250276c0.019748,-0.0179528 0.050315,-0.0164961 0.0682677,0.00325197 0.0179528,0.019748 0.0164961,0.050315 -0.00325197,0.0682677z"/>
  </g>
  <rect class="fil7" width="6.82666" height="6.82666"/>
 </g>
</svg>
