<?xml version="1.0" encoding="UTF-8"?>
<!DOCTYPE svg PUBLIC "-//W3C//DTD SVG 1.1//EN" "http://www.w3.org/Graphics/SVG/1.1/DTD/svg11.dtd">
<!-- Creator: CorelDRAW -->
<svg xmlns="http://www.w3.org/2000/svg" xml:space="preserve" width="6.82666in" height="6.82666in" style="shape-rendering:geometricPrecision; text-rendering:geometricPrecision; image-rendering:optimizeQuality; fill-rule:evenodd; clip-rule:evenodd"
viewBox="0 0 6.82666 6.82666"
 xmlns:xlink="http://www.w3.org/1999/xlink">
 <defs>
  <style type="text/css">
   <![CDATA[
    .fil2 {fill:none}
    .fil11 {fill:#37474F}
    .fil8 {fill:#546E7A}
    .fil6 {fill:#627781}
    .fil9 {fill:#6C828D}
    .fil5 {fill:#78909C}
    .fil10 {fill:#B0BEC5}
    .fil1 {fill:#D49748}
    .fil0 {fill:#F3AA4C}
    .fil4 {fill:#212121;fill-rule:nonzero}
    .fil12 {fill:#263238;fill-rule:nonzero}
    .fil7 {fill:#455A64;fill-rule:nonzero}
    .fil3 {fill:#AA6B36;fill-rule:nonzero}
   ]]>
  </style>
 </defs>
 <g id="Layer_x0020_1">
  <metadata id="CorelCorpID_0Corel-Layer"/>
  <path class="fil0" d="M2.14624 1.35739l2.52318 0c0.0916693,0 0.166665,0.0749961 0.166665,0.166665l0 1.67029 -2.85651 0 0 -1.67029c0,-0.0916693 0.0749961,-0.166665 0.166665,-0.166665z"/>
  <path class="fil1" d="M3.04606 1.56621c0.00791339,0.0218504 0.0156417,0.0534528 0.0266772,0.0719016 0.0164921,0.0209843 0.0128504,0.0513661 -0.00813386,0.0678583 -0.0209843,0.0164921 -0.0513661,0.0128504 -0.0678583,-0.00813386 -0.0277717,-0.0458819 -0.0229528,-0.0474055 -0.0392677,-0.0929567 -0.0106772,-0.0244606 0.000496063,-0.0529488 0.0249567,-0.063626 0.0244606,-0.0106772 0.0529488,0.000496063 0.063626,0.0249567z"/>
  <path class="fil2" d="M3.00177 1.58554c0.0133031,0.0304646 0.0134961,0.0576417 0.0329724,0.0824291"/>
  <path class="fil1" d="M3.33963 1.51919c0.128154,0.0431378 0.0617913,0.0255866 0.199311,0.0519724 0.0261535,0.00532283 0.0430394,0.0308386 0.0377165,0.0569921 -0.00532283,0.0261535 -0.0308386,0.0430394 -0.0569921,0.0377165 -0.14535,-0.0279449 -0.0724291,-0.00908661 -0.218319,-0.0579331 -0.0245079,-0.0105709 -0.0358031,-0.0390079 -0.0252323,-0.0635157 0.0105709,-0.0245079 0.0390079,-0.0358031 0.0635157,-0.0252323z"/>
  <path class="fil2" d="M3.32049 1.56356c0.087,0.0375315 0.119142,0.0367047 0.208815,0.0549528"/>
  <path class="fil1" d="M3.46839 1.91804c-0.0605039,0.0485748 -0.0276614,0.0289567 -0.098378,0.0590984 -0.0250748,0.00914173 -0.052815,-0.00377165 -0.0619567,-0.0288465 -0.00914173,-0.0250748 0.00377165,-0.052815 0.0288465,-0.0619567l0.0365236 -0.0147874 0.0299488 -0.0250276c0.019748,-0.0179528 0.050315,-0.0164961 0.0682677,0.00325197 0.0179528,0.019748 0.0164961,0.050315 -0.00325197,0.0682677z"/>
  <path class="fil2" d="M3.43589 1.88228c-0.0359488,0.0326811 -0.0372913,0.033 -0.0824252,0.0494567"/>
  <path class="fil1" d="M2.95332 2.0757l-0.0681732 0.0263661 -0.0847283 0.0207441c-0.0266181,-0.00194882 -0.0466181,-0.0251063 -0.0446693,-0.0517244 0.00194882,-0.0266181 0.0251063,-0.0466181 0.0517244,-0.0446693l0.0445197 -0.0151378 0.0663504 -0.0256811c0.0248819,-0.00965748 0.0528819,0.0026811 0.0625394,0.027563 0.00965748,0.0248819 -0.0026811,0.0528819 -0.027563,0.0625394z"/>
  <path class="fil2" d="M2.84791 1.95921c-0.0239134,0.00928346 -0.111488,0.0454567 -0.131886,0.0439646"/>
  <path class="fil1" d="M2.9667 2.39996c0.0036063,0.0044252 0.00924409,0.0119055 0.0136299,0.0165354 0.0208189,0.0109291 0.0310827,0.0357244 0.0231417,0.0586142 -0.00874803,0.0252165 -0.0362835,0.038563 -0.0615,0.029815 -0.0263976,-0.0128504 -0.030126,-0.0190157 -0.0479961,-0.0413031 -0.0175787,-0.0200827 -0.0155512,-0.0506142 0.0045315,-0.0681929 0.0200827,-0.0175787 0.0506142,-0.0155512 0.0681929,0.0045315z"/>
  <path class="fil2" d="M2.8589 2.29991c0.00614173,0.00701575 0.0175039,0.0240236 0.0274764,0.0274764"/>
  <path class="fil1" d="M3.50183 2.41644c0.0443583,0 0.0689961,-0.000582677 0.114189,-0.00502362 0.0264331,-0.00370472 0.0508583,0.0147205 0.054563,0.0411535 0.00370472,0.0264331 -0.0147205,0.0508583 -0.0411535,0.054563 -0.0522717,0.00506299 -0.0764921,0.00596063 -0.127598,0.00596063 -0.026689,0 -0.0483268,-0.0216378 -0.0483268,-0.0483268 0,-0.026689 0.0216378,-0.0483268 0.0483268,-0.0483268z"/>
  <path class="fil2" d="M3.24905 2.33288l0.0174291 0c0.0432992,0 0.0586299,0.000787402 0.103465,-0.00549213"/>
  <path class="fil1" d="M3.63371 2.1252l0.0824252 0c0.026689,0 0.0483268,0.0216378 0.0483268,0.0483268 0,0.026689 -0.0216378,0.0483268 -0.0483268,0.0483268l-0.0824252 0c-0.026689,0 -0.0483268,-0.0216378 -0.0483268,-0.0483268 0,-0.026689 0.0216378,-0.0483268 0.0483268,-0.0483268z"/>
  <path class="fil2" d="M3.78208 2.15154c0.0274764,0 0.0549488,0 0.0824252,0"/>
  <path class="fil1" d="M4.1008 2.38347c0.00732677,0 0.0146535,0 0.0219803,0 0.026689,0 0.0483268,0.0216378 0.0483268,0.0483268 0,0.026689 -0.0216378,0.0483268 -0.0483268,0.0483268 -0.00732677,0 -0.0146535,0 -0.0219803,0 -0.026689,0 -0.0483268,-0.0216378 -0.0483268,-0.0483268 0,-0.026689 0.0216378,-0.0483268 0.0483268,-0.0483268z"/>
  <path class="fil2" d="M3.96342 2.17902c0.0219803,0 0.0201496,0 0.0219803,0"/>
  <path class="fil1" d="M4.52393 2.50436c0.00732677,0 0.0146535,0 0.0219803,0 0.026689,0 0.0483268,0.0216378 0.0483268,0.0483268 0,0.026689 -0.0216378,0.0483268 -0.0483268,0.0483268 -0.00732677,0 -0.0146535,0 -0.0219803,0 -0.026689,0 -0.0483268,-0.0216378 -0.0483268,-0.0483268 0,-0.026689 0.0216378,-0.0483268 0.0483268,-0.0483268z"/>
  <path class="fil2" d="M4.52393 2.55269c0.0219803,0 0.0201496,0 0.0219803,0"/>
  <path class="fil1" d="M4.77357 2.45665c0.0186732,-0.0333425 0.0112992,-0.0156417 0.022189,-0.053063 0.00647638,-0.0258937 0.0327126,-0.0416339 0.0586063,-0.0351575 0.0258937,0.00647638 0.0416339,0.0327126 0.0351575,0.0586063 -0.0170906,0.0557323 -0.00596457,0.0295433 -0.0327638,0.0788189 -0.0135866,0.0229724 -0.0432244,0.0305787 -0.0661969,0.0169921 -0.0229724,-0.0135866 -0.0305787,-0.0432244 -0.0169921,-0.0661969z"/>
  <path class="fil2" d="M4.81517 2.48125c0.0171654,-0.0290197 0.0186772,-0.030752 0.0274764,-0.0659409"/>
  <path class="fil1" d="M3.9558 1.84114l0.0279961 0.0186496 0.0186457 0.0102402c0.0249764,0.00940945 0.0375945,0.0372874 0.028185,0.0622638 -0.00940945,0.0249764 -0.0372874,0.0375945 -0.0622638,0.028185l-0.037752 -0.0199882 -0.0255118 -0.0170591c-0.0227244,-0.014 -0.0297953,-0.0437717 -0.0157953,-0.0664961 0.014,-0.0227244 0.0437717,-0.0297953 0.0664961,-0.0157953z"/>
  <path class="fil2" d="M3.93045 1.88228c0.0182953,0.0112717 0.0347323,0.0253504 0.0549528,0.0329685"/>
  <path class="fil1" d="M2.48231 2.40388c0.0857087,0.0431102 0.0442008,0.0193898 0.124555,0.0711181 0.0216654,0.0155866 0.0265906,0.0457874 0.0110039,0.0674528 -0.0155866,0.0216654 -0.0457874,0.0265906 -0.0674528,0.0110039 -0.0689055,-0.0443504 -0.0334764,-0.0241181 -0.10624,-0.0607638 -0.0245236,-0.0105315 -0.0358701,-0.0389488 -0.0253386,-0.0634724 0.0105315,-0.0245236 0.0389488,-0.0358701 0.0634724,-0.0253386z"/>
  <path class="fil2" d="M2.46325 2.44828c0.0395512,0.0169843 0.0804134,0.0407717 0.115398,0.0659409"/>
  <path class="fil1" d="M2.42911 1.83814l0.00789764 -0.0121614 -7.87402e-006 0.000350394c0.0022126,-0.0108504 -0.000464567,-0.000425197 0.0078189,-0.0305984 0.00834646,-0.0253504 0.0356654,-0.0391339 0.0610157,-0.0307874 0.0253504,0.00834646 0.0391339,0.0356654 0.0307874,0.0610157 -0.00998031,0.0359882 -0.00581496,0.0321693 -0.028252,0.0674882 -0.0152717,0.0218858 -0.0453976,0.027248 -0.0672835,0.0119764 -0.0218858,-0.0152717 -0.027248,-0.0453976 -0.0119764,-0.0672835z"/>
  <path class="fil2" d="M2.46874 1.8658c0.0207638,-0.0297559 0.0118622,-0.0242126 0.0219803,-0.0549488"/>
  <path class="fil1" d="M2.78343 1.67256l0.0274724 0.0109882c0.0247795,0.00991339 0.0368346,0.0380394 0.0269213,0.0628189 -0.00991339,0.0247795 -0.0380394,0.0368346 -0.0628189,0.0269213 -0.00482677,-0.00192913 -0.0226457,-0.00905906 -0.0274724,-0.0109882 -0.0247795,-0.00991339 -0.0368346,-0.0380394 -0.0269213,-0.0628189 0.00991339,-0.0247795 0.0380394,-0.0368346 0.0628189,-0.0269213z"/>
  <line class="fil2" x1="2.49622" y1="1.48663" x2="2.52369" y2= "1.49762" />
  <path class="fil1" d="M4.41905 2.12136c-0.0605039,0.0485748 -0.0276614,0.0289567 -0.098378,0.0590984 -0.0250748,0.00914173 -0.052815,-0.00377165 -0.0619567,-0.0288465 -0.00914173,-0.0250748 0.00377165,-0.052815 0.0288465,-0.0619567l0.0365236 -0.0147874 0.0299488 -0.0250276c0.019748,-0.0179528 0.050315,-0.0164961 0.0682677,0.00325197 0.0179528,0.019748 0.0164961,0.050315 -0.00325197,0.0682677z"/>
  <path class="fil3" d="M2.14624 1.32405l2.52318 0c0.0550315,0 0.105043,0.0224921 0.141276,0.0587244 0.0362323,0.0362323 0.0587244,0.0862441 0.0587244,0.141276l0 1.67029 0 0.0333346 -0.0333346 0 -2.85651 0 -0.0333346 0 0 -0.0333346 0 -1.67029c0,-0.0550315 0.0224921,-0.105043 0.0587244,-0.141276 0.0362323,-0.0362323 0.0862441,-0.0587244 0.141276,-0.0587244zm2.52318 0.0666693l-2.52318 0c-0.0366339,0 -0.0699646,0.0150118 -0.0941417,0.039189 -0.0241772,0.0241772 -0.039189,0.0575079 -0.039189,0.0941417l0 1.63696 2.78984 0 0 -1.63696c0,-0.0366339 -0.0150118,-0.0699646 -0.039189,-0.0941417 -0.0241772,-0.0241772 -0.0575079,-0.039189 -0.0941417,-0.039189z"/>
  <path class="fil4" d="M5.83624 3.06597c0.0565512,0 0.137094,0.202996 0.137094,0.291819 0,0.0888189 -0.0805433,0.0298386 -0.137094,0.0298386l-0.272504 0.0401614c-0.0565551,0 -0.102402,-0.0720079 -0.102402,-0.160827 0,-0.0888189 0.0458465,-0.160831 0.102402,-0.160831l0.272504 -0.0401614z"/>
  <path class="fil4" d="M0.990425 3.06597c-0.0565512,0 -0.137094,0.202996 -0.137094,0.291819 0,0.0888189 0.0805433,0.0298386 0.137094,0.0298386l0.272504 0.0401614c0.0565551,0 0.102402,-0.0720079 0.102402,-0.160827 0,-0.0888189 -0.0458465,-0.160831 -0.102402,-0.160831l-0.272504 -0.0401614z"/>
  <path class="fil5" d="M1.90293 2.38933l3.02081 0c0.204264,0 0.389894,0.0834961 0.524402,0.218 0.134508,0.134512 0.218,0.320138 0.218,0.524402l0 2.0224 0 0.102402 -0.102402 0 -4.30081 0 -0.102402 0 0 -0.102402 0 -2.0224c0,-0.204264 0.0834921,-0.38989 0.218,-0.524402 0.134508,-0.134504 0.320138,-0.218 0.524402,-0.218z"/>
  <polygon class="fil6" points="5.66613,3.19647 5.66613,3.29661 1.16052,3.29661 1.16052,3.19647 "/>
  <polygon class="fil7" points="1.77493,5.25654 1.77493,5.46133 1.57013,5.46133 1.57013,5.25654 "/>
  <polygon class="fil7" points="5.25652,5.25654 5.25652,5.46133 5.05172,5.46133 5.05172,5.25654 "/>
  <polygon class="fil8" points="1.44491,4.75289 5.38174,4.75289 5.38174,4.95769 1.44491,4.95769 "/>
  <polygon class="fil8" points="1.44491,4.58559 5.38174,4.58559 5.38174,4.66452 1.44491,4.66452 "/>
  <path class="fil9" d="M1.94624 3.19647l2.92318 0 0.602248 0 0.194469 0 0 -0.0647402c0,-0.0135984 -0.000370079,-0.0271102 -0.00109843,-0.0405315 -0.0102441,-0.188217 -0.0913465,-0.358311 -0.216902,-0.48387 -0.134508,-0.134504 -0.320138,-0.218 -0.524402,-0.218l-0.0403425 0 -0.0139724 0 -0.0333346 0 -0.0333346 0 -0.000870079 0 -0.656012 0 -0.0681535 0 -1.12428 0 -0.046189 0 -0.894339 0 -0.0333346 0 -0.0333346 0 -0.043311 0c-0.204264,0 -0.389894,0.0834961 -0.524402,0.218 -0.125555,0.125559 -0.206657,0.295654 -0.216902,0.48387 -0.000728346,0.0134213 -0.00109843,0.0269331 -0.00109843,0.0405315l0 0.0647402 0.194472 0 0.59124 0z"/>
  <g id="_437034592">
   <circle id="_437035960" class="fil10" cx="3.41333" cy="3.82293" r="0.35389"/>
   <circle id="_437036560" class="fil8" cx="3.41333" cy="3.82293" r="0.241634"/>
   <ellipse id="_437036464" class="fil11" cx="3.41333" cy="3.82293" rx="0.0634252" ry="0.241634"/>
   <ellipse id="_437036104" class="fil5" cx="3.41333" cy="3.82293" rx="0.0119213" ry="0.241634"/>
   <polygon id="_437036056" class="fil12" points="3.43,3.47301 3.43,3.54226 3.39666,3.54226 3.39666,3.47301 "/>
   <polygon id="_437035456" class="fil12" points="3.43,3.47301 3.43,3.54226 3.39666,3.54226 3.39666,3.47301 "/>
   <polygon id="_437035552" class="fil12" points="3.59122,3.5219 3.55848,3.58293 3.5291,3.56717 3.56184,3.50614 "/>
   <polygon id="_437035720" class="fil12" points="3.59122,4.11459 3.55848,4.05356 3.5291,4.06932 3.56184,4.13035 "/>
   <polygon id="_437035792" class="fil12" points="3.70741,3.63665 3.65031,3.67583 3.63145,3.64834 3.68855,3.60916 "/>
   <polygon id="_437035864" class="fil12" points="3.70741,3.99984 3.65031,3.96066 3.63145,3.98815 3.68855,4.02733 "/>
   <polygon id="_437035696" class="fil12" points="3.75895,3.81506 3.68981,3.81904 3.6879,3.78575 3.75704,3.78178 "/>
   <polygon id="_437035432" class="fil12" points="3.43,4.09423 3.43,4.16348 3.39666,4.16348 3.39666,4.09423 "/>
   <polygon id="_437035240" class="fil12" points="3.43,4.09423 3.43,4.16348 3.39666,4.16348 3.39666,4.09423 "/>
   <polygon id="_437035312" class="fil12" points="3.29756,4.06932 3.26482,4.13035 3.23544,4.11459 3.26818,4.05356 "/>
   <polygon id="_437035816" class="fil12" points="3.29756,3.56717 3.26482,3.50614 3.23544,3.5219 3.26818,3.58293 "/>
   <polygon id="_437035264" class="fil12" points="3.19521,3.98815 3.13811,4.02733 3.11924,3.99985 3.17634,3.96066 "/>
   <polygon id="_437034400" class="fil12" points="3.19521,3.64834 3.13811,3.60915 3.11924,3.63664 3.17634,3.67583 "/>
   <polygon id="_437034784" class="fil12" points="3.13876,3.85074 3.06962,3.85471 3.06771,3.82143 3.13685,3.81745 "/>
  </g>
  <rect class="fil2" width="6.82666" height="6.82666"/>
 </g>
</svg>
