<?xml version="1.0" encoding="UTF-8"?>
<!DOCTYPE svg PUBLIC "-//W3C//DTD SVG 1.1//EN" "http://www.w3.org/Graphics/SVG/1.1/DTD/svg11.dtd">
<!-- Creator: CorelDRAW -->
<svg xmlns="http://www.w3.org/2000/svg" xml:space="preserve" width="6.82666in" height="6.82666in" style="shape-rendering:geometricPrecision; text-rendering:geometricPrecision; image-rendering:optimizeQuality; fill-rule:evenodd; clip-rule:evenodd"
viewBox="0 0 6.82666 6.82666"
 xmlns:xlink="http://www.w3.org/1999/xlink">
 <defs>
  <style type="text/css">
   <![CDATA[
    .str0 {stroke:#554330;stroke-width:0.0333346}
    .fil14 {fill:none}
    .fil11 {fill:#263238}
    .fil7 {fill:#3E2723}
    .fil12 {fill:#796F60}
    .fil8 {fill:#81D4FA}
    .fil5 {fill:#8C7D69}
    .fil4 {fill:#AF9F8A}
    .fil2 {fill:#BFAE94}
    .fil3 {fill:#CBBDA9}
    .fil9 {fill:#D86209}
    .fil10 {fill:#FF6F00}
    .fil13 {fill:#37474F;fill-rule:nonzero}
    .fil0 {fill:#3E2723;fill-rule:nonzero}
    .fil1 {fill:#8C7D69;fill-rule:nonzero}
    .fil6 {fill:#BFAE94;fill-rule:nonzero}
   ]]>
  </style>
 </defs>
 <g id="Layer_x0020_1">
  <metadata id="CorelCorpID_0Corel-Layer"/>
  <path class="fil0" d="M2.2889 3.99439c-0.0791772,0 -0.143161,-0.142563 -0.143161,-0.199098l0 -0.107555c0,-0.0564882 0.0639843,-0.102228 0.143161,-0.102228 0.0791063,0 0.143146,0.0457402 0.143146,0.102228l0 0.107555c0,0.0565354 -0.0640394,0.199098 -0.143146,0.199098z"/>
  <polygon class="fil1" points="2.58915,3.35374 1.9822,3.35374 1.9822,2.63816 2.58915,2.63816 "/>
  <path class="fil2" d="M5.97333 1.36889l0 0.613307 -0.0327441 0c-0.0443858,0 -0.080311,0.0457402 -0.080311,0.102264 0,0.0564843 0.0359252,0.102224 0.080311,0.102224l0.0327441 0 0 0.204441 -0.0327441 0c-0.0443858,0 -0.080311,0.0456811 -0.080311,0.102213 0,0.0564921 0.0359252,0.102217 0.080311,0.102217l0.0327441 0 0 0.204445 -0.0327441 0c-0.0443858,0 -0.080311,0.0457323 -0.080311,0.102213 0,0.0564882 0.0359252,0.102224 0.080311,0.102224l0.0327441 0 0 2.76001c0,0.0576929 -0.023378,0.109909 -0.0611811,0.147705 -0.037811,0.0378031 -0.0900354,0.0611772 -0.14772,0.0611772l-4.70222 0c-0.0576772,0 -0.109906,-0.023378 -0.147705,-0.0611772 -0.0377992,-0.0377992 -0.0611772,-0.0900197 -0.0611772,-0.147705l0 -0.613358c0,-0.0576811 0.023374,-0.109902 0.0611772,-0.147713 0.0378071,-0.0378071 0.0900236,-0.0611811 0.147705,-0.0611811l1.83554 0 0 -2.15997 -1.22217 0c-0.0574213,0 -0.109516,-0.0233622 -0.147343,-0.0611732 -0.0380591,-0.0380472 -0.0615945,-0.0902874 -0.0615945,-0.147724l0 -1.51109c0,-0.0576811 0.023374,-0.109909 0.0611772,-0.147717 0.0378071,-0.0378071 0.0900276,-0.0611811 0.147713,-0.0611811l3.78224 0c0.142142,0 0.271063,0.057815 0.364409,0.151161 0.0933268,0.0933268 0.15115,0.222213 0.15115,0.364394z"/>
  <path class="fil3" d="M5.97333 4.94706l0 0.817382c0,0.0576929 -0.023378,0.109909 -0.0611811,0.147705 -0.037811,0.0378031 -0.0900354,0.0611772 -0.14772,0.0611772l-4.70222 0c-0.0576772,0 -0.109906,-0.023378 -0.147705,-0.0611772 -0.0377992,-0.0377992 -0.0611772,-0.0900197 -0.0611772,-0.147705l0 -0.613358c0,-0.0576811 0.023374,-0.109902 0.0611772,-0.147713 0.0276693,-0.0276693 0.0630591,-0.0476102 0.102657,-0.056311l4.95617 0z"/>
  <path class="fil4" d="M5.97317 5.77274c-0.00212205,0.0543937 -0.0250354,0.103433 -0.0610197,0.139409 -0.037811,0.0378031 -0.0900354,0.0611772 -0.14772,0.0611772l-4.70222 0c-0.0576772,0 -0.109906,-0.023378 -0.147705,-0.0611772 -0.0359803,-0.0359803 -0.0588937,-0.0850236 -0.0610157,-0.139409l5.11968 0z"/>
  <path class="fil5" d="M5.94059 2.18669l-0.84722 0c-0.0443858,0 -0.080311,-0.0457402 -0.080311,-0.102224 0,-0.0565236 0.0359252,-0.102264 0.080311,-0.102264l0.84722 0c-0.0443858,0 -0.080311,0.0457402 -0.080311,0.102264 0,0.0564843 0.0359252,0.102224 0.080311,0.102224zm0 0.40887l-0.84722 0c-0.0443858,0 -0.080311,-0.0457244 -0.080311,-0.102217 0,-0.0565315 0.0359252,-0.102213 0.080311,-0.102213l0.84722 0c-0.0443858,0 -0.080311,0.0456811 -0.080311,0.102213 0,0.0564921 0.0359252,0.102217 0.080311,0.102217zm0 0.408882l-0.84722 0c-0.0443858,0 -0.080311,-0.0457362 -0.080311,-0.102224 0,-0.0564803 0.0359252,-0.102213 0.080311,-0.102213l0.84722 0c-0.0443858,0 -0.080311,0.0457323 -0.080311,0.102213 0,0.0564882 0.0359252,0.102224 0.080311,0.102224z"/>
  <path class="fil6" d="M2.69777 3.78995l-0.817756 0c-0.0565236,0 -0.102256,-0.0457402 -0.102256,-0.102217l0 -0.511098c0,-0.0565315 0.0457323,-0.102224 0.102256,-0.102224l0.817756 0c0.0564882,0 0.102228,0.0456929 0.102228,0.102224l0 0.511098c0,0.0564764 -0.0457402,0.102217 -0.102228,0.102217z"/>
  <path class="fil5" d="M2.28567 2.18668c-0.225504,0 -0.408874,-0.18337 -0.408874,-0.408929 0,-0.2255 0.18337,-0.40887 0.408874,-0.40887 0.2255,0 0.408882,0.18337 0.408882,0.40887 0,0.225559 -0.183382,0.408929 -0.408882,0.408929z"/>
  <path class="fil7" d="M1.56405 2.94022c0.212827,0.109445 0.515717,0.305224 0.635795,0.423823 0.0307992,-0.019815 0.0710276,-0.0231102 0.105933,-0.00516142 0.0520669,0.0267756 0.0725709,0.0906969 0.0457953,0.142764 -0.0267756,0.0520709 -0.0906969,0.0725748 -0.142764,0.0457992 -0.0349055,-0.0179488 -0.055626,-0.0525906 -0.0574213,-0.0891693 -0.166323,-0.0286772 -0.501764,-0.161154 -0.714591,-0.270598 -0.0275984,-0.0141929 -0.0520748,-0.0274606 -0.073811,-0.0399331 -0.0458346,0.0138858 -0.0968976,0.010689 -0.142854,-0.0129409 -0.0939016,-0.0482913 -0.130878,-0.163559 -0.0825906,-0.257465 0.0482913,-0.0939016 0.163559,-0.130878 0.257461,-0.0825906 0.0459567,0.0236339 0.0782598,0.0633071 0.0936299,0.108665 0.0227874,0.0104252 0.0478189,0.0226142 0.0754173,0.0368071z"/>
  <rect class="fil8 str0" x="3.40321" y="2.77642" width="1.21698" height="0.640512" rx="0.0815197" ry="0.0815197"/>
  <g id="_275229120">
   <g>
    <ellipse id="_275230176" class="fil9" cx="3.5768" cy="3.75529" rx="0.140626" ry="0.151045"/>
    <ellipse id="_275229984" class="fil10" cx="3.5768" cy="3.7414" rx="0.140626" ry="0.137157"/>
   </g>
   <g>
    <ellipse id="_275228928" class="fil9" cx="4.0117" cy="3.75529" rx="0.140626" ry="0.151045"/>
    <ellipse id="_275228856" class="fil10" cx="4.0117" cy="3.7414" rx="0.140626" ry="0.137157"/>
   </g>
   <g>
    <ellipse id="_275229192" class="fil9" cx="4.44659" cy="3.75529" rx="0.140626" ry="0.151045"/>
    <ellipse id="_275229024" class="fil10" cx="4.44659" cy="3.7414" rx="0.140626" ry="0.137157"/>
   </g>
  </g>
  <g id="_275228328">
   <rect id="_275229000" class="fil11" x="3.48219" y="4.10076" width="0.440972" height="0.114583"/>
   <rect id="_275228424" class="fil11" x="4.10024" y="4.10076" width="0.440972" height="0.114583"/>
  </g>
  <path class="fil12" d="M2.28567 1.57332c-0.112709,0 -0.204441,0.0917717 -0.204441,0.204476 0,0.112717 0.0917323,0.204437 0.204441,0.204437 0.112705,0 0.204441,-0.0917205 0.204441,-0.204437 0,-0.112705 -0.0917362,-0.204476 -0.204441,-0.204476z"/>
  <path class="fil13" d="M3.7036 3.02732c0,0.00922835 -0.00133071,0.0165472 -0.00399213,0.0219528 -0.00266142,0.00540551 -0.00640551,0.00931102 -0.011311,0.0116417 -0.00490551,0.00224409 -0.010811,0.00340945 -0.0176299,0.00332677l-0.0214528 0 0 0.0498937 0.0184606 0c0.00831496,-8.26772e-005 0.0151339,0.00141339 0.020374,0.00432283 0.00532283,0.00291339 0.00922835,0.00765354 0.0118071,0.0141378 0.00249606,0.00657087 0.00374409,0.0152205 0.00374409,0.0259449l0 0.0274449c0,0.0102283 -0.00116535,0.0182087 -0.00349213,0.0239488 -0.00233071,0.00573622 -0.0055748,0.00981102 -0.00981496,0.0121417 -0.00424016,0.00232677 -0.00931496,0.00340945 -0.0151339,0.00332677 -0.00881496,0.000165354 -0.0157165,-0.00249606 -0.0207913,-0.0078189 -0.00498819,-0.00540551 -0.00756693,-0.0142205 -0.00764961,-0.0266102l0 -0.0324331 -0.0518898 0 0 0.0289409c0,0.0187087 0.0030748,0.0345118 0.00922835,0.0475669 0.00615748,0.0130551 0.0153031,0.0230354 0.0274449,0.029937 0.0121417,0.0068189 0.0271929,0.0102283 0.0451535,0.010311 0.0179646,-8.26772e-005 0.0330157,-0.00349213 0.0451535,-0.010311 0.0121417,-0.00690157 0.0212913,-0.0168819 0.0274449,-0.029937 0.00615354,-0.0130551 0.00922835,-0.0288583 0.00922835,-0.0475669l0 -0.0274409c8.26772e-005,-0.0177992 -0.00282677,-0.0329331 -0.00889764,-0.0454882 -0.00607087,-0.0124764 -0.0158819,-0.0217874 -0.0295197,-0.0278583 0.0131378,-0.00548819 0.0228701,-0.0141378 0.0291063,-0.0260276 0.00623622,-0.0118937 0.0093937,-0.0271102 0.00931102,-0.0458228l0 -0.00898031c0,-0.0187087 -0.0030748,-0.0345945 -0.00922835,-0.0476496 -0.00615354,-0.0130551 -0.0153031,-0.0229528 -0.0274449,-0.0298543 -0.0121378,-0.0068189 -0.027189,-0.0102283 -0.0451535,-0.010311 -0.0179606,8.26772e-005 -0.0330118,0.00349213 -0.0451535,0.010311 -0.0121417,0.00690157 -0.0212874,0.0167992 -0.0274449,0.0298543 -0.00615354,0.0130551 -0.00922835,0.0289409 -0.00922835,0.0476496l0 0.0189606 0.0518898 0 0 -0.0224528c8.26772e-005,-0.0123898 0.00266142,-0.0212047 0.00764961,-0.0266102 0.0050748,-0.00532283 0.0119764,-0.00798425 0.0207913,-0.0078189 0.0058189,-8.26772e-005 0.0108937,0.001 0.0151339,0.00332677 0.00424016,0.00233071 0.00748425,0.00640551 0.00981496,0.0122244 0.00232677,0.00582283 0.00349213,0.0139724 0.00349213,0.0243661l0 0.0194606zm0.089311 0.13122l0 0.0289409c0,0.0187087 0.0030748,0.0345118 0.00922835,0.0475669 0.00615354,0.0130551 0.0153031,0.0230354 0.0274449,0.029937 0.0121378,0.0068189 0.027189,0.0102283 0.0451535,0.010311 0.0179606,-8.26772e-005 0.0330118,-0.00349213 0.0451535,-0.010311 0.0121417,-0.00690157 0.0212874,-0.0168819 0.0274449,-0.029937 0.00615354,-0.0130551 0.00922835,-0.0288583 0.00922835,-0.0475669l0 -0.0778346c0,-0.0257795 -0.00507087,-0.0455709 -0.0152992,-0.0592087 -0.0101457,-0.0136417 -0.0253661,-0.0205433 -0.0455709,-0.020626 -0.0109764,0 -0.0204567,0.00224803 -0.0284409,0.00657087 -0.00798425,0.00432283 -0.0144685,0.0106457 -0.0194606,0.018878l0.00449213 -0.0833268 0.0952992 0 0 -0.0498937 -0.144697 0 -0.00997638 0.202571 0.0518898 0 0 -0.0104764c8.26772e-005,-0.0123898 0.00266142,-0.0212047 0.00764961,-0.0266102 0.0050748,-0.00532283 0.0119764,-0.00798425 0.0207913,-0.00781496 0.00881496,-0.000169291 0.0157165,0.00249213 0.0207874,0.00781496 0.00499213,0.00540551 0.00756693,0.0142205 0.00764961,0.0266102l0 0.0768386c0,0.00823228 -0.00116142,0.0148858 -0.00349213,0.019874 -0.00232677,0.00499213 -0.00557087,0.00856693 -0.00981102,0.010811 -0.00424016,0.00224409 -0.00931496,0.00332677 -0.0151339,0.00324409 -0.00582283,8.26772e-005 -0.0108937,-0.001 -0.0151378,-0.00324409 -0.00424016,-0.00224409 -0.00748425,-0.0058189 -0.00981102,-0.010811 -0.00232677,-0.00498819 -0.00349213,-0.0116417 -0.00349213,-0.019874l0 -0.0324331 -0.0518898 0zm0.200075 0.059874l0 0.0528898 0.0528898 0 0 -0.0528898 -0.0528898 0zm0.143197 -0.216043c8.26772e-005,-0.0123898 0.00266142,-0.0212047 0.00765354,-0.0266102 0.00507087,-0.00532283 0.0119724,-0.00798425 0.0207874,-0.0078189 0.00881496,-0.000165354 0.0157165,0.00249606 0.0207913,0.0078189 0.00498819,0.00540551 0.00756693,0.0142205 0.00764961,0.0266102l0 0.188602c-8.26772e-005,0.0123898 -0.00266142,0.0212047 -0.00764961,0.0266102 -0.0050748,0.00532283 -0.0119764,0.00798425 -0.0207913,0.0078189 -0.00881496,0.000165354 -0.0157165,-0.00249606 -0.0207874,-0.0078189 -0.00499213,-0.00540551 -0.00757087,-0.0142205 -0.00765354,-0.0266102l0 -0.188602zm-0.0548819 0.18511c0,0.0187087 0.00324016,0.0345118 0.00964567,0.0475669 0.00640157,0.0130551 0.0157165,0.0230354 0.0281063,0.029937 0.0123898,0.0068189 0.0276102,0.0102283 0.0455709,0.010311 0.0179646,-8.26772e-005 0.0331811,-0.00349213 0.0455709,-0.010311 0.0123898,-0.00690157 0.0217047,-0.0168819 0.0281063,-0.029937 0.00640551,-0.0130551 0.00964961,-0.0288583 0.00964961,-0.0475669l0 -0.181618c0,-0.0187087 -0.00324409,-0.0345945 -0.00964961,-0.0476496 -0.00640157,-0.0130551 -0.0157165,-0.0229528 -0.0281063,-0.0298543 -0.0123898,-0.0068189 -0.0276063,-0.0102283 -0.0455709,-0.010311 -0.0179606,8.26772e-005 -0.0331811,0.00349213 -0.0455709,0.010311 -0.0123898,0.00690157 -0.0217047,0.0167992 -0.0281063,0.0298543 -0.00640551,0.0130551 -0.00964567,0.0289409 -0.00964567,0.0476496l0 0.181618zm0.252465 -0.18511c8.26772e-005,-0.0123898 0.00266142,-0.0212047 0.00765354,-0.0266102 0.00507087,-0.00532283 0.0119724,-0.00798425 0.0207874,-0.0078189 0.00881496,-0.000165354 0.0157165,0.00249606 0.0207913,0.0078189 0.00498819,0.00540551 0.00756693,0.0142205 0.00764961,0.0266102l0 0.188602c-8.26772e-005,0.0123898 -0.00266142,0.0212047 -0.00764961,0.0266102 -0.0050748,0.00532283 -0.0119764,0.00798425 -0.0207913,0.0078189 -0.00881496,0.000165354 -0.0157165,-0.00249606 -0.0207874,-0.0078189 -0.00499213,-0.00540551 -0.00757087,-0.0142205 -0.00765354,-0.0266102l0 -0.188602zm-0.0548819 0.18511c0,0.0187087 0.00324016,0.0345118 0.00964567,0.0475669 0.00640157,0.0130551 0.0157165,0.0230354 0.0281063,0.029937 0.0123898,0.0068189 0.0276102,0.0102283 0.0455709,0.010311 0.0179646,-8.26772e-005 0.0331811,-0.00349213 0.0455709,-0.010311 0.0123898,-0.00690157 0.0217047,-0.0168819 0.0281063,-0.029937 0.00640551,-0.0130551 0.00964961,-0.0288583 0.00964961,-0.0475669l0 -0.181618c0,-0.0187087 -0.00324409,-0.0345945 -0.00964961,-0.0476496 -0.00640157,-0.0130551 -0.0157165,-0.0229528 -0.0281063,-0.0298543 -0.0123898,-0.0068189 -0.0276063,-0.0102283 -0.0455709,-0.010311 -0.0179606,8.26772e-005 -0.0331811,0.00349213 -0.0455709,0.010311 -0.0123898,0.00690157 -0.0217047,0.0167992 -0.0281063,0.0298543 -0.00640551,0.0130551 -0.00964567,0.0289409 -0.00964567,0.0476496l0 0.181618z"/>
  <rect class="fil14" width="6.82666" height="6.82666"/>
 </g>
</svg>
