<?xml version="1.0" encoding="UTF-8"?>
<!DOCTYPE svg PUBLIC "-//W3C//DTD SVG 1.1//EN" "http://www.w3.org/Graphics/SVG/1.1/DTD/svg11.dtd">
<!-- Creator: CorelDRAW -->
<svg xmlns="http://www.w3.org/2000/svg" xml:space="preserve" width="6.82666in" height="6.82666in" style="shape-rendering:geometricPrecision; text-rendering:geometricPrecision; image-rendering:optimizeQuality; fill-rule:evenodd; clip-rule:evenodd"
viewBox="0 0 6.82666 6.82666"
 xmlns:xlink="http://www.w3.org/1999/xlink">
 <defs>
  <style type="text/css">
   <![CDATA[
    .fil3 {fill:none}
    .fil2 {fill:#6A1D1E}
    .fil0 {fill:#D50000}
    .fil1 {fill:#B40A0B;fill-rule:nonzero}
   ]]>
  </style>
 </defs>
 <g id="Layer_x0020_1">
  <metadata id="CorelCorpID_0Corel-Layer"/>
  <path class="fil0" d="M5.89059 2.5818l-0.244295 1.93898c-0.00401969,0.0319213 -0.0238386,0.169516 -0.0392441,0.198874 -0.126465,0.241043 -1.06451,0.417252 -2.19372,0.416563 -1.12085,-0.000688976 -2.04567,-0.179945 -2.1889,-0.412913 -0.013626,-0.0221614 -0.0377087,-0.15213 -0.0407677,-0.176406l-0.247591 -1.9651c0.370264,0.215717 1.33966,0.369634 2.47726,0.369634 1.1376,0 2.107,-0.153917 2.47726,-0.369634z"/>
  <path class="fil1" d="M3.41333 1.69044c0.737091,0 1.40649,0.0643071 1.89289,0.168268 0.542689,0.115992 0.878358,0.301457 0.878358,0.528894 0,0.227433 -0.335669,0.412902 -0.878358,0.528894 -0.486402,0.103961 -1.1558,0.168268 -1.89289,0.168268 -0.737091,0 -1.40649,-0.0643071 -1.89289,-0.168268 -0.542689,-0.115992 -0.878358,-0.301461 -0.878358,-0.528894 0,-0.227437 0.335669,-0.412902 0.878358,-0.528894 0.486402,-0.103961 1.1558,-0.168268 1.89289,-0.168268zm1.83769 0.428685c-0.468331,-0.100098 -1.1179,-0.162016 -1.83769,-0.162016 -0.719787,0 -1.36936,0.0619173 -1.83769,0.162016 -0.412035,0.0880669 -0.666894,0.184524 -0.666894,0.268476 0,0.0839567 0.254858,0.180409 0.666894,0.268476 0.468331,0.100098 1.1179,0.162016 1.83769,0.162016 0.719787,0 1.36936,-0.0619173 1.83769,-0.162016 0.412035,-0.0880669 0.666894,-0.18452 0.666894,-0.268476 0,-0.0839528 -0.254858,-0.180409 -0.666894,-0.268476z"/>
  <path class="fil2" d="M5.94916 2.33919c0,-0.277398 -1.14046,-0.540244 -2.54096,-0.540244 -1.4005,0 -2.53069,0.262846 -2.53069,0.540244 0,0.0607992 0.0545315,0.119071 0.154441,0.173008 0.355949,0.192161 1.28783,0.329268 2.38139,0.329268 1.09356,0 2.02545,-0.137106 2.38139,-0.32928 0.0999094,-0.0539291 0.154441,-0.112201 0.154441,-0.172996z"/>
  <rect class="fil3" width="6.82666" height="6.82666"/>
 </g>
</svg>
