<?xml version="1.0" encoding="UTF-8"?>
<!DOCTYPE svg PUBLIC "-//W3C//DTD SVG 1.1//EN" "http://www.w3.org/Graphics/SVG/1.1/DTD/svg11.dtd">
<!-- Creator: CorelDRAW -->
<svg xmlns="http://www.w3.org/2000/svg" xml:space="preserve" width="6.82666in" height="6.82666in" style="shape-rendering:geometricPrecision; text-rendering:geometricPrecision; image-rendering:optimizeQuality; fill-rule:evenodd; clip-rule:evenodd"
viewBox="0 0 6.82666 6.82666"
 xmlns:xlink="http://www.w3.org/1999/xlink">
 <defs>
  <style type="text/css">
   <![CDATA[
    .fil17 {fill:none}
    .fil9 {fill:#4CAF50}
    .fil11 {fill:#558B2F}
    .fil2 {fill:#689F38}
    .fil1 {fill:#754529}
    .fil6 {fill:#8BC34A}
    .fil3 {fill:#985935}
    .fil16 {fill:#BA7C42}
    .fil15 {fill:#C49162}
    .fil4 {fill:#D50000}
    .fil12 {fill:#D9B384}
    .fil13 {fill:#E6A676}
    .fil0 {fill:#EAC28F}
    .fil7 {fill:#F44336}
    .fil8 {fill:#FDD39B}
    .fil5 {fill:#FF9100}
    .fil14 {fill:#FF9800}
    .fil10 {fill:#FFD600}
   ]]>
  </style>
 </defs>
 <g id="Layer_x0020_1">
  <metadata id="CorelCorpID_0Corel-Layer"/>
  <g id="_436959888">
   <path id="_436965216" class="fil0" d="M3.55201 3.87933c-0.0734173,-0.138028 -0.112445,-0.281276 -0.132224,-0.408634 -0.0521969,0.0630039 -0.106614,0.120382 -0.164657,0.169496 -0.334189,0.28278 -0.76265,0.479878 -1.09684,0.454165 -0.0875866,-0.00673622 -0.171059,-0.0123031 -0.246555,-0.0168346l2.45041 0.67878c0.00454724,0.00125984 0.00911811,0.00248819 0.0137087,0.0036811 -0.219165,-0.128232 -0.645087,-0.54461 -0.823839,-0.880654z"/>
   <path id="_436964712" class="fil1" d="M3.41978 3.47069c0.0197795,0.127358 0.0588071,0.270606 0.132224,0.408634 0.178752,0.336043 0.604673,0.752421 0.823839,0.880654 0.499969,0.130039 1.25049,-0.132031 1.25049,-1.26788 0,-0.973197 -0.520693,-1.22027 -0.973232,-1.2617 -0.12552,0.0164961 -0.301748,0.0743858 -0.489654,0.244394 -0.297394,0.269079 -0.495323,0.69613 -0.743665,0.995902z"/>
   <path id="_436964904" class="fil2" d="M4.25884 2.80357l-0.0710236 0.020374c0.0884055,-0.0165709 0.533587,-0.235531 0.638933,-0.314087 0.309154,-0.230528 0.103453,-0.0735039 0.309453,-0.120945 0.00136614,-0.000311024 0.193406,-0.16052 0.228646,-0.186047 0.0232402,-0.0168346 0.23535,-0.22322 0.235953,-0.223516 0.000598425,-0.00862992 0.00188583,-0.00987795 0.00073622,-0.0183937 -5.11811e-005,-7.87402e-006 -0.406217,0.159185 -0.491976,0.182016l-0.0140039 0.00372835c-0.178299,0.0474685 -0.133465,0.040878 -0.447051,0.0836535 -0.0725276,0.0098937 -0.152004,0.0334567 -0.160071,0.0413031 -0.013311,0.0129567 0.0607244,0.0212402 -0.135161,0.0685748 -0.120094,0.0290157 -0.179201,0.0539646 -0.204335,0.164059 -0.0217244,0.0951417 -0.232496,0.231866 -0.307677,0.365693 0.0474055,0.0597756 0.136846,0.0965591 0.199772,0.0469843 0.0686457,-0.0540787 0.108976,-0.0428819 0.15961,-0.057874 -0.0146102,0.00130709 -0.191516,0.00279134 0.0581969,-0.0555236z"/>
   <path id="_436964880" class="fil3" d="M4.41396 3.22748c0.215925,-0.152008 0.497276,0.000874016 0.673622,0.150327 0.284295,0.240929 0.116933,-0.0516063 0.395039,0.116268 0.000574803,0.000350394 0.192189,-0.0342087 0.330535,0.0228583 0.0432402,0.00424409 0.136465,-0.0182559 0.160173,0.021937 -0.0690079,0.165594 -0.289957,0.0846969 -0.289957,0.558354 -0.0707795,0 -0.794386,-0.406768 -0.890256,-0.459874 -0.285055,-0.157902 -0.12513,0.0533976 -0.382098,-0.266598 -0.13089,-0.162996 -0.214839,-0.262933 0.0721417,-0.154012 0.0106693,0.00405118 -0.0715984,-0.00550787 -0.0692008,0.0107402z"/>
   <path id="_436964640" class="fil4" d="M3.83656 2.81996c0.0874213,0.0538661 0.24065,0.196602 0.373539,0.284626l0.0277756 0.0183976c0.0717756,0.0475394 0.128697,0.350409 0.173697,0.469319 0.0859094,0.227 0.112693,0.108024 0.273079,0.307709l0.00883858 0.011c0.0562717,0.070063 -0.134165,0.101008 -0.236642,0.141051 -0.207213,0.0809646 -0.362406,0.15426 -0.404567,-0.169366 -0.0157283,-0.120709 0.0693976,-0.0382165 -0.052126,-0.275787 -0.12015,-0.23487 -0.247783,-0.243417 -0.288772,-0.325563 -0.0326654,-0.0654646 -0.0495748,-0.0878661 -0.070252,-0.129953 -0.00695276,-0.0768661 0.010374,-0.294083 0.0817953,-0.318803 0.00827953,-0.035878 0.0980157,-0.011563 0.113634,-0.0126299z"/>
   <path id="_436964520" class="fil5" d="M3.99874 2.99921l-0.0431063 -0.125173c-0.0579685,-0.168362 0.398185,-0.104472 0.516575,-0.265689 0.0118661,-0.0161693 0.209142,0.0108543 0.327732,-0.0436457 0.121587,-0.0558819 0.266421,-0.00383465 0.511882,-0.096315 0.10128,-0.0381614 0.0624291,0.00249213 0.191012,-0.0672795 0.0291693,-0.0158307 0.241484,0.182811 0.142488,0.389776 -0.0436575,0.0912795 0.0712126,0.153539 0.0573583,0.213555l-0.018937 0.00216535c-0.303236,0.0346654 -0.513378,-0.011311 -0.775945,0.112551 -0.091811,0.043311 -0.611346,0.10511 -0.707043,0.0494213 -0.0961693,-0.0559606 -0.202016,-0.0487598 -0.202016,-0.169366z"/>
   <path id="_436964808" class="fil6" d="M3.52512 3.10194c0.0162205,-0.0243307 0.0475236,-0.0825 0.0694409,-0.107319l0.0352323 0.0293425c0.153756,0.128051 0.221496,0.323043 0.357134,0.501421l0.033189 0.0436496c0.12322,0.162071 0.0211063,0.139575 0.134193,0.317811 0.0512283,0.080752 0.0553465,0.16672 0.170988,0.32087 0.167886,0.223807 0.165528,0.250406 0.453988,0.384004 0.0282126,0.0130709 0.141217,0.258756 -0.183614,0.273087 -0.159091,0.00701575 -0.126409,-0.024815 -0.279752,-0.175685 -0.0872795,-0.0858701 -0.214429,-0.174406 -0.249453,-0.286961 -0.116394,-0.183874 -0.286728,-0.350004 -0.444783,-0.494035 -0.101693,-0.0926575 -0.176807,-0.327272 -0.254866,-0.471122 -0.0719134,-0.132535 0.167531,-0.227406 0.158303,-0.335063z"/>
   <path id="_436963704" class="fil4" d="M4.88959 3.11766c0.00745276,0.0832441 0.0770709,0.251528 0.178079,0.288157 0.0583465,0.0211614 0.428059,0.087122 0.500709,0.0195236 0.0163661,-0.0152283 0.117035,-0.137768 0.109287,-0.16013 -0.0309606,-0.00639764 -0.0717638,-0.0385236 -0.201413,-0.0558189 -0.137988,-0.0184173 -0.470563,-0.155291 -0.55574,-0.0925197 -0.00974016,0.00717717 -0.0304449,0.00612598 -0.0309213,0.000787402z"/>
   <path id="_436964208" class="fil7" d="M4.22602 2.54164c0.0416339,0.0355906 -0.047689,0.460933 -0.150571,0.460933 -0.107126,0 -0.271382,-0.075063 -0.271382,-0.194984 0,-0.0445 -0.00138583,-0.0528937 0.00917323,-0.0939606 0.00524409,-0.0012126 0.195386,-0.192508 0.205996,-0.209272 0.0214252,-0.0748425 0.210862,0.0407717 0.206783,0.0372835z"/>
   <path id="_436964328" class="fil5" d="M4.69536 4.10483l0.0138898 -0.000720472c0.141508,-0.00732677 0.759177,0.152705 0.999945,0.18726 0.0124094,0.0248701 -0.106059,0.479114 -0.150949,0.465059l-0.0154921 -0.00485039c-0.153878,-0.0481732 -0.199256,-0.11598 -0.420909,-0.183193 -0.182283,-0.0552717 -0.180425,-0.105677 -0.39011,-0.159736l-0.0115315 -0.00497638c-0.0927795,-0.0579961 -0.0425433,0.0467244 -0.0540236,-0.162756l-0.000566929 -0.0103504c-0.00076378,-0.0138819 -0.0121496,-0.122555 -0.0096378,-0.123244 0.0101063,-0.00127165 0.0302362,-0.00201969 0.0393858,-0.00249213z"/>
   <path id="_436963968" class="fil8" d="M3.25513 3.64019c0.0580433,-0.0491142 0.112461,-0.106492 0.164657,-0.169496 0.248343,-0.299772 0.446272,-0.726823 0.743665,-0.995902 0.187906,-0.170008 0.364134,-0.227898 0.489654,-0.244394 -0.102807,-0.00941339 -0.202098,-0.0082126 -0.290965,-0.0025l-2.86682 0.184256c-0.35237,0.0226457 -0.641992,0.288894 -0.641992,0.641988l0 0.154406c0,0.438012 0.374283,0.679465 0.796394,0.79639l0.262008 0.0725827c0.0754961,0.0045315 0.158969,0.0100984 0.246555,0.0168346 0.334193,0.0257126 0.762654,-0.171386 1.09684,-0.454165z"/>
   <path id="_436963848" class="fil9" d="M4.65865 3.77711l0.00916929 -0.0366929c0,0.0985039 -0.0401496,0.375811 0.0386575,0.390634 0.0605669,0.0113898 0.375165,0.0388858 0.381004,0.054248 0.0924134,0.00766535 0.0667953,-0.339394 0.0569331,-0.403602 -0.00538189,-0.0350276 -0.00562205,-0.059752 -0.00917323,-0.0905472 -0.0706614,-0.0334685 -0.344854,-0.0525787 -0.452874,-0.0424567 -0.00573622,0.0168071 -0.0258465,0.121492 -0.0237165,0.128417z"/>
   <path id="_436964088" class="fil10" d="M4.68267 4.03475c-0.0105276,0.0413031 0.118539,0.262402 0.0856693,0.402402 -0.00684252,0.0291378 -0.00419291,0.102083 -0.00419291,0.137984 -0.0162874,0.00128346 -0.459177,-0.34665 -0.46061,-0.346996 -0.00526378,-0.0138189 -0.034748,-0.0987087 -0.0458622,-0.110567 0.00550394,-0.00896457 0.199185,-0.0320827 0.262996,-0.116913 0.0373976,-0.0497087 0.182594,-0.0644094 0.193807,-0.0401024 -0.00815748,0.0141496 -0.0297047,0.0659213 -0.0318071,0.0741929z"/>
   <path id="_436963920" class="fil5" d="M4.65865 3.77711c-0.00212992,-0.0069252 0.0179803,-0.11161 0.0237165,-0.128417 0.0315512,-0.00296063 0.0772835,-0.00341732 0.12798,-0.00175591 -0.00700394,-0.00390551 -0.0127913,-0.00712205 -0.0172362,-0.00958268 -0.285055,-0.157898 -0.12513,0.0533976 -0.382098,-0.266598 -0.0680394,-0.0847283 -0.123386,-0.152413 -0.120559,-0.182587 -0.00234646,-0.000185039 -0.00466142,-0.000377953 -0.00694488,-0.000582677 0.0508228,0.108339 0.0930472,0.312205 0.128059,0.40472 0.0814843,0.215319 0.10978,0.119354 0.249346,0.279315 0.00298819,-0.0522126 0.00690551,-0.100433 0.00690551,-0.131205l-0.00916929 0.0366929z"/>
   <path id="_436963824" class="fil11" d="M5.47389 4.24705c0.0303307,-0.0613425 0.162118,0.0271378 0.184217,-0.0463307 -0.106776,-0.0514055 -0.36587,-0.288949 -0.508059,-0.366283 0.00796457,0.098378 0.0127323,0.282941 -0.0313307,0.336232 0.118122,0.0250276 0.243929,0.0530354 0.355173,0.0763819z"/>
   <path id="_436963680" class="fil6" d="M5.61354 3.24124c-0.00874409,-0.0811024 0.18022,-0.0212638 -0.038626,-0.224976 -0.247346,0.0162165 -0.437118,-0.00560236 -0.667118,0.102898 -0.00196063,0.000929134 -0.00411811,0.0018622 -0.00646063,0.00280315 0.00650394,7.08661e-005 0.0142441,-0.00145669 0.0191732,-0.00508661 0.0851772,-0.0627717 0.417752,0.0741024 0.55574,0.0925197 0.0645236,0.0086063 0.107043,0.0208898 0.137291,0.0318425z"/>
   <path id="_436963200" class="fil12" d="M2.18437 2.65242c0.0952402,0 0.172453,0.0535039 0.172453,0.1195 0,0.0659961 -0.0772126,0.1195 -0.172453,0.1195 -0.095248,0 -0.172453,-0.0535039 -0.172453,-0.1195 0,-0.0659961 0.0772047,-0.1195 0.172453,-0.1195z"/>
   <path id="_436963536" class="fil13" d="M1.63522 2.80228c0.0952402,0 0.172453,0.0535 0.172453,0.119496 0,0.066 -0.0772126,0.1195 -0.172453,0.1195 -0.0952441,0 -0.172453,-0.0535 -0.172453,-0.1195 0,-0.0659961 0.0772087,-0.119496 0.172453,-0.119496z"/>
   <path id="_436963176" class="fil14" d="M3.41004 2.98182c0.0952402,0 0.172453,-0.0534961 0.172453,-0.119492 0,-0.0660039 -0.0772126,-0.1195 -0.172453,-0.1195 -0.0952402,0 -0.172453,0.0534961 -0.172453,0.1195 0,0.0659961 0.0772126,0.119492 0.172453,0.119492z"/>
   <path id="_436962624" class="fil15" d="M1.97389 3.21441c0.0952402,0 0.172453,0.0534961 0.172453,0.119492 0,0.066 -0.0772126,0.1195 -0.172453,0.1195 -0.0952441,0 -0.172453,-0.0535 -0.172453,-0.1195 0,-0.0659961 0.0772087,-0.119492 0.172453,-0.119492z"/>
   <path id="_436962408" class="fil15" d="M2.89804 2.95554c0.0952402,0 0.172453,-0.0535 0.172453,-0.119496 0,-0.066 -0.0772126,-0.1195 -0.172453,-0.1195 -0.0952402,0 -0.172453,0.0535 -0.172453,0.1195 0,0.0659961 0.0772126,0.119496 0.172453,0.119496z"/>
   <ellipse id="_436962192" class="fil16" transform="matrix(1.29305 0.398592 -0.398591 1.29305 1.11781 3.23252)" rx="0.0262205" ry="0.0555276"/>
   <ellipse id="_436962312" class="fil16" transform="matrix(1.11826 0.761811 -0.76181 1.11826 0.991104 2.82479)" rx="0.0262205" ry="0.0555276"/>
   <ellipse id="_436962648" class="fil16" transform="matrix(0.844226 1.05742 -1.05742 0.844227 1.42864 3.44764)" rx="0.0262205" ry="0.0555276"/>
   <ellipse id="_436962792" class="fil16" transform="matrix(0.844226 -1.05742 -1.05742 -0.844227 2.5908 2.42481)" rx="0.0262205" ry="0.0555276"/>
   <ellipse id="_436962864" class="fil16" transform="matrix(0.495272 1.25919 -1.25919 0.495273 1.34677 2.82042)" rx="0.0262205" ry="0.0555276"/>
   <ellipse id="_436962360" class="fil16" transform="matrix(0.495272 -1.25919 -1.25919 -0.495273 2.50892 3.05203)" rx="0.0262205" ry="0.0555276"/>
   <ellipse id="_436961640" class="fil16" transform="matrix(0.102365 1.34922 -1.34921 0.102365 1.93186 2.48377)" rx="0.0262205" ry="0.0555276"/>
   <ellipse id="_436961472" class="fil16" transform="matrix(0.102365 -1.34922 -1.34921 -0.102365 3.09402 3.38869)" rx="0.0262205" ry="0.0555276"/>
   <ellipse id="_436961424" class="fil16" transform="matrix(-0.299626 1.3195 -1.3195 -0.299627 1.79292 2.63939)" rx="0.0262205" ry="0.0555276"/>
   <ellipse id="_436962096" class="fil16" transform="matrix(-0.299626 -1.3195 -1.3195 0.299627 2.95508 3.23306)" rx="0.0262205" ry="0.0555276"/>
   <ellipse id="_436961544" class="fil16" transform="matrix(-0.675027 1.17269 -1.17269 -0.675028 2.25777 2.45004)" rx="0.0262205" ry="0.0555276"/>
   <ellipse id="_436961784" class="fil16" transform="matrix(0.990523 0.921805 0.921804 -0.990524 2.50839 2.53754)" rx="0.0262205" ry="0.0555276"/>
   <ellipse id="_436961760" class="fil16" transform="matrix(-1.21811 0.589115 -0.589114 -1.21812 2.65464 2.46224)" rx="0.0262205" ry="0.0555276"/>
   <ellipse id="_436962048" class="fil16" transform="matrix(-1.3376 0.204144 -0.204144 -1.3376 3.02765 2.56307)" rx="0.0262205" ry="0.0555276"/>
   <ellipse id="_436961304" class="fil16" transform="matrix(-1.22039 -0.584376 0.584376 -1.2204 1.39642 2.6236)" rx="0.0262205" ry="0.0555276"/>
   <ellipse id="_436961136" class="fil16" transform="matrix(-1.22039 0.584376 0.584376 1.2204 2.47626 3.21285)" rx="0.0262205" ry="0.0555276"/>
   <ellipse id="_436961088" class="fil16" transform="matrix(-0.622445 -1.20143 -1.20142 0.622445 2.7229 3.68115)" rx="0.0262205" ry="0.0555276"/>
   <ellipse id="_436961328" class="fil16" transform="matrix(-0.622445 -1.20143 -1.20142 0.622445 2.02873 3.61226)" rx="0.0262205" ry="0.0555276"/>
   <ellipse id="_436961160" class="fil16" transform="matrix(-0.622445 1.20143 -1.20142 -0.622445 3.60513 2.50914)" rx="0.0262205" ry="0.0555276"/>
   <ellipse id="_436960872" class="fil16" transform="matrix(-1.34611 0.137299 0.137298 1.34611 2.56412 3.79368)" rx="0.0262205" ry="0.0555276"/>
   <ellipse id="_436961208" class="fil16" transform="matrix(-1.34611 0.137299 0.137298 1.34611 1.86995 3.7248)" rx="0.0262205" ry="0.0555276"/>
   <ellipse id="_436960992" class="fil16" transform="matrix(-1.34611 -0.137299 0.137298 -1.34611 3.33563 2.49234)" rx="0.0262205" ry="0.0555276"/>
   <ellipse id="_436960104" class="fil16" transform="matrix(-0.490375 -1.26111 -1.26111 0.490375 2.42621 3.69751)" rx="0.0262205" ry="0.0555276"/>
   <ellipse id="_436960248" class="fil16" transform="matrix(-0.490375 -1.26111 -1.26111 0.490375 1.73204 3.62862)" rx="0.0262205" ry="0.0555276"/>
   <ellipse id="_436960032" class="fil16" transform="matrix(-0.490375 1.26111 -1.26111 -0.490375 3.14113 2.52163)" rx="0.0262205" ry="0.0555276"/>
  </g>
  <rect class="fil17" width="6.82666" height="6.82666"/>
 </g>
</svg>
