<?xml version="1.0" encoding="UTF-8"?>
<!DOCTYPE svg PUBLIC "-//W3C//DTD SVG 1.1//EN" "http://www.w3.org/Graphics/SVG/1.1/DTD/svg11.dtd">
<!-- Creator: CorelDRAW -->
<svg xmlns="http://www.w3.org/2000/svg" xml:space="preserve" width="6.82666in" height="6.82666in" style="shape-rendering:geometricPrecision; text-rendering:geometricPrecision; image-rendering:optimizeQuality; fill-rule:evenodd; clip-rule:evenodd"
viewBox="0 0 6.82666 6.82666"
 xmlns:xlink="http://www.w3.org/1999/xlink">
 <defs>
  <style type="text/css">
   <![CDATA[
    .fil3 {fill:none}
    .fil1 {fill:#455A64}
    .fil2 {fill:#78909C}
    .fil0 {fill:#90A4AE}
   ]]>
  </style>
 </defs>
 <g id="Layer_x0020_1">
  <metadata id="CorelCorpID_0Corel-Layer"/>
  <g id="_437062744">
   <path id="_437063680" class="fil0" d="M1.70593 0.967531l0 0.466732 -0.00264567 0.0119134c-0.150988,0.680358 -0.234264,1.37663 -0.226508,2.07403 0.00677953,0.609201 0.0827677,1.21046 0.226031,1.80252l0.00312205 0.0129016 0 0.421217 0.00261024 0c0.034122,0 0.0698622,-0.00255512 0.104028,-0.00413386 0.0343346,-0.00159055 0.0686654,-0.00317323 0.103016,-0.00448031 0.0633071,-0.00240945 0.186661,-0.00981102 0.245382,0.00812992 0.416236,0.127177 0.838969,0.215598 1.27581,0.216953 0.428941,0.00133465 0.835909,-0.0821969 1.24186,-0.217024 0.0942638,-0.0313071 0.199087,-0.0202126 0.296091,-0.0101969 0.0499291,0.00515748 0.100815,0.010752 0.151035,0.010752l0.00216535 0 -3.93701e-006 -0.401854 0.00241732 -0.0114055c0.135657,-0.640236 0.214197,-1.29041 0.219744,-1.94519 0.00571654,-0.674661 -0.067063,-1.34773 -0.219295,-2.00509l-0.00286614 -0.0123898 3.93701e-006 -0.413386 -0.448327 0 -0.0100906 -0.00187795c-0.411193,-0.0764528 -0.828701,-0.112165 -1.24683,-0.112319 -0.217693,-8.26772e-005 -0.436173,0.028815 -0.651831,0.0561535 -0.23274,0.0295039 -0.465268,0.0580433 -0.700307,0.0580433l-0.364606 0z"/>
   <polygon id="_437063368" class="fil1" points="1.98919,4.00108 4.83748,4.00108 4.83748,4.19246 1.98919,4.19246 "/>
   <path id="_437063008" class="fil1" d="M4.37702 3.74579l-0.12952 0 0 -0.489598 0.120236 0 0 0.0695591c0.0206181,-0.0328898 0.039189,-0.0546102 0.0555551,-0.0649961 0.0165236,-0.0103858 0.0350945,-0.0157362 0.0560276,-0.0157362 0.0295866,0 0.0579134,0.0081811 0.0852913,0.0245512l-0.040126 0.112839c-0.0217205,-0.0140118 -0.0420197,-0.0210866 -0.060748,-0.0210866 -0.018252,0 -0.0335197,0.00487402 -0.0461102,0.0149488 -0.012748,0.00991339 -0.0225039,0.0280118 -0.029748,0.0541378 -0.00724016,0.026122 -0.0108583,0.0808898 -0.0108583,0.164142l0 0.15124zm-0.378488 0l0 -0.0733425c-0.0179409,0.0261299 -0.0413898,0.0467441 -0.0703465,0.0618504 -0.0291142,0.0149528 -0.0598031,0.0225039 -0.092063,0.0225039 -0.0328937,0 -0.0623228,-0.00724016 -0.0884449,-0.0215591 -0.0261299,-0.0144764 -0.0450157,-0.0347795 -0.056815,-0.0609016 -0.0116457,-0.026126 -0.0174724,-0.0623228 -0.0174724,-0.108433l0 -0.309717 0.129524 0 0 0.22489c0,0.0689331 0.00235827,0.11111 0.00724016,0.126689 0.00472047,0.0154213 0.013374,0.0277008 0.0259685,0.0368268 0.0125906,0.00912598 0.0286417,0.0135354 0.048,0.0135354 0.022185,0 0.0420157,-0.00598031 0.0594843,-0.0181024 0.0174724,-0.0122756 0.0294291,-0.0272283 0.0358819,-0.0451654 0.00645276,-0.0180984 0.00975591,-0.0621654 0.00975591,-0.132197l0 -0.206476 0.129524 0 0 0.489598 -0.120236 0zm-0.796323 -0.244878c0,0.0486299 0.0114882,0.0857717 0.0346181,0.111583 0.0229764,0.0258031 0.0514685,0.0387126 0.0853031,0.0387126 0.0338346,0 0.0621654,-0.0129094 0.0849764,-0.0387126 0.0229803,-0.025811 0.0344685,-0.0632677 0.0344685,-0.112528 0,-0.0478386 -0.0114882,-0.0848268 -0.0344685,-0.110634 -0.022811,-0.025811 -0.0511417,-0.0387165 -0.0849764,-0.0387165 -0.0338346,0 -0.0623268,0.0129055 -0.0853031,0.0387165 -0.0231299,0.0258071 -0.0346181,0.0631102 -0.0346181,0.111579zm-0.132827 -0.00692126c0,-0.0429646 0.0106969,-0.0846693 0.0317874,-0.124961 0.021248,-0.0401339 0.0513031,-0.0709764 0.0901772,-0.092063 0.038874,-0.021248 0.0823071,-0.0319488 0.130307,-0.0319488 0.0739724,0 0.134717,0.0240787 0.182087,0.0722362 0.0473661,0.0481535 0.0709764,0.108902 0.0709764,0.182398 0,0.0739685 -0.0239213,0.135343 -0.0716102,0.18413 -0.0478386,0.0487913 -0.107957,0.0730197 -0.180508,0.0730197 -0.0450118,0 -0.0876575,-0.0100669 -0.128417,-0.0303701 -0.0407638,-0.0202992 -0.0717638,-0.0500472 -0.0930118,-0.0892362 -0.0210906,-0.0391811 -0.0317874,-0.0868661 -0.0317874,-0.143205zm-0.232287 0.251799l0 -0.675929 0.12952 0 0 0.675929 -0.12952 0zm-0.575051 0l0 -0.675929 0.463469 0 0 0.114409 -0.32687 0 0 0.159894 0.282181 0 0 0.114413 -0.282181 0 0 0.287213 -0.136598 0z"/>
   <polygon id="_437063128" class="fil1" points="1.98918,2.63419 4.83748,2.63419 4.83748,2.82557 1.98918,2.82557 "/>
   <path id="_437062960" class="fil2" d="M3.41333 1.08111c0.517972,0 0.981287,0.0847677 1.29046,0.218106 -0.347343,-0.0911457 -0.797953,-0.146197 -1.29046,-0.146197 -0.492504,0 -0.943114,0.0550512 -1.29046,0.146197 0.309169,-0.133339 0.772484,-0.218106 1.29046,-0.218106z"/>
   <path id="_437063080" class="fil2" d="M3.41333 5.74861c0.517972,0 0.981287,-0.0847677 1.29046,-0.218106 -0.347343,0.0911457 -0.797953,0.146197 -1.29046,0.146197 -0.492504,0 -0.943114,-0.0550512 -1.29046,-0.146197 0.309169,0.133339 0.772484,0.218106 1.29046,0.218106z"/>
  </g>
  <rect class="fil3" width="6.82666" height="6.82666"/>
 </g>
</svg>
