<?xml version="1.0" encoding="UTF-8"?>
<!DOCTYPE svg PUBLIC "-//W3C//DTD SVG 1.1//EN" "http://www.w3.org/Graphics/SVG/1.1/DTD/svg11.dtd">
<!-- Creator: CorelDRAW -->
<svg xmlns="http://www.w3.org/2000/svg" xml:space="preserve" width="6.82666in" height="6.82666in" style="shape-rendering:geometricPrecision; text-rendering:geometricPrecision; image-rendering:optimizeQuality; fill-rule:evenodd; clip-rule:evenodd"
viewBox="0 0 6.82666 6.82666"
 xmlns:xlink="http://www.w3.org/1999/xlink">
 <defs>
  <style type="text/css">
   <![CDATA[
    .fil19 {fill:none}
    .fil2 {fill:#004D40}
    .fil9 {fill:#00695C}
    .fil10 {fill:#00897B}
    .fil16 {fill:#37474F}
    .fil8 {fill:#3EA49A}
    .fil6 {fill:#4DB6AC}
    .fil15 {fill:#546E7A}
    .fil17 {fill:#78909C}
    .fil14 {fill:#B0BEC5}
    .fil12 {fill:#D50000}
    .fil11 {fill:#E0F7FA}
    .fil7 {fill:#FF8F00}
    .fil13 {fill:#FFC107}
    .fil18 {fill:#263238;fill-rule:nonzero}
    .fil0 {fill:#26A69A;fill-rule:nonzero}
    .fil4 {fill:#4DB6AC;fill-rule:nonzero}
    .fil3 {fill:#80CBC4;fill-rule:nonzero}
    .fil1 {fill:#D67C08;fill-rule:nonzero}
    .fil5 {fill:#FF8F00;fill-rule:nonzero}
   ]]>
  </style>
 </defs>
 <g id="Layer_x0020_1">
  <metadata id="CorelCorpID_0Corel-Layer"/>
  <g id="_437880408">
   <path id="_437884368" class="fil0" d="M4.22678 1.76255l0.134299 0c0.0986457,0 0.188272,0.0419409 0.253181,0.1095 0.0649094,0.0675551 0.105209,0.160835 0.105209,0.263504l0 1.11687c0,0.102677 -0.0402953,0.195949 -0.105209,0.263504 -0.0649094,0.0675591 -0.154528,0.1095 -0.253181,0.1095l-0.266728 0 0 -0.190815 0.266728 0c0.0480472,0 0.0917913,-0.0205276 0.123559,-0.0535906 0.0317677,-0.0330669 0.0514921,-0.0785945 0.0514921,-0.128598l0 -1.11687c0,-0.0500039 -0.0197244,-0.0955354 -0.0514921,-0.128598 -0.0317677,-0.033063 -0.0755157,-0.0535906 -0.123559,-0.0535906l-0.134299 0 0 -0.190815z"/>
   <path id="_437883816" class="fil1" d="M3.14558 0.853335l0.323063 0c0.0572126,0 0.109154,0.0242913 0.146748,0.0634173 0.0375906,0.039126 0.0609331,0.093185 0.0609331,0.152728l0 0.168118 0 0.0960709 -0.0923031 0 -0.553819 0 -0.0923031 0 0 -0.0960709 0 -0.168118c0,-0.0595433 0.0233425,-0.113602 0.060937,-0.152728 0.0375906,-0.039126 0.0895315,-0.0634173 0.146744,-0.0634173zm0.323063 0.192134l-0.323063 0c-0.00624803,0 -0.0120039,0.00273228 -0.0162244,0.00712598 -0.00422047,0.0043937 -0.00684646,0.0103819 -0.00684646,0.0168858l0 0.0720512 0.369205 0 0 -0.0720512c0,-0.00650394 -0.00262598,-0.0124921 -0.00684646,-0.0168858 -0.00422047,-0.0043937 -0.00997638,-0.00712598 -0.0162244,-0.00712598z"/>
   <rect id="_437884056" class="fil2" x="2.8014" y="4.29235" width="1.01102" height="0.176006"/>
   <path id="_437884320" class="fil3" d="M2.59007 1.14256l1.43793 0c0.0352362,0 -0.00655512,0.000472441 0.00827559,0.000311024 0.0144606,-0.00015748 0.0326102,-0.000362205 0.0494685,0.000940945 0.107638,0.00831496 0.254382,0.0554567 0.236102,0.311713l-0.184602 2.58776c-0.0049685,0.0696811 -0.0285276,0.134563 -0.0653346,0.182449 -0.041311,0.0537441 -0.0980748,0.0869882 -0.165059,0.0869882l-1.19993 0c-0.0669803,0 -0.123744,-0.0332362 -0.165059,-0.0869882 -0.0368071,-0.0478858 -0.0603622,-0.112764 -0.0653307,-0.182449l-0.0562205 -0.78811 0.00559843 0c0.0254882,0 0.0461496,-0.0215079 0.0461496,-0.0480354 0,-0.0265236 -0.0206614,-0.0480315 -0.0461496,-0.0480315l-0.0124528 0 -0.00599213 -0.0840039c0.0238228,-0.0018937 0.0425866,-0.0226142 0.0425866,-0.0478937 0,-0.0265276 -0.0206614,-0.0480354 -0.0461496,-0.0480354l-0.00327953 0 -0.00600394 -0.0841339c0.0232008,-0.00252756 0.0412874,-0.0229488 0.0412874,-0.0477638 0,-0.0265276 -0.0206614,-0.0480354 -0.0461496,-0.0480354l-0.0019685 0 -0.0958583 -1.34372c-0.018252,-0.255898 0.130787,-0.303291 0.239421,-0.311681 0.0173031,-0.00133465 0.0358071,-0.00113386 0.0504252,-0.000972441 0.014878,0.000161417 -0.027126,-0.000311024 0.0082874,-0.000311024z"/>
   <path id="_437883984" class="fil4" d="M3.8288 1.5407c-0.0320906,0.000523622 -0.0576969,0.0280276 -0.0571929,0.0614252 0.000503937,0.0334016 0.0269291,0.0600512 0.0590197,0.0595276l0.000220472 -3.93701e-006 0 -3.93701e-006 0.000125984 0 3.93701e-006 0.000228346c0.00153543,-2.75591e-005 0.00305512,-0.000122047 0.00455906,-0.000271654 0.00793701,-5.11811e-005 0.0171772,3.93701e-006 0.0269016,0.000751969 0.0299685,0.00231102 0.0647008,0.00938976 0.0881772,0.0313937 0.0233858,0.0219173 0.0388228,0.0625827 0.0335906,0.135921l-0.137429 1.92651c-0.00144488,0.0202638 -0.0054685,0.0395118 -0.011685,0.0568819 -0.00618898,0.0172795 -0.0143858,0.0327441 -0.0241969,0.0455118 -0.0104882,0.0136496 -0.0228346,0.0245512 -0.0366654,0.0318386 -0.0121181,0.00638189 -0.0258307,0.00990945 -0.0408701,0.00990945l-0.753059 0c-0.0322165,0 -0.0583346,0.027185 -0.0583346,0.0607165 0,0.0335276 0.0261181,0.0607126 0.0583346,0.0607126l0.753059 0c0.0335945,0 0.0649134,-0.00824803 0.0932795,-0.0231969 0.0287165,-0.0151339 0.0539331,-0.0372205 0.0749488,-0.0645709 0.0176929,-0.0230197 0.0320512,-0.0497441 0.0424252,-0.0787087 0.0102047,-0.0285079 0.0167402,-0.0591693 0.0189764,-0.0905551l0.137429 -1.92651c0.00837795,-0.117433 -0.0240039,-0.189717 -0.071874,-0.234583 -0.0477717,-0.0447795 -0.107744,-0.0583504 -0.157902,-0.0622244 -0.0113031,-0.000870079 -0.0246299,-0.000854331 -0.0361417,-0.000751969 -0.00184646,-0.000149606 -0.00372047,-0.000216535 -0.00561024,-0.000177165l3.93701e-006 0.000228346 -9.44882e-005 0zm0.00182677 0.120945l-0.000472441 -0.0312717 0.00023622 0.0312756 0.00023622 -3.93701e-006z"/>
   <path id="_437883960" class="fil5" d="M2.19949 1.13948c-0.0509764,0 -0.0923031,0.0430118 -0.0923031,0.0960669 0,0.0530551 0.0413268,0.0960669 0.0923031,0.0960669l2.21524 0c0.0509764,0 0.0923031,-0.0430118 0.0923031,-0.0960669 0,-0.0530551 -0.0413268,-0.0960669 -0.0923031,-0.0960669l-2.21524 0z"/>
   <path id="_437883096" class="fil6" d="M2.49939 5.97333l1.61505 0c0.190815,0 0.346929,-0.15611 0.346929,-0.346925l0 -1.02254c0,-0.0954094 -0.0780551,-0.173461 -0.173465,-0.173461l-1.96198 0c-0.0954016,0 -0.173457,0.0780512 -0.173457,0.173461l0 1.02254c0,0.190815 0.156114,0.346925 0.346921,0.346925z"/>
   <path id="_437883360" class="fil7" d="M2.48579 5.97333l1.64224 0c0.175256,0 0.320035,-0.142665 0.332453,-0.321921l-2.30714 0c0.0124173,0.179256 0.157193,0.321921 0.332449,0.321921z"/>
   <path id="_437883624" class="fil8" d="M4.46118 4.59597c-0.00399606,-0.0917795 -0.0773543,-0.165571 -0.166484,-0.165571l-1.97557 0c-0.0891299,0 -0.162488,0.0737913 -0.166484,0.165571l2.30854 0z"/>
   <path id="_437883696" class="fil9" d="M2.83773 4.74132l0.93837 0c0.0366693,0 0.0666654,0.0312205 0.0666654,0.0693819l0 0.626862c0,0.0200945 -0.0083189,0.0382559 -0.0215472,0.0509606l-0.0825984 -0.559992 -0.863413 0 -0.0825984 0.559988c-0.0132244,-0.0127047 -0.0215433,-0.0308622 -0.0215433,-0.0509567l0 -0.626862c0,-0.0381614 0.0299961,-0.0693819 0.0666654,-0.0693819z"/>
   <path id="_437883216" class="fil10" d="M3.82122 5.48853c-0.0118937,0.0114173 -0.0277559,0.0184213 -0.0451181,0.0184213l-0.93837 0c-0.0173622,0 -0.0332283,-0.00700394 -0.045122,-0.0184252l0.0825984 -0.559988 0.863413 0 0.0825984 0.559992z"/>
   <g>
    <ellipse id="_437882976" class="fil11" cx="3.40798" cy="5.3661" rx="0.0719364" ry="0.0748699"/>
    <ellipse id="_437882472" class="fil11" cx="3.59948" cy="5.3661" rx="0.0719364" ry="0.0748699"/>
    <ellipse id="_437882832" class="fil12" cx="3.01434" cy="5.3661" rx="0.0719364" ry="0.0748699"/>
    <ellipse id="_437882520" class="fil13" cx="3.20584" cy="5.3661" rx="0.0719364" ry="0.0748699"/>
   </g>
   <g>
    <ellipse id="_437882808" class="fil14" cx="3.29702" cy="5.09983" rx="0.149484" ry="0.125615"/>
    <ellipse id="_437882424" class="fil15" cx="3.29702" cy="5.09983" rx="0.102067" ry="0.0857688"/>
    <ellipse id="_437882304" class="fil16" cx="3.29702" cy="5.09983" rx="0.026791" ry="0.0857688"/>
    <ellipse id="_437881584" class="fil17" cx="3.29702" cy="5.09983" rx="0.00503558" ry="0.0857688"/>
    <polygon id="_437882232" class="fil18" points="3.30406,4.97562 3.30406,5.0002 3.28998,5.0002 3.28998,4.97562 "/>
    <polygon id="_437882112" class="fil18" points="3.30406,4.97562 3.30406,5.0002 3.28998,5.0002 3.28998,4.97562 "/>
    <polygon id="_437882064" class="fil18" points="3.37216,4.99298 3.35833,5.01464 3.34592,5.00904 3.35975,4.98738 "/>
    <polygon id="_437881800" class="fil18" points="3.37216,5.20335 3.35833,5.18169 3.34592,5.18729 3.35975,5.20894 "/>
    <polygon id="_437881632" class="fil18" points="3.42124,5.0337 3.39712,5.04761 3.38915,5.03786 3.41327,5.02395 "/>
    <polygon id="_437881992" class="fil18" points="3.42124,5.16263 3.39712,5.14872 3.38915,5.15847 3.41327,5.17238 "/>
    <polygon id="_437881752" class="fil18" points="3.44301,5.09704 3.4138,5.09844 3.41299,5.08663 3.4422,5.08522 "/>
    <polygon id="_437882160" class="fil18" points="3.30406,5.19613 3.30406,5.22071 3.28998,5.22071 3.28998,5.19613 "/>
    <polygon id="_437881872" class="fil18" points="3.30406,5.19613 3.30406,5.22071 3.28998,5.22071 3.28998,5.19613 "/>
    <polygon id="_437881656" class="fil18" points="3.24811,5.18729 3.23428,5.20895 3.22187,5.20335 3.2357,5.18169 "/>
    <polygon id="_437881464" class="fil18" points="3.24811,5.00904 3.23428,4.98738 3.22187,4.99298 3.2357,5.01464 "/>
    <polygon id="_437880984" class="fil18" points="3.20488,5.15847 3.18076,5.17238 3.17279,5.16263 3.19691,5.14872 "/>
    <polygon id="_437881272" class="fil18" points="3.20488,5.03785 3.18076,5.02395 3.17279,5.0337 3.19691,5.04761 "/>
    <polygon id="_437881200" class="fil18" points="3.18104,5.1097 3.15183,5.11111 3.15102,5.0993 3.18023,5.09788 "/>
   </g>
   <g>
    <path id="_437880936" class="fil4" d="M2.42247 3.15911l0.295835 0c0.0254882,0 0.0461496,0.0215079 0.0461496,0.0480315 0,0.0265276 -0.0206614,0.0480354 -0.0461496,0.0480354l-0.295835 0c0.0254882,0 0.0461496,-0.0215079 0.0461496,-0.0480354 0,-0.0265236 -0.0206614,-0.0480315 -0.0461496,-0.0480315z"/>
    <path id="_437880720" class="fil4" d="M2.40749 3.07524l-3.93701e-005 -0.000547244c0.0221732,-0.00350394 0.0391614,-0.0234291 0.0391614,-0.0474843 0,-0.0264646 -0.0205669,-0.0479331 -0.0459764,-0.0480315l0 -3.93701e-006 0.295661 0c0.0254882,0 0.0461496,0.0215079 0.0461496,0.0480354 0,0.0265236 -0.0206614,0.0480315 -0.0461496,0.0480315l-0.288807 0z"/>
    <path id="_437880552" class="fil4" d="M2.39465 2.89531l-5.51181e-005 -0.000771654c0.0215354,-0.00405906 0.0378701,-0.0236811 0.0378701,-0.0472598 0,-0.0260118 -0.0198622,-0.0471929 -0.0446654,-0.0480079l0 -2.75591e-005 0.29435 0c0.0254882,0 0.0461496,0.0215079 0.0461496,0.0480354 0,0.0265236 -0.0206614,0.0480315 -0.0461496,0.0480315l-0.2875 0z"/>
   </g>
  </g>
  <rect class="fil19" width="6.82666" height="6.82666"/>
 </g>
</svg>
