<?xml version="1.0" encoding="UTF-8"?>
<!DOCTYPE svg PUBLIC "-//W3C//DTD SVG 1.1//EN" "http://www.w3.org/Graphics/SVG/1.1/DTD/svg11.dtd">
<!-- Creator: CorelDRAW -->
<svg xmlns="http://www.w3.org/2000/svg" xml:space="preserve" width="6.82666in" height="6.82666in" style="shape-rendering:geometricPrecision; text-rendering:geometricPrecision; image-rendering:optimizeQuality; fill-rule:evenodd; clip-rule:evenodd"
viewBox="0 0 6.82666 6.82666"
 xmlns:xlink="http://www.w3.org/1999/xlink">
 <defs>
  <style type="text/css">
   <![CDATA[
    .fil14 {fill:none}
    .fil12 {fill:#391F0B}
    .fil13 {fill:#4A626C}
    .fil5 {fill:dimgray}
    .fil7 {fill:#78909C}
    .fil11 {fill:#C19759}
    .fil10 {fill:#D67E0B}
    .fil9 {fill:#FFB300}
    .fil6 {fill:#FFC107}
    .fil4 {fill:#263238;fill-rule:nonzero}
    .fil2 {fill:#424242;fill-rule:nonzero}
    .fil3 {fill:#425660;fill-rule:nonzero}
    .fil0 {fill:#4B636D;fill-rule:nonzero}
    .fil1 {fill:#546E7A;fill-rule:nonzero}
    .fil8 {fill:#FF8F00;fill-rule:nonzero}
   ]]>
  </style>
 </defs>
 <g id="Layer_x0020_1">
  <metadata id="CorelCorpID_0Corel-Layer"/>
  <g id="_275217072">
   <path id="_275227632" class="fil0" d="M0.853331 4.28539l0 0.671839c0,0.0176535 0.00730315,0.0337874 0.0190709,0.0455551 0.0117638,0.0117638 0.0278976,0.0190709 0.0455512,0.0190709l4.99075 0c0.0176535,0 0.0337835,-0.00731102 0.0455472,-0.0190787 0.0117677,-0.0117638 0.0190787,-0.0278937 0.0190787,-0.0455472l0 -0.671839 -5.12 0z"/>
   <path id="_275227848" class="fil1" d="M5.9087 1.8048l-4.99075 0c-0.0176575,0 -0.0337874,0.00730709 -0.0455512,0.0190709 -0.0117677,0.0117677 -0.0190709,0.0279016 -0.0190709,0.0455551l0 2.41691 5.12 0 0 -2.41691c0,-0.0176535 -0.00730709,-0.0337874 -0.0190709,-0.0455551 -0.0117677,-0.0117638 -0.0278976,-0.0190709 -0.0455551,-0.0190709z"/>
   <path id="_275227584" class="fil2" d="M2.21492 4.62853c-0.0155433,-0.0155433 -0.0370433,-0.0251654 -0.0607992,-0.0251654 -0.0237598,0 -0.0452598,0.00962205 -0.0607992,0.0251654 -0.0155394,0.0155354 -0.0251614,0.0370354 -0.0251614,0.0607953 0,0.0237559 0.00962205,0.0452559 0.0251614,0.0607992 0.0155394,0.0155354 0.0370394,0.0251614 0.0607992,0.0251614 0.0237559,0 0.0452559,-0.00962598 0.0607992,-0.0251614 0.0155354,-0.0155433 0.0251575,-0.0370433 0.0251575,-0.0607992 0,-0.0237598 -0.00962205,-0.0452598 -0.0251575,-0.0607953z"/>
   <path id="_275227248" class="fil3" d="M2.15412 4.45878c0.0636457,0 0.121287,0.025811 0.163012,0.0675354 0.0417244,0.0417244 0.0675354,0.0993661 0.0675354,0.163016 0,0.0636535 -0.025815,0.121295 -0.0675354,0.163016 -0.0417244,0.0417244 -0.0993661,0.0675354 -0.163012,0.0675354 -0.0636575,0 -0.121299,-0.025815 -0.16302,-0.0675354 -0.0417205,-0.0417205 -0.0675354,-0.0993622 -0.0675354,-0.163016 0,-0.0636496 0.025811,-0.121291 0.0675354,-0.163016 0.0417205,-0.0417205 0.0993622,-0.0675354 0.16302,-0.0675354z"/>
   <path id="_275227872" class="fil3" d="M4.77896 4.45878c0.0636457,0 0.121287,0.025811 0.163012,0.0675354 0.0417244,0.0417244 0.0675354,0.0993661 0.0675354,0.163016 0,0.0636535 -0.025815,0.121295 -0.0675354,0.163016 -0.0417244,0.0417244 -0.0993661,0.0675354 -0.163012,0.0675354 -0.0636575,0 -0.121299,-0.025815 -0.16302,-0.0675354 -0.0417205,-0.0417205 -0.0675354,-0.0993622 -0.0675354,-0.163016 0,-0.0636496 0.025811,-0.121291 0.0675354,-0.163016 0.0417205,-0.0417205 0.0993622,-0.0675354 0.16302,-0.0675354z"/>
   <path id="_275226816" class="fil4" d="M4.83641 2.2607c0.369886,0.0279173 0.66515,0.323157 0.693067,0.693047l0.128146 0c0.0317244,0 0.0574488,0.0257244 0.0574488,0.0574488 0,0.0317244 -0.0257244,0.0574528 -0.0574488,0.0574528l-0.128146 0c-0.0279134,0.36989 -0.323177,0.66513 -0.693067,0.693055l0 0.128154c0,0.0317283 -0.0257244,0.0574488 -0.0574488,0.0574488 -0.0317283,0 -0.0574488,-0.0257205 -0.0574488,-0.0574488l0 -0.128157c-0.36989,-0.0279252 -0.66515,-0.323165 -0.693063,-0.693051l-0.128154 0c-0.0317244,0 -0.0574488,-0.0257283 -0.0574488,-0.0574528 0,-0.0317244 0.0257244,-0.0574488 0.0574488,-0.0574488l0.128154 0c0.0279173,-0.369886 0.323177,-0.665122 0.693063,-0.693043l0 -0.128169c0,-0.0317283 0.0257205,-0.0574488 0.0574488,-0.0574488 0.0317244,0 0.0574488,0.0257205 0.0574488,0.0574488l0 0.128165z"/>
   <path id="_275226552" class="fil4" d="M2.21157 2.2607c0.369882,0.0279173 0.66515,0.323157 0.693067,0.693047l0.128146 0c0.0317244,0 0.0574488,0.0257244 0.0574488,0.0574449 0,0.0317283 -0.0257244,0.0574528 -0.0574488,0.0574528l-0.128146 0c-0.0279134,0.369894 -0.323177,0.665134 -0.693067,0.693059l0 0.128154c0,0.0317283 -0.0257283,0.0574488 -0.0574488,0.0574488 -0.0317283,0 -0.0574488,-0.0257205 -0.0574488,-0.0574488l0 -0.128161c-0.36989,-0.0279213 -0.665154,-0.323161 -0.693067,-0.693051l-0.12815 0c-0.0317283,0 -0.0574488,-0.0257244 -0.0574488,-0.0574528 0,-0.0317205 0.0257205,-0.0574449 0.0574488,-0.0574449l0.12815 0c0.0279213,-0.369886 0.323181,-0.665122 0.693067,-0.693043l0 -0.128169c0,-0.0317283 0.0257205,-0.0574488 0.0574488,-0.0574488 0.0317205,0 0.0574488,0.0257205 0.0574488,0.0574488l0 0.128165z"/>
   <path id="_275226840" class="fil5" d="M2.15412 2.4834c0.291492,0 0.527795,0.236303 0.527795,0.527803 0,0.291492 -0.236303,0.527795 -0.527795,0.527795 -0.2915,0 -0.527803,-0.236303 -0.527803,-0.527795 0,-0.2915 0.236303,-0.527803 0.527803,-0.527803zm-3.93701e-006 0.090874c0.120634,0 0.229866,0.0489055 0.308937,0.12798 0.0790709,0.0790709 0.12798,0.188307 0.12798,0.308937 0,0.120638 -0.0489055,0.229878 -0.12798,0.308949 -0.0790709,0.0790669 -0.188303,0.12798 -0.308937,0.12798 -0.120642,0 -0.229874,-0.0489055 -0.308945,-0.12798 -0.0790748,-0.0790709 -0.127984,-0.188311 -0.127984,-0.308949 0,-0.12063 0.0489134,-0.229866 0.127984,-0.308937 0.0790709,-0.0790748 0.188307,-0.12798 0.308945,-0.12798z"/>
   <path id="_275226984" class="fil5" d="M4.77896 2.4834c0.291492,0 0.527795,0.236303 0.527795,0.527803 0,0.291492 -0.236303,0.527795 -0.527795,0.527795 -0.2915,0 -0.527803,-0.236303 -0.527803,-0.527795 0,-0.2915 0.236303,-0.527803 0.527803,-0.527803zm-3.93701e-006 0.090874c0.120634,0 0.229866,0.0489055 0.308937,0.12798 0.0790709,0.0790709 0.12798,0.188307 0.12798,0.308937 0,0.120638 -0.0489055,0.229878 -0.12798,0.308949 -0.0790709,0.0790669 -0.188303,0.12798 -0.308937,0.12798 -0.120642,0 -0.229874,-0.0489055 -0.308945,-0.12798 -0.0790748,-0.0790709 -0.127984,-0.188311 -0.127984,-0.308949 0,-0.12063 0.0489134,-0.229866 0.127984,-0.308937 0.0790709,-0.0790748 0.188307,-0.12798 0.308945,-0.12798z"/>
   <rect id="_275226672" class="fil6" x="0.860311" y="4.18547" width="5.10604" height="0.0819173"/>
   <g>
    <circle id="_275225760" class="fil7" cx="4.77896" cy="4.65363" r="0.225433"/>
    <path id="_275226312" class="fil8" d="M4.82509 4.6075c-0.0117913,-0.0117913 -0.0281024,-0.0190906 -0.046122,-0.0190906 -0.0180276,0 -0.0343346,0.00729921 -0.046126,0.0190906 -0.0117874,0.0117874 -0.0190827,0.0280984 -0.0190827,0.046122 0,0.0180236 0.00729528,0.0343307 0.0190827,0.046122 0.0117913,0.0117874 0.0280984,0.0190906 0.046126,0.0190906 0.0180197,0 0.0343307,-0.00730315 0.046122,-0.0190906 0.0117874,-0.0117913 0.0190866,-0.0280984 0.0190866,-0.046122 0,-0.0180236 -0.00729921,-0.0343346 -0.0190866,-0.046122z"/>
    <path id="_275225928" class="fil8" d="M4.77896 4.47872c0.0482835,0 0.0920118,0.0195827 0.123665,0.0512362 0.0316535,0.0316496 0.0512362,0.075378 0.0512362,0.123665 0,0.0482874 -0.0195866,0.0920157 -0.0512362,0.123665 -0.0316535,0.0316535 -0.0753819,0.0512362 -0.123665,0.0512362 -0.0482913,0 -0.0920197,-0.0195827 -0.123669,-0.0512362 -0.0316535,-0.0316496 -0.0512362,-0.075378 -0.0512362,-0.123665 0,-0.0482874 0.0195827,-0.0920157 0.0512362,-0.123665 0.0316496,-0.0316535 0.075378,-0.0512362 0.123669,-0.0512362z"/>
    <rect id="_275226192" class="fil9" x="4.75112" y="4.47392" width="0.055681" height="0.359407"/>
    <rect id="_275225616" class="fil10" x="4.77388" y="4.47392" width="0.0101602" height="0.359407"/>
   </g>
   <g>
    <circle id="_275225904" class="fil7" cx="2.15411" cy="4.65363" r="0.225433"/>
    <path id="_275224944" class="fil8" d="M2.20024 4.6075c-0.0117913,-0.0117913 -0.0281024,-0.0190906 -0.046122,-0.0190906 -0.0180276,0 -0.0343346,0.00729921 -0.046126,0.0190906 -0.0117874,0.0117874 -0.0190827,0.0280984 -0.0190827,0.046122 0,0.0180236 0.00729528,0.0343307 0.0190827,0.046122 0.0117913,0.0117874 0.0280984,0.0190906 0.046126,0.0190906 0.0180197,0 0.0343307,-0.00730315 0.046122,-0.0190906 0.0117874,-0.0117913 0.0190866,-0.0280984 0.0190866,-0.046122 0,-0.0180236 -0.00729921,-0.0343346 -0.0190866,-0.046122z"/>
    <path id="_275225424" class="fil8" d="M2.15412 4.47872c0.0482835,0 0.0920118,0.0195827 0.123665,0.0512362 0.0316535,0.0316496 0.0512362,0.075378 0.0512362,0.123665 0,0.0482874 -0.0195866,0.0920157 -0.0512362,0.123665 -0.0316535,0.0316535 -0.0753819,0.0512362 -0.123665,0.0512362 -0.0482913,0 -0.0920197,-0.0195827 -0.123669,-0.0512362 -0.0316535,-0.0316496 -0.0512362,-0.075378 -0.0512362,-0.123665 0,-0.0482874 0.0195827,-0.0920157 0.0512362,-0.123665 0.0316496,-0.0316535 0.075378,-0.0512362 0.123669,-0.0512362z"/>
    <rect id="_275225352" class="fil9" x="2.12628" y="4.47392" width="0.055681" height="0.359407"/>
    <rect id="_275225568" class="fil10" x="2.14903" y="4.47392" width="0.0101602" height="0.359407"/>
   </g>
   <g>
    <path id="_275225208" class="fil11" d="M2.30059 2.86472c-0.0374724,-0.0374724 -0.0892638,-0.0606575 -0.146469,-0.0606575 -0.0572087,0 -0.109008,0.023185 -0.146476,0.0606575 -0.0374724,0.0374724 -0.0606575,0.0892677 -0.0606575,0.146465 0,0.0572087 0.023185,0.109008 0.0606575,0.146476 0.0374685,0.0374724 0.0892638,0.0606575 0.146476,0.0606575 0.0572047,0 0.108992,-0.023185 0.146469,-0.0606575 0.0374685,-0.0374685 0.0606535,-0.0892677 0.0606535,-0.146476 0,-0.0571969 -0.023185,-0.108992 -0.0606535,-0.146465z"/>
    <g>
     <circle id="_275225040" class="fil12" transform="matrix(0.664707 -0.747104 0.747104 0.664707 2.03209 2.90265)" r="0.0179606"/>
     <circle id="_275224296" class="fil12" transform="matrix(0.664707 -0.747104 0.747104 0.664707 2.27615 3.11978)" r="0.0179606"/>
     <g>
      <circle id="_275224512" class="fil12" transform="matrix(0.664707 -0.747104 0.747104 0.664707 2.03208 2.90263)" r="0.0179606"/>
      <circle id="_275224488" class="fil12" transform="matrix(0.664707 -0.747104 0.747104 0.664707 2.27613 3.11977)" r="0.0179606"/>
     </g>
     <g>
      <circle id="_275224128" class="fil12" transform="matrix(0.936699 -0.350136 0.350136 0.936699 2.09692 2.85821)" r="0.0179606"/>
      <circle id="_275224200" class="fil12" transform="matrix(0.936699 -0.350136 0.350136 0.936699 2.21129 3.16419)" r="0.0179606"/>
     </g>
     <g>
      <circle id="_275224608" class="fil12" transform="matrix(0.991786 0.127911 -0.127911 0.991786 2.175 2.84921)" r="0.0179606"/>
      <circle id="_275224440" class="fil12" transform="matrix(0.991786 0.127911 -0.127911 0.991786 2.13321 3.17319)" r="0.0179606"/>
     </g>
     <g>
      <circle id="_275223336" class="fil12" transform="matrix(0.817211 0.576338 -0.576338 0.817211 2.24824 2.87773)" r="0.0179606"/>
      <circle id="_275224008" class="fil12" transform="matrix(0.817211 0.576338 -0.576338 0.817211 2.05997 3.14468)" r="0.0179606"/>
     </g>
     <g>
      <circle id="_275223456" class="fil12" transform="matrix(0.4534 0.891307 -0.891307 0.4534 2.29968 2.93715)" r="0.0179606"/>
      <circle id="_275223768" class="fil12" transform="matrix(0.4534 0.891307 -0.891307 0.4534 2.00853 3.08526)" r="0.0179606"/>
     </g>
     <g>
      <circle id="_275223648" class="fil12" transform="matrix(-0.0154013 0.999881 -0.999881 -0.0154013 2.31742 3.01372)" r="0.0179606"/>
      <circle id="_275223432" class="fil12" transform="matrix(-0.0154013 0.999881 -0.999881 -0.0154013 1.99079 3.00869)" r="0.0179606"/>
     </g>
    </g>
    <g>
     <circle id="_275222616" class="fil12" transform="matrix(0.346942 -0.389949 0.389949 0.346942 2.09042 2.95454)" r="0.0179606"/>
     <circle id="_275222688" class="fil12" transform="matrix(0.346942 -0.389949 0.389949 0.346942 2.2178 3.06787)" r="0.0179606"/>
     <g>
      <circle id="_275223192" class="fil12" transform="matrix(0.346942 -0.389949 0.389949 0.346942 2.09042 2.95453)" r="0.0179606"/>
      <circle id="_275223120" class="fil12" transform="matrix(0.346942 -0.389949 0.389949 0.346942 2.2178 3.06787)" r="0.0179606"/>
     </g>
     <g>
      <circle id="_275223288" class="fil12" transform="matrix(0.488907 -0.182752 0.182752 0.488907 2.12426 2.93135)" r="0.0179606"/>
      <circle id="_275223240" class="fil12" transform="matrix(0.488907 -0.182752 0.182752 0.488907 2.18395 3.09105)" r="0.0179606"/>
     </g>
     <g>
      <circle id="_275221968" class="fil12" transform="matrix(0.517659 0.0667627 -0.0667627 0.517659 2.16501 2.92665)" r="0.0179606"/>
      <circle id="_275221992" class="fil12" transform="matrix(0.517659 0.0667627 -0.0667627 0.517659 2.1432 3.09575)" r="0.0179606"/>
     </g>
     <g>
      <circle id="_275222496" class="fil12" transform="matrix(0.426541 0.300818 -0.300818 0.426541 2.20324 2.94153)" r="0.0179606"/>
      <circle id="_275222208" class="fil12" transform="matrix(0.426541 0.300818 -0.300818 0.426541 2.10497 3.08087)" r="0.0179606"/>
     </g>
     <g>
      <circle id="_275222160" class="fil12" transform="matrix(0.236651 0.465215 -0.465215 0.236651 2.23009 2.97255)" r="0.0179606"/>
      <circle id="_275222376" class="fil12" transform="matrix(0.236651 0.465215 -0.465215 0.236651 2.07812 3.04985)" r="0.0179606"/>
     </g>
     <g>
      <circle id="_275222016" class="fil12" transform="matrix(-0.00803864 0.521885 -0.521885 -0.00803864 2.23935 3.01251)" r="0.0179606"/>
      <circle id="_275221080" class="fil12" transform="matrix(-0.00803864 0.521885 -0.521885 -0.00803864 2.06887 3.00989)" r="0.0179606"/>
     </g>
    </g>
   </g>
   <g>
    <path id="_275221584" class="fil11" d="M4.92543 2.86472c-0.0374724,-0.0374724 -0.0892638,-0.0606575 -0.146469,-0.0606575 -0.0572087,0 -0.109008,0.023185 -0.146476,0.0606575 -0.0374724,0.0374724 -0.0606575,0.0892677 -0.0606575,0.146465 0,0.0572087 0.023185,0.109008 0.0606575,0.146476 0.0374685,0.0374724 0.0892638,0.0606575 0.146476,0.0606575 0.0572047,0 0.108992,-0.023185 0.146469,-0.0606575 0.0374685,-0.0374685 0.0606535,-0.0892677 0.0606535,-0.146476 0,-0.0571969 -0.023185,-0.108992 -0.0606535,-0.146465z"/>
    <g>
     <circle id="_275221608" class="fil12" transform="matrix(0.664707 -0.747104 0.747104 0.664707 4.65693 2.90265)" r="0.0179606"/>
     <circle id="_275221536" class="fil12" transform="matrix(0.664707 -0.747104 0.747104 0.664707 4.90098 3.11978)" r="0.0179606"/>
     <g>
      <circle id="_275221704" class="fil12" transform="matrix(0.664707 -0.747104 0.747104 0.664707 4.65692 2.90263)" r="0.0179606"/>
      <circle id="_275220432" class="fil12" transform="matrix(0.664707 -0.747104 0.747104 0.664707 4.90097 3.11977)" r="0.0179606"/>
     </g>
     <g>
      <circle id="_275220960" class="fil12" transform="matrix(0.936699 -0.350136 0.350136 0.936699 4.72176 2.85821)" r="0.0179606"/>
      <circle id="_275220336" class="fil12" transform="matrix(0.936699 -0.350136 0.350136 0.936699 4.83613 3.16419)" r="0.0179606"/>
     </g>
     <g>
      <circle id="_275220696" class="fil12" transform="matrix(0.991786 0.127911 -0.127911 0.991786 4.79984 2.84921)" r="0.0179606"/>
      <circle id="_275220672" class="fil12" transform="matrix(0.991786 0.127911 -0.127911 0.991786 4.75805 3.17319)" r="0.0179606"/>
     </g>
     <g>
      <circle id="_275220768" class="fil12" transform="matrix(0.817211 0.576338 -0.576338 0.817211 4.87308 2.87773)" r="0.0179606"/>
      <circle id="_275220624" class="fil12" transform="matrix(0.817211 0.576338 -0.576338 0.817211 4.68481 3.14468)" r="0.0179606"/>
     </g>
     <g>
      <circle id="_275219592" class="fil12" transform="matrix(0.4534 0.891307 -0.891307 0.4534 4.92452 2.93715)" r="0.0179606"/>
      <circle id="_275219520" class="fil12" transform="matrix(0.4534 0.891307 -0.891307 0.4534 4.63337 3.08526)" r="0.0179606"/>
     </g>
     <g>
      <circle id="_275219568" class="fil12" transform="matrix(-0.0154013 0.999881 -0.999881 -0.0154013 4.94226 3.01372)" r="0.0179606"/>
      <circle id="_275220024" class="fil12" transform="matrix(-0.0154013 0.999881 -0.999881 -0.0154013 4.61563 3.00869)" r="0.0179606"/>
     </g>
    </g>
    <g>
     <circle id="_275219808" class="fil12" transform="matrix(0.346942 -0.389949 0.389949 0.346942 4.71526 2.95454)" r="0.0179606"/>
     <circle id="_275218776" class="fil12" transform="matrix(0.346942 -0.389949 0.389949 0.346942 4.84264 3.06787)" r="0.0179606"/>
     <g>
      <circle id="_275219328" class="fil12" transform="matrix(0.346942 -0.389949 0.389949 0.346942 4.71525 2.95453)" r="0.0179606"/>
      <circle id="_275219304" class="fil12" transform="matrix(0.346942 -0.389949 0.389949 0.346942 4.84263 3.06787)" r="0.0179606"/>
     </g>
     <g>
      <circle id="_275219112" class="fil12" transform="matrix(0.488907 -0.182752 0.182752 0.488907 4.7491 2.93135)" r="0.0179606"/>
      <circle id="_275219064" class="fil12" transform="matrix(0.488907 -0.182752 0.182752 0.488907 4.80879 3.09105)" r="0.0179606"/>
     </g>
     <g>
      <circle id="_275219448" class="fil12" transform="matrix(0.517659 0.0667627 -0.0667627 0.517659 4.78985 2.92665)" r="0.0179606"/>
      <circle id="_275218848" class="fil12" transform="matrix(0.517659 0.0667627 -0.0667627 0.517659 4.76804 3.09575)" r="0.0179606"/>
     </g>
     <g>
      <circle id="_275218080" class="fil12" transform="matrix(0.426541 0.300818 -0.300818 0.426541 4.82808 2.94153)" r="0.0179606"/>
      <circle id="_275218584" class="fil12" transform="matrix(0.426541 0.300818 -0.300818 0.426541 4.72981 3.08087)" r="0.0179606"/>
     </g>
     <g>
      <circle id="_275218368" class="fil12" transform="matrix(0.236651 0.465215 -0.465215 0.236651 4.85493 2.97255)" r="0.0179606"/>
      <circle id="_275218560" class="fil12" transform="matrix(0.236651 0.465215 -0.465215 0.236651 4.70296 3.04985)" r="0.0179606"/>
     </g>
     <g>
      <circle id="_275218200" class="fil12" transform="matrix(-0.00803864 0.521885 -0.521885 -0.00803864 4.86418 3.01251)" r="0.0179606"/>
      <circle id="_275218632" class="fil12" transform="matrix(-0.00803864 0.521885 -0.521885 -0.00803864 4.6937 3.00989)" r="0.0179606"/>
     </g>
    </g>
   </g>
   <rect id="_275217168" class="fil13" x="1.07608" y="1.95033" width="4.675" height="0.1" rx="0.05" ry="0.05"/>
   <rect id="_275217624" class="fil13" x="1.07608" y="3.94031" width="4.675" height="0.1" rx="0.05" ry="0.05"/>
   <rect id="_275217576" class="fil13" x="3.08284" y="3.72172" width="0.661488" height="0.1" rx="0.05" ry="0.05"/>
   <rect id="_275217864" class="fil13" x="3.08284" y="3.50297" width="0.661488" height="0.1" rx="0.05" ry="0.05"/>
   <rect id="_275217456" class="fil13" x="3.08284" y="3.28422" width="0.661488" height="0.1" rx="0.05" ry="0.05"/>
   <rect id="_275216664" class="fil13" x="3.08284" y="3.06548" width="0.661488" height="0.1" rx="0.05" ry="0.05"/>
   <rect id="_275216616" class="fil13" x="3.08284" y="2.84673" width="0.661488" height="0.1" rx="0.05" ry="0.05"/>
   <rect id="_275216976" class="fil13" x="3.08284" y="2.62798" width="0.661488" height="0.1" rx="0.05" ry="0.05"/>
   <rect id="_275217144" class="fil13" x="3.08284" y="2.40923" width="0.661488" height="0.1" rx="0.05" ry="0.05"/>
   <rect id="_275216448" class="fil13" x="3.08284" y="2.19048" width="0.661488" height="0.1" rx="0.05" ry="0.05"/>
  </g>
  <rect class="fil14" width="6.82666" height="6.82666"/>
 </g>
</svg>
