<?xml version="1.0" encoding="UTF-8"?>
<!DOCTYPE svg PUBLIC "-//W3C//DTD SVG 1.1//EN" "http://www.w3.org/Graphics/SVG/1.1/DTD/svg11.dtd">
<!-- Creator: CorelDRAW -->
<svg xmlns="http://www.w3.org/2000/svg" xml:space="preserve" width="2048px" height="2048px" style="shape-rendering:geometricPrecision; text-rendering:geometricPrecision; image-rendering:optimizeQuality; fill-rule:evenodd; clip-rule:evenodd"
viewBox="0 0 2048 2048"
 xmlns:xlink="http://www.w3.org/1999/xlink">
 <defs>
  <style type="text/css">
   <![CDATA[
    .fil6 {fill:none}
    .fil0 {fill:#B3E5FC}
    .fil3 {fill:#C62828}
    .fil5 {fill:#E1F5FE}
    .fil2 {fill:#424242;fill-rule:nonzero}
    .fil1 {fill:#E53935;fill-rule:nonzero}
    .fil4 {fill:#FFCC80;fill-rule:nonzero}
   ]]>
  </style>
 </defs>
 <g id="Layer_x0020_1">
  <metadata id="CorelCorpID_0Corel-Layer"/>
  <g id="_319285768">
   <g>
    <polygon id="_319287544" class="fil0" points="1792,997.909 1792,727.681 320.001,727.681 320.001,997.909 "/>
    <path id="_319287808" class="fil1" d="M368.88 614.801l1310.24 0c31.0725,0 59.2985,12.6957 79.7398,33.137 20.4473,20.4473 33.1406,48.6804 33.1406,79.7434l0 461.018c0,31.063 -12.698,59.2926 -33.1441,79.7363 -18.9626,18.965 -44.6469,31.4622 -73.0548,33.1441 0.453544,-5.17087 0.708662,-10.585 0.708662,-15.8256 0,-47.1355 -18.5882,-91.9961 -51.913,-125.32 -33.3236,-33.3236 -78.1831,-51.9119 -125.319,-51.9119 -47.1343,0 -91.9961,18.5894 -125.32,51.9119 -33.3225,33.3236 -51.9119,78.1855 -51.9119,125.32 0,5.30906 0.238583,10.5886 0.703938,15.8256l-617.503 0c0.465355,-5.23701 0.703938,-10.5165 0.703938,-15.8256 0,-47.1343 -18.5894,-91.9961 -51.9119,-125.32 -33.3236,-33.3225 -78.1855,-51.9119 -125.32,-51.9119 -47.1355,0 -91.995,18.5882 -125.319,51.9119 -21.6803,21.6792 -37.1209,48.2433 -45.2658,77.1379 -4.41733,15.6685 -6.64725,31.9016 -6.64725,48.1819 0,5.24056 0.242126,10.6547 0.69567,15.8256 -28.4079,-1.68189 -54.0815,-14.1744 -73.0477,-33.1406 -20.4414,-20.4414 -33.137,-48.6674 -33.137,-79.7398l0 -461.018c0,-31.076 12.6898,-59.3044 33.1335,-79.7469 20.4425,-20.4437 48.6709,-33.1335 79.7469,-33.1335zm1359.12 383.109l0 -270.228 -1408 0 0 270.228 1408 0z"/>
    <g>
     <polygon id="_319287520" class="fil1" points="500.19,727.681 500.19,1015.46 467.771,1015.46 467.771,727.681 "/>
     <polygon id="_319287880" class="fil1" points="692.431,727.681 692.431,1015.46 660.012,1015.46 660.012,727.681 "/>
     <polygon id="_319287424" class="fil1" points="884.671,727.681 884.671,1015.46 852.252,1015.46 852.252,727.681 "/>
     <polygon id="_319286632" class="fil1" points="1076.91,727.681 1076.91,1015.46 1044.49,1015.46 1044.49,727.681 "/>
     <polygon id="_319286416" class="fil1" points="1269.15,727.681 1269.15,1015.46 1236.73,1015.46 1236.73,727.681 "/>
     <polygon id="_319286992" class="fil1" points="1461.39,727.681 1461.39,1015.46 1428.98,1015.46 1428.98,727.681 "/>
    </g>
    <path id="_319286848" class="fil2" d="M1509.28 1138.31c40.7114,0 77.5737,16.5059 104.257,43.1882 26.6835,26.6835 43.1882,63.5469 43.1882,104.257 0,40.7114 -16.5047,77.5737 -43.1882,104.257 -26.6835,26.6835 -63.5457,43.1882 -104.257,43.1882 -40.7114,0 -77.5737,-16.5047 -104.257,-43.1882 -26.6835,-26.6835 -43.1882,-63.5457 -43.1882,-104.257 0,-40.7091 16.5059,-77.5737 43.1882,-104.257 26.6835,-26.6823 63.5481,-43.1882 104.257,-43.1882z"/>
    <path id="_319286728" class="fil2" d="M538.72 1138.31c40.7091,0 77.5737,16.5059 104.257,43.1882 26.6823,26.6835 43.1882,63.5481 43.1882,104.257 0,40.7114 -16.5047,77.5737 -43.1882,104.257 -26.6835,26.6835 -63.5457,43.1882 -104.257,43.1882 -40.7114,0 -77.5737,-16.5047 -104.257,-43.1882 -26.6835,-26.6835 -43.1882,-63.5457 -43.1882,-104.257 0,-40.7103 16.5047,-77.5737 43.1882,-104.257 26.6835,-26.6823 63.5457,-43.1882 104.257,-43.1882z"/>
    <path id="_319287016" class="fil3" d="M1728 1075.82l-84.6698 0c-17.6728,0 -32.0008,14.328 -32.0008,32.0008 0,17.6728 14.328,32.0008 32.0008,32.0008l84.6698 0 0 -64.0016z"/>
    <path id="_319286800" class="fil3" d="M664.04 1160.43c-33.3236,-33.3225 -78.1855,-51.9119 -125.32,-51.9119 -47.1355,0 -91.995,18.5882 -125.319,51.9119 -21.6803,21.6792 -37.1209,48.2433 -45.2658,77.1379 -4.41733,15.6685 -6.64725,31.9016 -6.64725,48.1819 0,5.24056 0.242126,10.6547 0.69567,15.8256l32.1567 0c-0.563386,-5.19804 -0.852757,-10.4776 -0.852757,-15.8256 0,-40.0996 16.2567,-76.4091 42.5398,-102.692 26.2831,-26.2819 62.5914,-42.5398 102.692,-42.5398 40.0985,0 76.4091,16.2579 102.692,42.5398 26.2819,26.2831 42.5398,62.5937 42.5398,102.692 0,5.34804 -0.28937,10.6276 -0.852757,15.8256l32.1484 0c0.465355,-5.23701 0.703938,-10.5165 0.703938,-15.8256 0,-47.1343 -18.5894,-91.9961 -51.9119,-125.32z"/>
    <path id="_319286944" class="fil3" d="M1634.6 1160.43c-33.3236,-33.3236 -78.1831,-51.9119 -125.319,-51.9119 -47.1343,0 -91.9961,18.5894 -125.32,51.9119 -33.3225,33.3236 -51.9119,78.1855 -51.9119,125.32 0,5.30906 0.238583,10.5886 0.703938,15.8256l32.1484 0c-0.563386,-5.19804 -0.852757,-10.4776 -0.852757,-15.8256 0,-40.0985 16.2579,-76.4091 42.5398,-102.692 26.2831,-26.2819 62.5937,-42.5398 102.692,-42.5398 40.1008,0 76.4091,16.2579 102.692,42.5398 26.2831,26.2831 42.5398,62.5926 42.5398,102.692 0,5.34804 -0.28937,10.6276 -0.852757,15.8256l32.1437 0c0.453544,-5.17087 0.708662,-10.585 0.708662,-15.8256 0,-47.1355 -18.5882,-91.9961 -51.913,-125.32z"/>
    <path id="_319286560" class="fil4" d="M538.72 1204.22c22.513,0 42.8989,9.12757 57.6544,23.8831 14.7555,14.7555 23.8831,35.1414 23.8831,57.6544 0,22.5142 -9.12757,42.8989 -23.8831,57.6544 -14.7555,14.7555 -35.1402,23.8831 -57.6544,23.8831 -22.5142,0 -42.8989,-9.12757 -57.6544,-23.8831 -14.7555,-14.7555 -23.8831,-35.1402 -23.8831,-57.6544 0,-22.513 9.12757,-42.8989 23.8831,-57.6544 14.7555,-14.7555 35.1402,-23.8831 57.6544,-23.8831z"/>
    <path id="_319285960" class="fil2" d="M538.72 1259.85c7.15158,0 13.6276,2.89961 18.3154,7.58741 4.6878,4.6878 7.58741,11.1638 7.58741,18.3154 0,7.15158 -2.89961,13.6276 -7.58741,18.3154 -4.6878,4.6878 -11.1638,7.58741 -18.3154,7.58741 -7.15158,0 -13.6276,-2.89961 -18.3154,-7.58741 -4.6878,-4.6878 -7.58741,-11.1638 -7.58741,-18.3154 0,-7.15158 2.89961,-13.6276 7.58741,-18.3154 4.6878,-4.6878 11.1638,-7.58741 18.3154,-7.58741z"/>
    <path id="_319286032" class="fil4" d="M1509.28 1204.22c22.513,0 42.8989,9.12757 57.6544,23.8831 14.7555,14.7555 23.8831,35.1414 23.8831,57.6544 0,22.5142 -9.12757,42.8989 -23.8831,57.6544 -14.7555,14.7555 -35.1402,23.8831 -57.6544,23.8831 -22.5142,0 -42.8989,-9.12757 -57.6544,-23.8831 -14.7555,-14.7555 -23.8831,-35.1402 -23.8831,-57.6544 0,-22.513 9.12757,-42.8989 23.8831,-57.6544 14.7555,-14.7555 35.1402,-23.8831 57.6544,-23.8831z"/>
    <path id="_319286080" class="fil2" d="M1509.28 1259.85c7.15158,0 13.6276,2.89961 18.3154,7.58741 4.6878,4.6878 7.58741,11.1638 7.58741,18.3154 0,7.15158 -2.89961,13.6276 -7.58741,18.3154 -4.6878,4.6878 -11.1638,7.58741 -18.3154,7.58741 -7.15158,0 -13.6276,-2.89961 -18.3154,-7.58741 -4.6878,-4.6878 -7.58741,-11.1638 -7.58741,-18.3154 0,-7.15158 2.89961,-13.6276 7.58741,-18.3154 4.6878,-4.6878 11.1638,-7.58741 18.3154,-7.58741z"/>
    <rect id="_319286320" class="fil0" x="1549.84" y="727.681" width="242.16" height="270.228"/>
   </g>
   <polygon id="_319286200" class="fil5" points="1714.71,997.909 1759.71,997.909 1614.74,727.681 1569.74,727.681 "/>
  </g>
 </g>
 <rect class="fil6" width="2048" height="2048"/>
</svg>
