<?xml version="1.0" encoding="UTF-8"?>
<!DOCTYPE svg PUBLIC "-//W3C//DTD SVG 1.1//EN" "http://www.w3.org/Graphics/SVG/1.1/DTD/svg11.dtd">
<!-- Creator: CorelDRAW -->
<svg xmlns="http://www.w3.org/2000/svg" xml:space="preserve" width="2048px" height="2048px" style="shape-rendering:geometricPrecision; text-rendering:geometricPrecision; image-rendering:optimizeQuality; fill-rule:evenodd; clip-rule:evenodd"
viewBox="0 0 2048 2048"
 xmlns:xlink="http://www.w3.org/1999/xlink">
 <defs>
  <style type="text/css">
   <![CDATA[
    .fil8 {fill:none}
    .fil5 {fill:#263238}
    .fil6 {fill:#37474F}
    .fil7 {fill:#424242}
    .fil4 {fill:#75858D}
    .fil2 {fill:#90A4AE}
    .fil3 {fill:#AEAEAE}
    .fil1 {fill:#EEEEEE}
    .fil0 {fill:#EF5350}
   ]]>
  </style>
 </defs>
 <g id="Layer_x0020_1">
  <metadata id="CorelCorpID_0Corel-Layer"/>
  <g id="_252316344">
   <path id="_252316728" class="fil0" d="M841.615 763.975l0 -39.6213c0,-61.3418 31.141,-100.714 70.9312,-117.995 14.7047,-6.29528 30.5977,-9.50316 46.278,-9.50316 15.6732,0 31.4622,3.20788 46.167,9.50316 39.8988,17.2807 70.9323,56.654 70.9323,117.996l0 39.6201 -234.308 0z"/>
   <path id="_252317184" class="fil0" d="M988.123 429.613c0,-18.5138 -13.1894,-33.4477 -29.2984,-33.4477 -16.2165,0 -29.3055,14.9339 -29.3055,33.4477l0 103.432c0,18.5138 13.089,33.4488 29.3055,33.4488 16.1102,0 29.2984,-14.9351 29.2984,-33.4488l0 -103.432z"/>
   <path id="_252316560" class="fil0" d="M1123.93 490.339c8.00434,-15.9213 3.24449,-36.2859 -10.8083,-45.4193 -13.9488,-9.13465 -31.7906,-3.70394 -39.7949,12.2185l-45.3024 89.6079c-8.00434,16.0441 -3.24685,36.2859 10.7055,45.5445 14.0528,9.13465 31.8933,3.57874 39.8941,-12.3437l45.3059 -89.6079z"/>
   <path id="_252316392" class="fil0" d="M844.21 457.138c-7.99961,-15.9225 -25.8414,-21.3532 -39.7937,-12.2185 -13.9488,9.13347 -18.8138,29.4992 -10.7008,45.4193l45.3036 89.6068c7.99961,15.9225 25.8402,21.4795 39.7902,12.3449 13.9524,-9.25985 18.8126,-29.4992 10.7032,-45.5445l-45.3024 -89.6079z"/>
  </g>
  <path class="fil1" d="M1164.73 1143.17c-16.4232,0 -31.3713,-6.79134 -42.2433,-17.524 -10.8662,-10.8638 -17.5382,-25.8024 -17.5382,-42.2126l0 -119.355c0,-16.415 6.67205,-31.3477 17.5382,-42.2103 10.8721,-10.7398 25.8201,-17.5252 42.2433,-17.5252l169.719 -0.0011811c0,-5.43308 191.822,198.469 231.719,238.83l-401.438 -0.0011811zm-774.588 387.435c412.639,0 825.276,0 1237.91,0 30.5079,0 62.1296,-12.5894 87.6969,-32.2122 25.4445,-19.624 45.5788,-46.9052 53.3587,-76.5225 15.7323,-60.3497 22.8095,-104.774 22.8862,-138.458 0.180709,-79.7812 -38.9055,-99.3225 -95.269,-127.528 -23.8347,-11.9728 -51.88,-26.0433 -79.7965,-51.2233 -54.717,-49.6193 -329.667,-343.249 -356.967,-343.249l-886.869 0c-32.2394,0 -61.513,13.2083 -82.7599,34.4362 -21.1205,21.1051 -34.3382,50.4792 -34.3382,82.6973l0 535.054c0,32.2122 13.2177,61.4646 34.3382,82.5733 21.2469,21.2256 50.5205,34.4327 82.7599,34.4327l17.0457 0zm442.813 -401.259l-150.566 0 0 150.457 -66.9485 0 0 -150.457 -150.571 0 0 -66.8977 150.571 0 0 -150.457 66.9485 0 0 150.457 150.566 0 0 66.8977z"/>
  <path class="fil2" d="M255.999 1401.44l1518.26 0c-1.59921,6.60119 -3.31181,13.4079 -5.14252,20.4319 -7.77993,29.6173 -27.9142,56.8985 -53.3587,76.5225 -25.5673,19.6228 -57.189,32.2122 -87.6969,32.2122l-19.3429 0 -19.3417 0 -19.3429 0 -19.3417 0 -19.3429 0 -19.3417 0 -19.3429 0 -19.3429 0 -19.3417 0 -19.3429 0 -19.3417 0 -19.3429 0 -19.3417 0 -19.3429 0 -19.3429 0 -19.3417 0 -19.3429 0 -19.3417 0 -19.3429 0 -19.3417 0 -19.3429 0 -19.3417 0 -19.3429 0 -19.3429 0 -19.3417 0 -19.3429 0 -19.3417 0 -19.3429 0 -19.3417 0 -19.3429 0 -19.3417 0 -19.3429 0 -19.3429 0 -19.3417 0 -19.3429 0 -19.3417 0 -19.3429 0 -19.3417 0 -19.3429 0 -19.3417 0 -19.3429 0 -19.3429 0 -19.3417 0 -19.3429 0 -19.3417 0 -19.3429 0 -19.3417 0 -19.3429 0 -19.3417 0 -19.3429 0 -19.3429 0 -19.3417 0 -19.3429 0 -19.3417 0 -19.3429 0 -19.3417 0 -19.3429 0 -19.3429 0 -19.3417 0 -19.3429 0 -19.3417 0 -19.3429 0 -19.3417 0 -19.3429 0 -17.0457 0c-32.2394,0 -61.513,-13.2071 -82.7599,-34.4327 -21.1205,-21.1087 -34.3382,-50.3611 -34.3382,-82.5733l0 -12.1606z"/>
  <g id="_252315168">
   <path id="_252315288" class="fil3" d="M590.613 1321.37c52.989,-0.0011811 103.478,20.915 140.954,58.3619 37.4693,37.4386 58.4185,87.8977 58.4185,140.88 0,3.34252 -0.0838583,6.67441 -0.249213,9.9945l-398.118 0c-0.165354,-3.32008 -0.248032,-6.65197 -0.248032,-9.9945 0,-53.0351 20.8973,-103.466 58.4398,-140.903 37.5012,-37.3949 87.8127,-58.3371 140.803,-58.3382z"/>
   <path id="_252315360" class="fil4" d="M430.949 1401.44l319.431 0c25.5957,34.2107 39.6059,75.8469 39.6059,119.172 0,3.34252 -0.0838583,6.67441 -0.249213,9.9945l-12.7453 0 -19.3417 0 -19.3429 0 -19.3417 0 -19.3429 0 -19.3417 0 -19.3429 0 -19.3429 0 -19.3417 0 -19.3429 0 -19.3417 0 -19.3429 0 -19.3417 0 -19.3429 0 -19.3429 0 -19.3417 0 -19.3429 0 -19.3417 0 -19.3429 0 -19.3417 0 -17.8677 0c-0.165354,-3.32008 -0.248032,-6.65197 -0.248032,-9.9945 0,-43.3571 13.9689,-84.9721 39.5788,-119.172z"/>
  </g>
  <g id="_252314544">
   <path id="_252315384" class="fil3" d="M1326.85 1321.37c52.989,-0.0011811 103.478,20.915 140.954,58.3619 37.4693,37.4386 58.4185,87.8977 58.4185,140.88 0,3.34252 -0.0838583,6.67441 -0.249213,9.9945l-398.118 0c-0.165354,-3.32008 -0.248032,-6.65197 -0.248032,-9.9945 0,-53.0351 20.8973,-103.466 58.4398,-140.903 37.5012,-37.3949 87.8127,-58.3371 140.803,-58.3382z"/>
   <path id="_252314568" class="fil4" d="M1167.18 1401.44l319.431 0c25.5957,34.2107 39.6059,75.8469 39.6059,119.172 0,3.34252 -0.0838583,6.67441 -0.249213,9.9945l-12.7453 0 -19.3417 0 -19.3429 0 -19.3417 0 -19.3429 0 -19.3417 0 -19.3429 0 -19.3429 0 -19.3417 0 -19.3429 0 -19.3417 0 -19.3429 0 -19.3417 0 -19.3429 0 -19.3429 0 -19.3417 0 -19.3429 0 -19.3417 0 -19.3429 0 -19.3417 0 -17.8677 0c-0.165354,-3.32008 -0.248032,-6.65197 -0.248032,-9.9945 0,-43.3571 13.9689,-84.9721 39.5788,-119.172z"/>
  </g>
  <polygon class="fil0" points="682.391,1062.45 682.391,911.989 615.442,911.989 615.442,1062.45 464.872,1062.45 464.872,1129.34 615.442,1129.34 615.442,1279.8 682.391,1279.8 682.391,1129.34 832.957,1129.34 832.957,1062.45 "/>
  <path class="fil5" d="M1566.17 1143.17c-39.8977,-40.3607 -231.719,-244.263 -231.719,-238.83l-169.719 0.0011811c-16.4232,0 -31.3713,6.78544 -42.2433,17.5252 -10.8662,10.8626 -17.5382,25.7953 -17.5382,42.2103l0 119.355c0,16.4102 6.67205,31.3488 17.5382,42.2126 10.8721,10.7327 25.8201,17.524 42.2433,17.524l401.438 0.0011811z"/>
  <path class="fil6" d="M803.638 761.409l310.255 0 0 -16.1197c0,-17.6008 -14.3988,-31.9996 -31.9996,-31.9996l-246.255 0c-17.6008,0 -31.9996,14.3988 -31.9996,31.9996l0 16.1197z"/>
  <path class="fil7" d="M590.614 1353.36c46.1941,0 88.0701,18.7606 118.335,48.9993 30.2599,30.2374 49.037,72.0804 49.037,118.244 0,46.1563 -18.7772,88.0016 -49.037,118.24 -30.2634,30.2386 -72.1406,49.0016 -118.335,49.0016 -46.1941,0 -87.9473,-18.763 -118.208,-49.0016 -30.3851,-30.2386 -49.0359,-72.0839 -49.0359,-118.24 0,-46.1634 18.6496,-88.0052 49.0359,-118.244 30.261,-30.2386 72.0142,-48.9969 118.208,-48.9969l0 -0.00236221z"/>
  <path class="fil1" d="M590.64 1422.03c27.228,0 51.9107,11.0575 69.7489,28.8815 17.8358,17.8228 28.904,42.4855 28.904,69.6957 0,27.2055 -11.0681,51.8705 -28.904,69.6934 -17.837,17.8228 -42.5209,28.8827 -69.7489,28.8827 -27.228,0 -51.8374,-11.0599 -69.6745,-28.8827 -17.9102,-17.8228 -28.9028,-42.4878 -28.9028,-69.6934 0,-27.2103 10.9925,-51.8729 28.9028,-69.6957 17.837,-17.824 42.4465,-28.8803 69.6745,-28.8803l0 -0.0011811z"/>
  <path class="fil7" d="M1326.91 1353.36c46.1953,0 88.0678,18.7606 118.332,48.9993 30.2658,30.2374 49.0323,72.0804 49.0323,118.244 0,46.1563 -18.7677,88.0016 -49.0323,118.24 -30.2646,30.2386 -72.1371,49.0016 -118.332,49.0016 -46.1953,0 -88.069,-18.763 -118.332,-49.0016 -30.2599,-30.2386 -49.0335,-72.0839 -49.0335,-118.24 0,-46.1634 18.7713,-88.0052 49.0335,-118.244 30.2658,-30.2386 72.1359,-48.9969 118.332,-48.9969l0 -0.00236221z"/>
  <path class="fil1" d="M1326.88 1422.03c27.228,0 51.9107,11.0575 69.7489,28.8815 17.8358,17.8228 28.904,42.4855 28.904,69.6957 0,27.2055 -11.0681,51.8705 -28.904,69.6934 -17.837,17.8228 -42.5209,28.8827 -69.7489,28.8827 -27.228,0 -51.8374,-11.0599 -69.6745,-28.8827 -17.9102,-17.8228 -28.9028,-42.4878 -28.9028,-69.6934 0,-27.2103 10.9925,-51.8729 28.9028,-69.6957 17.837,-17.824 42.4465,-28.8803 69.6745,-28.8803l0 -0.0011811z"/>
 </g>
 <rect class="fil8" width="2048" height="2048"/>
</svg>
