<?xml version="1.0" encoding="UTF-8"?>
<!DOCTYPE svg PUBLIC "-//W3C//DTD SVG 1.1//EN" "http://www.w3.org/Graphics/SVG/1.1/DTD/svg11.dtd">
<!-- Creator: CorelDRAW -->
<svg xmlns="http://www.w3.org/2000/svg" xml:space="preserve" width="2048px" height="2048px" style="shape-rendering:geometricPrecision; text-rendering:geometricPrecision; image-rendering:optimizeQuality; fill-rule:evenodd; clip-rule:evenodd"
viewBox="0 0 2048 2048"
 xmlns:xlink="http://www.w3.org/1999/xlink">
 <defs>
  <style type="text/css">
   <![CDATA[
    .fil9 {fill:none}
    .fil0 {fill:#424242}
    .fil5 {fill:#BBDEFB}
    .fil4 {fill:#E53935}
    .fil6 {fill:#FFD740}
    .fil3 {fill:#424242;fill-rule:nonzero}
    .fil2 {fill:#A72927;fill-rule:nonzero}
    .fil7 {fill:#E0E0E0;fill-rule:nonzero}
    .fil1 {fill:#E53935;fill-rule:nonzero}
    .fil8 {fill:#ECEFF1;fill-rule:nonzero}
   ]]>
  </style>
 </defs>
 <g id="Layer_x0020_1">
  <metadata id="CorelCorpID_0Corel-Layer"/>
  <path class="fil0" d="M1468.24 823.953l-665.284 0 0 302.084 788.193 0 0 -179.179c0,-67.5981 -55.3146,-122.904 -122.909,-122.904z"/>
  <path class="fil1" d="M390.5 804.38l333.45 0 32.0008 0 0 32.0008 0 383.594 0 32.0008 -32.0008 0 -10.9973 0 -50.178 0 -297.662 0 -9.45237 0 -23.3717 0c-16.3252,0 -31.2036,-6.7193 -42.0638,-17.5512l-0.0625985 0.0625985c-10.6984,-10.6984 -17.3516,-25.6193 -17.4106,-42.1737l-0.690945 -188.502 2.5004 -12.3756 58.9016 -139.769c3.96614,-9.41457 8.25119,-18.8291 15.0921,-27.0886 10.0701,-12.163 23.1732,-20.198 41.9445,-20.198zm301.449 177.049l0 -113.047 -296.074 0c-1.17992,2.2252 -2.42126,5.09292 -3.66142,8.03623l-44.2536 105.011 343.989 0z"/>
  <path class="fil2" d="M654.279 1251.98l-280.67 0c7.39371,-20.1331 19.1209,-38.6162 34.6382,-54.1347 28.1079,-28.1079 65.9386,-43.7847 105.696,-43.7847 39.7571,0 77.5902,15.678 105.698,43.7847 15.5173,15.5185 27.2445,34.0016 34.6382,54.1347z"/>
  <path class="fil1" d="M1637.07 970.41l0 241.315c0,11.687 -5.16024,22.1433 -13.4599,29.5748 -7.36182,6.58111 -17.2063,10.676 -27.7607,10.676 -214.219,0 -467.581,0 -760.895,0l-32.0008 0 0 -32.0008 0 -249.565 834.116 0z"/>
  <polygon class="fil1" points="556.973,849.625 556.973,994.393 524.972,994.393 524.972,849.625 "/>
  <path class="fil3" d="M513.943 1178.05c34.6465,0 66.0201,14.048 88.728,36.7559 22.7079,22.7079 36.7559,54.0792 36.7559,88.7257 0,34.6477 -14.048,66.0201 -36.7559,88.728 -22.7079,22.7079 -54.0815,36.7559 -88.728,36.7559 -34.6477,0 -66.0189,-14.048 -88.7257,-36.7559 -22.7079,-22.7079 -36.7559,-54.0804 -36.7559,-88.728 0,-34.6465 14.048,-66.0178 36.7559,-88.7257 22.7067,-22.7079 54.078,-36.7559 88.7257,-36.7559z"/>
  <path class="fil2" d="M1552.46 1251.98l-280.67 0c7.39371,-20.1331 19.1209,-38.6162 34.6382,-54.1347 28.1079,-28.1079 65.9386,-43.7847 105.696,-43.7847 39.7571,0 77.5902,15.678 105.698,43.7847 15.5173,15.5185 27.2445,34.0016 34.6382,54.1347z"/>
  <path class="fil3" d="M1412.12 1178.05c34.6465,0 66.0201,14.048 88.728,36.7559 22.7079,22.7079 36.7559,54.0792 36.7559,88.7257 0,34.6477 -14.048,66.0201 -36.7559,88.728 -22.7079,22.7079 -54.0804,36.7559 -88.728,36.7559 -34.6465,0 -66.0189,-14.048 -88.7268,-36.7559 -22.7079,-22.7079 -36.7559,-54.0815 -36.7559,-88.728 0,-34.6465 14.048,-66.0178 36.7559,-88.7257 22.7079,-22.7079 54.0804,-36.7559 88.7268,-36.7559z"/>
  <polygon class="fil1" points="1728.6,1048.82 1728.6,1238.75 1664.6,1238.75 1664.6,1048.82 "/>
  <polygon class="fil1" points="1633.29,1016.82 1775.94,1016.82 1775.94,1080.82 1633.29,1080.82 "/>
  <g id="_252317640">
   <polygon id="_252318816" class="fil3" points="392.489,557.405 1623.08,607.4 1620.58,671.151 389.99,621.156 "/>
   <polygon id="_252318648" class="fil3" points="386.207,684.27 1616.79,734.264 1614.3,798.015 383.707,748.021 "/>
   <polygon id="_252318888" class="fil3" points="578.793,598.723 563.387,717.279 500.137,709.278 515.542,590.722 "/>
   <polygon id="_252318768" class="fil3" points="711.343,593.513 695.938,712.068 632.687,704.067 648.093,585.512 "/>
   <polygon id="_252318696" class="fil3" points="843.894,620.457 828.488,739.013 765.238,731.012 780.643,612.456 "/>
   <polygon id="_252318528" class="fil3" points="976.444,615.246 961.038,733.803 897.787,725.802 913.194,607.245 "/>
   <polygon id="_252318504" class="fil3" points="1108.99,610.036 1093.59,728.592 1030.34,720.591 1045.74,602.036 "/>
   <polygon id="_252318240" class="fil3" points="1241.55,630.326 1226.14,748.883 1162.89,740.882 1178.29,622.326 "/>
   <polygon id="_252318792" class="fil3" points="1374.1,625.117 1358.69,743.672 1295.44,735.671 1310.85,617.116 "/>
   <polygon id="_252318480" class="fil3" points="1506.65,653.8 1491.24,772.355 1427.99,764.355 1443.4,645.799 "/>
  </g>
  <rect class="fil0" x="755.951" y="848.686" width="47.0055" height="403.289"/>
  <rect class="fil4" x="802.957" y="804.438" width="47.0055" height="447.538"/>
  <path class="fil5" d="M524.972 981.428l0 -113.047 -129.097 0c-1.17992,2.2252 -2.42126,5.09292 -3.66142,8.03623l-44.2536 105.011 177.012 0z"/>
  <polygon class="fil5" points="556.973,868.381 556.973,981.428 691.949,981.428 691.949,868.381 "/>
  <path class="fil6" d="M420.733 1112.13c0,-17.6728 -14.328,-32.0008 -32.0008,-32.0008l-52.6394 0 -0.622441 0c-9.94725,0 -18.8351,4.53898 -24.704,11.6587 -4.55906,5.52993 -7.29686,12.6165 -7.29686,20.3421 0,7.7256 2.7378,14.8122 7.29686,20.3421 5.8689,7.11969 14.7567,11.6587 24.704,11.6587l0.857481 0 52.4044 0c17.6728,0 32.0008,-14.328 32.0008,-32.0008z"/>
  <path class="fil6" d="M1453.07 1112.13c0,17.6728 14.328,32.0008 32.0008,32.0008l53.2607 0c17.6728,0 32.0008,-14.328 32.0008,-32.0008 0,-17.6728 -14.328,-32.0008 -32.0008,-32.0008l-53.2607 0c-17.6728,0 -32.0008,14.328 -32.0008,32.0008z"/>
  <path class="fil7" d="M1000.34 866.284l21 0 7.56615 39.9827 11.0339 -39.9827 20.9504 0 11.0823 39.9827 7.56733 -39.9827 20.8996 0 -15.7665 71.5831 -21.6827 0 -12.5504 -45.0674 -12.5008 45.0674 -21.6827 0 -15.9165 -71.5831zm151.417 59.7662l-25.2 0 -3.46772 11.8169 -22.5992 0 26.8996 -71.5831 24.1169 0 26.9162 71.5831 -23.1496 0 -3.51614 -11.8169zm-4.63347 -15.4831l-7.91694 -25.7339 -7.86733 25.7339 15.7843 0zm26.4662 -44.2831l67.2343 0 0 17.6823 -22.5673 0 0 53.9008 -22.1162 0 0 -53.9008 -22.5508 0 0 -17.6823zm77.2016 0l59.2666 0 0 15.2823 -37.1008 0 0 11.3835 34.4173 0 0 14.6008 -34.4173 0 0 14.1 38.1839 0 0 16.2165 -60.3497 0 0 -71.5831zm72.5504 71.5831l0 -71.5831 36.867 0c6.83268,0 12.0662,0.582284 15.6662,1.76575 3.61654,1.16693 6.53386,3.33425 8.75079,6.51733 2.21575,3.16654 3.31654,7.03347 3.31654,11.5831 0,3.98386 -0.850394,7.39961 -2.53347,10.2839 -1.70079,2.88307 -4.03347,5.21575 -6.98386,7.01575 -1.89921,1.13386 -4.48347,2.08347 -7.76694,2.81693 2.63386,0.883465 4.55079,1.76693 5.76733,2.6504 0.799607,0.583465 1.98307,1.83307 3.53268,3.75 1.55079,1.93347 2.58425,3.4004 3.1004,4.4504l10.6996 20.7496 -24.9992 0 -11.8169 -21.8835c-1.5,-2.81693 -2.83347,-4.66654 -4.01693,-5.51693 -1.58268,-1.09961 -3.4004,-1.65 -5.41654,-1.65l-1.95 0 0 29.0504 -22.2166 0zm22.2166 -42.5835l9.33308 0c1.00039,0 2.9504,-0.316536 5.85,-0.966142 1.46693,-0.3 2.66693,-1.05 3.6,-2.25 0.916536,-1.2 1.38425,-2.58425 1.38425,-4.1504 0,-2.31732 -0.733465,-4.08307 -2.2004,-5.31733 -1.46693,-1.24961 -4.21654,-1.86614 -8.25001,-1.86614l-9.71694 0 0 14.55z"/>
  <path class="fil8" d="M1412.12 1230.84c20.0717,0 38.2465,8.1378 51.4016,21.2929 13.1563,13.1551 21.2941,31.3299 21.2941,51.4004 0,20.0729 -8.1378,38.2477 -21.2941,51.4028 -13.1551,13.1551 -31.3299,21.2929 -51.4016,21.2929 -20.0717,0 -38.2465,-8.1378 -51.4016,-21.2929 -13.1551,-13.1551 -21.2929,-31.3311 -21.2929,-51.4028 0,-20.0705 8.1378,-38.2453 21.2929,-51.4004 13.1551,-13.1551 31.3299,-21.2929 51.4016,-21.2929z"/>
  <path class="fil8" d="M513.944 1230.84c20.0717,0 38.2465,8.1378 51.4016,21.2929 13.1563,13.1551 21.2941,31.3299 21.2941,51.4004 0,20.0729 -8.1378,38.2477 -21.2941,51.4028 -13.1551,13.1551 -31.3299,21.2929 -51.4016,21.2929 -20.0717,0 -38.2465,-8.1378 -51.4016,-21.2929 -13.1551,-13.1551 -21.2929,-31.3311 -21.2929,-51.4028 0,-20.0705 8.1378,-38.2453 21.2929,-51.4004 13.1551,-13.1551 31.3299,-21.2929 51.4016,-21.2929z"/>
 </g>
 <rect class="fil9" width="2048" height="2048"/>
</svg>
