<?xml version="1.0" encoding="UTF-8"?>
<!DOCTYPE svg PUBLIC "-//W3C//DTD SVG 1.1//EN" "http://www.w3.org/Graphics/SVG/1.1/DTD/svg11.dtd">
<!-- Creator: CorelDRAW -->
<svg xmlns="http://www.w3.org/2000/svg" xml:space="preserve" width="2048px" height="2048px" style="shape-rendering:geometricPrecision; text-rendering:geometricPrecision; image-rendering:optimizeQuality; fill-rule:evenodd; clip-rule:evenodd"
viewBox="0 0 2048 2048"
 xmlns:xlink="http://www.w3.org/1999/xlink">
 <defs>
  <style type="text/css">
   <![CDATA[
    .fil5 {fill:none}
    .fil1 {fill:#37474F}
    .fil4 {fill:#455A64}
    .fil0 {fill:#78909C}
    .fil2 {fill:#E0F7FA}
    .fil3 {fill:#546E7A;fill-rule:nonzero}
   ]]>
  </style>
 </defs>
 <g id="Layer_x0020_1">
  <metadata id="CorelCorpID_0Corel-Layer"/>
  <g id="_385740064">
   <g>
    <g>
     <rect id="_385741576" class="fil0" transform="matrix(0.192809 0.192809 -0.37831 0.37831 916.907 725.086)" width="688.002" height="448.002" rx="13.3996" ry="13.3996"/>
     <rect id="_385740856" class="fil1" transform="matrix(0.655214 0.655214 -0.704573 0.704573 558.405 242.755)" width="688.002" height="448.002" rx="31.8851" ry="31.8851"/>
     <path id="_385740424" class="fil2" d="M562.7 283.553l22.8532 22.8543 -25.3654 25.3654 -27.1477 -27.1477 21.0721 -21.0721c2.36103,-2.36103 6.2256,-2.36103 8.5878,0zm-11.6386 57.3461l-34.7315 34.7315 -27.1477 -27.1477 34.7315 -34.7315 27.1477 27.1477zm-43.8579 43.8579l-34.7315 34.7315 -27.1477 -27.1477 34.7315 -34.7315 27.1477 27.1477zm-43.8579 43.8579l-34.7315 34.7315 -27.1477 -27.1477 34.7315 -34.7315 27.1477 27.1477zm-43.8579 43.8579l-34.7315 34.7315 -27.1477 -27.1477 34.7315 -34.7315 27.1477 27.1477zm-43.8579 43.8579l-34.7315 34.7315 -27.1477 -27.1477 34.7315 -34.7315 27.1477 27.1477zm-43.8579 43.8579l-25.3642 25.3642 -22.8543 -22.8532c-2.36103,-2.36221 -2.36103,-6.2256 0,-8.5878l21.0709 -21.0709 27.1477 27.1477zm262.908 -244.655l34.7315 34.7315 -25.3654 25.3654 -34.7315 -34.7315 25.3654 -25.3654zm0.239764 69.2233l-34.7315 34.7315 -34.7315 -34.7315 34.7315 -34.7315 34.7315 34.7315zm-43.8579 43.8579l-34.7315 34.7315 -34.7315 -34.7315 34.7315 -34.7315 34.7315 34.7315zm-43.8579 43.8579l-34.7315 34.7315 -34.7315 -34.7315 34.7315 -34.7315 34.7315 34.7315zm-43.8579 43.8579l-34.7315 34.7315 -34.7315 -34.7315 34.7315 -34.7315 34.7315 34.7315zm-43.8579 43.8579l-34.7315 34.7315 -34.7315 -34.7315 34.7315 -34.7315 34.7315 34.7315zm-43.8579 43.8579l-25.3642 25.3642 -34.7315 -34.7315 25.3642 -25.3642 34.7315 34.7315zm262.908 -244.655l34.7315 34.7315 -25.3654 25.3654 -34.7315 -34.7315 25.3654 -25.3654zm0.239764 69.2233l-34.7315 34.7315 -34.7315 -34.7315 34.7315 -34.7315 34.7315 34.7315zm-43.8579 43.8579l-34.7315 34.7315 -34.7315 -34.7315 34.7315 -34.7315 34.7315 34.7315zm-43.8579 43.8579l-34.7315 34.7315 -34.7315 -34.7315 34.7315 -34.7315 34.7315 34.7315zm-43.8579 43.8579l-34.7315 34.7315 -34.7315 -34.7315 34.7315 -34.7315 34.7315 34.7315zm-43.8579 43.8579l-34.7315 34.7315 -34.7315 -34.7315 34.7315 -34.7315 34.7315 34.7315zm-43.8579 43.8579l-25.3642 25.3654 -34.7315 -34.7315 25.3642 -25.3654 34.7315 34.7315zm262.908 -244.655l34.7327 34.7315 -25.3654 25.3654 -34.7315 -34.7315 25.3642 -25.3654zm0.240945 69.2233l-34.7327 34.7315 -34.7315 -34.7315 34.7315 -34.7315 34.7327 34.7315zm-43.8591 43.8579l-34.7315 34.7315 -34.7315 -34.7315 34.7315 -34.7315 34.7315 34.7315zm-43.8579 43.8579l-34.7315 34.7315 -34.7315 -34.7315 34.7315 -34.7315 34.7315 34.7315zm-43.8579 43.8579l-34.7315 34.7315 -34.7315 -34.7315 34.7315 -34.7315 34.7315 34.7315zm-43.8579 43.8579l-34.7315 34.7315 -34.7315 -34.7315 34.7315 -34.7315 34.7315 34.7315zm-43.8579 43.8579l-25.3642 25.3654 -34.7315 -34.7315 25.3642 -25.3654 34.7315 34.7315zm262.909 -244.655l34.7315 34.7315 -25.3654 25.3654 -34.7315 -34.7315 25.3654 -25.3654zm0.239764 69.2233l-34.7315 34.7315 -34.7315 -34.7315 34.7315 -34.7315 34.7315 34.7315zm-43.8579 43.8579l-34.7327 34.7315 -34.7315 -34.7315 34.7315 -34.7315 34.7327 34.7315zm-43.8591 43.8579l-34.7315 34.7315 -34.7315 -34.7315 34.7315 -34.7315 34.7315 34.7315zm-43.8579 43.8579l-34.7315 34.7315 -34.7315 -34.7315 34.7315 -34.7315 34.7315 34.7315zm-43.8579 43.8579l-34.7315 34.7327 -34.7315 -34.7327 34.7315 -34.7315 34.7315 34.7315zm-43.8579 43.8591l-25.3642 25.3642 -34.7315 -34.7315 25.3642 -25.3642 34.7315 34.7315zm262.909 -244.656l34.7315 34.7315 -25.3654 25.3654 -34.7315 -34.7315 25.3654 -25.3654zm0.239764 69.2233l-34.7315 34.7315 -34.7315 -34.7315 34.7315 -34.7315 34.7315 34.7315zm-43.8579 43.8579l-34.7315 34.7315 -34.7315 -34.7315 34.7315 -34.7315 34.7315 34.7315zm-43.8579 43.8579l-34.7327 34.7315 -34.7315 -34.7315 34.7315 -34.7315 34.7327 34.7315zm-43.8591 43.8579l-34.7315 34.7327 -34.7315 -34.7327 34.7315 -34.7315 34.7315 34.7315zm-43.8579 43.8591l-34.7315 34.7315 -34.7315 -34.7315 34.7315 -34.7315 34.7315 34.7315zm-43.8579 43.8579l-25.3642 25.3642 -34.7315 -34.7315 25.3642 -25.3642 34.7315 34.7315zm262.909 -244.656l34.7315 34.7315 -25.3654 25.3654 -34.7315 -34.7315 25.3654 -25.3654zm0.239764 69.2233l-34.7315 34.7315 -34.7315 -34.7315 34.7315 -34.7315 34.7315 34.7315zm-43.8579 43.8579l-34.7315 34.7315 -34.7315 -34.7315 34.7315 -34.7315 34.7315 34.7315zm-43.8579 43.8579l-34.7315 34.7327 -34.7315 -34.7327 34.7315 -34.7315 34.7315 34.7315zm-43.8579 43.8591l-34.7327 34.7315 -34.7315 -34.7315 34.7315 -34.7315 34.7327 34.7315zm-43.8591 43.8579l-34.7315 34.7315 -34.7315 -34.7315 34.7315 -34.7315 34.7315 34.7315zm-43.8579 43.8579l-25.3642 25.3642 -34.7315 -34.7315 25.3642 -25.3642 34.7315 34.7315zm262.909 -244.656l34.7315 34.7315 -25.3654 25.3654 -34.7315 -34.7315 25.3654 -25.3654zm0.239764 69.2233l-34.7315 34.7315 -34.7315 -34.7315 34.7315 -34.7315 34.7315 34.7315zm-43.8579 43.8579l-34.7315 34.7327 -34.7315 -34.7327 34.7315 -34.7315 34.7315 34.7315zm-43.8579 43.8591l-34.7315 34.7315 -34.7315 -34.7315 34.7315 -34.7315 34.7315 34.7315zm-43.8579 43.8579l-34.7315 34.7315 -34.7315 -34.7315 34.7315 -34.7315 34.7315 34.7315zm-43.8579 43.8579l-34.7327 34.7315 -34.7315 -34.7315 34.7315 -34.7315 34.7327 34.7315zm-43.8591 43.8579l-25.3642 25.3642 -34.7315 -34.7315 25.3642 -25.3642 34.7315 34.7315zm262.909 -244.656l34.7315 34.7315 -25.3654 25.3654 -34.7315 -34.7315 25.3654 -25.3654zm0.239764 69.2233l-34.7315 34.7327 -34.7315 -34.7327 34.7315 -34.7315 34.7315 34.7315zm-43.8579 43.8591l-34.7315 34.7315 -34.7315 -34.7315 34.7315 -34.7315 34.7315 34.7315zm-43.8579 43.8579l-34.7315 34.7315 -34.7315 -34.7315 34.7315 -34.7315 34.7315 34.7315zm-43.8579 43.8579l-34.7315 34.7315 -34.7315 -34.7315 34.7315 -34.7315 34.7315 34.7315zm-43.8579 43.8579l-34.7315 34.7315 -34.7315 -34.7315 34.7315 -34.7315 34.7315 34.7315zm-43.8579 43.8579l-25.3654 25.3642 -34.7315 -34.7315 25.3642 -25.3642 34.7327 34.7315zm262.908 -244.655l22.8532 22.852c2.36103,2.36221 2.36103,6.22678 0,8.5878l-21.0721 21.0721 -27.1465 -27.1477 25.3654 -25.3642zm-7.34528 61.6382l-34.7315 34.7315 -27.1465 -27.1465 34.7315 -34.7315 27.1465 27.1465zm-43.8579 43.8579l-34.7315 34.7315 -27.1465 -27.1465 34.7315 -34.7315 27.1465 27.1465zm-43.8579 43.8579l-34.7315 34.7315 -27.1465 -27.1465 34.7315 -34.7315 27.1465 27.1465zm-43.8579 43.8579l-34.7315 34.7315 -27.1465 -27.1465 34.7315 -34.7315 27.1465 27.1465zm-43.8579 43.8579l-34.7315 34.7315 -27.1465 -27.1465 34.7315 -34.7315 27.1465 27.1465zm-43.8579 43.8579l-21.0709 21.0709c-2.36221,2.36103 -6.2256,2.36103 -8.5878,0l-22.8532 -22.8532 25.3654 -25.3642 27.1465 27.1465z"/>
    </g>
    <g>
     <rect id="_385740376" class="fil0" transform="matrix(-0.192809 -0.192809 -0.37831 0.37831 1322.91 1131.09)" width="688.002" height="448.002" rx="13.3996" ry="13.3996"/>
     <rect id="_385740496" class="fil1" transform="matrix(-0.655214 -0.655214 -0.704573 0.704573 1805.24 1489.59)" width="688.002" height="448.002" rx="31.8851" ry="31.8851"/>
     <path id="_385740256" class="fil2" d="M1764.45 1485.3l-22.8543 -22.8543 -25.3642 25.3654 27.1465 27.1477 21.0721 -21.0721c2.36103,-2.36103 2.36103,-6.2256 0,-8.58662zm-57.3461 11.6374l-34.7315 34.7315 27.1477 27.1477 34.7315 -34.7315 -27.1477 -27.1477zm-43.8579 43.8579l-34.7315 34.7315 27.1477 27.1477 34.7315 -34.7315 -27.1477 -27.1477zm-43.8579 43.8579l-34.7315 34.7315 27.1477 27.1477 34.7315 -34.7315 -27.1477 -27.1477zm-43.8579 43.8579l-34.7315 34.7315 27.1477 27.1477 34.7315 -34.7315 -27.1477 -27.1477zm-43.8579 43.8579l-34.7315 34.7315 27.1477 27.1477 34.7315 -34.7315 -27.1477 -27.1477zm-43.8579 43.8591l-25.3642 25.3642 22.8532 22.8532c2.36221,2.36221 6.22678,2.36221 8.5878,0l21.0709 -21.0709 -27.1477 -27.1465zm244.655 -262.909l-34.7315 -34.7315 -25.3654 25.3654 34.7315 34.7315 25.3654 -25.3654zm-69.2233 -0.239764l-34.7315 34.7315 34.7315 34.7315 34.7315 -34.7315 -34.7315 -34.7315zm-43.8579 43.8579l-34.7315 34.7315 34.7315 34.7315 34.7315 -34.7315 -34.7315 -34.7315zm-43.8579 43.8579l-34.7315 34.7315 34.7315 34.7315 34.7315 -34.7315 -34.7315 -34.7315zm-43.8579 43.8579l-34.7315 34.7315 34.7315 34.7315 34.7315 -34.7315 -34.7315 -34.7315zm-43.8579 43.8579l-34.7315 34.7315 34.7315 34.7315 34.7315 -34.7315 -34.7315 -34.7315zm-43.8579 43.8579l-25.3642 25.3654 34.7315 34.7315 25.3642 -25.3654 -34.7315 -34.7315zm244.655 -262.908l-34.7315 -34.7315 -25.3654 25.3654 34.7315 34.7315 25.3654 -25.3654zm-69.2233 -0.239764l-34.7315 34.7315 34.7315 34.7315 34.7315 -34.7315 -34.7315 -34.7315zm-43.8579 43.8579l-34.7315 34.7315 34.7315 34.7315 34.7315 -34.7315 -34.7315 -34.7315zm-43.8579 43.8579l-34.7315 34.7315 34.7315 34.7315 34.7315 -34.7315 -34.7315 -34.7315zm-43.8579 43.8579l-34.7315 34.7315 34.7315 34.7315 34.7315 -34.7315 -34.7315 -34.7315zm-43.8579 43.8579l-34.7315 34.7315 34.7315 34.7315 34.7315 -34.7315 -34.7315 -34.7315zm-43.8579 43.8579l-25.3642 25.3654 34.7315 34.7315 25.3642 -25.3654 -34.7315 -34.7315zm244.655 -262.908l-34.7315 -34.7315 -25.3654 25.3654 34.7315 34.7315 25.3654 -25.3654zm-69.2233 -0.239764l-34.7315 34.7315 34.7315 34.7315 34.7315 -34.7315 -34.7315 -34.7315zm-43.8579 43.8579l-34.7315 34.7315 34.7315 34.7315 34.7315 -34.7315 -34.7315 -34.7315zm-43.8579 43.8579l-34.7315 34.7315 34.7315 34.7315 34.7315 -34.7315 -34.7315 -34.7315zm-43.8579 43.8579l-34.7315 34.7315 34.7315 34.7315 34.7315 -34.7315 -34.7315 -34.7315zm-43.8579 43.8579l-34.7315 34.7315 34.7315 34.7315 34.7315 -34.7315 -34.7315 -34.7315zm-43.8579 43.8579l-25.3642 25.3642 34.7315 34.7315 25.3642 -25.3642 -34.7315 -34.7315zm244.655 -262.908l-34.7315 -34.7315 -25.3654 25.3654 34.7315 34.7315 25.3654 -25.3654zm-69.2233 -0.239764l-34.7315 34.7315 34.7315 34.7315 34.7315 -34.7315 -34.7315 -34.7315zm-43.8579 43.8579l-34.7315 34.7315 34.7315 34.7315 34.7315 -34.7315 -34.7315 -34.7315zm-43.8579 43.8579l-34.7315 34.7315 34.7315 34.7315 34.7315 -34.7315 -34.7315 -34.7315zm-43.8579 43.8579l-34.7315 34.7315 34.7315 34.7315 34.7315 -34.7315 -34.7315 -34.7315zm-43.8579 43.8579l-34.7315 34.7315 34.7315 34.7315 34.7315 -34.7315 -34.7315 -34.7315zm-43.8579 43.8579l-25.3654 25.3642 34.7315 34.7315 25.3654 -25.3642 -34.7315 -34.7315zm244.655 -262.908l-34.7315 -34.7315 -25.3654 25.3642 34.7315 34.7327 25.3654 -25.3654zm-69.2233 -0.239764l-34.7315 34.7315 34.7315 34.7315 34.7315 -34.7315 -34.7315 -34.7315zm-43.8579 43.8579l-34.7315 34.7315 34.7315 34.7315 34.7315 -34.7315 -34.7315 -34.7315zm-43.8579 43.8579l-34.7315 34.7315 34.7315 34.7315 34.7315 -34.7315 -34.7315 -34.7315zm-43.8579 43.8579l-34.7315 34.7315 34.7315 34.7315 34.7315 -34.7315 -34.7315 -34.7315zm-43.8579 43.8579l-34.7315 34.7315 34.7315 34.7315 34.7315 -34.7315 -34.7315 -34.7315zm-43.8579 43.8579l-25.3654 25.3642 34.7315 34.7315 25.3654 -25.3642 -34.7315 -34.7315zm244.655 -262.909l-34.7315 -34.7315 -25.3654 25.3654 34.7315 34.7315 25.3654 -25.3654zm-69.2233 -0.239764l-34.7315 34.7315 34.7315 34.7327 34.7315 -34.7327 -34.7315 -34.7315zm-43.8579 43.8591l-34.7315 34.7315 34.7315 34.7315 34.7315 -34.7315 -34.7315 -34.7315zm-43.8579 43.8579l-34.7315 34.7315 34.7315 34.7315 34.7315 -34.7315 -34.7315 -34.7315zm-43.8579 43.8579l-34.7315 34.7315 34.7315 34.7315 34.7315 -34.7315 -34.7315 -34.7315zm-43.8579 43.8579l-34.7327 34.7315 34.7327 34.7315 34.7315 -34.7315 -34.7315 -34.7315zm-43.8591 43.8579l-25.3642 25.3642 34.7315 34.7315 25.3642 -25.3642 -34.7315 -34.7315zm244.656 -262.909l-34.7315 -34.7315 -25.3654 25.3654 34.7315 34.7315 25.3654 -25.3654zm-69.2233 -0.239764l-34.7315 34.7315 34.7315 34.7315 34.7315 -34.7315 -34.7315 -34.7315zm-43.8579 43.8579l-34.7315 34.7315 34.7315 34.7327 34.7315 -34.7327 -34.7315 -34.7315zm-43.8579 43.8591l-34.7315 34.7315 34.7315 34.7315 34.7315 -34.7315 -34.7315 -34.7315zm-43.8579 43.8579l-34.7327 34.7315 34.7327 34.7315 34.7315 -34.7315 -34.7315 -34.7315zm-43.8591 43.8579l-34.7315 34.7315 34.7315 34.7315 34.7315 -34.7315 -34.7315 -34.7315zm-43.8579 43.8579l-25.3642 25.3642 34.7315 34.7315 25.3642 -25.3642 -34.7315 -34.7315zm244.656 -262.909l-34.7315 -34.7315 -25.3654 25.3654 34.7315 34.7315 25.3654 -25.3654zm-69.2233 -0.239764l-34.7315 34.7315 34.7315 34.7315 34.7315 -34.7315 -34.7315 -34.7315zm-43.8579 43.8579l-34.7315 34.7315 34.7315 34.7315 34.7315 -34.7315 -34.7315 -34.7315zm-43.8579 43.8579l-34.7327 34.7315 34.7327 34.7327 34.7315 -34.7327 -34.7315 -34.7315zm-43.8591 43.8591l-34.7315 34.7315 34.7315 34.7315 34.7315 -34.7315 -34.7315 -34.7315zm-43.8579 43.8579l-34.7315 34.7315 34.7315 34.7315 34.7315 -34.7315 -34.7315 -34.7315zm-43.8579 43.8579l-25.3642 25.3642 34.7315 34.7315 25.3642 -25.3642 -34.7315 -34.7315zm244.656 -262.909l-22.8532 -22.8532c-2.36221,-2.36103 -6.2256,-2.36103 -8.5878,0l-21.0709 21.0721 27.1465 27.1465 25.3654 -25.3654zm-61.6382 7.34528l-34.7315 34.7315 27.1465 27.1465 34.7315 -34.7315 -27.1465 -27.1465zm-43.8591 43.8579l-34.7315 34.7315 27.1477 27.1465 34.7315 -34.7315 -27.1477 -27.1465zm-43.8579 43.8579l-34.7315 34.7315 27.1465 27.1465 34.7315 -34.7315 -27.1465 -27.1465zm-43.8579 43.8579l-34.7315 34.7315 27.1465 27.1477 34.7315 -34.7327 -27.1465 -27.1465zm-43.8579 43.8579l-34.7315 34.7327 27.1465 27.1465 34.7315 -34.7315 -27.1465 -27.1477zm-43.8579 43.8591l-21.0709 21.0697c-2.36103,2.36221 -2.36103,6.22678 0,8.5878l22.8532 22.8532 25.3642 -25.3642 -27.1465 -27.1465z"/>
    </g>
   </g>
   <path id="_385739752" class="fil3" d="M1252.68 621.915l173.404 173.404c12.991,12.9921 19.4882,30.0851 19.4882,47.152 0,17.0705 -6.49489,34.161 -19.487,47.1532l-514.126 514.126c-12.9921,12.9921 -30.0827,19.487 -47.1532,19.487 -17.0669,0 -34.1599,-6.49725 -47.152,-19.4882l-173.404 -173.404c-12.991,-12.9921 -19.4882,-30.0851 -19.4882,-47.152 0,-17.0705 6.49489,-34.161 19.487,-47.1532l514.126 -514.126c12.9921,-12.9921 30.0827,-19.487 47.1532,-19.487 17.0669,0 34.1599,6.49607 47.152,19.4882z"/>
   <path id="_385739632" class="fil3" d="M718.895 1207.64l121.468 121.469 24.3378 24.3378 -24.3378 24.3378 -60.7347 60.7347c-23.4213,23.4201 -54.2599,35.1307 -85.0713,35.1296 -30.8126,0.0011811 -61.6512,-11.7095 -85.0725,-35.1296l0 -0.0011811c-23.4213,-23.4213 -35.1319,-54.2587 -35.1296,-85.0713 -0.00236221,-30.8126 11.7083,-61.6512 35.1296,-85.0725l60.7347 -60.7347 24.3378 -24.3366 24.3378 24.3366z"/>
   <path id="_385739680" class="fil3" d="M1660.04 785.527l-344.92 -18.1536c-18.2268,0.0555119 -33.4807,-14.2087 -34.4492,-32.6103l0.0507874 -0.00354331 -18.1547 -344.945c-0.890552,-8.37638 1.28268,-17.0185 6.52087,-24.1004 1.00748,-1.36181 6.43701,8.91851 7.67127,7.68426 13.441,-13.441 30.7784,14.6339 44.2193,28.0748l310.838 309.057 -0.00236221 0.0011811c6.65434,6.65788 30.9921,32.8618 30.4595,43.0028 -0.568111,10.8201 27.8634,19.6902 19.7173,25.5792 -6.1441,4.44331 -13.7917,6.89292 -21.9532,6.46418l0.00236221 -0.0507874z"/>
   <ellipse id="_385739416" class="fil1" transform="matrix(0.759557 0.759557 -0.759555 0.759555 1475.77 572.234)" rx="272.351" ry="36.6756"/>
   <path id="_385740112" class="fil4" d="M1432.31 584.489l29.7095 29.7083 96.3544 -96.3544c8.16969,-8.16969 8.16969,-21.5374 0,-29.7071l-0.0011811 -0.0011811c-8.16969,-8.16969 -21.5374,-8.16969 -29.7071,0l-96.3556 96.3544z"/>
  </g>
 </g>
 <rect class="fil5" width="2048" height="2048"/>
</svg>
