<?xml version="1.0" encoding="UTF-8"?>
<!DOCTYPE svg PUBLIC "-//W3C//DTD SVG 1.1//EN" "http://www.w3.org/Graphics/SVG/1.1/DTD/svg11.dtd">
<!-- Creator: CorelDRAW -->
<svg xmlns="http://www.w3.org/2000/svg" xml:space="preserve" width="2048px" height="2048px" style="shape-rendering:geometricPrecision; text-rendering:geometricPrecision; image-rendering:optimizeQuality; fill-rule:evenodd; clip-rule:evenodd"
viewBox="0 0 2048 2048"
 xmlns:xlink="http://www.w3.org/1999/xlink">
 <defs>
  <style type="text/css">
   <![CDATA[
    .fil11 {fill:none}
    .fil3 {fill:#424242}
    .fil9 {fill:#873913}
    .fil8 {fill:#B86A3A}
    .fil4 {fill:#BF3531}
    .fil5 {fill:#E3F2FD}
    .fil10 {fill:#EEEEEE}
    .fil2 {fill:#263238;fill-rule:nonzero}
    .fil6 {fill:#873913;fill-rule:nonzero}
    .fil1 {fill:#BF3531;fill-rule:nonzero}
    .fil7 {fill:#DC955F;fill-rule:nonzero}
    .fil0 {fill:#E53935;fill-rule:nonzero}
   ]]>
  </style>
 </defs>
 <g id="Layer_x0020_1">
  <metadata id="CorelCorpID_0Corel-Layer"/>
  <g id="_385735768">
   <path id="_385739272" class="fil0" d="M1291.2 1398.31c-10.624,11.2063 -23.4532,20.2666 -37.7422,26.4402 -13.8508,5.98229 -29.067,9.30355 -44.9788,9.30355l-24.6792 0 -0.335433 -1.86614c-93.0119,0 -770.701,11.5819 -833.855,0l-0.00590552 0c0,0 -55.6276,-27.1866 -60.0922,-31.6512 -20.6799,-20.6799 -33.5173,-49.2355 -33.5173,-80.6682l0 -328.745c0,-31.4339 12.8374,-59.9894 33.5173,-80.6694 20.6799,-20.6799 49.2355,-33.5173 80.6705,-33.5173l410.929 0 22.0229 0 7.85197 20.7508 54.7028 144.558 342.79 -0.814961c16.7575,-0.0389764 32.615,3.53859 46.8343,9.9815 14.9492,6.77363 28.161,16.624 38.791,28.6949l-20.8961 18.3933c4.10197,51.13 3.26575,237.196 2.97284,285.521l15.0189 14.289z"/>
   <path id="_385739008" class="fil1" d="M1175.33 1432.21c-52.2237,0.238583 -206.939,2.45669 -368.937,3.89528 0.398032,-2.33622 0.840946,-4.66536 1.32874,-6.98623 2.04921,-9.75355 4.87678,-19.3358 8.45552,-28.637 9.41576,-24.4713 23.9221,-46.7197 42.4595,-65.2583 35.2618,-35.2607 82.702,-54.9189 132.578,-54.9189 49.8756,0 97.317,19.6583 132.579,54.9189 16.2768,16.278 29.4697,35.4449 38.8205,56.4827 5.33622,12.0047 9.39331,24.5551 12.0945,37.4126 0.216142,1.02874 0.422835,2.05984 0.62126,3.09095z"/>
   <path id="_385738744" class="fil1" d="M735.914 1436.68c-160.273,1.14213 -314.047,1.12795 -369.362,-2.70827 0.295276,-1.61929 0.611811,-3.23386 0.950788,-4.84489 2.04921,-9.75355 4.87678,-19.3358 8.45552,-28.637 9.41576,-24.4713 23.9221,-46.7197 42.4595,-65.2583 35.2618,-35.2607 82.702,-54.9189 132.578,-54.9189 49.8756,0 97.317,19.6583 132.579,54.9189 16.2768,16.278 29.4697,35.4449 38.8205,56.4827 5.33622,12.0047 9.39331,24.5551 12.0945,37.4126 0.526772,2.50866 1.00158,5.02678 1.42441,7.55316z"/>
   <polygon id="_385738672" class="fil2" points="1306.23,580.197 1306.23,1468.68 1792,1468.68 1792,1532.68 1274.23,1532.68 1242.23,1532.68 1242.23,1500.68 1242.23,580.197 "/>
   <path id="_385738024" class="fil0" d="M973.07 416.698l232.04 644.489 -95.2501 111.751 -497.363 -232.967 -27.7524 -31.0311 -34.6217 0 -64.0016 0 0 -56.4697 0 -301.04c0,-37.0843 15.1488,-70.7764 39.5528,-95.1804 24.404,-24.404 58.0961,-39.5528 95.1792,-39.5528l320.216 0 32.0008 0z"/>
   <path id="_385737928" class="fil3" d="M666.604 1352.2c-29.589,-29.589 -70.4646,-47.8902 -115.609,-47.8902 -45.1465,0 -86.0209,18.3012 -115.608,47.8902 -16.0288,16.0276 -28.7457,35.3681 -37.0311,56.9067 -3.09095,8.0315 -5.56536,16.3677 -7.36772,24.952 -2.28898,10.8898 -3.49134,22.1788 -3.49134,33.7488 0,45.1453 18.3012,86.0209 47.8902,115.608 29.5866,29.589 70.4623,47.8902 115.608,47.8902 45.1441,0 86.0198,-18.3024 115.609,-47.8902 29.5878,-29.589 47.8902,-70.4634 47.8902,-115.608 0,-11.5701 -1.20236,-22.8591 -3.49134,-33.7488 -2.3811,-11.3433 -5.93859,-22.2543 -10.5378,-32.5985 -8.21221,-18.4807 -19.754,-35.1532 -33.861,-49.2603z"/>
   <path id="_385738600" class="fil3" d="M1106.83 1352.2c-29.589,-29.589 -70.4646,-47.8902 -115.609,-47.8902 -45.1465,0 -86.0209,18.3012 -115.608,47.8902 -16.0288,16.0276 -28.7457,35.3681 -37.0311,56.9067 -3.09095,8.0315 -5.56536,16.3677 -7.36772,24.952 -2.28898,10.8898 -3.49134,22.1788 -3.49134,33.7488 0,45.1453 18.3012,86.0209 47.8902,115.608 29.5866,29.589 70.4623,47.8902 115.608,47.8902 45.1441,0 86.0198,-18.3024 115.609,-47.8902 29.5878,-29.589 47.8902,-70.4634 47.8902,-115.608 0,-11.5701 -1.20236,-22.8591 -3.49134,-33.7488 -2.3811,-11.3433 -5.93859,-22.2543 -10.5378,-32.5985 -8.21221,-18.4807 -19.754,-35.1532 -33.861,-49.2603z"/>
   <g>
    <rect id="_385738624" class="fil4" x="369.924" y="1023.75" width="261.251" height="15"/>
    <rect id="_385738384" class="fil4" x="369.924" y="1061.88" width="261.251" height="15"/>
    <rect id="_385738576" class="fil4" x="369.924" y="1100" width="261.251" height="15"/>
    <rect id="_385738264" class="fil4" x="369.924" y="1138.13" width="261.251" height="15"/>
    <rect id="_385737736" class="fil4" x="369.924" y="1176.25" width="261.251" height="15"/>
   </g>
   <path id="_385737184" class="fil4" d="M648.746 634.795l0 217.676 0 24.4689 132.37 0 22.0229 0 7.85197 20.7508 54.7028 144.558 264.639 -0.629528 -163.312 -453.599 -25.9512 0 -245.547 0c-12.8303,0 -24.5197,5.27244 -33.0118,13.7646 -8.49213,8.49213 -13.7646,20.1803 -13.7646,33.0107z"/>
   <path id="_385737592" class="fil5" d="M672.745 852.941l146.972 0 13.7197 36.2563 48.8197 129.013 213.958 -0.509056 -146.06 -405.683 -254.632 0c-6.06851,0 -11.7626,2.45551 -16.0417,6.73583 -4.28032,4.27914 -6.73583,9.97205 -6.73583,16.0406l0 218.146z"/>
   <g>
    <polygon id="_385737664" class="fil6" points="1372.86,778.316 1734.47,778.316 1766.47,778.316 1766.47,810.317 1766.47,1402.06 1766.47,1434.06 1734.47,1434.06 1372.86,1434.06 1340.85,1434.06 1340.85,1402.06 1340.85,810.317 1340.85,778.316 "/>
    <polygon id="_385737784" class="fil7" points="1372.86,778.316 1734.47,778.316 1766.47,778.316 1766.47,810.316 1720.14,810.316 1720.14,820.935 1766.47,820.935 1766.47,1391.44 1724.92,1391.44 1724.92,1402.06 1766.47,1402.06 1766.47,1434.06 1734.47,1434.06 1372.86,1434.06 1340.85,1434.06 1340.85,1402.06 1384.98,1402.06 1384.98,1391.44 1340.85,1391.44 1340.85,820.935 1384.98,820.935 1384.98,810.316 1340.85,810.316 1340.85,778.316 "/>
    <polygon id="_385737088" class="fil8" points="1372.85,810.316 1372.85,1402.06 1734.47,1402.06 1734.47,810.316 "/>
    <g>
     <polygon id="_385736704" class="fil9" points="1372.85,923.821 1372.85,945.031 1507.57,810.316 1486.36,810.316 "/>
     <polygon id="_385736584" class="fil9" points="1372.85,1024.56 1372.85,1045.77 1608.31,810.316 1587.09,810.316 "/>
     <polygon id="_385736752" class="fil9" points="1372.85,1125.29 1372.85,1146.5 1709.04,810.316 1687.83,810.316 "/>
     <polygon id="_385736464" class="fil9" points="1372.85,1226.02 1372.85,1247.24 1734.47,885.615 1734.47,864.402 "/>
     <polygon id="_385736536" class="fil9" points="1372.85,1326.76 1372.85,1347.97 1734.47,986.349 1734.47,965.139 "/>
     <polygon id="_385735888" class="fil9" points="1398.29,1402.06 1419.5,1402.06 1734.47,1087.08 1734.47,1065.87 "/>
     <polygon id="_385735696" class="fil9" points="1499.02,1402.06 1520.24,1402.06 1734.47,1187.82 1734.47,1166.61 "/>
     <polygon id="_385735936" class="fil9" points="1599.76,1402.06 1620.97,1402.06 1734.47,1288.55 1734.47,1267.34 "/>
    </g>
   </g>
   <path id="_385736080" class="fil10" d="M625.465 1393.34c-19.0595,-19.0595 -45.3898,-30.8481 -74.4697,-30.8481 -29.0811,0 -55.4103,11.7886 -74.4674,30.8481 -10.3252,10.324 -18.5173,22.7823 -23.8536,36.6567 -1.99134,5.17323 -3.58583,10.5425 -4.74685,16.0725 -1.47402,7.01457 -2.24882,14.2866 -2.24882,21.7394 0,29.0799 11.7886,55.4103 30.8492,74.4686 19.0571,19.0595 45.3874,30.8481 74.4674,30.8481 29.0799,0 55.4103,-11.7898 74.4697,-30.8481 19.0583,-19.0595 30.8481,-45.3886 30.8481,-74.4686 0,-7.45276 -0.774804,-14.7248 -2.24882,-21.7394 -1.53425,-7.3063 -3.82559,-14.3351 -6.7878,-20.9977 -5.29016,-11.9043 -12.7252,-22.6441 -21.8114,-31.7315z"/>
   <path id="_385735864" class="fil10" d="M1065.69 1393.34c-19.0595,-19.0595 -45.3898,-30.8481 -74.4697,-30.8481 -29.0811,0 -55.4103,11.7886 -74.4674,30.8481 -10.3252,10.324 -18.5173,22.7823 -23.8536,36.6567 -1.99134,5.17323 -3.58583,10.5425 -4.74685,16.0725 -1.47402,7.01457 -2.24882,14.2866 -2.24882,21.7394 0,29.0799 11.7886,55.4103 30.8492,74.4686 19.0571,19.0595 45.3874,30.8481 74.4674,30.8481 29.0799,0 55.4103,-11.7898 74.4697,-30.8481 19.0583,-19.0595 30.8481,-45.3886 30.8481,-74.4686 0,-7.45276 -0.774804,-14.7248 -2.24882,-21.7394 -1.53425,-7.3063 -3.82559,-14.3351 -6.7878,-20.9977 -5.29016,-11.9043 -12.7252,-22.6441 -21.8114,-31.7315z"/>
  </g>
 </g>
 <rect class="fil11" width="2048" height="2048"/>
</svg>
