<?xml version="1.0" encoding="UTF-8"?>
<!DOCTYPE svg PUBLIC "-//W3C//DTD SVG 1.1//EN" "http://www.w3.org/Graphics/SVG/1.1/DTD/svg11.dtd">
<!-- Creator: CorelDRAW -->
<svg xmlns="http://www.w3.org/2000/svg" xml:space="preserve" width="2048px" height="2048px" style="shape-rendering:geometricPrecision; text-rendering:geometricPrecision; image-rendering:optimizeQuality; fill-rule:evenodd; clip-rule:evenodd"
viewBox="0 0 2048 2048"
 xmlns:xlink="http://www.w3.org/1999/xlink">
 <defs>
  <style type="text/css">
   <![CDATA[
    .fil10 {fill:none}
    .fil4 {fill:none;fill-rule:nonzero}
    .fil0 {fill:#37474F}
    .fil9 {fill:#3E2723}
    .fil1 {fill:#455A64}
    .fil7 {fill:#4E342E}
    .fil2 {fill:#5D4037}
    .fil8 {fill:#D69867}
    .fil3 {fill:#5D4037;fill-rule:nonzero}
    .fil6 {fill:#E0E0E0;fill-rule:nonzero}
    .fil5 {fill:#EF5350;fill-rule:nonzero}
   ]]>
  </style>
 </defs>
 <g id="Layer_x0020_1">
  <metadata id="CorelCorpID_0Corel-Layer"/>
  <g id="_413042440">
   <path id="_413045392" class="fil0" d="M1067.91 369.572l142.465 0 -45.0461 63.3579 43.9465 60.4288 -139.901 0c0,0 -33.6933,-5.13071 -14.2831,-30.0331l12.8185 -93.7536z"/>
   <polygon id="_413044840" class="fil1" points="999.794,349.062 1088.42,349.062 1088.42,463.326 1000.53,463.326 "/>
   <rect id="_413044720" class="fil2" x="992.572" y="343.708" width="25.2047" height="312.533" rx="12.6024" ry="12.6024"/>
   <polygon id="_413044744" class="fil3" points="1088.02,1286.61 1088.02,1385.67 992.396,1385.67 992.396,1286.61 "/>
   <path id="_413044000" class="fil3" d="M407.742 1009.02l25.3299 0 132.684 0 31.604 0 0 31.604 0 144.448c0,51.4985 21.091,98.3398 55.0689,132.317 33.9768,33.9768 80.817,55.0678 132.315,55.0678 34.0193,0 76.9879,2.30433 123.958,4.82008 54.0756,2.89725 113.711,6.09449 175.251,6.09449 183.364,0 366.688,-30.1429 366.688,-198.299l0 -144.448 0 -31.604 31.604 0 132.685 0 25.3288 0 31.604 0 120.139 0 0 63.2079 -120.139 0 0 342.823c0,79.5721 -32.5311,151.89 -84.9379,204.298 -52.4091,52.4079 -124.727,84.939 -204.298,84.939l-717.253 0c-79.5709,0 -151.889,-32.5311 -204.298,-84.939 -52.4067,-52.4079 -84.9379,-124.726 -84.9379,-204.298l0 -342.823 -120.138 0 0 -63.2079 120.138 0 31.604 0z"/>
   <path id="_413044672" class="fil4" d="M868.23 503.377c30.9496,136.784 46.4918,273.708 46.5237,410.765 0.0330709,137.152 -15.4441,274.126 -46.5237,410.909"/>
   <path id="_413044336" class="fil4" d="M1030.73 503.377c30.9508,136.782 46.4929,273.708 46.5248,410.765m0 0c0.0318898,137.153 -15.4429,274.126 -46.5248,410.909"/>
   <path id="_413043952" class="fil5" d="M762.5 593.887l113.222 0c11.015,53.1603 19.5354,106.286 25.5461,159.372 7.21418,63.7075 10.8378,127.65 10.852,191.818 0.0153543,64.2768 -3.58347,128.321 -10.8071,192.122 -6.00473,53.0398 -14.5228,106.107 -25.5626,159.199l-113.223 0c11.041,-53.0918 19.5591,-106.159 25.5638,-159.199 7.22363,-63.8008 10.8224,-127.845 10.8071,-192.122 -0.0141732,-64.1682 -3.6378,-128.111 -10.8532,-191.818 -6.01063,-53.0859 -14.5299,-106.212 -25.5449,-159.372z"/>
   <path id="_413044504" class="fil6" d="M872.22 593.887l113.222 0c11.015,53.1603 19.5343,106.286 25.5449,159.372 7.21536,63.7075 10.8378,127.65 10.8532,191.818 0.0153543,64.2768 -3.58347,128.321 -10.8083,192.122 -6.00355,53.0398 -14.5228,106.107 -25.5626,159.199l-113.222 0c11.0398,-53.0918 19.5591,-106.159 25.5626,-159.199 7.22363,-63.8008 10.8224,-127.845 10.8071,-192.122 -0.0141732,-64.1682 -3.63662,-128.111 -10.852,-191.818 -6.01063,-53.0859 -14.5311,-106.212 -25.5449,-159.372z"/>
   <path id="_413044312" class="fil5" d="M981.939 593.887l113.222 0c11.015,53.1603 19.5354,106.286 25.5461,159.372 7.21536,63.7075 10.8378,127.65 10.852,191.818 0.0153543,64.2768 -3.58347,128.321 -10.8071,192.122 -6.00355,53.0398 -14.5228,106.107 -25.5626,159.199l-113.222 0c11.0398,-53.0918 19.5579,-106.159 25.5626,-159.199 7.22363,-63.8008 10.8224,-127.845 10.8071,-192.122 -0.0141732,-64.1682 -3.6378,-128.111 -10.852,-191.818 -6.01182,-53.0859 -14.5311,-106.212 -25.5461,-159.372z"/>
   <path id="_413043808" class="fil6" d="M1091.66 593.887l113.222 0c11.015,53.1603 19.5343,106.286 25.5449,159.372 7.21536,63.7075 10.839,127.65 10.8532,191.818 0.0153543,64.2768 -3.58347,128.321 -10.8071,192.122 -6.00473,53.0398 -14.5228,106.107 -25.5638,159.199l-113.222 0c11.0398,-53.0918 19.5591,-106.159 25.5626,-159.199 7.22481,-63.8008 10.8236,-127.845 10.8083,-192.122 -0.0153543,-64.1682 -3.6378,-128.111 -10.8532,-191.818 -6.01063,-53.0859 -14.5311,-106.212 -25.5449,-159.372z"/>
   <path id="_413043904" class="fil5" d="M1201.38 593.887l113.223 0c11.0138,53.1603 19.5343,106.286 25.5449,159.372 7.21536,63.7075 10.8378,127.65 10.852,191.818 0.0153543,64.2768 -3.58229,128.321 -10.8071,192.122 -6.00355,53.0398 -14.5228,106.107 -25.5626,159.199l-113.222 0c11.0398,-53.0918 19.5579,-106.159 25.5626,-159.199 7.22363,-63.8008 10.8224,-127.845 10.8071,-192.122 -0.0141732,-64.1682 -3.6378,-128.111 -10.852,-191.818 -6.01063,-53.0859 -14.5311,-106.212 -25.5461,-159.372z"/>
   <path id="_413043616" class="fil7" d="M1382.63 1704.29c79.5721,0 151.891,-32.5311 204.299,-84.939 52.4079,-52.4079 84.939,-124.726 84.939,-204.297l0 -136.935c0,79.5709 -32.5311,151.889 -84.939,204.298 -52.4079,52.4067 -124.727,84.939 -204.299,84.939l-717.251 0c-79.5721,0 -151.891,-32.5323 -204.299,-84.939 -52.4079,-52.4091 -84.939,-124.727 -84.939,-204.298l0 136.935c0,79.5709 32.5311,151.889 84.939,204.297 52.4079,52.4079 124.727,84.939 204.299,84.939l717.251 0z"/>
   <g>
    <g>
     <ellipse id="_413043184" class="fil8" cx="734.781" cy="1471.61" rx="57.3514" ry="57.3514"/>
     <ellipse id="_413043688" class="fil9" cx="734.781" cy="1471.61" rx="37.4356" ry="37.4355"/>
    </g>
    <g>
     <ellipse id="_413043544" class="fil8" cx="927.593" cy="1471.61" rx="57.3514" ry="57.3514"/>
     <ellipse id="_413043256" class="fil9" cx="927.593" cy="1471.61" rx="37.4356" ry="37.4355"/>
    </g>
    <g>
     <ellipse id="_413042800" class="fil8" cx="1120.41" cy="1471.61" rx="57.3514" ry="57.3514"/>
     <ellipse id="_413042848" class="fil9" cx="1120.41" cy="1471.61" rx="37.4356" ry="37.4355"/>
    </g>
    <g>
     <ellipse id="_413042896" class="fil8" cx="1313.22" cy="1471.61" rx="57.3514" ry="57.3514"/>
     <ellipse id="_413042512" class="fil9" cx="1313.22" cy="1471.61" rx="37.4356" ry="37.4355"/>
    </g>
   </g>
  </g>
 </g>
 <rect class="fil10" width="2048" height="2048"/>
</svg>
