<?xml version="1.0" encoding="UTF-8"?>
<!DOCTYPE svg PUBLIC "-//W3C//DTD SVG 1.1//EN" "http://www.w3.org/Graphics/SVG/1.1/DTD/svg11.dtd">
<!-- Creator: CorelDRAW -->
<svg xmlns="http://www.w3.org/2000/svg" xml:space="preserve" width="2048px" height="2048px" style="shape-rendering:geometricPrecision; text-rendering:geometricPrecision; image-rendering:optimizeQuality; fill-rule:evenodd; clip-rule:evenodd"
viewBox="0 0 2048 2048"
 xmlns:xlink="http://www.w3.org/1999/xlink">
 <defs>
  <style type="text/css">
   <![CDATA[
    .fil5 {fill:none}
    .fil2 {fill:#1565C0}
    .fil3 {fill:#263238}
    .fil1 {fill:#90A4AE}
    .fil4 {fill:#ECEFF1}
    .fil0 {fill:#FFAB00}
   ]]>
  </style>
 </defs>
 <g id="Layer_x0020_1">
  <metadata id="CorelCorpID_0Corel-Layer"/>
  <polygon class="fil0" points="1011.04,1538.47 1011.04,1792 946.296,1792 946.296,1538.47 "/>
  <polygon class="fil0" points="1090.36,1538.47 1090.36,1792 1025.61,1792 1025.61,1538.47 "/>
  <path class="fil1" d="M1348.86 1292.93l-137.495 -125.928c49.3335,-197.671 56.7437,-362.752 29.0303,-504.92 -28.9122,-148.251 -95.5642,-271.079 -192.327,-379.224l-24.1299 -26.8583 -24.0095 26.8583c-96.7583,108.145 -163.413,230.973 -192.321,379.224 -27.717,142.168 -20.3103,307.25 29.0244,504.92l-137.49 125.928 -11.948 10.9878 1.55197 15.8693 15.8894 158.523 5.01969 49.6524 43.2414 -24.9484 160.071 -92.269c3.22205,8.83347 6.56812,17.7874 10.0299,26.8559 8.60316,22.6819 17.2051,44.5276 25.6866,65.413l8.24056 20.2949 21.7406 0 90.6698 0 21.737 0 8.24528 -20.2949c8.4815,-20.8854 17.0799,-42.7311 25.6807,-65.413 3.46418,-9.06851 6.80906,-18.0213 10.0358,-26.8559l159.95 92.269 43.3618 24.9484 5.02087 -49.6524 15.7689 -158.523 1.67008 -15.8693 -11.9457 -10.9878z"/>
  <polygon class="fil2" points="1348.86,1292.93 1211.37,1167 1135.03,1410.75 1294.98,1503.01 1338.35,1527.96 1343.37,1478.31 1359.14,1319.79 1360.81,1303.92 "/>
  <path class="fil2" d="M1163.18 445.125c-31.2827,-58.0229 -69.9119,-111.748 -115.114,-162.267l-24.1299 -26.8583 -24.0095 26.8583c-45.2008,50.5193 -83.8276,104.244 -115.11,162.267l278.364 0z"/>
  <path class="fil3" d="M1151.52 698.73c0,-35.2146 -14.3315,-67.0855 -37.3866,-90.1229 -23.0587,-23.0374 -54.9508,-37.2414 -90.1926,-37.2414 -35.1177,0 -67.0134,14.2039 -90.0709,37.2414 -23.0516,23.0386 -37.3878,54.9083 -37.3878,90.1229 0,35.2111 14.3362,66.9638 37.3878,90.1182 23.0575,23.0398 54.9532,37.2425 90.0709,37.2437 35.2418,0 67.1339,-14.2051 90.1926,-37.2437 23.0551,-23.1543 37.3866,-54.9083 37.3866,-90.1182z"/>
  <path class="fil4" d="M1123.51 698.73c0,-27.4819 -11.1839,-52.3536 -29.1756,-70.3312 -17.9953,-17.9776 -42.8835,-29.0622 -70.3855,-29.0622 -27.4051,0 -52.2957,11.0847 -70.2898,29.0622 -17.9894,17.9788 -29.1768,42.8492 -29.1768,70.3312 0,27.4784 11.1874,52.2579 29.1768,70.3264 17.9941,17.9799 42.8847,29.0646 70.2898,29.0646 27.502,0 52.3902,-11.0847 70.3855,-29.0646 17.9917,-18.0685 29.1756,-42.8492 29.1756,-70.3264z"/>
  <polygon class="fil2" points="699.14,1292.93 836.635,1167 912.966,1410.75 753.016,1503.01 709.654,1527.96 704.633,1478.31 688.864,1319.79 687.194,1303.92 "/>
 </g>
 <rect class="fil5" width="2048" height="2048"/>
</svg>
