<?xml version="1.0" encoding="UTF-8"?>
<!DOCTYPE svg PUBLIC "-//W3C//DTD SVG 1.1//EN" "http://www.w3.org/Graphics/SVG/1.1/DTD/svg11.dtd">
<!-- Creator: CorelDRAW -->
<svg xmlns="http://www.w3.org/2000/svg" xml:space="preserve" width="2048px" height="2048px" style="shape-rendering:geometricPrecision; text-rendering:geometricPrecision; image-rendering:optimizeQuality; fill-rule:evenodd; clip-rule:evenodd"
viewBox="0 0 2048 2048"
 xmlns:xlink="http://www.w3.org/1999/xlink">
 <defs>
  <style type="text/css">
   <![CDATA[
    .fil3 {fill:none}
    .fil0 {fill:#6D4C41}
    .fil2 {fill:#FFB300}
    .fil1 {fill:#8D6E63;fill-rule:nonzero}
   ]]>
  </style>
 </defs>
 <g id="Layer_x0020_1">
  <metadata id="CorelCorpID_0Corel-Layer"/>
  <g id="_252330120">
   <rect id="_252331080" class="fil0" x="1005.38" y="210.966" width="46.83" height="1225.76"/>
   <path id="_252330888" class="fil1" d="M288.213 1394.85l1470.25 0 33.5386 0 -1.69488 33.4677c-10.9854,216.9 -240.79,344.14 -520.13,389.517 -100.071,16.2543 -206.685,22.1043 -311.563,17.8642 -104.98,-4.24134 -208.391,-18.613 -301.943,-42.7866 -235.473,-60.8457 -409.776,-184.616 -400.301,-367.716l1.56969 -30.3473 30.274 0.0011811z"/>
   <path id="_252330720" class="fil0" d="M958.613 1729.55c-104.98,-4.24252 -208.391,-18.613 -301.943,-42.7866 -201.376,-52.0359 -358.012,-150.091 -393.228,-291.918l-5.50276 0 -1.56969 30.3473c-9.47481,183.101 164.828,306.871 400.301,367.716 93.5516,24.1736 196.963,38.5453 301.943,42.7866 104.878,4.24016 211.492,-1.60984 311.563,-17.8642 279.339,-45.3768 509.144,-172.617 520.13,-389.517l1.69488 -33.4677 -14.3315 0c-52.9737,172.962 -260.939,276.788 -507.493,316.838 -100.071,16.2555 -206.685,22.1043 -311.563,17.8654z"/>
   <polygon id="_252331128" class="fil2" points="518.353,1343.07 992.892,1343.07 992.892,269.117 "/>
   <polygon id="_252330480" class="fil2" points="1457.84,1343.07 1064.69,1343.07 1064.69,453.312 "/>
   <polygon id="_252330792" class="fil0" points="1004.6,235.167 1186.45,235.167 1186.45,260.923 1319.13,260.923 1278.55,301.507 1323.43,346.387 1150.55,346.387 1150.55,324.924 1006.94,324.924 "/>
  </g>
 </g>
 <rect class="fil3" width="2048" height="2048"/>
</svg>
