<?xml version="1.0" encoding="UTF-8"?>
<!DOCTYPE svg PUBLIC "-//W3C//DTD SVG 1.1//EN" "http://www.w3.org/Graphics/SVG/1.1/DTD/svg11.dtd">
<!-- Creator: CorelDRAW -->
<svg xmlns="http://www.w3.org/2000/svg" xml:space="preserve" width="2048px" height="2048px" style="shape-rendering:geometricPrecision; text-rendering:geometricPrecision; image-rendering:optimizeQuality; fill-rule:evenodd; clip-rule:evenodd"
viewBox="0 0 2048 2048"
 xmlns:xlink="http://www.w3.org/1999/xlink">
 <defs>
  <style type="text/css">
   <![CDATA[
    .fil3 {fill:none}
    .fil1 {fill:#303F9F}
    .fil2 {fill:#E8EAF6}
    .fil0 {fill:#E53935;fill-rule:nonzero}
   ]]>
  </style>
 </defs>
 <g id="Layer_x0020_1">
  <metadata id="CorelCorpID_0Corel-Layer"/>
  <g id="_415947336">
   <g>
    <path id="_415917120" class="fil0" d="M361.518 948.558c-5.37402,-7.50237 -43.0618,-59.7922 -48.7193,-67.5189 -19.4043,-26.4992 -38.4544,-52.5166 -47.9575,-72.5764 -14.5453,-30.7028 -12.5091,-54.8481 16.3984,-68.5406l6.39922 -2.2252c110.18,-28.2744 196.371,92.1827 263.764,157.656 -44.6398,7.88859 -124.573,23.4425 -189.885,53.2052z"/>
    <path id="_415917000" class="fil0" d="M361.518 1098.8c-5.37402,7.50355 -43.0618,59.7934 -48.7193,67.5201 -19.4043,26.4992 -38.4544,52.5166 -47.9575,72.5764 -14.5453,30.7028 -12.5091,54.8481 16.3984,68.5406l6.39922 2.2252c110.18,28.2733 196.371,-92.1827 263.764,-157.656 -44.6398,-7.88859 -124.573,-23.4425 -189.885,-53.2063z"/>
   </g>
   <path id="_415916712" class="fil0" d="M1253.35 1190.35l-306.794 488.878 -2.50394 3.3378 -39.3 46.3217c-15.1512,22.702 -38.0764,34.2449 -65.5276,39.2941 -23.002,4.23071 -48.5244,3.6626 -74.6693,1.90512l-6.67678 -1.1126c-29.7331,-7.8567 -46.0063,-26.5477 -48.7181,-56.1508 -1.80354,-19.6571 4.36181,-43.5473 18.5433,-71.6894 39.4051,-98.8359 72.8008,-189.359 99.2729,-270.311 16.4386,-50.2701 45.9296,-146.759 56.4166,-188.237 79.591,4.26615 159.366,6.19607 239.007,6.19607 43.2626,0 86.4627,0.702756 129.713,1.54488l1.23662 0.0236221z"/>
   <path id="_415917096" class="fil0" d="M1253.35 857.648l-306.794 -488.878 -2.50394 -3.3378 -39.3 -46.3217c-15.1512,-22.702 -38.0764,-34.2449 -65.5276,-39.2941 -23.002,-4.23071 -48.5244,-3.6626 -74.6693,-1.90512l-6.67678 1.1126c-29.7331,7.8567 -46.0063,26.5477 -48.7181,56.1508 -1.80354,19.6571 4.36181,43.5473 18.5433,71.6894 39.4051,98.8359 72.8008,189.359 99.2729,270.311 16.4386,50.2701 45.9296,146.759 56.4166,188.237 79.591,-4.26615 159.366,-6.19607 239.007,-6.19607 43.2626,0 86.4627,-0.702756 129.713,-1.54488l1.23662 -0.0236221z"/>
   <path id="_415916664" class="fil0" d="M1671.44 1160.32c-15.5717,6.84331 -72.3402,22.4516 -89.5501,27.4016 15.2988,-52.2556 2.21693,-112.342 2.30906,-164.865 0.0874016,-50.3989 14.2725,-112.291 -0.0401575,-162.578 16.8272,4.68071 72.9331,19.5933 88.2402,25.9524 41.1792,17.1095 71.2867,38.1402 90.8434,61.2213 19.5862,23.1118 28.9866,48.3874 28.7551,74.3587 -0.229134,25.6524 -9.90709,50.5512 -28.4823,73.3217 -20.1898,24.75 -51.215,47.2288 -92.0753,65.1875z"/>
   <path id="_415948800" class="fil1" d="M527.552 1159.06c148.554,26.1225 353.275,42.2811 578.941,42.2811 50.7083,0 90.9698,0.783071 130.407,1.55079 126.863,2.46732 246.26,4.78583 344.987,-15.1736 18.5114,-55.8201 27.9449,-111.475 28.0441,-166.951 0.0944883,-53.4237 -8.42363,-106.923 -25.7752,-160.492 -101.48,-20.165 -224.386,-18.2445 -355.131,-16.2 -36.0071,0.562205 -72.704,1.13622 -122.532,1.13622 -225.666,0 -430.387,16.1587 -578.941,42.2811 -130.716,22.9843 -221.883,57.6508 -254.015,100.57 -8.38229,11.1957 -12.7465,22.9547 -12.7465,35.2134 0,12.5516 4.57441,24.5776 13.3524,36.013 32.6587,42.5504 123.503,76.9288 253.409,99.7713z"/>
   <g>
    <polygon id="_415948680" class="fil2" points="1425.96,1166.13 1472.47,1166.13 1480.22,1130.52 1418.21,1130.52 "/>
    <polygon id="_415948944" class="fil2" points="1319.12,1166.13 1365.63,1166.13 1373.38,1130.52 1311.37,1130.52 "/>
    <polygon id="_415948704" class="fil2" points="1212.28,1166.13 1258.79,1166.13 1266.55,1130.52 1204.53,1130.52 "/>
    <polygon id="_415948464" class="fil2" points="1105.45,1166.13 1151.95,1166.13 1159.71,1130.52 1097.69,1130.52 "/>
    <polygon id="_415948104" class="fil2" points="1045.12,1166.13 1052.87,1130.52 990.852,1130.52 998.607,1166.13 "/>
    <polygon id="_415948488" class="fil2" points="891.77,1166.13 938.277,1166.13 946.033,1130.52 884.014,1130.52 "/>
    <polygon id="_415948008" class="fil2" points="784.932,1166.13 831.439,1166.13 839.194,1130.52 777.177,1130.52 "/>
    <polygon id="_415948056" class="fil2" points="678.094,1166.13 724.601,1166.13 732.356,1130.52 670.339,1130.52 "/>
    <polygon id="_415948200" class="fil2" points="670.339,916.842 732.356,916.842 724.601,881.229 678.094,881.229 "/>
    <polygon id="_415947888" class="fil2" points="777.177,916.842 839.194,916.842 831.439,881.229 784.932,881.229 "/>
    <polygon id="_415948632" class="fil2" points="884.014,916.842 946.033,916.842 938.277,881.229 891.77,881.229 "/>
    <polygon id="_415947120" class="fil2" points="990.852,916.842 1052.87,916.842 1045.12,881.229 998.607,881.229 "/>
    <polygon id="_415947312" class="fil2" points="1097.69,916.842 1159.71,916.842 1151.95,881.229 1105.45,881.229 "/>
    <polygon id="_415947528" class="fil2" points="1204.53,916.842 1266.55,916.842 1258.79,881.229 1212.28,881.229 "/>
    <polygon id="_415947288" class="fil2" points="1311.37,916.842 1373.38,916.842 1365.63,881.229 1319.12,881.229 "/>
    <polygon id="_415947360" class="fil2" points="1418.21,916.842 1480.22,916.842 1472.47,881.229 1425.96,881.229 "/>
   </g>
  </g>
 </g>
 <rect class="fil3" width="2048" height="2048"/>
</svg>
