<?xml version="1.0" encoding="UTF-8"?>
<!DOCTYPE svg PUBLIC "-//W3C//DTD SVG 1.1//EN" "http://www.w3.org/Graphics/SVG/1.1/DTD/svg11.dtd">
<!-- Creator: CorelDRAW -->
<svg xmlns="http://www.w3.org/2000/svg" xml:space="preserve" width="2048px" height="2048px" style="shape-rendering:geometricPrecision; text-rendering:geometricPrecision; image-rendering:optimizeQuality; fill-rule:evenodd; clip-rule:evenodd"
viewBox="0 0 2048 2048"
 xmlns:xlink="http://www.w3.org/1999/xlink">
 <defs>
  <style type="text/css">
   <![CDATA[
    .fil15 {fill:none}
    .fil9 {fill:#424242}
    .fil6 {fill:#616161}
    .fil11 {fill:#757575}
    .fil4 {fill:#B0B0B0}
    .fil3 {fill:#BDBDBD}
    .fil8 {fill:#C39C26}
    .fil10 {fill:#D5AA26}
    .fil14 {fill:#E3F2FD}
    .fil5 {fill:#E9B927}
    .fil7 {fill:#FFCA28}
    .fil13 {fill:#263238;fill-rule:nonzero}
    .fil0 {fill:#455A64;fill-rule:nonzero}
    .fil1 {fill:#757575;fill-rule:nonzero}
    .fil12 {fill:#C39C26;fill-rule:nonzero}
    .fil2 {fill:#FFCA28;fill-rule:nonzero}
   ]]>
  </style>
 </defs>
 <g id="Layer_x0020_1">
  <metadata id="CorelCorpID_0Corel-Layer"/>
  <g id="_413070520">
   <path id="_413072704" class="fil0" d="M1703.49 526.281c0,-7.88623 6.39449,-14.2795 14.2795,-14.2795 7.88623,0 14.2807,6.39331 14.2807,14.2795l0 656.875c0,7.88623 -6.39449,14.2807 -14.2807,14.2807 -7.88505,0 -14.2795,-6.39449 -14.2795,-14.2807l0 -656.875z"/>
   <path id="_413072488" class="fil0" d="M1646.37 526.281c0,-7.88623 6.39449,-14.2795 14.2807,-14.2795 7.88505,0 14.2795,6.39331 14.2795,14.2795l0 656.875c0,7.88623 -6.39449,14.2807 -14.2795,14.2807 -7.88623,0 -14.2807,-6.39449 -14.2807,-14.2807l0 -656.875z"/>
   <g>
    <path id="_413072320" class="fil1" d="M1690.56 1192.24c-10.7658,0 -20.5169,4.36536 -27.5729,11.4224 -7.05709,7.05591 -11.4224,16.8083 -11.4224,27.5729 0,10.7669 4.36536,20.5158 11.4224,27.5729 7.05591,7.05591 16.8071,11.4224 27.5729,11.4224 10.7658,0 20.5158,-4.36654 27.5717,-11.4224 7.05709,-7.05709 11.4236,-16.8059 11.4236,-27.5729 0,-10.7646 -4.36654,-20.5169 -11.4236,-27.5729 -7.05591,-7.05709 -16.8059,-11.4224 -27.5717,-11.4224z"/>
    <path id="_413072176" class="fil1" d="M1691.27 1241.74c7.85552,-0.276378 14.4508,5.86772 14.726,13.7232 0.276378,7.85434 -5.86654,14.4496 -13.7221,14.726 -7.6689,0.281103 -14.5476,3.57756 -19.5106,8.72717 -4.94882,5.13189 -7.9819,12.1406 -7.9819,19.8591 0,7.88859 3.19725,15.0295 8.36339,20.1969 5.16615,5.16615 12.3095,8.36339 20.1957,8.36339 4.5815,0 9.01182,-1.08898 12.9579,-3.09685 4.02756,-2.04921 7.53662,-4.97835 10.1799,-8.61024 4.62048,-6.34489 13.5118,-7.74449 19.8579,-3.12402 6.34607,4.62048 7.74449,13.5118 3.12402,19.8579 -5.41536,7.43623 -12.3756,13.3217 -20.2217,17.3126 -7.92757,4.03347 -16.7835,6.22087 -25.8981,6.22087 -15.7701,0 -30.0508,-6.39449 -40.389,-16.7315 -10.337,-10.337 -16.7303,-24.6166 -16.7303,-40.389 0,-15.3284 6.08504,-29.3067 16.0134,-39.6048 9.91182,-10.2827 23.6717,-16.8673 39.0355,-17.4307z"/>
   </g>
   <path id="_413071648" class="fil2" d="M1746.33 1154.6c15.7725,0 28.5603,12.7878 28.5603,28.5603 0,15.7725 -12.7878,28.5603 -28.5603,28.5603l-114.239 0c-15.7736,0 -28.5614,-12.7878 -28.5614,-28.5603 0,-15.7725 12.7878,-28.5603 28.5614,-28.5603l114.239 0z"/>
   <g>
    <g>
     <rect id="_413072104" class="fil3" transform="matrix(0.45194 -0.45194 0.45194 0.45194 1484.48 661.565)" width="307.21" height="118.884" rx="6.39095" ry="6.39095"/>
     <rect id="_413072032" class="fil4" transform="matrix(0.631087 -0.631087 0.631087 0.631087 1317.18 807.567)" width="307.21" height="118.884" rx="8.92442" ry="8.92442"/>
    </g>
    <g>
     <path id="_413071672" class="fil5" d="M1697.59 605.031l86.0776 -86.0776c11.1083,-11.1083 11.1083,-29.2819 0.0011811,-40.389l-42.2433 -42.2433 -80.8229 0 -65.8607 65.8619c-11.1083,11.1071 -11.1083,29.2807 -0.0011811,40.3878l62.4603 62.4603c11.1071,11.1071 29.2807,11.1071 40.389,0z"/>
     <g>
      <polygon id="_413071072" class="fil6" points="1706.68,595.943 1720.88,581.742 1633.91,581.742 1648.12,595.943 "/>
      <polygon id="_413070904" class="fil6" points="1738.13,564.496 1752.33,550.296 1602.47,550.296 1616.67,564.498 "/>
      <path id="_413071552" class="fil6" d="M1769.57 533.052l14.0988 -14.0988 0.100394 -0.103937 -197.14 0.0011811c-0.587008,4.77756 0.0248032,9.67914 1.83307,14.2016l181.108 0z"/>
      <path id="_413071288" class="fil6" d="M1791.86 501.605c0.474804,-4.80237 -0.253937,-9.70513 -2.18977,-14.2016l-180.148 0.0011811 -14.2016 14.2004 196.539 0z"/>
      <polygon id="_413070496" class="fil6" points="1775.27,470.161 1761.07,455.958 1640.97,455.958 1626.77,470.159 "/>
     </g>
    </g>
   </g>
  </g>
  <path class="fil5" d="M925.014 1072.85l439.028 -348.286c18.8032,-21.8055 41.8016,-31.3465 63.3579,-31.3725 3.52677,-0.00472441 7.01575,0.245669 10.4421,0.73819 11.9764,1.75276 23.1189,6.49843 32.5134,13.6158 9.2941,7.2189 16.9323,16.8118 21.8847,28.3654 10.5284,24.6496 8.98111,57.9638 -14.9658,93.7548l-0.93189 1.34173 -387.314 435.343 -17.8512 -6.60355 -44.5961 -33.6272 -66.163 -110.258 -35.4036 -43.0111z"/>
  <rect class="fil7" x="277.926" y="1129.78" width="823.13" height="316.812" rx="58.904" ry="58.904"/>
  <path class="fil8" d="M1101.06 1290.69l0 96.9993c0,32.3965 -26.5051,58.9028 -58.9028,58.9028l-705.323 0c-32.3977,0 -58.904,-26.5063 -58.904,-58.9028l0 -44.8973 0.804331 -0.81378c28.0217,-28.0205 64.6229,-45.7985 104.03,-50.2052l24.1075 -2.69528 0.453544 1.61221 60.8871 0 632.847 0z"/>
  <path class="fil9" d="M335.315 1185.69l-0.309449 0c-0.31063,0 0.206693,0 0.413386,0.103937l-0.103937 -0.103937z"/>
  <path class="fil7" d="M1023.17 1266.35l-74.1662 -104.721 -546.625 -10.5827c-9.17481,-0.178347 -0.283465,18.5906 -0.283465,28.2496l-55.9453 0 0 -255.488c0,-16.2957 3.92008,-31.663 10.3205,-43.2154 9.18544,-16.6063 23.5347,-27.0225 40.9784,-27.0225l392.547 0c16.3134,0 75.0438,77.2536 137.699,168.949 59.6599,87.4619 127.167,189.677 161.329,243.832l-65.8536 0z"/>
  <path class="fil10" d="M380.681 888.055l256.916 0 10.3217 0 142.08 0c13.813,0 20.7437,11.4898 27.0685,21.6166 6.51142,10.428 12.6862,21.1453 18.9437,31.7303 20.1732,34.1315 40.8555,67.7422 63.2315,100.492 17.2488,25.2484 34.3996,50.5654 51.4453,75.952l22.3949 33.3579 -325.164 0 -10.3217 0 -256.916 0 0 -263.149z"/>
  <path class="fil9" d="M857.098 1483.36c-9.913,0 -17.9634,-8.03859 -17.9634,-17.9457 0,-9.90119 8.0504,-17.9433 17.9622,-17.9433 9.90591,0 17.9599,8.04213 17.9599,17.9433 0.0011811,9.90709 -8.05394,17.9457 -17.9587,17.9457zm34.7811 -52.7032c-8.87481,-8.86772 -21.1595,-14.3362 -34.7823,-14.3362 -13.5248,0 -25.9099,5.46851 -34.787,14.3362 -8.87953,8.87481 -14.4508,21.2433 -14.4508,34.7575 0,13.6181 5.57126,25.8969 14.4508,34.7634 8.87717,8.97402 21.1583,14.4437 34.787,14.4437 13.6228,0 25.9063,-5.46969 34.7811,-14.4437 8.98583,-8.86654 14.4508,-21.1453 14.4508,-34.7634 0.0011811,-13.5142 -5.46496,-25.8827 -14.4496,-34.7575z"/>
  <path class="fil9" d="M658.704 1483.36c-9.90946,0 -17.9599,-8.03859 -17.9599,-17.9457 0.0011811,-9.90119 8.0504,-17.9433 17.9599,-17.9433 9.90946,0 17.9634,8.04213 17.9634,17.9433 0,9.90709 -8.05394,17.9457 -17.9634,17.9457zm34.7882 -52.7032c-8.98111,-8.86772 -21.2669,-14.3362 -34.7882,-14.3362 -13.6217,0 -25.9063,5.46851 -34.8874,14.3362 -8.87835,8.87481 -14.348,21.2433 -14.348,34.7575 0,13.6181 5.46969,25.8969 14.348,34.7634 8.98111,8.97402 21.2658,14.4437 34.8874,14.4437 13.5225,0 25.8071,-5.46969 34.7882,-14.4437 8.87481,-8.86654 14.348,-21.1453 14.348,-34.7634 0,-13.5142 -5.47323,-25.8827 -14.348,-34.7575z"/>
  <path class="fil9" d="M1055.59 1483.36c-9.90946,0 -17.9622,-8.03859 -17.9622,-17.9457 0,-9.90119 8.05276,-17.9433 17.9622,-17.9433 9.91064,0 17.9599,8.04213 17.9599,17.9433 0,9.90709 -8.0504,17.9457 -17.9599,17.9457zm34.7882 -52.7032c-8.8819,-8.86772 -21.2658,-14.3362 -34.7882,-14.3362 -13.624,0 -25.9099,5.46851 -34.7847,14.3362 -8.98111,8.87481 -14.4496,21.2433 -14.4496,34.7575 0,13.6181 5.46851,25.8969 14.4496,34.7634 8.87481,8.97402 21.1595,14.4437 34.7847,14.4437 13.5225,0 25.9063,-5.46969 34.7882,-14.4437 8.87481,-8.86654 14.4473,-21.1453 14.4473,-34.7634 0,-13.5142 -5.57245,-25.8827 -14.4473,-34.7575z"/>
  <rect class="fil11" x="299.968" y="1351.74" width="1104.71" height="227.44" rx="113.72" ry="113.72"/>
  <path class="fil2" d="M704.282 1497.91c8.91497,0 17.0221,3.63425 22.9264,9.51733l0.022441 0.0248032 0.0011811 0.0011811 0.0248032 -0.0259843c0.281103,0.281103 0.544489,0.574016 0.793701,0.875198 5.413,5.82284 8.72245,13.5921 8.72245,22.0984 0,8.97166 -3.63662,17.0941 -9.51733,22.9736 -5.87953,5.87953 -14.0043,9.51733 -22.9736,9.51733 -8.97166,0 -17.0941,-3.6378 -22.9736,-9.51733 -5.87953,-5.87953 -9.51733,-14.002 -9.51733,-22.9736 0,-8.9693 3.6378,-17.0941 9.51733,-22.9748 5.87953,-5.87953 14.002,-9.51615 22.9736,-9.51615z"/>
  <path class="fil12" d="M704.282 1515.2c4.16929,0 7.95945,1.69961 10.7209,4.45158l0.0106299 0.0106299 0 0 0.011811 -0.0106299c0.131102,0.131102 0.255118,0.266929 0.370866,0.408662 2.5311,2.72244 4.07953,6.35552 4.07953,10.3335 0,4.19528 -1.70079,7.99253 -4.4504,10.7421 -2.74961,2.74961 -6.54922,4.4504 -10.7433,4.4504 -4.19528,0 -7.99371,-1.70079 -10.7433,-4.4504 -2.74843,-2.74961 -4.44922,-6.54686 -4.44922,-10.7421 0,-4.1941 1.70079,-7.99371 4.44922,-10.7433 2.74961,-2.74961 6.54804,-4.4504 10.7433,-4.4504z"/>
  <path class="fil2" d="M857.095 1368.64c8.91615,0 17.0221,3.63425 22.9264,9.51851l0.022441 0.0236221 0.0011811 0.0011811 0.0259843 -0.0248032c0.279921,0.279921 0.544489,0.572835 0.79252,0.874016 5.413,5.82402 8.72363,13.5921 8.72363,22.0984 0,8.97166 -3.6378,17.0941 -9.51733,22.9736 -5.88071,5.88071 -14.0055,9.51733 -22.9748,9.51733 -8.97166,0 -17.0941,-3.63662 -22.9736,-9.51733 -5.87953,-5.87953 -9.51733,-14.002 -9.51733,-22.9736 0,-8.9693 3.6378,-17.0941 9.51733,-22.9736 5.87953,-5.88071 14.002,-9.51733 22.9736,-9.51733z"/>
  <path class="fil12" d="M857.095 1385.93c4.16929,0 7.96064,1.70079 10.7209,4.45158l0.0106299 0.0106299 0 0.0011811 0.011811 -0.011811c0.132284,0.131102 0.255118,0.26811 0.370866,0.408662 2.53229,2.72362 4.07953,6.35552 4.07953,10.3335 0,4.19528 -1.70079,7.99371 -4.4504,10.7433 -2.74961,2.74961 -6.54922,4.4504 -10.7433,4.4504 -4.19528,0 -7.99253,-1.70079 -10.7421,-4.4504 -2.74961,-2.74961 -4.4504,-6.54804 -4.4504,-10.7433 0,-4.1941 1.70079,-7.99371 4.4504,-10.7433 2.74961,-2.74961 6.54686,-4.4504 10.7421,-4.4504z"/>
  <path class="fil2" d="M857.095 1497.91c8.91615,0 17.0221,3.63425 22.9264,9.51733l0.022441 0.0248032 0.0011811 0.0011811 0.0259843 -0.0259843c0.279921,0.281103 0.544489,0.574016 0.79252,0.875198 5.413,5.82284 8.72363,13.5921 8.72363,22.0984 0,8.97166 -3.6378,17.0941 -9.51733,22.9736 -5.88071,5.87953 -14.0055,9.51733 -22.9748,9.51733 -8.97166,0 -17.0941,-3.6378 -22.9736,-9.51733 -5.87953,-5.87953 -9.51733,-14.002 -9.51733,-22.9736 0,-8.9693 3.6378,-17.0941 9.51733,-22.9748 5.87953,-5.87953 14.002,-9.51615 22.9736,-9.51615z"/>
  <path class="fil12" d="M857.095 1515.2c4.16929,0 7.96064,1.69961 10.7209,4.45158l0.0106299 0.0106299 0 0 0.011811 -0.0106299c0.132284,0.131102 0.255118,0.266929 0.370866,0.408662 2.53229,2.72244 4.07953,6.35552 4.07953,10.3335 0,4.19528 -1.70079,7.99253 -4.4504,10.7421 -2.74961,2.74961 -6.54922,4.4504 -10.7433,4.4504 -4.19528,0 -7.99253,-1.70079 -10.7421,-4.4504 -2.74961,-2.74961 -4.4504,-6.54686 -4.4504,-10.7421 0,-4.1941 1.70079,-7.99371 4.4504,-10.7433 2.74961,-2.74961 6.54686,-4.4504 10.7421,-4.4504z"/>
  <path class="fil2" d="M1009.91 1368.64c8.91497,0 17.0221,3.63425 22.9252,9.51851l0.0236221 0.0236221 0.0011811 0.0011811 0.0248032 -0.0248032c0.279921,0.279921 0.544489,0.572835 0.79252,0.874016 5.413,5.82402 8.72363,13.5921 8.72363,22.0984 0,8.97166 -3.6378,17.0941 -9.51733,22.9736 -5.87953,5.88071 -14.0055,9.51733 -22.9736,9.51733 -8.97166,0 -17.0941,-3.63662 -22.9748,-9.51733 -5.87953,-5.87953 -9.51733,-14.002 -9.51733,-22.9736 0,-8.9693 3.6378,-17.0941 9.51733,-22.9736 5.88071,-5.88071 14.0032,-9.51733 22.9748,-9.51733z"/>
  <path class="fil12" d="M1009.91 1385.93c4.16811,0 7.95945,1.70079 10.7197,4.45158l0.0106299 0.0106299 0.0011811 0.0011811 0.011811 -0.011811c0.131102,0.131102 0.253937,0.26811 0.370866,0.408662 2.5311,2.72362 4.07835,6.35552 4.07835,10.3335 0,4.19528 -1.70079,7.99371 -4.4504,10.7433 -2.74961,2.74961 -6.54804,4.4504 -10.7421,4.4504 -4.19528,0 -7.99371,-1.70079 -10.7433,-4.4504 -2.74961,-2.74961 -4.4504,-6.54804 -4.4504,-10.7433 0,-4.1941 1.70079,-7.99371 4.4504,-10.7433 2.74961,-2.74961 6.54804,-4.4504 10.7433,-4.4504z"/>
  <path class="fil2" d="M1009.91 1497.91c8.91497,0 17.0221,3.63425 22.9252,9.51733l0.0236221 0.0248032 0.0011811 0.0011811 0.0248032 -0.0259843c0.279921,0.281103 0.544489,0.574016 0.79252,0.875198 5.413,5.82284 8.72363,13.5921 8.72363,22.0984 0,8.97166 -3.6378,17.0941 -9.51733,22.9736 -5.87953,5.87953 -14.0055,9.51733 -22.9736,9.51733 -8.97166,0 -17.0941,-3.6378 -22.9748,-9.51733 -5.87953,-5.87953 -9.51733,-14.002 -9.51733,-22.9736 0,-8.9693 3.6378,-17.0941 9.51733,-22.9748 5.88071,-5.87953 14.0032,-9.51615 22.9748,-9.51615z"/>
  <path class="fil12" d="M1009.91 1515.2c4.16811,0 7.95945,1.69961 10.7197,4.45158l0.0106299 0.0106299 0.0011811 0 0.011811 -0.0106299c0.131102,0.131102 0.253937,0.266929 0.370866,0.408662 2.5311,2.72244 4.07835,6.35552 4.07835,10.3335 0,4.19528 -1.70079,7.99253 -4.4504,10.7421 -2.74961,2.74961 -6.54804,4.4504 -10.7421,4.4504 -4.19528,0 -7.99371,-1.70079 -10.7433,-4.4504 -2.74961,-2.74961 -4.4504,-6.54686 -4.4504,-10.7421 0,-4.1941 1.70079,-7.99371 4.4504,-10.7433 2.74961,-2.74961 6.54804,-4.4504 10.7433,-4.4504z"/>
  <path class="fil2" d="M704.282 1368.64c8.91497,0 17.0221,3.63425 22.9264,9.51851l0.022441 0.0236221 0.0011811 0.0011811 0.0248032 -0.0248032c0.281103,0.279921 0.544489,0.572835 0.793701,0.874016 5.413,5.82402 8.72245,13.5921 8.72245,22.0984 0,8.97166 -3.63662,17.0941 -9.51733,22.9736 -5.87953,5.88071 -14.0043,9.51733 -22.9736,9.51733 -8.97166,0 -17.0941,-3.63662 -22.9736,-9.51733 -5.87953,-5.87953 -9.51733,-14.002 -9.51733,-22.9736 0,-8.9693 3.6378,-17.0941 9.51733,-22.9736 5.87953,-5.88071 14.002,-9.51733 22.9736,-9.51733z"/>
  <path class="fil12" d="M704.282 1385.93c4.16929,0 7.95945,1.70079 10.7209,4.45158l0.0106299 0.0106299 0 0.0011811 0.011811 -0.011811c0.131102,0.131102 0.255118,0.26811 0.370866,0.408662 2.5311,2.72362 4.07953,6.35552 4.07953,10.3335 0,4.19528 -1.70079,7.99371 -4.4504,10.7433 -2.74961,2.74961 -6.54922,4.4504 -10.7433,4.4504 -4.19528,0 -7.99371,-1.70079 -10.7433,-4.4504 -2.74843,-2.74961 -4.44922,-6.54804 -4.44922,-10.7433 0,-4.1941 1.70079,-7.99371 4.44922,-10.7433 2.74961,-2.74961 6.54804,-4.4504 10.7433,-4.4504z"/>
  <g id="_413068288">
   <polygon id="_413069176" class="fil8" points="499.864,1509.21 488.927,1528.16 474.397,1523.63 441.222,1504.48 460.575,1537.99 464.907,1552.18 445.963,1563.12 435.644,1551.93 416.49,1518.75 416.49,1557.06 413.149,1571.91 391.274,1571.91 387.932,1557.46 387.932,1518.75 368.779,1551.93 358.462,1563.12 339.516,1552.18 343.85,1537.99 363.201,1504.48 330.027,1523.63 315.499,1528.16 304.559,1509.21 315.404,1499.09 348.923,1479.74 310.616,1479.74 295.768,1476.4 295.768,1454.53 310.22,1451.18 348.923,1451.18 315.749,1432.03 304.559,1421.72 315.499,1402.77 329.684,1407.1 363.202,1426.45 344.048,1393.28 339.516,1378.75 358.464,1367.81 368.582,1378.66 387.932,1412.17 387.932,1373.47 391.274,1359.02 413.149,1359.02 416.49,1373.87 416.49,1412.18 435.841,1378.66 445.961,1367.81 464.906,1378.75 460.375,1393.28 441.222,1426.45 474.74,1407.1 488.926,1402.77 499.864,1421.71 488.676,1432.03 455.502,1451.18 494.203,1451.18 508.656,1454.53 508.657,1476.4 493.807,1479.74 455.502,1479.74 489.019,1499.09 "/>
   <ellipse id="_413067856" class="fil8" cx="402.212" cy="1465.2" rx="60.4576" ry="60.4576"/>
   <path id="_413068192" class="fil2" d="M402.212 1372.49c25.5969,0 48.7748,10.3784 65.5512,27.1547 16.7764,16.7764 27.1547,39.9544 27.1547,65.5512 0,25.5969 -10.3784,48.7737 -27.1547,65.5501 -16.7764,16.7764 -39.9544,27.1547 -65.5512,27.1547 -25.5969,0 -48.7737,-10.3784 -65.5501,-27.1547 -16.7764,-16.7764 -27.1547,-39.9532 -27.1547,-65.5501 0,-25.5969 10.3784,-48.7748 27.1547,-65.5512 16.7764,-16.7764 39.9532,-27.1547 65.5501,-27.1547zm36.4193 56.2867c-9.31772,-9.31772 -22.1953,-15.0827 -36.4193,-15.0827 -14.224,0 -27.1016,5.76497 -36.4193,15.0827 -9.31772,9.31772 -15.0827,22.1953 -15.0827,36.4193 0,14.224 5.76497,27.1004 15.0827,36.4181 9.31772,9.31772 22.1953,15.0839 36.4193,15.0839 14.224,0 27.1016,-5.76615 36.4193,-15.0839 9.31772,-9.31772 15.0827,-22.1941 15.0827,-36.4181 0,-14.224 -5.76497,-27.1016 -15.0827,-36.4193z"/>
   <path id="_413068120" class="fil2" d="M402.212 1444.6c5.65276,0 10.7929,2.30433 14.5358,6.03544l0.0153543 0.0153543 0 0 0.0165354 -0.0153543c0.177165,0.177165 0.344882,0.362599 0.501969,0.553937 3.43229,3.69213 5.53111,8.61851 5.53111,14.0114 0,5.68819 -2.30551,10.839 -6.03426,14.5665 -3.72756,3.72756 -8.87953,6.03426 -14.5665,6.03426 -5.68819,0 -10.8378,-2.30669 -14.5665,-6.03426 -3.72756,-3.72756 -6.03426,-8.87835 -6.03426,-14.5665 0,-5.68701 2.30669,-10.839 6.03426,-14.5665 3.72874,-3.72756 8.87835,-6.03426 14.5665,-6.03426z"/>
  </g>
  <g id="_413068456">
   <polygon id="_413067904" class="fil8" points="1409.63,1509.21 1398.69,1528.16 1384.16,1523.63 1350.98,1504.48 1370.34,1537.99 1374.67,1552.18 1355.73,1563.12 1345.41,1551.93 1326.25,1518.75 1326.25,1557.06 1322.91,1571.91 1301.04,1571.91 1297.7,1557.46 1297.7,1518.75 1278.54,1551.93 1268.22,1563.12 1249.28,1552.18 1253.61,1537.99 1272.96,1504.48 1239.79,1523.63 1225.26,1528.16 1214.32,1509.21 1225.17,1499.09 1258.69,1479.74 1220.38,1479.74 1205.53,1476.4 1205.53,1454.53 1219.98,1451.18 1258.69,1451.18 1225.51,1432.03 1214.32,1421.72 1225.26,1402.77 1239.45,1407.1 1272.96,1426.45 1253.81,1393.28 1249.28,1378.75 1268.23,1367.81 1278.35,1378.66 1297.7,1412.17 1297.7,1373.47 1301.04,1359.02 1322.91,1359.02 1326.25,1373.87 1326.25,1412.18 1345.6,1378.66 1355.72,1367.81 1374.67,1378.75 1370.14,1393.28 1350.98,1426.45 1384.5,1407.1 1398.69,1402.77 1409.63,1421.71 1398.44,1432.03 1365.26,1451.18 1403.97,1451.18 1418.42,1454.53 1418.42,1476.4 1403.57,1479.74 1365.26,1479.74 1398.78,1499.09 "/>
   <ellipse id="_413068216" class="fil8" cx="1311.97" cy="1465.2" rx="60.4576" ry="60.4576"/>
   <path id="_413068432" class="fil2" d="M1311.98 1372.49c25.5957,0 48.7737,10.3784 65.5501,27.1547 16.7764,16.7764 27.1547,39.9544 27.1547,65.5512 0,25.5969 -10.3784,48.7737 -27.1547,65.5501 -16.7764,16.7764 -39.9544,27.1547 -65.5501,27.1547 -25.5981,0 -48.7748,-10.3784 -65.5512,-27.1547 -16.7764,-16.7764 -27.1547,-39.9532 -27.1547,-65.5501 0,-25.5969 10.3784,-48.7748 27.1547,-65.5512 16.7764,-16.7764 39.9532,-27.1547 65.5512,-27.1547zm36.4181 56.2867c-9.31772,-9.31772 -22.1953,-15.0827 -36.4181,-15.0827 -14.2252,0 -27.1016,5.76497 -36.4193,15.0827 -9.31772,9.31772 -15.0827,22.1953 -15.0827,36.4193 0,14.224 5.76497,27.1004 15.0827,36.4181 9.31772,9.31772 22.1941,15.0839 36.4193,15.0839 14.2228,0 27.1004,-5.76615 36.4181,-15.0839 9.31772,-9.31772 15.0839,-22.1941 15.0839,-36.4181 0,-14.224 -5.76615,-27.1016 -15.0839,-36.4193z"/>
   <path id="_413068480" class="fil2" d="M1311.98 1444.6c5.65276,0 10.7929,2.30433 14.5358,6.03544l0.0141732 0.0153543 0.0011811 0 0.0153543 -0.0153543c0.178347,0.177165 0.346063,0.362599 0.50315,0.553937 3.43229,3.69213 5.53111,8.61851 5.53111,14.0114 0,5.68819 -2.30669,10.839 -6.03426,14.5665 -3.72874,3.72756 -8.87953,6.03426 -14.5665,6.03426 -5.68937,0 -10.839,-2.30669 -14.5665,-6.03426 -3.72874,-3.72756 -6.03426,-8.87835 -6.03426,-14.5665 0,-5.68701 2.30551,-10.839 6.03426,-14.5665 3.72756,-3.72756 8.87717,-6.03426 14.5665,-6.03426z"/>
  </g>
  <path class="fil13" d="M420.136 1319.25l35.4095 0 3.98859 14.1945 26.5855 0 3.88347 -14.1945 35.4095 0 3.98859 14.1945 26.5855 0 3.88111 -14.1945 35.4118 0 3.98859 14.1945 26.5855 0 3.88111 -14.1945 35.4107 0 3.98977 14.1945 26.5843 0 3.88229 -14.1945 35.4107 0 3.98977 14.1945 26.5843 0 3.88229 -14.1945 35.4107 0 3.98977 14.1945 26.5843 0 3.88229 -14.1945 35.4095 0 3.98977 14.1945 26.5843 0 3.88347 -14.1945 35.4095 0 3.98859 14.1945 26.5855 0 3.88347 -14.1945 35.4095 0 3.98859 14.1945 26.5855 0 3.88229 -14.1945 35.4107 0 3.98859 14.1945 26.5855 0 3.88111 -14.1945 35.4118 0 3.98859 14.1945 26.5843 0 3.88229 -14.1945 35.4107 0 3.98977 14.1945 26.5843 0 3.88229 -14.1945 35.4107 0 3.98977 14.1945 26.5843 0 3.6378 -13.298c33.8091,3.75709 64.2189,19.1421 87.1052,42.0284 26.4851,26.4839 42.9248,63.0473 42.9248,103.287l0 0.0011811c0,40.2414 -16.4398,76.8036 -42.9248,103.287 -22.8792,22.8792 -53.2772,38.2607 -87.0733,42.0248l-3.66969 -13.4185 -26.5855 0 -4.02402 14.3185 -35.3422 0 -3.91536 -14.3185 -26.5855 0 -4.02402 14.3185 -35.341 0 -3.91654 -14.3185 -26.5843 0 -4.02402 14.3185 -35.3422 0 -3.91418 -14.3185 -26.5866 0 -4.02284 14.3185 -35.3422 0 -3.91536 -14.3185 -26.5866 0 -4.02284 14.3185 -35.3422 0 -3.91536 -14.3185 -26.5866 0 -4.02284 14.3185 -35.3422 0 -3.91536 -14.3185 -26.5855 0 -4.02402 14.3185 -35.3422 0 -3.91536 -14.3185 -26.5855 0 -4.02402 14.3185 -35.3422 0 -3.91536 -14.3185 -26.5855 0 -4.02402 14.3185 -35.341 0 -3.91654 -14.3185 -26.5855 0 -4.02402 14.3185 -35.341 0 -3.91536 -14.3185 -26.5855 0 -4.02284 14.3185 -35.3433 0 -3.91418 -14.3185 -26.5866 0 -4.02284 14.3185 -35.3422 0 -3.91536 -14.3185 -26.5866 0 -4.02284 14.3185 -35.3422 0 -3.91536 -14.3185 -26.5855 0 -3.76772 13.4079c-33.7559,-3.78189 -64.1197,-19.1575 -86.9764,-42.0142 -26.4839,-26.4839 -42.9248,-63.0461 -42.9248,-103.287l0 -0.0011811c0,-40.2402 16.441,-76.8036 42.9248,-103.287 22.865,-22.865 53.2406,-38.2418 87.0107,-42.0177l3.73347 13.2874 26.5843 0 3.88347 -14.1945zm891.84 64.9855l-19.9158 0 -3.29764 -12.0591 -26.5855 0 -3.38859 12.0591 -36.5941 0 -3.29882 -12.0591 -26.5843 0 -3.38859 12.0591 -36.5953 0 -3.29764 -12.0591 -26.5855 0 -3.3874 12.0591 -36.5953 0 -3.29764 -12.0591 -26.5866 0 -3.3874 12.0591 -36.5953 0 -3.29764 -12.0591 -26.5866 0 -3.3874 12.0591 -36.5953 0 -3.29764 -12.0591 -26.5866 0 -3.3874 12.0591 -36.5953 0 -3.29764 -12.0591 -26.5855 0 -3.38859 12.0591 -36.5953 0 -3.29764 -12.0591 -26.5855 0 -3.38859 12.0591 -36.5941 0 -3.29882 -12.0591 -26.5855 0 -3.38859 12.0591 -36.5941 0 -3.29882 -12.0591 -26.5843 0 -3.3874 12.0591 -36.5965 0 -3.29646 -12.0591 -26.5866 0 -3.3874 12.0591 -36.5953 0 -3.29764 -12.0591 -26.5866 0 -3.3874 12.0591 -36.5953 0 -3.29764 -12.0591 -26.5866 0 -3.3874 12.0591 -18.1784 0c-22.3051,0 -42.6059,9.14883 -57.3414,23.8855 -14.7366,14.7354 -23.8855,35.0374 -23.8855,57.3414l0 0.0011811c0,22.3051 9.14883,42.6059 23.8855,57.3414 14.7354,14.7366 35.0362,23.8855 57.3414,23.8855l17.6421 0 3.92363 13.9665 26.5866 0 3.81969 -13.9665 35.537 0 3.92363 13.9665 26.5866 0 3.81969 -13.9665 35.537 0 3.92363 13.9665 26.5866 0 3.81851 -13.9665 35.5382 0 3.92363 13.9665 26.5843 0 3.81969 -13.9665 35.5382 0 3.92363 13.9665 26.5855 0 3.81969 -13.9665 35.537 0 3.92481 13.9665 26.5855 0 3.81969 -13.9665 35.537 0 3.92481 13.9665 26.5855 0 3.81969 -13.9665 35.537 0 3.92363 13.9665 26.5866 0 3.81969 -13.9665 35.537 0 3.92363 13.9665 26.5866 0 3.81969 -13.9665 35.537 0 3.92363 13.9665 26.5866 0 3.81969 -13.9665 35.537 0 3.92363 13.9665 26.5855 0 3.81851 -13.9665 35.5394 0 3.92363 13.9665 26.5843 0 3.81969 -13.9665 35.537 0 3.92481 13.9665 26.5855 0 3.81969 -13.9665 19.3937 0c22.304,0 42.6048,-9.14883 57.3414,-23.8855 14.7366,-14.7354 23.8855,-35.0362 23.8855,-57.3414l0 -0.0011811c0,-22.304 -9.14883,-42.6059 -23.8855,-57.3414 -14.7366,-14.7366 -35.0374,-23.8855 -57.3414,-23.8855z"/>
  <path class="fil14" d="M881.557 1053.98c-53.5678,-78.4938 -86.4981,-144.504 -91.5579,-144.504l-142.139 0 0 220.311 285.045 0c-17.0658,-25.4173 -34.4906,-51.1619 -51.3485,-75.8068z"/>
  <rect class="fil14" x="402.101" y="909.473" width="224.4" height="220.311"/>
 </g>
 <rect class="fil15" width="2048" height="2048"/>
</svg>
