<?xml version="1.0" encoding="UTF-8"?>
<!DOCTYPE svg PUBLIC "-//W3C//DTD SVG 1.1//EN" "http://www.w3.org/Graphics/SVG/1.1/DTD/svg11.dtd">
<!-- Creator: CorelDRAW -->
<svg xmlns="http://www.w3.org/2000/svg" xml:space="preserve" width="2048px" height="2048px" style="shape-rendering:geometricPrecision; text-rendering:geometricPrecision; image-rendering:optimizeQuality; fill-rule:evenodd; clip-rule:evenodd"
viewBox="0 0 2048 2048"
 xmlns:xlink="http://www.w3.org/1999/xlink">
 <defs>
  <style type="text/css">
   <![CDATA[
    .fil4 {fill:none}
    .fil2 {fill:#8C7F4D}
    .fil3 {fill:#E0F7FA}
    .fil1 {fill:#988952;fill-rule:nonzero}
    .fil0 {fill:#B4A15D;fill-rule:nonzero}
   ]]>
  </style>
 </defs>
 <g id="Layer_x0020_1">
  <metadata id="CorelCorpID_0Corel-Layer"/>
  <path class="fil0" d="M1414.77 823.275c0,-17.6728 -14.328,-32.0008 -32.0008,-32.0008 -17.6728,0 -32.0008,14.328 -32.0008,32.0008l0 153.414c0,17.6728 14.328,32.0008 32.0008,32.0008 17.6728,0 32.0008,-14.328 32.0008,-32.0008l0 -153.414z"/>
  <path class="fil0" d="M1563.45 912.487c0,-17.6728 -14.328,-32.0008 -32.0008,-32.0008 -17.6728,0 -32.0008,14.328 -32.0008,32.0008l0 152.687c0,17.6728 14.328,32.0008 32.0008,32.0008 17.6728,0 32.0008,-14.328 32.0008,-32.0008l0 -152.687z"/>
  <path class="fil0" d="M671.327 823.275c0,-17.6728 -14.328,-32.0008 -32.0008,-32.0008 -17.6728,0 -32.0008,14.328 -32.0008,32.0008l0 153.414c0,17.6728 14.328,32.0008 32.0008,32.0008 17.6728,0 32.0008,-14.328 32.0008,-32.0008l0 -153.414z"/>
  <path class="fil0" d="M522.642 912.487c0,-17.6728 -14.328,-32.0008 -32.0008,-32.0008 -17.6728,0 -32.0008,14.328 -32.0008,32.0008l0 152.687c0,17.6728 14.328,32.0008 32.0008,32.0008 17.6728,0 32.0008,-14.328 32.0008,-32.0008l0 -152.687z"/>
  <polygon class="fil1" points="1216.51,850.608 1695.9,1127.38 1711.9,1136.62 1711.9,1155.01 1711.9,1303.27 1711.9,1335.28 1679.9,1335.28 1200.51,1335.28 1200.51,1271.27 1184.51,905.858 "/>
  <path class="fil1" d="M847.489 1335.28l-479.385 0 -32.0008 0 0 -32.0008 0 -148.267 0 -18.3874 16.0004 -9.23741 479.385 -276.774c10.6559,18.398 16.0004,463.354 16.0004,484.667z"/>
  <path class="fil0" d="M819.318 1760c0,17.6728 14.328,32.0008 32.0008,32.0008 17.6728,0 32.0008,-14.328 32.0008,-32.0008l0 -103.729 140.681 -56.2725 144.509 32.6126 0 127.389c0,17.6728 14.328,32.0008 32.0008,32.0008 17.6728,0 32.0008,-14.328 32.0008,-32.0008l0 -995.555c0.0791339,-3.86811 -0.546851,-7.81654 -1.95945,-11.6681l-0.0437008 0.0165354 -174.002 -474.183c-2.84055,-9.22796 -9.80434,-17.0705 -19.5673,-20.6528 -16.591,-6.08741 -34.9772,2.42717 -41.0646,19.0181l30.0414 11.0232 -30 -10.9996 -173.954 474.051c-1.69843,3.90709 -2.64331,8.21812 -2.64331,12.75l0 996.2z"/>
  <polygon class="fil0" points="1222.89,1374.49 1464.61,1613.09 1474.24,1622.59 1474.24,1635.84 1474.24,1722.79 1474.24,1766.09 1432.86,1753.29 1024.29,1626.85 615.26,1755.24 573.76,1768.27 573.76,1724.75 573.76,1637.79 573.76,1624.54 583.386,1615.04 825.114,1376.45 "/>
  <rect class="fil2" x="894.836" y="652.373" width="255" height="492.5" rx="127.5" ry="127.5"/>
  <rect class="fil3" x="910.835" y="668.372" width="223.002" height="460.502" rx="111.501" ry="111.501"/>
  <path class="fil2" d="M696.922 1596.69c50.1603,40.8544 57.8658,-43.4433 73.3312,61.3796 -18.6154,1.68543 -46.7079,-22.1776 -62.5453,-12.2528l-33.4264 20.9433c-70.6678,44.2784 -24.4654,-108.438 22.6406,-70.0701z"/>
  <path class="fil2" d="M986.924 1506.33c0.552756,42.6508 46.4492,10.8921 -0.0283465,63.052 -8.72599,-8.70237 -8.53938,-33.0047 -20.2583,-36.8185l-24.7311 -8.04804c-52.2874,-17.015 44.4992,-58.2414 45.0178,-18.1854z"/>
  <path class="fil2" d="M817.992 1536.2c-39.3154,-16.5437 -28.5532,38.2229 -57.7843,-25.2307 11.465,-4.52008 33.6662,5.36575 41.8465,-3.85158l17.2642 -19.4528c36.4973,-41.1248 35.5961,64.0725 -1.32638,48.5351z"/>
  <path class="fil2" d="M1184.31 1184.69c0.552756,42.6437 46.4422,10.891 -0.0283465,63.0426 -8.72481,-8.70119 -8.5382,-33 -20.2547,-36.8126l-24.7276 -8.04686c-52.278,-17.0114 44.4922,-58.2319 45.0107,-18.1831z"/>
  <path class="fil2" d="M890.625 1364.44c61.3229,-7.34882 8.54646,-68.5512 90.7867,-9.64725 -11.1898,13.9016 -46.2083,17.3658 -49.8981,34.8236l-7.78819 36.8457c-16.4646,77.8949 -90.6922,-55.1221 -33.1004,-62.0221z"/>
  <path class="fil2" d="M1159.04 1473.88c-50.1591,40.8544 -57.8658,-43.4433 -73.3312,61.3796 18.6154,1.68543 46.7079,-22.1776 62.5465,-12.2528l33.4264 20.9433c70.6666,44.2784 24.4654,-108.438 -22.6417,-70.0701z"/>
  <path class="fil2" d="M1409.25 1650.81c-20.0221,16.6677 -23.4898,-17.2441 -29.2654,25.0335 7.50355,0.598819 18.7134,-9.13229 25.1339,-5.20394l13.5508 8.29016c28.6488,17.5252 9.38505,-43.7729 -9.4193,-28.1197z"/>
  <path class="fil2" d="M1097.44 1325.49c-66.0426,-7.91339 -9.20434,-73.826 -97.7741,-10.389 12.0508,14.9717 49.7646,18.7028 53.739,37.5048l8.38701 39.6803c17.7319,83.8902 97.6713,-59.3634 35.6481,-66.7961z"/>
  <path class="fil2" d="M955.835 1167.06c-54.2788,29.1697 -27.1276,-61.8603 -80.0008,44.3882 13.5425,6.94016 44.3268,-10.4327 52.5225,4.42441l17.2961 31.3571c36.5681,66.2906 61.1563,-107.565 10.1823,-80.1697z"/>
  <path class="fil2" d="M1281.4 1631.08c-39.3154,-16.5437 -28.5532,38.2229 -57.7843,-25.2307 11.465,-4.52008 33.6662,5.36575 41.8465,-3.85158l17.2642 -19.4528c36.4973,-41.1248 35.5961,64.0725 -1.32638,48.5351z"/>
  <path class="fil2" d="M1082.69 1203.63c-20.0221,16.6677 -23.4898,-17.2441 -29.2654,25.0335 7.50355,0.598819 18.7134,-9.13229 25.1339,-5.20394l13.5508 8.29016c28.6488,17.5252 9.38505,-43.7729 -9.4193,-28.1197z"/>
  <path class="fil2" d="M1009.84 552.551c-56.2394,-6.73938 -7.83898,-62.8689 -83.2619,-8.84764 10.2626,12.7488 42.3792,15.926 45.763,31.9382l7.14213 33.7902c15.0992,71.439 83.1745,-50.5524 30.3567,-56.8808z"/>
  <path class="fil2" d="M1014.59 372.544c-20.0221,16.6677 -23.4898,-17.2441 -29.2654,25.0335 7.50355,0.598819 18.7134,-9.13229 25.1339,-5.20394l13.5508 8.29016c28.6488,17.5252 9.38505,-43.7729 -9.4193,-28.1197z"/>
  <path class="fil2" d="M1155.63 597.682c0.552756,42.6437 46.4422,10.891 -0.0283465,63.0426 -8.72481,-8.70119 -8.5382,-33 -20.2547,-36.8126l-24.7276 -8.04686c-52.278,-17.0114 44.4922,-58.2319 45.0107,-18.1831z"/>
  <path class="fil2" d="M1082.72 453.366c0.552756,42.6508 46.4492,10.8921 -0.0283465,63.052 -8.72599,-8.70237 -8.53938,-33.0047 -20.2583,-36.8185l-24.7311 -8.04804c-52.2874,-17.015 44.4992,-58.2414 45.0178,-18.1854z"/>
  <path class="fil2" d="M1189.14 825.95c-20.0221,16.6677 -23.4898,-17.2441 -29.2654,25.0335 7.50355,0.598819 18.7134,-9.13229 25.1339,-5.20394l13.5508 8.29016c28.6488,17.5252 9.38505,-43.7729 -9.4193,-28.1197z"/>
  <path class="fil2" d="M1030.15 297.665c-20.0221,16.6677 -23.4898,-17.2441 -29.2654,25.0335 7.50355,0.598819 18.7134,-9.13229 25.1339,-5.20394l13.5508 8.29016c28.6488,17.5252 9.38505,-43.7729 -9.4193,-28.1197z"/>
  <path class="fil2" d="M847.071 764.608c-6.52441,25.2225 -29.139,-0.285827 -9.1441,37.4103 6.44174,-3.89528 9.86103,-18.3402 17.3669,-18.9l15.8421 -1.1811c33.4902,-2.49803 -17.9386,-41.0162 -24.065,-17.3291z"/>
  <path class="fil2" d="M873.486 886.541c-25.7327,-4.07008 -2.51575,-29.0315 -38.1154,-5.50512 4.49646,6.03662 19.2024,8.05158 20.4815,15.4689l2.69764 15.6555c5.70591,33.0945 39.1028,-21.7973 14.9362,-25.6193z"/>
  <path class="fil2" d="M865.699 1027.15c-28.9689,7.34764 -15.7819,-29.4673 -42.6733,11.4343 7.47048,4.33111 23.8855,-0.194882 28.5886,7.04646l9.92481 15.2823c20.9811,32.3103 31.3642,-40.663 4.15985,-33.763z"/>
  <path class="fil2" d="M1180.43 979.428c-6.52441,25.2225 -29.139,-0.285827 -9.1441,37.4103 6.44174,-3.89528 9.86103,-18.3402 17.3669,-18.9l15.8421 -1.1811c33.4902,-2.49803 -17.9386,-41.0162 -24.065,-17.3291z"/>
  <path class="fil2" d="M1206.85 1101.36c-25.7327,-4.07008 -2.51575,-29.0315 -38.1154,-5.50512 4.49646,6.03662 19.2024,8.05158 20.4815,15.4689l2.69764 15.6555c5.70591,33.0945 39.1028,-21.7973 14.9362,-25.6193z"/>
 </g>
 <rect class="fil4" width="2048" height="2048"/>
</svg>
