<?xml version="1.0" encoding="UTF-8"?>
<!DOCTYPE svg PUBLIC "-//W3C//DTD SVG 1.1//EN" "http://www.w3.org/Graphics/SVG/1.1/DTD/svg11.dtd">
<!-- Creator: CorelDRAW -->
<svg xmlns="http://www.w3.org/2000/svg" xml:space="preserve" width="2048px" height="2048px" style="shape-rendering:geometricPrecision; text-rendering:geometricPrecision; image-rendering:optimizeQuality; fill-rule:evenodd; clip-rule:evenodd"
viewBox="0 0 2048 2048"
 xmlns:xlink="http://www.w3.org/1999/xlink">
 <defs>
  <style type="text/css">
   <![CDATA[
    .fil7 {fill:none}
    .fil4 {fill:#212121}
    .fil2 {fill:#424242}
    .fil3 {fill:#616161}
    .fil6 {fill:#817649}
    .fil1 {fill:#8C7F4D;fill-rule:nonzero}
    .fil5 {fill:#A59457;fill-rule:nonzero}
    .fil0 {fill:#B4A15D;fill-rule:nonzero}
   ]]>
  </style>
 </defs>
 <g id="Layer_x0020_1">
  <metadata id="CorelCorpID_0Corel-Layer"/>
  <path class="fil0" d="M404.978 879.999l1174.52 0c36.3331,0 69.3426,14.8417 93.2516,38.7496 23.9091,23.9091 38.7508,56.9197 38.7508,93.2505l0 124 0 32.0008 -32.0008 0 -1374.53 0 -32.0008 0 0 -32.0008 0 -124c0,-36.3307 14.8417,-69.3414 38.7508,-93.2505 23.9091,-23.9079 56.9185,-38.7496 93.2516,-38.7496z"/>
  <path class="fil1" d="M1711.5 1075.8l0 60.202 0 32.0008 -32.0008 0 -1374.53 0 -32.0008 0 0 -32.0008 0 -41.0504c33.0036,-38.8453 84.8091,-52.8496 137.093,-52.8496l1182.65 0c32.3197,0 68.315,3.86929 97.2993,19.2012 7.96772,4.21536 15.1524,9.06142 21.4843,14.4969z"/>
  <g id="_375979192">
   <path id="_385731472" class="fil2" d="M1592.72 1074.1l-1182.65 0c-67.8485,0 -108.442,25.0169 -126.874,63.5646 -10.8425,22.6772 -12.9721,49.0642 -7.67953,76.9016 4.83071,25.3996 15.9437,52.5083 32.2217,79.2142 55.1977,90.5658 173.012,179.45 307.132,179.45l619.213 0c144.21,0 149.998,-4.22363 249.976,-77.1473 6.77481,-4.94292 -13.0725,9.53859 20.1626,-14.5559 68.9327,-49.9737 143.378,-113.134 180.52,-165.969 15.6898,-22.3181 25.4457,-43.9087 26.8075,-63.7252 1.81063,-26.3091 -9.11457,-47.7626 -36.4914,-62.2453 -18.7465,-9.91654 -45.6461,-15.4878 -82.3359,-15.4878z"/>
   <path id="_385731160" class="fil3" d="M417.002 1133.3c-19.4693,0 -37.0996,7.89449 -49.8603,20.6551 -12.7618,12.7618 -20.6551,30.3898 -20.6551,49.8603 0,19.4705 7.89331,37.0996 20.6551,49.8615 12.7606,12.7606 30.391,20.6551 49.8603,20.6551 19.4705,0 37.1008,-7.89331 49.8615,-20.6551 12.7606,-12.7606 20.6551,-30.391 20.6551,-49.8615 0,-19.4705 -7.89449,-37.0985 -20.6551,-49.8603 -12.7606,-12.7618 -30.391,-20.6551 -49.8615,-20.6551z"/>
   <path id="_375971056" class="fil3" d="M968.339 1135.65c-34.141,0 -65.0552,13.8437 -87.4312,36.2197 -22.3784,22.3772 -36.2197,53.2902 -36.2197,87.4312 0,34.1398 13.8413,65.0552 36.2197,87.4324 22.376,22.376 53.2902,36.2197 87.4312,36.2197 34.141,0 65.0552,-13.8413 87.4324,-36.2197 22.376,-22.376 36.2197,-53.2914 36.2197,-87.4324 0,-34.141 -13.8437,-65.0552 -36.2197,-87.4312 -22.3772,-22.3784 -53.2914,-36.2197 -87.4324,-36.2197z"/>
   <path id="_375979720" class="fil3" d="M671.762 1135.65c-34.141,0 -65.0552,13.8437 -87.4312,36.2197 -22.3784,22.3772 -36.2197,53.2902 -36.2197,87.4312 0,34.1398 13.8413,65.0552 36.2197,87.4324 22.376,22.376 53.2902,36.2197 87.4312,36.2197 34.1398,0 65.054,-13.8413 87.4324,-36.2197 22.376,-22.376 36.2197,-53.2914 36.2197,-87.4324 0,-34.141 -13.8437,-65.0552 -36.2197,-87.4312 -22.3784,-22.3784 -53.2926,-36.2197 -87.4324,-36.2197z"/>
   <path id="_375979696" class="fil3" d="M1264.92 1135.65c-34.141,0 -65.0552,13.8437 -87.4312,36.2197 -22.376,22.376 -36.2197,53.2902 -36.2197,87.4312 0,34.1398 13.8402,65.0552 36.2197,87.4324 22.376,22.376 53.2902,36.2197 87.4312,36.2197 34.1422,0 65.054,-13.8413 87.4324,-36.2197 22.3784,-22.3772 36.2197,-53.289 36.2197,-87.4324 0,-34.141 -13.8437,-65.0552 -36.2197,-87.4312 -22.3784,-22.3784 -53.2926,-36.2197 -87.4324,-36.2197z"/>
   <path id="_375979552" class="fil4" d="M1224.68 1219.06c10.2945,-10.2957 24.5221,-16.6642 40.2402,-16.6642 15.7169,0 29.9457,6.36733 40.2414,16.6642 10.2945,10.2945 16.6642,24.5232 16.6642,40.2402 0,15.7181 -6.36851,29.9457 -16.6642,40.2414 -10.2957,10.2957 -24.5232,16.6642 -40.2414,16.6642 -15.7181,0 -29.9457,-6.36969 -40.2402,-16.6642 -10.2969,-10.2957 -16.6654,-24.5244 -16.6654,-40.2414 0,-15.7169 6.36969,-29.9457 16.6654,-40.2402z"/>
   <path id="_375979336" class="fil4" d="M928.099 1219.06c10.2945,-10.2957 24.5232,-16.6642 40.2402,-16.6642 15.7169,0 29.9469,6.36733 40.2414,16.6642 10.2945,10.2945 16.6642,24.5232 16.6642,40.2402 0,15.7181 -6.36969,29.9457 -16.6642,40.2414 -10.2945,10.2957 -24.5244,16.6642 -40.2414,16.6642 -15.7169,0 -29.9457,-6.36969 -40.2402,-16.6642 -10.2957,-10.2957 -16.6642,-24.5244 -16.6642,-40.2414 0,-15.7169 6.36851,-29.9457 16.6642,-40.2402z"/>
   <path id="_375979528" class="fil4" d="M631.522 1219.06c10.2945,-10.2957 24.5221,-16.6642 40.2402,-16.6642 15.7169,0 29.9457,6.36733 40.2414,16.6642 10.2945,10.2945 16.6642,24.5232 16.6642,40.2402 0,15.7181 -6.36969,29.9457 -16.6642,40.2414 -10.2957,10.2957 -24.5244,16.6642 -40.2414,16.6642 -15.7181,0 -29.9457,-6.36969 -40.2402,-16.6642 -10.2969,-10.2957 -16.6654,-24.5244 -16.6654,-40.2414 0,-15.7169 6.36851,-29.9457 16.6654,-40.2402z"/>
   <path id="_375978688" class="fil4" d="M394.054 1180.87c5.87008,-5.87008 13.9854,-9.50316 22.9477,-9.50316 8.96339,0 17.0788,3.63189 22.95,9.50316 5.87008,5.87245 9.50316,13.9854 9.50316,22.9488 0,8.96339 -3.63307,17.0788 -9.50316,22.9488 -5.87126,5.87245 -13.9866,9.50434 -22.95,9.50434 -8.96221,0 -17.0776,-3.63189 -22.9477,-9.50434 -5.87126,-5.87008 -9.50434,-13.9854 -9.50434,-22.9488 0,-8.96339 3.63307,-17.0764 9.50434,-22.9488z"/>
   <path id="_375978640" class="fil3" d="M1518.29 1133.3c-19.4693,0 -37.0996,7.89449 -49.8603,20.6551 -12.763,12.7618 -20.6551,30.3898 -20.6551,49.8603 0,19.4705 7.89213,37.0996 20.6551,49.8615 12.7606,12.7606 30.391,20.6551 49.8603,20.6551 19.4705,0 37.0996,-7.89331 49.8615,-20.6551 12.7606,-12.7606 20.6551,-30.391 20.6551,-49.8615 0,-19.4705 -7.89449,-37.0985 -20.6551,-49.8603 -12.7618,-12.7618 -30.391,-20.6551 -49.8615,-20.6551z"/>
   <path id="_375978544" class="fil4" d="M1495.34 1180.87c5.87008,-5.87008 13.9854,-9.50316 22.9477,-9.50316 8.96339,0 17.0776,3.63189 22.95,9.50316 5.87008,5.87245 9.50316,13.9854 9.50316,22.9488 0,8.96339 -3.63307,17.0788 -9.50316,22.9488 -5.87245,5.87245 -13.9866,9.50434 -22.95,9.50434 -8.96221,0 -17.0776,-3.63189 -22.9477,-9.50434 -5.87245,-5.87008 -9.50434,-13.9854 -9.50434,-22.9488 0,-8.96339 3.63189,-17.0764 9.50434,-22.9488z"/>
  </g>
  <path class="fil5" d="M670.545 658l204.148 0c104.636,0 145.298,80.7768 190.663,170.906 15.887,31.5626 32.4331,64.4363 51.9626,93.2209l37.9063 55.8733 -750.247 0c-5.18859,0 -10.3465,0.248032 -15.4606,0.732284l38.4024 -56.6056c19.5307,-28.7882 36.0768,-61.6607 51.9638,-93.2221 45.3662,-90.13 86.0221,-170.904 190.662,-170.904z"/>
  <path class="fil5" d="M1007.19 827.871l678.547 0c13.2756,0 24.6638,-5.84646 29.5087,-14.1744 10.2083,-14.6728 16.9205,-29.713 17.8134,-45.3567 0.983859,-17.2347 -5.03268,-34.3252 -20.9374,-51.2032l0.056693 -0.0283465c-6.24922,-6.62953 -16.4232,-10.1717 -26.7449,-10.1067l-703.697 0c-17.6728,0 -32.0008,10.3618 -32.0008,23.1425 21.0059,15.1914 51.9886,97.7268 57.4536,97.7268z"/>
  <path class="fil6" d="M683.441 755.666c6.73938,-56.2394 62.8689,-7.83898 8.84764,-83.2619 -12.7488,10.2626 -15.926,42.3792 -31.9382,45.763l-33.7902 7.14213c-71.439,15.0992 50.5524,83.1745 56.8808,30.3567z"/>
  <path class="fil6" d="M814.405 712.58c-16.6677,-20.0221 17.2441,-23.4898 -25.0335,-29.2654 -0.598819,7.50355 9.13229,18.7134 5.20394,25.1339l-8.29016 13.5508c-17.5252,28.6488 43.7729,9.38505 28.1197,-9.4193z"/>
  <path class="fil6" d="M660.655 910.079c-42.6437,0.552756 -10.891,46.4422 -63.0426,-0.0283465 8.70119,-8.72481 33,-8.5382 36.8126,-20.2547l8.04686 -24.7276c17.0114,-52.278 58.2319,44.4922 18.1831,45.0107z"/>
  <path class="fil6" d="M815.932 827.156c-42.6508,0.552756 -10.8921,46.4492 -63.052,-0.0283465 8.70237,-8.72599 33.0047,-8.53938 36.8185,-20.2583l8.04804 -24.7311c17.015,-52.2874 58.2414,44.4992 18.1854,45.0178z"/>
  <path class="fil6" d="M691.731 825.943c10.3689,-23.8996 28.7386,4.81654 14.8524,-35.5311 -6.96851,2.84528 -12.5941,16.5815 -20.0953,15.9662l-15.8327 -1.29685c-33.4713,-2.7437 11.3374,43.3075 21.0756,20.8618z"/>
  <path class="fil6" d="M577.535 883.749c-40.8544,50.1603 43.4433,57.8658 -61.3796,73.3312 -1.68543,-18.6154 22.1776,-46.7079 12.2528,-62.5453l-20.9433 -33.4264c-44.2784,-70.6678 108.438,-24.4654 70.0701,22.6406z"/>
  <path class="fil6" d="M1011.36 845.382c7.34882,61.3229 68.5512,8.54646 9.64725,90.7867 -13.9016,-11.1898 -17.3658,-46.2083 -34.8236,-49.8981l-36.8457 -7.78819c-77.8949,-16.4646 55.1221,-90.6922 62.0221,-33.1004z"/>
  <path class="fil6" d="M890.09 932.825c-29.1697,-54.2788 61.8603,-27.1276 -44.3882,-80.0008 -6.94016,13.5425 10.4327,44.3268 -4.42441,52.5225l-31.3571 17.2961c-66.2906,36.5681 107.565,61.1563 80.1697,10.1823z"/>
  <path class="fil6" d="M739.605 924.457c-16.6677,-20.0221 17.2441,-23.4898 -25.0335,-29.2654 -0.598819,7.50355 9.13229,18.7134 5.20394,25.1339l-8.29016 13.5508c-17.5252,28.6488 43.7729,9.38505 28.1197,-9.4193z"/>
  <path class="fil6" d="M933.353 778.809c13.1043,-30.2044 36.3201,6.08741 18.7713,-44.9044 -8.80749,3.59528 -15.9165,20.9563 -25.3973,20.1791l-20.0091 -1.64055c-42.3012,-3.46772 14.328,54.7323 26.6351,26.3658z"/>
  <path class="fil6" d="M1119.18 740.051c5.29607,44.1933 49.4008,6.15945 6.95197,65.426 -10.0181,-8.06339 -12.515,-33.3 -25.0961,-35.9599l-26.5524 -5.61142c-56.1367,-11.8654 39.7229,-65.3587 44.6965,-23.8547z"/>
  <path class="fil6" d="M1525.42 768.719c-16.5118,21.5894 26.713,19.298 -24.9732,31.6654 -2.38465,-6.96851 7.35827,-19.1209 1.04055,-24.5244l-13.3347 -11.4047c-28.1906,-24.1099 52.7729,-16.011 37.2674,4.26378z"/>
  <path class="fil6" d="M1410.18 771.537c-21.3071,5.16969 -11.3528,-21.737 -31.3914,8.06339 5.44725,3.23386 17.524,0.0389764 20.9185,5.38701l7.16457 11.2866c15.1465,23.863 23.3197,-29.5914 3.30827,-24.737z"/>
  <path class="fil6" d="M1636.9 764.455c10.3689,-23.8996 28.7386,4.81654 14.8524,-35.5311 -6.96851,2.84528 -12.5941,16.5815 -20.0953,15.9662l-15.8327 -1.29685c-33.4713,-2.7437 11.3374,43.3075 21.0756,20.8618z"/>
  <path class="fil6" d="M1296.73 776.085c-16.6677,-20.0221 17.2441,-23.4898 -25.0335,-29.2654 -0.598819,7.50355 9.13229,18.7134 5.20394,25.1339l-8.29016 13.5508c-17.5252,28.6488 43.7729,9.38505 28.1197,-9.4193z"/>
  <path class="fil6" d="M1222.14 752.769c10.3689,-23.8996 28.7386,4.81654 14.8524,-35.5311 -6.96851,2.84528 -12.5941,16.5815 -20.0953,15.9662l-15.8327 -1.29685c-33.4713,-2.7437 11.3374,43.3075 21.0756,20.8618z"/>
 </g>
 <rect class="fil7" width="2048" height="2048"/>
</svg>
