<?xml version="1.0" encoding="UTF-8"?>
<!DOCTYPE svg PUBLIC "-//W3C//DTD SVG 1.1//EN" "http://www.w3.org/Graphics/SVG/1.1/DTD/svg11.dtd">
<!-- Creator: CorelDRAW -->
<svg xmlns="http://www.w3.org/2000/svg" xml:space="preserve" width="2048px" height="2048px" style="shape-rendering:geometricPrecision; text-rendering:geometricPrecision; image-rendering:optimizeQuality; fill-rule:evenodd; clip-rule:evenodd"
viewBox="0 0 2048 2048"
 xmlns:xlink="http://www.w3.org/1999/xlink">
 <defs>
  <style type="text/css">
   <![CDATA[
    .fil7 {fill:none}
    .fil4 {fill:#8C7F4D}
    .fil3 {fill:#B4A15D}
    .fil5 {fill:#C7B988}
    .fil6 {fill:#E1F5FE}
    .fil0 {fill:#424242;fill-rule:nonzero}
    .fil1 {fill:#8C7F4D;fill-rule:nonzero}
    .fil2 {fill:#B4A15D;fill-rule:nonzero}
   ]]>
  </style>
 </defs>
 <g id="Layer_x0020_1">
  <metadata id="CorelCorpID_0Corel-Layer"/>
  <polygon class="fil0" points="976,671.999 976,466.832 1040,466.832 1040,671.999 "/>
  <path class="fil0" d="M339.281 544.499c-17.3965,2.69173 -29.3162,18.9791 -26.6244,36.3756 2.69173,17.3965 18.9791,29.3162 36.3756,26.6244l1327.69 -208.767c17.3965,-2.69173 29.3162,-18.9791 26.6244,-36.3756 -2.69173,-17.3965 -18.9791,-29.3162 -36.3756,-26.6244l-1327.69 208.767z"/>
  <path class="fil0" d="M1666.97 607.499c17.3965,2.69173 33.6839,-9.22796 36.3756,-26.6244 2.69173,-17.3965 -9.22796,-33.6839 -26.6244,-36.3756l-1327.69 -208.767c-17.3965,-2.69173 -33.6839,9.22796 -36.3756,26.6244 -2.69173,17.3965 9.22796,33.6839 26.6244,36.3756l1327.69 208.767z"/>
  <polygon class="fil1" points="480.004,1280 480.004,1339.4 416.002,1339.4 416.002,1280 "/>
  <path class="fil1" d="M448.003 1390.82c-6.73465,0 -12.8303,2.72835 -17.2394,7.13623 -4.40788,4.40788 -7.13623,10.5047 -7.13623,17.2394 0,6.73465 2.72835,12.8315 7.13623,17.2394 4.40788,4.40788 10.5047,7.13623 17.2394,7.13623 6.73465,0 12.8315,-2.72835 17.2394,-7.13623 4.40788,-4.40906 7.13623,-10.5047 7.13623,-17.2394 0,-6.73465 -2.72835,-12.8303 -7.13623,-17.2394 -4.40906,-4.40788 -10.5047,-7.13623 -17.2394,-7.13623zm-62.4898 -38.1142c15.9945,-15.9933 38.0894,-25.8874 62.4898,-25.8874 24.4004,0 46.4953,9.8941 62.4898,25.8874 15.9933,15.9945 25.8874,38.0894 25.8874,62.4898 0,24.4004 -9.8941,46.4953 -25.8874,62.4898 -15.9945,15.9945 -38.0894,25.8874 -62.4898,25.8874 -24.4004,0 -46.4953,-9.89292 -62.4898,-25.8874 -15.9945,-15.9945 -25.8874,-38.0894 -25.8874,-62.4898 0,-24.4004 9.89292,-46.4953 25.8874,-62.4898z"/>
  <path class="fil1" d="M352.001 1280c0,-17.6728 -14.328,-32.0008 -32.0008,-32.0008 -17.6728,0 -32.0008,14.328 -32.0008,32.0008l0 89.8784c0,17.6728 14.328,32.0008 32.0008,32.0008 17.6728,0 32.0008,-14.328 32.0008,-32.0008l0 -89.8784z"/>
  <path class="fil2" d="M1248 1057.11l0 -142.25c0,-57.952 -23.7319,-110.661 -61.963,-148.893 -123.326,-123.326 -418.035,-68.1697 -418.035,148.893l0 142.25c7.65473,-0.733465 15.0921,-1.10787 22.2839,-1.10787l435.43 0c7.19174,0 14.6291,0.37441 22.2839,1.10787zm64.0016 -142.25l0 180.162 0 41.4485 -40.1256 -10.5732c-7.69607,-2.02795 -15.3036,-3.54449 -22.7669,-4.50945 -7.05827,-0.911812 -14.8547,-1.38425 -23.3929,-1.38425l-435.43 0c-8.5382,0 -16.3347,0.472441 -23.3929,1.38425 -7.46339,0.964961 -15.0709,2.4815 -22.7669,4.50945l-40.1256 10.5732 0 -41.4485 0 -180.162c0,-75.6178 30.913,-144.341 80.7142,-194.144 49.8012,-49.8012 118.525,-80.7142 194.143,-80.7142l58.2874 0c75.6178,0 144.341,30.913 194.143,80.7142 49.8012,49.8024 80.7142,118.526 80.7142,194.144z"/>
  <path class="fil2" d="M240 1216c-17.6728,0 -32.0008,14.328 -32.0008,32.0008 0,17.6728 14.328,32.0008 32.0008,32.0008l343.02 0c17.6728,0 32.0008,-14.328 32.0008,-32.0008 0,-17.6728 -14.328,-32.0008 -32.0008,-32.0008l-343.02 0zm1192.98 0c-17.6728,0 -32.0008,14.328 -32.0008,32.0008 0,17.6728 14.328,32.0008 32.0008,32.0008l343.02 0c17.6728,0 32.0008,-14.328 32.0008,-32.0008 0,-17.6728 -14.328,-32.0008 -32.0008,-32.0008l-343.02 0z"/>
  <path class="fil1" d="M820.991 1609.17c12.4949,-12.4949 12.4949,-32.7555 0,-45.2504 -12.4949,-12.4949 -32.7555,-12.4949 -45.2504,0l-119.241 119.241 -0.00236221 -0.00236221c-6.24804,6.24804 -9.37205,14.4378 -9.37205,22.6276l-0.0011811 0 0 86.2146c0,17.6728 14.328,32.0008 32.0008,32.0008 17.6728,0 32.0008,-14.328 32.0008,-32.0008l0 -72.965 109.865 -109.865z"/>
  <path class="fil1" d="M1240.26 1563.92c-12.4949,-12.4949 -32.7555,-12.4949 -45.2504,0 -12.4949,12.4949 -12.4949,32.7555 0,45.2504l109.865 109.865 0 72.965c0,17.6728 14.328,32.0008 32.0008,32.0008 17.6728,0 32.0008,-14.328 32.0008,-32.0008l0 -86.2146 -0.0011811 0c0,-8.18977 -3.12402,-16.3795 -9.37205,-22.6276l-0.00236221 0.00236221 -119.241 -119.241z"/>
  <polygon class="fil1" points="1600,1280 1600,1339.4 1536,1339.4 1536,1280 "/>
  <path class="fil1" d="M1568 1326.82c24.4004,0 46.4953,9.8941 62.4898,25.8874 15.9945,15.9945 25.8874,38.0894 25.8874,62.4898 0,24.4004 -9.89292,46.4953 -25.8874,62.4898 -15.9945,15.9945 -38.0894,25.8874 -62.4898,25.8874 -24.4004,0 -46.4953,-9.89292 -62.4898,-25.8874 -15.9933,-15.9945 -25.8874,-38.0894 -25.8874,-62.4898 0,-24.4004 9.8941,-46.4953 25.8874,-62.4898 15.9945,-15.9933 38.0894,-25.8874 62.4898,-25.8874zm17.2394 71.1378c-4.40906,-4.40788 -10.5047,-7.13623 -17.2394,-7.13623 -6.73465,0 -12.8303,2.72835 -17.2394,7.13623 -4.40788,4.40906 -7.13623,10.5047 -7.13623,17.2394 0,6.73465 2.72835,12.8303 7.13623,17.2394 4.40788,4.40788 10.5047,7.13623 17.2394,7.13623 6.73465,0 12.8315,-2.72835 17.2394,-7.13623 4.40788,-4.40788 7.13623,-10.5047 7.13623,-17.2394 0,-6.73465 -2.72835,-12.8315 -7.13623,-17.2394z"/>
  <path class="fil1" d="M1728 1280c0,-17.6728 -14.328,-32.0008 -32.0008,-32.0008 -17.6728,0 -32.0008,14.328 -32.0008,32.0008l0 89.8784c0,17.6728 14.328,32.0008 32.0008,32.0008 17.6728,0 32.0008,-14.328 32.0008,-32.0008l0 -89.8784z"/>
  <path class="fil3" d="M1312 1071.67c-20.224,-7.6193 -41.6953,-12.6449 -64.0016,-14.6669 -7.34174,-0.666142 -14.7756,-1.0063 -22.2839,-1.0063l-435.43 0c-7.50827,0 -14.9421,0.340158 -22.2839,1.0063 -22.3063,2.02205 -43.7776,7.04764 -64.0016,14.6669 -33.1914,12.5043 -63.0237,31.9937 -87.6792,56.6481 -24.6555,24.6555 -44.1437,54.4878 -56.6481,87.6792 -7.6193,20.224 -12.6461,41.6953 -14.6681,64.0016 -0.664961,7.34174 -1.00512,14.7756 -1.00512,22.2839l0 158.573c0,38.2973 15.6449,73.0914 40.8485,98.295 25.2036,25.2036 59.9977,40.8485 98.295,40.8485l56.5158 0 87.7453 0 361.193 0 87.7453 0 56.5158 0c38.2973,0 73.0914,-15.6449 98.295,-40.8485 25.2036,-25.2036 40.8485,-59.9977 40.8485,-98.295l0 -158.573c0,-7.50827 -0.340158,-14.9421 -1.00512,-22.2839 -2.02205,-22.3063 -7.04882,-43.7776 -14.6681,-64.0016 -12.5043,-33.1914 -31.9925,-63.0237 -56.6481,-87.6792 -24.6555,-24.6543 -54.4878,-44.1437 -87.6792,-56.6481z"/>
  <path class="fil4" d="M1216.54 1266.26c-10.8354,-16.3772 -26.889,-30.9484 -46.9004,-42.9544 -36.0366,-21.6213 -85.3879,-35.0445 -139.348,-35.0445l-44.5725 0c-26.5866,0 -52.05,3.26339 -75.3544,9.163 -24.0555,6.09095 -45.7713,14.948 -63.9934,25.8815 -20.0114,12.0059 -36.065,26.5772 -46.9004,42.9544 -9.95906,15.0543 -15.4665,31.7445 -15.4665,49.4304l0 82.6631 0 11.4579 10.9996 3.66733 205.375 68.4591 15.2528 0 205.375 -68.4591 10.9996 -3.66733 0 -11.4579 0 -82.6631c0,-17.6858 -5.50748,-34.376 -15.4665,-49.4304z"/>
  <path class="fil5" d="M1186.01 1195.93c-40.7929,-24.4748 -95.9859,-39.6697 -155.723,-39.6697l-44.5725 0c-29.1626,0 -57.2516,3.6189 -83.1048,10.1646 -27.0378,6.84567 -51.6839,16.9453 -72.6178,29.5051 -24.124,14.4744 -43.6807,32.3481 -57.15,52.7056 -13.4221,20.289 -20.8429,42.9225 -20.8429,67.0548l0 82.6631 0 22.9158 0 11.4567 11.0008 3.66851 22.0004 7.33465 208.001 69.3343 4.99961 0.875198 20.0008 0 4.99961 -0.875198 208.001 -69.3343 22.0004 -7.33465 11.0008 -3.66851 0 -11.4567 0 -22.9158 0 -82.6631c0,-24.1323 -7.42087,-46.7658 -20.8429,-67.0548 -13.4693,-20.3575 -33.026,-38.2311 -57.15,-52.7056zm-275.649 1.4941c23.3043,-5.89961 48.7678,-9.163 75.3544,-9.163l44.5725 0c53.9599,0 103.311,13.4232 139.348,35.0445 20.0114,12.0059 36.065,26.5772 46.9004,42.9544 9.95906,15.0543 15.4665,31.7445 15.4665,49.4304l0 82.6631 0 11.4579 -10.9996 3.66733 -205.375 68.4591 -15.2528 0 -205.375 -68.4591 -10.9996 -3.66733 0 -11.4579 0 -82.6631c0,-17.6858 5.50748,-34.376 15.4665,-49.4304 10.8354,-16.3772 26.889,-30.9484 46.9004,-42.9544 18.2221,-10.9335 39.9378,-19.7906 63.9934,-25.8815z"/>
  <path class="fil6" d="M1248 1057l0 -142.148c0,-57.952 -23.7319,-110.661 -61.963,-148.893 -123.326,-123.326 -418.035,-68.1697 -418.035,148.893l0 142.148c7.34174,-0.666142 14.7756,-1.0063 22.2839,-1.0063l435.43 0c7.50827,0 14.9421,0.340158 22.2839,1.0063z"/>
  <path class="fil4" d="M704 1136.47c50.1603,40.8544 57.8658,-43.4433 73.3312,61.3796 -18.6154,1.68543 -46.7079,-22.1776 -62.5453,-12.2528l-33.4264 20.9433c-70.6678,44.2784 -24.4654,-108.438 22.6406,-70.0701z"/>
  <path class="fil4" d="M901.811 1152.69c-39.3154,-16.5437 -28.5532,38.2229 -57.7843,-25.2307 11.465,-4.52008 33.6662,5.36575 41.8465,-3.85158l17.2642 -19.4528c36.4973,-41.1248 35.5961,64.0725 -1.32638,48.5351z"/>
  <path class="fil4" d="M1307.87 1115.91c-56.2394,-6.73938 -7.83898,-62.8689 -83.2619,-8.84764 10.2626,12.7488 42.3792,15.926 45.763,31.9382l7.14213 33.7902c15.0992,71.439 83.1745,-50.5524 30.3567,-56.8808z"/>
  <path class="fil4" d="M1354.42 1244.07c-20.0221,16.6677 -23.4898,-17.2441 -29.2654,25.0335 7.50355,0.598819 18.7134,-9.13229 25.1339,-5.20394l13.5508 8.29016c28.6488,17.5252 9.38505,-43.7729 -9.4193,-28.1197z"/>
  <path class="fil4" d="M615.865 1243.6c-20.0221,16.6677 -23.4898,-17.2441 -29.2654,25.0335 7.50355,0.598819 18.7134,-9.13229 25.1339,-5.20394l13.5508 8.29016c28.6488,17.5252 9.38505,-43.7729 -9.4193,-28.1197z"/>
  <path class="fil4" d="M1154.98 1092.03c0.552756,42.6508 46.4492,10.8921 -0.0283465,63.052 -8.72599,-8.70237 -8.53938,-33.0047 -20.2583,-36.8185l-24.7311 -8.04804c-52.2874,-17.015 44.4992,-58.2414 45.0178,-18.1854z"/>
  <path class="fil4" d="M705.557 1307.91c0.552756,42.6437 46.4422,10.891 -0.0283465,63.0426 -8.72481,-8.70119 -8.5382,-33 -20.2547,-36.8126l-24.7276 -8.04686c-52.278,-17.0114 44.4922,-58.2319 45.0107,-18.1831z"/>
  <path class="fil4" d="M1390.38 1324.17c-54.2788,29.1697 -27.1276,-61.8603 -80.0008,44.3882 13.5425,6.94016 44.3268,-10.4327 52.5225,4.42441l17.2961 31.3571c36.5681,66.2906 61.1563,-107.565 10.1823,-80.1697z"/>
  <path class="fil4" d="M625.284 1445.44c61.3229,-7.34882 8.54646,-68.5512 90.7867,-9.64725 -11.1898,13.9016 -46.2083,17.3658 -49.8981,34.8236l-7.78819 36.8457c-16.4646,77.8949 -90.6922,-55.1221 -33.1004,-62.0221z"/>
  <path class="fil4" d="M1338.08 1482.1c-66.0426,-7.91339 -9.20434,-73.826 -97.7741,-10.389 12.0508,14.9717 49.7646,18.7028 53.739,37.5048l8.38701 39.6803c17.7319,83.8902 97.6713,-59.3634 35.6481,-66.7961z"/>
  <path class="fil4" d="M1121.53 1508.39c-42.3685,34.5083 -48.8788,-36.6957 -61.9418,51.8469 15.724,1.42323 39.4536,-18.7335 52.8319,-10.35l28.2343 17.6906c59.6906,37.4008 20.6658,-91.5957 -19.1244,-59.1874z"/>
  <path class="fil4" d="M796.798 1508.93c0.552756,42.6508 46.4492,10.8921 -0.0283465,63.052 -8.72599,-8.70237 -8.53938,-33.0047 -20.2583,-36.8185l-24.7311 -8.04804c-52.2874,-17.015 44.4992,-58.2414 45.0178,-18.1854z"/>
  <path class="fil4" d="M931.821 1521.03c-20.0221,16.6677 -23.4898,-17.2441 -29.2654,25.0335 7.50355,0.598819 18.7134,-9.13229 25.1339,-5.20394l13.5508 8.29016c28.6488,17.5252 9.38505,-43.7729 -9.4193,-28.1197z"/>
 </g>
 <rect class="fil7" width="2048" height="2048"/>
</svg>
