<?xml version="1.0" encoding="UTF-8"?>
<!DOCTYPE svg PUBLIC "-//W3C//DTD SVG 1.1//EN" "http://www.w3.org/Graphics/SVG/1.1/DTD/svg11.dtd">
<!-- Creator: CorelDRAW -->
<svg xmlns="http://www.w3.org/2000/svg" xml:space="preserve" width="2048px" height="2048px" style="shape-rendering:geometricPrecision; text-rendering:geometricPrecision; image-rendering:optimizeQuality; fill-rule:evenodd; clip-rule:evenodd"
viewBox="0 0 2048 2048"
 xmlns:xlink="http://www.w3.org/1999/xlink">
 <defs>
  <style type="text/css">
   <![CDATA[
    .fil3 {fill:none}
    .fil1 {fill:#37474F}
    .fil2 {fill:#E0F7FA}
    .fil0 {fill:#E53935}
   ]]>
  </style>
 </defs>
 <g id="Layer_x0020_1">
  <metadata id="CorelCorpID_0Corel-Layer"/>
  <path class="fil0" d="M478.705 943.528l1084.23 0 145.709 -177.93c16.415,-20.0457 46.0784,-23.0173 66.1335,-6.60945 20.0587,16.4102 23.0315,46.0937 6.61064,66.1453l-159.115 194.302c-9.18308,11.2146 -22.4823,18.137 -37.0949,18.137l-1128.72 -0.0011811c-8.71536,0 -17.1272,-2.40118 -24.3933,-6.8126l-2.05394 1.68071 -9.00827 -11.002c-0.314173,-0.360236 -0.622441,-0.725197 -0.925985,-1.09606l-9.92954 -12.1252 0.0165354 -0.0141732 -143.557 -175.305c-16.4209,-20.0516 -13.448,-49.7351 6.61064,-66.1441 20.0551,-16.4079 49.7185,-13.4374 66.1335,6.60945l139.35 170.165z"/>
  <path class="fil1" d="M1494.74 1079.66c-15.6862,-15.6874 -35.4012,-27.3484 -57.4571,-33.3012 -10.7268,-2.89488 -22.0075,-4.43859 -33.6485,-4.43859 -11.641,0 -22.9217,1.5437 -33.6473,4.43859 -22.0559,5.95158 -41.7709,17.6126 -57.4583,33.3012 -23.3173,23.3173 -37.7398,55.5308 -37.7398,91.1056 0,35.576 14.4236,67.7894 37.7398,91.1056 23.3185,23.3185 55.5296,37.741 91.1056,37.741 35.576,0 67.7882,-14.4225 91.1068,-37.7398 23.3173,-23.3185 37.7398,-55.5308 37.7398,-91.1068 0,-35.576 -14.4225,-67.7882 -37.741,-91.1056z"/>
  <path class="fil1" d="M735.471 1079.66c-15.6874,-15.6874 -35.4012,-27.3484 -57.4571,-33.3012 -10.7268,-2.89488 -22.0075,-4.43859 -33.6485,-4.43859 -11.641,0 -22.9217,1.5437 -33.6473,4.43859 -22.0559,5.95158 -41.7709,17.6126 -57.4583,33.3012 -23.3173,23.3173 -37.7398,55.5308 -37.7398,91.1056 0,35.576 14.4236,67.7894 37.7398,91.1056 23.3173,23.3185 55.5296,37.741 91.1056,37.741 35.576,0 67.7882,-14.4225 91.1068,-37.7398 23.3173,-23.3185 37.7398,-55.5308 37.7398,-91.1068 0,-35.576 -14.4225,-67.7882 -37.741,-91.1056z"/>
  <path class="fil2" d="M692.271 1122.86c-8.24883,-8.24764 -18.6142,-14.3799 -30.2126,-17.5099 -5.63977,-1.52244 -11.5713,-2.33386 -17.6929,-2.33386 -6.12048,0 -12.052,0.811418 -17.6917,2.33386 -11.5973,3.12992 -21.9638,9.26103 -30.2126,17.5099 -12.261,12.261 -19.8449,29.1992 -19.8449,47.9055 0,18.7063 7.58505,35.6445 19.8449,47.9055 12.261,12.261 29.1981,19.8449 47.9044,19.8449 18.7075,0 35.6445,-7.58386 47.9055,-19.8449 12.261,-12.261 19.8449,-29.1992 19.8449,-47.9055 0,-18.7063 -7.58386,-35.6445 -19.8449,-47.9055z"/>
  <path class="fil2" d="M1451.54 1122.86c-8.24883,-8.24764 -18.6142,-14.3799 -30.2126,-17.5099 -5.63977,-1.52244 -11.5713,-2.33386 -17.6929,-2.33386 -6.12048,0 -12.052,0.811418 -17.6917,2.33386 -11.5973,3.12992 -21.9638,9.26103 -30.2126,17.5099 -12.261,12.261 -19.8449,29.1992 -19.8449,47.9055 0,18.7063 7.58505,35.6445 19.8449,47.9055 12.261,12.261 29.1981,19.8449 47.9044,19.8449 18.7075,0 35.6445,-7.58386 47.9055,-19.8449 12.261,-12.261 19.8449,-29.1992 19.8449,-47.9055 0,-18.7063 -7.58386,-35.6445 -19.8449,-47.9055z"/>
 </g>
 <rect class="fil3" width="2048" height="2048"/>
</svg>
