<svg xmlns="http://www.w3.org/2000/svg"  viewBox="0 0 48 48" width="48px" height="48px"><path fill="#58777e" d="M35.173,27.943c1.706,1.159,3.895,3.634,5.017,6.188c1.122,2.554,1.683,5.211,1.049,6.005 c-0.633,0.794-1.284,2.347,0.44,2.425c1.725,0.078,3.15-0.121,3.87-0.134s1.362-1.148,0.882-2.608 c-0.48-1.46-2.279-6.172-2.047-7.656c0.233-1.484,0.428-6.836-1.134-10.066C38.345,19.322,32.101,25.483,35.173,27.943z"/><path fill="#59787f" d="M35.192,27.81c-2.279-1.942,1.141-6.118,5.048-6.347c0.987-0.058,2.003,0.136,2.965,0.677 c1.547,3.216,1.352,8.535,1.121,10.013c-0.231,1.474,1.511,6.063,2.021,7.605c0.053,0.16,0.093,0.317,0.121,0.469 c0.081,0.438,0.063,0.831-0.019,1.156c-0.148,0.592-0.515,0.969-0.907,0.985c-0.179,0.004-0.4,0.018-0.659,0.037 c-0.478,0.035-1.082,0.085-1.772,0.105l0,0c-0.203,0.006-0.414,0.009-0.632,0.009c-0.03,0-0.06,0-0.09-0.001 c-0.227-0.012-0.457-0.039-0.689-0.062c-1.586-0.153-0.962-1.64-0.395-2.472c0.427-0.626,0.221-2.194-0.324-3.915 c-0.214-0.676-0.486-1.38-0.799-2.076c-0.896-1.987-2.422-3.91-3.847-5.193C35.936,28.434,35.534,28.104,35.192,27.81z"/><path fill="#5b7980" d="M35.211,27.677c-2.102-1.917,1.242-5.94,5.05-6.155c0.967-0.054,1.959,0.136,2.898,0.661 c1.531,3.203,1.338,8.489,1.108,9.96c-0.229,1.464,1.456,5.93,1.996,7.553c0.052,0.159,0.093,0.314,0.122,0.464 c0.085,0.435,0.072,0.824,0.003,1.144c-0.129,0.597-0.478,0.98-0.852,1.003c-0.181,0.004-0.406,0.019-0.668,0.038 c-0.485,0.036-1.096,0.086-1.794,0.104l0,0c-0.206,0.006-0.42,0.008-0.64,0.007c-0.031,0-0.061-0.001-0.091-0.001 c-0.21-0.022-0.415-0.072-0.62-0.105c-1.443-0.232-0.851-1.653-0.349-2.519c0.394-0.679,0.152-2.254-0.381-3.909 c-0.217-0.676-0.496-1.376-0.814-2.068c-0.922-1.992-2.461-3.902-3.877-5.161C35.911,28.34,35.513,28.006,35.211,27.677z"/><path fill="#5c7a81" d="M35.229,27.544c-1.926-1.892,1.343-5.761,5.052-5.962c0.947-0.05,1.915,0.137,2.832,0.646 c1.515,3.19,1.324,8.443,1.094,9.907c-0.228,1.454,1.4,5.796,1.97,7.501c0.052,0.157,0.093,0.31,0.123,0.46 c0.088,0.432,0.082,0.817,0.025,1.132c-0.109,0.602-0.442,0.99-0.798,1.021c-0.184,0.004-0.412,0.019-0.677,0.039 c-0.491,0.036-1.11,0.086-1.816,0.104l0,0c-0.209,0.005-0.426,0.007-0.649,0.006c-0.032,0-0.062-0.001-0.092-0.001 c-0.192-0.033-0.372-0.106-0.55-0.149C40.449,41.93,41,40.576,41.439,39.68c0.36-0.734,0.081-2.314-0.439-3.904 c-0.221-0.676-0.506-1.373-0.829-2.059c-0.948-1.998-2.499-3.895-3.908-5.129C35.885,28.245,35.491,27.907,35.229,27.544z"/><path fill="#5d7b82" d="M35.248,27.41c-1.75-1.867,1.445-5.583,5.054-5.769c0.927-0.047,1.872,0.137,2.765,0.63 c1.499,3.176,1.309,8.397,1.081,9.854c-0.226,1.444,1.345,5.663,1.945,7.449c0.052,0.155,0.093,0.307,0.124,0.455 c0.092,0.429,0.092,0.809,0.047,1.119c-0.089,0.608-0.405,1-0.743,1.039c-0.186,0.004-0.417,0.02-0.687,0.04 c-0.498,0.037-1.124,0.087-1.838,0.103l0,0c-0.212,0.005-0.432,0.007-0.658,0.004c-0.032,0-0.063-0.001-0.093-0.002 c-0.175-0.044-0.327-0.139-0.481-0.193c-1.136-0.4-0.637-1.688-0.258-2.613c0.324-0.791,0.011-2.374-0.497-3.898 c-0.225-0.676-0.515-1.37-0.844-2.051c-0.969-2.005-2.537-3.888-3.939-5.097C35.86,28.151,35.47,27.809,35.248,27.41z"/><path fill="#5f7c83" d="M35.267,27.277c-1.574-1.842,1.546-5.405,5.056-5.577c0.907-0.043,1.828,0.138,2.698,0.614 c1.483,3.163,1.295,8.351,1.068,9.802c-0.225,1.434,1.29,5.53,1.92,7.397c0.051,0.153,0.093,0.304,0.126,0.451 c0.095,0.425,0.103,0.802,0.069,1.107c-0.069,0.613-0.369,1.011-0.689,1.057c-0.189,0.005-0.423,0.021-0.696,0.041 c-0.504,0.037-1.138,0.088-1.86,0.103l0,0c-0.215,0.004-0.437,0.006-0.667,0.002c-0.033-0.001-0.064-0.001-0.094-0.002 c-0.157-0.055-0.296-0.145-0.412-0.237c-1.046-0.27-0.534-1.709-0.213-2.66c0.287-0.849-0.06-2.434-0.554-3.893 c-0.229-0.676-0.525-1.366-0.859-2.043c-0.994-2.011-2.575-3.88-3.969-5.065C35.835,28.056,35.449,27.71,35.267,27.277z"/><path fill="#607d84" d="M35.286,27.144c-1.397-1.817,1.647-5.226,5.058-5.384c0.888-0.04,1.785,0.138,2.632,0.599 c1.467,3.15,1.281,8.305,1.055,9.749c-0.223,1.424,1.235,5.397,1.894,7.345c0.051,0.152,0.093,0.301,0.127,0.447 c0.098,0.422,0.114,0.796,0.09,1.095c-0.048,0.619-0.332,1.021-0.635,1.075c-0.191,0.005-0.429,0.021-0.705,0.041 c-0.51,0.038-1.152,0.089-1.882,0.103l0,0c-0.218,0.004-0.443,0.005-0.676,0.001c-0.034-0.001-0.065-0.002-0.095-0.003 c-0.14-0.065-0.255-0.172-0.343-0.281c-0.91-0.308-0.434-1.732-0.167-2.707c0.248-0.909-0.131-2.494-0.612-3.887 c-0.233-0.676-0.535-1.363-0.874-2.034c-1.019-2.016-2.613-3.873-4-5.033C35.809,27.962,35.427,27.612,35.286,27.144z"/><path fill="#617e85" d="M35.304,27.01c-1.221-1.793,1.749-5.048,5.06-5.191c0.868-0.036,1.741,0.139,2.565,0.583 c1.451,3.137,1.266,8.259,1.042,9.696c-0.222,1.414,1.179,5.264,1.869,7.294c0.05,0.15,0.093,0.298,0.128,0.442 c0.102,0.419,0.125,0.789,0.112,1.082c-0.027,0.626-0.295,1.031-0.58,1.093c-0.194,0.005-0.434,0.022-0.714,0.042 c-0.517,0.038-1.166,0.09-1.904,0.102l0,0c-0.22,0.004-0.449,0.004-0.684-0.001c-0.034-0.001-0.066-0.002-0.096-0.003 c-0.122-0.076-0.215-0.2-0.274-0.325c-0.774-0.347-0.336-1.755-0.122-2.754c0.207-0.969-0.203-2.553-0.67-3.882 c-0.237-0.676-0.545-1.359-0.889-2.026c-1.044-2.022-2.651-3.866-4.03-5C35.784,27.868,35.406,27.513,35.304,27.01z"/><path fill="#637f86" d="M35.323,26.877c-1.045-1.768,1.85-4.87,5.062-4.999c0.848-0.032,1.698,0.139,2.498,0.567 c1.435,3.123,1.252,8.213,1.028,9.643c-0.22,1.404,1.124,5.13,1.844,7.242c0.05,0.148,0.093,0.294,0.129,0.438 c0.105,0.416,0.136,0.782,0.134,1.07c-0.005,0.632-0.259,1.042-0.526,1.111c-0.197,0.005-0.44,0.022-0.724,0.043 c-0.523,0.039-1.18,0.09-1.926,0.102l0,0c-0.223,0.003-0.455,0.003-0.693-0.002c-0.035-0.001-0.067-0.002-0.097-0.004 c-0.104-0.087-0.174-0.228-0.205-0.368c-0.638-0.385-0.239-1.778-0.076-2.801c0.164-1.03-0.276-2.613-0.727-3.876 c-0.242-0.676-0.555-1.356-0.904-2.018c-1.07-2.027-2.689-3.858-4.061-4.968C35.759,27.773,35.385,27.414,35.323,26.877z"/><path fill="#648187" d="M35.342,26.744c-0.868-1.743,1.951-4.692,5.064-4.806c0.828-0.029,1.654,0.14,2.431,0.552 c1.419,3.11,1.238,8.167,1.015,9.59c-0.219,1.394,1.069,4.997,1.818,7.19c0.049,0.146,0.093,0.291,0.13,0.434 c0.109,0.413,0.148,0.775,0.156,1.058c0.018,0.638-0.222,1.052-0.471,1.129c-0.199,0.006-0.446,0.023-0.733,0.044 c-0.53,0.039-1.194,0.091-1.948,0.101l0,0c-0.226,0.003-0.46,0.002-0.702-0.004c-0.036-0.001-0.068-0.003-0.098-0.004 c-0.087-0.098-0.134-0.255-0.136-0.412c-0.503-0.424-0.145-1.802-0.031-2.848c0.119-1.09-0.348-2.672-0.785-3.871 c-0.246-0.676-0.565-1.352-0.92-2.009c-1.096-2.033-2.728-3.851-4.092-4.936C35.733,27.679,35.363,27.316,35.342,26.744z"/><path fill="#668288" d="M35.361,26.61c-0.692-1.718,2.053-4.513,5.066-4.614c0.808-0.025,1.61,0.14,2.365,0.536 c1.403,3.097,1.224,8.121,1.002,9.537c-0.217,1.383,1.014,4.864,1.793,7.138c0.049,0.145,0.093,0.288,0.131,0.429 c0.112,0.41,0.16,0.769,0.178,1.045c0.041,0.644-0.186,1.062-0.417,1.147c-0.202,0.006-0.452,0.024-0.742,0.045 c-0.536,0.04-1.208,0.092-1.97,0.101l0,0c-0.229,0.003-0.466,0.001-0.711-0.006c-0.036-0.001-0.069-0.003-0.099-0.005 c-0.069-0.109-0.094-0.283-0.066-0.456c-0.367-0.462-0.052-1.825,0.014-2.895c0.072-1.151-0.421-2.731-0.843-3.865 c-0.251-0.676-0.576-1.349-0.935-2.001c-1.122-2.038-2.766-3.844-4.122-4.904C35.708,27.584,35.342,27.217,35.361,26.61z"/><path fill="#678389" d="M35.379,26.477c-0.516-1.693,2.154-4.335,5.068-4.421c0.788-0.022,1.567,0.141,2.298,0.52 c1.388,3.083,1.209,8.075,0.989,9.484c-0.216,1.373,0.958,4.731,1.768,7.086c0.049,0.143,0.093,0.285,0.132,0.425 c0.115,0.407,0.173,0.762,0.2,1.033c0.065,0.651-0.149,1.073-0.362,1.165c-0.204,0.006-0.457,0.024-0.751,0.046 c-0.543,0.041-1.222,0.093-1.992,0.1l0,0c-0.232,0.002-0.472,0-0.719-0.007c-0.037-0.001-0.07-0.003-0.1-0.005 c-0.052-0.119-0.053-0.311,0.003-0.5c-0.231-0.501,0.039-1.847,0.06-2.942c0.023-1.21-0.495-2.79-0.9-3.86 c-0.256-0.675-0.586-1.345-0.95-1.993c-1.148-2.043-2.804-3.836-4.153-4.872C35.683,27.49,35.321,27.119,35.379,26.477z"/><path fill="#68848a" d="M35.398,26.344c-0.339-1.668,2.255-4.157,5.07-4.228c0.768-0.018,1.523,0.141,2.231,0.505 c1.372,3.07,1.195,8.029,0.975,9.431c-0.214,1.363,0.903,4.598,1.742,7.034c0.048,0.141,0.093,0.282,0.133,0.421 c0.119,0.404,0.185,0.755,0.221,1.021c0.09,0.656-0.112,1.083-0.308,1.183c-0.207,0.007-0.463,0.025-0.761,0.047 c-0.549,0.041-1.236,0.094-2.014,0.1l0,0c-0.235,0.002-0.478-0.001-0.728-0.009c-0.038-0.001-0.071-0.004-0.101-0.006 c-0.034-0.13-0.013-0.338,0.072-0.544c-0.095-0.539,0.13-1.869,0.105-2.989c-0.027-1.27-0.569-2.849-0.958-3.854 c-0.261-0.675-0.596-1.341-0.965-1.984c-1.174-2.048-2.842-3.829-4.184-4.84C35.657,27.396,35.3,27.02,35.398,26.344z"/><path fill="#6a858b" d="M35.417,26.211c-0.163-1.643,2.356-3.978,5.072-4.036c0.748-0.014,1.48,0.142,2.165,0.489 c1.356,3.057,1.181,7.982,0.962,9.379c-0.213,1.353,0.848,4.464,1.717,6.982c0.048,0.139,0.093,0.278,0.135,0.416 c0.122,0.401,0.198,0.748,0.243,1.008c0.115,0.662-0.076,1.093-0.253,1.201c-0.209,0.007-0.469,0.025-0.77,0.047 c-0.556,0.042-1.25,0.094-2.036,0.099l0,0c-0.237,0.001-0.484-0.001-0.737-0.01c-0.038-0.002-0.072-0.004-0.102-0.006 c-0.017-0.141,0.028-0.366,0.141-0.587c0.04-0.578,0.219-1.891,0.151-3.036c-0.079-1.329-0.643-2.908-1.016-3.849 c-0.267-0.675-0.607-1.337-0.98-1.976c-1.2-2.053-2.88-3.822-4.214-4.808C35.632,27.301,35.278,26.922,35.417,26.211z"/><path fill="#6b868c" d="M35.435,26.077c0.013-1.619,2.458-3.8,5.073-3.843c0.728-0.011,1.436,0.142,2.098,0.473 c1.34,3.043,1.166,7.936,0.949,9.326c-0.211,1.343,0.793,4.331,1.692,6.931c0.047,0.138,0.093,0.275,0.136,0.412 c0.126,0.398,0.211,0.741,0.265,0.996c0.141,0.668-0.039,1.104-0.199,1.219c-0.212,0.007-0.474,0.026-0.779,0.048 c-0.562,0.042-1.264,0.095-2.058,0.099l0,0c-0.24,0.001-0.489-0.002-0.746-0.012c-0.039-0.002-0.073-0.004-0.103-0.007 c0.001-0.152,0.1-0.377,0.21-0.631c0.255-0.588,0.308-1.911,0.196-3.083c-0.132-1.386-0.718-2.966-1.073-3.843 c-0.273-0.674-0.618-1.333-0.995-1.968c-1.231-2.055-2.918-3.814-4.245-4.775C35.607,27.207,35.257,26.823,35.435,26.077z"/><path fill="#6c878d" d="M35.454,25.944c0.189-1.594,2.559-3.622,5.075-3.651c0.708-0.007,1.392,0.142,2.031,0.457 c1.324,3.03,1.152,7.89,0.936,9.273c-0.209,1.333,0.737,4.198,1.666,6.879c0.047,0.136,0.092,0.272,0.137,0.408 c0.129,0.395,0.224,0.734,0.287,0.983c0.168,0.673-0.003,1.114-0.144,1.237c-0.214,0.007-0.48,0.027-0.788,0.049 c-0.569,0.043-1.278,0.096-2.08,0.098l0,0c-0.243,0.001-0.495-0.003-0.755-0.014c-0.04-0.002-0.074-0.004-0.105-0.007 c0.019-0.163,0.128-0.41,0.279-0.675c0.359-0.63,0.397-1.931,0.242-3.13c-0.186-1.444-0.793-3.025-1.131-3.838 c-0.279-0.673-0.628-1.329-1.01-1.959c-1.256-2.061-2.956-3.807-4.276-4.743C35.581,27.113,35.236,26.725,35.454,25.944z"/><path fill="#6e888e" d="M35.473,25.811c0.366-1.569,2.66-3.444,5.077-3.458c0.688-0.004,1.349,0.143,1.965,0.442 c1.308,3.017,1.138,7.844,0.923,9.22c-0.208,1.323,0.682,4.065,1.641,6.827c0.046,0.134,0.092,0.269,0.138,0.403 c0.132,0.392,0.238,0.726,0.309,0.971c0.196,0.677,0.034,1.125-0.09,1.255c-0.217,0.008-0.486,0.027-0.798,0.05 c-0.575,0.043-1.292,0.097-2.102,0.098l0,0c-0.246,0-0.501-0.004-0.763-0.015c-0.04-0.002-0.075-0.005-0.106-0.007 c0.036-0.173,0.158-0.443,0.348-0.719c0.469-0.679,0.485-1.95,0.287-3.177c-0.241-1.5-0.869-3.083-1.189-3.832 c-0.287-0.672-0.639-1.326-1.025-1.951c-1.282-2.066-2.995-3.8-4.306-4.711C35.556,27.018,35.214,26.626,35.473,25.811z"/><path fill="#6f898f" d="M42.498,41.559c-0.249,0-0.507-0.005-0.772-0.017c-0.041-0.002-0.076-0.005-0.107-0.008 c0.054-0.184,0.19-0.477,0.418-0.763c1.307-1.639-0.369-5.811-0.913-7.05c-1.277-2.907-3.683-5.47-5.377-6.621 c-0.216-0.176-0.553-0.572-0.254-1.423c0.542-1.544,2.762-3.265,5.079-3.265c0.669,0,1.305,0.143,1.898,0.426 c1.292,3.004,1.123,7.798,0.909,9.167c-0.216,1.374,0.707,4.178,1.755,7.174c0.136,0.389,0.251,0.719,0.331,0.959 c0.224,0.681,0.071,1.135-0.035,1.273c-0.22,0.008-0.491,0.028-0.807,0.051C44.039,41.506,43.315,41.559,42.498,41.559 L42.498,41.559z"/><linearGradient id="XIw~QK2WZHgkat8MiE65Ra" x1="40.915" x2="44.217" y1="27.286" y2="30.588" gradientUnits="userSpaceOnUse"><stop offset=".251" stop-color="#506c73"/><stop offset="1" stop-color="#506c73" stop-opacity="0"/></linearGradient><path fill="url(#XIw~QK2WZHgkat8MiE65Ra)" d="M44.534,29.554c-0.347,0.122-0.744,0.163-1.193,0.112c-1.672-0.173-3.16,2.314-3.191,4.384	c-1.132-2.528-3.293-4.954-4.975-6.106c-0.041-0.031-0.082-0.061-0.112-0.102c0.428-0.999,1.55-3.527,2.824-5.831	c1.621-0.754,3.578-0.928,5.362,0.082C44.279,24.233,44.544,27.291,44.534,29.554z"/><path fill="#58777e" d="M15.434,21.209c-0.277,2.152-0.615,6.07-1.109,11.263s0.349,5.854-0.569,7.8 s-1.248,2.496,0.212,2.649s2.893,0.004,3.564-0.042c0.671-0.046,1.091-0.952,0.516-1.944s-0.379-1.373-0.028-2.673 c0.247-0.915,0.752-2.375,0.832-3.98c0.052-1.036,1.333-2.351,1.809-3.984c0.249-0.854,1.233-2.965,1.166-4.754 C21.76,23.753,17.856,18.787,15.434,21.209z"/><path fill="#59787f" d="M21.766,25.545c0.033,0.898-0.206,1.885-0.475,2.74c-0.069,0.219-0.139,0.428-0.206,0.624 c-0.211,0.615-0.428,1.137-0.537,1.484c-0.284,0.905-0.792,1.718-1.184,2.443c-0.308,0.565-0.558,1.075-0.585,1.532 c-0.039,0.655-0.146,1.285-0.275,1.86c-0.076,0.339-0.167,0.69-0.247,0.976c-0.118,0.427-0.233,0.806-0.316,1.122 c-0.279,1.049-0.448,1.505-0.165,2.198c0.06,0.146,0.133,0.299,0.227,0.465c0.045,0.078,0.075,0.156,0.108,0.232 c0.34,0.841-0.063,1.562-0.668,1.603c-0.285,0.019-0.705,0.057-1.203,0.081c0,0-0.001,0-0.001,0 c-0.663,0.032-1.46,0.041-2.263-0.044c-0.618-0.082-0.885-0.246-0.91-0.575c-0.009-0.082,0.006-0.191,0.029-0.298 c0.098-0.411,0.373-0.981,0.743-1.786c0.356-0.778,0.432-1.357,0.43-2.111c-0.003-1.1-0.173-2.579,0.116-5.615 c0.145-1.529,0.297-3.164,0.417-4.444c0.275-2.947,0.492-5.239,0.68-6.719c0.382-0.406,0.802-0.618,1.238-0.681 c0.217-0.026,0.438-0.014,0.661,0.028C19.486,21.067,21.717,24.22,21.766,25.545z"/><path fill="#5b7980" d="M21.706,25.547c0.034,0.916-0.224,1.932-0.497,2.794c-0.072,0.226-0.144,0.44-0.211,0.637 c-0.21,0.618-0.439,1.147-0.561,1.511c-0.3,0.895-0.795,1.707-1.168,2.435c-0.288,0.563-0.529,1.073-0.561,1.532 c-0.044,0.653-0.156,1.28-0.285,1.848c-0.074,0.33-0.173,0.703-0.247,0.971c-0.117,0.424-0.23,0.8-0.311,1.116 c-0.264,1.024-0.421,1.488-0.125,2.19c0.063,0.149,0.133,0.302,0.221,0.463c0.042,0.073,0.062,0.147,0.092,0.218 c0.299,0.79-0.103,1.468-0.696,1.507c-0.281,0.019-0.689,0.054-1.171,0.077c0,0-0.001,0-0.001,0 c-0.649,0.03-1.422,0.037-2.198-0.044c-0.573-0.094-0.812-0.27-0.826-0.599c-0.009-0.077,0.013-0.194,0.035-0.295 c0.109-0.422,0.378-0.987,0.728-1.774c0.34-0.765,0.409-1.344,0.406-2.095c-0.005-1.094-0.168-2.567,0.117-5.556 c0.136-1.434,0.301-3.204,0.413-4.404c0.271-2.906,0.486-5.178,0.673-6.66c0.361-0.41,0.758-0.635,1.169-0.718 c0.214-0.031,0.432-0.023,0.653,0.017C19.43,21.099,21.658,24.248,21.706,25.547z"/><path fill="#5c7a81" d="M21.646,25.55c0.035,0.933-0.242,1.98-0.52,2.848c-0.075,0.233-0.15,0.451-0.216,0.649 c-0.209,0.622-0.45,1.156-0.585,1.538c-0.315,0.886-0.8,1.695-1.152,2.426c-0.27,0.561-0.501,1.071-0.538,1.532 c-0.05,0.652-0.165,1.275-0.295,1.837c-0.073,0.322-0.178,0.716-0.247,0.967c-0.116,0.42-0.227,0.793-0.307,1.11 c-0.252,0.998-0.394,1.471-0.086,2.183c0.067,0.152,0.134,0.304,0.215,0.461c0.04,0.068,0.048,0.137,0.076,0.204 c0.259,0.738-0.142,1.373-0.725,1.411c-0.277,0.018-0.673,0.051-1.138,0.073c0,0-0.001,0-0.001,0 c-0.635,0.028-1.384,0.033-2.133-0.045c-0.527-0.106-0.739-0.294-0.741-0.623c-0.008-0.072,0.02-0.198,0.04-0.292 c0.121-0.434,0.382-0.994,0.712-1.762c0.324-0.753,0.386-1.332,0.381-2.08c-0.007-1.088-0.162-2.556,0.118-5.498 c0.127-1.338,0.305-3.243,0.409-4.363c0.267-2.866,0.48-5.117,0.665-6.6c0.34-0.414,0.714-0.653,1.101-0.755 c0.211-0.036,0.426-0.032,0.646,0.005C19.374,21.131,21.599,24.275,21.646,25.55z"/><path fill="#5d7b82" d="M21.587,25.552c0.035,0.951-0.259,2.027-0.543,2.902c-0.079,0.24-0.155,0.463-0.221,0.662 c-0.208,0.625-0.46,1.165-0.609,1.564c-0.329,0.877-0.805,1.683-1.136,2.418c-0.251,0.559-0.473,1.069-0.514,1.532 c-0.056,0.65-0.175,1.27-0.305,1.826c-0.072,0.313-0.183,0.729-0.247,0.962c-0.115,0.417-0.224,0.787-0.302,1.105 c-0.239,0.972-0.368,1.455-0.046,2.175c0.07,0.155,0.134,0.307,0.209,0.458c0.037,0.063,0.034,0.128,0.061,0.19 c0.218,0.687-0.182,1.279-0.753,1.316c-0.273,0.017-0.657,0.049-1.106,0.068c0,0-0.001,0-0.001,0 c-0.621,0.026-1.345,0.029-2.068-0.046c-0.481-0.118-0.666-0.318-0.657-0.647c-0.007-0.067,0.026-0.201,0.045-0.289 c0.132-0.445,0.386-1.001,0.697-1.75c0.307-0.74,0.363-1.32,0.356-2.064c-0.009-1.083-0.157-2.544,0.119-5.439 c0.118-1.242,0.308-3.282,0.405-4.323c0.264-2.825,0.474-5.055,0.657-6.541c0.32-0.418,0.67-0.67,1.032-0.792 c0.208-0.041,0.42-0.041,0.638-0.006C19.318,21.163,21.54,24.302,21.587,25.552z"/><path fill="#5f7c83" d="M21.527,25.554c0.036,0.969-0.277,2.074-0.566,2.956c-0.082,0.247-0.16,0.475-0.226,0.675 c-0.207,0.628-0.47,1.175-0.633,1.591c-0.342,0.868-0.81,1.671-1.12,2.409c-0.233,0.557-0.445,1.067-0.49,1.532 c-0.061,0.648-0.185,1.264-0.315,1.815c-0.072,0.304-0.188,0.742-0.248,0.957c-0.114,0.414-0.221,0.781-0.298,1.099 c-0.227,0.947-0.341,1.438-0.006,2.167c0.073,0.158,0.134,0.31,0.203,0.456c0.034,0.058,0.02,0.119,0.045,0.176 c0.178,0.636-0.221,1.185-0.782,1.22c-0.268,0.017-0.64,0.046-1.073,0.064c0,0-0.001,0-0.001,0 c-0.606,0.024-1.307,0.026-2.003-0.047c-0.435-0.13-0.593-0.342-0.573-0.671c-0.007-0.062,0.033-0.205,0.051-0.285 c0.143-0.457,0.389-1.009,0.681-1.739c0.291-0.728,0.339-1.307,0.332-2.049c-0.011-1.077-0.151-2.532,0.12-5.38 c0.109-1.147,0.312-3.322,0.402-4.282c0.26-2.785,0.468-4.994,0.649-6.482c0.299-0.422,0.626-0.687,0.964-0.829 c0.205-0.046,0.414-0.051,0.631-0.018C19.263,21.19,21.481,24.329,21.527,25.554z"/><path fill="#607d84" d="M21.467,25.556c0.037,0.987-0.294,2.121-0.589,3.01c-0.085,0.255-0.165,0.487-0.231,0.688 c-0.206,0.631-0.479,1.184-0.658,1.618c-0.354,0.86-0.815,1.658-1.103,2.4c-0.215,0.554-0.417,1.065-0.467,1.532 c-0.069,0.646-0.195,1.259-0.325,1.804c-0.071,0.295-0.194,0.755-0.248,0.952c-0.113,0.41-0.219,0.774-0.293,1.093 c-0.215,0.921-0.314,1.421,0.033,2.16c0.076,0.161,0.134,0.312,0.198,0.454c0.031,0.054,0.007,0.11,0.029,0.163 c0.137,0.585-0.26,1.091-0.811,1.124c-0.264,0.016-0.624,0.043-1.041,0.06c0,0-0.001,0-0.001,0 c-0.592,0.022-1.269,0.022-1.938-0.048c-0.39-0.142-0.52-0.366-0.488-0.695c-0.006-0.057,0.04-0.208,0.056-0.282 c0.155-0.468,0.393-1.016,0.666-1.727c0.274-0.716,0.316-1.295,0.307-2.033c-0.013-1.071-0.146-2.52,0.121-5.322 c0.1-1.051,0.316-3.361,0.398-4.241c0.256-2.745,0.462-4.933,0.642-6.423c0.278-0.426,0.582-0.704,0.895-0.865 c0.202-0.051,0.409-0.06,0.623-0.03C19.207,21.221,21.422,24.357,21.467,25.556z"/><path fill="#617e85" d="M21.407,25.559c0.037,1.004-0.312,2.168-0.612,3.064c-0.089,0.262-0.171,0.499-0.236,0.7 c-0.205,0.634-0.488,1.194-0.682,1.645c-0.365,0.852-0.821,1.646-1.087,2.392c-0.197,0.552-0.389,1.063-0.443,1.532 c-0.074,0.645-0.204,1.254-0.335,1.793c-0.07,0.287-0.199,0.768-0.248,0.947c-0.113,0.407-0.216,0.768-0.289,1.087 c-0.203,0.895-0.287,1.404,0.073,2.152c0.08,0.164,0.134,0.315,0.192,0.451c0.028,0.049-0.007,0.101,0.013,0.149 c0.097,0.534-0.3,0.996-0.839,1.028c-0.26,0.015-0.608,0.041-1.008,0.056c0,0-0.001,0-0.001,0c-0.578,0.02-1.23,0.018-1.873-0.049 c-0.344-0.154-0.447-0.39-0.404-0.719c-0.006-0.051,0.047-0.211,0.062-0.279c0.166-0.48,0.397-1.023,0.65-1.715 c0.257-0.703,0.293-1.282,0.282-2.018c-0.015-1.066-0.14-2.508,0.122-5.263c0.091-0.956,0.319-3.401,0.394-4.201 c0.252-2.704,0.456-4.872,0.634-6.363c0.257-0.43,0.538-0.721,0.827-0.902c0.198-0.056,0.403-0.069,0.615-0.041 C19.151,21.253,21.363,24.384,21.407,25.559z"/><path fill="#637f86" d="M21.347,25.561c0.038,1.022-0.33,2.215-0.635,3.118c-0.092,0.269-0.176,0.51-0.241,0.713 c-0.204,0.637-0.497,1.204-0.706,1.671c-0.376,0.844-0.826,1.634-1.071,2.383c-0.179,0.549-0.361,1.061-0.42,1.532 c-0.08,0.643-0.214,1.249-0.345,1.782c-0.069,0.278-0.204,0.781-0.249,0.942c-0.112,0.404-0.214,0.762-0.284,1.081 c-0.191,0.869-0.26,1.388,0.112,2.144c0.083,0.167,0.134,0.318,0.186,0.449c0.025,0.044-0.021,0.092-0.002,0.135 c0.056,0.483-0.339,0.902-0.868,0.933c-0.256,0.015-0.592,0.038-0.976,0.052c0,0-0.001,0-0.001,0 c-0.564,0.018-1.192,0.014-1.808-0.049c-0.298-0.166-0.374-0.414-0.319-0.743c-0.005-0.046,0.054-0.215,0.067-0.275 c0.178-0.491,0.4-1.03,0.634-1.703c0.24-0.691,0.27-1.27,0.258-2.002c-0.017-1.06-0.135-2.496,0.123-5.205 c0.082-0.86,0.323-3.44,0.39-4.16c0.249-2.664,0.451-4.811,0.626-6.304c0.236-0.434,0.494-0.739,0.758-0.939 c0.195-0.061,0.397-0.077,0.608-0.053C19.095,21.284,21.304,24.411,21.347,25.561z"/><path fill="#648187" d="M21.287,25.563c0.039,1.04-0.347,2.262-0.658,3.172c-0.095,0.276-0.181,0.522-0.246,0.726 c-0.203,0.64-0.506,1.214-0.73,1.698c-0.386,0.836-0.832,1.621-1.055,2.375c-0.162,0.547-0.333,1.059-0.396,1.532 c-0.086,0.641-0.223,1.244-0.355,1.771c-0.068,0.269-0.209,0.794-0.249,0.938c-0.111,0.4-0.211,0.756-0.279,1.075 c-0.179,0.843-0.233,1.371,0.152,2.137c0.086,0.171,0.135,0.321,0.18,0.447c0.023,0.039-0.035,0.083-0.018,0.121 c0.016,0.432-0.378,0.808-0.896,0.837c-0.251,0.014-0.576,0.035-0.943,0.048c0,0-0.001,0-0.001,0 c-0.549,0.016-1.154,0.01-1.743-0.05c-0.252-0.178-0.301-0.438-0.235-0.768c-0.005-0.041,0.061-0.218,0.073-0.272 c0.189-0.503,0.404-1.038,0.619-1.692c0.223-0.679,0.247-1.257,0.233-1.987c-0.019-1.054-0.129-2.484,0.124-5.146 c0.073-0.765,0.327-3.48,0.386-4.12c0.245-2.623,0.445-4.75,0.619-6.245c0.216-0.438,0.449-0.756,0.69-0.976 c0.192-0.066,0.391-0.086,0.6-0.064C19.039,21.316,21.245,24.439,21.287,25.563z"/><path fill="#668288" d="M21.227,25.565c0.04,1.058-0.365,2.309-0.681,3.226c-0.098,0.283-0.187,0.534-0.251,0.739 c-0.202,0.643-0.514,1.224-0.754,1.725c-0.396,0.828-0.838,1.608-1.039,2.366c-0.144,0.544-0.304,1.057-0.372,1.532 c-0.091,0.64-0.233,1.239-0.365,1.76c-0.066,0.261-0.215,0.807-0.249,0.933c-0.11,0.397-0.209,0.749-0.275,1.069 c-0.168,0.817-0.206,1.354,0.192,2.129c0.09,0.174,0.135,0.323,0.174,0.444c0.02,0.034-0.048,0.074-0.034,0.107 c-0.025,0.381-0.418,0.714-0.925,0.741c-0.247,0.013-0.559,0.033-0.911,0.043c0,0-0.001,0-0.001,0 c-0.535,0.014-1.115,0.007-1.678-0.051c-0.206-0.19-0.228-0.462-0.151-0.792c-0.004-0.036,0.068-0.222,0.078-0.269 c0.2-0.514,0.407-1.045,0.603-1.68c0.206-0.667,0.223-1.245,0.208-1.971c-0.021-1.048-0.124-2.472,0.125-5.087 c0.064-0.669,0.33-3.519,0.383-4.079c0.241-2.583,0.439-4.689,0.611-6.185c0.195-0.441,0.405-0.773,0.622-1.013 c0.189-0.071,0.385-0.095,0.593-0.076C18.983,21.348,21.186,24.466,21.227,25.565z"/><path fill="#678389" d="M21.167,25.567c0.04,1.075-0.383,2.356-0.703,3.28c-0.102,0.29-0.192,0.546-0.256,0.752 c-0.2,0.646-0.522,1.234-0.778,1.752c-0.405,0.821-0.844,1.596-1.023,2.357c-0.127,0.542-0.275,1.055-0.349,1.532 c-0.096,0.638-0.242,1.234-0.375,1.749c-0.065,0.252-0.22,0.82-0.25,0.928c-0.109,0.394-0.207,0.743-0.27,1.063 c-0.157,0.79-0.179,1.337,0.231,2.122c0.093,0.177,0.135,0.326,0.168,0.442c0.017,0.029-0.062,0.065-0.05,0.093 c-0.065,0.33-0.457,0.619-0.953,0.646c-0.243,0.013-0.543,0.03-0.878,0.039c0,0-0.001,0-0.001,0 c-0.521,0.012-1.077,0.003-1.613-0.052c-0.161-0.202-0.155-0.486-0.066-0.816c-0.003-0.031,0.075-0.225,0.083-0.266 c0.212-0.525,0.41-1.053,0.588-1.668c0.189-0.654,0.2-1.233,0.184-1.956c-0.023-1.043-0.118-2.461,0.126-5.029 c0.055-0.573,0.334-3.558,0.379-4.039c0.237-2.543,0.433-4.628,0.603-6.126c0.174-0.445,0.361-0.79,0.553-1.05 c0.186-0.076,0.379-0.104,0.585-0.088C18.927,21.38,21.127,24.493,21.167,25.567z"/><path fill="#68848a" d="M21.107,25.57c0.041,1.093-0.4,2.404-0.726,3.334c-0.105,0.298-0.197,0.557-0.261,0.764 c-0.199,0.65-0.53,1.244-0.802,1.779c-0.414,0.814-0.851,1.583-1.007,2.349c-0.11,0.539-0.247,1.054-0.325,1.532 c-0.102,0.636-0.252,1.229-0.385,1.738c-0.064,0.243-0.225,0.834-0.25,0.923c-0.108,0.39-0.205,0.736-0.266,1.057 c-0.146,0.764-0.152,1.32,0.271,2.114c0.096,0.18,0.135,0.329,0.163,0.44c0.014,0.024-0.076,0.056-0.066,0.079 c-0.106,0.279-0.496,0.525-0.982,0.55c-0.238,0.012-0.527,0.028-0.846,0.035c0,0-0.001,0-0.001,0 c-0.507,0.01-1.039-0.001-1.548-0.053c-0.115-0.214-0.082-0.51,0.018-0.84c-0.003-0.026,0.082-0.229,0.089-0.262 c0.223-0.537,0.413-1.06,0.572-1.656c0.172-0.642,0.177-1.22,0.159-1.94c-0.026-1.037-0.113-2.449,0.127-4.97 c0.045-0.478,0.338-3.598,0.375-3.998c0.233-2.502,0.427-4.567,0.596-6.067c0.153-0.449,0.317-0.808,0.485-1.087 c0.183-0.081,0.373-0.113,0.578-0.099C18.871,21.412,21.068,24.52,21.107,25.57z"/><path fill="#6a858b" d="M21.047,25.572c0.042,1.111-0.418,2.451-0.749,3.388c-0.108,0.305-0.202,0.569-0.265,0.777 c-0.198,0.653-0.538,1.255-0.826,1.805c-0.423,0.807-0.857,1.571-0.99,2.34c-0.093,0.536-0.218,1.052-0.301,1.532 c-0.107,0.635-0.261,1.224-0.395,1.726c-0.063,0.235-0.23,0.847-0.25,0.918c-0.107,0.387-0.203,0.73-0.261,1.051 c-0.135,0.738-0.125,1.304,0.311,2.106c0.1,0.183,0.135,0.332,0.157,0.437c0.011,0.019-0.089,0.046-0.081,0.065 c-0.146,0.228-0.536,0.431-1.011,0.454c-0.234,0.011-0.511,0.025-0.813,0.031c0,0-0.001,0-0.001,0 c-0.492,0.008-1-0.005-1.483-0.053c-0.069-0.226-0.009-0.534,0.102-0.864c-0.002-0.021,0.088-0.232,0.094-0.259 c0.235-0.548,0.416-1.068,0.557-1.645c0.154-0.63,0.154-1.208,0.134-1.925c-0.028-1.031-0.107-2.437,0.128-4.912 c0.036-0.382,0.341-3.637,0.371-3.957c0.23-2.462,0.421-4.506,0.588-6.007c0.133-0.453,0.273-0.825,0.416-1.124 c0.18-0.086,0.367-0.122,0.57-0.111C18.815,21.445,21.009,24.548,21.047,25.572z"/><path fill="#6b868c" d="M20.987,25.574c0.042,1.129-0.435,2.498-0.772,3.442c-0.112,0.312-0.208,0.581-0.27,0.79 c-0.197,0.656-0.545,1.266-0.85,1.832c-0.431,0.8-0.864,1.558-0.974,2.332c-0.076,0.534-0.19,1.05-0.278,1.532 c-0.113,0.633-0.27,1.219-0.405,1.715c-0.062,0.226-0.236,0.86-0.25,0.913c-0.106,0.384-0.201,0.724-0.257,1.045 c-0.124,0.712-0.099,1.287,0.35,2.099c0.103,0.186,0.135,0.334,0.151,0.435c0.008,0.015-0.103,0.037-0.097,0.052 c-0.187,0.177-0.575,0.337-1.039,0.358c-0.23,0.011-0.495,0.022-0.781,0.027c0,0-0.001,0-0.001,0 c-0.478,0.006-0.962-0.009-1.418-0.054c-0.023-0.238,0.064-0.558,0.187-0.888c-0.002-0.015,0.095-0.236,0.1-0.256 c0.246-0.56,0.418-1.076,0.541-1.633c0.136-0.618,0.13-1.195,0.11-1.909c-0.03-1.026-0.102-2.425,0.129-4.853 c0.027-0.287,0.345-3.677,0.367-3.917c0.226-2.421,0.415-4.445,0.58-5.948c0.112-0.457,0.229-0.842,0.348-1.161 c0.177-0.091,0.362-0.13,0.562-0.122C18.759,21.48,20.95,24.575,20.987,25.574z"/><path fill="#6c878d" d="M20.927,25.576c0.043,1.146-0.453,2.545-0.795,3.496c-0.115,0.319-0.213,0.593-0.275,0.803 c-0.196,0.659-0.552,1.277-0.874,1.859c-0.44,0.794-0.872,1.545-0.958,2.323c-0.059,0.531-0.162,1.048-0.254,1.532 c-0.119,0.631-0.279,1.214-0.416,1.704c-0.06,0.217-0.241,0.873-0.251,0.909c-0.105,0.38-0.199,0.717-0.252,1.039 c-0.114,0.686-0.072,1.27,0.39,2.091c0.106,0.189,0.136,0.337,0.145,0.433c0.006,0.01-0.117,0.028-0.113,0.038 c-0.228,0.126-0.615,0.242-1.068,0.263c-0.226,0.01-0.479,0.02-0.749,0.023c0,0-0.001,0-0.001,0 c-0.464,0.004-0.924-0.012-1.353-0.055c0.022-0.25,0.137-0.582,0.271-0.912c-0.001-0.01,0.102-0.239,0.105-0.252 c0.258-0.571,0.421-1.083,0.526-1.621c0.118-0.606,0.107-1.183,0.085-1.894c-0.032-1.02-0.096-2.413,0.13-4.794 c0.018-0.191,0.349-3.716,0.364-3.876c0.222-2.381,0.409-4.383,0.572-5.889c0.091-0.461,0.185-0.859,0.279-1.198 c0.174-0.096,0.356-0.139,0.555-0.134C18.703,21.512,20.891,24.602,20.927,25.576z"/><path fill="#6e888e" d="M20.867,25.579c0.044,1.164-0.471,2.592-0.818,3.55c-0.118,0.326-0.218,0.604-0.28,0.816 c-0.195,0.662-0.558,1.288-0.898,1.886c-0.448,0.788-0.879,1.533-0.942,2.314c-0.043,0.528-0.134,1.046-0.23,1.532 c-0.125,0.629-0.288,1.21-0.426,1.693c-0.059,0.209-0.246,0.886-0.251,0.904c-0.104,0.377-0.197,0.711-0.248,1.033 c-0.104,0.659-0.045,1.253,0.429,2.083c0.11,0.192,0.136,0.34,0.139,0.43c0.003,0.005-0.131,0.019-0.129,0.024 c-0.268,0.075-0.654,0.148-1.096,0.167c-0.221,0.009-0.462,0.017-0.716,0.019c0,0-0.001,0-0.001,0 c-0.45,0.002-0.886-0.016-1.288-0.056c0.068-0.262,0.21-0.606,0.355-0.937c-0.001-0.005,0.109-0.242,0.111-0.249 c0.269-0.583,0.423-1.091,0.51-1.609c0.1-0.594,0.084-1.171,0.06-1.878c-0.034-1.014-0.091-2.401,0.131-4.736 c0.009-0.096,0.352-3.756,0.36-3.836c0.218-2.341,0.403-4.322,0.565-5.829c0.07-0.465,0.141-0.876,0.211-1.235 c0.171-0.101,0.35-0.148,0.547-0.146C18.647,21.544,20.832,24.63,20.867,25.579z"/><path fill="#6f898f" d="M15.346,41.97c-0.436,0-0.847-0.02-1.224-0.057c0.114-0.274,0.283-0.63,0.44-0.961l0.116-0.246 c0.607-1.287,0.577-2.151,0.53-3.461c-0.036-1.008-0.085-2.389,0.132-4.677l0.356-3.795c0.281-3.015,0.508-5.447,0.699-7.042 c0.168-0.107,0.344-0.157,0.54-0.157c1.656,0,3.838,3.081,3.872,4.005c0.044,1.182-0.488,2.639-0.841,3.604 c-0.121,0.334-0.224,0.616-0.285,0.828c-0.194,0.665-0.564,1.299-0.922,1.912c-0.456,0.782-0.887,1.52-0.926,2.306 c-0.06,1.203-0.396,2.365-0.642,3.214c-0.058,0.2-0.251,0.899-0.251,0.899c-0.307,1.106-0.509,1.836,0.226,3.103 c0.113,0.195,0.136,0.342,0.133,0.428l-0.144,0.01C16.691,41.921,16.055,41.97,15.346,41.97 C15.346,41.97,15.346,41.97,15.346,41.97z"/><linearGradient id="XIw~QK2WZHgkat8MiE65Rb" x1="16.41" x2="22.045" y1="22.316" y2="33.635" gradientUnits="userSpaceOnUse"><stop offset=".251" stop-color="#506c73"/><stop offset="1" stop-color="#506c73" stop-opacity="0"/></linearGradient><path fill="url(#XIw~QK2WZHgkat8MiE65Rb)" d="M21.821,25.548c0.071,1.784-0.907,3.894-1.162,4.751c-0.479,1.631-1.753,2.946-1.804,3.986	c-0.01,0.296-0.041,0.581-0.092,0.856c0.071-2.793-0.285-6.453-1.539-7.34c-1.03-0.724-1.672-1.437-2.233-2.426	c0.173-1.743,0.306-3.16,0.438-4.169C17.856,18.789,21.76,23.754,21.821,25.548z"/><linearGradient id="XIw~QK2WZHgkat8MiE65Rc" x1="12.502" x2="12.502" y1="4.007" y2="7.261" gradientUnits="userSpaceOnUse"><stop offset="0" stop-color="#82979c"/><stop offset="1" stop-color="#58777e"/></linearGradient><path fill="url(#XIw~QK2WZHgkat8MiE65Rc)" d="M10.185,8.037c0.919-0.653,2.35-1.929,3.222-2.3c0.873-0.371,1.651-0.533,1.343,1.611	C13.071,8.009,10.185,8.037,10.185,8.037z"/><linearGradient id="XIw~QK2WZHgkat8MiE65Rd" x1="51.753" x2="44.123" y1="28.928" y2="19.753" gradientUnits="userSpaceOnUse"><stop offset="0" stop-color="#82979c"/><stop offset="1" stop-color="#58777e"/></linearGradient><path fill="url(#XIw~QK2WZHgkat8MiE65Rd)" d="M43.945,12.411c1.4,1.868,2.228,3.843,2.224,6.574c-0.004,2.731-0.56,8.101,1.102,11.681	c-1.908-2.588-2.175-4.815-2.258-6.779c-0.079-1.872,0.289-4.056-1.551-4.854C43.318,16.008,43.143,14.133,43.945,12.411z"/><linearGradient id="XIw~QK2WZHgkat8MiE65Re" x1="43.834" x2="46.178" y1="39.233" y2="32.95" gradientUnits="userSpaceOnUse"><stop offset="0" stop-color="#82979c"/><stop offset="1" stop-color="#58777e"/></linearGradient><path fill="url(#XIw~QK2WZHgkat8MiE65Re)" d="M46.467,34.805c-0.507-0.445-1.969-2.257-0.611-4.146c0.967-1.345,2.311-0.475,2.102,0.917	C47.769,32.84,45.912,33.048,46.467,34.805z"/><linearGradient id="XIw~QK2WZHgkat8MiE65Rf" x1="6.66" x2="-2.482" y1="20.942" y2="24.034" gradientUnits="userSpaceOnUse"><stop offset="0" stop-color="#fff5e1"/><stop offset=".266" stop-color="#ffedca"/><stop offset=".744" stop-color="#ffe2a7"/><stop offset="1" stop-color="#fd9"/></linearGradient><path fill="url(#XIw~QK2WZHgkat8MiE65Rf)" d="M6.336,19.443c-0.044,0.575-1.474,2.83-5.562,4.067c-0.729,0.221-0.738,0.563,0.084,0.587	c2.659,0.077,6.415-1.517,7.416-4.625C7.681,19.11,6.769,19.038,6.336,19.443z"/><path fill="#58777e" d="M14.964,7.164c2.307-0.603,5.02-1.898,7.32-1.482c1.882,0.34,2.717,0.713,4.375,0.389 c1.633-0.319,2.124-1.298,6.331-1.213c5.883,0.118,12.049,5.717,12.049,12.624S41.915,29.844,34.48,29.844 s-9.191-1.798-9.191-1.798c-3.442,0.48-7.755-0.605-9.856-6.837C17.692,13.603,17.493,10.122,14.964,7.164z"/><path fill="#59787f" d="M15.149,7.233c1.102-0.292,2.29-0.729,3.47-1.05c0.218-0.059,0.435-0.113,0.651-0.162 c0.412-0.092,0.819-0.166,1.219-0.215c0.665-0.079,1.315-0.085,1.94,0.025c0.275,0.048,0.528,0.097,0.767,0.143 c0.646,0.127,1.172,0.24,1.699,0.292c0.586,0.057,1.16,0.039,1.886-0.108c1.354-0.275,1.929-0.996,4.614-1.153 c0.172-0.011,0.38-0.018,0.571-0.024c0.329-0.008,0.685-0.008,1.071,0.001c5.798,0.146,11.882,5.676,11.882,12.5 c0,6.727-3.006,12.242-10.439,12.242c-7.318,0-9.086-1.752-9.107-1.765c-0.373,0.052-0.798,0.03-1.188,0.038 c-0.362,0.007-0.789,0.016-1.159-0.023c-0.397-0.037-0.797-0.101-1.194-0.198c-2.491-0.596-4.873-2.449-6.272-6.571 C17.776,13.733,17.621,10.218,15.149,7.233z"/><path fill="#5b7980" d="M15.335,7.301c1.104-0.296,2.288-0.729,3.455-1.027c0.217-0.056,0.433-0.106,0.646-0.149 c0.411-0.083,0.815-0.147,1.211-0.188c0.66-0.066,1.304-0.064,1.927,0.042c0.272,0.047,0.525,0.092,0.763,0.137 c0.638,0.118,1.164,0.223,1.693,0.264c0.593,0.046,1.164,0.015,1.873-0.135c1.321-0.278,1.908-0.974,4.56-1.122 c0.161-0.01,0.385-0.017,0.564-0.022c0.326-0.007,0.677-0.006,1.057,0.005c5.713,0.174,11.715,5.636,11.715,12.376 c0,6.548-2.887,12.122-10.319,12.122c-7.2,0-8.981-1.706-9.024-1.732c-0.35,0.049-0.79-0.029-1.156-0.022 c-0.339,0.007-0.804,0.039-1.15,0.002c-0.397-0.031-0.794-0.091-1.19-0.18c-2.516-0.567-4.883-2.4-6.274-6.47 C17.86,13.863,17.749,10.314,15.335,7.301z"/><path fill="#5c7a81" d="M15.52,7.369c1.106-0.301,2.287-0.727,3.439-1.004c0.217-0.052,0.431-0.098,0.642-0.136 c0.41-0.073,0.811-0.128,1.202-0.161c0.654-0.055,1.293-0.044,1.915,0.059c0.269,0.045,0.521,0.088,0.76,0.13 c0.629,0.109,1.155,0.205,1.686,0.235c0.599,0.035,1.167-0.009,1.86-0.162c1.287-0.282,1.887-0.952,4.507-1.09 c0.15-0.009,0.39-0.015,0.558-0.02c0.323-0.007,0.669-0.004,1.043,0.009c5.628,0.202,11.548,5.595,11.548,12.252 c0,6.368-2.769,12.002-10.199,12.002c-7.083,0-8.876-1.66-8.941-1.7c-0.327,0.046-0.783-0.089-1.124-0.082 c-0.317,0.006-0.818,0.062-1.142,0.028c-0.396-0.026-0.792-0.08-1.186-0.163c-2.541-0.533-4.893-2.352-6.276-6.37 C17.943,13.993,17.877,10.41,15.52,7.369z"/><path fill="#5d7b82" d="M15.705,7.437c1.109-0.305,2.286-0.725,3.424-0.982c0.216-0.049,0.429-0.091,0.638-0.123 c0.41-0.064,0.807-0.108,1.194-0.134c0.649-0.043,1.282-0.024,1.902,0.076c0.266,0.043,0.517,0.084,0.757,0.123 c0.621,0.101,1.146,0.187,1.679,0.207c0.605,0.023,1.171-0.033,1.848-0.189c1.254-0.285,1.866-0.93,4.453-1.058 c0.14-0.009,0.395-0.014,0.551-0.018c0.319-0.006,0.661-0.002,1.028,0.013c5.542,0.229,11.381,5.554,11.381,12.129 c0,6.189-2.65,11.882-10.08,11.882c-6.966,0-8.771-1.614-8.857-1.667c-0.303,0.042-0.775-0.149-1.093-0.142 c-0.294,0.006-0.833,0.086-1.133,0.054c-0.395-0.02-0.79-0.07-1.182-0.146c-2.567-0.499-4.903-2.303-6.277-6.269 C18.027,14.123,18.005,10.506,15.705,7.437z"/><path fill="#5f7c83" d="M15.89,7.506c1.111-0.31,2.285-0.723,3.409-0.959c0.216-0.045,0.428-0.083,0.634-0.11 c0.41-0.054,0.804-0.089,1.185-0.107c0.644-0.03,1.271-0.003,1.89,0.093c0.264,0.042,0.513,0.08,0.753,0.116 c0.613,0.092,1.138,0.169,1.672,0.179c0.612,0.011,1.175-0.058,1.835-0.215c1.22-0.289,1.845-0.908,4.4-1.026 c0.129-0.008,0.4-0.013,0.544-0.017c0.316-0.005,0.654,0.001,1.014,0.017C38.683,5.734,44.44,10.99,44.44,17.482 c0,6.009-2.531,11.763-9.96,11.763c-6.849,0-8.666-1.568-8.774-1.634c-0.28,0.039-0.768-0.208-1.061-0.203 c-0.271,0.005-0.847,0.109-1.124,0.079c-0.394-0.014-0.788-0.059-1.178-0.128c-2.593-0.464-4.912-2.254-6.279-6.169 C18.11,14.253,18.133,10.602,15.89,7.506z"/><path fill="#607d84" d="M16.076,7.574c1.114-0.314,2.284-0.721,3.393-0.936c0.215-0.042,0.426-0.075,0.63-0.097 c0.409-0.044,0.8-0.069,1.176-0.08c0.639-0.018,1.26,0.017,1.878,0.11c0.261,0.04,0.509,0.076,0.75,0.109 c0.605,0.084,1.129,0.155,1.666,0.15c0.618-0.006,1.178-0.082,1.822-0.242c1.187-0.292,1.824-0.886,4.346-0.994 c0.118-0.007,0.405-0.011,0.537-0.015c0.313-0.004,0.646,0.003,1,0.021c5.372,0.285,11.047,5.472,11.047,11.881 c0,5.83-2.413,11.643-9.84,11.643c-6.732,0-8.561-1.522-8.691-1.602c-0.257,0.036-0.76-0.268-1.029-0.263 c-0.249,0.005-0.861,0.132-1.115,0.105c-0.393-0.009-0.786-0.048-1.174-0.111c-2.62-0.428-4.922-2.205-6.281-6.068 C18.194,14.384,18.261,10.698,16.076,7.574z"/><path fill="#617e85" d="M16.261,7.642c1.116-0.319,2.284-0.719,3.378-0.913c0.215-0.038,0.424-0.067,0.626-0.083 c0.409-0.034,0.796-0.05,1.168-0.053c0.634-0.006,1.249,0.037,1.865,0.127c0.258,0.038,0.505,0.072,0.747,0.102 c0.596,0.076,1.121,0.132,1.659,0.122c0.625-0.012,1.182-0.106,1.81-0.269c1.153-0.296,1.803-0.864,4.293-0.962 c0.107-0.007,0.41-0.01,0.53-0.013c0.31-0.003,0.638,0.005,0.985,0.025C38.607,6.037,44.2,11.156,44.2,17.482 c0,5.65-2.294,11.523-9.72,11.523c-6.615,0-8.456-1.476-8.608-1.569c-0.233,0.033-0.753-0.328-0.997-0.323 c-0.226,0.004-0.876,0.155-1.107,0.131c-0.392-0.003-0.784-0.036-1.17-0.094c-2.646-0.392-4.932-2.156-6.283-5.968 C18.277,14.514,18.39,10.794,16.261,7.642z"/><path fill="#637f86" d="M16.446,7.711c1.118-0.323,2.283-0.716,3.362-0.89c0.214-0.034,0.422-0.059,0.621-0.07 c0.409-0.024,0.792-0.03,1.159-0.026c0.628,0.007,1.239,0.058,1.853,0.144c0.255,0.037,0.502,0.068,0.743,0.095 c0.588,0.068,1.112,0.114,1.652,0.093c0.631-0.024,1.185-0.13,1.797-0.296c1.12-0.3,1.782-0.842,4.239-0.931 c0.097-0.006,0.415-0.008,0.523-0.011c0.307-0.002,0.63,0.007,0.971,0.029c5.201,0.34,10.712,5.391,10.712,11.634 c0,5.471-2.175,11.403-9.6,11.403c-6.498,0-8.351-1.43-8.524-1.536c-0.21,0.029-0.745-0.387-0.965-0.383 c-0.204,0.004-0.89,0.178-1.098,0.156c-0.391,0.002-0.782-0.025-1.166-0.076c-2.673-0.356-4.942-2.108-6.285-5.868 C18.361,14.644,18.518,10.89,16.446,7.711z"/><path fill="#648187" d="M16.631,7.779c1.121-0.328,2.282-0.714,3.347-0.867c0.214-0.031,0.421-0.051,0.617-0.057 c0.408-0.013,0.789-0.011,1.15,0.001c0.623,0.019,1.228,0.078,1.841,0.161c0.252,0.035,0.498,0.064,0.74,0.089 c0.58,0.06,1.103,0.096,1.646,0.065c0.638-0.036,1.189-0.155,1.784-0.322c1.087-0.303,1.761-0.82,4.185-0.899 c0.086-0.005,0.42-0.007,0.516-0.009c0.304-0.001,0.622,0.01,0.957,0.033c5.116,0.368,10.545,5.35,10.545,11.51 c0,5.291-2.056,11.283-9.48,11.283c-6.381,0-8.246-1.384-8.441-1.503c-0.187,0.026-0.738-0.447-0.933-0.443 c-0.181,0.004-0.904,0.202-1.089,0.182c-0.39,0.008-0.78-0.014-1.162-0.059c-2.699-0.319-4.951-2.059-6.287-5.767 C18.444,14.774,18.646,10.986,16.631,7.779z"/><path fill="#668288" d="M16.817,7.847c1.123-0.332,2.282-0.711,3.332-0.844c0.213-0.027,0.419-0.047,0.613-0.044 c0.408,0.006,0.785,0.009,1.142,0.028c0.618,0.032,1.217,0.099,1.828,0.178c0.25,0.033,0.494,0.06,0.737,0.082 c0.571,0.052,1.095,0.077,1.639,0.037c0.644-0.048,1.192-0.179,1.772-0.349c1.053-0.307,1.74-0.798,4.132-0.867 c0.075-0.005,0.425-0.005,0.509-0.008c0.301-0.001,0.614,0.012,0.943,0.037c5.031,0.395,10.378,5.309,10.378,11.386 c0,5.112-1.938,11.163-9.36,11.163c-6.263,0-8.141-1.338-8.358-1.471c-0.163,0.023-0.73-0.506-0.901-0.503 c-0.158,0.003-0.919,0.225-1.08,0.208c-0.389,0.014-0.778-0.002-1.158-0.042c-2.726-0.281-4.961-2.01-6.288-5.667 C18.528,14.904,18.774,11.082,16.817,7.847z"/><path fill="#678389" d="M17.002,7.915c1.126-0.336,2.281-0.707,3.316-0.821c0.213-0.023,0.417-0.034,0.609-0.031 c0.408,0.008,0.781,0.029,1.133,0.055c0.613,0.045,1.206,0.119,1.816,0.195c0.247,0.032,0.49,0.056,0.733,0.075 c0.563,0.044,1.086,0.059,1.632,0.008c0.651-0.06,1.196-0.203,1.759-0.376c1.02-0.31,1.719-0.776,4.078-0.835 c0.064-0.004,0.43-0.004,0.502-0.006c0.297,0,0.607,0.014,0.928,0.041c4.945,0.423,10.211,5.268,10.211,11.262 c0,4.933-1.819,11.043-9.24,11.043c-6.146,0-8.036-1.292-8.274-1.438c-0.14,0.02-0.723-0.566-0.869-0.563 c-0.136,0.003-0.933,0.248-1.072,0.233c-0.388,0.019-0.776,0.009-1.154-0.024c-2.752-0.243-4.971-1.961-6.29-5.566 C18.612,15.034,18.902,11.178,17.002,7.915z"/><path fill="#68848a" d="M17.187,7.984c1.128-0.341,2.28-0.704,3.301-0.798c0.212-0.02,0.416-0.026,0.605-0.018 c0.407,0.018,0.777,0.049,1.124,0.081c0.608,0.058,1.195,0.139,1.803,0.212c0.244,0.03,0.486,0.052,0.73,0.068 c0.555,0.036,1.077,0.04,1.625-0.02c0.657-0.072,1.199-0.227,1.746-0.403c0.986-0.314,1.698-0.754,4.025-0.803 c0.054-0.003,0.435-0.002,0.495-0.004c0.294,0.001,0.599,0.016,0.914,0.045C38.416,6.795,43.6,11.571,43.6,17.482 c0,4.753-1.7,10.923-9.12,10.923c-6.029,0-7.931-1.246-8.191-1.405c-0.117,0.016-0.715-0.626-0.837-0.623 c-0.113,0.002-0.948,0.271-1.063,0.259c-0.387,0.025-0.773,0.021-1.15-0.007c-2.779-0.204-4.981-1.913-6.292-5.466 C18.695,15.165,19.03,11.274,17.187,7.984z"/><path fill="#6a858b" d="M17.372,8.052c1.13-0.345,2.28-0.7,3.286-0.776c0.212-0.016,0.414-0.018,0.601-0.005 C21.666,7.3,22.032,7.34,22.374,7.38c0.603,0.07,1.184,0.16,1.791,0.229c0.241,0.028,0.482,0.048,0.727,0.061 c0.546,0.029,1.069,0.021,1.619-0.049c0.664-0.085,1.203-0.252,1.734-0.43c0.953-0.317,1.677-0.732,3.971-0.771 c0.043-0.003,0.44-0.001,0.488-0.002c0.291,0.002,0.591,0.019,0.9,0.049c4.775,0.479,9.877,5.186,9.877,11.015 c0,4.574-1.582,10.803-9,10.803c-5.912,0-7.826-1.2-8.108-1.372c-0.093,0.013-0.707-0.685-0.805-0.683 c-0.09,0.002-0.962,0.294-1.054,0.285c-0.386,0.03-0.771,0.032-1.146,0.01c-2.806-0.165-4.99-1.864-6.294-5.365 C18.779,15.295,19.158,11.37,17.372,8.052z"/><path fill="#6b868c" d="M17.558,8.12c1.133-0.35,2.279-0.697,3.27-0.753c0.211-0.012,0.412-0.01,0.596,0.008 c0.407,0.04,0.77,0.088,1.107,0.135c0.597,0.083,1.173,0.18,1.779,0.246c0.239,0.026,0.478,0.044,0.723,0.054 c0.538,0.021,1.06,0.003,1.612-0.077c0.67-0.097,1.206-0.276,1.721-0.456c0.92-0.321,1.656-0.71,3.917-0.74 c0.032-0.002,0.445,0.001,0.481,0c0.288,0.003,0.583,0.021,0.885,0.053c4.689,0.506,9.71,5.146,9.71,10.891 c0,4.394-1.463,10.684-8.88,10.684c-5.795,0-7.721-1.154-8.025-1.34c-0.07,0.01-0.7-0.745-0.773-0.744 c-0.068,0.001-0.976,0.318-1.046,0.31c-0.386,0.036-0.769,0.044-1.142,0.028c-2.833-0.124-5-1.815-6.296-5.265 C18.862,15.425,19.286,11.467,17.558,8.12z"/><path fill="#6c878d" d="M17.743,8.188c1.135-0.354,2.278-0.693,3.255-0.73c0.211-0.008,0.41-0.001,0.592,0.022 c0.406,0.051,0.766,0.108,1.098,0.162c0.592,0.096,1.162,0.2,1.766,0.263c0.236,0.025,0.474,0.041,0.72,0.047 c0.53,0.014,1.051-0.017,1.605-0.105c0.676-0.11,1.21-0.3,1.708-0.483c0.886-0.324,1.635-0.688,3.864-0.708 c0.021-0.001,0.45,0.002,0.474,0.001c0.285,0.004,0.575,0.023,0.871,0.057c4.604,0.534,9.543,5.105,9.543,10.767 c0,4.215-1.344,10.564-8.76,10.564c-5.678,0-7.616-1.108-7.941-1.307c-0.047,0.007-0.692-0.805-0.741-0.804 c-0.045,0.001-0.991,0.341-1.037,0.336c-0.385,0.042-0.767,0.056-1.138,0.045c-2.859-0.084-5.01-1.766-6.298-5.165 C18.946,15.555,19.414,11.563,17.743,8.188z"/><path fill="#6e888e" d="M17.928,8.257c1.138-0.359,2.278-0.687,3.239-0.707c0.211-0.004,0.409,0.007,0.588,0.035 c0.406,0.062,0.762,0.129,1.09,0.189c0.587,0.111,1.151,0.221,1.754,0.28c0.233,0.023,0.471,0.038,0.717,0.04 c0.521,0.008,1.043-0.035,1.599-0.134c0.683-0.122,1.214-0.324,1.696-0.51c0.853-0.328,1.614-0.666,3.81-0.676 c0.011-0.001,0.455,0.004,0.467,0.003c0.282,0.005,0.568,0.025,0.857,0.061c4.519,0.562,9.376,5.064,9.376,10.643 c0,4.035-1.226,10.444-8.64,10.444c-5.561,0-7.511-1.061-7.858-1.274c-0.023,0.003-0.685-0.864-0.709-0.864 c-0.023,0-1.005,0.364-1.028,0.362c-0.384,0.047-0.765,0.068-1.134,0.062c-2.886-0.037-5.02-1.717-6.299-5.064 C19.029,15.685,19.542,11.659,17.928,8.257z"/><path fill="#6f898f" d="M34.48,27.806c-5.444,0-7.406-1.015-7.775-1.241l-0.677-0.924l-1.019,0.387 c-0.383,0.053-0.763,0.08-1.13,0.08c-2.912,0-5.03-1.669-6.301-4.964c1.536-5.328,2.094-9.389,0.537-12.819 c1.14-0.363,2.277-0.684,3.224-0.684c0.21,0,0.407,0.016,0.584,0.048c0.405,0.074,0.758,0.148,1.081,0.216 c0.804,0.17,1.564,0.331,2.455,0.331c0.513,0,1.034-0.054,1.592-0.162c0.689-0.134,1.217-0.348,1.683-0.537 c0.819-0.332,1.593-0.644,3.757-0.644l0.46,0.005c4.648,0.094,10.051,4.738,10.051,10.585 C43.001,21.338,41.894,27.806,34.48,27.806z"/><g><path fill="#58777e" d="M19.254,23.24c-0.12,2.07,0.086,4.966,0.32,6.264c0.259,1.434,0.263,4.846,0,6.272 c-0.263,1.426,0.831,2.983,1.445,3.963c0.614,0.98-0.266,2.036,0.948,2.482c1.215,0.446,3.111-2.006,3.586-2.851 s0.233-2.12-1.144-2.887c-1.126-0.628,0.149-3.753,0.67-4.751c0.521-0.998,1.153-3.827,0.97-5.271 C25.865,25.017,21.351,19.469,19.254,23.24z"/><path fill="#59787f" d="M19.323,23.24c-0.117,2.07,0.084,4.966,0.313,6.264c0.253,1.434,0.258,4.846,0,6.272 c-0.258,1.426,0.814,2.983,1.415,3.963s-0.261,2.036,0.929,2.482s3.048-2.006,3.513-2.851s0.228-2.12-1.12-2.887 c-1.103-0.628,0.146-3.753,0.656-4.751c0.51-0.998,1.13-3.827,0.95-5.271C25.8,25.017,21.378,19.469,19.323,23.24z"/><path fill="#5b7980" d="M19.392,23.24c-0.115,2.07,0.082,4.966,0.307,6.264c0.248,1.434,0.253,4.846,0,6.272 c-0.253,1.426,0.797,2.983,1.386,3.963s-0.255,2.036,0.91,2.482c1.165,0.446,2.985-2.006,3.44-2.851s0.223-2.12-1.097-2.887 c-1.08-0.628,0.143-3.753,0.643-4.751c0.499-0.998,1.106-3.827,0.93-5.271C25.734,25.017,21.404,19.469,19.392,23.24z"/><path fill="#5c7a81" d="M19.461,23.24c-0.112,2.07,0.081,4.966,0.3,6.264c0.243,1.434,0.247,4.846,0,6.272 c-0.247,1.426,0.78,2.983,1.357,3.963s-0.25,2.036,0.891,2.482s2.921-2.006,3.367-2.851c0.446-0.845,0.219-2.12-1.074-2.887 c-1.057-0.628,0.14-3.753,0.629-4.751c0.489-0.998,1.083-3.827,0.911-5.271C25.669,25.017,21.431,19.469,19.461,23.24z"/><path fill="#5d7b82" d="M19.53,23.24c-0.11,2.07,0.079,4.966,0.294,6.264c0.237,1.434,0.242,4.846,0,6.272 c-0.242,1.426,0.764,2.983,1.327,3.963s-0.244,2.036,0.871,2.482c1.116,0.446,2.858-2.006,3.294-2.851 c0.436-0.845,0.214-2.12-1.051-2.887c-1.035-0.628,0.137-3.753,0.615-4.751c0.478-0.998,1.059-3.827,0.891-5.271 C25.604,25.017,21.457,19.469,19.53,23.24z"/><path fill="#5f7c83" d="M19.599,23.24c-0.108,2.07,0.077,4.966,0.287,6.264c0.232,1.434,0.237,4.846,0,6.272 c-0.237,1.426,0.747,2.983,1.298,3.963s-0.239,2.036,0.852,2.482s2.795-2.006,3.221-2.851s0.209-2.12-1.027-2.887 c-1.012-0.628,0.134-3.753,0.602-4.751c0.468-0.998,1.036-3.827,0.871-5.271C25.538,25.017,21.483,19.469,19.599,23.24z"/><path fill="#607d84" d="M19.668,23.24c-0.105,2.07,0.075,4.966,0.281,6.264c0.227,1.434,0.231,4.846,0,6.272 c-0.231,1.426,0.73,2.983,1.268,3.963c0.539,0.98-0.234,2.036,0.833,2.482c1.066,0.446,2.731-2.006,3.148-2.851 c0.417-0.845,0.204-2.12-1.004-2.887c-0.989-0.628,0.131-3.753,0.588-4.751c0.457-0.998,1.012-3.827,0.851-5.271 C25.473,25.017,21.51,19.469,19.668,23.24z"/><path fill="#617e85" d="M19.737,23.24c-0.103,2.07,0.074,4.966,0.274,6.264c0.222,1.434,0.226,4.846,0,6.272 c-0.226,1.426,0.713,2.983,1.239,3.963c0.526,0.98-0.228,2.036,0.813,2.482s2.668-2.006,3.075-2.851s0.2-2.12-0.981-2.887 c-0.966-0.628,0.128-3.753,0.574-4.751c0.446-0.998,0.989-3.827,0.832-5.271C25.407,25.017,21.536,19.469,19.737,23.24z"/><path fill="#637f86" d="M19.806,23.24c-0.1,2.07,0.072,4.966,0.268,6.264c0.216,1.434,0.221,4.846,0,6.272 c-0.221,1.426,0.696,2.983,1.21,3.963s-0.223,2.036,0.794,2.482c1.017,0.446,2.605-2.006,3.002-2.851s0.195-2.12-0.957-2.887 c-0.943-0.628,0.125-3.753,0.561-4.751c0.436-0.998,0.965-3.827,0.812-5.271C25.342,25.017,21.563,19.469,19.806,23.24z"/><path fill="#648187" d="M19.875,23.24c-0.098,2.07,0.07,4.966,0.261,6.264c0.211,1.434,0.215,4.846,0,6.272 c-0.215,1.426,0.679,2.983,1.18,3.963c0.501,0.98-0.217,2.036,0.775,2.482s2.541-2.006,2.929-2.851 c0.388-0.845,0.19-2.12-0.934-2.887c-0.92-0.628,0.122-3.753,0.547-4.751c0.425-0.998,0.942-3.827,0.792-5.271 C25.276,25.017,21.589,19.469,19.875,23.24z"/><path fill="#668288" d="M19.945,23.24c-0.095,2.07,0.068,4.966,0.255,6.264c0.206,1.434,0.21,4.846,0,6.272 c-0.21,1.426,0.662,2.983,1.151,3.963c0.489,0.98-0.212,2.036,0.755,2.482c0.967,0.446,2.478-2.006,2.856-2.851 c0.378-0.845,0.185-2.12-0.911-2.887c-0.897-0.628,0.119-3.753,0.534-4.751c0.415-0.998,0.918-3.827,0.772-5.271 C25.211,25.017,21.616,19.469,19.945,23.24z"/><path fill="#678389" d="M20.014,23.24c-0.093,2.07,0.067,4.966,0.248,6.264c0.201,1.434,0.204,4.846,0,6.272 c-0.204,1.426,0.645,2.983,1.121,3.963s-0.207,2.036,0.736,2.482s2.415-2.006,2.783-2.851s0.181-2.12-0.888-2.887 c-0.874-0.628,0.116-3.753,0.52-4.751c0.404-0.998,0.895-3.827,0.753-5.271C25.146,25.017,21.642,19.469,20.014,23.24z"/><path fill="#68848a" d="M20.083,23.24c-0.091,2.07,0.065,4.966,0.242,6.264c0.195,1.434,0.199,4.846,0,6.272 c-0.199,1.426,0.628,2.983,1.092,3.963s-0.201,2.036,0.717,2.482c0.918,0.446,2.352-2.006,2.71-2.851 c0.359-0.845,0.176-2.12-0.864-2.887c-0.851-0.628,0.113-3.753,0.506-4.751c0.394-0.998,0.871-3.827,0.733-5.271 C25.08,25.017,21.668,19.469,20.083,23.24z"/><path fill="#6a858b" d="M20.152,23.24c-0.088,2.07,0.063,4.966,0.235,6.264c0.19,1.434,0.194,4.846,0,6.272 c-0.194,1.426,0.611,2.983,1.063,3.963c0.451,0.98-0.196,2.036,0.698,2.482s2.288-2.006,2.637-2.851s0.171-2.12-0.841-2.887 c-0.828-0.628,0.11-3.753,0.493-4.751c0.383-0.998,0.848-3.827,0.713-5.271C25.015,25.017,21.695,19.469,20.152,23.24z"/><path fill="#6b868c" d="M20.221,23.24c-0.086,2.07,0.061,4.966,0.229,6.264c0.185,1.434,0.188,4.846,0,6.272 c-0.188,1.426,0.594,2.983,1.033,3.963s-0.19,2.036,0.678,2.482c0.869,0.446,2.225-2.006,2.564-2.851s0.167-2.12-0.818-2.887 c-0.805-0.628,0.107-3.753,0.479-4.751c0.372-0.998,0.825-3.827,0.694-5.271C24.949,25.017,21.721,19.469,20.221,23.24z"/><path fill="#6c878d" d="M20.29,23.24c-0.083,2.07,0.06,4.966,0.222,6.264c0.18,1.434,0.183,4.846,0,6.272 c-0.183,1.426,0.578,2.983,1.004,3.963c0.426,0.98-0.185,2.036,0.659,2.482s2.162-2.006,2.491-2.851 c0.33-0.845,0.162-2.12-0.795-2.887c-0.783-0.628,0.104-3.753,0.465-4.751c0.362-0.998,0.801-3.827,0.674-5.271 C24.884,25.017,21.748,19.469,20.29,23.24z"/><path fill="#6e888e" d="M20.359,23.24c-0.081,2.07,0.058,4.966,0.216,6.264c0.174,1.434,0.178,4.846,0,6.272 c-0.178,1.426,0.561,2.983,0.974,3.963c0.414,0.98-0.18,2.036,0.64,2.482c0.819,0.446,2.098-2.006,2.418-2.851 c0.32-0.845,0.157-2.12-0.771-2.887c-0.76-0.628,0.101-3.753,0.452-4.751c0.351-0.998,0.778-3.827,0.654-5.271 C24.818,25.017,21.774,19.469,20.359,23.24z"/><path fill="#6f898f" d="M20.428,23.24c-0.078,2.07,0.056,4.966,0.209,6.264c0.169,1.434,0.172,4.846,0,6.272 c-0.172,1.426,0.544,2.983,0.945,3.963c0.401,0.98-0.174,2.036,0.62,2.482s2.035-2.006,2.346-2.851s0.152-2.12-0.748-2.887 c-0.737-0.628,0.098-3.753,0.438-4.751c0.341-0.998,0.754-3.827,0.634-5.271C24.753,25.017,21.8,19.469,20.428,23.24z"/></g><g><path fill="#58777e" d="M31.162,24.944c-0.798,1.597-0.85,4.359-0.012,6.449c0.838,2.09,0.881,4.26,0.711,5.682 c-0.17,1.418-0.59,2.521-0.835,3.079c-0.246,0.558-2.036,2.342-0.094,2.593s3.716,0.087,4.056,0 c0.34-0.087,1.281-0.443,1.173-2.574c-0.108-2.13-0.286-4.524,0-5.518c0.401-1.393,0.64-2.396,2.184-3.758 c0.579-0.511,2.657-2.755,3.598-3.937s-2.04-4.836-4.707-4.836C35.436,22.124,32.479,22.31,31.162,24.944z"/><path fill="#59787f" d="M31.216,24.944c-0.783,1.597-0.834,4.359-0.012,6.449c0.822,2.09,0.865,4.26,0.698,5.682 c-0.167,1.418-0.579,2.521-0.819,3.079c-0.241,0.558-1.997,2.342-0.092,2.593c1.905,0.25,3.645,0.087,3.979,0 s1.257-0.443,1.151-2.574c-0.106-2.13-0.281-4.524,0-5.518c0.393-1.393,0.628-2.396,2.142-3.758 c0.568-0.511,2.606-2.755,3.529-3.937s-2.001-4.836-4.617-4.836C35.41,22.124,32.508,22.31,31.216,24.944z"/><path fill="#5b7980" d="M31.271,24.944c-0.768,1.597-0.818,4.359-0.012,6.449s0.848,4.26,0.684,5.682 c-0.163,1.418-0.567,2.521-0.804,3.079c-0.236,0.558-1.958,2.342-0.09,2.593c1.868,0.25,3.574,0.087,3.901,0 s1.232-0.443,1.128-2.574c-0.104-2.13-0.275-4.524,0-5.518c0.385-1.393,0.616-2.396,2.101-3.758 c0.557-0.511,2.556-2.755,3.461-3.937c0.905-1.182-1.962-4.836-4.527-4.836C35.383,22.124,32.538,22.31,31.271,24.944z"/><path fill="#5c7a81" d="M31.326,24.944c-0.753,1.597-0.802,4.359-0.011,6.449c0.79,2.09,0.831,4.26,0.67,5.682 c-0.16,1.418-0.556,2.521-0.788,3.079c-0.232,0.558-1.919,2.342-0.089,2.593c1.831,0.25,3.503,0.087,3.824,0 s1.208-0.443,1.106-2.574c-0.102-2.13-0.27-4.524,0-5.518c0.378-1.393,0.604-2.396,2.059-3.758 c0.546-0.511,2.505-2.755,3.392-3.937c0.887-1.182-1.923-4.836-4.437-4.836C35.356,22.124,32.567,22.31,31.326,24.944z"/><path fill="#5d7b82" d="M31.381,24.944c-0.738,1.597-0.785,4.359-0.011,6.449s0.814,4.26,0.657,5.682 c-0.157,1.418-0.545,2.521-0.772,3.079c-0.227,0.558-1.881,2.342-0.087,2.593s3.432,0.087,3.746,0s1.183-0.443,1.084-2.574 c-0.1-2.13-0.264-4.524,0-5.518c0.37-1.393,0.591-2.396,2.017-3.758c0.535-0.511,2.454-2.755,3.323-3.937 c0.869-1.182-1.884-4.836-4.347-4.836C35.329,22.124,32.597,22.31,31.381,24.944z"/><path fill="#5f7c83" d="M31.436,24.944c-0.722,1.597-0.769,4.359-0.011,6.449c0.758,2.09,0.797,4.26,0.643,5.682 c-0.154,1.418-0.534,2.521-0.756,3.079c-0.222,0.558-1.842,2.342-0.085,2.593s3.361,0.087,3.669,0s1.159-0.443,1.061-2.574 c-0.098-2.13-0.259-4.524,0-5.518c0.362-1.393,0.579-2.396,1.976-3.758c0.524-0.511,2.403-2.755,3.255-3.937 c0.851-1.182-1.845-4.836-4.257-4.836C35.302,22.124,32.627,22.31,31.436,24.944z"/><path fill="#607d84" d="M31.49,24.944c-0.707,1.597-0.753,4.359-0.011,6.449c0.742,2.09,0.78,4.26,0.63,5.682 c-0.15,1.418-0.522,2.521-0.74,3.079c-0.217,0.558-1.803,2.342-0.083,2.593s3.29,0.087,3.592,0s1.135-0.443,1.039-2.574 c-0.096-2.13-0.253-4.524,0-5.518c0.355-1.393,0.567-2.396,1.934-3.758c0.513-0.511,2.353-2.755,3.186-3.937 c0.833-1.182-1.806-4.836-4.167-4.836C35.275,22.124,32.656,22.31,31.49,24.944z"/><path fill="#617e85" d="M31.545,24.944c-0.692,1.597-0.737,4.359-0.01,6.449c0.726,2.09,0.764,4.26,0.616,5.682 c-0.147,1.418-0.511,2.521-0.724,3.079c-0.213,0.558-1.764,2.342-0.081,2.593s3.219,0.087,3.514,0s1.11-0.443,1.016-2.574 c-0.094-2.13-0.248-4.524,0-5.518c0.347-1.393,0.555-2.396,1.892-3.758c0.502-0.511,2.302-2.755,3.117-3.937 c0.815-1.182-1.767-4.836-4.078-4.836C35.248,22.124,32.686,22.31,31.545,24.944z"/><path fill="#637f86" d="M31.6,24.944c-0.677,1.597-0.721,4.359-0.01,6.449c0.71,2.09,0.747,4.26,0.603,5.682 c-0.144,1.418-0.5,2.521-0.708,3.079c-0.208,0.558-1.725,2.342-0.08,2.593s3.148,0.087,3.437,0s1.086-0.443,0.994-2.574 c-0.092-2.13-0.242-4.524,0-5.518c0.339-1.393,0.543-2.396,1.85-3.758c0.491-0.511,2.251-2.755,3.049-3.937 s-1.728-4.836-3.988-4.836C35.222,22.124,32.716,22.31,31.6,24.944z"/><path fill="#648187" d="M31.655,24.944c-0.661,1.597-0.704,4.359-0.01,6.449s0.73,4.26,0.589,5.682 c-0.141,1.418-0.488,2.521-0.692,3.079c-0.203,0.558-1.686,2.342-0.078,2.593c1.608,0.25,3.077,0.087,3.359,0 c0.282-0.087,1.061-0.443,0.972-2.574c-0.09-2.13-0.237-4.524,0-5.518c0.332-1.393,0.53-2.396,1.809-3.758 c0.48-0.511,2.201-2.755,2.98-3.937s-1.689-4.836-3.898-4.836C35.195,22.124,32.745,22.31,31.655,24.944z"/><path fill="#668288" d="M31.709,24.944c-0.646,1.597-0.688,4.359-0.01,6.449c0.678,2.09,0.713,4.26,0.575,5.682 c-0.137,1.418-0.477,2.521-0.676,3.079c-0.199,0.558-1.647,2.342-0.076,2.593c1.571,0.25,3.006,0.087,3.282,0 s1.037-0.443,0.949-2.574c-0.088-2.13-0.231-4.524,0-5.518c0.324-1.393,0.518-2.396,1.767-3.758 c0.469-0.511,2.15-2.755,2.911-3.937s-1.65-4.836-3.808-4.836C35.168,22.124,32.775,22.31,31.709,24.944z"/><path fill="#678389" d="M31.764,24.944c-0.631,1.597-0.672,4.359-0.009,6.449s0.696,4.26,0.562,5.682 c-0.134,1.418-0.466,2.521-0.66,3.079c-0.194,0.558-1.608,2.342-0.074,2.593c1.534,0.25,2.935,0.087,3.204,0 c0.269-0.087,1.012-0.443,0.927-2.574c-0.085-2.13-0.226-4.524,0-5.518c0.317-1.393,0.506-2.396,1.725-3.758 c0.458-0.511,2.099-2.755,2.842-3.937s-1.611-4.836-3.718-4.836C35.141,22.124,32.805,22.31,31.764,24.944z"/><path fill="#68848a" d="M31.819,24.944c-0.616,1.597-0.656,4.359-0.009,6.449c0.646,2.09,0.679,4.26,0.548,5.682 c-0.131,1.418-0.455,2.521-0.644,3.079c-0.189,0.558-1.57,2.342-0.072,2.593c1.497,0.25,2.865,0.087,3.127,0 s0.988-0.443,0.904-2.574c-0.083-2.13-0.22-4.524,0-5.518c0.309-1.393,0.494-2.396,1.684-3.758 c0.447-0.511,2.048-2.755,2.774-3.937c0.725-1.182-1.572-4.836-3.628-4.836C35.114,22.124,32.834,22.31,31.819,24.944z"/><path fill="#6a858b" d="M31.874,24.944c-0.6,1.597-0.639,4.359-0.009,6.449s0.663,4.26,0.535,5.682 c-0.128,1.418-0.443,2.521-0.628,3.079c-0.185,0.558-1.531,2.342-0.071,2.593c1.46,0.25,2.794,0.087,3.049,0 c0.256-0.087,0.963-0.443,0.882-2.574c-0.081-2.13-0.215-4.524,0-5.518c0.301-1.393,0.481-2.396,1.642-3.758 c0.436-0.511,1.998-2.755,2.705-3.937c0.707-1.182-1.533-4.836-3.538-4.836C35.087,22.124,32.864,22.31,31.874,24.944z"/><path fill="#6b868c" d="M31.929,24.944c-0.585,1.597-0.623,4.359-0.009,6.449c0.614,2.09,0.646,4.26,0.521,5.682 c-0.124,1.418-0.432,2.521-0.612,3.079c-0.18,0.558-1.492,2.342-0.069,2.593c1.423,0.25,2.723,0.087,2.972,0 s0.939-0.443,0.86-2.574c-0.079-2.13-0.21-4.524,0-5.518c0.294-1.393,0.469-2.396,1.6-3.758c0.425-0.511,1.947-2.755,2.636-3.937 s-1.494-4.836-3.449-4.836C35.061,22.124,32.893,22.31,31.929,24.944z"/><path fill="#6c878d" d="M31.983,24.944c-0.57,1.597-0.607,4.359-0.009,6.449s0.629,4.26,0.507,5.682 c-0.121,1.418-0.421,2.521-0.596,3.079c-0.175,0.558-1.453,2.342-0.067,2.593c1.386,0.25,2.652,0.087,2.895,0 c0.243-0.087,0.914-0.443,0.837-2.574c-0.077-2.13-0.204-4.524,0-5.518c0.286-1.393,0.457-2.396,1.559-3.758 c0.413-0.511,1.896-2.755,2.568-3.937s-1.456-4.836-3.359-4.836C35.034,22.124,32.923,22.31,31.983,24.944z"/><path fill="#6e888e" d="M32.038,24.944c-0.555,1.597-0.591,4.359-0.008,6.449s0.612,4.26,0.494,5.682 c-0.118,1.418-0.41,2.521-0.58,3.079c-0.171,0.558-1.414,2.342-0.065,2.593c1.349,0.25,2.581,0.087,2.817,0 c0.236-0.087,0.89-0.443,0.815-2.574c-0.075-2.13-0.199-4.524,0-5.518c0.278-1.393,0.445-2.396,1.517-3.758 c0.402-0.511,1.845-2.755,2.499-3.937s-1.417-4.836-3.269-4.836C35.007,22.124,32.953,22.31,32.038,24.944z"/><path fill="#6f898f" d="M32.093,24.944c-0.539,1.597-0.574,4.359-0.008,6.449c0.566,2.09,0.595,4.26,0.48,5.682 c-0.115,1.418-0.398,2.521-0.564,3.079c-0.166,0.558-1.375,2.342-0.063,2.593s2.51,0.087,2.74,0 c0.23-0.087,0.865-0.443,0.792-2.574c-0.073-2.13-0.193-4.524,0-5.518c0.271-1.393,0.433-2.396,1.475-3.758 c0.391-0.511,1.795-2.755,2.43-3.937s-1.378-4.836-3.179-4.836C34.98,22.124,32.982,22.31,32.093,24.944z"/></g><linearGradient id="XIw~QK2WZHgkat8MiE65Rg" x1="-.044" x2="12.521" y1="14.703" y2="22.881" gradientUnits="userSpaceOnUse"><stop offset="0" stop-color="#82979c"/><stop offset="1" stop-color="#58777e"/></linearGradient><path fill="url(#XIw~QK2WZHgkat8MiE65Rg)" d="M7.904,8.647c-2,1.355-5.178,7.338-5.178,14.714c0,7.373,0.862,12.903,4.832,12.903	c1.692,0,2.36-1.319,2.743-2.272c0.374-0.93,1.316-0.878,0.447-1.565c-0.87-0.687-0.037-2.171-1.043-1.355	c-0.959,0.779-0.492,2.841-1.922,2.841s-2.931-3.995-0.161-9.963c1.843-3.971,3.271-1.119,6.704-4.629s1.337-10.861,0.639-12.158	C13.063,7.711,11.007,6.545,7.904,8.647z"/><radialGradient id="XIw~QK2WZHgkat8MiE65Rh" cx="13.139" cy="9.448" r="7.392" gradientTransform="matrix(-.0089 -1 .4522 -.004 8.983 22.624)" gradientUnits="userSpaceOnUse"><stop offset="0" stop-color="#82979c"/><stop offset="1" stop-color="#82979c" stop-opacity="0"/></radialGradient><path fill="url(#XIw~QK2WZHgkat8MiE65Rh)" d="M7.904,8.647c-2,1.355-5.178,7.338-5.178,14.714c0,7.373,0.862,12.903,4.832,12.903	c1.692,0,2.36-1.319,2.743-2.272c0.374-0.93,1.316-0.878,0.447-1.565c-0.87-0.687-0.037-2.171-1.043-1.355	c-0.959,0.779-0.492,2.841-1.922,2.841s-2.931-3.995-0.161-9.963c1.843-3.971,3.271-1.119,6.704-4.629s1.337-10.861,0.639-12.158	C13.063,7.711,11.007,6.545,7.904,8.647z"/><linearGradient id="XIw~QK2WZHgkat8MiE65Ri" x1="6.872" x2="9.99" y1="14.673" y2="15.724" gradientUnits="userSpaceOnUse"><stop offset="0" stop-color="#58777e"/><stop offset="1" stop-color="#58777e" stop-opacity="0"/></linearGradient><path fill="url(#XIw~QK2WZHgkat8MiE65Ri)" d="M11.037,14.972c-0.236-0.501-1.039-0.618-1.795-0.262C8.486,15.066,8.064,15.76,8.3,16.26	s1.039,0.618,1.795,0.262C10.851,16.167,11.273,15.472,11.037,14.972z"/><radialGradient id="XIw~QK2WZHgkat8MiE65Rj" cx="19.132" cy="16.635" r="8.761" gradientTransform="matrix(.725 .2772 -.1594 .417 12.13 11.316)" gradientUnits="userSpaceOnUse"><stop offset="0" stop-color="#6f898f"/><stop offset=".859" stop-color="#6f898f" stop-opacity=".141"/><stop offset="1" stop-color="#6f898f" stop-opacity="0"/></radialGradient><path fill="url(#XIw~QK2WZHgkat8MiE65Rj)" d="M29.699,25.983c0.771-2.017-1.447-4.74-4.954-6.081s-6.976-0.793-7.747,1.225	s1.447,4.74,4.954,6.081S28.928,28,29.699,25.983z"/><circle cx="9.574" cy="15.966" r=".726" fill="#373f45"/><linearGradient id="XIw~QK2WZHgkat8MiE65Rk" x1="14.496" x2="20.053" y1="22.428" y2="22.428" gradientUnits="userSpaceOnUse"><stop offset=".251" stop-color="#506c73"/><stop offset="1" stop-color="#506c73" stop-opacity="0"/></linearGradient><path fill="url(#XIw~QK2WZHgkat8MiE65Rk)" d="M19.218,23.648c-0.603-1.699,1.321-3.191,3.078-4.921c-1.21-1.68-4.576,0.614-4.576,0.614	s-2.48,2.138-1.653,3.547c0.827,1.409,1.399,2.628,3.218,3.856C19.244,25.6,19.137,24.686,19.218,23.648z"/><linearGradient id="XIw~QK2WZHgkat8MiE65Rl" x1="15.181" x2="11.292" y1="16.46" y2="21.845" gradientUnits="userSpaceOnUse"><stop offset=".251" stop-color="#506c73"/><stop offset="1" stop-color="#506c73" stop-opacity="0"/></linearGradient><path fill="url(#XIw~QK2WZHgkat8MiE65Rl)" d="M16.041,15.782c-0.255,1.335-0.775,2.579-1.713,3.537c-1.784,1.825-3.028,1.937-4.068,2.171	c1.356-0.948,3.599-2.854,4.21-5.678C15.072,15.721,15.592,15.721,16.041,15.782z"/><linearGradient id="XIw~QK2WZHgkat8MiE65Rm" x1="11.577" x2="24.734" y1="8.023" y2="21.18" gradientUnits="userSpaceOnUse"><stop offset="0" stop-color="#82979c"/><stop offset="1" stop-color="#58777e"/></linearGradient><path fill="url(#XIw~QK2WZHgkat8MiE65Rm)" d="M14.964,7.164c2.435-0.451,4.285-1.633,6.496-0.816s4.305,3.695,4.305,6.062	s-2.115,6.757-9.697,10.477c-0.817,0.401-1.844,0.798-2.175-0.791c-0.379-1.82,0.335-5.917,1.015-7.761	c0.487-1.321,0.403-2.271-0.153-2.827S13.304,8.427,14.964,7.164z"/><linearGradient id="XIw~QK2WZHgkat8MiE65Rn" x1="12.88" x2="26.037" y1="6.721" y2="19.878" gradientUnits="userSpaceOnUse"><stop offset="0" stop-color="#82979c"/><stop offset="1" stop-color="#58777e"/></linearGradient><path fill="url(#XIw~QK2WZHgkat8MiE65Rn)" d="M13.063,11.368c0.639,1.02,1.201,0.684,2.022-0.197c0.821-0.882,1.449-1.626,3.023-1.626	c0.444-1.515-0.837-2.983-0.837-2.983c-1.506,0.426-2.41,0.665-4.208,0.735C12.169,8.894,13.063,11.368,13.063,11.368z"/><radialGradient id="XIw~QK2WZHgkat8MiE65Ro" cx="36.54" cy="21.582" r="8.761" gradientTransform="matrix(.7761 0 0 .7493 8.44 8.163)" gradientUnits="userSpaceOnUse"><stop offset="0" stop-color="#6f898f"/><stop offset=".859" stop-color="#6f898f" stop-opacity=".141"/><stop offset="1" stop-color="#6f898f" stop-opacity="0"/></radialGradient><ellipse cx="36.801" cy="24.333" fill="url(#XIw~QK2WZHgkat8MiE65Ro)" rx="6.799" ry="6.564"/><linearGradient id="XIw~QK2WZHgkat8MiE65Rp" x1="28.389" x2="28.389" y1="35.87" y2="23.95" gradientUnits="userSpaceOnUse"><stop offset=".251" stop-color="#506c73"/><stop offset="1" stop-color="#506c73" stop-opacity="0"/></linearGradient><path fill="url(#XIw~QK2WZHgkat8MiE65Rp)" d="M30.673,29.652c-1.94-0.185-3.409-0.613-4.711-1.17c0.237-1.287,0.049-3.155,0.049-3.155	c0.694,1.236,3.323,1.501,4.806,0.534C30.535,26.778,30.435,28.273,30.673,29.652z"/><linearGradient id="XIw~QK2WZHgkat8MiE65Rq" x1="7.024" x2="1.888" y1="24.634" y2="26.03" gradientUnits="userSpaceOnUse"><stop offset=".251" stop-color="#506c73"/><stop offset="1" stop-color="#506c73" stop-opacity="0"/></linearGradient><path fill="url(#XIw~QK2WZHgkat8MiE65Rq)" d="M8.13,22.989c-0.163,0.265-0.336,0.581-0.51,0.958c-0.326,0.703-0.591,1.386-0.805,2.029	c-0.194,0.102-0.398,0.204-0.601,0.285c-0.489,0.194-0.989,0.336-1.509,0.438c-0.52,0.092-1.05,0.133-1.57,0.112	c-0.102-0.01-0.214-0.01-0.326-0.02c-0.031-0.428-0.041-0.867-0.061-1.315c0.133-0.031,0.265-0.051,0.408-0.082	c1.285-0.224,2.518-0.826,3.497-1.702c0.214-0.194,0.418-0.408,0.673-0.551C7.569,22.999,7.865,22.918,8.13,22.989z"/><linearGradient id="XIw~QK2WZHgkat8MiE65Rr" x1="10.274" x2="-.164" y1="21.803" y2="27.189" gradientUnits="userSpaceOnUse"><stop offset="0" stop-color="#fff5e1"/><stop offset=".266" stop-color="#ffedca"/><stop offset=".744" stop-color="#ffe2a7"/><stop offset="1" stop-color="#fd9"/></linearGradient><path fill="url(#XIw~QK2WZHgkat8MiE65Rr)" d="M6.787,22.474c-0.141,0.559-1.93,2.54-6.169,3.069c-0.756,0.094-0.822,0.43-0.017,0.592	c2.608,0.525,6.579-0.412,8.091-3.307C8.169,22.372,7.282,22.148,6.787,22.474z"/><linearGradient id="XIw~QK2WZHgkat8MiE65Rs" x1="-.544" x2="12.186" y1="15.176" y2="23.46" gradientUnits="userSpaceOnUse"><stop offset="0" stop-color="#82979c"/><stop offset="1" stop-color="#58777e"/></linearGradient><path fill="url(#XIw~QK2WZHgkat8MiE65Rs)" d="M8.849,18.356c-1.637,0.922-2.316,3.203-2.388,3.911c-0.072,0.709,0.507,0.709,1.052,0.628	c0.545-0.081,0.924,0.363,1.401-0.08s0.686-0.959,1.34-1.323C10.727,19.104,8.849,18.356,8.849,18.356z"/><linearGradient id="XIw~QK2WZHgkat8MiE65Rt" x1="5.182" x2="8.922" y1="21.691" y2="20.619" gradientUnits="userSpaceOnUse"><stop offset="0" stop-color="#82979c"/><stop offset="1" stop-color="#82979c" stop-opacity="0"/></linearGradient><path fill="url(#XIw~QK2WZHgkat8MiE65Rt)" d="M8.849,18.356c-1.637,0.922-2.316,3.203-2.388,3.911c-0.072,0.709,0.507,0.709,1.052,0.628	c0.545-0.081,0.924,0.363,1.401-0.08s0.686-0.959,1.34-1.323C10.727,19.104,8.849,18.356,8.849,18.356z"/><radialGradient id="XIw~QK2WZHgkat8MiE65Ru" cx="37.519" cy="150.507" r="9.838" gradientTransform="matrix(.7248 .689 -.6379 .671 103.171 -111.224)" gradientUnits="userSpaceOnUse"><stop offset=".173" stop-color="#7b979e"/><stop offset="1" stop-color="#7b979e" stop-opacity="0"/></radialGradient><path fill="url(#XIw~QK2WZHgkat8MiE65Ru)" d="M41.487,22.394c-3.466,3.646-9.467,3.566-13.405-0.177s-4.32-9.733-0.855-13.379	s9.467-3.566,13.405,0.177S44.953,18.749,41.487,22.394z"/><radialGradient id="XIw~QK2WZHgkat8MiE65Rv" cx="16.911" cy="165.479" r="3.386" gradientTransform="matrix(.6396 .6081 -.6379 .671 104.315 -110.137)" gradientUnits="userSpaceOnUse"><stop offset=".173" stop-color="#7b979e"/><stop offset="1" stop-color="#7b979e" stop-opacity="0"/></radialGradient><path fill="url(#XIw~QK2WZHgkat8MiE65Rv)" d="M11.74,13.24c-1.193,1.255-3.13,1.35-4.326,0.213s-1.199-3.076-0.006-4.331	s3.13-1.35,4.326-0.213S12.933,11.985,11.74,13.24z"/><radialGradient id="XIw~QK2WZHgkat8MiE65Rw" cx="24.156" cy="157.919" r="4.608" gradientTransform="matrix(-.6181 1.2705 -.8325 -.405 165.9 46.43)" gradientUnits="userSpaceOnUse"><stop offset=".173" stop-color="#7b979e"/><stop offset="1" stop-color="#7b979e" stop-opacity="0"/></radialGradient><path fill="url(#XIw~QK2WZHgkat8MiE65Rw)" d="M16.651,19.01c-2.119-1.031-2.561-4.488-0.988-7.721s4.566-5.019,6.685-3.988	s2.561,4.488,0.988,7.721C21.763,18.255,18.77,20.04,16.651,19.01z"/></svg>