<svg xmlns="http://www.w3.org/2000/svg"  viewBox="0 0 48 48" width="48px" height="48px"><defs><radialGradient id="iDa7y7hZyLmeUUSXdaflma" cx="23.79" cy="37.61" r="24.57" fy="19.412" gradientTransform="matrix(1 0 0 .3 0 26.26)" gradientUnits="userSpaceOnUse"><stop offset=".54" stop-color="#6ea320"/><stop offset=".86" stop-color="#5e8d1a"/><stop offset=".88" stop-color="#598618"/><stop offset=".95" stop-color="#4c7213"/><stop offset="1" stop-color="#476b11"/></radialGradient><radialGradient id="iDa7y7hZyLmeUUSXdaflmb" cx="23.91" cy="33.05" r="31.32" gradientTransform="matrix(1 0 0 .41 0 19.35)" gradientUnits="userSpaceOnUse"><stop offset="0" stop-color="#8bcf2a"/><stop offset=".46" stop-color="#6ea320"/><stop offset=".74" stop-color="#5e8d1a"/><stop offset=".78" stop-color="#598618"/><stop offset=".91" stop-color="#4c7213"/><stop offset="1" stop-color="#476b11"/></radialGradient><linearGradient id="iDa7y7hZyLmeUUSXdaflmc" x1="24.02" x2="23.99" y1="29.98" y2="34.82" gradientUnits="userSpaceOnUse"><stop offset=".35" stop-color="#78b224"/><stop offset=".56" stop-color="#6ea320"/><stop offset=".72" stop-color="#5e8d1a"/><stop offset=".81" stop-color="#527c15"/><stop offset=".9" stop-color="#4a6f12"/><stop offset="1" stop-color="#476b11"/></linearGradient><linearGradient id="iDa7y7hZyLmeUUSXdaflmd" x1="24" x2="24" y1="31.24" y2="39.8" gradientUnits="userSpaceOnUse"><stop offset=".06" stop-color="#78b224"/><stop offset=".34" stop-color="#6ea320"/><stop offset=".59" stop-color="#5e8d1a"/><stop offset=".72" stop-color="#527c15"/><stop offset=".86" stop-color="#4a6f12"/><stop offset="1" stop-color="#476b11"/></linearGradient><linearGradient id="iDa7y7hZyLmeUUSXdaflme" x1="22.98" x2="24.77" y1="19.88" y2="19.88" gradientUnits="userSpaceOnUse"><stop offset="0" stop-color="#333942"/><stop offset=".04" stop-color="#3b424d"/><stop offset=".12" stop-color="#474f5e"/><stop offset=".2" stop-color="#4f5768"/><stop offset=".31" stop-color="#51596b"/><stop offset=".48" stop-color="#3c424f"/><stop offset=".66" stop-color="#2c313a"/><stop offset=".84" stop-color="#22272d"/><stop offset="1" stop-color="#1f2329"/></linearGradient><linearGradient id="iDa7y7hZyLmeUUSXdaflmf" x1="22.87" x2="25.95" y1="19.88" y2="19.88" gradientUnits="userSpaceOnUse"><stop offset="0" stop-color="#9aa1c4"/><stop offset=".14" stop-color="#9aa1c4" stop-opacity=".79"/><stop offset=".36" stop-color="#9aa1c4" stop-opacity=".51"/><stop offset=".56" stop-color="#99a0c3" stop-opacity=".29"/><stop offset=".74" stop-color="#99a0c3" stop-opacity=".13"/><stop offset=".89" stop-color="#99a0c3" stop-opacity=".03"/><stop offset="1" stop-color="#99a0c3" stop-opacity="0"/></linearGradient><linearGradient id="iDa7y7hZyLmeUUSXdaflmg" x1="22.91" x2="41.07" y1="12.93" y2="12.93" gradientUnits="userSpaceOnUse"><stop offset="0" stop-color="#a41e1f"/><stop offset=".02" stop-color="#ba2223"/><stop offset=".04" stop-color="#d22727"/><stop offset=".07" stop-color="#e42a2b"/><stop offset=".1" stop-color="#ee2c2c"/><stop offset=".13" stop-color="#f12d2d"/><stop offset=".23" stop-color="#fb3838"/><stop offset=".33" stop-color="#ff3d3d"/><stop offset=".46" stop-color="#f43434"/><stop offset=".69" stop-color="#d61d1d"/><stop offset=".73" stop-color="#d11919"/><stop offset=".88" stop-color="#ee2d2d"/><stop offset="1" stop-color="#ff3838"/></linearGradient><linearGradient id="iDa7y7hZyLmeUUSXdaflmh" x1="25" x2="23.08" y1="13.23" y2="13.23" gradientUnits="userSpaceOnUse"><stop offset="0" stop-color="#ffc9c9" stop-opacity=".3"/><stop offset=".14" stop-color="#ffc9c9" stop-opacity=".22"/><stop offset=".46" stop-color="#ffc9c9" stop-opacity=".06"/><stop offset=".63" stop-color="#ffc9c9" stop-opacity="0"/></linearGradient><radialGradient id="iDa7y7hZyLmeUUSXdaflmi" cx="14" cy="39" r="3.72" gradientTransform="matrix(1 0 0 .27 .05 28.38)" gradientUnits="userSpaceOnUse"><stop offset="0" stop-color="#476b11"/><stop offset=".36" stop-color="#476b11" stop-opacity=".98"/><stop offset=".53" stop-color="#476b11" stop-opacity=".91"/><stop offset=".66" stop-color="#476b11" stop-opacity=".79"/><stop offset=".78" stop-color="#476b11" stop-opacity=".61"/><stop offset=".88" stop-color="#476b11" stop-opacity=".39"/><stop offset=".97" stop-color="#476b11" stop-opacity=".11"/><stop offset="1" stop-color="#476b11" stop-opacity="0"/></radialGradient><radialGradient id="iDa7y7hZyLmeUUSXdaflmj" cx="-8.48" cy="51.67" r="4.9" gradientTransform="matrix(.91 0 0 .91 20.68 -12.52)" gradientUnits="userSpaceOnUse"><stop offset="0" stop-color="#eeeff2"/><stop offset=".21" stop-color="#e7e8ec"/><stop offset=".53" stop-color="#d2d5dd"/><stop offset=".9" stop-color="#b2b7c3"/><stop offset="1" stop-color="#a8aebc"/></radialGradient><radialGradient id="iDa7y7hZyLmeUUSXdaflmk" cx="-8.27" cy="51.45" r="5.13" gradientTransform="matrix(.91 0 0 .91 20.68 -12.52)" gradientUnits="userSpaceOnUse"><stop offset="0" stop-color="#fdfdfe"/><stop offset=".01" stop-color="#fdfdfe" stop-opacity=".98"/><stop offset=".15" stop-color="#fdfdfe" stop-opacity=".69"/><stop offset=".28" stop-color="#fdfdfe" stop-opacity=".44"/><stop offset=".39" stop-color="#fdfdfe" stop-opacity=".25"/><stop offset=".5" stop-color="#fdfdfe" stop-opacity=".11"/><stop offset=".58" stop-color="#fdfdfe" stop-opacity=".03"/><stop offset=".63" stop-color="#fdfdfe" stop-opacity="0"/><stop offset=".69" stop-color="#fdfdfe" stop-opacity=".02"/><stop offset=".74" stop-color="#fdfdfe" stop-opacity=".06"/><stop offset=".79" stop-color="#fdfdfe" stop-opacity=".14"/><stop offset=".84" stop-color="#fdfdfe" stop-opacity=".25"/><stop offset=".89" stop-color="#fdfdfe" stop-opacity=".39"/><stop offset=".94" stop-color="#fdfdfe" stop-opacity=".56"/><stop offset=".99" stop-color="#fdfdfe" stop-opacity=".76"/><stop offset="1" stop-color="#fdfdfe" stop-opacity=".8"/></radialGradient></defs><g data-name="Flag in Hole"><path fill="url(#iDa7y7hZyLmeUUSXdaflma)" d="M43.77,37C40.88,34.48,33.13,32,24,32S7.12,34.48,4.23,37H3v2c0,3,8,6,21,6s21-3,21-6V37Z"/><path fill="url(#iDa7y7hZyLmeUUSXdaflmb)" d="M3,37c0-3,9.4-7,21-7s21,4,21,7-8,6-21,6S3,40,3,37Z"/><ellipse cx="24" cy="33.5" fill="url(#iDa7y7hZyLmeUUSXdaflmc)" rx="5" ry="1.5"/><path fill="url(#iDa7y7hZyLmeUUSXdaflmd)" d="M24,35.25c-2.61,0-5.25-.6-5.25-1.75s2.64-1.75,5.25-1.75,5.25.6,5.25,1.75S26.61,35.25,24,35.25Zm0-3c-2.94,0-4.75.73-4.75,1.25s1.81,1.25,4.75,1.25,4.75-.73,4.75-1.25S26.94,32.25,24,32.25Z"/><path fill="url(#iDa7y7hZyLmeUUSXdaflme)" d="M25,6V34.72c-.32,0-.65,0-1,0s-.68,0-1,0V6a1,1,0,0,1,2,0Z"/><path fill="url(#iDa7y7hZyLmeUUSXdaflmf)" d="M25,5V33.72c-.32,1-.65,1-1,1s-.68,0-1-1V5c0,.45.45,0,1,0S25,5.45,25,5Z" opacity=".3"/><path fill="url(#iDa7y7hZyLmeUUSXdaflmg)" d="M41,12.07,39.9,13.9a7.27,7.27,0,0,1-8.2,3.58,7.05,7.05,0,0,0-1.82-.24c-1.16,0-4.88.65-4.88,1.76H23V7.47h2l1-.31A6.67,6.67,0,0,1,32.93,9.1a6.78,6.78,0,0,0,5,2.23,6.62,6.62,0,0,0,2.22-.39.67.67,0,0,1,.24,0A.77.77,0,0,1,41,12.07Z"/><rect width="2" height="11.53" x="23" y="7.47" fill="url(#iDa7y7hZyLmeUUSXdaflmh)" opacity=".6"/><ellipse cx="14" cy="39" fill="url(#iDa7y7hZyLmeUUSXdaflmi)" opacity=".65" rx="4" ry="1"/><path fill="url(#iDa7y7hZyLmeUUSXdaflmj)" d="M17,36a3,3,0,0,1-2.5,3l-.08,0A2.86,2.86,0,0,1,14,39h-.18a2.56,2.56,0,0,1-.74-.14l-.08,0a2,2,0,0,1-.4-.17l-.06,0A3,3,0,0,1,13.7,33h.5a2.75,2.75,0,0,1,.86.18,2.33,2.33,0,0,1,.52.27s0,0,.06,0A3,3,0,0,1,17,36Z"/><path fill="url(#iDa7y7hZyLmeUUSXdaflmk)" d="M17,36a3,3,0,0,1-2.5,3l-.08,0A2.86,2.86,0,0,1,14,39h-.18a2.56,2.56,0,0,1-.74-.14l-.08,0a2,2,0,0,1-.4-.17l-.06,0A3,3,0,0,1,13.7,33h.5a2.75,2.75,0,0,1,.86.18,2.33,2.33,0,0,1,.52.27s0,0,.06,0A3,3,0,0,1,17,36Z"/></g></svg>