<svg xmlns="http://www.w3.org/2000/svg"  viewBox="0 0 48 48" width="48px" height="48px"><radialGradient id="0qh1ZhzygDQEpI_kCm9tPa" cx="21.753" cy="11.05" r="10" gradientTransform="matrix(1.0596 -.2952 .2684 .9633 -6.654 10.925)" gradientUnits="userSpaceOnUse"><stop offset="0" stop-color="#00ffec"/><stop offset=".157" stop-color="#00f5e4"/><stop offset=".426" stop-color="#00d9ce"/><stop offset=".773" stop-color="#00adaa"/><stop offset=".846" stop-color="#00a3a2"/></radialGradient><path fill="url(#0qh1ZhzygDQEpI_kCm9tPa)" d="M33.695,16.191c1.482,5.32-2.061,10.955-7.913,12.585c-5.852,1.63-11.798-1.361-13.28-6.681	s2.061-10.955,7.913-12.585S32.213,10.87,33.695,16.191z"/><radialGradient id="0qh1ZhzygDQEpI_kCm9tPb" cx="17.326" cy="8.13" r="9.014" gradientTransform="matrix(.9989 .046 -.0865 1.8769 -2.075 -2.594)" gradientUnits="userSpaceOnUse"><stop offset="0" stop-color="#fff" stop-opacity=".8"/><stop offset=".902" stop-color="#fff" stop-opacity="0"/></radialGradient><path fill="url(#0qh1ZhzygDQEpI_kCm9tPb)" d="M13.901,18.591c1.927-0.537,5.18-1.443,5.18-1.443s-0.805-2.89,1.28-6.585	c-0.963,0.268-2.89,0.805-2.89,0.805S13.845,13.753,13.901,18.591z"/><radialGradient id="0qh1ZhzygDQEpI_kCm9tPc" cx="28.032" cy="37.203" r="20.082" gradientTransform="matrix(.9627 -.2705 .2036 .7245 -7.386 11.97)" gradientUnits="userSpaceOnUse"><stop offset="0" stop-color="#ffc23b"/><stop offset=".095" stop-color="#ffc942" stop-opacity=".972"/><stop offset=".231" stop-color="#ffdb55" stop-opacity=".932"/><stop offset=".348" stop-color="#fff06b" stop-opacity=".898"/><stop offset=".435" stop-color="#fff177" stop-opacity=".778"/><stop offset=".591" stop-color="#fff495" stop-opacity=".563"/><stop offset=".795" stop-color="#fff9c7" stop-opacity=".282"/><stop offset="1" stop-color="#fff" stop-opacity="0"/></radialGradient><path fill="url(#0qh1ZhzygDQEpI_kCm9tPc)" d="M38.079,42.462c-3.307,3.443-10.119,5.261-15.648,4.213c-1.583-0.3-2.69-1.747-2.676-3.359	l0.085-9.923l12.776-3.614l5.811,8.36C39.358,39.479,39.209,41.286,38.079,42.462z"/><linearGradient id="0qh1ZhzygDQEpI_kCm9tPd" x1="24.056" x2="24.056" y1="11.101" y2="14.827" gradientTransform="rotate(-15.571 35.429 21.022)" gradientUnits="userSpaceOnUse"><stop offset="0" stop-color="#ababab" stop-opacity="0"/><stop offset=".381" stop-color="#626262" stop-opacity=".353"/><stop offset=".861" stop-opacity=".8"/></linearGradient><path fill="url(#0qh1ZhzygDQEpI_kCm9tPd)" d="M12.785,16.284c-0.688,1.835-0.831,3.843-0.283,5.81c1.482,5.32,7.428,8.311,13.28,6.681	s9.395-7.265,7.913-12.585c-0.548-1.967-1.709-3.613-3.247-4.827L12.785,16.284z"/><linearGradient id="0qh1ZhzygDQEpI_kCm9tPe" x1="24.365" x2="23.744" y1="27.687" y2="12.045" gradientTransform="rotate(-15.571 35.429 21.022)" gradientUnits="userSpaceOnUse"><stop offset="0" stop-color="#666"/><stop offset="1" stop-color="#b3b3b3"/></linearGradient><path fill="url(#0qh1ZhzygDQEpI_kCm9tPe)" d="M1.053,29.437l46.239-12.882l-3.891,5.06c-3.41,4.434-8.166,7.642-13.554,9.143l-6.518,1.816	C17.941,34.075,12.211,33.788,7,31.756L1.053,29.437z"/><linearGradient id="0qh1ZhzygDQEpI_kCm9tPf" x1="34.766" x2="57.217" y1="23.944" y2="50.282" gradientTransform="rotate(-15.571 35.429 21.022)" gradientUnits="userSpaceOnUse"><stop offset=".007" stop-color="#ababab" stop-opacity="0"/><stop offset=".023" stop-color="#9e9e9e" stop-opacity=".014"/><stop offset=".074" stop-color="#797979" stop-opacity=".057"/><stop offset=".131" stop-color="#585858" stop-opacity=".105"/><stop offset=".194" stop-color="#3c3c3c" stop-opacity=".158"/><stop offset=".264" stop-color="#262626" stop-opacity=".218"/><stop offset=".346" stop-color="#151515" stop-opacity=".288"/><stop offset=".447" stop-color="#090909" stop-opacity=".373"/><stop offset=".586" stop-color="#020202" stop-opacity=".491"/><stop offset=".951" stop-opacity=".8"/></linearGradient><path fill="url(#0qh1ZhzygDQEpI_kCm9tPf)" d="M36.053,19.686l-4.048,5.263c-2.084,2.71-4.493,5.121-7.154,7.2l4.995-1.392	c5.388-1.501,10.144-4.709,13.554-9.143l3.891-5.06L36.053,19.686z"/><linearGradient id="0qh1ZhzygDQEpI_kCm9tPg" x1="14.202" x2="14.202" y1="28.835" y2="22.738" gradientTransform="matrix(.9633 -.2684 .2954 1.0604 -5.135 7.436)" gradientUnits="userSpaceOnUse"><stop offset=".101" stop-color="#b3b3b3"/><stop offset="1" stop-color="#666"/></linearGradient><path fill="url(#0qh1ZhzygDQEpI_kCm9tPg)" d="M18.43,28.488c0.232,0.834-0.808,1.853-2.323,2.275c-1.515,0.422-2.932,0.088-3.165-0.746	c-0.232-0.834,0.808-1.853,2.323-2.275C16.781,27.32,18.198,27.654,18.43,28.488z"/><linearGradient id="0qh1ZhzygDQEpI_kCm9tPh" x1="33.83" x2="33.83" y1="29.009" y2="22.912" gradientTransform="matrix(.9633 -.2684 .2954 1.0604 -5.135 7.436)" gradientUnits="userSpaceOnUse"><stop offset=".101" stop-color="#b3b3b3"/><stop offset="1" stop-color="#666"/></linearGradient><path fill="url(#0qh1ZhzygDQEpI_kCm9tPh)" d="M37.338,23.221c0.232,0.834-0.808,1.853-2.323,2.275c-1.515,0.422-2.932,0.088-3.165-0.746	c-0.232-0.834,0.808-1.853,2.323-2.275C35.689,22.053,37.106,22.387,37.338,23.221z"/><radialGradient id="0qh1ZhzygDQEpI_kCm9tPi" cx="14.056" cy="24.316" r="2.007" gradientTransform="matrix(.9633 -.2684 .2338 .8393 -3.502 13.295)" gradientUnits="userSpaceOnUse"><stop offset="0" stop-color="#ff0"/><stop offset=".344" stop-color="#fff00c"/><stop offset=".975" stop-color="#ffca28"/></radialGradient><path fill="url(#0qh1ZhzygDQEpI_kCm9tPi)" d="M17.539,28.996c0.148,0.532-0.594,1.204-1.658,1.5c-1.064,0.296-2.047,0.105-2.195-0.427	s0.594-1.204,1.658-1.5C16.408,28.273,17.391,28.464,17.539,28.996z"/><radialGradient id="0qh1ZhzygDQEpI_kCm9tPj" cx="34.056" cy="24.316" r="2.007" gradientTransform="matrix(.9633 -.2684 .2338 .8393 -3.502 13.295)" gradientUnits="userSpaceOnUse"><stop offset="0" stop-color="#ff0"/><stop offset=".344" stop-color="#fff00c"/><stop offset=".975" stop-color="#ffca28"/></radialGradient><path fill="url(#0qh1ZhzygDQEpI_kCm9tPj)" d="M36.806,23.629c0.148,0.532-0.594,1.204-1.658,1.5c-1.064,0.296-2.047,0.105-2.195-0.427	c-0.148-0.532,0.594-1.204,1.658-1.5C35.675,22.906,36.657,23.097,36.806,23.629z"/><linearGradient id="0qh1ZhzygDQEpI_kCm9tPk" x1="24.056" x2="24.056" y1="28.661" y2="22.564" gradientTransform="matrix(.9633 -.2684 .2954 1.0604 -5.135 7.436)" gradientUnits="userSpaceOnUse"><stop offset=".101" stop-color="#b3b3b3"/><stop offset="1" stop-color="#666"/></linearGradient><path fill="url(#0qh1ZhzygDQEpI_kCm9tPk)" d="M27.923,25.844c0.232,0.834-0.808,1.853-2.323,2.275c-1.515,0.422-2.932,0.088-3.165-0.746	c-0.232-0.834,0.808-1.853,2.323-2.275S27.69,25.01,27.923,25.844z"/><radialGradient id="0qh1ZhzygDQEpI_kCm9tPl" cx="24.056" cy="24.316" r="2.007" gradientTransform="matrix(.9633 -.2684 .2338 .8393 -3.502 13.295)" gradientUnits="userSpaceOnUse"><stop offset="0" stop-color="#ff0"/><stop offset=".344" stop-color="#fff00c"/><stop offset=".975" stop-color="#ffca28"/></radialGradient><path fill="url(#0qh1ZhzygDQEpI_kCm9tPl)" d="M27.172,26.312c0.148,0.532-0.594,1.204-1.658,1.5c-1.064,0.296-2.047,0.105-2.195-0.427	c-0.148-0.532,0.594-1.204,1.658-1.5C26.041,25.589,27.024,25.78,27.172,26.312z"/><linearGradient id="0qh1ZhzygDQEpI_kCm9tPm" x1="6.703" x2="6.703" y1="28.098" y2="21.387" gradientTransform="rotate(-15.571 35.429 21.022)" gradientUnits="userSpaceOnUse"><stop offset=".101" stop-color="#b3b3b3"/><stop offset="1" stop-color="#666"/></linearGradient><path fill="url(#0qh1ZhzygDQEpI_kCm9tPm)" d="M7.782,29.827c-1.32,0.232-1.769,0.902-1.456,1.665L7,31.756	c0.835,0.325,1.687,0.583,2.546,0.815c0.876-0.404,1.206-1.025,1.013-1.718C10.326,30.018,9.159,29.586,7.782,29.827z"/><linearGradient id="0qh1ZhzygDQEpI_kCm9tPn" x1="19.995" x2="19.995" y1="27.811" y2="21.1" gradientTransform="scale(-1 1) rotate(15.569 -4.758 -203.393)" gradientUnits="userSpaceOnUse"><stop offset=".101" stop-color="#595959"/><stop offset="1" stop-color="#666"/></linearGradient><path fill="url(#0qh1ZhzygDQEpI_kCm9tPn)" d="M41.69,20.381c1.25-0.484,1.98-0.142,2.108,0.673l-0.441,0.573	c-0.546,0.71-1.143,1.372-1.758,2.014c-0.958,0.107-1.562-0.254-1.755-0.947C39.611,21.86,40.386,20.886,41.69,20.381z"/><path fill="#ffd91d" d="M9.833,31.143c0.148,0.532-0.379,1.144-1.177,1.366c-0.635,0.177-1.288-0.067-1.675-0.461	c-0.37-0.377-0.342-1.053,0.456-1.276C8.768,30.402,9.685,30.611,9.833,31.143z"/><path fill="#ffd91d" d="M40.571,22.58c0.148,0.532,0.915,0.783,1.713,0.561c0.635-0.177,1.068-0.723,1.195-1.261	c0.122-0.514-0.252-1.078-1.05-0.856C41.631,21.246,40.422,22.048,40.571,22.58z"/><linearGradient id="0qh1ZhzygDQEpI_kCm9tPo" x1="24.374" x2="23.763" y1="8.133" y2="65.878" gradientTransform="rotate(-2.563 95.15 24.49)" gradientUnits="userSpaceOnUse"><stop offset="0" stop-color="#666"/><stop offset=".896" stop-color="#b3b3b3"/></linearGradient><path fill="url(#0qh1ZhzygDQEpI_kCm9tPo)" d="M23.298,31.888c-3.524-3.006-5.022-7.231-5.084-7.409l0.471-0.164	c0.015,0.042,1.52,4.276,4.937,7.193L23.298,31.888z M17.73,33.056c-5.513-0.777-9.524-5.891-9.563-5.941l-0.396,0.305	c0.167,0.218,4.17,5.325,9.89,6.132L17.73,33.056z M29.474,30.167c1.462-4.395,0.56-8.786,0.521-8.971L29.507,21.3	c0.009,0.044,0.91,4.446-0.506,8.709L29.474,30.167z M35.159,28.677c4.479-3.648,5.265-10.09,5.295-10.363l-0.496-0.056	c-0.008,0.064-0.797,6.514-5.114,10.03L35.159,28.677z"/><polygon fill="#949494" points="18.726,4.072 19.923,9.646 20.907,9.372 19.049,3.982"/><radialGradient id="0qh1ZhzygDQEpI_kCm9tPp" cx="17.322" cy="18.742" r="10.927" gradientTransform="rotate(-15.571 35.429 21.022)" gradientUnits="userSpaceOnUse"><stop offset="0" stop-color="#fff"/><stop offset="1" stop-color="#b3b3b3"/></radialGradient><path fill="url(#0qh1ZhzygDQEpI_kCm9tPp)" d="M32.89,13.301l-10.596,2.952l-10.596,2.952c-3.434,2.161-8.303,5.112-10.913,9.269	l0.268,0.963l23.12-6.441l23.12-6.441l-0.268-0.963C42.64,13.384,36.947,13.374,32.89,13.301z"/><path fill="#7f7f7f" d="M25.33,9.178c-1.686-0.608-3.418-0.747-5.086-0.283s-3.078,1.479-4.207,2.871L25.33,9.178z"/><radialGradient id="0qh1ZhzygDQEpI_kCm9tPq" cx="22.084" cy="27.778" r="7.81" gradientTransform="matrix(.9633 -.2684 .1541 .5531 -.93 22.529)" gradientUnits="userSpaceOnUse"><stop offset=".154" stop-color="#00aba9"/><stop offset=".656" stop-color="#179898"/><stop offset="1" stop-color="#219090"/></radialGradient><path fill="url(#0qh1ZhzygDQEpI_kCm9tPq)" d="M36.579,29.484l-19.671,5.48c-0.42,0.117-0.856-0.129-0.973-0.549h0	c-0.117-0.42,0.129-0.856,0.549-0.973l19.671-5.48c0.42-0.117,0.856,0.129,0.973,0.549v0C37.245,28.931,36.999,29.367,36.579,29.484	z"/><radialGradient id="0qh1ZhzygDQEpI_kCm9tPr" cx="29.424" cy="-16.738" r="3.479" gradientTransform="matrix(.7257 -.2022 .0383 .1373 -1.454 18.545)" gradientUnits="userSpaceOnUse"><stop offset="0" stop-color="#bdbdbd"/><stop offset=".999" stop-color="#bfbfbf" stop-opacity="0"/></radialGradient><path fill="url(#0qh1ZhzygDQEpI_kCm9tPr)" d="M22.138,9.49c0.088,0.315-1.097,0.921-2.646,1.352c-1.549,0.432-2.876,0.526-2.964,0.211	c-0.088-0.315,1.097-0.921,2.646-1.352C20.723,9.269,22.05,9.175,22.138,9.49z"/><linearGradient id="0qh1ZhzygDQEpI_kCm9tPs" x1="35.292" x2="62.774" y1="19.433" y2="-17.876" gradientTransform="rotate(-15.571 35.429 21.022)" gradientUnits="userSpaceOnUse"><stop offset=".007" stop-color="#ababab" stop-opacity="0"/><stop offset=".023" stop-color="#9e9e9e" stop-opacity=".014"/><stop offset=".074" stop-color="#797979" stop-opacity=".057"/><stop offset=".131" stop-color="#585858" stop-opacity=".105"/><stop offset=".194" stop-color="#3c3c3c" stop-opacity=".158"/><stop offset=".265" stop-color="#262626" stop-opacity=".218"/><stop offset=".347" stop-color="#151515" stop-opacity=".288"/><stop offset=".448" stop-color="#090909" stop-opacity=".373"/><stop offset=".587" stop-color="#020202" stop-opacity=".491"/><stop offset=".953" stop-opacity=".8"/></linearGradient><path fill="url(#0qh1ZhzygDQEpI_kCm9tPs)" d="M32.89,13.301l-7.766,2.164c3.379,0.353,6.115,1.361,10.012,3.716l0.197,0.706l11.959-3.332	l-0.268-0.963C42.64,13.384,36.947,13.374,32.89,13.301z"/><linearGradient id="0qh1ZhzygDQEpI_kCm9tPt" x1="19.02" x2="21.021" y1="1.349" y2="1.349" gradientTransform="rotate(-2.563 95.15 24.49)" gradientUnits="userSpaceOnUse"><stop offset="0" stop-color="#f68381"/><stop offset=".547" stop-color="#e62228"/><stop offset=".903" stop-color="#8e2809"/></linearGradient><circle cx="19.073" cy="4.693" r="1" fill="url(#0qh1ZhzygDQEpI_kCm9tPt)"/><linearGradient id="0qh1ZhzygDQEpI_kCm9tPu" x1="46.446" x2="22.288" y1="3.331" y2="2.913" gradientTransform="rotate(-14.129 92.658 25.06)" gradientUnits="userSpaceOnUse"><stop offset="0" stop-color="#8a8a8a"/><stop offset=".969" stop-color="#b3b3b3"/></linearGradient><path fill="url(#0qh1ZhzygDQEpI_kCm9tPu)" d="M31.908,17.74l-4.381,1.197l1.505,1.81l-0.192,0.159l-1.753-2.108l4.856-1.327l0.045,0.026	c0.069,0.04,1.707,0.986,2.218,1.815l-0.212,0.132C33.56,18.741,32.175,17.899,31.908,17.74z M25.941,17.481l5.988-1.507	c0.348,0.084,3.739,0.924,5.335,2.415l0.172-0.182c-1.726-1.612-5.327-2.448-5.48-2.484l-5.926,1.478	c-0.493-0.56-1.186-1.17-1.622-1.538l-0.292,0.081c0.422,0.351,1.247,1.063,1.775,1.677L25.941,17.481z M39.013,15.545l-0.454,0.104	l0.445,0.137c1.47,0.455,3.273,1.372,3.291,1.38l0.113-0.222c-0.016-0.009-1.515-0.771-2.905-1.257	c1.418-0.334,3.417-0.847,4.682-1.176c-0.153-0.045-0.302-0.099-0.456-0.14C42.321,14.736,40.298,15.251,39.013,15.545z M13.543,23.235c-0.392,0.709-0.771,1.484-1.024,2.231l0.237,0.079c0.272-0.802,0.693-1.645,1.118-2.393l6.61-1.664l-0.003-0.1	c-0.001-0.029-0.07-2.933,0.876-4.771l-0.13-0.067l-0.129,0.036c-0.846,1.72-0.875,4.176-0.87,4.709l-6.178,1.555	c0.67-1.138,1.3-1.996,1.311-2.011l0.204-0.274l-0.333,0.078c-0.032,0.008-3.016,0.704-4.707,1.173	c1.152-1.38,3.025-2.744,3.968-3.39l-0.72,0.2c-1.108,0.798-2.739,2.082-3.687,3.34L9.86,22.268l0.362-0.106	c1.286-0.378,3.842-0.988,4.744-1.199c-0.264,0.375-0.757,1.106-1.255,1.972l-7.189,1.81l-0.051,0.027	c-1.299,1.116-2.538,3.091-2.591,3.175l0.212,0.132c0.012-0.02,1.256-2.003,2.518-3.098L13.543,23.235z"/><radialGradient id="0qh1ZhzygDQEpI_kCm9tPv" cx="17.673" cy="19.465" r="16.974" gradientTransform="rotate(-15.571 35.429 21.022)" gradientUnits="userSpaceOnUse"><stop offset="0" stop-color="#fff"/><stop offset="1" stop-color="#ccc"/></radialGradient><polygon fill="url(#0qh1ZhzygDQEpI_kCm9tPv)" points="47.292,16.555 1.053,29.437 0.784,28.473 47.024,15.592"/><radialGradient id="0qh1ZhzygDQEpI_kCm9tPw" cx="18.196" cy="-3.241" r="9.933" gradientTransform="matrix(.9732 -.2711 .0433 .1553 -4.776 31.108)" gradientUnits="userSpaceOnUse"><stop offset="0" stop-color="#fff"/><stop offset=".999" stop-color="#fff" stop-opacity="0"/></radialGradient><path fill="url(#0qh1ZhzygDQEpI_kCm9tPw)" d="M23.814,22.583c0.284,1.018-4.295,3.183-10.226,4.836c-5.931,1.652-10.97,2.167-11.253,1.148	c-0.284-1.018,4.295-3.183,10.226-4.836S23.53,21.565,23.814,22.583z"/><radialGradient id="0qh1ZhzygDQEpI_kCm9tPx" cx="22.221" cy="-9.55" r="3.479" gradientTransform="matrix(.9633 -.2684 .0383 .1373 -5.666 26.116)" gradientUnits="userSpaceOnUse"><stop offset="0" stop-color="#fff"/><stop offset=".999" stop-color="#fff" stop-opacity="0"/></radialGradient><path fill="url(#0qh1ZhzygDQEpI_kCm9tPx)" d="M19.195,17.771c0.088,0.315-1.508,1.035-3.564,1.608c-2.056,0.573-3.794,0.782-3.882,0.466	s1.508-1.035,3.564-1.608S19.107,17.456,19.195,17.771z"/></svg>