<svg xmlns="http://www.w3.org/2000/svg"  viewBox="0 0 48 48" width="48px" height="48px"><rect width="4" height="2" x="34" y="28" fill="#8b8a89" transform="rotate(-180 36 29)"/><rect width="4" height="2" x="36" y="36" fill="#8b8a89" transform="rotate(-180 38 37)"/><rect width="4" height="2" x="32" y="20" fill="#8b8a89" transform="rotate(-180 34 21)"/><rect width="4" height="2" x="30" y="12" fill="#8b8a89" transform="rotate(-180 32 13)"/><linearGradient id="K2oRkTfBv2A4KvRysppF~a" x1="66.822" x2="48.095" y1="34.46" y2="21.57" gradientTransform="matrix(-1 0 0 1 87.494 0)" gradientUnits="userSpaceOnUse"><stop offset="0" stop-color="#999898"/><stop offset="1" stop-color="#bdbdbd"/></linearGradient><polygon fill="url(#K2oRkTfBv2A4KvRysppF~a)" points="38.643,44 41.643,44 31.643,5 28.643,5"/><linearGradient id="K2oRkTfBv2A4KvRysppF~b" x1="47.685" x2="77.537" y1="20.611" y2="51.917" gradientTransform="matrix(-1 0 0 1 87.494 0)" gradientUnits="userSpaceOnUse"><stop offset="0" stop-color="#9f9e9e"/><stop offset="1" stop-color="#646461"/></linearGradient><polygon fill="url(#K2oRkTfBv2A4KvRysppF~b)" points="39.6,44 42.6,44 32.6,5 29.6,5"/><linearGradient id="K2oRkTfBv2A4KvRysppF~c" x1="70.104" x2="60.67" y1="24.996" y2="24.409" gradientTransform="matrix(-1 0 .028 1 87.354 0)" gradientUnits="userSpaceOnUse"><stop offset="0" stop-color="#999898"/><stop offset="1" stop-color="#bdbdbd"/></linearGradient><polygon fill="url(#K2oRkTfBv2A4KvRysppF~c)" points="29.417,44 32.417,44 22.388,5 19.388,5"/><linearGradient id="K2oRkTfBv2A4KvRysppF~d" x1="69.104" x2="59.67" y1="24.996" y2="24.409" gradientTransform="matrix(-1 0 .028 1 87.354 0)" gradientUnits="userSpaceOnUse"><stop offset="0" stop-color="#9f9e9e"/><stop offset="1" stop-color="#646461"/></linearGradient><polygon fill="url(#K2oRkTfBv2A4KvRysppF~d)" points="30.417,44 33.417,44 23.388,5 20.388,5"/><path fill="#0f0f0e" d="M33.548,45h-3.782c-0.128,0-0.24-0.086-0.273-0.21l-0.439-1.702l1.103,0.004l2.886-1.032l0.108,0.377	l0.668,2.199C33.874,44.817,33.738,45,33.548,45z"/><path fill="#0f0f0e" d="M42.74,45h-3.782c-0.128,0-0.24-0.086-0.273-0.21l-0.439-1.702l1.103,0.004l2.886-1.032l0.108,0.377	l0.668,2.199C43.065,44.817,42.929,45,42.74,45z"/><linearGradient id="K2oRkTfBv2A4KvRysppF~e" x1="22.356" x2="11.868" y1="25.051" y2="24.398" gradientTransform="matrix(1 0 -.028 1 .14 0)" gradientUnits="userSpaceOnUse"><stop offset="0" stop-color="#999898"/><stop offset="1" stop-color="#bdbdbd"/></linearGradient><polygon fill="url(#K2oRkTfBv2A4KvRysppF~e)" points="8.908,44 5.908,44 17,5 20,5"/><rect width="5" height="2" x="18" y="28" fill="#8b8a89"/><linearGradient id="K2oRkTfBv2A4KvRysppF~f" x1="23.356" x2="12.868" y1="25.051" y2="24.398" gradientTransform="matrix(1 0 -.028 1 .14 0)" gradientUnits="userSpaceOnUse"><stop offset="0" stop-color="#9f9e9e"/><stop offset="1" stop-color="#646461"/></linearGradient><polygon fill="url(#K2oRkTfBv2A4KvRysppF~f)" points="9.908,44 6.908,44 18,5 21,5"/><linearGradient id="K2oRkTfBv2A4KvRysppF~g" x1="21.142" x2="12.092" y1="29.475" y2="28.912" gradientUnits="userSpaceOnUse"><stop offset="0" stop-color="#999898"/><stop offset="1" stop-color="#bdbdbd"/></linearGradient><rect width="9" height="2" x="9" y="28" fill="url(#K2oRkTfBv2A4KvRysppF~g)"/><rect width="5" height="2" x="16" y="36" fill="#8b8a89"/><linearGradient id="K2oRkTfBv2A4KvRysppF~h" x1="19.142" x2="10.092" y1="37.475" y2="36.912" gradientUnits="userSpaceOnUse"><stop offset="0" stop-color="#999898"/><stop offset="1" stop-color="#bdbdbd"/></linearGradient><rect width="9" height="2" x="7" y="36" fill="url(#K2oRkTfBv2A4KvRysppF~h)"/><linearGradient id="K2oRkTfBv2A4KvRysppF~i" x1="65.636" x2="56.586" y1="29.475" y2="28.912" gradientTransform="matrix(-1 0 0 1 87.494 0)" gradientUnits="userSpaceOnUse"><stop offset="0" stop-color="#999898"/><stop offset="1" stop-color="#bdbdbd"/></linearGradient><polygon fill="url(#K2oRkTfBv2A4KvRysppF~i)" points="25,30 34,30 34,28 25,28"/><linearGradient id="K2oRkTfBv2A4KvRysppF~j" x1="63.636" x2="54.586" y1="37.475" y2="36.912" gradientTransform="matrix(-1 0 0 1 87.494 0)" gradientUnits="userSpaceOnUse"><stop offset="0" stop-color="#999898"/><stop offset="1" stop-color="#bdbdbd"/></linearGradient><polygon fill="url(#K2oRkTfBv2A4KvRysppF~j)" points="27,38 36,38 36,36 27,36"/><linearGradient id="K2oRkTfBv2A4KvRysppF~k" x1="67.636" x2="58.586" y1="21.475" y2="20.912" gradientTransform="matrix(-1 0 0 1 87.494 0)" gradientUnits="userSpaceOnUse"><stop offset="0" stop-color="#999898"/><stop offset="1" stop-color="#bdbdbd"/></linearGradient><polygon fill="url(#K2oRkTfBv2A4KvRysppF~k)" points="23,22 32,22 32,20 23,20"/><linearGradient id="K2oRkTfBv2A4KvRysppF~l" x1="69.636" x2="60.586" y1="13.475" y2="12.912" gradientTransform="matrix(-1 0 0 1 87.494 0)" gradientUnits="userSpaceOnUse"><stop offset="0" stop-color="#999898"/><stop offset="1" stop-color="#bdbdbd"/></linearGradient><polygon fill="url(#K2oRkTfBv2A4KvRysppF~l)" points="21,14 30,14 30,12 21,12"/><rect width="5" height="2" x="20" y="20" fill="#8b8a89"/><linearGradient id="K2oRkTfBv2A4KvRysppF~m" x1="23.142" x2="14.092" y1="21.475" y2="20.912" gradientUnits="userSpaceOnUse"><stop offset="0" stop-color="#999898"/><stop offset="1" stop-color="#bdbdbd"/></linearGradient><rect width="9" height="2" x="11" y="20" fill="url(#K2oRkTfBv2A4KvRysppF~m)"/><rect width="5" height="2" x="22" y="12" fill="#8b8a89"/><linearGradient id="K2oRkTfBv2A4KvRysppF~n" x1="25.142" x2="16.092" y1="13.475" y2="12.912" gradientUnits="userSpaceOnUse"><stop offset="0" stop-color="#999898"/><stop offset="1" stop-color="#bdbdbd"/></linearGradient><rect width="9" height="2" x="13" y="12" fill="url(#K2oRkTfBv2A4KvRysppF~n)"/><linearGradient id="K2oRkTfBv2A4KvRysppF~o" x1="36.971" x2="18.244" y1="34.46" y2="21.57" gradientUnits="userSpaceOnUse"><stop offset="0" stop-color="#999898"/><stop offset="1" stop-color="#bdbdbd"/></linearGradient><polygon fill="url(#K2oRkTfBv2A4KvRysppF~o)" points="19,44 16,44 26,5 29,5"/><linearGradient id="K2oRkTfBv2A4KvRysppF~p" x1="19.791" x2="49.643" y1="20.611" y2="51.917" gradientUnits="userSpaceOnUse"><stop offset="0" stop-color="#9f9e9e"/><stop offset="1" stop-color="#646461"/></linearGradient><polygon fill="url(#K2oRkTfBv2A4KvRysppF~p)" points="20,44 17,44 27,5 30,5"/><path fill="#0f0f0e" d="M15.854,45h3.782c0.128,0,0.24-0.086,0.273-0.21l0.351-1.335l-2.86-1.018l-1.149,0l-0.668,2.199	C15.529,44.817,15.664,45,15.854,45z"/><linearGradient id="K2oRkTfBv2A4KvRysppF~q" x1="20.634" x2="15.666" y1="43.792" y2="43.701" gradientUnits="userSpaceOnUse"><stop offset="0" stop-color="#fff" stop-opacity=".8"/><stop offset="1" stop-color="#fff" stop-opacity="0"/></linearGradient><path fill="url(#K2oRkTfBv2A4KvRysppF~q)" d="M17.4,42.509l0.012-0.068L17.4,42.437l-1.149,0l-0.668,2.198	C15.529,44.817,15.664,45,15.854,45h0.857L17.4,42.509z"/><path fill="#0f0f0e" d="M5.776,45h3.782c0.128,0,0.24-0.086,0.273-0.21l0.351-1.335l-2.86-1.018l-1.149,0l-0.668,2.199	C5.451,44.817,5.587,45,5.776,45z"/><linearGradient id="K2oRkTfBv2A4KvRysppF~r" x1="10.557" x2="5.589" y1="43.792" y2="43.701" gradientUnits="userSpaceOnUse"><stop offset="0" stop-color="#fff" stop-opacity=".8"/><stop offset="1" stop-color="#fff" stop-opacity="0"/></linearGradient><path fill="url(#K2oRkTfBv2A4KvRysppF~r)" d="M7.323,42.509l0.012-0.068l-0.012-0.004l-1.149,0l-0.668,2.198	C5.451,44.817,5.587,45,5.776,45h0.857L7.323,42.509z"/><linearGradient id="K2oRkTfBv2A4KvRysppF~s" x1="36.13" x2="30.055" y1="5.319" y2="4.941" gradientUnits="userSpaceOnUse"><stop offset="0" stop-color="#999898"/><stop offset="1" stop-color="#bdbdbd"/></linearGradient><rect width="6" height="2" x="28" y="4" fill="url(#K2oRkTfBv2A4KvRysppF~s)"/><linearGradient id="K2oRkTfBv2A4KvRysppF~t" x1="32.492" x2="19.474" y1="5.684" y2="4.874" gradientUnits="userSpaceOnUse"><stop offset="0" stop-color="#999898"/><stop offset="1" stop-color="#bdbdbd"/></linearGradient><rect width="13" height="2" x="15" y="4" fill="url(#K2oRkTfBv2A4KvRysppF~t)"/><linearGradient id="K2oRkTfBv2A4KvRysppF~u" x1="33.171" x2="29.249" y1="44.027" y2="44.047" gradientUnits="userSpaceOnUse"><stop offset="0" stop-color="#fff" stop-opacity=".8"/><stop offset="1" stop-color="#fff" stop-opacity="0"/></linearGradient><path fill="url(#K2oRkTfBv2A4KvRysppF~u)" d="M30.16,43.091l-0.004,0.001l-1.103-0.004l0.439,1.702c0.033,0.124,0.145,0.21,0.273,0.21	h0.881L30.16,43.091z"/><linearGradient id="K2oRkTfBv2A4KvRysppF~v" x1="42.362" x2="38.441" y1="44.027" y2="44.047" gradientUnits="userSpaceOnUse"><stop offset="0" stop-color="#fff" stop-opacity=".8"/><stop offset="1" stop-color="#fff" stop-opacity="0"/></linearGradient><path fill="url(#K2oRkTfBv2A4KvRysppF~v)" d="M39.352,43.091l-0.004,0.001l-1.103-0.004l0.439,1.702c0.033,0.124,0.145,0.21,0.273,0.21	h0.881L39.352,43.091z"/></svg>