<svg xmlns="http://www.w3.org/2000/svg"  viewBox="0 0 48 48" width="48px" height="48px"><linearGradient id="mLLLjQXKUswf22wjNdOoYa" x1="16.009" x2="6.582" y1="6.033" y2="19.125" gradientUnits="userSpaceOnUse"><stop offset="0" stop-color="#c8c8c8"/><stop offset="1" stop-color="#6a6a6a"/></linearGradient><polygon fill="url(#mLLLjQXKUswf22wjNdOoYa)" points="2.287,0.165 0.165,2.287 3.701,7.237 6.529,8.651 21.379,23.5 23.5,21.379 8.651,6.529 7.237,3.701"/><linearGradient id="mLLLjQXKUswf22wjNdOoYb" x1="18" x2="29" y1="39.5" y2="39.5" gradientTransform="rotate(-45.001 23.5 23.5)" gradientUnits="userSpaceOnUse"><stop offset=".025" stop-color="#e08205"/><stop offset=".313" stop-color="#ed9a1e"/><stop offset=".707" stop-color="#fabc25"/><stop offset="1" stop-color="#ffca28"/></linearGradient><path fill="url(#mLLLjQXKUswf22wjNdOoYb)" d="M27.036,20.672l-6.364,6.364c1.623,1,2.744,2.235,3.262,3.755	c0.283,0.83,0.69,1.611,1.31,2.231l14.52,14.52c3.536,2.121,9.899-4.243,7.778-7.778L32.967,25.188	c-0.579-0.579-1.291-1.006-2.067-1.268C29.222,23.354,27.922,22.287,27.036,20.672z"/><linearGradient id="mLLLjQXKUswf22wjNdOoYc" x1="15.85" x2="26.376" y1="24.821" y2="21.627" gradientTransform="rotate(-45.001 23.5 23.5)" gradientUnits="userSpaceOnUse"><stop offset=".025" stop-color="#e08205"/><stop offset=".313" stop-color="#ed9a1e"/><stop offset=".707" stop-color="#fabc25"/><stop offset="1" stop-color="#ffca28"/></linearGradient><path fill="url(#mLLLjQXKUswf22wjNdOoYc)" d="M24.877,18.588l-6.289,6.289c-0.411,0.411-0.411,1.078,0,1.489l0.632,0.632	c0.411,0.411,1.078,0.411,1.489,0l6.289-6.289c0.411-0.411,0.411-1.078,0-1.489l-0.632-0.632	C25.955,18.177,25.288,18.177,24.877,18.588z"/><linearGradient id="mLLLjQXKUswf22wjNdOoYd" x1="21.375" x2="24.304" y1="44.605" y2="44.605" gradientTransform="rotate(134.999 29.077 44.036)" gradientUnits="userSpaceOnUse"><stop offset="0" stop-color="#875324" stop-opacity=".7"/><stop offset="1" stop-color="#d4ac78" stop-opacity="0"/></linearGradient><path fill="url(#mLLLjQXKUswf22wjNdOoYd)" d="M26.958,31.776L26.958,31.776c0.334-0.334,0.876-0.334,1.21,0l12.367,12.36	c0.334,0.334,0.334,0.876,0,1.21l0,0c-0.334,0.334-0.876,0.334-1.21,0l-12.367-12.36C26.624,32.651,26.624,32.11,26.958,31.776z"/><linearGradient id="mLLLjQXKUswf22wjNdOoYe" x1="17.954" x2="20.883" y1="44.605" y2="44.605" gradientTransform="rotate(134.999 29.077 44.036)" gradientUnits="userSpaceOnUse"><stop offset="0" stop-color="#875324" stop-opacity=".7"/><stop offset="1" stop-color="#d4ac78" stop-opacity="0"/></linearGradient><path fill="url(#mLLLjQXKUswf22wjNdOoYe)" d="M29.377,29.357L29.377,29.357c0.334-0.334,0.876-0.334,1.21,0l12.367,12.36	c0.334,0.334,0.334,0.876,0,1.21l0,0c-0.334,0.334-0.876,0.334-1.21,0l-12.367-12.36C29.043,30.232,29.043,29.691,29.377,29.357z"/><linearGradient id="mLLLjQXKUswf22wjNdOoYf" x1="14.533" x2="17.462" y1="44.605" y2="44.605" gradientTransform="rotate(134.999 29.077 44.036)" gradientUnits="userSpaceOnUse"><stop offset="0" stop-color="#875324" stop-opacity=".7"/><stop offset="1" stop-color="#d4ac78" stop-opacity="0"/></linearGradient><path fill="url(#mLLLjQXKUswf22wjNdOoYf)" d="M31.796,26.937L31.796,26.937c0.334-0.334,0.876-0.334,1.21,0l12.367,12.36	c0.334,0.334,0.334,0.876,0,1.21l0,0c-0.334,0.334-0.876,0.334-1.21,0l-12.367-12.36C31.462,27.813,31.462,27.271,31.796,26.937z"/><linearGradient id="mLLLjQXKUswf22wjNdOoYg" x1="23.512" x2="23.512" y1="21.404" y2="27.138" gradientTransform="rotate(-45.001 23.5 23.5)" gradientUnits="userSpaceOnUse"><stop offset="0" stop-color="#996e4d"/><stop offset="1" stop-color="#754c24" stop-opacity="0"/></linearGradient><path fill="url(#mLLLjQXKUswf22wjNdOoYg)" d="M23.515,29.849l6.366-6.366c-1.191-0.615-2.149-1.54-2.846-2.811l-6.364,6.364	C21.945,27.82,22.909,28.75,23.515,29.849z"/><linearGradient id="mLLLjQXKUswf22wjNdOoYh" x1="13.174" x2="17.386" y1="5.73" y2="22.677" gradientTransform="matrix(1.0371 .0371 .0371 1.0371 -1.612 -1.612)" gradientUnits="userSpaceOnUse"><stop offset="0" stop-color="#fff" stop-opacity="0"/><stop offset=".994" stop-color="#fff" stop-opacity=".5"/></linearGradient><polygon fill="url(#mLLLjQXKUswf22wjNdOoYh)" points="22.736,20.681 21.856,21.561 6.706,6.411 7.586,5.531"/><radialGradient id="mLLLjQXKUswf22wjNdOoYi" cx="28.673" cy="28.255" r="3.962" gradientUnits="userSpaceOnUse"><stop offset=".006" stop-color="#fff" stop-opacity=".5"/><stop offset="1" stop-color="#fff" stop-opacity="0"/></radialGradient><path fill="url(#mLLLjQXKUswf22wjNdOoYi)" d="M31.473,24.904l-6.75,6.606c0,0-0.766-1.963-1.245-2.872c1.867-1.771,4.979-4.979,4.979-4.979	S30.851,24.952,31.473,24.904z"/><linearGradient id="mLLLjQXKUswf22wjNdOoYj" x1="42.293" x2="49.782" y1="44.058" y2="44.058" gradientUnits="userSpaceOnUse"><stop offset="0" stop-color="#e08205"/><stop offset="1" stop-color="#f8b824" stop-opacity="0"/></linearGradient><path fill="url(#mLLLjQXKUswf22wjNdOoYj)" d="M47.535,40.343c-1.221,1.245-5.194,5.745-7.444,7.181	C43.043,48.781,48.109,45.12,47.535,40.343z"/><linearGradient id="mLLLjQXKUswf22wjNdOoYk" x1="4.929" x2="5.506" y1="6.998" y2="-.079" gradientUnits="userSpaceOnUse"><stop offset="0" stop-color="#fff" stop-opacity="0"/><stop offset=".994" stop-color="#fff" stop-opacity=".5"/></linearGradient><polygon fill="url(#mLLLjQXKUswf22wjNdOoYk)" points="1.872,0.617 6.596,4.287 7.553,7.096 8.543,6.553 7.237,3.701 2.287,0.165"/></svg>